%TF.GenerationSoftware,KiCad,Pcbnew,(6.0.0-0)*%
%TF.CreationDate,2022-06-16T21:01:12+01:00*%
%TF.ProjectId,icl7660-negative-supply-adapter,69636c37-3636-4302-9d6e-656761746976,rev?*%
%TF.SameCoordinates,Original*%
%TF.FileFunction,Soldermask,Top*%
%TF.FilePolarity,Negative*%
%FSLAX46Y46*%
G04 Gerber Fmt 4.6, Leading zero omitted, Abs format (unit mm)*
G04 Created by KiCad (PCBNEW (6.0.0-0)) date 2022-06-16 21:01:12*
%MOMM*%
%LPD*%
G01*
G04 APERTURE LIST*
G04 Aperture macros list*
%AMRoundRect*
0 Rectangle with rounded corners*
0 $1 Rounding radius*
0 $2 $3 $4 $5 $6 $7 $8 $9 X,Y pos of 4 corners*
0 Add a 4 corners polygon primitive as box body*
4,1,4,$2,$3,$4,$5,$6,$7,$8,$9,$2,$3,0*
0 Add four circle primitives for the rounded corners*
1,1,$1+$1,$2,$3*
1,1,$1+$1,$4,$5*
1,1,$1+$1,$6,$7*
1,1,$1+$1,$8,$9*
0 Add four rect primitives between the rounded corners*
20,1,$1+$1,$2,$3,$4,$5,0*
20,1,$1+$1,$4,$5,$6,$7,0*
20,1,$1+$1,$6,$7,$8,$9,0*
20,1,$1+$1,$8,$9,$2,$3,0*%
G04 Aperture macros list end*
%ADD10C,5.600000*%
%ADD11O,1.600000X1.600000*%
%ADD12R,1.600000X1.600000*%
%ADD13RoundRect,0.250000X-0.600000X-0.600000X0.600000X-0.600000X0.600000X0.600000X-0.600000X0.600000X0*%
%ADD14C,1.700000*%
%ADD15R,1.700000X1.700000*%
%ADD16O,1.700000X1.700000*%
%ADD17R,2.200000X2.200000*%
%ADD18O,2.200000X2.200000*%
%ADD19C,1.600000*%
G04 APERTURE END LIST*
D10*
%TO.C,H4*%
X153162000Y-82042000D03*
%TD*%
%TO.C,H3*%
X153162000Y-120142000D03*
%TD*%
D11*
%TO.C,U1*%
X138430000Y-105410000D03*
X146050000Y-97790000D03*
X138430000Y-102870000D03*
X146050000Y-100330000D03*
X138430000Y-100330000D03*
X146050000Y-102870000D03*
X138430000Y-97790000D03*
D12*
X146050000Y-105410000D03*
%TD*%
D13*
%TO.C,J2*%
X128883359Y-93472000D03*
D14*
X131423359Y-93472000D03*
X128883359Y-96012000D03*
X131423359Y-96012000D03*
X128883359Y-98552000D03*
X131423359Y-98552000D03*
X128883359Y-101092000D03*
X131423359Y-101092000D03*
X128883359Y-103632000D03*
X131423359Y-103632000D03*
X128883359Y-106172000D03*
X131423359Y-106172000D03*
X128883359Y-108712000D03*
X131423359Y-108712000D03*
X128883359Y-111252000D03*
X131423359Y-111252000D03*
%TD*%
D15*
%TO.C,J1*%
X151892000Y-113284000D03*
D16*
X151892000Y-110744000D03*
%TD*%
D10*
%TO.C,H2*%
X127762000Y-120142000D03*
%TD*%
%TO.C,H1*%
X127762000Y-82042000D03*
%TD*%
D17*
%TO.C,D2*%
X148336000Y-93472000D03*
D18*
X138176000Y-93472000D03*
%TD*%
D17*
%TO.C,D1*%
X137414000Y-113284000D03*
D18*
X147574000Y-113284000D03*
%TD*%
D19*
%TO.C,C2*%
X141986000Y-87590000D03*
D12*
X141986000Y-85090000D03*
%TD*%
%TO.C,C1*%
X152146000Y-100496380D03*
D19*
X152146000Y-97996380D03*
%TD*%
M02*
