M48
; DRILL file {KiCad (6.0.6-0)} date Wednesday, 29 June 2022 at 09:29:14
; FORMAT={-:-/ absolute / metric / decimal}
; #@! TF.CreationDate,2022-06-29T09:29:14+01:00
; #@! TF.GenerationSoftware,Kicad,Pcbnew,(6.0.6-0)
; #@! TF.FileFunction,MixedPlating,1,2
FMAT,2
METRIC
; #@! TA.AperFunction,Plated,PTH,ComponentDrill
T1C0.800
; #@! TA.AperFunction,Plated,PTH,ComponentDrill
T2C1.000
; #@! TA.AperFunction,Plated,PTH,ComponentDrill
T3C1.100
; #@! TA.AperFunction,Plated,PTH,ComponentDrill
T4C3.200
%
G90
G05
T1
X138.43Y-97.79
X138.43Y-100.33
X138.43Y-102.87
X138.43Y-105.41
X141.986Y-84.495
X141.986Y-86.495
X146.05Y-97.79
X146.05Y-100.33
X146.05Y-102.87
X146.05Y-105.41
X152.146Y-98.496
X152.146Y-100.496
T2
X128.883Y-93.472
X128.883Y-96.012
X128.883Y-98.552
X128.883Y-101.092
X128.883Y-103.632
X128.883Y-106.172
X128.883Y-108.712
X128.883Y-111.252
X131.423Y-93.472
X131.423Y-96.012
X131.423Y-98.552
X131.423Y-101.092
X131.423Y-103.632
X131.423Y-106.172
X131.423Y-108.712
X131.423Y-111.252
X151.892Y-110.744
X151.892Y-113.284
T3
X137.414Y-113.284
X138.176Y-93.472
X147.574Y-113.284
X148.336Y-93.472
T4
X127.762Y-82.042
X127.762Y-120.142
X153.162Y-82.042
X153.162Y-120.142
T0
M30
