%TF.GenerationSoftware,KiCad,Pcbnew,(6.0.0-0)*%
%TF.CreationDate,2022-06-17T21:09:36+01:00*%
%TF.ProjectId,icl7660-negative-supply-adapter,69636c37-3636-4302-9d6e-656761746976,rev?*%
%TF.SameCoordinates,Original*%
%TF.FileFunction,Legend,Top*%
%TF.FilePolarity,Positive*%
%FSLAX46Y46*%
G04 Gerber Fmt 4.6, Leading zero omitted, Abs format (unit mm)*
G04 Created by KiCad (PCBNEW (6.0.0-0)) date 2022-06-17 21:09:36*
%MOMM*%
%LPD*%
G01*
G04 APERTURE LIST*
%ADD10C,0.150000*%
%ADD11C,0.120000*%
%ADD12C,1.000000*%
G04 APERTURE END LIST*
D10*
X154392380Y-111220190D02*
X154392380Y-111124952D01*
X154440000Y-111029714D01*
X154487619Y-110982095D01*
X154582857Y-110934476D01*
X154773333Y-110886857D01*
X155011428Y-110886857D01*
X155201904Y-110934476D01*
X155297142Y-110982095D01*
X155344761Y-111029714D01*
X155392380Y-111124952D01*
X155392380Y-111220190D01*
X155344761Y-111315428D01*
X155297142Y-111363047D01*
X155201904Y-111410666D01*
X155011428Y-111458285D01*
X154773333Y-111458285D01*
X154582857Y-111410666D01*
X154487619Y-111363047D01*
X154440000Y-111315428D01*
X154392380Y-111220190D01*
X154392380Y-110601142D02*
X155392380Y-110267809D01*
X154392380Y-109934476D01*
X155011428Y-116061904D02*
X155011428Y-115300000D01*
X155392380Y-115680952D02*
X154630476Y-115680952D01*
X155392380Y-114300000D02*
X155392380Y-114871428D01*
X155392380Y-114585714D02*
X154392380Y-114585714D01*
X154535238Y-114680952D01*
X154630476Y-114776190D01*
X154678095Y-114871428D01*
X154487619Y-113919047D02*
X154440000Y-113871428D01*
X154392380Y-113776190D01*
X154392380Y-113538095D01*
X154440000Y-113442857D01*
X154487619Y-113395238D01*
X154582857Y-113347619D01*
X154678095Y-113347619D01*
X154820952Y-113395238D01*
X155392380Y-113966666D01*
X155392380Y-113347619D01*
X154392380Y-113061904D02*
X155392380Y-112728571D01*
X154392380Y-112395238D01*
%TO.C,C2*%
X146743142Y-85911666D02*
X146790761Y-85959285D01*
X146838380Y-86102142D01*
X146838380Y-86197380D01*
X146790761Y-86340238D01*
X146695523Y-86435476D01*
X146600285Y-86483095D01*
X146409809Y-86530714D01*
X146266952Y-86530714D01*
X146076476Y-86483095D01*
X145981238Y-86435476D01*
X145886000Y-86340238D01*
X145838380Y-86197380D01*
X145838380Y-86102142D01*
X145886000Y-85959285D01*
X145933619Y-85911666D01*
X145933619Y-85530714D02*
X145886000Y-85483095D01*
X145838380Y-85387857D01*
X145838380Y-85149761D01*
X145886000Y-85054523D01*
X145933619Y-85006904D01*
X146028857Y-84959285D01*
X146124095Y-84959285D01*
X146266952Y-85006904D01*
X146838380Y-85578333D01*
X146838380Y-84959285D01*
%TO.C,C1*%
X148103142Y-99413046D02*
X148150761Y-99460665D01*
X148198380Y-99603522D01*
X148198380Y-99698760D01*
X148150761Y-99841618D01*
X148055523Y-99936856D01*
X147960285Y-99984475D01*
X147769809Y-100032094D01*
X147626952Y-100032094D01*
X147436476Y-99984475D01*
X147341238Y-99936856D01*
X147246000Y-99841618D01*
X147198380Y-99698760D01*
X147198380Y-99603522D01*
X147246000Y-99460665D01*
X147293619Y-99413046D01*
X148198380Y-98460665D02*
X148198380Y-99032094D01*
X148198380Y-98746380D02*
X147198380Y-98746380D01*
X147341238Y-98841618D01*
X147436476Y-98936856D01*
X147484095Y-99032094D01*
%TO.C,U1*%
X141478095Y-107192380D02*
X141478095Y-108001904D01*
X141525714Y-108097142D01*
X141573333Y-108144761D01*
X141668571Y-108192380D01*
X141859047Y-108192380D01*
X141954285Y-108144761D01*
X142001904Y-108097142D01*
X142049523Y-108001904D01*
X142049523Y-107192380D01*
X143049523Y-108192380D02*
X142478095Y-108192380D01*
X142763809Y-108192380D02*
X142763809Y-107192380D01*
X142668571Y-107335238D01*
X142573333Y-107430476D01*
X142478095Y-107478095D01*
%TO.C,J2*%
X132796216Y-85399619D02*
X133129549Y-85875809D01*
X133367644Y-85399619D02*
X133367644Y-86399619D01*
X132986692Y-86399619D01*
X132891454Y-86352000D01*
X132843835Y-86304380D01*
X132796216Y-86209142D01*
X132796216Y-86066285D01*
X132843835Y-85971047D01*
X132891454Y-85923428D01*
X132986692Y-85875809D01*
X133367644Y-85875809D01*
X132367644Y-85923428D02*
X132034311Y-85923428D01*
X131891454Y-85399619D02*
X132367644Y-85399619D01*
X132367644Y-86399619D01*
X131891454Y-86399619D01*
X131462882Y-85399619D02*
X131462882Y-86399619D01*
X131224787Y-86399619D01*
X131081930Y-86352000D01*
X130986692Y-86256761D01*
X130939073Y-86161523D01*
X130891454Y-85971047D01*
X130891454Y-85828190D01*
X130939073Y-85637714D01*
X130986692Y-85542476D01*
X131081930Y-85447238D01*
X131224787Y-85399619D01*
X131462882Y-85399619D01*
X129224787Y-85399619D02*
X129700978Y-85399619D01*
X129700978Y-86399619D01*
X128891454Y-85399619D02*
X128891454Y-86399619D01*
X128415263Y-85399619D02*
X128415263Y-86399619D01*
X127843835Y-85399619D01*
X127843835Y-86399619D01*
X127367644Y-85923428D02*
X127034311Y-85923428D01*
X126891454Y-85399619D02*
X127367644Y-85399619D01*
X127367644Y-86399619D01*
X126891454Y-86399619D01*
%TO.C,D2*%
X143660904Y-91638380D02*
X143660904Y-90638380D01*
X143899000Y-90638380D01*
X144041857Y-90686000D01*
X144137095Y-90781238D01*
X144184714Y-90876476D01*
X144232333Y-91066952D01*
X144232333Y-91209809D01*
X144184714Y-91400285D01*
X144137095Y-91495523D01*
X144041857Y-91590761D01*
X143899000Y-91638380D01*
X143660904Y-91638380D01*
X144613285Y-90733619D02*
X144660904Y-90686000D01*
X144756142Y-90638380D01*
X144994238Y-90638380D01*
X145089476Y-90686000D01*
X145137095Y-90733619D01*
X145184714Y-90828857D01*
X145184714Y-90924095D01*
X145137095Y-91066952D01*
X144565666Y-91638380D01*
X145184714Y-91638380D01*
%TO.C,D1*%
X141755904Y-111266380D02*
X141755904Y-110266380D01*
X141994000Y-110266380D01*
X142136857Y-110314000D01*
X142232095Y-110409238D01*
X142279714Y-110504476D01*
X142327333Y-110694952D01*
X142327333Y-110837809D01*
X142279714Y-111028285D01*
X142232095Y-111123523D01*
X142136857Y-111218761D01*
X141994000Y-111266380D01*
X141755904Y-111266380D01*
X143279714Y-111266380D02*
X142708285Y-111266380D01*
X142994000Y-111266380D02*
X142994000Y-110266380D01*
X142898761Y-110409238D01*
X142803523Y-110504476D01*
X142708285Y-110552095D01*
D11*
%TO.C,C2*%
X140946000Y-86786000D02*
X138925000Y-86786000D01*
X140946000Y-86265000D02*
X138797000Y-86265000D01*
X142926000Y-88866000D02*
X141046000Y-88866000D01*
X145096000Y-86626000D02*
X143026000Y-86626000D01*
X144502000Y-87786000D02*
X143026000Y-87786000D01*
X145168000Y-86305000D02*
X143026000Y-86305000D01*
X145216000Y-85745000D02*
X138756000Y-85745000D01*
X145181000Y-86225000D02*
X143026000Y-86225000D01*
X144938000Y-87066000D02*
X143026000Y-87066000D01*
X140946000Y-86986000D02*
X139000000Y-86986000D01*
X140946000Y-86145000D02*
X138780000Y-86145000D01*
X143418000Y-88666000D02*
X140554000Y-88666000D01*
X140946000Y-87226000D02*
X139110000Y-87226000D01*
X145208000Y-85985000D02*
X143026000Y-85985000D01*
X140946000Y-87986000D02*
X139643000Y-87986000D01*
X140946000Y-87466000D02*
X139244000Y-87466000D01*
X140946000Y-87266000D02*
X139130000Y-87266000D01*
X140946000Y-87786000D02*
X139470000Y-87786000D01*
X142619000Y-88946000D02*
X141353000Y-88946000D01*
X144676000Y-87546000D02*
X143026000Y-87546000D01*
X140946000Y-85985000D02*
X138764000Y-85985000D01*
X140946000Y-86065000D02*
X138771000Y-86065000D01*
X144820000Y-87306000D02*
X143026000Y-87306000D01*
X143700000Y-88506000D02*
X140272000Y-88506000D01*
X143876000Y-88386000D02*
X140096000Y-88386000D01*
X140946000Y-87626000D02*
X139350000Y-87626000D01*
X140946000Y-87746000D02*
X139438000Y-87746000D01*
X144470000Y-87826000D02*
X143026000Y-87826000D01*
X145201000Y-86065000D02*
X143026000Y-86065000D01*
X140946000Y-87386000D02*
X139196000Y-87386000D01*
X145216000Y-85785000D02*
X138756000Y-85785000D01*
X144752000Y-87426000D02*
X143026000Y-87426000D01*
X144030000Y-88266000D02*
X139942000Y-88266000D01*
X144078000Y-88226000D02*
X139894000Y-88226000D01*
X144291000Y-88026000D02*
X143026000Y-88026000D01*
X140946000Y-86706000D02*
X138900000Y-86706000D01*
X140946000Y-86425000D02*
X138827000Y-86425000D01*
X140946000Y-87026000D02*
X139016000Y-87026000D01*
X144956000Y-87026000D02*
X143026000Y-87026000D01*
X140946000Y-87866000D02*
X139536000Y-87866000D01*
X140946000Y-87346000D02*
X139174000Y-87346000D01*
X144776000Y-87386000D02*
X143026000Y-87386000D01*
X144902000Y-87146000D02*
X143026000Y-87146000D01*
X144882000Y-87186000D02*
X143026000Y-87186000D01*
X140946000Y-86025000D02*
X138768000Y-86025000D01*
X140946000Y-86826000D02*
X138939000Y-86826000D01*
X140946000Y-86305000D02*
X138804000Y-86305000D01*
X140946000Y-87106000D02*
X139052000Y-87106000D01*
X144210000Y-88106000D02*
X139762000Y-88106000D01*
X144593000Y-87666000D02*
X143026000Y-87666000D01*
X140946000Y-87586000D02*
X139322000Y-87586000D01*
X140946000Y-86546000D02*
X138855000Y-86546000D01*
X144842000Y-87266000D02*
X143026000Y-87266000D01*
X143981000Y-88306000D02*
X139991000Y-88306000D01*
X143636000Y-88546000D02*
X140336000Y-88546000D01*
X140946000Y-86225000D02*
X138791000Y-86225000D01*
X145210000Y-85945000D02*
X138762000Y-85945000D01*
X144728000Y-87466000D02*
X143026000Y-87466000D01*
X143151000Y-88786000D02*
X140821000Y-88786000D01*
X145033000Y-86826000D02*
X143026000Y-86826000D01*
X144168000Y-88146000D02*
X139804000Y-88146000D01*
X144972000Y-86986000D02*
X143026000Y-86986000D01*
X143825000Y-82244759D02*
X143825000Y-82874759D01*
X145175000Y-86265000D02*
X143026000Y-86265000D01*
X145127000Y-86506000D02*
X143026000Y-86506000D01*
X145117000Y-86546000D02*
X143026000Y-86546000D01*
X144564000Y-87706000D02*
X143026000Y-87706000D01*
X145153000Y-86385000D02*
X143026000Y-86385000D01*
X144650000Y-87586000D02*
X143026000Y-87586000D01*
X144366000Y-87946000D02*
X143026000Y-87946000D01*
X145084000Y-86666000D02*
X143026000Y-86666000D01*
X140946000Y-86746000D02*
X138912000Y-86746000D01*
X142788000Y-88906000D02*
X141184000Y-88906000D01*
X144702000Y-87506000D02*
X143026000Y-87506000D01*
X144436000Y-87866000D02*
X143026000Y-87866000D01*
X144988000Y-86946000D02*
X143026000Y-86946000D01*
X140946000Y-87706000D02*
X139408000Y-87706000D01*
X140946000Y-86946000D02*
X138984000Y-86946000D01*
X144862000Y-87226000D02*
X143026000Y-87226000D01*
X140946000Y-87826000D02*
X139502000Y-87826000D01*
X140946000Y-86385000D02*
X138819000Y-86385000D01*
X143495000Y-88626000D02*
X140477000Y-88626000D01*
X143248000Y-88746000D02*
X140724000Y-88746000D01*
X140946000Y-86185000D02*
X138785000Y-86185000D01*
X144534000Y-87746000D02*
X143026000Y-87746000D01*
X144798000Y-87346000D02*
X143026000Y-87346000D01*
X145107000Y-86586000D02*
X143026000Y-86586000D01*
X143567000Y-88586000D02*
X140405000Y-88586000D01*
X144123000Y-88186000D02*
X139849000Y-88186000D01*
X145047000Y-86786000D02*
X143026000Y-86786000D01*
X140946000Y-87186000D02*
X139090000Y-87186000D01*
X140946000Y-86105000D02*
X138775000Y-86105000D01*
X143336000Y-88706000D02*
X140636000Y-88706000D01*
X143045000Y-88826000D02*
X140927000Y-88826000D01*
X140946000Y-87546000D02*
X139296000Y-87546000D01*
X142388000Y-88986000D02*
X141584000Y-88986000D01*
X140946000Y-87906000D02*
X139570000Y-87906000D01*
X145004000Y-86906000D02*
X143026000Y-86906000D01*
X140946000Y-87426000D02*
X139220000Y-87426000D01*
X145216000Y-85825000D02*
X138756000Y-85825000D01*
X144329000Y-87986000D02*
X143026000Y-87986000D01*
X140946000Y-87306000D02*
X139152000Y-87306000D01*
X145192000Y-86145000D02*
X143026000Y-86145000D01*
X144251000Y-88066000D02*
X139721000Y-88066000D01*
X144402000Y-87906000D02*
X143026000Y-87906000D01*
X143930000Y-88346000D02*
X140042000Y-88346000D01*
X143762000Y-88466000D02*
X140210000Y-88466000D01*
X140946000Y-87066000D02*
X139034000Y-87066000D01*
X145060000Y-86746000D02*
X143026000Y-86746000D01*
X140946000Y-86345000D02*
X138811000Y-86345000D01*
X140946000Y-88026000D02*
X139681000Y-88026000D01*
X140946000Y-86866000D02*
X138953000Y-86866000D01*
X140946000Y-86466000D02*
X138836000Y-86466000D01*
X145187000Y-86185000D02*
X143026000Y-86185000D01*
X140946000Y-87946000D02*
X139606000Y-87946000D01*
X145019000Y-86866000D02*
X143026000Y-86866000D01*
X144140000Y-82559759D02*
X143510000Y-82559759D01*
X144622000Y-87626000D02*
X143026000Y-87626000D01*
X145145000Y-86425000D02*
X143026000Y-86425000D01*
X145136000Y-86466000D02*
X143026000Y-86466000D01*
X140946000Y-86586000D02*
X138865000Y-86586000D01*
X145161000Y-86345000D02*
X143026000Y-86345000D01*
X140946000Y-87506000D02*
X139270000Y-87506000D01*
X145072000Y-86706000D02*
X143026000Y-86706000D01*
X140946000Y-86666000D02*
X138888000Y-86666000D01*
X140946000Y-86626000D02*
X138876000Y-86626000D01*
X145204000Y-86025000D02*
X143026000Y-86025000D01*
X145213000Y-85905000D02*
X138759000Y-85905000D01*
X140946000Y-86506000D02*
X138845000Y-86506000D01*
X143820000Y-88426000D02*
X140152000Y-88426000D01*
X140946000Y-86906000D02*
X138968000Y-86906000D01*
X140946000Y-87666000D02*
X139379000Y-87666000D01*
X145214000Y-85865000D02*
X138758000Y-85865000D01*
X144920000Y-87106000D02*
X143026000Y-87106000D01*
X140946000Y-87146000D02*
X139070000Y-87146000D01*
X145197000Y-86105000D02*
X143026000Y-86105000D01*
X145256000Y-85745000D02*
G75*
G03*
X145256000Y-85745000I-3270000J0D01*
G01*
%TO.C,C1*%
X153186000Y-98205380D02*
X155207000Y-98205380D01*
X153186000Y-98726380D02*
X155335000Y-98726380D01*
X151206000Y-96125380D02*
X153086000Y-96125380D01*
X149036000Y-98365380D02*
X151106000Y-98365380D01*
X149630000Y-97205380D02*
X151106000Y-97205380D01*
X148964000Y-98686380D02*
X151106000Y-98686380D01*
X148916000Y-99246380D02*
X155376000Y-99246380D01*
X148951000Y-98766380D02*
X151106000Y-98766380D01*
X149194000Y-97925380D02*
X151106000Y-97925380D01*
X153186000Y-98005380D02*
X155132000Y-98005380D01*
X153186000Y-98846380D02*
X155352000Y-98846380D01*
X150714000Y-96325380D02*
X153578000Y-96325380D01*
X153186000Y-97765380D02*
X155022000Y-97765380D01*
X148924000Y-99006380D02*
X151106000Y-99006380D01*
X153186000Y-97005380D02*
X154489000Y-97005380D01*
X153186000Y-97525380D02*
X154888000Y-97525380D01*
X153186000Y-97725380D02*
X155002000Y-97725380D01*
X153186000Y-97205380D02*
X154662000Y-97205380D01*
X151513000Y-96045380D02*
X152779000Y-96045380D01*
X149456000Y-97445380D02*
X151106000Y-97445380D01*
X153186000Y-99006380D02*
X155368000Y-99006380D01*
X153186000Y-98926380D02*
X155361000Y-98926380D01*
X149312000Y-97685380D02*
X151106000Y-97685380D01*
X150432000Y-96485380D02*
X153860000Y-96485380D01*
X150256000Y-96605380D02*
X154036000Y-96605380D01*
X153186000Y-97365380D02*
X154782000Y-97365380D01*
X153186000Y-97245380D02*
X154694000Y-97245380D01*
X149662000Y-97165380D02*
X151106000Y-97165380D01*
X148931000Y-98926380D02*
X151106000Y-98926380D01*
X153186000Y-97605380D02*
X154936000Y-97605380D01*
X148916000Y-99206380D02*
X155376000Y-99206380D01*
X149380000Y-97565380D02*
X151106000Y-97565380D01*
X150102000Y-96725380D02*
X154190000Y-96725380D01*
X150054000Y-96765380D02*
X154238000Y-96765380D01*
X149841000Y-96965380D02*
X151106000Y-96965380D01*
X153186000Y-98285380D02*
X155232000Y-98285380D01*
X153186000Y-98566380D02*
X155305000Y-98566380D01*
X153186000Y-97965380D02*
X155116000Y-97965380D01*
X149176000Y-97965380D02*
X151106000Y-97965380D01*
X153186000Y-97125380D02*
X154596000Y-97125380D01*
X153186000Y-97645380D02*
X154958000Y-97645380D01*
X149356000Y-97605380D02*
X151106000Y-97605380D01*
X149230000Y-97845380D02*
X151106000Y-97845380D01*
X149250000Y-97805380D02*
X151106000Y-97805380D01*
X153186000Y-98966380D02*
X155364000Y-98966380D01*
X153186000Y-98165380D02*
X155193000Y-98165380D01*
X153186000Y-98686380D02*
X155328000Y-98686380D01*
X153186000Y-97885380D02*
X155080000Y-97885380D01*
X149922000Y-96885380D02*
X154370000Y-96885380D01*
X149539000Y-97325380D02*
X151106000Y-97325380D01*
X153186000Y-97405380D02*
X154810000Y-97405380D01*
X153186000Y-98445380D02*
X155277000Y-98445380D01*
X149290000Y-97725380D02*
X151106000Y-97725380D01*
X150151000Y-96685380D02*
X154141000Y-96685380D01*
X150496000Y-96445380D02*
X153796000Y-96445380D01*
X153186000Y-98766380D02*
X155341000Y-98766380D01*
X148922000Y-99046380D02*
X155370000Y-99046380D01*
X149404000Y-97525380D02*
X151106000Y-97525380D01*
X150981000Y-96205380D02*
X153311000Y-96205380D01*
X149099000Y-98165380D02*
X151106000Y-98165380D01*
X149964000Y-96845380D02*
X154328000Y-96845380D01*
X149160000Y-98005380D02*
X151106000Y-98005380D01*
X150307000Y-102746621D02*
X150307000Y-102116621D01*
X148957000Y-98726380D02*
X151106000Y-98726380D01*
X149005000Y-98485380D02*
X151106000Y-98485380D01*
X149015000Y-98445380D02*
X151106000Y-98445380D01*
X149568000Y-97285380D02*
X151106000Y-97285380D01*
X148979000Y-98606380D02*
X151106000Y-98606380D01*
X149482000Y-97405380D02*
X151106000Y-97405380D01*
X149766000Y-97045380D02*
X151106000Y-97045380D01*
X149048000Y-98325380D02*
X151106000Y-98325380D01*
X153186000Y-98245380D02*
X155220000Y-98245380D01*
X151344000Y-96085380D02*
X152948000Y-96085380D01*
X149430000Y-97485380D02*
X151106000Y-97485380D01*
X149696000Y-97125380D02*
X151106000Y-97125380D01*
X149144000Y-98045380D02*
X151106000Y-98045380D01*
X153186000Y-97285380D02*
X154724000Y-97285380D01*
X153186000Y-98045380D02*
X155148000Y-98045380D01*
X149270000Y-97765380D02*
X151106000Y-97765380D01*
X153186000Y-97165380D02*
X154630000Y-97165380D01*
X153186000Y-98606380D02*
X155313000Y-98606380D01*
X150637000Y-96365380D02*
X153655000Y-96365380D01*
X150884000Y-96245380D02*
X153408000Y-96245380D01*
X153186000Y-98806380D02*
X155347000Y-98806380D01*
X149598000Y-97245380D02*
X151106000Y-97245380D01*
X149334000Y-97645380D02*
X151106000Y-97645380D01*
X149025000Y-98405380D02*
X151106000Y-98405380D01*
X150565000Y-96405380D02*
X153727000Y-96405380D01*
X150009000Y-96805380D02*
X154283000Y-96805380D01*
X149085000Y-98205380D02*
X151106000Y-98205380D01*
X153186000Y-97805380D02*
X155042000Y-97805380D01*
X153186000Y-98886380D02*
X155357000Y-98886380D01*
X150796000Y-96285380D02*
X153496000Y-96285380D01*
X151087000Y-96165380D02*
X153205000Y-96165380D01*
X153186000Y-97445380D02*
X154836000Y-97445380D01*
X151744000Y-96005380D02*
X152548000Y-96005380D01*
X153186000Y-97085380D02*
X154562000Y-97085380D01*
X149128000Y-98085380D02*
X151106000Y-98085380D01*
X153186000Y-97565380D02*
X154912000Y-97565380D01*
X148916000Y-99166380D02*
X155376000Y-99166380D01*
X149803000Y-97005380D02*
X151106000Y-97005380D01*
X153186000Y-97685380D02*
X154980000Y-97685380D01*
X148940000Y-98846380D02*
X151106000Y-98846380D01*
X149881000Y-96925380D02*
X154411000Y-96925380D01*
X149730000Y-97085380D02*
X151106000Y-97085380D01*
X150202000Y-96645380D02*
X154090000Y-96645380D01*
X150370000Y-96525380D02*
X153922000Y-96525380D01*
X153186000Y-97925380D02*
X155098000Y-97925380D01*
X149072000Y-98245380D02*
X151106000Y-98245380D01*
X153186000Y-98646380D02*
X155321000Y-98646380D01*
X153186000Y-96965380D02*
X154451000Y-96965380D01*
X153186000Y-98125380D02*
X155179000Y-98125380D01*
X153186000Y-98525380D02*
X155296000Y-98525380D01*
X148945000Y-98806380D02*
X151106000Y-98806380D01*
X153186000Y-97045380D02*
X154526000Y-97045380D01*
X149113000Y-98125380D02*
X151106000Y-98125380D01*
X149992000Y-102431621D02*
X150622000Y-102431621D01*
X149510000Y-97365380D02*
X151106000Y-97365380D01*
X148987000Y-98566380D02*
X151106000Y-98566380D01*
X148996000Y-98525380D02*
X151106000Y-98525380D01*
X153186000Y-98405380D02*
X155267000Y-98405380D01*
X148971000Y-98646380D02*
X151106000Y-98646380D01*
X153186000Y-97485380D02*
X154862000Y-97485380D01*
X149060000Y-98285380D02*
X151106000Y-98285380D01*
X153186000Y-98325380D02*
X155244000Y-98325380D01*
X153186000Y-98365380D02*
X155256000Y-98365380D01*
X148928000Y-98966380D02*
X151106000Y-98966380D01*
X148919000Y-99086380D02*
X155373000Y-99086380D01*
X153186000Y-98485380D02*
X155287000Y-98485380D01*
X150312000Y-96565380D02*
X153980000Y-96565380D01*
X153186000Y-98085380D02*
X155164000Y-98085380D01*
X153186000Y-97325380D02*
X154753000Y-97325380D01*
X148918000Y-99126380D02*
X155374000Y-99126380D01*
X149212000Y-97885380D02*
X151106000Y-97885380D01*
X153186000Y-97845380D02*
X155062000Y-97845380D01*
X148935000Y-98886380D02*
X151106000Y-98886380D01*
X155416000Y-99246380D02*
G75*
G03*
X155416000Y-99246380I-3270000J0D01*
G01*
%TO.C,U1*%
X147380000Y-106800000D02*
X147380000Y-96400000D01*
X139590000Y-106740000D02*
X141240000Y-106740000D01*
X144890000Y-96460000D02*
X139590000Y-96460000D01*
X137100000Y-96400000D02*
X137100000Y-106800000D01*
X137100000Y-106800000D02*
X147380000Y-106800000D01*
X144890000Y-106740000D02*
X144890000Y-96460000D01*
X147380000Y-96400000D02*
X137100000Y-96400000D01*
X143240000Y-106740000D02*
X144890000Y-106740000D01*
X139590000Y-96460000D02*
X139590000Y-106740000D01*
X143240000Y-106740000D02*
G75*
G03*
X141240000Y-106740000I-1000000J0D01*
G01*
%TO.C,J2*%
X133403359Y-89562000D02*
X133403359Y-115162000D01*
X125593359Y-100312000D02*
X126903359Y-100312000D01*
X134713359Y-116462000D02*
X125593359Y-116462000D01*
X134713359Y-88262000D02*
X134713359Y-116462000D01*
X126903359Y-115162000D02*
X126903359Y-104412000D01*
X126903359Y-100312000D02*
X126903359Y-89562000D01*
X126903359Y-104412000D02*
X125593359Y-104412000D01*
X125593359Y-88262000D02*
X134713359Y-88262000D01*
X126903359Y-104412000D02*
X126903359Y-104412000D01*
X133403359Y-115162000D02*
X126903359Y-115162000D01*
D12*
X125581359Y-87122000D02*
X134725359Y-87122000D01*
D11*
X126903359Y-89562000D02*
X133403359Y-89562000D01*
X125593359Y-116462000D02*
X125593359Y-88262000D01*
%TO.C,D2*%
X140536000Y-94942000D02*
X145976000Y-94942000D01*
X145076000Y-94942000D02*
X145076000Y-92002000D01*
X145976000Y-94942000D02*
X145976000Y-92002000D01*
X145196000Y-94942000D02*
X145196000Y-92002000D01*
X146996000Y-93472000D02*
X145976000Y-93472000D01*
X145976000Y-92002000D02*
X140536000Y-92002000D01*
X139516000Y-93472000D02*
X140536000Y-93472000D01*
X140536000Y-92002000D02*
X140536000Y-94942000D01*
X144956000Y-94942000D02*
X144956000Y-92002000D01*
%TO.C,D1*%
X145214000Y-111814000D02*
X139774000Y-111814000D01*
X140674000Y-111814000D02*
X140674000Y-114754000D01*
X139774000Y-111814000D02*
X139774000Y-114754000D01*
X140554000Y-111814000D02*
X140554000Y-114754000D01*
X138754000Y-113284000D02*
X139774000Y-113284000D01*
X139774000Y-114754000D02*
X145214000Y-114754000D01*
X146234000Y-113284000D02*
X145214000Y-113284000D01*
X145214000Y-114754000D02*
X145214000Y-111814000D01*
X140794000Y-111814000D02*
X140794000Y-114754000D01*
%TO.C,J1*%
X153222000Y-114614000D02*
X151892000Y-114614000D01*
X153222000Y-112014000D02*
X150562000Y-112014000D01*
X153222000Y-109414000D02*
X150562000Y-109414000D01*
X153222000Y-112014000D02*
X153222000Y-109414000D01*
X153222000Y-113284000D02*
X153222000Y-114614000D01*
X150562000Y-112014000D02*
X150562000Y-109414000D01*
%TD*%
M02*
