M48
; DRILL file {KiCad (6.0.0-0)} date Monday, 11 April 2022 at 16:32:49
; FORMAT={-:-/ absolute / metric / decimal}
; #@! TF.CreationDate,2022-04-11T16:32:49+01:00
; #@! TF.GenerationSoftware,Kicad,Pcbnew,(6.0.0-0)
; #@! TF.FileFunction,MixedPlating,1,2
FMAT,2
METRIC
; #@! TA.AperFunction,Plated,PTH,ViaDrill
T1C0.381
; #@! TA.AperFunction,Plated,PTH,ComponentDrill
T2C1.000
; #@! TA.AperFunction,Plated,PTH,ComponentDrill
T3C2.000
%
G90
G05
T1
X127.889Y-65.659
X127.889Y-95.758
X128.27Y-76.327
X147.193Y-112.522
T2
X118.23Y-70.6
X118.23Y-73.14
X118.23Y-75.68
X118.23Y-78.22
X118.23Y-80.76
X118.23Y-83.3
X118.23Y-85.84
X118.23Y-88.38
X118.237Y-104.569
X118.237Y-107.109
X118.237Y-109.649
X118.237Y-112.189
X118.237Y-114.73
X120.77Y-70.6
X120.77Y-73.14
X120.77Y-75.68
X120.77Y-78.22
X120.77Y-80.76
X120.77Y-83.3
X120.77Y-85.84
X120.77Y-88.38
X120.777Y-104.569
X120.777Y-107.109
X120.777Y-109.649
X120.777Y-112.189
X120.777Y-114.73
T3
X135.449Y-70.485
X135.449Y-80.772
X135.449Y-91.059
X150.749Y-70.485
X150.749Y-80.772
X150.749Y-91.059
T0
M30
