%TF.GenerationSoftware,KiCad,Pcbnew,(6.0.0-0)*%
%TF.CreationDate,2022-04-11T16:32:45+01:00*%
%TF.ProjectId,euro-power-friend,6575726f-2d70-46f7-9765-722d66726965,rev?*%
%TF.SameCoordinates,Original*%
%TF.FileFunction,Copper,L2,Bot*%
%TF.FilePolarity,Positive*%
%FSLAX46Y46*%
G04 Gerber Fmt 4.6, Leading zero omitted, Abs format (unit mm)*
G04 Created by KiCad (PCBNEW (6.0.0-0)) date 2022-04-11 16:32:45*
%MOMM*%
%LPD*%
G01*
G04 APERTURE LIST*
G04 Aperture macros list*
%AMRoundRect*
0 Rectangle with rounded corners*
0 $1 Rounding radius*
0 $2 $3 $4 $5 $6 $7 $8 $9 X,Y pos of 4 corners*
0 Add a 4 corners polygon primitive as box body*
4,1,4,$2,$3,$4,$5,$6,$7,$8,$9,$2,$3,0*
0 Add four circle primitives for the rounded corners*
1,1,$1+$1,$2,$3*
1,1,$1+$1,$4,$5*
1,1,$1+$1,$6,$7*
1,1,$1+$1,$8,$9*
0 Add four rect primitives between the rounded corners*
20,1,$1+$1,$2,$3,$4,$5,0*
20,1,$1+$1,$4,$5,$6,$7,0*
20,1,$1+$1,$6,$7,$8,$9,0*
20,1,$1+$1,$8,$9,$2,$3,0*%
G04 Aperture macros list end*
%TA.AperFunction,ComponentPad*%
%ADD10RoundRect,0.250000X-0.600000X-0.600000X0.600000X-0.600000X0.600000X0.600000X-0.600000X0.600000X0*%
%TD*%
%TA.AperFunction,ComponentPad*%
%ADD11C,1.700000*%
%TD*%
%TA.AperFunction,ComponentPad*%
%ADD12C,3.000000*%
%TD*%
%TA.AperFunction,ViaPad*%
%ADD13C,0.762000*%
%TD*%
G04 APERTURE END LIST*
D10*
%TO.P,J5,1,Pin_1*%
%TO.N,-12V*%
X118237000Y-104569500D03*
D11*
%TO.P,J5,2,Pin_2*%
X120777000Y-104569500D03*
%TO.P,J5,3,Pin_3*%
%TO.N,GND*%
X118237000Y-107109500D03*
%TO.P,J5,4,Pin_4*%
X120777000Y-107109500D03*
%TO.P,J5,5,Pin_5*%
X118237000Y-109649500D03*
%TO.P,J5,6,Pin_6*%
X120777000Y-109649500D03*
%TO.P,J5,7,Pin_7*%
X118237000Y-112189500D03*
%TO.P,J5,8,Pin_8*%
X120777000Y-112189500D03*
%TO.P,J5,9,Pin_9*%
%TO.N,+12V*%
X118237000Y-114729500D03*
%TO.P,J5,10,Pin_10*%
X120777000Y-114729500D03*
%TD*%
D10*
%TO.P,J4,1,Pin_1*%
%TO.N,-12V*%
X118229806Y-70600432D03*
D11*
%TO.P,J4,2,Pin_2*%
X120769806Y-70600432D03*
%TO.P,J4,3,Pin_3*%
%TO.N,GND*%
X118229806Y-73140432D03*
%TO.P,J4,4,Pin_4*%
X120769806Y-73140432D03*
%TO.P,J4,5,Pin_5*%
X118229806Y-75680432D03*
%TO.P,J4,6,Pin_6*%
X120769806Y-75680432D03*
%TO.P,J4,7,Pin_7*%
X118229806Y-78220432D03*
%TO.P,J4,8,Pin_8*%
X120769806Y-78220432D03*
%TO.P,J4,9,Pin_9*%
%TO.N,+12V*%
X118229806Y-80760432D03*
%TO.P,J4,10,Pin_10*%
X120769806Y-80760432D03*
%TO.P,J4,11,Pin_11*%
%TO.N,unconnected-(J4-Pad11)*%
X118229806Y-83300432D03*
%TO.P,J4,12,Pin_12*%
%TO.N,unconnected-(J4-Pad12)*%
X120769806Y-83300432D03*
%TO.P,J4,13,Pin_13*%
%TO.N,unconnected-(J4-Pad13)*%
X118229806Y-85840432D03*
%TO.P,J4,14,Pin_14*%
%TO.N,unconnected-(J4-Pad14)*%
X120769806Y-85840432D03*
%TO.P,J4,15,Pin_15*%
%TO.N,unconnected-(J4-Pad15)*%
X118229806Y-88380432D03*
%TO.P,J4,16,Pin_16*%
%TO.N,unconnected-(J4-Pad16)*%
X120769806Y-88380432D03*
%TD*%
D12*
%TO.P,J3,1*%
%TO.N,-12V*%
X135449000Y-70485000D03*
X150749000Y-70485000D03*
%TD*%
%TO.P,J2,1*%
%TO.N,GND*%
X150749000Y-80772000D03*
X135449000Y-80772000D03*
%TD*%
%TO.P,J1,1*%
%TO.N,+12V*%
X135449000Y-91059000D03*
X150749000Y-91059000D03*
%TD*%
D13*
%TO.N,GND*%
X128270000Y-76327000D03*
X127889000Y-65659000D03*
X147193000Y-112522000D03*
X127889000Y-95758000D03*
%TD*%
%TA.AperFunction,Conductor*%
%TO.N,GND*%
G36*
X154783058Y-61088500D02*
G01*
X154797859Y-61090805D01*
X154797862Y-61090805D01*
X154806731Y-61092186D01*
X154812852Y-61091385D01*
X154879374Y-61111803D01*
X154925209Y-61166022D01*
X154933777Y-61207865D01*
X154934814Y-61207729D01*
X154938936Y-61239250D01*
X154940000Y-61255588D01*
X154940000Y-121108673D01*
X154938500Y-121128057D01*
X154934814Y-121151731D01*
X154935615Y-121157852D01*
X154915197Y-121224374D01*
X154860978Y-121270209D01*
X154819135Y-121278777D01*
X154819271Y-121279814D01*
X154787750Y-121283936D01*
X154771412Y-121285000D01*
X113206327Y-121285000D01*
X113186942Y-121283500D01*
X113172141Y-121281195D01*
X113172138Y-121281195D01*
X113163269Y-121279814D01*
X113157148Y-121280615D01*
X113090626Y-121260197D01*
X113044791Y-121205978D01*
X113036223Y-121164135D01*
X113035186Y-121164271D01*
X113031064Y-121132750D01*
X113030000Y-121116412D01*
X113030000Y-114696195D01*
X116874251Y-114696195D01*
X116874548Y-114701348D01*
X116874548Y-114701351D01*
X116880011Y-114796090D01*
X116887110Y-114919215D01*
X116888247Y-114924261D01*
X116888248Y-114924267D01*
X116908119Y-115012439D01*
X116936222Y-115137139D01*
X117020266Y-115344116D01*
X117071019Y-115426938D01*
X117134291Y-115530188D01*
X117136987Y-115534588D01*
X117283250Y-115703438D01*
X117455126Y-115846132D01*
X117648000Y-115958838D01*
X117856692Y-116038530D01*
X117861760Y-116039561D01*
X117861763Y-116039562D01*
X117969017Y-116061383D01*
X118075597Y-116083067D01*
X118080772Y-116083257D01*
X118080774Y-116083257D01*
X118293673Y-116091064D01*
X118293677Y-116091064D01*
X118298837Y-116091253D01*
X118303957Y-116090597D01*
X118303959Y-116090597D01*
X118515288Y-116063525D01*
X118515289Y-116063525D01*
X118520416Y-116062868D01*
X118525366Y-116061383D01*
X118729429Y-116000161D01*
X118729434Y-116000159D01*
X118734384Y-115998674D01*
X118934994Y-115900396D01*
X119116860Y-115770673D01*
X119275096Y-115612989D01*
X119334594Y-115530189D01*
X119405453Y-115431577D01*
X119406776Y-115432528D01*
X119453645Y-115389357D01*
X119523580Y-115377125D01*
X119589026Y-115404644D01*
X119616875Y-115436494D01*
X119676987Y-115534588D01*
X119823250Y-115703438D01*
X119995126Y-115846132D01*
X120188000Y-115958838D01*
X120396692Y-116038530D01*
X120401760Y-116039561D01*
X120401763Y-116039562D01*
X120509017Y-116061383D01*
X120615597Y-116083067D01*
X120620772Y-116083257D01*
X120620774Y-116083257D01*
X120833673Y-116091064D01*
X120833677Y-116091064D01*
X120838837Y-116091253D01*
X120843957Y-116090597D01*
X120843959Y-116090597D01*
X121055288Y-116063525D01*
X121055289Y-116063525D01*
X121060416Y-116062868D01*
X121065366Y-116061383D01*
X121269429Y-116000161D01*
X121269434Y-116000159D01*
X121274384Y-115998674D01*
X121474994Y-115900396D01*
X121656860Y-115770673D01*
X121815096Y-115612989D01*
X121874594Y-115530189D01*
X121942435Y-115435777D01*
X121945453Y-115431577D01*
X121966320Y-115389357D01*
X122042136Y-115235953D01*
X122042137Y-115235951D01*
X122044430Y-115231311D01*
X122109370Y-115017569D01*
X122138529Y-114796090D01*
X122140156Y-114729500D01*
X122121852Y-114506861D01*
X122067431Y-114290202D01*
X121978354Y-114085340D01*
X121857014Y-113897777D01*
X121706670Y-113732551D01*
X121702619Y-113729352D01*
X121702615Y-113729348D01*
X121535414Y-113597300D01*
X121535410Y-113597298D01*
X121531359Y-113594098D01*
X121489569Y-113571029D01*
X121439598Y-113520597D01*
X121424826Y-113451154D01*
X121449942Y-113384748D01*
X121477293Y-113358142D01*
X121526247Y-113323223D01*
X121534648Y-113312523D01*
X121527660Y-113299370D01*
X120789812Y-112561522D01*
X120775868Y-112553908D01*
X120774035Y-112554039D01*
X120767420Y-112558290D01*
X120023737Y-113301973D01*
X120016977Y-113314353D01*
X120022258Y-113321407D01*
X120068969Y-113348703D01*
X120117693Y-113400341D01*
X120130764Y-113470124D01*
X120104033Y-113535896D01*
X120063584Y-113569252D01*
X120050607Y-113576007D01*
X120046474Y-113579110D01*
X120046471Y-113579112D01*
X120022247Y-113597300D01*
X119871965Y-113710135D01*
X119717629Y-113871638D01*
X119610201Y-114029121D01*
X119555293Y-114074121D01*
X119484768Y-114082292D01*
X119421021Y-114051038D01*
X119400324Y-114026554D01*
X119319822Y-113902117D01*
X119319820Y-113902114D01*
X119317014Y-113897777D01*
X119166670Y-113732551D01*
X119162619Y-113729352D01*
X119162615Y-113729348D01*
X118995414Y-113597300D01*
X118995410Y-113597298D01*
X118991359Y-113594098D01*
X118949569Y-113571029D01*
X118899598Y-113520597D01*
X118884826Y-113451154D01*
X118909942Y-113384748D01*
X118937293Y-113358142D01*
X118986247Y-113323223D01*
X118994648Y-113312523D01*
X118987660Y-113299370D01*
X118249812Y-112561522D01*
X118235868Y-112553908D01*
X118234035Y-112554039D01*
X118227420Y-112558290D01*
X117483737Y-113301973D01*
X117476977Y-113314353D01*
X117482258Y-113321407D01*
X117528969Y-113348703D01*
X117577693Y-113400341D01*
X117590764Y-113470124D01*
X117564033Y-113535896D01*
X117523584Y-113569252D01*
X117510607Y-113576007D01*
X117506474Y-113579110D01*
X117506471Y-113579112D01*
X117482247Y-113597300D01*
X117331965Y-113710135D01*
X117177629Y-113871638D01*
X117051743Y-114056180D01*
X116957688Y-114258805D01*
X116897989Y-114474070D01*
X116874251Y-114696195D01*
X113030000Y-114696195D01*
X113030000Y-112161363D01*
X116875050Y-112161363D01*
X116887309Y-112373977D01*
X116888745Y-112384197D01*
X116935565Y-112591946D01*
X116938645Y-112601775D01*
X117018770Y-112799103D01*
X117023413Y-112808294D01*
X117103460Y-112938920D01*
X117113916Y-112948380D01*
X117122694Y-112944596D01*
X117864978Y-112202312D01*
X117871356Y-112190632D01*
X118601408Y-112190632D01*
X118601539Y-112192465D01*
X118605790Y-112199080D01*
X119347474Y-112940764D01*
X119359484Y-112947323D01*
X119371223Y-112938355D01*
X119405022Y-112891319D01*
X119406149Y-112892129D01*
X119453659Y-112848381D01*
X119523596Y-112836161D01*
X119589038Y-112863691D01*
X119616870Y-112895529D01*
X119643459Y-112938919D01*
X119653916Y-112948380D01*
X119662694Y-112944596D01*
X120404978Y-112202312D01*
X120411356Y-112190632D01*
X121141408Y-112190632D01*
X121141539Y-112192465D01*
X121145790Y-112199080D01*
X121887474Y-112940764D01*
X121899484Y-112947323D01*
X121911223Y-112938355D01*
X121942004Y-112895519D01*
X121947315Y-112886680D01*
X122041670Y-112695767D01*
X122045469Y-112686172D01*
X122107376Y-112482415D01*
X122109555Y-112472334D01*
X122137590Y-112259387D01*
X122138109Y-112252712D01*
X122139572Y-112192864D01*
X122139378Y-112186146D01*
X122121781Y-111972104D01*
X122120096Y-111961924D01*
X122068214Y-111755375D01*
X122064894Y-111745624D01*
X121979972Y-111550314D01*
X121975105Y-111541239D01*
X121910063Y-111440697D01*
X121899377Y-111431495D01*
X121889812Y-111435898D01*
X121149022Y-112176688D01*
X121141408Y-112190632D01*
X120411356Y-112190632D01*
X120412592Y-112188368D01*
X120412461Y-112186535D01*
X120408210Y-112179920D01*
X119666849Y-111438559D01*
X119655313Y-111432259D01*
X119643028Y-111441884D01*
X119610192Y-111490020D01*
X119555281Y-111535023D01*
X119484756Y-111543194D01*
X119421009Y-111511940D01*
X119400311Y-111487455D01*
X119370062Y-111440697D01*
X119359377Y-111431495D01*
X119349812Y-111435898D01*
X118609022Y-112176688D01*
X118601408Y-112190632D01*
X117871356Y-112190632D01*
X117872592Y-112188368D01*
X117872461Y-112186535D01*
X117868210Y-112179920D01*
X117126849Y-111438559D01*
X117115313Y-111432259D01*
X117103031Y-111441882D01*
X117055089Y-111512162D01*
X117050004Y-111521113D01*
X116960338Y-111714283D01*
X116956775Y-111723970D01*
X116899864Y-111929181D01*
X116897933Y-111939300D01*
X116875302Y-112151074D01*
X116875050Y-112161363D01*
X113030000Y-112161363D01*
X113030000Y-110774353D01*
X117476977Y-110774353D01*
X117482258Y-110781407D01*
X117529479Y-110809001D01*
X117578203Y-110860639D01*
X117591274Y-110930422D01*
X117564543Y-110996194D01*
X117524087Y-111029553D01*
X117515466Y-111034041D01*
X117506734Y-111039539D01*
X117486677Y-111054599D01*
X117478223Y-111065927D01*
X117484968Y-111078258D01*
X118224188Y-111817478D01*
X118238132Y-111825092D01*
X118239965Y-111824961D01*
X118246580Y-111820710D01*
X118990389Y-111076901D01*
X118997410Y-111064044D01*
X118990611Y-111054713D01*
X118986559Y-111052021D01*
X118949116Y-111031352D01*
X118899145Y-110980920D01*
X118884373Y-110911477D01*
X118909489Y-110845072D01*
X118936840Y-110818465D01*
X118986247Y-110783223D01*
X118993211Y-110774353D01*
X120016977Y-110774353D01*
X120022258Y-110781407D01*
X120069479Y-110809001D01*
X120118203Y-110860639D01*
X120131274Y-110930422D01*
X120104543Y-110996194D01*
X120064087Y-111029553D01*
X120055466Y-111034041D01*
X120046734Y-111039539D01*
X120026677Y-111054599D01*
X120018223Y-111065927D01*
X120024968Y-111078258D01*
X120764188Y-111817478D01*
X120778132Y-111825092D01*
X120779965Y-111824961D01*
X120786580Y-111820710D01*
X121530389Y-111076901D01*
X121537410Y-111064044D01*
X121530611Y-111054713D01*
X121526559Y-111052021D01*
X121489116Y-111031352D01*
X121439145Y-110980920D01*
X121424373Y-110911477D01*
X121449489Y-110845072D01*
X121476840Y-110818465D01*
X121526247Y-110783223D01*
X121534648Y-110772523D01*
X121527660Y-110759370D01*
X120789812Y-110021522D01*
X120775868Y-110013908D01*
X120774035Y-110014039D01*
X120767420Y-110018290D01*
X120023737Y-110761973D01*
X120016977Y-110774353D01*
X118993211Y-110774353D01*
X118994648Y-110772523D01*
X118987660Y-110759370D01*
X118249812Y-110021522D01*
X118235868Y-110013908D01*
X118234035Y-110014039D01*
X118227420Y-110018290D01*
X117483737Y-110761973D01*
X117476977Y-110774353D01*
X113030000Y-110774353D01*
X113030000Y-109621363D01*
X116875050Y-109621363D01*
X116887309Y-109833977D01*
X116888745Y-109844197D01*
X116935565Y-110051946D01*
X116938645Y-110061775D01*
X117018770Y-110259103D01*
X117023413Y-110268294D01*
X117103460Y-110398920D01*
X117113916Y-110408380D01*
X117122694Y-110404596D01*
X117864978Y-109662312D01*
X117871356Y-109650632D01*
X118601408Y-109650632D01*
X118601539Y-109652465D01*
X118605790Y-109659080D01*
X119347474Y-110400764D01*
X119359484Y-110407323D01*
X119371223Y-110398355D01*
X119405022Y-110351319D01*
X119406149Y-110352129D01*
X119453659Y-110308381D01*
X119523596Y-110296161D01*
X119589038Y-110323691D01*
X119616870Y-110355529D01*
X119643459Y-110398919D01*
X119653916Y-110408380D01*
X119662694Y-110404596D01*
X120404978Y-109662312D01*
X120411356Y-109650632D01*
X121141408Y-109650632D01*
X121141539Y-109652465D01*
X121145790Y-109659080D01*
X121887474Y-110400764D01*
X121899484Y-110407323D01*
X121911223Y-110398355D01*
X121942004Y-110355519D01*
X121947315Y-110346680D01*
X122041670Y-110155767D01*
X122045469Y-110146172D01*
X122107376Y-109942415D01*
X122109555Y-109932334D01*
X122137590Y-109719387D01*
X122138109Y-109712712D01*
X122139572Y-109652864D01*
X122139378Y-109646146D01*
X122121781Y-109432104D01*
X122120096Y-109421924D01*
X122068214Y-109215375D01*
X122064894Y-109205624D01*
X121979972Y-109010314D01*
X121975105Y-109001239D01*
X121910063Y-108900697D01*
X121899377Y-108891495D01*
X121889812Y-108895898D01*
X121149022Y-109636688D01*
X121141408Y-109650632D01*
X120411356Y-109650632D01*
X120412592Y-109648368D01*
X120412461Y-109646535D01*
X120408210Y-109639920D01*
X119666849Y-108898559D01*
X119655313Y-108892259D01*
X119643028Y-108901884D01*
X119610192Y-108950020D01*
X119555281Y-108995023D01*
X119484756Y-109003194D01*
X119421009Y-108971940D01*
X119400311Y-108947455D01*
X119370062Y-108900697D01*
X119359377Y-108891495D01*
X119349812Y-108895898D01*
X118609022Y-109636688D01*
X118601408Y-109650632D01*
X117871356Y-109650632D01*
X117872592Y-109648368D01*
X117872461Y-109646535D01*
X117868210Y-109639920D01*
X117126849Y-108898559D01*
X117115313Y-108892259D01*
X117103031Y-108901882D01*
X117055089Y-108972162D01*
X117050004Y-108981113D01*
X116960338Y-109174283D01*
X116956775Y-109183970D01*
X116899864Y-109389181D01*
X116897933Y-109399300D01*
X116875302Y-109611074D01*
X116875050Y-109621363D01*
X113030000Y-109621363D01*
X113030000Y-108234353D01*
X117476977Y-108234353D01*
X117482258Y-108241407D01*
X117529479Y-108269001D01*
X117578203Y-108320639D01*
X117591274Y-108390422D01*
X117564543Y-108456194D01*
X117524087Y-108489553D01*
X117515466Y-108494041D01*
X117506734Y-108499539D01*
X117486677Y-108514599D01*
X117478223Y-108525927D01*
X117484968Y-108538258D01*
X118224188Y-109277478D01*
X118238132Y-109285092D01*
X118239965Y-109284961D01*
X118246580Y-109280710D01*
X118990389Y-108536901D01*
X118997410Y-108524044D01*
X118990611Y-108514713D01*
X118986559Y-108512021D01*
X118949116Y-108491352D01*
X118899145Y-108440920D01*
X118884373Y-108371477D01*
X118909489Y-108305072D01*
X118936840Y-108278465D01*
X118986247Y-108243223D01*
X118993211Y-108234353D01*
X120016977Y-108234353D01*
X120022258Y-108241407D01*
X120069479Y-108269001D01*
X120118203Y-108320639D01*
X120131274Y-108390422D01*
X120104543Y-108456194D01*
X120064087Y-108489553D01*
X120055466Y-108494041D01*
X120046734Y-108499539D01*
X120026677Y-108514599D01*
X120018223Y-108525927D01*
X120024968Y-108538258D01*
X120764188Y-109277478D01*
X120778132Y-109285092D01*
X120779965Y-109284961D01*
X120786580Y-109280710D01*
X121530389Y-108536901D01*
X121537410Y-108524044D01*
X121530611Y-108514713D01*
X121526559Y-108512021D01*
X121489116Y-108491352D01*
X121439145Y-108440920D01*
X121424373Y-108371477D01*
X121449489Y-108305072D01*
X121476840Y-108278465D01*
X121526247Y-108243223D01*
X121534648Y-108232523D01*
X121527660Y-108219370D01*
X120789812Y-107481522D01*
X120775868Y-107473908D01*
X120774035Y-107474039D01*
X120767420Y-107478290D01*
X120023737Y-108221973D01*
X120016977Y-108234353D01*
X118993211Y-108234353D01*
X118994648Y-108232523D01*
X118987660Y-108219370D01*
X118249812Y-107481522D01*
X118235868Y-107473908D01*
X118234035Y-107474039D01*
X118227420Y-107478290D01*
X117483737Y-108221973D01*
X117476977Y-108234353D01*
X113030000Y-108234353D01*
X113030000Y-107081363D01*
X116875050Y-107081363D01*
X116887309Y-107293977D01*
X116888745Y-107304197D01*
X116935565Y-107511946D01*
X116938645Y-107521775D01*
X117018770Y-107719103D01*
X117023413Y-107728294D01*
X117103460Y-107858920D01*
X117113916Y-107868380D01*
X117122694Y-107864596D01*
X117864978Y-107122312D01*
X117871356Y-107110632D01*
X118601408Y-107110632D01*
X118601539Y-107112465D01*
X118605790Y-107119080D01*
X119347474Y-107860764D01*
X119359484Y-107867323D01*
X119371223Y-107858355D01*
X119405022Y-107811319D01*
X119406149Y-107812129D01*
X119453659Y-107768381D01*
X119523596Y-107756161D01*
X119589038Y-107783691D01*
X119616870Y-107815529D01*
X119643459Y-107858919D01*
X119653916Y-107868380D01*
X119662694Y-107864596D01*
X120404978Y-107122312D01*
X120411356Y-107110632D01*
X121141408Y-107110632D01*
X121141539Y-107112465D01*
X121145790Y-107119080D01*
X121887474Y-107860764D01*
X121899484Y-107867323D01*
X121911223Y-107858355D01*
X121942004Y-107815519D01*
X121947315Y-107806680D01*
X122041670Y-107615767D01*
X122045469Y-107606172D01*
X122107376Y-107402415D01*
X122109555Y-107392334D01*
X122137590Y-107179387D01*
X122138109Y-107172712D01*
X122139572Y-107112864D01*
X122139378Y-107106146D01*
X122121781Y-106892104D01*
X122120096Y-106881924D01*
X122068214Y-106675375D01*
X122064894Y-106665624D01*
X121979972Y-106470314D01*
X121975105Y-106461239D01*
X121910063Y-106360697D01*
X121899377Y-106351495D01*
X121889812Y-106355898D01*
X121149022Y-107096688D01*
X121141408Y-107110632D01*
X120411356Y-107110632D01*
X120412592Y-107108368D01*
X120412461Y-107106535D01*
X120408210Y-107099920D01*
X119666849Y-106358559D01*
X119655313Y-106352259D01*
X119643028Y-106361884D01*
X119610192Y-106410020D01*
X119555281Y-106455023D01*
X119484756Y-106463194D01*
X119421009Y-106431940D01*
X119400311Y-106407455D01*
X119370062Y-106360697D01*
X119359377Y-106351495D01*
X119349812Y-106355898D01*
X118609022Y-107096688D01*
X118601408Y-107110632D01*
X117871356Y-107110632D01*
X117872592Y-107108368D01*
X117872461Y-107106535D01*
X117868210Y-107099920D01*
X117126849Y-106358559D01*
X117115313Y-106352259D01*
X117103031Y-106361882D01*
X117055089Y-106432162D01*
X117050004Y-106441113D01*
X116960338Y-106634283D01*
X116956775Y-106643970D01*
X116899864Y-106849181D01*
X116897933Y-106859300D01*
X116875302Y-107071074D01*
X116875050Y-107081363D01*
X113030000Y-107081363D01*
X113030000Y-105219900D01*
X116878500Y-105219900D01*
X116878837Y-105223146D01*
X116878837Y-105223150D01*
X116884298Y-105275777D01*
X116889474Y-105325666D01*
X116891655Y-105332202D01*
X116891655Y-105332204D01*
X116935728Y-105464306D01*
X116945450Y-105493446D01*
X117038522Y-105643848D01*
X117163697Y-105768805D01*
X117169927Y-105772645D01*
X117169928Y-105772646D01*
X117307090Y-105857194D01*
X117314262Y-105861615D01*
X117384939Y-105885057D01*
X117389219Y-105886477D01*
X117447579Y-105926907D01*
X117458299Y-105952711D01*
X117459650Y-105951972D01*
X117484968Y-105998258D01*
X118224188Y-106737478D01*
X118238132Y-106745092D01*
X118239965Y-106744961D01*
X118246580Y-106740710D01*
X118990389Y-105996901D01*
X119013183Y-105955159D01*
X119015357Y-105945166D01*
X119065561Y-105894966D01*
X119086066Y-105886032D01*
X119108552Y-105878530D01*
X119160946Y-105861050D01*
X119311348Y-105767978D01*
X119436305Y-105642803D01*
X119529115Y-105492238D01*
X119531418Y-105485295D01*
X119533763Y-105480266D01*
X119580680Y-105426981D01*
X119648958Y-105407521D01*
X119716918Y-105428064D01*
X119743194Y-105451020D01*
X119819860Y-105539525D01*
X119823250Y-105543438D01*
X119995126Y-105686132D01*
X120068955Y-105729274D01*
X120117679Y-105780912D01*
X120130750Y-105850695D01*
X120104019Y-105916467D01*
X120063562Y-105949827D01*
X120055460Y-105954044D01*
X120046734Y-105959539D01*
X120026677Y-105974599D01*
X120018223Y-105985927D01*
X120024968Y-105998258D01*
X120764188Y-106737478D01*
X120778132Y-106745092D01*
X120779965Y-106744961D01*
X120786580Y-106740710D01*
X121530389Y-105996901D01*
X121537410Y-105984044D01*
X121530611Y-105974713D01*
X121526559Y-105972021D01*
X121489602Y-105951620D01*
X121439631Y-105901187D01*
X121424859Y-105831745D01*
X121449975Y-105765339D01*
X121477327Y-105738732D01*
X121500797Y-105721991D01*
X121656860Y-105610673D01*
X121815096Y-105452989D01*
X121945453Y-105271577D01*
X121972608Y-105216634D01*
X122042136Y-105075953D01*
X122042137Y-105075951D01*
X122044430Y-105071311D01*
X122109370Y-104857569D01*
X122138529Y-104636090D01*
X122140156Y-104569500D01*
X122121852Y-104346861D01*
X122067431Y-104130202D01*
X121978354Y-103925340D01*
X121857014Y-103737777D01*
X121706670Y-103572551D01*
X121702619Y-103569352D01*
X121702615Y-103569348D01*
X121535414Y-103437300D01*
X121535410Y-103437298D01*
X121531359Y-103434098D01*
X121335789Y-103326138D01*
X121330920Y-103324414D01*
X121330916Y-103324412D01*
X121130087Y-103253295D01*
X121130083Y-103253294D01*
X121125212Y-103251569D01*
X121120119Y-103250662D01*
X121120116Y-103250661D01*
X120910373Y-103213300D01*
X120910367Y-103213299D01*
X120905284Y-103212394D01*
X120831452Y-103211492D01*
X120687081Y-103209728D01*
X120687079Y-103209728D01*
X120681911Y-103209665D01*
X120461091Y-103243455D01*
X120248756Y-103312857D01*
X120218443Y-103328637D01*
X120128678Y-103375366D01*
X120050607Y-103416007D01*
X120046474Y-103419110D01*
X120046471Y-103419112D01*
X119876100Y-103547030D01*
X119871965Y-103550135D01*
X119780781Y-103645554D01*
X119738027Y-103690293D01*
X119676503Y-103725723D01*
X119605590Y-103722266D01*
X119547804Y-103681020D01*
X119532833Y-103656694D01*
X119530865Y-103652494D01*
X119528550Y-103645554D01*
X119435478Y-103495152D01*
X119310303Y-103370195D01*
X119236030Y-103324412D01*
X119165968Y-103281225D01*
X119165966Y-103281224D01*
X119159738Y-103277385D01*
X118999254Y-103224155D01*
X118998389Y-103223868D01*
X118998387Y-103223868D01*
X118991861Y-103221703D01*
X118985025Y-103221003D01*
X118985022Y-103221002D01*
X118941969Y-103216591D01*
X118887400Y-103211000D01*
X117586600Y-103211000D01*
X117583354Y-103211337D01*
X117583350Y-103211337D01*
X117487692Y-103221262D01*
X117487688Y-103221263D01*
X117480834Y-103221974D01*
X117474298Y-103224155D01*
X117474296Y-103224155D01*
X117411631Y-103245062D01*
X117313054Y-103277950D01*
X117162652Y-103371022D01*
X117157479Y-103376204D01*
X117099686Y-103434098D01*
X117037695Y-103496197D01*
X117033855Y-103502427D01*
X117033854Y-103502428D01*
X116949466Y-103639331D01*
X116944885Y-103646762D01*
X116889203Y-103814639D01*
X116878500Y-103919100D01*
X116878500Y-105219900D01*
X113030000Y-105219900D01*
X113030000Y-91037918D01*
X133435917Y-91037918D01*
X133451682Y-91311320D01*
X133452507Y-91315525D01*
X133452508Y-91315533D01*
X133463127Y-91369657D01*
X133504405Y-91580053D01*
X133505792Y-91584103D01*
X133505793Y-91584108D01*
X133526605Y-91644895D01*
X133593112Y-91839144D01*
X133716160Y-92083799D01*
X133718586Y-92087328D01*
X133718589Y-92087334D01*
X133868843Y-92305953D01*
X133871274Y-92309490D01*
X134055582Y-92512043D01*
X134265675Y-92687707D01*
X134269316Y-92689991D01*
X134494024Y-92830951D01*
X134494028Y-92830953D01*
X134497664Y-92833234D01*
X134565544Y-92863883D01*
X134743345Y-92944164D01*
X134743349Y-92944166D01*
X134747257Y-92945930D01*
X134751377Y-92947150D01*
X134751376Y-92947150D01*
X135005723Y-93022491D01*
X135005727Y-93022492D01*
X135009836Y-93023709D01*
X135014070Y-93024357D01*
X135014075Y-93024358D01*
X135276298Y-93064483D01*
X135276300Y-93064483D01*
X135280540Y-93065132D01*
X135419912Y-93067322D01*
X135550071Y-93069367D01*
X135550077Y-93069367D01*
X135554362Y-93069434D01*
X135826235Y-93036534D01*
X136091127Y-92967041D01*
X136095087Y-92965401D01*
X136095092Y-92965399D01*
X136217631Y-92914641D01*
X136344136Y-92862241D01*
X136580582Y-92724073D01*
X136796089Y-92555094D01*
X136837809Y-92512043D01*
X136983686Y-92361509D01*
X136986669Y-92358431D01*
X136989202Y-92354983D01*
X136989206Y-92354978D01*
X137146257Y-92141178D01*
X137148795Y-92137723D01*
X137176154Y-92087334D01*
X137277418Y-91900830D01*
X137277419Y-91900828D01*
X137279468Y-91897054D01*
X137376269Y-91640877D01*
X137437407Y-91373933D01*
X137461751Y-91101161D01*
X137462193Y-91059000D01*
X137460756Y-91037918D01*
X148735917Y-91037918D01*
X148751682Y-91311320D01*
X148752507Y-91315525D01*
X148752508Y-91315533D01*
X148763127Y-91369657D01*
X148804405Y-91580053D01*
X148805792Y-91584103D01*
X148805793Y-91584108D01*
X148826605Y-91644895D01*
X148893112Y-91839144D01*
X149016160Y-92083799D01*
X149018586Y-92087328D01*
X149018589Y-92087334D01*
X149168843Y-92305953D01*
X149171274Y-92309490D01*
X149355582Y-92512043D01*
X149565675Y-92687707D01*
X149569316Y-92689991D01*
X149794024Y-92830951D01*
X149794028Y-92830953D01*
X149797664Y-92833234D01*
X149865544Y-92863883D01*
X150043345Y-92944164D01*
X150043349Y-92944166D01*
X150047257Y-92945930D01*
X150051377Y-92947150D01*
X150051376Y-92947150D01*
X150305723Y-93022491D01*
X150305727Y-93022492D01*
X150309836Y-93023709D01*
X150314070Y-93024357D01*
X150314075Y-93024358D01*
X150576298Y-93064483D01*
X150576300Y-93064483D01*
X150580540Y-93065132D01*
X150719912Y-93067322D01*
X150850071Y-93069367D01*
X150850077Y-93069367D01*
X150854362Y-93069434D01*
X151126235Y-93036534D01*
X151391127Y-92967041D01*
X151395087Y-92965401D01*
X151395092Y-92965399D01*
X151517631Y-92914641D01*
X151644136Y-92862241D01*
X151880582Y-92724073D01*
X152096089Y-92555094D01*
X152137809Y-92512043D01*
X152283686Y-92361509D01*
X152286669Y-92358431D01*
X152289202Y-92354983D01*
X152289206Y-92354978D01*
X152446257Y-92141178D01*
X152448795Y-92137723D01*
X152476154Y-92087334D01*
X152577418Y-91900830D01*
X152577419Y-91900828D01*
X152579468Y-91897054D01*
X152676269Y-91640877D01*
X152737407Y-91373933D01*
X152761751Y-91101161D01*
X152762193Y-91059000D01*
X152743567Y-90785778D01*
X152688032Y-90517612D01*
X152596617Y-90259465D01*
X152471013Y-90016112D01*
X152461040Y-90001921D01*
X152316008Y-89795562D01*
X152313545Y-89792057D01*
X152218208Y-89689462D01*
X152130046Y-89594588D01*
X152130043Y-89594585D01*
X152127125Y-89591445D01*
X152123810Y-89588731D01*
X152123806Y-89588728D01*
X151923284Y-89424603D01*
X151915205Y-89417990D01*
X151681704Y-89274901D01*
X151677768Y-89273173D01*
X151434873Y-89166549D01*
X151434869Y-89166548D01*
X151430945Y-89164825D01*
X151167566Y-89089800D01*
X151163324Y-89089196D01*
X151163318Y-89089195D01*
X150962834Y-89060662D01*
X150896443Y-89051213D01*
X150752589Y-89050460D01*
X150626877Y-89049802D01*
X150626871Y-89049802D01*
X150622591Y-89049780D01*
X150618347Y-89050339D01*
X150618343Y-89050339D01*
X150499302Y-89066011D01*
X150351078Y-89085525D01*
X150346938Y-89086658D01*
X150346936Y-89086658D01*
X150274008Y-89106609D01*
X150086928Y-89157788D01*
X150082980Y-89159472D01*
X149838982Y-89263546D01*
X149838978Y-89263548D01*
X149835030Y-89265232D01*
X149815125Y-89277145D01*
X149603725Y-89403664D01*
X149603721Y-89403667D01*
X149600043Y-89405868D01*
X149386318Y-89577094D01*
X149317507Y-89649606D01*
X149237421Y-89733999D01*
X149197808Y-89775742D01*
X149038002Y-89998136D01*
X148909857Y-90240161D01*
X148908385Y-90244184D01*
X148908383Y-90244188D01*
X148901314Y-90263506D01*
X148815743Y-90497337D01*
X148757404Y-90764907D01*
X148735917Y-91037918D01*
X137460756Y-91037918D01*
X137443567Y-90785778D01*
X137388032Y-90517612D01*
X137296617Y-90259465D01*
X137171013Y-90016112D01*
X137161040Y-90001921D01*
X137016008Y-89795562D01*
X137013545Y-89792057D01*
X136918208Y-89689462D01*
X136830046Y-89594588D01*
X136830043Y-89594585D01*
X136827125Y-89591445D01*
X136823810Y-89588731D01*
X136823806Y-89588728D01*
X136623284Y-89424603D01*
X136615205Y-89417990D01*
X136381704Y-89274901D01*
X136377768Y-89273173D01*
X136134873Y-89166549D01*
X136134869Y-89166548D01*
X136130945Y-89164825D01*
X135867566Y-89089800D01*
X135863324Y-89089196D01*
X135863318Y-89089195D01*
X135662834Y-89060662D01*
X135596443Y-89051213D01*
X135452589Y-89050460D01*
X135326877Y-89049802D01*
X135326871Y-89049802D01*
X135322591Y-89049780D01*
X135318347Y-89050339D01*
X135318343Y-89050339D01*
X135199302Y-89066011D01*
X135051078Y-89085525D01*
X135046938Y-89086658D01*
X135046936Y-89086658D01*
X134974008Y-89106609D01*
X134786928Y-89157788D01*
X134782980Y-89159472D01*
X134538982Y-89263546D01*
X134538978Y-89263548D01*
X134535030Y-89265232D01*
X134515125Y-89277145D01*
X134303725Y-89403664D01*
X134303721Y-89403667D01*
X134300043Y-89405868D01*
X134086318Y-89577094D01*
X134017507Y-89649606D01*
X133937421Y-89733999D01*
X133897808Y-89775742D01*
X133738002Y-89998136D01*
X133609857Y-90240161D01*
X133608385Y-90244184D01*
X133608383Y-90244188D01*
X133601314Y-90263506D01*
X133515743Y-90497337D01*
X133457404Y-90764907D01*
X133435917Y-91037918D01*
X113030000Y-91037918D01*
X113030000Y-88347127D01*
X116867057Y-88347127D01*
X116867354Y-88352280D01*
X116867354Y-88352283D01*
X116872817Y-88447022D01*
X116879916Y-88570147D01*
X116881053Y-88575193D01*
X116881054Y-88575199D01*
X116900925Y-88663371D01*
X116929028Y-88788071D01*
X117013072Y-88995048D01*
X117063825Y-89077870D01*
X117127097Y-89181120D01*
X117129793Y-89185520D01*
X117276056Y-89354370D01*
X117447932Y-89497064D01*
X117640806Y-89609770D01*
X117849498Y-89689462D01*
X117854566Y-89690493D01*
X117854569Y-89690494D01*
X117961823Y-89712315D01*
X118068403Y-89733999D01*
X118073578Y-89734189D01*
X118073580Y-89734189D01*
X118286479Y-89741996D01*
X118286483Y-89741996D01*
X118291643Y-89742185D01*
X118296763Y-89741529D01*
X118296765Y-89741529D01*
X118508094Y-89714457D01*
X118508095Y-89714457D01*
X118513222Y-89713800D01*
X118518172Y-89712315D01*
X118722235Y-89651093D01*
X118722240Y-89651091D01*
X118727190Y-89649606D01*
X118927800Y-89551328D01*
X119109666Y-89421605D01*
X119115541Y-89415751D01*
X119254632Y-89277145D01*
X119267902Y-89263921D01*
X119327400Y-89181121D01*
X119398259Y-89082509D01*
X119399582Y-89083460D01*
X119446451Y-89040289D01*
X119516386Y-89028057D01*
X119581832Y-89055576D01*
X119609681Y-89087426D01*
X119669793Y-89185520D01*
X119816056Y-89354370D01*
X119987932Y-89497064D01*
X120180806Y-89609770D01*
X120389498Y-89689462D01*
X120394566Y-89690493D01*
X120394569Y-89690494D01*
X120501823Y-89712315D01*
X120608403Y-89733999D01*
X120613578Y-89734189D01*
X120613580Y-89734189D01*
X120826479Y-89741996D01*
X120826483Y-89741996D01*
X120831643Y-89742185D01*
X120836763Y-89741529D01*
X120836765Y-89741529D01*
X121048094Y-89714457D01*
X121048095Y-89714457D01*
X121053222Y-89713800D01*
X121058172Y-89712315D01*
X121262235Y-89651093D01*
X121262240Y-89651091D01*
X121267190Y-89649606D01*
X121467800Y-89551328D01*
X121649666Y-89421605D01*
X121655541Y-89415751D01*
X121794632Y-89277145D01*
X121807902Y-89263921D01*
X121867400Y-89181121D01*
X121935241Y-89086709D01*
X121938259Y-89082509D01*
X121953428Y-89051818D01*
X122034942Y-88886885D01*
X122034943Y-88886883D01*
X122037236Y-88882243D01*
X122102176Y-88668501D01*
X122131335Y-88447022D01*
X122132962Y-88380432D01*
X122114658Y-88157793D01*
X122060237Y-87941134D01*
X121971160Y-87736272D01*
X121849820Y-87548709D01*
X121699476Y-87383483D01*
X121695425Y-87380284D01*
X121695421Y-87380280D01*
X121528220Y-87248232D01*
X121528216Y-87248230D01*
X121524165Y-87245030D01*
X121482859Y-87222228D01*
X121432890Y-87171796D01*
X121418118Y-87102353D01*
X121443234Y-87035948D01*
X121470586Y-87009341D01*
X121514409Y-86978082D01*
X121649666Y-86881605D01*
X121807902Y-86723921D01*
X121867400Y-86641121D01*
X121935241Y-86546709D01*
X121938259Y-86542509D01*
X121959126Y-86500289D01*
X122034942Y-86346885D01*
X122034943Y-86346883D01*
X122037236Y-86342243D01*
X122102176Y-86128501D01*
X122131335Y-85907022D01*
X122132962Y-85840432D01*
X122114658Y-85617793D01*
X122060237Y-85401134D01*
X121971160Y-85196272D01*
X121849820Y-85008709D01*
X121699476Y-84843483D01*
X121695425Y-84840284D01*
X121695421Y-84840280D01*
X121528220Y-84708232D01*
X121528216Y-84708230D01*
X121524165Y-84705030D01*
X121482859Y-84682228D01*
X121432890Y-84631796D01*
X121418118Y-84562353D01*
X121443234Y-84495948D01*
X121470586Y-84469341D01*
X121514409Y-84438082D01*
X121649666Y-84341605D01*
X121807902Y-84183921D01*
X121867400Y-84101121D01*
X121935241Y-84006709D01*
X121938259Y-84002509D01*
X121959126Y-83960289D01*
X122034942Y-83806885D01*
X122034943Y-83806883D01*
X122037236Y-83802243D01*
X122102176Y-83588501D01*
X122131335Y-83367022D01*
X122132962Y-83300432D01*
X122114658Y-83077793D01*
X122060237Y-82861134D01*
X121971160Y-82656272D01*
X121931712Y-82595294D01*
X121852628Y-82473049D01*
X121852626Y-82473046D01*
X121849820Y-82468709D01*
X121752408Y-82361654D01*
X134224618Y-82361654D01*
X134231673Y-82371627D01*
X134262679Y-82397551D01*
X134269598Y-82402579D01*
X134494272Y-82543515D01*
X134501807Y-82547556D01*
X134743520Y-82656694D01*
X134751551Y-82659680D01*
X135005832Y-82735002D01*
X135014184Y-82736869D01*
X135276340Y-82776984D01*
X135284874Y-82777700D01*
X135550045Y-82781867D01*
X135558596Y-82781418D01*
X135821883Y-82749557D01*
X135830284Y-82747955D01*
X136086824Y-82680653D01*
X136094926Y-82677926D01*
X136339949Y-82576434D01*
X136347617Y-82572628D01*
X136576598Y-82438822D01*
X136583679Y-82434009D01*
X136663655Y-82371301D01*
X136670545Y-82361654D01*
X149524618Y-82361654D01*
X149531673Y-82371627D01*
X149562679Y-82397551D01*
X149569598Y-82402579D01*
X149794272Y-82543515D01*
X149801807Y-82547556D01*
X150043520Y-82656694D01*
X150051551Y-82659680D01*
X150305832Y-82735002D01*
X150314184Y-82736869D01*
X150576340Y-82776984D01*
X150584874Y-82777700D01*
X150850045Y-82781867D01*
X150858596Y-82781418D01*
X151121883Y-82749557D01*
X151130284Y-82747955D01*
X151386824Y-82680653D01*
X151394926Y-82677926D01*
X151639949Y-82576434D01*
X151647617Y-82572628D01*
X151876598Y-82438822D01*
X151883679Y-82434009D01*
X151963655Y-82371301D01*
X151972125Y-82359442D01*
X151965608Y-82347818D01*
X150761812Y-81144022D01*
X150747868Y-81136408D01*
X150746035Y-81136539D01*
X150739420Y-81140790D01*
X149531910Y-82348300D01*
X149524618Y-82361654D01*
X136670545Y-82361654D01*
X136672125Y-82359442D01*
X136665608Y-82347818D01*
X135461812Y-81144022D01*
X135447868Y-81136408D01*
X135446035Y-81136539D01*
X135439420Y-81140790D01*
X134231910Y-82348300D01*
X134224618Y-82361654D01*
X121752408Y-82361654D01*
X121699476Y-82303483D01*
X121695425Y-82300284D01*
X121695421Y-82300280D01*
X121528220Y-82168232D01*
X121528216Y-82168230D01*
X121524165Y-82165030D01*
X121482859Y-82142228D01*
X121432890Y-82091796D01*
X121418118Y-82022353D01*
X121443234Y-81955948D01*
X121470586Y-81929341D01*
X121514409Y-81898082D01*
X121649666Y-81801605D01*
X121807902Y-81643921D01*
X121867400Y-81561121D01*
X121935241Y-81466709D01*
X121938259Y-81462509D01*
X121959126Y-81420289D01*
X122034942Y-81266885D01*
X122034943Y-81266883D01*
X122037236Y-81262243D01*
X122102176Y-81048501D01*
X122131335Y-80827022D01*
X122131710Y-80811677D01*
X122132880Y-80763797D01*
X122132880Y-80763793D01*
X122132962Y-80760432D01*
X122132532Y-80755204D01*
X133436665Y-80755204D01*
X133451932Y-81019969D01*
X133453005Y-81028470D01*
X133504065Y-81288722D01*
X133506276Y-81296974D01*
X133592184Y-81547894D01*
X133595499Y-81555779D01*
X133714664Y-81792713D01*
X133719020Y-81800079D01*
X133848347Y-81988250D01*
X133858601Y-81996594D01*
X133872342Y-81989448D01*
X135076978Y-80784812D01*
X135083356Y-80773132D01*
X135813408Y-80773132D01*
X135813539Y-80774965D01*
X135817790Y-80781580D01*
X137024730Y-81988520D01*
X137036939Y-81995187D01*
X137048439Y-81986497D01*
X137145831Y-81853913D01*
X137150418Y-81846685D01*
X137276962Y-81613621D01*
X137280530Y-81605827D01*
X137374271Y-81357750D01*
X137376748Y-81349544D01*
X137435954Y-81091038D01*
X137437294Y-81082577D01*
X137461031Y-80816616D01*
X137461277Y-80811677D01*
X137461666Y-80774485D01*
X137461523Y-80769519D01*
X137460547Y-80755204D01*
X148736665Y-80755204D01*
X148751932Y-81019969D01*
X148753005Y-81028470D01*
X148804065Y-81288722D01*
X148806276Y-81296974D01*
X148892184Y-81547894D01*
X148895499Y-81555779D01*
X149014664Y-81792713D01*
X149019020Y-81800079D01*
X149148347Y-81988250D01*
X149158601Y-81996594D01*
X149172342Y-81989448D01*
X150376978Y-80784812D01*
X150383356Y-80773132D01*
X151113408Y-80773132D01*
X151113539Y-80774965D01*
X151117790Y-80781580D01*
X152324730Y-81988520D01*
X152336939Y-81995187D01*
X152348439Y-81986497D01*
X152445831Y-81853913D01*
X152450418Y-81846685D01*
X152576962Y-81613621D01*
X152580530Y-81605827D01*
X152674271Y-81357750D01*
X152676748Y-81349544D01*
X152735954Y-81091038D01*
X152737294Y-81082577D01*
X152761031Y-80816616D01*
X152761277Y-80811677D01*
X152761666Y-80774485D01*
X152761523Y-80769519D01*
X152743362Y-80503123D01*
X152742201Y-80494649D01*
X152688419Y-80234944D01*
X152686120Y-80226709D01*
X152597588Y-79976705D01*
X152594191Y-79968854D01*
X152472550Y-79733178D01*
X152468122Y-79725866D01*
X152349031Y-79556417D01*
X152338509Y-79548037D01*
X152325121Y-79555089D01*
X151121022Y-80759188D01*
X151113408Y-80773132D01*
X150383356Y-80773132D01*
X150384592Y-80770868D01*
X150384461Y-80769035D01*
X150380210Y-80762420D01*
X149172814Y-79555024D01*
X149160804Y-79548466D01*
X149149064Y-79557434D01*
X149040935Y-79707911D01*
X149036418Y-79715196D01*
X148912325Y-79949567D01*
X148908839Y-79957395D01*
X148817700Y-80206446D01*
X148815311Y-80214670D01*
X148758812Y-80473795D01*
X148757563Y-80482250D01*
X148736754Y-80746653D01*
X148736665Y-80755204D01*
X137460547Y-80755204D01*
X137443362Y-80503123D01*
X137442201Y-80494649D01*
X137388419Y-80234944D01*
X137386120Y-80226709D01*
X137297588Y-79976705D01*
X137294191Y-79968854D01*
X137172550Y-79733178D01*
X137168122Y-79725866D01*
X137049031Y-79556417D01*
X137038509Y-79548037D01*
X137025121Y-79555089D01*
X135821022Y-80759188D01*
X135813408Y-80773132D01*
X135083356Y-80773132D01*
X135084592Y-80770868D01*
X135084461Y-80769035D01*
X135080210Y-80762420D01*
X133872814Y-79555024D01*
X133860804Y-79548466D01*
X133849064Y-79557434D01*
X133740935Y-79707911D01*
X133736418Y-79715196D01*
X133612325Y-79949567D01*
X133608839Y-79957395D01*
X133517700Y-80206446D01*
X133515311Y-80214670D01*
X133458812Y-80473795D01*
X133457563Y-80482250D01*
X133436754Y-80746653D01*
X133436665Y-80755204D01*
X122132532Y-80755204D01*
X122114658Y-80537793D01*
X122060237Y-80321134D01*
X121971160Y-80116272D01*
X121849820Y-79928709D01*
X121699476Y-79763483D01*
X121695425Y-79760284D01*
X121695421Y-79760280D01*
X121528220Y-79628232D01*
X121528216Y-79628230D01*
X121524165Y-79625030D01*
X121482375Y-79601961D01*
X121432404Y-79551529D01*
X121417632Y-79482086D01*
X121442748Y-79415680D01*
X121470099Y-79389074D01*
X121519053Y-79354155D01*
X121527454Y-79343455D01*
X121520466Y-79330302D01*
X121374664Y-79184500D01*
X134225584Y-79184500D01*
X134231980Y-79195770D01*
X135436188Y-80399978D01*
X135450132Y-80407592D01*
X135451965Y-80407461D01*
X135458580Y-80403210D01*
X136665604Y-79196186D01*
X136671985Y-79184500D01*
X149525584Y-79184500D01*
X149531980Y-79195770D01*
X150736188Y-80399978D01*
X150750132Y-80407592D01*
X150751965Y-80407461D01*
X150758580Y-80403210D01*
X151965604Y-79196186D01*
X151972795Y-79183017D01*
X151965473Y-79172780D01*
X151918233Y-79134115D01*
X151911261Y-79129160D01*
X151685122Y-78990582D01*
X151677552Y-78986624D01*
X151434704Y-78880022D01*
X151426644Y-78877120D01*
X151171592Y-78804467D01*
X151163214Y-78802685D01*
X150900656Y-78765318D01*
X150892111Y-78764691D01*
X150626908Y-78763302D01*
X150618374Y-78763839D01*
X150355433Y-78798456D01*
X150347035Y-78800149D01*
X150091238Y-78870127D01*
X150083143Y-78872946D01*
X149839199Y-78976997D01*
X149831577Y-78980881D01*
X149604013Y-79117075D01*
X149596981Y-79121962D01*
X149534053Y-79172377D01*
X149525584Y-79184500D01*
X136671985Y-79184500D01*
X136672795Y-79183017D01*
X136665473Y-79172780D01*
X136618233Y-79134115D01*
X136611261Y-79129160D01*
X136385122Y-78990582D01*
X136377552Y-78986624D01*
X136134704Y-78880022D01*
X136126644Y-78877120D01*
X135871592Y-78804467D01*
X135863214Y-78802685D01*
X135600656Y-78765318D01*
X135592111Y-78764691D01*
X135326908Y-78763302D01*
X135318374Y-78763839D01*
X135055433Y-78798456D01*
X135047035Y-78800149D01*
X134791238Y-78870127D01*
X134783143Y-78872946D01*
X134539199Y-78976997D01*
X134531577Y-78980881D01*
X134304013Y-79117075D01*
X134296981Y-79121962D01*
X134234053Y-79172377D01*
X134225584Y-79184500D01*
X121374664Y-79184500D01*
X120782618Y-78592454D01*
X120768674Y-78584840D01*
X120766841Y-78584971D01*
X120760226Y-78589222D01*
X120016543Y-79332905D01*
X120009783Y-79345285D01*
X120015064Y-79352339D01*
X120061775Y-79379635D01*
X120110499Y-79431273D01*
X120123570Y-79501056D01*
X120096839Y-79566828D01*
X120056390Y-79600184D01*
X120043413Y-79606939D01*
X120039280Y-79610042D01*
X120039277Y-79610044D01*
X119875278Y-79733178D01*
X119864771Y-79741067D01*
X119710435Y-79902570D01*
X119603007Y-80060053D01*
X119548099Y-80105053D01*
X119477574Y-80113224D01*
X119413827Y-80081970D01*
X119393130Y-80057486D01*
X119312628Y-79933049D01*
X119312626Y-79933046D01*
X119309820Y-79928709D01*
X119159476Y-79763483D01*
X119155425Y-79760284D01*
X119155421Y-79760280D01*
X118988220Y-79628232D01*
X118988216Y-79628230D01*
X118984165Y-79625030D01*
X118942375Y-79601961D01*
X118892404Y-79551529D01*
X118877632Y-79482086D01*
X118902748Y-79415680D01*
X118930099Y-79389074D01*
X118979053Y-79354155D01*
X118987454Y-79343455D01*
X118980466Y-79330302D01*
X118242618Y-78592454D01*
X118228674Y-78584840D01*
X118226841Y-78584971D01*
X118220226Y-78589222D01*
X117476543Y-79332905D01*
X117469783Y-79345285D01*
X117475064Y-79352339D01*
X117521775Y-79379635D01*
X117570499Y-79431273D01*
X117583570Y-79501056D01*
X117556839Y-79566828D01*
X117516390Y-79600184D01*
X117503413Y-79606939D01*
X117499280Y-79610042D01*
X117499277Y-79610044D01*
X117335278Y-79733178D01*
X117324771Y-79741067D01*
X117170435Y-79902570D01*
X117167526Y-79906835D01*
X117167520Y-79906843D01*
X117082362Y-80031681D01*
X117044549Y-80087112D01*
X117028809Y-80121022D01*
X116979751Y-80226709D01*
X116950494Y-80289737D01*
X116890795Y-80505002D01*
X116867057Y-80727127D01*
X116867354Y-80732280D01*
X116867354Y-80732283D01*
X116872817Y-80827022D01*
X116879916Y-80950147D01*
X116881053Y-80955193D01*
X116881054Y-80955199D01*
X116895651Y-81019969D01*
X116929028Y-81168071D01*
X117013072Y-81375048D01*
X117063825Y-81457870D01*
X117127097Y-81561120D01*
X117129793Y-81565520D01*
X117276056Y-81734370D01*
X117447932Y-81877064D01*
X117518401Y-81918243D01*
X117521251Y-81919908D01*
X117569975Y-81971546D01*
X117583046Y-82041329D01*
X117556315Y-82107101D01*
X117515861Y-82140459D01*
X117503413Y-82146939D01*
X117499280Y-82150042D01*
X117499277Y-82150044D01*
X117475053Y-82168232D01*
X117324771Y-82281067D01*
X117170435Y-82442570D01*
X117044549Y-82627112D01*
X117030818Y-82656694D01*
X116974649Y-82777700D01*
X116950494Y-82829737D01*
X116890795Y-83045002D01*
X116867057Y-83267127D01*
X116867354Y-83272280D01*
X116867354Y-83272283D01*
X116872817Y-83367022D01*
X116879916Y-83490147D01*
X116881053Y-83495193D01*
X116881054Y-83495199D01*
X116900925Y-83583371D01*
X116929028Y-83708071D01*
X117013072Y-83915048D01*
X117063825Y-83997870D01*
X117127097Y-84101120D01*
X117129793Y-84105520D01*
X117276056Y-84274370D01*
X117447932Y-84417064D01*
X117518401Y-84458243D01*
X117521251Y-84459908D01*
X117569975Y-84511546D01*
X117583046Y-84581329D01*
X117556315Y-84647101D01*
X117515861Y-84680459D01*
X117503413Y-84686939D01*
X117499280Y-84690042D01*
X117499277Y-84690044D01*
X117475053Y-84708232D01*
X117324771Y-84821067D01*
X117170435Y-84982570D01*
X117044549Y-85167112D01*
X116950494Y-85369737D01*
X116890795Y-85585002D01*
X116867057Y-85807127D01*
X116867354Y-85812280D01*
X116867354Y-85812283D01*
X116872817Y-85907022D01*
X116879916Y-86030147D01*
X116881053Y-86035193D01*
X116881054Y-86035199D01*
X116900925Y-86123371D01*
X116929028Y-86248071D01*
X117013072Y-86455048D01*
X117063825Y-86537870D01*
X117127097Y-86641120D01*
X117129793Y-86645520D01*
X117276056Y-86814370D01*
X117447932Y-86957064D01*
X117518401Y-86998243D01*
X117521251Y-86999908D01*
X117569975Y-87051546D01*
X117583046Y-87121329D01*
X117556315Y-87187101D01*
X117515861Y-87220459D01*
X117503413Y-87226939D01*
X117499280Y-87230042D01*
X117499277Y-87230044D01*
X117475053Y-87248232D01*
X117324771Y-87361067D01*
X117170435Y-87522570D01*
X117044549Y-87707112D01*
X116950494Y-87909737D01*
X116890795Y-88125002D01*
X116867057Y-88347127D01*
X113030000Y-88347127D01*
X113030000Y-78192295D01*
X116867856Y-78192295D01*
X116880115Y-78404909D01*
X116881551Y-78415129D01*
X116928371Y-78622878D01*
X116931451Y-78632707D01*
X117011576Y-78830035D01*
X117016219Y-78839226D01*
X117096266Y-78969852D01*
X117106722Y-78979312D01*
X117115500Y-78975528D01*
X117857784Y-78233244D01*
X117864162Y-78221564D01*
X118594214Y-78221564D01*
X118594345Y-78223397D01*
X118598596Y-78230012D01*
X119340280Y-78971696D01*
X119352290Y-78978255D01*
X119364029Y-78969287D01*
X119397828Y-78922251D01*
X119398955Y-78923061D01*
X119446465Y-78879313D01*
X119516402Y-78867093D01*
X119581844Y-78894623D01*
X119609676Y-78926461D01*
X119636265Y-78969851D01*
X119646722Y-78979312D01*
X119655500Y-78975528D01*
X120397784Y-78233244D01*
X120404162Y-78221564D01*
X121134214Y-78221564D01*
X121134345Y-78223397D01*
X121138596Y-78230012D01*
X121880280Y-78971696D01*
X121892290Y-78978255D01*
X121904029Y-78969287D01*
X121934810Y-78926451D01*
X121940121Y-78917612D01*
X122034476Y-78726699D01*
X122038275Y-78717104D01*
X122100182Y-78513347D01*
X122102361Y-78503266D01*
X122130396Y-78290319D01*
X122130915Y-78283644D01*
X122132378Y-78223796D01*
X122132184Y-78217078D01*
X122114587Y-78003036D01*
X122112902Y-77992856D01*
X122061020Y-77786307D01*
X122057700Y-77776556D01*
X121972778Y-77581246D01*
X121967911Y-77572171D01*
X121902869Y-77471629D01*
X121892183Y-77462427D01*
X121882618Y-77466830D01*
X121141828Y-78207620D01*
X121134214Y-78221564D01*
X120404162Y-78221564D01*
X120405398Y-78219300D01*
X120405267Y-78217467D01*
X120401016Y-78210852D01*
X119659655Y-77469491D01*
X119648119Y-77463191D01*
X119635834Y-77472816D01*
X119602998Y-77520952D01*
X119548087Y-77565955D01*
X119477562Y-77574126D01*
X119413815Y-77542872D01*
X119393117Y-77518387D01*
X119362868Y-77471629D01*
X119352183Y-77462427D01*
X119342618Y-77466830D01*
X118601828Y-78207620D01*
X118594214Y-78221564D01*
X117864162Y-78221564D01*
X117865398Y-78219300D01*
X117865267Y-78217467D01*
X117861016Y-78210852D01*
X117119655Y-77469491D01*
X117108119Y-77463191D01*
X117095837Y-77472814D01*
X117047895Y-77543094D01*
X117042810Y-77552045D01*
X116953144Y-77745215D01*
X116949581Y-77754902D01*
X116892670Y-77960113D01*
X116890739Y-77970232D01*
X116868108Y-78182006D01*
X116867856Y-78192295D01*
X113030000Y-78192295D01*
X113030000Y-76805285D01*
X117469783Y-76805285D01*
X117475064Y-76812339D01*
X117522285Y-76839933D01*
X117571009Y-76891571D01*
X117584080Y-76961354D01*
X117557349Y-77027126D01*
X117516893Y-77060485D01*
X117508272Y-77064973D01*
X117499540Y-77070471D01*
X117479483Y-77085531D01*
X117471029Y-77096859D01*
X117477774Y-77109190D01*
X118216994Y-77848410D01*
X118230938Y-77856024D01*
X118232771Y-77855893D01*
X118239386Y-77851642D01*
X118983195Y-77107833D01*
X118990216Y-77094976D01*
X118983417Y-77085645D01*
X118979365Y-77082953D01*
X118941922Y-77062284D01*
X118891951Y-77011852D01*
X118877179Y-76942409D01*
X118902295Y-76876004D01*
X118929646Y-76849397D01*
X118979053Y-76814155D01*
X118986017Y-76805285D01*
X120009783Y-76805285D01*
X120015064Y-76812339D01*
X120062285Y-76839933D01*
X120111009Y-76891571D01*
X120124080Y-76961354D01*
X120097349Y-77027126D01*
X120056893Y-77060485D01*
X120048272Y-77064973D01*
X120039540Y-77070471D01*
X120019483Y-77085531D01*
X120011029Y-77096859D01*
X120017774Y-77109190D01*
X120756994Y-77848410D01*
X120770938Y-77856024D01*
X120772771Y-77855893D01*
X120779386Y-77851642D01*
X121523195Y-77107833D01*
X121530216Y-77094976D01*
X121523417Y-77085645D01*
X121519365Y-77082953D01*
X121481922Y-77062284D01*
X121431951Y-77011852D01*
X121417179Y-76942409D01*
X121442295Y-76876004D01*
X121469646Y-76849397D01*
X121519053Y-76814155D01*
X121527454Y-76803455D01*
X121520466Y-76790302D01*
X120782618Y-76052454D01*
X120768674Y-76044840D01*
X120766841Y-76044971D01*
X120760226Y-76049222D01*
X120016543Y-76792905D01*
X120009783Y-76805285D01*
X118986017Y-76805285D01*
X118987454Y-76803455D01*
X118980466Y-76790302D01*
X118242618Y-76052454D01*
X118228674Y-76044840D01*
X118226841Y-76044971D01*
X118220226Y-76049222D01*
X117476543Y-76792905D01*
X117469783Y-76805285D01*
X113030000Y-76805285D01*
X113030000Y-75652295D01*
X116867856Y-75652295D01*
X116880115Y-75864909D01*
X116881551Y-75875129D01*
X116928371Y-76082878D01*
X116931451Y-76092707D01*
X117011576Y-76290035D01*
X117016219Y-76299226D01*
X117096266Y-76429852D01*
X117106722Y-76439312D01*
X117115500Y-76435528D01*
X117857784Y-75693244D01*
X117864162Y-75681564D01*
X118594214Y-75681564D01*
X118594345Y-75683397D01*
X118598596Y-75690012D01*
X119340280Y-76431696D01*
X119352290Y-76438255D01*
X119364029Y-76429287D01*
X119397828Y-76382251D01*
X119398955Y-76383061D01*
X119446465Y-76339313D01*
X119516402Y-76327093D01*
X119581844Y-76354623D01*
X119609676Y-76386461D01*
X119636265Y-76429851D01*
X119646722Y-76439312D01*
X119655500Y-76435528D01*
X120397784Y-75693244D01*
X120404162Y-75681564D01*
X121134214Y-75681564D01*
X121134345Y-75683397D01*
X121138596Y-75690012D01*
X121880280Y-76431696D01*
X121892290Y-76438255D01*
X121904029Y-76429287D01*
X121934810Y-76386451D01*
X121940121Y-76377612D01*
X122034476Y-76186699D01*
X122038275Y-76177104D01*
X122100182Y-75973347D01*
X122102361Y-75963266D01*
X122130396Y-75750319D01*
X122130915Y-75743644D01*
X122132378Y-75683796D01*
X122132184Y-75677078D01*
X122114587Y-75463036D01*
X122112902Y-75452856D01*
X122061020Y-75246307D01*
X122057700Y-75236556D01*
X121972778Y-75041246D01*
X121967911Y-75032171D01*
X121902869Y-74931629D01*
X121892183Y-74922427D01*
X121882618Y-74926830D01*
X121141828Y-75667620D01*
X121134214Y-75681564D01*
X120404162Y-75681564D01*
X120405398Y-75679300D01*
X120405267Y-75677467D01*
X120401016Y-75670852D01*
X119659655Y-74929491D01*
X119648119Y-74923191D01*
X119635834Y-74932816D01*
X119602998Y-74980952D01*
X119548087Y-75025955D01*
X119477562Y-75034126D01*
X119413815Y-75002872D01*
X119393117Y-74978387D01*
X119362868Y-74931629D01*
X119352183Y-74922427D01*
X119342618Y-74926830D01*
X118601828Y-75667620D01*
X118594214Y-75681564D01*
X117864162Y-75681564D01*
X117865398Y-75679300D01*
X117865267Y-75677467D01*
X117861016Y-75670852D01*
X117119655Y-74929491D01*
X117108119Y-74923191D01*
X117095837Y-74932814D01*
X117047895Y-75003094D01*
X117042810Y-75012045D01*
X116953144Y-75205215D01*
X116949581Y-75214902D01*
X116892670Y-75420113D01*
X116890739Y-75430232D01*
X116868108Y-75642006D01*
X116867856Y-75652295D01*
X113030000Y-75652295D01*
X113030000Y-74265285D01*
X117469783Y-74265285D01*
X117475064Y-74272339D01*
X117522285Y-74299933D01*
X117571009Y-74351571D01*
X117584080Y-74421354D01*
X117557349Y-74487126D01*
X117516893Y-74520485D01*
X117508272Y-74524973D01*
X117499540Y-74530471D01*
X117479483Y-74545531D01*
X117471029Y-74556859D01*
X117477774Y-74569190D01*
X118216994Y-75308410D01*
X118230938Y-75316024D01*
X118232771Y-75315893D01*
X118239386Y-75311642D01*
X118983195Y-74567833D01*
X118990216Y-74554976D01*
X118983417Y-74545645D01*
X118979365Y-74542953D01*
X118941922Y-74522284D01*
X118891951Y-74471852D01*
X118877179Y-74402409D01*
X118902295Y-74336004D01*
X118929646Y-74309397D01*
X118979053Y-74274155D01*
X118986017Y-74265285D01*
X120009783Y-74265285D01*
X120015064Y-74272339D01*
X120062285Y-74299933D01*
X120111009Y-74351571D01*
X120124080Y-74421354D01*
X120097349Y-74487126D01*
X120056893Y-74520485D01*
X120048272Y-74524973D01*
X120039540Y-74530471D01*
X120019483Y-74545531D01*
X120011029Y-74556859D01*
X120017774Y-74569190D01*
X120756994Y-75308410D01*
X120770938Y-75316024D01*
X120772771Y-75315893D01*
X120779386Y-75311642D01*
X121523195Y-74567833D01*
X121530216Y-74554976D01*
X121523417Y-74545645D01*
X121519365Y-74542953D01*
X121481922Y-74522284D01*
X121431951Y-74471852D01*
X121417179Y-74402409D01*
X121442295Y-74336004D01*
X121469646Y-74309397D01*
X121519053Y-74274155D01*
X121527454Y-74263455D01*
X121520466Y-74250302D01*
X120782618Y-73512454D01*
X120768674Y-73504840D01*
X120766841Y-73504971D01*
X120760226Y-73509222D01*
X120016543Y-74252905D01*
X120009783Y-74265285D01*
X118986017Y-74265285D01*
X118987454Y-74263455D01*
X118980466Y-74250302D01*
X118242618Y-73512454D01*
X118228674Y-73504840D01*
X118226841Y-73504971D01*
X118220226Y-73509222D01*
X117476543Y-74252905D01*
X117469783Y-74265285D01*
X113030000Y-74265285D01*
X113030000Y-73112295D01*
X116867856Y-73112295D01*
X116880115Y-73324909D01*
X116881551Y-73335129D01*
X116928371Y-73542878D01*
X116931451Y-73552707D01*
X117011576Y-73750035D01*
X117016219Y-73759226D01*
X117096266Y-73889852D01*
X117106722Y-73899312D01*
X117115500Y-73895528D01*
X117857784Y-73153244D01*
X117864162Y-73141564D01*
X118594214Y-73141564D01*
X118594345Y-73143397D01*
X118598596Y-73150012D01*
X119340280Y-73891696D01*
X119352290Y-73898255D01*
X119364029Y-73889287D01*
X119397828Y-73842251D01*
X119398955Y-73843061D01*
X119446465Y-73799313D01*
X119516402Y-73787093D01*
X119581844Y-73814623D01*
X119609676Y-73846461D01*
X119636265Y-73889851D01*
X119646722Y-73899312D01*
X119655500Y-73895528D01*
X120397784Y-73153244D01*
X120404162Y-73141564D01*
X121134214Y-73141564D01*
X121134345Y-73143397D01*
X121138596Y-73150012D01*
X121880280Y-73891696D01*
X121892290Y-73898255D01*
X121904029Y-73889287D01*
X121934810Y-73846451D01*
X121940121Y-73837612D01*
X122034476Y-73646699D01*
X122038275Y-73637104D01*
X122100182Y-73433347D01*
X122102361Y-73423266D01*
X122130396Y-73210319D01*
X122130915Y-73203644D01*
X122132378Y-73143796D01*
X122132184Y-73137078D01*
X122114587Y-72923036D01*
X122112902Y-72912856D01*
X122061020Y-72706307D01*
X122057700Y-72696556D01*
X121972778Y-72501246D01*
X121967911Y-72492171D01*
X121902869Y-72391629D01*
X121892183Y-72382427D01*
X121882618Y-72386830D01*
X121141828Y-73127620D01*
X121134214Y-73141564D01*
X120404162Y-73141564D01*
X120405398Y-73139300D01*
X120405267Y-73137467D01*
X120401016Y-73130852D01*
X119659655Y-72389491D01*
X119648119Y-72383191D01*
X119635834Y-72392816D01*
X119602998Y-72440952D01*
X119548087Y-72485955D01*
X119477562Y-72494126D01*
X119413815Y-72462872D01*
X119393117Y-72438387D01*
X119362868Y-72391629D01*
X119352183Y-72382427D01*
X119342618Y-72386830D01*
X118601828Y-73127620D01*
X118594214Y-73141564D01*
X117864162Y-73141564D01*
X117865398Y-73139300D01*
X117865267Y-73137467D01*
X117861016Y-73130852D01*
X117119655Y-72389491D01*
X117108119Y-72383191D01*
X117095837Y-72392814D01*
X117047895Y-72463094D01*
X117042810Y-72472045D01*
X116953144Y-72665215D01*
X116949581Y-72674902D01*
X116892670Y-72880113D01*
X116890739Y-72890232D01*
X116868108Y-73102006D01*
X116867856Y-73112295D01*
X113030000Y-73112295D01*
X113030000Y-71250832D01*
X116871306Y-71250832D01*
X116871643Y-71254078D01*
X116871643Y-71254082D01*
X116878800Y-71323054D01*
X116882280Y-71356598D01*
X116884461Y-71363134D01*
X116884461Y-71363136D01*
X116928534Y-71495238D01*
X116938256Y-71524378D01*
X117031328Y-71674780D01*
X117156503Y-71799737D01*
X117162733Y-71803577D01*
X117162734Y-71803578D01*
X117299896Y-71888126D01*
X117307068Y-71892547D01*
X117377745Y-71915989D01*
X117382025Y-71917409D01*
X117440385Y-71957839D01*
X117451105Y-71983643D01*
X117452456Y-71982904D01*
X117477774Y-72029190D01*
X118216994Y-72768410D01*
X118230938Y-72776024D01*
X118232771Y-72775893D01*
X118239386Y-72771642D01*
X118983195Y-72027833D01*
X119005989Y-71986091D01*
X119008163Y-71976098D01*
X119058367Y-71925898D01*
X119078872Y-71916964D01*
X119101358Y-71909462D01*
X119153752Y-71891982D01*
X119304154Y-71798910D01*
X119429111Y-71673735D01*
X119521921Y-71523170D01*
X119524224Y-71516227D01*
X119526569Y-71511198D01*
X119573486Y-71457913D01*
X119641764Y-71438453D01*
X119709724Y-71458996D01*
X119736000Y-71481952D01*
X119803569Y-71559955D01*
X119816056Y-71574370D01*
X119987932Y-71717064D01*
X120024896Y-71738664D01*
X120061761Y-71760206D01*
X120110485Y-71811844D01*
X120123556Y-71881627D01*
X120096825Y-71947399D01*
X120056368Y-71980759D01*
X120048266Y-71984976D01*
X120039540Y-71990471D01*
X120019483Y-72005531D01*
X120011029Y-72016859D01*
X120017774Y-72029190D01*
X120756994Y-72768410D01*
X120770938Y-72776024D01*
X120772771Y-72775893D01*
X120779386Y-72771642D01*
X121523195Y-72027833D01*
X121530216Y-72014976D01*
X121523417Y-72005645D01*
X121519365Y-72002953D01*
X121482408Y-71982552D01*
X121432437Y-71932119D01*
X121417665Y-71862677D01*
X121442781Y-71796271D01*
X121470133Y-71769664D01*
X121493603Y-71752923D01*
X121649666Y-71641605D01*
X121807902Y-71483921D01*
X121938259Y-71302509D01*
X121954833Y-71268975D01*
X122034942Y-71106885D01*
X122034943Y-71106883D01*
X122037236Y-71102243D01*
X122102176Y-70888501D01*
X122131335Y-70667022D01*
X122132962Y-70600432D01*
X122121739Y-70463918D01*
X133435917Y-70463918D01*
X133451682Y-70737320D01*
X133452507Y-70741525D01*
X133452508Y-70741533D01*
X133463127Y-70795657D01*
X133504405Y-71006053D01*
X133505792Y-71010103D01*
X133505793Y-71010108D01*
X133591723Y-71261088D01*
X133593112Y-71265144D01*
X133611905Y-71302509D01*
X133704980Y-71487569D01*
X133716160Y-71509799D01*
X133718586Y-71513328D01*
X133718589Y-71513334D01*
X133828831Y-71673735D01*
X133871274Y-71735490D01*
X133874161Y-71738663D01*
X133874162Y-71738664D01*
X134029575Y-71909462D01*
X134055582Y-71938043D01*
X134058877Y-71940798D01*
X134058878Y-71940799D01*
X134133214Y-72002953D01*
X134265675Y-72113707D01*
X134269316Y-72115991D01*
X134494024Y-72256951D01*
X134494028Y-72256953D01*
X134497664Y-72259234D01*
X134565544Y-72289883D01*
X134743345Y-72370164D01*
X134743349Y-72370166D01*
X134747257Y-72371930D01*
X134785274Y-72383191D01*
X135005723Y-72448491D01*
X135005727Y-72448492D01*
X135009836Y-72449709D01*
X135014070Y-72450357D01*
X135014075Y-72450358D01*
X135276298Y-72490483D01*
X135276300Y-72490483D01*
X135280540Y-72491132D01*
X135419912Y-72493322D01*
X135550071Y-72495367D01*
X135550077Y-72495367D01*
X135554362Y-72495434D01*
X135826235Y-72462534D01*
X136091127Y-72393041D01*
X136095087Y-72391401D01*
X136095092Y-72391399D01*
X136217631Y-72340641D01*
X136344136Y-72288241D01*
X136580582Y-72150073D01*
X136796089Y-71981094D01*
X136800931Y-71976098D01*
X136976847Y-71794566D01*
X136986669Y-71784431D01*
X136989202Y-71780983D01*
X136989206Y-71780978D01*
X137146257Y-71567178D01*
X137148795Y-71563723D01*
X137177314Y-71511198D01*
X137277418Y-71326830D01*
X137277419Y-71326828D01*
X137279468Y-71323054D01*
X137361151Y-71106885D01*
X137374751Y-71070895D01*
X137374752Y-71070891D01*
X137376269Y-71066877D01*
X137437407Y-70799933D01*
X137454912Y-70603797D01*
X137461531Y-70529627D01*
X137461531Y-70529625D01*
X137461751Y-70527161D01*
X137462193Y-70485000D01*
X137460756Y-70463918D01*
X148735917Y-70463918D01*
X148751682Y-70737320D01*
X148752507Y-70741525D01*
X148752508Y-70741533D01*
X148763127Y-70795657D01*
X148804405Y-71006053D01*
X148805792Y-71010103D01*
X148805793Y-71010108D01*
X148891723Y-71261088D01*
X148893112Y-71265144D01*
X148911905Y-71302509D01*
X149004980Y-71487569D01*
X149016160Y-71509799D01*
X149018586Y-71513328D01*
X149018589Y-71513334D01*
X149128831Y-71673735D01*
X149171274Y-71735490D01*
X149174161Y-71738663D01*
X149174162Y-71738664D01*
X149329575Y-71909462D01*
X149355582Y-71938043D01*
X149358877Y-71940798D01*
X149358878Y-71940799D01*
X149433214Y-72002953D01*
X149565675Y-72113707D01*
X149569316Y-72115991D01*
X149794024Y-72256951D01*
X149794028Y-72256953D01*
X149797664Y-72259234D01*
X149865544Y-72289883D01*
X150043345Y-72370164D01*
X150043349Y-72370166D01*
X150047257Y-72371930D01*
X150085274Y-72383191D01*
X150305723Y-72448491D01*
X150305727Y-72448492D01*
X150309836Y-72449709D01*
X150314070Y-72450357D01*
X150314075Y-72450358D01*
X150576298Y-72490483D01*
X150576300Y-72490483D01*
X150580540Y-72491132D01*
X150719912Y-72493322D01*
X150850071Y-72495367D01*
X150850077Y-72495367D01*
X150854362Y-72495434D01*
X151126235Y-72462534D01*
X151391127Y-72393041D01*
X151395087Y-72391401D01*
X151395092Y-72391399D01*
X151517631Y-72340641D01*
X151644136Y-72288241D01*
X151880582Y-72150073D01*
X152096089Y-71981094D01*
X152100931Y-71976098D01*
X152276847Y-71794566D01*
X152286669Y-71784431D01*
X152289202Y-71780983D01*
X152289206Y-71780978D01*
X152446257Y-71567178D01*
X152448795Y-71563723D01*
X152477314Y-71511198D01*
X152577418Y-71326830D01*
X152577419Y-71326828D01*
X152579468Y-71323054D01*
X152661151Y-71106885D01*
X152674751Y-71070895D01*
X152674752Y-71070891D01*
X152676269Y-71066877D01*
X152737407Y-70799933D01*
X152754912Y-70603797D01*
X152761531Y-70529627D01*
X152761531Y-70529625D01*
X152761751Y-70527161D01*
X152762193Y-70485000D01*
X152760465Y-70459648D01*
X152743859Y-70216055D01*
X152743858Y-70216049D01*
X152743567Y-70211778D01*
X152688032Y-69943612D01*
X152596617Y-69685465D01*
X152542733Y-69581067D01*
X152472978Y-69445919D01*
X152472978Y-69445918D01*
X152471013Y-69442112D01*
X152461040Y-69427921D01*
X152376981Y-69308317D01*
X152313545Y-69218057D01*
X152127125Y-69017445D01*
X152123810Y-69014731D01*
X152123806Y-69014728D01*
X151918523Y-68846706D01*
X151915205Y-68843990D01*
X151681704Y-68700901D01*
X151677768Y-68699173D01*
X151434873Y-68592549D01*
X151434869Y-68592548D01*
X151430945Y-68590825D01*
X151167566Y-68515800D01*
X151163324Y-68515196D01*
X151163318Y-68515195D01*
X150962834Y-68486662D01*
X150896443Y-68477213D01*
X150752589Y-68476460D01*
X150626877Y-68475802D01*
X150626871Y-68475802D01*
X150622591Y-68475780D01*
X150618347Y-68476339D01*
X150618343Y-68476339D01*
X150499302Y-68492011D01*
X150351078Y-68511525D01*
X150346938Y-68512658D01*
X150346936Y-68512658D01*
X150274008Y-68532609D01*
X150086928Y-68583788D01*
X150082980Y-68585472D01*
X149838982Y-68689546D01*
X149838978Y-68689548D01*
X149835030Y-68691232D01*
X149815125Y-68703145D01*
X149603725Y-68829664D01*
X149603721Y-68829667D01*
X149600043Y-68831868D01*
X149386318Y-69003094D01*
X149197808Y-69201742D01*
X149038002Y-69424136D01*
X148909857Y-69666161D01*
X148908385Y-69670184D01*
X148908383Y-69670188D01*
X148841699Y-69852410D01*
X148815743Y-69923337D01*
X148757404Y-70190907D01*
X148735917Y-70463918D01*
X137460756Y-70463918D01*
X137460465Y-70459648D01*
X137443859Y-70216055D01*
X137443858Y-70216049D01*
X137443567Y-70211778D01*
X137388032Y-69943612D01*
X137296617Y-69685465D01*
X137242733Y-69581067D01*
X137172978Y-69445919D01*
X137172978Y-69445918D01*
X137171013Y-69442112D01*
X137161040Y-69427921D01*
X137076981Y-69308317D01*
X137013545Y-69218057D01*
X136827125Y-69017445D01*
X136823810Y-69014731D01*
X136823806Y-69014728D01*
X136618523Y-68846706D01*
X136615205Y-68843990D01*
X136381704Y-68700901D01*
X136377768Y-68699173D01*
X136134873Y-68592549D01*
X136134869Y-68592548D01*
X136130945Y-68590825D01*
X135867566Y-68515800D01*
X135863324Y-68515196D01*
X135863318Y-68515195D01*
X135662834Y-68486662D01*
X135596443Y-68477213D01*
X135452589Y-68476460D01*
X135326877Y-68475802D01*
X135326871Y-68475802D01*
X135322591Y-68475780D01*
X135318347Y-68476339D01*
X135318343Y-68476339D01*
X135199302Y-68492011D01*
X135051078Y-68511525D01*
X135046938Y-68512658D01*
X135046936Y-68512658D01*
X134974008Y-68532609D01*
X134786928Y-68583788D01*
X134782980Y-68585472D01*
X134538982Y-68689546D01*
X134538978Y-68689548D01*
X134535030Y-68691232D01*
X134515125Y-68703145D01*
X134303725Y-68829664D01*
X134303721Y-68829667D01*
X134300043Y-68831868D01*
X134086318Y-69003094D01*
X133897808Y-69201742D01*
X133738002Y-69424136D01*
X133609857Y-69666161D01*
X133608385Y-69670184D01*
X133608383Y-69670188D01*
X133541699Y-69852410D01*
X133515743Y-69923337D01*
X133457404Y-70190907D01*
X133435917Y-70463918D01*
X122121739Y-70463918D01*
X122114658Y-70377793D01*
X122060237Y-70161134D01*
X121971160Y-69956272D01*
X121849820Y-69768709D01*
X121699476Y-69603483D01*
X121695425Y-69600284D01*
X121695421Y-69600280D01*
X121528220Y-69468232D01*
X121528216Y-69468230D01*
X121524165Y-69465030D01*
X121328595Y-69357070D01*
X121323726Y-69355346D01*
X121323722Y-69355344D01*
X121122893Y-69284227D01*
X121122889Y-69284226D01*
X121118018Y-69282501D01*
X121112925Y-69281594D01*
X121112922Y-69281593D01*
X120903179Y-69244232D01*
X120903173Y-69244231D01*
X120898090Y-69243326D01*
X120824258Y-69242424D01*
X120679887Y-69240660D01*
X120679885Y-69240660D01*
X120674717Y-69240597D01*
X120453897Y-69274387D01*
X120241562Y-69343789D01*
X120211249Y-69359569D01*
X120052686Y-69442112D01*
X120043413Y-69446939D01*
X120039280Y-69450042D01*
X120039277Y-69450044D01*
X119868906Y-69577962D01*
X119864771Y-69581067D01*
X119773587Y-69676486D01*
X119730833Y-69721225D01*
X119669309Y-69756655D01*
X119598396Y-69753198D01*
X119540610Y-69711952D01*
X119525639Y-69687626D01*
X119523671Y-69683426D01*
X119521356Y-69676486D01*
X119428284Y-69526084D01*
X119303109Y-69401127D01*
X119228836Y-69355344D01*
X119158774Y-69312157D01*
X119158772Y-69312156D01*
X119152544Y-69308317D01*
X118992060Y-69255087D01*
X118991195Y-69254800D01*
X118991193Y-69254800D01*
X118984667Y-69252635D01*
X118977831Y-69251935D01*
X118977828Y-69251934D01*
X118934775Y-69247523D01*
X118880206Y-69241932D01*
X117579406Y-69241932D01*
X117576160Y-69242269D01*
X117576156Y-69242269D01*
X117480498Y-69252194D01*
X117480494Y-69252195D01*
X117473640Y-69252906D01*
X117467104Y-69255087D01*
X117467102Y-69255087D01*
X117404437Y-69275994D01*
X117305860Y-69308882D01*
X117155458Y-69401954D01*
X117150285Y-69407136D01*
X117092492Y-69465030D01*
X117030501Y-69527129D01*
X117026661Y-69533359D01*
X117026660Y-69533360D01*
X116942272Y-69670263D01*
X116937691Y-69677694D01*
X116882009Y-69845571D01*
X116871306Y-69950032D01*
X116871306Y-71250832D01*
X113030000Y-71250832D01*
X113030000Y-61213000D01*
X113050002Y-61144879D01*
X113103658Y-61098386D01*
X113156000Y-61087000D01*
X154763673Y-61087000D01*
X154783058Y-61088500D01*
G37*
%TD.AperFunction*%
%TD*%
M02*
