%TF.GenerationSoftware,KiCad,Pcbnew,(6.0.6-0)*%
%TF.CreationDate,2022-09-02T19:29:54+01:00*%
%TF.ProjectId,4u-simple-integrator,34752d73-696d-4706-9c65-2d696e746567,r02*%
%TF.SameCoordinates,Original*%
%TF.FileFunction,Soldermask,Top*%
%TF.FilePolarity,Negative*%
%FSLAX46Y46*%
G04 Gerber Fmt 4.6, Leading zero omitted, Abs format (unit mm)*
G04 Created by KiCad (PCBNEW (6.0.6-0)) date 2022-09-02 19:29:54*
%MOMM*%
%LPD*%
G01*
G04 APERTURE LIST*
G04 Aperture macros list*
%AMRoundRect*
0 Rectangle with rounded corners*
0 $1 Rounding radius*
0 $2 $3 $4 $5 $6 $7 $8 $9 X,Y pos of 4 corners*
0 Add a 4 corners polygon primitive as box body*
4,1,4,$2,$3,$4,$5,$6,$7,$8,$9,$2,$3,0*
0 Add four circle primitives for the rounded corners*
1,1,$1+$1,$2,$3*
1,1,$1+$1,$4,$5*
1,1,$1+$1,$6,$7*
1,1,$1+$1,$8,$9*
0 Add four rect primitives between the rounded corners*
20,1,$1+$1,$2,$3,$4,$5,0*
20,1,$1+$1,$4,$5,$6,$7,0*
20,1,$1+$1,$6,$7,$8,$9,0*
20,1,$1+$1,$8,$9,$2,$3,0*%
G04 Aperture macros list end*
%ADD10C,1.600000*%
%ADD11C,0.500000*%
%ADD12R,1.700000X1.700000*%
%ADD13O,1.700000X1.700000*%
%ADD14R,2.200000X2.200000*%
%ADD15O,2.200000X2.200000*%
%ADD16O,1.600000X1.600000*%
%ADD17RoundRect,0.250000X-0.620000X-0.845000X0.620000X-0.845000X0.620000X0.845000X-0.620000X0.845000X0*%
%ADD18O,1.740000X2.190000*%
%ADD19C,6.400000*%
%ADD20R,1.600000X1.600000*%
%ADD21C,6.500000*%
%ADD22O,2.200000X2.900000*%
%ADD23R,1.800000X1.800000*%
%ADD24C,1.800000*%
G04 APERTURE END LIST*
D10*
%TO.C,C4*%
X130810000Y-119935000D03*
X130810000Y-114935000D03*
%TD*%
D11*
%TO.C,mouse-bite-2.54mm-slot*%
X119210000Y-165100000D03*
X117010000Y-164300000D03*
X117010000Y-165900000D03*
X117010000Y-165100000D03*
X119210000Y-164300000D03*
X119210000Y-165900000D03*
%TD*%
D12*
%TO.C,J7*%
X101600000Y-69850000D03*
D13*
X104140000Y-69850000D03*
X106680000Y-69850000D03*
X109220000Y-69850000D03*
%TD*%
D14*
%TO.C,D1*%
X121920000Y-53975000D03*
D15*
X121920000Y-43815000D03*
%TD*%
D10*
%TO.C,R8*%
X128905000Y-92329000D03*
D16*
X139065000Y-92329000D03*
%TD*%
D10*
%TO.C,R11*%
X126238000Y-125095000D03*
D16*
X126238000Y-114935000D03*
%TD*%
D17*
%TO.C,J11*%
X123825000Y-36214990D03*
D18*
X126365000Y-36214990D03*
X128905000Y-36214990D03*
X131445000Y-36214990D03*
%TD*%
D10*
%TO.C,C3*%
X130810000Y-100965000D03*
X130810000Y-95965000D03*
%TD*%
%TO.C,R5*%
X139065000Y-126238000D03*
D16*
X128905000Y-126238000D03*
%TD*%
D11*
%TO.C,mouse-bite-2.54mm-slot*%
X119210000Y-145250000D03*
X119210000Y-146850000D03*
X119210000Y-146050000D03*
X117010000Y-146850000D03*
X117010000Y-146050000D03*
X117010000Y-145250000D03*
%TD*%
D10*
%TO.C,R2*%
X139065000Y-132334000D03*
D16*
X128905000Y-132334000D03*
%TD*%
D12*
%TO.C,J8*%
X96520000Y-139065000D03*
D13*
X96520000Y-141605000D03*
X96520000Y-144145000D03*
X96520000Y-146685000D03*
%TD*%
D11*
%TO.C,mouse-bite-2.54mm-slot*%
X117010000Y-50000000D03*
X119210000Y-51600000D03*
X119210000Y-50000000D03*
X119210000Y-50800000D03*
X117010000Y-51600000D03*
X117010000Y-50800000D03*
%TD*%
%TO.C,mouse-bite-2.54mm-slot*%
X117010000Y-127000000D03*
X119210000Y-126200000D03*
X117010000Y-126200000D03*
X119210000Y-127800000D03*
X117010000Y-127800000D03*
X119210000Y-127000000D03*
%TD*%
D10*
%TO.C,R12*%
X126238000Y-90805000D03*
D16*
X126238000Y-100965000D03*
%TD*%
D10*
%TO.C,R4*%
X128905000Y-129286000D03*
D16*
X139065000Y-129286000D03*
%TD*%
D10*
%TO.C,R3*%
X128905000Y-86233000D03*
D16*
X139065000Y-86233000D03*
%TD*%
D10*
%TO.C,C1*%
X135890000Y-114935000D03*
X135890000Y-119935000D03*
%TD*%
D11*
%TO.C,mouse-bite-2.54mm-slot*%
X119210000Y-69850000D03*
X119210000Y-70650000D03*
X117010000Y-69850000D03*
X117010000Y-70650000D03*
X119210000Y-69050000D03*
X117010000Y-69050000D03*
%TD*%
D10*
%TO.C,R9*%
X123190000Y-125095000D03*
D16*
X123190000Y-114935000D03*
%TD*%
D10*
%TO.C,R1*%
X139065000Y-83185000D03*
D16*
X128905000Y-83185000D03*
%TD*%
D10*
%TO.C,R6*%
X139065000Y-89281000D03*
D16*
X128905000Y-89281000D03*
%TD*%
D11*
%TO.C,mouse-bite-2.54mm-slot*%
X117010000Y-108750000D03*
X119210000Y-107950000D03*
X119210000Y-107150000D03*
X117010000Y-107150000D03*
X117010000Y-107950000D03*
X119210000Y-108750000D03*
%TD*%
D19*
%TO.C,H1*%
X138430000Y-180340000D03*
%TD*%
D20*
%TO.C,C5*%
X126365000Y-46990000D03*
D10*
X128365000Y-46990000D03*
%TD*%
%TO.C,C2*%
X135890000Y-100965000D03*
X135890000Y-95965000D03*
%TD*%
D19*
%TO.C,H3*%
X113030000Y-180340000D03*
%TD*%
%TO.C,H4*%
X113030000Y-35560000D03*
%TD*%
D10*
%TO.C,R10*%
X123190000Y-90805000D03*
D16*
X123190000Y-100965000D03*
%TD*%
D20*
%TO.C,U1*%
X138435000Y-104150000D03*
D16*
X135895000Y-104150000D03*
X133355000Y-104150000D03*
X130815000Y-104150000D03*
X128275000Y-104150000D03*
X125735000Y-104150000D03*
X123195000Y-104150000D03*
X123195000Y-111770000D03*
X125735000Y-111770000D03*
X128275000Y-111770000D03*
X130815000Y-111770000D03*
X133355000Y-111770000D03*
X135895000Y-111770000D03*
X138435000Y-111770000D03*
%TD*%
D20*
%TO.C,C6*%
X133255000Y-46990000D03*
D10*
X135255000Y-46990000D03*
%TD*%
%TO.C,R7*%
X128905000Y-123190000D03*
D16*
X139065000Y-123190000D03*
%TD*%
D14*
%TO.C,D2*%
X139700000Y-43815000D03*
D15*
X139700000Y-53975000D03*
%TD*%
D11*
%TO.C,mouse-bite-2.54mm-slot*%
X117010000Y-88900000D03*
X117010000Y-88100000D03*
X119210000Y-88900000D03*
X119210000Y-89700000D03*
X119210000Y-88100000D03*
X117010000Y-89700000D03*
%TD*%
D19*
%TO.C,H2*%
X138430000Y-35560000D03*
%TD*%
D21*
%TO.C,J1*%
X105410000Y-98425000D03*
D10*
X102362000Y-95377000D03*
%TD*%
D21*
%TO.C,J4*%
X105410000Y-41275000D03*
D10*
X108458000Y-44323000D03*
%TD*%
D21*
%TO.C,J3*%
X105410000Y-60325000D03*
D10*
X102362000Y-63373000D03*
%TD*%
D12*
%TO.C,J10*%
X121920000Y-139065000D03*
D13*
X121920000Y-141605000D03*
X121920000Y-144145000D03*
X121920000Y-146685000D03*
%TD*%
D22*
%TO.C,RV2*%
X110210000Y-155575000D03*
X100610000Y-155575000D03*
D23*
X107910000Y-163075000D03*
D24*
X105410000Y-163075000D03*
X102910000Y-163075000D03*
%TD*%
D22*
%TO.C,RV1*%
X100610000Y-79375000D03*
X110210000Y-79375000D03*
D23*
X107910000Y-86875000D03*
D24*
X105410000Y-86875000D03*
X102910000Y-86875000D03*
%TD*%
D12*
%TO.C,J9*%
X127000000Y-69850000D03*
D13*
X129540000Y-69850000D03*
X132080000Y-69850000D03*
X134620000Y-69850000D03*
%TD*%
D10*
%TO.C,J5*%
X102362000Y-139573000D03*
D21*
X105410000Y-136525000D03*
%TD*%
D10*
%TO.C,J6*%
X102362000Y-120523000D03*
D21*
X105410000Y-117475000D03*
%TD*%
%TO.C,J2*%
X105410000Y-174625000D03*
D10*
X102362000Y-171577000D03*
%TD*%
M02*
