%TF.GenerationSoftware,KiCad,Pcbnew,(6.0.6-0)*%
%TF.CreationDate,2022-09-02T19:29:53+01:00*%
%TF.ProjectId,4u-simple-integrator,34752d73-696d-4706-9c65-2d696e746567,r02*%
%TF.SameCoordinates,Original*%
%TF.FileFunction,Legend,Top*%
%TF.FilePolarity,Positive*%
%FSLAX46Y46*%
G04 Gerber Fmt 4.6, Leading zero omitted, Abs format (unit mm)*
G04 Created by KiCad (PCBNEW (6.0.6-0)) date 2022-09-02 19:29:53*
%MOMM*%
%LPD*%
G01*
G04 APERTURE LIST*
%ADD10C,0.150000*%
%ADD11C,0.120000*%
G04 APERTURE END LIST*
D10*
X123794047Y-169144761D02*
X123936904Y-169192380D01*
X124175000Y-169192380D01*
X124270238Y-169144761D01*
X124317857Y-169097142D01*
X124365476Y-169001904D01*
X124365476Y-168906666D01*
X124317857Y-168811428D01*
X124270238Y-168763809D01*
X124175000Y-168716190D01*
X123984523Y-168668571D01*
X123889285Y-168620952D01*
X123841666Y-168573333D01*
X123794047Y-168478095D01*
X123794047Y-168382857D01*
X123841666Y-168287619D01*
X123889285Y-168240000D01*
X123984523Y-168192380D01*
X124222619Y-168192380D01*
X124365476Y-168240000D01*
X124794047Y-169192380D02*
X124794047Y-168525714D01*
X124794047Y-168192380D02*
X124746428Y-168240000D01*
X124794047Y-168287619D01*
X124841666Y-168240000D01*
X124794047Y-168192380D01*
X124794047Y-168287619D01*
X125270238Y-169192380D02*
X125270238Y-168525714D01*
X125270238Y-168620952D02*
X125317857Y-168573333D01*
X125413095Y-168525714D01*
X125555952Y-168525714D01*
X125651190Y-168573333D01*
X125698809Y-168668571D01*
X125698809Y-169192380D01*
X125698809Y-168668571D02*
X125746428Y-168573333D01*
X125841666Y-168525714D01*
X125984523Y-168525714D01*
X126079761Y-168573333D01*
X126127380Y-168668571D01*
X126127380Y-169192380D01*
X126603571Y-168525714D02*
X126603571Y-169525714D01*
X126603571Y-168573333D02*
X126698809Y-168525714D01*
X126889285Y-168525714D01*
X126984523Y-168573333D01*
X127032142Y-168620952D01*
X127079761Y-168716190D01*
X127079761Y-169001904D01*
X127032142Y-169097142D01*
X126984523Y-169144761D01*
X126889285Y-169192380D01*
X126698809Y-169192380D01*
X126603571Y-169144761D01*
X127651190Y-169192380D02*
X127555952Y-169144761D01*
X127508333Y-169049523D01*
X127508333Y-168192380D01*
X128413095Y-169144761D02*
X128317857Y-169192380D01*
X128127380Y-169192380D01*
X128032142Y-169144761D01*
X127984523Y-169049523D01*
X127984523Y-168668571D01*
X128032142Y-168573333D01*
X128127380Y-168525714D01*
X128317857Y-168525714D01*
X128413095Y-168573333D01*
X128460714Y-168668571D01*
X128460714Y-168763809D01*
X127984523Y-168859047D01*
X129651190Y-169192380D02*
X129651190Y-168192380D01*
X130127380Y-168525714D02*
X130127380Y-169192380D01*
X130127380Y-168620952D02*
X130175000Y-168573333D01*
X130270238Y-168525714D01*
X130413095Y-168525714D01*
X130508333Y-168573333D01*
X130555952Y-168668571D01*
X130555952Y-169192380D01*
X130889285Y-168525714D02*
X131270238Y-168525714D01*
X131032142Y-168192380D02*
X131032142Y-169049523D01*
X131079761Y-169144761D01*
X131175000Y-169192380D01*
X131270238Y-169192380D01*
X131984523Y-169144761D02*
X131889285Y-169192380D01*
X131698809Y-169192380D01*
X131603571Y-169144761D01*
X131555952Y-169049523D01*
X131555952Y-168668571D01*
X131603571Y-168573333D01*
X131698809Y-168525714D01*
X131889285Y-168525714D01*
X131984523Y-168573333D01*
X132032142Y-168668571D01*
X132032142Y-168763809D01*
X131555952Y-168859047D01*
X132889285Y-168525714D02*
X132889285Y-169335238D01*
X132841666Y-169430476D01*
X132794047Y-169478095D01*
X132698809Y-169525714D01*
X132555952Y-169525714D01*
X132460714Y-169478095D01*
X132889285Y-169144761D02*
X132794047Y-169192380D01*
X132603571Y-169192380D01*
X132508333Y-169144761D01*
X132460714Y-169097142D01*
X132413095Y-169001904D01*
X132413095Y-168716190D01*
X132460714Y-168620952D01*
X132508333Y-168573333D01*
X132603571Y-168525714D01*
X132794047Y-168525714D01*
X132889285Y-168573333D01*
X133365476Y-169192380D02*
X133365476Y-168525714D01*
X133365476Y-168716190D02*
X133413095Y-168620952D01*
X133460714Y-168573333D01*
X133555952Y-168525714D01*
X133651190Y-168525714D01*
X134413095Y-169192380D02*
X134413095Y-168668571D01*
X134365476Y-168573333D01*
X134270238Y-168525714D01*
X134079761Y-168525714D01*
X133984523Y-168573333D01*
X134413095Y-169144761D02*
X134317857Y-169192380D01*
X134079761Y-169192380D01*
X133984523Y-169144761D01*
X133936904Y-169049523D01*
X133936904Y-168954285D01*
X133984523Y-168859047D01*
X134079761Y-168811428D01*
X134317857Y-168811428D01*
X134413095Y-168763809D01*
X134746428Y-168525714D02*
X135127380Y-168525714D01*
X134889285Y-168192380D02*
X134889285Y-169049523D01*
X134936904Y-169144761D01*
X135032142Y-169192380D01*
X135127380Y-169192380D01*
X135603571Y-169192380D02*
X135508333Y-169144761D01*
X135460714Y-169097142D01*
X135413095Y-169001904D01*
X135413095Y-168716190D01*
X135460714Y-168620952D01*
X135508333Y-168573333D01*
X135603571Y-168525714D01*
X135746428Y-168525714D01*
X135841666Y-168573333D01*
X135889285Y-168620952D01*
X135936904Y-168716190D01*
X135936904Y-169001904D01*
X135889285Y-169097142D01*
X135841666Y-169144761D01*
X135746428Y-169192380D01*
X135603571Y-169192380D01*
X136365476Y-169192380D02*
X136365476Y-168525714D01*
X136365476Y-168716190D02*
X136413095Y-168620952D01*
X136460714Y-168573333D01*
X136555952Y-168525714D01*
X136651190Y-168525714D01*
X129151190Y-170802380D02*
X129151190Y-170135714D01*
X129151190Y-170326190D02*
X129198809Y-170230952D01*
X129246428Y-170183333D01*
X129341666Y-170135714D01*
X129436904Y-170135714D01*
X129960714Y-169802380D02*
X130055952Y-169802380D01*
X130151190Y-169850000D01*
X130198809Y-169897619D01*
X130246428Y-169992857D01*
X130294047Y-170183333D01*
X130294047Y-170421428D01*
X130246428Y-170611904D01*
X130198809Y-170707142D01*
X130151190Y-170754761D01*
X130055952Y-170802380D01*
X129960714Y-170802380D01*
X129865476Y-170754761D01*
X129817857Y-170707142D01*
X129770238Y-170611904D01*
X129722619Y-170421428D01*
X129722619Y-170183333D01*
X129770238Y-169992857D01*
X129817857Y-169897619D01*
X129865476Y-169850000D01*
X129960714Y-169802380D01*
X130675000Y-169897619D02*
X130722619Y-169850000D01*
X130817857Y-169802380D01*
X131055952Y-169802380D01*
X131151190Y-169850000D01*
X131198809Y-169897619D01*
X131246428Y-169992857D01*
X131246428Y-170088095D01*
X131198809Y-170230952D01*
X130627380Y-170802380D01*
X131246428Y-170802380D01*
%TO.C,C4*%
X131167142Y-117601666D02*
X131214761Y-117649285D01*
X131262380Y-117792142D01*
X131262380Y-117887380D01*
X131214761Y-118030238D01*
X131119523Y-118125476D01*
X131024285Y-118173095D01*
X130833809Y-118220714D01*
X130690952Y-118220714D01*
X130500476Y-118173095D01*
X130405238Y-118125476D01*
X130310000Y-118030238D01*
X130262380Y-117887380D01*
X130262380Y-117792142D01*
X130310000Y-117649285D01*
X130357619Y-117601666D01*
X130595714Y-116744523D02*
X131262380Y-116744523D01*
X130214761Y-116982619D02*
X130929047Y-117220714D01*
X130929047Y-116601666D01*
%TO.C,J7*%
X98512380Y-70183333D02*
X99226666Y-70183333D01*
X99369523Y-70230952D01*
X99464761Y-70326190D01*
X99512380Y-70469047D01*
X99512380Y-70564285D01*
X98512380Y-69802380D02*
X98512380Y-69135714D01*
X99512380Y-69564285D01*
%TO.C,D1*%
X122372380Y-49201295D02*
X121372380Y-49201295D01*
X121372380Y-48963200D01*
X121420000Y-48820342D01*
X121515238Y-48725104D01*
X121610476Y-48677485D01*
X121800952Y-48629866D01*
X121943809Y-48629866D01*
X122134285Y-48677485D01*
X122229523Y-48725104D01*
X122324761Y-48820342D01*
X122372380Y-48963200D01*
X122372380Y-49201295D01*
X122372380Y-47677485D02*
X122372380Y-48248914D01*
X122372380Y-47963200D02*
X121372380Y-47963200D01*
X121515238Y-48058438D01*
X121610476Y-48153676D01*
X121658095Y-48248914D01*
%TO.C,R8*%
X133818333Y-92781380D02*
X133485000Y-92305190D01*
X133246904Y-92781380D02*
X133246904Y-91781380D01*
X133627857Y-91781380D01*
X133723095Y-91829000D01*
X133770714Y-91876619D01*
X133818333Y-91971857D01*
X133818333Y-92114714D01*
X133770714Y-92209952D01*
X133723095Y-92257571D01*
X133627857Y-92305190D01*
X133246904Y-92305190D01*
X134389761Y-92209952D02*
X134294523Y-92162333D01*
X134246904Y-92114714D01*
X134199285Y-92019476D01*
X134199285Y-91971857D01*
X134246904Y-91876619D01*
X134294523Y-91829000D01*
X134389761Y-91781380D01*
X134580238Y-91781380D01*
X134675476Y-91829000D01*
X134723095Y-91876619D01*
X134770714Y-91971857D01*
X134770714Y-92019476D01*
X134723095Y-92114714D01*
X134675476Y-92162333D01*
X134580238Y-92209952D01*
X134389761Y-92209952D01*
X134294523Y-92257571D01*
X134246904Y-92305190D01*
X134199285Y-92400428D01*
X134199285Y-92590904D01*
X134246904Y-92686142D01*
X134294523Y-92733761D01*
X134389761Y-92781380D01*
X134580238Y-92781380D01*
X134675476Y-92733761D01*
X134723095Y-92686142D01*
X134770714Y-92590904D01*
X134770714Y-92400428D01*
X134723095Y-92305190D01*
X134675476Y-92257571D01*
X134580238Y-92209952D01*
%TO.C,R11*%
X126690380Y-120657857D02*
X126214190Y-120991190D01*
X126690380Y-121229285D02*
X125690380Y-121229285D01*
X125690380Y-120848333D01*
X125738000Y-120753095D01*
X125785619Y-120705476D01*
X125880857Y-120657857D01*
X126023714Y-120657857D01*
X126118952Y-120705476D01*
X126166571Y-120753095D01*
X126214190Y-120848333D01*
X126214190Y-121229285D01*
X126690380Y-119705476D02*
X126690380Y-120276904D01*
X126690380Y-119991190D02*
X125690380Y-119991190D01*
X125833238Y-120086428D01*
X125928476Y-120181666D01*
X125976095Y-120276904D01*
X126690380Y-118753095D02*
X126690380Y-119324523D01*
X126690380Y-119038809D02*
X125690380Y-119038809D01*
X125833238Y-119134047D01*
X125928476Y-119229285D01*
X125976095Y-119324523D01*
%TO.C,J11*%
X122872619Y-40112370D02*
X123205952Y-41112370D01*
X123539285Y-40112370D01*
X123872619Y-40731418D02*
X124634523Y-40731418D01*
X124253571Y-41112370D02*
X124253571Y-40350466D01*
X130492619Y-40112370D02*
X130825952Y-41112370D01*
X131159285Y-40112370D01*
X131492619Y-40731418D02*
X132254523Y-40731418D01*
%TO.C,C3*%
X131167142Y-98631666D02*
X131214761Y-98679285D01*
X131262380Y-98822142D01*
X131262380Y-98917380D01*
X131214761Y-99060238D01*
X131119523Y-99155476D01*
X131024285Y-99203095D01*
X130833809Y-99250714D01*
X130690952Y-99250714D01*
X130500476Y-99203095D01*
X130405238Y-99155476D01*
X130310000Y-99060238D01*
X130262380Y-98917380D01*
X130262380Y-98822142D01*
X130310000Y-98679285D01*
X130357619Y-98631666D01*
X130262380Y-98298333D02*
X130262380Y-97679285D01*
X130643333Y-98012619D01*
X130643333Y-97869761D01*
X130690952Y-97774523D01*
X130738571Y-97726904D01*
X130833809Y-97679285D01*
X131071904Y-97679285D01*
X131167142Y-97726904D01*
X131214761Y-97774523D01*
X131262380Y-97869761D01*
X131262380Y-98155476D01*
X131214761Y-98250714D01*
X131167142Y-98298333D01*
%TO.C,R5*%
X133818333Y-126690380D02*
X133485000Y-126214190D01*
X133246904Y-126690380D02*
X133246904Y-125690380D01*
X133627857Y-125690380D01*
X133723095Y-125738000D01*
X133770714Y-125785619D01*
X133818333Y-125880857D01*
X133818333Y-126023714D01*
X133770714Y-126118952D01*
X133723095Y-126166571D01*
X133627857Y-126214190D01*
X133246904Y-126214190D01*
X134723095Y-125690380D02*
X134246904Y-125690380D01*
X134199285Y-126166571D01*
X134246904Y-126118952D01*
X134342142Y-126071333D01*
X134580238Y-126071333D01*
X134675476Y-126118952D01*
X134723095Y-126166571D01*
X134770714Y-126261809D01*
X134770714Y-126499904D01*
X134723095Y-126595142D01*
X134675476Y-126642761D01*
X134580238Y-126690380D01*
X134342142Y-126690380D01*
X134246904Y-126642761D01*
X134199285Y-126595142D01*
%TO.C,R2*%
X133818333Y-132786380D02*
X133485000Y-132310190D01*
X133246904Y-132786380D02*
X133246904Y-131786380D01*
X133627857Y-131786380D01*
X133723095Y-131834000D01*
X133770714Y-131881619D01*
X133818333Y-131976857D01*
X133818333Y-132119714D01*
X133770714Y-132214952D01*
X133723095Y-132262571D01*
X133627857Y-132310190D01*
X133246904Y-132310190D01*
X134199285Y-131881619D02*
X134246904Y-131834000D01*
X134342142Y-131786380D01*
X134580238Y-131786380D01*
X134675476Y-131834000D01*
X134723095Y-131881619D01*
X134770714Y-131976857D01*
X134770714Y-132072095D01*
X134723095Y-132214952D01*
X134151666Y-132786380D01*
X134770714Y-132786380D01*
%TO.C,J8*%
X96186666Y-135977380D02*
X96186666Y-136691666D01*
X96139047Y-136834523D01*
X96043809Y-136929761D01*
X95900952Y-136977380D01*
X95805714Y-136977380D01*
X96805714Y-136405952D02*
X96710476Y-136358333D01*
X96662857Y-136310714D01*
X96615238Y-136215476D01*
X96615238Y-136167857D01*
X96662857Y-136072619D01*
X96710476Y-136025000D01*
X96805714Y-135977380D01*
X96996190Y-135977380D01*
X97091428Y-136025000D01*
X97139047Y-136072619D01*
X97186666Y-136167857D01*
X97186666Y-136215476D01*
X97139047Y-136310714D01*
X97091428Y-136358333D01*
X96996190Y-136405952D01*
X96805714Y-136405952D01*
X96710476Y-136453571D01*
X96662857Y-136501190D01*
X96615238Y-136596428D01*
X96615238Y-136786904D01*
X96662857Y-136882142D01*
X96710476Y-136929761D01*
X96805714Y-136977380D01*
X96996190Y-136977380D01*
X97091428Y-136929761D01*
X97139047Y-136882142D01*
X97186666Y-136786904D01*
X97186666Y-136596428D01*
X97139047Y-136501190D01*
X97091428Y-136453571D01*
X96996190Y-136405952D01*
%TO.C,R12*%
X126690380Y-96527857D02*
X126214190Y-96861190D01*
X126690380Y-97099285D02*
X125690380Y-97099285D01*
X125690380Y-96718333D01*
X125738000Y-96623095D01*
X125785619Y-96575476D01*
X125880857Y-96527857D01*
X126023714Y-96527857D01*
X126118952Y-96575476D01*
X126166571Y-96623095D01*
X126214190Y-96718333D01*
X126214190Y-97099285D01*
X126690380Y-95575476D02*
X126690380Y-96146904D01*
X126690380Y-95861190D02*
X125690380Y-95861190D01*
X125833238Y-95956428D01*
X125928476Y-96051666D01*
X125976095Y-96146904D01*
X125785619Y-95194523D02*
X125738000Y-95146904D01*
X125690380Y-95051666D01*
X125690380Y-94813571D01*
X125738000Y-94718333D01*
X125785619Y-94670714D01*
X125880857Y-94623095D01*
X125976095Y-94623095D01*
X126118952Y-94670714D01*
X126690380Y-95242142D01*
X126690380Y-94623095D01*
%TO.C,R4*%
X133818333Y-129738380D02*
X133485000Y-129262190D01*
X133246904Y-129738380D02*
X133246904Y-128738380D01*
X133627857Y-128738380D01*
X133723095Y-128786000D01*
X133770714Y-128833619D01*
X133818333Y-128928857D01*
X133818333Y-129071714D01*
X133770714Y-129166952D01*
X133723095Y-129214571D01*
X133627857Y-129262190D01*
X133246904Y-129262190D01*
X134675476Y-129071714D02*
X134675476Y-129738380D01*
X134437380Y-128690761D02*
X134199285Y-129405047D01*
X134818333Y-129405047D01*
%TO.C,R3*%
X133818333Y-86685380D02*
X133485000Y-86209190D01*
X133246904Y-86685380D02*
X133246904Y-85685380D01*
X133627857Y-85685380D01*
X133723095Y-85733000D01*
X133770714Y-85780619D01*
X133818333Y-85875857D01*
X133818333Y-86018714D01*
X133770714Y-86113952D01*
X133723095Y-86161571D01*
X133627857Y-86209190D01*
X133246904Y-86209190D01*
X134151666Y-85685380D02*
X134770714Y-85685380D01*
X134437380Y-86066333D01*
X134580238Y-86066333D01*
X134675476Y-86113952D01*
X134723095Y-86161571D01*
X134770714Y-86256809D01*
X134770714Y-86494904D01*
X134723095Y-86590142D01*
X134675476Y-86637761D01*
X134580238Y-86685380D01*
X134294523Y-86685380D01*
X134199285Y-86637761D01*
X134151666Y-86590142D01*
%TO.C,C1*%
X136247142Y-117601666D02*
X136294761Y-117649285D01*
X136342380Y-117792142D01*
X136342380Y-117887380D01*
X136294761Y-118030238D01*
X136199523Y-118125476D01*
X136104285Y-118173095D01*
X135913809Y-118220714D01*
X135770952Y-118220714D01*
X135580476Y-118173095D01*
X135485238Y-118125476D01*
X135390000Y-118030238D01*
X135342380Y-117887380D01*
X135342380Y-117792142D01*
X135390000Y-117649285D01*
X135437619Y-117601666D01*
X136342380Y-116649285D02*
X136342380Y-117220714D01*
X136342380Y-116935000D02*
X135342380Y-116935000D01*
X135485238Y-117030238D01*
X135580476Y-117125476D01*
X135628095Y-117220714D01*
%TO.C,R9*%
X123642380Y-120181666D02*
X123166190Y-120515000D01*
X123642380Y-120753095D02*
X122642380Y-120753095D01*
X122642380Y-120372142D01*
X122690000Y-120276904D01*
X122737619Y-120229285D01*
X122832857Y-120181666D01*
X122975714Y-120181666D01*
X123070952Y-120229285D01*
X123118571Y-120276904D01*
X123166190Y-120372142D01*
X123166190Y-120753095D01*
X123642380Y-119705476D02*
X123642380Y-119515000D01*
X123594761Y-119419761D01*
X123547142Y-119372142D01*
X123404285Y-119276904D01*
X123213809Y-119229285D01*
X122832857Y-119229285D01*
X122737619Y-119276904D01*
X122690000Y-119324523D01*
X122642380Y-119419761D01*
X122642380Y-119610238D01*
X122690000Y-119705476D01*
X122737619Y-119753095D01*
X122832857Y-119800714D01*
X123070952Y-119800714D01*
X123166190Y-119753095D01*
X123213809Y-119705476D01*
X123261428Y-119610238D01*
X123261428Y-119419761D01*
X123213809Y-119324523D01*
X123166190Y-119276904D01*
X123070952Y-119229285D01*
%TO.C,R1*%
X133818333Y-83637380D02*
X133485000Y-83161190D01*
X133246904Y-83637380D02*
X133246904Y-82637380D01*
X133627857Y-82637380D01*
X133723095Y-82685000D01*
X133770714Y-82732619D01*
X133818333Y-82827857D01*
X133818333Y-82970714D01*
X133770714Y-83065952D01*
X133723095Y-83113571D01*
X133627857Y-83161190D01*
X133246904Y-83161190D01*
X134770714Y-83637380D02*
X134199285Y-83637380D01*
X134485000Y-83637380D02*
X134485000Y-82637380D01*
X134389761Y-82780238D01*
X134294523Y-82875476D01*
X134199285Y-82923095D01*
%TO.C,R6*%
X133818333Y-89733380D02*
X133485000Y-89257190D01*
X133246904Y-89733380D02*
X133246904Y-88733380D01*
X133627857Y-88733380D01*
X133723095Y-88781000D01*
X133770714Y-88828619D01*
X133818333Y-88923857D01*
X133818333Y-89066714D01*
X133770714Y-89161952D01*
X133723095Y-89209571D01*
X133627857Y-89257190D01*
X133246904Y-89257190D01*
X134675476Y-88733380D02*
X134485000Y-88733380D01*
X134389761Y-88781000D01*
X134342142Y-88828619D01*
X134246904Y-88971476D01*
X134199285Y-89161952D01*
X134199285Y-89542904D01*
X134246904Y-89638142D01*
X134294523Y-89685761D01*
X134389761Y-89733380D01*
X134580238Y-89733380D01*
X134675476Y-89685761D01*
X134723095Y-89638142D01*
X134770714Y-89542904D01*
X134770714Y-89304809D01*
X134723095Y-89209571D01*
X134675476Y-89161952D01*
X134580238Y-89114333D01*
X134389761Y-89114333D01*
X134294523Y-89161952D01*
X134246904Y-89209571D01*
X134199285Y-89304809D01*
%TO.C,C5*%
X127198333Y-43597142D02*
X127150714Y-43644761D01*
X127007857Y-43692380D01*
X126912619Y-43692380D01*
X126769761Y-43644761D01*
X126674523Y-43549523D01*
X126626904Y-43454285D01*
X126579285Y-43263809D01*
X126579285Y-43120952D01*
X126626904Y-42930476D01*
X126674523Y-42835238D01*
X126769761Y-42740000D01*
X126912619Y-42692380D01*
X127007857Y-42692380D01*
X127150714Y-42740000D01*
X127198333Y-42787619D01*
X128103095Y-42692380D02*
X127626904Y-42692380D01*
X127579285Y-43168571D01*
X127626904Y-43120952D01*
X127722142Y-43073333D01*
X127960238Y-43073333D01*
X128055476Y-43120952D01*
X128103095Y-43168571D01*
X128150714Y-43263809D01*
X128150714Y-43501904D01*
X128103095Y-43597142D01*
X128055476Y-43644761D01*
X127960238Y-43692380D01*
X127722142Y-43692380D01*
X127626904Y-43644761D01*
X127579285Y-43597142D01*
%TO.C,C2*%
X136247142Y-98631666D02*
X136294761Y-98679285D01*
X136342380Y-98822142D01*
X136342380Y-98917380D01*
X136294761Y-99060238D01*
X136199523Y-99155476D01*
X136104285Y-99203095D01*
X135913809Y-99250714D01*
X135770952Y-99250714D01*
X135580476Y-99203095D01*
X135485238Y-99155476D01*
X135390000Y-99060238D01*
X135342380Y-98917380D01*
X135342380Y-98822142D01*
X135390000Y-98679285D01*
X135437619Y-98631666D01*
X135437619Y-98250714D02*
X135390000Y-98203095D01*
X135342380Y-98107857D01*
X135342380Y-97869761D01*
X135390000Y-97774523D01*
X135437619Y-97726904D01*
X135532857Y-97679285D01*
X135628095Y-97679285D01*
X135770952Y-97726904D01*
X136342380Y-98298333D01*
X136342380Y-97679285D01*
%TO.C,R10*%
X123642380Y-96527857D02*
X123166190Y-96861190D01*
X123642380Y-97099285D02*
X122642380Y-97099285D01*
X122642380Y-96718333D01*
X122690000Y-96623095D01*
X122737619Y-96575476D01*
X122832857Y-96527857D01*
X122975714Y-96527857D01*
X123070952Y-96575476D01*
X123118571Y-96623095D01*
X123166190Y-96718333D01*
X123166190Y-97099285D01*
X123642380Y-95575476D02*
X123642380Y-96146904D01*
X123642380Y-95861190D02*
X122642380Y-95861190D01*
X122785238Y-95956428D01*
X122880476Y-96051666D01*
X122928095Y-96146904D01*
X122642380Y-94956428D02*
X122642380Y-94861190D01*
X122690000Y-94765952D01*
X122737619Y-94718333D01*
X122832857Y-94670714D01*
X123023333Y-94623095D01*
X123261428Y-94623095D01*
X123451904Y-94670714D01*
X123547142Y-94718333D01*
X123594761Y-94765952D01*
X123642380Y-94861190D01*
X123642380Y-94956428D01*
X123594761Y-95051666D01*
X123547142Y-95099285D01*
X123451904Y-95146904D01*
X123261428Y-95194523D01*
X123023333Y-95194523D01*
X122832857Y-95146904D01*
X122737619Y-95099285D01*
X122690000Y-95051666D01*
X122642380Y-94956428D01*
%TO.C,U1*%
X130262380Y-108721904D02*
X131071904Y-108721904D01*
X131167142Y-108674285D01*
X131214761Y-108626666D01*
X131262380Y-108531428D01*
X131262380Y-108340952D01*
X131214761Y-108245714D01*
X131167142Y-108198095D01*
X131071904Y-108150476D01*
X130262380Y-108150476D01*
X131262380Y-107150476D02*
X131262380Y-107721904D01*
X131262380Y-107436190D02*
X130262380Y-107436190D01*
X130405238Y-107531428D01*
X130500476Y-107626666D01*
X130548095Y-107721904D01*
%TO.C,C6*%
X134088333Y-43597142D02*
X134040714Y-43644761D01*
X133897857Y-43692380D01*
X133802619Y-43692380D01*
X133659761Y-43644761D01*
X133564523Y-43549523D01*
X133516904Y-43454285D01*
X133469285Y-43263809D01*
X133469285Y-43120952D01*
X133516904Y-42930476D01*
X133564523Y-42835238D01*
X133659761Y-42740000D01*
X133802619Y-42692380D01*
X133897857Y-42692380D01*
X134040714Y-42740000D01*
X134088333Y-42787619D01*
X134945476Y-42692380D02*
X134755000Y-42692380D01*
X134659761Y-42740000D01*
X134612142Y-42787619D01*
X134516904Y-42930476D01*
X134469285Y-43120952D01*
X134469285Y-43501904D01*
X134516904Y-43597142D01*
X134564523Y-43644761D01*
X134659761Y-43692380D01*
X134850238Y-43692380D01*
X134945476Y-43644761D01*
X134993095Y-43597142D01*
X135040714Y-43501904D01*
X135040714Y-43263809D01*
X134993095Y-43168571D01*
X134945476Y-43120952D01*
X134850238Y-43073333D01*
X134659761Y-43073333D01*
X134564523Y-43120952D01*
X134516904Y-43168571D01*
X134469285Y-43263809D01*
%TO.C,R7*%
X133818333Y-123642380D02*
X133485000Y-123166190D01*
X133246904Y-123642380D02*
X133246904Y-122642380D01*
X133627857Y-122642380D01*
X133723095Y-122690000D01*
X133770714Y-122737619D01*
X133818333Y-122832857D01*
X133818333Y-122975714D01*
X133770714Y-123070952D01*
X133723095Y-123118571D01*
X133627857Y-123166190D01*
X133246904Y-123166190D01*
X134151666Y-122642380D02*
X134818333Y-122642380D01*
X134389761Y-123642380D01*
%TO.C,D2*%
X140152380Y-50064895D02*
X139152380Y-50064895D01*
X139152380Y-49826800D01*
X139200000Y-49683942D01*
X139295238Y-49588704D01*
X139390476Y-49541085D01*
X139580952Y-49493466D01*
X139723809Y-49493466D01*
X139914285Y-49541085D01*
X140009523Y-49588704D01*
X140104761Y-49683942D01*
X140152380Y-49826800D01*
X140152380Y-50064895D01*
X139247619Y-49112514D02*
X139200000Y-49064895D01*
X139152380Y-48969657D01*
X139152380Y-48731561D01*
X139200000Y-48636323D01*
X139247619Y-48588704D01*
X139342857Y-48541085D01*
X139438095Y-48541085D01*
X139580952Y-48588704D01*
X140152380Y-49160133D01*
X140152380Y-48541085D01*
D11*
%TO.C,C4*%
X132680000Y-121055000D02*
X132680000Y-113815000D01*
X128940000Y-121055000D02*
X128940000Y-113815000D01*
X128940000Y-121055000D02*
X132680000Y-121055000D01*
X128940000Y-113815000D02*
X132680000Y-113815000D01*
%TO.C,J7*%
X102870000Y-68520000D02*
X110550000Y-68520000D01*
X102870000Y-71180000D02*
X110550000Y-71180000D01*
X102870000Y-71180000D02*
X102870000Y-68520000D01*
X110550000Y-71180000D02*
X110550000Y-68520000D01*
X100270000Y-69850000D02*
X100270000Y-68520000D01*
X100270000Y-68520000D02*
X101600000Y-68520000D01*
%TO.C,D1*%
X121920000Y-52635000D02*
X121920000Y-51615000D01*
X121920000Y-45155000D02*
X121920000Y-46175000D01*
X120450000Y-46175000D02*
X120450000Y-51615000D01*
X120450000Y-51615000D02*
X123390000Y-51615000D01*
X123390000Y-46175000D02*
X120450000Y-46175000D01*
X123390000Y-51615000D02*
X123390000Y-46175000D01*
X120450000Y-50715000D02*
X123390000Y-50715000D01*
X120450000Y-50595000D02*
X123390000Y-50595000D01*
X120450000Y-50835000D02*
X123390000Y-50835000D01*
%TO.C,R8*%
X130715000Y-90959000D02*
X130715000Y-93699000D01*
X130715000Y-93699000D02*
X137255000Y-93699000D01*
X129945000Y-92329000D02*
X130715000Y-92329000D01*
X138025000Y-92329000D02*
X137255000Y-92329000D01*
X137255000Y-90959000D02*
X130715000Y-90959000D01*
X137255000Y-93699000D02*
X137255000Y-90959000D01*
%TO.C,R11*%
X124868000Y-116745000D02*
X124868000Y-123285000D01*
X126238000Y-124055000D02*
X126238000Y-123285000D01*
X127608000Y-123285000D02*
X127608000Y-116745000D01*
X126238000Y-115975000D02*
X126238000Y-116745000D01*
X127608000Y-116745000D02*
X124868000Y-116745000D01*
X124868000Y-123285000D02*
X127608000Y-123285000D01*
%TO.C,J11*%
X132825000Y-39204990D02*
X132825000Y-33184990D01*
X129705000Y-33784990D02*
X129705000Y-33184990D01*
X125565000Y-33784990D02*
X127165000Y-33784990D01*
X128105000Y-33784990D02*
X129705000Y-33784990D01*
X124075000Y-37674990D02*
X131195000Y-37674990D01*
X124075000Y-39204990D02*
X124075000Y-38204990D01*
X122445000Y-39204990D02*
X132825000Y-39204990D01*
X127165000Y-33784990D02*
X127165000Y-33184990D01*
X130645000Y-33184990D02*
X130645000Y-33784990D01*
X123025000Y-33184990D02*
X123025000Y-33784990D01*
X132825000Y-33184990D02*
X122445000Y-33184990D01*
X130645000Y-33784990D02*
X132245000Y-33784990D01*
X123825000Y-38204990D02*
X124075000Y-37674990D01*
X123825000Y-39204990D02*
X123825000Y-38204990D01*
X125565000Y-33184990D02*
X125565000Y-33784990D01*
X131195000Y-39204990D02*
X131195000Y-38204990D01*
X122445000Y-33184990D02*
X122445000Y-39204990D01*
X122155000Y-34214990D02*
X122155000Y-38214990D01*
X123025000Y-33784990D02*
X124625000Y-33784990D01*
X128105000Y-33184990D02*
X128105000Y-33784990D01*
X132245000Y-33784990D02*
X132245000Y-33184990D01*
X131445000Y-38204990D02*
X131445000Y-39204990D01*
X124625000Y-33784990D02*
X124625000Y-33184990D01*
X131195000Y-37674990D02*
X131445000Y-38204990D01*
X123825000Y-38204990D02*
X131445000Y-38204990D01*
%TO.C,C3*%
X128940000Y-94845000D02*
X132680000Y-94845000D01*
X128940000Y-102085000D02*
X132680000Y-102085000D01*
X132680000Y-102085000D02*
X132680000Y-94845000D01*
X128940000Y-102085000D02*
X128940000Y-94845000D01*
%TO.C,R5*%
X138025000Y-126238000D02*
X137255000Y-126238000D01*
X130715000Y-127608000D02*
X137255000Y-127608000D01*
X129945000Y-126238000D02*
X130715000Y-126238000D01*
X137255000Y-127608000D02*
X137255000Y-124868000D01*
X130715000Y-124868000D02*
X130715000Y-127608000D01*
X137255000Y-124868000D02*
X130715000Y-124868000D01*
%TO.C,R2*%
X130715000Y-130964000D02*
X130715000Y-133704000D01*
X129945000Y-132334000D02*
X130715000Y-132334000D01*
X130715000Y-133704000D02*
X137255000Y-133704000D01*
X138025000Y-132334000D02*
X137255000Y-132334000D01*
X137255000Y-133704000D02*
X137255000Y-130964000D01*
X137255000Y-130964000D02*
X130715000Y-130964000D01*
%TO.C,J8*%
X97850000Y-140335000D02*
X97850000Y-148015000D01*
X95190000Y-140335000D02*
X95190000Y-148015000D01*
X95190000Y-140335000D02*
X97850000Y-140335000D01*
X96520000Y-137735000D02*
X97850000Y-137735000D01*
X97850000Y-137735000D02*
X97850000Y-139065000D01*
X95190000Y-148015000D02*
X97850000Y-148015000D01*
%TO.C,R12*%
X126238000Y-99925000D02*
X126238000Y-99155000D01*
X124868000Y-92615000D02*
X124868000Y-99155000D01*
X127608000Y-92615000D02*
X124868000Y-92615000D01*
X126238000Y-91845000D02*
X126238000Y-92615000D01*
X127608000Y-99155000D02*
X127608000Y-92615000D01*
X124868000Y-99155000D02*
X127608000Y-99155000D01*
%TO.C,R4*%
X137255000Y-130656000D02*
X137255000Y-127916000D01*
X130715000Y-130656000D02*
X137255000Y-130656000D01*
X137255000Y-127916000D02*
X130715000Y-127916000D01*
X129945000Y-129286000D02*
X130715000Y-129286000D01*
X138025000Y-129286000D02*
X137255000Y-129286000D01*
X130715000Y-127916000D02*
X130715000Y-130656000D01*
%TO.C,R3*%
X138025000Y-86233000D02*
X137255000Y-86233000D01*
X130715000Y-87603000D02*
X137255000Y-87603000D01*
X137255000Y-87603000D02*
X137255000Y-84863000D01*
X130715000Y-84863000D02*
X130715000Y-87603000D01*
X137255000Y-84863000D02*
X130715000Y-84863000D01*
X129945000Y-86233000D02*
X130715000Y-86233000D01*
%TO.C,C1*%
X137760000Y-121055000D02*
X134020000Y-121055000D01*
X137760000Y-113815000D02*
X134020000Y-113815000D01*
X134020000Y-113815000D02*
X134020000Y-121055000D01*
X137760000Y-113815000D02*
X137760000Y-121055000D01*
%TO.C,R9*%
X123190000Y-115975000D02*
X123190000Y-116745000D01*
X121820000Y-116745000D02*
X121820000Y-123285000D01*
X124560000Y-116745000D02*
X121820000Y-116745000D01*
X123190000Y-124055000D02*
X123190000Y-123285000D01*
X121820000Y-123285000D02*
X124560000Y-123285000D01*
X124560000Y-123285000D02*
X124560000Y-116745000D01*
%TO.C,R1*%
X129945000Y-83185000D02*
X130715000Y-83185000D01*
X137255000Y-81815000D02*
X130715000Y-81815000D01*
X138025000Y-83185000D02*
X137255000Y-83185000D01*
X130715000Y-81815000D02*
X130715000Y-84555000D01*
X137255000Y-84555000D02*
X137255000Y-81815000D01*
X130715000Y-84555000D02*
X137255000Y-84555000D01*
%TO.C,R6*%
X137255000Y-90651000D02*
X137255000Y-87911000D01*
X138025000Y-89281000D02*
X137255000Y-89281000D01*
X130715000Y-87911000D02*
X130715000Y-90651000D01*
X130715000Y-90651000D02*
X137255000Y-90651000D01*
X137255000Y-87911000D02*
X130715000Y-87911000D01*
X129945000Y-89281000D02*
X130715000Y-89281000D01*
%TO.C,C5*%
X128646000Y-44743000D02*
X128646000Y-45950000D01*
X129046000Y-45019000D02*
X129046000Y-45950000D01*
X127445000Y-48030000D02*
X127445000Y-49569000D01*
X129406000Y-45385000D02*
X129406000Y-48595000D01*
X128406000Y-44625000D02*
X128406000Y-45950000D01*
X129246000Y-48030000D02*
X129246000Y-48775000D01*
X127485000Y-48030000D02*
X127485000Y-49568000D01*
X128366000Y-48030000D02*
X128366000Y-49372000D01*
X127405000Y-44410000D02*
X127405000Y-45950000D01*
X127605000Y-48030000D02*
X127605000Y-49559000D01*
X127645000Y-44425000D02*
X127645000Y-45950000D01*
X127965000Y-44479000D02*
X127965000Y-45950000D01*
X127445000Y-44411000D02*
X127445000Y-45950000D01*
X128966000Y-48030000D02*
X128966000Y-49025000D01*
X129886000Y-46313000D02*
X129886000Y-47667000D01*
X129006000Y-44986000D02*
X129006000Y-45950000D01*
X127765000Y-44440000D02*
X127765000Y-45950000D01*
X128246000Y-48030000D02*
X128246000Y-49418000D01*
X129606000Y-45671000D02*
X129606000Y-48309000D01*
X127485000Y-44412000D02*
X127485000Y-45950000D01*
X129566000Y-45607000D02*
X129566000Y-48373000D01*
X129166000Y-45126000D02*
X129166000Y-45950000D01*
X129926000Y-46472000D02*
X129926000Y-47508000D01*
X128806000Y-44841000D02*
X128806000Y-45950000D01*
X128166000Y-44535000D02*
X128166000Y-45950000D01*
X127685000Y-48030000D02*
X127685000Y-49551000D01*
X129326000Y-45291000D02*
X129326000Y-45950000D01*
X129126000Y-48030000D02*
X129126000Y-48891000D01*
X129366000Y-48030000D02*
X129366000Y-48643000D01*
X127725000Y-48030000D02*
X127725000Y-49546000D01*
X127925000Y-48030000D02*
X127925000Y-49510000D01*
X128606000Y-44722000D02*
X128606000Y-45950000D01*
X128766000Y-44815000D02*
X128766000Y-45950000D01*
X129326000Y-48030000D02*
X129326000Y-48689000D01*
X129086000Y-45053000D02*
X129086000Y-45950000D01*
X127845000Y-44454000D02*
X127845000Y-45950000D01*
X128846000Y-48030000D02*
X128846000Y-49112000D01*
X127565000Y-44417000D02*
X127565000Y-45950000D01*
X128526000Y-48030000D02*
X128526000Y-49300000D01*
X129806000Y-46075000D02*
X129806000Y-47905000D01*
X128206000Y-48030000D02*
X128206000Y-49432000D01*
X128926000Y-44925000D02*
X128926000Y-45950000D01*
X127565000Y-48030000D02*
X127565000Y-49563000D01*
X128166000Y-48030000D02*
X128166000Y-49445000D01*
X129646000Y-45739000D02*
X129646000Y-48241000D01*
X129526000Y-45547000D02*
X129526000Y-48433000D01*
X128686000Y-48030000D02*
X128686000Y-49214000D01*
X129206000Y-45164000D02*
X129206000Y-45950000D01*
X128446000Y-48030000D02*
X128446000Y-49338000D01*
X127405000Y-48030000D02*
X127405000Y-49570000D01*
X128045000Y-48030000D02*
X128045000Y-49481000D01*
X128126000Y-44522000D02*
X128126000Y-45950000D01*
X129686000Y-45812000D02*
X129686000Y-48168000D01*
X127765000Y-48030000D02*
X127765000Y-49540000D01*
X128126000Y-48030000D02*
X128126000Y-49458000D01*
X129286000Y-48030000D02*
X129286000Y-48733000D01*
X128206000Y-44548000D02*
X128206000Y-45950000D01*
X129246000Y-45205000D02*
X129246000Y-45950000D01*
X128566000Y-44700000D02*
X128566000Y-45950000D01*
X128326000Y-44592000D02*
X128326000Y-45950000D01*
X129446000Y-45436000D02*
X129446000Y-48544000D01*
X128566000Y-48030000D02*
X128566000Y-49280000D01*
X128806000Y-48030000D02*
X128806000Y-49139000D01*
X129046000Y-48030000D02*
X129046000Y-48961000D01*
X127965000Y-48030000D02*
X127965000Y-49501000D01*
X127725000Y-44434000D02*
X127725000Y-45950000D01*
X128005000Y-48030000D02*
X128005000Y-49491000D01*
X127365000Y-44410000D02*
X127365000Y-45950000D01*
X128726000Y-48030000D02*
X128726000Y-49190000D01*
X128286000Y-48030000D02*
X128286000Y-49404000D01*
X128286000Y-44576000D02*
X128286000Y-45950000D01*
X128446000Y-44642000D02*
X128446000Y-45950000D01*
X128246000Y-44562000D02*
X128246000Y-45950000D01*
X128486000Y-44661000D02*
X128486000Y-45950000D01*
X128406000Y-48030000D02*
X128406000Y-49355000D01*
X127365000Y-48030000D02*
X127365000Y-49570000D01*
X129726000Y-45892000D02*
X129726000Y-48088000D01*
X127885000Y-48030000D02*
X127885000Y-49518000D01*
X129486000Y-45490000D02*
X129486000Y-48490000D01*
X129966000Y-46706000D02*
X129966000Y-47274000D01*
X128606000Y-48030000D02*
X128606000Y-49258000D01*
X127805000Y-48030000D02*
X127805000Y-49533000D01*
X129366000Y-45337000D02*
X129366000Y-45950000D01*
X128366000Y-44608000D02*
X128366000Y-45950000D01*
X128526000Y-44680000D02*
X128526000Y-45950000D01*
X127525000Y-48030000D02*
X127525000Y-49566000D01*
X129086000Y-48030000D02*
X129086000Y-48927000D01*
X127605000Y-44421000D02*
X127605000Y-45950000D01*
X128886000Y-44895000D02*
X128886000Y-45950000D01*
X128005000Y-44489000D02*
X128005000Y-45950000D01*
X129166000Y-48030000D02*
X129166000Y-48854000D01*
X128086000Y-44510000D02*
X128086000Y-45950000D01*
X128326000Y-48030000D02*
X128326000Y-49388000D01*
X129846000Y-46185000D02*
X129846000Y-47795000D01*
X127925000Y-44470000D02*
X127925000Y-45950000D01*
X128646000Y-48030000D02*
X128646000Y-49237000D01*
X128086000Y-48030000D02*
X128086000Y-49470000D01*
X129766000Y-45979000D02*
X129766000Y-48001000D01*
X124560225Y-45515000D02*
X125060225Y-45515000D01*
X128045000Y-44499000D02*
X128045000Y-45950000D01*
X124810225Y-45265000D02*
X124810225Y-45765000D01*
X127845000Y-48030000D02*
X127845000Y-49526000D01*
X128966000Y-44955000D02*
X128966000Y-45950000D01*
X127645000Y-48030000D02*
X127645000Y-49555000D01*
X128886000Y-48030000D02*
X128886000Y-49085000D01*
X127525000Y-44414000D02*
X127525000Y-45950000D01*
X128766000Y-48030000D02*
X128766000Y-49165000D01*
X128486000Y-48030000D02*
X128486000Y-49319000D01*
X128926000Y-48030000D02*
X128926000Y-49055000D01*
X129286000Y-45247000D02*
X129286000Y-45950000D01*
X127685000Y-44429000D02*
X127685000Y-45950000D01*
X129006000Y-48030000D02*
X129006000Y-48994000D01*
X128726000Y-44790000D02*
X128726000Y-45950000D01*
X129126000Y-45089000D02*
X129126000Y-45950000D01*
X127805000Y-44447000D02*
X127805000Y-45950000D01*
X129206000Y-48030000D02*
X129206000Y-48816000D01*
X127885000Y-44462000D02*
X127885000Y-45950000D01*
X128686000Y-44766000D02*
X128686000Y-45950000D01*
X128846000Y-44868000D02*
X128846000Y-45950000D01*
X129985000Y-46990000D02*
G75*
G03*
X129985000Y-46990000I-2620000J0D01*
G01*
%TO.C,C2*%
X134020000Y-102085000D02*
X137760000Y-102085000D01*
X134020000Y-94845000D02*
X137760000Y-94845000D01*
X134020000Y-102085000D02*
X134020000Y-94845000D01*
X137760000Y-102085000D02*
X137760000Y-94845000D01*
%TO.C,R10*%
X123190000Y-91845000D02*
X123190000Y-92615000D01*
X121820000Y-92615000D02*
X121820000Y-99155000D01*
X123190000Y-99925000D02*
X123190000Y-99155000D01*
X121820000Y-99155000D02*
X124560000Y-99155000D01*
X124560000Y-99155000D02*
X124560000Y-92615000D01*
X124560000Y-92615000D02*
X121820000Y-92615000D01*
%TO.C,U1*%
X139825000Y-102820000D02*
X121805000Y-102820000D01*
X121805000Y-102820000D02*
X121805000Y-113100000D01*
X139765000Y-106960000D02*
X139765000Y-105310000D01*
X139765000Y-110610000D02*
X139765000Y-108960000D01*
X139825000Y-113100000D02*
X139825000Y-102820000D01*
X139765000Y-105310000D02*
X121865000Y-105310000D01*
X121805000Y-113100000D02*
X139825000Y-113100000D01*
X121865000Y-105310000D02*
X121865000Y-110610000D01*
X121865000Y-110610000D02*
X139765000Y-110610000D01*
X139765000Y-106960000D02*
G75*
G03*
X139765000Y-108960000I0J-1000000D01*
G01*
%TO.C,C6*%
X135096000Y-44548000D02*
X135096000Y-45950000D01*
X135936000Y-45019000D02*
X135936000Y-45950000D01*
X136496000Y-45671000D02*
X136496000Y-48309000D01*
X135976000Y-48030000D02*
X135976000Y-48927000D01*
X136856000Y-46706000D02*
X136856000Y-47274000D01*
X136216000Y-45291000D02*
X136216000Y-45950000D01*
X136736000Y-46185000D02*
X136736000Y-47795000D01*
X134415000Y-48030000D02*
X134415000Y-49566000D01*
X134575000Y-44429000D02*
X134575000Y-45950000D01*
X134655000Y-48030000D02*
X134655000Y-49540000D01*
X136296000Y-45385000D02*
X136296000Y-48595000D01*
X135856000Y-48030000D02*
X135856000Y-49025000D01*
X131700225Y-45265000D02*
X131700225Y-45765000D01*
X135216000Y-48030000D02*
X135216000Y-49388000D01*
X134375000Y-44412000D02*
X134375000Y-45950000D01*
X136616000Y-45892000D02*
X136616000Y-48088000D01*
X135656000Y-48030000D02*
X135656000Y-49165000D01*
X135736000Y-48030000D02*
X135736000Y-49112000D01*
X136336000Y-45436000D02*
X136336000Y-48544000D01*
X136096000Y-48030000D02*
X136096000Y-48816000D01*
X135576000Y-44766000D02*
X135576000Y-45950000D01*
X135936000Y-48030000D02*
X135936000Y-48961000D01*
X136016000Y-45089000D02*
X136016000Y-45950000D01*
X136696000Y-46075000D02*
X136696000Y-47905000D01*
X135816000Y-44925000D02*
X135816000Y-45950000D01*
X134735000Y-48030000D02*
X134735000Y-49526000D01*
X134855000Y-48030000D02*
X134855000Y-49501000D01*
X134335000Y-48030000D02*
X134335000Y-49569000D01*
X134775000Y-44462000D02*
X134775000Y-45950000D01*
X135376000Y-48030000D02*
X135376000Y-49319000D01*
X135416000Y-48030000D02*
X135416000Y-49300000D01*
X136456000Y-45607000D02*
X136456000Y-48373000D01*
X136056000Y-45126000D02*
X136056000Y-45950000D01*
X135616000Y-48030000D02*
X135616000Y-49190000D01*
X136536000Y-45739000D02*
X136536000Y-48241000D01*
X135336000Y-44642000D02*
X135336000Y-45950000D01*
X135056000Y-44535000D02*
X135056000Y-45950000D01*
X135856000Y-44955000D02*
X135856000Y-45950000D01*
X136216000Y-48030000D02*
X136216000Y-48689000D01*
X135536000Y-48030000D02*
X135536000Y-49237000D01*
X134735000Y-44454000D02*
X134735000Y-45950000D01*
X131450225Y-45515000D02*
X131950225Y-45515000D01*
X134855000Y-44479000D02*
X134855000Y-45950000D01*
X135816000Y-48030000D02*
X135816000Y-49055000D01*
X136656000Y-45979000D02*
X136656000Y-48001000D01*
X135776000Y-44895000D02*
X135776000Y-45950000D01*
X136096000Y-45164000D02*
X136096000Y-45950000D01*
X135696000Y-48030000D02*
X135696000Y-49139000D01*
X135136000Y-44562000D02*
X135136000Y-45950000D01*
X135536000Y-44743000D02*
X135536000Y-45950000D01*
X135496000Y-48030000D02*
X135496000Y-49258000D01*
X135736000Y-44868000D02*
X135736000Y-45950000D01*
X134495000Y-44421000D02*
X134495000Y-45950000D01*
X136136000Y-45205000D02*
X136136000Y-45950000D01*
X135296000Y-44625000D02*
X135296000Y-45950000D01*
X135056000Y-48030000D02*
X135056000Y-49445000D01*
X135136000Y-48030000D02*
X135136000Y-49418000D01*
X135576000Y-48030000D02*
X135576000Y-49214000D01*
X135016000Y-48030000D02*
X135016000Y-49458000D01*
X135896000Y-48030000D02*
X135896000Y-48994000D01*
X134655000Y-44440000D02*
X134655000Y-45950000D01*
X134535000Y-48030000D02*
X134535000Y-49555000D01*
X135376000Y-44661000D02*
X135376000Y-45950000D01*
X134695000Y-44447000D02*
X134695000Y-45950000D01*
X136176000Y-48030000D02*
X136176000Y-48733000D01*
X135416000Y-44680000D02*
X135416000Y-45950000D01*
X134535000Y-44425000D02*
X134535000Y-45950000D01*
X135656000Y-44815000D02*
X135656000Y-45950000D01*
X135696000Y-44841000D02*
X135696000Y-45950000D01*
X135216000Y-44592000D02*
X135216000Y-45950000D01*
X136176000Y-45247000D02*
X136176000Y-45950000D01*
X134775000Y-48030000D02*
X134775000Y-49518000D01*
X135776000Y-48030000D02*
X135776000Y-49085000D01*
X136016000Y-48030000D02*
X136016000Y-48891000D01*
X136056000Y-48030000D02*
X136056000Y-48854000D01*
X135256000Y-44608000D02*
X135256000Y-45950000D01*
X134255000Y-48030000D02*
X134255000Y-49570000D01*
X135176000Y-48030000D02*
X135176000Y-49404000D01*
X134335000Y-44411000D02*
X134335000Y-45950000D01*
X135256000Y-48030000D02*
X135256000Y-49372000D01*
X135176000Y-44576000D02*
X135176000Y-45950000D01*
X134255000Y-44410000D02*
X134255000Y-45950000D01*
X134895000Y-48030000D02*
X134895000Y-49491000D01*
X134815000Y-44470000D02*
X134815000Y-45950000D01*
X135096000Y-48030000D02*
X135096000Y-49432000D01*
X136816000Y-46472000D02*
X136816000Y-47508000D01*
X134976000Y-48030000D02*
X134976000Y-49470000D01*
X134815000Y-48030000D02*
X134815000Y-49510000D01*
X136256000Y-45337000D02*
X136256000Y-45950000D01*
X134295000Y-44410000D02*
X134295000Y-45950000D01*
X135976000Y-45053000D02*
X135976000Y-45950000D01*
X135016000Y-44522000D02*
X135016000Y-45950000D01*
X134935000Y-48030000D02*
X134935000Y-49481000D01*
X136576000Y-45812000D02*
X136576000Y-48168000D01*
X135616000Y-44790000D02*
X135616000Y-45950000D01*
X136256000Y-48030000D02*
X136256000Y-48643000D01*
X136416000Y-45547000D02*
X136416000Y-48433000D01*
X134455000Y-48030000D02*
X134455000Y-49563000D01*
X134695000Y-48030000D02*
X134695000Y-49533000D01*
X134615000Y-44434000D02*
X134615000Y-45950000D01*
X135456000Y-48030000D02*
X135456000Y-49280000D01*
X136136000Y-48030000D02*
X136136000Y-48775000D01*
X134415000Y-44414000D02*
X134415000Y-45950000D01*
X134495000Y-48030000D02*
X134495000Y-49559000D01*
X134935000Y-44499000D02*
X134935000Y-45950000D01*
X134895000Y-44489000D02*
X134895000Y-45950000D01*
X134295000Y-48030000D02*
X134295000Y-49570000D01*
X134375000Y-48030000D02*
X134375000Y-49568000D01*
X134615000Y-48030000D02*
X134615000Y-49546000D01*
X134976000Y-44510000D02*
X134976000Y-45950000D01*
X135336000Y-48030000D02*
X135336000Y-49338000D01*
X135456000Y-44700000D02*
X135456000Y-45950000D01*
X134455000Y-44417000D02*
X134455000Y-45950000D01*
X134575000Y-48030000D02*
X134575000Y-49551000D01*
X136376000Y-45490000D02*
X136376000Y-48490000D01*
X135296000Y-48030000D02*
X135296000Y-49355000D01*
X135496000Y-44722000D02*
X135496000Y-45950000D01*
X136776000Y-46313000D02*
X136776000Y-47667000D01*
X135896000Y-44986000D02*
X135896000Y-45950000D01*
X136875000Y-46990000D02*
G75*
G03*
X136875000Y-46990000I-2620000J0D01*
G01*
%TO.C,R7*%
X137255000Y-121820000D02*
X130715000Y-121820000D01*
X138025000Y-123190000D02*
X137255000Y-123190000D01*
X137255000Y-124560000D02*
X137255000Y-121820000D01*
X129945000Y-123190000D02*
X130715000Y-123190000D01*
X130715000Y-124560000D02*
X137255000Y-124560000D01*
X130715000Y-121820000D02*
X130715000Y-124560000D01*
%TO.C,D2*%
X141170000Y-51615000D02*
X141170000Y-46175000D01*
X139700000Y-45155000D02*
X139700000Y-46175000D01*
X141170000Y-47075000D02*
X138230000Y-47075000D01*
X138230000Y-51615000D02*
X141170000Y-51615000D01*
X138230000Y-46175000D02*
X138230000Y-51615000D01*
X141170000Y-46955000D02*
X138230000Y-46955000D01*
X141170000Y-47195000D02*
X138230000Y-47195000D01*
X139700000Y-52635000D02*
X139700000Y-51615000D01*
X141170000Y-46175000D02*
X138230000Y-46175000D01*
%TD*%
M02*
