%TF.GenerationSoftware,KiCad,Pcbnew,(6.0.6-0)*%
%TF.CreationDate,2022-06-29T11:53:49+01:00*%
%TF.ProjectId,4u-simple-integrator,34752d73-696d-4706-9c65-2d696e746567,r01*%
%TF.SameCoordinates,Original*%
%TF.FileFunction,Legend,Top*%
%TF.FilePolarity,Positive*%
%FSLAX46Y46*%
G04 Gerber Fmt 4.6, Leading zero omitted, Abs format (unit mm)*
G04 Created by KiCad (PCBNEW (6.0.6-0)) date 2022-06-29 11:53:49*
%MOMM*%
%LPD*%
G01*
G04 APERTURE LIST*
%ADD10C,0.150000*%
%ADD11C,0.120000*%
G04 APERTURE END LIST*
D10*
X106141047Y-158730761D02*
X106283904Y-158778380D01*
X106522000Y-158778380D01*
X106617238Y-158730761D01*
X106664857Y-158683142D01*
X106712476Y-158587904D01*
X106712476Y-158492666D01*
X106664857Y-158397428D01*
X106617238Y-158349809D01*
X106522000Y-158302190D01*
X106331523Y-158254571D01*
X106236285Y-158206952D01*
X106188666Y-158159333D01*
X106141047Y-158064095D01*
X106141047Y-157968857D01*
X106188666Y-157873619D01*
X106236285Y-157826000D01*
X106331523Y-157778380D01*
X106569619Y-157778380D01*
X106712476Y-157826000D01*
X107141047Y-158778380D02*
X107141047Y-158111714D01*
X107141047Y-157778380D02*
X107093428Y-157826000D01*
X107141047Y-157873619D01*
X107188666Y-157826000D01*
X107141047Y-157778380D01*
X107141047Y-157873619D01*
X107617238Y-158778380D02*
X107617238Y-158111714D01*
X107617238Y-158206952D02*
X107664857Y-158159333D01*
X107760095Y-158111714D01*
X107902952Y-158111714D01*
X107998190Y-158159333D01*
X108045809Y-158254571D01*
X108045809Y-158778380D01*
X108045809Y-158254571D02*
X108093428Y-158159333D01*
X108188666Y-158111714D01*
X108331523Y-158111714D01*
X108426761Y-158159333D01*
X108474380Y-158254571D01*
X108474380Y-158778380D01*
X108950571Y-158111714D02*
X108950571Y-159111714D01*
X108950571Y-158159333D02*
X109045809Y-158111714D01*
X109236285Y-158111714D01*
X109331523Y-158159333D01*
X109379142Y-158206952D01*
X109426761Y-158302190D01*
X109426761Y-158587904D01*
X109379142Y-158683142D01*
X109331523Y-158730761D01*
X109236285Y-158778380D01*
X109045809Y-158778380D01*
X108950571Y-158730761D01*
X109998190Y-158778380D02*
X109902952Y-158730761D01*
X109855333Y-158635523D01*
X109855333Y-157778380D01*
X110760095Y-158730761D02*
X110664857Y-158778380D01*
X110474380Y-158778380D01*
X110379142Y-158730761D01*
X110331523Y-158635523D01*
X110331523Y-158254571D01*
X110379142Y-158159333D01*
X110474380Y-158111714D01*
X110664857Y-158111714D01*
X110760095Y-158159333D01*
X110807714Y-158254571D01*
X110807714Y-158349809D01*
X110331523Y-158445047D01*
X111998190Y-158778380D02*
X111998190Y-157778380D01*
X112474380Y-158111714D02*
X112474380Y-158778380D01*
X112474380Y-158206952D02*
X112522000Y-158159333D01*
X112617238Y-158111714D01*
X112760095Y-158111714D01*
X112855333Y-158159333D01*
X112902952Y-158254571D01*
X112902952Y-158778380D01*
X113236285Y-158111714D02*
X113617238Y-158111714D01*
X113379142Y-157778380D02*
X113379142Y-158635523D01*
X113426761Y-158730761D01*
X113522000Y-158778380D01*
X113617238Y-158778380D01*
X114331523Y-158730761D02*
X114236285Y-158778380D01*
X114045809Y-158778380D01*
X113950571Y-158730761D01*
X113902952Y-158635523D01*
X113902952Y-158254571D01*
X113950571Y-158159333D01*
X114045809Y-158111714D01*
X114236285Y-158111714D01*
X114331523Y-158159333D01*
X114379142Y-158254571D01*
X114379142Y-158349809D01*
X113902952Y-158445047D01*
X115236285Y-158111714D02*
X115236285Y-158921238D01*
X115188666Y-159016476D01*
X115141047Y-159064095D01*
X115045809Y-159111714D01*
X114902952Y-159111714D01*
X114807714Y-159064095D01*
X115236285Y-158730761D02*
X115141047Y-158778380D01*
X114950571Y-158778380D01*
X114855333Y-158730761D01*
X114807714Y-158683142D01*
X114760095Y-158587904D01*
X114760095Y-158302190D01*
X114807714Y-158206952D01*
X114855333Y-158159333D01*
X114950571Y-158111714D01*
X115141047Y-158111714D01*
X115236285Y-158159333D01*
X115712476Y-158778380D02*
X115712476Y-158111714D01*
X115712476Y-158302190D02*
X115760095Y-158206952D01*
X115807714Y-158159333D01*
X115902952Y-158111714D01*
X115998190Y-158111714D01*
X116760095Y-158778380D02*
X116760095Y-158254571D01*
X116712476Y-158159333D01*
X116617238Y-158111714D01*
X116426761Y-158111714D01*
X116331523Y-158159333D01*
X116760095Y-158730761D02*
X116664857Y-158778380D01*
X116426761Y-158778380D01*
X116331523Y-158730761D01*
X116283904Y-158635523D01*
X116283904Y-158540285D01*
X116331523Y-158445047D01*
X116426761Y-158397428D01*
X116664857Y-158397428D01*
X116760095Y-158349809D01*
X117093428Y-158111714D02*
X117474380Y-158111714D01*
X117236285Y-157778380D02*
X117236285Y-158635523D01*
X117283904Y-158730761D01*
X117379142Y-158778380D01*
X117474380Y-158778380D01*
X117950571Y-158778380D02*
X117855333Y-158730761D01*
X117807714Y-158683142D01*
X117760095Y-158587904D01*
X117760095Y-158302190D01*
X117807714Y-158206952D01*
X117855333Y-158159333D01*
X117950571Y-158111714D01*
X118093428Y-158111714D01*
X118188666Y-158159333D01*
X118236285Y-158206952D01*
X118283904Y-158302190D01*
X118283904Y-158587904D01*
X118236285Y-158683142D01*
X118188666Y-158730761D01*
X118093428Y-158778380D01*
X117950571Y-158778380D01*
X118712476Y-158778380D02*
X118712476Y-158111714D01*
X118712476Y-158302190D02*
X118760095Y-158206952D01*
X118807714Y-158159333D01*
X118902952Y-158111714D01*
X118998190Y-158111714D01*
X111498190Y-160388380D02*
X111498190Y-159721714D01*
X111498190Y-159912190D02*
X111545809Y-159816952D01*
X111593428Y-159769333D01*
X111688666Y-159721714D01*
X111783904Y-159721714D01*
X112307714Y-159388380D02*
X112402952Y-159388380D01*
X112498190Y-159436000D01*
X112545809Y-159483619D01*
X112593428Y-159578857D01*
X112641047Y-159769333D01*
X112641047Y-160007428D01*
X112593428Y-160197904D01*
X112545809Y-160293142D01*
X112498190Y-160340761D01*
X112402952Y-160388380D01*
X112307714Y-160388380D01*
X112212476Y-160340761D01*
X112164857Y-160293142D01*
X112117238Y-160197904D01*
X112069619Y-160007428D01*
X112069619Y-159769333D01*
X112117238Y-159578857D01*
X112164857Y-159483619D01*
X112212476Y-159436000D01*
X112307714Y-159388380D01*
X113593428Y-160388380D02*
X113022000Y-160388380D01*
X113307714Y-160388380D02*
X113307714Y-159388380D01*
X113212476Y-159531238D01*
X113117238Y-159626476D01*
X113022000Y-159674095D01*
%TO.C,C4*%
X112879142Y-86947666D02*
X112926761Y-86995285D01*
X112974380Y-87138142D01*
X112974380Y-87233380D01*
X112926761Y-87376238D01*
X112831523Y-87471476D01*
X112736285Y-87519095D01*
X112545809Y-87566714D01*
X112402952Y-87566714D01*
X112212476Y-87519095D01*
X112117238Y-87471476D01*
X112022000Y-87376238D01*
X111974380Y-87233380D01*
X111974380Y-87138142D01*
X112022000Y-86995285D01*
X112069619Y-86947666D01*
X112307714Y-86090523D02*
X112974380Y-86090523D01*
X111926761Y-86328619D02*
X112641047Y-86566714D01*
X112641047Y-85947666D01*
%TO.C,J7*%
X89836666Y-64984380D02*
X89836666Y-65698666D01*
X89789047Y-65841523D01*
X89693809Y-65936761D01*
X89550952Y-65984380D01*
X89455714Y-65984380D01*
X90217619Y-64984380D02*
X90884285Y-64984380D01*
X90455714Y-65984380D01*
%TO.C,D1*%
X104973380Y-47601095D02*
X103973380Y-47601095D01*
X103973380Y-47363000D01*
X104021000Y-47220142D01*
X104116238Y-47124904D01*
X104211476Y-47077285D01*
X104401952Y-47029666D01*
X104544809Y-47029666D01*
X104735285Y-47077285D01*
X104830523Y-47124904D01*
X104925761Y-47220142D01*
X104973380Y-47363000D01*
X104973380Y-47601095D01*
X104973380Y-46077285D02*
X104973380Y-46648714D01*
X104973380Y-46363000D02*
X103973380Y-46363000D01*
X104116238Y-46458238D01*
X104211476Y-46553476D01*
X104259095Y-46648714D01*
%TO.C,C8*%
X115546333Y-49058142D02*
X115498714Y-49105761D01*
X115355857Y-49153380D01*
X115260619Y-49153380D01*
X115117761Y-49105761D01*
X115022523Y-49010523D01*
X114974904Y-48915285D01*
X114927285Y-48724809D01*
X114927285Y-48581952D01*
X114974904Y-48391476D01*
X115022523Y-48296238D01*
X115117761Y-48201000D01*
X115260619Y-48153380D01*
X115355857Y-48153380D01*
X115498714Y-48201000D01*
X115546333Y-48248619D01*
X116117761Y-48581952D02*
X116022523Y-48534333D01*
X115974904Y-48486714D01*
X115927285Y-48391476D01*
X115927285Y-48343857D01*
X115974904Y-48248619D01*
X116022523Y-48201000D01*
X116117761Y-48153380D01*
X116308238Y-48153380D01*
X116403476Y-48201000D01*
X116451095Y-48248619D01*
X116498714Y-48343857D01*
X116498714Y-48391476D01*
X116451095Y-48486714D01*
X116403476Y-48534333D01*
X116308238Y-48581952D01*
X116117761Y-48581952D01*
X116022523Y-48629571D01*
X115974904Y-48677190D01*
X115927285Y-48772428D01*
X115927285Y-48962904D01*
X115974904Y-49058142D01*
X116022523Y-49105761D01*
X116117761Y-49153380D01*
X116308238Y-49153380D01*
X116403476Y-49105761D01*
X116451095Y-49058142D01*
X116498714Y-48962904D01*
X116498714Y-48772428D01*
X116451095Y-48677190D01*
X116403476Y-48629571D01*
X116308238Y-48581952D01*
%TO.C,R8*%
X120594380Y-108497666D02*
X120118190Y-108831000D01*
X120594380Y-109069095D02*
X119594380Y-109069095D01*
X119594380Y-108688142D01*
X119642000Y-108592904D01*
X119689619Y-108545285D01*
X119784857Y-108497666D01*
X119927714Y-108497666D01*
X120022952Y-108545285D01*
X120070571Y-108592904D01*
X120118190Y-108688142D01*
X120118190Y-109069095D01*
X120022952Y-107926238D02*
X119975333Y-108021476D01*
X119927714Y-108069095D01*
X119832476Y-108116714D01*
X119784857Y-108116714D01*
X119689619Y-108069095D01*
X119642000Y-108021476D01*
X119594380Y-107926238D01*
X119594380Y-107735761D01*
X119642000Y-107640523D01*
X119689619Y-107592904D01*
X119784857Y-107545285D01*
X119832476Y-107545285D01*
X119927714Y-107592904D01*
X119975333Y-107640523D01*
X120022952Y-107735761D01*
X120022952Y-107926238D01*
X120070571Y-108021476D01*
X120118190Y-108069095D01*
X120213428Y-108116714D01*
X120403904Y-108116714D01*
X120499142Y-108069095D01*
X120546761Y-108021476D01*
X120594380Y-107926238D01*
X120594380Y-107735761D01*
X120546761Y-107640523D01*
X120499142Y-107592904D01*
X120403904Y-107545285D01*
X120213428Y-107545285D01*
X120118190Y-107592904D01*
X120070571Y-107640523D01*
X120022952Y-107735761D01*
%TO.C,C3*%
X112879142Y-106171666D02*
X112926761Y-106219285D01*
X112974380Y-106362142D01*
X112974380Y-106457380D01*
X112926761Y-106600238D01*
X112831523Y-106695476D01*
X112736285Y-106743095D01*
X112545809Y-106790714D01*
X112402952Y-106790714D01*
X112212476Y-106743095D01*
X112117238Y-106695476D01*
X112022000Y-106600238D01*
X111974380Y-106457380D01*
X111974380Y-106362142D01*
X112022000Y-106219285D01*
X112069619Y-106171666D01*
X111974380Y-105838333D02*
X111974380Y-105219285D01*
X112355333Y-105552619D01*
X112355333Y-105409761D01*
X112402952Y-105314523D01*
X112450571Y-105266904D01*
X112545809Y-105219285D01*
X112783904Y-105219285D01*
X112879142Y-105266904D01*
X112926761Y-105314523D01*
X112974380Y-105409761D01*
X112974380Y-105695476D01*
X112926761Y-105790714D01*
X112879142Y-105838333D01*
%TO.C,R5*%
X117546380Y-84621666D02*
X117070190Y-84955000D01*
X117546380Y-85193095D02*
X116546380Y-85193095D01*
X116546380Y-84812142D01*
X116594000Y-84716904D01*
X116641619Y-84669285D01*
X116736857Y-84621666D01*
X116879714Y-84621666D01*
X116974952Y-84669285D01*
X117022571Y-84716904D01*
X117070190Y-84812142D01*
X117070190Y-85193095D01*
X116546380Y-83716904D02*
X116546380Y-84193095D01*
X117022571Y-84240714D01*
X116974952Y-84193095D01*
X116927333Y-84097857D01*
X116927333Y-83859761D01*
X116974952Y-83764523D01*
X117022571Y-83716904D01*
X117117809Y-83669285D01*
X117355904Y-83669285D01*
X117451142Y-83716904D01*
X117498761Y-83764523D01*
X117546380Y-83859761D01*
X117546380Y-84097857D01*
X117498761Y-84193095D01*
X117451142Y-84240714D01*
%TO.C,R2*%
X109418380Y-121451666D02*
X108942190Y-121785000D01*
X109418380Y-122023095D02*
X108418380Y-122023095D01*
X108418380Y-121642142D01*
X108466000Y-121546904D01*
X108513619Y-121499285D01*
X108608857Y-121451666D01*
X108751714Y-121451666D01*
X108846952Y-121499285D01*
X108894571Y-121546904D01*
X108942190Y-121642142D01*
X108942190Y-122023095D01*
X108513619Y-121070714D02*
X108466000Y-121023095D01*
X108418380Y-120927857D01*
X108418380Y-120689761D01*
X108466000Y-120594523D01*
X108513619Y-120546904D01*
X108608857Y-120499285D01*
X108704095Y-120499285D01*
X108846952Y-120546904D01*
X109418380Y-121118333D01*
X109418380Y-120499285D01*
%TO.C,J8*%
X78978380Y-144351333D02*
X79692666Y-144351333D01*
X79835523Y-144398952D01*
X79930761Y-144494190D01*
X79978380Y-144637047D01*
X79978380Y-144732285D01*
X79406952Y-143732285D02*
X79359333Y-143827523D01*
X79311714Y-143875142D01*
X79216476Y-143922761D01*
X79168857Y-143922761D01*
X79073619Y-143875142D01*
X79026000Y-143827523D01*
X78978380Y-143732285D01*
X78978380Y-143541809D01*
X79026000Y-143446571D01*
X79073619Y-143398952D01*
X79168857Y-143351333D01*
X79216476Y-143351333D01*
X79311714Y-143398952D01*
X79359333Y-143446571D01*
X79406952Y-143541809D01*
X79406952Y-143732285D01*
X79454571Y-143827523D01*
X79502190Y-143875142D01*
X79597428Y-143922761D01*
X79787904Y-143922761D01*
X79883142Y-143875142D01*
X79930761Y-143827523D01*
X79978380Y-143732285D01*
X79978380Y-143541809D01*
X79930761Y-143446571D01*
X79883142Y-143398952D01*
X79787904Y-143351333D01*
X79597428Y-143351333D01*
X79502190Y-143398952D01*
X79454571Y-143446571D01*
X79406952Y-143541809D01*
%TO.C,R4*%
X109418380Y-108497666D02*
X108942190Y-108831000D01*
X109418380Y-109069095D02*
X108418380Y-109069095D01*
X108418380Y-108688142D01*
X108466000Y-108592904D01*
X108513619Y-108545285D01*
X108608857Y-108497666D01*
X108751714Y-108497666D01*
X108846952Y-108545285D01*
X108894571Y-108592904D01*
X108942190Y-108688142D01*
X108942190Y-109069095D01*
X108751714Y-107640523D02*
X109418380Y-107640523D01*
X108370761Y-107878619D02*
X109085047Y-108116714D01*
X109085047Y-107497666D01*
%TO.C,R3*%
X109418380Y-84621666D02*
X108942190Y-84955000D01*
X109418380Y-85193095D02*
X108418380Y-85193095D01*
X108418380Y-84812142D01*
X108466000Y-84716904D01*
X108513619Y-84669285D01*
X108608857Y-84621666D01*
X108751714Y-84621666D01*
X108846952Y-84669285D01*
X108894571Y-84716904D01*
X108942190Y-84812142D01*
X108942190Y-85193095D01*
X108418380Y-84288333D02*
X108418380Y-83669285D01*
X108799333Y-84002619D01*
X108799333Y-83859761D01*
X108846952Y-83764523D01*
X108894571Y-83716904D01*
X108989809Y-83669285D01*
X109227904Y-83669285D01*
X109323142Y-83716904D01*
X109370761Y-83764523D01*
X109418380Y-83859761D01*
X109418380Y-84145476D01*
X109370761Y-84240714D01*
X109323142Y-84288333D01*
%TO.C,C1*%
X105767142Y-86947666D02*
X105814761Y-86995285D01*
X105862380Y-87138142D01*
X105862380Y-87233380D01*
X105814761Y-87376238D01*
X105719523Y-87471476D01*
X105624285Y-87519095D01*
X105433809Y-87566714D01*
X105290952Y-87566714D01*
X105100476Y-87519095D01*
X105005238Y-87471476D01*
X104910000Y-87376238D01*
X104862380Y-87233380D01*
X104862380Y-87138142D01*
X104910000Y-86995285D01*
X104957619Y-86947666D01*
X105862380Y-85995285D02*
X105862380Y-86566714D01*
X105862380Y-86281000D02*
X104862380Y-86281000D01*
X105005238Y-86376238D01*
X105100476Y-86471476D01*
X105148095Y-86566714D01*
%TO.C,R1*%
X105862380Y-75985666D02*
X105386190Y-76319000D01*
X105862380Y-76557095D02*
X104862380Y-76557095D01*
X104862380Y-76176142D01*
X104910000Y-76080904D01*
X104957619Y-76033285D01*
X105052857Y-75985666D01*
X105195714Y-75985666D01*
X105290952Y-76033285D01*
X105338571Y-76080904D01*
X105386190Y-76176142D01*
X105386190Y-76557095D01*
X105862380Y-75033285D02*
X105862380Y-75604714D01*
X105862380Y-75319000D02*
X104862380Y-75319000D01*
X105005238Y-75414238D01*
X105100476Y-75509476D01*
X105148095Y-75604714D01*
%TO.C,R6*%
X117546380Y-108497666D02*
X117070190Y-108831000D01*
X117546380Y-109069095D02*
X116546380Y-109069095D01*
X116546380Y-108688142D01*
X116594000Y-108592904D01*
X116641619Y-108545285D01*
X116736857Y-108497666D01*
X116879714Y-108497666D01*
X116974952Y-108545285D01*
X117022571Y-108592904D01*
X117070190Y-108688142D01*
X117070190Y-109069095D01*
X116546380Y-107640523D02*
X116546380Y-107831000D01*
X116594000Y-107926238D01*
X116641619Y-107973857D01*
X116784476Y-108069095D01*
X116974952Y-108116714D01*
X117355904Y-108116714D01*
X117451142Y-108069095D01*
X117498761Y-108021476D01*
X117546380Y-107926238D01*
X117546380Y-107735761D01*
X117498761Y-107640523D01*
X117451142Y-107592904D01*
X117355904Y-107545285D01*
X117117809Y-107545285D01*
X117022571Y-107592904D01*
X116974952Y-107640523D01*
X116927333Y-107735761D01*
X116927333Y-107926238D01*
X116974952Y-108021476D01*
X117022571Y-108069095D01*
X117117809Y-108116714D01*
%TO.C,C7*%
X109164333Y-49058142D02*
X109116714Y-49105761D01*
X108973857Y-49153380D01*
X108878619Y-49153380D01*
X108735761Y-49105761D01*
X108640523Y-49010523D01*
X108592904Y-48915285D01*
X108545285Y-48724809D01*
X108545285Y-48581952D01*
X108592904Y-48391476D01*
X108640523Y-48296238D01*
X108735761Y-48201000D01*
X108878619Y-48153380D01*
X108973857Y-48153380D01*
X109116714Y-48201000D01*
X109164333Y-48248619D01*
X109497666Y-48153380D02*
X110164333Y-48153380D01*
X109735761Y-49153380D01*
%TO.C,C2*%
X105767142Y-106171666D02*
X105814761Y-106219285D01*
X105862380Y-106362142D01*
X105862380Y-106457380D01*
X105814761Y-106600238D01*
X105719523Y-106695476D01*
X105624285Y-106743095D01*
X105433809Y-106790714D01*
X105290952Y-106790714D01*
X105100476Y-106743095D01*
X105005238Y-106695476D01*
X104910000Y-106600238D01*
X104862380Y-106457380D01*
X104862380Y-106362142D01*
X104910000Y-106219285D01*
X104957619Y-106171666D01*
X104957619Y-105790714D02*
X104910000Y-105743095D01*
X104862380Y-105647857D01*
X104862380Y-105409761D01*
X104910000Y-105314523D01*
X104957619Y-105266904D01*
X105052857Y-105219285D01*
X105148095Y-105219285D01*
X105290952Y-105266904D01*
X105862380Y-105838333D01*
X105862380Y-105219285D01*
%TO.C,U1*%
X111974380Y-97154904D02*
X112783904Y-97154904D01*
X112879142Y-97107285D01*
X112926761Y-97059666D01*
X112974380Y-96964428D01*
X112974380Y-96773952D01*
X112926761Y-96678714D01*
X112879142Y-96631095D01*
X112783904Y-96583476D01*
X111974380Y-96583476D01*
X112974380Y-95583476D02*
X112974380Y-96154904D01*
X112974380Y-95869190D02*
X111974380Y-95869190D01*
X112117238Y-95964428D01*
X112212476Y-96059666D01*
X112260095Y-96154904D01*
%TO.C,R7*%
X120594380Y-84621666D02*
X120118190Y-84955000D01*
X120594380Y-85193095D02*
X119594380Y-85193095D01*
X119594380Y-84812142D01*
X119642000Y-84716904D01*
X119689619Y-84669285D01*
X119784857Y-84621666D01*
X119927714Y-84621666D01*
X120022952Y-84669285D01*
X120070571Y-84716904D01*
X120118190Y-84812142D01*
X120118190Y-85193095D01*
X119594380Y-84288333D02*
X119594380Y-83621666D01*
X120594380Y-84050238D01*
%TO.C,D2*%
X121120380Y-48482983D02*
X120120380Y-48482983D01*
X120120380Y-48244888D01*
X120168000Y-48102030D01*
X120263238Y-48006792D01*
X120358476Y-47959173D01*
X120548952Y-47911554D01*
X120691809Y-47911554D01*
X120882285Y-47959173D01*
X120977523Y-48006792D01*
X121072761Y-48102030D01*
X121120380Y-48244888D01*
X121120380Y-48482983D01*
X120215619Y-47530602D02*
X120168000Y-47482983D01*
X120120380Y-47387745D01*
X120120380Y-47149649D01*
X120168000Y-47054411D01*
X120215619Y-47006792D01*
X120310857Y-46959173D01*
X120406095Y-46959173D01*
X120548952Y-47006792D01*
X121120380Y-47578221D01*
X121120380Y-46959173D01*
%TO.C,J11*%
X110069380Y-36369523D02*
X110783666Y-36369523D01*
X110926523Y-36417142D01*
X111021761Y-36512380D01*
X111069380Y-36655238D01*
X111069380Y-36750476D01*
X111069380Y-35369523D02*
X111069380Y-35940952D01*
X111069380Y-35655238D02*
X110069380Y-35655238D01*
X110212238Y-35750476D01*
X110307476Y-35845714D01*
X110355095Y-35940952D01*
X111069380Y-34417142D02*
X111069380Y-34988571D01*
X111069380Y-34702857D02*
X110069380Y-34702857D01*
X110212238Y-34798095D01*
X110307476Y-34893333D01*
X110355095Y-34988571D01*
X112204619Y-39076380D02*
X112537952Y-40076380D01*
X112871285Y-39076380D01*
X113204619Y-39695428D02*
X113966523Y-39695428D01*
X113585571Y-40076380D02*
X113585571Y-39314476D01*
X119697619Y-39076380D02*
X120030952Y-40076380D01*
X120364285Y-39076380D01*
X120697619Y-39695428D02*
X121459523Y-39695428D01*
D11*
%TO.C,C4*%
X114392000Y-83161000D02*
X114392000Y-90401000D01*
X110652000Y-83161000D02*
X110652000Y-90401000D01*
X114392000Y-90401000D02*
X110652000Y-90401000D01*
X114392000Y-83161000D02*
X110652000Y-83161000D01*
%TO.C,J7*%
X88900000Y-69402000D02*
X81220000Y-69402000D01*
X88900000Y-66742000D02*
X81220000Y-66742000D01*
X88900000Y-66742000D02*
X88900000Y-69402000D01*
X81220000Y-66742000D02*
X81220000Y-69402000D01*
X91500000Y-68072000D02*
X91500000Y-69402000D01*
X91500000Y-69402000D02*
X90170000Y-69402000D01*
%TO.C,D1*%
X103051000Y-50091000D02*
X105991000Y-50091000D01*
X103051000Y-49311000D02*
X105991000Y-49311000D01*
X104521000Y-43631000D02*
X104521000Y-44651000D01*
X104521000Y-51111000D02*
X104521000Y-50091000D01*
X103051000Y-49191000D02*
X105991000Y-49191000D01*
X103051000Y-44651000D02*
X103051000Y-50091000D01*
X105991000Y-44651000D02*
X103051000Y-44651000D01*
X103051000Y-49071000D02*
X105991000Y-49071000D01*
X105991000Y-50091000D02*
X105991000Y-44651000D01*
%TO.C,C8*%
X116434000Y-49971000D02*
X116434000Y-51411000D01*
X117514000Y-53491000D02*
X117514000Y-54315000D01*
X117074000Y-50251000D02*
X117074000Y-51411000D01*
X117194000Y-53491000D02*
X117194000Y-54573000D01*
X117074000Y-53491000D02*
X117074000Y-54651000D01*
X116794000Y-50103000D02*
X116794000Y-51411000D01*
X116634000Y-50037000D02*
X116634000Y-51411000D01*
X117154000Y-53491000D02*
X117154000Y-54600000D01*
X118114000Y-51440000D02*
X118114000Y-53462000D01*
X116674000Y-53491000D02*
X116674000Y-54849000D01*
X116233000Y-49923000D02*
X116233000Y-51411000D01*
X118194000Y-51646000D02*
X118194000Y-53256000D01*
X117474000Y-53491000D02*
X117474000Y-54352000D01*
X116313000Y-49940000D02*
X116313000Y-51411000D01*
X116994000Y-50204000D02*
X116994000Y-51411000D01*
X115913000Y-53491000D02*
X115913000Y-55024000D01*
X116994000Y-53491000D02*
X116994000Y-54698000D01*
X117554000Y-50625000D02*
X117554000Y-51411000D01*
X116033000Y-53491000D02*
X116033000Y-55012000D01*
X116353000Y-49950000D02*
X116353000Y-51411000D01*
X116073000Y-53491000D02*
X116073000Y-55007000D01*
X115913000Y-49878000D02*
X115913000Y-51411000D01*
X116674000Y-50053000D02*
X116674000Y-51411000D01*
X117834000Y-50951000D02*
X117834000Y-53951000D01*
X112908225Y-50976000D02*
X113408225Y-50976000D01*
X117194000Y-50329000D02*
X117194000Y-51411000D01*
X117114000Y-50276000D02*
X117114000Y-51411000D01*
X116113000Y-49901000D02*
X116113000Y-51411000D01*
X116434000Y-53491000D02*
X116434000Y-54931000D01*
X116874000Y-53491000D02*
X116874000Y-54761000D01*
X115993000Y-49886000D02*
X115993000Y-51411000D01*
X116313000Y-53491000D02*
X116313000Y-54962000D01*
X116714000Y-53491000D02*
X116714000Y-54833000D01*
X116193000Y-53491000D02*
X116193000Y-54987000D01*
X116153000Y-49908000D02*
X116153000Y-51411000D01*
X117274000Y-53491000D02*
X117274000Y-54516000D01*
X116474000Y-53491000D02*
X116474000Y-54919000D01*
X117434000Y-53491000D02*
X117434000Y-54388000D01*
X116594000Y-53491000D02*
X116594000Y-54879000D01*
X115713000Y-49871000D02*
X115713000Y-51411000D01*
X116233000Y-53491000D02*
X116233000Y-54979000D01*
X118314000Y-52167000D02*
X118314000Y-52735000D01*
X116834000Y-53491000D02*
X116834000Y-54780000D01*
X117234000Y-50356000D02*
X117234000Y-51411000D01*
X115873000Y-49875000D02*
X115873000Y-51411000D01*
X117034000Y-50227000D02*
X117034000Y-51411000D01*
X115793000Y-53491000D02*
X115793000Y-55030000D01*
X116754000Y-53491000D02*
X116754000Y-54816000D01*
X116634000Y-53491000D02*
X116634000Y-54865000D01*
X116594000Y-50023000D02*
X116594000Y-51411000D01*
X117314000Y-50416000D02*
X117314000Y-51411000D01*
X117994000Y-51200000D02*
X117994000Y-53702000D01*
X115873000Y-53491000D02*
X115873000Y-55027000D01*
X117634000Y-53491000D02*
X117634000Y-54194000D01*
X115833000Y-53491000D02*
X115833000Y-55029000D01*
X116514000Y-53491000D02*
X116514000Y-54906000D01*
X117714000Y-50798000D02*
X117714000Y-51411000D01*
X117394000Y-53491000D02*
X117394000Y-54422000D01*
X116714000Y-50069000D02*
X116714000Y-51411000D01*
X117794000Y-50897000D02*
X117794000Y-54005000D01*
X117354000Y-53491000D02*
X117354000Y-54455000D01*
X116874000Y-50141000D02*
X116874000Y-51411000D01*
X118154000Y-51536000D02*
X118154000Y-53366000D01*
X117154000Y-50302000D02*
X117154000Y-51411000D01*
X117954000Y-51132000D02*
X117954000Y-53770000D01*
X116954000Y-53491000D02*
X116954000Y-54719000D01*
X116834000Y-50122000D02*
X116834000Y-51411000D01*
X116153000Y-53491000D02*
X116153000Y-54994000D01*
X117634000Y-50708000D02*
X117634000Y-51411000D01*
X117514000Y-50587000D02*
X117514000Y-51411000D01*
X117354000Y-50447000D02*
X117354000Y-51411000D01*
X117594000Y-53491000D02*
X117594000Y-54236000D01*
X115833000Y-49873000D02*
X115833000Y-51411000D01*
X117554000Y-53491000D02*
X117554000Y-54277000D01*
X116353000Y-53491000D02*
X116353000Y-54952000D01*
X116554000Y-50009000D02*
X116554000Y-51411000D01*
X115753000Y-49871000D02*
X115753000Y-51411000D01*
X116914000Y-50161000D02*
X116914000Y-51411000D01*
X113158225Y-50726000D02*
X113158225Y-51226000D01*
X115753000Y-53491000D02*
X115753000Y-55031000D01*
X116113000Y-53491000D02*
X116113000Y-55001000D01*
X116393000Y-53491000D02*
X116393000Y-54942000D01*
X116554000Y-53491000D02*
X116554000Y-54893000D01*
X117314000Y-53491000D02*
X117314000Y-54486000D01*
X115953000Y-53491000D02*
X115953000Y-55020000D01*
X116033000Y-49890000D02*
X116033000Y-51411000D01*
X118034000Y-51273000D02*
X118034000Y-53629000D01*
X115793000Y-49872000D02*
X115793000Y-51411000D01*
X116393000Y-49960000D02*
X116393000Y-51411000D01*
X116914000Y-53491000D02*
X116914000Y-54741000D01*
X115713000Y-53491000D02*
X115713000Y-55031000D01*
X117594000Y-50666000D02*
X117594000Y-51411000D01*
X118274000Y-51933000D02*
X118274000Y-52969000D01*
X116193000Y-49915000D02*
X116193000Y-51411000D01*
X116273000Y-49931000D02*
X116273000Y-51411000D01*
X116514000Y-49996000D02*
X116514000Y-51411000D01*
X116073000Y-49895000D02*
X116073000Y-51411000D01*
X116954000Y-50183000D02*
X116954000Y-51411000D01*
X118234000Y-51774000D02*
X118234000Y-53128000D01*
X117714000Y-53491000D02*
X117714000Y-54104000D01*
X115993000Y-53491000D02*
X115993000Y-55016000D01*
X117234000Y-53491000D02*
X117234000Y-54546000D01*
X116474000Y-49983000D02*
X116474000Y-51411000D01*
X117034000Y-53491000D02*
X117034000Y-54675000D01*
X117674000Y-50752000D02*
X117674000Y-51411000D01*
X117274000Y-50386000D02*
X117274000Y-51411000D01*
X117434000Y-50514000D02*
X117434000Y-51411000D01*
X116794000Y-53491000D02*
X116794000Y-54799000D01*
X117754000Y-50846000D02*
X117754000Y-54056000D01*
X117874000Y-51008000D02*
X117874000Y-53894000D01*
X115953000Y-49882000D02*
X115953000Y-51411000D01*
X117914000Y-51068000D02*
X117914000Y-53834000D01*
X117474000Y-50550000D02*
X117474000Y-51411000D01*
X116754000Y-50086000D02*
X116754000Y-51411000D01*
X117114000Y-53491000D02*
X117114000Y-54626000D01*
X118074000Y-51353000D02*
X118074000Y-53549000D01*
X116273000Y-53491000D02*
X116273000Y-54971000D01*
X117394000Y-50480000D02*
X117394000Y-51411000D01*
X117674000Y-53491000D02*
X117674000Y-54150000D01*
X118333000Y-52451000D02*
G75*
G03*
X118333000Y-52451000I-2620000J0D01*
G01*
%TO.C,R8*%
X120142000Y-112371000D02*
X120142000Y-111601000D01*
X120142000Y-104291000D02*
X120142000Y-105061000D01*
X121512000Y-111601000D02*
X121512000Y-105061000D01*
X118772000Y-105061000D02*
X118772000Y-111601000D01*
X121512000Y-105061000D02*
X118772000Y-105061000D01*
X118772000Y-111601000D02*
X121512000Y-111601000D01*
%TO.C,C3*%
X110652000Y-102385000D02*
X110652000Y-109625000D01*
X114392000Y-102385000D02*
X114392000Y-109625000D01*
X114392000Y-102385000D02*
X110652000Y-102385000D01*
X114392000Y-109625000D02*
X110652000Y-109625000D01*
%TO.C,R5*%
X118464000Y-81185000D02*
X115724000Y-81185000D01*
X118464000Y-87725000D02*
X118464000Y-81185000D01*
X117094000Y-88495000D02*
X117094000Y-87725000D01*
X115724000Y-81185000D02*
X115724000Y-87725000D01*
X115724000Y-87725000D02*
X118464000Y-87725000D01*
X117094000Y-80415000D02*
X117094000Y-81185000D01*
%TO.C,R2*%
X110336000Y-118015000D02*
X107596000Y-118015000D01*
X108966000Y-125325000D02*
X108966000Y-124555000D01*
X110336000Y-124555000D02*
X110336000Y-118015000D01*
X108966000Y-117245000D02*
X108966000Y-118015000D01*
X107596000Y-124555000D02*
X110336000Y-124555000D01*
X107596000Y-118015000D02*
X107596000Y-124555000D01*
%TO.C,J8*%
X83566000Y-142688000D02*
X91246000Y-142688000D01*
X83566000Y-145348000D02*
X91246000Y-145348000D01*
X83566000Y-145348000D02*
X83566000Y-142688000D01*
X80966000Y-144018000D02*
X80966000Y-142688000D01*
X80966000Y-142688000D02*
X82296000Y-142688000D01*
X91246000Y-145348000D02*
X91246000Y-142688000D01*
%TO.C,R4*%
X108966000Y-104291000D02*
X108966000Y-105061000D01*
X107596000Y-105061000D02*
X107596000Y-111601000D01*
X108966000Y-112371000D02*
X108966000Y-111601000D01*
X107596000Y-111601000D02*
X110336000Y-111601000D01*
X110336000Y-111601000D02*
X110336000Y-105061000D01*
X110336000Y-105061000D02*
X107596000Y-105061000D01*
%TO.C,R3*%
X107596000Y-81185000D02*
X107596000Y-87725000D01*
X107596000Y-87725000D02*
X110336000Y-87725000D01*
X108966000Y-80415000D02*
X108966000Y-81185000D01*
X110336000Y-81185000D02*
X107596000Y-81185000D01*
X110336000Y-87725000D02*
X110336000Y-81185000D01*
X108966000Y-88495000D02*
X108966000Y-87725000D01*
%TO.C,C1*%
X107280000Y-90401000D02*
X103540000Y-90401000D01*
X107280000Y-83161000D02*
X103540000Y-83161000D01*
X103540000Y-83161000D02*
X103540000Y-90401000D01*
X107280000Y-83161000D02*
X107280000Y-90401000D01*
%TO.C,R1*%
X106780000Y-72549000D02*
X104040000Y-72549000D01*
X106780000Y-79089000D02*
X106780000Y-72549000D01*
X104040000Y-72549000D02*
X104040000Y-79089000D01*
X104040000Y-79089000D02*
X106780000Y-79089000D01*
X105410000Y-79859000D02*
X105410000Y-79089000D01*
X105410000Y-71779000D02*
X105410000Y-72549000D01*
%TO.C,R6*%
X117094000Y-112371000D02*
X117094000Y-111601000D01*
X118464000Y-111601000D02*
X118464000Y-105061000D01*
X118464000Y-105061000D02*
X115724000Y-105061000D01*
X117094000Y-104291000D02*
X117094000Y-105061000D01*
X115724000Y-105061000D02*
X115724000Y-111601000D01*
X115724000Y-111601000D02*
X118464000Y-111601000D01*
%TO.C,C7*%
X109491000Y-49875000D02*
X109491000Y-51411000D01*
X111252000Y-50708000D02*
X111252000Y-51411000D01*
X110212000Y-50023000D02*
X110212000Y-51411000D01*
X111732000Y-51440000D02*
X111732000Y-53462000D01*
X111932000Y-52167000D02*
X111932000Y-52735000D01*
X110612000Y-53491000D02*
X110612000Y-54698000D01*
X109531000Y-53491000D02*
X109531000Y-55024000D01*
X110092000Y-53491000D02*
X110092000Y-54919000D01*
X109971000Y-49950000D02*
X109971000Y-51411000D01*
X111012000Y-53491000D02*
X111012000Y-54422000D01*
X110252000Y-50037000D02*
X110252000Y-51411000D01*
X111652000Y-51273000D02*
X111652000Y-53629000D01*
X110932000Y-53491000D02*
X110932000Y-54486000D01*
X110372000Y-53491000D02*
X110372000Y-54816000D01*
X110572000Y-50183000D02*
X110572000Y-51411000D01*
X111012000Y-50480000D02*
X111012000Y-51411000D01*
X111132000Y-50587000D02*
X111132000Y-51411000D01*
X109651000Y-53491000D02*
X109651000Y-55012000D01*
X110692000Y-50251000D02*
X110692000Y-51411000D01*
X111612000Y-51200000D02*
X111612000Y-53702000D01*
X110172000Y-53491000D02*
X110172000Y-54893000D01*
X109691000Y-49895000D02*
X109691000Y-51411000D01*
X109411000Y-49872000D02*
X109411000Y-51411000D01*
X109891000Y-53491000D02*
X109891000Y-54971000D01*
X110372000Y-50086000D02*
X110372000Y-51411000D01*
X111772000Y-51536000D02*
X111772000Y-53366000D01*
X109811000Y-49915000D02*
X109811000Y-51411000D01*
X111572000Y-51132000D02*
X111572000Y-53770000D01*
X111052000Y-53491000D02*
X111052000Y-54388000D01*
X111212000Y-53491000D02*
X111212000Y-54236000D01*
X109451000Y-49873000D02*
X109451000Y-51411000D01*
X110412000Y-53491000D02*
X110412000Y-54799000D01*
X110452000Y-53491000D02*
X110452000Y-54780000D01*
X110492000Y-53491000D02*
X110492000Y-54761000D01*
X110332000Y-53491000D02*
X110332000Y-54833000D01*
X111812000Y-51646000D02*
X111812000Y-53256000D01*
X111532000Y-51068000D02*
X111532000Y-53834000D01*
X109531000Y-49878000D02*
X109531000Y-51411000D01*
X110011000Y-49960000D02*
X110011000Y-51411000D01*
X106526225Y-50976000D02*
X107026225Y-50976000D01*
X111052000Y-50514000D02*
X111052000Y-51411000D01*
X109611000Y-49886000D02*
X109611000Y-51411000D01*
X110292000Y-53491000D02*
X110292000Y-54849000D01*
X109891000Y-49931000D02*
X109891000Y-51411000D01*
X110732000Y-53491000D02*
X110732000Y-54626000D01*
X110572000Y-53491000D02*
X110572000Y-54719000D01*
X109571000Y-49882000D02*
X109571000Y-51411000D01*
X111412000Y-50897000D02*
X111412000Y-54005000D01*
X111372000Y-50846000D02*
X111372000Y-54056000D01*
X110852000Y-53491000D02*
X110852000Y-54546000D01*
X110292000Y-50053000D02*
X110292000Y-51411000D01*
X111212000Y-50666000D02*
X111212000Y-51411000D01*
X110852000Y-50356000D02*
X110852000Y-51411000D01*
X110892000Y-53491000D02*
X110892000Y-54516000D01*
X110932000Y-50416000D02*
X110932000Y-51411000D01*
X110812000Y-50329000D02*
X110812000Y-51411000D01*
X110252000Y-53491000D02*
X110252000Y-54865000D01*
X109971000Y-53491000D02*
X109971000Y-54952000D01*
X110652000Y-53491000D02*
X110652000Y-54675000D01*
X111332000Y-50798000D02*
X111332000Y-51411000D01*
X110532000Y-53491000D02*
X110532000Y-54741000D01*
X110452000Y-50122000D02*
X110452000Y-51411000D01*
X110732000Y-50276000D02*
X110732000Y-51411000D01*
X111092000Y-50550000D02*
X111092000Y-51411000D01*
X109331000Y-49871000D02*
X109331000Y-51411000D01*
X110812000Y-53491000D02*
X110812000Y-54573000D01*
X111692000Y-51353000D02*
X111692000Y-53549000D01*
X110132000Y-49996000D02*
X110132000Y-51411000D01*
X111292000Y-53491000D02*
X111292000Y-54150000D01*
X109931000Y-49940000D02*
X109931000Y-51411000D01*
X110132000Y-53491000D02*
X110132000Y-54906000D01*
X106776225Y-50726000D02*
X106776225Y-51226000D01*
X109371000Y-53491000D02*
X109371000Y-55031000D01*
X110492000Y-50141000D02*
X110492000Y-51411000D01*
X111332000Y-53491000D02*
X111332000Y-54104000D01*
X109811000Y-53491000D02*
X109811000Y-54987000D01*
X111492000Y-51008000D02*
X111492000Y-53894000D01*
X111172000Y-53491000D02*
X111172000Y-54277000D01*
X110972000Y-50447000D02*
X110972000Y-51411000D01*
X110972000Y-53491000D02*
X110972000Y-54455000D01*
X109731000Y-49901000D02*
X109731000Y-51411000D01*
X111292000Y-50752000D02*
X111292000Y-51411000D01*
X110212000Y-53491000D02*
X110212000Y-54879000D01*
X109771000Y-53491000D02*
X109771000Y-54994000D01*
X109571000Y-53491000D02*
X109571000Y-55020000D01*
X109491000Y-53491000D02*
X109491000Y-55027000D01*
X110532000Y-50161000D02*
X110532000Y-51411000D01*
X109651000Y-49890000D02*
X109651000Y-51411000D01*
X109611000Y-53491000D02*
X109611000Y-55016000D01*
X110092000Y-49983000D02*
X110092000Y-51411000D01*
X110172000Y-50009000D02*
X110172000Y-51411000D01*
X109851000Y-53491000D02*
X109851000Y-54979000D01*
X111132000Y-53491000D02*
X111132000Y-54315000D01*
X110412000Y-50103000D02*
X110412000Y-51411000D01*
X111092000Y-53491000D02*
X111092000Y-54352000D01*
X109331000Y-53491000D02*
X109331000Y-55031000D01*
X110772000Y-50302000D02*
X110772000Y-51411000D01*
X111852000Y-51774000D02*
X111852000Y-53128000D01*
X110052000Y-53491000D02*
X110052000Y-54931000D01*
X111452000Y-50951000D02*
X111452000Y-53951000D01*
X109371000Y-49871000D02*
X109371000Y-51411000D01*
X111252000Y-53491000D02*
X111252000Y-54194000D01*
X111172000Y-50625000D02*
X111172000Y-51411000D01*
X110011000Y-53491000D02*
X110011000Y-54942000D01*
X110332000Y-50069000D02*
X110332000Y-51411000D01*
X110892000Y-50386000D02*
X110892000Y-51411000D01*
X110652000Y-50227000D02*
X110652000Y-51411000D01*
X110612000Y-50204000D02*
X110612000Y-51411000D01*
X109731000Y-53491000D02*
X109731000Y-55001000D01*
X109451000Y-53491000D02*
X109451000Y-55029000D01*
X109691000Y-53491000D02*
X109691000Y-55007000D01*
X111892000Y-51933000D02*
X111892000Y-52969000D01*
X109851000Y-49923000D02*
X109851000Y-51411000D01*
X110052000Y-49971000D02*
X110052000Y-51411000D01*
X109931000Y-53491000D02*
X109931000Y-54962000D01*
X110772000Y-53491000D02*
X110772000Y-54600000D01*
X109411000Y-53491000D02*
X109411000Y-55030000D01*
X110692000Y-53491000D02*
X110692000Y-54651000D01*
X109771000Y-49908000D02*
X109771000Y-51411000D01*
X111951000Y-52451000D02*
G75*
G03*
X111951000Y-52451000I-2620000J0D01*
G01*
%TO.C,C2*%
X107280000Y-109625000D02*
X107280000Y-102385000D01*
X103540000Y-109625000D02*
X107280000Y-109625000D01*
X103540000Y-109625000D02*
X103540000Y-102385000D01*
X103540000Y-102385000D02*
X107280000Y-102385000D01*
%TO.C,U1*%
X121532000Y-91253000D02*
X103512000Y-91253000D01*
X121532000Y-101533000D02*
X121532000Y-91253000D01*
X121472000Y-99043000D02*
X121472000Y-93743000D01*
X121472000Y-93743000D02*
X103572000Y-93743000D01*
X103572000Y-93743000D02*
X103572000Y-95393000D01*
X103512000Y-91253000D02*
X103512000Y-101533000D01*
X103572000Y-99043000D02*
X121472000Y-99043000D01*
X103572000Y-97393000D02*
X103572000Y-99043000D01*
X103512000Y-101533000D02*
X121532000Y-101533000D01*
X103572000Y-97393000D02*
G75*
G03*
X103572000Y-95393000I0J1000000D01*
G01*
%TO.C,R7*%
X121512000Y-87725000D02*
X121512000Y-81185000D01*
X118772000Y-87725000D02*
X121512000Y-87725000D01*
X121512000Y-81185000D02*
X118772000Y-81185000D01*
X118772000Y-81185000D02*
X118772000Y-87725000D01*
X120142000Y-88495000D02*
X120142000Y-87725000D01*
X120142000Y-80415000D02*
X120142000Y-81185000D01*
%TO.C,D2*%
X122120000Y-45551000D02*
X119180000Y-45551000D01*
X120650000Y-51111000D02*
X120650000Y-50091000D01*
X120650000Y-43631000D02*
X120650000Y-44651000D01*
X122120000Y-45431000D02*
X119180000Y-45431000D01*
X119180000Y-44651000D02*
X119180000Y-50091000D01*
X122120000Y-50091000D02*
X122120000Y-44651000D01*
X119180000Y-50091000D02*
X122120000Y-50091000D01*
X122120000Y-44651000D02*
X119180000Y-44651000D01*
X122120000Y-45671000D02*
X119180000Y-45671000D01*
%TO.C,J11*%
X119850000Y-32530000D02*
X119850000Y-33130000D01*
X122030000Y-32530000D02*
X111650000Y-32530000D01*
X111360000Y-33560000D02*
X111360000Y-37560000D01*
X113030000Y-37550000D02*
X113280000Y-37020000D01*
X117310000Y-33130000D02*
X118910000Y-33130000D01*
X116370000Y-33130000D02*
X116370000Y-32530000D01*
X113830000Y-33130000D02*
X113830000Y-32530000D01*
X113280000Y-38550000D02*
X113280000Y-37550000D01*
X118910000Y-33130000D02*
X118910000Y-32530000D01*
X119850000Y-33130000D02*
X121450000Y-33130000D01*
X112230000Y-33130000D02*
X113830000Y-33130000D01*
X122030000Y-38550000D02*
X122030000Y-32530000D01*
X117310000Y-32530000D02*
X117310000Y-33130000D01*
X113280000Y-37020000D02*
X120400000Y-37020000D01*
X114770000Y-33130000D02*
X116370000Y-33130000D01*
X120650000Y-37550000D02*
X120650000Y-38550000D01*
X112230000Y-32530000D02*
X112230000Y-33130000D01*
X111650000Y-38550000D02*
X122030000Y-38550000D01*
X120400000Y-37020000D02*
X120650000Y-37550000D01*
X113030000Y-38550000D02*
X113030000Y-37550000D01*
X113030000Y-37550000D02*
X120650000Y-37550000D01*
X111650000Y-32530000D02*
X111650000Y-38550000D01*
X114770000Y-32530000D02*
X114770000Y-33130000D01*
X121450000Y-33130000D02*
X121450000Y-32530000D01*
X120400000Y-38550000D02*
X120400000Y-37550000D01*
%TD*%
M02*
