%TF.GenerationSoftware,KiCad,Pcbnew,(6.0.0-0)*%
%TF.CreationDate,2022-06-17T05:53:11+01:00*%
%TF.ProjectId,4u-simple-integrator,34752d73-696d-4706-9c65-2d696e746567,r01*%
%TF.SameCoordinates,Original*%
%TF.FileFunction,Legend,Bot*%
%TF.FilePolarity,Positive*%
%FSLAX46Y46*%
G04 Gerber Fmt 4.6, Leading zero omitted, Abs format (unit mm)*
G04 Created by KiCad (PCBNEW (6.0.0-0)) date 2022-06-17 05:53:11*
%MOMM*%
%LPD*%
G01*
G04 APERTURE LIST*
%ADD10C,0.150000*%
%ADD11C,0.120000*%
G04 APERTURE END LIST*
D10*
%TO.C,J1*%
X86185333Y-100972380D02*
X86185333Y-101686666D01*
X86232952Y-101829523D01*
X86328190Y-101924761D01*
X86471047Y-101972380D01*
X86566285Y-101972380D01*
X85185333Y-101972380D02*
X85756761Y-101972380D01*
X85471047Y-101972380D02*
X85471047Y-100972380D01*
X85566285Y-101115238D01*
X85661523Y-101210476D01*
X85756761Y-101258095D01*
%TO.C,J4*%
X86185333Y-43822380D02*
X86185333Y-44536666D01*
X86232952Y-44679523D01*
X86328190Y-44774761D01*
X86471047Y-44822380D01*
X86566285Y-44822380D01*
X85280571Y-44155714D02*
X85280571Y-44822380D01*
X85518666Y-43774761D02*
X85756761Y-44489047D01*
X85137714Y-44489047D01*
%TO.C,J3*%
X86185333Y-62872380D02*
X86185333Y-63586666D01*
X86232952Y-63729523D01*
X86328190Y-63824761D01*
X86471047Y-63872380D01*
X86566285Y-63872380D01*
X85804380Y-62872380D02*
X85185333Y-62872380D01*
X85518666Y-63253333D01*
X85375809Y-63253333D01*
X85280571Y-63300952D01*
X85232952Y-63348571D01*
X85185333Y-63443809D01*
X85185333Y-63681904D01*
X85232952Y-63777142D01*
X85280571Y-63824761D01*
X85375809Y-63872380D01*
X85661523Y-63872380D01*
X85756761Y-63824761D01*
X85804380Y-63777142D01*
%TO.C,J10*%
X109775523Y-146137380D02*
X109775523Y-146851666D01*
X109823142Y-146994523D01*
X109918380Y-147089761D01*
X110061238Y-147137380D01*
X110156476Y-147137380D01*
X108775523Y-147137380D02*
X109346952Y-147137380D01*
X109061238Y-147137380D02*
X109061238Y-146137380D01*
X109156476Y-146280238D01*
X109251714Y-146375476D01*
X109346952Y-146423095D01*
X108156476Y-146137380D02*
X108061238Y-146137380D01*
X107966000Y-146185000D01*
X107918380Y-146232619D01*
X107870761Y-146327857D01*
X107823142Y-146518333D01*
X107823142Y-146756428D01*
X107870761Y-146946904D01*
X107918380Y-147042142D01*
X107966000Y-147089761D01*
X108061238Y-147137380D01*
X108156476Y-147137380D01*
X108251714Y-147089761D01*
X108299333Y-147042142D01*
X108346952Y-146946904D01*
X108394571Y-146756428D01*
X108394571Y-146518333D01*
X108346952Y-146327857D01*
X108299333Y-146232619D01*
X108251714Y-146185000D01*
X108156476Y-146137380D01*
%TO.C,RV2*%
X81697238Y-148372380D02*
X82030571Y-147896190D01*
X82268666Y-148372380D02*
X82268666Y-147372380D01*
X81887714Y-147372380D01*
X81792476Y-147420000D01*
X81744857Y-147467619D01*
X81697238Y-147562857D01*
X81697238Y-147705714D01*
X81744857Y-147800952D01*
X81792476Y-147848571D01*
X81887714Y-147896190D01*
X82268666Y-147896190D01*
X81411523Y-147372380D02*
X81078190Y-148372380D01*
X80744857Y-147372380D01*
X80459142Y-147467619D02*
X80411523Y-147420000D01*
X80316285Y-147372380D01*
X80078190Y-147372380D01*
X79982952Y-147420000D01*
X79935333Y-147467619D01*
X79887714Y-147562857D01*
X79887714Y-147658095D01*
X79935333Y-147800952D01*
X80506761Y-148372380D01*
X79887714Y-148372380D01*
%TO.C,J11*%
X110069380Y-34750476D02*
X110783666Y-34750476D01*
X110926523Y-34702857D01*
X111021761Y-34607619D01*
X111069380Y-34464761D01*
X111069380Y-34369523D01*
X111069380Y-35750476D02*
X111069380Y-35179047D01*
X111069380Y-35464761D02*
X110069380Y-35464761D01*
X110212238Y-35369523D01*
X110307476Y-35274285D01*
X110355095Y-35179047D01*
X111069380Y-36702857D02*
X111069380Y-36131428D01*
X111069380Y-36417142D02*
X110069380Y-36417142D01*
X110212238Y-36321904D01*
X110307476Y-36226666D01*
X110355095Y-36131428D01*
X112077619Y-40298619D02*
X112410952Y-39298619D01*
X112744285Y-40298619D01*
X113077619Y-39679571D02*
X113839523Y-39679571D01*
X113458571Y-39298619D02*
X113458571Y-40060523D01*
X119697619Y-40171619D02*
X120030952Y-39171619D01*
X120364285Y-40171619D01*
X120697619Y-39552571D02*
X121459523Y-39552571D01*
%TO.C,RV1*%
X81697238Y-72172380D02*
X82030571Y-71696190D01*
X82268666Y-72172380D02*
X82268666Y-71172380D01*
X81887714Y-71172380D01*
X81792476Y-71220000D01*
X81744857Y-71267619D01*
X81697238Y-71362857D01*
X81697238Y-71505714D01*
X81744857Y-71600952D01*
X81792476Y-71648571D01*
X81887714Y-71696190D01*
X82268666Y-71696190D01*
X81411523Y-71172380D02*
X81078190Y-72172380D01*
X80744857Y-71172380D01*
X79887714Y-72172380D02*
X80459142Y-72172380D01*
X80173428Y-72172380D02*
X80173428Y-71172380D01*
X80268666Y-71315238D01*
X80363904Y-71410476D01*
X80459142Y-71458095D01*
%TO.C,J9*%
X117173333Y-64984380D02*
X117173333Y-65698666D01*
X117220952Y-65841523D01*
X117316190Y-65936761D01*
X117459047Y-65984380D01*
X117554285Y-65984380D01*
X116649523Y-65984380D02*
X116459047Y-65984380D01*
X116363809Y-65936761D01*
X116316190Y-65889142D01*
X116220952Y-65746285D01*
X116173333Y-65555809D01*
X116173333Y-65174857D01*
X116220952Y-65079619D01*
X116268571Y-65032000D01*
X116363809Y-64984380D01*
X116554285Y-64984380D01*
X116649523Y-65032000D01*
X116697142Y-65079619D01*
X116744761Y-65174857D01*
X116744761Y-65412952D01*
X116697142Y-65508190D01*
X116649523Y-65555809D01*
X116554285Y-65603428D01*
X116363809Y-65603428D01*
X116268571Y-65555809D01*
X116220952Y-65508190D01*
X116173333Y-65412952D01*
%TO.C,J5*%
X80304380Y-134286666D02*
X81018666Y-134286666D01*
X81161523Y-134239047D01*
X81256761Y-134143809D01*
X81304380Y-134000952D01*
X81304380Y-133905714D01*
X80304380Y-135239047D02*
X80304380Y-134762857D01*
X80780571Y-134715238D01*
X80732952Y-134762857D01*
X80685333Y-134858095D01*
X80685333Y-135096190D01*
X80732952Y-135191428D01*
X80780571Y-135239047D01*
X80875809Y-135286666D01*
X81113904Y-135286666D01*
X81209142Y-135239047D01*
X81256761Y-135191428D01*
X81304380Y-135096190D01*
X81304380Y-134858095D01*
X81256761Y-134762857D01*
X81209142Y-134715238D01*
%TO.C,J6*%
X86185333Y-120022380D02*
X86185333Y-120736666D01*
X86232952Y-120879523D01*
X86328190Y-120974761D01*
X86471047Y-121022380D01*
X86566285Y-121022380D01*
X85280571Y-120022380D02*
X85471047Y-120022380D01*
X85566285Y-120070000D01*
X85613904Y-120117619D01*
X85709142Y-120260476D01*
X85756761Y-120450952D01*
X85756761Y-120831904D01*
X85709142Y-120927142D01*
X85661523Y-120974761D01*
X85566285Y-121022380D01*
X85375809Y-121022380D01*
X85280571Y-120974761D01*
X85232952Y-120927142D01*
X85185333Y-120831904D01*
X85185333Y-120593809D01*
X85232952Y-120498571D01*
X85280571Y-120450952D01*
X85375809Y-120403333D01*
X85566285Y-120403333D01*
X85661523Y-120450952D01*
X85709142Y-120498571D01*
X85756761Y-120593809D01*
%TO.C,J2*%
X80304380Y-172386666D02*
X81018666Y-172386666D01*
X81161523Y-172339047D01*
X81256761Y-172243809D01*
X81304380Y-172100952D01*
X81304380Y-172005714D01*
X80399619Y-172815238D02*
X80352000Y-172862857D01*
X80304380Y-172958095D01*
X80304380Y-173196190D01*
X80352000Y-173291428D01*
X80399619Y-173339047D01*
X80494857Y-173386666D01*
X80590095Y-173386666D01*
X80732952Y-173339047D01*
X81304380Y-172767619D01*
X81304380Y-173386666D01*
D11*
%TO.C,J1*%
X89916000Y-99568000D02*
X89916000Y-96520000D01*
X85852000Y-100584000D02*
X88900000Y-100584000D01*
X88900000Y-100584000D02*
G75*
G03*
X89916000Y-99568000I-2J1016002D01*
G01*
X89916000Y-96520000D02*
G75*
G03*
X85852000Y-100584000I-4064000J0D01*
G01*
%TO.C,J4*%
X89916000Y-42418000D02*
X89916000Y-39370000D01*
X85852000Y-43434000D02*
X88900000Y-43434000D01*
X89916000Y-39370000D02*
G75*
G03*
X85852000Y-43434000I-4064000J0D01*
G01*
X88900000Y-43434000D02*
G75*
G03*
X89916000Y-42418000I-2J1016002D01*
G01*
%TO.C,J3*%
X85852000Y-62484000D02*
X88900000Y-62484000D01*
X89916000Y-61468000D02*
X89916000Y-58420000D01*
X88900000Y-62484000D02*
G75*
G03*
X89916000Y-61468000I-2J1016002D01*
G01*
X89916000Y-58420000D02*
G75*
G03*
X85852000Y-62484000I-4064000J0D01*
G01*
%TO.C,J10*%
X110236000Y-145348000D02*
X117916000Y-145348000D01*
X108966000Y-142688000D02*
X107636000Y-142688000D01*
X117916000Y-142688000D02*
X117916000Y-145348000D01*
X110236000Y-142688000D02*
X110236000Y-145348000D01*
X107636000Y-142688000D02*
X107636000Y-144018000D01*
X110236000Y-142688000D02*
X117916000Y-142688000D01*
%TO.C,RV2*%
X90732000Y-160290000D02*
X90732000Y-155570000D01*
X80982000Y-148700000D02*
X90722000Y-148700000D01*
X80982000Y-151760000D02*
X80982000Y-148700000D01*
X80982000Y-160290000D02*
X80982000Y-155570000D01*
X89542000Y-160290000D02*
X90722000Y-160290000D01*
X85852000Y-153170000D02*
X85852000Y-154170000D01*
X80982000Y-160290000D02*
X82472000Y-160290000D01*
X85352000Y-153670000D02*
X86352000Y-153670000D01*
X90722000Y-151760000D02*
X90722000Y-148700000D01*
X86642000Y-160290000D02*
X87172000Y-160290000D01*
X84192000Y-160290000D02*
X85022000Y-160290000D01*
%TO.C,J11*%
X119850000Y-38590000D02*
X119850000Y-37990000D01*
X122030000Y-38590000D02*
X111650000Y-38590000D01*
X111360000Y-37560000D02*
X111360000Y-33560000D01*
X113030000Y-33570000D02*
X113280000Y-34100000D01*
X117310000Y-37990000D02*
X118910000Y-37990000D01*
X116370000Y-37990000D02*
X116370000Y-38590000D01*
X113830000Y-37990000D02*
X113830000Y-38590000D01*
X113280000Y-32570000D02*
X113280000Y-33570000D01*
X118910000Y-37990000D02*
X118910000Y-38590000D01*
X119850000Y-37990000D02*
X121450000Y-37990000D01*
X112230000Y-37990000D02*
X113830000Y-37990000D01*
X122030000Y-32570000D02*
X122030000Y-38590000D01*
X117310000Y-38590000D02*
X117310000Y-37990000D01*
X113280000Y-34100000D02*
X120400000Y-34100000D01*
X114770000Y-37990000D02*
X116370000Y-37990000D01*
X120650000Y-33570000D02*
X120650000Y-32570000D01*
X112230000Y-38590000D02*
X112230000Y-37990000D01*
X111650000Y-32570000D02*
X122030000Y-32570000D01*
X120400000Y-34100000D02*
X120650000Y-33570000D01*
X113030000Y-32570000D02*
X113030000Y-33570000D01*
X113030000Y-33570000D02*
X120650000Y-33570000D01*
X111650000Y-38590000D02*
X111650000Y-32570000D01*
X114770000Y-38590000D02*
X114770000Y-37990000D01*
X121450000Y-37990000D02*
X121450000Y-38590000D01*
X120400000Y-32570000D02*
X120400000Y-33570000D01*
%TO.C,RV1*%
X85852000Y-76970000D02*
X85852000Y-77970000D01*
X80982000Y-84090000D02*
X80982000Y-79370000D01*
X84192000Y-84090000D02*
X85022000Y-84090000D01*
X86642000Y-84090000D02*
X87172000Y-84090000D01*
X80982000Y-75560000D02*
X80982000Y-72500000D01*
X89542000Y-84090000D02*
X90722000Y-84090000D01*
X90722000Y-75560000D02*
X90722000Y-72500000D01*
X80982000Y-84090000D02*
X82472000Y-84090000D01*
X80982000Y-72500000D02*
X90722000Y-72500000D01*
X90732000Y-84090000D02*
X90732000Y-79370000D01*
X85352000Y-77470000D02*
X86352000Y-77470000D01*
%TO.C,J9*%
X116840000Y-69402000D02*
X118170000Y-69402000D01*
X115570000Y-69402000D02*
X107890000Y-69402000D01*
X115570000Y-69402000D02*
X115570000Y-66742000D01*
X115570000Y-66742000D02*
X107890000Y-66742000D01*
X118170000Y-69402000D02*
X118170000Y-68072000D01*
X107890000Y-69402000D02*
X107890000Y-66742000D01*
%TO.C,J5*%
X82804000Y-138684000D02*
X85852000Y-138684000D01*
X81788000Y-134620000D02*
X81788000Y-137668000D01*
X81788000Y-137668000D02*
G75*
G03*
X82804000Y-138684000I1016002J2D01*
G01*
X85852000Y-138684000D02*
G75*
G03*
X81788000Y-134620000I0J4064000D01*
G01*
%TO.C,J6*%
X89916000Y-118618000D02*
X89916000Y-115570000D01*
X85852000Y-119634000D02*
X88900000Y-119634000D01*
X89916000Y-115570000D02*
G75*
G03*
X85852000Y-119634000I-4064000J0D01*
G01*
X88900000Y-119634000D02*
G75*
G03*
X89916000Y-118618000I-2J1016002D01*
G01*
%TO.C,J2*%
X81788000Y-172720000D02*
X81788000Y-175768000D01*
X82804000Y-176784000D02*
X85852000Y-176784000D01*
X85852000Y-176784000D02*
G75*
G03*
X81788000Y-172720000I0J4064000D01*
G01*
X81788000Y-175768000D02*
G75*
G03*
X82804000Y-176784000I1016002J2D01*
G01*
%TD*%
M02*
