M48
; DRILL file {KiCad (6.0.6-0)} date Friday, 02 September 2022 at 19:29:56
; FORMAT={-:-/ absolute / metric / decimal}
; #@! TF.CreationDate,2022-09-02T19:29:56+01:00
; #@! TF.GenerationSoftware,Kicad,Pcbnew,(6.0.6-0)
; #@! TF.FileFunction,MixedPlating,1,2
FMAT,2
METRIC
; #@! TA.AperFunction,Plated,PTH,ViaDrill
T1C0.381
; #@! TA.AperFunction,Plated,PTH,ComponentDrill
T2C0.800
; #@! TA.AperFunction,Plated,PTH,ComponentDrill
T3C1.000
; #@! TA.AperFunction,Plated,PTH,ComponentDrill
T4C1.100
; #@! TA.AperFunction,Plated,PTH,ComponentDrill
T5C1.190
; #@! TA.AperFunction,Plated,PTH,ComponentDrill
T6C3.200
; #@! TA.AperFunction,Plated,PTH,ComponentDrill
T7C5.100
; #@! TA.AperFunction,NonPlated,NPTH,ComponentDrill
T8C0.500
%
G90
G05
T1
X124.714Y-118.745
X130.81Y-77.47
X136.017Y-88.773
T2
X102.362Y-63.373
X102.362Y-95.377
X102.362Y-120.523
X102.362Y-139.573
X102.362Y-171.577
X108.458Y-44.323
X123.19Y-90.805
X123.19Y-100.965
X123.19Y-114.935
X123.19Y-125.095
X123.195Y-104.15
X123.195Y-111.77
X125.735Y-104.15
X125.735Y-111.77
X126.238Y-90.805
X126.238Y-100.965
X126.238Y-114.935
X126.238Y-125.095
X126.365Y-46.99
X128.275Y-104.15
X128.275Y-111.77
X128.365Y-46.99
X128.905Y-83.185
X128.905Y-86.233
X128.905Y-89.281
X128.905Y-92.329
X128.905Y-123.19
X128.905Y-126.238
X128.905Y-129.286
X128.905Y-132.334
X130.81Y-95.965
X130.81Y-100.965
X130.81Y-114.935
X130.81Y-119.935
X130.815Y-104.15
X130.815Y-111.77
X133.255Y-46.99
X133.355Y-104.15
X133.355Y-111.77
X135.255Y-46.99
X135.89Y-95.965
X135.89Y-100.965
X135.89Y-114.935
X135.89Y-119.935
X135.895Y-104.15
X135.895Y-111.77
X138.435Y-104.15
X138.435Y-111.77
X139.065Y-83.185
X139.065Y-86.233
X139.065Y-89.281
X139.065Y-92.329
X139.065Y-123.19
X139.065Y-126.238
X139.065Y-129.286
X139.065Y-132.334
T3
X96.52Y-139.065
X96.52Y-141.605
X96.52Y-144.145
X96.52Y-146.685
X101.6Y-69.85
X102.91Y-86.875
X102.91Y-163.075
X104.14Y-69.85
X105.41Y-86.875
X105.41Y-163.075
X106.68Y-69.85
X107.91Y-86.875
X107.91Y-163.075
X109.22Y-69.85
X121.92Y-139.065
X121.92Y-141.605
X121.92Y-144.145
X121.92Y-146.685
X127.0Y-69.85
X129.54Y-69.85
X132.08Y-69.85
X134.62Y-69.85
T4
X121.92Y-43.815
X121.92Y-53.975
X139.7Y-43.815
X139.7Y-53.975
T5
X123.825Y-36.215
X126.365Y-36.215
X128.905Y-36.215
X131.445Y-36.215
T6
X113.03Y-35.56
X113.03Y-180.34
X138.43Y-35.56
X138.43Y-180.34
T7
X105.41Y-41.275
X105.41Y-60.325
X105.41Y-98.425
X105.41Y-117.475
X105.41Y-136.525
X105.41Y-174.625
T8
X117.01Y-50.0
X117.01Y-50.8
X117.01Y-51.6
X117.01Y-69.05
X117.01Y-69.85
X117.01Y-70.65
X117.01Y-88.1
X117.01Y-88.9
X117.01Y-89.7
X117.01Y-107.15
X117.01Y-107.95
X117.01Y-108.75
X117.01Y-126.2
X117.01Y-127.0
X117.01Y-127.8
X117.01Y-145.25
X117.01Y-146.05
X117.01Y-146.85
X117.01Y-164.3
X117.01Y-165.1
X117.01Y-165.9
X119.21Y-50.0
X119.21Y-50.8
X119.21Y-51.6
X119.21Y-69.05
X119.21Y-69.85
X119.21Y-70.65
X119.21Y-88.1
X119.21Y-88.9
X119.21Y-89.7
X119.21Y-107.15
X119.21Y-107.95
X119.21Y-108.75
X119.21Y-126.2
X119.21Y-127.0
X119.21Y-127.8
X119.21Y-145.25
X119.21Y-146.05
X119.21Y-146.85
X119.21Y-164.3
X119.21Y-165.1
X119.21Y-165.9
T4
G00X100.61Y-79.025
M15
G01X100.61Y-79.725
M16
G05
G00X100.61Y-155.225
M15
G01X100.61Y-155.925
M16
G05
G00X110.21Y-79.025
M15
G01X110.21Y-79.725
M16
G05
G00X110.21Y-155.225
M15
G01X110.21Y-155.925
M16
G05
T0
M30
