M48
; DRILL file {KiCad (6.0.0-0)} date Friday, 17 June 2022 at 05:53:13
; FORMAT={-:-/ absolute / metric / decimal}
; #@! TF.CreationDate,2022-06-17T05:53:13+01:00
; #@! TF.GenerationSoftware,Kicad,Pcbnew,(6.0.0-0)
; #@! TF.FileFunction,MixedPlating,1,2
FMAT,2
METRIC
; #@! TA.AperFunction,Plated,PTH,ComponentDrill
T1C0.800
; #@! TA.AperFunction,Plated,PTH,ComponentDrill
T2C1.000
; #@! TA.AperFunction,Plated,PTH,ComponentDrill
T3C1.100
; #@! TA.AperFunction,Plated,PTH,ComponentDrill
T4C1.190
; #@! TA.AperFunction,Plated,PTH,ComponentDrill
T5C1.800
; #@! TA.AperFunction,Plated,PTH,ComponentDrill
T6C3.200
; #@! TA.AperFunction,Plated,PTH,ComponentDrill
T7C5.100
; #@! TA.AperFunction,NonPlated,NPTH,ComponentDrill
T8C0.500
%
G90
G05
T1
X82.804Y-137.668
X82.804Y-175.768
X88.9Y-42.418
X88.9Y-61.468
X88.9Y-99.568
X88.9Y-118.618
X104.902Y-92.583
X104.902Y-100.203
X105.41Y-70.739
X105.41Y-80.899
X105.41Y-84.281
X105.41Y-89.281
X105.41Y-103.505
X105.41Y-108.505
X107.442Y-92.583
X107.442Y-100.203
X108.331Y-52.451
X108.966Y-79.375
X108.966Y-89.535
X108.966Y-103.251
X108.966Y-113.411
X108.966Y-116.205
X108.966Y-126.365
X109.982Y-92.583
X109.982Y-100.203
X110.331Y-52.451
X112.522Y-84.281
X112.522Y-89.281
X112.522Y-92.583
X112.522Y-100.203
X112.522Y-103.505
X112.522Y-108.505
X114.713Y-52.451
X115.062Y-92.583
X115.062Y-100.203
X116.713Y-52.451
X117.094Y-79.375
X117.094Y-89.535
X117.094Y-103.251
X117.094Y-113.411
X117.602Y-92.583
X117.602Y-100.203
X120.142Y-79.375
X120.142Y-89.535
X120.142Y-92.583
X120.142Y-100.203
X120.142Y-103.251
X120.142Y-113.411
T2
X82.296Y-144.018
X82.55Y-68.072
X83.352Y-84.97
X83.352Y-161.17
X84.836Y-144.018
X85.09Y-68.072
X85.852Y-84.97
X85.852Y-161.17
X87.376Y-144.018
X87.63Y-68.072
X88.352Y-84.97
X88.352Y-161.17
X89.916Y-144.018
X90.17Y-68.072
X108.966Y-144.018
X109.22Y-68.072
X111.506Y-144.018
X111.76Y-68.072
X114.046Y-144.018
X114.3Y-68.072
X116.586Y-144.018
X116.84Y-68.072
T3
X104.521Y-42.291
X104.521Y-52.451
X120.65Y-42.291
X120.65Y-52.451
T4
X113.03Y-35.56
X115.57Y-35.56
X118.11Y-35.56
X120.65Y-35.56
T5
X81.052Y-77.47
X81.052Y-153.67
X90.652Y-77.47
X90.652Y-153.67
T6
X77.47Y-34.798
X94.234Y-177.292
X104.14Y-34.798
X120.904Y-177.292
T7
X85.852Y-39.37
X85.852Y-58.42
X85.852Y-96.52
X85.852Y-115.57
X85.852Y-134.62
X85.852Y-172.72
T8
X98.087Y-47.841
X98.087Y-48.641
X98.087Y-49.441
X98.087Y-77.051
X98.087Y-77.851
X98.087Y-78.651
X98.087Y-105.626
X98.087Y-106.426
X98.087Y-107.226
X98.087Y-134.201
X98.087Y-135.001
X98.087Y-135.801
X98.087Y-162.903
X98.087Y-163.703
X98.087Y-164.503
X100.287Y-47.841
X100.287Y-48.641
X100.287Y-49.441
X100.287Y-77.051
X100.287Y-77.851
X100.287Y-78.651
X100.287Y-105.626
X100.287Y-106.426
X100.287Y-107.226
X100.287Y-134.201
X100.287Y-135.001
X100.287Y-135.801
X100.287Y-162.903
X100.287Y-163.703
X100.287Y-164.503
T0
M30
