%TF.GenerationSoftware,KiCad,Pcbnew,(6.0.0-0)*%
%TF.CreationDate,2022-06-17T05:53:11+01:00*%
%TF.ProjectId,4u-simple-integrator,34752d73-696d-4706-9c65-2d696e746567,r01*%
%TF.SameCoordinates,Original*%
%TF.FileFunction,Profile,NP*%
%FSLAX46Y46*%
G04 Gerber Fmt 4.6, Leading zero omitted, Abs format (unit mm)*
G04 Created by KiCad (PCBNEW (6.0.0-0)) date 2022-06-17 05:53:11*
%MOMM*%
%LPD*%
G01*
G04 APERTURE LIST*
%TA.AperFunction,Profile*%
%ADD10C,0.050000*%
%TD*%
G04 APERTURE END LIST*
D10*
X74295000Y-31115000D02*
X97409000Y-31115000D01*
X97917000Y-104140000D02*
G75*
G03*
X100457000Y-104140000I1270000J0D01*
G01*
X74295000Y-31115000D02*
G75*
G03*
X73787000Y-31623000I1J-508001D01*
G01*
X73787000Y-180467000D02*
G75*
G03*
X74295000Y-180975000I508001J1D01*
G01*
X124587000Y-180467000D02*
X124587000Y-31623000D01*
X74295000Y-180975000D02*
X97409000Y-180975000D01*
X124587000Y-31623000D02*
G75*
G03*
X124079000Y-31115000I-508001J-1D01*
G01*
X100457000Y-80137000D02*
G75*
G03*
X97917000Y-80137000I-1270000J0D01*
G01*
X97917000Y-132715000D02*
X97917000Y-108712000D01*
X100457000Y-50927000D02*
G75*
G03*
X97917000Y-50927000I-1270000J0D01*
G01*
X97917000Y-132715000D02*
G75*
G03*
X100457000Y-132715000I1270000J0D01*
G01*
X124079000Y-180975000D02*
G75*
G03*
X124587000Y-180467000I-1J508001D01*
G01*
X97917000Y-46355000D02*
G75*
G03*
X100457000Y-46355000I1270000J0D01*
G01*
X97917000Y-46355000D02*
X97917000Y-31623000D01*
X97917000Y-75565000D02*
X97917000Y-50927000D01*
X97917000Y-104140000D02*
X97917000Y-80137000D01*
X100457000Y-137287000D02*
X100457000Y-161417000D01*
X97917000Y-31623000D02*
G75*
G03*
X97409000Y-31115000I-508001J-1D01*
G01*
X100965000Y-31115000D02*
X124079000Y-31115000D01*
X100457000Y-50927000D02*
X100457000Y-75565000D01*
X97409000Y-180975000D02*
G75*
G03*
X97917000Y-180467000I-1J508001D01*
G01*
X100457000Y-80137000D02*
X100457000Y-104140000D01*
X100457000Y-180467000D02*
G75*
G03*
X100965000Y-180975000I508001J1D01*
G01*
X73787000Y-31623000D02*
X73787000Y-180467000D01*
X100457000Y-137287000D02*
G75*
G03*
X97917000Y-137287000I-1270000J0D01*
G01*
X100965000Y-180975000D02*
X124079000Y-180975000D01*
X97917000Y-75565000D02*
G75*
G03*
X100457000Y-75565000I1270000J0D01*
G01*
X100457000Y-108712000D02*
X100457000Y-132715000D01*
X100457000Y-165989000D02*
G75*
G03*
X97917000Y-165989000I-1270000J0D01*
G01*
X97917000Y-161417000D02*
X97917000Y-137287000D01*
X100965000Y-31115000D02*
G75*
G03*
X100457000Y-31623000I1J-508001D01*
G01*
X100457000Y-165989000D02*
X100457000Y-180467000D01*
X97917000Y-180467000D02*
X97917000Y-165989000D01*
X100457000Y-31623000D02*
X100457000Y-46355000D01*
X100457000Y-108712000D02*
G75*
G03*
X97917000Y-108712000I-1270000J0D01*
G01*
X97917000Y-161417000D02*
G75*
G03*
X100457000Y-161417000I1270000J0D01*
G01*
M02*
