%TF.GenerationSoftware,KiCad,Pcbnew,(5.1.8-0-10_14)*%
%TF.CreationDate,2021-01-31T16:12:45+00:00*%
%TF.ProjectId,dc-mixer,64632d6d-6978-4657-922e-6b696361645f,rev?*%
%TF.SameCoordinates,Original*%
%TF.FileFunction,Legend,Top*%
%TF.FilePolarity,Positive*%
%FSLAX46Y46*%
G04 Gerber Fmt 4.6, Leading zero omitted, Abs format (unit mm)*
G04 Created by KiCad (PCBNEW (5.1.8-0-10_14)) date 2021-01-31 16:12:45*
%MOMM*%
%LPD*%
G01*
G04 APERTURE LIST*
%ADD10C,0.150000*%
%ADD11C,0.120000*%
%ADD12C,0.152400*%
G04 APERTURE END LIST*
D10*
X144859523Y-105195714D02*
X145097619Y-105862380D01*
X145335714Y-105195714D01*
X145907142Y-104862380D02*
X146002380Y-104862380D01*
X146097619Y-104910000D01*
X146145238Y-104957619D01*
X146192857Y-105052857D01*
X146240476Y-105243333D01*
X146240476Y-105481428D01*
X146192857Y-105671904D01*
X146145238Y-105767142D01*
X146097619Y-105814761D01*
X146002380Y-105862380D01*
X145907142Y-105862380D01*
X145811904Y-105814761D01*
X145764285Y-105767142D01*
X145716666Y-105671904D01*
X145669047Y-105481428D01*
X145669047Y-105243333D01*
X145716666Y-105052857D01*
X145764285Y-104957619D01*
X145811904Y-104910000D01*
X145907142Y-104862380D01*
X147192857Y-105862380D02*
X146621428Y-105862380D01*
X146907142Y-105862380D02*
X146907142Y-104862380D01*
X146811904Y-105005238D01*
X146716666Y-105100476D01*
X146621428Y-105148095D01*
X146383428Y-115022380D02*
X146478666Y-115022380D01*
X146573904Y-115070000D01*
X146621523Y-115117619D01*
X146669142Y-115212857D01*
X146716761Y-115403333D01*
X146716761Y-115641428D01*
X146669142Y-115831904D01*
X146621523Y-115927142D01*
X146573904Y-115974761D01*
X146478666Y-116022380D01*
X146383428Y-116022380D01*
X146288190Y-115974761D01*
X146240571Y-115927142D01*
X146192952Y-115831904D01*
X146145333Y-115641428D01*
X146145333Y-115403333D01*
X146192952Y-115212857D01*
X146240571Y-115117619D01*
X146288190Y-115070000D01*
X146383428Y-115022380D01*
X147050095Y-115355714D02*
X147288190Y-116022380D01*
X147526285Y-115355714D01*
X146383428Y-112482380D02*
X146478666Y-112482380D01*
X146573904Y-112530000D01*
X146621523Y-112577619D01*
X146669142Y-112672857D01*
X146716761Y-112863333D01*
X146716761Y-113101428D01*
X146669142Y-113291904D01*
X146621523Y-113387142D01*
X146573904Y-113434761D01*
X146478666Y-113482380D01*
X146383428Y-113482380D01*
X146288190Y-113434761D01*
X146240571Y-113387142D01*
X146192952Y-113291904D01*
X146145333Y-113101428D01*
X146145333Y-112863333D01*
X146192952Y-112672857D01*
X146240571Y-112577619D01*
X146288190Y-112530000D01*
X146383428Y-112482380D01*
X147050095Y-112815714D02*
X147288190Y-113482380D01*
X147526285Y-112815714D01*
X147129714Y-120467428D02*
X147891619Y-120467428D01*
X148891619Y-120848380D02*
X148320190Y-120848380D01*
X148605904Y-120848380D02*
X148605904Y-119848380D01*
X148510666Y-119991238D01*
X148415428Y-120086476D01*
X148320190Y-120134095D01*
X149272571Y-119943619D02*
X149320190Y-119896000D01*
X149415428Y-119848380D01*
X149653523Y-119848380D01*
X149748761Y-119896000D01*
X149796380Y-119943619D01*
X149844000Y-120038857D01*
X149844000Y-120134095D01*
X149796380Y-120276952D01*
X149224952Y-120848380D01*
X149844000Y-120848380D01*
X150177333Y-120181714D02*
X150415428Y-120848380D01*
X150653523Y-120181714D01*
X147129714Y-108275428D02*
X147891619Y-108275428D01*
X147510666Y-108656380D02*
X147510666Y-107894476D01*
X148891619Y-108656380D02*
X148320190Y-108656380D01*
X148605904Y-108656380D02*
X148605904Y-107656380D01*
X148510666Y-107799238D01*
X148415428Y-107894476D01*
X148320190Y-107942095D01*
X149272571Y-107751619D02*
X149320190Y-107704000D01*
X149415428Y-107656380D01*
X149653523Y-107656380D01*
X149748761Y-107704000D01*
X149796380Y-107751619D01*
X149844000Y-107846857D01*
X149844000Y-107942095D01*
X149796380Y-108084952D01*
X149224952Y-108656380D01*
X149844000Y-108656380D01*
X150177333Y-107989714D02*
X150415428Y-108656380D01*
X150653523Y-107989714D01*
X144732761Y-104338380D02*
X144732761Y-103338380D01*
X144970857Y-103338380D01*
X145113714Y-103386000D01*
X145208952Y-103481238D01*
X145256571Y-103576476D01*
X145304190Y-103766952D01*
X145304190Y-103909809D01*
X145256571Y-104100285D01*
X145208952Y-104195523D01*
X145113714Y-104290761D01*
X144970857Y-104338380D01*
X144732761Y-104338380D01*
X146304190Y-104243142D02*
X146256571Y-104290761D01*
X146113714Y-104338380D01*
X146018476Y-104338380D01*
X145875619Y-104290761D01*
X145780380Y-104195523D01*
X145732761Y-104100285D01*
X145685142Y-103909809D01*
X145685142Y-103766952D01*
X145732761Y-103576476D01*
X145780380Y-103481238D01*
X145875619Y-103386000D01*
X146018476Y-103338380D01*
X146113714Y-103338380D01*
X146256571Y-103386000D01*
X146304190Y-103433619D01*
X147494666Y-104338380D02*
X147494666Y-103338380D01*
X147828000Y-104052666D01*
X148161333Y-103338380D01*
X148161333Y-104338380D01*
X148637523Y-104338380D02*
X148637523Y-103671714D01*
X148637523Y-103338380D02*
X148589904Y-103386000D01*
X148637523Y-103433619D01*
X148685142Y-103386000D01*
X148637523Y-103338380D01*
X148637523Y-103433619D01*
X149018476Y-104338380D02*
X149542285Y-103671714D01*
X149018476Y-103671714D02*
X149542285Y-104338380D01*
X150304190Y-104290761D02*
X150208952Y-104338380D01*
X150018476Y-104338380D01*
X149923238Y-104290761D01*
X149875619Y-104195523D01*
X149875619Y-103814571D01*
X149923238Y-103719333D01*
X150018476Y-103671714D01*
X150208952Y-103671714D01*
X150304190Y-103719333D01*
X150351809Y-103814571D01*
X150351809Y-103909809D01*
X149875619Y-104005047D01*
X150780380Y-104338380D02*
X150780380Y-103671714D01*
X150780380Y-103862190D02*
X150828000Y-103766952D01*
X150875619Y-103719333D01*
X150970857Y-103671714D01*
X151066095Y-103671714D01*
D11*
%TO.C,C1*%
X144618000Y-107084000D02*
X144618000Y-114324000D01*
X140878000Y-107084000D02*
X140878000Y-114324000D01*
X144618000Y-107084000D02*
X140878000Y-107084000D01*
X144618000Y-114324000D02*
X140878000Y-114324000D01*
%TO.C,C2*%
X144618000Y-122325000D02*
X140878000Y-122325000D01*
X144618000Y-115085000D02*
X140878000Y-115085000D01*
X140878000Y-115085000D02*
X140878000Y-122325000D01*
X144618000Y-115085000D02*
X144618000Y-122325000D01*
D12*
%TO.C,J1*%
X110236000Y-120904000D02*
X110236000Y-124714000D01*
X110744000Y-120396000D02*
X110236000Y-120904000D01*
X112776000Y-120396000D02*
X110744000Y-120396000D01*
X113284000Y-120904000D02*
X112776000Y-120396000D01*
X113284000Y-124714000D02*
X113284000Y-120904000D01*
X113284000Y-124714000D02*
G75*
G02*
X110236000Y-124714000I-1524000J0D01*
G01*
%TO.C,J2*%
X117094000Y-124714000D02*
X117094000Y-120904000D01*
X117094000Y-120904000D02*
X116586000Y-120396000D01*
X116586000Y-120396000D02*
X114554000Y-120396000D01*
X114554000Y-120396000D02*
X114046000Y-120904000D01*
X114046000Y-120904000D02*
X114046000Y-124714000D01*
X117094000Y-124714000D02*
G75*
G02*
X114046000Y-124714000I-1524000J0D01*
G01*
%TO.C,J3*%
X117856000Y-120904000D02*
X117856000Y-124714000D01*
X118364000Y-120396000D02*
X117856000Y-120904000D01*
X120396000Y-120396000D02*
X118364000Y-120396000D01*
X120904000Y-120904000D02*
X120396000Y-120396000D01*
X120904000Y-124714000D02*
X120904000Y-120904000D01*
X120904000Y-124714000D02*
G75*
G02*
X117856000Y-124714000I-1524000J0D01*
G01*
%TO.C,J4*%
X124714000Y-124714000D02*
X124714000Y-120904000D01*
X124714000Y-120904000D02*
X124206000Y-120396000D01*
X124206000Y-120396000D02*
X122174000Y-120396000D01*
X122174000Y-120396000D02*
X121666000Y-120904000D01*
X121666000Y-120904000D02*
X121666000Y-124714000D01*
X124714000Y-124714000D02*
G75*
G02*
X121666000Y-124714000I-1524000J0D01*
G01*
%TO.C,J5*%
X132334000Y-124714000D02*
X132334000Y-120904000D01*
X132334000Y-120904000D02*
X131826000Y-120396000D01*
X131826000Y-120396000D02*
X129794000Y-120396000D01*
X129794000Y-120396000D02*
X129286000Y-120904000D01*
X129286000Y-120904000D02*
X129286000Y-124714000D01*
X132334000Y-124714000D02*
G75*
G02*
X129286000Y-124714000I-1524000J0D01*
G01*
%TO.C,J6*%
X133096000Y-120904000D02*
X133096000Y-124714000D01*
X133604000Y-120396000D02*
X133096000Y-120904000D01*
X135636000Y-120396000D02*
X133604000Y-120396000D01*
X136144000Y-120904000D02*
X135636000Y-120396000D01*
X136144000Y-124714000D02*
X136144000Y-120904000D01*
X136144000Y-124714000D02*
G75*
G02*
X133096000Y-124714000I-1524000J0D01*
G01*
%TO.C,OUT*%
X136906000Y-120904000D02*
X136906000Y-124714000D01*
X137414000Y-120396000D02*
X136906000Y-120904000D01*
X139446000Y-120396000D02*
X137414000Y-120396000D01*
X139954000Y-120904000D02*
X139446000Y-120396000D01*
X139954000Y-124714000D02*
X139954000Y-120904000D01*
X139954000Y-124714000D02*
G75*
G02*
X136906000Y-124714000I-1524000J0D01*
G01*
D11*
%TO.C,J8*%
X148530000Y-109160000D02*
X149860000Y-109160000D01*
X148530000Y-110490000D02*
X148530000Y-109160000D01*
X148530000Y-111760000D02*
X151190000Y-111760000D01*
X151190000Y-111760000D02*
X151190000Y-119440000D01*
X148530000Y-111760000D02*
X148530000Y-119440000D01*
X148530000Y-119440000D02*
X151190000Y-119440000D01*
D12*
%TO.C,GND*%
X128524000Y-124714000D02*
X128524000Y-120904000D01*
X128524000Y-120904000D02*
X128016000Y-120396000D01*
X128016000Y-120396000D02*
X125984000Y-120396000D01*
X125984000Y-120396000D02*
X125476000Y-120904000D01*
X125476000Y-120904000D02*
X125476000Y-124714000D01*
X128524000Y-124714000D02*
G75*
G02*
X125476000Y-124714000I-1524000J0D01*
G01*
D11*
%TO.C,R1*%
X110390000Y-117570000D02*
X110720000Y-117570000D01*
X110390000Y-111030000D02*
X110390000Y-117570000D01*
X110720000Y-111030000D02*
X110390000Y-111030000D01*
X113130000Y-117570000D02*
X112800000Y-117570000D01*
X113130000Y-111030000D02*
X113130000Y-117570000D01*
X112800000Y-111030000D02*
X113130000Y-111030000D01*
%TO.C,R2*%
X115975000Y-111030000D02*
X116305000Y-111030000D01*
X116305000Y-111030000D02*
X116305000Y-117570000D01*
X116305000Y-117570000D02*
X115975000Y-117570000D01*
X113895000Y-111030000D02*
X113565000Y-111030000D01*
X113565000Y-111030000D02*
X113565000Y-117570000D01*
X113565000Y-117570000D02*
X113895000Y-117570000D01*
%TO.C,R3*%
X116740000Y-117570000D02*
X117070000Y-117570000D01*
X116740000Y-111030000D02*
X116740000Y-117570000D01*
X117070000Y-111030000D02*
X116740000Y-111030000D01*
X119480000Y-117570000D02*
X119150000Y-117570000D01*
X119480000Y-111030000D02*
X119480000Y-117570000D01*
X119150000Y-111030000D02*
X119480000Y-111030000D01*
%TO.C,R4*%
X122325000Y-111030000D02*
X122655000Y-111030000D01*
X122655000Y-111030000D02*
X122655000Y-117570000D01*
X122655000Y-117570000D02*
X122325000Y-117570000D01*
X120245000Y-111030000D02*
X119915000Y-111030000D01*
X119915000Y-111030000D02*
X119915000Y-117570000D01*
X119915000Y-117570000D02*
X120245000Y-117570000D01*
%TO.C,R5*%
X112300000Y-105945000D02*
X112300000Y-106275000D01*
X118840000Y-105945000D02*
X112300000Y-105945000D01*
X118840000Y-106275000D02*
X118840000Y-105945000D01*
X112300000Y-108685000D02*
X112300000Y-108355000D01*
X118840000Y-108685000D02*
X112300000Y-108685000D01*
X118840000Y-108355000D02*
X118840000Y-108685000D01*
%TO.C,R6*%
X118840000Y-105180000D02*
X118840000Y-105510000D01*
X118840000Y-105510000D02*
X112300000Y-105510000D01*
X112300000Y-105510000D02*
X112300000Y-105180000D01*
X118840000Y-103100000D02*
X118840000Y-102770000D01*
X118840000Y-102770000D02*
X112300000Y-102770000D01*
X112300000Y-102770000D02*
X112300000Y-103100000D01*
%TO.C,R7*%
X124365000Y-102770000D02*
X124365000Y-103100000D01*
X130905000Y-102770000D02*
X124365000Y-102770000D01*
X130905000Y-103100000D02*
X130905000Y-102770000D01*
X124365000Y-105510000D02*
X124365000Y-105180000D01*
X130905000Y-105510000D02*
X124365000Y-105510000D01*
X130905000Y-105180000D02*
X130905000Y-105510000D01*
%TO.C,R8*%
X141700000Y-105510000D02*
X141700000Y-105180000D01*
X135160000Y-105510000D02*
X141700000Y-105510000D01*
X135160000Y-105180000D02*
X135160000Y-105510000D01*
X141700000Y-102770000D02*
X141700000Y-103100000D01*
X135160000Y-102770000D02*
X141700000Y-102770000D01*
X135160000Y-103100000D02*
X135160000Y-102770000D01*
%TO.C,U1*%
X136585000Y-107830000D02*
X126305000Y-107830000D01*
X136585000Y-118230000D02*
X136585000Y-107830000D01*
X126305000Y-118230000D02*
X136585000Y-118230000D01*
X126305000Y-107830000D02*
X126305000Y-118230000D01*
X134095000Y-107890000D02*
X132445000Y-107890000D01*
X134095000Y-118170000D02*
X134095000Y-107890000D01*
X128795000Y-118170000D02*
X134095000Y-118170000D01*
X128795000Y-107890000D02*
X128795000Y-118170000D01*
X130445000Y-107890000D02*
X128795000Y-107890000D01*
X132445000Y-107890000D02*
G75*
G02*
X130445000Y-107890000I-1000000J0D01*
G01*
%TO.C,C1*%
D10*
X143105142Y-110910666D02*
X143152761Y-110958285D01*
X143200380Y-111101142D01*
X143200380Y-111196380D01*
X143152761Y-111339238D01*
X143057523Y-111434476D01*
X142962285Y-111482095D01*
X142771809Y-111529714D01*
X142628952Y-111529714D01*
X142438476Y-111482095D01*
X142343238Y-111434476D01*
X142248000Y-111339238D01*
X142200380Y-111196380D01*
X142200380Y-111101142D01*
X142248000Y-110958285D01*
X142295619Y-110910666D01*
X143200380Y-109958285D02*
X143200380Y-110529714D01*
X143200380Y-110244000D02*
X142200380Y-110244000D01*
X142343238Y-110339238D01*
X142438476Y-110434476D01*
X142486095Y-110529714D01*
%TO.C,C2*%
X143105142Y-118871666D02*
X143152761Y-118919285D01*
X143200380Y-119062142D01*
X143200380Y-119157380D01*
X143152761Y-119300238D01*
X143057523Y-119395476D01*
X142962285Y-119443095D01*
X142771809Y-119490714D01*
X142628952Y-119490714D01*
X142438476Y-119443095D01*
X142343238Y-119395476D01*
X142248000Y-119300238D01*
X142200380Y-119157380D01*
X142200380Y-119062142D01*
X142248000Y-118919285D01*
X142295619Y-118871666D01*
X142295619Y-118490714D02*
X142248000Y-118443095D01*
X142200380Y-118347857D01*
X142200380Y-118109761D01*
X142248000Y-118014523D01*
X142295619Y-117966904D01*
X142390857Y-117919285D01*
X142486095Y-117919285D01*
X142628952Y-117966904D01*
X143200380Y-118538333D01*
X143200380Y-117919285D01*
%TO.C,J1*%
X111426666Y-119122380D02*
X111426666Y-119836666D01*
X111379047Y-119979523D01*
X111283809Y-120074761D01*
X111140952Y-120122380D01*
X111045714Y-120122380D01*
X112426666Y-120122380D02*
X111855238Y-120122380D01*
X112140952Y-120122380D02*
X112140952Y-119122380D01*
X112045714Y-119265238D01*
X111950476Y-119360476D01*
X111855238Y-119408095D01*
%TO.C,J2*%
X115236666Y-119122380D02*
X115236666Y-119836666D01*
X115189047Y-119979523D01*
X115093809Y-120074761D01*
X114950952Y-120122380D01*
X114855714Y-120122380D01*
X115665238Y-119217619D02*
X115712857Y-119170000D01*
X115808095Y-119122380D01*
X116046190Y-119122380D01*
X116141428Y-119170000D01*
X116189047Y-119217619D01*
X116236666Y-119312857D01*
X116236666Y-119408095D01*
X116189047Y-119550952D01*
X115617619Y-120122380D01*
X116236666Y-120122380D01*
%TO.C,J3*%
X119046666Y-119122380D02*
X119046666Y-119836666D01*
X118999047Y-119979523D01*
X118903809Y-120074761D01*
X118760952Y-120122380D01*
X118665714Y-120122380D01*
X119427619Y-119122380D02*
X120046666Y-119122380D01*
X119713333Y-119503333D01*
X119856190Y-119503333D01*
X119951428Y-119550952D01*
X119999047Y-119598571D01*
X120046666Y-119693809D01*
X120046666Y-119931904D01*
X119999047Y-120027142D01*
X119951428Y-120074761D01*
X119856190Y-120122380D01*
X119570476Y-120122380D01*
X119475238Y-120074761D01*
X119427619Y-120027142D01*
%TO.C,J4*%
X122856666Y-119122380D02*
X122856666Y-119836666D01*
X122809047Y-119979523D01*
X122713809Y-120074761D01*
X122570952Y-120122380D01*
X122475714Y-120122380D01*
X123761428Y-119455714D02*
X123761428Y-120122380D01*
X123523333Y-119074761D02*
X123285238Y-119789047D01*
X123904285Y-119789047D01*
%TO.C,J5*%
X130476666Y-119122380D02*
X130476666Y-119836666D01*
X130429047Y-119979523D01*
X130333809Y-120074761D01*
X130190952Y-120122380D01*
X130095714Y-120122380D01*
X131429047Y-119122380D02*
X130952857Y-119122380D01*
X130905238Y-119598571D01*
X130952857Y-119550952D01*
X131048095Y-119503333D01*
X131286190Y-119503333D01*
X131381428Y-119550952D01*
X131429047Y-119598571D01*
X131476666Y-119693809D01*
X131476666Y-119931904D01*
X131429047Y-120027142D01*
X131381428Y-120074761D01*
X131286190Y-120122380D01*
X131048095Y-120122380D01*
X130952857Y-120074761D01*
X130905238Y-120027142D01*
%TO.C,J6*%
X134286666Y-119122380D02*
X134286666Y-119836666D01*
X134239047Y-119979523D01*
X134143809Y-120074761D01*
X134000952Y-120122380D01*
X133905714Y-120122380D01*
X135191428Y-119122380D02*
X135000952Y-119122380D01*
X134905714Y-119170000D01*
X134858095Y-119217619D01*
X134762857Y-119360476D01*
X134715238Y-119550952D01*
X134715238Y-119931904D01*
X134762857Y-120027142D01*
X134810476Y-120074761D01*
X134905714Y-120122380D01*
X135096190Y-120122380D01*
X135191428Y-120074761D01*
X135239047Y-120027142D01*
X135286666Y-119931904D01*
X135286666Y-119693809D01*
X135239047Y-119598571D01*
X135191428Y-119550952D01*
X135096190Y-119503333D01*
X134905714Y-119503333D01*
X134810476Y-119550952D01*
X134762857Y-119598571D01*
X134715238Y-119693809D01*
%TO.C,OUT*%
X137430000Y-119122380D02*
X137620476Y-119122380D01*
X137715714Y-119170000D01*
X137810952Y-119265238D01*
X137858571Y-119455714D01*
X137858571Y-119789047D01*
X137810952Y-119979523D01*
X137715714Y-120074761D01*
X137620476Y-120122380D01*
X137430000Y-120122380D01*
X137334761Y-120074761D01*
X137239523Y-119979523D01*
X137191904Y-119789047D01*
X137191904Y-119455714D01*
X137239523Y-119265238D01*
X137334761Y-119170000D01*
X137430000Y-119122380D01*
X138287142Y-119122380D02*
X138287142Y-119931904D01*
X138334761Y-120027142D01*
X138382380Y-120074761D01*
X138477619Y-120122380D01*
X138668095Y-120122380D01*
X138763333Y-120074761D01*
X138810952Y-120027142D01*
X138858571Y-119931904D01*
X138858571Y-119122380D01*
X139191904Y-119122380D02*
X139763333Y-119122380D01*
X139477619Y-120122380D02*
X139477619Y-119122380D01*
%TO.C,GND*%
X126238095Y-119170000D02*
X126142857Y-119122380D01*
X126000000Y-119122380D01*
X125857142Y-119170000D01*
X125761904Y-119265238D01*
X125714285Y-119360476D01*
X125666666Y-119550952D01*
X125666666Y-119693809D01*
X125714285Y-119884285D01*
X125761904Y-119979523D01*
X125857142Y-120074761D01*
X126000000Y-120122380D01*
X126095238Y-120122380D01*
X126238095Y-120074761D01*
X126285714Y-120027142D01*
X126285714Y-119693809D01*
X126095238Y-119693809D01*
X126714285Y-120122380D02*
X126714285Y-119122380D01*
X127285714Y-120122380D01*
X127285714Y-119122380D01*
X127761904Y-120122380D02*
X127761904Y-119122380D01*
X128000000Y-119122380D01*
X128142857Y-119170000D01*
X128238095Y-119265238D01*
X128285714Y-119360476D01*
X128333333Y-119550952D01*
X128333333Y-119693809D01*
X128285714Y-119884285D01*
X128238095Y-119979523D01*
X128142857Y-120074761D01*
X128000000Y-120122380D01*
X127761904Y-120122380D01*
%TO.C,R1*%
X112212380Y-114466666D02*
X111736190Y-114800000D01*
X112212380Y-115038095D02*
X111212380Y-115038095D01*
X111212380Y-114657142D01*
X111260000Y-114561904D01*
X111307619Y-114514285D01*
X111402857Y-114466666D01*
X111545714Y-114466666D01*
X111640952Y-114514285D01*
X111688571Y-114561904D01*
X111736190Y-114657142D01*
X111736190Y-115038095D01*
X112212380Y-113514285D02*
X112212380Y-114085714D01*
X112212380Y-113800000D02*
X111212380Y-113800000D01*
X111355238Y-113895238D01*
X111450476Y-113990476D01*
X111498095Y-114085714D01*
%TO.C,R2*%
X115387380Y-114466666D02*
X114911190Y-114800000D01*
X115387380Y-115038095D02*
X114387380Y-115038095D01*
X114387380Y-114657142D01*
X114435000Y-114561904D01*
X114482619Y-114514285D01*
X114577857Y-114466666D01*
X114720714Y-114466666D01*
X114815952Y-114514285D01*
X114863571Y-114561904D01*
X114911190Y-114657142D01*
X114911190Y-115038095D01*
X114482619Y-114085714D02*
X114435000Y-114038095D01*
X114387380Y-113942857D01*
X114387380Y-113704761D01*
X114435000Y-113609523D01*
X114482619Y-113561904D01*
X114577857Y-113514285D01*
X114673095Y-113514285D01*
X114815952Y-113561904D01*
X115387380Y-114133333D01*
X115387380Y-113514285D01*
%TO.C,R3*%
X118562380Y-114466666D02*
X118086190Y-114800000D01*
X118562380Y-115038095D02*
X117562380Y-115038095D01*
X117562380Y-114657142D01*
X117610000Y-114561904D01*
X117657619Y-114514285D01*
X117752857Y-114466666D01*
X117895714Y-114466666D01*
X117990952Y-114514285D01*
X118038571Y-114561904D01*
X118086190Y-114657142D01*
X118086190Y-115038095D01*
X117562380Y-114133333D02*
X117562380Y-113514285D01*
X117943333Y-113847619D01*
X117943333Y-113704761D01*
X117990952Y-113609523D01*
X118038571Y-113561904D01*
X118133809Y-113514285D01*
X118371904Y-113514285D01*
X118467142Y-113561904D01*
X118514761Y-113609523D01*
X118562380Y-113704761D01*
X118562380Y-113990476D01*
X118514761Y-114085714D01*
X118467142Y-114133333D01*
%TO.C,R4*%
X121737380Y-114466666D02*
X121261190Y-114800000D01*
X121737380Y-115038095D02*
X120737380Y-115038095D01*
X120737380Y-114657142D01*
X120785000Y-114561904D01*
X120832619Y-114514285D01*
X120927857Y-114466666D01*
X121070714Y-114466666D01*
X121165952Y-114514285D01*
X121213571Y-114561904D01*
X121261190Y-114657142D01*
X121261190Y-115038095D01*
X121070714Y-113609523D02*
X121737380Y-113609523D01*
X120689761Y-113847619D02*
X121404047Y-114085714D01*
X121404047Y-113466666D01*
%TO.C,R5*%
X115403333Y-107767380D02*
X115070000Y-107291190D01*
X114831904Y-107767380D02*
X114831904Y-106767380D01*
X115212857Y-106767380D01*
X115308095Y-106815000D01*
X115355714Y-106862619D01*
X115403333Y-106957857D01*
X115403333Y-107100714D01*
X115355714Y-107195952D01*
X115308095Y-107243571D01*
X115212857Y-107291190D01*
X114831904Y-107291190D01*
X116308095Y-106767380D02*
X115831904Y-106767380D01*
X115784285Y-107243571D01*
X115831904Y-107195952D01*
X115927142Y-107148333D01*
X116165238Y-107148333D01*
X116260476Y-107195952D01*
X116308095Y-107243571D01*
X116355714Y-107338809D01*
X116355714Y-107576904D01*
X116308095Y-107672142D01*
X116260476Y-107719761D01*
X116165238Y-107767380D01*
X115927142Y-107767380D01*
X115831904Y-107719761D01*
X115784285Y-107672142D01*
%TO.C,R6*%
X115403333Y-104592380D02*
X115070000Y-104116190D01*
X114831904Y-104592380D02*
X114831904Y-103592380D01*
X115212857Y-103592380D01*
X115308095Y-103640000D01*
X115355714Y-103687619D01*
X115403333Y-103782857D01*
X115403333Y-103925714D01*
X115355714Y-104020952D01*
X115308095Y-104068571D01*
X115212857Y-104116190D01*
X114831904Y-104116190D01*
X116260476Y-103592380D02*
X116070000Y-103592380D01*
X115974761Y-103640000D01*
X115927142Y-103687619D01*
X115831904Y-103830476D01*
X115784285Y-104020952D01*
X115784285Y-104401904D01*
X115831904Y-104497142D01*
X115879523Y-104544761D01*
X115974761Y-104592380D01*
X116165238Y-104592380D01*
X116260476Y-104544761D01*
X116308095Y-104497142D01*
X116355714Y-104401904D01*
X116355714Y-104163809D01*
X116308095Y-104068571D01*
X116260476Y-104020952D01*
X116165238Y-103973333D01*
X115974761Y-103973333D01*
X115879523Y-104020952D01*
X115831904Y-104068571D01*
X115784285Y-104163809D01*
%TO.C,R7*%
X127468333Y-104592380D02*
X127135000Y-104116190D01*
X126896904Y-104592380D02*
X126896904Y-103592380D01*
X127277857Y-103592380D01*
X127373095Y-103640000D01*
X127420714Y-103687619D01*
X127468333Y-103782857D01*
X127468333Y-103925714D01*
X127420714Y-104020952D01*
X127373095Y-104068571D01*
X127277857Y-104116190D01*
X126896904Y-104116190D01*
X127801666Y-103592380D02*
X128468333Y-103592380D01*
X128039761Y-104592380D01*
%TO.C,R8*%
X138263333Y-104592380D02*
X137930000Y-104116190D01*
X137691904Y-104592380D02*
X137691904Y-103592380D01*
X138072857Y-103592380D01*
X138168095Y-103640000D01*
X138215714Y-103687619D01*
X138263333Y-103782857D01*
X138263333Y-103925714D01*
X138215714Y-104020952D01*
X138168095Y-104068571D01*
X138072857Y-104116190D01*
X137691904Y-104116190D01*
X138834761Y-104020952D02*
X138739523Y-103973333D01*
X138691904Y-103925714D01*
X138644285Y-103830476D01*
X138644285Y-103782857D01*
X138691904Y-103687619D01*
X138739523Y-103640000D01*
X138834761Y-103592380D01*
X139025238Y-103592380D01*
X139120476Y-103640000D01*
X139168095Y-103687619D01*
X139215714Y-103782857D01*
X139215714Y-103830476D01*
X139168095Y-103925714D01*
X139120476Y-103973333D01*
X139025238Y-104020952D01*
X138834761Y-104020952D01*
X138739523Y-104068571D01*
X138691904Y-104116190D01*
X138644285Y-104211428D01*
X138644285Y-104401904D01*
X138691904Y-104497142D01*
X138739523Y-104544761D01*
X138834761Y-104592380D01*
X139025238Y-104592380D01*
X139120476Y-104544761D01*
X139168095Y-104497142D01*
X139215714Y-104401904D01*
X139215714Y-104211428D01*
X139168095Y-104116190D01*
X139120476Y-104068571D01*
X139025238Y-104020952D01*
%TO.C,U1*%
X130683095Y-106342380D02*
X130683095Y-107151904D01*
X130730714Y-107247142D01*
X130778333Y-107294761D01*
X130873571Y-107342380D01*
X131064047Y-107342380D01*
X131159285Y-107294761D01*
X131206904Y-107247142D01*
X131254523Y-107151904D01*
X131254523Y-106342380D01*
X132254523Y-107342380D02*
X131683095Y-107342380D01*
X131968809Y-107342380D02*
X131968809Y-106342380D01*
X131873571Y-106485238D01*
X131778333Y-106580476D01*
X131683095Y-106628095D01*
%TD*%
M02*
