M48
; DRILL file {KiCad (5.1.8-0-10_14)} date Sunday, January 31, 2021 at 04:12:55 PM
; FORMAT={-:-/ absolute / metric / decimal}
; #@! TF.CreationDate,2021-01-31T16:12:55+00:00
; #@! TF.GenerationSoftware,Kicad,Pcbnew,(5.1.8-0-10_14)
FMAT,2
METRIC
T1C0.800
T2C1.000
T3C1.016
T4C2.000
T5C3.200
%
G90
G05
T1
X142.748Y-108.204
X142.748Y-113.204
X111.76Y-107.315
X119.38Y-107.315
X111.76Y-104.14
X119.38Y-104.14
X142.748Y-116.205
X142.748Y-121.205
X111.76Y-110.49
X111.76Y-118.11
X114.935Y-110.49
X114.935Y-118.11
X123.825Y-104.14
X131.445Y-104.14
X134.62Y-104.14
X142.24Y-104.14
X118.11Y-110.49
X118.11Y-118.11
X127.635Y-109.22
X127.635Y-111.76
X127.635Y-114.3
X127.635Y-116.84
X135.255Y-109.22
X135.255Y-111.76
X135.255Y-114.3
X135.255Y-116.84
X121.285Y-110.49
X121.285Y-118.11
T2
X149.86Y-110.49
X149.86Y-113.03
X149.86Y-115.57
X149.86Y-118.11
T3
X134.62Y-121.92
X119.38Y-121.92
X123.19Y-121.92
X127.0Y-121.92
X111.76Y-121.92
X115.57Y-121.92
X138.43Y-121.92
X130.81Y-121.92
T4
X127.0Y-124.714
X138.43Y-124.714
X130.81Y-124.714
X134.62Y-124.714
X119.38Y-124.714
X123.19Y-124.714
X111.76Y-124.714
X115.57Y-124.714
T5
X105.41Y-123.19
X105.41Y-105.41
T0
M30
