%TF.GenerationSoftware,KiCad,Pcbnew,(5.1.8-0-10_14)*%
%TF.CreationDate,2021-01-31T16:12:45+00:00*%
%TF.ProjectId,dc-mixer,64632d6d-6978-4657-922e-6b696361645f,rev?*%
%TF.SameCoordinates,Original*%
%TF.FileFunction,Copper,L1,Top*%
%TF.FilePolarity,Positive*%
%FSLAX46Y46*%
G04 Gerber Fmt 4.6, Leading zero omitted, Abs format (unit mm)*
G04 Created by KiCad (PCBNEW (5.1.8-0-10_14)) date 2021-01-31 16:12:45*
%MOMM*%
%LPD*%
G01*
G04 APERTURE LIST*
%TA.AperFunction,ComponentPad*%
%ADD10C,1.600000*%
%TD*%
%TA.AperFunction,ComponentPad*%
%ADD11R,1.700000X1.700000*%
%TD*%
%TA.AperFunction,ComponentPad*%
%ADD12O,1.700000X1.700000*%
%TD*%
%TA.AperFunction,ComponentPad*%
%ADD13O,1.600000X1.600000*%
%TD*%
%TA.AperFunction,ComponentPad*%
%ADD14R,1.600000X1.600000*%
%TD*%
%TA.AperFunction,Conductor*%
%ADD15C,1.270000*%
%TD*%
%TA.AperFunction,Conductor*%
%ADD16C,0.304800*%
%TD*%
%TA.AperFunction,Conductor*%
%ADD17C,0.254000*%
%TD*%
%TA.AperFunction,Conductor*%
%ADD18C,0.100000*%
%TD*%
G04 APERTURE END LIST*
D10*
%TO.P,C1,2*%
%TO.N,GNDREF*%
X142748000Y-113204000D03*
%TO.P,C1,1*%
%TO.N,+12V*%
X142748000Y-108204000D03*
%TD*%
%TO.P,C2,1*%
%TO.N,GNDREF*%
X142748000Y-116205000D03*
%TO.P,C2,2*%
%TO.N,-12V*%
X142748000Y-121205000D03*
%TD*%
%TO.P,J1,1*%
%TO.N,Net-(J1-Pad1)*%
%TA.AperFunction,ComponentPad*%
G36*
G01*
X110744000Y-122682000D02*
X110744000Y-121158000D01*
G75*
G02*
X110998000Y-120904000I254000J0D01*
G01*
X112522000Y-120904000D01*
G75*
G02*
X112776000Y-121158000I0J-254000D01*
G01*
X112776000Y-122682000D01*
G75*
G02*
X112522000Y-122936000I-254000J0D01*
G01*
X110998000Y-122936000D01*
G75*
G02*
X110744000Y-122682000I0J254000D01*
G01*
G37*
%TD.AperFunction*%
%TD*%
%TO.P,J2,1*%
%TO.N,Net-(J2-Pad1)*%
%TA.AperFunction,ComponentPad*%
G36*
G01*
X114554000Y-122682000D02*
X114554000Y-121158000D01*
G75*
G02*
X114808000Y-120904000I254000J0D01*
G01*
X116332000Y-120904000D01*
G75*
G02*
X116586000Y-121158000I0J-254000D01*
G01*
X116586000Y-122682000D01*
G75*
G02*
X116332000Y-122936000I-254000J0D01*
G01*
X114808000Y-122936000D01*
G75*
G02*
X114554000Y-122682000I0J254000D01*
G01*
G37*
%TD.AperFunction*%
%TD*%
%TO.P,J3,1*%
%TO.N,Net-(J3-Pad1)*%
%TA.AperFunction,ComponentPad*%
G36*
G01*
X118364000Y-122682000D02*
X118364000Y-121158000D01*
G75*
G02*
X118618000Y-120904000I254000J0D01*
G01*
X120142000Y-120904000D01*
G75*
G02*
X120396000Y-121158000I0J-254000D01*
G01*
X120396000Y-122682000D01*
G75*
G02*
X120142000Y-122936000I-254000J0D01*
G01*
X118618000Y-122936000D01*
G75*
G02*
X118364000Y-122682000I0J254000D01*
G01*
G37*
%TD.AperFunction*%
%TD*%
%TO.P,J4,1*%
%TO.N,Net-(J4-Pad1)*%
%TA.AperFunction,ComponentPad*%
G36*
G01*
X122174000Y-122682000D02*
X122174000Y-121158000D01*
G75*
G02*
X122428000Y-120904000I254000J0D01*
G01*
X123952000Y-120904000D01*
G75*
G02*
X124206000Y-121158000I0J-254000D01*
G01*
X124206000Y-122682000D01*
G75*
G02*
X123952000Y-122936000I-254000J0D01*
G01*
X122428000Y-122936000D01*
G75*
G02*
X122174000Y-122682000I0J254000D01*
G01*
G37*
%TD.AperFunction*%
%TD*%
%TO.P,J5,1*%
%TO.N,Net-(J5-Pad1)*%
%TA.AperFunction,ComponentPad*%
G36*
G01*
X129794000Y-122682000D02*
X129794000Y-121158000D01*
G75*
G02*
X130048000Y-120904000I254000J0D01*
G01*
X131572000Y-120904000D01*
G75*
G02*
X131826000Y-121158000I0J-254000D01*
G01*
X131826000Y-122682000D01*
G75*
G02*
X131572000Y-122936000I-254000J0D01*
G01*
X130048000Y-122936000D01*
G75*
G02*
X129794000Y-122682000I0J254000D01*
G01*
G37*
%TD.AperFunction*%
%TD*%
%TO.P,J6,1*%
%TO.N,Net-(J6-Pad1)*%
%TA.AperFunction,ComponentPad*%
G36*
G01*
X133604000Y-122682000D02*
X133604000Y-121158000D01*
G75*
G02*
X133858000Y-120904000I254000J0D01*
G01*
X135382000Y-120904000D01*
G75*
G02*
X135636000Y-121158000I0J-254000D01*
G01*
X135636000Y-122682000D01*
G75*
G02*
X135382000Y-122936000I-254000J0D01*
G01*
X133858000Y-122936000D01*
G75*
G02*
X133604000Y-122682000I0J254000D01*
G01*
G37*
%TD.AperFunction*%
%TD*%
%TO.P,OUT,1*%
%TO.N,Net-(J7-Pad1)*%
%TA.AperFunction,ComponentPad*%
G36*
G01*
X137414000Y-122682000D02*
X137414000Y-121158000D01*
G75*
G02*
X137668000Y-120904000I254000J0D01*
G01*
X139192000Y-120904000D01*
G75*
G02*
X139446000Y-121158000I0J-254000D01*
G01*
X139446000Y-122682000D01*
G75*
G02*
X139192000Y-122936000I-254000J0D01*
G01*
X137668000Y-122936000D01*
G75*
G02*
X137414000Y-122682000I0J254000D01*
G01*
G37*
%TD.AperFunction*%
%TD*%
D11*
%TO.P,J8,1*%
%TO.N,+12V*%
X149860000Y-110490000D03*
D12*
%TO.P,J8,2*%
%TO.N,GNDREF*%
X149860000Y-113030000D03*
%TO.P,J8,3*%
X149860000Y-115570000D03*
%TO.P,J8,4*%
%TO.N,-12V*%
X149860000Y-118110000D03*
%TD*%
%TO.P,GND,1*%
%TO.N,GNDREF*%
%TA.AperFunction,ComponentPad*%
G36*
G01*
X125984000Y-122682000D02*
X125984000Y-121158000D01*
G75*
G02*
X126238000Y-120904000I254000J0D01*
G01*
X127762000Y-120904000D01*
G75*
G02*
X128016000Y-121158000I0J-254000D01*
G01*
X128016000Y-122682000D01*
G75*
G02*
X127762000Y-122936000I-254000J0D01*
G01*
X126238000Y-122936000D01*
G75*
G02*
X125984000Y-122682000I0J254000D01*
G01*
G37*
%TD.AperFunction*%
%TD*%
D10*
%TO.P,R1,1*%
%TO.N,Net-(J5-Pad1)*%
X111760000Y-110490000D03*
D13*
%TO.P,R1,2*%
%TO.N,Net-(J1-Pad1)*%
X111760000Y-118110000D03*
%TD*%
%TO.P,R2,2*%
%TO.N,Net-(J2-Pad1)*%
X114935000Y-118110000D03*
D10*
%TO.P,R2,1*%
%TO.N,Net-(J5-Pad1)*%
X114935000Y-110490000D03*
%TD*%
%TO.P,R3,1*%
%TO.N,Net-(J5-Pad1)*%
X118110000Y-110490000D03*
D13*
%TO.P,R3,2*%
%TO.N,Net-(J3-Pad1)*%
X118110000Y-118110000D03*
%TD*%
%TO.P,R4,2*%
%TO.N,Net-(J4-Pad1)*%
X121285000Y-118110000D03*
D10*
%TO.P,R4,1*%
%TO.N,Net-(J5-Pad1)*%
X121285000Y-110490000D03*
%TD*%
%TO.P,R5,1*%
%TO.N,Net-(R5-Pad1)*%
X119380000Y-107315000D03*
D13*
%TO.P,R5,2*%
%TO.N,Net-(J5-Pad1)*%
X111760000Y-107315000D03*
%TD*%
%TO.P,R6,2*%
%TO.N,Net-(R5-Pad1)*%
X111760000Y-104140000D03*
D10*
%TO.P,R6,1*%
%TO.N,Net-(J6-Pad1)*%
X119380000Y-104140000D03*
%TD*%
%TO.P,R7,1*%
%TO.N,Net-(J7-Pad1)*%
X131445000Y-104140000D03*
D13*
%TO.P,R7,2*%
%TO.N,Net-(J6-Pad1)*%
X123825000Y-104140000D03*
%TD*%
D10*
%TO.P,R8,1*%
%TO.N,Net-(J7-Pad1)*%
X134620000Y-104140000D03*
D13*
%TO.P,R8,2*%
%TO.N,Net-(R8-Pad2)*%
X142240000Y-104140000D03*
%TD*%
D14*
%TO.P,U1,1*%
%TO.N,Net-(R5-Pad1)*%
X127635000Y-109220000D03*
D13*
%TO.P,U1,5*%
%TO.N,GNDREF*%
X135255000Y-116840000D03*
%TO.P,U1,2*%
%TO.N,Net-(J5-Pad1)*%
X127635000Y-111760000D03*
%TO.P,U1,6*%
%TO.N,Net-(J6-Pad1)*%
X135255000Y-114300000D03*
%TO.P,U1,3*%
%TO.N,GNDREF*%
X127635000Y-114300000D03*
%TO.P,U1,7*%
%TO.N,Net-(R8-Pad2)*%
X135255000Y-111760000D03*
%TO.P,U1,4*%
%TO.N,-12V*%
X127635000Y-116840000D03*
%TO.P,U1,8*%
%TO.N,+12V*%
X135255000Y-109220000D03*
%TD*%
D15*
%TO.N,+12V*%
X145034000Y-110490000D02*
X142748000Y-108204000D01*
X149352000Y-110490000D02*
X145034000Y-110490000D01*
%TO.N,-12V*%
X145843000Y-118110000D02*
X142748000Y-121205000D01*
X149352000Y-118110000D02*
X145843000Y-118110000D01*
D16*
%TO.N,Net-(J1-Pad1)*%
X111760000Y-118110000D02*
X111760000Y-121920000D01*
%TO.N,Net-(J2-Pad1)*%
X114935000Y-121285000D02*
X115570000Y-121920000D01*
X114935000Y-118110000D02*
X114935000Y-121285000D01*
%TO.N,Net-(J3-Pad1)*%
X118110000Y-120650000D02*
X119380000Y-121920000D01*
X118110000Y-118110000D02*
X118110000Y-120650000D01*
%TO.N,Net-(J4-Pad1)*%
X121285000Y-120015000D02*
X123190000Y-121920000D01*
X121285000Y-118110000D02*
X121285000Y-120015000D01*
%TO.N,Net-(J5-Pad1)*%
X111760000Y-110490000D02*
X121285000Y-110490000D01*
X121285000Y-110490000D02*
X123698000Y-110490000D01*
X124968000Y-111760000D02*
X127635000Y-111760000D01*
X123698000Y-110490000D02*
X124968000Y-111760000D01*
X111760000Y-107315000D02*
X111760000Y-110490000D01*
X130810000Y-114935000D02*
X130810000Y-121920000D01*
X127635000Y-111760000D02*
X130810000Y-114935000D01*
%TO.N,Net-(J6-Pad1)*%
X119380000Y-104140000D02*
X123825000Y-104140000D01*
X123825000Y-104140000D02*
X125730000Y-104140000D01*
X125730000Y-104140000D02*
X132080000Y-110490000D01*
X132080000Y-111125000D02*
X135255000Y-114300000D01*
X132080000Y-110490000D02*
X132080000Y-111125000D01*
X135255000Y-114300000D02*
X133096000Y-116459000D01*
X133096000Y-120396000D02*
X134620000Y-121920000D01*
X133096000Y-116459000D02*
X133096000Y-120396000D01*
%TO.N,Net-(J7-Pad1)*%
X131445000Y-104140000D02*
X134620000Y-104140000D01*
X134620000Y-104140000D02*
X136144000Y-104140000D01*
X138430000Y-106426000D02*
X138430000Y-121920000D01*
X136144000Y-104140000D02*
X138430000Y-106426000D01*
%TO.N,Net-(R5-Pad1)*%
X111760000Y-104140000D02*
X113792000Y-104140000D01*
X116967000Y-107315000D02*
X119380000Y-107315000D01*
X119380000Y-107315000D02*
X122809000Y-107315000D01*
X124714000Y-109220000D02*
X127635000Y-109220000D01*
X122809000Y-107315000D02*
X124714000Y-109220000D01*
X113792000Y-104140000D02*
X116967000Y-107315000D01*
%TD*%
D17*
%TO.N,GNDREF*%
X151740001Y-126340000D02*
X138636279Y-126340000D01*
X138906912Y-126286168D01*
X139204463Y-126162918D01*
X139472252Y-125983987D01*
X139699987Y-125756252D01*
X139878918Y-125488463D01*
X140002168Y-125190912D01*
X140065000Y-124875033D01*
X140065000Y-124552967D01*
X140002168Y-124237088D01*
X139878918Y-123939537D01*
X139699987Y-123671748D01*
X139534049Y-123505810D01*
X139687609Y-123423731D01*
X139822790Y-123312790D01*
X139933731Y-123177609D01*
X140016167Y-123023381D01*
X140066931Y-122856035D01*
X140084072Y-122682000D01*
X140084072Y-121158000D01*
X140074781Y-121063665D01*
X141313000Y-121063665D01*
X141313000Y-121346335D01*
X141368147Y-121623574D01*
X141476320Y-121884727D01*
X141633363Y-122119759D01*
X141833241Y-122319637D01*
X142068273Y-122476680D01*
X142329426Y-122584853D01*
X142606665Y-122640000D01*
X142889335Y-122640000D01*
X143166574Y-122584853D01*
X143427727Y-122476680D01*
X143662759Y-122319637D01*
X143862637Y-122119759D01*
X144019680Y-121884727D01*
X144127853Y-121623574D01*
X144128443Y-121620607D01*
X146369051Y-119380000D01*
X149087760Y-119380000D01*
X149156589Y-119425990D01*
X149426842Y-119537932D01*
X149713740Y-119595000D01*
X150006260Y-119595000D01*
X150293158Y-119537932D01*
X150563411Y-119425990D01*
X150806632Y-119263475D01*
X151013475Y-119056632D01*
X151175990Y-118813411D01*
X151287932Y-118543158D01*
X151345000Y-118256260D01*
X151345000Y-117963740D01*
X151287932Y-117676842D01*
X151175990Y-117406589D01*
X151013475Y-117163368D01*
X150806632Y-116956525D01*
X150624466Y-116834805D01*
X150741355Y-116765178D01*
X150957588Y-116570269D01*
X151131641Y-116336920D01*
X151256825Y-116074099D01*
X151301476Y-115926890D01*
X151180155Y-115697000D01*
X149987000Y-115697000D01*
X149987000Y-115717000D01*
X149733000Y-115717000D01*
X149733000Y-115697000D01*
X148539845Y-115697000D01*
X148418524Y-115926890D01*
X148463175Y-116074099D01*
X148588359Y-116336920D01*
X148762412Y-116570269D01*
X148978645Y-116765178D01*
X149095534Y-116834805D01*
X149087760Y-116840000D01*
X145905373Y-116840000D01*
X145843000Y-116833857D01*
X145780627Y-116840000D01*
X145780620Y-116840000D01*
X145617347Y-116856081D01*
X145594036Y-116858377D01*
X145521416Y-116880406D01*
X145354641Y-116930997D01*
X145134012Y-117048925D01*
X144940630Y-117207630D01*
X144900863Y-117256086D01*
X142332393Y-119824557D01*
X142329426Y-119825147D01*
X142068273Y-119933320D01*
X141833241Y-120090363D01*
X141633363Y-120290241D01*
X141476320Y-120525273D01*
X141368147Y-120786426D01*
X141313000Y-121063665D01*
X140074781Y-121063665D01*
X140066931Y-120983965D01*
X140016167Y-120816619D01*
X139933731Y-120662391D01*
X139822790Y-120527210D01*
X139687609Y-120416269D01*
X139533381Y-120333833D01*
X139366035Y-120283069D01*
X139217400Y-120268430D01*
X139217400Y-117197702D01*
X141934903Y-117197702D01*
X142006486Y-117441671D01*
X142261996Y-117562571D01*
X142536184Y-117631300D01*
X142818512Y-117645217D01*
X143098130Y-117603787D01*
X143364292Y-117508603D01*
X143489514Y-117441671D01*
X143561097Y-117197702D01*
X142748000Y-116384605D01*
X141934903Y-117197702D01*
X139217400Y-117197702D01*
X139217400Y-116275512D01*
X141307783Y-116275512D01*
X141349213Y-116555130D01*
X141444397Y-116821292D01*
X141511329Y-116946514D01*
X141755298Y-117018097D01*
X142568395Y-116205000D01*
X142927605Y-116205000D01*
X143740702Y-117018097D01*
X143984671Y-116946514D01*
X144105571Y-116691004D01*
X144174300Y-116416816D01*
X144188217Y-116134488D01*
X144146787Y-115854870D01*
X144051603Y-115588708D01*
X143984671Y-115463486D01*
X143740702Y-115391903D01*
X142927605Y-116205000D01*
X142568395Y-116205000D01*
X141755298Y-115391903D01*
X141511329Y-115463486D01*
X141390429Y-115718996D01*
X141321700Y-115993184D01*
X141307783Y-116275512D01*
X139217400Y-116275512D01*
X139217400Y-115212298D01*
X141934903Y-115212298D01*
X142748000Y-116025395D01*
X143561097Y-115212298D01*
X143489514Y-114968329D01*
X143234004Y-114847429D01*
X142959816Y-114778700D01*
X142677488Y-114764783D01*
X142397870Y-114806213D01*
X142131708Y-114901397D01*
X142006486Y-114968329D01*
X141934903Y-115212298D01*
X139217400Y-115212298D01*
X139217400Y-114196702D01*
X141934903Y-114196702D01*
X142006486Y-114440671D01*
X142261996Y-114561571D01*
X142536184Y-114630300D01*
X142818512Y-114644217D01*
X143098130Y-114602787D01*
X143364292Y-114507603D01*
X143489514Y-114440671D01*
X143561097Y-114196702D01*
X142748000Y-113383605D01*
X141934903Y-114196702D01*
X139217400Y-114196702D01*
X139217400Y-113274512D01*
X141307783Y-113274512D01*
X141349213Y-113554130D01*
X141444397Y-113820292D01*
X141511329Y-113945514D01*
X141755298Y-114017097D01*
X142568395Y-113204000D01*
X142927605Y-113204000D01*
X143740702Y-114017097D01*
X143984671Y-113945514D01*
X144105571Y-113690004D01*
X144174300Y-113415816D01*
X144175725Y-113386890D01*
X148418524Y-113386890D01*
X148463175Y-113534099D01*
X148588359Y-113796920D01*
X148762412Y-114030269D01*
X148978645Y-114225178D01*
X149104255Y-114300000D01*
X148978645Y-114374822D01*
X148762412Y-114569731D01*
X148588359Y-114803080D01*
X148463175Y-115065901D01*
X148418524Y-115213110D01*
X148539845Y-115443000D01*
X149733000Y-115443000D01*
X149733000Y-113157000D01*
X149987000Y-113157000D01*
X149987000Y-115443000D01*
X151180155Y-115443000D01*
X151301476Y-115213110D01*
X151256825Y-115065901D01*
X151131641Y-114803080D01*
X150957588Y-114569731D01*
X150741355Y-114374822D01*
X150615745Y-114300000D01*
X150741355Y-114225178D01*
X150957588Y-114030269D01*
X151131641Y-113796920D01*
X151256825Y-113534099D01*
X151301476Y-113386890D01*
X151180155Y-113157000D01*
X149987000Y-113157000D01*
X149733000Y-113157000D01*
X148539845Y-113157000D01*
X148418524Y-113386890D01*
X144175725Y-113386890D01*
X144188217Y-113133488D01*
X144146787Y-112853870D01*
X144051603Y-112587708D01*
X143984671Y-112462486D01*
X143740702Y-112390903D01*
X142927605Y-113204000D01*
X142568395Y-113204000D01*
X141755298Y-112390903D01*
X141511329Y-112462486D01*
X141390429Y-112717996D01*
X141321700Y-112992184D01*
X141307783Y-113274512D01*
X139217400Y-113274512D01*
X139217400Y-112211298D01*
X141934903Y-112211298D01*
X142748000Y-113024395D01*
X143561097Y-112211298D01*
X143489514Y-111967329D01*
X143234004Y-111846429D01*
X142959816Y-111777700D01*
X142677488Y-111763783D01*
X142397870Y-111805213D01*
X142131708Y-111900397D01*
X142006486Y-111967329D01*
X141934903Y-112211298D01*
X139217400Y-112211298D01*
X139217400Y-108062665D01*
X141313000Y-108062665D01*
X141313000Y-108345335D01*
X141368147Y-108622574D01*
X141476320Y-108883727D01*
X141633363Y-109118759D01*
X141833241Y-109318637D01*
X142068273Y-109475680D01*
X142329426Y-109583853D01*
X142332393Y-109584443D01*
X144091863Y-111343914D01*
X144131630Y-111392370D01*
X144325012Y-111551075D01*
X144545641Y-111669003D01*
X144678107Y-111709186D01*
X144785036Y-111741623D01*
X144810755Y-111744156D01*
X144971620Y-111760000D01*
X144971626Y-111760000D01*
X145033999Y-111766143D01*
X145096372Y-111760000D01*
X148533222Y-111760000D01*
X148558815Y-111791185D01*
X148655506Y-111870537D01*
X148765820Y-111929502D01*
X148846466Y-111953966D01*
X148762412Y-112029731D01*
X148588359Y-112263080D01*
X148463175Y-112525901D01*
X148418524Y-112673110D01*
X148539845Y-112903000D01*
X149733000Y-112903000D01*
X149733000Y-112883000D01*
X149987000Y-112883000D01*
X149987000Y-112903000D01*
X151180155Y-112903000D01*
X151301476Y-112673110D01*
X151256825Y-112525901D01*
X151131641Y-112263080D01*
X150957588Y-112029731D01*
X150873534Y-111953966D01*
X150954180Y-111929502D01*
X151064494Y-111870537D01*
X151161185Y-111791185D01*
X151240537Y-111694494D01*
X151299502Y-111584180D01*
X151335812Y-111464482D01*
X151348072Y-111340000D01*
X151348072Y-109640000D01*
X151335812Y-109515518D01*
X151299502Y-109395820D01*
X151240537Y-109285506D01*
X151161185Y-109188815D01*
X151064494Y-109109463D01*
X150954180Y-109050498D01*
X150834482Y-109014188D01*
X150710000Y-109001928D01*
X149010000Y-109001928D01*
X148885518Y-109014188D01*
X148765820Y-109050498D01*
X148655506Y-109109463D01*
X148558815Y-109188815D01*
X148533222Y-109220000D01*
X145560051Y-109220000D01*
X144128443Y-107788393D01*
X144127853Y-107785426D01*
X144019680Y-107524273D01*
X143862637Y-107289241D01*
X143662759Y-107089363D01*
X143427727Y-106932320D01*
X143166574Y-106824147D01*
X142889335Y-106769000D01*
X142606665Y-106769000D01*
X142329426Y-106824147D01*
X142068273Y-106932320D01*
X141833241Y-107089363D01*
X141633363Y-107289241D01*
X141476320Y-107524273D01*
X141368147Y-107785426D01*
X141313000Y-108062665D01*
X139217400Y-108062665D01*
X139217400Y-106464662D01*
X139221208Y-106425999D01*
X139217400Y-106387336D01*
X139217400Y-106387327D01*
X139206006Y-106271643D01*
X139160982Y-106123217D01*
X139087866Y-105986428D01*
X138989469Y-105866531D01*
X138959434Y-105841882D01*
X137116217Y-103998665D01*
X140805000Y-103998665D01*
X140805000Y-104281335D01*
X140860147Y-104558574D01*
X140968320Y-104819727D01*
X141125363Y-105054759D01*
X141325241Y-105254637D01*
X141560273Y-105411680D01*
X141821426Y-105519853D01*
X142098665Y-105575000D01*
X142381335Y-105575000D01*
X142658574Y-105519853D01*
X142919727Y-105411680D01*
X143154759Y-105254637D01*
X143354637Y-105054759D01*
X143511680Y-104819727D01*
X143619853Y-104558574D01*
X143675000Y-104281335D01*
X143675000Y-103998665D01*
X143619853Y-103721426D01*
X143511680Y-103460273D01*
X143354637Y-103225241D01*
X143154759Y-103025363D01*
X142919727Y-102868320D01*
X142658574Y-102760147D01*
X142381335Y-102705000D01*
X142098665Y-102705000D01*
X141821426Y-102760147D01*
X141560273Y-102868320D01*
X141325241Y-103025363D01*
X141125363Y-103225241D01*
X140968320Y-103460273D01*
X140860147Y-103721426D01*
X140805000Y-103998665D01*
X137116217Y-103998665D01*
X136728128Y-103610577D01*
X136703469Y-103580531D01*
X136583572Y-103482134D01*
X136446783Y-103409018D01*
X136298357Y-103363994D01*
X136182673Y-103352600D01*
X136182663Y-103352600D01*
X136144000Y-103348792D01*
X136105337Y-103352600D01*
X135819735Y-103352600D01*
X135734637Y-103225241D01*
X135534759Y-103025363D01*
X135299727Y-102868320D01*
X135038574Y-102760147D01*
X134761335Y-102705000D01*
X134478665Y-102705000D01*
X134201426Y-102760147D01*
X133940273Y-102868320D01*
X133705241Y-103025363D01*
X133505363Y-103225241D01*
X133420265Y-103352600D01*
X132644735Y-103352600D01*
X132559637Y-103225241D01*
X132359759Y-103025363D01*
X132124727Y-102868320D01*
X131863574Y-102760147D01*
X131586335Y-102705000D01*
X131303665Y-102705000D01*
X131026426Y-102760147D01*
X130765273Y-102868320D01*
X130530241Y-103025363D01*
X130330363Y-103225241D01*
X130173320Y-103460273D01*
X130065147Y-103721426D01*
X130010000Y-103998665D01*
X130010000Y-104281335D01*
X130065147Y-104558574D01*
X130173320Y-104819727D01*
X130330363Y-105054759D01*
X130530241Y-105254637D01*
X130765273Y-105411680D01*
X131026426Y-105519853D01*
X131303665Y-105575000D01*
X131586335Y-105575000D01*
X131863574Y-105519853D01*
X132124727Y-105411680D01*
X132359759Y-105254637D01*
X132559637Y-105054759D01*
X132644735Y-104927400D01*
X133420265Y-104927400D01*
X133505363Y-105054759D01*
X133705241Y-105254637D01*
X133940273Y-105411680D01*
X134201426Y-105519853D01*
X134478665Y-105575000D01*
X134761335Y-105575000D01*
X135038574Y-105519853D01*
X135299727Y-105411680D01*
X135534759Y-105254637D01*
X135734637Y-105054759D01*
X135818980Y-104928530D01*
X137642600Y-106752152D01*
X137642601Y-120268430D01*
X137493965Y-120283069D01*
X137326619Y-120333833D01*
X137172391Y-120416269D01*
X137037210Y-120527210D01*
X136926269Y-120662391D01*
X136843833Y-120816619D01*
X136793069Y-120983965D01*
X136775928Y-121158000D01*
X136775928Y-122682000D01*
X136793069Y-122856035D01*
X136843833Y-123023381D01*
X136926269Y-123177609D01*
X137037210Y-123312790D01*
X137172391Y-123423731D01*
X137325951Y-123505810D01*
X137160013Y-123671748D01*
X136981082Y-123939537D01*
X136857832Y-124237088D01*
X136795000Y-124552967D01*
X136795000Y-124875033D01*
X136857832Y-125190912D01*
X136981082Y-125488463D01*
X137160013Y-125756252D01*
X137387748Y-125983987D01*
X137655537Y-126162918D01*
X137953088Y-126286168D01*
X138223721Y-126340000D01*
X134826279Y-126340000D01*
X135096912Y-126286168D01*
X135394463Y-126162918D01*
X135662252Y-125983987D01*
X135889987Y-125756252D01*
X136068918Y-125488463D01*
X136192168Y-125190912D01*
X136255000Y-124875033D01*
X136255000Y-124552967D01*
X136192168Y-124237088D01*
X136068918Y-123939537D01*
X135889987Y-123671748D01*
X135724049Y-123505810D01*
X135877609Y-123423731D01*
X136012790Y-123312790D01*
X136123731Y-123177609D01*
X136206167Y-123023381D01*
X136256931Y-122856035D01*
X136274072Y-122682000D01*
X136274072Y-121158000D01*
X136256931Y-120983965D01*
X136206167Y-120816619D01*
X136123731Y-120662391D01*
X136012790Y-120527210D01*
X135877609Y-120416269D01*
X135723381Y-120333833D01*
X135556035Y-120283069D01*
X135382000Y-120265928D01*
X134079479Y-120265928D01*
X133883400Y-120069850D01*
X133883400Y-117255981D01*
X133903754Y-117323087D01*
X134023963Y-117577420D01*
X134191481Y-117803414D01*
X134399869Y-117992385D01*
X134641119Y-118137070D01*
X134905960Y-118231909D01*
X135128000Y-118110624D01*
X135128000Y-116967000D01*
X135382000Y-116967000D01*
X135382000Y-118110624D01*
X135604040Y-118231909D01*
X135868881Y-118137070D01*
X136110131Y-117992385D01*
X136318519Y-117803414D01*
X136486037Y-117577420D01*
X136606246Y-117323087D01*
X136646904Y-117189039D01*
X136524915Y-116967000D01*
X135382000Y-116967000D01*
X135128000Y-116967000D01*
X135108000Y-116967000D01*
X135108000Y-116713000D01*
X135128000Y-116713000D01*
X135128000Y-116693000D01*
X135382000Y-116693000D01*
X135382000Y-116713000D01*
X136524915Y-116713000D01*
X136646904Y-116490961D01*
X136606246Y-116356913D01*
X136486037Y-116102580D01*
X136318519Y-115876586D01*
X136110131Y-115687615D01*
X135924135Y-115576067D01*
X135934727Y-115571680D01*
X136169759Y-115414637D01*
X136369637Y-115214759D01*
X136526680Y-114979727D01*
X136634853Y-114718574D01*
X136690000Y-114441335D01*
X136690000Y-114158665D01*
X136634853Y-113881426D01*
X136526680Y-113620273D01*
X136369637Y-113385241D01*
X136169759Y-113185363D01*
X135937241Y-113030000D01*
X136169759Y-112874637D01*
X136369637Y-112674759D01*
X136526680Y-112439727D01*
X136634853Y-112178574D01*
X136690000Y-111901335D01*
X136690000Y-111618665D01*
X136634853Y-111341426D01*
X136526680Y-111080273D01*
X136369637Y-110845241D01*
X136169759Y-110645363D01*
X135937241Y-110490000D01*
X136169759Y-110334637D01*
X136369637Y-110134759D01*
X136526680Y-109899727D01*
X136634853Y-109638574D01*
X136690000Y-109361335D01*
X136690000Y-109078665D01*
X136634853Y-108801426D01*
X136526680Y-108540273D01*
X136369637Y-108305241D01*
X136169759Y-108105363D01*
X135934727Y-107948320D01*
X135673574Y-107840147D01*
X135396335Y-107785000D01*
X135113665Y-107785000D01*
X134836426Y-107840147D01*
X134575273Y-107948320D01*
X134340241Y-108105363D01*
X134140363Y-108305241D01*
X133983320Y-108540273D01*
X133875147Y-108801426D01*
X133820000Y-109078665D01*
X133820000Y-109361335D01*
X133875147Y-109638574D01*
X133983320Y-109899727D01*
X134140363Y-110134759D01*
X134340241Y-110334637D01*
X134572759Y-110490000D01*
X134340241Y-110645363D01*
X134140363Y-110845241D01*
X133983320Y-111080273D01*
X133875147Y-111341426D01*
X133820000Y-111618665D01*
X133820000Y-111751450D01*
X132867400Y-110798850D01*
X132867400Y-110528662D01*
X132871208Y-110489999D01*
X132867400Y-110451336D01*
X132867400Y-110451327D01*
X132856006Y-110335643D01*
X132810982Y-110187217D01*
X132737866Y-110050428D01*
X132639469Y-109930531D01*
X132609434Y-109905882D01*
X126314128Y-103610578D01*
X126289469Y-103580531D01*
X126169572Y-103482134D01*
X126032783Y-103409018D01*
X125884357Y-103363994D01*
X125768673Y-103352600D01*
X125768663Y-103352600D01*
X125730000Y-103348792D01*
X125691337Y-103352600D01*
X125024735Y-103352600D01*
X124939637Y-103225241D01*
X124739759Y-103025363D01*
X124504727Y-102868320D01*
X124243574Y-102760147D01*
X123966335Y-102705000D01*
X123683665Y-102705000D01*
X123406426Y-102760147D01*
X123145273Y-102868320D01*
X122910241Y-103025363D01*
X122710363Y-103225241D01*
X122625265Y-103352600D01*
X120579735Y-103352600D01*
X120494637Y-103225241D01*
X120294759Y-103025363D01*
X120059727Y-102868320D01*
X119798574Y-102760147D01*
X119521335Y-102705000D01*
X119238665Y-102705000D01*
X118961426Y-102760147D01*
X118700273Y-102868320D01*
X118465241Y-103025363D01*
X118265363Y-103225241D01*
X118108320Y-103460273D01*
X118000147Y-103721426D01*
X117945000Y-103998665D01*
X117945000Y-104281335D01*
X118000147Y-104558574D01*
X118108320Y-104819727D01*
X118265363Y-105054759D01*
X118465241Y-105254637D01*
X118700273Y-105411680D01*
X118961426Y-105519853D01*
X119238665Y-105575000D01*
X119521335Y-105575000D01*
X119798574Y-105519853D01*
X120059727Y-105411680D01*
X120294759Y-105254637D01*
X120494637Y-105054759D01*
X120579735Y-104927400D01*
X122625265Y-104927400D01*
X122710363Y-105054759D01*
X122910241Y-105254637D01*
X123145273Y-105411680D01*
X123406426Y-105519853D01*
X123683665Y-105575000D01*
X123966335Y-105575000D01*
X124243574Y-105519853D01*
X124504727Y-105411680D01*
X124739759Y-105254637D01*
X124939637Y-105054759D01*
X125024735Y-104927400D01*
X125403850Y-104927400D01*
X128258377Y-107781928D01*
X126835000Y-107781928D01*
X126710518Y-107794188D01*
X126590820Y-107830498D01*
X126480506Y-107889463D01*
X126383815Y-107968815D01*
X126304463Y-108065506D01*
X126245498Y-108175820D01*
X126209188Y-108295518D01*
X126196928Y-108420000D01*
X126196928Y-108432600D01*
X125040151Y-108432600D01*
X123393128Y-106785578D01*
X123368469Y-106755531D01*
X123248572Y-106657134D01*
X123111783Y-106584018D01*
X122963357Y-106538994D01*
X122847673Y-106527600D01*
X122847663Y-106527600D01*
X122809000Y-106523792D01*
X122770337Y-106527600D01*
X120579735Y-106527600D01*
X120494637Y-106400241D01*
X120294759Y-106200363D01*
X120059727Y-106043320D01*
X119798574Y-105935147D01*
X119521335Y-105880000D01*
X119238665Y-105880000D01*
X118961426Y-105935147D01*
X118700273Y-106043320D01*
X118465241Y-106200363D01*
X118265363Y-106400241D01*
X118180265Y-106527600D01*
X117293151Y-106527600D01*
X114376128Y-103610578D01*
X114351469Y-103580531D01*
X114231572Y-103482134D01*
X114094783Y-103409018D01*
X113946357Y-103363994D01*
X113830673Y-103352600D01*
X113830663Y-103352600D01*
X113792000Y-103348792D01*
X113753337Y-103352600D01*
X112959735Y-103352600D01*
X112874637Y-103225241D01*
X112674759Y-103025363D01*
X112439727Y-102868320D01*
X112178574Y-102760147D01*
X111901335Y-102705000D01*
X111618665Y-102705000D01*
X111341426Y-102760147D01*
X111080273Y-102868320D01*
X110845241Y-103025363D01*
X110645363Y-103225241D01*
X110488320Y-103460273D01*
X110380147Y-103721426D01*
X110325000Y-103998665D01*
X110325000Y-104281335D01*
X110380147Y-104558574D01*
X110488320Y-104819727D01*
X110645363Y-105054759D01*
X110845241Y-105254637D01*
X111080273Y-105411680D01*
X111341426Y-105519853D01*
X111618665Y-105575000D01*
X111901335Y-105575000D01*
X112178574Y-105519853D01*
X112439727Y-105411680D01*
X112674759Y-105254637D01*
X112874637Y-105054759D01*
X112959735Y-104927400D01*
X113465850Y-104927400D01*
X116382877Y-107844428D01*
X116407531Y-107874469D01*
X116527428Y-107972866D01*
X116664217Y-108045982D01*
X116812643Y-108091006D01*
X116928327Y-108102400D01*
X116928336Y-108102400D01*
X116966999Y-108106208D01*
X117005662Y-108102400D01*
X118180265Y-108102400D01*
X118265363Y-108229759D01*
X118465241Y-108429637D01*
X118700273Y-108586680D01*
X118961426Y-108694853D01*
X119238665Y-108750000D01*
X119521335Y-108750000D01*
X119798574Y-108694853D01*
X120059727Y-108586680D01*
X120294759Y-108429637D01*
X120494637Y-108229759D01*
X120579735Y-108102400D01*
X122482850Y-108102400D01*
X124129877Y-109749428D01*
X124154531Y-109779469D01*
X124184570Y-109804121D01*
X124274427Y-109877866D01*
X124372956Y-109930531D01*
X124411217Y-109950982D01*
X124559643Y-109996006D01*
X124675327Y-110007400D01*
X124675337Y-110007400D01*
X124714000Y-110011208D01*
X124752663Y-110007400D01*
X126196928Y-110007400D01*
X126196928Y-110020000D01*
X126209188Y-110144482D01*
X126245498Y-110264180D01*
X126304463Y-110374494D01*
X126383815Y-110471185D01*
X126480506Y-110550537D01*
X126590820Y-110609502D01*
X126710518Y-110645812D01*
X126718961Y-110646643D01*
X126520363Y-110845241D01*
X126435265Y-110972600D01*
X125294152Y-110972600D01*
X124282127Y-109960577D01*
X124257469Y-109930531D01*
X124137572Y-109832134D01*
X124000783Y-109759018D01*
X123852357Y-109713994D01*
X123736673Y-109702600D01*
X123736663Y-109702600D01*
X123698000Y-109698792D01*
X123659337Y-109702600D01*
X122484735Y-109702600D01*
X122399637Y-109575241D01*
X122199759Y-109375363D01*
X121964727Y-109218320D01*
X121703574Y-109110147D01*
X121426335Y-109055000D01*
X121143665Y-109055000D01*
X120866426Y-109110147D01*
X120605273Y-109218320D01*
X120370241Y-109375363D01*
X120170363Y-109575241D01*
X120085265Y-109702600D01*
X119309735Y-109702600D01*
X119224637Y-109575241D01*
X119024759Y-109375363D01*
X118789727Y-109218320D01*
X118528574Y-109110147D01*
X118251335Y-109055000D01*
X117968665Y-109055000D01*
X117691426Y-109110147D01*
X117430273Y-109218320D01*
X117195241Y-109375363D01*
X116995363Y-109575241D01*
X116910265Y-109702600D01*
X116134735Y-109702600D01*
X116049637Y-109575241D01*
X115849759Y-109375363D01*
X115614727Y-109218320D01*
X115353574Y-109110147D01*
X115076335Y-109055000D01*
X114793665Y-109055000D01*
X114516426Y-109110147D01*
X114255273Y-109218320D01*
X114020241Y-109375363D01*
X113820363Y-109575241D01*
X113735265Y-109702600D01*
X112959735Y-109702600D01*
X112874637Y-109575241D01*
X112674759Y-109375363D01*
X112547400Y-109290265D01*
X112547400Y-108514735D01*
X112674759Y-108429637D01*
X112874637Y-108229759D01*
X113031680Y-107994727D01*
X113139853Y-107733574D01*
X113195000Y-107456335D01*
X113195000Y-107173665D01*
X113139853Y-106896426D01*
X113031680Y-106635273D01*
X112874637Y-106400241D01*
X112674759Y-106200363D01*
X112439727Y-106043320D01*
X112178574Y-105935147D01*
X111901335Y-105880000D01*
X111618665Y-105880000D01*
X111341426Y-105935147D01*
X111080273Y-106043320D01*
X110845241Y-106200363D01*
X110645363Y-106400241D01*
X110488320Y-106635273D01*
X110380147Y-106896426D01*
X110325000Y-107173665D01*
X110325000Y-107456335D01*
X110380147Y-107733574D01*
X110488320Y-107994727D01*
X110645363Y-108229759D01*
X110845241Y-108429637D01*
X110972600Y-108514736D01*
X110972601Y-109290264D01*
X110845241Y-109375363D01*
X110645363Y-109575241D01*
X110488320Y-109810273D01*
X110380147Y-110071426D01*
X110325000Y-110348665D01*
X110325000Y-110631335D01*
X110380147Y-110908574D01*
X110488320Y-111169727D01*
X110645363Y-111404759D01*
X110845241Y-111604637D01*
X111080273Y-111761680D01*
X111341426Y-111869853D01*
X111618665Y-111925000D01*
X111901335Y-111925000D01*
X112178574Y-111869853D01*
X112439727Y-111761680D01*
X112674759Y-111604637D01*
X112874637Y-111404759D01*
X112959735Y-111277400D01*
X113735265Y-111277400D01*
X113820363Y-111404759D01*
X114020241Y-111604637D01*
X114255273Y-111761680D01*
X114516426Y-111869853D01*
X114793665Y-111925000D01*
X115076335Y-111925000D01*
X115353574Y-111869853D01*
X115614727Y-111761680D01*
X115849759Y-111604637D01*
X116049637Y-111404759D01*
X116134735Y-111277400D01*
X116910265Y-111277400D01*
X116995363Y-111404759D01*
X117195241Y-111604637D01*
X117430273Y-111761680D01*
X117691426Y-111869853D01*
X117968665Y-111925000D01*
X118251335Y-111925000D01*
X118528574Y-111869853D01*
X118789727Y-111761680D01*
X119024759Y-111604637D01*
X119224637Y-111404759D01*
X119309735Y-111277400D01*
X120085265Y-111277400D01*
X120170363Y-111404759D01*
X120370241Y-111604637D01*
X120605273Y-111761680D01*
X120866426Y-111869853D01*
X121143665Y-111925000D01*
X121426335Y-111925000D01*
X121703574Y-111869853D01*
X121964727Y-111761680D01*
X122199759Y-111604637D01*
X122399637Y-111404759D01*
X122484735Y-111277400D01*
X123371850Y-111277400D01*
X124383881Y-112289433D01*
X124408531Y-112319469D01*
X124438567Y-112344119D01*
X124438569Y-112344121D01*
X124502055Y-112396222D01*
X124528428Y-112417866D01*
X124665217Y-112490982D01*
X124813643Y-112536006D01*
X124929327Y-112547400D01*
X124929336Y-112547400D01*
X124967999Y-112551208D01*
X125006662Y-112547400D01*
X126435265Y-112547400D01*
X126520363Y-112674759D01*
X126720241Y-112874637D01*
X126955273Y-113031680D01*
X126965865Y-113036067D01*
X126779869Y-113147615D01*
X126571481Y-113336586D01*
X126403963Y-113562580D01*
X126283754Y-113816913D01*
X126243096Y-113950961D01*
X126365085Y-114173000D01*
X127508000Y-114173000D01*
X127508000Y-114153000D01*
X127762000Y-114153000D01*
X127762000Y-114173000D01*
X127782000Y-114173000D01*
X127782000Y-114427000D01*
X127762000Y-114427000D01*
X127762000Y-114447000D01*
X127508000Y-114447000D01*
X127508000Y-114427000D01*
X126365085Y-114427000D01*
X126243096Y-114649039D01*
X126283754Y-114783087D01*
X126403963Y-115037420D01*
X126571481Y-115263414D01*
X126779869Y-115452385D01*
X126965865Y-115563933D01*
X126955273Y-115568320D01*
X126720241Y-115725363D01*
X126520363Y-115925241D01*
X126363320Y-116160273D01*
X126255147Y-116421426D01*
X126200000Y-116698665D01*
X126200000Y-116981335D01*
X126255147Y-117258574D01*
X126363320Y-117519727D01*
X126520363Y-117754759D01*
X126720241Y-117954637D01*
X126955273Y-118111680D01*
X127216426Y-118219853D01*
X127493665Y-118275000D01*
X127776335Y-118275000D01*
X128053574Y-118219853D01*
X128314727Y-118111680D01*
X128549759Y-117954637D01*
X128749637Y-117754759D01*
X128906680Y-117519727D01*
X129014853Y-117258574D01*
X129070000Y-116981335D01*
X129070000Y-116698665D01*
X129014853Y-116421426D01*
X128906680Y-116160273D01*
X128749637Y-115925241D01*
X128549759Y-115725363D01*
X128314727Y-115568320D01*
X128304135Y-115563933D01*
X128490131Y-115452385D01*
X128698519Y-115263414D01*
X128866037Y-115037420D01*
X128986246Y-114783087D01*
X129026904Y-114649039D01*
X128904916Y-114427002D01*
X129070000Y-114427002D01*
X129070000Y-114308550D01*
X130022600Y-115261151D01*
X130022601Y-120268430D01*
X129873965Y-120283069D01*
X129706619Y-120333833D01*
X129552391Y-120416269D01*
X129417210Y-120527210D01*
X129306269Y-120662391D01*
X129223833Y-120816619D01*
X129173069Y-120983965D01*
X129155928Y-121158000D01*
X129155928Y-122682000D01*
X129173069Y-122856035D01*
X129223833Y-123023381D01*
X129306269Y-123177609D01*
X129417210Y-123312790D01*
X129552391Y-123423731D01*
X129705951Y-123505810D01*
X129540013Y-123671748D01*
X129361082Y-123939537D01*
X129237832Y-124237088D01*
X129175000Y-124552967D01*
X129175000Y-124875033D01*
X129237832Y-125190912D01*
X129361082Y-125488463D01*
X129540013Y-125756252D01*
X129767748Y-125983987D01*
X130035537Y-126162918D01*
X130333088Y-126286168D01*
X130603721Y-126340000D01*
X127206279Y-126340000D01*
X127476912Y-126286168D01*
X127774463Y-126162918D01*
X128042252Y-125983987D01*
X128269987Y-125756252D01*
X128448918Y-125488463D01*
X128572168Y-125190912D01*
X128635000Y-124875033D01*
X128635000Y-124552967D01*
X128572168Y-124237088D01*
X128448918Y-123939537D01*
X128269987Y-123671748D01*
X128155496Y-123557257D01*
X128260180Y-123525502D01*
X128370494Y-123466537D01*
X128467185Y-123387185D01*
X128546537Y-123290494D01*
X128605502Y-123180180D01*
X128641812Y-123060482D01*
X128654072Y-122936000D01*
X128651000Y-122205750D01*
X128492250Y-122047000D01*
X127127000Y-122047000D01*
X127127000Y-122067000D01*
X126873000Y-122067000D01*
X126873000Y-122047000D01*
X125507750Y-122047000D01*
X125349000Y-122205750D01*
X125345928Y-122936000D01*
X125358188Y-123060482D01*
X125394498Y-123180180D01*
X125453463Y-123290494D01*
X125532815Y-123387185D01*
X125629506Y-123466537D01*
X125739820Y-123525502D01*
X125844504Y-123557257D01*
X125730013Y-123671748D01*
X125551082Y-123939537D01*
X125427832Y-124237088D01*
X125365000Y-124552967D01*
X125365000Y-124875033D01*
X125427832Y-125190912D01*
X125551082Y-125488463D01*
X125730013Y-125756252D01*
X125957748Y-125983987D01*
X126225537Y-126162918D01*
X126523088Y-126286168D01*
X126793721Y-126340000D01*
X123396279Y-126340000D01*
X123666912Y-126286168D01*
X123964463Y-126162918D01*
X124232252Y-125983987D01*
X124459987Y-125756252D01*
X124638918Y-125488463D01*
X124762168Y-125190912D01*
X124825000Y-124875033D01*
X124825000Y-124552967D01*
X124762168Y-124237088D01*
X124638918Y-123939537D01*
X124459987Y-123671748D01*
X124294049Y-123505810D01*
X124447609Y-123423731D01*
X124582790Y-123312790D01*
X124693731Y-123177609D01*
X124776167Y-123023381D01*
X124826931Y-122856035D01*
X124844072Y-122682000D01*
X124844072Y-121158000D01*
X124826931Y-120983965D01*
X124802674Y-120904000D01*
X125345928Y-120904000D01*
X125349000Y-121634250D01*
X125507750Y-121793000D01*
X126873000Y-121793000D01*
X126873000Y-120427750D01*
X127127000Y-120427750D01*
X127127000Y-121793000D01*
X128492250Y-121793000D01*
X128651000Y-121634250D01*
X128654072Y-120904000D01*
X128641812Y-120779518D01*
X128605502Y-120659820D01*
X128546537Y-120549506D01*
X128467185Y-120452815D01*
X128370494Y-120373463D01*
X128260180Y-120314498D01*
X128140482Y-120278188D01*
X128016000Y-120265928D01*
X127285750Y-120269000D01*
X127127000Y-120427750D01*
X126873000Y-120427750D01*
X126714250Y-120269000D01*
X125984000Y-120265928D01*
X125859518Y-120278188D01*
X125739820Y-120314498D01*
X125629506Y-120373463D01*
X125532815Y-120452815D01*
X125453463Y-120549506D01*
X125394498Y-120659820D01*
X125358188Y-120779518D01*
X125345928Y-120904000D01*
X124802674Y-120904000D01*
X124776167Y-120816619D01*
X124693731Y-120662391D01*
X124582790Y-120527210D01*
X124447609Y-120416269D01*
X124293381Y-120333833D01*
X124126035Y-120283069D01*
X123952000Y-120265928D01*
X122649478Y-120265928D01*
X122072400Y-119688850D01*
X122072400Y-119309735D01*
X122199759Y-119224637D01*
X122399637Y-119024759D01*
X122556680Y-118789727D01*
X122664853Y-118528574D01*
X122720000Y-118251335D01*
X122720000Y-117968665D01*
X122664853Y-117691426D01*
X122556680Y-117430273D01*
X122399637Y-117195241D01*
X122199759Y-116995363D01*
X121964727Y-116838320D01*
X121703574Y-116730147D01*
X121426335Y-116675000D01*
X121143665Y-116675000D01*
X120866426Y-116730147D01*
X120605273Y-116838320D01*
X120370241Y-116995363D01*
X120170363Y-117195241D01*
X120013320Y-117430273D01*
X119905147Y-117691426D01*
X119850000Y-117968665D01*
X119850000Y-118251335D01*
X119905147Y-118528574D01*
X120013320Y-118789727D01*
X120170363Y-119024759D01*
X120370241Y-119224637D01*
X120497601Y-119309736D01*
X120497601Y-119976327D01*
X120493792Y-120015000D01*
X120508995Y-120169357D01*
X120554018Y-120317782D01*
X120554019Y-120317783D01*
X120594283Y-120393111D01*
X120483381Y-120333833D01*
X120316035Y-120283069D01*
X120142000Y-120265928D01*
X118897400Y-120265928D01*
X118897400Y-119309735D01*
X119024759Y-119224637D01*
X119224637Y-119024759D01*
X119381680Y-118789727D01*
X119489853Y-118528574D01*
X119545000Y-118251335D01*
X119545000Y-117968665D01*
X119489853Y-117691426D01*
X119381680Y-117430273D01*
X119224637Y-117195241D01*
X119024759Y-116995363D01*
X118789727Y-116838320D01*
X118528574Y-116730147D01*
X118251335Y-116675000D01*
X117968665Y-116675000D01*
X117691426Y-116730147D01*
X117430273Y-116838320D01*
X117195241Y-116995363D01*
X116995363Y-117195241D01*
X116838320Y-117430273D01*
X116730147Y-117691426D01*
X116675000Y-117968665D01*
X116675000Y-118251335D01*
X116730147Y-118528574D01*
X116838320Y-118789727D01*
X116995363Y-119024759D01*
X117195241Y-119224637D01*
X117322600Y-119309736D01*
X117322601Y-120611327D01*
X117318792Y-120650000D01*
X117333995Y-120804357D01*
X117379018Y-120952782D01*
X117438287Y-121063665D01*
X117452135Y-121089572D01*
X117550532Y-121209469D01*
X117580573Y-121234123D01*
X117725928Y-121379478D01*
X117725928Y-122682000D01*
X117743069Y-122856035D01*
X117793833Y-123023381D01*
X117876269Y-123177609D01*
X117987210Y-123312790D01*
X118122391Y-123423731D01*
X118275951Y-123505810D01*
X118110013Y-123671748D01*
X117931082Y-123939537D01*
X117807832Y-124237088D01*
X117745000Y-124552967D01*
X117745000Y-124875033D01*
X117807832Y-125190912D01*
X117931082Y-125488463D01*
X118110013Y-125756252D01*
X118337748Y-125983987D01*
X118605537Y-126162918D01*
X118903088Y-126286168D01*
X119173721Y-126340000D01*
X115776279Y-126340000D01*
X116046912Y-126286168D01*
X116344463Y-126162918D01*
X116612252Y-125983987D01*
X116839987Y-125756252D01*
X117018918Y-125488463D01*
X117142168Y-125190912D01*
X117205000Y-124875033D01*
X117205000Y-124552967D01*
X117142168Y-124237088D01*
X117018918Y-123939537D01*
X116839987Y-123671748D01*
X116674049Y-123505810D01*
X116827609Y-123423731D01*
X116962790Y-123312790D01*
X117073731Y-123177609D01*
X117156167Y-123023381D01*
X117206931Y-122856035D01*
X117224072Y-122682000D01*
X117224072Y-121158000D01*
X117206931Y-120983965D01*
X117156167Y-120816619D01*
X117073731Y-120662391D01*
X116962790Y-120527210D01*
X116827609Y-120416269D01*
X116673381Y-120333833D01*
X116506035Y-120283069D01*
X116332000Y-120265928D01*
X115722400Y-120265928D01*
X115722400Y-119309735D01*
X115849759Y-119224637D01*
X116049637Y-119024759D01*
X116206680Y-118789727D01*
X116314853Y-118528574D01*
X116370000Y-118251335D01*
X116370000Y-117968665D01*
X116314853Y-117691426D01*
X116206680Y-117430273D01*
X116049637Y-117195241D01*
X115849759Y-116995363D01*
X115614727Y-116838320D01*
X115353574Y-116730147D01*
X115076335Y-116675000D01*
X114793665Y-116675000D01*
X114516426Y-116730147D01*
X114255273Y-116838320D01*
X114020241Y-116995363D01*
X113820363Y-117195241D01*
X113663320Y-117430273D01*
X113555147Y-117691426D01*
X113500000Y-117968665D01*
X113500000Y-118251335D01*
X113555147Y-118528574D01*
X113663320Y-118789727D01*
X113820363Y-119024759D01*
X114020241Y-119224637D01*
X114147600Y-119309736D01*
X114147601Y-120563289D01*
X114066269Y-120662391D01*
X113983833Y-120816619D01*
X113933069Y-120983965D01*
X113915928Y-121158000D01*
X113915928Y-122682000D01*
X113933069Y-122856035D01*
X113983833Y-123023381D01*
X114066269Y-123177609D01*
X114177210Y-123312790D01*
X114312391Y-123423731D01*
X114465951Y-123505810D01*
X114300013Y-123671748D01*
X114121082Y-123939537D01*
X113997832Y-124237088D01*
X113935000Y-124552967D01*
X113935000Y-124875033D01*
X113997832Y-125190912D01*
X114121082Y-125488463D01*
X114300013Y-125756252D01*
X114527748Y-125983987D01*
X114795537Y-126162918D01*
X115093088Y-126286168D01*
X115363721Y-126340000D01*
X111966279Y-126340000D01*
X112236912Y-126286168D01*
X112534463Y-126162918D01*
X112802252Y-125983987D01*
X113029987Y-125756252D01*
X113208918Y-125488463D01*
X113332168Y-125190912D01*
X113395000Y-124875033D01*
X113395000Y-124552967D01*
X113332168Y-124237088D01*
X113208918Y-123939537D01*
X113029987Y-123671748D01*
X112864049Y-123505810D01*
X113017609Y-123423731D01*
X113152790Y-123312790D01*
X113263731Y-123177609D01*
X113346167Y-123023381D01*
X113396931Y-122856035D01*
X113414072Y-122682000D01*
X113414072Y-121158000D01*
X113396931Y-120983965D01*
X113346167Y-120816619D01*
X113263731Y-120662391D01*
X113152790Y-120527210D01*
X113017609Y-120416269D01*
X112863381Y-120333833D01*
X112696035Y-120283069D01*
X112547400Y-120268430D01*
X112547400Y-119309735D01*
X112674759Y-119224637D01*
X112874637Y-119024759D01*
X113031680Y-118789727D01*
X113139853Y-118528574D01*
X113195000Y-118251335D01*
X113195000Y-117968665D01*
X113139853Y-117691426D01*
X113031680Y-117430273D01*
X112874637Y-117195241D01*
X112674759Y-116995363D01*
X112439727Y-116838320D01*
X112178574Y-116730147D01*
X111901335Y-116675000D01*
X111618665Y-116675000D01*
X111341426Y-116730147D01*
X111080273Y-116838320D01*
X110845241Y-116995363D01*
X110645363Y-117195241D01*
X110488320Y-117430273D01*
X110380147Y-117691426D01*
X110325000Y-117968665D01*
X110325000Y-118251335D01*
X110380147Y-118528574D01*
X110488320Y-118789727D01*
X110645363Y-119024759D01*
X110845241Y-119224637D01*
X110972600Y-119309736D01*
X110972601Y-120268430D01*
X110823965Y-120283069D01*
X110656619Y-120333833D01*
X110502391Y-120416269D01*
X110367210Y-120527210D01*
X110256269Y-120662391D01*
X110173833Y-120816619D01*
X110123069Y-120983965D01*
X110105928Y-121158000D01*
X110105928Y-122682000D01*
X110123069Y-122856035D01*
X110173833Y-123023381D01*
X110256269Y-123177609D01*
X110367210Y-123312790D01*
X110502391Y-123423731D01*
X110655951Y-123505810D01*
X110490013Y-123671748D01*
X110311082Y-123939537D01*
X110187832Y-124237088D01*
X110125000Y-124552967D01*
X110125000Y-124875033D01*
X110187832Y-125190912D01*
X110311082Y-125488463D01*
X110490013Y-125756252D01*
X110717748Y-125983987D01*
X110985537Y-126162918D01*
X111283088Y-126286168D01*
X111553721Y-126340000D01*
X102260000Y-126340000D01*
X102260000Y-122969872D01*
X103175000Y-122969872D01*
X103175000Y-123410128D01*
X103260890Y-123841925D01*
X103429369Y-124248669D01*
X103673962Y-124614729D01*
X103985271Y-124926038D01*
X104351331Y-125170631D01*
X104758075Y-125339110D01*
X105189872Y-125425000D01*
X105630128Y-125425000D01*
X106061925Y-125339110D01*
X106468669Y-125170631D01*
X106834729Y-124926038D01*
X107146038Y-124614729D01*
X107390631Y-124248669D01*
X107559110Y-123841925D01*
X107645000Y-123410128D01*
X107645000Y-122969872D01*
X107559110Y-122538075D01*
X107390631Y-122131331D01*
X107146038Y-121765271D01*
X106834729Y-121453962D01*
X106468669Y-121209369D01*
X106061925Y-121040890D01*
X105630128Y-120955000D01*
X105189872Y-120955000D01*
X104758075Y-121040890D01*
X104351331Y-121209369D01*
X103985271Y-121453962D01*
X103673962Y-121765271D01*
X103429369Y-122131331D01*
X103260890Y-122538075D01*
X103175000Y-122969872D01*
X102260000Y-122969872D01*
X102260000Y-105189872D01*
X103175000Y-105189872D01*
X103175000Y-105630128D01*
X103260890Y-106061925D01*
X103429369Y-106468669D01*
X103673962Y-106834729D01*
X103985271Y-107146038D01*
X104351331Y-107390631D01*
X104758075Y-107559110D01*
X105189872Y-107645000D01*
X105630128Y-107645000D01*
X106061925Y-107559110D01*
X106468669Y-107390631D01*
X106834729Y-107146038D01*
X107146038Y-106834729D01*
X107390631Y-106468669D01*
X107559110Y-106061925D01*
X107645000Y-105630128D01*
X107645000Y-105189872D01*
X107559110Y-104758075D01*
X107390631Y-104351331D01*
X107146038Y-103985271D01*
X106834729Y-103673962D01*
X106468669Y-103429369D01*
X106061925Y-103260890D01*
X105630128Y-103175000D01*
X105189872Y-103175000D01*
X104758075Y-103260890D01*
X104351331Y-103429369D01*
X103985271Y-103673962D01*
X103673962Y-103985271D01*
X103429369Y-104351331D01*
X103260890Y-104758075D01*
X103175000Y-105189872D01*
X102260000Y-105189872D01*
X102260000Y-102260000D01*
X151740000Y-102260000D01*
X151740001Y-126340000D01*
%TA.AperFunction,Conductor*%
D18*
G36*
X151740001Y-126340000D02*
G01*
X138636279Y-126340000D01*
X138906912Y-126286168D01*
X139204463Y-126162918D01*
X139472252Y-125983987D01*
X139699987Y-125756252D01*
X139878918Y-125488463D01*
X140002168Y-125190912D01*
X140065000Y-124875033D01*
X140065000Y-124552967D01*
X140002168Y-124237088D01*
X139878918Y-123939537D01*
X139699987Y-123671748D01*
X139534049Y-123505810D01*
X139687609Y-123423731D01*
X139822790Y-123312790D01*
X139933731Y-123177609D01*
X140016167Y-123023381D01*
X140066931Y-122856035D01*
X140084072Y-122682000D01*
X140084072Y-121158000D01*
X140074781Y-121063665D01*
X141313000Y-121063665D01*
X141313000Y-121346335D01*
X141368147Y-121623574D01*
X141476320Y-121884727D01*
X141633363Y-122119759D01*
X141833241Y-122319637D01*
X142068273Y-122476680D01*
X142329426Y-122584853D01*
X142606665Y-122640000D01*
X142889335Y-122640000D01*
X143166574Y-122584853D01*
X143427727Y-122476680D01*
X143662759Y-122319637D01*
X143862637Y-122119759D01*
X144019680Y-121884727D01*
X144127853Y-121623574D01*
X144128443Y-121620607D01*
X146369051Y-119380000D01*
X149087760Y-119380000D01*
X149156589Y-119425990D01*
X149426842Y-119537932D01*
X149713740Y-119595000D01*
X150006260Y-119595000D01*
X150293158Y-119537932D01*
X150563411Y-119425990D01*
X150806632Y-119263475D01*
X151013475Y-119056632D01*
X151175990Y-118813411D01*
X151287932Y-118543158D01*
X151345000Y-118256260D01*
X151345000Y-117963740D01*
X151287932Y-117676842D01*
X151175990Y-117406589D01*
X151013475Y-117163368D01*
X150806632Y-116956525D01*
X150624466Y-116834805D01*
X150741355Y-116765178D01*
X150957588Y-116570269D01*
X151131641Y-116336920D01*
X151256825Y-116074099D01*
X151301476Y-115926890D01*
X151180155Y-115697000D01*
X149987000Y-115697000D01*
X149987000Y-115717000D01*
X149733000Y-115717000D01*
X149733000Y-115697000D01*
X148539845Y-115697000D01*
X148418524Y-115926890D01*
X148463175Y-116074099D01*
X148588359Y-116336920D01*
X148762412Y-116570269D01*
X148978645Y-116765178D01*
X149095534Y-116834805D01*
X149087760Y-116840000D01*
X145905373Y-116840000D01*
X145843000Y-116833857D01*
X145780627Y-116840000D01*
X145780620Y-116840000D01*
X145617347Y-116856081D01*
X145594036Y-116858377D01*
X145521416Y-116880406D01*
X145354641Y-116930997D01*
X145134012Y-117048925D01*
X144940630Y-117207630D01*
X144900863Y-117256086D01*
X142332393Y-119824557D01*
X142329426Y-119825147D01*
X142068273Y-119933320D01*
X141833241Y-120090363D01*
X141633363Y-120290241D01*
X141476320Y-120525273D01*
X141368147Y-120786426D01*
X141313000Y-121063665D01*
X140074781Y-121063665D01*
X140066931Y-120983965D01*
X140016167Y-120816619D01*
X139933731Y-120662391D01*
X139822790Y-120527210D01*
X139687609Y-120416269D01*
X139533381Y-120333833D01*
X139366035Y-120283069D01*
X139217400Y-120268430D01*
X139217400Y-117197702D01*
X141934903Y-117197702D01*
X142006486Y-117441671D01*
X142261996Y-117562571D01*
X142536184Y-117631300D01*
X142818512Y-117645217D01*
X143098130Y-117603787D01*
X143364292Y-117508603D01*
X143489514Y-117441671D01*
X143561097Y-117197702D01*
X142748000Y-116384605D01*
X141934903Y-117197702D01*
X139217400Y-117197702D01*
X139217400Y-116275512D01*
X141307783Y-116275512D01*
X141349213Y-116555130D01*
X141444397Y-116821292D01*
X141511329Y-116946514D01*
X141755298Y-117018097D01*
X142568395Y-116205000D01*
X142927605Y-116205000D01*
X143740702Y-117018097D01*
X143984671Y-116946514D01*
X144105571Y-116691004D01*
X144174300Y-116416816D01*
X144188217Y-116134488D01*
X144146787Y-115854870D01*
X144051603Y-115588708D01*
X143984671Y-115463486D01*
X143740702Y-115391903D01*
X142927605Y-116205000D01*
X142568395Y-116205000D01*
X141755298Y-115391903D01*
X141511329Y-115463486D01*
X141390429Y-115718996D01*
X141321700Y-115993184D01*
X141307783Y-116275512D01*
X139217400Y-116275512D01*
X139217400Y-115212298D01*
X141934903Y-115212298D01*
X142748000Y-116025395D01*
X143561097Y-115212298D01*
X143489514Y-114968329D01*
X143234004Y-114847429D01*
X142959816Y-114778700D01*
X142677488Y-114764783D01*
X142397870Y-114806213D01*
X142131708Y-114901397D01*
X142006486Y-114968329D01*
X141934903Y-115212298D01*
X139217400Y-115212298D01*
X139217400Y-114196702D01*
X141934903Y-114196702D01*
X142006486Y-114440671D01*
X142261996Y-114561571D01*
X142536184Y-114630300D01*
X142818512Y-114644217D01*
X143098130Y-114602787D01*
X143364292Y-114507603D01*
X143489514Y-114440671D01*
X143561097Y-114196702D01*
X142748000Y-113383605D01*
X141934903Y-114196702D01*
X139217400Y-114196702D01*
X139217400Y-113274512D01*
X141307783Y-113274512D01*
X141349213Y-113554130D01*
X141444397Y-113820292D01*
X141511329Y-113945514D01*
X141755298Y-114017097D01*
X142568395Y-113204000D01*
X142927605Y-113204000D01*
X143740702Y-114017097D01*
X143984671Y-113945514D01*
X144105571Y-113690004D01*
X144174300Y-113415816D01*
X144175725Y-113386890D01*
X148418524Y-113386890D01*
X148463175Y-113534099D01*
X148588359Y-113796920D01*
X148762412Y-114030269D01*
X148978645Y-114225178D01*
X149104255Y-114300000D01*
X148978645Y-114374822D01*
X148762412Y-114569731D01*
X148588359Y-114803080D01*
X148463175Y-115065901D01*
X148418524Y-115213110D01*
X148539845Y-115443000D01*
X149733000Y-115443000D01*
X149733000Y-113157000D01*
X149987000Y-113157000D01*
X149987000Y-115443000D01*
X151180155Y-115443000D01*
X151301476Y-115213110D01*
X151256825Y-115065901D01*
X151131641Y-114803080D01*
X150957588Y-114569731D01*
X150741355Y-114374822D01*
X150615745Y-114300000D01*
X150741355Y-114225178D01*
X150957588Y-114030269D01*
X151131641Y-113796920D01*
X151256825Y-113534099D01*
X151301476Y-113386890D01*
X151180155Y-113157000D01*
X149987000Y-113157000D01*
X149733000Y-113157000D01*
X148539845Y-113157000D01*
X148418524Y-113386890D01*
X144175725Y-113386890D01*
X144188217Y-113133488D01*
X144146787Y-112853870D01*
X144051603Y-112587708D01*
X143984671Y-112462486D01*
X143740702Y-112390903D01*
X142927605Y-113204000D01*
X142568395Y-113204000D01*
X141755298Y-112390903D01*
X141511329Y-112462486D01*
X141390429Y-112717996D01*
X141321700Y-112992184D01*
X141307783Y-113274512D01*
X139217400Y-113274512D01*
X139217400Y-112211298D01*
X141934903Y-112211298D01*
X142748000Y-113024395D01*
X143561097Y-112211298D01*
X143489514Y-111967329D01*
X143234004Y-111846429D01*
X142959816Y-111777700D01*
X142677488Y-111763783D01*
X142397870Y-111805213D01*
X142131708Y-111900397D01*
X142006486Y-111967329D01*
X141934903Y-112211298D01*
X139217400Y-112211298D01*
X139217400Y-108062665D01*
X141313000Y-108062665D01*
X141313000Y-108345335D01*
X141368147Y-108622574D01*
X141476320Y-108883727D01*
X141633363Y-109118759D01*
X141833241Y-109318637D01*
X142068273Y-109475680D01*
X142329426Y-109583853D01*
X142332393Y-109584443D01*
X144091863Y-111343914D01*
X144131630Y-111392370D01*
X144325012Y-111551075D01*
X144545641Y-111669003D01*
X144678107Y-111709186D01*
X144785036Y-111741623D01*
X144810755Y-111744156D01*
X144971620Y-111760000D01*
X144971626Y-111760000D01*
X145033999Y-111766143D01*
X145096372Y-111760000D01*
X148533222Y-111760000D01*
X148558815Y-111791185D01*
X148655506Y-111870537D01*
X148765820Y-111929502D01*
X148846466Y-111953966D01*
X148762412Y-112029731D01*
X148588359Y-112263080D01*
X148463175Y-112525901D01*
X148418524Y-112673110D01*
X148539845Y-112903000D01*
X149733000Y-112903000D01*
X149733000Y-112883000D01*
X149987000Y-112883000D01*
X149987000Y-112903000D01*
X151180155Y-112903000D01*
X151301476Y-112673110D01*
X151256825Y-112525901D01*
X151131641Y-112263080D01*
X150957588Y-112029731D01*
X150873534Y-111953966D01*
X150954180Y-111929502D01*
X151064494Y-111870537D01*
X151161185Y-111791185D01*
X151240537Y-111694494D01*
X151299502Y-111584180D01*
X151335812Y-111464482D01*
X151348072Y-111340000D01*
X151348072Y-109640000D01*
X151335812Y-109515518D01*
X151299502Y-109395820D01*
X151240537Y-109285506D01*
X151161185Y-109188815D01*
X151064494Y-109109463D01*
X150954180Y-109050498D01*
X150834482Y-109014188D01*
X150710000Y-109001928D01*
X149010000Y-109001928D01*
X148885518Y-109014188D01*
X148765820Y-109050498D01*
X148655506Y-109109463D01*
X148558815Y-109188815D01*
X148533222Y-109220000D01*
X145560051Y-109220000D01*
X144128443Y-107788393D01*
X144127853Y-107785426D01*
X144019680Y-107524273D01*
X143862637Y-107289241D01*
X143662759Y-107089363D01*
X143427727Y-106932320D01*
X143166574Y-106824147D01*
X142889335Y-106769000D01*
X142606665Y-106769000D01*
X142329426Y-106824147D01*
X142068273Y-106932320D01*
X141833241Y-107089363D01*
X141633363Y-107289241D01*
X141476320Y-107524273D01*
X141368147Y-107785426D01*
X141313000Y-108062665D01*
X139217400Y-108062665D01*
X139217400Y-106464662D01*
X139221208Y-106425999D01*
X139217400Y-106387336D01*
X139217400Y-106387327D01*
X139206006Y-106271643D01*
X139160982Y-106123217D01*
X139087866Y-105986428D01*
X138989469Y-105866531D01*
X138959434Y-105841882D01*
X137116217Y-103998665D01*
X140805000Y-103998665D01*
X140805000Y-104281335D01*
X140860147Y-104558574D01*
X140968320Y-104819727D01*
X141125363Y-105054759D01*
X141325241Y-105254637D01*
X141560273Y-105411680D01*
X141821426Y-105519853D01*
X142098665Y-105575000D01*
X142381335Y-105575000D01*
X142658574Y-105519853D01*
X142919727Y-105411680D01*
X143154759Y-105254637D01*
X143354637Y-105054759D01*
X143511680Y-104819727D01*
X143619853Y-104558574D01*
X143675000Y-104281335D01*
X143675000Y-103998665D01*
X143619853Y-103721426D01*
X143511680Y-103460273D01*
X143354637Y-103225241D01*
X143154759Y-103025363D01*
X142919727Y-102868320D01*
X142658574Y-102760147D01*
X142381335Y-102705000D01*
X142098665Y-102705000D01*
X141821426Y-102760147D01*
X141560273Y-102868320D01*
X141325241Y-103025363D01*
X141125363Y-103225241D01*
X140968320Y-103460273D01*
X140860147Y-103721426D01*
X140805000Y-103998665D01*
X137116217Y-103998665D01*
X136728128Y-103610577D01*
X136703469Y-103580531D01*
X136583572Y-103482134D01*
X136446783Y-103409018D01*
X136298357Y-103363994D01*
X136182673Y-103352600D01*
X136182663Y-103352600D01*
X136144000Y-103348792D01*
X136105337Y-103352600D01*
X135819735Y-103352600D01*
X135734637Y-103225241D01*
X135534759Y-103025363D01*
X135299727Y-102868320D01*
X135038574Y-102760147D01*
X134761335Y-102705000D01*
X134478665Y-102705000D01*
X134201426Y-102760147D01*
X133940273Y-102868320D01*
X133705241Y-103025363D01*
X133505363Y-103225241D01*
X133420265Y-103352600D01*
X132644735Y-103352600D01*
X132559637Y-103225241D01*
X132359759Y-103025363D01*
X132124727Y-102868320D01*
X131863574Y-102760147D01*
X131586335Y-102705000D01*
X131303665Y-102705000D01*
X131026426Y-102760147D01*
X130765273Y-102868320D01*
X130530241Y-103025363D01*
X130330363Y-103225241D01*
X130173320Y-103460273D01*
X130065147Y-103721426D01*
X130010000Y-103998665D01*
X130010000Y-104281335D01*
X130065147Y-104558574D01*
X130173320Y-104819727D01*
X130330363Y-105054759D01*
X130530241Y-105254637D01*
X130765273Y-105411680D01*
X131026426Y-105519853D01*
X131303665Y-105575000D01*
X131586335Y-105575000D01*
X131863574Y-105519853D01*
X132124727Y-105411680D01*
X132359759Y-105254637D01*
X132559637Y-105054759D01*
X132644735Y-104927400D01*
X133420265Y-104927400D01*
X133505363Y-105054759D01*
X133705241Y-105254637D01*
X133940273Y-105411680D01*
X134201426Y-105519853D01*
X134478665Y-105575000D01*
X134761335Y-105575000D01*
X135038574Y-105519853D01*
X135299727Y-105411680D01*
X135534759Y-105254637D01*
X135734637Y-105054759D01*
X135818980Y-104928530D01*
X137642600Y-106752152D01*
X137642601Y-120268430D01*
X137493965Y-120283069D01*
X137326619Y-120333833D01*
X137172391Y-120416269D01*
X137037210Y-120527210D01*
X136926269Y-120662391D01*
X136843833Y-120816619D01*
X136793069Y-120983965D01*
X136775928Y-121158000D01*
X136775928Y-122682000D01*
X136793069Y-122856035D01*
X136843833Y-123023381D01*
X136926269Y-123177609D01*
X137037210Y-123312790D01*
X137172391Y-123423731D01*
X137325951Y-123505810D01*
X137160013Y-123671748D01*
X136981082Y-123939537D01*
X136857832Y-124237088D01*
X136795000Y-124552967D01*
X136795000Y-124875033D01*
X136857832Y-125190912D01*
X136981082Y-125488463D01*
X137160013Y-125756252D01*
X137387748Y-125983987D01*
X137655537Y-126162918D01*
X137953088Y-126286168D01*
X138223721Y-126340000D01*
X134826279Y-126340000D01*
X135096912Y-126286168D01*
X135394463Y-126162918D01*
X135662252Y-125983987D01*
X135889987Y-125756252D01*
X136068918Y-125488463D01*
X136192168Y-125190912D01*
X136255000Y-124875033D01*
X136255000Y-124552967D01*
X136192168Y-124237088D01*
X136068918Y-123939537D01*
X135889987Y-123671748D01*
X135724049Y-123505810D01*
X135877609Y-123423731D01*
X136012790Y-123312790D01*
X136123731Y-123177609D01*
X136206167Y-123023381D01*
X136256931Y-122856035D01*
X136274072Y-122682000D01*
X136274072Y-121158000D01*
X136256931Y-120983965D01*
X136206167Y-120816619D01*
X136123731Y-120662391D01*
X136012790Y-120527210D01*
X135877609Y-120416269D01*
X135723381Y-120333833D01*
X135556035Y-120283069D01*
X135382000Y-120265928D01*
X134079479Y-120265928D01*
X133883400Y-120069850D01*
X133883400Y-117255981D01*
X133903754Y-117323087D01*
X134023963Y-117577420D01*
X134191481Y-117803414D01*
X134399869Y-117992385D01*
X134641119Y-118137070D01*
X134905960Y-118231909D01*
X135128000Y-118110624D01*
X135128000Y-116967000D01*
X135382000Y-116967000D01*
X135382000Y-118110624D01*
X135604040Y-118231909D01*
X135868881Y-118137070D01*
X136110131Y-117992385D01*
X136318519Y-117803414D01*
X136486037Y-117577420D01*
X136606246Y-117323087D01*
X136646904Y-117189039D01*
X136524915Y-116967000D01*
X135382000Y-116967000D01*
X135128000Y-116967000D01*
X135108000Y-116967000D01*
X135108000Y-116713000D01*
X135128000Y-116713000D01*
X135128000Y-116693000D01*
X135382000Y-116693000D01*
X135382000Y-116713000D01*
X136524915Y-116713000D01*
X136646904Y-116490961D01*
X136606246Y-116356913D01*
X136486037Y-116102580D01*
X136318519Y-115876586D01*
X136110131Y-115687615D01*
X135924135Y-115576067D01*
X135934727Y-115571680D01*
X136169759Y-115414637D01*
X136369637Y-115214759D01*
X136526680Y-114979727D01*
X136634853Y-114718574D01*
X136690000Y-114441335D01*
X136690000Y-114158665D01*
X136634853Y-113881426D01*
X136526680Y-113620273D01*
X136369637Y-113385241D01*
X136169759Y-113185363D01*
X135937241Y-113030000D01*
X136169759Y-112874637D01*
X136369637Y-112674759D01*
X136526680Y-112439727D01*
X136634853Y-112178574D01*
X136690000Y-111901335D01*
X136690000Y-111618665D01*
X136634853Y-111341426D01*
X136526680Y-111080273D01*
X136369637Y-110845241D01*
X136169759Y-110645363D01*
X135937241Y-110490000D01*
X136169759Y-110334637D01*
X136369637Y-110134759D01*
X136526680Y-109899727D01*
X136634853Y-109638574D01*
X136690000Y-109361335D01*
X136690000Y-109078665D01*
X136634853Y-108801426D01*
X136526680Y-108540273D01*
X136369637Y-108305241D01*
X136169759Y-108105363D01*
X135934727Y-107948320D01*
X135673574Y-107840147D01*
X135396335Y-107785000D01*
X135113665Y-107785000D01*
X134836426Y-107840147D01*
X134575273Y-107948320D01*
X134340241Y-108105363D01*
X134140363Y-108305241D01*
X133983320Y-108540273D01*
X133875147Y-108801426D01*
X133820000Y-109078665D01*
X133820000Y-109361335D01*
X133875147Y-109638574D01*
X133983320Y-109899727D01*
X134140363Y-110134759D01*
X134340241Y-110334637D01*
X134572759Y-110490000D01*
X134340241Y-110645363D01*
X134140363Y-110845241D01*
X133983320Y-111080273D01*
X133875147Y-111341426D01*
X133820000Y-111618665D01*
X133820000Y-111751450D01*
X132867400Y-110798850D01*
X132867400Y-110528662D01*
X132871208Y-110489999D01*
X132867400Y-110451336D01*
X132867400Y-110451327D01*
X132856006Y-110335643D01*
X132810982Y-110187217D01*
X132737866Y-110050428D01*
X132639469Y-109930531D01*
X132609434Y-109905882D01*
X126314128Y-103610578D01*
X126289469Y-103580531D01*
X126169572Y-103482134D01*
X126032783Y-103409018D01*
X125884357Y-103363994D01*
X125768673Y-103352600D01*
X125768663Y-103352600D01*
X125730000Y-103348792D01*
X125691337Y-103352600D01*
X125024735Y-103352600D01*
X124939637Y-103225241D01*
X124739759Y-103025363D01*
X124504727Y-102868320D01*
X124243574Y-102760147D01*
X123966335Y-102705000D01*
X123683665Y-102705000D01*
X123406426Y-102760147D01*
X123145273Y-102868320D01*
X122910241Y-103025363D01*
X122710363Y-103225241D01*
X122625265Y-103352600D01*
X120579735Y-103352600D01*
X120494637Y-103225241D01*
X120294759Y-103025363D01*
X120059727Y-102868320D01*
X119798574Y-102760147D01*
X119521335Y-102705000D01*
X119238665Y-102705000D01*
X118961426Y-102760147D01*
X118700273Y-102868320D01*
X118465241Y-103025363D01*
X118265363Y-103225241D01*
X118108320Y-103460273D01*
X118000147Y-103721426D01*
X117945000Y-103998665D01*
X117945000Y-104281335D01*
X118000147Y-104558574D01*
X118108320Y-104819727D01*
X118265363Y-105054759D01*
X118465241Y-105254637D01*
X118700273Y-105411680D01*
X118961426Y-105519853D01*
X119238665Y-105575000D01*
X119521335Y-105575000D01*
X119798574Y-105519853D01*
X120059727Y-105411680D01*
X120294759Y-105254637D01*
X120494637Y-105054759D01*
X120579735Y-104927400D01*
X122625265Y-104927400D01*
X122710363Y-105054759D01*
X122910241Y-105254637D01*
X123145273Y-105411680D01*
X123406426Y-105519853D01*
X123683665Y-105575000D01*
X123966335Y-105575000D01*
X124243574Y-105519853D01*
X124504727Y-105411680D01*
X124739759Y-105254637D01*
X124939637Y-105054759D01*
X125024735Y-104927400D01*
X125403850Y-104927400D01*
X128258377Y-107781928D01*
X126835000Y-107781928D01*
X126710518Y-107794188D01*
X126590820Y-107830498D01*
X126480506Y-107889463D01*
X126383815Y-107968815D01*
X126304463Y-108065506D01*
X126245498Y-108175820D01*
X126209188Y-108295518D01*
X126196928Y-108420000D01*
X126196928Y-108432600D01*
X125040151Y-108432600D01*
X123393128Y-106785578D01*
X123368469Y-106755531D01*
X123248572Y-106657134D01*
X123111783Y-106584018D01*
X122963357Y-106538994D01*
X122847673Y-106527600D01*
X122847663Y-106527600D01*
X122809000Y-106523792D01*
X122770337Y-106527600D01*
X120579735Y-106527600D01*
X120494637Y-106400241D01*
X120294759Y-106200363D01*
X120059727Y-106043320D01*
X119798574Y-105935147D01*
X119521335Y-105880000D01*
X119238665Y-105880000D01*
X118961426Y-105935147D01*
X118700273Y-106043320D01*
X118465241Y-106200363D01*
X118265363Y-106400241D01*
X118180265Y-106527600D01*
X117293151Y-106527600D01*
X114376128Y-103610578D01*
X114351469Y-103580531D01*
X114231572Y-103482134D01*
X114094783Y-103409018D01*
X113946357Y-103363994D01*
X113830673Y-103352600D01*
X113830663Y-103352600D01*
X113792000Y-103348792D01*
X113753337Y-103352600D01*
X112959735Y-103352600D01*
X112874637Y-103225241D01*
X112674759Y-103025363D01*
X112439727Y-102868320D01*
X112178574Y-102760147D01*
X111901335Y-102705000D01*
X111618665Y-102705000D01*
X111341426Y-102760147D01*
X111080273Y-102868320D01*
X110845241Y-103025363D01*
X110645363Y-103225241D01*
X110488320Y-103460273D01*
X110380147Y-103721426D01*
X110325000Y-103998665D01*
X110325000Y-104281335D01*
X110380147Y-104558574D01*
X110488320Y-104819727D01*
X110645363Y-105054759D01*
X110845241Y-105254637D01*
X111080273Y-105411680D01*
X111341426Y-105519853D01*
X111618665Y-105575000D01*
X111901335Y-105575000D01*
X112178574Y-105519853D01*
X112439727Y-105411680D01*
X112674759Y-105254637D01*
X112874637Y-105054759D01*
X112959735Y-104927400D01*
X113465850Y-104927400D01*
X116382877Y-107844428D01*
X116407531Y-107874469D01*
X116527428Y-107972866D01*
X116664217Y-108045982D01*
X116812643Y-108091006D01*
X116928327Y-108102400D01*
X116928336Y-108102400D01*
X116966999Y-108106208D01*
X117005662Y-108102400D01*
X118180265Y-108102400D01*
X118265363Y-108229759D01*
X118465241Y-108429637D01*
X118700273Y-108586680D01*
X118961426Y-108694853D01*
X119238665Y-108750000D01*
X119521335Y-108750000D01*
X119798574Y-108694853D01*
X120059727Y-108586680D01*
X120294759Y-108429637D01*
X120494637Y-108229759D01*
X120579735Y-108102400D01*
X122482850Y-108102400D01*
X124129877Y-109749428D01*
X124154531Y-109779469D01*
X124184570Y-109804121D01*
X124274427Y-109877866D01*
X124372956Y-109930531D01*
X124411217Y-109950982D01*
X124559643Y-109996006D01*
X124675327Y-110007400D01*
X124675337Y-110007400D01*
X124714000Y-110011208D01*
X124752663Y-110007400D01*
X126196928Y-110007400D01*
X126196928Y-110020000D01*
X126209188Y-110144482D01*
X126245498Y-110264180D01*
X126304463Y-110374494D01*
X126383815Y-110471185D01*
X126480506Y-110550537D01*
X126590820Y-110609502D01*
X126710518Y-110645812D01*
X126718961Y-110646643D01*
X126520363Y-110845241D01*
X126435265Y-110972600D01*
X125294152Y-110972600D01*
X124282127Y-109960577D01*
X124257469Y-109930531D01*
X124137572Y-109832134D01*
X124000783Y-109759018D01*
X123852357Y-109713994D01*
X123736673Y-109702600D01*
X123736663Y-109702600D01*
X123698000Y-109698792D01*
X123659337Y-109702600D01*
X122484735Y-109702600D01*
X122399637Y-109575241D01*
X122199759Y-109375363D01*
X121964727Y-109218320D01*
X121703574Y-109110147D01*
X121426335Y-109055000D01*
X121143665Y-109055000D01*
X120866426Y-109110147D01*
X120605273Y-109218320D01*
X120370241Y-109375363D01*
X120170363Y-109575241D01*
X120085265Y-109702600D01*
X119309735Y-109702600D01*
X119224637Y-109575241D01*
X119024759Y-109375363D01*
X118789727Y-109218320D01*
X118528574Y-109110147D01*
X118251335Y-109055000D01*
X117968665Y-109055000D01*
X117691426Y-109110147D01*
X117430273Y-109218320D01*
X117195241Y-109375363D01*
X116995363Y-109575241D01*
X116910265Y-109702600D01*
X116134735Y-109702600D01*
X116049637Y-109575241D01*
X115849759Y-109375363D01*
X115614727Y-109218320D01*
X115353574Y-109110147D01*
X115076335Y-109055000D01*
X114793665Y-109055000D01*
X114516426Y-109110147D01*
X114255273Y-109218320D01*
X114020241Y-109375363D01*
X113820363Y-109575241D01*
X113735265Y-109702600D01*
X112959735Y-109702600D01*
X112874637Y-109575241D01*
X112674759Y-109375363D01*
X112547400Y-109290265D01*
X112547400Y-108514735D01*
X112674759Y-108429637D01*
X112874637Y-108229759D01*
X113031680Y-107994727D01*
X113139853Y-107733574D01*
X113195000Y-107456335D01*
X113195000Y-107173665D01*
X113139853Y-106896426D01*
X113031680Y-106635273D01*
X112874637Y-106400241D01*
X112674759Y-106200363D01*
X112439727Y-106043320D01*
X112178574Y-105935147D01*
X111901335Y-105880000D01*
X111618665Y-105880000D01*
X111341426Y-105935147D01*
X111080273Y-106043320D01*
X110845241Y-106200363D01*
X110645363Y-106400241D01*
X110488320Y-106635273D01*
X110380147Y-106896426D01*
X110325000Y-107173665D01*
X110325000Y-107456335D01*
X110380147Y-107733574D01*
X110488320Y-107994727D01*
X110645363Y-108229759D01*
X110845241Y-108429637D01*
X110972600Y-108514736D01*
X110972601Y-109290264D01*
X110845241Y-109375363D01*
X110645363Y-109575241D01*
X110488320Y-109810273D01*
X110380147Y-110071426D01*
X110325000Y-110348665D01*
X110325000Y-110631335D01*
X110380147Y-110908574D01*
X110488320Y-111169727D01*
X110645363Y-111404759D01*
X110845241Y-111604637D01*
X111080273Y-111761680D01*
X111341426Y-111869853D01*
X111618665Y-111925000D01*
X111901335Y-111925000D01*
X112178574Y-111869853D01*
X112439727Y-111761680D01*
X112674759Y-111604637D01*
X112874637Y-111404759D01*
X112959735Y-111277400D01*
X113735265Y-111277400D01*
X113820363Y-111404759D01*
X114020241Y-111604637D01*
X114255273Y-111761680D01*
X114516426Y-111869853D01*
X114793665Y-111925000D01*
X115076335Y-111925000D01*
X115353574Y-111869853D01*
X115614727Y-111761680D01*
X115849759Y-111604637D01*
X116049637Y-111404759D01*
X116134735Y-111277400D01*
X116910265Y-111277400D01*
X116995363Y-111404759D01*
X117195241Y-111604637D01*
X117430273Y-111761680D01*
X117691426Y-111869853D01*
X117968665Y-111925000D01*
X118251335Y-111925000D01*
X118528574Y-111869853D01*
X118789727Y-111761680D01*
X119024759Y-111604637D01*
X119224637Y-111404759D01*
X119309735Y-111277400D01*
X120085265Y-111277400D01*
X120170363Y-111404759D01*
X120370241Y-111604637D01*
X120605273Y-111761680D01*
X120866426Y-111869853D01*
X121143665Y-111925000D01*
X121426335Y-111925000D01*
X121703574Y-111869853D01*
X121964727Y-111761680D01*
X122199759Y-111604637D01*
X122399637Y-111404759D01*
X122484735Y-111277400D01*
X123371850Y-111277400D01*
X124383881Y-112289433D01*
X124408531Y-112319469D01*
X124438567Y-112344119D01*
X124438569Y-112344121D01*
X124502055Y-112396222D01*
X124528428Y-112417866D01*
X124665217Y-112490982D01*
X124813643Y-112536006D01*
X124929327Y-112547400D01*
X124929336Y-112547400D01*
X124967999Y-112551208D01*
X125006662Y-112547400D01*
X126435265Y-112547400D01*
X126520363Y-112674759D01*
X126720241Y-112874637D01*
X126955273Y-113031680D01*
X126965865Y-113036067D01*
X126779869Y-113147615D01*
X126571481Y-113336586D01*
X126403963Y-113562580D01*
X126283754Y-113816913D01*
X126243096Y-113950961D01*
X126365085Y-114173000D01*
X127508000Y-114173000D01*
X127508000Y-114153000D01*
X127762000Y-114153000D01*
X127762000Y-114173000D01*
X127782000Y-114173000D01*
X127782000Y-114427000D01*
X127762000Y-114427000D01*
X127762000Y-114447000D01*
X127508000Y-114447000D01*
X127508000Y-114427000D01*
X126365085Y-114427000D01*
X126243096Y-114649039D01*
X126283754Y-114783087D01*
X126403963Y-115037420D01*
X126571481Y-115263414D01*
X126779869Y-115452385D01*
X126965865Y-115563933D01*
X126955273Y-115568320D01*
X126720241Y-115725363D01*
X126520363Y-115925241D01*
X126363320Y-116160273D01*
X126255147Y-116421426D01*
X126200000Y-116698665D01*
X126200000Y-116981335D01*
X126255147Y-117258574D01*
X126363320Y-117519727D01*
X126520363Y-117754759D01*
X126720241Y-117954637D01*
X126955273Y-118111680D01*
X127216426Y-118219853D01*
X127493665Y-118275000D01*
X127776335Y-118275000D01*
X128053574Y-118219853D01*
X128314727Y-118111680D01*
X128549759Y-117954637D01*
X128749637Y-117754759D01*
X128906680Y-117519727D01*
X129014853Y-117258574D01*
X129070000Y-116981335D01*
X129070000Y-116698665D01*
X129014853Y-116421426D01*
X128906680Y-116160273D01*
X128749637Y-115925241D01*
X128549759Y-115725363D01*
X128314727Y-115568320D01*
X128304135Y-115563933D01*
X128490131Y-115452385D01*
X128698519Y-115263414D01*
X128866037Y-115037420D01*
X128986246Y-114783087D01*
X129026904Y-114649039D01*
X128904916Y-114427002D01*
X129070000Y-114427002D01*
X129070000Y-114308550D01*
X130022600Y-115261151D01*
X130022601Y-120268430D01*
X129873965Y-120283069D01*
X129706619Y-120333833D01*
X129552391Y-120416269D01*
X129417210Y-120527210D01*
X129306269Y-120662391D01*
X129223833Y-120816619D01*
X129173069Y-120983965D01*
X129155928Y-121158000D01*
X129155928Y-122682000D01*
X129173069Y-122856035D01*
X129223833Y-123023381D01*
X129306269Y-123177609D01*
X129417210Y-123312790D01*
X129552391Y-123423731D01*
X129705951Y-123505810D01*
X129540013Y-123671748D01*
X129361082Y-123939537D01*
X129237832Y-124237088D01*
X129175000Y-124552967D01*
X129175000Y-124875033D01*
X129237832Y-125190912D01*
X129361082Y-125488463D01*
X129540013Y-125756252D01*
X129767748Y-125983987D01*
X130035537Y-126162918D01*
X130333088Y-126286168D01*
X130603721Y-126340000D01*
X127206279Y-126340000D01*
X127476912Y-126286168D01*
X127774463Y-126162918D01*
X128042252Y-125983987D01*
X128269987Y-125756252D01*
X128448918Y-125488463D01*
X128572168Y-125190912D01*
X128635000Y-124875033D01*
X128635000Y-124552967D01*
X128572168Y-124237088D01*
X128448918Y-123939537D01*
X128269987Y-123671748D01*
X128155496Y-123557257D01*
X128260180Y-123525502D01*
X128370494Y-123466537D01*
X128467185Y-123387185D01*
X128546537Y-123290494D01*
X128605502Y-123180180D01*
X128641812Y-123060482D01*
X128654072Y-122936000D01*
X128651000Y-122205750D01*
X128492250Y-122047000D01*
X127127000Y-122047000D01*
X127127000Y-122067000D01*
X126873000Y-122067000D01*
X126873000Y-122047000D01*
X125507750Y-122047000D01*
X125349000Y-122205750D01*
X125345928Y-122936000D01*
X125358188Y-123060482D01*
X125394498Y-123180180D01*
X125453463Y-123290494D01*
X125532815Y-123387185D01*
X125629506Y-123466537D01*
X125739820Y-123525502D01*
X125844504Y-123557257D01*
X125730013Y-123671748D01*
X125551082Y-123939537D01*
X125427832Y-124237088D01*
X125365000Y-124552967D01*
X125365000Y-124875033D01*
X125427832Y-125190912D01*
X125551082Y-125488463D01*
X125730013Y-125756252D01*
X125957748Y-125983987D01*
X126225537Y-126162918D01*
X126523088Y-126286168D01*
X126793721Y-126340000D01*
X123396279Y-126340000D01*
X123666912Y-126286168D01*
X123964463Y-126162918D01*
X124232252Y-125983987D01*
X124459987Y-125756252D01*
X124638918Y-125488463D01*
X124762168Y-125190912D01*
X124825000Y-124875033D01*
X124825000Y-124552967D01*
X124762168Y-124237088D01*
X124638918Y-123939537D01*
X124459987Y-123671748D01*
X124294049Y-123505810D01*
X124447609Y-123423731D01*
X124582790Y-123312790D01*
X124693731Y-123177609D01*
X124776167Y-123023381D01*
X124826931Y-122856035D01*
X124844072Y-122682000D01*
X124844072Y-121158000D01*
X124826931Y-120983965D01*
X124802674Y-120904000D01*
X125345928Y-120904000D01*
X125349000Y-121634250D01*
X125507750Y-121793000D01*
X126873000Y-121793000D01*
X126873000Y-120427750D01*
X127127000Y-120427750D01*
X127127000Y-121793000D01*
X128492250Y-121793000D01*
X128651000Y-121634250D01*
X128654072Y-120904000D01*
X128641812Y-120779518D01*
X128605502Y-120659820D01*
X128546537Y-120549506D01*
X128467185Y-120452815D01*
X128370494Y-120373463D01*
X128260180Y-120314498D01*
X128140482Y-120278188D01*
X128016000Y-120265928D01*
X127285750Y-120269000D01*
X127127000Y-120427750D01*
X126873000Y-120427750D01*
X126714250Y-120269000D01*
X125984000Y-120265928D01*
X125859518Y-120278188D01*
X125739820Y-120314498D01*
X125629506Y-120373463D01*
X125532815Y-120452815D01*
X125453463Y-120549506D01*
X125394498Y-120659820D01*
X125358188Y-120779518D01*
X125345928Y-120904000D01*
X124802674Y-120904000D01*
X124776167Y-120816619D01*
X124693731Y-120662391D01*
X124582790Y-120527210D01*
X124447609Y-120416269D01*
X124293381Y-120333833D01*
X124126035Y-120283069D01*
X123952000Y-120265928D01*
X122649478Y-120265928D01*
X122072400Y-119688850D01*
X122072400Y-119309735D01*
X122199759Y-119224637D01*
X122399637Y-119024759D01*
X122556680Y-118789727D01*
X122664853Y-118528574D01*
X122720000Y-118251335D01*
X122720000Y-117968665D01*
X122664853Y-117691426D01*
X122556680Y-117430273D01*
X122399637Y-117195241D01*
X122199759Y-116995363D01*
X121964727Y-116838320D01*
X121703574Y-116730147D01*
X121426335Y-116675000D01*
X121143665Y-116675000D01*
X120866426Y-116730147D01*
X120605273Y-116838320D01*
X120370241Y-116995363D01*
X120170363Y-117195241D01*
X120013320Y-117430273D01*
X119905147Y-117691426D01*
X119850000Y-117968665D01*
X119850000Y-118251335D01*
X119905147Y-118528574D01*
X120013320Y-118789727D01*
X120170363Y-119024759D01*
X120370241Y-119224637D01*
X120497601Y-119309736D01*
X120497601Y-119976327D01*
X120493792Y-120015000D01*
X120508995Y-120169357D01*
X120554018Y-120317782D01*
X120554019Y-120317783D01*
X120594283Y-120393111D01*
X120483381Y-120333833D01*
X120316035Y-120283069D01*
X120142000Y-120265928D01*
X118897400Y-120265928D01*
X118897400Y-119309735D01*
X119024759Y-119224637D01*
X119224637Y-119024759D01*
X119381680Y-118789727D01*
X119489853Y-118528574D01*
X119545000Y-118251335D01*
X119545000Y-117968665D01*
X119489853Y-117691426D01*
X119381680Y-117430273D01*
X119224637Y-117195241D01*
X119024759Y-116995363D01*
X118789727Y-116838320D01*
X118528574Y-116730147D01*
X118251335Y-116675000D01*
X117968665Y-116675000D01*
X117691426Y-116730147D01*
X117430273Y-116838320D01*
X117195241Y-116995363D01*
X116995363Y-117195241D01*
X116838320Y-117430273D01*
X116730147Y-117691426D01*
X116675000Y-117968665D01*
X116675000Y-118251335D01*
X116730147Y-118528574D01*
X116838320Y-118789727D01*
X116995363Y-119024759D01*
X117195241Y-119224637D01*
X117322600Y-119309736D01*
X117322601Y-120611327D01*
X117318792Y-120650000D01*
X117333995Y-120804357D01*
X117379018Y-120952782D01*
X117438287Y-121063665D01*
X117452135Y-121089572D01*
X117550532Y-121209469D01*
X117580573Y-121234123D01*
X117725928Y-121379478D01*
X117725928Y-122682000D01*
X117743069Y-122856035D01*
X117793833Y-123023381D01*
X117876269Y-123177609D01*
X117987210Y-123312790D01*
X118122391Y-123423731D01*
X118275951Y-123505810D01*
X118110013Y-123671748D01*
X117931082Y-123939537D01*
X117807832Y-124237088D01*
X117745000Y-124552967D01*
X117745000Y-124875033D01*
X117807832Y-125190912D01*
X117931082Y-125488463D01*
X118110013Y-125756252D01*
X118337748Y-125983987D01*
X118605537Y-126162918D01*
X118903088Y-126286168D01*
X119173721Y-126340000D01*
X115776279Y-126340000D01*
X116046912Y-126286168D01*
X116344463Y-126162918D01*
X116612252Y-125983987D01*
X116839987Y-125756252D01*
X117018918Y-125488463D01*
X117142168Y-125190912D01*
X117205000Y-124875033D01*
X117205000Y-124552967D01*
X117142168Y-124237088D01*
X117018918Y-123939537D01*
X116839987Y-123671748D01*
X116674049Y-123505810D01*
X116827609Y-123423731D01*
X116962790Y-123312790D01*
X117073731Y-123177609D01*
X117156167Y-123023381D01*
X117206931Y-122856035D01*
X117224072Y-122682000D01*
X117224072Y-121158000D01*
X117206931Y-120983965D01*
X117156167Y-120816619D01*
X117073731Y-120662391D01*
X116962790Y-120527210D01*
X116827609Y-120416269D01*
X116673381Y-120333833D01*
X116506035Y-120283069D01*
X116332000Y-120265928D01*
X115722400Y-120265928D01*
X115722400Y-119309735D01*
X115849759Y-119224637D01*
X116049637Y-119024759D01*
X116206680Y-118789727D01*
X116314853Y-118528574D01*
X116370000Y-118251335D01*
X116370000Y-117968665D01*
X116314853Y-117691426D01*
X116206680Y-117430273D01*
X116049637Y-117195241D01*
X115849759Y-116995363D01*
X115614727Y-116838320D01*
X115353574Y-116730147D01*
X115076335Y-116675000D01*
X114793665Y-116675000D01*
X114516426Y-116730147D01*
X114255273Y-116838320D01*
X114020241Y-116995363D01*
X113820363Y-117195241D01*
X113663320Y-117430273D01*
X113555147Y-117691426D01*
X113500000Y-117968665D01*
X113500000Y-118251335D01*
X113555147Y-118528574D01*
X113663320Y-118789727D01*
X113820363Y-119024759D01*
X114020241Y-119224637D01*
X114147600Y-119309736D01*
X114147601Y-120563289D01*
X114066269Y-120662391D01*
X113983833Y-120816619D01*
X113933069Y-120983965D01*
X113915928Y-121158000D01*
X113915928Y-122682000D01*
X113933069Y-122856035D01*
X113983833Y-123023381D01*
X114066269Y-123177609D01*
X114177210Y-123312790D01*
X114312391Y-123423731D01*
X114465951Y-123505810D01*
X114300013Y-123671748D01*
X114121082Y-123939537D01*
X113997832Y-124237088D01*
X113935000Y-124552967D01*
X113935000Y-124875033D01*
X113997832Y-125190912D01*
X114121082Y-125488463D01*
X114300013Y-125756252D01*
X114527748Y-125983987D01*
X114795537Y-126162918D01*
X115093088Y-126286168D01*
X115363721Y-126340000D01*
X111966279Y-126340000D01*
X112236912Y-126286168D01*
X112534463Y-126162918D01*
X112802252Y-125983987D01*
X113029987Y-125756252D01*
X113208918Y-125488463D01*
X113332168Y-125190912D01*
X113395000Y-124875033D01*
X113395000Y-124552967D01*
X113332168Y-124237088D01*
X113208918Y-123939537D01*
X113029987Y-123671748D01*
X112864049Y-123505810D01*
X113017609Y-123423731D01*
X113152790Y-123312790D01*
X113263731Y-123177609D01*
X113346167Y-123023381D01*
X113396931Y-122856035D01*
X113414072Y-122682000D01*
X113414072Y-121158000D01*
X113396931Y-120983965D01*
X113346167Y-120816619D01*
X113263731Y-120662391D01*
X113152790Y-120527210D01*
X113017609Y-120416269D01*
X112863381Y-120333833D01*
X112696035Y-120283069D01*
X112547400Y-120268430D01*
X112547400Y-119309735D01*
X112674759Y-119224637D01*
X112874637Y-119024759D01*
X113031680Y-118789727D01*
X113139853Y-118528574D01*
X113195000Y-118251335D01*
X113195000Y-117968665D01*
X113139853Y-117691426D01*
X113031680Y-117430273D01*
X112874637Y-117195241D01*
X112674759Y-116995363D01*
X112439727Y-116838320D01*
X112178574Y-116730147D01*
X111901335Y-116675000D01*
X111618665Y-116675000D01*
X111341426Y-116730147D01*
X111080273Y-116838320D01*
X110845241Y-116995363D01*
X110645363Y-117195241D01*
X110488320Y-117430273D01*
X110380147Y-117691426D01*
X110325000Y-117968665D01*
X110325000Y-118251335D01*
X110380147Y-118528574D01*
X110488320Y-118789727D01*
X110645363Y-119024759D01*
X110845241Y-119224637D01*
X110972600Y-119309736D01*
X110972601Y-120268430D01*
X110823965Y-120283069D01*
X110656619Y-120333833D01*
X110502391Y-120416269D01*
X110367210Y-120527210D01*
X110256269Y-120662391D01*
X110173833Y-120816619D01*
X110123069Y-120983965D01*
X110105928Y-121158000D01*
X110105928Y-122682000D01*
X110123069Y-122856035D01*
X110173833Y-123023381D01*
X110256269Y-123177609D01*
X110367210Y-123312790D01*
X110502391Y-123423731D01*
X110655951Y-123505810D01*
X110490013Y-123671748D01*
X110311082Y-123939537D01*
X110187832Y-124237088D01*
X110125000Y-124552967D01*
X110125000Y-124875033D01*
X110187832Y-125190912D01*
X110311082Y-125488463D01*
X110490013Y-125756252D01*
X110717748Y-125983987D01*
X110985537Y-126162918D01*
X111283088Y-126286168D01*
X111553721Y-126340000D01*
X102260000Y-126340000D01*
X102260000Y-122969872D01*
X103175000Y-122969872D01*
X103175000Y-123410128D01*
X103260890Y-123841925D01*
X103429369Y-124248669D01*
X103673962Y-124614729D01*
X103985271Y-124926038D01*
X104351331Y-125170631D01*
X104758075Y-125339110D01*
X105189872Y-125425000D01*
X105630128Y-125425000D01*
X106061925Y-125339110D01*
X106468669Y-125170631D01*
X106834729Y-124926038D01*
X107146038Y-124614729D01*
X107390631Y-124248669D01*
X107559110Y-123841925D01*
X107645000Y-123410128D01*
X107645000Y-122969872D01*
X107559110Y-122538075D01*
X107390631Y-122131331D01*
X107146038Y-121765271D01*
X106834729Y-121453962D01*
X106468669Y-121209369D01*
X106061925Y-121040890D01*
X105630128Y-120955000D01*
X105189872Y-120955000D01*
X104758075Y-121040890D01*
X104351331Y-121209369D01*
X103985271Y-121453962D01*
X103673962Y-121765271D01*
X103429369Y-122131331D01*
X103260890Y-122538075D01*
X103175000Y-122969872D01*
X102260000Y-122969872D01*
X102260000Y-105189872D01*
X103175000Y-105189872D01*
X103175000Y-105630128D01*
X103260890Y-106061925D01*
X103429369Y-106468669D01*
X103673962Y-106834729D01*
X103985271Y-107146038D01*
X104351331Y-107390631D01*
X104758075Y-107559110D01*
X105189872Y-107645000D01*
X105630128Y-107645000D01*
X106061925Y-107559110D01*
X106468669Y-107390631D01*
X106834729Y-107146038D01*
X107146038Y-106834729D01*
X107390631Y-106468669D01*
X107559110Y-106061925D01*
X107645000Y-105630128D01*
X107645000Y-105189872D01*
X107559110Y-104758075D01*
X107390631Y-104351331D01*
X107146038Y-103985271D01*
X106834729Y-103673962D01*
X106468669Y-103429369D01*
X106061925Y-103260890D01*
X105630128Y-103175000D01*
X105189872Y-103175000D01*
X104758075Y-103260890D01*
X104351331Y-103429369D01*
X103985271Y-103673962D01*
X103673962Y-103985271D01*
X103429369Y-104351331D01*
X103260890Y-104758075D01*
X103175000Y-105189872D01*
X102260000Y-105189872D01*
X102260000Y-102260000D01*
X151740000Y-102260000D01*
X151740001Y-126340000D01*
G37*
%TD.AperFunction*%
%TD*%
M02*
