M48
; DRILL file {KiCad (5.1.8-0-10_14)} date Thursday, July 08, 2021 at 06:32:10 PM
; FORMAT={-:-/ absolute / metric / decimal}
; #@! TF.CreationDate,2021-07-08T18:32:10+01:00
; #@! TF.GenerationSoftware,Kicad,Pcbnew,(5.1.8-0-10_14)
FMAT,2
METRIC
T1C0.550
T2C0.750
T3C0.800
T4C0.900
T5C1.000
T6C1.100
T7C1.190
T8C5.100
T9C0.500
T10C3.200
%
G90
G05
T1
X125.1Y-101.205
X125.74Y-116.205
X129.54Y-116.205
X130.18Y-101.205
T2
X132.715Y-117.475
X133.985Y-117.475
X135.255Y-117.475
T3
X102.362Y-35.052
X102.362Y-73.152
X116.84Y-128.905
X116.84Y-139.065
X133.985Y-85.09
X133.985Y-90.09
X125.095Y-121.92
X135.255Y-121.92
X123.19Y-81.915
X133.35Y-81.915
X102.362Y-92.202
X135.255Y-103.505
X135.255Y-113.665
X123.19Y-78.74
X133.35Y-78.74
X129.54Y-142.24
X129.54Y-152.4
X134.66Y-159.385
X137.16Y-159.385
X132.715Y-142.24
X132.715Y-152.4
X123.19Y-85.09
X123.19Y-87.63
X123.19Y-90.17
X123.19Y-92.71
X130.81Y-85.09
X130.81Y-87.63
X130.81Y-90.17
X130.81Y-92.71
X118.745Y-106.045
X118.745Y-111.045
X116.88Y-159.385
X119.38Y-159.385
X131.445Y-131.445
X131.445Y-136.445
X135.89Y-142.24
X135.89Y-152.4
X118.745Y-92.71
X118.745Y-102.87
X135.89Y-129.54
X135.89Y-139.7
X120.65Y-142.24
X125.65Y-142.24
X102.362Y-54.102
X120.65Y-131.445
X120.65Y-133.985
X120.65Y-136.525
X120.65Y-139.065
X128.27Y-131.445
X128.27Y-133.985
X128.27Y-136.525
X128.27Y-139.065
X123.19Y-95.885
X128.19Y-95.885
T4
X98.044Y-152.4
X100.584Y-152.4
T5
X96.814Y-140.97
X99.314Y-140.97
X101.814Y-140.97
X117.475Y-78.74
X117.475Y-81.28
X117.475Y-83.82
X117.475Y-86.36
X117.475Y-88.9
X108.839Y-78.74
X108.839Y-81.28
X108.839Y-83.82
X108.839Y-86.36
X108.839Y-88.9
X93.599Y-125.73
X96.139Y-125.73
X98.679Y-125.73
X101.219Y-125.73
X103.759Y-125.73
X122.555Y-125.73
X125.095Y-125.73
X127.635Y-125.73
X130.175Y-125.73
X132.715Y-125.73
X96.814Y-121.8
X99.314Y-121.8
X101.814Y-121.8
T7
X123.19Y-159.385
X125.73Y-159.385
X128.27Y-159.385
X130.81Y-159.385
T8
X99.314Y-57.15
X99.314Y-38.1
X99.314Y-76.2
X99.314Y-95.25
T9
X112.057Y-157.061
X112.057Y-157.861
X112.057Y-158.661
X114.257Y-157.061
X114.257Y-157.861
X114.257Y-158.661
X112.057Y-130.137
X112.057Y-130.937
X112.057Y-131.737
X114.257Y-130.137
X114.257Y-130.937
X114.257Y-131.737
X112.057Y-102.959
X112.057Y-103.759
X112.057Y-104.559
X114.257Y-102.959
X114.257Y-103.759
X114.257Y-104.559
X112.057Y-78.321
X112.057Y-79.121
X112.057Y-79.921
X114.257Y-78.321
X114.257Y-79.121
X114.257Y-79.921
T10
X135.89Y-97.155
X118.11Y-148.59
X90.424Y-97.155
X108.204Y-148.59
T6
G00X94.514Y-114.65
M15
G01X94.514Y-113.95
M16
G05
G00X104.114Y-114.65
M15
G01X104.114Y-113.95
M16
G05
G00X94.514Y-133.82
M15
G01X94.514Y-133.12
M16
G05
G00X104.114Y-133.82
M15
G01X104.114Y-133.12
M16
G05
T0
M30
