%TF.GenerationSoftware,KiCad,Pcbnew,(5.1.8-0-10_14)*%
%TF.CreationDate,2021-07-08T18:32:03+01:00*%
%TF.ProjectId,4u-music-thing-vactrol-crossfader,34752d6d-7573-4696-932d-7468696e672d,rev?*%
%TF.SameCoordinates,Original*%
%TF.FileFunction,Legend,Bot*%
%TF.FilePolarity,Positive*%
%FSLAX46Y46*%
G04 Gerber Fmt 4.6, Leading zero omitted, Abs format (unit mm)*
G04 Created by KiCad (PCBNEW (5.1.8-0-10_14)) date 2021-07-08 18:32:03*
%MOMM*%
%LPD*%
G01*
G04 APERTURE LIST*
%ADD10C,0.120000*%
%ADD11C,0.150000*%
G04 APERTURE END LIST*
D10*
%TO.C,J9*%
X94869000Y-124400000D02*
X94869000Y-127060000D01*
X94869000Y-124400000D02*
X105089000Y-124400000D01*
X105089000Y-124400000D02*
X105089000Y-127060000D01*
X94869000Y-127060000D02*
X105089000Y-127060000D01*
X92269000Y-127060000D02*
X93599000Y-127060000D01*
X92269000Y-125730000D02*
X92269000Y-127060000D01*
%TO.C,J8*%
X131445000Y-127060000D02*
X131445000Y-124400000D01*
X131445000Y-127060000D02*
X121225000Y-127060000D01*
X121225000Y-127060000D02*
X121225000Y-124400000D01*
X131445000Y-124400000D02*
X121225000Y-124400000D01*
X134045000Y-124400000D02*
X132715000Y-124400000D01*
X134045000Y-125730000D02*
X134045000Y-124400000D01*
%TO.C,J7*%
X107509000Y-87630000D02*
X110169000Y-87630000D01*
X107509000Y-87630000D02*
X107509000Y-77410000D01*
X107509000Y-77410000D02*
X110169000Y-77410000D01*
X110169000Y-87630000D02*
X110169000Y-77410000D01*
X110169000Y-90230000D02*
X110169000Y-88900000D01*
X108839000Y-90230000D02*
X110169000Y-90230000D01*
%TO.C,J6*%
X116145000Y-87630000D02*
X118805000Y-87630000D01*
X116145000Y-87630000D02*
X116145000Y-77410000D01*
X116145000Y-77410000D02*
X118805000Y-77410000D01*
X118805000Y-87630000D02*
X118805000Y-77410000D01*
X118805000Y-90230000D02*
X118805000Y-88900000D01*
X117475000Y-90230000D02*
X118805000Y-90230000D01*
%TO.C,J9*%
D11*
X90281380Y-125396666D02*
X90995666Y-125396666D01*
X91138523Y-125349047D01*
X91233761Y-125253809D01*
X91281380Y-125110952D01*
X91281380Y-125015714D01*
X91281380Y-125920476D02*
X91281380Y-126110952D01*
X91233761Y-126206190D01*
X91186142Y-126253809D01*
X91043285Y-126349047D01*
X90852809Y-126396666D01*
X90471857Y-126396666D01*
X90376619Y-126349047D01*
X90329000Y-126301428D01*
X90281380Y-126206190D01*
X90281380Y-126015714D01*
X90329000Y-125920476D01*
X90376619Y-125872857D01*
X90471857Y-125825238D01*
X90709952Y-125825238D01*
X90805190Y-125872857D01*
X90852809Y-125920476D01*
X90900428Y-126015714D01*
X90900428Y-126206190D01*
X90852809Y-126301428D01*
X90805190Y-126349047D01*
X90709952Y-126396666D01*
%TO.C,J8*%
X134937380Y-125396666D02*
X135651666Y-125396666D01*
X135794523Y-125349047D01*
X135889761Y-125253809D01*
X135937380Y-125110952D01*
X135937380Y-125015714D01*
X135365952Y-126015714D02*
X135318333Y-125920476D01*
X135270714Y-125872857D01*
X135175476Y-125825238D01*
X135127857Y-125825238D01*
X135032619Y-125872857D01*
X134985000Y-125920476D01*
X134937380Y-126015714D01*
X134937380Y-126206190D01*
X134985000Y-126301428D01*
X135032619Y-126349047D01*
X135127857Y-126396666D01*
X135175476Y-126396666D01*
X135270714Y-126349047D01*
X135318333Y-126301428D01*
X135365952Y-126206190D01*
X135365952Y-126015714D01*
X135413571Y-125920476D01*
X135461190Y-125872857D01*
X135556428Y-125825238D01*
X135746904Y-125825238D01*
X135842142Y-125872857D01*
X135889761Y-125920476D01*
X135937380Y-126015714D01*
X135937380Y-126206190D01*
X135889761Y-126301428D01*
X135842142Y-126349047D01*
X135746904Y-126396666D01*
X135556428Y-126396666D01*
X135461190Y-126349047D01*
X135413571Y-126301428D01*
X135365952Y-126206190D01*
%TO.C,J7*%
X109172333Y-91122380D02*
X109172333Y-91836666D01*
X109219952Y-91979523D01*
X109315190Y-92074761D01*
X109458047Y-92122380D01*
X109553285Y-92122380D01*
X108791380Y-91122380D02*
X108124714Y-91122380D01*
X108553285Y-92122380D01*
%TO.C,J6*%
X117808333Y-91122380D02*
X117808333Y-91836666D01*
X117855952Y-91979523D01*
X117951190Y-92074761D01*
X118094047Y-92122380D01*
X118189285Y-92122380D01*
X116903571Y-91122380D02*
X117094047Y-91122380D01*
X117189285Y-91170000D01*
X117236904Y-91217619D01*
X117332142Y-91360476D01*
X117379761Y-91550952D01*
X117379761Y-91931904D01*
X117332142Y-92027142D01*
X117284523Y-92074761D01*
X117189285Y-92122380D01*
X116998809Y-92122380D01*
X116903571Y-92074761D01*
X116855952Y-92027142D01*
X116808333Y-91931904D01*
X116808333Y-91693809D01*
X116855952Y-91598571D01*
X116903571Y-91550952D01*
X116998809Y-91503333D01*
X117189285Y-91503333D01*
X117284523Y-91550952D01*
X117332142Y-91598571D01*
X117379761Y-91693809D01*
%TD*%
M02*
