%TF.GenerationSoftware,KiCad,Pcbnew,(5.1.8-0-10_14)*%
%TF.CreationDate,2021-07-08T18:32:03+01:00*%
%TF.ProjectId,4u-music-thing-vactrol-crossfader,34752d6d-7573-4696-932d-7468696e672d,rev?*%
%TF.SameCoordinates,Original*%
%TF.FileFunction,Profile,NP*%
%FSLAX46Y46*%
G04 Gerber Fmt 4.6, Leading zero omitted, Abs format (unit mm)*
G04 Created by KiCad (PCBNEW (5.1.8-0-10_14)) date 2021-07-08 18:32:03*
%MOMM*%
%LPD*%
G01*
G04 APERTURE LIST*
%TA.AperFunction,Profile*%
%ADD10C,0.050000*%
%TD*%
G04 APERTURE END LIST*
D10*
X114427000Y-160210500D02*
X114427000Y-161925000D01*
X111887000Y-160210500D02*
X111887000Y-161925000D01*
X114427000Y-155511500D02*
X114427000Y-133286500D01*
X111887000Y-133286500D02*
X111887000Y-155511500D01*
X114427000Y-128587500D02*
X114427000Y-106108500D01*
X111887000Y-106108500D02*
X111887000Y-128587500D01*
X114427000Y-101409500D02*
X114427000Y-81470500D01*
X111887000Y-81470500D02*
X111887000Y-101409500D01*
X114427000Y-74422000D02*
X114427000Y-76771500D01*
X111887000Y-33147000D02*
X111887000Y-76771500D01*
X114427000Y-76771500D02*
G75*
G02*
X111887000Y-76771500I-1270000J0D01*
G01*
X111887000Y-81470500D02*
G75*
G02*
X114427000Y-81470500I1270000J0D01*
G01*
X114427000Y-101409500D02*
G75*
G02*
X111887000Y-101409500I-1270000J0D01*
G01*
X111887000Y-106108500D02*
G75*
G02*
X114427000Y-106108500I1270000J0D01*
G01*
X114427000Y-128587500D02*
G75*
G02*
X111887000Y-128587500I-1270000J0D01*
G01*
X111887000Y-133286500D02*
G75*
G02*
X114427000Y-133286500I1270000J0D01*
G01*
X114427000Y-155511500D02*
G75*
G02*
X111887000Y-155511500I-1270000J0D01*
G01*
X111887000Y-160210500D02*
G75*
G02*
X114427000Y-160210500I1270000J0D01*
G01*
X110617000Y-31877000D02*
G75*
G02*
X111887000Y-33147000I0J-1270000D01*
G01*
X86741000Y-33147000D02*
G75*
G02*
X88011000Y-31877000I1270000J0D01*
G01*
X88011000Y-163195000D02*
G75*
G02*
X86741000Y-161925000I0J1270000D01*
G01*
X111887000Y-161925000D02*
G75*
G02*
X110617000Y-163195000I-1270000J0D01*
G01*
X115697000Y-163195000D02*
G75*
G02*
X114427000Y-161925000I0J1270000D01*
G01*
X139573000Y-161925000D02*
G75*
G02*
X138303000Y-163195000I-1270000J0D01*
G01*
X138303000Y-73152000D02*
G75*
G02*
X139573000Y-74422000I0J-1270000D01*
G01*
X114427000Y-74422000D02*
G75*
G02*
X115697000Y-73152000I1270000J0D01*
G01*
X86741000Y-33147000D02*
X86741000Y-161925000D01*
X110617000Y-31877000D02*
X88011000Y-31877000D01*
X88011000Y-163195000D02*
X110617000Y-163195000D01*
X138303000Y-73152000D02*
X115697000Y-73152000D01*
X139573000Y-161925000D02*
X139573000Y-74422000D01*
X115697000Y-163195000D02*
X138303000Y-163195000D01*
M02*
