%TF.GenerationSoftware,KiCad,Pcbnew,(5.1.8-0-10_14)*%
%TF.CreationDate,2021-07-08T18:32:03+01:00*%
%TF.ProjectId,4u-music-thing-vactrol-crossfader,34752d6d-7573-4696-932d-7468696e672d,rev?*%
%TF.SameCoordinates,Original*%
%TF.FileFunction,Soldermask,Bot*%
%TF.FilePolarity,Negative*%
%FSLAX46Y46*%
G04 Gerber Fmt 4.6, Leading zero omitted, Abs format (unit mm)*
G04 Created by KiCad (PCBNEW (5.1.8-0-10_14)) date 2021-07-08 18:32:03*
%MOMM*%
%LPD*%
G01*
G04 APERTURE LIST*
%ADD10C,0.500000*%
%ADD11C,1.150000*%
%ADD12O,1.600000X1.600000*%
%ADD13R,1.600000X1.600000*%
%ADD14C,1.600000*%
%ADD15O,1.700000X1.700000*%
%ADD16R,1.700000X1.700000*%
%ADD17R,1.050000X1.500000*%
%ADD18O,1.050000X1.500000*%
%ADD19C,3.200000*%
%ADD20O,2.720000X3.240000*%
%ADD21C,1.800000*%
%ADD22R,1.800000X1.800000*%
%ADD23C,6.500000*%
%ADD24O,1.740000X2.190000*%
G04 APERTURE END LIST*
D10*
%TO.C,mouse-bite-2.54mm-slot*%
X114257000Y-157061000D03*
X114257000Y-158661000D03*
X112057000Y-158661000D03*
X112057000Y-157061000D03*
X114257000Y-157861000D03*
X112057000Y-157861000D03*
%TD*%
%TO.C,mouse-bite-2.54mm-slot*%
X114257000Y-130137000D03*
X114257000Y-131737000D03*
X112057000Y-131737000D03*
X112057000Y-130137000D03*
X114257000Y-130937000D03*
X112057000Y-130937000D03*
%TD*%
%TO.C,mouse-bite-2.54mm-slot*%
X114257000Y-102959000D03*
X114257000Y-104559000D03*
X112057000Y-104559000D03*
X112057000Y-102959000D03*
X114257000Y-103759000D03*
X112057000Y-103759000D03*
%TD*%
%TO.C,mouse-bite-2.54mm-slot*%
X114257000Y-78321000D03*
X114257000Y-79921000D03*
X112057000Y-79921000D03*
X112057000Y-78321000D03*
X114257000Y-79121000D03*
X112057000Y-79121000D03*
%TD*%
D11*
%TO.C,U2*%
X129540000Y-116205000D03*
X130180000Y-101205000D03*
X125100000Y-101205000D03*
G36*
G01*
X126027500Y-116780000D02*
X125452500Y-116780000D01*
G75*
G02*
X125165000Y-116492500I0J287500D01*
G01*
X125165000Y-115917500D01*
G75*
G02*
X125452500Y-115630000I287500J0D01*
G01*
X126027500Y-115630000D01*
G75*
G02*
X126315000Y-115917500I0J-287500D01*
G01*
X126315000Y-116492500D01*
G75*
G02*
X126027500Y-116780000I-287500J0D01*
G01*
G37*
%TD*%
D12*
%TO.C,U3*%
X123190000Y-92710000D03*
X130810000Y-85090000D03*
X123190000Y-90170000D03*
X130810000Y-87630000D03*
X123190000Y-87630000D03*
X130810000Y-90170000D03*
X123190000Y-85090000D03*
D13*
X130810000Y-92710000D03*
%TD*%
D12*
%TO.C,U1*%
X120650000Y-139065000D03*
X128270000Y-131445000D03*
X120650000Y-136525000D03*
X128270000Y-133985000D03*
X120650000Y-133985000D03*
X128270000Y-136525000D03*
X120650000Y-131445000D03*
D13*
X128270000Y-139065000D03*
%TD*%
D14*
%TO.C,C7*%
X131445000Y-131445000D03*
X131445000Y-136445000D03*
%TD*%
%TO.C,C6*%
X125650000Y-142240000D03*
X120650000Y-142240000D03*
%TD*%
D15*
%TO.C,J9*%
X103759000Y-125730000D03*
X101219000Y-125730000D03*
X98679000Y-125730000D03*
X96139000Y-125730000D03*
D16*
X93599000Y-125730000D03*
%TD*%
D15*
%TO.C,J8*%
X122555000Y-125730000D03*
X125095000Y-125730000D03*
X127635000Y-125730000D03*
X130175000Y-125730000D03*
D16*
X132715000Y-125730000D03*
%TD*%
D15*
%TO.C,J7*%
X108839000Y-78740000D03*
X108839000Y-81280000D03*
X108839000Y-83820000D03*
X108839000Y-86360000D03*
D16*
X108839000Y-88900000D03*
%TD*%
D15*
%TO.C,J6*%
X117475000Y-78740000D03*
X117475000Y-81280000D03*
X117475000Y-83820000D03*
X117475000Y-86360000D03*
D16*
X117475000Y-88900000D03*
%TD*%
D14*
%TO.C,C3*%
X133985000Y-85090000D03*
X133985000Y-90090000D03*
%TD*%
%TO.C,C2*%
X128190000Y-95885000D03*
X123190000Y-95885000D03*
%TD*%
%TO.C,C1*%
X118745000Y-106045000D03*
X118745000Y-111045000D03*
%TD*%
D17*
%TO.C,Q1*%
X135255000Y-117475000D03*
D18*
X132715000Y-117475000D03*
X133985000Y-117475000D03*
%TD*%
D19*
%TO.C,REF\u002A\u002A*%
X118110000Y-148590000D03*
%TD*%
%TO.C,REF\u002A\u002A*%
X108204000Y-148590000D03*
%TD*%
%TO.C,REF\u002A\u002A*%
X135890000Y-97155000D03*
%TD*%
%TO.C,REF\u002A\u002A*%
X90424000Y-97155000D03*
%TD*%
D20*
%TO.C,RV2*%
X94514000Y-133470000D03*
X104114000Y-133470000D03*
D21*
X101814000Y-140970000D03*
X99314000Y-140970000D03*
D22*
X96814000Y-140970000D03*
%TD*%
D20*
%TO.C,RV1*%
X94514000Y-114300000D03*
X104114000Y-114300000D03*
D21*
X101814000Y-121800000D03*
X99314000Y-121800000D03*
D22*
X96814000Y-121800000D03*
%TD*%
D12*
%TO.C,R10*%
X116840000Y-139065000D03*
D14*
X116840000Y-128905000D03*
%TD*%
D12*
%TO.C,R9*%
X135255000Y-103505000D03*
D14*
X135255000Y-113665000D03*
%TD*%
D12*
%TO.C,R8*%
X135890000Y-129540000D03*
D14*
X135890000Y-139700000D03*
%TD*%
%TO.C,R7*%
X118745000Y-92710000D03*
D12*
X118745000Y-102870000D03*
%TD*%
%TO.C,R6*%
X125095000Y-121920000D03*
D14*
X135255000Y-121920000D03*
%TD*%
D12*
%TO.C,R5*%
X135890000Y-152400000D03*
D14*
X135890000Y-142240000D03*
%TD*%
D12*
%TO.C,R4*%
X129540000Y-142240000D03*
D14*
X129540000Y-152400000D03*
%TD*%
D12*
%TO.C,R3*%
X132715000Y-142240000D03*
D14*
X132715000Y-152400000D03*
%TD*%
%TO.C,R2*%
X133350000Y-78740000D03*
D12*
X123190000Y-78740000D03*
%TD*%
%TO.C,R1*%
X133350000Y-81915000D03*
D14*
X123190000Y-81915000D03*
%TD*%
%TO.C,J5*%
X102362000Y-35052000D03*
D23*
X99314000Y-38100000D03*
%TD*%
D24*
%TO.C,J4*%
X130810000Y-159385000D03*
X128270000Y-159385000D03*
X125730000Y-159385000D03*
G36*
G01*
X122320000Y-160230001D02*
X122320000Y-158539999D01*
G75*
G02*
X122569999Y-158290000I249999J0D01*
G01*
X123810001Y-158290000D01*
G75*
G02*
X124060000Y-158539999I0J-249999D01*
G01*
X124060000Y-160230001D01*
G75*
G02*
X123810001Y-160480000I-249999J0D01*
G01*
X122569999Y-160480000D01*
G75*
G02*
X122320000Y-160230001I0J249999D01*
G01*
G37*
%TD*%
D14*
%TO.C,J3*%
X102362000Y-92202000D03*
D23*
X99314000Y-95250000D03*
%TD*%
D14*
%TO.C,J2*%
X102362000Y-73152000D03*
D23*
X99314000Y-76200000D03*
%TD*%
D14*
%TO.C,J1*%
X102362000Y-54102000D03*
D23*
X99314000Y-57150000D03*
%TD*%
D21*
%TO.C,D1*%
X100584000Y-152400000D03*
D22*
X98044000Y-152400000D03*
%TD*%
D14*
%TO.C,C5*%
X134660000Y-159385000D03*
D13*
X137160000Y-159385000D03*
%TD*%
D14*
%TO.C,C4*%
X116880000Y-159385000D03*
D13*
X119380000Y-159385000D03*
%TD*%
M02*
