%TF.GenerationSoftware,KiCad,Pcbnew,(5.1.8-0-10_14)*%
%TF.CreationDate,2021-07-08T18:32:03+01:00*%
%TF.ProjectId,4u-music-thing-vactrol-crossfader,34752d6d-7573-4696-932d-7468696e672d,rev?*%
%TF.SameCoordinates,Original*%
%TF.FileFunction,Copper,L1,Top*%
%TF.FilePolarity,Positive*%
%FSLAX46Y46*%
G04 Gerber Fmt 4.6, Leading zero omitted, Abs format (unit mm)*
G04 Created by KiCad (PCBNEW (5.1.8-0-10_14)) date 2021-07-08 18:32:03*
%MOMM*%
%LPD*%
G01*
G04 APERTURE LIST*
%TA.AperFunction,ComponentPad*%
%ADD10C,1.150000*%
%TD*%
%TA.AperFunction,ComponentPad*%
%ADD11O,1.600000X1.600000*%
%TD*%
%TA.AperFunction,ComponentPad*%
%ADD12R,1.600000X1.600000*%
%TD*%
%TA.AperFunction,ComponentPad*%
%ADD13C,1.600000*%
%TD*%
%TA.AperFunction,ComponentPad*%
%ADD14O,1.700000X1.700000*%
%TD*%
%TA.AperFunction,ComponentPad*%
%ADD15R,1.700000X1.700000*%
%TD*%
%TA.AperFunction,ComponentPad*%
%ADD16R,1.050000X1.500000*%
%TD*%
%TA.AperFunction,ComponentPad*%
%ADD17O,1.050000X1.500000*%
%TD*%
%TA.AperFunction,ComponentPad*%
%ADD18O,2.720000X3.240000*%
%TD*%
%TA.AperFunction,ComponentPad*%
%ADD19C,1.800000*%
%TD*%
%TA.AperFunction,ComponentPad*%
%ADD20R,1.800000X1.800000*%
%TD*%
%TA.AperFunction,ComponentPad*%
%ADD21C,6.500000*%
%TD*%
%TA.AperFunction,ComponentPad*%
%ADD22O,1.740000X2.190000*%
%TD*%
%TA.AperFunction,Conductor*%
%ADD23C,0.304800*%
%TD*%
%TA.AperFunction,Conductor*%
%ADD24C,1.270000*%
%TD*%
%TA.AperFunction,Conductor*%
%ADD25C,0.254000*%
%TD*%
%TA.AperFunction,Conductor*%
%ADD26C,0.100000*%
%TD*%
G04 APERTURE END LIST*
D10*
%TO.P,U2,2*%
%TO.N,/LED_MAIN*%
X129540000Y-116205000D03*
%TO.P,U2,4*%
%TO.N,/AUDIO_2*%
X130180000Y-101205000D03*
%TO.P,U2,3*%
%TO.N,Net-(C1-Pad1)*%
X125100000Y-101205000D03*
%TO.P,U2,1*%
%TO.N,Net-(Q1-Pad3)*%
%TA.AperFunction,ComponentPad*%
G36*
G01*
X126027500Y-116780000D02*
X125452500Y-116780000D01*
G75*
G02*
X125165000Y-116492500I0J287500D01*
G01*
X125165000Y-115917500D01*
G75*
G02*
X125452500Y-115630000I287500J0D01*
G01*
X126027500Y-115630000D01*
G75*
G02*
X126315000Y-115917500I0J-287500D01*
G01*
X126315000Y-116492500D01*
G75*
G02*
X126027500Y-116780000I-287500J0D01*
G01*
G37*
%TD.AperFunction*%
%TD*%
D11*
%TO.P,U3,8*%
%TO.N,+12V*%
X123190000Y-92710000D03*
%TO.P,U3,4*%
%TO.N,-12V*%
X130810000Y-85090000D03*
%TO.P,U3,7*%
%TO.N,/AUDIO_2*%
X123190000Y-90170000D03*
%TO.P,U3,3*%
%TO.N,/AUDIO_1_MAIN*%
X130810000Y-87630000D03*
%TO.P,U3,6*%
%TO.N,/AUDIO_2*%
X123190000Y-87630000D03*
%TO.P,U3,2*%
%TO.N,/AUDIO_1*%
X130810000Y-90170000D03*
%TO.P,U3,5*%
%TO.N,/AUDIO_2_MAIN*%
X123190000Y-85090000D03*
D12*
%TO.P,U3,1*%
%TO.N,/AUDIO_1*%
X130810000Y-92710000D03*
%TD*%
D11*
%TO.P,U1,8*%
%TO.N,+12V*%
X120650000Y-139065000D03*
%TO.P,U1,4*%
%TO.N,-12V*%
X128270000Y-131445000D03*
%TO.P,U1,7*%
%TO.N,Net-(R10-Pad2)*%
X120650000Y-136525000D03*
%TO.P,U1,3*%
%TO.N,/CV_ATTVERT_MAIN*%
X128270000Y-133985000D03*
%TO.P,U1,6*%
%TO.N,/OUT_MAIN*%
X120650000Y-133985000D03*
%TO.P,U1,2*%
%TO.N,Net-(R3-Pad1)*%
X128270000Y-136525000D03*
%TO.P,U1,5*%
%TO.N,Net-(C1-Pad1)*%
X120650000Y-131445000D03*
D12*
%TO.P,U1,1*%
%TO.N,Net-(R4-Pad1)*%
X128270000Y-139065000D03*
%TD*%
D13*
%TO.P,C7,2*%
%TO.N,-12V*%
X131445000Y-131445000D03*
%TO.P,C7,1*%
%TO.N,GND*%
X131445000Y-136445000D03*
%TD*%
%TO.P,C6,2*%
%TO.N,GND*%
X125650000Y-142240000D03*
%TO.P,C6,1*%
%TO.N,+12V*%
X120650000Y-142240000D03*
%TD*%
D14*
%TO.P,J9,5*%
%TO.N,/OUT_CTRL*%
X103759000Y-125730000D03*
%TO.P,J9,4*%
%TO.N,/FADE_POT_CTRL*%
X101219000Y-125730000D03*
%TO.P,J9,3*%
%TO.N,/LED_CTRL*%
X98679000Y-125730000D03*
%TO.P,J9,2*%
%TO.N,/CV_ATTVERT_CTRL*%
X96139000Y-125730000D03*
D15*
%TO.P,J9,1*%
%TO.N,/CV_IN_CTRL*%
X93599000Y-125730000D03*
%TD*%
D14*
%TO.P,J8,5*%
%TO.N,/OUT_MAIN*%
X122555000Y-125730000D03*
%TO.P,J8,4*%
%TO.N,/FADE_POT_MAIN*%
X125095000Y-125730000D03*
%TO.P,J8,3*%
%TO.N,/LED_MAIN*%
X127635000Y-125730000D03*
%TO.P,J8,2*%
%TO.N,/CV_ATTVERT_MAIN*%
X130175000Y-125730000D03*
D15*
%TO.P,J8,1*%
%TO.N,/CV_IN_MAIN*%
X132715000Y-125730000D03*
%TD*%
D14*
%TO.P,J7,5*%
%TO.N,GND1*%
X108839000Y-78740000D03*
%TO.P,J7,4*%
X108839000Y-81280000D03*
%TO.P,J7,3*%
%TO.N,/AUDIO_2_CTRL*%
X108839000Y-83820000D03*
%TO.P,J7,2*%
%TO.N,/AUDIO_1_CTRL*%
X108839000Y-86360000D03*
D15*
%TO.P,J7,1*%
%TO.N,+12VA*%
X108839000Y-88900000D03*
%TD*%
D14*
%TO.P,J6,5*%
%TO.N,GND*%
X117475000Y-78740000D03*
%TO.P,J6,4*%
X117475000Y-81280000D03*
%TO.P,J6,3*%
%TO.N,/AUDIO_2_MAIN*%
X117475000Y-83820000D03*
%TO.P,J6,2*%
%TO.N,/AUDIO_1_MAIN*%
X117475000Y-86360000D03*
D15*
%TO.P,J6,1*%
%TO.N,+12V*%
X117475000Y-88900000D03*
%TD*%
D13*
%TO.P,C3,2*%
%TO.N,-12V*%
X133985000Y-85090000D03*
%TO.P,C3,1*%
%TO.N,GND*%
X133985000Y-90090000D03*
%TD*%
%TO.P,C2,2*%
%TO.N,GND*%
X128190000Y-95885000D03*
%TO.P,C2,1*%
%TO.N,+12V*%
X123190000Y-95885000D03*
%TD*%
%TO.P,C1,1*%
%TO.N,Net-(C1-Pad1)*%
X118745000Y-106045000D03*
%TO.P,C1,2*%
%TO.N,GND*%
X118745000Y-111045000D03*
%TD*%
D16*
%TO.P,Q1,1*%
%TO.N,Net-(Q1-Pad1)*%
X135255000Y-117475000D03*
D17*
%TO.P,Q1,3*%
%TO.N,Net-(Q1-Pad3)*%
X132715000Y-117475000D03*
%TO.P,Q1,2*%
%TO.N,Net-(Q1-Pad2)*%
X133985000Y-117475000D03*
%TD*%
D18*
%TO.P,RV2,*%
%TO.N,*%
X94514000Y-133470000D03*
X104114000Y-133470000D03*
D19*
%TO.P,RV2,3*%
%TO.N,+12VA*%
X101814000Y-140970000D03*
%TO.P,RV2,2*%
%TO.N,/FADE_POT_CTRL*%
X99314000Y-140970000D03*
D20*
%TO.P,RV2,1*%
%TO.N,GND1*%
X96814000Y-140970000D03*
%TD*%
D18*
%TO.P,RV1,*%
%TO.N,*%
X94514000Y-114300000D03*
X104114000Y-114300000D03*
D19*
%TO.P,RV1,3*%
%TO.N,GND1*%
X101814000Y-121800000D03*
%TO.P,RV1,2*%
%TO.N,/CV_ATTVERT_CTRL*%
X99314000Y-121800000D03*
D20*
%TO.P,RV1,1*%
%TO.N,/CV_IN_CTRL*%
X96814000Y-121800000D03*
%TD*%
D11*
%TO.P,R10,2*%
%TO.N,Net-(R10-Pad2)*%
X116840000Y-139065000D03*
D13*
%TO.P,R10,1*%
%TO.N,/OUT_MAIN*%
X116840000Y-128905000D03*
%TD*%
D11*
%TO.P,R9,2*%
%TO.N,GND*%
X135255000Y-103505000D03*
D13*
%TO.P,R9,1*%
%TO.N,Net-(Q1-Pad1)*%
X135255000Y-113665000D03*
%TD*%
D11*
%TO.P,R8,2*%
%TO.N,GND*%
X135890000Y-129540000D03*
D13*
%TO.P,R8,1*%
%TO.N,Net-(Q1-Pad2)*%
X135890000Y-139700000D03*
%TD*%
%TO.P,R7,1*%
%TO.N,/AUDIO_1*%
X118745000Y-92710000D03*
D11*
%TO.P,R7,2*%
%TO.N,Net-(C1-Pad1)*%
X118745000Y-102870000D03*
%TD*%
%TO.P,R6,2*%
%TO.N,/FADE_POT_MAIN*%
X125095000Y-121920000D03*
D13*
%TO.P,R6,1*%
%TO.N,Net-(Q1-Pad2)*%
X135255000Y-121920000D03*
%TD*%
D11*
%TO.P,R5,2*%
%TO.N,Net-(R4-Pad1)*%
X135890000Y-152400000D03*
D13*
%TO.P,R5,1*%
%TO.N,Net-(Q1-Pad2)*%
X135890000Y-142240000D03*
%TD*%
D11*
%TO.P,R4,2*%
%TO.N,Net-(R3-Pad1)*%
X129540000Y-142240000D03*
D13*
%TO.P,R4,1*%
%TO.N,Net-(R4-Pad1)*%
X129540000Y-152400000D03*
%TD*%
D11*
%TO.P,R3,2*%
%TO.N,/CV_IN_MAIN*%
X132715000Y-142240000D03*
D13*
%TO.P,R3,1*%
%TO.N,Net-(R3-Pad1)*%
X132715000Y-152400000D03*
%TD*%
%TO.P,R2,1*%
%TO.N,/AUDIO_2_MAIN*%
X133350000Y-78740000D03*
D11*
%TO.P,R2,2*%
%TO.N,GND*%
X123190000Y-78740000D03*
%TD*%
%TO.P,R1,2*%
%TO.N,GND*%
X133350000Y-81915000D03*
D13*
%TO.P,R1,1*%
%TO.N,/AUDIO_1_MAIN*%
X123190000Y-81915000D03*
%TD*%
%TO.P,J5,1*%
%TO.N,/OUT_CTRL*%
X102362000Y-35052000D03*
D21*
X99314000Y-38100000D03*
%TD*%
D22*
%TO.P,J4,4*%
%TO.N,-12V*%
X130810000Y-159385000D03*
%TO.P,J4,3*%
%TO.N,GND*%
X128270000Y-159385000D03*
%TO.P,J4,2*%
X125730000Y-159385000D03*
%TO.P,J4,1*%
%TO.N,+12V*%
%TA.AperFunction,ComponentPad*%
G36*
G01*
X122320000Y-160230001D02*
X122320000Y-158539999D01*
G75*
G02*
X122569999Y-158290000I249999J0D01*
G01*
X123810001Y-158290000D01*
G75*
G02*
X124060000Y-158539999I0J-249999D01*
G01*
X124060000Y-160230001D01*
G75*
G02*
X123810001Y-160480000I-249999J0D01*
G01*
X122569999Y-160480000D01*
G75*
G02*
X122320000Y-160230001I0J249999D01*
G01*
G37*
%TD.AperFunction*%
%TD*%
D13*
%TO.P,J3,1*%
%TO.N,/CV_IN_CTRL*%
X102362000Y-92202000D03*
D21*
X99314000Y-95250000D03*
%TD*%
D13*
%TO.P,J2,1*%
%TO.N,/AUDIO_2_CTRL*%
X102362000Y-73152000D03*
D21*
X99314000Y-76200000D03*
%TD*%
D13*
%TO.P,J1,1*%
%TO.N,/AUDIO_1_CTRL*%
X102362000Y-54102000D03*
D21*
X99314000Y-57150000D03*
%TD*%
D19*
%TO.P,D1,2*%
%TO.N,+12VA*%
X100584000Y-152400000D03*
D20*
%TO.P,D1,1*%
%TO.N,/LED_CTRL*%
X98044000Y-152400000D03*
%TD*%
D13*
%TO.P,C5,2*%
%TO.N,-12V*%
X134660000Y-159385000D03*
D12*
%TO.P,C5,1*%
%TO.N,GND*%
X137160000Y-159385000D03*
%TD*%
D13*
%TO.P,C4,2*%
%TO.N,GND*%
X116880000Y-159385000D03*
D12*
%TO.P,C4,1*%
%TO.N,+12V*%
X119380000Y-159385000D03*
%TD*%
D23*
%TO.N,Net-(C1-Pad1)*%
X117538599Y-127202229D02*
X120650000Y-130313630D01*
X117538599Y-107251401D02*
X117538599Y-127202229D01*
X120650000Y-130313630D02*
X120650000Y-131445000D01*
X118745000Y-106045000D02*
X117538599Y-107251401D01*
D24*
%TO.N,+12V*%
X123190000Y-159385000D02*
X119380000Y-159385000D01*
X123190000Y-144780000D02*
X120650000Y-142240000D01*
X123190000Y-159385000D02*
X123190000Y-144780000D01*
X120650000Y-142240000D02*
X120650000Y-139065000D01*
X120815999Y-126564721D02*
X120815999Y-98259001D01*
X122339001Y-128087723D02*
X120815999Y-126564721D01*
X120815999Y-98259001D02*
X123190000Y-95885000D01*
X122339001Y-137375999D02*
X122339001Y-128087723D01*
X120650000Y-139065000D02*
X122339001Y-137375999D01*
X121285000Y-92710000D02*
X117475000Y-88900000D01*
X123190000Y-92710000D02*
X121285000Y-92710000D01*
X123190000Y-95885000D02*
X123190000Y-92710000D01*
%TO.N,-12V*%
X130810000Y-159385000D02*
X134660000Y-159385000D01*
X123960999Y-135754001D02*
X128270000Y-131445000D01*
X124714010Y-143803732D02*
X123960999Y-143050721D01*
X124714010Y-150073732D02*
X124714010Y-143803732D01*
X130810000Y-156169722D02*
X124714010Y-150073732D01*
X123960999Y-143050721D02*
X123960999Y-135754001D01*
X130810000Y-159385000D02*
X130810000Y-156169722D01*
X128270000Y-131445000D02*
X131445000Y-131445000D01*
X137579001Y-103329279D02*
X135849722Y-101600000D01*
X137579001Y-155334629D02*
X137579001Y-103329279D01*
X134660000Y-158253630D02*
X137579001Y-155334629D01*
X134660000Y-159385000D02*
X134660000Y-158253630D01*
X135674001Y-86779001D02*
X135674001Y-91020999D01*
X133985000Y-85090000D02*
X135674001Y-86779001D01*
X135674001Y-91020999D02*
X131445000Y-95250000D01*
X131445000Y-95250000D02*
X131445000Y-99060000D01*
X133985000Y-101600000D02*
X135849722Y-101600000D01*
X131445000Y-99060000D02*
X133985000Y-101600000D01*
X133985000Y-85090000D02*
X130810000Y-85090000D01*
D23*
%TO.N,Net-(Q1-Pad1)*%
X135255000Y-117475000D02*
X135255000Y-113665000D01*
%TO.N,Net-(Q1-Pad3)*%
X130463599Y-115223599D02*
X132715000Y-117475000D01*
X126721401Y-115223599D02*
X130463599Y-115223599D01*
X125740000Y-116205000D02*
X126721401Y-115223599D01*
%TO.N,Net-(Q1-Pad2)*%
X135890000Y-142240000D02*
X135890000Y-139700000D01*
X134683599Y-122491401D02*
X135255000Y-121920000D01*
X134683599Y-138493599D02*
X134683599Y-122491401D01*
X135890000Y-139700000D02*
X134683599Y-138493599D01*
X133985000Y-120650000D02*
X133985000Y-117475000D01*
X135255000Y-121920000D02*
X133985000Y-120650000D01*
%TO.N,Net-(R3-Pad1)*%
X132715000Y-145415000D02*
X129540000Y-142240000D01*
X132715000Y-152400000D02*
X132715000Y-145415000D01*
X128270000Y-136733478D02*
X128270000Y-136525000D01*
X129540000Y-138003478D02*
X128270000Y-136733478D01*
X129540000Y-142240000D02*
X129540000Y-138003478D01*
%TO.N,Net-(R4-Pad1)*%
X134683599Y-153606401D02*
X135890000Y-152400000D01*
X130746401Y-153606401D02*
X134683599Y-153606401D01*
X129540000Y-152400000D02*
X130746401Y-153606401D01*
X128270000Y-151130000D02*
X128270000Y-139065000D01*
X129540000Y-152400000D02*
X128270000Y-151130000D01*
%TO.N,Net-(R10-Pad2)*%
X118110000Y-139065000D02*
X120650000Y-136525000D01*
X116840000Y-139065000D02*
X118110000Y-139065000D01*
D24*
%TO.N,+12VA*%
X108839000Y-88900000D02*
X108839000Y-133945000D01*
X108839000Y-133945000D02*
X101814000Y-140970000D01*
X101814000Y-151170000D02*
X100584000Y-152400000D01*
X101814000Y-140970000D02*
X101814000Y-151170000D01*
D23*
%TO.N,/LED_CTRL*%
X95507599Y-139744879D02*
X95507599Y-149863599D01*
X98679000Y-136573478D02*
X95507599Y-139744879D01*
X95507599Y-149863599D02*
X98044000Y-152400000D01*
X98679000Y-125730000D02*
X98679000Y-136573478D01*
%TO.N,/CV_IN_CTRL*%
X93599000Y-125015000D02*
X96814000Y-121800000D01*
X93599000Y-125730000D02*
X93599000Y-125015000D01*
X96814000Y-97750000D02*
X99314000Y-95250000D01*
X96814000Y-121800000D02*
X96814000Y-97750000D01*
X99314000Y-95250000D02*
X102362000Y-92202000D01*
%TO.N,/OUT_CTRL*%
X102362000Y-35052000D02*
X99314000Y-38100000D01*
X105880410Y-123608590D02*
X103759000Y-125730000D01*
X105880410Y-93934936D02*
X105880410Y-123608590D01*
X95657599Y-83712125D02*
X105880410Y-93934936D01*
X95657599Y-41756401D02*
X95657599Y-83712125D01*
X99314000Y-38100000D02*
X95657599Y-41756401D01*
D24*
%TO.N,GND1*%
X96814000Y-141117722D02*
X96814000Y-140970000D01*
D23*
%TO.N,/CV_ATTVERT_CTRL*%
X99314000Y-122555000D02*
X99314000Y-121800000D01*
X96139000Y-125730000D02*
X99314000Y-122555000D01*
%TO.N,/FADE_POT_CTRL*%
X101219000Y-139065000D02*
X99314000Y-140970000D01*
X101219000Y-125730000D02*
X101219000Y-139065000D01*
%TO.N,/LED_MAIN*%
X127635000Y-118110000D02*
X129540000Y-116205000D01*
X127635000Y-125730000D02*
X127635000Y-118110000D01*
%TO.N,/OUT_MAIN*%
X116840000Y-130175000D02*
X116840000Y-128905000D01*
X120650000Y-133985000D02*
X116840000Y-130175000D01*
%TO.N,/FADE_POT_MAIN*%
X125095000Y-125730000D02*
X125095000Y-121920000D01*
%TO.N,/CV_IN_MAIN*%
X132715000Y-142240000D02*
X132715000Y-125730000D01*
%TO.N,/AUDIO_1_CTRL*%
X110095401Y-67931401D02*
X99314000Y-57150000D01*
X110095401Y-85103599D02*
X110095401Y-67931401D01*
X108839000Y-86360000D02*
X110095401Y-85103599D01*
X99314000Y-57150000D02*
X102362000Y-54102000D01*
%TO.N,/AUDIO_2_CTRL*%
X106934000Y-83820000D02*
X108839000Y-83820000D01*
X99314000Y-76200000D02*
X106934000Y-83820000D01*
X102362000Y-73152000D02*
X99314000Y-76200000D01*
%TO.N,/AUDIO_2_MAIN*%
X127000000Y-85090000D02*
X133350000Y-78740000D01*
X123190000Y-85090000D02*
X127000000Y-85090000D01*
%TO.N,/AUDIO_1_MAIN*%
X118745000Y-86360000D02*
X123190000Y-81915000D01*
X117475000Y-86360000D02*
X118745000Y-86360000D01*
%TO.N,/AUDIO_2*%
X123190000Y-87630000D02*
X123190000Y-90170000D01*
X124396401Y-91376401D02*
X123190000Y-90170000D01*
X124396401Y-95421401D02*
X124396401Y-91376401D01*
X130180000Y-101205000D02*
X124396401Y-95421401D01*
%TO.N,/AUDIO_1*%
X130810000Y-90170000D02*
X130810000Y-92710000D01*
%TD*%
D25*
%TO.N,GND1*%
X96941000Y-140843000D02*
X96961000Y-140843000D01*
X96961000Y-141097000D01*
X96941000Y-141097000D01*
X96941000Y-142346250D01*
X97099750Y-142505000D01*
X97714000Y-142508072D01*
X97838482Y-142495812D01*
X97958180Y-142459502D01*
X98068494Y-142400537D01*
X98165185Y-142321185D01*
X98244537Y-142224494D01*
X98297880Y-142124697D01*
X98335495Y-142162312D01*
X98586905Y-142330299D01*
X98866257Y-142446011D01*
X99162816Y-142505000D01*
X99465184Y-142505000D01*
X99761743Y-142446011D01*
X100041095Y-142330299D01*
X100292505Y-142162312D01*
X100506312Y-141948505D01*
X100544000Y-141892101D01*
X100544001Y-150643948D01*
X100295669Y-150892280D01*
X100136257Y-150923989D01*
X99856905Y-151039701D01*
X99605495Y-151207688D01*
X99539056Y-151274127D01*
X99533502Y-151255820D01*
X99474537Y-151145506D01*
X99395185Y-151048815D01*
X99298494Y-150969463D01*
X99188180Y-150910498D01*
X99068482Y-150874188D01*
X98944000Y-150861928D01*
X97619479Y-150861928D01*
X96294999Y-149537449D01*
X96294999Y-142506167D01*
X96528250Y-142505000D01*
X96687000Y-142346250D01*
X96687000Y-141097000D01*
X96667000Y-141097000D01*
X96667000Y-140843000D01*
X96687000Y-140843000D01*
X96687000Y-140823000D01*
X96941000Y-140823000D01*
X96941000Y-140843000D01*
%TA.AperFunction,Conductor*%
D26*
G36*
X96941000Y-140843000D02*
G01*
X96961000Y-140843000D01*
X96961000Y-141097000D01*
X96941000Y-141097000D01*
X96941000Y-142346250D01*
X97099750Y-142505000D01*
X97714000Y-142508072D01*
X97838482Y-142495812D01*
X97958180Y-142459502D01*
X98068494Y-142400537D01*
X98165185Y-142321185D01*
X98244537Y-142224494D01*
X98297880Y-142124697D01*
X98335495Y-142162312D01*
X98586905Y-142330299D01*
X98866257Y-142446011D01*
X99162816Y-142505000D01*
X99465184Y-142505000D01*
X99761743Y-142446011D01*
X100041095Y-142330299D01*
X100292505Y-142162312D01*
X100506312Y-141948505D01*
X100544000Y-141892101D01*
X100544001Y-150643948D01*
X100295669Y-150892280D01*
X100136257Y-150923989D01*
X99856905Y-151039701D01*
X99605495Y-151207688D01*
X99539056Y-151274127D01*
X99533502Y-151255820D01*
X99474537Y-151145506D01*
X99395185Y-151048815D01*
X99298494Y-150969463D01*
X99188180Y-150910498D01*
X99068482Y-150874188D01*
X98944000Y-150861928D01*
X97619479Y-150861928D01*
X96294999Y-149537449D01*
X96294999Y-142506167D01*
X96528250Y-142505000D01*
X96687000Y-142346250D01*
X96687000Y-141097000D01*
X96667000Y-141097000D01*
X96667000Y-140843000D01*
X96687000Y-140843000D01*
X96687000Y-140823000D01*
X96941000Y-140823000D01*
X96941000Y-140843000D01*
G37*
%TD.AperFunction*%
D25*
X105093010Y-94261087D02*
X105093011Y-112301187D01*
X104881147Y-112187943D01*
X104505088Y-112073867D01*
X104114000Y-112035348D01*
X103722913Y-112073867D01*
X103346854Y-112187943D01*
X103000276Y-112373193D01*
X102696498Y-112622497D01*
X102447193Y-112926275D01*
X102261943Y-113272853D01*
X102147867Y-113648912D01*
X102119000Y-113942002D01*
X102119000Y-114657997D01*
X102147867Y-114951087D01*
X102261943Y-115327146D01*
X102447193Y-115673725D01*
X102696497Y-115977503D01*
X103000275Y-116226807D01*
X103346853Y-116412057D01*
X103722912Y-116526133D01*
X104114000Y-116564652D01*
X104505087Y-116526133D01*
X104881146Y-116412057D01*
X105093011Y-116298813D01*
X105093011Y-123282438D01*
X104093088Y-124282362D01*
X103905260Y-124245000D01*
X103612740Y-124245000D01*
X103325842Y-124302068D01*
X103055589Y-124414010D01*
X102812368Y-124576525D01*
X102605525Y-124783368D01*
X102489000Y-124957760D01*
X102372475Y-124783368D01*
X102165632Y-124576525D01*
X101922411Y-124414010D01*
X101652158Y-124302068D01*
X101365260Y-124245000D01*
X101072740Y-124245000D01*
X100785842Y-124302068D01*
X100515589Y-124414010D01*
X100272368Y-124576525D01*
X100065525Y-124783368D01*
X99949000Y-124957760D01*
X99832475Y-124783368D01*
X99625632Y-124576525D01*
X99382411Y-124414010D01*
X99112158Y-124302068D01*
X98825260Y-124245000D01*
X98737551Y-124245000D01*
X99692833Y-123289718D01*
X99761743Y-123276011D01*
X100041095Y-123160299D01*
X100292505Y-122992312D01*
X100420737Y-122864080D01*
X100929525Y-122864080D01*
X101013208Y-123118261D01*
X101285775Y-123249158D01*
X101578642Y-123324365D01*
X101880553Y-123340991D01*
X102179907Y-123298397D01*
X102465199Y-123198222D01*
X102614792Y-123118261D01*
X102698475Y-122864080D01*
X101814000Y-121979605D01*
X100929525Y-122864080D01*
X100420737Y-122864080D01*
X100506312Y-122778505D01*
X100601738Y-122635690D01*
X100749920Y-122684475D01*
X101634395Y-121800000D01*
X101993605Y-121800000D01*
X102878080Y-122684475D01*
X103132261Y-122600792D01*
X103263158Y-122328225D01*
X103338365Y-122035358D01*
X103354991Y-121733447D01*
X103312397Y-121434093D01*
X103212222Y-121148801D01*
X103132261Y-120999208D01*
X102878080Y-120915525D01*
X101993605Y-121800000D01*
X101634395Y-121800000D01*
X100749920Y-120915525D01*
X100601738Y-120964310D01*
X100506312Y-120821495D01*
X100420737Y-120735920D01*
X100929525Y-120735920D01*
X101814000Y-121620395D01*
X102698475Y-120735920D01*
X102614792Y-120481739D01*
X102342225Y-120350842D01*
X102049358Y-120275635D01*
X101747447Y-120259009D01*
X101448093Y-120301603D01*
X101162801Y-120401778D01*
X101013208Y-120481739D01*
X100929525Y-120735920D01*
X100420737Y-120735920D01*
X100292505Y-120607688D01*
X100041095Y-120439701D01*
X99761743Y-120323989D01*
X99465184Y-120265000D01*
X99162816Y-120265000D01*
X98866257Y-120323989D01*
X98586905Y-120439701D01*
X98335495Y-120607688D01*
X98297880Y-120645303D01*
X98244537Y-120545506D01*
X98165185Y-120448815D01*
X98068494Y-120369463D01*
X97958180Y-120310498D01*
X97838482Y-120274188D01*
X97714000Y-120261928D01*
X97601400Y-120261928D01*
X97601400Y-98745712D01*
X98180787Y-98985702D01*
X98931361Y-99135000D01*
X99696639Y-99135000D01*
X100447213Y-98985702D01*
X101154238Y-98692842D01*
X101790543Y-98267677D01*
X102331677Y-97726543D01*
X102756842Y-97090238D01*
X103049702Y-96383213D01*
X103199000Y-95632639D01*
X103199000Y-94867361D01*
X103049702Y-94116787D01*
X102821161Y-93565041D01*
X103041727Y-93473680D01*
X103276759Y-93316637D01*
X103476637Y-93116759D01*
X103633680Y-92881727D01*
X103657103Y-92825180D01*
X105093010Y-94261087D01*
%TA.AperFunction,Conductor*%
D26*
G36*
X105093010Y-94261087D02*
G01*
X105093011Y-112301187D01*
X104881147Y-112187943D01*
X104505088Y-112073867D01*
X104114000Y-112035348D01*
X103722913Y-112073867D01*
X103346854Y-112187943D01*
X103000276Y-112373193D01*
X102696498Y-112622497D01*
X102447193Y-112926275D01*
X102261943Y-113272853D01*
X102147867Y-113648912D01*
X102119000Y-113942002D01*
X102119000Y-114657997D01*
X102147867Y-114951087D01*
X102261943Y-115327146D01*
X102447193Y-115673725D01*
X102696497Y-115977503D01*
X103000275Y-116226807D01*
X103346853Y-116412057D01*
X103722912Y-116526133D01*
X104114000Y-116564652D01*
X104505087Y-116526133D01*
X104881146Y-116412057D01*
X105093011Y-116298813D01*
X105093011Y-123282438D01*
X104093088Y-124282362D01*
X103905260Y-124245000D01*
X103612740Y-124245000D01*
X103325842Y-124302068D01*
X103055589Y-124414010D01*
X102812368Y-124576525D01*
X102605525Y-124783368D01*
X102489000Y-124957760D01*
X102372475Y-124783368D01*
X102165632Y-124576525D01*
X101922411Y-124414010D01*
X101652158Y-124302068D01*
X101365260Y-124245000D01*
X101072740Y-124245000D01*
X100785842Y-124302068D01*
X100515589Y-124414010D01*
X100272368Y-124576525D01*
X100065525Y-124783368D01*
X99949000Y-124957760D01*
X99832475Y-124783368D01*
X99625632Y-124576525D01*
X99382411Y-124414010D01*
X99112158Y-124302068D01*
X98825260Y-124245000D01*
X98737551Y-124245000D01*
X99692833Y-123289718D01*
X99761743Y-123276011D01*
X100041095Y-123160299D01*
X100292505Y-122992312D01*
X100420737Y-122864080D01*
X100929525Y-122864080D01*
X101013208Y-123118261D01*
X101285775Y-123249158D01*
X101578642Y-123324365D01*
X101880553Y-123340991D01*
X102179907Y-123298397D01*
X102465199Y-123198222D01*
X102614792Y-123118261D01*
X102698475Y-122864080D01*
X101814000Y-121979605D01*
X100929525Y-122864080D01*
X100420737Y-122864080D01*
X100506312Y-122778505D01*
X100601738Y-122635690D01*
X100749920Y-122684475D01*
X101634395Y-121800000D01*
X101993605Y-121800000D01*
X102878080Y-122684475D01*
X103132261Y-122600792D01*
X103263158Y-122328225D01*
X103338365Y-122035358D01*
X103354991Y-121733447D01*
X103312397Y-121434093D01*
X103212222Y-121148801D01*
X103132261Y-120999208D01*
X102878080Y-120915525D01*
X101993605Y-121800000D01*
X101634395Y-121800000D01*
X100749920Y-120915525D01*
X100601738Y-120964310D01*
X100506312Y-120821495D01*
X100420737Y-120735920D01*
X100929525Y-120735920D01*
X101814000Y-121620395D01*
X102698475Y-120735920D01*
X102614792Y-120481739D01*
X102342225Y-120350842D01*
X102049358Y-120275635D01*
X101747447Y-120259009D01*
X101448093Y-120301603D01*
X101162801Y-120401778D01*
X101013208Y-120481739D01*
X100929525Y-120735920D01*
X100420737Y-120735920D01*
X100292505Y-120607688D01*
X100041095Y-120439701D01*
X99761743Y-120323989D01*
X99465184Y-120265000D01*
X99162816Y-120265000D01*
X98866257Y-120323989D01*
X98586905Y-120439701D01*
X98335495Y-120607688D01*
X98297880Y-120645303D01*
X98244537Y-120545506D01*
X98165185Y-120448815D01*
X98068494Y-120369463D01*
X97958180Y-120310498D01*
X97838482Y-120274188D01*
X97714000Y-120261928D01*
X97601400Y-120261928D01*
X97601400Y-98745712D01*
X98180787Y-98985702D01*
X98931361Y-99135000D01*
X99696639Y-99135000D01*
X100447213Y-98985702D01*
X101154238Y-98692842D01*
X101790543Y-98267677D01*
X102331677Y-97726543D01*
X102756842Y-97090238D01*
X103049702Y-96383213D01*
X103199000Y-95632639D01*
X103199000Y-94867361D01*
X103049702Y-94116787D01*
X102821161Y-93565041D01*
X103041727Y-93473680D01*
X103276759Y-93316637D01*
X103476637Y-93116759D01*
X103633680Y-92881727D01*
X103657103Y-92825180D01*
X105093010Y-94261087D01*
G37*
%TD.AperFunction*%
D25*
X96837457Y-60167677D02*
X97473762Y-60592842D01*
X98180787Y-60885702D01*
X98931361Y-61035000D01*
X99696639Y-61035000D01*
X100447213Y-60885702D01*
X101154238Y-60592842D01*
X101447404Y-60396955D01*
X109308002Y-68257554D01*
X109308001Y-77338288D01*
X109195891Y-77298519D01*
X108966000Y-77419186D01*
X108966000Y-78613000D01*
X108986000Y-78613000D01*
X108986000Y-78867000D01*
X108966000Y-78867000D01*
X108966000Y-81153000D01*
X108986000Y-81153000D01*
X108986000Y-81407000D01*
X108966000Y-81407000D01*
X108966000Y-81427000D01*
X108712000Y-81427000D01*
X108712000Y-81407000D01*
X107518845Y-81407000D01*
X107397524Y-81636890D01*
X107442175Y-81784099D01*
X107567359Y-82046920D01*
X107741412Y-82280269D01*
X107957645Y-82475178D01*
X108074534Y-82544805D01*
X107892368Y-82666525D01*
X107685525Y-82873368D01*
X107579130Y-83032600D01*
X107260152Y-83032600D01*
X103324442Y-79096890D01*
X107397524Y-79096890D01*
X107442175Y-79244099D01*
X107567359Y-79506920D01*
X107741412Y-79740269D01*
X107957645Y-79935178D01*
X108083255Y-80010000D01*
X107957645Y-80084822D01*
X107741412Y-80279731D01*
X107567359Y-80513080D01*
X107442175Y-80775901D01*
X107397524Y-80923110D01*
X107518845Y-81153000D01*
X108712000Y-81153000D01*
X108712000Y-78867000D01*
X107518845Y-78867000D01*
X107397524Y-79096890D01*
X103324442Y-79096890D01*
X102610662Y-78383110D01*
X107397524Y-78383110D01*
X107518845Y-78613000D01*
X108712000Y-78613000D01*
X108712000Y-77419186D01*
X108482109Y-77298519D01*
X108207748Y-77395843D01*
X107957645Y-77544822D01*
X107741412Y-77739731D01*
X107567359Y-77973080D01*
X107442175Y-78235901D01*
X107397524Y-78383110D01*
X102610662Y-78383110D01*
X102560955Y-78333404D01*
X102756842Y-78040238D01*
X103049702Y-77333213D01*
X103199000Y-76582639D01*
X103199000Y-75817361D01*
X103049702Y-75066787D01*
X102821161Y-74515041D01*
X103041727Y-74423680D01*
X103276759Y-74266637D01*
X103476637Y-74066759D01*
X103633680Y-73831727D01*
X103741853Y-73570574D01*
X103797000Y-73293335D01*
X103797000Y-73010665D01*
X103741853Y-72733426D01*
X103633680Y-72472273D01*
X103476637Y-72237241D01*
X103276759Y-72037363D01*
X103041727Y-71880320D01*
X102780574Y-71772147D01*
X102503335Y-71717000D01*
X102220665Y-71717000D01*
X101943426Y-71772147D01*
X101682273Y-71880320D01*
X101447241Y-72037363D01*
X101247363Y-72237241D01*
X101090320Y-72472273D01*
X100998959Y-72692839D01*
X100447213Y-72464298D01*
X99696639Y-72315000D01*
X98931361Y-72315000D01*
X98180787Y-72464298D01*
X97473762Y-72757158D01*
X96837457Y-73182323D01*
X96444999Y-73574781D01*
X96444999Y-59775219D01*
X96837457Y-60167677D01*
%TA.AperFunction,Conductor*%
D26*
G36*
X96837457Y-60167677D02*
G01*
X97473762Y-60592842D01*
X98180787Y-60885702D01*
X98931361Y-61035000D01*
X99696639Y-61035000D01*
X100447213Y-60885702D01*
X101154238Y-60592842D01*
X101447404Y-60396955D01*
X109308002Y-68257554D01*
X109308001Y-77338288D01*
X109195891Y-77298519D01*
X108966000Y-77419186D01*
X108966000Y-78613000D01*
X108986000Y-78613000D01*
X108986000Y-78867000D01*
X108966000Y-78867000D01*
X108966000Y-81153000D01*
X108986000Y-81153000D01*
X108986000Y-81407000D01*
X108966000Y-81407000D01*
X108966000Y-81427000D01*
X108712000Y-81427000D01*
X108712000Y-81407000D01*
X107518845Y-81407000D01*
X107397524Y-81636890D01*
X107442175Y-81784099D01*
X107567359Y-82046920D01*
X107741412Y-82280269D01*
X107957645Y-82475178D01*
X108074534Y-82544805D01*
X107892368Y-82666525D01*
X107685525Y-82873368D01*
X107579130Y-83032600D01*
X107260152Y-83032600D01*
X103324442Y-79096890D01*
X107397524Y-79096890D01*
X107442175Y-79244099D01*
X107567359Y-79506920D01*
X107741412Y-79740269D01*
X107957645Y-79935178D01*
X108083255Y-80010000D01*
X107957645Y-80084822D01*
X107741412Y-80279731D01*
X107567359Y-80513080D01*
X107442175Y-80775901D01*
X107397524Y-80923110D01*
X107518845Y-81153000D01*
X108712000Y-81153000D01*
X108712000Y-78867000D01*
X107518845Y-78867000D01*
X107397524Y-79096890D01*
X103324442Y-79096890D01*
X102610662Y-78383110D01*
X107397524Y-78383110D01*
X107518845Y-78613000D01*
X108712000Y-78613000D01*
X108712000Y-77419186D01*
X108482109Y-77298519D01*
X108207748Y-77395843D01*
X107957645Y-77544822D01*
X107741412Y-77739731D01*
X107567359Y-77973080D01*
X107442175Y-78235901D01*
X107397524Y-78383110D01*
X102610662Y-78383110D01*
X102560955Y-78333404D01*
X102756842Y-78040238D01*
X103049702Y-77333213D01*
X103199000Y-76582639D01*
X103199000Y-75817361D01*
X103049702Y-75066787D01*
X102821161Y-74515041D01*
X103041727Y-74423680D01*
X103276759Y-74266637D01*
X103476637Y-74066759D01*
X103633680Y-73831727D01*
X103741853Y-73570574D01*
X103797000Y-73293335D01*
X103797000Y-73010665D01*
X103741853Y-72733426D01*
X103633680Y-72472273D01*
X103476637Y-72237241D01*
X103276759Y-72037363D01*
X103041727Y-71880320D01*
X102780574Y-71772147D01*
X102503335Y-71717000D01*
X102220665Y-71717000D01*
X101943426Y-71772147D01*
X101682273Y-71880320D01*
X101447241Y-72037363D01*
X101247363Y-72237241D01*
X101090320Y-72472273D01*
X100998959Y-72692839D01*
X100447213Y-72464298D01*
X99696639Y-72315000D01*
X98931361Y-72315000D01*
X98180787Y-72464298D01*
X97473762Y-72757158D01*
X96837457Y-73182323D01*
X96444999Y-73574781D01*
X96444999Y-59775219D01*
X96837457Y-60167677D01*
G37*
%TD.AperFunction*%
%TD*%
D25*
%TO.N,GND*%
X138420869Y-73826722D02*
X138534246Y-73860953D01*
X138638819Y-73916555D01*
X138730596Y-73991407D01*
X138806091Y-74082664D01*
X138862419Y-74186844D01*
X138897440Y-74299976D01*
X138913001Y-74448031D01*
X138913000Y-161892721D01*
X138898278Y-162042869D01*
X138864047Y-162156246D01*
X138808446Y-162260817D01*
X138733594Y-162352595D01*
X138642335Y-162428091D01*
X138538160Y-162484419D01*
X138425024Y-162519440D01*
X138276979Y-162535000D01*
X115729279Y-162535000D01*
X115579131Y-162520278D01*
X115465754Y-162486047D01*
X115361183Y-162430446D01*
X115269405Y-162355594D01*
X115193909Y-162264335D01*
X115137581Y-162160160D01*
X115102560Y-162047024D01*
X115087000Y-161898979D01*
X115087000Y-160377702D01*
X116066903Y-160377702D01*
X116138486Y-160621671D01*
X116393996Y-160742571D01*
X116668184Y-160811300D01*
X116950512Y-160825217D01*
X117230130Y-160783787D01*
X117496292Y-160688603D01*
X117621514Y-160621671D01*
X117693097Y-160377702D01*
X116880000Y-159564605D01*
X116066903Y-160377702D01*
X115087000Y-160377702D01*
X115087000Y-160178081D01*
X115083726Y-160144839D01*
X115083726Y-160128363D01*
X115082763Y-160119198D01*
X115055134Y-159872882D01*
X115042695Y-159814365D01*
X115031078Y-159755692D01*
X115028353Y-159746889D01*
X114953408Y-159510631D01*
X114929868Y-159455709D01*
X114929787Y-159455512D01*
X115439783Y-159455512D01*
X115481213Y-159735130D01*
X115576397Y-160001292D01*
X115643329Y-160126514D01*
X115887298Y-160198097D01*
X116700395Y-159385000D01*
X115887298Y-158571903D01*
X115643329Y-158643486D01*
X115522429Y-158898996D01*
X115453700Y-159173184D01*
X115439783Y-159455512D01*
X114929787Y-159455512D01*
X114907048Y-159400342D01*
X114902664Y-159392236D01*
X114858208Y-159311371D01*
X114944424Y-159225155D01*
X115041277Y-159080205D01*
X115107990Y-158919145D01*
X115142000Y-158748165D01*
X115142000Y-158573835D01*
X115107990Y-158402855D01*
X115103618Y-158392298D01*
X116066903Y-158392298D01*
X116880000Y-159205395D01*
X117693097Y-158392298D01*
X117621514Y-158148329D01*
X117366004Y-158027429D01*
X117091816Y-157958700D01*
X116809488Y-157944783D01*
X116529870Y-157986213D01*
X116263708Y-158081397D01*
X116138486Y-158148329D01*
X116066903Y-158392298D01*
X115103618Y-158392298D01*
X115049232Y-158261000D01*
X115107990Y-158119145D01*
X115142000Y-157948165D01*
X115142000Y-157773835D01*
X115107990Y-157602855D01*
X115049232Y-157461000D01*
X115107990Y-157319145D01*
X115142000Y-157148165D01*
X115142000Y-156973835D01*
X115107990Y-156802855D01*
X115041277Y-156641795D01*
X114944424Y-156496845D01*
X114858020Y-156410441D01*
X114913919Y-156305309D01*
X114936707Y-156250021D01*
X114960279Y-156195025D01*
X114963003Y-156186222D01*
X115034643Y-155948941D01*
X115046264Y-155890254D01*
X115058700Y-155831748D01*
X115059663Y-155822583D01*
X115083850Y-155575905D01*
X115083850Y-155575902D01*
X115087000Y-155543919D01*
X115087000Y-148369872D01*
X115875000Y-148369872D01*
X115875000Y-148810128D01*
X115960890Y-149241925D01*
X116129369Y-149648669D01*
X116373962Y-150014729D01*
X116685271Y-150326038D01*
X117051331Y-150570631D01*
X117458075Y-150739110D01*
X117889872Y-150825000D01*
X118330128Y-150825000D01*
X118761925Y-150739110D01*
X119168669Y-150570631D01*
X119534729Y-150326038D01*
X119846038Y-150014729D01*
X120090631Y-149648669D01*
X120259110Y-149241925D01*
X120345000Y-148810128D01*
X120345000Y-148369872D01*
X120259110Y-147938075D01*
X120090631Y-147531331D01*
X119846038Y-147165271D01*
X119534729Y-146853962D01*
X119168669Y-146609369D01*
X118761925Y-146440890D01*
X118330128Y-146355000D01*
X117889872Y-146355000D01*
X117458075Y-146440890D01*
X117051331Y-146609369D01*
X116685271Y-146853962D01*
X116373962Y-147165271D01*
X116129369Y-147531331D01*
X115960890Y-147938075D01*
X115875000Y-148369872D01*
X115087000Y-148369872D01*
X115087000Y-133254081D01*
X115083726Y-133220839D01*
X115083726Y-133204363D01*
X115082763Y-133195198D01*
X115055134Y-132948882D01*
X115042695Y-132890365D01*
X115031078Y-132831692D01*
X115028353Y-132822889D01*
X114953408Y-132586631D01*
X114929868Y-132531709D01*
X114907048Y-132476342D01*
X114902664Y-132468236D01*
X114858208Y-132387371D01*
X114944424Y-132301155D01*
X115041277Y-132156205D01*
X115107990Y-131995145D01*
X115142000Y-131824165D01*
X115142000Y-131649835D01*
X115107990Y-131478855D01*
X115049232Y-131337000D01*
X115107990Y-131195145D01*
X115142000Y-131024165D01*
X115142000Y-130849835D01*
X115107990Y-130678855D01*
X115049232Y-130537000D01*
X115107990Y-130395145D01*
X115142000Y-130224165D01*
X115142000Y-130049835D01*
X115107990Y-129878855D01*
X115041277Y-129717795D01*
X114944424Y-129572845D01*
X114858020Y-129486441D01*
X114913919Y-129381309D01*
X114936707Y-129326021D01*
X114960279Y-129271025D01*
X114963003Y-129262222D01*
X115034643Y-129024941D01*
X115046264Y-128966254D01*
X115058700Y-128907748D01*
X115059663Y-128898583D01*
X115072891Y-128763665D01*
X115405000Y-128763665D01*
X115405000Y-129046335D01*
X115460147Y-129323574D01*
X115568320Y-129584727D01*
X115725363Y-129819759D01*
X115925241Y-130019637D01*
X116052600Y-130104735D01*
X116052600Y-130136337D01*
X116048792Y-130175000D01*
X116052600Y-130213663D01*
X116052600Y-130213672D01*
X116063994Y-130329356D01*
X116109018Y-130477782D01*
X116182134Y-130614571D01*
X116280531Y-130734469D01*
X116310578Y-130759128D01*
X119244883Y-133693435D01*
X119215000Y-133843665D01*
X119215000Y-134126335D01*
X119270147Y-134403574D01*
X119378320Y-134664727D01*
X119535363Y-134899759D01*
X119735241Y-135099637D01*
X119967759Y-135255000D01*
X119735241Y-135410363D01*
X119535363Y-135610241D01*
X119378320Y-135845273D01*
X119270147Y-136106426D01*
X119215000Y-136383665D01*
X119215000Y-136666335D01*
X119244883Y-136816566D01*
X117932923Y-138128527D01*
X117754759Y-137950363D01*
X117519727Y-137793320D01*
X117258574Y-137685147D01*
X116981335Y-137630000D01*
X116698665Y-137630000D01*
X116421426Y-137685147D01*
X116160273Y-137793320D01*
X115925241Y-137950363D01*
X115725363Y-138150241D01*
X115568320Y-138385273D01*
X115460147Y-138646426D01*
X115405000Y-138923665D01*
X115405000Y-139206335D01*
X115460147Y-139483574D01*
X115568320Y-139744727D01*
X115725363Y-139979759D01*
X115925241Y-140179637D01*
X116160273Y-140336680D01*
X116421426Y-140444853D01*
X116698665Y-140500000D01*
X116981335Y-140500000D01*
X117258574Y-140444853D01*
X117519727Y-140336680D01*
X117754759Y-140179637D01*
X117954637Y-139979759D01*
X118039735Y-139852400D01*
X118071337Y-139852400D01*
X118110000Y-139856208D01*
X118148663Y-139852400D01*
X118148673Y-139852400D01*
X118264357Y-139841006D01*
X118412783Y-139795982D01*
X118549572Y-139722866D01*
X118669469Y-139624469D01*
X118694128Y-139594422D01*
X119215000Y-139073550D01*
X119215000Y-139206335D01*
X119270147Y-139483574D01*
X119378320Y-139744727D01*
X119380001Y-139747242D01*
X119380000Y-141557758D01*
X119378320Y-141560273D01*
X119270147Y-141821426D01*
X119215000Y-142098665D01*
X119215000Y-142381335D01*
X119270147Y-142658574D01*
X119378320Y-142919727D01*
X119535363Y-143154759D01*
X119735241Y-143354637D01*
X119970273Y-143511680D01*
X120231426Y-143619853D01*
X120234393Y-143620443D01*
X121920001Y-145306052D01*
X121920000Y-157938891D01*
X121831595Y-158046613D01*
X121795041Y-158115000D01*
X120608259Y-158115000D01*
X120534494Y-158054463D01*
X120424180Y-157995498D01*
X120304482Y-157959188D01*
X120180000Y-157946928D01*
X118580000Y-157946928D01*
X118455518Y-157959188D01*
X118335820Y-157995498D01*
X118225506Y-158054463D01*
X118128815Y-158133815D01*
X118049463Y-158230506D01*
X117990498Y-158340820D01*
X117954188Y-158460518D01*
X117941928Y-158585000D01*
X117941928Y-158592215D01*
X117872702Y-158571903D01*
X117059605Y-159385000D01*
X117872702Y-160198097D01*
X117941928Y-160177785D01*
X117941928Y-160185000D01*
X117954188Y-160309482D01*
X117990498Y-160429180D01*
X118049463Y-160539494D01*
X118128815Y-160636185D01*
X118225506Y-160715537D01*
X118335820Y-160774502D01*
X118455518Y-160810812D01*
X118580000Y-160823072D01*
X120180000Y-160823072D01*
X120304482Y-160810812D01*
X120424180Y-160774502D01*
X120534494Y-160715537D01*
X120608259Y-160655000D01*
X121795041Y-160655000D01*
X121831595Y-160723387D01*
X121942038Y-160857962D01*
X122076613Y-160968405D01*
X122230149Y-161050472D01*
X122396745Y-161101008D01*
X122569999Y-161118072D01*
X123810001Y-161118072D01*
X123983255Y-161101008D01*
X124149851Y-161050472D01*
X124303387Y-160968405D01*
X124437962Y-160857962D01*
X124548405Y-160723387D01*
X124606655Y-160614410D01*
X124763674Y-160773306D01*
X125009191Y-160939474D01*
X125282409Y-161054551D01*
X125369969Y-161071302D01*
X125603000Y-160950246D01*
X125603000Y-159512000D01*
X125857000Y-159512000D01*
X125857000Y-160950246D01*
X126090031Y-161071302D01*
X126177591Y-161054551D01*
X126450809Y-160939474D01*
X126696326Y-160773306D01*
X126904708Y-160562433D01*
X127000000Y-160417968D01*
X127095292Y-160562433D01*
X127303674Y-160773306D01*
X127549191Y-160939474D01*
X127822409Y-161054551D01*
X127909969Y-161071302D01*
X128143000Y-160950246D01*
X128143000Y-159512000D01*
X125857000Y-159512000D01*
X125603000Y-159512000D01*
X125583000Y-159512000D01*
X125583000Y-159258000D01*
X125603000Y-159258000D01*
X125603000Y-157819754D01*
X125857000Y-157819754D01*
X125857000Y-159258000D01*
X128143000Y-159258000D01*
X128143000Y-157819754D01*
X127909969Y-157698698D01*
X127822409Y-157715449D01*
X127549191Y-157830526D01*
X127303674Y-157996694D01*
X127095292Y-158207567D01*
X127000000Y-158352032D01*
X126904708Y-158207567D01*
X126696326Y-157996694D01*
X126450809Y-157830526D01*
X126177591Y-157715449D01*
X126090031Y-157698698D01*
X125857000Y-157819754D01*
X125603000Y-157819754D01*
X125369969Y-157698698D01*
X125282409Y-157715449D01*
X125009191Y-157830526D01*
X124763674Y-157996694D01*
X124606655Y-158155590D01*
X124548405Y-158046613D01*
X124460000Y-157938891D01*
X124460000Y-151615772D01*
X129540001Y-156695775D01*
X129540000Y-158343363D01*
X129537440Y-158348152D01*
X129444708Y-158207567D01*
X129236326Y-157996694D01*
X128990809Y-157830526D01*
X128717591Y-157715449D01*
X128630031Y-157698698D01*
X128397000Y-157819754D01*
X128397000Y-159258000D01*
X128417000Y-159258000D01*
X128417000Y-159512000D01*
X128397000Y-159512000D01*
X128397000Y-160950246D01*
X128630031Y-161071302D01*
X128717591Y-161054551D01*
X128990809Y-160939474D01*
X129236326Y-160773306D01*
X129444708Y-160562433D01*
X129537440Y-160421848D01*
X129552583Y-160450179D01*
X129740655Y-160679345D01*
X129969822Y-160867417D01*
X130231276Y-161007166D01*
X130514969Y-161093224D01*
X130810000Y-161122282D01*
X131105032Y-161093224D01*
X131388725Y-161007166D01*
X131650179Y-160867417D01*
X131879345Y-160679345D01*
X131899324Y-160655000D01*
X133977759Y-160655000D01*
X133980273Y-160656680D01*
X134241426Y-160764853D01*
X134518665Y-160820000D01*
X134801335Y-160820000D01*
X135078574Y-160764853D01*
X135339727Y-160656680D01*
X135574759Y-160499637D01*
X135741339Y-160333057D01*
X135770498Y-160429180D01*
X135829463Y-160539494D01*
X135908815Y-160636185D01*
X136005506Y-160715537D01*
X136115820Y-160774502D01*
X136235518Y-160810812D01*
X136360000Y-160823072D01*
X136874250Y-160820000D01*
X137033000Y-160661250D01*
X137033000Y-159512000D01*
X137287000Y-159512000D01*
X137287000Y-160661250D01*
X137445750Y-160820000D01*
X137960000Y-160823072D01*
X138084482Y-160810812D01*
X138204180Y-160774502D01*
X138314494Y-160715537D01*
X138411185Y-160636185D01*
X138490537Y-160539494D01*
X138549502Y-160429180D01*
X138585812Y-160309482D01*
X138598072Y-160185000D01*
X138595000Y-159670750D01*
X138436250Y-159512000D01*
X137287000Y-159512000D01*
X137033000Y-159512000D01*
X137013000Y-159512000D01*
X137013000Y-159258000D01*
X137033000Y-159258000D01*
X137033000Y-158108750D01*
X137287000Y-158108750D01*
X137287000Y-159258000D01*
X138436250Y-159258000D01*
X138595000Y-159099250D01*
X138598072Y-158585000D01*
X138585812Y-158460518D01*
X138549502Y-158340820D01*
X138490537Y-158230506D01*
X138411185Y-158133815D01*
X138314494Y-158054463D01*
X138204180Y-157995498D01*
X138084482Y-157959188D01*
X137960000Y-157946928D01*
X137445750Y-157950000D01*
X137287000Y-158108750D01*
X137033000Y-158108750D01*
X136874250Y-157950000D01*
X136760361Y-157949320D01*
X138432922Y-156276760D01*
X138481371Y-156236999D01*
X138521133Y-156188549D01*
X138521136Y-156188546D01*
X138572582Y-156125858D01*
X138640076Y-156043617D01*
X138758004Y-155822988D01*
X138830624Y-155583592D01*
X138849001Y-155397009D01*
X138849001Y-155397008D01*
X138855145Y-155334629D01*
X138849001Y-155272249D01*
X138849001Y-103391659D01*
X138855145Y-103329279D01*
X138830624Y-103080316D01*
X138758004Y-102840920D01*
X138724908Y-102779002D01*
X138640076Y-102620291D01*
X138554371Y-102515859D01*
X138521136Y-102475362D01*
X138521133Y-102475359D01*
X138481371Y-102426909D01*
X138432920Y-102387146D01*
X136791863Y-100746091D01*
X136752092Y-100697630D01*
X136558710Y-100538925D01*
X136338081Y-100420997D01*
X136098685Y-100348377D01*
X135912102Y-100330000D01*
X135912095Y-100330000D01*
X135849722Y-100323857D01*
X135787349Y-100330000D01*
X134511051Y-100330000D01*
X132715000Y-98533950D01*
X132715000Y-96934872D01*
X133655000Y-96934872D01*
X133655000Y-97375128D01*
X133740890Y-97806925D01*
X133909369Y-98213669D01*
X134153962Y-98579729D01*
X134465271Y-98891038D01*
X134831331Y-99135631D01*
X135238075Y-99304110D01*
X135669872Y-99390000D01*
X136110128Y-99390000D01*
X136541925Y-99304110D01*
X136948669Y-99135631D01*
X137314729Y-98891038D01*
X137626038Y-98579729D01*
X137870631Y-98213669D01*
X138039110Y-97806925D01*
X138125000Y-97375128D01*
X138125000Y-96934872D01*
X138039110Y-96503075D01*
X137870631Y-96096331D01*
X137626038Y-95730271D01*
X137314729Y-95418962D01*
X136948669Y-95174369D01*
X136541925Y-95005890D01*
X136110128Y-94920000D01*
X135669872Y-94920000D01*
X135238075Y-95005890D01*
X134831331Y-95174369D01*
X134465271Y-95418962D01*
X134153962Y-95730271D01*
X133909369Y-96096331D01*
X133740890Y-96503075D01*
X133655000Y-96934872D01*
X132715000Y-96934872D01*
X132715000Y-95776050D01*
X136527915Y-91963136D01*
X136576371Y-91923369D01*
X136735076Y-91729987D01*
X136853004Y-91509358D01*
X136925624Y-91269962D01*
X136944001Y-91083379D01*
X136950145Y-91020999D01*
X136944001Y-90958619D01*
X136944001Y-86841373D01*
X136950144Y-86779000D01*
X136944001Y-86716627D01*
X136944001Y-86716621D01*
X136925624Y-86530038D01*
X136921173Y-86515363D01*
X136874553Y-86361680D01*
X136853004Y-86290642D01*
X136735076Y-86070013D01*
X136576371Y-85876631D01*
X136527916Y-85836865D01*
X135365443Y-84674393D01*
X135364853Y-84671426D01*
X135256680Y-84410273D01*
X135099637Y-84175241D01*
X134899759Y-83975363D01*
X134664727Y-83818320D01*
X134403574Y-83710147D01*
X134126335Y-83655000D01*
X133843665Y-83655000D01*
X133566426Y-83710147D01*
X133305273Y-83818320D01*
X133302759Y-83820000D01*
X131492241Y-83820000D01*
X131489727Y-83818320D01*
X131228574Y-83710147D01*
X130951335Y-83655000D01*
X130668665Y-83655000D01*
X130391426Y-83710147D01*
X130130273Y-83818320D01*
X129895241Y-83975363D01*
X129695363Y-84175241D01*
X129538320Y-84410273D01*
X129430147Y-84671426D01*
X129375000Y-84948665D01*
X129375000Y-85231335D01*
X129430147Y-85508574D01*
X129538320Y-85769727D01*
X129695363Y-86004759D01*
X129895241Y-86204637D01*
X130127759Y-86360000D01*
X129895241Y-86515363D01*
X129695363Y-86715241D01*
X129538320Y-86950273D01*
X129430147Y-87211426D01*
X129375000Y-87488665D01*
X129375000Y-87771335D01*
X129430147Y-88048574D01*
X129538320Y-88309727D01*
X129695363Y-88544759D01*
X129895241Y-88744637D01*
X130127759Y-88900000D01*
X129895241Y-89055363D01*
X129695363Y-89255241D01*
X129538320Y-89490273D01*
X129430147Y-89751426D01*
X129375000Y-90028665D01*
X129375000Y-90311335D01*
X129430147Y-90588574D01*
X129538320Y-90849727D01*
X129695363Y-91084759D01*
X129893961Y-91283357D01*
X129885518Y-91284188D01*
X129765820Y-91320498D01*
X129655506Y-91379463D01*
X129558815Y-91458815D01*
X129479463Y-91555506D01*
X129420498Y-91665820D01*
X129384188Y-91785518D01*
X129371928Y-91910000D01*
X129371928Y-93510000D01*
X129384188Y-93634482D01*
X129420498Y-93754180D01*
X129479463Y-93864494D01*
X129558815Y-93961185D01*
X129655506Y-94040537D01*
X129765820Y-94099502D01*
X129885518Y-94135812D01*
X130010000Y-94148072D01*
X130750878Y-94148072D01*
X130591091Y-94307859D01*
X130542630Y-94347630D01*
X130383925Y-94541013D01*
X130265997Y-94761642D01*
X130226363Y-94892298D01*
X130198961Y-94982631D01*
X130193377Y-95001038D01*
X130175000Y-95187621D01*
X130175000Y-95187627D01*
X130168857Y-95250000D01*
X130175000Y-95312373D01*
X130175001Y-98997617D01*
X130168857Y-99060000D01*
X130193377Y-99308963D01*
X130254551Y-99510624D01*
X130265998Y-99548359D01*
X130383926Y-99768988D01*
X130542631Y-99962370D01*
X130591086Y-100002136D01*
X130699396Y-100110446D01*
X130532944Y-100041499D01*
X130299175Y-99995000D01*
X130083552Y-99995000D01*
X126966254Y-96877702D01*
X127376903Y-96877702D01*
X127448486Y-97121671D01*
X127703996Y-97242571D01*
X127978184Y-97311300D01*
X128260512Y-97325217D01*
X128540130Y-97283787D01*
X128806292Y-97188603D01*
X128931514Y-97121671D01*
X129003097Y-96877702D01*
X128190000Y-96064605D01*
X127376903Y-96877702D01*
X126966254Y-96877702D01*
X126044063Y-95955512D01*
X126749783Y-95955512D01*
X126791213Y-96235130D01*
X126886397Y-96501292D01*
X126953329Y-96626514D01*
X127197298Y-96698097D01*
X128010395Y-95885000D01*
X128369605Y-95885000D01*
X129182702Y-96698097D01*
X129426671Y-96626514D01*
X129547571Y-96371004D01*
X129616300Y-96096816D01*
X129630217Y-95814488D01*
X129588787Y-95534870D01*
X129493603Y-95268708D01*
X129426671Y-95143486D01*
X129182702Y-95071903D01*
X128369605Y-95885000D01*
X128010395Y-95885000D01*
X127197298Y-95071903D01*
X126953329Y-95143486D01*
X126832429Y-95398996D01*
X126763700Y-95673184D01*
X126749783Y-95955512D01*
X126044063Y-95955512D01*
X125183801Y-95095251D01*
X125183801Y-94892298D01*
X127376903Y-94892298D01*
X128190000Y-95705395D01*
X129003097Y-94892298D01*
X128931514Y-94648329D01*
X128676004Y-94527429D01*
X128401816Y-94458700D01*
X128119488Y-94444783D01*
X127839870Y-94486213D01*
X127573708Y-94581397D01*
X127448486Y-94648329D01*
X127376903Y-94892298D01*
X125183801Y-94892298D01*
X125183801Y-91415066D01*
X125187609Y-91376401D01*
X125183801Y-91337736D01*
X125183801Y-91337728D01*
X125172407Y-91222044D01*
X125127383Y-91073618D01*
X125054267Y-90936829D01*
X125024848Y-90900982D01*
X124980523Y-90846971D01*
X124980520Y-90846968D01*
X124955870Y-90816932D01*
X124925834Y-90792282D01*
X124595117Y-90461566D01*
X124625000Y-90311335D01*
X124625000Y-90028665D01*
X124569853Y-89751426D01*
X124461680Y-89490273D01*
X124304637Y-89255241D01*
X124104759Y-89055363D01*
X123977400Y-88970265D01*
X123977400Y-88829735D01*
X124104759Y-88744637D01*
X124304637Y-88544759D01*
X124461680Y-88309727D01*
X124569853Y-88048574D01*
X124625000Y-87771335D01*
X124625000Y-87488665D01*
X124569853Y-87211426D01*
X124461680Y-86950273D01*
X124304637Y-86715241D01*
X124104759Y-86515363D01*
X123872241Y-86360000D01*
X124104759Y-86204637D01*
X124304637Y-86004759D01*
X124389735Y-85877400D01*
X126961337Y-85877400D01*
X127000000Y-85881208D01*
X127038663Y-85877400D01*
X127038673Y-85877400D01*
X127154357Y-85866006D01*
X127302783Y-85820982D01*
X127439572Y-85747866D01*
X127559469Y-85649469D01*
X127584128Y-85619422D01*
X130939512Y-82264039D01*
X131958096Y-82264039D01*
X131998754Y-82398087D01*
X132118963Y-82652420D01*
X132286481Y-82878414D01*
X132494869Y-83067385D01*
X132736119Y-83212070D01*
X133000960Y-83306909D01*
X133223000Y-83185624D01*
X133223000Y-82042000D01*
X133477000Y-82042000D01*
X133477000Y-83185624D01*
X133699040Y-83306909D01*
X133963881Y-83212070D01*
X134205131Y-83067385D01*
X134413519Y-82878414D01*
X134581037Y-82652420D01*
X134701246Y-82398087D01*
X134741904Y-82264039D01*
X134619915Y-82042000D01*
X133477000Y-82042000D01*
X133223000Y-82042000D01*
X132080085Y-82042000D01*
X131958096Y-82264039D01*
X130939512Y-82264039D01*
X131637590Y-81565961D01*
X131958096Y-81565961D01*
X132080085Y-81788000D01*
X133223000Y-81788000D01*
X133223000Y-80644376D01*
X133477000Y-80644376D01*
X133477000Y-81788000D01*
X134619915Y-81788000D01*
X134741904Y-81565961D01*
X134701246Y-81431913D01*
X134581037Y-81177580D01*
X134413519Y-80951586D01*
X134205131Y-80762615D01*
X133963881Y-80617930D01*
X133699040Y-80523091D01*
X133477000Y-80644376D01*
X133223000Y-80644376D01*
X133000960Y-80523091D01*
X132736119Y-80617930D01*
X132494869Y-80762615D01*
X132286481Y-80951586D01*
X132118963Y-81177580D01*
X131998754Y-81431913D01*
X131958096Y-81565961D01*
X131637590Y-81565961D01*
X133058435Y-80145117D01*
X133208665Y-80175000D01*
X133491335Y-80175000D01*
X133768574Y-80119853D01*
X134029727Y-80011680D01*
X134264759Y-79854637D01*
X134464637Y-79654759D01*
X134621680Y-79419727D01*
X134729853Y-79158574D01*
X134785000Y-78881335D01*
X134785000Y-78598665D01*
X134729853Y-78321426D01*
X134621680Y-78060273D01*
X134464637Y-77825241D01*
X134264759Y-77625363D01*
X134029727Y-77468320D01*
X133768574Y-77360147D01*
X133491335Y-77305000D01*
X133208665Y-77305000D01*
X132931426Y-77360147D01*
X132670273Y-77468320D01*
X132435241Y-77625363D01*
X132235363Y-77825241D01*
X132078320Y-78060273D01*
X131970147Y-78321426D01*
X131915000Y-78598665D01*
X131915000Y-78881335D01*
X131944883Y-79031565D01*
X126673850Y-84302600D01*
X124389735Y-84302600D01*
X124304637Y-84175241D01*
X124104759Y-83975363D01*
X123869727Y-83818320D01*
X123608574Y-83710147D01*
X123331335Y-83655000D01*
X123048665Y-83655000D01*
X122771426Y-83710147D01*
X122510273Y-83818320D01*
X122275241Y-83975363D01*
X122075363Y-84175241D01*
X121918320Y-84410273D01*
X121810147Y-84671426D01*
X121755000Y-84948665D01*
X121755000Y-85231335D01*
X121810147Y-85508574D01*
X121918320Y-85769727D01*
X122075363Y-86004759D01*
X122275241Y-86204637D01*
X122507759Y-86360000D01*
X122275241Y-86515363D01*
X122075363Y-86715241D01*
X121918320Y-86950273D01*
X121810147Y-87211426D01*
X121755000Y-87488665D01*
X121755000Y-87771335D01*
X121810147Y-88048574D01*
X121918320Y-88309727D01*
X122075363Y-88544759D01*
X122275241Y-88744637D01*
X122402600Y-88829736D01*
X122402601Y-88970264D01*
X122275241Y-89055363D01*
X122075363Y-89255241D01*
X121918320Y-89490273D01*
X121810147Y-89751426D01*
X121755000Y-90028665D01*
X121755000Y-90311335D01*
X121810147Y-90588574D01*
X121918320Y-90849727D01*
X122075363Y-91084759D01*
X122275241Y-91284637D01*
X122507759Y-91440000D01*
X121811052Y-91440000D01*
X118963072Y-88592022D01*
X118963072Y-88050000D01*
X118950812Y-87925518D01*
X118914502Y-87805820D01*
X118855537Y-87695506D01*
X118776185Y-87598815D01*
X118679494Y-87519463D01*
X118569180Y-87460498D01*
X118496620Y-87438487D01*
X118628475Y-87306632D01*
X118733109Y-87150037D01*
X118745000Y-87151208D01*
X118783663Y-87147400D01*
X118783673Y-87147400D01*
X118899357Y-87136006D01*
X119047783Y-87090982D01*
X119184572Y-87017866D01*
X119304469Y-86919469D01*
X119329128Y-86889422D01*
X122898435Y-83320117D01*
X123048665Y-83350000D01*
X123331335Y-83350000D01*
X123608574Y-83294853D01*
X123869727Y-83186680D01*
X124104759Y-83029637D01*
X124304637Y-82829759D01*
X124461680Y-82594727D01*
X124569853Y-82333574D01*
X124625000Y-82056335D01*
X124625000Y-81773665D01*
X124569853Y-81496426D01*
X124461680Y-81235273D01*
X124304637Y-81000241D01*
X124104759Y-80800363D01*
X123869727Y-80643320D01*
X123608574Y-80535147D01*
X123331335Y-80480000D01*
X123048665Y-80480000D01*
X122771426Y-80535147D01*
X122510273Y-80643320D01*
X122275241Y-80800363D01*
X122075363Y-81000241D01*
X121918320Y-81235273D01*
X121810147Y-81496426D01*
X121755000Y-81773665D01*
X121755000Y-82056335D01*
X121784883Y-82206565D01*
X118603278Y-85388171D01*
X118421632Y-85206525D01*
X118247240Y-85090000D01*
X118421632Y-84973475D01*
X118628475Y-84766632D01*
X118790990Y-84523411D01*
X118902932Y-84253158D01*
X118960000Y-83966260D01*
X118960000Y-83673740D01*
X118902932Y-83386842D01*
X118790990Y-83116589D01*
X118628475Y-82873368D01*
X118421632Y-82666525D01*
X118239466Y-82544805D01*
X118356355Y-82475178D01*
X118572588Y-82280269D01*
X118746641Y-82046920D01*
X118871825Y-81784099D01*
X118916476Y-81636890D01*
X118795155Y-81407000D01*
X117602000Y-81407000D01*
X117602000Y-81427000D01*
X117348000Y-81427000D01*
X117348000Y-81407000D01*
X116154845Y-81407000D01*
X116033524Y-81636890D01*
X116078175Y-81784099D01*
X116203359Y-82046920D01*
X116377412Y-82280269D01*
X116593645Y-82475178D01*
X116710534Y-82544805D01*
X116528368Y-82666525D01*
X116321525Y-82873368D01*
X116159010Y-83116589D01*
X116047068Y-83386842D01*
X115990000Y-83673740D01*
X115990000Y-83966260D01*
X116047068Y-84253158D01*
X116159010Y-84523411D01*
X116321525Y-84766632D01*
X116528368Y-84973475D01*
X116702760Y-85090000D01*
X116528368Y-85206525D01*
X116321525Y-85413368D01*
X116159010Y-85656589D01*
X116047068Y-85926842D01*
X115990000Y-86213740D01*
X115990000Y-86506260D01*
X116047068Y-86793158D01*
X116159010Y-87063411D01*
X116321525Y-87306632D01*
X116453380Y-87438487D01*
X116380820Y-87460498D01*
X116270506Y-87519463D01*
X116173815Y-87598815D01*
X116094463Y-87695506D01*
X116035498Y-87805820D01*
X115999188Y-87925518D01*
X115986928Y-88050000D01*
X115986928Y-89750000D01*
X115999188Y-89874482D01*
X116035498Y-89994180D01*
X116094463Y-90104494D01*
X116173815Y-90201185D01*
X116270506Y-90280537D01*
X116380820Y-90339502D01*
X116500518Y-90375812D01*
X116625000Y-90388072D01*
X117167022Y-90388072D01*
X118172751Y-91393801D01*
X118065273Y-91438320D01*
X117830241Y-91595363D01*
X117630363Y-91795241D01*
X117473320Y-92030273D01*
X117365147Y-92291426D01*
X117310000Y-92568665D01*
X117310000Y-92851335D01*
X117365147Y-93128574D01*
X117473320Y-93389727D01*
X117630363Y-93624759D01*
X117830241Y-93824637D01*
X118065273Y-93981680D01*
X118326426Y-94089853D01*
X118603665Y-94145000D01*
X118886335Y-94145000D01*
X119163574Y-94089853D01*
X119424727Y-93981680D01*
X119659759Y-93824637D01*
X119859637Y-93624759D01*
X120016680Y-93389727D01*
X120061198Y-93282250D01*
X120342868Y-93563920D01*
X120382630Y-93612370D01*
X120431080Y-93652132D01*
X120431083Y-93652135D01*
X120481086Y-93693171D01*
X120576012Y-93771075D01*
X120750788Y-93864494D01*
X120796641Y-93889003D01*
X121036037Y-93961623D01*
X121285000Y-93986144D01*
X121347380Y-93980000D01*
X121920001Y-93980000D01*
X121920000Y-95202758D01*
X121918320Y-95205273D01*
X121810147Y-95466426D01*
X121809557Y-95469392D01*
X119962085Y-97316865D01*
X119913630Y-97356631D01*
X119754925Y-97550013D01*
X119636997Y-97770642D01*
X119564376Y-98010038D01*
X119539856Y-98259001D01*
X119546000Y-98321384D01*
X119546000Y-101679352D01*
X119424727Y-101598320D01*
X119163574Y-101490147D01*
X118886335Y-101435000D01*
X118603665Y-101435000D01*
X118326426Y-101490147D01*
X118065273Y-101598320D01*
X117830241Y-101755363D01*
X117630363Y-101955241D01*
X117473320Y-102190273D01*
X117365147Y-102451426D01*
X117310000Y-102728665D01*
X117310000Y-103011335D01*
X117365147Y-103288574D01*
X117473320Y-103549727D01*
X117630363Y-103784759D01*
X117830241Y-103984637D01*
X118065273Y-104141680D01*
X118326426Y-104249853D01*
X118603665Y-104305000D01*
X118886335Y-104305000D01*
X119163574Y-104249853D01*
X119424727Y-104141680D01*
X119546000Y-104060648D01*
X119546000Y-104854352D01*
X119424727Y-104773320D01*
X119163574Y-104665147D01*
X118886335Y-104610000D01*
X118603665Y-104610000D01*
X118326426Y-104665147D01*
X118065273Y-104773320D01*
X117830241Y-104930363D01*
X117630363Y-105130241D01*
X117473320Y-105365273D01*
X117365147Y-105626426D01*
X117310000Y-105903665D01*
X117310000Y-106186335D01*
X117339883Y-106336566D01*
X117009176Y-106667274D01*
X116979130Y-106691932D01*
X116880733Y-106811830D01*
X116807617Y-106948619D01*
X116762593Y-107097045D01*
X116751199Y-107212729D01*
X116751199Y-107212738D01*
X116747391Y-107251401D01*
X116751199Y-107290064D01*
X116751200Y-127163556D01*
X116747391Y-127202229D01*
X116762594Y-127356586D01*
X116796997Y-127470000D01*
X116698665Y-127470000D01*
X116421426Y-127525147D01*
X116160273Y-127633320D01*
X115925241Y-127790363D01*
X115725363Y-127990241D01*
X115568320Y-128225273D01*
X115460147Y-128486426D01*
X115405000Y-128763665D01*
X115072891Y-128763665D01*
X115083850Y-128651905D01*
X115083850Y-128651902D01*
X115087000Y-128619919D01*
X115087000Y-106076081D01*
X115083726Y-106042839D01*
X115083726Y-106026363D01*
X115082763Y-106017198D01*
X115055134Y-105770882D01*
X115042695Y-105712365D01*
X115031078Y-105653692D01*
X115028353Y-105644889D01*
X114953408Y-105408631D01*
X114929868Y-105353709D01*
X114907048Y-105298342D01*
X114902664Y-105290236D01*
X114858208Y-105209371D01*
X114944424Y-105123155D01*
X115041277Y-104978205D01*
X115107990Y-104817145D01*
X115142000Y-104646165D01*
X115142000Y-104471835D01*
X115107990Y-104300855D01*
X115049232Y-104159000D01*
X115107990Y-104017145D01*
X115142000Y-103846165D01*
X115142000Y-103671835D01*
X115107990Y-103500855D01*
X115049232Y-103359000D01*
X115107990Y-103217145D01*
X115142000Y-103046165D01*
X115142000Y-102871835D01*
X115107990Y-102700855D01*
X115041277Y-102539795D01*
X114944424Y-102394845D01*
X114858020Y-102308441D01*
X114913919Y-102203309D01*
X114936707Y-102148021D01*
X114960279Y-102093025D01*
X114963003Y-102084222D01*
X115034643Y-101846941D01*
X115046264Y-101788254D01*
X115058700Y-101729748D01*
X115059663Y-101720583D01*
X115083850Y-101473905D01*
X115083850Y-101473902D01*
X115087000Y-101441919D01*
X115087000Y-81438081D01*
X115083726Y-81404839D01*
X115083726Y-81388363D01*
X115082763Y-81379198D01*
X115055134Y-81132882D01*
X115042695Y-81074365D01*
X115031078Y-81015692D01*
X115028353Y-81006889D01*
X114953408Y-80770631D01*
X114929868Y-80715709D01*
X114907048Y-80660342D01*
X114902664Y-80652236D01*
X114858208Y-80571371D01*
X114944424Y-80485155D01*
X115041277Y-80340205D01*
X115107990Y-80179145D01*
X115142000Y-80008165D01*
X115142000Y-79833835D01*
X115107990Y-79662855D01*
X115049232Y-79521000D01*
X115107990Y-79379145D01*
X115142000Y-79208165D01*
X115142000Y-79096890D01*
X116033524Y-79096890D01*
X116078175Y-79244099D01*
X116203359Y-79506920D01*
X116377412Y-79740269D01*
X116593645Y-79935178D01*
X116719255Y-80010000D01*
X116593645Y-80084822D01*
X116377412Y-80279731D01*
X116203359Y-80513080D01*
X116078175Y-80775901D01*
X116033524Y-80923110D01*
X116154845Y-81153000D01*
X117348000Y-81153000D01*
X117348000Y-78867000D01*
X117602000Y-78867000D01*
X117602000Y-81153000D01*
X118795155Y-81153000D01*
X118916476Y-80923110D01*
X118871825Y-80775901D01*
X118746641Y-80513080D01*
X118572588Y-80279731D01*
X118356355Y-80084822D01*
X118230745Y-80010000D01*
X118356355Y-79935178D01*
X118572588Y-79740269D01*
X118746641Y-79506920D01*
X118871825Y-79244099D01*
X118916476Y-79096890D01*
X118912333Y-79089039D01*
X121798096Y-79089039D01*
X121838754Y-79223087D01*
X121958963Y-79477420D01*
X122126481Y-79703414D01*
X122334869Y-79892385D01*
X122576119Y-80037070D01*
X122840960Y-80131909D01*
X123063000Y-80010624D01*
X123063000Y-78867000D01*
X123317000Y-78867000D01*
X123317000Y-80010624D01*
X123539040Y-80131909D01*
X123803881Y-80037070D01*
X124045131Y-79892385D01*
X124253519Y-79703414D01*
X124421037Y-79477420D01*
X124541246Y-79223087D01*
X124581904Y-79089039D01*
X124459915Y-78867000D01*
X123317000Y-78867000D01*
X123063000Y-78867000D01*
X121920085Y-78867000D01*
X121798096Y-79089039D01*
X118912333Y-79089039D01*
X118795155Y-78867000D01*
X117602000Y-78867000D01*
X117348000Y-78867000D01*
X116154845Y-78867000D01*
X116033524Y-79096890D01*
X115142000Y-79096890D01*
X115142000Y-79033835D01*
X115107990Y-78862855D01*
X115049232Y-78721000D01*
X115107990Y-78579145D01*
X115142000Y-78408165D01*
X115142000Y-78383110D01*
X116033524Y-78383110D01*
X116154845Y-78613000D01*
X117348000Y-78613000D01*
X117348000Y-77419186D01*
X117602000Y-77419186D01*
X117602000Y-78613000D01*
X118795155Y-78613000D01*
X118912332Y-78390961D01*
X121798096Y-78390961D01*
X121920085Y-78613000D01*
X123063000Y-78613000D01*
X123063000Y-77469376D01*
X123317000Y-77469376D01*
X123317000Y-78613000D01*
X124459915Y-78613000D01*
X124581904Y-78390961D01*
X124541246Y-78256913D01*
X124421037Y-78002580D01*
X124253519Y-77776586D01*
X124045131Y-77587615D01*
X123803881Y-77442930D01*
X123539040Y-77348091D01*
X123317000Y-77469376D01*
X123063000Y-77469376D01*
X122840960Y-77348091D01*
X122576119Y-77442930D01*
X122334869Y-77587615D01*
X122126481Y-77776586D01*
X121958963Y-78002580D01*
X121838754Y-78256913D01*
X121798096Y-78390961D01*
X118912332Y-78390961D01*
X118916476Y-78383110D01*
X118871825Y-78235901D01*
X118746641Y-77973080D01*
X118572588Y-77739731D01*
X118356355Y-77544822D01*
X118106252Y-77395843D01*
X117831891Y-77298519D01*
X117602000Y-77419186D01*
X117348000Y-77419186D01*
X117118109Y-77298519D01*
X116843748Y-77395843D01*
X116593645Y-77544822D01*
X116377412Y-77739731D01*
X116203359Y-77973080D01*
X116078175Y-78235901D01*
X116033524Y-78383110D01*
X115142000Y-78383110D01*
X115142000Y-78233835D01*
X115107990Y-78062855D01*
X115041277Y-77901795D01*
X114944424Y-77756845D01*
X114858020Y-77670441D01*
X114913919Y-77565309D01*
X114936707Y-77510021D01*
X114960279Y-77455025D01*
X114963003Y-77446222D01*
X115034643Y-77208941D01*
X115046264Y-77150254D01*
X115058700Y-77091748D01*
X115059663Y-77082583D01*
X115083850Y-76835905D01*
X115083850Y-76835902D01*
X115087000Y-76803919D01*
X115087000Y-74454279D01*
X115101722Y-74304131D01*
X115135953Y-74190754D01*
X115191555Y-74086181D01*
X115266407Y-73994404D01*
X115357664Y-73918909D01*
X115461844Y-73862581D01*
X115574976Y-73827560D01*
X115723022Y-73812000D01*
X138270721Y-73812000D01*
X138420869Y-73826722D01*
%TA.AperFunction,Conductor*%
D26*
G36*
X138420869Y-73826722D02*
G01*
X138534246Y-73860953D01*
X138638819Y-73916555D01*
X138730596Y-73991407D01*
X138806091Y-74082664D01*
X138862419Y-74186844D01*
X138897440Y-74299976D01*
X138913001Y-74448031D01*
X138913000Y-161892721D01*
X138898278Y-162042869D01*
X138864047Y-162156246D01*
X138808446Y-162260817D01*
X138733594Y-162352595D01*
X138642335Y-162428091D01*
X138538160Y-162484419D01*
X138425024Y-162519440D01*
X138276979Y-162535000D01*
X115729279Y-162535000D01*
X115579131Y-162520278D01*
X115465754Y-162486047D01*
X115361183Y-162430446D01*
X115269405Y-162355594D01*
X115193909Y-162264335D01*
X115137581Y-162160160D01*
X115102560Y-162047024D01*
X115087000Y-161898979D01*
X115087000Y-160377702D01*
X116066903Y-160377702D01*
X116138486Y-160621671D01*
X116393996Y-160742571D01*
X116668184Y-160811300D01*
X116950512Y-160825217D01*
X117230130Y-160783787D01*
X117496292Y-160688603D01*
X117621514Y-160621671D01*
X117693097Y-160377702D01*
X116880000Y-159564605D01*
X116066903Y-160377702D01*
X115087000Y-160377702D01*
X115087000Y-160178081D01*
X115083726Y-160144839D01*
X115083726Y-160128363D01*
X115082763Y-160119198D01*
X115055134Y-159872882D01*
X115042695Y-159814365D01*
X115031078Y-159755692D01*
X115028353Y-159746889D01*
X114953408Y-159510631D01*
X114929868Y-159455709D01*
X114929787Y-159455512D01*
X115439783Y-159455512D01*
X115481213Y-159735130D01*
X115576397Y-160001292D01*
X115643329Y-160126514D01*
X115887298Y-160198097D01*
X116700395Y-159385000D01*
X115887298Y-158571903D01*
X115643329Y-158643486D01*
X115522429Y-158898996D01*
X115453700Y-159173184D01*
X115439783Y-159455512D01*
X114929787Y-159455512D01*
X114907048Y-159400342D01*
X114902664Y-159392236D01*
X114858208Y-159311371D01*
X114944424Y-159225155D01*
X115041277Y-159080205D01*
X115107990Y-158919145D01*
X115142000Y-158748165D01*
X115142000Y-158573835D01*
X115107990Y-158402855D01*
X115103618Y-158392298D01*
X116066903Y-158392298D01*
X116880000Y-159205395D01*
X117693097Y-158392298D01*
X117621514Y-158148329D01*
X117366004Y-158027429D01*
X117091816Y-157958700D01*
X116809488Y-157944783D01*
X116529870Y-157986213D01*
X116263708Y-158081397D01*
X116138486Y-158148329D01*
X116066903Y-158392298D01*
X115103618Y-158392298D01*
X115049232Y-158261000D01*
X115107990Y-158119145D01*
X115142000Y-157948165D01*
X115142000Y-157773835D01*
X115107990Y-157602855D01*
X115049232Y-157461000D01*
X115107990Y-157319145D01*
X115142000Y-157148165D01*
X115142000Y-156973835D01*
X115107990Y-156802855D01*
X115041277Y-156641795D01*
X114944424Y-156496845D01*
X114858020Y-156410441D01*
X114913919Y-156305309D01*
X114936707Y-156250021D01*
X114960279Y-156195025D01*
X114963003Y-156186222D01*
X115034643Y-155948941D01*
X115046264Y-155890254D01*
X115058700Y-155831748D01*
X115059663Y-155822583D01*
X115083850Y-155575905D01*
X115083850Y-155575902D01*
X115087000Y-155543919D01*
X115087000Y-148369872D01*
X115875000Y-148369872D01*
X115875000Y-148810128D01*
X115960890Y-149241925D01*
X116129369Y-149648669D01*
X116373962Y-150014729D01*
X116685271Y-150326038D01*
X117051331Y-150570631D01*
X117458075Y-150739110D01*
X117889872Y-150825000D01*
X118330128Y-150825000D01*
X118761925Y-150739110D01*
X119168669Y-150570631D01*
X119534729Y-150326038D01*
X119846038Y-150014729D01*
X120090631Y-149648669D01*
X120259110Y-149241925D01*
X120345000Y-148810128D01*
X120345000Y-148369872D01*
X120259110Y-147938075D01*
X120090631Y-147531331D01*
X119846038Y-147165271D01*
X119534729Y-146853962D01*
X119168669Y-146609369D01*
X118761925Y-146440890D01*
X118330128Y-146355000D01*
X117889872Y-146355000D01*
X117458075Y-146440890D01*
X117051331Y-146609369D01*
X116685271Y-146853962D01*
X116373962Y-147165271D01*
X116129369Y-147531331D01*
X115960890Y-147938075D01*
X115875000Y-148369872D01*
X115087000Y-148369872D01*
X115087000Y-133254081D01*
X115083726Y-133220839D01*
X115083726Y-133204363D01*
X115082763Y-133195198D01*
X115055134Y-132948882D01*
X115042695Y-132890365D01*
X115031078Y-132831692D01*
X115028353Y-132822889D01*
X114953408Y-132586631D01*
X114929868Y-132531709D01*
X114907048Y-132476342D01*
X114902664Y-132468236D01*
X114858208Y-132387371D01*
X114944424Y-132301155D01*
X115041277Y-132156205D01*
X115107990Y-131995145D01*
X115142000Y-131824165D01*
X115142000Y-131649835D01*
X115107990Y-131478855D01*
X115049232Y-131337000D01*
X115107990Y-131195145D01*
X115142000Y-131024165D01*
X115142000Y-130849835D01*
X115107990Y-130678855D01*
X115049232Y-130537000D01*
X115107990Y-130395145D01*
X115142000Y-130224165D01*
X115142000Y-130049835D01*
X115107990Y-129878855D01*
X115041277Y-129717795D01*
X114944424Y-129572845D01*
X114858020Y-129486441D01*
X114913919Y-129381309D01*
X114936707Y-129326021D01*
X114960279Y-129271025D01*
X114963003Y-129262222D01*
X115034643Y-129024941D01*
X115046264Y-128966254D01*
X115058700Y-128907748D01*
X115059663Y-128898583D01*
X115072891Y-128763665D01*
X115405000Y-128763665D01*
X115405000Y-129046335D01*
X115460147Y-129323574D01*
X115568320Y-129584727D01*
X115725363Y-129819759D01*
X115925241Y-130019637D01*
X116052600Y-130104735D01*
X116052600Y-130136337D01*
X116048792Y-130175000D01*
X116052600Y-130213663D01*
X116052600Y-130213672D01*
X116063994Y-130329356D01*
X116109018Y-130477782D01*
X116182134Y-130614571D01*
X116280531Y-130734469D01*
X116310578Y-130759128D01*
X119244883Y-133693435D01*
X119215000Y-133843665D01*
X119215000Y-134126335D01*
X119270147Y-134403574D01*
X119378320Y-134664727D01*
X119535363Y-134899759D01*
X119735241Y-135099637D01*
X119967759Y-135255000D01*
X119735241Y-135410363D01*
X119535363Y-135610241D01*
X119378320Y-135845273D01*
X119270147Y-136106426D01*
X119215000Y-136383665D01*
X119215000Y-136666335D01*
X119244883Y-136816566D01*
X117932923Y-138128527D01*
X117754759Y-137950363D01*
X117519727Y-137793320D01*
X117258574Y-137685147D01*
X116981335Y-137630000D01*
X116698665Y-137630000D01*
X116421426Y-137685147D01*
X116160273Y-137793320D01*
X115925241Y-137950363D01*
X115725363Y-138150241D01*
X115568320Y-138385273D01*
X115460147Y-138646426D01*
X115405000Y-138923665D01*
X115405000Y-139206335D01*
X115460147Y-139483574D01*
X115568320Y-139744727D01*
X115725363Y-139979759D01*
X115925241Y-140179637D01*
X116160273Y-140336680D01*
X116421426Y-140444853D01*
X116698665Y-140500000D01*
X116981335Y-140500000D01*
X117258574Y-140444853D01*
X117519727Y-140336680D01*
X117754759Y-140179637D01*
X117954637Y-139979759D01*
X118039735Y-139852400D01*
X118071337Y-139852400D01*
X118110000Y-139856208D01*
X118148663Y-139852400D01*
X118148673Y-139852400D01*
X118264357Y-139841006D01*
X118412783Y-139795982D01*
X118549572Y-139722866D01*
X118669469Y-139624469D01*
X118694128Y-139594422D01*
X119215000Y-139073550D01*
X119215000Y-139206335D01*
X119270147Y-139483574D01*
X119378320Y-139744727D01*
X119380001Y-139747242D01*
X119380000Y-141557758D01*
X119378320Y-141560273D01*
X119270147Y-141821426D01*
X119215000Y-142098665D01*
X119215000Y-142381335D01*
X119270147Y-142658574D01*
X119378320Y-142919727D01*
X119535363Y-143154759D01*
X119735241Y-143354637D01*
X119970273Y-143511680D01*
X120231426Y-143619853D01*
X120234393Y-143620443D01*
X121920001Y-145306052D01*
X121920000Y-157938891D01*
X121831595Y-158046613D01*
X121795041Y-158115000D01*
X120608259Y-158115000D01*
X120534494Y-158054463D01*
X120424180Y-157995498D01*
X120304482Y-157959188D01*
X120180000Y-157946928D01*
X118580000Y-157946928D01*
X118455518Y-157959188D01*
X118335820Y-157995498D01*
X118225506Y-158054463D01*
X118128815Y-158133815D01*
X118049463Y-158230506D01*
X117990498Y-158340820D01*
X117954188Y-158460518D01*
X117941928Y-158585000D01*
X117941928Y-158592215D01*
X117872702Y-158571903D01*
X117059605Y-159385000D01*
X117872702Y-160198097D01*
X117941928Y-160177785D01*
X117941928Y-160185000D01*
X117954188Y-160309482D01*
X117990498Y-160429180D01*
X118049463Y-160539494D01*
X118128815Y-160636185D01*
X118225506Y-160715537D01*
X118335820Y-160774502D01*
X118455518Y-160810812D01*
X118580000Y-160823072D01*
X120180000Y-160823072D01*
X120304482Y-160810812D01*
X120424180Y-160774502D01*
X120534494Y-160715537D01*
X120608259Y-160655000D01*
X121795041Y-160655000D01*
X121831595Y-160723387D01*
X121942038Y-160857962D01*
X122076613Y-160968405D01*
X122230149Y-161050472D01*
X122396745Y-161101008D01*
X122569999Y-161118072D01*
X123810001Y-161118072D01*
X123983255Y-161101008D01*
X124149851Y-161050472D01*
X124303387Y-160968405D01*
X124437962Y-160857962D01*
X124548405Y-160723387D01*
X124606655Y-160614410D01*
X124763674Y-160773306D01*
X125009191Y-160939474D01*
X125282409Y-161054551D01*
X125369969Y-161071302D01*
X125603000Y-160950246D01*
X125603000Y-159512000D01*
X125857000Y-159512000D01*
X125857000Y-160950246D01*
X126090031Y-161071302D01*
X126177591Y-161054551D01*
X126450809Y-160939474D01*
X126696326Y-160773306D01*
X126904708Y-160562433D01*
X127000000Y-160417968D01*
X127095292Y-160562433D01*
X127303674Y-160773306D01*
X127549191Y-160939474D01*
X127822409Y-161054551D01*
X127909969Y-161071302D01*
X128143000Y-160950246D01*
X128143000Y-159512000D01*
X125857000Y-159512000D01*
X125603000Y-159512000D01*
X125583000Y-159512000D01*
X125583000Y-159258000D01*
X125603000Y-159258000D01*
X125603000Y-157819754D01*
X125857000Y-157819754D01*
X125857000Y-159258000D01*
X128143000Y-159258000D01*
X128143000Y-157819754D01*
X127909969Y-157698698D01*
X127822409Y-157715449D01*
X127549191Y-157830526D01*
X127303674Y-157996694D01*
X127095292Y-158207567D01*
X127000000Y-158352032D01*
X126904708Y-158207567D01*
X126696326Y-157996694D01*
X126450809Y-157830526D01*
X126177591Y-157715449D01*
X126090031Y-157698698D01*
X125857000Y-157819754D01*
X125603000Y-157819754D01*
X125369969Y-157698698D01*
X125282409Y-157715449D01*
X125009191Y-157830526D01*
X124763674Y-157996694D01*
X124606655Y-158155590D01*
X124548405Y-158046613D01*
X124460000Y-157938891D01*
X124460000Y-151615772D01*
X129540001Y-156695775D01*
X129540000Y-158343363D01*
X129537440Y-158348152D01*
X129444708Y-158207567D01*
X129236326Y-157996694D01*
X128990809Y-157830526D01*
X128717591Y-157715449D01*
X128630031Y-157698698D01*
X128397000Y-157819754D01*
X128397000Y-159258000D01*
X128417000Y-159258000D01*
X128417000Y-159512000D01*
X128397000Y-159512000D01*
X128397000Y-160950246D01*
X128630031Y-161071302D01*
X128717591Y-161054551D01*
X128990809Y-160939474D01*
X129236326Y-160773306D01*
X129444708Y-160562433D01*
X129537440Y-160421848D01*
X129552583Y-160450179D01*
X129740655Y-160679345D01*
X129969822Y-160867417D01*
X130231276Y-161007166D01*
X130514969Y-161093224D01*
X130810000Y-161122282D01*
X131105032Y-161093224D01*
X131388725Y-161007166D01*
X131650179Y-160867417D01*
X131879345Y-160679345D01*
X131899324Y-160655000D01*
X133977759Y-160655000D01*
X133980273Y-160656680D01*
X134241426Y-160764853D01*
X134518665Y-160820000D01*
X134801335Y-160820000D01*
X135078574Y-160764853D01*
X135339727Y-160656680D01*
X135574759Y-160499637D01*
X135741339Y-160333057D01*
X135770498Y-160429180D01*
X135829463Y-160539494D01*
X135908815Y-160636185D01*
X136005506Y-160715537D01*
X136115820Y-160774502D01*
X136235518Y-160810812D01*
X136360000Y-160823072D01*
X136874250Y-160820000D01*
X137033000Y-160661250D01*
X137033000Y-159512000D01*
X137287000Y-159512000D01*
X137287000Y-160661250D01*
X137445750Y-160820000D01*
X137960000Y-160823072D01*
X138084482Y-160810812D01*
X138204180Y-160774502D01*
X138314494Y-160715537D01*
X138411185Y-160636185D01*
X138490537Y-160539494D01*
X138549502Y-160429180D01*
X138585812Y-160309482D01*
X138598072Y-160185000D01*
X138595000Y-159670750D01*
X138436250Y-159512000D01*
X137287000Y-159512000D01*
X137033000Y-159512000D01*
X137013000Y-159512000D01*
X137013000Y-159258000D01*
X137033000Y-159258000D01*
X137033000Y-158108750D01*
X137287000Y-158108750D01*
X137287000Y-159258000D01*
X138436250Y-159258000D01*
X138595000Y-159099250D01*
X138598072Y-158585000D01*
X138585812Y-158460518D01*
X138549502Y-158340820D01*
X138490537Y-158230506D01*
X138411185Y-158133815D01*
X138314494Y-158054463D01*
X138204180Y-157995498D01*
X138084482Y-157959188D01*
X137960000Y-157946928D01*
X137445750Y-157950000D01*
X137287000Y-158108750D01*
X137033000Y-158108750D01*
X136874250Y-157950000D01*
X136760361Y-157949320D01*
X138432922Y-156276760D01*
X138481371Y-156236999D01*
X138521133Y-156188549D01*
X138521136Y-156188546D01*
X138572582Y-156125858D01*
X138640076Y-156043617D01*
X138758004Y-155822988D01*
X138830624Y-155583592D01*
X138849001Y-155397009D01*
X138849001Y-155397008D01*
X138855145Y-155334629D01*
X138849001Y-155272249D01*
X138849001Y-103391659D01*
X138855145Y-103329279D01*
X138830624Y-103080316D01*
X138758004Y-102840920D01*
X138724908Y-102779002D01*
X138640076Y-102620291D01*
X138554371Y-102515859D01*
X138521136Y-102475362D01*
X138521133Y-102475359D01*
X138481371Y-102426909D01*
X138432920Y-102387146D01*
X136791863Y-100746091D01*
X136752092Y-100697630D01*
X136558710Y-100538925D01*
X136338081Y-100420997D01*
X136098685Y-100348377D01*
X135912102Y-100330000D01*
X135912095Y-100330000D01*
X135849722Y-100323857D01*
X135787349Y-100330000D01*
X134511051Y-100330000D01*
X132715000Y-98533950D01*
X132715000Y-96934872D01*
X133655000Y-96934872D01*
X133655000Y-97375128D01*
X133740890Y-97806925D01*
X133909369Y-98213669D01*
X134153962Y-98579729D01*
X134465271Y-98891038D01*
X134831331Y-99135631D01*
X135238075Y-99304110D01*
X135669872Y-99390000D01*
X136110128Y-99390000D01*
X136541925Y-99304110D01*
X136948669Y-99135631D01*
X137314729Y-98891038D01*
X137626038Y-98579729D01*
X137870631Y-98213669D01*
X138039110Y-97806925D01*
X138125000Y-97375128D01*
X138125000Y-96934872D01*
X138039110Y-96503075D01*
X137870631Y-96096331D01*
X137626038Y-95730271D01*
X137314729Y-95418962D01*
X136948669Y-95174369D01*
X136541925Y-95005890D01*
X136110128Y-94920000D01*
X135669872Y-94920000D01*
X135238075Y-95005890D01*
X134831331Y-95174369D01*
X134465271Y-95418962D01*
X134153962Y-95730271D01*
X133909369Y-96096331D01*
X133740890Y-96503075D01*
X133655000Y-96934872D01*
X132715000Y-96934872D01*
X132715000Y-95776050D01*
X136527915Y-91963136D01*
X136576371Y-91923369D01*
X136735076Y-91729987D01*
X136853004Y-91509358D01*
X136925624Y-91269962D01*
X136944001Y-91083379D01*
X136950145Y-91020999D01*
X136944001Y-90958619D01*
X136944001Y-86841373D01*
X136950144Y-86779000D01*
X136944001Y-86716627D01*
X136944001Y-86716621D01*
X136925624Y-86530038D01*
X136921173Y-86515363D01*
X136874553Y-86361680D01*
X136853004Y-86290642D01*
X136735076Y-86070013D01*
X136576371Y-85876631D01*
X136527916Y-85836865D01*
X135365443Y-84674393D01*
X135364853Y-84671426D01*
X135256680Y-84410273D01*
X135099637Y-84175241D01*
X134899759Y-83975363D01*
X134664727Y-83818320D01*
X134403574Y-83710147D01*
X134126335Y-83655000D01*
X133843665Y-83655000D01*
X133566426Y-83710147D01*
X133305273Y-83818320D01*
X133302759Y-83820000D01*
X131492241Y-83820000D01*
X131489727Y-83818320D01*
X131228574Y-83710147D01*
X130951335Y-83655000D01*
X130668665Y-83655000D01*
X130391426Y-83710147D01*
X130130273Y-83818320D01*
X129895241Y-83975363D01*
X129695363Y-84175241D01*
X129538320Y-84410273D01*
X129430147Y-84671426D01*
X129375000Y-84948665D01*
X129375000Y-85231335D01*
X129430147Y-85508574D01*
X129538320Y-85769727D01*
X129695363Y-86004759D01*
X129895241Y-86204637D01*
X130127759Y-86360000D01*
X129895241Y-86515363D01*
X129695363Y-86715241D01*
X129538320Y-86950273D01*
X129430147Y-87211426D01*
X129375000Y-87488665D01*
X129375000Y-87771335D01*
X129430147Y-88048574D01*
X129538320Y-88309727D01*
X129695363Y-88544759D01*
X129895241Y-88744637D01*
X130127759Y-88900000D01*
X129895241Y-89055363D01*
X129695363Y-89255241D01*
X129538320Y-89490273D01*
X129430147Y-89751426D01*
X129375000Y-90028665D01*
X129375000Y-90311335D01*
X129430147Y-90588574D01*
X129538320Y-90849727D01*
X129695363Y-91084759D01*
X129893961Y-91283357D01*
X129885518Y-91284188D01*
X129765820Y-91320498D01*
X129655506Y-91379463D01*
X129558815Y-91458815D01*
X129479463Y-91555506D01*
X129420498Y-91665820D01*
X129384188Y-91785518D01*
X129371928Y-91910000D01*
X129371928Y-93510000D01*
X129384188Y-93634482D01*
X129420498Y-93754180D01*
X129479463Y-93864494D01*
X129558815Y-93961185D01*
X129655506Y-94040537D01*
X129765820Y-94099502D01*
X129885518Y-94135812D01*
X130010000Y-94148072D01*
X130750878Y-94148072D01*
X130591091Y-94307859D01*
X130542630Y-94347630D01*
X130383925Y-94541013D01*
X130265997Y-94761642D01*
X130226363Y-94892298D01*
X130198961Y-94982631D01*
X130193377Y-95001038D01*
X130175000Y-95187621D01*
X130175000Y-95187627D01*
X130168857Y-95250000D01*
X130175000Y-95312373D01*
X130175001Y-98997617D01*
X130168857Y-99060000D01*
X130193377Y-99308963D01*
X130254551Y-99510624D01*
X130265998Y-99548359D01*
X130383926Y-99768988D01*
X130542631Y-99962370D01*
X130591086Y-100002136D01*
X130699396Y-100110446D01*
X130532944Y-100041499D01*
X130299175Y-99995000D01*
X130083552Y-99995000D01*
X126966254Y-96877702D01*
X127376903Y-96877702D01*
X127448486Y-97121671D01*
X127703996Y-97242571D01*
X127978184Y-97311300D01*
X128260512Y-97325217D01*
X128540130Y-97283787D01*
X128806292Y-97188603D01*
X128931514Y-97121671D01*
X129003097Y-96877702D01*
X128190000Y-96064605D01*
X127376903Y-96877702D01*
X126966254Y-96877702D01*
X126044063Y-95955512D01*
X126749783Y-95955512D01*
X126791213Y-96235130D01*
X126886397Y-96501292D01*
X126953329Y-96626514D01*
X127197298Y-96698097D01*
X128010395Y-95885000D01*
X128369605Y-95885000D01*
X129182702Y-96698097D01*
X129426671Y-96626514D01*
X129547571Y-96371004D01*
X129616300Y-96096816D01*
X129630217Y-95814488D01*
X129588787Y-95534870D01*
X129493603Y-95268708D01*
X129426671Y-95143486D01*
X129182702Y-95071903D01*
X128369605Y-95885000D01*
X128010395Y-95885000D01*
X127197298Y-95071903D01*
X126953329Y-95143486D01*
X126832429Y-95398996D01*
X126763700Y-95673184D01*
X126749783Y-95955512D01*
X126044063Y-95955512D01*
X125183801Y-95095251D01*
X125183801Y-94892298D01*
X127376903Y-94892298D01*
X128190000Y-95705395D01*
X129003097Y-94892298D01*
X128931514Y-94648329D01*
X128676004Y-94527429D01*
X128401816Y-94458700D01*
X128119488Y-94444783D01*
X127839870Y-94486213D01*
X127573708Y-94581397D01*
X127448486Y-94648329D01*
X127376903Y-94892298D01*
X125183801Y-94892298D01*
X125183801Y-91415066D01*
X125187609Y-91376401D01*
X125183801Y-91337736D01*
X125183801Y-91337728D01*
X125172407Y-91222044D01*
X125127383Y-91073618D01*
X125054267Y-90936829D01*
X125024848Y-90900982D01*
X124980523Y-90846971D01*
X124980520Y-90846968D01*
X124955870Y-90816932D01*
X124925834Y-90792282D01*
X124595117Y-90461566D01*
X124625000Y-90311335D01*
X124625000Y-90028665D01*
X124569853Y-89751426D01*
X124461680Y-89490273D01*
X124304637Y-89255241D01*
X124104759Y-89055363D01*
X123977400Y-88970265D01*
X123977400Y-88829735D01*
X124104759Y-88744637D01*
X124304637Y-88544759D01*
X124461680Y-88309727D01*
X124569853Y-88048574D01*
X124625000Y-87771335D01*
X124625000Y-87488665D01*
X124569853Y-87211426D01*
X124461680Y-86950273D01*
X124304637Y-86715241D01*
X124104759Y-86515363D01*
X123872241Y-86360000D01*
X124104759Y-86204637D01*
X124304637Y-86004759D01*
X124389735Y-85877400D01*
X126961337Y-85877400D01*
X127000000Y-85881208D01*
X127038663Y-85877400D01*
X127038673Y-85877400D01*
X127154357Y-85866006D01*
X127302783Y-85820982D01*
X127439572Y-85747866D01*
X127559469Y-85649469D01*
X127584128Y-85619422D01*
X130939512Y-82264039D01*
X131958096Y-82264039D01*
X131998754Y-82398087D01*
X132118963Y-82652420D01*
X132286481Y-82878414D01*
X132494869Y-83067385D01*
X132736119Y-83212070D01*
X133000960Y-83306909D01*
X133223000Y-83185624D01*
X133223000Y-82042000D01*
X133477000Y-82042000D01*
X133477000Y-83185624D01*
X133699040Y-83306909D01*
X133963881Y-83212070D01*
X134205131Y-83067385D01*
X134413519Y-82878414D01*
X134581037Y-82652420D01*
X134701246Y-82398087D01*
X134741904Y-82264039D01*
X134619915Y-82042000D01*
X133477000Y-82042000D01*
X133223000Y-82042000D01*
X132080085Y-82042000D01*
X131958096Y-82264039D01*
X130939512Y-82264039D01*
X131637590Y-81565961D01*
X131958096Y-81565961D01*
X132080085Y-81788000D01*
X133223000Y-81788000D01*
X133223000Y-80644376D01*
X133477000Y-80644376D01*
X133477000Y-81788000D01*
X134619915Y-81788000D01*
X134741904Y-81565961D01*
X134701246Y-81431913D01*
X134581037Y-81177580D01*
X134413519Y-80951586D01*
X134205131Y-80762615D01*
X133963881Y-80617930D01*
X133699040Y-80523091D01*
X133477000Y-80644376D01*
X133223000Y-80644376D01*
X133000960Y-80523091D01*
X132736119Y-80617930D01*
X132494869Y-80762615D01*
X132286481Y-80951586D01*
X132118963Y-81177580D01*
X131998754Y-81431913D01*
X131958096Y-81565961D01*
X131637590Y-81565961D01*
X133058435Y-80145117D01*
X133208665Y-80175000D01*
X133491335Y-80175000D01*
X133768574Y-80119853D01*
X134029727Y-80011680D01*
X134264759Y-79854637D01*
X134464637Y-79654759D01*
X134621680Y-79419727D01*
X134729853Y-79158574D01*
X134785000Y-78881335D01*
X134785000Y-78598665D01*
X134729853Y-78321426D01*
X134621680Y-78060273D01*
X134464637Y-77825241D01*
X134264759Y-77625363D01*
X134029727Y-77468320D01*
X133768574Y-77360147D01*
X133491335Y-77305000D01*
X133208665Y-77305000D01*
X132931426Y-77360147D01*
X132670273Y-77468320D01*
X132435241Y-77625363D01*
X132235363Y-77825241D01*
X132078320Y-78060273D01*
X131970147Y-78321426D01*
X131915000Y-78598665D01*
X131915000Y-78881335D01*
X131944883Y-79031565D01*
X126673850Y-84302600D01*
X124389735Y-84302600D01*
X124304637Y-84175241D01*
X124104759Y-83975363D01*
X123869727Y-83818320D01*
X123608574Y-83710147D01*
X123331335Y-83655000D01*
X123048665Y-83655000D01*
X122771426Y-83710147D01*
X122510273Y-83818320D01*
X122275241Y-83975363D01*
X122075363Y-84175241D01*
X121918320Y-84410273D01*
X121810147Y-84671426D01*
X121755000Y-84948665D01*
X121755000Y-85231335D01*
X121810147Y-85508574D01*
X121918320Y-85769727D01*
X122075363Y-86004759D01*
X122275241Y-86204637D01*
X122507759Y-86360000D01*
X122275241Y-86515363D01*
X122075363Y-86715241D01*
X121918320Y-86950273D01*
X121810147Y-87211426D01*
X121755000Y-87488665D01*
X121755000Y-87771335D01*
X121810147Y-88048574D01*
X121918320Y-88309727D01*
X122075363Y-88544759D01*
X122275241Y-88744637D01*
X122402600Y-88829736D01*
X122402601Y-88970264D01*
X122275241Y-89055363D01*
X122075363Y-89255241D01*
X121918320Y-89490273D01*
X121810147Y-89751426D01*
X121755000Y-90028665D01*
X121755000Y-90311335D01*
X121810147Y-90588574D01*
X121918320Y-90849727D01*
X122075363Y-91084759D01*
X122275241Y-91284637D01*
X122507759Y-91440000D01*
X121811052Y-91440000D01*
X118963072Y-88592022D01*
X118963072Y-88050000D01*
X118950812Y-87925518D01*
X118914502Y-87805820D01*
X118855537Y-87695506D01*
X118776185Y-87598815D01*
X118679494Y-87519463D01*
X118569180Y-87460498D01*
X118496620Y-87438487D01*
X118628475Y-87306632D01*
X118733109Y-87150037D01*
X118745000Y-87151208D01*
X118783663Y-87147400D01*
X118783673Y-87147400D01*
X118899357Y-87136006D01*
X119047783Y-87090982D01*
X119184572Y-87017866D01*
X119304469Y-86919469D01*
X119329128Y-86889422D01*
X122898435Y-83320117D01*
X123048665Y-83350000D01*
X123331335Y-83350000D01*
X123608574Y-83294853D01*
X123869727Y-83186680D01*
X124104759Y-83029637D01*
X124304637Y-82829759D01*
X124461680Y-82594727D01*
X124569853Y-82333574D01*
X124625000Y-82056335D01*
X124625000Y-81773665D01*
X124569853Y-81496426D01*
X124461680Y-81235273D01*
X124304637Y-81000241D01*
X124104759Y-80800363D01*
X123869727Y-80643320D01*
X123608574Y-80535147D01*
X123331335Y-80480000D01*
X123048665Y-80480000D01*
X122771426Y-80535147D01*
X122510273Y-80643320D01*
X122275241Y-80800363D01*
X122075363Y-81000241D01*
X121918320Y-81235273D01*
X121810147Y-81496426D01*
X121755000Y-81773665D01*
X121755000Y-82056335D01*
X121784883Y-82206565D01*
X118603278Y-85388171D01*
X118421632Y-85206525D01*
X118247240Y-85090000D01*
X118421632Y-84973475D01*
X118628475Y-84766632D01*
X118790990Y-84523411D01*
X118902932Y-84253158D01*
X118960000Y-83966260D01*
X118960000Y-83673740D01*
X118902932Y-83386842D01*
X118790990Y-83116589D01*
X118628475Y-82873368D01*
X118421632Y-82666525D01*
X118239466Y-82544805D01*
X118356355Y-82475178D01*
X118572588Y-82280269D01*
X118746641Y-82046920D01*
X118871825Y-81784099D01*
X118916476Y-81636890D01*
X118795155Y-81407000D01*
X117602000Y-81407000D01*
X117602000Y-81427000D01*
X117348000Y-81427000D01*
X117348000Y-81407000D01*
X116154845Y-81407000D01*
X116033524Y-81636890D01*
X116078175Y-81784099D01*
X116203359Y-82046920D01*
X116377412Y-82280269D01*
X116593645Y-82475178D01*
X116710534Y-82544805D01*
X116528368Y-82666525D01*
X116321525Y-82873368D01*
X116159010Y-83116589D01*
X116047068Y-83386842D01*
X115990000Y-83673740D01*
X115990000Y-83966260D01*
X116047068Y-84253158D01*
X116159010Y-84523411D01*
X116321525Y-84766632D01*
X116528368Y-84973475D01*
X116702760Y-85090000D01*
X116528368Y-85206525D01*
X116321525Y-85413368D01*
X116159010Y-85656589D01*
X116047068Y-85926842D01*
X115990000Y-86213740D01*
X115990000Y-86506260D01*
X116047068Y-86793158D01*
X116159010Y-87063411D01*
X116321525Y-87306632D01*
X116453380Y-87438487D01*
X116380820Y-87460498D01*
X116270506Y-87519463D01*
X116173815Y-87598815D01*
X116094463Y-87695506D01*
X116035498Y-87805820D01*
X115999188Y-87925518D01*
X115986928Y-88050000D01*
X115986928Y-89750000D01*
X115999188Y-89874482D01*
X116035498Y-89994180D01*
X116094463Y-90104494D01*
X116173815Y-90201185D01*
X116270506Y-90280537D01*
X116380820Y-90339502D01*
X116500518Y-90375812D01*
X116625000Y-90388072D01*
X117167022Y-90388072D01*
X118172751Y-91393801D01*
X118065273Y-91438320D01*
X117830241Y-91595363D01*
X117630363Y-91795241D01*
X117473320Y-92030273D01*
X117365147Y-92291426D01*
X117310000Y-92568665D01*
X117310000Y-92851335D01*
X117365147Y-93128574D01*
X117473320Y-93389727D01*
X117630363Y-93624759D01*
X117830241Y-93824637D01*
X118065273Y-93981680D01*
X118326426Y-94089853D01*
X118603665Y-94145000D01*
X118886335Y-94145000D01*
X119163574Y-94089853D01*
X119424727Y-93981680D01*
X119659759Y-93824637D01*
X119859637Y-93624759D01*
X120016680Y-93389727D01*
X120061198Y-93282250D01*
X120342868Y-93563920D01*
X120382630Y-93612370D01*
X120431080Y-93652132D01*
X120431083Y-93652135D01*
X120481086Y-93693171D01*
X120576012Y-93771075D01*
X120750788Y-93864494D01*
X120796641Y-93889003D01*
X121036037Y-93961623D01*
X121285000Y-93986144D01*
X121347380Y-93980000D01*
X121920001Y-93980000D01*
X121920000Y-95202758D01*
X121918320Y-95205273D01*
X121810147Y-95466426D01*
X121809557Y-95469392D01*
X119962085Y-97316865D01*
X119913630Y-97356631D01*
X119754925Y-97550013D01*
X119636997Y-97770642D01*
X119564376Y-98010038D01*
X119539856Y-98259001D01*
X119546000Y-98321384D01*
X119546000Y-101679352D01*
X119424727Y-101598320D01*
X119163574Y-101490147D01*
X118886335Y-101435000D01*
X118603665Y-101435000D01*
X118326426Y-101490147D01*
X118065273Y-101598320D01*
X117830241Y-101755363D01*
X117630363Y-101955241D01*
X117473320Y-102190273D01*
X117365147Y-102451426D01*
X117310000Y-102728665D01*
X117310000Y-103011335D01*
X117365147Y-103288574D01*
X117473320Y-103549727D01*
X117630363Y-103784759D01*
X117830241Y-103984637D01*
X118065273Y-104141680D01*
X118326426Y-104249853D01*
X118603665Y-104305000D01*
X118886335Y-104305000D01*
X119163574Y-104249853D01*
X119424727Y-104141680D01*
X119546000Y-104060648D01*
X119546000Y-104854352D01*
X119424727Y-104773320D01*
X119163574Y-104665147D01*
X118886335Y-104610000D01*
X118603665Y-104610000D01*
X118326426Y-104665147D01*
X118065273Y-104773320D01*
X117830241Y-104930363D01*
X117630363Y-105130241D01*
X117473320Y-105365273D01*
X117365147Y-105626426D01*
X117310000Y-105903665D01*
X117310000Y-106186335D01*
X117339883Y-106336566D01*
X117009176Y-106667274D01*
X116979130Y-106691932D01*
X116880733Y-106811830D01*
X116807617Y-106948619D01*
X116762593Y-107097045D01*
X116751199Y-107212729D01*
X116751199Y-107212738D01*
X116747391Y-107251401D01*
X116751199Y-107290064D01*
X116751200Y-127163556D01*
X116747391Y-127202229D01*
X116762594Y-127356586D01*
X116796997Y-127470000D01*
X116698665Y-127470000D01*
X116421426Y-127525147D01*
X116160273Y-127633320D01*
X115925241Y-127790363D01*
X115725363Y-127990241D01*
X115568320Y-128225273D01*
X115460147Y-128486426D01*
X115405000Y-128763665D01*
X115072891Y-128763665D01*
X115083850Y-128651905D01*
X115083850Y-128651902D01*
X115087000Y-128619919D01*
X115087000Y-106076081D01*
X115083726Y-106042839D01*
X115083726Y-106026363D01*
X115082763Y-106017198D01*
X115055134Y-105770882D01*
X115042695Y-105712365D01*
X115031078Y-105653692D01*
X115028353Y-105644889D01*
X114953408Y-105408631D01*
X114929868Y-105353709D01*
X114907048Y-105298342D01*
X114902664Y-105290236D01*
X114858208Y-105209371D01*
X114944424Y-105123155D01*
X115041277Y-104978205D01*
X115107990Y-104817145D01*
X115142000Y-104646165D01*
X115142000Y-104471835D01*
X115107990Y-104300855D01*
X115049232Y-104159000D01*
X115107990Y-104017145D01*
X115142000Y-103846165D01*
X115142000Y-103671835D01*
X115107990Y-103500855D01*
X115049232Y-103359000D01*
X115107990Y-103217145D01*
X115142000Y-103046165D01*
X115142000Y-102871835D01*
X115107990Y-102700855D01*
X115041277Y-102539795D01*
X114944424Y-102394845D01*
X114858020Y-102308441D01*
X114913919Y-102203309D01*
X114936707Y-102148021D01*
X114960279Y-102093025D01*
X114963003Y-102084222D01*
X115034643Y-101846941D01*
X115046264Y-101788254D01*
X115058700Y-101729748D01*
X115059663Y-101720583D01*
X115083850Y-101473905D01*
X115083850Y-101473902D01*
X115087000Y-101441919D01*
X115087000Y-81438081D01*
X115083726Y-81404839D01*
X115083726Y-81388363D01*
X115082763Y-81379198D01*
X115055134Y-81132882D01*
X115042695Y-81074365D01*
X115031078Y-81015692D01*
X115028353Y-81006889D01*
X114953408Y-80770631D01*
X114929868Y-80715709D01*
X114907048Y-80660342D01*
X114902664Y-80652236D01*
X114858208Y-80571371D01*
X114944424Y-80485155D01*
X115041277Y-80340205D01*
X115107990Y-80179145D01*
X115142000Y-80008165D01*
X115142000Y-79833835D01*
X115107990Y-79662855D01*
X115049232Y-79521000D01*
X115107990Y-79379145D01*
X115142000Y-79208165D01*
X115142000Y-79096890D01*
X116033524Y-79096890D01*
X116078175Y-79244099D01*
X116203359Y-79506920D01*
X116377412Y-79740269D01*
X116593645Y-79935178D01*
X116719255Y-80010000D01*
X116593645Y-80084822D01*
X116377412Y-80279731D01*
X116203359Y-80513080D01*
X116078175Y-80775901D01*
X116033524Y-80923110D01*
X116154845Y-81153000D01*
X117348000Y-81153000D01*
X117348000Y-78867000D01*
X117602000Y-78867000D01*
X117602000Y-81153000D01*
X118795155Y-81153000D01*
X118916476Y-80923110D01*
X118871825Y-80775901D01*
X118746641Y-80513080D01*
X118572588Y-80279731D01*
X118356355Y-80084822D01*
X118230745Y-80010000D01*
X118356355Y-79935178D01*
X118572588Y-79740269D01*
X118746641Y-79506920D01*
X118871825Y-79244099D01*
X118916476Y-79096890D01*
X118912333Y-79089039D01*
X121798096Y-79089039D01*
X121838754Y-79223087D01*
X121958963Y-79477420D01*
X122126481Y-79703414D01*
X122334869Y-79892385D01*
X122576119Y-80037070D01*
X122840960Y-80131909D01*
X123063000Y-80010624D01*
X123063000Y-78867000D01*
X123317000Y-78867000D01*
X123317000Y-80010624D01*
X123539040Y-80131909D01*
X123803881Y-80037070D01*
X124045131Y-79892385D01*
X124253519Y-79703414D01*
X124421037Y-79477420D01*
X124541246Y-79223087D01*
X124581904Y-79089039D01*
X124459915Y-78867000D01*
X123317000Y-78867000D01*
X123063000Y-78867000D01*
X121920085Y-78867000D01*
X121798096Y-79089039D01*
X118912333Y-79089039D01*
X118795155Y-78867000D01*
X117602000Y-78867000D01*
X117348000Y-78867000D01*
X116154845Y-78867000D01*
X116033524Y-79096890D01*
X115142000Y-79096890D01*
X115142000Y-79033835D01*
X115107990Y-78862855D01*
X115049232Y-78721000D01*
X115107990Y-78579145D01*
X115142000Y-78408165D01*
X115142000Y-78383110D01*
X116033524Y-78383110D01*
X116154845Y-78613000D01*
X117348000Y-78613000D01*
X117348000Y-77419186D01*
X117602000Y-77419186D01*
X117602000Y-78613000D01*
X118795155Y-78613000D01*
X118912332Y-78390961D01*
X121798096Y-78390961D01*
X121920085Y-78613000D01*
X123063000Y-78613000D01*
X123063000Y-77469376D01*
X123317000Y-77469376D01*
X123317000Y-78613000D01*
X124459915Y-78613000D01*
X124581904Y-78390961D01*
X124541246Y-78256913D01*
X124421037Y-78002580D01*
X124253519Y-77776586D01*
X124045131Y-77587615D01*
X123803881Y-77442930D01*
X123539040Y-77348091D01*
X123317000Y-77469376D01*
X123063000Y-77469376D01*
X122840960Y-77348091D01*
X122576119Y-77442930D01*
X122334869Y-77587615D01*
X122126481Y-77776586D01*
X121958963Y-78002580D01*
X121838754Y-78256913D01*
X121798096Y-78390961D01*
X118912332Y-78390961D01*
X118916476Y-78383110D01*
X118871825Y-78235901D01*
X118746641Y-77973080D01*
X118572588Y-77739731D01*
X118356355Y-77544822D01*
X118106252Y-77395843D01*
X117831891Y-77298519D01*
X117602000Y-77419186D01*
X117348000Y-77419186D01*
X117118109Y-77298519D01*
X116843748Y-77395843D01*
X116593645Y-77544822D01*
X116377412Y-77739731D01*
X116203359Y-77973080D01*
X116078175Y-78235901D01*
X116033524Y-78383110D01*
X115142000Y-78383110D01*
X115142000Y-78233835D01*
X115107990Y-78062855D01*
X115041277Y-77901795D01*
X114944424Y-77756845D01*
X114858020Y-77670441D01*
X114913919Y-77565309D01*
X114936707Y-77510021D01*
X114960279Y-77455025D01*
X114963003Y-77446222D01*
X115034643Y-77208941D01*
X115046264Y-77150254D01*
X115058700Y-77091748D01*
X115059663Y-77082583D01*
X115083850Y-76835905D01*
X115083850Y-76835902D01*
X115087000Y-76803919D01*
X115087000Y-74454279D01*
X115101722Y-74304131D01*
X115135953Y-74190754D01*
X115191555Y-74086181D01*
X115266407Y-73994404D01*
X115357664Y-73918909D01*
X115461844Y-73862581D01*
X115574976Y-73827560D01*
X115723022Y-73812000D01*
X138270721Y-73812000D01*
X138420869Y-73826722D01*
G37*
%TD.AperFunction*%
D25*
X133896199Y-138454936D02*
X133892391Y-138493599D01*
X133896199Y-138532262D01*
X133896199Y-138532271D01*
X133907593Y-138647955D01*
X133952617Y-138796381D01*
X134025733Y-138933170D01*
X134124130Y-139053068D01*
X134154176Y-139077726D01*
X134484883Y-139408434D01*
X134455000Y-139558665D01*
X134455000Y-139841335D01*
X134510147Y-140118574D01*
X134618320Y-140379727D01*
X134775363Y-140614759D01*
X134975241Y-140814637D01*
X135102601Y-140899736D01*
X135102600Y-141040264D01*
X134975241Y-141125363D01*
X134775363Y-141325241D01*
X134618320Y-141560273D01*
X134510147Y-141821426D01*
X134455000Y-142098665D01*
X134455000Y-142381335D01*
X134510147Y-142658574D01*
X134618320Y-142919727D01*
X134775363Y-143154759D01*
X134975241Y-143354637D01*
X135210273Y-143511680D01*
X135471426Y-143619853D01*
X135748665Y-143675000D01*
X136031335Y-143675000D01*
X136308574Y-143619853D01*
X136309001Y-143619676D01*
X136309001Y-151020324D01*
X136308574Y-151020147D01*
X136031335Y-150965000D01*
X135748665Y-150965000D01*
X135471426Y-151020147D01*
X135210273Y-151128320D01*
X134975241Y-151285363D01*
X134775363Y-151485241D01*
X134618320Y-151720273D01*
X134510147Y-151981426D01*
X134455000Y-152258665D01*
X134455000Y-152541335D01*
X134484883Y-152691566D01*
X134357449Y-152819001D01*
X134094676Y-152819001D01*
X134094853Y-152818574D01*
X134150000Y-152541335D01*
X134150000Y-152258665D01*
X134094853Y-151981426D01*
X133986680Y-151720273D01*
X133829637Y-151485241D01*
X133629759Y-151285363D01*
X133502400Y-151200265D01*
X133502400Y-145453662D01*
X133506208Y-145414999D01*
X133502400Y-145376336D01*
X133502400Y-145376327D01*
X133491006Y-145260643D01*
X133445982Y-145112217D01*
X133372866Y-144975428D01*
X133274469Y-144855531D01*
X133244428Y-144830877D01*
X130945117Y-142531566D01*
X130975000Y-142381335D01*
X130975000Y-142098665D01*
X130919853Y-141821426D01*
X130811680Y-141560273D01*
X130654637Y-141325241D01*
X130454759Y-141125363D01*
X130327400Y-141040265D01*
X130327400Y-138042140D01*
X130331208Y-138003477D01*
X130327400Y-137964814D01*
X130327400Y-137964805D01*
X130316006Y-137849121D01*
X130270982Y-137700695D01*
X130197866Y-137563906D01*
X130099469Y-137444009D01*
X130069433Y-137419359D01*
X129633391Y-136983317D01*
X129649853Y-136943574D01*
X129705000Y-136666335D01*
X129705000Y-136515512D01*
X130004783Y-136515512D01*
X130046213Y-136795130D01*
X130141397Y-137061292D01*
X130208329Y-137186514D01*
X130452298Y-137258097D01*
X131265395Y-136445000D01*
X130452298Y-135631903D01*
X130208329Y-135703486D01*
X130087429Y-135958996D01*
X130018700Y-136233184D01*
X130004783Y-136515512D01*
X129705000Y-136515512D01*
X129705000Y-136383665D01*
X129649853Y-136106426D01*
X129541680Y-135845273D01*
X129384637Y-135610241D01*
X129184759Y-135410363D01*
X128952241Y-135255000D01*
X129184759Y-135099637D01*
X129384637Y-134899759D01*
X129541680Y-134664727D01*
X129649853Y-134403574D01*
X129705000Y-134126335D01*
X129705000Y-133843665D01*
X129649853Y-133566426D01*
X129541680Y-133305273D01*
X129384637Y-133070241D01*
X129184759Y-132870363D01*
X128952241Y-132715000D01*
X130762759Y-132715000D01*
X130765273Y-132716680D01*
X131026426Y-132824853D01*
X131303665Y-132880000D01*
X131586335Y-132880000D01*
X131863574Y-132824853D01*
X131927601Y-132798332D01*
X131927600Y-135086576D01*
X131656816Y-135018700D01*
X131374488Y-135004783D01*
X131094870Y-135046213D01*
X130828708Y-135141397D01*
X130703486Y-135208329D01*
X130631903Y-135452298D01*
X131445000Y-136265395D01*
X131459143Y-136251253D01*
X131638748Y-136430858D01*
X131624605Y-136445000D01*
X131638748Y-136459143D01*
X131459143Y-136638748D01*
X131445000Y-136624605D01*
X130631903Y-137437702D01*
X130703486Y-137681671D01*
X130958996Y-137802571D01*
X131233184Y-137871300D01*
X131515512Y-137885217D01*
X131795130Y-137843787D01*
X131927600Y-137796413D01*
X131927600Y-141040265D01*
X131800241Y-141125363D01*
X131600363Y-141325241D01*
X131443320Y-141560273D01*
X131335147Y-141821426D01*
X131280000Y-142098665D01*
X131280000Y-142381335D01*
X131335147Y-142658574D01*
X131443320Y-142919727D01*
X131600363Y-143154759D01*
X131800241Y-143354637D01*
X132035273Y-143511680D01*
X132296426Y-143619853D01*
X132573665Y-143675000D01*
X132856335Y-143675000D01*
X133133574Y-143619853D01*
X133394727Y-143511680D01*
X133629759Y-143354637D01*
X133829637Y-143154759D01*
X133986680Y-142919727D01*
X134094853Y-142658574D01*
X134150000Y-142381335D01*
X134150000Y-142098665D01*
X134094853Y-141821426D01*
X133986680Y-141560273D01*
X133829637Y-141325241D01*
X133629759Y-141125363D01*
X133502400Y-141040265D01*
X133502400Y-127218072D01*
X133565000Y-127218072D01*
X133689482Y-127205812D01*
X133809180Y-127169502D01*
X133896200Y-127122988D01*
X133896199Y-138454936D01*
%TA.AperFunction,Conductor*%
D26*
G36*
X133896199Y-138454936D02*
G01*
X133892391Y-138493599D01*
X133896199Y-138532262D01*
X133896199Y-138532271D01*
X133907593Y-138647955D01*
X133952617Y-138796381D01*
X134025733Y-138933170D01*
X134124130Y-139053068D01*
X134154176Y-139077726D01*
X134484883Y-139408434D01*
X134455000Y-139558665D01*
X134455000Y-139841335D01*
X134510147Y-140118574D01*
X134618320Y-140379727D01*
X134775363Y-140614759D01*
X134975241Y-140814637D01*
X135102601Y-140899736D01*
X135102600Y-141040264D01*
X134975241Y-141125363D01*
X134775363Y-141325241D01*
X134618320Y-141560273D01*
X134510147Y-141821426D01*
X134455000Y-142098665D01*
X134455000Y-142381335D01*
X134510147Y-142658574D01*
X134618320Y-142919727D01*
X134775363Y-143154759D01*
X134975241Y-143354637D01*
X135210273Y-143511680D01*
X135471426Y-143619853D01*
X135748665Y-143675000D01*
X136031335Y-143675000D01*
X136308574Y-143619853D01*
X136309001Y-143619676D01*
X136309001Y-151020324D01*
X136308574Y-151020147D01*
X136031335Y-150965000D01*
X135748665Y-150965000D01*
X135471426Y-151020147D01*
X135210273Y-151128320D01*
X134975241Y-151285363D01*
X134775363Y-151485241D01*
X134618320Y-151720273D01*
X134510147Y-151981426D01*
X134455000Y-152258665D01*
X134455000Y-152541335D01*
X134484883Y-152691566D01*
X134357449Y-152819001D01*
X134094676Y-152819001D01*
X134094853Y-152818574D01*
X134150000Y-152541335D01*
X134150000Y-152258665D01*
X134094853Y-151981426D01*
X133986680Y-151720273D01*
X133829637Y-151485241D01*
X133629759Y-151285363D01*
X133502400Y-151200265D01*
X133502400Y-145453662D01*
X133506208Y-145414999D01*
X133502400Y-145376336D01*
X133502400Y-145376327D01*
X133491006Y-145260643D01*
X133445982Y-145112217D01*
X133372866Y-144975428D01*
X133274469Y-144855531D01*
X133244428Y-144830877D01*
X130945117Y-142531566D01*
X130975000Y-142381335D01*
X130975000Y-142098665D01*
X130919853Y-141821426D01*
X130811680Y-141560273D01*
X130654637Y-141325241D01*
X130454759Y-141125363D01*
X130327400Y-141040265D01*
X130327400Y-138042140D01*
X130331208Y-138003477D01*
X130327400Y-137964814D01*
X130327400Y-137964805D01*
X130316006Y-137849121D01*
X130270982Y-137700695D01*
X130197866Y-137563906D01*
X130099469Y-137444009D01*
X130069433Y-137419359D01*
X129633391Y-136983317D01*
X129649853Y-136943574D01*
X129705000Y-136666335D01*
X129705000Y-136515512D01*
X130004783Y-136515512D01*
X130046213Y-136795130D01*
X130141397Y-137061292D01*
X130208329Y-137186514D01*
X130452298Y-137258097D01*
X131265395Y-136445000D01*
X130452298Y-135631903D01*
X130208329Y-135703486D01*
X130087429Y-135958996D01*
X130018700Y-136233184D01*
X130004783Y-136515512D01*
X129705000Y-136515512D01*
X129705000Y-136383665D01*
X129649853Y-136106426D01*
X129541680Y-135845273D01*
X129384637Y-135610241D01*
X129184759Y-135410363D01*
X128952241Y-135255000D01*
X129184759Y-135099637D01*
X129384637Y-134899759D01*
X129541680Y-134664727D01*
X129649853Y-134403574D01*
X129705000Y-134126335D01*
X129705000Y-133843665D01*
X129649853Y-133566426D01*
X129541680Y-133305273D01*
X129384637Y-133070241D01*
X129184759Y-132870363D01*
X128952241Y-132715000D01*
X130762759Y-132715000D01*
X130765273Y-132716680D01*
X131026426Y-132824853D01*
X131303665Y-132880000D01*
X131586335Y-132880000D01*
X131863574Y-132824853D01*
X131927601Y-132798332D01*
X131927600Y-135086576D01*
X131656816Y-135018700D01*
X131374488Y-135004783D01*
X131094870Y-135046213D01*
X130828708Y-135141397D01*
X130703486Y-135208329D01*
X130631903Y-135452298D01*
X131445000Y-136265395D01*
X131459143Y-136251253D01*
X131638748Y-136430858D01*
X131624605Y-136445000D01*
X131638748Y-136459143D01*
X131459143Y-136638748D01*
X131445000Y-136624605D01*
X130631903Y-137437702D01*
X130703486Y-137681671D01*
X130958996Y-137802571D01*
X131233184Y-137871300D01*
X131515512Y-137885217D01*
X131795130Y-137843787D01*
X131927600Y-137796413D01*
X131927600Y-141040265D01*
X131800241Y-141125363D01*
X131600363Y-141325241D01*
X131443320Y-141560273D01*
X131335147Y-141821426D01*
X131280000Y-142098665D01*
X131280000Y-142381335D01*
X131335147Y-142658574D01*
X131443320Y-142919727D01*
X131600363Y-143154759D01*
X131800241Y-143354637D01*
X132035273Y-143511680D01*
X132296426Y-143619853D01*
X132573665Y-143675000D01*
X132856335Y-143675000D01*
X133133574Y-143619853D01*
X133394727Y-143511680D01*
X133629759Y-143354637D01*
X133829637Y-143154759D01*
X133986680Y-142919727D01*
X134094853Y-142658574D01*
X134150000Y-142381335D01*
X134150000Y-142098665D01*
X134094853Y-141821426D01*
X133986680Y-141560273D01*
X133829637Y-141325241D01*
X133629759Y-141125363D01*
X133502400Y-141040265D01*
X133502400Y-127218072D01*
X133565000Y-127218072D01*
X133689482Y-127205812D01*
X133809180Y-127169502D01*
X133896200Y-127122988D01*
X133896199Y-138454936D01*
G37*
%TD.AperFunction*%
D25*
X126998320Y-134664727D02*
X127155363Y-134899759D01*
X127355241Y-135099637D01*
X127587759Y-135255000D01*
X127355241Y-135410363D01*
X127155363Y-135610241D01*
X126998320Y-135845273D01*
X126890147Y-136106426D01*
X126835000Y-136383665D01*
X126835000Y-136666335D01*
X126890147Y-136943574D01*
X126998320Y-137204727D01*
X127155363Y-137439759D01*
X127353961Y-137638357D01*
X127345518Y-137639188D01*
X127225820Y-137675498D01*
X127115506Y-137734463D01*
X127018815Y-137813815D01*
X126939463Y-137910506D01*
X126880498Y-138020820D01*
X126844188Y-138140518D01*
X126831928Y-138265000D01*
X126831928Y-139865000D01*
X126844188Y-139989482D01*
X126880498Y-140109180D01*
X126939463Y-140219494D01*
X127018815Y-140316185D01*
X127115506Y-140395537D01*
X127225820Y-140454502D01*
X127345518Y-140490812D01*
X127470000Y-140503072D01*
X127482601Y-140503072D01*
X127482600Y-151046271D01*
X125984010Y-149547682D01*
X125984010Y-143866104D01*
X125990153Y-143803731D01*
X125984010Y-143741358D01*
X125984010Y-143741352D01*
X125974285Y-143642616D01*
X126000130Y-143638787D01*
X126266292Y-143543603D01*
X126391514Y-143476671D01*
X126463097Y-143232702D01*
X125650000Y-142419605D01*
X125635858Y-142433748D01*
X125456253Y-142254143D01*
X125470395Y-142240000D01*
X125829605Y-142240000D01*
X126642702Y-143053097D01*
X126886671Y-142981514D01*
X127007571Y-142726004D01*
X127076300Y-142451816D01*
X127090217Y-142169488D01*
X127048787Y-141889870D01*
X126953603Y-141623708D01*
X126886671Y-141498486D01*
X126642702Y-141426903D01*
X125829605Y-142240000D01*
X125470395Y-142240000D01*
X125456253Y-142225858D01*
X125635858Y-142046253D01*
X125650000Y-142060395D01*
X126463097Y-141247298D01*
X126391514Y-141003329D01*
X126136004Y-140882429D01*
X125861816Y-140813700D01*
X125579488Y-140799783D01*
X125299870Y-140841213D01*
X125230999Y-140865842D01*
X125230999Y-136280051D01*
X126953801Y-134557250D01*
X126998320Y-134664727D01*
%TA.AperFunction,Conductor*%
D26*
G36*
X126998320Y-134664727D02*
G01*
X127155363Y-134899759D01*
X127355241Y-135099637D01*
X127587759Y-135255000D01*
X127355241Y-135410363D01*
X127155363Y-135610241D01*
X126998320Y-135845273D01*
X126890147Y-136106426D01*
X126835000Y-136383665D01*
X126835000Y-136666335D01*
X126890147Y-136943574D01*
X126998320Y-137204727D01*
X127155363Y-137439759D01*
X127353961Y-137638357D01*
X127345518Y-137639188D01*
X127225820Y-137675498D01*
X127115506Y-137734463D01*
X127018815Y-137813815D01*
X126939463Y-137910506D01*
X126880498Y-138020820D01*
X126844188Y-138140518D01*
X126831928Y-138265000D01*
X126831928Y-139865000D01*
X126844188Y-139989482D01*
X126880498Y-140109180D01*
X126939463Y-140219494D01*
X127018815Y-140316185D01*
X127115506Y-140395537D01*
X127225820Y-140454502D01*
X127345518Y-140490812D01*
X127470000Y-140503072D01*
X127482601Y-140503072D01*
X127482600Y-151046271D01*
X125984010Y-149547682D01*
X125984010Y-143866104D01*
X125990153Y-143803731D01*
X125984010Y-143741358D01*
X125984010Y-143741352D01*
X125974285Y-143642616D01*
X126000130Y-143638787D01*
X126266292Y-143543603D01*
X126391514Y-143476671D01*
X126463097Y-143232702D01*
X125650000Y-142419605D01*
X125635858Y-142433748D01*
X125456253Y-142254143D01*
X125470395Y-142240000D01*
X125829605Y-142240000D01*
X126642702Y-143053097D01*
X126886671Y-142981514D01*
X127007571Y-142726004D01*
X127076300Y-142451816D01*
X127090217Y-142169488D01*
X127048787Y-141889870D01*
X126953603Y-141623708D01*
X126886671Y-141498486D01*
X126642702Y-141426903D01*
X125829605Y-142240000D01*
X125470395Y-142240000D01*
X125456253Y-142225858D01*
X125635858Y-142046253D01*
X125650000Y-142060395D01*
X126463097Y-141247298D01*
X126391514Y-141003329D01*
X126136004Y-140882429D01*
X125861816Y-140813700D01*
X125579488Y-140799783D01*
X125299870Y-140841213D01*
X125230999Y-140865842D01*
X125230999Y-136280051D01*
X126953801Y-134557250D01*
X126998320Y-134664727D01*
G37*
%TD.AperFunction*%
D25*
X136309002Y-128169316D02*
X136239039Y-128148096D01*
X136017000Y-128270085D01*
X136017000Y-129413000D01*
X136037000Y-129413000D01*
X136037000Y-129667000D01*
X136017000Y-129667000D01*
X136017000Y-130809915D01*
X136239039Y-130931904D01*
X136309001Y-130910684D01*
X136309001Y-138320324D01*
X136308574Y-138320147D01*
X136031335Y-138265000D01*
X135748665Y-138265000D01*
X135598434Y-138294883D01*
X135470999Y-138167449D01*
X135470999Y-130910684D01*
X135540961Y-130931904D01*
X135763000Y-130809915D01*
X135763000Y-129667000D01*
X135743000Y-129667000D01*
X135743000Y-129413000D01*
X135763000Y-129413000D01*
X135763000Y-128270085D01*
X135540961Y-128148096D01*
X135470999Y-128169316D01*
X135470999Y-123340148D01*
X135673574Y-123299853D01*
X135934727Y-123191680D01*
X136169759Y-123034637D01*
X136309002Y-122895394D01*
X136309002Y-128169316D01*
%TA.AperFunction,Conductor*%
D26*
G36*
X136309002Y-128169316D02*
G01*
X136239039Y-128148096D01*
X136017000Y-128270085D01*
X136017000Y-129413000D01*
X136037000Y-129413000D01*
X136037000Y-129667000D01*
X136017000Y-129667000D01*
X136017000Y-130809915D01*
X136239039Y-130931904D01*
X136309001Y-130910684D01*
X136309001Y-138320324D01*
X136308574Y-138320147D01*
X136031335Y-138265000D01*
X135748665Y-138265000D01*
X135598434Y-138294883D01*
X135470999Y-138167449D01*
X135470999Y-130910684D01*
X135540961Y-130931904D01*
X135763000Y-130809915D01*
X135763000Y-129667000D01*
X135743000Y-129667000D01*
X135743000Y-129413000D01*
X135763000Y-129413000D01*
X135763000Y-128270085D01*
X135540961Y-128148096D01*
X135470999Y-128169316D01*
X135470999Y-123340148D01*
X135673574Y-123299853D01*
X135934727Y-123191680D01*
X136169759Y-123034637D01*
X136309002Y-122895394D01*
X136309002Y-128169316D01*
G37*
%TD.AperFunction*%
D25*
X128970000Y-101108552D02*
X128970000Y-101324175D01*
X129016499Y-101557944D01*
X129107712Y-101778150D01*
X129240131Y-101976330D01*
X129408670Y-102144869D01*
X129606850Y-102277288D01*
X129827056Y-102368501D01*
X130060825Y-102415000D01*
X130299175Y-102415000D01*
X130532944Y-102368501D01*
X130753150Y-102277288D01*
X130951330Y-102144869D01*
X131119869Y-101976330D01*
X131252288Y-101778150D01*
X131343501Y-101557944D01*
X131390000Y-101324175D01*
X131390000Y-101085825D01*
X131343501Y-100852056D01*
X131274554Y-100685604D01*
X133042863Y-102453914D01*
X133082630Y-102502370D01*
X133276012Y-102661075D01*
X133496641Y-102779003D01*
X133608464Y-102812924D01*
X133736036Y-102851623D01*
X133761755Y-102854156D01*
X133922620Y-102870000D01*
X133922626Y-102870000D01*
X133967920Y-102874461D01*
X133957930Y-102891119D01*
X133863091Y-103155960D01*
X133984376Y-103378000D01*
X135128000Y-103378000D01*
X135128000Y-103358000D01*
X135382000Y-103358000D01*
X135382000Y-103378000D01*
X135402000Y-103378000D01*
X135402000Y-103632000D01*
X135382000Y-103632000D01*
X135382000Y-104774915D01*
X135604039Y-104896904D01*
X135738087Y-104856246D01*
X135992420Y-104736037D01*
X136218414Y-104568519D01*
X136309002Y-104468623D01*
X136309002Y-112689606D01*
X136169759Y-112550363D01*
X135934727Y-112393320D01*
X135673574Y-112285147D01*
X135396335Y-112230000D01*
X135113665Y-112230000D01*
X134836426Y-112285147D01*
X134575273Y-112393320D01*
X134340241Y-112550363D01*
X134140363Y-112750241D01*
X133983320Y-112985273D01*
X133875147Y-113246426D01*
X133820000Y-113523665D01*
X133820000Y-113806335D01*
X133875147Y-114083574D01*
X133983320Y-114344727D01*
X134140363Y-114579759D01*
X134340241Y-114779637D01*
X134467601Y-114864736D01*
X134467600Y-116145237D01*
X134421098Y-116170093D01*
X134212400Y-116106785D01*
X133985000Y-116084388D01*
X133757601Y-116106785D01*
X133538941Y-116173115D01*
X133350001Y-116274106D01*
X133161060Y-116173115D01*
X132942400Y-116106785D01*
X132715000Y-116084388D01*
X132487601Y-116106785D01*
X132466682Y-116113131D01*
X131047727Y-114694177D01*
X131023068Y-114664130D01*
X130903171Y-114565733D01*
X130766382Y-114492617D01*
X130617956Y-114447593D01*
X130502272Y-114436199D01*
X130502262Y-114436199D01*
X130463599Y-114432391D01*
X130424936Y-114436199D01*
X126760066Y-114436199D01*
X126721401Y-114432391D01*
X126682736Y-114436199D01*
X126682728Y-114436199D01*
X126567044Y-114447593D01*
X126418618Y-114492617D01*
X126281829Y-114565733D01*
X126191971Y-114639477D01*
X126191968Y-114639480D01*
X126161932Y-114664130D01*
X126137282Y-114694166D01*
X125839521Y-114991928D01*
X125452500Y-114991928D01*
X125271930Y-115009713D01*
X125098299Y-115062383D01*
X124938280Y-115147915D01*
X124798022Y-115263022D01*
X124682915Y-115403280D01*
X124597383Y-115563299D01*
X124544713Y-115736930D01*
X124526928Y-115917500D01*
X124526928Y-116492500D01*
X124544713Y-116673070D01*
X124597383Y-116846701D01*
X124682915Y-117006720D01*
X124798022Y-117146978D01*
X124938280Y-117262085D01*
X125098299Y-117347617D01*
X125271930Y-117400287D01*
X125452500Y-117418072D01*
X126027500Y-117418072D01*
X126208070Y-117400287D01*
X126381701Y-117347617D01*
X126541720Y-117262085D01*
X126681978Y-117146978D01*
X126797085Y-117006720D01*
X126882617Y-116846701D01*
X126935287Y-116673070D01*
X126953072Y-116492500D01*
X126953072Y-116105479D01*
X127047553Y-116010999D01*
X128344884Y-116010999D01*
X128330000Y-116085825D01*
X128330000Y-116301449D01*
X127105573Y-117525877D01*
X127075532Y-117550531D01*
X127050879Y-117580571D01*
X126977135Y-117670428D01*
X126904018Y-117807218D01*
X126858995Y-117955643D01*
X126843792Y-118110000D01*
X126847601Y-118148673D01*
X126847600Y-124470130D01*
X126688368Y-124576525D01*
X126481525Y-124783368D01*
X126365000Y-124957760D01*
X126248475Y-124783368D01*
X126041632Y-124576525D01*
X125882400Y-124470130D01*
X125882400Y-123119735D01*
X126009759Y-123034637D01*
X126209637Y-122834759D01*
X126366680Y-122599727D01*
X126474853Y-122338574D01*
X126530000Y-122061335D01*
X126530000Y-121778665D01*
X126474853Y-121501426D01*
X126366680Y-121240273D01*
X126209637Y-121005241D01*
X126009759Y-120805363D01*
X125774727Y-120648320D01*
X125513574Y-120540147D01*
X125236335Y-120485000D01*
X124953665Y-120485000D01*
X124676426Y-120540147D01*
X124415273Y-120648320D01*
X124180241Y-120805363D01*
X123980363Y-121005241D01*
X123823320Y-121240273D01*
X123715147Y-121501426D01*
X123660000Y-121778665D01*
X123660000Y-122061335D01*
X123715147Y-122338574D01*
X123823320Y-122599727D01*
X123980363Y-122834759D01*
X124180241Y-123034637D01*
X124307601Y-123119736D01*
X124307600Y-124470129D01*
X124148368Y-124576525D01*
X123941525Y-124783368D01*
X123825000Y-124957760D01*
X123708475Y-124783368D01*
X123501632Y-124576525D01*
X123258411Y-124414010D01*
X122988158Y-124302068D01*
X122701260Y-124245000D01*
X122408740Y-124245000D01*
X122121842Y-124302068D01*
X122085999Y-124316915D01*
X122085999Y-103854040D01*
X133863091Y-103854040D01*
X133957930Y-104118881D01*
X134102615Y-104360131D01*
X134291586Y-104568519D01*
X134517580Y-104736037D01*
X134771913Y-104856246D01*
X134905961Y-104896904D01*
X135128000Y-104774915D01*
X135128000Y-103632000D01*
X133984376Y-103632000D01*
X133863091Y-103854040D01*
X122085999Y-103854040D01*
X122085999Y-101085825D01*
X123890000Y-101085825D01*
X123890000Y-101324175D01*
X123936499Y-101557944D01*
X124027712Y-101778150D01*
X124160131Y-101976330D01*
X124328670Y-102144869D01*
X124526850Y-102277288D01*
X124747056Y-102368501D01*
X124980825Y-102415000D01*
X125219175Y-102415000D01*
X125452944Y-102368501D01*
X125673150Y-102277288D01*
X125871330Y-102144869D01*
X126039869Y-101976330D01*
X126172288Y-101778150D01*
X126263501Y-101557944D01*
X126310000Y-101324175D01*
X126310000Y-101085825D01*
X126263501Y-100852056D01*
X126172288Y-100631850D01*
X126039869Y-100433670D01*
X125871330Y-100265131D01*
X125673150Y-100132712D01*
X125452944Y-100041499D01*
X125219175Y-99995000D01*
X124980825Y-99995000D01*
X124747056Y-100041499D01*
X124526850Y-100132712D01*
X124328670Y-100265131D01*
X124160131Y-100433670D01*
X124027712Y-100631850D01*
X123936499Y-100852056D01*
X123890000Y-101085825D01*
X122085999Y-101085825D01*
X122085999Y-98785051D01*
X123605608Y-97265443D01*
X123608574Y-97264853D01*
X123869727Y-97156680D01*
X124104759Y-96999637D01*
X124304637Y-96799759D01*
X124447459Y-96586010D01*
X128970000Y-101108552D01*
%TA.AperFunction,Conductor*%
D26*
G36*
X128970000Y-101108552D02*
G01*
X128970000Y-101324175D01*
X129016499Y-101557944D01*
X129107712Y-101778150D01*
X129240131Y-101976330D01*
X129408670Y-102144869D01*
X129606850Y-102277288D01*
X129827056Y-102368501D01*
X130060825Y-102415000D01*
X130299175Y-102415000D01*
X130532944Y-102368501D01*
X130753150Y-102277288D01*
X130951330Y-102144869D01*
X131119869Y-101976330D01*
X131252288Y-101778150D01*
X131343501Y-101557944D01*
X131390000Y-101324175D01*
X131390000Y-101085825D01*
X131343501Y-100852056D01*
X131274554Y-100685604D01*
X133042863Y-102453914D01*
X133082630Y-102502370D01*
X133276012Y-102661075D01*
X133496641Y-102779003D01*
X133608464Y-102812924D01*
X133736036Y-102851623D01*
X133761755Y-102854156D01*
X133922620Y-102870000D01*
X133922626Y-102870000D01*
X133967920Y-102874461D01*
X133957930Y-102891119D01*
X133863091Y-103155960D01*
X133984376Y-103378000D01*
X135128000Y-103378000D01*
X135128000Y-103358000D01*
X135382000Y-103358000D01*
X135382000Y-103378000D01*
X135402000Y-103378000D01*
X135402000Y-103632000D01*
X135382000Y-103632000D01*
X135382000Y-104774915D01*
X135604039Y-104896904D01*
X135738087Y-104856246D01*
X135992420Y-104736037D01*
X136218414Y-104568519D01*
X136309002Y-104468623D01*
X136309002Y-112689606D01*
X136169759Y-112550363D01*
X135934727Y-112393320D01*
X135673574Y-112285147D01*
X135396335Y-112230000D01*
X135113665Y-112230000D01*
X134836426Y-112285147D01*
X134575273Y-112393320D01*
X134340241Y-112550363D01*
X134140363Y-112750241D01*
X133983320Y-112985273D01*
X133875147Y-113246426D01*
X133820000Y-113523665D01*
X133820000Y-113806335D01*
X133875147Y-114083574D01*
X133983320Y-114344727D01*
X134140363Y-114579759D01*
X134340241Y-114779637D01*
X134467601Y-114864736D01*
X134467600Y-116145237D01*
X134421098Y-116170093D01*
X134212400Y-116106785D01*
X133985000Y-116084388D01*
X133757601Y-116106785D01*
X133538941Y-116173115D01*
X133350001Y-116274106D01*
X133161060Y-116173115D01*
X132942400Y-116106785D01*
X132715000Y-116084388D01*
X132487601Y-116106785D01*
X132466682Y-116113131D01*
X131047727Y-114694177D01*
X131023068Y-114664130D01*
X130903171Y-114565733D01*
X130766382Y-114492617D01*
X130617956Y-114447593D01*
X130502272Y-114436199D01*
X130502262Y-114436199D01*
X130463599Y-114432391D01*
X130424936Y-114436199D01*
X126760066Y-114436199D01*
X126721401Y-114432391D01*
X126682736Y-114436199D01*
X126682728Y-114436199D01*
X126567044Y-114447593D01*
X126418618Y-114492617D01*
X126281829Y-114565733D01*
X126191971Y-114639477D01*
X126191968Y-114639480D01*
X126161932Y-114664130D01*
X126137282Y-114694166D01*
X125839521Y-114991928D01*
X125452500Y-114991928D01*
X125271930Y-115009713D01*
X125098299Y-115062383D01*
X124938280Y-115147915D01*
X124798022Y-115263022D01*
X124682915Y-115403280D01*
X124597383Y-115563299D01*
X124544713Y-115736930D01*
X124526928Y-115917500D01*
X124526928Y-116492500D01*
X124544713Y-116673070D01*
X124597383Y-116846701D01*
X124682915Y-117006720D01*
X124798022Y-117146978D01*
X124938280Y-117262085D01*
X125098299Y-117347617D01*
X125271930Y-117400287D01*
X125452500Y-117418072D01*
X126027500Y-117418072D01*
X126208070Y-117400287D01*
X126381701Y-117347617D01*
X126541720Y-117262085D01*
X126681978Y-117146978D01*
X126797085Y-117006720D01*
X126882617Y-116846701D01*
X126935287Y-116673070D01*
X126953072Y-116492500D01*
X126953072Y-116105479D01*
X127047553Y-116010999D01*
X128344884Y-116010999D01*
X128330000Y-116085825D01*
X128330000Y-116301449D01*
X127105573Y-117525877D01*
X127075532Y-117550531D01*
X127050879Y-117580571D01*
X126977135Y-117670428D01*
X126904018Y-117807218D01*
X126858995Y-117955643D01*
X126843792Y-118110000D01*
X126847601Y-118148673D01*
X126847600Y-124470130D01*
X126688368Y-124576525D01*
X126481525Y-124783368D01*
X126365000Y-124957760D01*
X126248475Y-124783368D01*
X126041632Y-124576525D01*
X125882400Y-124470130D01*
X125882400Y-123119735D01*
X126009759Y-123034637D01*
X126209637Y-122834759D01*
X126366680Y-122599727D01*
X126474853Y-122338574D01*
X126530000Y-122061335D01*
X126530000Y-121778665D01*
X126474853Y-121501426D01*
X126366680Y-121240273D01*
X126209637Y-121005241D01*
X126009759Y-120805363D01*
X125774727Y-120648320D01*
X125513574Y-120540147D01*
X125236335Y-120485000D01*
X124953665Y-120485000D01*
X124676426Y-120540147D01*
X124415273Y-120648320D01*
X124180241Y-120805363D01*
X123980363Y-121005241D01*
X123823320Y-121240273D01*
X123715147Y-121501426D01*
X123660000Y-121778665D01*
X123660000Y-122061335D01*
X123715147Y-122338574D01*
X123823320Y-122599727D01*
X123980363Y-122834759D01*
X124180241Y-123034637D01*
X124307601Y-123119736D01*
X124307600Y-124470129D01*
X124148368Y-124576525D01*
X123941525Y-124783368D01*
X123825000Y-124957760D01*
X123708475Y-124783368D01*
X123501632Y-124576525D01*
X123258411Y-124414010D01*
X122988158Y-124302068D01*
X122701260Y-124245000D01*
X122408740Y-124245000D01*
X122121842Y-124302068D01*
X122085999Y-124316915D01*
X122085999Y-103854040D01*
X133863091Y-103854040D01*
X133957930Y-104118881D01*
X134102615Y-104360131D01*
X134291586Y-104568519D01*
X134517580Y-104736037D01*
X134771913Y-104856246D01*
X134905961Y-104896904D01*
X135128000Y-104774915D01*
X135128000Y-103632000D01*
X133984376Y-103632000D01*
X133863091Y-103854040D01*
X122085999Y-103854040D01*
X122085999Y-101085825D01*
X123890000Y-101085825D01*
X123890000Y-101324175D01*
X123936499Y-101557944D01*
X124027712Y-101778150D01*
X124160131Y-101976330D01*
X124328670Y-102144869D01*
X124526850Y-102277288D01*
X124747056Y-102368501D01*
X124980825Y-102415000D01*
X125219175Y-102415000D01*
X125452944Y-102368501D01*
X125673150Y-102277288D01*
X125871330Y-102144869D01*
X126039869Y-101976330D01*
X126172288Y-101778150D01*
X126263501Y-101557944D01*
X126310000Y-101324175D01*
X126310000Y-101085825D01*
X126263501Y-100852056D01*
X126172288Y-100631850D01*
X126039869Y-100433670D01*
X125871330Y-100265131D01*
X125673150Y-100132712D01*
X125452944Y-100041499D01*
X125219175Y-99995000D01*
X124980825Y-99995000D01*
X124747056Y-100041499D01*
X124526850Y-100132712D01*
X124328670Y-100265131D01*
X124160131Y-100433670D01*
X124027712Y-100631850D01*
X123936499Y-100852056D01*
X123890000Y-101085825D01*
X122085999Y-101085825D01*
X122085999Y-98785051D01*
X123605608Y-97265443D01*
X123608574Y-97264853D01*
X123869727Y-97156680D01*
X124104759Y-96999637D01*
X124304637Y-96799759D01*
X124447459Y-96586010D01*
X128970000Y-101108552D01*
G37*
%TD.AperFunction*%
D25*
X118938748Y-111030858D02*
X118924605Y-111045000D01*
X118938748Y-111059143D01*
X118759143Y-111238748D01*
X118745000Y-111224605D01*
X118730858Y-111238748D01*
X118551253Y-111059143D01*
X118565395Y-111045000D01*
X118551253Y-111030858D01*
X118730858Y-110851253D01*
X118745000Y-110865395D01*
X118759143Y-110851253D01*
X118938748Y-111030858D01*
%TA.AperFunction,Conductor*%
D26*
G36*
X118938748Y-111030858D02*
G01*
X118924605Y-111045000D01*
X118938748Y-111059143D01*
X118759143Y-111238748D01*
X118745000Y-111224605D01*
X118730858Y-111238748D01*
X118551253Y-111059143D01*
X118565395Y-111045000D01*
X118551253Y-111030858D01*
X118730858Y-110851253D01*
X118745000Y-110865395D01*
X118759143Y-110851253D01*
X118938748Y-111030858D01*
G37*
%TD.AperFunction*%
D25*
X133305273Y-86361680D02*
X133566426Y-86469853D01*
X133569393Y-86470443D01*
X134404001Y-87305052D01*
X134404001Y-88715634D01*
X134196816Y-88663700D01*
X133914488Y-88649783D01*
X133634870Y-88691213D01*
X133368708Y-88786397D01*
X133243486Y-88853329D01*
X133171903Y-89097298D01*
X133985000Y-89910395D01*
X133999143Y-89896253D01*
X134178748Y-90075858D01*
X134164605Y-90090000D01*
X134178748Y-90104143D01*
X133999143Y-90283748D01*
X133985000Y-90269605D01*
X133171903Y-91082702D01*
X133243486Y-91326671D01*
X133466673Y-91432277D01*
X132248072Y-92650878D01*
X132248072Y-91910000D01*
X132235812Y-91785518D01*
X132199502Y-91665820D01*
X132140537Y-91555506D01*
X132061185Y-91458815D01*
X131964494Y-91379463D01*
X131854180Y-91320498D01*
X131734482Y-91284188D01*
X131726039Y-91283357D01*
X131924637Y-91084759D01*
X132081680Y-90849727D01*
X132189853Y-90588574D01*
X132245000Y-90311335D01*
X132245000Y-90160512D01*
X132544783Y-90160512D01*
X132586213Y-90440130D01*
X132681397Y-90706292D01*
X132748329Y-90831514D01*
X132992298Y-90903097D01*
X133805395Y-90090000D01*
X132992298Y-89276903D01*
X132748329Y-89348486D01*
X132627429Y-89603996D01*
X132558700Y-89878184D01*
X132544783Y-90160512D01*
X132245000Y-90160512D01*
X132245000Y-90028665D01*
X132189853Y-89751426D01*
X132081680Y-89490273D01*
X131924637Y-89255241D01*
X131724759Y-89055363D01*
X131492241Y-88900000D01*
X131724759Y-88744637D01*
X131924637Y-88544759D01*
X132081680Y-88309727D01*
X132189853Y-88048574D01*
X132245000Y-87771335D01*
X132245000Y-87488665D01*
X132189853Y-87211426D01*
X132081680Y-86950273D01*
X131924637Y-86715241D01*
X131724759Y-86515363D01*
X131492241Y-86360000D01*
X133302759Y-86360000D01*
X133305273Y-86361680D01*
%TA.AperFunction,Conductor*%
D26*
G36*
X133305273Y-86361680D02*
G01*
X133566426Y-86469853D01*
X133569393Y-86470443D01*
X134404001Y-87305052D01*
X134404001Y-88715634D01*
X134196816Y-88663700D01*
X133914488Y-88649783D01*
X133634870Y-88691213D01*
X133368708Y-88786397D01*
X133243486Y-88853329D01*
X133171903Y-89097298D01*
X133985000Y-89910395D01*
X133999143Y-89896253D01*
X134178748Y-90075858D01*
X134164605Y-90090000D01*
X134178748Y-90104143D01*
X133999143Y-90283748D01*
X133985000Y-90269605D01*
X133171903Y-91082702D01*
X133243486Y-91326671D01*
X133466673Y-91432277D01*
X132248072Y-92650878D01*
X132248072Y-91910000D01*
X132235812Y-91785518D01*
X132199502Y-91665820D01*
X132140537Y-91555506D01*
X132061185Y-91458815D01*
X131964494Y-91379463D01*
X131854180Y-91320498D01*
X131734482Y-91284188D01*
X131726039Y-91283357D01*
X131924637Y-91084759D01*
X132081680Y-90849727D01*
X132189853Y-90588574D01*
X132245000Y-90311335D01*
X132245000Y-90160512D01*
X132544783Y-90160512D01*
X132586213Y-90440130D01*
X132681397Y-90706292D01*
X132748329Y-90831514D01*
X132992298Y-90903097D01*
X133805395Y-90090000D01*
X132992298Y-89276903D01*
X132748329Y-89348486D01*
X132627429Y-89603996D01*
X132558700Y-89878184D01*
X132544783Y-90160512D01*
X132245000Y-90160512D01*
X132245000Y-90028665D01*
X132189853Y-89751426D01*
X132081680Y-89490273D01*
X131924637Y-89255241D01*
X131724759Y-89055363D01*
X131492241Y-88900000D01*
X131724759Y-88744637D01*
X131924637Y-88544759D01*
X132081680Y-88309727D01*
X132189853Y-88048574D01*
X132245000Y-87771335D01*
X132245000Y-87488665D01*
X132189853Y-87211426D01*
X132081680Y-86950273D01*
X131924637Y-86715241D01*
X131724759Y-86515363D01*
X131492241Y-86360000D01*
X133302759Y-86360000D01*
X133305273Y-86361680D01*
G37*
%TD.AperFunction*%
%TD*%
M02*
