%TF.GenerationSoftware,KiCad,Pcbnew,(5.1.8-0-10_14)*%
%TF.CreationDate,2021-09-01T19:05:50+01:00*%
%TF.ProjectId,4u-spring-reverb,34752d73-7072-4696-9e67-2d7265766572,rev?*%
%TF.SameCoordinates,Original*%
%TF.FileFunction,Legend,Top*%
%TF.FilePolarity,Positive*%
%FSLAX46Y46*%
G04 Gerber Fmt 4.6, Leading zero omitted, Abs format (unit mm)*
G04 Created by KiCad (PCBNEW (5.1.8-0-10_14)) date 2021-09-01 19:05:50*
%MOMM*%
%LPD*%
G01*
G04 APERTURE LIST*
%ADD10C,0.150000*%
%ADD11C,0.120000*%
%ADD12C,0.152400*%
G04 APERTURE END LIST*
D10*
X110704428Y-87955380D02*
X110704428Y-86955380D01*
X111180619Y-87288714D02*
X111180619Y-87955380D01*
X111180619Y-87383952D02*
X111228238Y-87336333D01*
X111323476Y-87288714D01*
X111466333Y-87288714D01*
X111561571Y-87336333D01*
X111609190Y-87431571D01*
X111609190Y-87955380D01*
X112609190Y-87955380D02*
X112037761Y-87955380D01*
X112323476Y-87955380D02*
X112323476Y-86955380D01*
X112228238Y-87098238D01*
X112133000Y-87193476D01*
X112037761Y-87241095D01*
X110831428Y-68905380D02*
X110831428Y-67905380D01*
X111307619Y-68238714D02*
X111307619Y-68905380D01*
X111307619Y-68333952D02*
X111355238Y-68286333D01*
X111450476Y-68238714D01*
X111593333Y-68238714D01*
X111688571Y-68286333D01*
X111736190Y-68381571D01*
X111736190Y-68905380D01*
X112164761Y-68000619D02*
X112212380Y-67953000D01*
X112307619Y-67905380D01*
X112545714Y-67905380D01*
X112640952Y-67953000D01*
X112688571Y-68000619D01*
X112736190Y-68095857D01*
X112736190Y-68191095D01*
X112688571Y-68333952D01*
X112117142Y-68905380D01*
X112736190Y-68905380D01*
X110799666Y-48855380D02*
X110990142Y-48855380D01*
X111085380Y-48903000D01*
X111180619Y-48998238D01*
X111228238Y-49188714D01*
X111228238Y-49522047D01*
X111180619Y-49712523D01*
X111085380Y-49807761D01*
X110990142Y-49855380D01*
X110799666Y-49855380D01*
X110704428Y-49807761D01*
X110609190Y-49712523D01*
X110561571Y-49522047D01*
X110561571Y-49188714D01*
X110609190Y-48998238D01*
X110704428Y-48903000D01*
X110799666Y-48855380D01*
X112085380Y-49188714D02*
X112085380Y-49855380D01*
X111656809Y-49188714D02*
X111656809Y-49712523D01*
X111704428Y-49807761D01*
X111799666Y-49855380D01*
X111942523Y-49855380D01*
X112037761Y-49807761D01*
X112085380Y-49760142D01*
X112418714Y-49188714D02*
X112799666Y-49188714D01*
X112561571Y-48855380D02*
X112561571Y-49712523D01*
X112609190Y-49807761D01*
X112704428Y-49855380D01*
X112799666Y-49855380D01*
X118491190Y-108926380D02*
X118824523Y-109926380D01*
X119157857Y-108926380D01*
X119634047Y-109926380D02*
X119538809Y-109878761D01*
X119491190Y-109831142D01*
X119443571Y-109735904D01*
X119443571Y-109450190D01*
X119491190Y-109354952D01*
X119538809Y-109307333D01*
X119634047Y-109259714D01*
X119776904Y-109259714D01*
X119872142Y-109307333D01*
X119919761Y-109354952D01*
X119967380Y-109450190D01*
X119967380Y-109735904D01*
X119919761Y-109831142D01*
X119872142Y-109878761D01*
X119776904Y-109926380D01*
X119634047Y-109926380D01*
X120538809Y-109926380D02*
X120443571Y-109878761D01*
X120395952Y-109783523D01*
X120395952Y-108926380D01*
X121443571Y-109926380D02*
X120872142Y-109926380D01*
X121157857Y-109926380D02*
X121157857Y-108926380D01*
X121062619Y-109069238D01*
X120967380Y-109164476D01*
X120872142Y-109212095D01*
X118562571Y-126833380D02*
X119134000Y-126833380D01*
X118848285Y-127833380D02*
X118848285Y-126833380D01*
X119467333Y-127833380D02*
X119467333Y-127166714D01*
X119467333Y-126833380D02*
X119419714Y-126881000D01*
X119467333Y-126928619D01*
X119514952Y-126881000D01*
X119467333Y-126833380D01*
X119467333Y-126928619D01*
X120086380Y-127833380D02*
X119991142Y-127785761D01*
X119943523Y-127690523D01*
X119943523Y-126833380D01*
X120324476Y-127166714D02*
X120705428Y-127166714D01*
X120467333Y-126833380D02*
X120467333Y-127690523D01*
X120514952Y-127785761D01*
X120610190Y-127833380D01*
X120705428Y-127833380D01*
X118530809Y-148153380D02*
X118530809Y-147153380D01*
X118864142Y-147867666D01*
X119197476Y-147153380D01*
X119197476Y-148153380D01*
X119673666Y-148153380D02*
X119673666Y-147486714D01*
X119673666Y-147153380D02*
X119626047Y-147201000D01*
X119673666Y-147248619D01*
X119721285Y-147201000D01*
X119673666Y-147153380D01*
X119673666Y-147248619D01*
X120054619Y-148153380D02*
X120578428Y-147486714D01*
X120054619Y-147486714D02*
X120578428Y-148153380D01*
X102116571Y-51141761D02*
X102259428Y-51189380D01*
X102497523Y-51189380D01*
X102592761Y-51141761D01*
X102640380Y-51094142D01*
X102688000Y-50998904D01*
X102688000Y-50903666D01*
X102640380Y-50808428D01*
X102592761Y-50760809D01*
X102497523Y-50713190D01*
X102307047Y-50665571D01*
X102211809Y-50617952D01*
X102164190Y-50570333D01*
X102116571Y-50475095D01*
X102116571Y-50379857D01*
X102164190Y-50284619D01*
X102211809Y-50237000D01*
X102307047Y-50189380D01*
X102545142Y-50189380D01*
X102688000Y-50237000D01*
X103116571Y-50522714D02*
X103116571Y-51522714D01*
X103116571Y-50570333D02*
X103211809Y-50522714D01*
X103402285Y-50522714D01*
X103497523Y-50570333D01*
X103545142Y-50617952D01*
X103592761Y-50713190D01*
X103592761Y-50998904D01*
X103545142Y-51094142D01*
X103497523Y-51141761D01*
X103402285Y-51189380D01*
X103211809Y-51189380D01*
X103116571Y-51141761D01*
X104021333Y-51189380D02*
X104021333Y-50522714D01*
X104021333Y-50713190D02*
X104068952Y-50617952D01*
X104116571Y-50570333D01*
X104211809Y-50522714D01*
X104307047Y-50522714D01*
X104640380Y-51189380D02*
X104640380Y-50522714D01*
X104640380Y-50189380D02*
X104592761Y-50237000D01*
X104640380Y-50284619D01*
X104688000Y-50237000D01*
X104640380Y-50189380D01*
X104640380Y-50284619D01*
X105116571Y-50522714D02*
X105116571Y-51189380D01*
X105116571Y-50617952D02*
X105164190Y-50570333D01*
X105259428Y-50522714D01*
X105402285Y-50522714D01*
X105497523Y-50570333D01*
X105545142Y-50665571D01*
X105545142Y-51189380D01*
X106449904Y-50522714D02*
X106449904Y-51332238D01*
X106402285Y-51427476D01*
X106354666Y-51475095D01*
X106259428Y-51522714D01*
X106116571Y-51522714D01*
X106021333Y-51475095D01*
X106449904Y-51141761D02*
X106354666Y-51189380D01*
X106164190Y-51189380D01*
X106068952Y-51141761D01*
X106021333Y-51094142D01*
X105973714Y-50998904D01*
X105973714Y-50713190D01*
X106021333Y-50617952D01*
X106068952Y-50570333D01*
X106164190Y-50522714D01*
X106354666Y-50522714D01*
X106449904Y-50570333D01*
X108259428Y-51189380D02*
X107926095Y-50713190D01*
X107688000Y-51189380D02*
X107688000Y-50189380D01*
X108068952Y-50189380D01*
X108164190Y-50237000D01*
X108211809Y-50284619D01*
X108259428Y-50379857D01*
X108259428Y-50522714D01*
X108211809Y-50617952D01*
X108164190Y-50665571D01*
X108068952Y-50713190D01*
X107688000Y-50713190D01*
X109068952Y-51141761D02*
X108973714Y-51189380D01*
X108783238Y-51189380D01*
X108688000Y-51141761D01*
X108640380Y-51046523D01*
X108640380Y-50665571D01*
X108688000Y-50570333D01*
X108783238Y-50522714D01*
X108973714Y-50522714D01*
X109068952Y-50570333D01*
X109116571Y-50665571D01*
X109116571Y-50760809D01*
X108640380Y-50856047D01*
X109449904Y-50522714D02*
X109688000Y-51189380D01*
X109926095Y-50522714D01*
X110688000Y-51141761D02*
X110592761Y-51189380D01*
X110402285Y-51189380D01*
X110307047Y-51141761D01*
X110259428Y-51046523D01*
X110259428Y-50665571D01*
X110307047Y-50570333D01*
X110402285Y-50522714D01*
X110592761Y-50522714D01*
X110688000Y-50570333D01*
X110735619Y-50665571D01*
X110735619Y-50760809D01*
X110259428Y-50856047D01*
X111164190Y-51189380D02*
X111164190Y-50522714D01*
X111164190Y-50713190D02*
X111211809Y-50617952D01*
X111259428Y-50570333D01*
X111354666Y-50522714D01*
X111449904Y-50522714D01*
X111783238Y-51189380D02*
X111783238Y-50189380D01*
X111783238Y-50570333D02*
X111878476Y-50522714D01*
X112068952Y-50522714D01*
X112164190Y-50570333D01*
X112211809Y-50617952D01*
X112259428Y-50713190D01*
X112259428Y-50998904D01*
X112211809Y-51094142D01*
X112164190Y-51141761D01*
X112068952Y-51189380D01*
X111878476Y-51189380D01*
X111783238Y-51141761D01*
X106164190Y-52839380D02*
X106164190Y-52172714D01*
X106164190Y-52363190D02*
X106211809Y-52267952D01*
X106259428Y-52220333D01*
X106354666Y-52172714D01*
X106449904Y-52172714D01*
X106973714Y-51839380D02*
X107068952Y-51839380D01*
X107164190Y-51887000D01*
X107211809Y-51934619D01*
X107259428Y-52029857D01*
X107307047Y-52220333D01*
X107307047Y-52458428D01*
X107259428Y-52648904D01*
X107211809Y-52744142D01*
X107164190Y-52791761D01*
X107068952Y-52839380D01*
X106973714Y-52839380D01*
X106878476Y-52791761D01*
X106830857Y-52744142D01*
X106783238Y-52648904D01*
X106735619Y-52458428D01*
X106735619Y-52220333D01*
X106783238Y-52029857D01*
X106830857Y-51934619D01*
X106878476Y-51887000D01*
X106973714Y-51839380D01*
X107640380Y-51839380D02*
X108259428Y-51839380D01*
X107926095Y-52220333D01*
X108068952Y-52220333D01*
X108164190Y-52267952D01*
X108211809Y-52315571D01*
X108259428Y-52410809D01*
X108259428Y-52648904D01*
X108211809Y-52744142D01*
X108164190Y-52791761D01*
X108068952Y-52839380D01*
X107783238Y-52839380D01*
X107688000Y-52791761D01*
X107640380Y-52744142D01*
X141557476Y-149169428D02*
X142319380Y-149169428D01*
X142652714Y-148550380D02*
X142986047Y-149550380D01*
X143319380Y-148550380D01*
X133810476Y-149042428D02*
X134572380Y-149042428D01*
X134191428Y-149423380D02*
X134191428Y-148661476D01*
X134905714Y-148423380D02*
X135239047Y-149423380D01*
X135572380Y-148423380D01*
D11*
%TO.C,R16*%
X118645000Y-65754000D02*
X121385000Y-65754000D01*
X121385000Y-65754000D02*
X121385000Y-59214000D01*
X121385000Y-59214000D02*
X118645000Y-59214000D01*
X118645000Y-59214000D02*
X118645000Y-65754000D01*
X120015000Y-66524000D02*
X120015000Y-65754000D01*
X120015000Y-58444000D02*
X120015000Y-59214000D01*
%TO.C,RV2*%
X116630000Y-134730000D02*
X106890000Y-134730000D01*
X116630000Y-146320000D02*
X115140000Y-146320000D01*
X116630000Y-137790000D02*
X116630000Y-134730000D01*
X106880000Y-146320000D02*
X106880000Y-141600000D01*
X106890000Y-137790000D02*
X106890000Y-134730000D01*
X116630000Y-146320000D02*
X116630000Y-141600000D01*
X108070000Y-146320000D02*
X106890000Y-146320000D01*
X110970000Y-146320000D02*
X110440000Y-146320000D01*
X113420000Y-146320000D02*
X112590000Y-146320000D01*
%TO.C,R14*%
X141986000Y-66862000D02*
X135986000Y-66862000D01*
X134986000Y-67862000D02*
X134986000Y-73362000D01*
X135986000Y-74362000D02*
X141986000Y-74362000D01*
X143986000Y-68862000D02*
X143986000Y-72362000D01*
X140486000Y-70612000D02*
X138486000Y-70612000D01*
X139486000Y-71612000D02*
X139486000Y-69612000D01*
X140486000Y-70612000D02*
G75*
G03*
X140486000Y-70612000I-1000000J0D01*
G01*
%TO.C,R13*%
X131164000Y-118650000D02*
X128424000Y-118650000D01*
X128424000Y-118650000D02*
X128424000Y-125190000D01*
X128424000Y-125190000D02*
X131164000Y-125190000D01*
X131164000Y-125190000D02*
X131164000Y-118650000D01*
X129794000Y-117880000D02*
X129794000Y-118650000D01*
X129794000Y-125960000D02*
X129794000Y-125190000D01*
%TO.C,R2*%
X130783000Y-72676000D02*
X128043000Y-72676000D01*
X128043000Y-72676000D02*
X128043000Y-79216000D01*
X128043000Y-79216000D02*
X130783000Y-79216000D01*
X130783000Y-79216000D02*
X130783000Y-72676000D01*
X129413000Y-71906000D02*
X129413000Y-72676000D01*
X129413000Y-79986000D02*
X129413000Y-79216000D01*
%TO.C,J8*%
X133240000Y-141750000D02*
X133240000Y-147770000D01*
X133240000Y-147770000D02*
X143620000Y-147770000D01*
X143620000Y-147770000D02*
X143620000Y-141750000D01*
X143620000Y-141750000D02*
X133240000Y-141750000D01*
X132950000Y-142780000D02*
X132950000Y-146780000D01*
X134620000Y-147770000D02*
X134620000Y-146770000D01*
X134620000Y-146770000D02*
X142240000Y-146770000D01*
X142240000Y-146770000D02*
X142240000Y-147770000D01*
X134620000Y-146770000D02*
X134870000Y-146240000D01*
X134870000Y-146240000D02*
X141990000Y-146240000D01*
X141990000Y-146240000D02*
X142240000Y-146770000D01*
X134870000Y-147770000D02*
X134870000Y-146770000D01*
X141990000Y-147770000D02*
X141990000Y-146770000D01*
X133820000Y-141750000D02*
X133820000Y-142350000D01*
X133820000Y-142350000D02*
X135420000Y-142350000D01*
X135420000Y-142350000D02*
X135420000Y-141750000D01*
X136360000Y-141750000D02*
X136360000Y-142350000D01*
X136360000Y-142350000D02*
X137960000Y-142350000D01*
X137960000Y-142350000D02*
X137960000Y-141750000D01*
X138900000Y-141750000D02*
X138900000Y-142350000D01*
X138900000Y-142350000D02*
X140500000Y-142350000D01*
X140500000Y-142350000D02*
X140500000Y-141750000D01*
X141440000Y-141750000D02*
X141440000Y-142350000D01*
X141440000Y-142350000D02*
X143040000Y-142350000D01*
X143040000Y-142350000D02*
X143040000Y-141750000D01*
D12*
%TO.C,J5*%
X137414000Y-40640000D02*
X137414000Y-44450000D01*
X137414000Y-44450000D02*
X137922000Y-44958000D01*
X137922000Y-44958000D02*
X139954000Y-44958000D01*
X139954000Y-44958000D02*
X140462000Y-44450000D01*
X140462000Y-44450000D02*
X140462000Y-40640000D01*
X140716000Y-44450000D02*
X141224000Y-44958000D01*
X141224000Y-44958000D02*
X143256000Y-44958000D01*
X140716000Y-40640000D02*
X140716000Y-44450000D01*
X143764000Y-44450000D02*
X143764000Y-40640000D01*
X143256000Y-44958000D02*
X143764000Y-44450000D01*
X140716000Y-40640000D02*
G75*
G02*
X143764000Y-40640000I1524000J0D01*
G01*
X137414000Y-40640000D02*
G75*
G02*
X140462000Y-40640000I1524000J0D01*
G01*
D11*
%TO.C,J3*%
X111760000Y-59436000D02*
X114808000Y-59436000D01*
X115824000Y-60452000D02*
X115824000Y-63500000D01*
X114808000Y-59436000D02*
G75*
G02*
X115824000Y-60452000I0J-1016000D01*
G01*
X115824000Y-63500000D02*
G75*
G02*
X111760000Y-59436000I-4064000J0D01*
G01*
D12*
%TO.C,J2*%
X128016000Y-40386000D02*
X128016000Y-44196000D01*
X128016000Y-44196000D02*
X128524000Y-44704000D01*
X128524000Y-44704000D02*
X130556000Y-44704000D01*
X130556000Y-44704000D02*
X131064000Y-44196000D01*
X131064000Y-44196000D02*
X131064000Y-40386000D01*
X131318000Y-44196000D02*
X131826000Y-44704000D01*
X131826000Y-44704000D02*
X133858000Y-44704000D01*
X131318000Y-40386000D02*
X131318000Y-44196000D01*
X134366000Y-44196000D02*
X134366000Y-40386000D01*
X133858000Y-44704000D02*
X134366000Y-44196000D01*
X131318000Y-40386000D02*
G75*
G02*
X134366000Y-40386000I1524000J0D01*
G01*
X128016000Y-40386000D02*
G75*
G02*
X131064000Y-40386000I1524000J0D01*
G01*
D11*
%TO.C,C13*%
X141443225Y-134673000D02*
X141443225Y-135173000D01*
X141193225Y-134923000D02*
X141693225Y-134923000D01*
X146599000Y-136114000D02*
X146599000Y-136682000D01*
X146559000Y-135880000D02*
X146559000Y-136916000D01*
X146519000Y-135721000D02*
X146519000Y-137075000D01*
X146479000Y-135593000D02*
X146479000Y-137203000D01*
X146439000Y-135483000D02*
X146439000Y-137313000D01*
X146399000Y-135387000D02*
X146399000Y-137409000D01*
X146359000Y-135300000D02*
X146359000Y-137496000D01*
X146319000Y-135220000D02*
X146319000Y-137576000D01*
X146279000Y-137438000D02*
X146279000Y-137649000D01*
X146279000Y-135147000D02*
X146279000Y-135358000D01*
X146239000Y-137438000D02*
X146239000Y-137717000D01*
X146239000Y-135079000D02*
X146239000Y-135358000D01*
X146199000Y-137438000D02*
X146199000Y-137781000D01*
X146199000Y-135015000D02*
X146199000Y-135358000D01*
X146159000Y-137438000D02*
X146159000Y-137841000D01*
X146159000Y-134955000D02*
X146159000Y-135358000D01*
X146119000Y-137438000D02*
X146119000Y-137898000D01*
X146119000Y-134898000D02*
X146119000Y-135358000D01*
X146079000Y-137438000D02*
X146079000Y-137952000D01*
X146079000Y-134844000D02*
X146079000Y-135358000D01*
X146039000Y-137438000D02*
X146039000Y-138003000D01*
X146039000Y-134793000D02*
X146039000Y-135358000D01*
X145999000Y-137438000D02*
X145999000Y-138051000D01*
X145999000Y-134745000D02*
X145999000Y-135358000D01*
X145959000Y-137438000D02*
X145959000Y-138097000D01*
X145959000Y-134699000D02*
X145959000Y-135358000D01*
X145919000Y-137438000D02*
X145919000Y-138141000D01*
X145919000Y-134655000D02*
X145919000Y-135358000D01*
X145879000Y-137438000D02*
X145879000Y-138183000D01*
X145879000Y-134613000D02*
X145879000Y-135358000D01*
X145839000Y-137438000D02*
X145839000Y-138224000D01*
X145839000Y-134572000D02*
X145839000Y-135358000D01*
X145799000Y-137438000D02*
X145799000Y-138262000D01*
X145799000Y-134534000D02*
X145799000Y-135358000D01*
X145759000Y-137438000D02*
X145759000Y-138299000D01*
X145759000Y-134497000D02*
X145759000Y-135358000D01*
X145719000Y-137438000D02*
X145719000Y-138335000D01*
X145719000Y-134461000D02*
X145719000Y-135358000D01*
X145679000Y-137438000D02*
X145679000Y-138369000D01*
X145679000Y-134427000D02*
X145679000Y-135358000D01*
X145639000Y-137438000D02*
X145639000Y-138402000D01*
X145639000Y-134394000D02*
X145639000Y-135358000D01*
X145599000Y-137438000D02*
X145599000Y-138433000D01*
X145599000Y-134363000D02*
X145599000Y-135358000D01*
X145559000Y-137438000D02*
X145559000Y-138463000D01*
X145559000Y-134333000D02*
X145559000Y-135358000D01*
X145519000Y-137438000D02*
X145519000Y-138493000D01*
X145519000Y-134303000D02*
X145519000Y-135358000D01*
X145479000Y-137438000D02*
X145479000Y-138520000D01*
X145479000Y-134276000D02*
X145479000Y-135358000D01*
X145439000Y-137438000D02*
X145439000Y-138547000D01*
X145439000Y-134249000D02*
X145439000Y-135358000D01*
X145399000Y-137438000D02*
X145399000Y-138573000D01*
X145399000Y-134223000D02*
X145399000Y-135358000D01*
X145359000Y-137438000D02*
X145359000Y-138598000D01*
X145359000Y-134198000D02*
X145359000Y-135358000D01*
X145319000Y-137438000D02*
X145319000Y-138622000D01*
X145319000Y-134174000D02*
X145319000Y-135358000D01*
X145279000Y-137438000D02*
X145279000Y-138645000D01*
X145279000Y-134151000D02*
X145279000Y-135358000D01*
X145239000Y-137438000D02*
X145239000Y-138666000D01*
X145239000Y-134130000D02*
X145239000Y-135358000D01*
X145199000Y-137438000D02*
X145199000Y-138688000D01*
X145199000Y-134108000D02*
X145199000Y-135358000D01*
X145159000Y-137438000D02*
X145159000Y-138708000D01*
X145159000Y-134088000D02*
X145159000Y-135358000D01*
X145119000Y-137438000D02*
X145119000Y-138727000D01*
X145119000Y-134069000D02*
X145119000Y-135358000D01*
X145079000Y-137438000D02*
X145079000Y-138746000D01*
X145079000Y-134050000D02*
X145079000Y-135358000D01*
X145039000Y-137438000D02*
X145039000Y-138763000D01*
X145039000Y-134033000D02*
X145039000Y-135358000D01*
X144999000Y-137438000D02*
X144999000Y-138780000D01*
X144999000Y-134016000D02*
X144999000Y-135358000D01*
X144959000Y-137438000D02*
X144959000Y-138796000D01*
X144959000Y-134000000D02*
X144959000Y-135358000D01*
X144919000Y-137438000D02*
X144919000Y-138812000D01*
X144919000Y-133984000D02*
X144919000Y-135358000D01*
X144879000Y-137438000D02*
X144879000Y-138826000D01*
X144879000Y-133970000D02*
X144879000Y-135358000D01*
X144839000Y-137438000D02*
X144839000Y-138840000D01*
X144839000Y-133956000D02*
X144839000Y-135358000D01*
X144799000Y-137438000D02*
X144799000Y-138853000D01*
X144799000Y-133943000D02*
X144799000Y-135358000D01*
X144759000Y-137438000D02*
X144759000Y-138866000D01*
X144759000Y-133930000D02*
X144759000Y-135358000D01*
X144719000Y-137438000D02*
X144719000Y-138878000D01*
X144719000Y-133918000D02*
X144719000Y-135358000D01*
X144678000Y-137438000D02*
X144678000Y-138889000D01*
X144678000Y-133907000D02*
X144678000Y-135358000D01*
X144638000Y-137438000D02*
X144638000Y-138899000D01*
X144638000Y-133897000D02*
X144638000Y-135358000D01*
X144598000Y-137438000D02*
X144598000Y-138909000D01*
X144598000Y-133887000D02*
X144598000Y-135358000D01*
X144558000Y-137438000D02*
X144558000Y-138918000D01*
X144558000Y-133878000D02*
X144558000Y-135358000D01*
X144518000Y-137438000D02*
X144518000Y-138926000D01*
X144518000Y-133870000D02*
X144518000Y-135358000D01*
X144478000Y-137438000D02*
X144478000Y-138934000D01*
X144478000Y-133862000D02*
X144478000Y-135358000D01*
X144438000Y-137438000D02*
X144438000Y-138941000D01*
X144438000Y-133855000D02*
X144438000Y-135358000D01*
X144398000Y-137438000D02*
X144398000Y-138948000D01*
X144398000Y-133848000D02*
X144398000Y-135358000D01*
X144358000Y-137438000D02*
X144358000Y-138954000D01*
X144358000Y-133842000D02*
X144358000Y-135358000D01*
X144318000Y-137438000D02*
X144318000Y-138959000D01*
X144318000Y-133837000D02*
X144318000Y-135358000D01*
X144278000Y-137438000D02*
X144278000Y-138963000D01*
X144278000Y-133833000D02*
X144278000Y-135358000D01*
X144238000Y-137438000D02*
X144238000Y-138967000D01*
X144238000Y-133829000D02*
X144238000Y-135358000D01*
X144198000Y-133825000D02*
X144198000Y-138971000D01*
X144158000Y-133822000D02*
X144158000Y-138974000D01*
X144118000Y-133820000D02*
X144118000Y-138976000D01*
X144078000Y-133819000D02*
X144078000Y-138977000D01*
X144038000Y-133818000D02*
X144038000Y-138978000D01*
X143998000Y-133818000D02*
X143998000Y-138978000D01*
X146618000Y-136398000D02*
G75*
G03*
X146618000Y-136398000I-2620000J0D01*
G01*
%TO.C,C12*%
X134585225Y-136451000D02*
X134585225Y-136951000D01*
X134335225Y-136701000D02*
X134835225Y-136701000D01*
X139741000Y-137892000D02*
X139741000Y-138460000D01*
X139701000Y-137658000D02*
X139701000Y-138694000D01*
X139661000Y-137499000D02*
X139661000Y-138853000D01*
X139621000Y-137371000D02*
X139621000Y-138981000D01*
X139581000Y-137261000D02*
X139581000Y-139091000D01*
X139541000Y-137165000D02*
X139541000Y-139187000D01*
X139501000Y-137078000D02*
X139501000Y-139274000D01*
X139461000Y-136998000D02*
X139461000Y-139354000D01*
X139421000Y-139216000D02*
X139421000Y-139427000D01*
X139421000Y-136925000D02*
X139421000Y-137136000D01*
X139381000Y-139216000D02*
X139381000Y-139495000D01*
X139381000Y-136857000D02*
X139381000Y-137136000D01*
X139341000Y-139216000D02*
X139341000Y-139559000D01*
X139341000Y-136793000D02*
X139341000Y-137136000D01*
X139301000Y-139216000D02*
X139301000Y-139619000D01*
X139301000Y-136733000D02*
X139301000Y-137136000D01*
X139261000Y-139216000D02*
X139261000Y-139676000D01*
X139261000Y-136676000D02*
X139261000Y-137136000D01*
X139221000Y-139216000D02*
X139221000Y-139730000D01*
X139221000Y-136622000D02*
X139221000Y-137136000D01*
X139181000Y-139216000D02*
X139181000Y-139781000D01*
X139181000Y-136571000D02*
X139181000Y-137136000D01*
X139141000Y-139216000D02*
X139141000Y-139829000D01*
X139141000Y-136523000D02*
X139141000Y-137136000D01*
X139101000Y-139216000D02*
X139101000Y-139875000D01*
X139101000Y-136477000D02*
X139101000Y-137136000D01*
X139061000Y-139216000D02*
X139061000Y-139919000D01*
X139061000Y-136433000D02*
X139061000Y-137136000D01*
X139021000Y-139216000D02*
X139021000Y-139961000D01*
X139021000Y-136391000D02*
X139021000Y-137136000D01*
X138981000Y-139216000D02*
X138981000Y-140002000D01*
X138981000Y-136350000D02*
X138981000Y-137136000D01*
X138941000Y-139216000D02*
X138941000Y-140040000D01*
X138941000Y-136312000D02*
X138941000Y-137136000D01*
X138901000Y-139216000D02*
X138901000Y-140077000D01*
X138901000Y-136275000D02*
X138901000Y-137136000D01*
X138861000Y-139216000D02*
X138861000Y-140113000D01*
X138861000Y-136239000D02*
X138861000Y-137136000D01*
X138821000Y-139216000D02*
X138821000Y-140147000D01*
X138821000Y-136205000D02*
X138821000Y-137136000D01*
X138781000Y-139216000D02*
X138781000Y-140180000D01*
X138781000Y-136172000D02*
X138781000Y-137136000D01*
X138741000Y-139216000D02*
X138741000Y-140211000D01*
X138741000Y-136141000D02*
X138741000Y-137136000D01*
X138701000Y-139216000D02*
X138701000Y-140241000D01*
X138701000Y-136111000D02*
X138701000Y-137136000D01*
X138661000Y-139216000D02*
X138661000Y-140271000D01*
X138661000Y-136081000D02*
X138661000Y-137136000D01*
X138621000Y-139216000D02*
X138621000Y-140298000D01*
X138621000Y-136054000D02*
X138621000Y-137136000D01*
X138581000Y-139216000D02*
X138581000Y-140325000D01*
X138581000Y-136027000D02*
X138581000Y-137136000D01*
X138541000Y-139216000D02*
X138541000Y-140351000D01*
X138541000Y-136001000D02*
X138541000Y-137136000D01*
X138501000Y-139216000D02*
X138501000Y-140376000D01*
X138501000Y-135976000D02*
X138501000Y-137136000D01*
X138461000Y-139216000D02*
X138461000Y-140400000D01*
X138461000Y-135952000D02*
X138461000Y-137136000D01*
X138421000Y-139216000D02*
X138421000Y-140423000D01*
X138421000Y-135929000D02*
X138421000Y-137136000D01*
X138381000Y-139216000D02*
X138381000Y-140444000D01*
X138381000Y-135908000D02*
X138381000Y-137136000D01*
X138341000Y-139216000D02*
X138341000Y-140466000D01*
X138341000Y-135886000D02*
X138341000Y-137136000D01*
X138301000Y-139216000D02*
X138301000Y-140486000D01*
X138301000Y-135866000D02*
X138301000Y-137136000D01*
X138261000Y-139216000D02*
X138261000Y-140505000D01*
X138261000Y-135847000D02*
X138261000Y-137136000D01*
X138221000Y-139216000D02*
X138221000Y-140524000D01*
X138221000Y-135828000D02*
X138221000Y-137136000D01*
X138181000Y-139216000D02*
X138181000Y-140541000D01*
X138181000Y-135811000D02*
X138181000Y-137136000D01*
X138141000Y-139216000D02*
X138141000Y-140558000D01*
X138141000Y-135794000D02*
X138141000Y-137136000D01*
X138101000Y-139216000D02*
X138101000Y-140574000D01*
X138101000Y-135778000D02*
X138101000Y-137136000D01*
X138061000Y-139216000D02*
X138061000Y-140590000D01*
X138061000Y-135762000D02*
X138061000Y-137136000D01*
X138021000Y-139216000D02*
X138021000Y-140604000D01*
X138021000Y-135748000D02*
X138021000Y-137136000D01*
X137981000Y-139216000D02*
X137981000Y-140618000D01*
X137981000Y-135734000D02*
X137981000Y-137136000D01*
X137941000Y-139216000D02*
X137941000Y-140631000D01*
X137941000Y-135721000D02*
X137941000Y-137136000D01*
X137901000Y-139216000D02*
X137901000Y-140644000D01*
X137901000Y-135708000D02*
X137901000Y-137136000D01*
X137861000Y-139216000D02*
X137861000Y-140656000D01*
X137861000Y-135696000D02*
X137861000Y-137136000D01*
X137820000Y-139216000D02*
X137820000Y-140667000D01*
X137820000Y-135685000D02*
X137820000Y-137136000D01*
X137780000Y-139216000D02*
X137780000Y-140677000D01*
X137780000Y-135675000D02*
X137780000Y-137136000D01*
X137740000Y-139216000D02*
X137740000Y-140687000D01*
X137740000Y-135665000D02*
X137740000Y-137136000D01*
X137700000Y-139216000D02*
X137700000Y-140696000D01*
X137700000Y-135656000D02*
X137700000Y-137136000D01*
X137660000Y-139216000D02*
X137660000Y-140704000D01*
X137660000Y-135648000D02*
X137660000Y-137136000D01*
X137620000Y-139216000D02*
X137620000Y-140712000D01*
X137620000Y-135640000D02*
X137620000Y-137136000D01*
X137580000Y-139216000D02*
X137580000Y-140719000D01*
X137580000Y-135633000D02*
X137580000Y-137136000D01*
X137540000Y-139216000D02*
X137540000Y-140726000D01*
X137540000Y-135626000D02*
X137540000Y-137136000D01*
X137500000Y-139216000D02*
X137500000Y-140732000D01*
X137500000Y-135620000D02*
X137500000Y-137136000D01*
X137460000Y-139216000D02*
X137460000Y-140737000D01*
X137460000Y-135615000D02*
X137460000Y-137136000D01*
X137420000Y-139216000D02*
X137420000Y-140741000D01*
X137420000Y-135611000D02*
X137420000Y-137136000D01*
X137380000Y-139216000D02*
X137380000Y-140745000D01*
X137380000Y-135607000D02*
X137380000Y-137136000D01*
X137340000Y-135603000D02*
X137340000Y-140749000D01*
X137300000Y-135600000D02*
X137300000Y-140752000D01*
X137260000Y-135598000D02*
X137260000Y-140754000D01*
X137220000Y-135597000D02*
X137220000Y-140755000D01*
X137180000Y-135596000D02*
X137180000Y-140756000D01*
X137140000Y-135596000D02*
X137140000Y-140756000D01*
X139760000Y-138176000D02*
G75*
G03*
X139760000Y-138176000I-2620000J0D01*
G01*
%TO.C,C11*%
X147166000Y-67922000D02*
X144426000Y-67922000D01*
X147166000Y-60682000D02*
X144426000Y-60682000D01*
X144426000Y-60682000D02*
X144426000Y-67922000D01*
X147166000Y-60682000D02*
X147166000Y-67922000D01*
%TO.C,C9*%
X139042000Y-121566000D02*
X139042000Y-124306000D01*
X131802000Y-121566000D02*
X131802000Y-124306000D01*
X131802000Y-124306000D02*
X139042000Y-124306000D01*
X131802000Y-121566000D02*
X139042000Y-121566000D01*
%TO.C,RV3*%
X116630000Y-115680000D02*
X106890000Y-115680000D01*
X116630000Y-127270000D02*
X115140000Y-127270000D01*
X116630000Y-118740000D02*
X116630000Y-115680000D01*
X106880000Y-127270000D02*
X106880000Y-122550000D01*
X106890000Y-118740000D02*
X106890000Y-115680000D01*
X116630000Y-127270000D02*
X116630000Y-122550000D01*
X108070000Y-127270000D02*
X106890000Y-127270000D01*
X110970000Y-127270000D02*
X110440000Y-127270000D01*
X113420000Y-127270000D02*
X112590000Y-127270000D01*
%TO.C,RV1*%
X116630000Y-96630000D02*
X106890000Y-96630000D01*
X116630000Y-108220000D02*
X115140000Y-108220000D01*
X116630000Y-99690000D02*
X116630000Y-96630000D01*
X106880000Y-108220000D02*
X106880000Y-103500000D01*
X106890000Y-99690000D02*
X106890000Y-96630000D01*
X116630000Y-108220000D02*
X116630000Y-103500000D01*
X108070000Y-108220000D02*
X106890000Y-108220000D01*
X110970000Y-108220000D02*
X110440000Y-108220000D01*
X113420000Y-108220000D02*
X112590000Y-108220000D01*
%TO.C,U3*%
X139640000Y-132454000D02*
X149920000Y-132454000D01*
X139640000Y-122054000D02*
X139640000Y-132454000D01*
X149920000Y-122054000D02*
X139640000Y-122054000D01*
X149920000Y-132454000D02*
X149920000Y-122054000D01*
X142130000Y-132394000D02*
X143780000Y-132394000D01*
X142130000Y-122114000D02*
X142130000Y-132394000D01*
X147430000Y-122114000D02*
X142130000Y-122114000D01*
X147430000Y-132394000D02*
X147430000Y-122114000D01*
X145780000Y-132394000D02*
X147430000Y-132394000D01*
X143780000Y-132394000D02*
G75*
G02*
X145780000Y-132394000I1000000J0D01*
G01*
%TO.C,U2*%
X133036000Y-117468000D02*
X143316000Y-117468000D01*
X133036000Y-107068000D02*
X133036000Y-117468000D01*
X143316000Y-107068000D02*
X133036000Y-107068000D01*
X143316000Y-117468000D02*
X143316000Y-107068000D01*
X135526000Y-117408000D02*
X137176000Y-117408000D01*
X135526000Y-107128000D02*
X135526000Y-117408000D01*
X140826000Y-107128000D02*
X135526000Y-107128000D01*
X140826000Y-117408000D02*
X140826000Y-107128000D01*
X139176000Y-117408000D02*
X140826000Y-117408000D01*
X137176000Y-117408000D02*
G75*
G02*
X139176000Y-117408000I1000000J0D01*
G01*
%TO.C,U1*%
X136846000Y-59810000D02*
X147126000Y-59810000D01*
X136846000Y-49410000D02*
X136846000Y-59810000D01*
X147126000Y-49410000D02*
X136846000Y-49410000D01*
X147126000Y-59810000D02*
X147126000Y-49410000D01*
X139336000Y-59750000D02*
X140986000Y-59750000D01*
X139336000Y-49470000D02*
X139336000Y-59750000D01*
X144636000Y-49470000D02*
X139336000Y-49470000D01*
X144636000Y-59750000D02*
X144636000Y-49470000D01*
X142986000Y-59750000D02*
X144636000Y-59750000D01*
X140986000Y-59750000D02*
G75*
G02*
X142986000Y-59750000I1000000J0D01*
G01*
%TO.C,R15*%
X147728000Y-64230000D02*
X150468000Y-64230000D01*
X150468000Y-64230000D02*
X150468000Y-57690000D01*
X150468000Y-57690000D02*
X147728000Y-57690000D01*
X147728000Y-57690000D02*
X147728000Y-64230000D01*
X149098000Y-65000000D02*
X149098000Y-64230000D01*
X149098000Y-56920000D02*
X149098000Y-57690000D01*
%TO.C,R12*%
X142335000Y-81634000D02*
X142335000Y-78894000D01*
X142335000Y-78894000D02*
X135795000Y-78894000D01*
X135795000Y-78894000D02*
X135795000Y-81634000D01*
X135795000Y-81634000D02*
X142335000Y-81634000D01*
X143105000Y-80264000D02*
X142335000Y-80264000D01*
X135025000Y-80264000D02*
X135795000Y-80264000D01*
%TO.C,R11*%
X142462000Y-85063000D02*
X142462000Y-82323000D01*
X142462000Y-82323000D02*
X135922000Y-82323000D01*
X135922000Y-82323000D02*
X135922000Y-85063000D01*
X135922000Y-85063000D02*
X142462000Y-85063000D01*
X143232000Y-83693000D02*
X142462000Y-83693000D01*
X135152000Y-83693000D02*
X135922000Y-83693000D01*
%TO.C,R10*%
X135541000Y-93499000D02*
X135541000Y-96239000D01*
X135541000Y-96239000D02*
X142081000Y-96239000D01*
X142081000Y-96239000D02*
X142081000Y-93499000D01*
X142081000Y-93499000D02*
X135541000Y-93499000D01*
X134771000Y-94869000D02*
X135541000Y-94869000D01*
X142851000Y-94869000D02*
X142081000Y-94869000D01*
%TO.C,R9*%
X135541000Y-90324000D02*
X135541000Y-93064000D01*
X135541000Y-93064000D02*
X142081000Y-93064000D01*
X142081000Y-93064000D02*
X142081000Y-90324000D01*
X142081000Y-90324000D02*
X135541000Y-90324000D01*
X134771000Y-91694000D02*
X135541000Y-91694000D01*
X142851000Y-91694000D02*
X142081000Y-91694000D01*
%TO.C,R8*%
X148817000Y-83471000D02*
X146077000Y-83471000D01*
X146077000Y-83471000D02*
X146077000Y-90011000D01*
X146077000Y-90011000D02*
X148817000Y-90011000D01*
X148817000Y-90011000D02*
X148817000Y-83471000D01*
X147447000Y-82701000D02*
X147447000Y-83471000D01*
X147447000Y-90781000D02*
X147447000Y-90011000D01*
%TO.C,R7*%
X149960000Y-96425000D02*
X147220000Y-96425000D01*
X147220000Y-96425000D02*
X147220000Y-102965000D01*
X147220000Y-102965000D02*
X149960000Y-102965000D01*
X149960000Y-102965000D02*
X149960000Y-96425000D01*
X148590000Y-95655000D02*
X148590000Y-96425000D01*
X148590000Y-103735000D02*
X148590000Y-102965000D01*
%TO.C,R6*%
X143918000Y-114649000D02*
X146658000Y-114649000D01*
X146658000Y-114649000D02*
X146658000Y-108109000D01*
X146658000Y-108109000D02*
X143918000Y-108109000D01*
X143918000Y-108109000D02*
X143918000Y-114649000D01*
X145288000Y-115419000D02*
X145288000Y-114649000D01*
X145288000Y-107339000D02*
X145288000Y-108109000D01*
%TO.C,R5*%
X142970000Y-99541000D02*
X142970000Y-96801000D01*
X142970000Y-96801000D02*
X136430000Y-96801000D01*
X136430000Y-96801000D02*
X136430000Y-99541000D01*
X136430000Y-99541000D02*
X142970000Y-99541000D01*
X143740000Y-98171000D02*
X142970000Y-98171000D01*
X135660000Y-98171000D02*
X136430000Y-98171000D01*
%TO.C,R4*%
X142970000Y-103097000D02*
X142970000Y-100357000D01*
X142970000Y-100357000D02*
X136430000Y-100357000D01*
X136430000Y-100357000D02*
X136430000Y-103097000D01*
X136430000Y-103097000D02*
X142970000Y-103097000D01*
X143740000Y-101727000D02*
X142970000Y-101727000D01*
X135660000Y-101727000D02*
X136430000Y-101727000D01*
%TO.C,R3*%
X127662000Y-58134000D02*
X130402000Y-58134000D01*
X130402000Y-58134000D02*
X130402000Y-51594000D01*
X130402000Y-51594000D02*
X127662000Y-51594000D01*
X127662000Y-51594000D02*
X127662000Y-58134000D01*
X129032000Y-58904000D02*
X129032000Y-58134000D01*
X129032000Y-50824000D02*
X129032000Y-51594000D01*
%TO.C,R1*%
X137890000Y-48360000D02*
X137890000Y-45620000D01*
X137890000Y-45620000D02*
X131350000Y-45620000D01*
X131350000Y-45620000D02*
X131350000Y-48360000D01*
X131350000Y-48360000D02*
X137890000Y-48360000D01*
X138660000Y-46990000D02*
X137890000Y-46990000D01*
X130580000Y-46990000D02*
X131350000Y-46990000D01*
%TO.C,J4*%
X111760000Y-40386000D02*
X114808000Y-40386000D01*
X115824000Y-41402000D02*
X115824000Y-44450000D01*
X114808000Y-40386000D02*
G75*
G02*
X115824000Y-41402000I0J-1016000D01*
G01*
X115824000Y-44450000D02*
G75*
G02*
X111760000Y-40386000I-4064000J0D01*
G01*
%TO.C,J1*%
X111760000Y-78486000D02*
X114808000Y-78486000D01*
X115824000Y-79502000D02*
X115824000Y-82550000D01*
X114808000Y-78486000D02*
G75*
G02*
X115824000Y-79502000I0J-1016000D01*
G01*
X115824000Y-82550000D02*
G75*
G02*
X111760000Y-78486000I-4064000J0D01*
G01*
%TO.C,D2*%
X147450000Y-146230000D02*
X147120000Y-146230000D01*
X147120000Y-146230000D02*
X147120000Y-140790000D01*
X147120000Y-140790000D02*
X147450000Y-140790000D01*
X149730000Y-146230000D02*
X150060000Y-146230000D01*
X150060000Y-146230000D02*
X150060000Y-140790000D01*
X150060000Y-140790000D02*
X149730000Y-140790000D01*
X147120000Y-145330000D02*
X150060000Y-145330000D01*
X147120000Y-145210000D02*
X150060000Y-145210000D01*
X147120000Y-145450000D02*
X150060000Y-145450000D01*
%TO.C,D1*%
X130680000Y-140790000D02*
X131010000Y-140790000D01*
X131010000Y-140790000D02*
X131010000Y-146230000D01*
X131010000Y-146230000D02*
X130680000Y-146230000D01*
X128400000Y-140790000D02*
X128070000Y-140790000D01*
X128070000Y-140790000D02*
X128070000Y-146230000D01*
X128070000Y-146230000D02*
X128400000Y-146230000D01*
X131010000Y-141690000D02*
X128070000Y-141690000D01*
X131010000Y-141810000D02*
X128070000Y-141810000D01*
X131010000Y-141570000D02*
X128070000Y-141570000D01*
%TO.C,C19*%
X148440000Y-45620000D02*
X148440000Y-48360000D01*
X141200000Y-45620000D02*
X141200000Y-48360000D01*
X141200000Y-48360000D02*
X148440000Y-48360000D01*
X141200000Y-45620000D02*
X148440000Y-45620000D01*
%TO.C,C18*%
X135790000Y-124690000D02*
X138530000Y-124690000D01*
X135790000Y-131930000D02*
X138530000Y-131930000D01*
X138530000Y-131930000D02*
X138530000Y-124690000D01*
X135790000Y-131930000D02*
X135790000Y-124690000D01*
%TO.C,C17*%
X149630000Y-118010000D02*
X149630000Y-120750000D01*
X142390000Y-118010000D02*
X142390000Y-120750000D01*
X142390000Y-120750000D02*
X149630000Y-120750000D01*
X142390000Y-118010000D02*
X149630000Y-118010000D01*
%TO.C,C16*%
X133758000Y-52300000D02*
X136498000Y-52300000D01*
X133758000Y-59540000D02*
X136498000Y-59540000D01*
X136498000Y-59540000D02*
X136498000Y-52300000D01*
X133758000Y-59540000D02*
X133758000Y-52300000D01*
%TO.C,C15*%
X143106000Y-103786000D02*
X143106000Y-106526000D01*
X135866000Y-103786000D02*
X135866000Y-106526000D01*
X135866000Y-106526000D02*
X143106000Y-106526000D01*
X135866000Y-103786000D02*
X143106000Y-103786000D01*
%TO.C,C14*%
X132992000Y-120750000D02*
X132992000Y-118010000D01*
X140232000Y-120750000D02*
X140232000Y-118010000D01*
X140232000Y-118010000D02*
X132992000Y-118010000D01*
X140232000Y-120750000D02*
X132992000Y-120750000D01*
%TO.C,C10*%
X142528775Y-64971000D02*
X142528775Y-64471000D01*
X142778775Y-64721000D02*
X142278775Y-64721000D01*
X137373000Y-63530000D02*
X137373000Y-62962000D01*
X137413000Y-63764000D02*
X137413000Y-62728000D01*
X137453000Y-63923000D02*
X137453000Y-62569000D01*
X137493000Y-64051000D02*
X137493000Y-62441000D01*
X137533000Y-64161000D02*
X137533000Y-62331000D01*
X137573000Y-64257000D02*
X137573000Y-62235000D01*
X137613000Y-64344000D02*
X137613000Y-62148000D01*
X137653000Y-64424000D02*
X137653000Y-62068000D01*
X137693000Y-62206000D02*
X137693000Y-61995000D01*
X137693000Y-64497000D02*
X137693000Y-64286000D01*
X137733000Y-62206000D02*
X137733000Y-61927000D01*
X137733000Y-64565000D02*
X137733000Y-64286000D01*
X137773000Y-62206000D02*
X137773000Y-61863000D01*
X137773000Y-64629000D02*
X137773000Y-64286000D01*
X137813000Y-62206000D02*
X137813000Y-61803000D01*
X137813000Y-64689000D02*
X137813000Y-64286000D01*
X137853000Y-62206000D02*
X137853000Y-61746000D01*
X137853000Y-64746000D02*
X137853000Y-64286000D01*
X137893000Y-62206000D02*
X137893000Y-61692000D01*
X137893000Y-64800000D02*
X137893000Y-64286000D01*
X137933000Y-62206000D02*
X137933000Y-61641000D01*
X137933000Y-64851000D02*
X137933000Y-64286000D01*
X137973000Y-62206000D02*
X137973000Y-61593000D01*
X137973000Y-64899000D02*
X137973000Y-64286000D01*
X138013000Y-62206000D02*
X138013000Y-61547000D01*
X138013000Y-64945000D02*
X138013000Y-64286000D01*
X138053000Y-62206000D02*
X138053000Y-61503000D01*
X138053000Y-64989000D02*
X138053000Y-64286000D01*
X138093000Y-62206000D02*
X138093000Y-61461000D01*
X138093000Y-65031000D02*
X138093000Y-64286000D01*
X138133000Y-62206000D02*
X138133000Y-61420000D01*
X138133000Y-65072000D02*
X138133000Y-64286000D01*
X138173000Y-62206000D02*
X138173000Y-61382000D01*
X138173000Y-65110000D02*
X138173000Y-64286000D01*
X138213000Y-62206000D02*
X138213000Y-61345000D01*
X138213000Y-65147000D02*
X138213000Y-64286000D01*
X138253000Y-62206000D02*
X138253000Y-61309000D01*
X138253000Y-65183000D02*
X138253000Y-64286000D01*
X138293000Y-62206000D02*
X138293000Y-61275000D01*
X138293000Y-65217000D02*
X138293000Y-64286000D01*
X138333000Y-62206000D02*
X138333000Y-61242000D01*
X138333000Y-65250000D02*
X138333000Y-64286000D01*
X138373000Y-62206000D02*
X138373000Y-61211000D01*
X138373000Y-65281000D02*
X138373000Y-64286000D01*
X138413000Y-62206000D02*
X138413000Y-61181000D01*
X138413000Y-65311000D02*
X138413000Y-64286000D01*
X138453000Y-62206000D02*
X138453000Y-61151000D01*
X138453000Y-65341000D02*
X138453000Y-64286000D01*
X138493000Y-62206000D02*
X138493000Y-61124000D01*
X138493000Y-65368000D02*
X138493000Y-64286000D01*
X138533000Y-62206000D02*
X138533000Y-61097000D01*
X138533000Y-65395000D02*
X138533000Y-64286000D01*
X138573000Y-62206000D02*
X138573000Y-61071000D01*
X138573000Y-65421000D02*
X138573000Y-64286000D01*
X138613000Y-62206000D02*
X138613000Y-61046000D01*
X138613000Y-65446000D02*
X138613000Y-64286000D01*
X138653000Y-62206000D02*
X138653000Y-61022000D01*
X138653000Y-65470000D02*
X138653000Y-64286000D01*
X138693000Y-62206000D02*
X138693000Y-60999000D01*
X138693000Y-65493000D02*
X138693000Y-64286000D01*
X138733000Y-62206000D02*
X138733000Y-60978000D01*
X138733000Y-65514000D02*
X138733000Y-64286000D01*
X138773000Y-62206000D02*
X138773000Y-60956000D01*
X138773000Y-65536000D02*
X138773000Y-64286000D01*
X138813000Y-62206000D02*
X138813000Y-60936000D01*
X138813000Y-65556000D02*
X138813000Y-64286000D01*
X138853000Y-62206000D02*
X138853000Y-60917000D01*
X138853000Y-65575000D02*
X138853000Y-64286000D01*
X138893000Y-62206000D02*
X138893000Y-60898000D01*
X138893000Y-65594000D02*
X138893000Y-64286000D01*
X138933000Y-62206000D02*
X138933000Y-60881000D01*
X138933000Y-65611000D02*
X138933000Y-64286000D01*
X138973000Y-62206000D02*
X138973000Y-60864000D01*
X138973000Y-65628000D02*
X138973000Y-64286000D01*
X139013000Y-62206000D02*
X139013000Y-60848000D01*
X139013000Y-65644000D02*
X139013000Y-64286000D01*
X139053000Y-62206000D02*
X139053000Y-60832000D01*
X139053000Y-65660000D02*
X139053000Y-64286000D01*
X139093000Y-62206000D02*
X139093000Y-60818000D01*
X139093000Y-65674000D02*
X139093000Y-64286000D01*
X139133000Y-62206000D02*
X139133000Y-60804000D01*
X139133000Y-65688000D02*
X139133000Y-64286000D01*
X139173000Y-62206000D02*
X139173000Y-60791000D01*
X139173000Y-65701000D02*
X139173000Y-64286000D01*
X139213000Y-62206000D02*
X139213000Y-60778000D01*
X139213000Y-65714000D02*
X139213000Y-64286000D01*
X139253000Y-62206000D02*
X139253000Y-60766000D01*
X139253000Y-65726000D02*
X139253000Y-64286000D01*
X139294000Y-62206000D02*
X139294000Y-60755000D01*
X139294000Y-65737000D02*
X139294000Y-64286000D01*
X139334000Y-62206000D02*
X139334000Y-60745000D01*
X139334000Y-65747000D02*
X139334000Y-64286000D01*
X139374000Y-62206000D02*
X139374000Y-60735000D01*
X139374000Y-65757000D02*
X139374000Y-64286000D01*
X139414000Y-62206000D02*
X139414000Y-60726000D01*
X139414000Y-65766000D02*
X139414000Y-64286000D01*
X139454000Y-62206000D02*
X139454000Y-60718000D01*
X139454000Y-65774000D02*
X139454000Y-64286000D01*
X139494000Y-62206000D02*
X139494000Y-60710000D01*
X139494000Y-65782000D02*
X139494000Y-64286000D01*
X139534000Y-62206000D02*
X139534000Y-60703000D01*
X139534000Y-65789000D02*
X139534000Y-64286000D01*
X139574000Y-62206000D02*
X139574000Y-60696000D01*
X139574000Y-65796000D02*
X139574000Y-64286000D01*
X139614000Y-62206000D02*
X139614000Y-60690000D01*
X139614000Y-65802000D02*
X139614000Y-64286000D01*
X139654000Y-62206000D02*
X139654000Y-60685000D01*
X139654000Y-65807000D02*
X139654000Y-64286000D01*
X139694000Y-62206000D02*
X139694000Y-60681000D01*
X139694000Y-65811000D02*
X139694000Y-64286000D01*
X139734000Y-62206000D02*
X139734000Y-60677000D01*
X139734000Y-65815000D02*
X139734000Y-64286000D01*
X139774000Y-65819000D02*
X139774000Y-60673000D01*
X139814000Y-65822000D02*
X139814000Y-60670000D01*
X139854000Y-65824000D02*
X139854000Y-60668000D01*
X139894000Y-65825000D02*
X139894000Y-60667000D01*
X139934000Y-65826000D02*
X139934000Y-60666000D01*
X139974000Y-65826000D02*
X139974000Y-60666000D01*
X142594000Y-63246000D02*
G75*
G03*
X142594000Y-63246000I-2620000J0D01*
G01*
%TO.C,C8*%
X128932000Y-108180000D02*
X131672000Y-108180000D01*
X128932000Y-115420000D02*
X131672000Y-115420000D01*
X131672000Y-115420000D02*
X131672000Y-108180000D01*
X128932000Y-115420000D02*
X128932000Y-108180000D01*
%TO.C,C7*%
X140105000Y-75465000D02*
X140105000Y-78205000D01*
X132865000Y-75465000D02*
X132865000Y-78205000D01*
X132865000Y-78205000D02*
X140105000Y-78205000D01*
X132865000Y-75465000D02*
X140105000Y-75465000D01*
%TO.C,C6*%
X140232000Y-86133000D02*
X140232000Y-88873000D01*
X132992000Y-86133000D02*
X132992000Y-88873000D01*
X132992000Y-88873000D02*
X140232000Y-88873000D01*
X132992000Y-86133000D02*
X140232000Y-86133000D01*
%TO.C,C5*%
X147220000Y-108942000D02*
X149960000Y-108942000D01*
X147220000Y-116182000D02*
X149960000Y-116182000D01*
X149960000Y-116182000D02*
X149960000Y-108942000D01*
X147220000Y-116182000D02*
X147220000Y-108942000D01*
%TO.C,C4*%
X130710000Y-48918000D02*
X133450000Y-48918000D01*
X130710000Y-56158000D02*
X133450000Y-56158000D01*
X133450000Y-56158000D02*
X133450000Y-48918000D01*
X130710000Y-56158000D02*
X130710000Y-48918000D01*
%TO.C,C3*%
X128910000Y-68737241D02*
X129540000Y-68737241D01*
X129225000Y-69052241D02*
X129225000Y-68422241D01*
X130662000Y-62311000D02*
X131466000Y-62311000D01*
X130431000Y-62351000D02*
X131697000Y-62351000D01*
X130262000Y-62391000D02*
X131866000Y-62391000D01*
X130124000Y-62431000D02*
X132004000Y-62431000D01*
X130005000Y-62471000D02*
X132123000Y-62471000D01*
X129899000Y-62511000D02*
X132229000Y-62511000D01*
X129802000Y-62551000D02*
X132326000Y-62551000D01*
X129714000Y-62591000D02*
X132414000Y-62591000D01*
X129632000Y-62631000D02*
X132496000Y-62631000D01*
X129555000Y-62671000D02*
X132573000Y-62671000D01*
X129483000Y-62711000D02*
X132645000Y-62711000D01*
X129414000Y-62751000D02*
X132714000Y-62751000D01*
X129350000Y-62791000D02*
X132778000Y-62791000D01*
X129288000Y-62831000D02*
X132840000Y-62831000D01*
X129230000Y-62871000D02*
X132898000Y-62871000D01*
X129174000Y-62911000D02*
X132954000Y-62911000D01*
X129120000Y-62951000D02*
X133008000Y-62951000D01*
X129069000Y-62991000D02*
X133059000Y-62991000D01*
X129020000Y-63031000D02*
X133108000Y-63031000D01*
X128972000Y-63071000D02*
X133156000Y-63071000D01*
X128927000Y-63111000D02*
X133201000Y-63111000D01*
X128882000Y-63151000D02*
X133246000Y-63151000D01*
X128840000Y-63191000D02*
X133288000Y-63191000D01*
X128799000Y-63231000D02*
X133329000Y-63231000D01*
X132104000Y-63271000D02*
X133369000Y-63271000D01*
X128759000Y-63271000D02*
X130024000Y-63271000D01*
X132104000Y-63311000D02*
X133407000Y-63311000D01*
X128721000Y-63311000D02*
X130024000Y-63311000D01*
X132104000Y-63351000D02*
X133444000Y-63351000D01*
X128684000Y-63351000D02*
X130024000Y-63351000D01*
X132104000Y-63391000D02*
X133480000Y-63391000D01*
X128648000Y-63391000D02*
X130024000Y-63391000D01*
X132104000Y-63431000D02*
X133514000Y-63431000D01*
X128614000Y-63431000D02*
X130024000Y-63431000D01*
X132104000Y-63471000D02*
X133548000Y-63471000D01*
X128580000Y-63471000D02*
X130024000Y-63471000D01*
X132104000Y-63511000D02*
X133580000Y-63511000D01*
X128548000Y-63511000D02*
X130024000Y-63511000D01*
X132104000Y-63551000D02*
X133612000Y-63551000D01*
X128516000Y-63551000D02*
X130024000Y-63551000D01*
X132104000Y-63591000D02*
X133642000Y-63591000D01*
X128486000Y-63591000D02*
X130024000Y-63591000D01*
X132104000Y-63631000D02*
X133671000Y-63631000D01*
X128457000Y-63631000D02*
X130024000Y-63631000D01*
X132104000Y-63671000D02*
X133700000Y-63671000D01*
X128428000Y-63671000D02*
X130024000Y-63671000D01*
X132104000Y-63711000D02*
X133728000Y-63711000D01*
X128400000Y-63711000D02*
X130024000Y-63711000D01*
X132104000Y-63751000D02*
X133754000Y-63751000D01*
X128374000Y-63751000D02*
X130024000Y-63751000D01*
X132104000Y-63791000D02*
X133780000Y-63791000D01*
X128348000Y-63791000D02*
X130024000Y-63791000D01*
X132104000Y-63831000D02*
X133806000Y-63831000D01*
X128322000Y-63831000D02*
X130024000Y-63831000D01*
X132104000Y-63871000D02*
X133830000Y-63871000D01*
X128298000Y-63871000D02*
X130024000Y-63871000D01*
X132104000Y-63911000D02*
X133854000Y-63911000D01*
X128274000Y-63911000D02*
X130024000Y-63911000D01*
X132104000Y-63951000D02*
X133876000Y-63951000D01*
X128252000Y-63951000D02*
X130024000Y-63951000D01*
X132104000Y-63991000D02*
X133898000Y-63991000D01*
X128230000Y-63991000D02*
X130024000Y-63991000D01*
X132104000Y-64031000D02*
X133920000Y-64031000D01*
X128208000Y-64031000D02*
X130024000Y-64031000D01*
X132104000Y-64071000D02*
X133940000Y-64071000D01*
X128188000Y-64071000D02*
X130024000Y-64071000D01*
X132104000Y-64111000D02*
X133960000Y-64111000D01*
X128168000Y-64111000D02*
X130024000Y-64111000D01*
X132104000Y-64151000D02*
X133980000Y-64151000D01*
X128148000Y-64151000D02*
X130024000Y-64151000D01*
X132104000Y-64191000D02*
X133998000Y-64191000D01*
X128130000Y-64191000D02*
X130024000Y-64191000D01*
X132104000Y-64231000D02*
X134016000Y-64231000D01*
X128112000Y-64231000D02*
X130024000Y-64231000D01*
X132104000Y-64271000D02*
X134034000Y-64271000D01*
X128094000Y-64271000D02*
X130024000Y-64271000D01*
X132104000Y-64311000D02*
X134050000Y-64311000D01*
X128078000Y-64311000D02*
X130024000Y-64311000D01*
X132104000Y-64351000D02*
X134066000Y-64351000D01*
X128062000Y-64351000D02*
X130024000Y-64351000D01*
X132104000Y-64391000D02*
X134082000Y-64391000D01*
X128046000Y-64391000D02*
X130024000Y-64391000D01*
X132104000Y-64431000D02*
X134097000Y-64431000D01*
X128031000Y-64431000D02*
X130024000Y-64431000D01*
X132104000Y-64471000D02*
X134111000Y-64471000D01*
X128017000Y-64471000D02*
X130024000Y-64471000D01*
X132104000Y-64511000D02*
X134125000Y-64511000D01*
X128003000Y-64511000D02*
X130024000Y-64511000D01*
X132104000Y-64551000D02*
X134138000Y-64551000D01*
X127990000Y-64551000D02*
X130024000Y-64551000D01*
X132104000Y-64591000D02*
X134150000Y-64591000D01*
X127978000Y-64591000D02*
X130024000Y-64591000D01*
X132104000Y-64631000D02*
X134162000Y-64631000D01*
X127966000Y-64631000D02*
X130024000Y-64631000D01*
X132104000Y-64671000D02*
X134174000Y-64671000D01*
X127954000Y-64671000D02*
X130024000Y-64671000D01*
X132104000Y-64711000D02*
X134185000Y-64711000D01*
X127943000Y-64711000D02*
X130024000Y-64711000D01*
X132104000Y-64751000D02*
X134195000Y-64751000D01*
X127933000Y-64751000D02*
X130024000Y-64751000D01*
X132104000Y-64791000D02*
X134205000Y-64791000D01*
X127923000Y-64791000D02*
X130024000Y-64791000D01*
X132104000Y-64831000D02*
X134214000Y-64831000D01*
X127914000Y-64831000D02*
X130024000Y-64831000D01*
X132104000Y-64872000D02*
X134223000Y-64872000D01*
X127905000Y-64872000D02*
X130024000Y-64872000D01*
X132104000Y-64912000D02*
X134231000Y-64912000D01*
X127897000Y-64912000D02*
X130024000Y-64912000D01*
X132104000Y-64952000D02*
X134239000Y-64952000D01*
X127889000Y-64952000D02*
X130024000Y-64952000D01*
X132104000Y-64992000D02*
X134246000Y-64992000D01*
X127882000Y-64992000D02*
X130024000Y-64992000D01*
X132104000Y-65032000D02*
X134253000Y-65032000D01*
X127875000Y-65032000D02*
X130024000Y-65032000D01*
X132104000Y-65072000D02*
X134259000Y-65072000D01*
X127869000Y-65072000D02*
X130024000Y-65072000D01*
X132104000Y-65112000D02*
X134265000Y-65112000D01*
X127863000Y-65112000D02*
X130024000Y-65112000D01*
X132104000Y-65152000D02*
X134270000Y-65152000D01*
X127858000Y-65152000D02*
X130024000Y-65152000D01*
X132104000Y-65192000D02*
X134275000Y-65192000D01*
X127853000Y-65192000D02*
X130024000Y-65192000D01*
X132104000Y-65232000D02*
X134279000Y-65232000D01*
X127849000Y-65232000D02*
X130024000Y-65232000D01*
X132104000Y-65272000D02*
X134282000Y-65272000D01*
X127846000Y-65272000D02*
X130024000Y-65272000D01*
X132104000Y-65312000D02*
X134286000Y-65312000D01*
X127842000Y-65312000D02*
X130024000Y-65312000D01*
X127840000Y-65352000D02*
X134288000Y-65352000D01*
X127837000Y-65392000D02*
X134291000Y-65392000D01*
X127836000Y-65432000D02*
X134292000Y-65432000D01*
X127834000Y-65472000D02*
X134294000Y-65472000D01*
X127834000Y-65512000D02*
X134294000Y-65512000D01*
X127834000Y-65552000D02*
X134294000Y-65552000D01*
X134334000Y-65552000D02*
G75*
G03*
X134334000Y-65552000I-3270000J0D01*
G01*
%TO.C,C2*%
X117274000Y-75726775D02*
X117774000Y-75726775D01*
X117524000Y-75976775D02*
X117524000Y-75476775D01*
X118715000Y-70571000D02*
X119283000Y-70571000D01*
X118481000Y-70611000D02*
X119517000Y-70611000D01*
X118322000Y-70651000D02*
X119676000Y-70651000D01*
X118194000Y-70691000D02*
X119804000Y-70691000D01*
X118084000Y-70731000D02*
X119914000Y-70731000D01*
X117988000Y-70771000D02*
X120010000Y-70771000D01*
X117901000Y-70811000D02*
X120097000Y-70811000D01*
X117821000Y-70851000D02*
X120177000Y-70851000D01*
X120039000Y-70891000D02*
X120250000Y-70891000D01*
X117748000Y-70891000D02*
X117959000Y-70891000D01*
X120039000Y-70931000D02*
X120318000Y-70931000D01*
X117680000Y-70931000D02*
X117959000Y-70931000D01*
X120039000Y-70971000D02*
X120382000Y-70971000D01*
X117616000Y-70971000D02*
X117959000Y-70971000D01*
X120039000Y-71011000D02*
X120442000Y-71011000D01*
X117556000Y-71011000D02*
X117959000Y-71011000D01*
X120039000Y-71051000D02*
X120499000Y-71051000D01*
X117499000Y-71051000D02*
X117959000Y-71051000D01*
X120039000Y-71091000D02*
X120553000Y-71091000D01*
X117445000Y-71091000D02*
X117959000Y-71091000D01*
X120039000Y-71131000D02*
X120604000Y-71131000D01*
X117394000Y-71131000D02*
X117959000Y-71131000D01*
X120039000Y-71171000D02*
X120652000Y-71171000D01*
X117346000Y-71171000D02*
X117959000Y-71171000D01*
X120039000Y-71211000D02*
X120698000Y-71211000D01*
X117300000Y-71211000D02*
X117959000Y-71211000D01*
X120039000Y-71251000D02*
X120742000Y-71251000D01*
X117256000Y-71251000D02*
X117959000Y-71251000D01*
X120039000Y-71291000D02*
X120784000Y-71291000D01*
X117214000Y-71291000D02*
X117959000Y-71291000D01*
X120039000Y-71331000D02*
X120825000Y-71331000D01*
X117173000Y-71331000D02*
X117959000Y-71331000D01*
X120039000Y-71371000D02*
X120863000Y-71371000D01*
X117135000Y-71371000D02*
X117959000Y-71371000D01*
X120039000Y-71411000D02*
X120900000Y-71411000D01*
X117098000Y-71411000D02*
X117959000Y-71411000D01*
X120039000Y-71451000D02*
X120936000Y-71451000D01*
X117062000Y-71451000D02*
X117959000Y-71451000D01*
X120039000Y-71491000D02*
X120970000Y-71491000D01*
X117028000Y-71491000D02*
X117959000Y-71491000D01*
X120039000Y-71531000D02*
X121003000Y-71531000D01*
X116995000Y-71531000D02*
X117959000Y-71531000D01*
X120039000Y-71571000D02*
X121034000Y-71571000D01*
X116964000Y-71571000D02*
X117959000Y-71571000D01*
X120039000Y-71611000D02*
X121064000Y-71611000D01*
X116934000Y-71611000D02*
X117959000Y-71611000D01*
X120039000Y-71651000D02*
X121094000Y-71651000D01*
X116904000Y-71651000D02*
X117959000Y-71651000D01*
X120039000Y-71691000D02*
X121121000Y-71691000D01*
X116877000Y-71691000D02*
X117959000Y-71691000D01*
X120039000Y-71731000D02*
X121148000Y-71731000D01*
X116850000Y-71731000D02*
X117959000Y-71731000D01*
X120039000Y-71771000D02*
X121174000Y-71771000D01*
X116824000Y-71771000D02*
X117959000Y-71771000D01*
X120039000Y-71811000D02*
X121199000Y-71811000D01*
X116799000Y-71811000D02*
X117959000Y-71811000D01*
X120039000Y-71851000D02*
X121223000Y-71851000D01*
X116775000Y-71851000D02*
X117959000Y-71851000D01*
X120039000Y-71891000D02*
X121246000Y-71891000D01*
X116752000Y-71891000D02*
X117959000Y-71891000D01*
X120039000Y-71931000D02*
X121267000Y-71931000D01*
X116731000Y-71931000D02*
X117959000Y-71931000D01*
X120039000Y-71971000D02*
X121289000Y-71971000D01*
X116709000Y-71971000D02*
X117959000Y-71971000D01*
X120039000Y-72011000D02*
X121309000Y-72011000D01*
X116689000Y-72011000D02*
X117959000Y-72011000D01*
X120039000Y-72051000D02*
X121328000Y-72051000D01*
X116670000Y-72051000D02*
X117959000Y-72051000D01*
X120039000Y-72091000D02*
X121347000Y-72091000D01*
X116651000Y-72091000D02*
X117959000Y-72091000D01*
X120039000Y-72131000D02*
X121364000Y-72131000D01*
X116634000Y-72131000D02*
X117959000Y-72131000D01*
X120039000Y-72171000D02*
X121381000Y-72171000D01*
X116617000Y-72171000D02*
X117959000Y-72171000D01*
X120039000Y-72211000D02*
X121397000Y-72211000D01*
X116601000Y-72211000D02*
X117959000Y-72211000D01*
X120039000Y-72251000D02*
X121413000Y-72251000D01*
X116585000Y-72251000D02*
X117959000Y-72251000D01*
X120039000Y-72291000D02*
X121427000Y-72291000D01*
X116571000Y-72291000D02*
X117959000Y-72291000D01*
X120039000Y-72331000D02*
X121441000Y-72331000D01*
X116557000Y-72331000D02*
X117959000Y-72331000D01*
X120039000Y-72371000D02*
X121454000Y-72371000D01*
X116544000Y-72371000D02*
X117959000Y-72371000D01*
X120039000Y-72411000D02*
X121467000Y-72411000D01*
X116531000Y-72411000D02*
X117959000Y-72411000D01*
X120039000Y-72451000D02*
X121479000Y-72451000D01*
X116519000Y-72451000D02*
X117959000Y-72451000D01*
X120039000Y-72492000D02*
X121490000Y-72492000D01*
X116508000Y-72492000D02*
X117959000Y-72492000D01*
X120039000Y-72532000D02*
X121500000Y-72532000D01*
X116498000Y-72532000D02*
X117959000Y-72532000D01*
X120039000Y-72572000D02*
X121510000Y-72572000D01*
X116488000Y-72572000D02*
X117959000Y-72572000D01*
X120039000Y-72612000D02*
X121519000Y-72612000D01*
X116479000Y-72612000D02*
X117959000Y-72612000D01*
X120039000Y-72652000D02*
X121527000Y-72652000D01*
X116471000Y-72652000D02*
X117959000Y-72652000D01*
X120039000Y-72692000D02*
X121535000Y-72692000D01*
X116463000Y-72692000D02*
X117959000Y-72692000D01*
X120039000Y-72732000D02*
X121542000Y-72732000D01*
X116456000Y-72732000D02*
X117959000Y-72732000D01*
X120039000Y-72772000D02*
X121549000Y-72772000D01*
X116449000Y-72772000D02*
X117959000Y-72772000D01*
X120039000Y-72812000D02*
X121555000Y-72812000D01*
X116443000Y-72812000D02*
X117959000Y-72812000D01*
X120039000Y-72852000D02*
X121560000Y-72852000D01*
X116438000Y-72852000D02*
X117959000Y-72852000D01*
X120039000Y-72892000D02*
X121564000Y-72892000D01*
X116434000Y-72892000D02*
X117959000Y-72892000D01*
X120039000Y-72932000D02*
X121568000Y-72932000D01*
X116430000Y-72932000D02*
X117959000Y-72932000D01*
X116426000Y-72972000D02*
X121572000Y-72972000D01*
X116423000Y-73012000D02*
X121575000Y-73012000D01*
X116421000Y-73052000D02*
X121577000Y-73052000D01*
X116420000Y-73092000D02*
X121578000Y-73092000D01*
X116419000Y-73132000D02*
X121579000Y-73132000D01*
X116419000Y-73172000D02*
X121579000Y-73172000D01*
X121619000Y-73172000D02*
G75*
G03*
X121619000Y-73172000I-2620000J0D01*
G01*
%TO.C,C1*%
X112829000Y-95157775D02*
X113329000Y-95157775D01*
X113079000Y-95407775D02*
X113079000Y-94907775D01*
X114270000Y-90002000D02*
X114838000Y-90002000D01*
X114036000Y-90042000D02*
X115072000Y-90042000D01*
X113877000Y-90082000D02*
X115231000Y-90082000D01*
X113749000Y-90122000D02*
X115359000Y-90122000D01*
X113639000Y-90162000D02*
X115469000Y-90162000D01*
X113543000Y-90202000D02*
X115565000Y-90202000D01*
X113456000Y-90242000D02*
X115652000Y-90242000D01*
X113376000Y-90282000D02*
X115732000Y-90282000D01*
X115594000Y-90322000D02*
X115805000Y-90322000D01*
X113303000Y-90322000D02*
X113514000Y-90322000D01*
X115594000Y-90362000D02*
X115873000Y-90362000D01*
X113235000Y-90362000D02*
X113514000Y-90362000D01*
X115594000Y-90402000D02*
X115937000Y-90402000D01*
X113171000Y-90402000D02*
X113514000Y-90402000D01*
X115594000Y-90442000D02*
X115997000Y-90442000D01*
X113111000Y-90442000D02*
X113514000Y-90442000D01*
X115594000Y-90482000D02*
X116054000Y-90482000D01*
X113054000Y-90482000D02*
X113514000Y-90482000D01*
X115594000Y-90522000D02*
X116108000Y-90522000D01*
X113000000Y-90522000D02*
X113514000Y-90522000D01*
X115594000Y-90562000D02*
X116159000Y-90562000D01*
X112949000Y-90562000D02*
X113514000Y-90562000D01*
X115594000Y-90602000D02*
X116207000Y-90602000D01*
X112901000Y-90602000D02*
X113514000Y-90602000D01*
X115594000Y-90642000D02*
X116253000Y-90642000D01*
X112855000Y-90642000D02*
X113514000Y-90642000D01*
X115594000Y-90682000D02*
X116297000Y-90682000D01*
X112811000Y-90682000D02*
X113514000Y-90682000D01*
X115594000Y-90722000D02*
X116339000Y-90722000D01*
X112769000Y-90722000D02*
X113514000Y-90722000D01*
X115594000Y-90762000D02*
X116380000Y-90762000D01*
X112728000Y-90762000D02*
X113514000Y-90762000D01*
X115594000Y-90802000D02*
X116418000Y-90802000D01*
X112690000Y-90802000D02*
X113514000Y-90802000D01*
X115594000Y-90842000D02*
X116455000Y-90842000D01*
X112653000Y-90842000D02*
X113514000Y-90842000D01*
X115594000Y-90882000D02*
X116491000Y-90882000D01*
X112617000Y-90882000D02*
X113514000Y-90882000D01*
X115594000Y-90922000D02*
X116525000Y-90922000D01*
X112583000Y-90922000D02*
X113514000Y-90922000D01*
X115594000Y-90962000D02*
X116558000Y-90962000D01*
X112550000Y-90962000D02*
X113514000Y-90962000D01*
X115594000Y-91002000D02*
X116589000Y-91002000D01*
X112519000Y-91002000D02*
X113514000Y-91002000D01*
X115594000Y-91042000D02*
X116619000Y-91042000D01*
X112489000Y-91042000D02*
X113514000Y-91042000D01*
X115594000Y-91082000D02*
X116649000Y-91082000D01*
X112459000Y-91082000D02*
X113514000Y-91082000D01*
X115594000Y-91122000D02*
X116676000Y-91122000D01*
X112432000Y-91122000D02*
X113514000Y-91122000D01*
X115594000Y-91162000D02*
X116703000Y-91162000D01*
X112405000Y-91162000D02*
X113514000Y-91162000D01*
X115594000Y-91202000D02*
X116729000Y-91202000D01*
X112379000Y-91202000D02*
X113514000Y-91202000D01*
X115594000Y-91242000D02*
X116754000Y-91242000D01*
X112354000Y-91242000D02*
X113514000Y-91242000D01*
X115594000Y-91282000D02*
X116778000Y-91282000D01*
X112330000Y-91282000D02*
X113514000Y-91282000D01*
X115594000Y-91322000D02*
X116801000Y-91322000D01*
X112307000Y-91322000D02*
X113514000Y-91322000D01*
X115594000Y-91362000D02*
X116822000Y-91362000D01*
X112286000Y-91362000D02*
X113514000Y-91362000D01*
X115594000Y-91402000D02*
X116844000Y-91402000D01*
X112264000Y-91402000D02*
X113514000Y-91402000D01*
X115594000Y-91442000D02*
X116864000Y-91442000D01*
X112244000Y-91442000D02*
X113514000Y-91442000D01*
X115594000Y-91482000D02*
X116883000Y-91482000D01*
X112225000Y-91482000D02*
X113514000Y-91482000D01*
X115594000Y-91522000D02*
X116902000Y-91522000D01*
X112206000Y-91522000D02*
X113514000Y-91522000D01*
X115594000Y-91562000D02*
X116919000Y-91562000D01*
X112189000Y-91562000D02*
X113514000Y-91562000D01*
X115594000Y-91602000D02*
X116936000Y-91602000D01*
X112172000Y-91602000D02*
X113514000Y-91602000D01*
X115594000Y-91642000D02*
X116952000Y-91642000D01*
X112156000Y-91642000D02*
X113514000Y-91642000D01*
X115594000Y-91682000D02*
X116968000Y-91682000D01*
X112140000Y-91682000D02*
X113514000Y-91682000D01*
X115594000Y-91722000D02*
X116982000Y-91722000D01*
X112126000Y-91722000D02*
X113514000Y-91722000D01*
X115594000Y-91762000D02*
X116996000Y-91762000D01*
X112112000Y-91762000D02*
X113514000Y-91762000D01*
X115594000Y-91802000D02*
X117009000Y-91802000D01*
X112099000Y-91802000D02*
X113514000Y-91802000D01*
X115594000Y-91842000D02*
X117022000Y-91842000D01*
X112086000Y-91842000D02*
X113514000Y-91842000D01*
X115594000Y-91882000D02*
X117034000Y-91882000D01*
X112074000Y-91882000D02*
X113514000Y-91882000D01*
X115594000Y-91923000D02*
X117045000Y-91923000D01*
X112063000Y-91923000D02*
X113514000Y-91923000D01*
X115594000Y-91963000D02*
X117055000Y-91963000D01*
X112053000Y-91963000D02*
X113514000Y-91963000D01*
X115594000Y-92003000D02*
X117065000Y-92003000D01*
X112043000Y-92003000D02*
X113514000Y-92003000D01*
X115594000Y-92043000D02*
X117074000Y-92043000D01*
X112034000Y-92043000D02*
X113514000Y-92043000D01*
X115594000Y-92083000D02*
X117082000Y-92083000D01*
X112026000Y-92083000D02*
X113514000Y-92083000D01*
X115594000Y-92123000D02*
X117090000Y-92123000D01*
X112018000Y-92123000D02*
X113514000Y-92123000D01*
X115594000Y-92163000D02*
X117097000Y-92163000D01*
X112011000Y-92163000D02*
X113514000Y-92163000D01*
X115594000Y-92203000D02*
X117104000Y-92203000D01*
X112004000Y-92203000D02*
X113514000Y-92203000D01*
X115594000Y-92243000D02*
X117110000Y-92243000D01*
X111998000Y-92243000D02*
X113514000Y-92243000D01*
X115594000Y-92283000D02*
X117115000Y-92283000D01*
X111993000Y-92283000D02*
X113514000Y-92283000D01*
X115594000Y-92323000D02*
X117119000Y-92323000D01*
X111989000Y-92323000D02*
X113514000Y-92323000D01*
X115594000Y-92363000D02*
X117123000Y-92363000D01*
X111985000Y-92363000D02*
X113514000Y-92363000D01*
X111981000Y-92403000D02*
X117127000Y-92403000D01*
X111978000Y-92443000D02*
X117130000Y-92443000D01*
X111976000Y-92483000D02*
X117132000Y-92483000D01*
X111975000Y-92523000D02*
X117133000Y-92523000D01*
X111974000Y-92563000D02*
X117134000Y-92563000D01*
X111974000Y-92603000D02*
X117134000Y-92603000D01*
X117174000Y-92603000D02*
G75*
G03*
X117174000Y-92603000I-2620000J0D01*
G01*
%TD*%
M02*
