%TF.GenerationSoftware,KiCad,Pcbnew,(5.1.8-0-10_14)*%
%TF.CreationDate,2021-09-01T19:05:50+01:00*%
%TF.ProjectId,4u-spring-reverb,34752d73-7072-4696-9e67-2d7265766572,rev?*%
%TF.SameCoordinates,Original*%
%TF.FileFunction,Legend,Bot*%
%TF.FilePolarity,Positive*%
%FSLAX46Y46*%
G04 Gerber Fmt 4.6, Leading zero omitted, Abs format (unit mm)*
G04 Created by KiCad (PCBNEW (5.1.8-0-10_14)) date 2021-09-01 19:05:50*
%MOMM*%
%LPD*%
G01*
G04 APERTURE LIST*
%ADD10C,0.150000*%
%ADD11C,0.120000*%
G04 APERTURE END LIST*
D10*
X131476714Y-39393761D02*
X131333857Y-39441380D01*
X131095761Y-39441380D01*
X131000523Y-39393761D01*
X130952904Y-39346142D01*
X130905285Y-39250904D01*
X130905285Y-39155666D01*
X130952904Y-39060428D01*
X131000523Y-39012809D01*
X131095761Y-38965190D01*
X131286238Y-38917571D01*
X131381476Y-38869952D01*
X131429095Y-38822333D01*
X131476714Y-38727095D01*
X131476714Y-38631857D01*
X131429095Y-38536619D01*
X131381476Y-38489000D01*
X131286238Y-38441380D01*
X131048142Y-38441380D01*
X130905285Y-38489000D01*
X134778714Y-38441380D02*
X134207285Y-38441380D01*
X134493000Y-39441380D02*
X134493000Y-38441380D01*
X135294428Y-45918380D02*
X135627761Y-45442190D01*
X135865857Y-45918380D02*
X135865857Y-44918380D01*
X135484904Y-44918380D01*
X135389666Y-44966000D01*
X135342047Y-45013619D01*
X135294428Y-45108857D01*
X135294428Y-45251714D01*
X135342047Y-45346952D01*
X135389666Y-45394571D01*
X135484904Y-45442190D01*
X135865857Y-45442190D01*
X134865857Y-45394571D02*
X134532523Y-45394571D01*
X134389666Y-45918380D02*
X134865857Y-45918380D01*
X134865857Y-44918380D01*
X134389666Y-44918380D01*
X134103952Y-44918380D02*
X133532523Y-44918380D01*
X133818238Y-45918380D02*
X133818238Y-44918380D01*
X133199190Y-44918380D02*
X133199190Y-45727904D01*
X133151571Y-45823142D01*
X133103952Y-45870761D01*
X133008714Y-45918380D01*
X132818238Y-45918380D01*
X132722999Y-45870761D01*
X132675380Y-45823142D01*
X132627761Y-45727904D01*
X132627761Y-44918380D01*
X131580142Y-45918380D02*
X131913476Y-45442190D01*
X132151571Y-45918380D02*
X132151571Y-44918380D01*
X131770619Y-44918380D01*
X131675380Y-44966000D01*
X131627761Y-45013619D01*
X131580142Y-45108857D01*
X131580142Y-45251714D01*
X131627761Y-45346952D01*
X131675380Y-45394571D01*
X131770619Y-45442190D01*
X132151571Y-45442190D01*
X131151571Y-45918380D02*
X131151571Y-44918380D01*
X130580142Y-45918380D01*
X130580142Y-44918380D01*
X137572714Y-39393761D02*
X137429857Y-39441380D01*
X137191761Y-39441380D01*
X137096523Y-39393761D01*
X137048904Y-39346142D01*
X137001285Y-39250904D01*
X137001285Y-39155666D01*
X137048904Y-39060428D01*
X137096523Y-39012809D01*
X137191761Y-38965190D01*
X137382238Y-38917571D01*
X137477476Y-38869952D01*
X137525095Y-38822333D01*
X137572714Y-38727095D01*
X137572714Y-38631857D01*
X137525095Y-38536619D01*
X137477476Y-38489000D01*
X137382238Y-38441380D01*
X137144142Y-38441380D01*
X137001285Y-38489000D01*
X143922714Y-38441380D02*
X143351285Y-38441380D01*
X143637000Y-39441380D02*
X143637000Y-38441380D01*
X142350904Y-46124761D02*
X142208047Y-46172380D01*
X141969952Y-46172380D01*
X141874714Y-46124761D01*
X141827095Y-46077142D01*
X141779476Y-45981904D01*
X141779476Y-45886666D01*
X141827095Y-45791428D01*
X141874714Y-45743809D01*
X141969952Y-45696190D01*
X142160428Y-45648571D01*
X142255666Y-45600952D01*
X142303285Y-45553333D01*
X142350904Y-45458095D01*
X142350904Y-45362857D01*
X142303285Y-45267619D01*
X142255666Y-45220000D01*
X142160428Y-45172380D01*
X141922333Y-45172380D01*
X141779476Y-45220000D01*
X141350904Y-45648571D02*
X141017571Y-45648571D01*
X140874714Y-46172380D02*
X141350904Y-46172380D01*
X141350904Y-45172380D01*
X140874714Y-45172380D01*
X140446142Y-46172380D02*
X140446142Y-45172380D01*
X139874714Y-46172380D01*
X139874714Y-45172380D01*
X139398523Y-46172380D02*
X139398523Y-45172380D01*
X139160428Y-45172380D01*
X139017571Y-45220000D01*
X138922333Y-45315238D01*
X138874714Y-45410476D01*
X138827095Y-45600952D01*
X138827095Y-45743809D01*
X138874714Y-45934285D01*
X138922333Y-46029523D01*
X139017571Y-46124761D01*
X139160428Y-46172380D01*
X139398523Y-46172380D01*
D11*
%TO.C,J7*%
X123250000Y-85030000D02*
X121920000Y-85030000D01*
X123250000Y-86360000D02*
X123250000Y-85030000D01*
X123250000Y-87630000D02*
X120590000Y-87630000D01*
X120590000Y-87630000D02*
X120590000Y-92770000D01*
X123250000Y-87630000D02*
X123250000Y-92770000D01*
X123250000Y-92770000D02*
X120590000Y-92770000D01*
%TO.C,J6*%
X129540000Y-85030000D02*
X128210000Y-85030000D01*
X128210000Y-85030000D02*
X128210000Y-86360000D01*
X128210000Y-87630000D02*
X128210000Y-92770000D01*
X130870000Y-92770000D02*
X128210000Y-92770000D01*
X130870000Y-87630000D02*
X130870000Y-92770000D01*
X130870000Y-87630000D02*
X128210000Y-87630000D01*
%TO.C,J12*%
X122996000Y-96460000D02*
X121666000Y-96460000D01*
X122996000Y-97790000D02*
X122996000Y-96460000D01*
X122996000Y-99060000D02*
X120336000Y-99060000D01*
X120336000Y-99060000D02*
X120336000Y-106740000D01*
X122996000Y-99060000D02*
X122996000Y-106740000D01*
X122996000Y-106740000D02*
X120336000Y-106740000D01*
%TO.C,J11*%
X129794000Y-96460000D02*
X128464000Y-96460000D01*
X128464000Y-96460000D02*
X128464000Y-97790000D01*
X128464000Y-99060000D02*
X128464000Y-106740000D01*
X131124000Y-106740000D02*
X128464000Y-106740000D01*
X131124000Y-99060000D02*
X131124000Y-106740000D01*
X131124000Y-99060000D02*
X128464000Y-99060000D01*
%TO.C,J10*%
X147828000Y-77530000D02*
X149158000Y-77530000D01*
X149158000Y-77530000D02*
X149158000Y-76200000D01*
X149158000Y-74930000D02*
X149158000Y-69790000D01*
X146498000Y-69790000D02*
X149158000Y-69790000D01*
X146498000Y-74930000D02*
X146498000Y-69790000D01*
X146498000Y-74930000D02*
X149158000Y-74930000D01*
%TO.C,J9*%
X102302000Y-77530000D02*
X103632000Y-77530000D01*
X102302000Y-76200000D02*
X102302000Y-77530000D01*
X102302000Y-74930000D02*
X104962000Y-74930000D01*
X104962000Y-74930000D02*
X104962000Y-69790000D01*
X102302000Y-74930000D02*
X102302000Y-69790000D01*
X102302000Y-69790000D02*
X104962000Y-69790000D01*
%TD*%
M02*
