%TF.GenerationSoftware,KiCad,Pcbnew,(5.1.8-0-10_14)*%
%TF.CreationDate,2021-07-14T10:01:13+01:00*%
%TF.ProjectId,cgs-attenuverter-board,6367732d-6174-4746-956e-757665727465,rev?*%
%TF.SameCoordinates,Original*%
%TF.FileFunction,Copper,L1,Top*%
%TF.FilePolarity,Positive*%
%FSLAX46Y46*%
G04 Gerber Fmt 4.6, Leading zero omitted, Abs format (unit mm)*
G04 Created by KiCad (PCBNEW (5.1.8-0-10_14)) date 2021-07-14 10:01:13*
%MOMM*%
%LPD*%
G01*
G04 APERTURE LIST*
%TA.AperFunction,ComponentPad*%
%ADD10O,1.600000X1.600000*%
%TD*%
%TA.AperFunction,ComponentPad*%
%ADD11R,1.600000X1.600000*%
%TD*%
%TA.AperFunction,ComponentPad*%
%ADD12C,1.600000*%
%TD*%
%TA.AperFunction,Conductor*%
%ADD13C,1.270000*%
%TD*%
%TA.AperFunction,Conductor*%
%ADD14C,0.635000*%
%TD*%
%TA.AperFunction,Conductor*%
%ADD15C,0.254000*%
%TD*%
%TA.AperFunction,Conductor*%
%ADD16C,0.100000*%
%TD*%
G04 APERTURE END LIST*
D10*
%TO.P,U1,8*%
%TO.N,+12V*%
X148590000Y-120650000D03*
%TO.P,U1,4*%
%TO.N,-12V*%
X156210000Y-113030000D03*
%TO.P,U1,7*%
%TO.N,Net-(R10-Pad2)*%
X148590000Y-118110000D03*
%TO.P,U1,3*%
%TO.N,Net-(R1-Pad1)*%
X156210000Y-115570000D03*
%TO.P,U1,6*%
%TO.N,Net-(R6-Pad1)*%
X148590000Y-115570000D03*
%TO.P,U1,2*%
%TO.N,Net-(R5-Pad1)*%
X156210000Y-118110000D03*
%TO.P,U1,5*%
%TO.N,Net-(R2-Pad1)*%
X148590000Y-113030000D03*
D11*
%TO.P,U1,1*%
%TO.N,Net-(R7-Pad1)*%
X156210000Y-120650000D03*
%TD*%
%TO.P,RV2,3*%
%TO.N,GND*%
%TA.AperFunction,ComponentPad*%
G36*
G01*
X131318000Y-103886000D02*
X132842000Y-103886000D01*
G75*
G02*
X133096000Y-104140000I0J-254000D01*
G01*
X133096000Y-105664000D01*
G75*
G02*
X132842000Y-105918000I-254000J0D01*
G01*
X131318000Y-105918000D01*
G75*
G02*
X131064000Y-105664000I0J254000D01*
G01*
X131064000Y-104140000D01*
G75*
G02*
X131318000Y-103886000I254000J0D01*
G01*
G37*
%TD.AperFunction*%
%TO.P,RV2,1*%
%TO.N,Net-(J2-Pad1)*%
%TA.AperFunction,ComponentPad*%
G36*
G01*
X131318000Y-97282000D02*
X132842000Y-97282000D01*
G75*
G02*
X133096000Y-97536000I0J-254000D01*
G01*
X133096000Y-99060000D01*
G75*
G02*
X132842000Y-99314000I-254000J0D01*
G01*
X131318000Y-99314000D01*
G75*
G02*
X131064000Y-99060000I0J254000D01*
G01*
X131064000Y-97536000D01*
G75*
G02*
X131318000Y-97282000I254000J0D01*
G01*
G37*
%TD.AperFunction*%
%TO.P,RV2,2*%
%TO.N,Net-(R2-Pad1)*%
%TA.AperFunction,ComponentPad*%
G36*
G01*
X131318000Y-100584000D02*
X132842000Y-100584000D01*
G75*
G02*
X133096000Y-100838000I0J-254000D01*
G01*
X133096000Y-102362000D01*
G75*
G02*
X132842000Y-102616000I-254000J0D01*
G01*
X131318000Y-102616000D01*
G75*
G02*
X131064000Y-102362000I0J254000D01*
G01*
X131064000Y-100838000D01*
G75*
G02*
X131318000Y-100584000I254000J0D01*
G01*
G37*
%TD.AperFunction*%
%TD*%
%TO.P,RV1,3*%
%TO.N,GND*%
%TA.AperFunction,ComponentPad*%
G36*
G01*
X173482000Y-99314000D02*
X171958000Y-99314000D01*
G75*
G02*
X171704000Y-99060000I0J254000D01*
G01*
X171704000Y-97536000D01*
G75*
G02*
X171958000Y-97282000I254000J0D01*
G01*
X173482000Y-97282000D01*
G75*
G02*
X173736000Y-97536000I0J-254000D01*
G01*
X173736000Y-99060000D01*
G75*
G02*
X173482000Y-99314000I-254000J0D01*
G01*
G37*
%TD.AperFunction*%
%TO.P,RV1,1*%
%TO.N,Net-(J1-Pad1)*%
%TA.AperFunction,ComponentPad*%
G36*
G01*
X173482000Y-105918000D02*
X171958000Y-105918000D01*
G75*
G02*
X171704000Y-105664000I0J254000D01*
G01*
X171704000Y-104140000D01*
G75*
G02*
X171958000Y-103886000I254000J0D01*
G01*
X173482000Y-103886000D01*
G75*
G02*
X173736000Y-104140000I0J-254000D01*
G01*
X173736000Y-105664000D01*
G75*
G02*
X173482000Y-105918000I-254000J0D01*
G01*
G37*
%TD.AperFunction*%
%TO.P,RV1,2*%
%TO.N,Net-(R1-Pad1)*%
%TA.AperFunction,ComponentPad*%
G36*
G01*
X173482000Y-102616000D02*
X171958000Y-102616000D01*
G75*
G02*
X171704000Y-102362000I0J254000D01*
G01*
X171704000Y-100838000D01*
G75*
G02*
X171958000Y-100584000I254000J0D01*
G01*
X173482000Y-100584000D01*
G75*
G02*
X173736000Y-100838000I0J-254000D01*
G01*
X173736000Y-102362000D01*
G75*
G02*
X173482000Y-102616000I-254000J0D01*
G01*
G37*
%TD.AperFunction*%
%TD*%
D10*
%TO.P,R10,2*%
%TO.N,Net-(R10-Pad2)*%
X149860000Y-99060000D03*
D12*
%TO.P,R10,1*%
%TO.N,Net-(J4-Pad1)*%
X139700000Y-99060000D03*
%TD*%
D10*
%TO.P,R9,2*%
%TO.N,Net-(R7-Pad1)*%
X156210000Y-99060000D03*
D12*
%TO.P,R9,1*%
%TO.N,Net-(J3-Pad1)*%
X166370000Y-99060000D03*
%TD*%
D10*
%TO.P,R8,2*%
%TO.N,Net-(R6-Pad1)*%
X149860000Y-106680000D03*
D12*
%TO.P,R8,1*%
%TO.N,Net-(R10-Pad2)*%
X139700000Y-106680000D03*
%TD*%
D10*
%TO.P,R7,2*%
%TO.N,Net-(R5-Pad1)*%
X156210000Y-106680000D03*
D12*
%TO.P,R7,1*%
%TO.N,Net-(R7-Pad1)*%
X166370000Y-106680000D03*
%TD*%
D10*
%TO.P,R6,2*%
%TO.N,Net-(J2-Pad1)*%
X139700000Y-102870000D03*
D12*
%TO.P,R6,1*%
%TO.N,Net-(R6-Pad1)*%
X149860000Y-102870000D03*
%TD*%
D10*
%TO.P,R5,2*%
%TO.N,Net-(J1-Pad1)*%
X166370000Y-102870000D03*
D12*
%TO.P,R5,1*%
%TO.N,Net-(R5-Pad1)*%
X156210000Y-102870000D03*
%TD*%
D10*
%TO.P,R4,2*%
%TO.N,Net-(R2-Pad1)*%
X143510000Y-111760000D03*
D12*
%TO.P,R4,1*%
%TO.N,GND*%
X143510000Y-121920000D03*
%TD*%
D10*
%TO.P,R3,2*%
%TO.N,Net-(R1-Pad1)*%
X161290000Y-121920000D03*
D12*
%TO.P,R3,1*%
%TO.N,GND*%
X161290000Y-111760000D03*
%TD*%
D10*
%TO.P,R2,2*%
%TO.N,Net-(J2-Pad1)*%
X139700000Y-111760000D03*
D12*
%TO.P,R2,1*%
%TO.N,Net-(R2-Pad1)*%
X139700000Y-121920000D03*
%TD*%
D10*
%TO.P,R1,2*%
%TO.N,Net-(J1-Pad1)*%
X165100000Y-121920000D03*
D12*
%TO.P,R1,1*%
%TO.N,Net-(R1-Pad1)*%
X165100000Y-111760000D03*
%TD*%
%TO.P,J5,3*%
%TO.N,+12V*%
%TA.AperFunction,ComponentPad*%
G36*
G01*
X150114000Y-91948000D02*
X150114000Y-93472000D01*
G75*
G02*
X149860000Y-93726000I-254000J0D01*
G01*
X148336000Y-93726000D01*
G75*
G02*
X148082000Y-93472000I0J254000D01*
G01*
X148082000Y-91948000D01*
G75*
G02*
X148336000Y-91694000I254000J0D01*
G01*
X149860000Y-91694000D01*
G75*
G02*
X150114000Y-91948000I0J-254000D01*
G01*
G37*
%TD.AperFunction*%
%TO.P,J5,1*%
%TO.N,-12V*%
%TA.AperFunction,ComponentPad*%
G36*
G01*
X156718000Y-91948000D02*
X156718000Y-93472000D01*
G75*
G02*
X156464000Y-93726000I-254000J0D01*
G01*
X154940000Y-93726000D01*
G75*
G02*
X154686000Y-93472000I0J254000D01*
G01*
X154686000Y-91948000D01*
G75*
G02*
X154940000Y-91694000I254000J0D01*
G01*
X156464000Y-91694000D01*
G75*
G02*
X156718000Y-91948000I0J-254000D01*
G01*
G37*
%TD.AperFunction*%
%TO.P,J5,2*%
%TO.N,GND*%
%TA.AperFunction,ComponentPad*%
G36*
G01*
X153416000Y-91948000D02*
X153416000Y-93472000D01*
G75*
G02*
X153162000Y-93726000I-254000J0D01*
G01*
X151638000Y-93726000D01*
G75*
G02*
X151384000Y-93472000I0J254000D01*
G01*
X151384000Y-91948000D01*
G75*
G02*
X151638000Y-91694000I254000J0D01*
G01*
X153162000Y-91694000D01*
G75*
G02*
X153416000Y-91948000I0J-254000D01*
G01*
G37*
%TD.AperFunction*%
%TD*%
%TO.P,J4,1*%
%TO.N,Net-(J4-Pad1)*%
%TA.AperFunction,ComponentPad*%
G36*
G01*
X131318000Y-92964000D02*
X132842000Y-92964000D01*
G75*
G02*
X133096000Y-93218000I0J-254000D01*
G01*
X133096000Y-94742000D01*
G75*
G02*
X132842000Y-94996000I-254000J0D01*
G01*
X131318000Y-94996000D01*
G75*
G02*
X131064000Y-94742000I0J254000D01*
G01*
X131064000Y-93218000D01*
G75*
G02*
X131318000Y-92964000I254000J0D01*
G01*
G37*
%TD.AperFunction*%
%TD*%
%TO.P,J3,1*%
%TO.N,Net-(J3-Pad1)*%
%TA.AperFunction,ComponentPad*%
G36*
G01*
X173482000Y-94996000D02*
X171958000Y-94996000D01*
G75*
G02*
X171704000Y-94742000I0J254000D01*
G01*
X171704000Y-93218000D01*
G75*
G02*
X171958000Y-92964000I254000J0D01*
G01*
X173482000Y-92964000D01*
G75*
G02*
X173736000Y-93218000I0J-254000D01*
G01*
X173736000Y-94742000D01*
G75*
G02*
X173482000Y-94996000I-254000J0D01*
G01*
G37*
%TD.AperFunction*%
%TD*%
%TO.P,J2,1*%
%TO.N,Net-(J2-Pad1)*%
%TA.AperFunction,ComponentPad*%
G36*
G01*
X131318000Y-108204000D02*
X132842000Y-108204000D01*
G75*
G02*
X133096000Y-108458000I0J-254000D01*
G01*
X133096000Y-109982000D01*
G75*
G02*
X132842000Y-110236000I-254000J0D01*
G01*
X131318000Y-110236000D01*
G75*
G02*
X131064000Y-109982000I0J254000D01*
G01*
X131064000Y-108458000D01*
G75*
G02*
X131318000Y-108204000I254000J0D01*
G01*
G37*
%TD.AperFunction*%
%TD*%
%TO.P,J1,1*%
%TO.N,Net-(J1-Pad1)*%
%TA.AperFunction,ComponentPad*%
G36*
G01*
X173482000Y-110236000D02*
X171958000Y-110236000D01*
G75*
G02*
X171704000Y-109982000I0J254000D01*
G01*
X171704000Y-108458000D01*
G75*
G02*
X171958000Y-108204000I254000J0D01*
G01*
X173482000Y-108204000D01*
G75*
G02*
X173736000Y-108458000I0J-254000D01*
G01*
X173736000Y-109982000D01*
G75*
G02*
X173482000Y-110236000I-254000J0D01*
G01*
G37*
%TD.AperFunction*%
%TD*%
%TO.P,C2,2*%
%TO.N,-12V*%
X161290000Y-90424000D03*
%TO.P,C2,1*%
%TO.N,GND*%
X161290000Y-95424000D03*
%TD*%
%TO.P,C1,1*%
%TO.N,+12V*%
X143256000Y-90424000D03*
%TO.P,C1,2*%
%TO.N,GND*%
X143256000Y-95424000D03*
%TD*%
D13*
%TO.N,+12V*%
X145542000Y-92710000D02*
X143256000Y-90424000D01*
X149098000Y-92710000D02*
X145542000Y-92710000D01*
X151549001Y-95161001D02*
X149098000Y-92710000D01*
X151549001Y-117690999D02*
X151549001Y-95161001D01*
X148590000Y-120650000D02*
X151549001Y-117690999D01*
%TO.N,-12V*%
X159004000Y-92710000D02*
X161290000Y-90424000D01*
X155702000Y-92710000D02*
X159004000Y-92710000D01*
X154520999Y-93891001D02*
X155702000Y-92710000D01*
X154520999Y-111340999D02*
X154520999Y-93891001D01*
X156210000Y-113030000D02*
X154520999Y-111340999D01*
D14*
%TO.N,Net-(J1-Pad1)*%
X165100000Y-116840000D02*
X172720000Y-109220000D01*
X165100000Y-121920000D02*
X165100000Y-116840000D01*
X172720000Y-109220000D02*
X172720000Y-104902000D01*
%TO.N,Net-(J2-Pad1)*%
X134620000Y-111760000D02*
X132080000Y-109220000D01*
X139700000Y-111760000D02*
X134620000Y-111760000D01*
X136652000Y-102870000D02*
X132080000Y-98298000D01*
X139700000Y-102870000D02*
X136652000Y-102870000D01*
%TO.N,Net-(J3-Pad1)*%
X167640000Y-99060000D02*
X172720000Y-93980000D01*
X166370000Y-99060000D02*
X167640000Y-99060000D01*
%TO.N,Net-(J4-Pad1)*%
X134620000Y-93980000D02*
X139700000Y-99060000D01*
X132080000Y-93980000D02*
X134620000Y-93980000D01*
%TO.N,Net-(R1-Pad1)*%
X161290000Y-115570000D02*
X165100000Y-111760000D01*
X161290000Y-121920000D02*
X161290000Y-115570000D01*
X171132490Y-105727510D02*
X171132490Y-103187510D01*
X171132490Y-103187510D02*
X172720000Y-101600000D01*
X165100000Y-111760000D02*
X171132490Y-105727510D01*
%TO.N,Net-(R2-Pad1)*%
X143510000Y-118110000D02*
X139700000Y-121920000D01*
X143510000Y-111760000D02*
X143510000Y-118110000D01*
X132218630Y-101600000D02*
X132080000Y-101600000D01*
X142378630Y-111760000D02*
X132218630Y-101600000D01*
X143510000Y-111760000D02*
X142378630Y-111760000D01*
%TO.N,Net-(R5-Pad1)*%
X156210000Y-102870000D02*
X156210000Y-106680000D01*
X157581501Y-108051501D02*
X156210000Y-106680000D01*
X157581501Y-116738499D02*
X157581501Y-108051501D01*
X156210000Y-118110000D02*
X157581501Y-116738499D01*
%TO.N,Net-(R6-Pad1)*%
X149860000Y-102870000D02*
X149860000Y-106680000D01*
X149961501Y-114198499D02*
X148590000Y-115570000D01*
X149961501Y-112371679D02*
X149961501Y-114198499D01*
X149860000Y-112270178D02*
X149961501Y-112371679D01*
X149860000Y-106680000D02*
X149860000Y-112270178D01*
%TO.N,Net-(R7-Pad1)*%
X163728499Y-111874252D02*
X163728499Y-109321501D01*
X160400990Y-115201761D02*
X163728499Y-111874252D01*
X160400990Y-116459010D02*
X160400990Y-115201761D01*
X163728499Y-109321501D02*
X166370000Y-106680000D01*
X156210000Y-120650000D02*
X160400990Y-116459010D01*
X163830000Y-106680000D02*
X156210000Y-99060000D01*
X166370000Y-106680000D02*
X163830000Y-106680000D01*
%TO.N,Net-(R10-Pad2)*%
X140831370Y-106680000D02*
X139700000Y-106680000D01*
X147218499Y-113067129D02*
X140831370Y-106680000D01*
X147218499Y-116738499D02*
X147218499Y-113067129D01*
X148590000Y-118110000D02*
X147218499Y-116738499D01*
%TD*%
D15*
%TO.N,GND*%
X152685750Y-94361000D02*
X153251000Y-94363378D01*
X153250999Y-111278626D01*
X153244856Y-111340999D01*
X153250999Y-111403372D01*
X153250999Y-111403378D01*
X153259277Y-111487427D01*
X153269376Y-111589962D01*
X153278083Y-111618665D01*
X153341996Y-111829357D01*
X153459924Y-112049986D01*
X153618629Y-112243369D01*
X153667090Y-112283140D01*
X154829557Y-113445608D01*
X154830147Y-113448574D01*
X154938320Y-113709727D01*
X155095363Y-113944759D01*
X155295241Y-114144637D01*
X155527759Y-114300000D01*
X155295241Y-114455363D01*
X155095363Y-114655241D01*
X154938320Y-114890273D01*
X154830147Y-115151426D01*
X154775000Y-115428665D01*
X154775000Y-115711335D01*
X154830147Y-115988574D01*
X154938320Y-116249727D01*
X155095363Y-116484759D01*
X155295241Y-116684637D01*
X155527759Y-116840000D01*
X155295241Y-116995363D01*
X155095363Y-117195241D01*
X154938320Y-117430273D01*
X154830147Y-117691426D01*
X154775000Y-117968665D01*
X154775000Y-118251335D01*
X154830147Y-118528574D01*
X154938320Y-118789727D01*
X155095363Y-119024759D01*
X155293961Y-119223357D01*
X155285518Y-119224188D01*
X155165820Y-119260498D01*
X155055506Y-119319463D01*
X154958815Y-119398815D01*
X154879463Y-119495506D01*
X154820498Y-119605820D01*
X154784188Y-119725518D01*
X154771928Y-119850000D01*
X154771928Y-121450000D01*
X154784188Y-121574482D01*
X154820498Y-121694180D01*
X154879463Y-121804494D01*
X154958815Y-121901185D01*
X155055506Y-121980537D01*
X155165820Y-122039502D01*
X155285518Y-122075812D01*
X155410000Y-122088072D01*
X157010000Y-122088072D01*
X157134482Y-122075812D01*
X157254180Y-122039502D01*
X157364494Y-121980537D01*
X157461185Y-121901185D01*
X157540537Y-121804494D01*
X157599502Y-121694180D01*
X157635812Y-121574482D01*
X157648072Y-121450000D01*
X157648072Y-120558966D01*
X160337501Y-117869538D01*
X160337500Y-120843104D01*
X160175363Y-121005241D01*
X160018320Y-121240273D01*
X159910147Y-121501426D01*
X159855000Y-121778665D01*
X159855000Y-122061335D01*
X159910147Y-122338574D01*
X160018320Y-122599727D01*
X160175363Y-122834759D01*
X160375241Y-123034637D01*
X160610273Y-123191680D01*
X160871426Y-123299853D01*
X161148665Y-123355000D01*
X161431335Y-123355000D01*
X161708574Y-123299853D01*
X161969727Y-123191680D01*
X162204759Y-123034637D01*
X162404637Y-122834759D01*
X162561680Y-122599727D01*
X162669853Y-122338574D01*
X162725000Y-122061335D01*
X162725000Y-121778665D01*
X162669853Y-121501426D01*
X162561680Y-121240273D01*
X162404637Y-121005241D01*
X162242500Y-120843104D01*
X162242500Y-115964538D01*
X165012038Y-113195000D01*
X165241335Y-113195000D01*
X165518574Y-113139853D01*
X165779727Y-113031680D01*
X166014759Y-112874637D01*
X166214637Y-112674759D01*
X166371680Y-112439727D01*
X166479853Y-112178574D01*
X166535000Y-111901335D01*
X166535000Y-111672038D01*
X171695073Y-106511966D01*
X171767501Y-106533937D01*
X171767500Y-107588064D01*
X171616619Y-107633833D01*
X171462391Y-107716269D01*
X171327210Y-107827210D01*
X171216269Y-107962391D01*
X171133833Y-108116619D01*
X171083069Y-108283965D01*
X171065928Y-108458000D01*
X171065928Y-109527034D01*
X164459565Y-116133397D01*
X164423223Y-116163222D01*
X164393399Y-116199563D01*
X164304194Y-116308260D01*
X164215749Y-116473731D01*
X164161283Y-116653278D01*
X164142892Y-116840000D01*
X164147501Y-116886795D01*
X164147500Y-120843104D01*
X163985363Y-121005241D01*
X163828320Y-121240273D01*
X163720147Y-121501426D01*
X163665000Y-121778665D01*
X163665000Y-122061335D01*
X163720147Y-122338574D01*
X163828320Y-122599727D01*
X163985363Y-122834759D01*
X164185241Y-123034637D01*
X164420273Y-123191680D01*
X164681426Y-123299853D01*
X164958665Y-123355000D01*
X165241335Y-123355000D01*
X165518574Y-123299853D01*
X165779727Y-123191680D01*
X166014759Y-123034637D01*
X166079524Y-122969872D01*
X171755000Y-122969872D01*
X171755000Y-123410128D01*
X171840890Y-123841925D01*
X172009369Y-124248669D01*
X172253962Y-124614729D01*
X172565271Y-124926038D01*
X172931331Y-125170631D01*
X173338075Y-125339110D01*
X173769872Y-125425000D01*
X174210128Y-125425000D01*
X174641925Y-125339110D01*
X175048669Y-125170631D01*
X175414729Y-124926038D01*
X175726038Y-124614729D01*
X175970631Y-124248669D01*
X176139110Y-123841925D01*
X176225000Y-123410128D01*
X176225000Y-122969872D01*
X176139110Y-122538075D01*
X175970631Y-122131331D01*
X175726038Y-121765271D01*
X175414729Y-121453962D01*
X175048669Y-121209369D01*
X174641925Y-121040890D01*
X174210128Y-120955000D01*
X173769872Y-120955000D01*
X173338075Y-121040890D01*
X172931331Y-121209369D01*
X172565271Y-121453962D01*
X172253962Y-121765271D01*
X172009369Y-122131331D01*
X171840890Y-122538075D01*
X171755000Y-122969872D01*
X166079524Y-122969872D01*
X166214637Y-122834759D01*
X166371680Y-122599727D01*
X166479853Y-122338574D01*
X166535000Y-122061335D01*
X166535000Y-121778665D01*
X166479853Y-121501426D01*
X166371680Y-121240273D01*
X166214637Y-121005241D01*
X166052500Y-120843104D01*
X166052500Y-117234538D01*
X172412966Y-110874072D01*
X173482000Y-110874072D01*
X173656035Y-110856931D01*
X173823381Y-110806167D01*
X173977609Y-110723731D01*
X174112790Y-110612790D01*
X174223731Y-110477609D01*
X174306167Y-110323381D01*
X174356931Y-110156035D01*
X174371934Y-110003710D01*
X174438201Y-110102886D01*
X174631114Y-110295799D01*
X174857957Y-110447371D01*
X175110011Y-110551775D01*
X175377589Y-110605000D01*
X175650411Y-110605000D01*
X175917989Y-110551775D01*
X176170043Y-110447371D01*
X176396886Y-110295799D01*
X176589799Y-110102886D01*
X176741371Y-109876043D01*
X176845775Y-109623989D01*
X176886000Y-109421766D01*
X176886000Y-126205723D01*
X176880953Y-126257195D01*
X176875377Y-126275663D01*
X176866322Y-126292693D01*
X176854129Y-126307643D01*
X176839266Y-126319939D01*
X176822303Y-126329111D01*
X176803871Y-126334817D01*
X176754554Y-126340000D01*
X128048277Y-126340000D01*
X127996805Y-126334953D01*
X127978337Y-126329377D01*
X127961307Y-126320322D01*
X127946357Y-126308129D01*
X127934061Y-126293266D01*
X127924889Y-126276303D01*
X127919183Y-126257871D01*
X127914000Y-126208554D01*
X127914000Y-122969872D01*
X128575000Y-122969872D01*
X128575000Y-123410128D01*
X128660890Y-123841925D01*
X128829369Y-124248669D01*
X129073962Y-124614729D01*
X129385271Y-124926038D01*
X129751331Y-125170631D01*
X130158075Y-125339110D01*
X130589872Y-125425000D01*
X131030128Y-125425000D01*
X131461925Y-125339110D01*
X131868669Y-125170631D01*
X132234729Y-124926038D01*
X132546038Y-124614729D01*
X132790631Y-124248669D01*
X132959110Y-123841925D01*
X133045000Y-123410128D01*
X133045000Y-122969872D01*
X132959110Y-122538075D01*
X132790631Y-122131331D01*
X132546038Y-121765271D01*
X132234729Y-121453962D01*
X131868669Y-121209369D01*
X131461925Y-121040890D01*
X131030128Y-120955000D01*
X130589872Y-120955000D01*
X130158075Y-121040890D01*
X129751331Y-121209369D01*
X129385271Y-121453962D01*
X129073962Y-121765271D01*
X128829369Y-122131331D01*
X128660890Y-122538075D01*
X128575000Y-122969872D01*
X127914000Y-122969872D01*
X127914000Y-109421766D01*
X127954225Y-109623989D01*
X128058629Y-109876043D01*
X128210201Y-110102886D01*
X128403114Y-110295799D01*
X128629957Y-110447371D01*
X128882011Y-110551775D01*
X129149589Y-110605000D01*
X129422411Y-110605000D01*
X129689989Y-110551775D01*
X129942043Y-110447371D01*
X130168886Y-110295799D01*
X130361799Y-110102886D01*
X130428066Y-110003710D01*
X130443069Y-110156035D01*
X130493833Y-110323381D01*
X130576269Y-110477609D01*
X130687210Y-110612790D01*
X130822391Y-110723731D01*
X130976619Y-110806167D01*
X131143965Y-110856931D01*
X131318000Y-110874072D01*
X132387034Y-110874072D01*
X133913393Y-112400431D01*
X133943222Y-112436778D01*
X134088259Y-112555806D01*
X134253731Y-112644252D01*
X134433277Y-112698717D01*
X134619999Y-112717108D01*
X134666784Y-112712500D01*
X138623104Y-112712500D01*
X138785241Y-112874637D01*
X139020273Y-113031680D01*
X139281426Y-113139853D01*
X139558665Y-113195000D01*
X139841335Y-113195000D01*
X140118574Y-113139853D01*
X140379727Y-113031680D01*
X140614759Y-112874637D01*
X140814637Y-112674759D01*
X140971680Y-112439727D01*
X141079853Y-112178574D01*
X141135000Y-111901335D01*
X141135000Y-111863409D01*
X141672027Y-112400436D01*
X141701852Y-112436778D01*
X141846889Y-112555806D01*
X141929625Y-112600029D01*
X142012360Y-112644252D01*
X142191907Y-112698717D01*
X142378630Y-112717108D01*
X142425415Y-112712500D01*
X142433104Y-112712500D01*
X142557500Y-112836896D01*
X142557501Y-117715461D01*
X139787962Y-120485000D01*
X139558665Y-120485000D01*
X139281426Y-120540147D01*
X139020273Y-120648320D01*
X138785241Y-120805363D01*
X138585363Y-121005241D01*
X138428320Y-121240273D01*
X138320147Y-121501426D01*
X138265000Y-121778665D01*
X138265000Y-122061335D01*
X138320147Y-122338574D01*
X138428320Y-122599727D01*
X138585363Y-122834759D01*
X138785241Y-123034637D01*
X139020273Y-123191680D01*
X139281426Y-123299853D01*
X139558665Y-123355000D01*
X139841335Y-123355000D01*
X140118574Y-123299853D01*
X140379727Y-123191680D01*
X140614759Y-123034637D01*
X140736694Y-122912702D01*
X142696903Y-122912702D01*
X142768486Y-123156671D01*
X143023996Y-123277571D01*
X143298184Y-123346300D01*
X143580512Y-123360217D01*
X143860130Y-123318787D01*
X144126292Y-123223603D01*
X144251514Y-123156671D01*
X144323097Y-122912702D01*
X143510000Y-122099605D01*
X142696903Y-122912702D01*
X140736694Y-122912702D01*
X140814637Y-122834759D01*
X140971680Y-122599727D01*
X141079853Y-122338574D01*
X141135000Y-122061335D01*
X141135000Y-121990512D01*
X142069783Y-121990512D01*
X142111213Y-122270130D01*
X142206397Y-122536292D01*
X142273329Y-122661514D01*
X142517298Y-122733097D01*
X143330395Y-121920000D01*
X143689605Y-121920000D01*
X144502702Y-122733097D01*
X144746671Y-122661514D01*
X144867571Y-122406004D01*
X144936300Y-122131816D01*
X144950217Y-121849488D01*
X144908787Y-121569870D01*
X144813603Y-121303708D01*
X144746671Y-121178486D01*
X144502702Y-121106903D01*
X143689605Y-121920000D01*
X143330395Y-121920000D01*
X142517298Y-121106903D01*
X142273329Y-121178486D01*
X142152429Y-121433996D01*
X142083700Y-121708184D01*
X142069783Y-121990512D01*
X141135000Y-121990512D01*
X141135000Y-121832038D01*
X142039740Y-120927298D01*
X142696903Y-120927298D01*
X143510000Y-121740395D01*
X144323097Y-120927298D01*
X144251514Y-120683329D01*
X143996004Y-120562429D01*
X143721816Y-120493700D01*
X143439488Y-120479783D01*
X143159870Y-120521213D01*
X142893708Y-120616397D01*
X142768486Y-120683329D01*
X142696903Y-120927298D01*
X142039740Y-120927298D01*
X144150431Y-118816607D01*
X144186778Y-118786778D01*
X144305806Y-118641741D01*
X144366295Y-118528574D01*
X144394252Y-118476270D01*
X144448717Y-118296722D01*
X144467108Y-118110000D01*
X144462500Y-118063215D01*
X144462500Y-112836896D01*
X144624637Y-112674759D01*
X144781680Y-112439727D01*
X144889853Y-112178574D01*
X144905292Y-112100960D01*
X146266000Y-113461668D01*
X146265999Y-116691714D01*
X146261391Y-116738499D01*
X146265999Y-116785283D01*
X146279782Y-116925221D01*
X146334247Y-117104767D01*
X146422693Y-117270240D01*
X146541721Y-117415277D01*
X146578068Y-117445106D01*
X147155000Y-118022038D01*
X147155000Y-118251335D01*
X147210147Y-118528574D01*
X147318320Y-118789727D01*
X147475363Y-119024759D01*
X147675241Y-119224637D01*
X147907759Y-119380000D01*
X147675241Y-119535363D01*
X147475363Y-119735241D01*
X147318320Y-119970273D01*
X147210147Y-120231426D01*
X147155000Y-120508665D01*
X147155000Y-120791335D01*
X147210147Y-121068574D01*
X147318320Y-121329727D01*
X147475363Y-121564759D01*
X147675241Y-121764637D01*
X147910273Y-121921680D01*
X148171426Y-122029853D01*
X148448665Y-122085000D01*
X148731335Y-122085000D01*
X149008574Y-122029853D01*
X149269727Y-121921680D01*
X149504759Y-121764637D01*
X149704637Y-121564759D01*
X149861680Y-121329727D01*
X149969853Y-121068574D01*
X149970443Y-121065607D01*
X152402916Y-118633135D01*
X152451371Y-118593369D01*
X152610076Y-118399987D01*
X152728004Y-118179358D01*
X152800624Y-117939962D01*
X152819001Y-117753379D01*
X152819001Y-117753373D01*
X152825144Y-117691000D01*
X152819001Y-117628627D01*
X152819001Y-95223374D01*
X152825144Y-95161001D01*
X152819001Y-95098628D01*
X152819001Y-95098621D01*
X152800624Y-94912038D01*
X152786129Y-94864252D01*
X152728004Y-94672642D01*
X152610076Y-94452013D01*
X152527002Y-94350787D01*
X152527002Y-94202252D01*
X152685750Y-94361000D01*
%TA.AperFunction,Conductor*%
D16*
G36*
X152685750Y-94361000D02*
G01*
X153251000Y-94363378D01*
X153250999Y-111278626D01*
X153244856Y-111340999D01*
X153250999Y-111403372D01*
X153250999Y-111403378D01*
X153259277Y-111487427D01*
X153269376Y-111589962D01*
X153278083Y-111618665D01*
X153341996Y-111829357D01*
X153459924Y-112049986D01*
X153618629Y-112243369D01*
X153667090Y-112283140D01*
X154829557Y-113445608D01*
X154830147Y-113448574D01*
X154938320Y-113709727D01*
X155095363Y-113944759D01*
X155295241Y-114144637D01*
X155527759Y-114300000D01*
X155295241Y-114455363D01*
X155095363Y-114655241D01*
X154938320Y-114890273D01*
X154830147Y-115151426D01*
X154775000Y-115428665D01*
X154775000Y-115711335D01*
X154830147Y-115988574D01*
X154938320Y-116249727D01*
X155095363Y-116484759D01*
X155295241Y-116684637D01*
X155527759Y-116840000D01*
X155295241Y-116995363D01*
X155095363Y-117195241D01*
X154938320Y-117430273D01*
X154830147Y-117691426D01*
X154775000Y-117968665D01*
X154775000Y-118251335D01*
X154830147Y-118528574D01*
X154938320Y-118789727D01*
X155095363Y-119024759D01*
X155293961Y-119223357D01*
X155285518Y-119224188D01*
X155165820Y-119260498D01*
X155055506Y-119319463D01*
X154958815Y-119398815D01*
X154879463Y-119495506D01*
X154820498Y-119605820D01*
X154784188Y-119725518D01*
X154771928Y-119850000D01*
X154771928Y-121450000D01*
X154784188Y-121574482D01*
X154820498Y-121694180D01*
X154879463Y-121804494D01*
X154958815Y-121901185D01*
X155055506Y-121980537D01*
X155165820Y-122039502D01*
X155285518Y-122075812D01*
X155410000Y-122088072D01*
X157010000Y-122088072D01*
X157134482Y-122075812D01*
X157254180Y-122039502D01*
X157364494Y-121980537D01*
X157461185Y-121901185D01*
X157540537Y-121804494D01*
X157599502Y-121694180D01*
X157635812Y-121574482D01*
X157648072Y-121450000D01*
X157648072Y-120558966D01*
X160337501Y-117869538D01*
X160337500Y-120843104D01*
X160175363Y-121005241D01*
X160018320Y-121240273D01*
X159910147Y-121501426D01*
X159855000Y-121778665D01*
X159855000Y-122061335D01*
X159910147Y-122338574D01*
X160018320Y-122599727D01*
X160175363Y-122834759D01*
X160375241Y-123034637D01*
X160610273Y-123191680D01*
X160871426Y-123299853D01*
X161148665Y-123355000D01*
X161431335Y-123355000D01*
X161708574Y-123299853D01*
X161969727Y-123191680D01*
X162204759Y-123034637D01*
X162404637Y-122834759D01*
X162561680Y-122599727D01*
X162669853Y-122338574D01*
X162725000Y-122061335D01*
X162725000Y-121778665D01*
X162669853Y-121501426D01*
X162561680Y-121240273D01*
X162404637Y-121005241D01*
X162242500Y-120843104D01*
X162242500Y-115964538D01*
X165012038Y-113195000D01*
X165241335Y-113195000D01*
X165518574Y-113139853D01*
X165779727Y-113031680D01*
X166014759Y-112874637D01*
X166214637Y-112674759D01*
X166371680Y-112439727D01*
X166479853Y-112178574D01*
X166535000Y-111901335D01*
X166535000Y-111672038D01*
X171695073Y-106511966D01*
X171767501Y-106533937D01*
X171767500Y-107588064D01*
X171616619Y-107633833D01*
X171462391Y-107716269D01*
X171327210Y-107827210D01*
X171216269Y-107962391D01*
X171133833Y-108116619D01*
X171083069Y-108283965D01*
X171065928Y-108458000D01*
X171065928Y-109527034D01*
X164459565Y-116133397D01*
X164423223Y-116163222D01*
X164393399Y-116199563D01*
X164304194Y-116308260D01*
X164215749Y-116473731D01*
X164161283Y-116653278D01*
X164142892Y-116840000D01*
X164147501Y-116886795D01*
X164147500Y-120843104D01*
X163985363Y-121005241D01*
X163828320Y-121240273D01*
X163720147Y-121501426D01*
X163665000Y-121778665D01*
X163665000Y-122061335D01*
X163720147Y-122338574D01*
X163828320Y-122599727D01*
X163985363Y-122834759D01*
X164185241Y-123034637D01*
X164420273Y-123191680D01*
X164681426Y-123299853D01*
X164958665Y-123355000D01*
X165241335Y-123355000D01*
X165518574Y-123299853D01*
X165779727Y-123191680D01*
X166014759Y-123034637D01*
X166079524Y-122969872D01*
X171755000Y-122969872D01*
X171755000Y-123410128D01*
X171840890Y-123841925D01*
X172009369Y-124248669D01*
X172253962Y-124614729D01*
X172565271Y-124926038D01*
X172931331Y-125170631D01*
X173338075Y-125339110D01*
X173769872Y-125425000D01*
X174210128Y-125425000D01*
X174641925Y-125339110D01*
X175048669Y-125170631D01*
X175414729Y-124926038D01*
X175726038Y-124614729D01*
X175970631Y-124248669D01*
X176139110Y-123841925D01*
X176225000Y-123410128D01*
X176225000Y-122969872D01*
X176139110Y-122538075D01*
X175970631Y-122131331D01*
X175726038Y-121765271D01*
X175414729Y-121453962D01*
X175048669Y-121209369D01*
X174641925Y-121040890D01*
X174210128Y-120955000D01*
X173769872Y-120955000D01*
X173338075Y-121040890D01*
X172931331Y-121209369D01*
X172565271Y-121453962D01*
X172253962Y-121765271D01*
X172009369Y-122131331D01*
X171840890Y-122538075D01*
X171755000Y-122969872D01*
X166079524Y-122969872D01*
X166214637Y-122834759D01*
X166371680Y-122599727D01*
X166479853Y-122338574D01*
X166535000Y-122061335D01*
X166535000Y-121778665D01*
X166479853Y-121501426D01*
X166371680Y-121240273D01*
X166214637Y-121005241D01*
X166052500Y-120843104D01*
X166052500Y-117234538D01*
X172412966Y-110874072D01*
X173482000Y-110874072D01*
X173656035Y-110856931D01*
X173823381Y-110806167D01*
X173977609Y-110723731D01*
X174112790Y-110612790D01*
X174223731Y-110477609D01*
X174306167Y-110323381D01*
X174356931Y-110156035D01*
X174371934Y-110003710D01*
X174438201Y-110102886D01*
X174631114Y-110295799D01*
X174857957Y-110447371D01*
X175110011Y-110551775D01*
X175377589Y-110605000D01*
X175650411Y-110605000D01*
X175917989Y-110551775D01*
X176170043Y-110447371D01*
X176396886Y-110295799D01*
X176589799Y-110102886D01*
X176741371Y-109876043D01*
X176845775Y-109623989D01*
X176886000Y-109421766D01*
X176886000Y-126205723D01*
X176880953Y-126257195D01*
X176875377Y-126275663D01*
X176866322Y-126292693D01*
X176854129Y-126307643D01*
X176839266Y-126319939D01*
X176822303Y-126329111D01*
X176803871Y-126334817D01*
X176754554Y-126340000D01*
X128048277Y-126340000D01*
X127996805Y-126334953D01*
X127978337Y-126329377D01*
X127961307Y-126320322D01*
X127946357Y-126308129D01*
X127934061Y-126293266D01*
X127924889Y-126276303D01*
X127919183Y-126257871D01*
X127914000Y-126208554D01*
X127914000Y-122969872D01*
X128575000Y-122969872D01*
X128575000Y-123410128D01*
X128660890Y-123841925D01*
X128829369Y-124248669D01*
X129073962Y-124614729D01*
X129385271Y-124926038D01*
X129751331Y-125170631D01*
X130158075Y-125339110D01*
X130589872Y-125425000D01*
X131030128Y-125425000D01*
X131461925Y-125339110D01*
X131868669Y-125170631D01*
X132234729Y-124926038D01*
X132546038Y-124614729D01*
X132790631Y-124248669D01*
X132959110Y-123841925D01*
X133045000Y-123410128D01*
X133045000Y-122969872D01*
X132959110Y-122538075D01*
X132790631Y-122131331D01*
X132546038Y-121765271D01*
X132234729Y-121453962D01*
X131868669Y-121209369D01*
X131461925Y-121040890D01*
X131030128Y-120955000D01*
X130589872Y-120955000D01*
X130158075Y-121040890D01*
X129751331Y-121209369D01*
X129385271Y-121453962D01*
X129073962Y-121765271D01*
X128829369Y-122131331D01*
X128660890Y-122538075D01*
X128575000Y-122969872D01*
X127914000Y-122969872D01*
X127914000Y-109421766D01*
X127954225Y-109623989D01*
X128058629Y-109876043D01*
X128210201Y-110102886D01*
X128403114Y-110295799D01*
X128629957Y-110447371D01*
X128882011Y-110551775D01*
X129149589Y-110605000D01*
X129422411Y-110605000D01*
X129689989Y-110551775D01*
X129942043Y-110447371D01*
X130168886Y-110295799D01*
X130361799Y-110102886D01*
X130428066Y-110003710D01*
X130443069Y-110156035D01*
X130493833Y-110323381D01*
X130576269Y-110477609D01*
X130687210Y-110612790D01*
X130822391Y-110723731D01*
X130976619Y-110806167D01*
X131143965Y-110856931D01*
X131318000Y-110874072D01*
X132387034Y-110874072D01*
X133913393Y-112400431D01*
X133943222Y-112436778D01*
X134088259Y-112555806D01*
X134253731Y-112644252D01*
X134433277Y-112698717D01*
X134619999Y-112717108D01*
X134666784Y-112712500D01*
X138623104Y-112712500D01*
X138785241Y-112874637D01*
X139020273Y-113031680D01*
X139281426Y-113139853D01*
X139558665Y-113195000D01*
X139841335Y-113195000D01*
X140118574Y-113139853D01*
X140379727Y-113031680D01*
X140614759Y-112874637D01*
X140814637Y-112674759D01*
X140971680Y-112439727D01*
X141079853Y-112178574D01*
X141135000Y-111901335D01*
X141135000Y-111863409D01*
X141672027Y-112400436D01*
X141701852Y-112436778D01*
X141846889Y-112555806D01*
X141929625Y-112600029D01*
X142012360Y-112644252D01*
X142191907Y-112698717D01*
X142378630Y-112717108D01*
X142425415Y-112712500D01*
X142433104Y-112712500D01*
X142557500Y-112836896D01*
X142557501Y-117715461D01*
X139787962Y-120485000D01*
X139558665Y-120485000D01*
X139281426Y-120540147D01*
X139020273Y-120648320D01*
X138785241Y-120805363D01*
X138585363Y-121005241D01*
X138428320Y-121240273D01*
X138320147Y-121501426D01*
X138265000Y-121778665D01*
X138265000Y-122061335D01*
X138320147Y-122338574D01*
X138428320Y-122599727D01*
X138585363Y-122834759D01*
X138785241Y-123034637D01*
X139020273Y-123191680D01*
X139281426Y-123299853D01*
X139558665Y-123355000D01*
X139841335Y-123355000D01*
X140118574Y-123299853D01*
X140379727Y-123191680D01*
X140614759Y-123034637D01*
X140736694Y-122912702D01*
X142696903Y-122912702D01*
X142768486Y-123156671D01*
X143023996Y-123277571D01*
X143298184Y-123346300D01*
X143580512Y-123360217D01*
X143860130Y-123318787D01*
X144126292Y-123223603D01*
X144251514Y-123156671D01*
X144323097Y-122912702D01*
X143510000Y-122099605D01*
X142696903Y-122912702D01*
X140736694Y-122912702D01*
X140814637Y-122834759D01*
X140971680Y-122599727D01*
X141079853Y-122338574D01*
X141135000Y-122061335D01*
X141135000Y-121990512D01*
X142069783Y-121990512D01*
X142111213Y-122270130D01*
X142206397Y-122536292D01*
X142273329Y-122661514D01*
X142517298Y-122733097D01*
X143330395Y-121920000D01*
X143689605Y-121920000D01*
X144502702Y-122733097D01*
X144746671Y-122661514D01*
X144867571Y-122406004D01*
X144936300Y-122131816D01*
X144950217Y-121849488D01*
X144908787Y-121569870D01*
X144813603Y-121303708D01*
X144746671Y-121178486D01*
X144502702Y-121106903D01*
X143689605Y-121920000D01*
X143330395Y-121920000D01*
X142517298Y-121106903D01*
X142273329Y-121178486D01*
X142152429Y-121433996D01*
X142083700Y-121708184D01*
X142069783Y-121990512D01*
X141135000Y-121990512D01*
X141135000Y-121832038D01*
X142039740Y-120927298D01*
X142696903Y-120927298D01*
X143510000Y-121740395D01*
X144323097Y-120927298D01*
X144251514Y-120683329D01*
X143996004Y-120562429D01*
X143721816Y-120493700D01*
X143439488Y-120479783D01*
X143159870Y-120521213D01*
X142893708Y-120616397D01*
X142768486Y-120683329D01*
X142696903Y-120927298D01*
X142039740Y-120927298D01*
X144150431Y-118816607D01*
X144186778Y-118786778D01*
X144305806Y-118641741D01*
X144366295Y-118528574D01*
X144394252Y-118476270D01*
X144448717Y-118296722D01*
X144467108Y-118110000D01*
X144462500Y-118063215D01*
X144462500Y-112836896D01*
X144624637Y-112674759D01*
X144781680Y-112439727D01*
X144889853Y-112178574D01*
X144905292Y-112100960D01*
X146266000Y-113461668D01*
X146265999Y-116691714D01*
X146261391Y-116738499D01*
X146265999Y-116785283D01*
X146279782Y-116925221D01*
X146334247Y-117104767D01*
X146422693Y-117270240D01*
X146541721Y-117415277D01*
X146578068Y-117445106D01*
X147155000Y-118022038D01*
X147155000Y-118251335D01*
X147210147Y-118528574D01*
X147318320Y-118789727D01*
X147475363Y-119024759D01*
X147675241Y-119224637D01*
X147907759Y-119380000D01*
X147675241Y-119535363D01*
X147475363Y-119735241D01*
X147318320Y-119970273D01*
X147210147Y-120231426D01*
X147155000Y-120508665D01*
X147155000Y-120791335D01*
X147210147Y-121068574D01*
X147318320Y-121329727D01*
X147475363Y-121564759D01*
X147675241Y-121764637D01*
X147910273Y-121921680D01*
X148171426Y-122029853D01*
X148448665Y-122085000D01*
X148731335Y-122085000D01*
X149008574Y-122029853D01*
X149269727Y-121921680D01*
X149504759Y-121764637D01*
X149704637Y-121564759D01*
X149861680Y-121329727D01*
X149969853Y-121068574D01*
X149970443Y-121065607D01*
X152402916Y-118633135D01*
X152451371Y-118593369D01*
X152610076Y-118399987D01*
X152728004Y-118179358D01*
X152800624Y-117939962D01*
X152819001Y-117753379D01*
X152819001Y-117753373D01*
X152825144Y-117691000D01*
X152819001Y-117628627D01*
X152819001Y-95223374D01*
X152825144Y-95161001D01*
X152819001Y-95098628D01*
X152819001Y-95098621D01*
X152800624Y-94912038D01*
X152786129Y-94864252D01*
X152728004Y-94672642D01*
X152610076Y-94452013D01*
X152527002Y-94350787D01*
X152527002Y-94202252D01*
X152685750Y-94361000D01*
G37*
%TD.AperFunction*%
D15*
X155791426Y-100439853D02*
X156068665Y-100495000D01*
X156297962Y-100495000D01*
X163123393Y-107320431D01*
X163153222Y-107356778D01*
X163298259Y-107475806D01*
X163463731Y-107564252D01*
X163643277Y-107618717D01*
X163829999Y-107637108D01*
X163876784Y-107632500D01*
X164070462Y-107632500D01*
X163088064Y-108614898D01*
X163051722Y-108644723D01*
X163021898Y-108681064D01*
X162932693Y-108789761D01*
X162844248Y-108955232D01*
X162789782Y-109134779D01*
X162771391Y-109321501D01*
X162776000Y-109368295D01*
X162775999Y-111479714D01*
X162709054Y-111546659D01*
X162688787Y-111409870D01*
X162593603Y-111143708D01*
X162526671Y-111018486D01*
X162282702Y-110946903D01*
X161469605Y-111760000D01*
X161483748Y-111774143D01*
X161304143Y-111953748D01*
X161290000Y-111939605D01*
X160476903Y-112752702D01*
X160548486Y-112996671D01*
X160803996Y-113117571D01*
X161071171Y-113184542D01*
X159760555Y-114495158D01*
X159724213Y-114524983D01*
X159694389Y-114561324D01*
X159605184Y-114670021D01*
X159516739Y-114835492D01*
X159462273Y-115015039D01*
X159443882Y-115201761D01*
X159448491Y-115248555D01*
X159448490Y-116064471D01*
X158490817Y-117022145D01*
X158520218Y-116925222D01*
X158534001Y-116785284D01*
X158534001Y-116785283D01*
X158538609Y-116738500D01*
X158534001Y-116691715D01*
X158534001Y-111830512D01*
X159849783Y-111830512D01*
X159891213Y-112110130D01*
X159986397Y-112376292D01*
X160053329Y-112501514D01*
X160297298Y-112573097D01*
X161110395Y-111760000D01*
X160297298Y-110946903D01*
X160053329Y-111018486D01*
X159932429Y-111273996D01*
X159863700Y-111548184D01*
X159849783Y-111830512D01*
X158534001Y-111830512D01*
X158534001Y-110767298D01*
X160476903Y-110767298D01*
X161290000Y-111580395D01*
X162103097Y-110767298D01*
X162031514Y-110523329D01*
X161776004Y-110402429D01*
X161501816Y-110333700D01*
X161219488Y-110319783D01*
X160939870Y-110361213D01*
X160673708Y-110456397D01*
X160548486Y-110523329D01*
X160476903Y-110767298D01*
X158534001Y-110767298D01*
X158534001Y-108098285D01*
X158538609Y-108051500D01*
X158520218Y-107864778D01*
X158498941Y-107794637D01*
X158465753Y-107685232D01*
X158377307Y-107519760D01*
X158258279Y-107374723D01*
X158221932Y-107344894D01*
X157645000Y-106767962D01*
X157645000Y-106538665D01*
X157589853Y-106261426D01*
X157481680Y-106000273D01*
X157324637Y-105765241D01*
X157162500Y-105603104D01*
X157162500Y-103946896D01*
X157324637Y-103784759D01*
X157481680Y-103549727D01*
X157589853Y-103288574D01*
X157645000Y-103011335D01*
X157645000Y-102728665D01*
X157589853Y-102451426D01*
X157481680Y-102190273D01*
X157324637Y-101955241D01*
X157124759Y-101755363D01*
X156889727Y-101598320D01*
X156628574Y-101490147D01*
X156351335Y-101435000D01*
X156068665Y-101435000D01*
X155791426Y-101490147D01*
X155790999Y-101490324D01*
X155790999Y-100439676D01*
X155791426Y-100439853D01*
%TA.AperFunction,Conductor*%
D16*
G36*
X155791426Y-100439853D02*
G01*
X156068665Y-100495000D01*
X156297962Y-100495000D01*
X163123393Y-107320431D01*
X163153222Y-107356778D01*
X163298259Y-107475806D01*
X163463731Y-107564252D01*
X163643277Y-107618717D01*
X163829999Y-107637108D01*
X163876784Y-107632500D01*
X164070462Y-107632500D01*
X163088064Y-108614898D01*
X163051722Y-108644723D01*
X163021898Y-108681064D01*
X162932693Y-108789761D01*
X162844248Y-108955232D01*
X162789782Y-109134779D01*
X162771391Y-109321501D01*
X162776000Y-109368295D01*
X162775999Y-111479714D01*
X162709054Y-111546659D01*
X162688787Y-111409870D01*
X162593603Y-111143708D01*
X162526671Y-111018486D01*
X162282702Y-110946903D01*
X161469605Y-111760000D01*
X161483748Y-111774143D01*
X161304143Y-111953748D01*
X161290000Y-111939605D01*
X160476903Y-112752702D01*
X160548486Y-112996671D01*
X160803996Y-113117571D01*
X161071171Y-113184542D01*
X159760555Y-114495158D01*
X159724213Y-114524983D01*
X159694389Y-114561324D01*
X159605184Y-114670021D01*
X159516739Y-114835492D01*
X159462273Y-115015039D01*
X159443882Y-115201761D01*
X159448491Y-115248555D01*
X159448490Y-116064471D01*
X158490817Y-117022145D01*
X158520218Y-116925222D01*
X158534001Y-116785284D01*
X158534001Y-116785283D01*
X158538609Y-116738500D01*
X158534001Y-116691715D01*
X158534001Y-111830512D01*
X159849783Y-111830512D01*
X159891213Y-112110130D01*
X159986397Y-112376292D01*
X160053329Y-112501514D01*
X160297298Y-112573097D01*
X161110395Y-111760000D01*
X160297298Y-110946903D01*
X160053329Y-111018486D01*
X159932429Y-111273996D01*
X159863700Y-111548184D01*
X159849783Y-111830512D01*
X158534001Y-111830512D01*
X158534001Y-110767298D01*
X160476903Y-110767298D01*
X161290000Y-111580395D01*
X162103097Y-110767298D01*
X162031514Y-110523329D01*
X161776004Y-110402429D01*
X161501816Y-110333700D01*
X161219488Y-110319783D01*
X160939870Y-110361213D01*
X160673708Y-110456397D01*
X160548486Y-110523329D01*
X160476903Y-110767298D01*
X158534001Y-110767298D01*
X158534001Y-108098285D01*
X158538609Y-108051500D01*
X158520218Y-107864778D01*
X158498941Y-107794637D01*
X158465753Y-107685232D01*
X158377307Y-107519760D01*
X158258279Y-107374723D01*
X158221932Y-107344894D01*
X157645000Y-106767962D01*
X157645000Y-106538665D01*
X157589853Y-106261426D01*
X157481680Y-106000273D01*
X157324637Y-105765241D01*
X157162500Y-105603104D01*
X157162500Y-103946896D01*
X157324637Y-103784759D01*
X157481680Y-103549727D01*
X157589853Y-103288574D01*
X157645000Y-103011335D01*
X157645000Y-102728665D01*
X157589853Y-102451426D01*
X157481680Y-102190273D01*
X157324637Y-101955241D01*
X157124759Y-101755363D01*
X156889727Y-101598320D01*
X156628574Y-101490147D01*
X156351335Y-101435000D01*
X156068665Y-101435000D01*
X155791426Y-101490147D01*
X155790999Y-101490324D01*
X155790999Y-100439676D01*
X155791426Y-100439853D01*
G37*
%TD.AperFunction*%
D15*
X176803197Y-88295047D02*
X176821662Y-88300622D01*
X176838694Y-88309678D01*
X176853643Y-88321870D01*
X176865938Y-88336732D01*
X176875111Y-88353696D01*
X176880817Y-88372129D01*
X176886001Y-88421455D01*
X176886001Y-93778238D01*
X176845775Y-93576011D01*
X176741371Y-93323957D01*
X176589799Y-93097114D01*
X176396886Y-92904201D01*
X176170043Y-92752629D01*
X175917989Y-92648225D01*
X175650411Y-92595000D01*
X175377589Y-92595000D01*
X175110011Y-92648225D01*
X174857957Y-92752629D01*
X174631114Y-92904201D01*
X174438201Y-93097114D01*
X174371934Y-93196290D01*
X174356931Y-93043965D01*
X174306167Y-92876619D01*
X174223731Y-92722391D01*
X174112790Y-92587210D01*
X173977609Y-92476269D01*
X173823381Y-92393833D01*
X173656035Y-92343069D01*
X173482000Y-92325928D01*
X171958000Y-92325928D01*
X171783965Y-92343069D01*
X171616619Y-92393833D01*
X171462391Y-92476269D01*
X171327210Y-92587210D01*
X171216269Y-92722391D01*
X171133833Y-92876619D01*
X171083069Y-93043965D01*
X171065928Y-93218000D01*
X171065928Y-94287033D01*
X167346179Y-98006783D01*
X167284759Y-97945363D01*
X167049727Y-97788320D01*
X166788574Y-97680147D01*
X166511335Y-97625000D01*
X166228665Y-97625000D01*
X165951426Y-97680147D01*
X165690273Y-97788320D01*
X165455241Y-97945363D01*
X165255363Y-98145241D01*
X165098320Y-98380273D01*
X164990147Y-98641426D01*
X164935000Y-98918665D01*
X164935000Y-99201335D01*
X164990147Y-99478574D01*
X165098320Y-99739727D01*
X165255363Y-99974759D01*
X165455241Y-100174637D01*
X165690273Y-100331680D01*
X165951426Y-100439853D01*
X166228665Y-100495000D01*
X166511335Y-100495000D01*
X166788574Y-100439853D01*
X167049727Y-100331680D01*
X167284759Y-100174637D01*
X167446896Y-100012500D01*
X167593215Y-100012500D01*
X167640000Y-100017108D01*
X167686785Y-100012500D01*
X167826723Y-99998717D01*
X168006269Y-99944252D01*
X168171741Y-99855806D01*
X168316778Y-99736778D01*
X168346607Y-99700431D01*
X170765038Y-97282000D01*
X171065928Y-97282000D01*
X171069000Y-98012250D01*
X171227750Y-98171000D01*
X172593000Y-98171000D01*
X172593000Y-96805750D01*
X172434250Y-96647000D01*
X171704000Y-96643928D01*
X171579518Y-96656188D01*
X171459820Y-96692498D01*
X171349506Y-96751463D01*
X171252815Y-96830815D01*
X171173463Y-96927506D01*
X171114498Y-97037820D01*
X171078188Y-97157518D01*
X171065928Y-97282000D01*
X170765038Y-97282000D01*
X172412967Y-95634072D01*
X173482000Y-95634072D01*
X173656035Y-95616931D01*
X173823381Y-95566167D01*
X173977609Y-95483731D01*
X174112790Y-95372790D01*
X174223731Y-95237609D01*
X174306167Y-95083381D01*
X174356931Y-94916035D01*
X174371934Y-94763710D01*
X174438201Y-94862886D01*
X174631114Y-95055799D01*
X174857957Y-95207371D01*
X175110011Y-95311775D01*
X175377589Y-95365000D01*
X175650411Y-95365000D01*
X175917989Y-95311775D01*
X176170043Y-95207371D01*
X176396886Y-95055799D01*
X176589799Y-94862886D01*
X176741371Y-94636043D01*
X176845775Y-94383989D01*
X176886001Y-94181762D01*
X176886000Y-109018234D01*
X176845775Y-108816011D01*
X176741371Y-108563957D01*
X176589799Y-108337114D01*
X176396886Y-108144201D01*
X176170043Y-107992629D01*
X175917989Y-107888225D01*
X175650411Y-107835000D01*
X175377589Y-107835000D01*
X175110011Y-107888225D01*
X174857957Y-107992629D01*
X174631114Y-108144201D01*
X174438201Y-108337114D01*
X174371934Y-108436290D01*
X174356931Y-108283965D01*
X174306167Y-108116619D01*
X174223731Y-107962391D01*
X174112790Y-107827210D01*
X173977609Y-107716269D01*
X173823381Y-107633833D01*
X173672500Y-107588064D01*
X173672500Y-106533936D01*
X173823381Y-106488167D01*
X173977609Y-106405731D01*
X174112790Y-106294790D01*
X174223731Y-106159609D01*
X174306167Y-106005381D01*
X174356931Y-105838035D01*
X174363712Y-105769188D01*
X174374201Y-105784886D01*
X174567114Y-105977799D01*
X174793957Y-106129371D01*
X175046011Y-106233775D01*
X175313589Y-106287000D01*
X175586411Y-106287000D01*
X175853989Y-106233775D01*
X176106043Y-106129371D01*
X176332886Y-105977799D01*
X176525799Y-105784886D01*
X176677371Y-105558043D01*
X176781775Y-105305989D01*
X176835000Y-105038411D01*
X176835000Y-104765589D01*
X176781775Y-104498011D01*
X176677371Y-104245957D01*
X176525799Y-104019114D01*
X176332886Y-103826201D01*
X176106043Y-103674629D01*
X175853989Y-103570225D01*
X175586411Y-103517000D01*
X175313589Y-103517000D01*
X175046011Y-103570225D01*
X174793957Y-103674629D01*
X174567114Y-103826201D01*
X174374201Y-104019114D01*
X174363712Y-104034812D01*
X174356931Y-103965965D01*
X174306167Y-103798619D01*
X174223731Y-103644391D01*
X174112790Y-103509210D01*
X173977609Y-103398269D01*
X173823381Y-103315833D01*
X173656035Y-103265069D01*
X173513190Y-103251000D01*
X173656035Y-103236931D01*
X173823381Y-103186167D01*
X173977609Y-103103731D01*
X174112790Y-102992790D01*
X174223731Y-102857609D01*
X174306167Y-102703381D01*
X174356931Y-102536035D01*
X174363712Y-102467188D01*
X174374201Y-102482886D01*
X174567114Y-102675799D01*
X174793957Y-102827371D01*
X175046011Y-102931775D01*
X175313589Y-102985000D01*
X175586411Y-102985000D01*
X175853989Y-102931775D01*
X176106043Y-102827371D01*
X176332886Y-102675799D01*
X176525799Y-102482886D01*
X176677371Y-102256043D01*
X176781775Y-102003989D01*
X176835000Y-101736411D01*
X176835000Y-101463589D01*
X176781775Y-101196011D01*
X176677371Y-100943957D01*
X176525799Y-100717114D01*
X176332886Y-100524201D01*
X176106043Y-100372629D01*
X175853989Y-100268225D01*
X175586411Y-100215000D01*
X175313589Y-100215000D01*
X175046011Y-100268225D01*
X174793957Y-100372629D01*
X174567114Y-100524201D01*
X174374201Y-100717114D01*
X174363712Y-100732812D01*
X174356931Y-100663965D01*
X174306167Y-100496619D01*
X174223731Y-100342391D01*
X174112790Y-100207210D01*
X173977609Y-100096269D01*
X173823381Y-100013833D01*
X173656035Y-99963069D01*
X173535831Y-99951230D01*
X173736000Y-99952072D01*
X173860482Y-99939812D01*
X173980180Y-99903502D01*
X174090494Y-99844537D01*
X174187185Y-99765185D01*
X174266537Y-99668494D01*
X174325502Y-99558180D01*
X174361812Y-99438482D01*
X174374072Y-99314000D01*
X174373508Y-99179848D01*
X174374201Y-99180886D01*
X174567114Y-99373799D01*
X174793957Y-99525371D01*
X175046011Y-99629775D01*
X175313589Y-99683000D01*
X175586411Y-99683000D01*
X175853989Y-99629775D01*
X176106043Y-99525371D01*
X176332886Y-99373799D01*
X176525799Y-99180886D01*
X176677371Y-98954043D01*
X176781775Y-98701989D01*
X176835000Y-98434411D01*
X176835000Y-98161589D01*
X176781775Y-97894011D01*
X176677371Y-97641957D01*
X176525799Y-97415114D01*
X176332886Y-97222201D01*
X176106043Y-97070629D01*
X175853989Y-96966225D01*
X175586411Y-96913000D01*
X175313589Y-96913000D01*
X175046011Y-96966225D01*
X174793957Y-97070629D01*
X174567114Y-97222201D01*
X174374201Y-97415114D01*
X174373508Y-97416152D01*
X174374072Y-97282000D01*
X174361812Y-97157518D01*
X174325502Y-97037820D01*
X174266537Y-96927506D01*
X174187185Y-96830815D01*
X174090494Y-96751463D01*
X173980180Y-96692498D01*
X173860482Y-96656188D01*
X173736000Y-96643928D01*
X173005750Y-96647000D01*
X172847000Y-96805750D01*
X172847000Y-98171000D01*
X172867000Y-98171000D01*
X172867000Y-98425000D01*
X172847000Y-98425000D01*
X172847000Y-98445000D01*
X172593000Y-98445000D01*
X172593000Y-98425000D01*
X171227750Y-98425000D01*
X171069000Y-98583750D01*
X171065928Y-99314000D01*
X171078188Y-99438482D01*
X171114498Y-99558180D01*
X171173463Y-99668494D01*
X171252815Y-99765185D01*
X171349506Y-99844537D01*
X171459820Y-99903502D01*
X171579518Y-99939812D01*
X171704000Y-99952072D01*
X171904169Y-99951230D01*
X171783965Y-99963069D01*
X171616619Y-100013833D01*
X171462391Y-100096269D01*
X171327210Y-100207210D01*
X171216269Y-100342391D01*
X171133833Y-100496619D01*
X171083069Y-100663965D01*
X171065928Y-100838000D01*
X171065928Y-101907034D01*
X170492054Y-102480908D01*
X170455713Y-102510732D01*
X170425889Y-102547073D01*
X170336684Y-102655770D01*
X170248239Y-102821241D01*
X170193773Y-103000788D01*
X170175382Y-103187510D01*
X170179991Y-103234304D01*
X170179990Y-105332971D01*
X165187962Y-110325000D01*
X164958665Y-110325000D01*
X164681426Y-110380147D01*
X164680999Y-110380324D01*
X164680999Y-109716039D01*
X166282038Y-108115000D01*
X166511335Y-108115000D01*
X166788574Y-108059853D01*
X167049727Y-107951680D01*
X167284759Y-107794637D01*
X167484637Y-107594759D01*
X167641680Y-107359727D01*
X167749853Y-107098574D01*
X167805000Y-106821335D01*
X167805000Y-106538665D01*
X167749853Y-106261426D01*
X167641680Y-106000273D01*
X167484637Y-105765241D01*
X167284759Y-105565363D01*
X167049727Y-105408320D01*
X166788574Y-105300147D01*
X166511335Y-105245000D01*
X166228665Y-105245000D01*
X165951426Y-105300147D01*
X165690273Y-105408320D01*
X165455241Y-105565363D01*
X165293104Y-105727500D01*
X164224538Y-105727500D01*
X161225703Y-102728665D01*
X164935000Y-102728665D01*
X164935000Y-103011335D01*
X164990147Y-103288574D01*
X165098320Y-103549727D01*
X165255363Y-103784759D01*
X165455241Y-103984637D01*
X165690273Y-104141680D01*
X165951426Y-104249853D01*
X166228665Y-104305000D01*
X166511335Y-104305000D01*
X166788574Y-104249853D01*
X167049727Y-104141680D01*
X167284759Y-103984637D01*
X167484637Y-103784759D01*
X167641680Y-103549727D01*
X167749853Y-103288574D01*
X167805000Y-103011335D01*
X167805000Y-102728665D01*
X167749853Y-102451426D01*
X167641680Y-102190273D01*
X167484637Y-101955241D01*
X167284759Y-101755363D01*
X167049727Y-101598320D01*
X166788574Y-101490147D01*
X166511335Y-101435000D01*
X166228665Y-101435000D01*
X165951426Y-101490147D01*
X165690273Y-101598320D01*
X165455241Y-101755363D01*
X165255363Y-101955241D01*
X165098320Y-102190273D01*
X164990147Y-102451426D01*
X164935000Y-102728665D01*
X161225703Y-102728665D01*
X157645000Y-99147962D01*
X157645000Y-98918665D01*
X157589853Y-98641426D01*
X157481680Y-98380273D01*
X157324637Y-98145241D01*
X157124759Y-97945363D01*
X156889727Y-97788320D01*
X156628574Y-97680147D01*
X156351335Y-97625000D01*
X156068665Y-97625000D01*
X155791426Y-97680147D01*
X155790999Y-97680324D01*
X155790999Y-96416702D01*
X160476903Y-96416702D01*
X160548486Y-96660671D01*
X160803996Y-96781571D01*
X161078184Y-96850300D01*
X161360512Y-96864217D01*
X161640130Y-96822787D01*
X161906292Y-96727603D01*
X162031514Y-96660671D01*
X162103097Y-96416702D01*
X161290000Y-95603605D01*
X160476903Y-96416702D01*
X155790999Y-96416702D01*
X155790999Y-95494512D01*
X159849783Y-95494512D01*
X159891213Y-95774130D01*
X159986397Y-96040292D01*
X160053329Y-96165514D01*
X160297298Y-96237097D01*
X161110395Y-95424000D01*
X161469605Y-95424000D01*
X162282702Y-96237097D01*
X162526671Y-96165514D01*
X162647571Y-95910004D01*
X162716300Y-95635816D01*
X162730217Y-95353488D01*
X162688787Y-95073870D01*
X162593603Y-94807708D01*
X162526671Y-94682486D01*
X162282702Y-94610903D01*
X161469605Y-95424000D01*
X161110395Y-95424000D01*
X160297298Y-94610903D01*
X160053329Y-94682486D01*
X159932429Y-94937996D01*
X159863700Y-95212184D01*
X159849783Y-95494512D01*
X155790999Y-95494512D01*
X155790999Y-94431298D01*
X160476903Y-94431298D01*
X161290000Y-95244395D01*
X162103097Y-94431298D01*
X162031514Y-94187329D01*
X161776004Y-94066429D01*
X161501816Y-93997700D01*
X161219488Y-93983783D01*
X160939870Y-94025213D01*
X160673708Y-94120397D01*
X160548486Y-94187329D01*
X160476903Y-94431298D01*
X155790999Y-94431298D01*
X155790999Y-94417052D01*
X155843979Y-94364072D01*
X156464000Y-94364072D01*
X156638035Y-94346931D01*
X156805381Y-94296167D01*
X156959609Y-94213731D01*
X157094790Y-94102790D01*
X157195562Y-93980000D01*
X158941627Y-93980000D01*
X159004000Y-93986143D01*
X159066373Y-93980000D01*
X159066380Y-93980000D01*
X159252963Y-93961623D01*
X159492359Y-93889003D01*
X159712988Y-93771075D01*
X159906370Y-93612370D01*
X159946141Y-93563909D01*
X161705608Y-91804443D01*
X161708574Y-91803853D01*
X161969727Y-91695680D01*
X162204759Y-91538637D01*
X162404637Y-91338759D01*
X162561680Y-91103727D01*
X162669853Y-90842574D01*
X162725000Y-90565335D01*
X162725000Y-90282665D01*
X162669853Y-90005426D01*
X162561680Y-89744273D01*
X162404637Y-89509241D01*
X162204759Y-89309363D01*
X161969727Y-89152320D01*
X161708574Y-89044147D01*
X161431335Y-88989000D01*
X161148665Y-88989000D01*
X160871426Y-89044147D01*
X160610273Y-89152320D01*
X160375241Y-89309363D01*
X160175363Y-89509241D01*
X160018320Y-89744273D01*
X159910147Y-90005426D01*
X159909557Y-90008392D01*
X158477950Y-91440000D01*
X157195562Y-91440000D01*
X157094790Y-91317210D01*
X156959609Y-91206269D01*
X156805381Y-91123833D01*
X156638035Y-91073069D01*
X156569188Y-91066288D01*
X156584886Y-91055799D01*
X156777799Y-90862886D01*
X156929371Y-90636043D01*
X157033775Y-90383989D01*
X157087000Y-90116411D01*
X157087000Y-89843589D01*
X157033775Y-89576011D01*
X156929371Y-89323957D01*
X156777799Y-89097114D01*
X156584886Y-88904201D01*
X156358043Y-88752629D01*
X156105989Y-88648225D01*
X155838411Y-88595000D01*
X155565589Y-88595000D01*
X155298011Y-88648225D01*
X155045957Y-88752629D01*
X154819114Y-88904201D01*
X154626201Y-89097114D01*
X154474629Y-89323957D01*
X154370225Y-89576011D01*
X154317000Y-89843589D01*
X154317000Y-90116411D01*
X154370225Y-90383989D01*
X154474629Y-90636043D01*
X154626201Y-90862886D01*
X154819114Y-91055799D01*
X154834812Y-91066288D01*
X154765965Y-91073069D01*
X154598619Y-91123833D01*
X154444391Y-91206269D01*
X154309210Y-91317210D01*
X154198269Y-91452391D01*
X154115833Y-91606619D01*
X154065069Y-91773965D01*
X154053230Y-91894169D01*
X154054072Y-91694000D01*
X154041812Y-91569518D01*
X154005502Y-91449820D01*
X153946537Y-91339506D01*
X153867185Y-91242815D01*
X153770494Y-91163463D01*
X153660180Y-91104498D01*
X153540482Y-91068188D01*
X153416000Y-91055928D01*
X153281848Y-91056492D01*
X153282886Y-91055799D01*
X153475799Y-90862886D01*
X153627371Y-90636043D01*
X153731775Y-90383989D01*
X153785000Y-90116411D01*
X153785000Y-89843589D01*
X153731775Y-89576011D01*
X153627371Y-89323957D01*
X153475799Y-89097114D01*
X153282886Y-88904201D01*
X153056043Y-88752629D01*
X152803989Y-88648225D01*
X152536411Y-88595000D01*
X152263589Y-88595000D01*
X151996011Y-88648225D01*
X151743957Y-88752629D01*
X151517114Y-88904201D01*
X151324201Y-89097114D01*
X151172629Y-89323957D01*
X151068225Y-89576011D01*
X151015000Y-89843589D01*
X151015000Y-90116411D01*
X151068225Y-90383989D01*
X151172629Y-90636043D01*
X151324201Y-90862886D01*
X151517114Y-91055799D01*
X151518152Y-91056492D01*
X151384000Y-91055928D01*
X151259518Y-91068188D01*
X151139820Y-91104498D01*
X151029506Y-91163463D01*
X150932815Y-91242815D01*
X150853463Y-91339506D01*
X150794498Y-91449820D01*
X150758188Y-91569518D01*
X150745928Y-91694000D01*
X150746770Y-91894169D01*
X150734931Y-91773965D01*
X150684167Y-91606619D01*
X150601731Y-91452391D01*
X150490790Y-91317210D01*
X150355609Y-91206269D01*
X150201381Y-91123833D01*
X150034035Y-91073069D01*
X149965188Y-91066288D01*
X149980886Y-91055799D01*
X150173799Y-90862886D01*
X150325371Y-90636043D01*
X150429775Y-90383989D01*
X150483000Y-90116411D01*
X150483000Y-89843589D01*
X150429775Y-89576011D01*
X150325371Y-89323957D01*
X150173799Y-89097114D01*
X149980886Y-88904201D01*
X149754043Y-88752629D01*
X149501989Y-88648225D01*
X149234411Y-88595000D01*
X148961589Y-88595000D01*
X148694011Y-88648225D01*
X148441957Y-88752629D01*
X148215114Y-88904201D01*
X148022201Y-89097114D01*
X147870629Y-89323957D01*
X147766225Y-89576011D01*
X147713000Y-89843589D01*
X147713000Y-90116411D01*
X147766225Y-90383989D01*
X147870629Y-90636043D01*
X148022201Y-90862886D01*
X148215114Y-91055799D01*
X148230812Y-91066288D01*
X148161965Y-91073069D01*
X147994619Y-91123833D01*
X147840391Y-91206269D01*
X147705210Y-91317210D01*
X147604438Y-91440000D01*
X146068051Y-91440000D01*
X144636443Y-90008393D01*
X144635853Y-90005426D01*
X144527680Y-89744273D01*
X144370637Y-89509241D01*
X144170759Y-89309363D01*
X143935727Y-89152320D01*
X143674574Y-89044147D01*
X143397335Y-88989000D01*
X143114665Y-88989000D01*
X142837426Y-89044147D01*
X142576273Y-89152320D01*
X142341241Y-89309363D01*
X142141363Y-89509241D01*
X141984320Y-89744273D01*
X141876147Y-90005426D01*
X141821000Y-90282665D01*
X141821000Y-90565335D01*
X141876147Y-90842574D01*
X141984320Y-91103727D01*
X142141363Y-91338759D01*
X142341241Y-91538637D01*
X142576273Y-91695680D01*
X142837426Y-91803853D01*
X142840393Y-91804443D01*
X144599863Y-93563914D01*
X144639630Y-93612370D01*
X144833012Y-93771075D01*
X145053641Y-93889003D01*
X145220416Y-93939594D01*
X145293036Y-93961623D01*
X145318755Y-93964156D01*
X145479620Y-93980000D01*
X145479626Y-93980000D01*
X145541999Y-93986143D01*
X145604372Y-93980000D01*
X147604438Y-93980000D01*
X147705210Y-94102790D01*
X147840391Y-94213731D01*
X147994619Y-94296167D01*
X148161965Y-94346931D01*
X148336000Y-94364072D01*
X148956021Y-94364072D01*
X150279002Y-95687054D01*
X150279002Y-97680324D01*
X150278574Y-97680147D01*
X150001335Y-97625000D01*
X149718665Y-97625000D01*
X149441426Y-97680147D01*
X149180273Y-97788320D01*
X148945241Y-97945363D01*
X148745363Y-98145241D01*
X148588320Y-98380273D01*
X148480147Y-98641426D01*
X148425000Y-98918665D01*
X148425000Y-99201335D01*
X148480147Y-99478574D01*
X148588320Y-99739727D01*
X148745363Y-99974759D01*
X148945241Y-100174637D01*
X149180273Y-100331680D01*
X149441426Y-100439853D01*
X149718665Y-100495000D01*
X150001335Y-100495000D01*
X150278574Y-100439853D01*
X150279002Y-100439676D01*
X150279002Y-101490324D01*
X150278574Y-101490147D01*
X150001335Y-101435000D01*
X149718665Y-101435000D01*
X149441426Y-101490147D01*
X149180273Y-101598320D01*
X148945241Y-101755363D01*
X148745363Y-101955241D01*
X148588320Y-102190273D01*
X148480147Y-102451426D01*
X148425000Y-102728665D01*
X148425000Y-103011335D01*
X148480147Y-103288574D01*
X148588320Y-103549727D01*
X148745363Y-103784759D01*
X148907500Y-103946896D01*
X148907501Y-105603103D01*
X148745363Y-105765241D01*
X148588320Y-106000273D01*
X148480147Y-106261426D01*
X148425000Y-106538665D01*
X148425000Y-106821335D01*
X148480147Y-107098574D01*
X148588320Y-107359727D01*
X148745363Y-107594759D01*
X148907500Y-107756896D01*
X148907501Y-111630042D01*
X148731335Y-111595000D01*
X148448665Y-111595000D01*
X148171426Y-111650147D01*
X147910273Y-111758320D01*
X147675241Y-111915363D01*
X147544506Y-112046098D01*
X141537977Y-106039569D01*
X141508148Y-106003222D01*
X141363111Y-105884194D01*
X141197639Y-105795748D01*
X141018093Y-105741283D01*
X140878155Y-105727500D01*
X140831370Y-105722892D01*
X140784585Y-105727500D01*
X140776896Y-105727500D01*
X140614759Y-105565363D01*
X140379727Y-105408320D01*
X140118574Y-105300147D01*
X139841335Y-105245000D01*
X139558665Y-105245000D01*
X139281426Y-105300147D01*
X139020273Y-105408320D01*
X138785241Y-105565363D01*
X138585363Y-105765241D01*
X138428320Y-106000273D01*
X138320147Y-106261426D01*
X138304708Y-106339040D01*
X133734072Y-101768404D01*
X133734072Y-101299110D01*
X135945393Y-103510431D01*
X135975222Y-103546778D01*
X136120259Y-103665806D01*
X136285731Y-103754252D01*
X136431989Y-103798619D01*
X136465277Y-103808717D01*
X136651999Y-103827108D01*
X136698784Y-103822500D01*
X138623104Y-103822500D01*
X138785241Y-103984637D01*
X139020273Y-104141680D01*
X139281426Y-104249853D01*
X139558665Y-104305000D01*
X139841335Y-104305000D01*
X140118574Y-104249853D01*
X140379727Y-104141680D01*
X140614759Y-103984637D01*
X140814637Y-103784759D01*
X140971680Y-103549727D01*
X141079853Y-103288574D01*
X141135000Y-103011335D01*
X141135000Y-102728665D01*
X141079853Y-102451426D01*
X140971680Y-102190273D01*
X140814637Y-101955241D01*
X140614759Y-101755363D01*
X140379727Y-101598320D01*
X140118574Y-101490147D01*
X139841335Y-101435000D01*
X139558665Y-101435000D01*
X139281426Y-101490147D01*
X139020273Y-101598320D01*
X138785241Y-101755363D01*
X138623104Y-101917500D01*
X137046538Y-101917500D01*
X133734072Y-98605034D01*
X133734072Y-97536000D01*
X133716931Y-97361965D01*
X133666167Y-97194619D01*
X133583731Y-97040391D01*
X133472790Y-96905210D01*
X133337609Y-96794269D01*
X133183381Y-96711833D01*
X133016035Y-96661069D01*
X132842000Y-96643928D01*
X131318000Y-96643928D01*
X131143965Y-96661069D01*
X130976619Y-96711833D01*
X130822391Y-96794269D01*
X130687210Y-96905210D01*
X130576269Y-97040391D01*
X130493833Y-97194619D01*
X130443069Y-97361965D01*
X130436288Y-97430812D01*
X130425799Y-97415114D01*
X130232886Y-97222201D01*
X130006043Y-97070629D01*
X129753989Y-96966225D01*
X129486411Y-96913000D01*
X129213589Y-96913000D01*
X128946011Y-96966225D01*
X128693957Y-97070629D01*
X128467114Y-97222201D01*
X128274201Y-97415114D01*
X128122629Y-97641957D01*
X128018225Y-97894011D01*
X127965000Y-98161589D01*
X127965000Y-98434411D01*
X128018225Y-98701989D01*
X128122629Y-98954043D01*
X128274201Y-99180886D01*
X128467114Y-99373799D01*
X128693957Y-99525371D01*
X128946011Y-99629775D01*
X129213589Y-99683000D01*
X129486411Y-99683000D01*
X129753989Y-99629775D01*
X130006043Y-99525371D01*
X130232886Y-99373799D01*
X130425799Y-99180886D01*
X130436288Y-99165188D01*
X130443069Y-99234035D01*
X130493833Y-99401381D01*
X130576269Y-99555609D01*
X130687210Y-99690790D01*
X130822391Y-99801731D01*
X130976619Y-99884167D01*
X131143965Y-99934931D01*
X131286810Y-99949000D01*
X131143965Y-99963069D01*
X130976619Y-100013833D01*
X130822391Y-100096269D01*
X130687210Y-100207210D01*
X130576269Y-100342391D01*
X130493833Y-100496619D01*
X130443069Y-100663965D01*
X130436288Y-100732812D01*
X130425799Y-100717114D01*
X130232886Y-100524201D01*
X130006043Y-100372629D01*
X129753989Y-100268225D01*
X129486411Y-100215000D01*
X129213589Y-100215000D01*
X128946011Y-100268225D01*
X128693957Y-100372629D01*
X128467114Y-100524201D01*
X128274201Y-100717114D01*
X128122629Y-100943957D01*
X128018225Y-101196011D01*
X127965000Y-101463589D01*
X127965000Y-101736411D01*
X128018225Y-102003989D01*
X128122629Y-102256043D01*
X128274201Y-102482886D01*
X128467114Y-102675799D01*
X128693957Y-102827371D01*
X128946011Y-102931775D01*
X129213589Y-102985000D01*
X129486411Y-102985000D01*
X129753989Y-102931775D01*
X130006043Y-102827371D01*
X130232886Y-102675799D01*
X130425799Y-102482886D01*
X130436288Y-102467188D01*
X130443069Y-102536035D01*
X130493833Y-102703381D01*
X130576269Y-102857609D01*
X130687210Y-102992790D01*
X130822391Y-103103731D01*
X130976619Y-103186167D01*
X131143965Y-103236931D01*
X131264169Y-103248770D01*
X131064000Y-103247928D01*
X130939518Y-103260188D01*
X130819820Y-103296498D01*
X130709506Y-103355463D01*
X130612815Y-103434815D01*
X130533463Y-103531506D01*
X130474498Y-103641820D01*
X130438188Y-103761518D01*
X130425928Y-103886000D01*
X130426492Y-104020152D01*
X130425799Y-104019114D01*
X130232886Y-103826201D01*
X130006043Y-103674629D01*
X129753989Y-103570225D01*
X129486411Y-103517000D01*
X129213589Y-103517000D01*
X128946011Y-103570225D01*
X128693957Y-103674629D01*
X128467114Y-103826201D01*
X128274201Y-104019114D01*
X128122629Y-104245957D01*
X128018225Y-104498011D01*
X127965000Y-104765589D01*
X127965000Y-105038411D01*
X128018225Y-105305989D01*
X128122629Y-105558043D01*
X128274201Y-105784886D01*
X128467114Y-105977799D01*
X128693957Y-106129371D01*
X128946011Y-106233775D01*
X129213589Y-106287000D01*
X129486411Y-106287000D01*
X129753989Y-106233775D01*
X130006043Y-106129371D01*
X130232886Y-105977799D01*
X130425799Y-105784886D01*
X130426492Y-105783848D01*
X130425928Y-105918000D01*
X130438188Y-106042482D01*
X130474498Y-106162180D01*
X130533463Y-106272494D01*
X130612815Y-106369185D01*
X130709506Y-106448537D01*
X130819820Y-106507502D01*
X130939518Y-106543812D01*
X131064000Y-106556072D01*
X131794250Y-106553000D01*
X131953000Y-106394250D01*
X131953000Y-105029000D01*
X132207000Y-105029000D01*
X132207000Y-106394250D01*
X132365750Y-106553000D01*
X133096000Y-106556072D01*
X133220482Y-106543812D01*
X133340180Y-106507502D01*
X133450494Y-106448537D01*
X133547185Y-106369185D01*
X133626537Y-106272494D01*
X133685502Y-106162180D01*
X133721812Y-106042482D01*
X133734072Y-105918000D01*
X133731000Y-105187750D01*
X133572250Y-105029000D01*
X132207000Y-105029000D01*
X131953000Y-105029000D01*
X131933000Y-105029000D01*
X131933000Y-104775000D01*
X131953000Y-104775000D01*
X131953000Y-104755000D01*
X132207000Y-104755000D01*
X132207000Y-104775000D01*
X133572250Y-104775000D01*
X133731000Y-104616250D01*
X133731657Y-104460065D01*
X139596591Y-110325000D01*
X139558665Y-110325000D01*
X139281426Y-110380147D01*
X139020273Y-110488320D01*
X138785241Y-110645363D01*
X138623104Y-110807500D01*
X135014538Y-110807500D01*
X133734072Y-109527034D01*
X133734072Y-108458000D01*
X133716931Y-108283965D01*
X133666167Y-108116619D01*
X133583731Y-107962391D01*
X133472790Y-107827210D01*
X133337609Y-107716269D01*
X133183381Y-107633833D01*
X133016035Y-107583069D01*
X132842000Y-107565928D01*
X131318000Y-107565928D01*
X131143965Y-107583069D01*
X130976619Y-107633833D01*
X130822391Y-107716269D01*
X130687210Y-107827210D01*
X130576269Y-107962391D01*
X130493833Y-108116619D01*
X130443069Y-108283965D01*
X130428066Y-108436290D01*
X130361799Y-108337114D01*
X130168886Y-108144201D01*
X129942043Y-107992629D01*
X129689989Y-107888225D01*
X129422411Y-107835000D01*
X129149589Y-107835000D01*
X128882011Y-107888225D01*
X128629957Y-107992629D01*
X128403114Y-108144201D01*
X128210201Y-108337114D01*
X128058629Y-108563957D01*
X127954225Y-108816011D01*
X127914000Y-109018234D01*
X127914000Y-94181766D01*
X127954225Y-94383989D01*
X128058629Y-94636043D01*
X128210201Y-94862886D01*
X128403114Y-95055799D01*
X128629957Y-95207371D01*
X128882011Y-95311775D01*
X129149589Y-95365000D01*
X129422411Y-95365000D01*
X129689989Y-95311775D01*
X129942043Y-95207371D01*
X130168886Y-95055799D01*
X130361799Y-94862886D01*
X130428066Y-94763710D01*
X130443069Y-94916035D01*
X130493833Y-95083381D01*
X130576269Y-95237609D01*
X130687210Y-95372790D01*
X130822391Y-95483731D01*
X130976619Y-95566167D01*
X131143965Y-95616931D01*
X131318000Y-95634072D01*
X132842000Y-95634072D01*
X133016035Y-95616931D01*
X133183381Y-95566167D01*
X133337609Y-95483731D01*
X133472790Y-95372790D01*
X133583731Y-95237609D01*
X133666167Y-95083381D01*
X133711936Y-94932500D01*
X134225462Y-94932500D01*
X138265000Y-98972039D01*
X138265000Y-99201335D01*
X138320147Y-99478574D01*
X138428320Y-99739727D01*
X138585363Y-99974759D01*
X138785241Y-100174637D01*
X139020273Y-100331680D01*
X139281426Y-100439853D01*
X139558665Y-100495000D01*
X139841335Y-100495000D01*
X140118574Y-100439853D01*
X140379727Y-100331680D01*
X140614759Y-100174637D01*
X140814637Y-99974759D01*
X140971680Y-99739727D01*
X141079853Y-99478574D01*
X141135000Y-99201335D01*
X141135000Y-98918665D01*
X141079853Y-98641426D01*
X140971680Y-98380273D01*
X140814637Y-98145241D01*
X140614759Y-97945363D01*
X140379727Y-97788320D01*
X140118574Y-97680147D01*
X139841335Y-97625000D01*
X139612039Y-97625000D01*
X138403741Y-96416702D01*
X142442903Y-96416702D01*
X142514486Y-96660671D01*
X142769996Y-96781571D01*
X143044184Y-96850300D01*
X143326512Y-96864217D01*
X143606130Y-96822787D01*
X143872292Y-96727603D01*
X143997514Y-96660671D01*
X144069097Y-96416702D01*
X143256000Y-95603605D01*
X142442903Y-96416702D01*
X138403741Y-96416702D01*
X137481551Y-95494512D01*
X141815783Y-95494512D01*
X141857213Y-95774130D01*
X141952397Y-96040292D01*
X142019329Y-96165514D01*
X142263298Y-96237097D01*
X143076395Y-95424000D01*
X143435605Y-95424000D01*
X144248702Y-96237097D01*
X144492671Y-96165514D01*
X144613571Y-95910004D01*
X144682300Y-95635816D01*
X144696217Y-95353488D01*
X144654787Y-95073870D01*
X144559603Y-94807708D01*
X144492671Y-94682486D01*
X144248702Y-94610903D01*
X143435605Y-95424000D01*
X143076395Y-95424000D01*
X142263298Y-94610903D01*
X142019329Y-94682486D01*
X141898429Y-94937996D01*
X141829700Y-95212184D01*
X141815783Y-95494512D01*
X137481551Y-95494512D01*
X136418337Y-94431298D01*
X142442903Y-94431298D01*
X143256000Y-95244395D01*
X144069097Y-94431298D01*
X143997514Y-94187329D01*
X143742004Y-94066429D01*
X143467816Y-93997700D01*
X143185488Y-93983783D01*
X142905870Y-94025213D01*
X142639708Y-94120397D01*
X142514486Y-94187329D01*
X142442903Y-94431298D01*
X136418337Y-94431298D01*
X135326607Y-93339569D01*
X135296778Y-93303222D01*
X135151741Y-93184194D01*
X134986269Y-93095748D01*
X134806723Y-93041283D01*
X134666785Y-93027500D01*
X134620000Y-93022892D01*
X134573215Y-93027500D01*
X133711936Y-93027500D01*
X133666167Y-92876619D01*
X133583731Y-92722391D01*
X133472790Y-92587210D01*
X133337609Y-92476269D01*
X133183381Y-92393833D01*
X133016035Y-92343069D01*
X132842000Y-92325928D01*
X131318000Y-92325928D01*
X131143965Y-92343069D01*
X130976619Y-92393833D01*
X130822391Y-92476269D01*
X130687210Y-92587210D01*
X130576269Y-92722391D01*
X130493833Y-92876619D01*
X130443069Y-93043965D01*
X130428066Y-93196290D01*
X130361799Y-93097114D01*
X130168886Y-92904201D01*
X129942043Y-92752629D01*
X129689989Y-92648225D01*
X129422411Y-92595000D01*
X129149589Y-92595000D01*
X128882011Y-92648225D01*
X128629957Y-92752629D01*
X128403114Y-92904201D01*
X128210201Y-93097114D01*
X128058629Y-93323957D01*
X127954225Y-93576011D01*
X127914000Y-93778234D01*
X127914000Y-88424277D01*
X127919047Y-88372803D01*
X127924622Y-88354338D01*
X127933678Y-88337306D01*
X127945870Y-88322357D01*
X127960732Y-88310062D01*
X127977696Y-88300889D01*
X127996129Y-88295183D01*
X128045446Y-88290000D01*
X176751723Y-88290000D01*
X176803197Y-88295047D01*
%TA.AperFunction,Conductor*%
D16*
G36*
X176803197Y-88295047D02*
G01*
X176821662Y-88300622D01*
X176838694Y-88309678D01*
X176853643Y-88321870D01*
X176865938Y-88336732D01*
X176875111Y-88353696D01*
X176880817Y-88372129D01*
X176886001Y-88421455D01*
X176886001Y-93778238D01*
X176845775Y-93576011D01*
X176741371Y-93323957D01*
X176589799Y-93097114D01*
X176396886Y-92904201D01*
X176170043Y-92752629D01*
X175917989Y-92648225D01*
X175650411Y-92595000D01*
X175377589Y-92595000D01*
X175110011Y-92648225D01*
X174857957Y-92752629D01*
X174631114Y-92904201D01*
X174438201Y-93097114D01*
X174371934Y-93196290D01*
X174356931Y-93043965D01*
X174306167Y-92876619D01*
X174223731Y-92722391D01*
X174112790Y-92587210D01*
X173977609Y-92476269D01*
X173823381Y-92393833D01*
X173656035Y-92343069D01*
X173482000Y-92325928D01*
X171958000Y-92325928D01*
X171783965Y-92343069D01*
X171616619Y-92393833D01*
X171462391Y-92476269D01*
X171327210Y-92587210D01*
X171216269Y-92722391D01*
X171133833Y-92876619D01*
X171083069Y-93043965D01*
X171065928Y-93218000D01*
X171065928Y-94287033D01*
X167346179Y-98006783D01*
X167284759Y-97945363D01*
X167049727Y-97788320D01*
X166788574Y-97680147D01*
X166511335Y-97625000D01*
X166228665Y-97625000D01*
X165951426Y-97680147D01*
X165690273Y-97788320D01*
X165455241Y-97945363D01*
X165255363Y-98145241D01*
X165098320Y-98380273D01*
X164990147Y-98641426D01*
X164935000Y-98918665D01*
X164935000Y-99201335D01*
X164990147Y-99478574D01*
X165098320Y-99739727D01*
X165255363Y-99974759D01*
X165455241Y-100174637D01*
X165690273Y-100331680D01*
X165951426Y-100439853D01*
X166228665Y-100495000D01*
X166511335Y-100495000D01*
X166788574Y-100439853D01*
X167049727Y-100331680D01*
X167284759Y-100174637D01*
X167446896Y-100012500D01*
X167593215Y-100012500D01*
X167640000Y-100017108D01*
X167686785Y-100012500D01*
X167826723Y-99998717D01*
X168006269Y-99944252D01*
X168171741Y-99855806D01*
X168316778Y-99736778D01*
X168346607Y-99700431D01*
X170765038Y-97282000D01*
X171065928Y-97282000D01*
X171069000Y-98012250D01*
X171227750Y-98171000D01*
X172593000Y-98171000D01*
X172593000Y-96805750D01*
X172434250Y-96647000D01*
X171704000Y-96643928D01*
X171579518Y-96656188D01*
X171459820Y-96692498D01*
X171349506Y-96751463D01*
X171252815Y-96830815D01*
X171173463Y-96927506D01*
X171114498Y-97037820D01*
X171078188Y-97157518D01*
X171065928Y-97282000D01*
X170765038Y-97282000D01*
X172412967Y-95634072D01*
X173482000Y-95634072D01*
X173656035Y-95616931D01*
X173823381Y-95566167D01*
X173977609Y-95483731D01*
X174112790Y-95372790D01*
X174223731Y-95237609D01*
X174306167Y-95083381D01*
X174356931Y-94916035D01*
X174371934Y-94763710D01*
X174438201Y-94862886D01*
X174631114Y-95055799D01*
X174857957Y-95207371D01*
X175110011Y-95311775D01*
X175377589Y-95365000D01*
X175650411Y-95365000D01*
X175917989Y-95311775D01*
X176170043Y-95207371D01*
X176396886Y-95055799D01*
X176589799Y-94862886D01*
X176741371Y-94636043D01*
X176845775Y-94383989D01*
X176886001Y-94181762D01*
X176886000Y-109018234D01*
X176845775Y-108816011D01*
X176741371Y-108563957D01*
X176589799Y-108337114D01*
X176396886Y-108144201D01*
X176170043Y-107992629D01*
X175917989Y-107888225D01*
X175650411Y-107835000D01*
X175377589Y-107835000D01*
X175110011Y-107888225D01*
X174857957Y-107992629D01*
X174631114Y-108144201D01*
X174438201Y-108337114D01*
X174371934Y-108436290D01*
X174356931Y-108283965D01*
X174306167Y-108116619D01*
X174223731Y-107962391D01*
X174112790Y-107827210D01*
X173977609Y-107716269D01*
X173823381Y-107633833D01*
X173672500Y-107588064D01*
X173672500Y-106533936D01*
X173823381Y-106488167D01*
X173977609Y-106405731D01*
X174112790Y-106294790D01*
X174223731Y-106159609D01*
X174306167Y-106005381D01*
X174356931Y-105838035D01*
X174363712Y-105769188D01*
X174374201Y-105784886D01*
X174567114Y-105977799D01*
X174793957Y-106129371D01*
X175046011Y-106233775D01*
X175313589Y-106287000D01*
X175586411Y-106287000D01*
X175853989Y-106233775D01*
X176106043Y-106129371D01*
X176332886Y-105977799D01*
X176525799Y-105784886D01*
X176677371Y-105558043D01*
X176781775Y-105305989D01*
X176835000Y-105038411D01*
X176835000Y-104765589D01*
X176781775Y-104498011D01*
X176677371Y-104245957D01*
X176525799Y-104019114D01*
X176332886Y-103826201D01*
X176106043Y-103674629D01*
X175853989Y-103570225D01*
X175586411Y-103517000D01*
X175313589Y-103517000D01*
X175046011Y-103570225D01*
X174793957Y-103674629D01*
X174567114Y-103826201D01*
X174374201Y-104019114D01*
X174363712Y-104034812D01*
X174356931Y-103965965D01*
X174306167Y-103798619D01*
X174223731Y-103644391D01*
X174112790Y-103509210D01*
X173977609Y-103398269D01*
X173823381Y-103315833D01*
X173656035Y-103265069D01*
X173513190Y-103251000D01*
X173656035Y-103236931D01*
X173823381Y-103186167D01*
X173977609Y-103103731D01*
X174112790Y-102992790D01*
X174223731Y-102857609D01*
X174306167Y-102703381D01*
X174356931Y-102536035D01*
X174363712Y-102467188D01*
X174374201Y-102482886D01*
X174567114Y-102675799D01*
X174793957Y-102827371D01*
X175046011Y-102931775D01*
X175313589Y-102985000D01*
X175586411Y-102985000D01*
X175853989Y-102931775D01*
X176106043Y-102827371D01*
X176332886Y-102675799D01*
X176525799Y-102482886D01*
X176677371Y-102256043D01*
X176781775Y-102003989D01*
X176835000Y-101736411D01*
X176835000Y-101463589D01*
X176781775Y-101196011D01*
X176677371Y-100943957D01*
X176525799Y-100717114D01*
X176332886Y-100524201D01*
X176106043Y-100372629D01*
X175853989Y-100268225D01*
X175586411Y-100215000D01*
X175313589Y-100215000D01*
X175046011Y-100268225D01*
X174793957Y-100372629D01*
X174567114Y-100524201D01*
X174374201Y-100717114D01*
X174363712Y-100732812D01*
X174356931Y-100663965D01*
X174306167Y-100496619D01*
X174223731Y-100342391D01*
X174112790Y-100207210D01*
X173977609Y-100096269D01*
X173823381Y-100013833D01*
X173656035Y-99963069D01*
X173535831Y-99951230D01*
X173736000Y-99952072D01*
X173860482Y-99939812D01*
X173980180Y-99903502D01*
X174090494Y-99844537D01*
X174187185Y-99765185D01*
X174266537Y-99668494D01*
X174325502Y-99558180D01*
X174361812Y-99438482D01*
X174374072Y-99314000D01*
X174373508Y-99179848D01*
X174374201Y-99180886D01*
X174567114Y-99373799D01*
X174793957Y-99525371D01*
X175046011Y-99629775D01*
X175313589Y-99683000D01*
X175586411Y-99683000D01*
X175853989Y-99629775D01*
X176106043Y-99525371D01*
X176332886Y-99373799D01*
X176525799Y-99180886D01*
X176677371Y-98954043D01*
X176781775Y-98701989D01*
X176835000Y-98434411D01*
X176835000Y-98161589D01*
X176781775Y-97894011D01*
X176677371Y-97641957D01*
X176525799Y-97415114D01*
X176332886Y-97222201D01*
X176106043Y-97070629D01*
X175853989Y-96966225D01*
X175586411Y-96913000D01*
X175313589Y-96913000D01*
X175046011Y-96966225D01*
X174793957Y-97070629D01*
X174567114Y-97222201D01*
X174374201Y-97415114D01*
X174373508Y-97416152D01*
X174374072Y-97282000D01*
X174361812Y-97157518D01*
X174325502Y-97037820D01*
X174266537Y-96927506D01*
X174187185Y-96830815D01*
X174090494Y-96751463D01*
X173980180Y-96692498D01*
X173860482Y-96656188D01*
X173736000Y-96643928D01*
X173005750Y-96647000D01*
X172847000Y-96805750D01*
X172847000Y-98171000D01*
X172867000Y-98171000D01*
X172867000Y-98425000D01*
X172847000Y-98425000D01*
X172847000Y-98445000D01*
X172593000Y-98445000D01*
X172593000Y-98425000D01*
X171227750Y-98425000D01*
X171069000Y-98583750D01*
X171065928Y-99314000D01*
X171078188Y-99438482D01*
X171114498Y-99558180D01*
X171173463Y-99668494D01*
X171252815Y-99765185D01*
X171349506Y-99844537D01*
X171459820Y-99903502D01*
X171579518Y-99939812D01*
X171704000Y-99952072D01*
X171904169Y-99951230D01*
X171783965Y-99963069D01*
X171616619Y-100013833D01*
X171462391Y-100096269D01*
X171327210Y-100207210D01*
X171216269Y-100342391D01*
X171133833Y-100496619D01*
X171083069Y-100663965D01*
X171065928Y-100838000D01*
X171065928Y-101907034D01*
X170492054Y-102480908D01*
X170455713Y-102510732D01*
X170425889Y-102547073D01*
X170336684Y-102655770D01*
X170248239Y-102821241D01*
X170193773Y-103000788D01*
X170175382Y-103187510D01*
X170179991Y-103234304D01*
X170179990Y-105332971D01*
X165187962Y-110325000D01*
X164958665Y-110325000D01*
X164681426Y-110380147D01*
X164680999Y-110380324D01*
X164680999Y-109716039D01*
X166282038Y-108115000D01*
X166511335Y-108115000D01*
X166788574Y-108059853D01*
X167049727Y-107951680D01*
X167284759Y-107794637D01*
X167484637Y-107594759D01*
X167641680Y-107359727D01*
X167749853Y-107098574D01*
X167805000Y-106821335D01*
X167805000Y-106538665D01*
X167749853Y-106261426D01*
X167641680Y-106000273D01*
X167484637Y-105765241D01*
X167284759Y-105565363D01*
X167049727Y-105408320D01*
X166788574Y-105300147D01*
X166511335Y-105245000D01*
X166228665Y-105245000D01*
X165951426Y-105300147D01*
X165690273Y-105408320D01*
X165455241Y-105565363D01*
X165293104Y-105727500D01*
X164224538Y-105727500D01*
X161225703Y-102728665D01*
X164935000Y-102728665D01*
X164935000Y-103011335D01*
X164990147Y-103288574D01*
X165098320Y-103549727D01*
X165255363Y-103784759D01*
X165455241Y-103984637D01*
X165690273Y-104141680D01*
X165951426Y-104249853D01*
X166228665Y-104305000D01*
X166511335Y-104305000D01*
X166788574Y-104249853D01*
X167049727Y-104141680D01*
X167284759Y-103984637D01*
X167484637Y-103784759D01*
X167641680Y-103549727D01*
X167749853Y-103288574D01*
X167805000Y-103011335D01*
X167805000Y-102728665D01*
X167749853Y-102451426D01*
X167641680Y-102190273D01*
X167484637Y-101955241D01*
X167284759Y-101755363D01*
X167049727Y-101598320D01*
X166788574Y-101490147D01*
X166511335Y-101435000D01*
X166228665Y-101435000D01*
X165951426Y-101490147D01*
X165690273Y-101598320D01*
X165455241Y-101755363D01*
X165255363Y-101955241D01*
X165098320Y-102190273D01*
X164990147Y-102451426D01*
X164935000Y-102728665D01*
X161225703Y-102728665D01*
X157645000Y-99147962D01*
X157645000Y-98918665D01*
X157589853Y-98641426D01*
X157481680Y-98380273D01*
X157324637Y-98145241D01*
X157124759Y-97945363D01*
X156889727Y-97788320D01*
X156628574Y-97680147D01*
X156351335Y-97625000D01*
X156068665Y-97625000D01*
X155791426Y-97680147D01*
X155790999Y-97680324D01*
X155790999Y-96416702D01*
X160476903Y-96416702D01*
X160548486Y-96660671D01*
X160803996Y-96781571D01*
X161078184Y-96850300D01*
X161360512Y-96864217D01*
X161640130Y-96822787D01*
X161906292Y-96727603D01*
X162031514Y-96660671D01*
X162103097Y-96416702D01*
X161290000Y-95603605D01*
X160476903Y-96416702D01*
X155790999Y-96416702D01*
X155790999Y-95494512D01*
X159849783Y-95494512D01*
X159891213Y-95774130D01*
X159986397Y-96040292D01*
X160053329Y-96165514D01*
X160297298Y-96237097D01*
X161110395Y-95424000D01*
X161469605Y-95424000D01*
X162282702Y-96237097D01*
X162526671Y-96165514D01*
X162647571Y-95910004D01*
X162716300Y-95635816D01*
X162730217Y-95353488D01*
X162688787Y-95073870D01*
X162593603Y-94807708D01*
X162526671Y-94682486D01*
X162282702Y-94610903D01*
X161469605Y-95424000D01*
X161110395Y-95424000D01*
X160297298Y-94610903D01*
X160053329Y-94682486D01*
X159932429Y-94937996D01*
X159863700Y-95212184D01*
X159849783Y-95494512D01*
X155790999Y-95494512D01*
X155790999Y-94431298D01*
X160476903Y-94431298D01*
X161290000Y-95244395D01*
X162103097Y-94431298D01*
X162031514Y-94187329D01*
X161776004Y-94066429D01*
X161501816Y-93997700D01*
X161219488Y-93983783D01*
X160939870Y-94025213D01*
X160673708Y-94120397D01*
X160548486Y-94187329D01*
X160476903Y-94431298D01*
X155790999Y-94431298D01*
X155790999Y-94417052D01*
X155843979Y-94364072D01*
X156464000Y-94364072D01*
X156638035Y-94346931D01*
X156805381Y-94296167D01*
X156959609Y-94213731D01*
X157094790Y-94102790D01*
X157195562Y-93980000D01*
X158941627Y-93980000D01*
X159004000Y-93986143D01*
X159066373Y-93980000D01*
X159066380Y-93980000D01*
X159252963Y-93961623D01*
X159492359Y-93889003D01*
X159712988Y-93771075D01*
X159906370Y-93612370D01*
X159946141Y-93563909D01*
X161705608Y-91804443D01*
X161708574Y-91803853D01*
X161969727Y-91695680D01*
X162204759Y-91538637D01*
X162404637Y-91338759D01*
X162561680Y-91103727D01*
X162669853Y-90842574D01*
X162725000Y-90565335D01*
X162725000Y-90282665D01*
X162669853Y-90005426D01*
X162561680Y-89744273D01*
X162404637Y-89509241D01*
X162204759Y-89309363D01*
X161969727Y-89152320D01*
X161708574Y-89044147D01*
X161431335Y-88989000D01*
X161148665Y-88989000D01*
X160871426Y-89044147D01*
X160610273Y-89152320D01*
X160375241Y-89309363D01*
X160175363Y-89509241D01*
X160018320Y-89744273D01*
X159910147Y-90005426D01*
X159909557Y-90008392D01*
X158477950Y-91440000D01*
X157195562Y-91440000D01*
X157094790Y-91317210D01*
X156959609Y-91206269D01*
X156805381Y-91123833D01*
X156638035Y-91073069D01*
X156569188Y-91066288D01*
X156584886Y-91055799D01*
X156777799Y-90862886D01*
X156929371Y-90636043D01*
X157033775Y-90383989D01*
X157087000Y-90116411D01*
X157087000Y-89843589D01*
X157033775Y-89576011D01*
X156929371Y-89323957D01*
X156777799Y-89097114D01*
X156584886Y-88904201D01*
X156358043Y-88752629D01*
X156105989Y-88648225D01*
X155838411Y-88595000D01*
X155565589Y-88595000D01*
X155298011Y-88648225D01*
X155045957Y-88752629D01*
X154819114Y-88904201D01*
X154626201Y-89097114D01*
X154474629Y-89323957D01*
X154370225Y-89576011D01*
X154317000Y-89843589D01*
X154317000Y-90116411D01*
X154370225Y-90383989D01*
X154474629Y-90636043D01*
X154626201Y-90862886D01*
X154819114Y-91055799D01*
X154834812Y-91066288D01*
X154765965Y-91073069D01*
X154598619Y-91123833D01*
X154444391Y-91206269D01*
X154309210Y-91317210D01*
X154198269Y-91452391D01*
X154115833Y-91606619D01*
X154065069Y-91773965D01*
X154053230Y-91894169D01*
X154054072Y-91694000D01*
X154041812Y-91569518D01*
X154005502Y-91449820D01*
X153946537Y-91339506D01*
X153867185Y-91242815D01*
X153770494Y-91163463D01*
X153660180Y-91104498D01*
X153540482Y-91068188D01*
X153416000Y-91055928D01*
X153281848Y-91056492D01*
X153282886Y-91055799D01*
X153475799Y-90862886D01*
X153627371Y-90636043D01*
X153731775Y-90383989D01*
X153785000Y-90116411D01*
X153785000Y-89843589D01*
X153731775Y-89576011D01*
X153627371Y-89323957D01*
X153475799Y-89097114D01*
X153282886Y-88904201D01*
X153056043Y-88752629D01*
X152803989Y-88648225D01*
X152536411Y-88595000D01*
X152263589Y-88595000D01*
X151996011Y-88648225D01*
X151743957Y-88752629D01*
X151517114Y-88904201D01*
X151324201Y-89097114D01*
X151172629Y-89323957D01*
X151068225Y-89576011D01*
X151015000Y-89843589D01*
X151015000Y-90116411D01*
X151068225Y-90383989D01*
X151172629Y-90636043D01*
X151324201Y-90862886D01*
X151517114Y-91055799D01*
X151518152Y-91056492D01*
X151384000Y-91055928D01*
X151259518Y-91068188D01*
X151139820Y-91104498D01*
X151029506Y-91163463D01*
X150932815Y-91242815D01*
X150853463Y-91339506D01*
X150794498Y-91449820D01*
X150758188Y-91569518D01*
X150745928Y-91694000D01*
X150746770Y-91894169D01*
X150734931Y-91773965D01*
X150684167Y-91606619D01*
X150601731Y-91452391D01*
X150490790Y-91317210D01*
X150355609Y-91206269D01*
X150201381Y-91123833D01*
X150034035Y-91073069D01*
X149965188Y-91066288D01*
X149980886Y-91055799D01*
X150173799Y-90862886D01*
X150325371Y-90636043D01*
X150429775Y-90383989D01*
X150483000Y-90116411D01*
X150483000Y-89843589D01*
X150429775Y-89576011D01*
X150325371Y-89323957D01*
X150173799Y-89097114D01*
X149980886Y-88904201D01*
X149754043Y-88752629D01*
X149501989Y-88648225D01*
X149234411Y-88595000D01*
X148961589Y-88595000D01*
X148694011Y-88648225D01*
X148441957Y-88752629D01*
X148215114Y-88904201D01*
X148022201Y-89097114D01*
X147870629Y-89323957D01*
X147766225Y-89576011D01*
X147713000Y-89843589D01*
X147713000Y-90116411D01*
X147766225Y-90383989D01*
X147870629Y-90636043D01*
X148022201Y-90862886D01*
X148215114Y-91055799D01*
X148230812Y-91066288D01*
X148161965Y-91073069D01*
X147994619Y-91123833D01*
X147840391Y-91206269D01*
X147705210Y-91317210D01*
X147604438Y-91440000D01*
X146068051Y-91440000D01*
X144636443Y-90008393D01*
X144635853Y-90005426D01*
X144527680Y-89744273D01*
X144370637Y-89509241D01*
X144170759Y-89309363D01*
X143935727Y-89152320D01*
X143674574Y-89044147D01*
X143397335Y-88989000D01*
X143114665Y-88989000D01*
X142837426Y-89044147D01*
X142576273Y-89152320D01*
X142341241Y-89309363D01*
X142141363Y-89509241D01*
X141984320Y-89744273D01*
X141876147Y-90005426D01*
X141821000Y-90282665D01*
X141821000Y-90565335D01*
X141876147Y-90842574D01*
X141984320Y-91103727D01*
X142141363Y-91338759D01*
X142341241Y-91538637D01*
X142576273Y-91695680D01*
X142837426Y-91803853D01*
X142840393Y-91804443D01*
X144599863Y-93563914D01*
X144639630Y-93612370D01*
X144833012Y-93771075D01*
X145053641Y-93889003D01*
X145220416Y-93939594D01*
X145293036Y-93961623D01*
X145318755Y-93964156D01*
X145479620Y-93980000D01*
X145479626Y-93980000D01*
X145541999Y-93986143D01*
X145604372Y-93980000D01*
X147604438Y-93980000D01*
X147705210Y-94102790D01*
X147840391Y-94213731D01*
X147994619Y-94296167D01*
X148161965Y-94346931D01*
X148336000Y-94364072D01*
X148956021Y-94364072D01*
X150279002Y-95687054D01*
X150279002Y-97680324D01*
X150278574Y-97680147D01*
X150001335Y-97625000D01*
X149718665Y-97625000D01*
X149441426Y-97680147D01*
X149180273Y-97788320D01*
X148945241Y-97945363D01*
X148745363Y-98145241D01*
X148588320Y-98380273D01*
X148480147Y-98641426D01*
X148425000Y-98918665D01*
X148425000Y-99201335D01*
X148480147Y-99478574D01*
X148588320Y-99739727D01*
X148745363Y-99974759D01*
X148945241Y-100174637D01*
X149180273Y-100331680D01*
X149441426Y-100439853D01*
X149718665Y-100495000D01*
X150001335Y-100495000D01*
X150278574Y-100439853D01*
X150279002Y-100439676D01*
X150279002Y-101490324D01*
X150278574Y-101490147D01*
X150001335Y-101435000D01*
X149718665Y-101435000D01*
X149441426Y-101490147D01*
X149180273Y-101598320D01*
X148945241Y-101755363D01*
X148745363Y-101955241D01*
X148588320Y-102190273D01*
X148480147Y-102451426D01*
X148425000Y-102728665D01*
X148425000Y-103011335D01*
X148480147Y-103288574D01*
X148588320Y-103549727D01*
X148745363Y-103784759D01*
X148907500Y-103946896D01*
X148907501Y-105603103D01*
X148745363Y-105765241D01*
X148588320Y-106000273D01*
X148480147Y-106261426D01*
X148425000Y-106538665D01*
X148425000Y-106821335D01*
X148480147Y-107098574D01*
X148588320Y-107359727D01*
X148745363Y-107594759D01*
X148907500Y-107756896D01*
X148907501Y-111630042D01*
X148731335Y-111595000D01*
X148448665Y-111595000D01*
X148171426Y-111650147D01*
X147910273Y-111758320D01*
X147675241Y-111915363D01*
X147544506Y-112046098D01*
X141537977Y-106039569D01*
X141508148Y-106003222D01*
X141363111Y-105884194D01*
X141197639Y-105795748D01*
X141018093Y-105741283D01*
X140878155Y-105727500D01*
X140831370Y-105722892D01*
X140784585Y-105727500D01*
X140776896Y-105727500D01*
X140614759Y-105565363D01*
X140379727Y-105408320D01*
X140118574Y-105300147D01*
X139841335Y-105245000D01*
X139558665Y-105245000D01*
X139281426Y-105300147D01*
X139020273Y-105408320D01*
X138785241Y-105565363D01*
X138585363Y-105765241D01*
X138428320Y-106000273D01*
X138320147Y-106261426D01*
X138304708Y-106339040D01*
X133734072Y-101768404D01*
X133734072Y-101299110D01*
X135945393Y-103510431D01*
X135975222Y-103546778D01*
X136120259Y-103665806D01*
X136285731Y-103754252D01*
X136431989Y-103798619D01*
X136465277Y-103808717D01*
X136651999Y-103827108D01*
X136698784Y-103822500D01*
X138623104Y-103822500D01*
X138785241Y-103984637D01*
X139020273Y-104141680D01*
X139281426Y-104249853D01*
X139558665Y-104305000D01*
X139841335Y-104305000D01*
X140118574Y-104249853D01*
X140379727Y-104141680D01*
X140614759Y-103984637D01*
X140814637Y-103784759D01*
X140971680Y-103549727D01*
X141079853Y-103288574D01*
X141135000Y-103011335D01*
X141135000Y-102728665D01*
X141079853Y-102451426D01*
X140971680Y-102190273D01*
X140814637Y-101955241D01*
X140614759Y-101755363D01*
X140379727Y-101598320D01*
X140118574Y-101490147D01*
X139841335Y-101435000D01*
X139558665Y-101435000D01*
X139281426Y-101490147D01*
X139020273Y-101598320D01*
X138785241Y-101755363D01*
X138623104Y-101917500D01*
X137046538Y-101917500D01*
X133734072Y-98605034D01*
X133734072Y-97536000D01*
X133716931Y-97361965D01*
X133666167Y-97194619D01*
X133583731Y-97040391D01*
X133472790Y-96905210D01*
X133337609Y-96794269D01*
X133183381Y-96711833D01*
X133016035Y-96661069D01*
X132842000Y-96643928D01*
X131318000Y-96643928D01*
X131143965Y-96661069D01*
X130976619Y-96711833D01*
X130822391Y-96794269D01*
X130687210Y-96905210D01*
X130576269Y-97040391D01*
X130493833Y-97194619D01*
X130443069Y-97361965D01*
X130436288Y-97430812D01*
X130425799Y-97415114D01*
X130232886Y-97222201D01*
X130006043Y-97070629D01*
X129753989Y-96966225D01*
X129486411Y-96913000D01*
X129213589Y-96913000D01*
X128946011Y-96966225D01*
X128693957Y-97070629D01*
X128467114Y-97222201D01*
X128274201Y-97415114D01*
X128122629Y-97641957D01*
X128018225Y-97894011D01*
X127965000Y-98161589D01*
X127965000Y-98434411D01*
X128018225Y-98701989D01*
X128122629Y-98954043D01*
X128274201Y-99180886D01*
X128467114Y-99373799D01*
X128693957Y-99525371D01*
X128946011Y-99629775D01*
X129213589Y-99683000D01*
X129486411Y-99683000D01*
X129753989Y-99629775D01*
X130006043Y-99525371D01*
X130232886Y-99373799D01*
X130425799Y-99180886D01*
X130436288Y-99165188D01*
X130443069Y-99234035D01*
X130493833Y-99401381D01*
X130576269Y-99555609D01*
X130687210Y-99690790D01*
X130822391Y-99801731D01*
X130976619Y-99884167D01*
X131143965Y-99934931D01*
X131286810Y-99949000D01*
X131143965Y-99963069D01*
X130976619Y-100013833D01*
X130822391Y-100096269D01*
X130687210Y-100207210D01*
X130576269Y-100342391D01*
X130493833Y-100496619D01*
X130443069Y-100663965D01*
X130436288Y-100732812D01*
X130425799Y-100717114D01*
X130232886Y-100524201D01*
X130006043Y-100372629D01*
X129753989Y-100268225D01*
X129486411Y-100215000D01*
X129213589Y-100215000D01*
X128946011Y-100268225D01*
X128693957Y-100372629D01*
X128467114Y-100524201D01*
X128274201Y-100717114D01*
X128122629Y-100943957D01*
X128018225Y-101196011D01*
X127965000Y-101463589D01*
X127965000Y-101736411D01*
X128018225Y-102003989D01*
X128122629Y-102256043D01*
X128274201Y-102482886D01*
X128467114Y-102675799D01*
X128693957Y-102827371D01*
X128946011Y-102931775D01*
X129213589Y-102985000D01*
X129486411Y-102985000D01*
X129753989Y-102931775D01*
X130006043Y-102827371D01*
X130232886Y-102675799D01*
X130425799Y-102482886D01*
X130436288Y-102467188D01*
X130443069Y-102536035D01*
X130493833Y-102703381D01*
X130576269Y-102857609D01*
X130687210Y-102992790D01*
X130822391Y-103103731D01*
X130976619Y-103186167D01*
X131143965Y-103236931D01*
X131264169Y-103248770D01*
X131064000Y-103247928D01*
X130939518Y-103260188D01*
X130819820Y-103296498D01*
X130709506Y-103355463D01*
X130612815Y-103434815D01*
X130533463Y-103531506D01*
X130474498Y-103641820D01*
X130438188Y-103761518D01*
X130425928Y-103886000D01*
X130426492Y-104020152D01*
X130425799Y-104019114D01*
X130232886Y-103826201D01*
X130006043Y-103674629D01*
X129753989Y-103570225D01*
X129486411Y-103517000D01*
X129213589Y-103517000D01*
X128946011Y-103570225D01*
X128693957Y-103674629D01*
X128467114Y-103826201D01*
X128274201Y-104019114D01*
X128122629Y-104245957D01*
X128018225Y-104498011D01*
X127965000Y-104765589D01*
X127965000Y-105038411D01*
X128018225Y-105305989D01*
X128122629Y-105558043D01*
X128274201Y-105784886D01*
X128467114Y-105977799D01*
X128693957Y-106129371D01*
X128946011Y-106233775D01*
X129213589Y-106287000D01*
X129486411Y-106287000D01*
X129753989Y-106233775D01*
X130006043Y-106129371D01*
X130232886Y-105977799D01*
X130425799Y-105784886D01*
X130426492Y-105783848D01*
X130425928Y-105918000D01*
X130438188Y-106042482D01*
X130474498Y-106162180D01*
X130533463Y-106272494D01*
X130612815Y-106369185D01*
X130709506Y-106448537D01*
X130819820Y-106507502D01*
X130939518Y-106543812D01*
X131064000Y-106556072D01*
X131794250Y-106553000D01*
X131953000Y-106394250D01*
X131953000Y-105029000D01*
X132207000Y-105029000D01*
X132207000Y-106394250D01*
X132365750Y-106553000D01*
X133096000Y-106556072D01*
X133220482Y-106543812D01*
X133340180Y-106507502D01*
X133450494Y-106448537D01*
X133547185Y-106369185D01*
X133626537Y-106272494D01*
X133685502Y-106162180D01*
X133721812Y-106042482D01*
X133734072Y-105918000D01*
X133731000Y-105187750D01*
X133572250Y-105029000D01*
X132207000Y-105029000D01*
X131953000Y-105029000D01*
X131933000Y-105029000D01*
X131933000Y-104775000D01*
X131953000Y-104775000D01*
X131953000Y-104755000D01*
X132207000Y-104755000D01*
X132207000Y-104775000D01*
X133572250Y-104775000D01*
X133731000Y-104616250D01*
X133731657Y-104460065D01*
X139596591Y-110325000D01*
X139558665Y-110325000D01*
X139281426Y-110380147D01*
X139020273Y-110488320D01*
X138785241Y-110645363D01*
X138623104Y-110807500D01*
X135014538Y-110807500D01*
X133734072Y-109527034D01*
X133734072Y-108458000D01*
X133716931Y-108283965D01*
X133666167Y-108116619D01*
X133583731Y-107962391D01*
X133472790Y-107827210D01*
X133337609Y-107716269D01*
X133183381Y-107633833D01*
X133016035Y-107583069D01*
X132842000Y-107565928D01*
X131318000Y-107565928D01*
X131143965Y-107583069D01*
X130976619Y-107633833D01*
X130822391Y-107716269D01*
X130687210Y-107827210D01*
X130576269Y-107962391D01*
X130493833Y-108116619D01*
X130443069Y-108283965D01*
X130428066Y-108436290D01*
X130361799Y-108337114D01*
X130168886Y-108144201D01*
X129942043Y-107992629D01*
X129689989Y-107888225D01*
X129422411Y-107835000D01*
X129149589Y-107835000D01*
X128882011Y-107888225D01*
X128629957Y-107992629D01*
X128403114Y-108144201D01*
X128210201Y-108337114D01*
X128058629Y-108563957D01*
X127954225Y-108816011D01*
X127914000Y-109018234D01*
X127914000Y-94181766D01*
X127954225Y-94383989D01*
X128058629Y-94636043D01*
X128210201Y-94862886D01*
X128403114Y-95055799D01*
X128629957Y-95207371D01*
X128882011Y-95311775D01*
X129149589Y-95365000D01*
X129422411Y-95365000D01*
X129689989Y-95311775D01*
X129942043Y-95207371D01*
X130168886Y-95055799D01*
X130361799Y-94862886D01*
X130428066Y-94763710D01*
X130443069Y-94916035D01*
X130493833Y-95083381D01*
X130576269Y-95237609D01*
X130687210Y-95372790D01*
X130822391Y-95483731D01*
X130976619Y-95566167D01*
X131143965Y-95616931D01*
X131318000Y-95634072D01*
X132842000Y-95634072D01*
X133016035Y-95616931D01*
X133183381Y-95566167D01*
X133337609Y-95483731D01*
X133472790Y-95372790D01*
X133583731Y-95237609D01*
X133666167Y-95083381D01*
X133711936Y-94932500D01*
X134225462Y-94932500D01*
X138265000Y-98972039D01*
X138265000Y-99201335D01*
X138320147Y-99478574D01*
X138428320Y-99739727D01*
X138585363Y-99974759D01*
X138785241Y-100174637D01*
X139020273Y-100331680D01*
X139281426Y-100439853D01*
X139558665Y-100495000D01*
X139841335Y-100495000D01*
X140118574Y-100439853D01*
X140379727Y-100331680D01*
X140614759Y-100174637D01*
X140814637Y-99974759D01*
X140971680Y-99739727D01*
X141079853Y-99478574D01*
X141135000Y-99201335D01*
X141135000Y-98918665D01*
X141079853Y-98641426D01*
X140971680Y-98380273D01*
X140814637Y-98145241D01*
X140614759Y-97945363D01*
X140379727Y-97788320D01*
X140118574Y-97680147D01*
X139841335Y-97625000D01*
X139612039Y-97625000D01*
X138403741Y-96416702D01*
X142442903Y-96416702D01*
X142514486Y-96660671D01*
X142769996Y-96781571D01*
X143044184Y-96850300D01*
X143326512Y-96864217D01*
X143606130Y-96822787D01*
X143872292Y-96727603D01*
X143997514Y-96660671D01*
X144069097Y-96416702D01*
X143256000Y-95603605D01*
X142442903Y-96416702D01*
X138403741Y-96416702D01*
X137481551Y-95494512D01*
X141815783Y-95494512D01*
X141857213Y-95774130D01*
X141952397Y-96040292D01*
X142019329Y-96165514D01*
X142263298Y-96237097D01*
X143076395Y-95424000D01*
X143435605Y-95424000D01*
X144248702Y-96237097D01*
X144492671Y-96165514D01*
X144613571Y-95910004D01*
X144682300Y-95635816D01*
X144696217Y-95353488D01*
X144654787Y-95073870D01*
X144559603Y-94807708D01*
X144492671Y-94682486D01*
X144248702Y-94610903D01*
X143435605Y-95424000D01*
X143076395Y-95424000D01*
X142263298Y-94610903D01*
X142019329Y-94682486D01*
X141898429Y-94937996D01*
X141829700Y-95212184D01*
X141815783Y-95494512D01*
X137481551Y-95494512D01*
X136418337Y-94431298D01*
X142442903Y-94431298D01*
X143256000Y-95244395D01*
X144069097Y-94431298D01*
X143997514Y-94187329D01*
X143742004Y-94066429D01*
X143467816Y-93997700D01*
X143185488Y-93983783D01*
X142905870Y-94025213D01*
X142639708Y-94120397D01*
X142514486Y-94187329D01*
X142442903Y-94431298D01*
X136418337Y-94431298D01*
X135326607Y-93339569D01*
X135296778Y-93303222D01*
X135151741Y-93184194D01*
X134986269Y-93095748D01*
X134806723Y-93041283D01*
X134666785Y-93027500D01*
X134620000Y-93022892D01*
X134573215Y-93027500D01*
X133711936Y-93027500D01*
X133666167Y-92876619D01*
X133583731Y-92722391D01*
X133472790Y-92587210D01*
X133337609Y-92476269D01*
X133183381Y-92393833D01*
X133016035Y-92343069D01*
X132842000Y-92325928D01*
X131318000Y-92325928D01*
X131143965Y-92343069D01*
X130976619Y-92393833D01*
X130822391Y-92476269D01*
X130687210Y-92587210D01*
X130576269Y-92722391D01*
X130493833Y-92876619D01*
X130443069Y-93043965D01*
X130428066Y-93196290D01*
X130361799Y-93097114D01*
X130168886Y-92904201D01*
X129942043Y-92752629D01*
X129689989Y-92648225D01*
X129422411Y-92595000D01*
X129149589Y-92595000D01*
X128882011Y-92648225D01*
X128629957Y-92752629D01*
X128403114Y-92904201D01*
X128210201Y-93097114D01*
X128058629Y-93323957D01*
X127954225Y-93576011D01*
X127914000Y-93778234D01*
X127914000Y-88424277D01*
X127919047Y-88372803D01*
X127924622Y-88354338D01*
X127933678Y-88337306D01*
X127945870Y-88322357D01*
X127960732Y-88310062D01*
X127977696Y-88300889D01*
X127996129Y-88295183D01*
X128045446Y-88290000D01*
X176751723Y-88290000D01*
X176803197Y-88295047D01*
G37*
%TD.AperFunction*%
D15*
X152527000Y-92583000D02*
X152547000Y-92583000D01*
X152547000Y-92837000D01*
X152527000Y-92837000D01*
X152527000Y-92857000D01*
X152273000Y-92857000D01*
X152273000Y-92837000D01*
X152253000Y-92837000D01*
X152253000Y-92583000D01*
X152273000Y-92583000D01*
X152273000Y-92563000D01*
X152527000Y-92563000D01*
X152527000Y-92583000D01*
%TA.AperFunction,Conductor*%
D16*
G36*
X152527000Y-92583000D02*
G01*
X152547000Y-92583000D01*
X152547000Y-92837000D01*
X152527000Y-92837000D01*
X152527000Y-92857000D01*
X152273000Y-92857000D01*
X152273000Y-92837000D01*
X152253000Y-92837000D01*
X152253000Y-92583000D01*
X152273000Y-92583000D01*
X152273000Y-92563000D01*
X152527000Y-92563000D01*
X152527000Y-92583000D01*
G37*
%TD.AperFunction*%
%TD*%
M02*
