%TF.GenerationSoftware,KiCad,Pcbnew,(5.1.8-0-10_14)*%
%TF.CreationDate,2021-07-14T10:01:13+01:00*%
%TF.ProjectId,cgs-attenuverter-board,6367732d-6174-4746-956e-757665727465,rev?*%
%TF.SameCoordinates,Original*%
%TF.FileFunction,Legend,Top*%
%TF.FilePolarity,Positive*%
%FSLAX46Y46*%
G04 Gerber Fmt 4.6, Leading zero omitted, Abs format (unit mm)*
G04 Created by KiCad (PCBNEW (5.1.8-0-10_14)) date 2021-07-14 10:01:13*
%MOMM*%
%LPD*%
G01*
G04 APERTURE LIST*
%ADD10C,0.150000*%
%ADD11C,0.120000*%
%ADD12C,0.152400*%
G04 APERTURE END LIST*
D10*
X170632380Y-110220000D02*
X169632380Y-110220000D01*
X170632380Y-109743809D02*
X169632380Y-109743809D01*
X170632380Y-109172380D01*
X169632380Y-109172380D01*
X169727619Y-108743809D02*
X169680000Y-108696190D01*
X169632380Y-108600952D01*
X169632380Y-108362857D01*
X169680000Y-108267619D01*
X169727619Y-108220000D01*
X169822857Y-108172380D01*
X169918095Y-108172380D01*
X170060952Y-108220000D01*
X170632380Y-108791428D01*
X170632380Y-108172380D01*
X170346666Y-103504761D02*
X170346666Y-103028571D01*
X170632380Y-103600000D02*
X169632380Y-103266666D01*
X170632380Y-102933333D01*
X169632380Y-102742857D02*
X169632380Y-102171428D01*
X170632380Y-102457142D02*
X169632380Y-102457142D01*
X169632380Y-101980952D02*
X169632380Y-101409523D01*
X170632380Y-101695238D02*
X169632380Y-101695238D01*
X169632380Y-101219047D02*
X170632380Y-100885714D01*
X169632380Y-100552380D01*
X169727619Y-100266666D02*
X169680000Y-100219047D01*
X169632380Y-100123809D01*
X169632380Y-99885714D01*
X169680000Y-99790476D01*
X169727619Y-99742857D01*
X169822857Y-99695238D01*
X169918095Y-99695238D01*
X170060952Y-99742857D01*
X170632380Y-100314285D01*
X170632380Y-99695238D01*
X169632380Y-95456190D02*
X169632380Y-95265714D01*
X169680000Y-95170476D01*
X169775238Y-95075238D01*
X169965714Y-95027619D01*
X170299047Y-95027619D01*
X170489523Y-95075238D01*
X170584761Y-95170476D01*
X170632380Y-95265714D01*
X170632380Y-95456190D01*
X170584761Y-95551428D01*
X170489523Y-95646666D01*
X170299047Y-95694285D01*
X169965714Y-95694285D01*
X169775238Y-95646666D01*
X169680000Y-95551428D01*
X169632380Y-95456190D01*
X169632380Y-94599047D02*
X170441904Y-94599047D01*
X170537142Y-94551428D01*
X170584761Y-94503809D01*
X170632380Y-94408571D01*
X170632380Y-94218095D01*
X170584761Y-94122857D01*
X170537142Y-94075238D01*
X170441904Y-94027619D01*
X169632380Y-94027619D01*
X169632380Y-93694285D02*
X169632380Y-93122857D01*
X170632380Y-93408571D02*
X169632380Y-93408571D01*
X169727619Y-92837142D02*
X169680000Y-92789523D01*
X169632380Y-92694285D01*
X169632380Y-92456190D01*
X169680000Y-92360952D01*
X169727619Y-92313333D01*
X169822857Y-92265714D01*
X169918095Y-92265714D01*
X170060952Y-92313333D01*
X170632380Y-92884761D01*
X170632380Y-92265714D01*
X135167619Y-92503809D02*
X135167619Y-92694285D01*
X135120000Y-92789523D01*
X135024761Y-92884761D01*
X134834285Y-92932380D01*
X134500952Y-92932380D01*
X134310476Y-92884761D01*
X134215238Y-92789523D01*
X134167619Y-92694285D01*
X134167619Y-92503809D01*
X134215238Y-92408571D01*
X134310476Y-92313333D01*
X134500952Y-92265714D01*
X134834285Y-92265714D01*
X135024761Y-92313333D01*
X135120000Y-92408571D01*
X135167619Y-92503809D01*
X135167619Y-93360952D02*
X134358095Y-93360952D01*
X134262857Y-93408571D01*
X134215238Y-93456190D01*
X134167619Y-93551428D01*
X134167619Y-93741904D01*
X134215238Y-93837142D01*
X134262857Y-93884761D01*
X134358095Y-93932380D01*
X135167619Y-93932380D01*
X135167619Y-94265714D02*
X135167619Y-94837142D01*
X134167619Y-94551428D02*
X135167619Y-94551428D01*
X134167619Y-95694285D02*
X134167619Y-95122857D01*
X134167619Y-95408571D02*
X135167619Y-95408571D01*
X135024761Y-95313333D01*
X134929523Y-95218095D01*
X134881904Y-95122857D01*
X134453333Y-99695238D02*
X134453333Y-100171428D01*
X134167619Y-99600000D02*
X135167619Y-99933333D01*
X134167619Y-100266666D01*
X135167619Y-100457142D02*
X135167619Y-101028571D01*
X134167619Y-100742857D02*
X135167619Y-100742857D01*
X135167619Y-101219047D02*
X135167619Y-101790476D01*
X134167619Y-101504761D02*
X135167619Y-101504761D01*
X135167619Y-101980952D02*
X134167619Y-102314285D01*
X135167619Y-102647619D01*
X134167619Y-103504761D02*
X134167619Y-102933333D01*
X134167619Y-103219047D02*
X135167619Y-103219047D01*
X135024761Y-103123809D01*
X134929523Y-103028571D01*
X134881904Y-102933333D01*
X134167619Y-108220000D02*
X135167619Y-108220000D01*
X134167619Y-108696190D02*
X135167619Y-108696190D01*
X134167619Y-109267619D01*
X135167619Y-109267619D01*
X134167619Y-110267619D02*
X134167619Y-109696190D01*
X134167619Y-109981904D02*
X135167619Y-109981904D01*
X135024761Y-109886666D01*
X134929523Y-109791428D01*
X134881904Y-109696190D01*
X154892476Y-95321428D02*
X155654380Y-95321428D01*
X155987714Y-94702380D02*
X156321047Y-95702380D01*
X156654380Y-94702380D01*
X148288476Y-95321428D02*
X149050380Y-95321428D01*
X148669428Y-95702380D02*
X148669428Y-94940476D01*
X149383714Y-94702380D02*
X149717047Y-95702380D01*
X150050380Y-94702380D01*
X168997714Y-114118380D02*
X168997714Y-113118380D01*
X169378666Y-113118380D01*
X169473904Y-113166000D01*
X169521523Y-113213619D01*
X169569142Y-113308857D01*
X169569142Y-113451714D01*
X169521523Y-113546952D01*
X169473904Y-113594571D01*
X169378666Y-113642190D01*
X168997714Y-113642190D01*
X169997714Y-114118380D02*
X169997714Y-113451714D01*
X169997714Y-113642190D02*
X170045333Y-113546952D01*
X170092952Y-113499333D01*
X170188190Y-113451714D01*
X170283428Y-113451714D01*
X170997714Y-114070761D02*
X170902476Y-114118380D01*
X170712000Y-114118380D01*
X170616761Y-114070761D01*
X170569142Y-113975523D01*
X170569142Y-113594571D01*
X170616761Y-113499333D01*
X170712000Y-113451714D01*
X170902476Y-113451714D01*
X170997714Y-113499333D01*
X171045333Y-113594571D01*
X171045333Y-113689809D01*
X170569142Y-113785047D01*
X171902476Y-114070761D02*
X171807238Y-114118380D01*
X171616761Y-114118380D01*
X171521523Y-114070761D01*
X171473904Y-114023142D01*
X171426285Y-113927904D01*
X171426285Y-113642190D01*
X171473904Y-113546952D01*
X171521523Y-113499333D01*
X171616761Y-113451714D01*
X171807238Y-113451714D01*
X171902476Y-113499333D01*
X172331047Y-114118380D02*
X172331047Y-113451714D01*
X172331047Y-113118380D02*
X172283428Y-113166000D01*
X172331047Y-113213619D01*
X172378666Y-113166000D01*
X172331047Y-113118380D01*
X172331047Y-113213619D01*
X172759619Y-114070761D02*
X172854857Y-114118380D01*
X173045333Y-114118380D01*
X173140571Y-114070761D01*
X173188190Y-113975523D01*
X173188190Y-113927904D01*
X173140571Y-113832666D01*
X173045333Y-113785047D01*
X172902476Y-113785047D01*
X172807238Y-113737428D01*
X172759619Y-113642190D01*
X172759619Y-113594571D01*
X172807238Y-113499333D01*
X172902476Y-113451714D01*
X173045333Y-113451714D01*
X173140571Y-113499333D01*
X173616761Y-114118380D02*
X173616761Y-113451714D01*
X173616761Y-113118380D02*
X173569142Y-113166000D01*
X173616761Y-113213619D01*
X173664380Y-113166000D01*
X173616761Y-113118380D01*
X173616761Y-113213619D01*
X174235809Y-114118380D02*
X174140571Y-114070761D01*
X174092952Y-114023142D01*
X174045333Y-113927904D01*
X174045333Y-113642190D01*
X174092952Y-113546952D01*
X174140571Y-113499333D01*
X174235809Y-113451714D01*
X174378666Y-113451714D01*
X174473904Y-113499333D01*
X174521523Y-113546952D01*
X174569142Y-113642190D01*
X174569142Y-113927904D01*
X174521523Y-114023142D01*
X174473904Y-114070761D01*
X174378666Y-114118380D01*
X174235809Y-114118380D01*
X174997714Y-113451714D02*
X174997714Y-114118380D01*
X174997714Y-113546952D02*
X175045333Y-113499333D01*
X175140571Y-113451714D01*
X175283428Y-113451714D01*
X175378666Y-113499333D01*
X175426285Y-113594571D01*
X175426285Y-114118380D01*
X167926285Y-115482666D02*
X168402476Y-115482666D01*
X167831047Y-115768380D02*
X168164380Y-114768380D01*
X168497714Y-115768380D01*
X168688190Y-115101714D02*
X169069142Y-115101714D01*
X168831047Y-114768380D02*
X168831047Y-115625523D01*
X168878666Y-115720761D01*
X168973904Y-115768380D01*
X169069142Y-115768380D01*
X169259619Y-115101714D02*
X169640571Y-115101714D01*
X169402476Y-114768380D02*
X169402476Y-115625523D01*
X169450095Y-115720761D01*
X169545333Y-115768380D01*
X169640571Y-115768380D01*
X170354857Y-115720761D02*
X170259619Y-115768380D01*
X170069142Y-115768380D01*
X169973904Y-115720761D01*
X169926285Y-115625523D01*
X169926285Y-115244571D01*
X169973904Y-115149333D01*
X170069142Y-115101714D01*
X170259619Y-115101714D01*
X170354857Y-115149333D01*
X170402476Y-115244571D01*
X170402476Y-115339809D01*
X169926285Y-115435047D01*
X170831047Y-115101714D02*
X170831047Y-115768380D01*
X170831047Y-115196952D02*
X170878666Y-115149333D01*
X170973904Y-115101714D01*
X171116761Y-115101714D01*
X171212000Y-115149333D01*
X171259619Y-115244571D01*
X171259619Y-115768380D01*
X172164380Y-115101714D02*
X172164380Y-115768380D01*
X171735809Y-115101714D02*
X171735809Y-115625523D01*
X171783428Y-115720761D01*
X171878666Y-115768380D01*
X172021523Y-115768380D01*
X172116761Y-115720761D01*
X172164380Y-115673142D01*
X172545333Y-115101714D02*
X172783428Y-115768380D01*
X173021523Y-115101714D01*
X173783428Y-115720761D02*
X173688190Y-115768380D01*
X173497714Y-115768380D01*
X173402476Y-115720761D01*
X173354857Y-115625523D01*
X173354857Y-115244571D01*
X173402476Y-115149333D01*
X173497714Y-115101714D01*
X173688190Y-115101714D01*
X173783428Y-115149333D01*
X173831047Y-115244571D01*
X173831047Y-115339809D01*
X173354857Y-115435047D01*
X174259619Y-115768380D02*
X174259619Y-115101714D01*
X174259619Y-115292190D02*
X174307238Y-115196952D01*
X174354857Y-115149333D01*
X174450095Y-115101714D01*
X174545333Y-115101714D01*
X174735809Y-115101714D02*
X175116761Y-115101714D01*
X174878666Y-114768380D02*
X174878666Y-115625523D01*
X174926285Y-115720761D01*
X175021523Y-115768380D01*
X175116761Y-115768380D01*
X175831047Y-115720761D02*
X175735809Y-115768380D01*
X175545333Y-115768380D01*
X175450095Y-115720761D01*
X175402476Y-115625523D01*
X175402476Y-115244571D01*
X175450095Y-115149333D01*
X175545333Y-115101714D01*
X175735809Y-115101714D01*
X175831047Y-115149333D01*
X175878666Y-115244571D01*
X175878666Y-115339809D01*
X175402476Y-115435047D01*
X176307238Y-115768380D02*
X176307238Y-115101714D01*
X176307238Y-115292190D02*
X176354857Y-115196952D01*
X176402476Y-115149333D01*
X176497714Y-115101714D01*
X176592952Y-115101714D01*
X171188190Y-117418380D02*
X171188190Y-116751714D01*
X171188190Y-116942190D02*
X171235809Y-116846952D01*
X171283428Y-116799333D01*
X171378666Y-116751714D01*
X171473904Y-116751714D01*
X171997714Y-116418380D02*
X172092952Y-116418380D01*
X172188190Y-116466000D01*
X172235809Y-116513619D01*
X172283428Y-116608857D01*
X172331047Y-116799333D01*
X172331047Y-117037428D01*
X172283428Y-117227904D01*
X172235809Y-117323142D01*
X172188190Y-117370761D01*
X172092952Y-117418380D01*
X171997714Y-117418380D01*
X171902476Y-117370761D01*
X171854857Y-117323142D01*
X171807238Y-117227904D01*
X171759619Y-117037428D01*
X171759619Y-116799333D01*
X171807238Y-116608857D01*
X171854857Y-116513619D01*
X171902476Y-116466000D01*
X171997714Y-116418380D01*
X172712000Y-116513619D02*
X172759619Y-116466000D01*
X172854857Y-116418380D01*
X173092952Y-116418380D01*
X173188190Y-116466000D01*
X173235809Y-116513619D01*
X173283428Y-116608857D01*
X173283428Y-116704095D01*
X173235809Y-116846952D01*
X172664380Y-117418380D01*
X173283428Y-117418380D01*
D11*
%TO.C,U1*%
X147260000Y-122040000D02*
X157540000Y-122040000D01*
X147260000Y-111640000D02*
X147260000Y-122040000D01*
X157540000Y-111640000D02*
X147260000Y-111640000D01*
X157540000Y-122040000D02*
X157540000Y-111640000D01*
X149750000Y-121980000D02*
X151400000Y-121980000D01*
X149750000Y-111700000D02*
X149750000Y-121980000D01*
X155050000Y-111700000D02*
X149750000Y-111700000D01*
X155050000Y-121980000D02*
X155050000Y-111700000D01*
X153400000Y-121980000D02*
X155050000Y-121980000D01*
X151400000Y-121980000D02*
G75*
G02*
X153400000Y-121980000I1000000J0D01*
G01*
D12*
%TO.C,RV2*%
X133604000Y-103886000D02*
X133096000Y-103378000D01*
X133096000Y-103378000D02*
X129286000Y-103378000D01*
X129286000Y-106426000D02*
X133096000Y-106426000D01*
X133604000Y-105918000D02*
X133604000Y-103886000D01*
X133096000Y-106426000D02*
X133604000Y-105918000D01*
X133604000Y-97282000D02*
X133096000Y-96774000D01*
X133096000Y-96774000D02*
X129286000Y-96774000D01*
X129286000Y-99822000D02*
X133096000Y-99822000D01*
X133604000Y-99314000D02*
X133604000Y-97282000D01*
X133096000Y-99822000D02*
X133604000Y-99314000D01*
X133096000Y-100076000D02*
X129286000Y-100076000D01*
X133604000Y-100584000D02*
X133096000Y-100076000D01*
X133604000Y-102616000D02*
X133604000Y-100584000D01*
X133096000Y-103124000D02*
X133604000Y-102616000D01*
X129286000Y-103124000D02*
X133096000Y-103124000D01*
X129286000Y-106426000D02*
G75*
G02*
X129286000Y-103378000I0J1524000D01*
G01*
X129286000Y-99822000D02*
G75*
G02*
X129286000Y-96774000I0J1524000D01*
G01*
X129286000Y-103124000D02*
G75*
G02*
X129286000Y-100076000I0J1524000D01*
G01*
%TO.C,RV1*%
X171196000Y-99314000D02*
X171704000Y-99822000D01*
X171704000Y-99822000D02*
X175514000Y-99822000D01*
X175514000Y-96774000D02*
X171704000Y-96774000D01*
X171196000Y-97282000D02*
X171196000Y-99314000D01*
X171704000Y-96774000D02*
X171196000Y-97282000D01*
X171196000Y-105918000D02*
X171704000Y-106426000D01*
X171704000Y-106426000D02*
X175514000Y-106426000D01*
X175514000Y-103378000D02*
X171704000Y-103378000D01*
X171196000Y-103886000D02*
X171196000Y-105918000D01*
X171704000Y-103378000D02*
X171196000Y-103886000D01*
X171704000Y-103124000D02*
X175514000Y-103124000D01*
X171196000Y-102616000D02*
X171704000Y-103124000D01*
X171196000Y-100584000D02*
X171196000Y-102616000D01*
X171704000Y-100076000D02*
X171196000Y-100584000D01*
X175514000Y-100076000D02*
X171704000Y-100076000D01*
X175514000Y-96774000D02*
G75*
G02*
X175514000Y-99822000I0J-1524000D01*
G01*
X175514000Y-103378000D02*
G75*
G02*
X175514000Y-106426000I0J-1524000D01*
G01*
X175514000Y-100076000D02*
G75*
G02*
X175514000Y-103124000I0J-1524000D01*
G01*
D11*
%TO.C,R10*%
X141510000Y-97690000D02*
X141510000Y-100430000D01*
X141510000Y-100430000D02*
X148050000Y-100430000D01*
X148050000Y-100430000D02*
X148050000Y-97690000D01*
X148050000Y-97690000D02*
X141510000Y-97690000D01*
X140740000Y-99060000D02*
X141510000Y-99060000D01*
X148820000Y-99060000D02*
X148050000Y-99060000D01*
%TO.C,R9*%
X164560000Y-100430000D02*
X164560000Y-97690000D01*
X164560000Y-97690000D02*
X158020000Y-97690000D01*
X158020000Y-97690000D02*
X158020000Y-100430000D01*
X158020000Y-100430000D02*
X164560000Y-100430000D01*
X165330000Y-99060000D02*
X164560000Y-99060000D01*
X157250000Y-99060000D02*
X158020000Y-99060000D01*
%TO.C,R8*%
X141510000Y-105310000D02*
X141510000Y-108050000D01*
X141510000Y-108050000D02*
X148050000Y-108050000D01*
X148050000Y-108050000D02*
X148050000Y-105310000D01*
X148050000Y-105310000D02*
X141510000Y-105310000D01*
X140740000Y-106680000D02*
X141510000Y-106680000D01*
X148820000Y-106680000D02*
X148050000Y-106680000D01*
%TO.C,R7*%
X164560000Y-108050000D02*
X164560000Y-105310000D01*
X164560000Y-105310000D02*
X158020000Y-105310000D01*
X158020000Y-105310000D02*
X158020000Y-108050000D01*
X158020000Y-108050000D02*
X164560000Y-108050000D01*
X165330000Y-106680000D02*
X164560000Y-106680000D01*
X157250000Y-106680000D02*
X158020000Y-106680000D01*
%TO.C,R6*%
X148050000Y-104240000D02*
X148050000Y-101500000D01*
X148050000Y-101500000D02*
X141510000Y-101500000D01*
X141510000Y-101500000D02*
X141510000Y-104240000D01*
X141510000Y-104240000D02*
X148050000Y-104240000D01*
X148820000Y-102870000D02*
X148050000Y-102870000D01*
X140740000Y-102870000D02*
X141510000Y-102870000D01*
%TO.C,R5*%
X158020000Y-101500000D02*
X158020000Y-104240000D01*
X158020000Y-104240000D02*
X164560000Y-104240000D01*
X164560000Y-104240000D02*
X164560000Y-101500000D01*
X164560000Y-101500000D02*
X158020000Y-101500000D01*
X157250000Y-102870000D02*
X158020000Y-102870000D01*
X165330000Y-102870000D02*
X164560000Y-102870000D01*
%TO.C,R4*%
X142140000Y-120110000D02*
X144880000Y-120110000D01*
X144880000Y-120110000D02*
X144880000Y-113570000D01*
X144880000Y-113570000D02*
X142140000Y-113570000D01*
X142140000Y-113570000D02*
X142140000Y-120110000D01*
X143510000Y-120880000D02*
X143510000Y-120110000D01*
X143510000Y-112800000D02*
X143510000Y-113570000D01*
%TO.C,R3*%
X162660000Y-113570000D02*
X159920000Y-113570000D01*
X159920000Y-113570000D02*
X159920000Y-120110000D01*
X159920000Y-120110000D02*
X162660000Y-120110000D01*
X162660000Y-120110000D02*
X162660000Y-113570000D01*
X161290000Y-112800000D02*
X161290000Y-113570000D01*
X161290000Y-120880000D02*
X161290000Y-120110000D01*
%TO.C,R2*%
X138330000Y-120110000D02*
X141070000Y-120110000D01*
X141070000Y-120110000D02*
X141070000Y-113570000D01*
X141070000Y-113570000D02*
X138330000Y-113570000D01*
X138330000Y-113570000D02*
X138330000Y-120110000D01*
X139700000Y-120880000D02*
X139700000Y-120110000D01*
X139700000Y-112800000D02*
X139700000Y-113570000D01*
%TO.C,R1*%
X166470000Y-113570000D02*
X163730000Y-113570000D01*
X163730000Y-113570000D02*
X163730000Y-120110000D01*
X163730000Y-120110000D02*
X166470000Y-120110000D01*
X166470000Y-120110000D02*
X166470000Y-113570000D01*
X165100000Y-112800000D02*
X165100000Y-113570000D01*
X165100000Y-120880000D02*
X165100000Y-120110000D01*
D12*
%TO.C,J5*%
X150114000Y-94234000D02*
X150622000Y-93726000D01*
X150622000Y-93726000D02*
X150622000Y-89916000D01*
X147574000Y-89916000D02*
X147574000Y-93726000D01*
X148082000Y-94234000D02*
X150114000Y-94234000D01*
X147574000Y-93726000D02*
X148082000Y-94234000D01*
X156718000Y-94234000D02*
X157226000Y-93726000D01*
X157226000Y-93726000D02*
X157226000Y-89916000D01*
X154178000Y-89916000D02*
X154178000Y-93726000D01*
X154686000Y-94234000D02*
X156718000Y-94234000D01*
X154178000Y-93726000D02*
X154686000Y-94234000D01*
X153924000Y-93726000D02*
X153924000Y-89916000D01*
X153416000Y-94234000D02*
X153924000Y-93726000D01*
X151384000Y-94234000D02*
X153416000Y-94234000D01*
X150876000Y-93726000D02*
X151384000Y-94234000D01*
X150876000Y-89916000D02*
X150876000Y-93726000D01*
X147574000Y-89916000D02*
G75*
G02*
X150622000Y-89916000I1524000J0D01*
G01*
X154178000Y-89916000D02*
G75*
G02*
X157226000Y-89916000I1524000J0D01*
G01*
X150876000Y-89916000D02*
G75*
G02*
X153924000Y-89916000I1524000J0D01*
G01*
%TO.C,J4*%
X133096000Y-92456000D02*
X129286000Y-92456000D01*
X133604000Y-92964000D02*
X133096000Y-92456000D01*
X133604000Y-94996000D02*
X133604000Y-92964000D01*
X133096000Y-95504000D02*
X133604000Y-94996000D01*
X129286000Y-95504000D02*
X133096000Y-95504000D01*
X129286000Y-95504000D02*
G75*
G02*
X129286000Y-92456000I0J1524000D01*
G01*
%TO.C,J3*%
X171704000Y-95504000D02*
X175514000Y-95504000D01*
X171196000Y-94996000D02*
X171704000Y-95504000D01*
X171196000Y-92964000D02*
X171196000Y-94996000D01*
X171704000Y-92456000D02*
X171196000Y-92964000D01*
X175514000Y-92456000D02*
X171704000Y-92456000D01*
X175514000Y-92456000D02*
G75*
G02*
X175514000Y-95504000I0J-1524000D01*
G01*
%TO.C,J2*%
X133096000Y-107696000D02*
X129286000Y-107696000D01*
X133604000Y-108204000D02*
X133096000Y-107696000D01*
X133604000Y-110236000D02*
X133604000Y-108204000D01*
X133096000Y-110744000D02*
X133604000Y-110236000D01*
X129286000Y-110744000D02*
X133096000Y-110744000D01*
X129286000Y-110744000D02*
G75*
G02*
X129286000Y-107696000I0J1524000D01*
G01*
%TO.C,J1*%
X171704000Y-110744000D02*
X175514000Y-110744000D01*
X171196000Y-110236000D02*
X171704000Y-110744000D01*
X171196000Y-108204000D02*
X171196000Y-110236000D01*
X171704000Y-107696000D02*
X171196000Y-108204000D01*
X175514000Y-107696000D02*
X171704000Y-107696000D01*
X175514000Y-107696000D02*
G75*
G02*
X175514000Y-110744000I0J-1524000D01*
G01*
D11*
%TO.C,C2*%
X159920000Y-89304000D02*
X162660000Y-89304000D01*
X159920000Y-96544000D02*
X162660000Y-96544000D01*
X162660000Y-96544000D02*
X162660000Y-89304000D01*
X159920000Y-96544000D02*
X159920000Y-89304000D01*
%TO.C,C1*%
X144626000Y-89304000D02*
X144626000Y-96544000D01*
X141886000Y-89304000D02*
X141886000Y-96544000D01*
X144626000Y-89304000D02*
X141886000Y-89304000D01*
X144626000Y-96544000D02*
X141886000Y-96544000D01*
%TO.C,U1*%
D10*
X151638095Y-116292380D02*
X151638095Y-117101904D01*
X151685714Y-117197142D01*
X151733333Y-117244761D01*
X151828571Y-117292380D01*
X152019047Y-117292380D01*
X152114285Y-117244761D01*
X152161904Y-117197142D01*
X152209523Y-117101904D01*
X152209523Y-116292380D01*
X153209523Y-117292380D02*
X152638095Y-117292380D01*
X152923809Y-117292380D02*
X152923809Y-116292380D01*
X152828571Y-116435238D01*
X152733333Y-116530476D01*
X152638095Y-116578095D01*
%TO.C,R10*%
X144137142Y-99512380D02*
X143803809Y-99036190D01*
X143565714Y-99512380D02*
X143565714Y-98512380D01*
X143946666Y-98512380D01*
X144041904Y-98560000D01*
X144089523Y-98607619D01*
X144137142Y-98702857D01*
X144137142Y-98845714D01*
X144089523Y-98940952D01*
X144041904Y-98988571D01*
X143946666Y-99036190D01*
X143565714Y-99036190D01*
X145089523Y-99512380D02*
X144518095Y-99512380D01*
X144803809Y-99512380D02*
X144803809Y-98512380D01*
X144708571Y-98655238D01*
X144613333Y-98750476D01*
X144518095Y-98798095D01*
X145708571Y-98512380D02*
X145803809Y-98512380D01*
X145899047Y-98560000D01*
X145946666Y-98607619D01*
X145994285Y-98702857D01*
X146041904Y-98893333D01*
X146041904Y-99131428D01*
X145994285Y-99321904D01*
X145946666Y-99417142D01*
X145899047Y-99464761D01*
X145803809Y-99512380D01*
X145708571Y-99512380D01*
X145613333Y-99464761D01*
X145565714Y-99417142D01*
X145518095Y-99321904D01*
X145470476Y-99131428D01*
X145470476Y-98893333D01*
X145518095Y-98702857D01*
X145565714Y-98607619D01*
X145613333Y-98560000D01*
X145708571Y-98512380D01*
%TO.C,R9*%
X161123333Y-99512380D02*
X160790000Y-99036190D01*
X160551904Y-99512380D02*
X160551904Y-98512380D01*
X160932857Y-98512380D01*
X161028095Y-98560000D01*
X161075714Y-98607619D01*
X161123333Y-98702857D01*
X161123333Y-98845714D01*
X161075714Y-98940952D01*
X161028095Y-98988571D01*
X160932857Y-99036190D01*
X160551904Y-99036190D01*
X161599523Y-99512380D02*
X161790000Y-99512380D01*
X161885238Y-99464761D01*
X161932857Y-99417142D01*
X162028095Y-99274285D01*
X162075714Y-99083809D01*
X162075714Y-98702857D01*
X162028095Y-98607619D01*
X161980476Y-98560000D01*
X161885238Y-98512380D01*
X161694761Y-98512380D01*
X161599523Y-98560000D01*
X161551904Y-98607619D01*
X161504285Y-98702857D01*
X161504285Y-98940952D01*
X161551904Y-99036190D01*
X161599523Y-99083809D01*
X161694761Y-99131428D01*
X161885238Y-99131428D01*
X161980476Y-99083809D01*
X162028095Y-99036190D01*
X162075714Y-98940952D01*
%TO.C,R8*%
X144613333Y-107132380D02*
X144280000Y-106656190D01*
X144041904Y-107132380D02*
X144041904Y-106132380D01*
X144422857Y-106132380D01*
X144518095Y-106180000D01*
X144565714Y-106227619D01*
X144613333Y-106322857D01*
X144613333Y-106465714D01*
X144565714Y-106560952D01*
X144518095Y-106608571D01*
X144422857Y-106656190D01*
X144041904Y-106656190D01*
X145184761Y-106560952D02*
X145089523Y-106513333D01*
X145041904Y-106465714D01*
X144994285Y-106370476D01*
X144994285Y-106322857D01*
X145041904Y-106227619D01*
X145089523Y-106180000D01*
X145184761Y-106132380D01*
X145375238Y-106132380D01*
X145470476Y-106180000D01*
X145518095Y-106227619D01*
X145565714Y-106322857D01*
X145565714Y-106370476D01*
X145518095Y-106465714D01*
X145470476Y-106513333D01*
X145375238Y-106560952D01*
X145184761Y-106560952D01*
X145089523Y-106608571D01*
X145041904Y-106656190D01*
X144994285Y-106751428D01*
X144994285Y-106941904D01*
X145041904Y-107037142D01*
X145089523Y-107084761D01*
X145184761Y-107132380D01*
X145375238Y-107132380D01*
X145470476Y-107084761D01*
X145518095Y-107037142D01*
X145565714Y-106941904D01*
X145565714Y-106751428D01*
X145518095Y-106656190D01*
X145470476Y-106608571D01*
X145375238Y-106560952D01*
%TO.C,R7*%
X161123333Y-107132380D02*
X160790000Y-106656190D01*
X160551904Y-107132380D02*
X160551904Y-106132380D01*
X160932857Y-106132380D01*
X161028095Y-106180000D01*
X161075714Y-106227619D01*
X161123333Y-106322857D01*
X161123333Y-106465714D01*
X161075714Y-106560952D01*
X161028095Y-106608571D01*
X160932857Y-106656190D01*
X160551904Y-106656190D01*
X161456666Y-106132380D02*
X162123333Y-106132380D01*
X161694761Y-107132380D01*
%TO.C,R6*%
X144613333Y-103322380D02*
X144280000Y-102846190D01*
X144041904Y-103322380D02*
X144041904Y-102322380D01*
X144422857Y-102322380D01*
X144518095Y-102370000D01*
X144565714Y-102417619D01*
X144613333Y-102512857D01*
X144613333Y-102655714D01*
X144565714Y-102750952D01*
X144518095Y-102798571D01*
X144422857Y-102846190D01*
X144041904Y-102846190D01*
X145470476Y-102322380D02*
X145280000Y-102322380D01*
X145184761Y-102370000D01*
X145137142Y-102417619D01*
X145041904Y-102560476D01*
X144994285Y-102750952D01*
X144994285Y-103131904D01*
X145041904Y-103227142D01*
X145089523Y-103274761D01*
X145184761Y-103322380D01*
X145375238Y-103322380D01*
X145470476Y-103274761D01*
X145518095Y-103227142D01*
X145565714Y-103131904D01*
X145565714Y-102893809D01*
X145518095Y-102798571D01*
X145470476Y-102750952D01*
X145375238Y-102703333D01*
X145184761Y-102703333D01*
X145089523Y-102750952D01*
X145041904Y-102798571D01*
X144994285Y-102893809D01*
%TO.C,R5*%
X161123333Y-103322380D02*
X160790000Y-102846190D01*
X160551904Y-103322380D02*
X160551904Y-102322380D01*
X160932857Y-102322380D01*
X161028095Y-102370000D01*
X161075714Y-102417619D01*
X161123333Y-102512857D01*
X161123333Y-102655714D01*
X161075714Y-102750952D01*
X161028095Y-102798571D01*
X160932857Y-102846190D01*
X160551904Y-102846190D01*
X162028095Y-102322380D02*
X161551904Y-102322380D01*
X161504285Y-102798571D01*
X161551904Y-102750952D01*
X161647142Y-102703333D01*
X161885238Y-102703333D01*
X161980476Y-102750952D01*
X162028095Y-102798571D01*
X162075714Y-102893809D01*
X162075714Y-103131904D01*
X162028095Y-103227142D01*
X161980476Y-103274761D01*
X161885238Y-103322380D01*
X161647142Y-103322380D01*
X161551904Y-103274761D01*
X161504285Y-103227142D01*
%TO.C,R4*%
X143962380Y-117006666D02*
X143486190Y-117340000D01*
X143962380Y-117578095D02*
X142962380Y-117578095D01*
X142962380Y-117197142D01*
X143010000Y-117101904D01*
X143057619Y-117054285D01*
X143152857Y-117006666D01*
X143295714Y-117006666D01*
X143390952Y-117054285D01*
X143438571Y-117101904D01*
X143486190Y-117197142D01*
X143486190Y-117578095D01*
X143295714Y-116149523D02*
X143962380Y-116149523D01*
X142914761Y-116387619D02*
X143629047Y-116625714D01*
X143629047Y-116006666D01*
%TO.C,R3*%
X161742380Y-117006666D02*
X161266190Y-117340000D01*
X161742380Y-117578095D02*
X160742380Y-117578095D01*
X160742380Y-117197142D01*
X160790000Y-117101904D01*
X160837619Y-117054285D01*
X160932857Y-117006666D01*
X161075714Y-117006666D01*
X161170952Y-117054285D01*
X161218571Y-117101904D01*
X161266190Y-117197142D01*
X161266190Y-117578095D01*
X160742380Y-116673333D02*
X160742380Y-116054285D01*
X161123333Y-116387619D01*
X161123333Y-116244761D01*
X161170952Y-116149523D01*
X161218571Y-116101904D01*
X161313809Y-116054285D01*
X161551904Y-116054285D01*
X161647142Y-116101904D01*
X161694761Y-116149523D01*
X161742380Y-116244761D01*
X161742380Y-116530476D01*
X161694761Y-116625714D01*
X161647142Y-116673333D01*
%TO.C,R2*%
X140152380Y-117006666D02*
X139676190Y-117340000D01*
X140152380Y-117578095D02*
X139152380Y-117578095D01*
X139152380Y-117197142D01*
X139200000Y-117101904D01*
X139247619Y-117054285D01*
X139342857Y-117006666D01*
X139485714Y-117006666D01*
X139580952Y-117054285D01*
X139628571Y-117101904D01*
X139676190Y-117197142D01*
X139676190Y-117578095D01*
X139247619Y-116625714D02*
X139200000Y-116578095D01*
X139152380Y-116482857D01*
X139152380Y-116244761D01*
X139200000Y-116149523D01*
X139247619Y-116101904D01*
X139342857Y-116054285D01*
X139438095Y-116054285D01*
X139580952Y-116101904D01*
X140152380Y-116673333D01*
X140152380Y-116054285D01*
%TO.C,R1*%
X165552380Y-117006666D02*
X165076190Y-117340000D01*
X165552380Y-117578095D02*
X164552380Y-117578095D01*
X164552380Y-117197142D01*
X164600000Y-117101904D01*
X164647619Y-117054285D01*
X164742857Y-117006666D01*
X164885714Y-117006666D01*
X164980952Y-117054285D01*
X165028571Y-117101904D01*
X165076190Y-117197142D01*
X165076190Y-117578095D01*
X165552380Y-116054285D02*
X165552380Y-116625714D01*
X165552380Y-116340000D02*
X164552380Y-116340000D01*
X164695238Y-116435238D01*
X164790476Y-116530476D01*
X164838095Y-116625714D01*
%TO.C,C2*%
X161647142Y-93130666D02*
X161694761Y-93178285D01*
X161742380Y-93321142D01*
X161742380Y-93416380D01*
X161694761Y-93559238D01*
X161599523Y-93654476D01*
X161504285Y-93702095D01*
X161313809Y-93749714D01*
X161170952Y-93749714D01*
X160980476Y-93702095D01*
X160885238Y-93654476D01*
X160790000Y-93559238D01*
X160742380Y-93416380D01*
X160742380Y-93321142D01*
X160790000Y-93178285D01*
X160837619Y-93130666D01*
X160837619Y-92749714D02*
X160790000Y-92702095D01*
X160742380Y-92606857D01*
X160742380Y-92368761D01*
X160790000Y-92273523D01*
X160837619Y-92225904D01*
X160932857Y-92178285D01*
X161028095Y-92178285D01*
X161170952Y-92225904D01*
X161742380Y-92797333D01*
X161742380Y-92178285D01*
%TO.C,C1*%
X143613142Y-93090666D02*
X143660761Y-93138285D01*
X143708380Y-93281142D01*
X143708380Y-93376380D01*
X143660761Y-93519238D01*
X143565523Y-93614476D01*
X143470285Y-93662095D01*
X143279809Y-93709714D01*
X143136952Y-93709714D01*
X142946476Y-93662095D01*
X142851238Y-93614476D01*
X142756000Y-93519238D01*
X142708380Y-93376380D01*
X142708380Y-93281142D01*
X142756000Y-93138285D01*
X142803619Y-93090666D01*
X143708380Y-92138285D02*
X143708380Y-92709714D01*
X143708380Y-92424000D02*
X142708380Y-92424000D01*
X142851238Y-92519238D01*
X142946476Y-92614476D01*
X142994095Y-92709714D01*
%TD*%
M02*
