%TF.GenerationSoftware,KiCad,Pcbnew,(5.1.8-0-10_14)*%
%TF.CreationDate,2021-06-26T19:08:16+01:00*%
%TF.ProjectId,cgs-attenuverter-board,6367732d-6174-4746-956e-757665727465,rev?*%
%TF.SameCoordinates,Original*%
%TF.FileFunction,Soldermask,Top*%
%TF.FilePolarity,Negative*%
%FSLAX46Y46*%
G04 Gerber Fmt 4.6, Leading zero omitted, Abs format (unit mm)*
G04 Created by KiCad (PCBNEW (5.1.8-0-10_14)) date 2021-06-26 19:08:16*
%MOMM*%
%LPD*%
G01*
G04 APERTURE LIST*
%ADD10O,1.600000X1.600000*%
%ADD11R,1.600000X1.600000*%
%ADD12C,1.500000*%
%ADD13C,1.600000*%
%ADD14C,3.200000*%
G04 APERTURE END LIST*
D10*
%TO.C,U1*%
X148590000Y-120650000D03*
X156210000Y-113030000D03*
X148590000Y-118110000D03*
X156210000Y-115570000D03*
X148590000Y-115570000D03*
X156210000Y-118110000D03*
X148590000Y-113030000D03*
D11*
X156210000Y-120650000D03*
%TD*%
D12*
%TO.C,RV2*%
X129350000Y-104902000D03*
G36*
G01*
X131318000Y-103886000D02*
X132842000Y-103886000D01*
G75*
G02*
X133096000Y-104140000I0J-254000D01*
G01*
X133096000Y-105664000D01*
G75*
G02*
X132842000Y-105918000I-254000J0D01*
G01*
X131318000Y-105918000D01*
G75*
G02*
X131064000Y-105664000I0J254000D01*
G01*
X131064000Y-104140000D01*
G75*
G02*
X131318000Y-103886000I254000J0D01*
G01*
G37*
X129350000Y-98298000D03*
G36*
G01*
X131318000Y-97282000D02*
X132842000Y-97282000D01*
G75*
G02*
X133096000Y-97536000I0J-254000D01*
G01*
X133096000Y-99060000D01*
G75*
G02*
X132842000Y-99314000I-254000J0D01*
G01*
X131318000Y-99314000D01*
G75*
G02*
X131064000Y-99060000I0J254000D01*
G01*
X131064000Y-97536000D01*
G75*
G02*
X131318000Y-97282000I254000J0D01*
G01*
G37*
X129350000Y-101600000D03*
G36*
G01*
X131318000Y-100584000D02*
X132842000Y-100584000D01*
G75*
G02*
X133096000Y-100838000I0J-254000D01*
G01*
X133096000Y-102362000D01*
G75*
G02*
X132842000Y-102616000I-254000J0D01*
G01*
X131318000Y-102616000D01*
G75*
G02*
X131064000Y-102362000I0J254000D01*
G01*
X131064000Y-100838000D01*
G75*
G02*
X131318000Y-100584000I254000J0D01*
G01*
G37*
%TD*%
%TO.C,RV1*%
X175450000Y-98298000D03*
G36*
G01*
X173482000Y-99314000D02*
X171958000Y-99314000D01*
G75*
G02*
X171704000Y-99060000I0J254000D01*
G01*
X171704000Y-97536000D01*
G75*
G02*
X171958000Y-97282000I254000J0D01*
G01*
X173482000Y-97282000D01*
G75*
G02*
X173736000Y-97536000I0J-254000D01*
G01*
X173736000Y-99060000D01*
G75*
G02*
X173482000Y-99314000I-254000J0D01*
G01*
G37*
X175450000Y-104902000D03*
G36*
G01*
X173482000Y-105918000D02*
X171958000Y-105918000D01*
G75*
G02*
X171704000Y-105664000I0J254000D01*
G01*
X171704000Y-104140000D01*
G75*
G02*
X171958000Y-103886000I254000J0D01*
G01*
X173482000Y-103886000D01*
G75*
G02*
X173736000Y-104140000I0J-254000D01*
G01*
X173736000Y-105664000D01*
G75*
G02*
X173482000Y-105918000I-254000J0D01*
G01*
G37*
X175450000Y-101600000D03*
G36*
G01*
X173482000Y-102616000D02*
X171958000Y-102616000D01*
G75*
G02*
X171704000Y-102362000I0J254000D01*
G01*
X171704000Y-100838000D01*
G75*
G02*
X171958000Y-100584000I254000J0D01*
G01*
X173482000Y-100584000D01*
G75*
G02*
X173736000Y-100838000I0J-254000D01*
G01*
X173736000Y-102362000D01*
G75*
G02*
X173482000Y-102616000I-254000J0D01*
G01*
G37*
%TD*%
D10*
%TO.C,R10*%
X149860000Y-99060000D03*
D13*
X139700000Y-99060000D03*
%TD*%
D10*
%TO.C,R9*%
X156210000Y-99060000D03*
D13*
X166370000Y-99060000D03*
%TD*%
D10*
%TO.C,R8*%
X149860000Y-106680000D03*
D13*
X139700000Y-106680000D03*
%TD*%
D10*
%TO.C,R7*%
X156210000Y-106680000D03*
D13*
X166370000Y-106680000D03*
%TD*%
D10*
%TO.C,R6*%
X139700000Y-102870000D03*
D13*
X149860000Y-102870000D03*
%TD*%
D10*
%TO.C,R5*%
X166370000Y-102870000D03*
D13*
X156210000Y-102870000D03*
%TD*%
D10*
%TO.C,R4*%
X143510000Y-111760000D03*
D13*
X143510000Y-121920000D03*
%TD*%
D10*
%TO.C,R3*%
X161290000Y-121920000D03*
D13*
X161290000Y-111760000D03*
%TD*%
D10*
%TO.C,R2*%
X139700000Y-111760000D03*
D13*
X139700000Y-121920000D03*
%TD*%
D10*
%TO.C,R1*%
X165100000Y-121920000D03*
D13*
X165100000Y-111760000D03*
%TD*%
D12*
%TO.C,J5*%
X149098000Y-89980000D03*
G36*
G01*
X150114000Y-91948000D02*
X150114000Y-93472000D01*
G75*
G02*
X149860000Y-93726000I-254000J0D01*
G01*
X148336000Y-93726000D01*
G75*
G02*
X148082000Y-93472000I0J254000D01*
G01*
X148082000Y-91948000D01*
G75*
G02*
X148336000Y-91694000I254000J0D01*
G01*
X149860000Y-91694000D01*
G75*
G02*
X150114000Y-91948000I0J-254000D01*
G01*
G37*
X155702000Y-89980000D03*
G36*
G01*
X156718000Y-91948000D02*
X156718000Y-93472000D01*
G75*
G02*
X156464000Y-93726000I-254000J0D01*
G01*
X154940000Y-93726000D01*
G75*
G02*
X154686000Y-93472000I0J254000D01*
G01*
X154686000Y-91948000D01*
G75*
G02*
X154940000Y-91694000I254000J0D01*
G01*
X156464000Y-91694000D01*
G75*
G02*
X156718000Y-91948000I0J-254000D01*
G01*
G37*
X152400000Y-89980000D03*
G36*
G01*
X153416000Y-91948000D02*
X153416000Y-93472000D01*
G75*
G02*
X153162000Y-93726000I-254000J0D01*
G01*
X151638000Y-93726000D01*
G75*
G02*
X151384000Y-93472000I0J254000D01*
G01*
X151384000Y-91948000D01*
G75*
G02*
X151638000Y-91694000I254000J0D01*
G01*
X153162000Y-91694000D01*
G75*
G02*
X153416000Y-91948000I0J-254000D01*
G01*
G37*
%TD*%
%TO.C,OUT2*%
X129286000Y-93980000D03*
G36*
G01*
X131318000Y-92964000D02*
X132842000Y-92964000D01*
G75*
G02*
X133096000Y-93218000I0J-254000D01*
G01*
X133096000Y-94742000D01*
G75*
G02*
X132842000Y-94996000I-254000J0D01*
G01*
X131318000Y-94996000D01*
G75*
G02*
X131064000Y-94742000I0J254000D01*
G01*
X131064000Y-93218000D01*
G75*
G02*
X131318000Y-92964000I254000J0D01*
G01*
G37*
%TD*%
%TO.C,OUT1*%
X175514000Y-93980000D03*
G36*
G01*
X173482000Y-94996000D02*
X171958000Y-94996000D01*
G75*
G02*
X171704000Y-94742000I0J254000D01*
G01*
X171704000Y-93218000D01*
G75*
G02*
X171958000Y-92964000I254000J0D01*
G01*
X173482000Y-92964000D01*
G75*
G02*
X173736000Y-93218000I0J-254000D01*
G01*
X173736000Y-94742000D01*
G75*
G02*
X173482000Y-94996000I-254000J0D01*
G01*
G37*
%TD*%
%TO.C,IN2*%
X129286000Y-109220000D03*
G36*
G01*
X131318000Y-108204000D02*
X132842000Y-108204000D01*
G75*
G02*
X133096000Y-108458000I0J-254000D01*
G01*
X133096000Y-109982000D01*
G75*
G02*
X132842000Y-110236000I-254000J0D01*
G01*
X131318000Y-110236000D01*
G75*
G02*
X131064000Y-109982000I0J254000D01*
G01*
X131064000Y-108458000D01*
G75*
G02*
X131318000Y-108204000I254000J0D01*
G01*
G37*
%TD*%
%TO.C,IN1*%
X175514000Y-109220000D03*
G36*
G01*
X173482000Y-110236000D02*
X171958000Y-110236000D01*
G75*
G02*
X171704000Y-109982000I0J254000D01*
G01*
X171704000Y-108458000D01*
G75*
G02*
X171958000Y-108204000I254000J0D01*
G01*
X173482000Y-108204000D01*
G75*
G02*
X173736000Y-108458000I0J-254000D01*
G01*
X173736000Y-109982000D01*
G75*
G02*
X173482000Y-110236000I-254000J0D01*
G01*
G37*
%TD*%
D14*
%TO.C,H2*%
X173990000Y-123190000D03*
%TD*%
%TO.C,H1*%
X130810000Y-123190000D03*
%TD*%
D13*
%TO.C,C2*%
X143510000Y-90250000D03*
X143510000Y-95250000D03*
%TD*%
%TO.C,C1*%
X161290000Y-90250000D03*
X161290000Y-95250000D03*
%TD*%
M02*
