M48
; DRILL file {KiCad (5.1.8-0-10_14)} date Saturday, June 26, 2021 at 07:08:20 PM
; FORMAT={-:-/ absolute / metric / decimal}
; #@! TF.CreationDate,2021-06-26T19:08:20+01:00
; #@! TF.GenerationSoftware,Kicad,Pcbnew,(5.1.8-0-10_14)
FMAT,2
METRIC
T1C0.800
T2C1.016
T3C1.500
T4C3.200
%
G90
G05
T1
X161.29Y-90.25
X161.29Y-95.25
X139.7Y-106.68
X149.86Y-106.68
X139.7Y-102.87
X149.86Y-102.87
X165.1Y-111.76
X165.1Y-121.92
X156.21Y-102.87
X166.37Y-102.87
X139.7Y-111.76
X139.7Y-121.92
X143.51Y-90.25
X143.51Y-95.25
X143.51Y-111.76
X143.51Y-121.92
X156.21Y-99.06
X166.37Y-99.06
X161.29Y-111.76
X161.29Y-121.92
X139.7Y-99.06
X149.86Y-99.06
X148.59Y-113.03
X148.59Y-115.57
X148.59Y-118.11
X148.59Y-120.65
X156.21Y-113.03
X156.21Y-115.57
X156.21Y-118.11
X156.21Y-120.65
X156.21Y-106.68
X166.37Y-106.68
T2
X132.08Y-98.298
X132.08Y-101.6
X132.08Y-104.902
X132.08Y-109.22
X132.08Y-93.98
X172.72Y-109.22
X172.72Y-93.98
X149.098Y-92.71
X152.4Y-92.71
X155.702Y-92.71
X172.72Y-98.298
X172.72Y-101.6
X172.72Y-104.902
T3
X149.098Y-89.98
X152.4Y-89.98
X155.702Y-89.98
X175.45Y-98.298
X129.286Y-93.98
X175.514Y-93.98
X175.45Y-104.902
X129.286Y-109.22
X175.514Y-109.22
X175.45Y-101.6
X129.35Y-98.298
X129.35Y-101.6
X129.35Y-104.902
T4
X173.99Y-123.19
X130.81Y-123.19
T0
M30
