%TF.GenerationSoftware,KiCad,Pcbnew,(5.1.8-0-10_14)*%
%TF.CreationDate,2021-06-26T19:08:16+01:00*%
%TF.ProjectId,cgs-attenuverter-board,6367732d-6174-4746-956e-757665727465,rev?*%
%TF.SameCoordinates,Original*%
%TF.FileFunction,Legend,Top*%
%TF.FilePolarity,Positive*%
%FSLAX46Y46*%
G04 Gerber Fmt 4.6, Leading zero omitted, Abs format (unit mm)*
G04 Created by KiCad (PCBNEW (5.1.8-0-10_14)) date 2021-06-26 19:08:16*
%MOMM*%
%LPD*%
G01*
G04 APERTURE LIST*
%ADD10C,0.150000*%
%ADD11C,0.120000*%
%ADD12C,0.152400*%
G04 APERTURE END LIST*
D10*
X164425714Y-90242380D02*
X164425714Y-89242380D01*
X164806666Y-89242380D01*
X164901904Y-89290000D01*
X164949523Y-89337619D01*
X164997142Y-89432857D01*
X164997142Y-89575714D01*
X164949523Y-89670952D01*
X164901904Y-89718571D01*
X164806666Y-89766190D01*
X164425714Y-89766190D01*
X165425714Y-90242380D02*
X165425714Y-89575714D01*
X165425714Y-89766190D02*
X165473333Y-89670952D01*
X165520952Y-89623333D01*
X165616190Y-89575714D01*
X165711428Y-89575714D01*
X166425714Y-90194761D02*
X166330476Y-90242380D01*
X166140000Y-90242380D01*
X166044761Y-90194761D01*
X165997142Y-90099523D01*
X165997142Y-89718571D01*
X166044761Y-89623333D01*
X166140000Y-89575714D01*
X166330476Y-89575714D01*
X166425714Y-89623333D01*
X166473333Y-89718571D01*
X166473333Y-89813809D01*
X165997142Y-89909047D01*
X167330476Y-90194761D02*
X167235238Y-90242380D01*
X167044761Y-90242380D01*
X166949523Y-90194761D01*
X166901904Y-90147142D01*
X166854285Y-90051904D01*
X166854285Y-89766190D01*
X166901904Y-89670952D01*
X166949523Y-89623333D01*
X167044761Y-89575714D01*
X167235238Y-89575714D01*
X167330476Y-89623333D01*
X167759047Y-90242380D02*
X167759047Y-89575714D01*
X167759047Y-89242380D02*
X167711428Y-89290000D01*
X167759047Y-89337619D01*
X167806666Y-89290000D01*
X167759047Y-89242380D01*
X167759047Y-89337619D01*
X168187619Y-90194761D02*
X168282857Y-90242380D01*
X168473333Y-90242380D01*
X168568571Y-90194761D01*
X168616190Y-90099523D01*
X168616190Y-90051904D01*
X168568571Y-89956666D01*
X168473333Y-89909047D01*
X168330476Y-89909047D01*
X168235238Y-89861428D01*
X168187619Y-89766190D01*
X168187619Y-89718571D01*
X168235238Y-89623333D01*
X168330476Y-89575714D01*
X168473333Y-89575714D01*
X168568571Y-89623333D01*
X169044761Y-90242380D02*
X169044761Y-89575714D01*
X169044761Y-89242380D02*
X168997142Y-89290000D01*
X169044761Y-89337619D01*
X169092380Y-89290000D01*
X169044761Y-89242380D01*
X169044761Y-89337619D01*
X169663809Y-90242380D02*
X169568571Y-90194761D01*
X169520952Y-90147142D01*
X169473333Y-90051904D01*
X169473333Y-89766190D01*
X169520952Y-89670952D01*
X169568571Y-89623333D01*
X169663809Y-89575714D01*
X169806666Y-89575714D01*
X169901904Y-89623333D01*
X169949523Y-89670952D01*
X169997142Y-89766190D01*
X169997142Y-90051904D01*
X169949523Y-90147142D01*
X169901904Y-90194761D01*
X169806666Y-90242380D01*
X169663809Y-90242380D01*
X170425714Y-89575714D02*
X170425714Y-90242380D01*
X170425714Y-89670952D02*
X170473333Y-89623333D01*
X170568571Y-89575714D01*
X170711428Y-89575714D01*
X170806666Y-89623333D01*
X170854285Y-89718571D01*
X170854285Y-90242380D01*
X163354285Y-91606666D02*
X163830476Y-91606666D01*
X163259047Y-91892380D02*
X163592380Y-90892380D01*
X163925714Y-91892380D01*
X164116190Y-91225714D02*
X164497142Y-91225714D01*
X164259047Y-90892380D02*
X164259047Y-91749523D01*
X164306666Y-91844761D01*
X164401904Y-91892380D01*
X164497142Y-91892380D01*
X164687619Y-91225714D02*
X165068571Y-91225714D01*
X164830476Y-90892380D02*
X164830476Y-91749523D01*
X164878095Y-91844761D01*
X164973333Y-91892380D01*
X165068571Y-91892380D01*
X165782857Y-91844761D02*
X165687619Y-91892380D01*
X165497142Y-91892380D01*
X165401904Y-91844761D01*
X165354285Y-91749523D01*
X165354285Y-91368571D01*
X165401904Y-91273333D01*
X165497142Y-91225714D01*
X165687619Y-91225714D01*
X165782857Y-91273333D01*
X165830476Y-91368571D01*
X165830476Y-91463809D01*
X165354285Y-91559047D01*
X166259047Y-91225714D02*
X166259047Y-91892380D01*
X166259047Y-91320952D02*
X166306666Y-91273333D01*
X166401904Y-91225714D01*
X166544761Y-91225714D01*
X166640000Y-91273333D01*
X166687619Y-91368571D01*
X166687619Y-91892380D01*
X167592380Y-91225714D02*
X167592380Y-91892380D01*
X167163809Y-91225714D02*
X167163809Y-91749523D01*
X167211428Y-91844761D01*
X167306666Y-91892380D01*
X167449523Y-91892380D01*
X167544761Y-91844761D01*
X167592380Y-91797142D01*
X167973333Y-91225714D02*
X168211428Y-91892380D01*
X168449523Y-91225714D01*
X169211428Y-91844761D02*
X169116190Y-91892380D01*
X168925714Y-91892380D01*
X168830476Y-91844761D01*
X168782857Y-91749523D01*
X168782857Y-91368571D01*
X168830476Y-91273333D01*
X168925714Y-91225714D01*
X169116190Y-91225714D01*
X169211428Y-91273333D01*
X169259047Y-91368571D01*
X169259047Y-91463809D01*
X168782857Y-91559047D01*
X169687619Y-91892380D02*
X169687619Y-91225714D01*
X169687619Y-91416190D02*
X169735238Y-91320952D01*
X169782857Y-91273333D01*
X169878095Y-91225714D01*
X169973333Y-91225714D01*
X170163809Y-91225714D02*
X170544761Y-91225714D01*
X170306666Y-90892380D02*
X170306666Y-91749523D01*
X170354285Y-91844761D01*
X170449523Y-91892380D01*
X170544761Y-91892380D01*
X171259047Y-91844761D02*
X171163809Y-91892380D01*
X170973333Y-91892380D01*
X170878095Y-91844761D01*
X170830476Y-91749523D01*
X170830476Y-91368571D01*
X170878095Y-91273333D01*
X170973333Y-91225714D01*
X171163809Y-91225714D01*
X171259047Y-91273333D01*
X171306666Y-91368571D01*
X171306666Y-91463809D01*
X170830476Y-91559047D01*
X171735238Y-91892380D02*
X171735238Y-91225714D01*
X171735238Y-91416190D02*
X171782857Y-91320952D01*
X171830476Y-91273333D01*
X171925714Y-91225714D01*
X172020952Y-91225714D01*
X166616190Y-93542380D02*
X166616190Y-92875714D01*
X166616190Y-93066190D02*
X166663809Y-92970952D01*
X166711428Y-92923333D01*
X166806666Y-92875714D01*
X166901904Y-92875714D01*
X167425714Y-92542380D02*
X167520952Y-92542380D01*
X167616190Y-92590000D01*
X167663809Y-92637619D01*
X167711428Y-92732857D01*
X167759047Y-92923333D01*
X167759047Y-93161428D01*
X167711428Y-93351904D01*
X167663809Y-93447142D01*
X167616190Y-93494761D01*
X167520952Y-93542380D01*
X167425714Y-93542380D01*
X167330476Y-93494761D01*
X167282857Y-93447142D01*
X167235238Y-93351904D01*
X167187619Y-93161428D01*
X167187619Y-92923333D01*
X167235238Y-92732857D01*
X167282857Y-92637619D01*
X167330476Y-92590000D01*
X167425714Y-92542380D01*
X168711428Y-93542380D02*
X168140000Y-93542380D01*
X168425714Y-93542380D02*
X168425714Y-92542380D01*
X168330476Y-92685238D01*
X168235238Y-92780476D01*
X168140000Y-92828095D01*
D11*
%TO.C,U1*%
X153400000Y-121980000D02*
X155050000Y-121980000D01*
X155050000Y-121980000D02*
X155050000Y-111700000D01*
X155050000Y-111700000D02*
X149750000Y-111700000D01*
X149750000Y-111700000D02*
X149750000Y-121980000D01*
X149750000Y-121980000D02*
X151400000Y-121980000D01*
X157540000Y-122040000D02*
X157540000Y-111640000D01*
X157540000Y-111640000D02*
X147260000Y-111640000D01*
X147260000Y-111640000D02*
X147260000Y-122040000D01*
X147260000Y-122040000D02*
X157540000Y-122040000D01*
X151400000Y-121980000D02*
G75*
G02*
X153400000Y-121980000I1000000J0D01*
G01*
D12*
%TO.C,RV2*%
X129286000Y-103124000D02*
X133096000Y-103124000D01*
X133096000Y-103124000D02*
X133604000Y-102616000D01*
X133604000Y-102616000D02*
X133604000Y-100584000D01*
X133604000Y-100584000D02*
X133096000Y-100076000D01*
X133096000Y-100076000D02*
X129286000Y-100076000D01*
X133096000Y-99822000D02*
X133604000Y-99314000D01*
X133604000Y-99314000D02*
X133604000Y-97282000D01*
X129286000Y-99822000D02*
X133096000Y-99822000D01*
X133096000Y-96774000D02*
X129286000Y-96774000D01*
X133604000Y-97282000D02*
X133096000Y-96774000D01*
X133096000Y-106426000D02*
X133604000Y-105918000D01*
X133604000Y-105918000D02*
X133604000Y-103886000D01*
X129286000Y-106426000D02*
X133096000Y-106426000D01*
X133096000Y-103378000D02*
X129286000Y-103378000D01*
X133604000Y-103886000D02*
X133096000Y-103378000D01*
X129286000Y-106426000D02*
G75*
G02*
X129286000Y-103378000I0J1524000D01*
G01*
X129286000Y-99822000D02*
G75*
G02*
X129286000Y-96774000I0J1524000D01*
G01*
X129286000Y-103124000D02*
G75*
G02*
X129286000Y-100076000I0J1524000D01*
G01*
%TO.C,RV1*%
X175514000Y-100076000D02*
X171704000Y-100076000D01*
X171704000Y-100076000D02*
X171196000Y-100584000D01*
X171196000Y-100584000D02*
X171196000Y-102616000D01*
X171196000Y-102616000D02*
X171704000Y-103124000D01*
X171704000Y-103124000D02*
X175514000Y-103124000D01*
X171704000Y-103378000D02*
X171196000Y-103886000D01*
X171196000Y-103886000D02*
X171196000Y-105918000D01*
X175514000Y-103378000D02*
X171704000Y-103378000D01*
X171704000Y-106426000D02*
X175514000Y-106426000D01*
X171196000Y-105918000D02*
X171704000Y-106426000D01*
X171704000Y-96774000D02*
X171196000Y-97282000D01*
X171196000Y-97282000D02*
X171196000Y-99314000D01*
X175514000Y-96774000D02*
X171704000Y-96774000D01*
X171704000Y-99822000D02*
X175514000Y-99822000D01*
X171196000Y-99314000D02*
X171704000Y-99822000D01*
X175514000Y-96774000D02*
G75*
G02*
X175514000Y-99822000I0J-1524000D01*
G01*
X175514000Y-103378000D02*
G75*
G02*
X175514000Y-106426000I0J-1524000D01*
G01*
X175514000Y-100076000D02*
G75*
G02*
X175514000Y-103124000I0J-1524000D01*
G01*
D11*
%TO.C,R10*%
X148820000Y-99060000D02*
X148050000Y-99060000D01*
X140740000Y-99060000D02*
X141510000Y-99060000D01*
X148050000Y-97690000D02*
X141510000Y-97690000D01*
X148050000Y-100430000D02*
X148050000Y-97690000D01*
X141510000Y-100430000D02*
X148050000Y-100430000D01*
X141510000Y-97690000D02*
X141510000Y-100430000D01*
%TO.C,R9*%
X157250000Y-99060000D02*
X158020000Y-99060000D01*
X165330000Y-99060000D02*
X164560000Y-99060000D01*
X158020000Y-100430000D02*
X164560000Y-100430000D01*
X158020000Y-97690000D02*
X158020000Y-100430000D01*
X164560000Y-97690000D02*
X158020000Y-97690000D01*
X164560000Y-100430000D02*
X164560000Y-97690000D01*
%TO.C,R8*%
X148820000Y-106680000D02*
X148050000Y-106680000D01*
X140740000Y-106680000D02*
X141510000Y-106680000D01*
X148050000Y-105310000D02*
X141510000Y-105310000D01*
X148050000Y-108050000D02*
X148050000Y-105310000D01*
X141510000Y-108050000D02*
X148050000Y-108050000D01*
X141510000Y-105310000D02*
X141510000Y-108050000D01*
%TO.C,R7*%
X157250000Y-106680000D02*
X158020000Y-106680000D01*
X165330000Y-106680000D02*
X164560000Y-106680000D01*
X158020000Y-108050000D02*
X164560000Y-108050000D01*
X158020000Y-105310000D02*
X158020000Y-108050000D01*
X164560000Y-105310000D02*
X158020000Y-105310000D01*
X164560000Y-108050000D02*
X164560000Y-105310000D01*
%TO.C,R6*%
X140740000Y-102870000D02*
X141510000Y-102870000D01*
X148820000Y-102870000D02*
X148050000Y-102870000D01*
X141510000Y-104240000D02*
X148050000Y-104240000D01*
X141510000Y-101500000D02*
X141510000Y-104240000D01*
X148050000Y-101500000D02*
X141510000Y-101500000D01*
X148050000Y-104240000D02*
X148050000Y-101500000D01*
%TO.C,R5*%
X165330000Y-102870000D02*
X164560000Y-102870000D01*
X157250000Y-102870000D02*
X158020000Y-102870000D01*
X164560000Y-101500000D02*
X158020000Y-101500000D01*
X164560000Y-104240000D02*
X164560000Y-101500000D01*
X158020000Y-104240000D02*
X164560000Y-104240000D01*
X158020000Y-101500000D02*
X158020000Y-104240000D01*
%TO.C,R4*%
X143510000Y-112800000D02*
X143510000Y-113570000D01*
X143510000Y-120880000D02*
X143510000Y-120110000D01*
X142140000Y-113570000D02*
X142140000Y-120110000D01*
X144880000Y-113570000D02*
X142140000Y-113570000D01*
X144880000Y-120110000D02*
X144880000Y-113570000D01*
X142140000Y-120110000D02*
X144880000Y-120110000D01*
%TO.C,R3*%
X161290000Y-120880000D02*
X161290000Y-120110000D01*
X161290000Y-112800000D02*
X161290000Y-113570000D01*
X162660000Y-120110000D02*
X162660000Y-113570000D01*
X159920000Y-120110000D02*
X162660000Y-120110000D01*
X159920000Y-113570000D02*
X159920000Y-120110000D01*
X162660000Y-113570000D02*
X159920000Y-113570000D01*
%TO.C,R2*%
X139700000Y-112800000D02*
X139700000Y-113570000D01*
X139700000Y-120880000D02*
X139700000Y-120110000D01*
X138330000Y-113570000D02*
X138330000Y-120110000D01*
X141070000Y-113570000D02*
X138330000Y-113570000D01*
X141070000Y-120110000D02*
X141070000Y-113570000D01*
X138330000Y-120110000D02*
X141070000Y-120110000D01*
%TO.C,R1*%
X165100000Y-120880000D02*
X165100000Y-120110000D01*
X165100000Y-112800000D02*
X165100000Y-113570000D01*
X166470000Y-120110000D02*
X166470000Y-113570000D01*
X163730000Y-120110000D02*
X166470000Y-120110000D01*
X163730000Y-113570000D02*
X163730000Y-120110000D01*
X166470000Y-113570000D02*
X163730000Y-113570000D01*
D12*
%TO.C,J5*%
X150876000Y-89916000D02*
X150876000Y-93726000D01*
X150876000Y-93726000D02*
X151384000Y-94234000D01*
X151384000Y-94234000D02*
X153416000Y-94234000D01*
X153416000Y-94234000D02*
X153924000Y-93726000D01*
X153924000Y-93726000D02*
X153924000Y-89916000D01*
X154178000Y-93726000D02*
X154686000Y-94234000D01*
X154686000Y-94234000D02*
X156718000Y-94234000D01*
X154178000Y-89916000D02*
X154178000Y-93726000D01*
X157226000Y-93726000D02*
X157226000Y-89916000D01*
X156718000Y-94234000D02*
X157226000Y-93726000D01*
X147574000Y-93726000D02*
X148082000Y-94234000D01*
X148082000Y-94234000D02*
X150114000Y-94234000D01*
X147574000Y-89916000D02*
X147574000Y-93726000D01*
X150622000Y-93726000D02*
X150622000Y-89916000D01*
X150114000Y-94234000D02*
X150622000Y-93726000D01*
X147574000Y-89916000D02*
G75*
G02*
X150622000Y-89916000I1524000J0D01*
G01*
X154178000Y-89916000D02*
G75*
G02*
X157226000Y-89916000I1524000J0D01*
G01*
X150876000Y-89916000D02*
G75*
G02*
X153924000Y-89916000I1524000J0D01*
G01*
%TO.C,OUT2*%
X129286000Y-95504000D02*
X133096000Y-95504000D01*
X133096000Y-95504000D02*
X133604000Y-94996000D01*
X133604000Y-94996000D02*
X133604000Y-92964000D01*
X133604000Y-92964000D02*
X133096000Y-92456000D01*
X133096000Y-92456000D02*
X129286000Y-92456000D01*
X129286000Y-95504000D02*
G75*
G02*
X129286000Y-92456000I0J1524000D01*
G01*
%TO.C,OUT1*%
X175514000Y-92456000D02*
X171704000Y-92456000D01*
X171704000Y-92456000D02*
X171196000Y-92964000D01*
X171196000Y-92964000D02*
X171196000Y-94996000D01*
X171196000Y-94996000D02*
X171704000Y-95504000D01*
X171704000Y-95504000D02*
X175514000Y-95504000D01*
X175514000Y-92456000D02*
G75*
G02*
X175514000Y-95504000I0J-1524000D01*
G01*
%TO.C,IN2*%
X129286000Y-110744000D02*
X133096000Y-110744000D01*
X133096000Y-110744000D02*
X133604000Y-110236000D01*
X133604000Y-110236000D02*
X133604000Y-108204000D01*
X133604000Y-108204000D02*
X133096000Y-107696000D01*
X133096000Y-107696000D02*
X129286000Y-107696000D01*
X129286000Y-110744000D02*
G75*
G02*
X129286000Y-107696000I0J1524000D01*
G01*
%TO.C,IN1*%
X175514000Y-107696000D02*
X171704000Y-107696000D01*
X171704000Y-107696000D02*
X171196000Y-108204000D01*
X171196000Y-108204000D02*
X171196000Y-110236000D01*
X171196000Y-110236000D02*
X171704000Y-110744000D01*
X171704000Y-110744000D02*
X175514000Y-110744000D01*
X175514000Y-107696000D02*
G75*
G02*
X175514000Y-110744000I0J-1524000D01*
G01*
D11*
%TO.C,C2*%
X142140000Y-96370000D02*
X142140000Y-89130000D01*
X144880000Y-96370000D02*
X144880000Y-89130000D01*
X142140000Y-96370000D02*
X144880000Y-96370000D01*
X142140000Y-89130000D02*
X144880000Y-89130000D01*
%TO.C,C1*%
X162660000Y-96370000D02*
X159920000Y-96370000D01*
X162660000Y-89130000D02*
X159920000Y-89130000D01*
X159920000Y-89130000D02*
X159920000Y-96370000D01*
X162660000Y-89130000D02*
X162660000Y-96370000D01*
%TO.C,U1*%
D10*
X151638095Y-116292380D02*
X151638095Y-117101904D01*
X151685714Y-117197142D01*
X151733333Y-117244761D01*
X151828571Y-117292380D01*
X152019047Y-117292380D01*
X152114285Y-117244761D01*
X152161904Y-117197142D01*
X152209523Y-117101904D01*
X152209523Y-116292380D01*
X153209523Y-117292380D02*
X152638095Y-117292380D01*
X152923809Y-117292380D02*
X152923809Y-116292380D01*
X152828571Y-116435238D01*
X152733333Y-116530476D01*
X152638095Y-116578095D01*
%TO.C,RV2*%
X134782380Y-102195238D02*
X134306190Y-102528571D01*
X134782380Y-102766666D02*
X133782380Y-102766666D01*
X133782380Y-102385714D01*
X133830000Y-102290476D01*
X133877619Y-102242857D01*
X133972857Y-102195238D01*
X134115714Y-102195238D01*
X134210952Y-102242857D01*
X134258571Y-102290476D01*
X134306190Y-102385714D01*
X134306190Y-102766666D01*
X133782380Y-101909523D02*
X134782380Y-101576190D01*
X133782380Y-101242857D01*
X133877619Y-100957142D02*
X133830000Y-100909523D01*
X133782380Y-100814285D01*
X133782380Y-100576190D01*
X133830000Y-100480952D01*
X133877619Y-100433333D01*
X133972857Y-100385714D01*
X134068095Y-100385714D01*
X134210952Y-100433333D01*
X134782380Y-101004761D01*
X134782380Y-100385714D01*
%TO.C,RV1*%
X170922380Y-102195238D02*
X170446190Y-102528571D01*
X170922380Y-102766666D02*
X169922380Y-102766666D01*
X169922380Y-102385714D01*
X169970000Y-102290476D01*
X170017619Y-102242857D01*
X170112857Y-102195238D01*
X170255714Y-102195238D01*
X170350952Y-102242857D01*
X170398571Y-102290476D01*
X170446190Y-102385714D01*
X170446190Y-102766666D01*
X169922380Y-101909523D02*
X170922380Y-101576190D01*
X169922380Y-101242857D01*
X170922380Y-100385714D02*
X170922380Y-100957142D01*
X170922380Y-100671428D02*
X169922380Y-100671428D01*
X170065238Y-100766666D01*
X170160476Y-100861904D01*
X170208095Y-100957142D01*
%TO.C,R10*%
X144137142Y-99512380D02*
X143803809Y-99036190D01*
X143565714Y-99512380D02*
X143565714Y-98512380D01*
X143946666Y-98512380D01*
X144041904Y-98560000D01*
X144089523Y-98607619D01*
X144137142Y-98702857D01*
X144137142Y-98845714D01*
X144089523Y-98940952D01*
X144041904Y-98988571D01*
X143946666Y-99036190D01*
X143565714Y-99036190D01*
X145089523Y-99512380D02*
X144518095Y-99512380D01*
X144803809Y-99512380D02*
X144803809Y-98512380D01*
X144708571Y-98655238D01*
X144613333Y-98750476D01*
X144518095Y-98798095D01*
X145708571Y-98512380D02*
X145803809Y-98512380D01*
X145899047Y-98560000D01*
X145946666Y-98607619D01*
X145994285Y-98702857D01*
X146041904Y-98893333D01*
X146041904Y-99131428D01*
X145994285Y-99321904D01*
X145946666Y-99417142D01*
X145899047Y-99464761D01*
X145803809Y-99512380D01*
X145708571Y-99512380D01*
X145613333Y-99464761D01*
X145565714Y-99417142D01*
X145518095Y-99321904D01*
X145470476Y-99131428D01*
X145470476Y-98893333D01*
X145518095Y-98702857D01*
X145565714Y-98607619D01*
X145613333Y-98560000D01*
X145708571Y-98512380D01*
%TO.C,R9*%
X161123333Y-99512380D02*
X160790000Y-99036190D01*
X160551904Y-99512380D02*
X160551904Y-98512380D01*
X160932857Y-98512380D01*
X161028095Y-98560000D01*
X161075714Y-98607619D01*
X161123333Y-98702857D01*
X161123333Y-98845714D01*
X161075714Y-98940952D01*
X161028095Y-98988571D01*
X160932857Y-99036190D01*
X160551904Y-99036190D01*
X161599523Y-99512380D02*
X161790000Y-99512380D01*
X161885238Y-99464761D01*
X161932857Y-99417142D01*
X162028095Y-99274285D01*
X162075714Y-99083809D01*
X162075714Y-98702857D01*
X162028095Y-98607619D01*
X161980476Y-98560000D01*
X161885238Y-98512380D01*
X161694761Y-98512380D01*
X161599523Y-98560000D01*
X161551904Y-98607619D01*
X161504285Y-98702857D01*
X161504285Y-98940952D01*
X161551904Y-99036190D01*
X161599523Y-99083809D01*
X161694761Y-99131428D01*
X161885238Y-99131428D01*
X161980476Y-99083809D01*
X162028095Y-99036190D01*
X162075714Y-98940952D01*
%TO.C,R8*%
X144613333Y-107132380D02*
X144280000Y-106656190D01*
X144041904Y-107132380D02*
X144041904Y-106132380D01*
X144422857Y-106132380D01*
X144518095Y-106180000D01*
X144565714Y-106227619D01*
X144613333Y-106322857D01*
X144613333Y-106465714D01*
X144565714Y-106560952D01*
X144518095Y-106608571D01*
X144422857Y-106656190D01*
X144041904Y-106656190D01*
X145184761Y-106560952D02*
X145089523Y-106513333D01*
X145041904Y-106465714D01*
X144994285Y-106370476D01*
X144994285Y-106322857D01*
X145041904Y-106227619D01*
X145089523Y-106180000D01*
X145184761Y-106132380D01*
X145375238Y-106132380D01*
X145470476Y-106180000D01*
X145518095Y-106227619D01*
X145565714Y-106322857D01*
X145565714Y-106370476D01*
X145518095Y-106465714D01*
X145470476Y-106513333D01*
X145375238Y-106560952D01*
X145184761Y-106560952D01*
X145089523Y-106608571D01*
X145041904Y-106656190D01*
X144994285Y-106751428D01*
X144994285Y-106941904D01*
X145041904Y-107037142D01*
X145089523Y-107084761D01*
X145184761Y-107132380D01*
X145375238Y-107132380D01*
X145470476Y-107084761D01*
X145518095Y-107037142D01*
X145565714Y-106941904D01*
X145565714Y-106751428D01*
X145518095Y-106656190D01*
X145470476Y-106608571D01*
X145375238Y-106560952D01*
%TO.C,R7*%
X161123333Y-107132380D02*
X160790000Y-106656190D01*
X160551904Y-107132380D02*
X160551904Y-106132380D01*
X160932857Y-106132380D01*
X161028095Y-106180000D01*
X161075714Y-106227619D01*
X161123333Y-106322857D01*
X161123333Y-106465714D01*
X161075714Y-106560952D01*
X161028095Y-106608571D01*
X160932857Y-106656190D01*
X160551904Y-106656190D01*
X161456666Y-106132380D02*
X162123333Y-106132380D01*
X161694761Y-107132380D01*
%TO.C,R6*%
X144613333Y-103322380D02*
X144280000Y-102846190D01*
X144041904Y-103322380D02*
X144041904Y-102322380D01*
X144422857Y-102322380D01*
X144518095Y-102370000D01*
X144565714Y-102417619D01*
X144613333Y-102512857D01*
X144613333Y-102655714D01*
X144565714Y-102750952D01*
X144518095Y-102798571D01*
X144422857Y-102846190D01*
X144041904Y-102846190D01*
X145470476Y-102322380D02*
X145280000Y-102322380D01*
X145184761Y-102370000D01*
X145137142Y-102417619D01*
X145041904Y-102560476D01*
X144994285Y-102750952D01*
X144994285Y-103131904D01*
X145041904Y-103227142D01*
X145089523Y-103274761D01*
X145184761Y-103322380D01*
X145375238Y-103322380D01*
X145470476Y-103274761D01*
X145518095Y-103227142D01*
X145565714Y-103131904D01*
X145565714Y-102893809D01*
X145518095Y-102798571D01*
X145470476Y-102750952D01*
X145375238Y-102703333D01*
X145184761Y-102703333D01*
X145089523Y-102750952D01*
X145041904Y-102798571D01*
X144994285Y-102893809D01*
%TO.C,R5*%
X161123333Y-103322380D02*
X160790000Y-102846190D01*
X160551904Y-103322380D02*
X160551904Y-102322380D01*
X160932857Y-102322380D01*
X161028095Y-102370000D01*
X161075714Y-102417619D01*
X161123333Y-102512857D01*
X161123333Y-102655714D01*
X161075714Y-102750952D01*
X161028095Y-102798571D01*
X160932857Y-102846190D01*
X160551904Y-102846190D01*
X162028095Y-102322380D02*
X161551904Y-102322380D01*
X161504285Y-102798571D01*
X161551904Y-102750952D01*
X161647142Y-102703333D01*
X161885238Y-102703333D01*
X161980476Y-102750952D01*
X162028095Y-102798571D01*
X162075714Y-102893809D01*
X162075714Y-103131904D01*
X162028095Y-103227142D01*
X161980476Y-103274761D01*
X161885238Y-103322380D01*
X161647142Y-103322380D01*
X161551904Y-103274761D01*
X161504285Y-103227142D01*
%TO.C,R4*%
X143962380Y-117006666D02*
X143486190Y-117340000D01*
X143962380Y-117578095D02*
X142962380Y-117578095D01*
X142962380Y-117197142D01*
X143010000Y-117101904D01*
X143057619Y-117054285D01*
X143152857Y-117006666D01*
X143295714Y-117006666D01*
X143390952Y-117054285D01*
X143438571Y-117101904D01*
X143486190Y-117197142D01*
X143486190Y-117578095D01*
X143295714Y-116149523D02*
X143962380Y-116149523D01*
X142914761Y-116387619D02*
X143629047Y-116625714D01*
X143629047Y-116006666D01*
%TO.C,R3*%
X161742380Y-117006666D02*
X161266190Y-117340000D01*
X161742380Y-117578095D02*
X160742380Y-117578095D01*
X160742380Y-117197142D01*
X160790000Y-117101904D01*
X160837619Y-117054285D01*
X160932857Y-117006666D01*
X161075714Y-117006666D01*
X161170952Y-117054285D01*
X161218571Y-117101904D01*
X161266190Y-117197142D01*
X161266190Y-117578095D01*
X160742380Y-116673333D02*
X160742380Y-116054285D01*
X161123333Y-116387619D01*
X161123333Y-116244761D01*
X161170952Y-116149523D01*
X161218571Y-116101904D01*
X161313809Y-116054285D01*
X161551904Y-116054285D01*
X161647142Y-116101904D01*
X161694761Y-116149523D01*
X161742380Y-116244761D01*
X161742380Y-116530476D01*
X161694761Y-116625714D01*
X161647142Y-116673333D01*
%TO.C,R2*%
X140152380Y-117006666D02*
X139676190Y-117340000D01*
X140152380Y-117578095D02*
X139152380Y-117578095D01*
X139152380Y-117197142D01*
X139200000Y-117101904D01*
X139247619Y-117054285D01*
X139342857Y-117006666D01*
X139485714Y-117006666D01*
X139580952Y-117054285D01*
X139628571Y-117101904D01*
X139676190Y-117197142D01*
X139676190Y-117578095D01*
X139247619Y-116625714D02*
X139200000Y-116578095D01*
X139152380Y-116482857D01*
X139152380Y-116244761D01*
X139200000Y-116149523D01*
X139247619Y-116101904D01*
X139342857Y-116054285D01*
X139438095Y-116054285D01*
X139580952Y-116101904D01*
X140152380Y-116673333D01*
X140152380Y-116054285D01*
%TO.C,R1*%
X165552380Y-117006666D02*
X165076190Y-117340000D01*
X165552380Y-117578095D02*
X164552380Y-117578095D01*
X164552380Y-117197142D01*
X164600000Y-117101904D01*
X164647619Y-117054285D01*
X164742857Y-117006666D01*
X164885714Y-117006666D01*
X164980952Y-117054285D01*
X165028571Y-117101904D01*
X165076190Y-117197142D01*
X165076190Y-117578095D01*
X165552380Y-116054285D02*
X165552380Y-116625714D01*
X165552380Y-116340000D02*
X164552380Y-116340000D01*
X164695238Y-116435238D01*
X164790476Y-116530476D01*
X164838095Y-116625714D01*
%TO.C,OUT2*%
X133782380Y-95456190D02*
X133782380Y-95265714D01*
X133830000Y-95170476D01*
X133925238Y-95075238D01*
X134115714Y-95027619D01*
X134449047Y-95027619D01*
X134639523Y-95075238D01*
X134734761Y-95170476D01*
X134782380Y-95265714D01*
X134782380Y-95456190D01*
X134734761Y-95551428D01*
X134639523Y-95646666D01*
X134449047Y-95694285D01*
X134115714Y-95694285D01*
X133925238Y-95646666D01*
X133830000Y-95551428D01*
X133782380Y-95456190D01*
X133782380Y-94599047D02*
X134591904Y-94599047D01*
X134687142Y-94551428D01*
X134734761Y-94503809D01*
X134782380Y-94408571D01*
X134782380Y-94218095D01*
X134734761Y-94122857D01*
X134687142Y-94075238D01*
X134591904Y-94027619D01*
X133782380Y-94027619D01*
X133782380Y-93694285D02*
X133782380Y-93122857D01*
X134782380Y-93408571D02*
X133782380Y-93408571D01*
X133877619Y-92837142D02*
X133830000Y-92789523D01*
X133782380Y-92694285D01*
X133782380Y-92456190D01*
X133830000Y-92360952D01*
X133877619Y-92313333D01*
X133972857Y-92265714D01*
X134068095Y-92265714D01*
X134210952Y-92313333D01*
X134782380Y-92884761D01*
X134782380Y-92265714D01*
%TO.C,OUT1*%
X169922380Y-95456190D02*
X169922380Y-95265714D01*
X169970000Y-95170476D01*
X170065238Y-95075238D01*
X170255714Y-95027619D01*
X170589047Y-95027619D01*
X170779523Y-95075238D01*
X170874761Y-95170476D01*
X170922380Y-95265714D01*
X170922380Y-95456190D01*
X170874761Y-95551428D01*
X170779523Y-95646666D01*
X170589047Y-95694285D01*
X170255714Y-95694285D01*
X170065238Y-95646666D01*
X169970000Y-95551428D01*
X169922380Y-95456190D01*
X169922380Y-94599047D02*
X170731904Y-94599047D01*
X170827142Y-94551428D01*
X170874761Y-94503809D01*
X170922380Y-94408571D01*
X170922380Y-94218095D01*
X170874761Y-94122857D01*
X170827142Y-94075238D01*
X170731904Y-94027619D01*
X169922380Y-94027619D01*
X169922380Y-93694285D02*
X169922380Y-93122857D01*
X170922380Y-93408571D02*
X169922380Y-93408571D01*
X170922380Y-92265714D02*
X170922380Y-92837142D01*
X170922380Y-92551428D02*
X169922380Y-92551428D01*
X170065238Y-92646666D01*
X170160476Y-92741904D01*
X170208095Y-92837142D01*
%TO.C,IN2*%
X134782380Y-110220000D02*
X133782380Y-110220000D01*
X134782380Y-109743809D02*
X133782380Y-109743809D01*
X134782380Y-109172380D01*
X133782380Y-109172380D01*
X133877619Y-108743809D02*
X133830000Y-108696190D01*
X133782380Y-108600952D01*
X133782380Y-108362857D01*
X133830000Y-108267619D01*
X133877619Y-108220000D01*
X133972857Y-108172380D01*
X134068095Y-108172380D01*
X134210952Y-108220000D01*
X134782380Y-108791428D01*
X134782380Y-108172380D01*
%TO.C,IN1*%
X170922380Y-110220000D02*
X169922380Y-110220000D01*
X170922380Y-109743809D02*
X169922380Y-109743809D01*
X170922380Y-109172380D01*
X169922380Y-109172380D01*
X170922380Y-108172380D02*
X170922380Y-108743809D01*
X170922380Y-108458095D02*
X169922380Y-108458095D01*
X170065238Y-108553333D01*
X170160476Y-108648571D01*
X170208095Y-108743809D01*
%TO.C,C2*%
X143867142Y-92956666D02*
X143914761Y-93004285D01*
X143962380Y-93147142D01*
X143962380Y-93242380D01*
X143914761Y-93385238D01*
X143819523Y-93480476D01*
X143724285Y-93528095D01*
X143533809Y-93575714D01*
X143390952Y-93575714D01*
X143200476Y-93528095D01*
X143105238Y-93480476D01*
X143010000Y-93385238D01*
X142962380Y-93242380D01*
X142962380Y-93147142D01*
X143010000Y-93004285D01*
X143057619Y-92956666D01*
X143057619Y-92575714D02*
X143010000Y-92528095D01*
X142962380Y-92432857D01*
X142962380Y-92194761D01*
X143010000Y-92099523D01*
X143057619Y-92051904D01*
X143152857Y-92004285D01*
X143248095Y-92004285D01*
X143390952Y-92051904D01*
X143962380Y-92623333D01*
X143962380Y-92004285D01*
%TO.C,C1*%
X161647142Y-92916666D02*
X161694761Y-92964285D01*
X161742380Y-93107142D01*
X161742380Y-93202380D01*
X161694761Y-93345238D01*
X161599523Y-93440476D01*
X161504285Y-93488095D01*
X161313809Y-93535714D01*
X161170952Y-93535714D01*
X160980476Y-93488095D01*
X160885238Y-93440476D01*
X160790000Y-93345238D01*
X160742380Y-93202380D01*
X160742380Y-93107142D01*
X160790000Y-92964285D01*
X160837619Y-92916666D01*
X161742380Y-91964285D02*
X161742380Y-92535714D01*
X161742380Y-92250000D02*
X160742380Y-92250000D01*
X160885238Y-92345238D01*
X160980476Y-92440476D01*
X161028095Y-92535714D01*
%TD*%
M02*
