%TF.GenerationSoftware,KiCad,Pcbnew,(6.0.0-0)*%
%TF.CreationDate,2022-06-17T06:04:18+01:00*%
%TF.ProjectId,4u-damped-integrator,34752d64-616d-4706-9564-2d696e746567,r01*%
%TF.SameCoordinates,Original*%
%TF.FileFunction,Legend,Top*%
%TF.FilePolarity,Positive*%
%FSLAX46Y46*%
G04 Gerber Fmt 4.6, Leading zero omitted, Abs format (unit mm)*
G04 Created by KiCad (PCBNEW (6.0.0-0)) date 2022-06-17 06:04:18*
%MOMM*%
%LPD*%
G01*
G04 APERTURE LIST*
%ADD10C,0.150000*%
%ADD11C,0.120000*%
G04 APERTURE END LIST*
D10*
X92238095Y-136647380D02*
X92238095Y-135647380D01*
X92476190Y-135647380D01*
X92619047Y-135695000D01*
X92714285Y-135790238D01*
X92761904Y-135885476D01*
X92809523Y-136075952D01*
X92809523Y-136218809D01*
X92761904Y-136409285D01*
X92714285Y-136504523D01*
X92619047Y-136599761D01*
X92476190Y-136647380D01*
X92238095Y-136647380D01*
X93666666Y-136647380D02*
X93666666Y-136123571D01*
X93619047Y-136028333D01*
X93523809Y-135980714D01*
X93333333Y-135980714D01*
X93238095Y-136028333D01*
X93666666Y-136599761D02*
X93571428Y-136647380D01*
X93333333Y-136647380D01*
X93238095Y-136599761D01*
X93190476Y-136504523D01*
X93190476Y-136409285D01*
X93238095Y-136314047D01*
X93333333Y-136266428D01*
X93571428Y-136266428D01*
X93666666Y-136218809D01*
X94142857Y-136647380D02*
X94142857Y-135980714D01*
X94142857Y-136075952D02*
X94190476Y-136028333D01*
X94285714Y-135980714D01*
X94428571Y-135980714D01*
X94523809Y-136028333D01*
X94571428Y-136123571D01*
X94571428Y-136647380D01*
X94571428Y-136123571D02*
X94619047Y-136028333D01*
X94714285Y-135980714D01*
X94857142Y-135980714D01*
X94952380Y-136028333D01*
X95000000Y-136123571D01*
X95000000Y-136647380D01*
X95476190Y-135980714D02*
X95476190Y-136980714D01*
X95476190Y-136028333D02*
X95571428Y-135980714D01*
X95761904Y-135980714D01*
X95857142Y-136028333D01*
X95904761Y-136075952D01*
X95952380Y-136171190D01*
X95952380Y-136456904D01*
X95904761Y-136552142D01*
X95857142Y-136599761D01*
X95761904Y-136647380D01*
X95571428Y-136647380D01*
X95476190Y-136599761D01*
X96761904Y-136599761D02*
X96666666Y-136647380D01*
X96476190Y-136647380D01*
X96380952Y-136599761D01*
X96333333Y-136504523D01*
X96333333Y-136123571D01*
X96380952Y-136028333D01*
X96476190Y-135980714D01*
X96666666Y-135980714D01*
X96761904Y-136028333D01*
X96809523Y-136123571D01*
X96809523Y-136218809D01*
X96333333Y-136314047D01*
X97666666Y-136647380D02*
X97666666Y-135647380D01*
X97666666Y-136599761D02*
X97571428Y-136647380D01*
X97380952Y-136647380D01*
X97285714Y-136599761D01*
X97238095Y-136552142D01*
X97190476Y-136456904D01*
X97190476Y-136171190D01*
X97238095Y-136075952D01*
X97285714Y-136028333D01*
X97380952Y-135980714D01*
X97571428Y-135980714D01*
X97666666Y-136028333D01*
X98904761Y-136647380D02*
X98904761Y-135647380D01*
X99380952Y-135980714D02*
X99380952Y-136647380D01*
X99380952Y-136075952D02*
X99428571Y-136028333D01*
X99523809Y-135980714D01*
X99666666Y-135980714D01*
X99761904Y-136028333D01*
X99809523Y-136123571D01*
X99809523Y-136647380D01*
X100142857Y-135980714D02*
X100523809Y-135980714D01*
X100285714Y-135647380D02*
X100285714Y-136504523D01*
X100333333Y-136599761D01*
X100428571Y-136647380D01*
X100523809Y-136647380D01*
X101238095Y-136599761D02*
X101142857Y-136647380D01*
X100952380Y-136647380D01*
X100857142Y-136599761D01*
X100809523Y-136504523D01*
X100809523Y-136123571D01*
X100857142Y-136028333D01*
X100952380Y-135980714D01*
X101142857Y-135980714D01*
X101238095Y-136028333D01*
X101285714Y-136123571D01*
X101285714Y-136218809D01*
X100809523Y-136314047D01*
X102142857Y-135980714D02*
X102142857Y-136790238D01*
X102095238Y-136885476D01*
X102047619Y-136933095D01*
X101952380Y-136980714D01*
X101809523Y-136980714D01*
X101714285Y-136933095D01*
X102142857Y-136599761D02*
X102047619Y-136647380D01*
X101857142Y-136647380D01*
X101761904Y-136599761D01*
X101714285Y-136552142D01*
X101666666Y-136456904D01*
X101666666Y-136171190D01*
X101714285Y-136075952D01*
X101761904Y-136028333D01*
X101857142Y-135980714D01*
X102047619Y-135980714D01*
X102142857Y-136028333D01*
X102619047Y-136647380D02*
X102619047Y-135980714D01*
X102619047Y-136171190D02*
X102666666Y-136075952D01*
X102714285Y-136028333D01*
X102809523Y-135980714D01*
X102904761Y-135980714D01*
X103666666Y-136647380D02*
X103666666Y-136123571D01*
X103619047Y-136028333D01*
X103523809Y-135980714D01*
X103333333Y-135980714D01*
X103238095Y-136028333D01*
X103666666Y-136599761D02*
X103571428Y-136647380D01*
X103333333Y-136647380D01*
X103238095Y-136599761D01*
X103190476Y-136504523D01*
X103190476Y-136409285D01*
X103238095Y-136314047D01*
X103333333Y-136266428D01*
X103571428Y-136266428D01*
X103666666Y-136218809D01*
X104000000Y-135980714D02*
X104380952Y-135980714D01*
X104142857Y-135647380D02*
X104142857Y-136504523D01*
X104190476Y-136599761D01*
X104285714Y-136647380D01*
X104380952Y-136647380D01*
X104857142Y-136647380D02*
X104761904Y-136599761D01*
X104714285Y-136552142D01*
X104666666Y-136456904D01*
X104666666Y-136171190D01*
X104714285Y-136075952D01*
X104761904Y-136028333D01*
X104857142Y-135980714D01*
X105000000Y-135980714D01*
X105095238Y-136028333D01*
X105142857Y-136075952D01*
X105190476Y-136171190D01*
X105190476Y-136456904D01*
X105142857Y-136552142D01*
X105095238Y-136599761D01*
X105000000Y-136647380D01*
X104857142Y-136647380D01*
X105619047Y-136647380D02*
X105619047Y-135980714D01*
X105619047Y-136171190D02*
X105666666Y-136075952D01*
X105714285Y-136028333D01*
X105809523Y-135980714D01*
X105904761Y-135980714D01*
X95000000Y-138257380D02*
X95000000Y-137590714D01*
X95000000Y-137781190D02*
X95047619Y-137685952D01*
X95095238Y-137638333D01*
X95190476Y-137590714D01*
X95285714Y-137590714D01*
X96000000Y-138209761D02*
X95904761Y-138257380D01*
X95714285Y-138257380D01*
X95619047Y-138209761D01*
X95571428Y-138114523D01*
X95571428Y-137733571D01*
X95619047Y-137638333D01*
X95714285Y-137590714D01*
X95904761Y-137590714D01*
X96000000Y-137638333D01*
X96047619Y-137733571D01*
X96047619Y-137828809D01*
X95571428Y-137924047D01*
X96380952Y-137590714D02*
X96619047Y-138257380D01*
X96857142Y-137590714D01*
X97238095Y-138257380D02*
X97238095Y-137590714D01*
X97238095Y-137257380D02*
X97190476Y-137305000D01*
X97238095Y-137352619D01*
X97285714Y-137305000D01*
X97238095Y-137257380D01*
X97238095Y-137352619D01*
X97666666Y-138209761D02*
X97761904Y-138257380D01*
X97952380Y-138257380D01*
X98047619Y-138209761D01*
X98095238Y-138114523D01*
X98095238Y-138066904D01*
X98047619Y-137971666D01*
X97952380Y-137924047D01*
X97809523Y-137924047D01*
X97714285Y-137876428D01*
X97666666Y-137781190D01*
X97666666Y-137733571D01*
X97714285Y-137638333D01*
X97809523Y-137590714D01*
X97952380Y-137590714D01*
X98047619Y-137638333D01*
X98523809Y-138257380D02*
X98523809Y-137590714D01*
X98523809Y-137257380D02*
X98476190Y-137305000D01*
X98523809Y-137352619D01*
X98571428Y-137305000D01*
X98523809Y-137257380D01*
X98523809Y-137352619D01*
X99142857Y-138257380D02*
X99047619Y-138209761D01*
X99000000Y-138162142D01*
X98952380Y-138066904D01*
X98952380Y-137781190D01*
X99000000Y-137685952D01*
X99047619Y-137638333D01*
X99142857Y-137590714D01*
X99285714Y-137590714D01*
X99380952Y-137638333D01*
X99428571Y-137685952D01*
X99476190Y-137781190D01*
X99476190Y-138066904D01*
X99428571Y-138162142D01*
X99380952Y-138209761D01*
X99285714Y-138257380D01*
X99142857Y-138257380D01*
X99904761Y-137590714D02*
X99904761Y-138257380D01*
X99904761Y-137685952D02*
X99952380Y-137638333D01*
X100047619Y-137590714D01*
X100190476Y-137590714D01*
X100285714Y-137638333D01*
X100333333Y-137733571D01*
X100333333Y-138257380D01*
X101761904Y-137257380D02*
X101857142Y-137257380D01*
X101952380Y-137305000D01*
X102000000Y-137352619D01*
X102047619Y-137447857D01*
X102095238Y-137638333D01*
X102095238Y-137876428D01*
X102047619Y-138066904D01*
X102000000Y-138162142D01*
X101952380Y-138209761D01*
X101857142Y-138257380D01*
X101761904Y-138257380D01*
X101666666Y-138209761D01*
X101619047Y-138162142D01*
X101571428Y-138066904D01*
X101523809Y-137876428D01*
X101523809Y-137638333D01*
X101571428Y-137447857D01*
X101619047Y-137352619D01*
X101666666Y-137305000D01*
X101761904Y-137257380D01*
X103047619Y-138257380D02*
X102476190Y-138257380D01*
X102761904Y-138257380D02*
X102761904Y-137257380D01*
X102666666Y-137400238D01*
X102571428Y-137495476D01*
X102476190Y-137543095D01*
%TO.C,R21*%
X99766380Y-158630857D02*
X99290190Y-158964190D01*
X99766380Y-159202285D02*
X98766380Y-159202285D01*
X98766380Y-158821333D01*
X98814000Y-158726095D01*
X98861619Y-158678476D01*
X98956857Y-158630857D01*
X99099714Y-158630857D01*
X99194952Y-158678476D01*
X99242571Y-158726095D01*
X99290190Y-158821333D01*
X99290190Y-159202285D01*
X98861619Y-158249904D02*
X98814000Y-158202285D01*
X98766380Y-158107047D01*
X98766380Y-157868952D01*
X98814000Y-157773714D01*
X98861619Y-157726095D01*
X98956857Y-157678476D01*
X99052095Y-157678476D01*
X99194952Y-157726095D01*
X99766380Y-158297523D01*
X99766380Y-157678476D01*
X99766380Y-156726095D02*
X99766380Y-157297523D01*
X99766380Y-157011809D02*
X98766380Y-157011809D01*
X98909238Y-157107047D01*
X99004476Y-157202285D01*
X99052095Y-157297523D01*
%TO.C,Q2*%
X92999619Y-117951238D02*
X92952000Y-118046476D01*
X92856761Y-118141714D01*
X92713904Y-118284571D01*
X92666285Y-118379809D01*
X92666285Y-118475047D01*
X92904380Y-118427428D02*
X92856761Y-118522666D01*
X92761523Y-118617904D01*
X92571047Y-118665523D01*
X92237714Y-118665523D01*
X92047238Y-118617904D01*
X91952000Y-118522666D01*
X91904380Y-118427428D01*
X91904380Y-118236952D01*
X91952000Y-118141714D01*
X92047238Y-118046476D01*
X92237714Y-117998857D01*
X92571047Y-117998857D01*
X92761523Y-118046476D01*
X92856761Y-118141714D01*
X92904380Y-118236952D01*
X92904380Y-118427428D01*
X91999619Y-117617904D02*
X91952000Y-117570285D01*
X91904380Y-117475047D01*
X91904380Y-117236952D01*
X91952000Y-117141714D01*
X91999619Y-117094095D01*
X92094857Y-117046476D01*
X92190095Y-117046476D01*
X92332952Y-117094095D01*
X92904380Y-117665523D01*
X92904380Y-117046476D01*
%TO.C,Q3*%
X115220761Y-120947619D02*
X115125523Y-120900000D01*
X115030285Y-120804761D01*
X114887428Y-120661904D01*
X114792190Y-120614285D01*
X114696952Y-120614285D01*
X114744571Y-120852380D02*
X114649333Y-120804761D01*
X114554095Y-120709523D01*
X114506476Y-120519047D01*
X114506476Y-120185714D01*
X114554095Y-119995238D01*
X114649333Y-119900000D01*
X114744571Y-119852380D01*
X114935047Y-119852380D01*
X115030285Y-119900000D01*
X115125523Y-119995238D01*
X115173142Y-120185714D01*
X115173142Y-120519047D01*
X115125523Y-120709523D01*
X115030285Y-120804761D01*
X114935047Y-120852380D01*
X114744571Y-120852380D01*
X115506476Y-119852380D02*
X116125523Y-119852380D01*
X115792190Y-120233333D01*
X115935047Y-120233333D01*
X116030285Y-120280952D01*
X116077904Y-120328571D01*
X116125523Y-120423809D01*
X116125523Y-120661904D01*
X116077904Y-120757142D01*
X116030285Y-120804761D01*
X115935047Y-120852380D01*
X115649333Y-120852380D01*
X115554095Y-120804761D01*
X115506476Y-120757142D01*
%TO.C,C5*%
X108505333Y-164949142D02*
X108457714Y-164996761D01*
X108314857Y-165044380D01*
X108219619Y-165044380D01*
X108076761Y-164996761D01*
X107981523Y-164901523D01*
X107933904Y-164806285D01*
X107886285Y-164615809D01*
X107886285Y-164472952D01*
X107933904Y-164282476D01*
X107981523Y-164187238D01*
X108076761Y-164092000D01*
X108219619Y-164044380D01*
X108314857Y-164044380D01*
X108457714Y-164092000D01*
X108505333Y-164139619D01*
X109410095Y-164044380D02*
X108933904Y-164044380D01*
X108886285Y-164520571D01*
X108933904Y-164472952D01*
X109029142Y-164425333D01*
X109267238Y-164425333D01*
X109362476Y-164472952D01*
X109410095Y-164520571D01*
X109457714Y-164615809D01*
X109457714Y-164853904D01*
X109410095Y-164949142D01*
X109362476Y-164996761D01*
X109267238Y-165044380D01*
X109029142Y-165044380D01*
X108933904Y-164996761D01*
X108886285Y-164949142D01*
%TO.C,R22*%
X102814380Y-158630857D02*
X102338190Y-158964190D01*
X102814380Y-159202285D02*
X101814380Y-159202285D01*
X101814380Y-158821333D01*
X101862000Y-158726095D01*
X101909619Y-158678476D01*
X102004857Y-158630857D01*
X102147714Y-158630857D01*
X102242952Y-158678476D01*
X102290571Y-158726095D01*
X102338190Y-158821333D01*
X102338190Y-159202285D01*
X101909619Y-158249904D02*
X101862000Y-158202285D01*
X101814380Y-158107047D01*
X101814380Y-157868952D01*
X101862000Y-157773714D01*
X101909619Y-157726095D01*
X102004857Y-157678476D01*
X102100095Y-157678476D01*
X102242952Y-157726095D01*
X102814380Y-158297523D01*
X102814380Y-157678476D01*
X101909619Y-157297523D02*
X101862000Y-157249904D01*
X101814380Y-157154666D01*
X101814380Y-156916571D01*
X101862000Y-156821333D01*
X101909619Y-156773714D01*
X102004857Y-156726095D01*
X102100095Y-156726095D01*
X102242952Y-156773714D01*
X102814380Y-157345142D01*
X102814380Y-156726095D01*
%TO.C,R11*%
X112895142Y-91384380D02*
X112561809Y-90908190D01*
X112323714Y-91384380D02*
X112323714Y-90384380D01*
X112704666Y-90384380D01*
X112799904Y-90432000D01*
X112847523Y-90479619D01*
X112895142Y-90574857D01*
X112895142Y-90717714D01*
X112847523Y-90812952D01*
X112799904Y-90860571D01*
X112704666Y-90908190D01*
X112323714Y-90908190D01*
X113847523Y-91384380D02*
X113276095Y-91384380D01*
X113561809Y-91384380D02*
X113561809Y-90384380D01*
X113466571Y-90527238D01*
X113371333Y-90622476D01*
X113276095Y-90670095D01*
X114799904Y-91384380D02*
X114228476Y-91384380D01*
X114514190Y-91384380D02*
X114514190Y-90384380D01*
X114418952Y-90527238D01*
X114323714Y-90622476D01*
X114228476Y-90670095D01*
%TO.C,R8*%
X97623333Y-107640380D02*
X97290000Y-107164190D01*
X97051904Y-107640380D02*
X97051904Y-106640380D01*
X97432857Y-106640380D01*
X97528095Y-106688000D01*
X97575714Y-106735619D01*
X97623333Y-106830857D01*
X97623333Y-106973714D01*
X97575714Y-107068952D01*
X97528095Y-107116571D01*
X97432857Y-107164190D01*
X97051904Y-107164190D01*
X98194761Y-107068952D02*
X98099523Y-107021333D01*
X98051904Y-106973714D01*
X98004285Y-106878476D01*
X98004285Y-106830857D01*
X98051904Y-106735619D01*
X98099523Y-106688000D01*
X98194761Y-106640380D01*
X98385238Y-106640380D01*
X98480476Y-106688000D01*
X98528095Y-106735619D01*
X98575714Y-106830857D01*
X98575714Y-106878476D01*
X98528095Y-106973714D01*
X98480476Y-107021333D01*
X98385238Y-107068952D01*
X98194761Y-107068952D01*
X98099523Y-107116571D01*
X98051904Y-107164190D01*
X98004285Y-107259428D01*
X98004285Y-107449904D01*
X98051904Y-107545142D01*
X98099523Y-107592761D01*
X98194761Y-107640380D01*
X98385238Y-107640380D01*
X98480476Y-107592761D01*
X98528095Y-107545142D01*
X98575714Y-107449904D01*
X98575714Y-107259428D01*
X98528095Y-107164190D01*
X98480476Y-107116571D01*
X98385238Y-107068952D01*
%TO.C,U2*%
X109228095Y-81548380D02*
X109228095Y-82357904D01*
X109275714Y-82453142D01*
X109323333Y-82500761D01*
X109418571Y-82548380D01*
X109609047Y-82548380D01*
X109704285Y-82500761D01*
X109751904Y-82453142D01*
X109799523Y-82357904D01*
X109799523Y-81548380D01*
X110228095Y-81643619D02*
X110275714Y-81596000D01*
X110370952Y-81548380D01*
X110609047Y-81548380D01*
X110704285Y-81596000D01*
X110751904Y-81643619D01*
X110799523Y-81738857D01*
X110799523Y-81834095D01*
X110751904Y-81976952D01*
X110180476Y-82548380D01*
X110799523Y-82548380D01*
%TO.C,J14*%
X80690476Y-127222380D02*
X80690476Y-127936666D01*
X80642857Y-128079523D01*
X80547619Y-128174761D01*
X80404761Y-128222380D01*
X80309523Y-128222380D01*
X81690476Y-128222380D02*
X81119047Y-128222380D01*
X81404761Y-128222380D02*
X81404761Y-127222380D01*
X81309523Y-127365238D01*
X81214285Y-127460476D01*
X81119047Y-127508095D01*
X82547619Y-127555714D02*
X82547619Y-128222380D01*
X82309523Y-127174761D02*
X82071428Y-127889047D01*
X82690476Y-127889047D01*
%TO.C,R6*%
X97623333Y-94432380D02*
X97290000Y-93956190D01*
X97051904Y-94432380D02*
X97051904Y-93432380D01*
X97432857Y-93432380D01*
X97528095Y-93480000D01*
X97575714Y-93527619D01*
X97623333Y-93622857D01*
X97623333Y-93765714D01*
X97575714Y-93860952D01*
X97528095Y-93908571D01*
X97432857Y-93956190D01*
X97051904Y-93956190D01*
X98480476Y-93432380D02*
X98290000Y-93432380D01*
X98194761Y-93480000D01*
X98147142Y-93527619D01*
X98051904Y-93670476D01*
X98004285Y-93860952D01*
X98004285Y-94241904D01*
X98051904Y-94337142D01*
X98099523Y-94384761D01*
X98194761Y-94432380D01*
X98385238Y-94432380D01*
X98480476Y-94384761D01*
X98528095Y-94337142D01*
X98575714Y-94241904D01*
X98575714Y-94003809D01*
X98528095Y-93908571D01*
X98480476Y-93860952D01*
X98385238Y-93813333D01*
X98194761Y-93813333D01*
X98099523Y-93860952D01*
X98051904Y-93908571D01*
X98004285Y-94003809D01*
%TO.C,C3*%
X119467333Y-111355142D02*
X119419714Y-111402761D01*
X119276857Y-111450380D01*
X119181619Y-111450380D01*
X119038761Y-111402761D01*
X118943523Y-111307523D01*
X118895904Y-111212285D01*
X118848285Y-111021809D01*
X118848285Y-110878952D01*
X118895904Y-110688476D01*
X118943523Y-110593238D01*
X119038761Y-110498000D01*
X119181619Y-110450380D01*
X119276857Y-110450380D01*
X119419714Y-110498000D01*
X119467333Y-110545619D01*
X119800666Y-110450380D02*
X120419714Y-110450380D01*
X120086380Y-110831333D01*
X120229238Y-110831333D01*
X120324476Y-110878952D01*
X120372095Y-110926571D01*
X120419714Y-111021809D01*
X120419714Y-111259904D01*
X120372095Y-111355142D01*
X120324476Y-111402761D01*
X120229238Y-111450380D01*
X119943523Y-111450380D01*
X119848285Y-111402761D01*
X119800666Y-111355142D01*
%TO.C,R19*%
X116197142Y-126436380D02*
X115863809Y-125960190D01*
X115625714Y-126436380D02*
X115625714Y-125436380D01*
X116006666Y-125436380D01*
X116101904Y-125484000D01*
X116149523Y-125531619D01*
X116197142Y-125626857D01*
X116197142Y-125769714D01*
X116149523Y-125864952D01*
X116101904Y-125912571D01*
X116006666Y-125960190D01*
X115625714Y-125960190D01*
X117149523Y-126436380D02*
X116578095Y-126436380D01*
X116863809Y-126436380D02*
X116863809Y-125436380D01*
X116768571Y-125579238D01*
X116673333Y-125674476D01*
X116578095Y-125722095D01*
X117625714Y-126436380D02*
X117816190Y-126436380D01*
X117911428Y-126388761D01*
X117959047Y-126341142D01*
X118054285Y-126198285D01*
X118101904Y-126007809D01*
X118101904Y-125626857D01*
X118054285Y-125531619D01*
X118006666Y-125484000D01*
X117911428Y-125436380D01*
X117720952Y-125436380D01*
X117625714Y-125484000D01*
X117578095Y-125531619D01*
X117530476Y-125626857D01*
X117530476Y-125864952D01*
X117578095Y-125960190D01*
X117625714Y-126007809D01*
X117720952Y-126055428D01*
X117911428Y-126055428D01*
X118006666Y-126007809D01*
X118054285Y-125960190D01*
X118101904Y-125864952D01*
%TO.C,D4*%
X122118380Y-150818095D02*
X121118380Y-150818095D01*
X121118380Y-150580000D01*
X121166000Y-150437142D01*
X121261238Y-150341904D01*
X121356476Y-150294285D01*
X121546952Y-150246666D01*
X121689809Y-150246666D01*
X121880285Y-150294285D01*
X121975523Y-150341904D01*
X122070761Y-150437142D01*
X122118380Y-150580000D01*
X122118380Y-150818095D01*
X121451714Y-149389523D02*
X122118380Y-149389523D01*
X121070761Y-149627619D02*
X121785047Y-149865714D01*
X121785047Y-149246666D01*
%TO.C,R4*%
X97623333Y-104592380D02*
X97290000Y-104116190D01*
X97051904Y-104592380D02*
X97051904Y-103592380D01*
X97432857Y-103592380D01*
X97528095Y-103640000D01*
X97575714Y-103687619D01*
X97623333Y-103782857D01*
X97623333Y-103925714D01*
X97575714Y-104020952D01*
X97528095Y-104068571D01*
X97432857Y-104116190D01*
X97051904Y-104116190D01*
X98480476Y-103925714D02*
X98480476Y-104592380D01*
X98242380Y-103544761D02*
X98004285Y-104259047D01*
X98623333Y-104259047D01*
%TO.C,R10*%
X90368380Y-109100857D02*
X89892190Y-109434190D01*
X90368380Y-109672285D02*
X89368380Y-109672285D01*
X89368380Y-109291333D01*
X89416000Y-109196095D01*
X89463619Y-109148476D01*
X89558857Y-109100857D01*
X89701714Y-109100857D01*
X89796952Y-109148476D01*
X89844571Y-109196095D01*
X89892190Y-109291333D01*
X89892190Y-109672285D01*
X90368380Y-108148476D02*
X90368380Y-108719904D01*
X90368380Y-108434190D02*
X89368380Y-108434190D01*
X89511238Y-108529428D01*
X89606476Y-108624666D01*
X89654095Y-108719904D01*
X89368380Y-107529428D02*
X89368380Y-107434190D01*
X89416000Y-107338952D01*
X89463619Y-107291333D01*
X89558857Y-107243714D01*
X89749333Y-107196095D01*
X89987428Y-107196095D01*
X90177904Y-107243714D01*
X90273142Y-107291333D01*
X90320761Y-107338952D01*
X90368380Y-107434190D01*
X90368380Y-107529428D01*
X90320761Y-107624666D01*
X90273142Y-107672285D01*
X90177904Y-107719904D01*
X89987428Y-107767523D01*
X89749333Y-107767523D01*
X89558857Y-107719904D01*
X89463619Y-107672285D01*
X89416000Y-107624666D01*
X89368380Y-107529428D01*
%TO.C,R1*%
X97623333Y-97480380D02*
X97290000Y-97004190D01*
X97051904Y-97480380D02*
X97051904Y-96480380D01*
X97432857Y-96480380D01*
X97528095Y-96528000D01*
X97575714Y-96575619D01*
X97623333Y-96670857D01*
X97623333Y-96813714D01*
X97575714Y-96908952D01*
X97528095Y-96956571D01*
X97432857Y-97004190D01*
X97051904Y-97004190D01*
X98575714Y-97480380D02*
X98004285Y-97480380D01*
X98290000Y-97480380D02*
X98290000Y-96480380D01*
X98194761Y-96623238D01*
X98099523Y-96718476D01*
X98004285Y-96766095D01*
%TO.C,R14*%
X121531142Y-104592380D02*
X121197809Y-104116190D01*
X120959714Y-104592380D02*
X120959714Y-103592380D01*
X121340666Y-103592380D01*
X121435904Y-103640000D01*
X121483523Y-103687619D01*
X121531142Y-103782857D01*
X121531142Y-103925714D01*
X121483523Y-104020952D01*
X121435904Y-104068571D01*
X121340666Y-104116190D01*
X120959714Y-104116190D01*
X122483523Y-104592380D02*
X121912095Y-104592380D01*
X122197809Y-104592380D02*
X122197809Y-103592380D01*
X122102571Y-103735238D01*
X122007333Y-103830476D01*
X121912095Y-103878095D01*
X123340666Y-103925714D02*
X123340666Y-104592380D01*
X123102571Y-103544761D02*
X122864476Y-104259047D01*
X123483523Y-104259047D01*
%TO.C,D3*%
X122118380Y-163806095D02*
X121118380Y-163806095D01*
X121118380Y-163568000D01*
X121166000Y-163425142D01*
X121261238Y-163329904D01*
X121356476Y-163282285D01*
X121546952Y-163234666D01*
X121689809Y-163234666D01*
X121880285Y-163282285D01*
X121975523Y-163329904D01*
X122070761Y-163425142D01*
X122118380Y-163568000D01*
X122118380Y-163806095D01*
X121118380Y-162901333D02*
X121118380Y-162282285D01*
X121499333Y-162615619D01*
X121499333Y-162472761D01*
X121546952Y-162377523D01*
X121594571Y-162329904D01*
X121689809Y-162282285D01*
X121927904Y-162282285D01*
X122023142Y-162329904D01*
X122070761Y-162377523D01*
X122118380Y-162472761D01*
X122118380Y-162758476D01*
X122070761Y-162853714D01*
X122023142Y-162901333D01*
%TO.C,R18*%
X121531142Y-107640380D02*
X121197809Y-107164190D01*
X120959714Y-107640380D02*
X120959714Y-106640380D01*
X121340666Y-106640380D01*
X121435904Y-106688000D01*
X121483523Y-106735619D01*
X121531142Y-106830857D01*
X121531142Y-106973714D01*
X121483523Y-107068952D01*
X121435904Y-107116571D01*
X121340666Y-107164190D01*
X120959714Y-107164190D01*
X122483523Y-107640380D02*
X121912095Y-107640380D01*
X122197809Y-107640380D02*
X122197809Y-106640380D01*
X122102571Y-106783238D01*
X122007333Y-106878476D01*
X121912095Y-106926095D01*
X123054952Y-107068952D02*
X122959714Y-107021333D01*
X122912095Y-106973714D01*
X122864476Y-106878476D01*
X122864476Y-106830857D01*
X122912095Y-106735619D01*
X122959714Y-106688000D01*
X123054952Y-106640380D01*
X123245428Y-106640380D01*
X123340666Y-106688000D01*
X123388285Y-106735619D01*
X123435904Y-106830857D01*
X123435904Y-106878476D01*
X123388285Y-106973714D01*
X123340666Y-107021333D01*
X123245428Y-107068952D01*
X123054952Y-107068952D01*
X122959714Y-107116571D01*
X122912095Y-107164190D01*
X122864476Y-107259428D01*
X122864476Y-107449904D01*
X122912095Y-107545142D01*
X122959714Y-107592761D01*
X123054952Y-107640380D01*
X123245428Y-107640380D01*
X123340666Y-107592761D01*
X123388285Y-107545142D01*
X123435904Y-107449904D01*
X123435904Y-107259428D01*
X123388285Y-107164190D01*
X123340666Y-107116571D01*
X123245428Y-107068952D01*
%TO.C,D1*%
X98452380Y-41738095D02*
X97452380Y-41738095D01*
X97452380Y-41500000D01*
X97500000Y-41357142D01*
X97595238Y-41261904D01*
X97690476Y-41214285D01*
X97880952Y-41166666D01*
X98023809Y-41166666D01*
X98214285Y-41214285D01*
X98309523Y-41261904D01*
X98404761Y-41357142D01*
X98452380Y-41500000D01*
X98452380Y-41738095D01*
X98452380Y-40214285D02*
X98452380Y-40785714D01*
X98452380Y-40500000D02*
X97452380Y-40500000D01*
X97595238Y-40595238D01*
X97690476Y-40690476D01*
X97738095Y-40785714D01*
%TO.C,R15*%
X121531142Y-70556380D02*
X121197809Y-70080190D01*
X120959714Y-70556380D02*
X120959714Y-69556380D01*
X121340666Y-69556380D01*
X121435904Y-69604000D01*
X121483523Y-69651619D01*
X121531142Y-69746857D01*
X121531142Y-69889714D01*
X121483523Y-69984952D01*
X121435904Y-70032571D01*
X121340666Y-70080190D01*
X120959714Y-70080190D01*
X122483523Y-70556380D02*
X121912095Y-70556380D01*
X122197809Y-70556380D02*
X122197809Y-69556380D01*
X122102571Y-69699238D01*
X122007333Y-69794476D01*
X121912095Y-69842095D01*
X123388285Y-69556380D02*
X122912095Y-69556380D01*
X122864476Y-70032571D01*
X122912095Y-69984952D01*
X123007333Y-69937333D01*
X123245428Y-69937333D01*
X123340666Y-69984952D01*
X123388285Y-70032571D01*
X123435904Y-70127809D01*
X123435904Y-70365904D01*
X123388285Y-70461142D01*
X123340666Y-70508761D01*
X123245428Y-70556380D01*
X123007333Y-70556380D01*
X122912095Y-70508761D01*
X122864476Y-70461142D01*
%TO.C,R2*%
X97623333Y-73604380D02*
X97290000Y-73128190D01*
X97051904Y-73604380D02*
X97051904Y-72604380D01*
X97432857Y-72604380D01*
X97528095Y-72652000D01*
X97575714Y-72699619D01*
X97623333Y-72794857D01*
X97623333Y-72937714D01*
X97575714Y-73032952D01*
X97528095Y-73080571D01*
X97432857Y-73128190D01*
X97051904Y-73128190D01*
X98004285Y-72699619D02*
X98051904Y-72652000D01*
X98147142Y-72604380D01*
X98385238Y-72604380D01*
X98480476Y-72652000D01*
X98528095Y-72699619D01*
X98575714Y-72794857D01*
X98575714Y-72890095D01*
X98528095Y-73032952D01*
X97956666Y-73604380D01*
X98575714Y-73604380D01*
%TO.C,C10*%
X118857142Y-100941142D02*
X118809523Y-100988761D01*
X118666666Y-101036380D01*
X118571428Y-101036380D01*
X118428571Y-100988761D01*
X118333333Y-100893523D01*
X118285714Y-100798285D01*
X118238095Y-100607809D01*
X118238095Y-100464952D01*
X118285714Y-100274476D01*
X118333333Y-100179238D01*
X118428571Y-100084000D01*
X118571428Y-100036380D01*
X118666666Y-100036380D01*
X118809523Y-100084000D01*
X118857142Y-100131619D01*
X119809523Y-101036380D02*
X119238095Y-101036380D01*
X119523809Y-101036380D02*
X119523809Y-100036380D01*
X119428571Y-100179238D01*
X119333333Y-100274476D01*
X119238095Y-100322095D01*
X120428571Y-100036380D02*
X120523809Y-100036380D01*
X120619047Y-100084000D01*
X120666666Y-100131619D01*
X120714285Y-100226857D01*
X120761904Y-100417333D01*
X120761904Y-100655428D01*
X120714285Y-100845904D01*
X120666666Y-100941142D01*
X120619047Y-100988761D01*
X120523809Y-101036380D01*
X120428571Y-101036380D01*
X120333333Y-100988761D01*
X120285714Y-100941142D01*
X120238095Y-100845904D01*
X120190476Y-100655428D01*
X120190476Y-100417333D01*
X120238095Y-100226857D01*
X120285714Y-100131619D01*
X120333333Y-100084000D01*
X120428571Y-100036380D01*
%TO.C,C12*%
X113927142Y-43343142D02*
X113879523Y-43390761D01*
X113736666Y-43438380D01*
X113641428Y-43438380D01*
X113498571Y-43390761D01*
X113403333Y-43295523D01*
X113355714Y-43200285D01*
X113308095Y-43009809D01*
X113308095Y-42866952D01*
X113355714Y-42676476D01*
X113403333Y-42581238D01*
X113498571Y-42486000D01*
X113641428Y-42438380D01*
X113736666Y-42438380D01*
X113879523Y-42486000D01*
X113927142Y-42533619D01*
X114879523Y-43438380D02*
X114308095Y-43438380D01*
X114593809Y-43438380D02*
X114593809Y-42438380D01*
X114498571Y-42581238D01*
X114403333Y-42676476D01*
X114308095Y-42724095D01*
X115260476Y-42533619D02*
X115308095Y-42486000D01*
X115403333Y-42438380D01*
X115641428Y-42438380D01*
X115736666Y-42486000D01*
X115784285Y-42533619D01*
X115831904Y-42628857D01*
X115831904Y-42724095D01*
X115784285Y-42866952D01*
X115212857Y-43438380D01*
X115831904Y-43438380D01*
%TO.C,U3*%
X109220095Y-158434380D02*
X109220095Y-159243904D01*
X109267714Y-159339142D01*
X109315333Y-159386761D01*
X109410571Y-159434380D01*
X109601047Y-159434380D01*
X109696285Y-159386761D01*
X109743904Y-159339142D01*
X109791523Y-159243904D01*
X109791523Y-158434380D01*
X110172476Y-158434380D02*
X110791523Y-158434380D01*
X110458190Y-158815333D01*
X110601047Y-158815333D01*
X110696285Y-158862952D01*
X110743904Y-158910571D01*
X110791523Y-159005809D01*
X110791523Y-159243904D01*
X110743904Y-159339142D01*
X110696285Y-159386761D01*
X110601047Y-159434380D01*
X110315333Y-159434380D01*
X110220095Y-159386761D01*
X110172476Y-159339142D01*
%TO.C,R5*%
X97623333Y-70556380D02*
X97290000Y-70080190D01*
X97051904Y-70556380D02*
X97051904Y-69556380D01*
X97432857Y-69556380D01*
X97528095Y-69604000D01*
X97575714Y-69651619D01*
X97623333Y-69746857D01*
X97623333Y-69889714D01*
X97575714Y-69984952D01*
X97528095Y-70032571D01*
X97432857Y-70080190D01*
X97051904Y-70080190D01*
X98528095Y-69556380D02*
X98051904Y-69556380D01*
X98004285Y-70032571D01*
X98051904Y-69984952D01*
X98147142Y-69937333D01*
X98385238Y-69937333D01*
X98480476Y-69984952D01*
X98528095Y-70032571D01*
X98575714Y-70127809D01*
X98575714Y-70365904D01*
X98528095Y-70461142D01*
X98480476Y-70508761D01*
X98385238Y-70556380D01*
X98147142Y-70556380D01*
X98051904Y-70508761D01*
X98004285Y-70461142D01*
%TO.C,J22*%
X53682380Y-177809523D02*
X54396666Y-177809523D01*
X54539523Y-177857142D01*
X54634761Y-177952380D01*
X54682380Y-178095238D01*
X54682380Y-178190476D01*
X53777619Y-177380952D02*
X53730000Y-177333333D01*
X53682380Y-177238095D01*
X53682380Y-177000000D01*
X53730000Y-176904761D01*
X53777619Y-176857142D01*
X53872857Y-176809523D01*
X53968095Y-176809523D01*
X54110952Y-176857142D01*
X54682380Y-177428571D01*
X54682380Y-176809523D01*
X53777619Y-176428571D02*
X53730000Y-176380952D01*
X53682380Y-176285714D01*
X53682380Y-176047619D01*
X53730000Y-175952380D01*
X53777619Y-175904761D01*
X53872857Y-175857142D01*
X53968095Y-175857142D01*
X54110952Y-175904761D01*
X54682380Y-176476190D01*
X54682380Y-175857142D01*
%TO.C,R12*%
X121531142Y-73604380D02*
X121197809Y-73128190D01*
X120959714Y-73604380D02*
X120959714Y-72604380D01*
X121340666Y-72604380D01*
X121435904Y-72652000D01*
X121483523Y-72699619D01*
X121531142Y-72794857D01*
X121531142Y-72937714D01*
X121483523Y-73032952D01*
X121435904Y-73080571D01*
X121340666Y-73128190D01*
X120959714Y-73128190D01*
X122483523Y-73604380D02*
X121912095Y-73604380D01*
X122197809Y-73604380D02*
X122197809Y-72604380D01*
X122102571Y-72747238D01*
X122007333Y-72842476D01*
X121912095Y-72890095D01*
X122864476Y-72699619D02*
X122912095Y-72652000D01*
X123007333Y-72604380D01*
X123245428Y-72604380D01*
X123340666Y-72652000D01*
X123388285Y-72699619D01*
X123435904Y-72794857D01*
X123435904Y-72890095D01*
X123388285Y-73032952D01*
X122816857Y-73604380D01*
X123435904Y-73604380D01*
%TO.C,C9*%
X100203333Y-100941142D02*
X100155714Y-100988761D01*
X100012857Y-101036380D01*
X99917619Y-101036380D01*
X99774761Y-100988761D01*
X99679523Y-100893523D01*
X99631904Y-100798285D01*
X99584285Y-100607809D01*
X99584285Y-100464952D01*
X99631904Y-100274476D01*
X99679523Y-100179238D01*
X99774761Y-100084000D01*
X99917619Y-100036380D01*
X100012857Y-100036380D01*
X100155714Y-100084000D01*
X100203333Y-100131619D01*
X100679523Y-101036380D02*
X100870000Y-101036380D01*
X100965238Y-100988761D01*
X101012857Y-100941142D01*
X101108095Y-100798285D01*
X101155714Y-100607809D01*
X101155714Y-100226857D01*
X101108095Y-100131619D01*
X101060476Y-100084000D01*
X100965238Y-100036380D01*
X100774761Y-100036380D01*
X100679523Y-100084000D01*
X100631904Y-100131619D01*
X100584285Y-100226857D01*
X100584285Y-100464952D01*
X100631904Y-100560190D01*
X100679523Y-100607809D01*
X100774761Y-100655428D01*
X100965238Y-100655428D01*
X101060476Y-100607809D01*
X101108095Y-100560190D01*
X101155714Y-100464952D01*
%TO.C,C8*%
X119333333Y-66357142D02*
X119285714Y-66404761D01*
X119142857Y-66452380D01*
X119047619Y-66452380D01*
X118904761Y-66404761D01*
X118809523Y-66309523D01*
X118761904Y-66214285D01*
X118714285Y-66023809D01*
X118714285Y-65880952D01*
X118761904Y-65690476D01*
X118809523Y-65595238D01*
X118904761Y-65500000D01*
X119047619Y-65452380D01*
X119142857Y-65452380D01*
X119285714Y-65500000D01*
X119333333Y-65547619D01*
X119904761Y-65880952D02*
X119809523Y-65833333D01*
X119761904Y-65785714D01*
X119714285Y-65690476D01*
X119714285Y-65642857D01*
X119761904Y-65547619D01*
X119809523Y-65500000D01*
X119904761Y-65452380D01*
X120095238Y-65452380D01*
X120190476Y-65500000D01*
X120238095Y-65547619D01*
X120285714Y-65642857D01*
X120285714Y-65690476D01*
X120238095Y-65785714D01*
X120190476Y-65833333D01*
X120095238Y-65880952D01*
X119904761Y-65880952D01*
X119809523Y-65928571D01*
X119761904Y-65976190D01*
X119714285Y-66071428D01*
X119714285Y-66261904D01*
X119761904Y-66357142D01*
X119809523Y-66404761D01*
X119904761Y-66452380D01*
X120095238Y-66452380D01*
X120190476Y-66404761D01*
X120238095Y-66357142D01*
X120285714Y-66261904D01*
X120285714Y-66071428D01*
X120238095Y-65976190D01*
X120190476Y-65928571D01*
X120095238Y-65880952D01*
%TO.C,J12*%
X80690476Y-61222380D02*
X80690476Y-61936666D01*
X80642857Y-62079523D01*
X80547619Y-62174761D01*
X80404761Y-62222380D01*
X80309523Y-62222380D01*
X81690476Y-62222380D02*
X81119047Y-62222380D01*
X81404761Y-62222380D02*
X81404761Y-61222380D01*
X81309523Y-61365238D01*
X81214285Y-61460476D01*
X81119047Y-61508095D01*
X82071428Y-61317619D02*
X82119047Y-61270000D01*
X82214285Y-61222380D01*
X82452380Y-61222380D01*
X82547619Y-61270000D01*
X82595238Y-61317619D01*
X82642857Y-61412857D01*
X82642857Y-61508095D01*
X82595238Y-61650952D01*
X82023809Y-62222380D01*
X82642857Y-62222380D01*
%TO.C,R7*%
X97623333Y-79700380D02*
X97290000Y-79224190D01*
X97051904Y-79700380D02*
X97051904Y-78700380D01*
X97432857Y-78700380D01*
X97528095Y-78748000D01*
X97575714Y-78795619D01*
X97623333Y-78890857D01*
X97623333Y-79033714D01*
X97575714Y-79128952D01*
X97528095Y-79176571D01*
X97432857Y-79224190D01*
X97051904Y-79224190D01*
X97956666Y-78700380D02*
X98623333Y-78700380D01*
X98194761Y-79700380D01*
%TO.C,J17*%
X102195380Y-37405523D02*
X102909666Y-37405523D01*
X103052523Y-37453142D01*
X103147761Y-37548380D01*
X103195380Y-37691238D01*
X103195380Y-37786476D01*
X103195380Y-36405523D02*
X103195380Y-36976952D01*
X103195380Y-36691238D02*
X102195380Y-36691238D01*
X102338238Y-36786476D01*
X102433476Y-36881714D01*
X102481095Y-36976952D01*
X102195380Y-36072190D02*
X102195380Y-35405523D01*
X103195380Y-35834095D01*
X104203619Y-31857380D02*
X104536952Y-32857380D01*
X104870285Y-31857380D01*
X105203619Y-32476428D02*
X105965523Y-32476428D01*
X105584571Y-32857380D02*
X105584571Y-32095476D01*
X111823619Y-31984380D02*
X112156952Y-32984380D01*
X112490285Y-31984380D01*
X112823619Y-32603428D02*
X113585523Y-32603428D01*
%TO.C,R17*%
X121531142Y-79700380D02*
X121197809Y-79224190D01*
X120959714Y-79700380D02*
X120959714Y-78700380D01*
X121340666Y-78700380D01*
X121435904Y-78748000D01*
X121483523Y-78795619D01*
X121531142Y-78890857D01*
X121531142Y-79033714D01*
X121483523Y-79128952D01*
X121435904Y-79176571D01*
X121340666Y-79224190D01*
X120959714Y-79224190D01*
X122483523Y-79700380D02*
X121912095Y-79700380D01*
X122197809Y-79700380D02*
X122197809Y-78700380D01*
X122102571Y-78843238D01*
X122007333Y-78938476D01*
X121912095Y-78986095D01*
X122816857Y-78700380D02*
X123483523Y-78700380D01*
X123054952Y-79700380D01*
%TO.C,Q4*%
X120431619Y-117189238D02*
X120384000Y-117284476D01*
X120288761Y-117379714D01*
X120145904Y-117522571D01*
X120098285Y-117617809D01*
X120098285Y-117713047D01*
X120336380Y-117665428D02*
X120288761Y-117760666D01*
X120193523Y-117855904D01*
X120003047Y-117903523D01*
X119669714Y-117903523D01*
X119479238Y-117855904D01*
X119384000Y-117760666D01*
X119336380Y-117665428D01*
X119336380Y-117474952D01*
X119384000Y-117379714D01*
X119479238Y-117284476D01*
X119669714Y-117236857D01*
X120003047Y-117236857D01*
X120193523Y-117284476D01*
X120288761Y-117379714D01*
X120336380Y-117474952D01*
X120336380Y-117665428D01*
X119669714Y-116379714D02*
X120336380Y-116379714D01*
X119288761Y-116617809D02*
X120003047Y-116855904D01*
X120003047Y-116236857D01*
%TO.C,R23*%
X118308380Y-163456857D02*
X117832190Y-163790190D01*
X118308380Y-164028285D02*
X117308380Y-164028285D01*
X117308380Y-163647333D01*
X117356000Y-163552095D01*
X117403619Y-163504476D01*
X117498857Y-163456857D01*
X117641714Y-163456857D01*
X117736952Y-163504476D01*
X117784571Y-163552095D01*
X117832190Y-163647333D01*
X117832190Y-164028285D01*
X117403619Y-163075904D02*
X117356000Y-163028285D01*
X117308380Y-162933047D01*
X117308380Y-162694952D01*
X117356000Y-162599714D01*
X117403619Y-162552095D01*
X117498857Y-162504476D01*
X117594095Y-162504476D01*
X117736952Y-162552095D01*
X118308380Y-163123523D01*
X118308380Y-162504476D01*
X117308380Y-162171142D02*
X117308380Y-161552095D01*
X117689333Y-161885428D01*
X117689333Y-161742571D01*
X117736952Y-161647333D01*
X117784571Y-161599714D01*
X117879809Y-161552095D01*
X118117904Y-161552095D01*
X118213142Y-161599714D01*
X118260761Y-161647333D01*
X118308380Y-161742571D01*
X118308380Y-162028285D01*
X118260761Y-162123523D01*
X118213142Y-162171142D01*
%TO.C,R13*%
X121531142Y-76652380D02*
X121197809Y-76176190D01*
X120959714Y-76652380D02*
X120959714Y-75652380D01*
X121340666Y-75652380D01*
X121435904Y-75700000D01*
X121483523Y-75747619D01*
X121531142Y-75842857D01*
X121531142Y-75985714D01*
X121483523Y-76080952D01*
X121435904Y-76128571D01*
X121340666Y-76176190D01*
X120959714Y-76176190D01*
X122483523Y-76652380D02*
X121912095Y-76652380D01*
X122197809Y-76652380D02*
X122197809Y-75652380D01*
X122102571Y-75795238D01*
X122007333Y-75890476D01*
X121912095Y-75938095D01*
X122816857Y-75652380D02*
X123435904Y-75652380D01*
X123102571Y-76033333D01*
X123245428Y-76033333D01*
X123340666Y-76080952D01*
X123388285Y-76128571D01*
X123435904Y-76223809D01*
X123435904Y-76461904D01*
X123388285Y-76557142D01*
X123340666Y-76604761D01*
X123245428Y-76652380D01*
X122959714Y-76652380D01*
X122864476Y-76604761D01*
X122816857Y-76557142D01*
%TO.C,C7*%
X100333333Y-66357142D02*
X100285714Y-66404761D01*
X100142857Y-66452380D01*
X100047619Y-66452380D01*
X99904761Y-66404761D01*
X99809523Y-66309523D01*
X99761904Y-66214285D01*
X99714285Y-66023809D01*
X99714285Y-65880952D01*
X99761904Y-65690476D01*
X99809523Y-65595238D01*
X99904761Y-65500000D01*
X100047619Y-65452380D01*
X100142857Y-65452380D01*
X100285714Y-65500000D01*
X100333333Y-65547619D01*
X100666666Y-65452380D02*
X101333333Y-65452380D01*
X100904761Y-66452380D01*
%TO.C,R20*%
X130500380Y-109100857D02*
X130024190Y-109434190D01*
X130500380Y-109672285D02*
X129500380Y-109672285D01*
X129500380Y-109291333D01*
X129548000Y-109196095D01*
X129595619Y-109148476D01*
X129690857Y-109100857D01*
X129833714Y-109100857D01*
X129928952Y-109148476D01*
X129976571Y-109196095D01*
X130024190Y-109291333D01*
X130024190Y-109672285D01*
X129595619Y-108719904D02*
X129548000Y-108672285D01*
X129500380Y-108577047D01*
X129500380Y-108338952D01*
X129548000Y-108243714D01*
X129595619Y-108196095D01*
X129690857Y-108148476D01*
X129786095Y-108148476D01*
X129928952Y-108196095D01*
X130500380Y-108767523D01*
X130500380Y-108148476D01*
X129500380Y-107529428D02*
X129500380Y-107434190D01*
X129548000Y-107338952D01*
X129595619Y-107291333D01*
X129690857Y-107243714D01*
X129881333Y-107196095D01*
X130119428Y-107196095D01*
X130309904Y-107243714D01*
X130405142Y-107291333D01*
X130452761Y-107338952D01*
X130500380Y-107434190D01*
X130500380Y-107529428D01*
X130452761Y-107624666D01*
X130405142Y-107672285D01*
X130309904Y-107719904D01*
X130119428Y-107767523D01*
X129881333Y-107767523D01*
X129690857Y-107719904D01*
X129595619Y-107672285D01*
X129548000Y-107624666D01*
X129500380Y-107529428D01*
%TO.C,C2*%
X100203333Y-86971142D02*
X100155714Y-87018761D01*
X100012857Y-87066380D01*
X99917619Y-87066380D01*
X99774761Y-87018761D01*
X99679523Y-86923523D01*
X99631904Y-86828285D01*
X99584285Y-86637809D01*
X99584285Y-86494952D01*
X99631904Y-86304476D01*
X99679523Y-86209238D01*
X99774761Y-86114000D01*
X99917619Y-86066380D01*
X100012857Y-86066380D01*
X100155714Y-86114000D01*
X100203333Y-86161619D01*
X100584285Y-86161619D02*
X100631904Y-86114000D01*
X100727142Y-86066380D01*
X100965238Y-86066380D01*
X101060476Y-86114000D01*
X101108095Y-86161619D01*
X101155714Y-86256857D01*
X101155714Y-86352095D01*
X101108095Y-86494952D01*
X100536666Y-87066380D01*
X101155714Y-87066380D01*
%TO.C,R26*%
X118308380Y-151010857D02*
X117832190Y-151344190D01*
X118308380Y-151582285D02*
X117308380Y-151582285D01*
X117308380Y-151201333D01*
X117356000Y-151106095D01*
X117403619Y-151058476D01*
X117498857Y-151010857D01*
X117641714Y-151010857D01*
X117736952Y-151058476D01*
X117784571Y-151106095D01*
X117832190Y-151201333D01*
X117832190Y-151582285D01*
X117403619Y-150629904D02*
X117356000Y-150582285D01*
X117308380Y-150487047D01*
X117308380Y-150248952D01*
X117356000Y-150153714D01*
X117403619Y-150106095D01*
X117498857Y-150058476D01*
X117594095Y-150058476D01*
X117736952Y-150106095D01*
X118308380Y-150677523D01*
X118308380Y-150058476D01*
X117308380Y-149201333D02*
X117308380Y-149391809D01*
X117356000Y-149487047D01*
X117403619Y-149534666D01*
X117546476Y-149629904D01*
X117736952Y-149677523D01*
X118117904Y-149677523D01*
X118213142Y-149629904D01*
X118260761Y-149582285D01*
X118308380Y-149487047D01*
X118308380Y-149296571D01*
X118260761Y-149201333D01*
X118213142Y-149153714D01*
X118117904Y-149106095D01*
X117879809Y-149106095D01*
X117784571Y-149153714D01*
X117736952Y-149201333D01*
X117689333Y-149296571D01*
X117689333Y-149487047D01*
X117736952Y-149582285D01*
X117784571Y-149629904D01*
X117879809Y-149677523D01*
%TO.C,J4*%
X38166666Y-61222380D02*
X38166666Y-61936666D01*
X38119047Y-62079523D01*
X38023809Y-62174761D01*
X37880952Y-62222380D01*
X37785714Y-62222380D01*
X39071428Y-61555714D02*
X39071428Y-62222380D01*
X38833333Y-61174761D02*
X38595238Y-61889047D01*
X39214285Y-61889047D01*
%TO.C,C6*%
X114149142Y-147780666D02*
X114196761Y-147828285D01*
X114244380Y-147971142D01*
X114244380Y-148066380D01*
X114196761Y-148209238D01*
X114101523Y-148304476D01*
X114006285Y-148352095D01*
X113815809Y-148399714D01*
X113672952Y-148399714D01*
X113482476Y-148352095D01*
X113387238Y-148304476D01*
X113292000Y-148209238D01*
X113244380Y-148066380D01*
X113244380Y-147971142D01*
X113292000Y-147828285D01*
X113339619Y-147780666D01*
X113244380Y-146923523D02*
X113244380Y-147114000D01*
X113292000Y-147209238D01*
X113339619Y-147256857D01*
X113482476Y-147352095D01*
X113672952Y-147399714D01*
X114053904Y-147399714D01*
X114149142Y-147352095D01*
X114196761Y-147304476D01*
X114244380Y-147209238D01*
X114244380Y-147018761D01*
X114196761Y-146923523D01*
X114149142Y-146875904D01*
X114053904Y-146828285D01*
X113815809Y-146828285D01*
X113720571Y-146875904D01*
X113672952Y-146923523D01*
X113625333Y-147018761D01*
X113625333Y-147209238D01*
X113672952Y-147304476D01*
X113720571Y-147352095D01*
X113815809Y-147399714D01*
%TO.C,R3*%
X97623333Y-76652380D02*
X97290000Y-76176190D01*
X97051904Y-76652380D02*
X97051904Y-75652380D01*
X97432857Y-75652380D01*
X97528095Y-75700000D01*
X97575714Y-75747619D01*
X97623333Y-75842857D01*
X97623333Y-75985714D01*
X97575714Y-76080952D01*
X97528095Y-76128571D01*
X97432857Y-76176190D01*
X97051904Y-76176190D01*
X97956666Y-75652380D02*
X98575714Y-75652380D01*
X98242380Y-76033333D01*
X98385238Y-76033333D01*
X98480476Y-76080952D01*
X98528095Y-76128571D01*
X98575714Y-76223809D01*
X98575714Y-76461904D01*
X98528095Y-76557142D01*
X98480476Y-76604761D01*
X98385238Y-76652380D01*
X98099523Y-76652380D01*
X98004285Y-76604761D01*
X97956666Y-76557142D01*
%TO.C,R24*%
X128976380Y-149994857D02*
X128500190Y-150328190D01*
X128976380Y-150566285D02*
X127976380Y-150566285D01*
X127976380Y-150185333D01*
X128024000Y-150090095D01*
X128071619Y-150042476D01*
X128166857Y-149994857D01*
X128309714Y-149994857D01*
X128404952Y-150042476D01*
X128452571Y-150090095D01*
X128500190Y-150185333D01*
X128500190Y-150566285D01*
X128071619Y-149613904D02*
X128024000Y-149566285D01*
X127976380Y-149471047D01*
X127976380Y-149232952D01*
X128024000Y-149137714D01*
X128071619Y-149090095D01*
X128166857Y-149042476D01*
X128262095Y-149042476D01*
X128404952Y-149090095D01*
X128976380Y-149661523D01*
X128976380Y-149042476D01*
X128309714Y-148185333D02*
X128976380Y-148185333D01*
X127928761Y-148423428D02*
X128643047Y-148661523D01*
X128643047Y-148042476D01*
%TO.C,R9*%
X106513333Y-123134380D02*
X106180000Y-122658190D01*
X105941904Y-123134380D02*
X105941904Y-122134380D01*
X106322857Y-122134380D01*
X106418095Y-122182000D01*
X106465714Y-122229619D01*
X106513333Y-122324857D01*
X106513333Y-122467714D01*
X106465714Y-122562952D01*
X106418095Y-122610571D01*
X106322857Y-122658190D01*
X105941904Y-122658190D01*
X106989523Y-123134380D02*
X107180000Y-123134380D01*
X107275238Y-123086761D01*
X107322857Y-123039142D01*
X107418095Y-122896285D01*
X107465714Y-122705809D01*
X107465714Y-122324857D01*
X107418095Y-122229619D01*
X107370476Y-122182000D01*
X107275238Y-122134380D01*
X107084761Y-122134380D01*
X106989523Y-122182000D01*
X106941904Y-122229619D01*
X106894285Y-122324857D01*
X106894285Y-122562952D01*
X106941904Y-122658190D01*
X106989523Y-122705809D01*
X107084761Y-122753428D01*
X107275238Y-122753428D01*
X107370476Y-122705809D01*
X107418095Y-122658190D01*
X107465714Y-122562952D01*
%TO.C,R27*%
X125674380Y-162440857D02*
X125198190Y-162774190D01*
X125674380Y-163012285D02*
X124674380Y-163012285D01*
X124674380Y-162631333D01*
X124722000Y-162536095D01*
X124769619Y-162488476D01*
X124864857Y-162440857D01*
X125007714Y-162440857D01*
X125102952Y-162488476D01*
X125150571Y-162536095D01*
X125198190Y-162631333D01*
X125198190Y-163012285D01*
X124769619Y-162059904D02*
X124722000Y-162012285D01*
X124674380Y-161917047D01*
X124674380Y-161678952D01*
X124722000Y-161583714D01*
X124769619Y-161536095D01*
X124864857Y-161488476D01*
X124960095Y-161488476D01*
X125102952Y-161536095D01*
X125674380Y-162107523D01*
X125674380Y-161488476D01*
X124674380Y-161155142D02*
X124674380Y-160488476D01*
X125674380Y-160917047D01*
%TO.C,R16*%
X121531142Y-97480380D02*
X121197809Y-97004190D01*
X120959714Y-97480380D02*
X120959714Y-96480380D01*
X121340666Y-96480380D01*
X121435904Y-96528000D01*
X121483523Y-96575619D01*
X121531142Y-96670857D01*
X121531142Y-96813714D01*
X121483523Y-96908952D01*
X121435904Y-96956571D01*
X121340666Y-97004190D01*
X120959714Y-97004190D01*
X122483523Y-97480380D02*
X121912095Y-97480380D01*
X122197809Y-97480380D02*
X122197809Y-96480380D01*
X122102571Y-96623238D01*
X122007333Y-96718476D01*
X121912095Y-96766095D01*
X123340666Y-96480380D02*
X123150190Y-96480380D01*
X123054952Y-96528000D01*
X123007333Y-96575619D01*
X122912095Y-96718476D01*
X122864476Y-96908952D01*
X122864476Y-97289904D01*
X122912095Y-97385142D01*
X122959714Y-97432761D01*
X123054952Y-97480380D01*
X123245428Y-97480380D01*
X123340666Y-97432761D01*
X123388285Y-97385142D01*
X123435904Y-97289904D01*
X123435904Y-97051809D01*
X123388285Y-96956571D01*
X123340666Y-96908952D01*
X123245428Y-96861333D01*
X123054952Y-96861333D01*
X122959714Y-96908952D01*
X122912095Y-96956571D01*
X122864476Y-97051809D01*
%TO.C,C11*%
X102973142Y-43343142D02*
X102925523Y-43390761D01*
X102782666Y-43438380D01*
X102687428Y-43438380D01*
X102544571Y-43390761D01*
X102449333Y-43295523D01*
X102401714Y-43200285D01*
X102354095Y-43009809D01*
X102354095Y-42866952D01*
X102401714Y-42676476D01*
X102449333Y-42581238D01*
X102544571Y-42486000D01*
X102687428Y-42438380D01*
X102782666Y-42438380D01*
X102925523Y-42486000D01*
X102973142Y-42533619D01*
X103925523Y-43438380D02*
X103354095Y-43438380D01*
X103639809Y-43438380D02*
X103639809Y-42438380D01*
X103544571Y-42581238D01*
X103449333Y-42676476D01*
X103354095Y-42724095D01*
X104877904Y-43438380D02*
X104306476Y-43438380D01*
X104592190Y-43438380D02*
X104592190Y-42438380D01*
X104496952Y-42581238D01*
X104401714Y-42676476D01*
X104306476Y-42724095D01*
%TO.C,D2*%
X120452380Y-42738095D02*
X119452380Y-42738095D01*
X119452380Y-42500000D01*
X119500000Y-42357142D01*
X119595238Y-42261904D01*
X119690476Y-42214285D01*
X119880952Y-42166666D01*
X120023809Y-42166666D01*
X120214285Y-42214285D01*
X120309523Y-42261904D01*
X120404761Y-42357142D01*
X120452380Y-42500000D01*
X120452380Y-42738095D01*
X119547619Y-41785714D02*
X119500000Y-41738095D01*
X119452380Y-41642857D01*
X119452380Y-41404761D01*
X119500000Y-41309523D01*
X119547619Y-41261904D01*
X119642857Y-41214285D01*
X119738095Y-41214285D01*
X119880952Y-41261904D01*
X120452380Y-41833333D01*
X120452380Y-41214285D01*
%TO.C,C4*%
X119427333Y-86971142D02*
X119379714Y-87018761D01*
X119236857Y-87066380D01*
X119141619Y-87066380D01*
X118998761Y-87018761D01*
X118903523Y-86923523D01*
X118855904Y-86828285D01*
X118808285Y-86637809D01*
X118808285Y-86494952D01*
X118855904Y-86304476D01*
X118903523Y-86209238D01*
X118998761Y-86114000D01*
X119141619Y-86066380D01*
X119236857Y-86066380D01*
X119379714Y-86114000D01*
X119427333Y-86161619D01*
X120284476Y-86399714D02*
X120284476Y-87066380D01*
X120046380Y-86018761D02*
X119808285Y-86733047D01*
X120427333Y-86733047D01*
%TO.C,C1*%
X100203333Y-111355142D02*
X100155714Y-111402761D01*
X100012857Y-111450380D01*
X99917619Y-111450380D01*
X99774761Y-111402761D01*
X99679523Y-111307523D01*
X99631904Y-111212285D01*
X99584285Y-111021809D01*
X99584285Y-110878952D01*
X99631904Y-110688476D01*
X99679523Y-110593238D01*
X99774761Y-110498000D01*
X99917619Y-110450380D01*
X100012857Y-110450380D01*
X100155714Y-110498000D01*
X100203333Y-110545619D01*
X101155714Y-111450380D02*
X100584285Y-111450380D01*
X100870000Y-111450380D02*
X100870000Y-110450380D01*
X100774761Y-110593238D01*
X100679523Y-110688476D01*
X100584285Y-110736095D01*
%TO.C,Q1*%
X102012761Y-114949619D02*
X101917523Y-114902000D01*
X101822285Y-114806761D01*
X101679428Y-114663904D01*
X101584190Y-114616285D01*
X101488952Y-114616285D01*
X101536571Y-114854380D02*
X101441333Y-114806761D01*
X101346095Y-114711523D01*
X101298476Y-114521047D01*
X101298476Y-114187714D01*
X101346095Y-113997238D01*
X101441333Y-113902000D01*
X101536571Y-113854380D01*
X101727047Y-113854380D01*
X101822285Y-113902000D01*
X101917523Y-113997238D01*
X101965142Y-114187714D01*
X101965142Y-114521047D01*
X101917523Y-114711523D01*
X101822285Y-114806761D01*
X101727047Y-114854380D01*
X101536571Y-114854380D01*
X102917523Y-114854380D02*
X102346095Y-114854380D01*
X102631809Y-114854380D02*
X102631809Y-113854380D01*
X102536571Y-113997238D01*
X102441333Y-114092476D01*
X102346095Y-114140095D01*
%TO.C,U1*%
X109210095Y-111261380D02*
X109210095Y-112070904D01*
X109257714Y-112166142D01*
X109305333Y-112213761D01*
X109400571Y-112261380D01*
X109591047Y-112261380D01*
X109686285Y-112213761D01*
X109733904Y-112166142D01*
X109781523Y-112070904D01*
X109781523Y-111261380D01*
X110781523Y-112261380D02*
X110210095Y-112261380D01*
X110495809Y-112261380D02*
X110495809Y-111261380D01*
X110400571Y-111404238D01*
X110305333Y-111499476D01*
X110210095Y-111547095D01*
%TO.C,R25*%
X125674380Y-149994857D02*
X125198190Y-150328190D01*
X125674380Y-150566285D02*
X124674380Y-150566285D01*
X124674380Y-150185333D01*
X124722000Y-150090095D01*
X124769619Y-150042476D01*
X124864857Y-149994857D01*
X125007714Y-149994857D01*
X125102952Y-150042476D01*
X125150571Y-150090095D01*
X125198190Y-150185333D01*
X125198190Y-150566285D01*
X124769619Y-149613904D02*
X124722000Y-149566285D01*
X124674380Y-149471047D01*
X124674380Y-149232952D01*
X124722000Y-149137714D01*
X124769619Y-149090095D01*
X124864857Y-149042476D01*
X124960095Y-149042476D01*
X125102952Y-149090095D01*
X125674380Y-149661523D01*
X125674380Y-149042476D01*
X124674380Y-148137714D02*
X124674380Y-148613904D01*
X125150571Y-148661523D01*
X125102952Y-148613904D01*
X125055333Y-148518666D01*
X125055333Y-148280571D01*
X125102952Y-148185333D01*
X125150571Y-148137714D01*
X125245809Y-148090095D01*
X125483904Y-148090095D01*
X125579142Y-148137714D01*
X125626761Y-148185333D01*
X125674380Y-148280571D01*
X125674380Y-148518666D01*
X125626761Y-148613904D01*
X125579142Y-148661523D01*
%TO.C,J6*%
X38166666Y-129722380D02*
X38166666Y-130436666D01*
X38119047Y-130579523D01*
X38023809Y-130674761D01*
X37880952Y-130722380D01*
X37785714Y-130722380D01*
X39071428Y-129722380D02*
X38880952Y-129722380D01*
X38785714Y-129770000D01*
X38738095Y-129817619D01*
X38642857Y-129960476D01*
X38595238Y-130150952D01*
X38595238Y-130531904D01*
X38642857Y-130627142D01*
X38690476Y-130674761D01*
X38785714Y-130722380D01*
X38976190Y-130722380D01*
X39071428Y-130674761D01*
X39119047Y-130627142D01*
X39166666Y-130531904D01*
X39166666Y-130293809D01*
X39119047Y-130198571D01*
X39071428Y-130150952D01*
X38976190Y-130103333D01*
X38785714Y-130103333D01*
X38690476Y-130150952D01*
X38642857Y-130198571D01*
X38595238Y-130293809D01*
D11*
%TO.C,R21*%
X99314000Y-153948000D02*
X99314000Y-154718000D01*
X100684000Y-161258000D02*
X100684000Y-154718000D01*
X97944000Y-161258000D02*
X100684000Y-161258000D01*
X97944000Y-154718000D02*
X97944000Y-161258000D01*
X99314000Y-162028000D02*
X99314000Y-161258000D01*
X100684000Y-154718000D02*
X97944000Y-154718000D01*
%TO.C,Q2*%
X97862000Y-119656000D02*
X97862000Y-116056000D01*
X93412000Y-117856000D02*
G75*
G03*
X94913193Y-120212400I2600002J2D01*
G01*
X97134795Y-120180184D02*
G75*
G03*
X97862000Y-119656000I-1122789J2324175D01*
G01*
X97862000Y-116056000D02*
G75*
G03*
X97134795Y-115531816I-1849994J-1799991D01*
G01*
X94913193Y-115499600D02*
G75*
G03*
X93412000Y-117856000I1098804J-2356399D01*
G01*
%TO.C,Q3*%
X117116000Y-114990000D02*
X113516000Y-114990000D01*
X117640184Y-115717205D02*
G75*
G03*
X117116000Y-114990000I-2324175J-1122789D01*
G01*
X112959600Y-117938807D02*
G75*
G03*
X115316000Y-119440000I2356399J1098804D01*
G01*
X115316000Y-119440000D02*
G75*
G03*
X117672400Y-117938807I-2J2600002D01*
G01*
X113516000Y-114990000D02*
G75*
G03*
X112991816Y-115717205I1799991J-1849994D01*
G01*
%TO.C,C5*%
X112292000Y-162722000D02*
X112292000Y-166462000D01*
X105052000Y-162722000D02*
X112292000Y-162722000D01*
X105052000Y-166462000D02*
X112292000Y-166462000D01*
X105052000Y-162722000D02*
X105052000Y-166462000D01*
%TO.C,R22*%
X103732000Y-154718000D02*
X100992000Y-154718000D01*
X100992000Y-154718000D02*
X100992000Y-161258000D01*
X103732000Y-161258000D02*
X103732000Y-154718000D01*
X100992000Y-161258000D02*
X103732000Y-161258000D01*
X102362000Y-162028000D02*
X102362000Y-161258000D01*
X102362000Y-153948000D02*
X102362000Y-154718000D01*
%TO.C,R11*%
X116808000Y-89562000D02*
X110268000Y-89562000D01*
X116808000Y-92302000D02*
X116808000Y-89562000D01*
X109498000Y-90932000D02*
X110268000Y-90932000D01*
X110268000Y-92302000D02*
X116808000Y-92302000D01*
X117578000Y-90932000D02*
X116808000Y-90932000D01*
X110268000Y-89562000D02*
X110268000Y-92302000D01*
%TO.C,R8*%
X94520000Y-105818000D02*
X94520000Y-108558000D01*
X94520000Y-108558000D02*
X101060000Y-108558000D01*
X101060000Y-105818000D02*
X94520000Y-105818000D01*
X101830000Y-107188000D02*
X101060000Y-107188000D01*
X93750000Y-107188000D02*
X94520000Y-107188000D01*
X101060000Y-108558000D02*
X101060000Y-105818000D01*
%TO.C,U2*%
X104850000Y-81156000D02*
X115130000Y-81156000D01*
X107340000Y-81096000D02*
X108990000Y-81096000D01*
X115130000Y-60596000D02*
X104850000Y-60596000D01*
X104850000Y-60596000D02*
X104850000Y-81156000D01*
X115130000Y-81156000D02*
X115130000Y-60596000D01*
X107340000Y-60656000D02*
X107340000Y-81096000D01*
X112640000Y-81096000D02*
X112640000Y-60656000D01*
X110990000Y-81096000D02*
X112640000Y-81096000D01*
X112640000Y-60656000D02*
X107340000Y-60656000D01*
X110990000Y-81096000D02*
G75*
G03*
X108990000Y-81096000I-1000000J0D01*
G01*
%TO.C,J14*%
X82830000Y-123730000D02*
X82830000Y-121130000D01*
X80170000Y-126330000D02*
X80170000Y-125000000D01*
X81500000Y-126330000D02*
X80170000Y-126330000D01*
X82830000Y-121130000D02*
X80170000Y-121130000D01*
X80170000Y-123730000D02*
X80170000Y-121130000D01*
X82830000Y-123730000D02*
X80170000Y-123730000D01*
%TO.C,R6*%
X94520000Y-92610000D02*
X94520000Y-95350000D01*
X101060000Y-95350000D02*
X101060000Y-92610000D01*
X94520000Y-95350000D02*
X101060000Y-95350000D01*
X101830000Y-93980000D02*
X101060000Y-93980000D01*
X93750000Y-93980000D02*
X94520000Y-93980000D01*
X101060000Y-92610000D02*
X94520000Y-92610000D01*
%TO.C,C3*%
X123254000Y-112868000D02*
X116014000Y-112868000D01*
X123254000Y-109128000D02*
X116014000Y-109128000D01*
X123254000Y-112868000D02*
X123254000Y-109128000D01*
X116014000Y-112868000D02*
X116014000Y-109128000D01*
%TO.C,R19*%
X113570000Y-124614000D02*
X113570000Y-127354000D01*
X112800000Y-125984000D02*
X113570000Y-125984000D01*
X120110000Y-124614000D02*
X113570000Y-124614000D01*
X113570000Y-127354000D02*
X120110000Y-127354000D01*
X120880000Y-125984000D02*
X120110000Y-125984000D01*
X120110000Y-127354000D02*
X120110000Y-124614000D01*
%TO.C,D4*%
X121666000Y-153820000D02*
X121666000Y-152800000D01*
X120196000Y-152800000D02*
X123136000Y-152800000D01*
X123136000Y-152800000D02*
X123136000Y-147360000D01*
X120196000Y-151900000D02*
X123136000Y-151900000D01*
X120196000Y-152020000D02*
X123136000Y-152020000D01*
X121666000Y-146340000D02*
X121666000Y-147360000D01*
X120196000Y-147360000D02*
X120196000Y-152800000D01*
X123136000Y-147360000D02*
X120196000Y-147360000D01*
X120196000Y-151780000D02*
X123136000Y-151780000D01*
%TO.C,R4*%
X93750000Y-104140000D02*
X94520000Y-104140000D01*
X101060000Y-105510000D02*
X101060000Y-102770000D01*
X101060000Y-102770000D02*
X94520000Y-102770000D01*
X94520000Y-105510000D02*
X101060000Y-105510000D01*
X94520000Y-102770000D02*
X94520000Y-105510000D01*
X101830000Y-104140000D02*
X101060000Y-104140000D01*
%TO.C,R10*%
X89916000Y-112498000D02*
X89916000Y-111728000D01*
X91286000Y-111728000D02*
X91286000Y-105188000D01*
X89916000Y-104418000D02*
X89916000Y-105188000D01*
X88546000Y-105188000D02*
X88546000Y-111728000D01*
X88546000Y-111728000D02*
X91286000Y-111728000D01*
X91286000Y-105188000D02*
X88546000Y-105188000D01*
%TO.C,R1*%
X94520000Y-95658000D02*
X94520000Y-98398000D01*
X94520000Y-98398000D02*
X101060000Y-98398000D01*
X93750000Y-97028000D02*
X94520000Y-97028000D01*
X101060000Y-98398000D02*
X101060000Y-95658000D01*
X101830000Y-97028000D02*
X101060000Y-97028000D01*
X101060000Y-95658000D02*
X94520000Y-95658000D01*
%TO.C,R14*%
X118904000Y-102770000D02*
X118904000Y-105510000D01*
X118134000Y-104140000D02*
X118904000Y-104140000D01*
X125444000Y-105510000D02*
X125444000Y-102770000D01*
X126214000Y-104140000D02*
X125444000Y-104140000D01*
X125444000Y-102770000D02*
X118904000Y-102770000D01*
X118904000Y-105510000D02*
X125444000Y-105510000D01*
%TO.C,D3*%
X123136000Y-161128000D02*
X120196000Y-161128000D01*
X121666000Y-159328000D02*
X121666000Y-160348000D01*
X121666000Y-166808000D02*
X121666000Y-165788000D01*
X123136000Y-160348000D02*
X120196000Y-160348000D01*
X120196000Y-160348000D02*
X120196000Y-165788000D01*
X123136000Y-161248000D02*
X120196000Y-161248000D01*
X120196000Y-165788000D02*
X123136000Y-165788000D01*
X123136000Y-161368000D02*
X120196000Y-161368000D01*
X123136000Y-165788000D02*
X123136000Y-160348000D01*
%TO.C,R18*%
X118904000Y-108558000D02*
X125444000Y-108558000D01*
X125444000Y-105818000D02*
X118904000Y-105818000D01*
X118904000Y-105818000D02*
X118904000Y-108558000D01*
X125444000Y-108558000D02*
X125444000Y-105818000D01*
X126214000Y-107188000D02*
X125444000Y-107188000D01*
X118134000Y-107188000D02*
X118904000Y-107188000D01*
%TO.C,D1*%
X99514000Y-44376000D02*
X99514000Y-38936000D01*
X96574000Y-44376000D02*
X99514000Y-44376000D01*
X98044000Y-45396000D02*
X98044000Y-44376000D01*
X96574000Y-38936000D02*
X96574000Y-44376000D01*
X96574000Y-43476000D02*
X99514000Y-43476000D01*
X96574000Y-43356000D02*
X99514000Y-43356000D01*
X96574000Y-43596000D02*
X99514000Y-43596000D01*
X98044000Y-37916000D02*
X98044000Y-38936000D01*
X99514000Y-38936000D02*
X96574000Y-38936000D01*
%TO.C,R15*%
X118904000Y-68734000D02*
X118904000Y-71474000D01*
X125444000Y-68734000D02*
X118904000Y-68734000D01*
X118134000Y-70104000D02*
X118904000Y-70104000D01*
X125444000Y-71474000D02*
X125444000Y-68734000D01*
X118904000Y-71474000D02*
X125444000Y-71474000D01*
X126214000Y-70104000D02*
X125444000Y-70104000D01*
%TO.C,R2*%
X101060000Y-74522000D02*
X101060000Y-71782000D01*
X101060000Y-71782000D02*
X94520000Y-71782000D01*
X101830000Y-73152000D02*
X101060000Y-73152000D01*
X94520000Y-71782000D02*
X94520000Y-74522000D01*
X93750000Y-73152000D02*
X94520000Y-73152000D01*
X94520000Y-74522000D02*
X101060000Y-74522000D01*
%TO.C,C10*%
X115880000Y-102454000D02*
X115880000Y-98714000D01*
X123120000Y-102454000D02*
X123120000Y-98714000D01*
X123120000Y-98714000D02*
X115880000Y-98714000D01*
X123120000Y-102454000D02*
X115880000Y-102454000D01*
%TO.C,C12*%
X114970000Y-44186000D02*
X114970000Y-45696000D01*
X114770000Y-44163000D02*
X114770000Y-45696000D01*
X116571000Y-47776000D02*
X116571000Y-48389000D01*
X115971000Y-44561000D02*
X115971000Y-45696000D01*
X114570000Y-44156000D02*
X114570000Y-45696000D01*
X117011000Y-45821000D02*
X117011000Y-47651000D01*
X116251000Y-47776000D02*
X116251000Y-48707000D01*
X116251000Y-44765000D02*
X116251000Y-45696000D01*
X116691000Y-45236000D02*
X116691000Y-48236000D01*
X114850000Y-47776000D02*
X114850000Y-49301000D01*
X115371000Y-47776000D02*
X115371000Y-49191000D01*
X115491000Y-47776000D02*
X115491000Y-49150000D01*
X115411000Y-44294000D02*
X115411000Y-45696000D01*
X115010000Y-44193000D02*
X115010000Y-45696000D01*
X116451000Y-44951000D02*
X116451000Y-45696000D01*
X114650000Y-47776000D02*
X114650000Y-49315000D01*
X115531000Y-44338000D02*
X115531000Y-45696000D01*
X116451000Y-47776000D02*
X116451000Y-48521000D01*
X115010000Y-47776000D02*
X115010000Y-49279000D01*
X115891000Y-44512000D02*
X115891000Y-45696000D01*
X115731000Y-47776000D02*
X115731000Y-49046000D01*
X115291000Y-47776000D02*
X115291000Y-49216000D01*
X116891000Y-45558000D02*
X116891000Y-47914000D01*
X114730000Y-47776000D02*
X114730000Y-49312000D01*
X116851000Y-45485000D02*
X116851000Y-47987000D01*
X114570000Y-47776000D02*
X114570000Y-49316000D01*
X115571000Y-47776000D02*
X115571000Y-49118000D01*
X116171000Y-44701000D02*
X116171000Y-45696000D01*
X114690000Y-44158000D02*
X114690000Y-45696000D01*
X115891000Y-47776000D02*
X115891000Y-48960000D01*
X117131000Y-46218000D02*
X117131000Y-47254000D01*
X115331000Y-47776000D02*
X115331000Y-49204000D01*
X115250000Y-44245000D02*
X115250000Y-45696000D01*
X116411000Y-47776000D02*
X116411000Y-48562000D01*
X116931000Y-45638000D02*
X116931000Y-47834000D01*
X116131000Y-47776000D02*
X116131000Y-48801000D01*
X115170000Y-47776000D02*
X115170000Y-49247000D01*
X116051000Y-44614000D02*
X116051000Y-45696000D01*
X114610000Y-44156000D02*
X114610000Y-45696000D01*
X115451000Y-47776000D02*
X115451000Y-49164000D01*
X115611000Y-47776000D02*
X115611000Y-49101000D01*
X115691000Y-47776000D02*
X115691000Y-49065000D01*
X115090000Y-47776000D02*
X115090000Y-49264000D01*
X116211000Y-47776000D02*
X116211000Y-48740000D01*
X117051000Y-45931000D02*
X117051000Y-47541000D01*
X115050000Y-44200000D02*
X115050000Y-45696000D01*
X115771000Y-47776000D02*
X115771000Y-49026000D01*
X114770000Y-47776000D02*
X114770000Y-49309000D01*
X116491000Y-47776000D02*
X116491000Y-48479000D01*
X116811000Y-45417000D02*
X116811000Y-48055000D01*
X115170000Y-44225000D02*
X115170000Y-45696000D01*
X115851000Y-44489000D02*
X115851000Y-45696000D01*
X111765225Y-45261000D02*
X112265225Y-45261000D01*
X116371000Y-44872000D02*
X116371000Y-45696000D01*
X115971000Y-47776000D02*
X115971000Y-48911000D01*
X115090000Y-44208000D02*
X115090000Y-45696000D01*
X115331000Y-44268000D02*
X115331000Y-45696000D01*
X116731000Y-45293000D02*
X116731000Y-48179000D01*
X112015225Y-45011000D02*
X112015225Y-45511000D01*
X116531000Y-45037000D02*
X116531000Y-45696000D01*
X115371000Y-44281000D02*
X115371000Y-45696000D01*
X114930000Y-44180000D02*
X114930000Y-45696000D01*
X116611000Y-45131000D02*
X116611000Y-48341000D01*
X116091000Y-44641000D02*
X116091000Y-45696000D01*
X114890000Y-44175000D02*
X114890000Y-45696000D01*
X115811000Y-44468000D02*
X115811000Y-45696000D01*
X116651000Y-45182000D02*
X116651000Y-48290000D01*
X116291000Y-44799000D02*
X116291000Y-45696000D01*
X116971000Y-45725000D02*
X116971000Y-47747000D01*
X116011000Y-44587000D02*
X116011000Y-45696000D01*
X115811000Y-47776000D02*
X115811000Y-49004000D01*
X115731000Y-44426000D02*
X115731000Y-45696000D01*
X115931000Y-44536000D02*
X115931000Y-45696000D01*
X115291000Y-44256000D02*
X115291000Y-45696000D01*
X116531000Y-47776000D02*
X116531000Y-48435000D01*
X114810000Y-44167000D02*
X114810000Y-45696000D01*
X115931000Y-47776000D02*
X115931000Y-48936000D01*
X114930000Y-47776000D02*
X114930000Y-49292000D01*
X114730000Y-44160000D02*
X114730000Y-45696000D01*
X116171000Y-47776000D02*
X116171000Y-48771000D01*
X114650000Y-44157000D02*
X114650000Y-45696000D01*
X116491000Y-44993000D02*
X116491000Y-45696000D01*
X116411000Y-44910000D02*
X116411000Y-45696000D01*
X117091000Y-46059000D02*
X117091000Y-47413000D01*
X116291000Y-47776000D02*
X116291000Y-48673000D01*
X115210000Y-44235000D02*
X115210000Y-45696000D01*
X115691000Y-44407000D02*
X115691000Y-45696000D01*
X114810000Y-47776000D02*
X114810000Y-49305000D01*
X115651000Y-47776000D02*
X115651000Y-49084000D01*
X114890000Y-47776000D02*
X114890000Y-49297000D01*
X114690000Y-47776000D02*
X114690000Y-49314000D01*
X117171000Y-46452000D02*
X117171000Y-47020000D01*
X116091000Y-47776000D02*
X116091000Y-48831000D01*
X114850000Y-44171000D02*
X114850000Y-45696000D01*
X115571000Y-44354000D02*
X115571000Y-45696000D01*
X115130000Y-44216000D02*
X115130000Y-45696000D01*
X115050000Y-47776000D02*
X115050000Y-49272000D01*
X115531000Y-47776000D02*
X115531000Y-49134000D01*
X115250000Y-47776000D02*
X115250000Y-49227000D01*
X116371000Y-47776000D02*
X116371000Y-48600000D01*
X116211000Y-44732000D02*
X116211000Y-45696000D01*
X115491000Y-44322000D02*
X115491000Y-45696000D01*
X114610000Y-47776000D02*
X114610000Y-49316000D01*
X116331000Y-47776000D02*
X116331000Y-48637000D01*
X116771000Y-45353000D02*
X116771000Y-48119000D01*
X116331000Y-44835000D02*
X116331000Y-45696000D01*
X116011000Y-47776000D02*
X116011000Y-48885000D01*
X115130000Y-47776000D02*
X115130000Y-49256000D01*
X115651000Y-44388000D02*
X115651000Y-45696000D01*
X115210000Y-47776000D02*
X115210000Y-49237000D01*
X115411000Y-47776000D02*
X115411000Y-49178000D01*
X115771000Y-44446000D02*
X115771000Y-45696000D01*
X116571000Y-45083000D02*
X116571000Y-45696000D01*
X115611000Y-44371000D02*
X115611000Y-45696000D01*
X114970000Y-47776000D02*
X114970000Y-49286000D01*
X115851000Y-47776000D02*
X115851000Y-48983000D01*
X116131000Y-44671000D02*
X116131000Y-45696000D01*
X115451000Y-44308000D02*
X115451000Y-45696000D01*
X116051000Y-47776000D02*
X116051000Y-48858000D01*
X117190000Y-46736000D02*
G75*
G03*
X117190000Y-46736000I-2620000J0D01*
G01*
%TO.C,U3*%
X107332000Y-162112000D02*
X108982000Y-162112000D01*
X115122000Y-151772000D02*
X104842000Y-151772000D01*
X112632000Y-151832000D02*
X107332000Y-151832000D01*
X115122000Y-162172000D02*
X115122000Y-151772000D01*
X107332000Y-151832000D02*
X107332000Y-162112000D01*
X110982000Y-162112000D02*
X112632000Y-162112000D01*
X104842000Y-162172000D02*
X115122000Y-162172000D01*
X112632000Y-162112000D02*
X112632000Y-151832000D01*
X104842000Y-151772000D02*
X104842000Y-162172000D01*
X110982000Y-162112000D02*
G75*
G03*
X108982000Y-162112000I-1000000J0D01*
G01*
%TO.C,R5*%
X94520000Y-68734000D02*
X94520000Y-71474000D01*
X101060000Y-71474000D02*
X101060000Y-68734000D01*
X101830000Y-70104000D02*
X101060000Y-70104000D01*
X93750000Y-70104000D02*
X94520000Y-70104000D01*
X94520000Y-71474000D02*
X101060000Y-71474000D01*
X101060000Y-68734000D02*
X94520000Y-68734000D01*
%TO.C,J22*%
X55670000Y-177000000D02*
X55670000Y-175670000D01*
X55670000Y-175670000D02*
X57000000Y-175670000D01*
X58270000Y-175670000D02*
X65950000Y-175670000D01*
X65950000Y-178330000D02*
X65950000Y-175670000D01*
X58270000Y-178330000D02*
X65950000Y-178330000D01*
X58270000Y-178330000D02*
X58270000Y-175670000D01*
%TO.C,R12*%
X126214000Y-73152000D02*
X125444000Y-73152000D01*
X118904000Y-71782000D02*
X118904000Y-74522000D01*
X125444000Y-74522000D02*
X125444000Y-71782000D01*
X118904000Y-74522000D02*
X125444000Y-74522000D01*
X125444000Y-71782000D02*
X118904000Y-71782000D01*
X118134000Y-73152000D02*
X118904000Y-73152000D01*
%TO.C,C9*%
X103990000Y-102454000D02*
X96750000Y-102454000D01*
X103990000Y-102454000D02*
X103990000Y-98714000D01*
X96750000Y-102454000D02*
X96750000Y-98714000D01*
X103990000Y-98714000D02*
X96750000Y-98714000D01*
%TO.C,C8*%
X123120000Y-64130000D02*
X115880000Y-64130000D01*
X123120000Y-67870000D02*
X115880000Y-67870000D01*
X115880000Y-67870000D02*
X115880000Y-64130000D01*
X123120000Y-67870000D02*
X123120000Y-64130000D01*
%TO.C,J12*%
X82830000Y-57730000D02*
X82830000Y-50050000D01*
X80170000Y-60330000D02*
X80170000Y-59000000D01*
X80170000Y-57730000D02*
X80170000Y-50050000D01*
X82830000Y-57730000D02*
X80170000Y-57730000D01*
X81500000Y-60330000D02*
X80170000Y-60330000D01*
X82830000Y-50050000D02*
X80170000Y-50050000D01*
%TO.C,R7*%
X101060000Y-77878000D02*
X94520000Y-77878000D01*
X94520000Y-77878000D02*
X94520000Y-80618000D01*
X93750000Y-79248000D02*
X94520000Y-79248000D01*
X94520000Y-80618000D02*
X101060000Y-80618000D01*
X101830000Y-79248000D02*
X101060000Y-79248000D01*
X101060000Y-80618000D02*
X101060000Y-77878000D01*
%TO.C,J17*%
X103776000Y-39586000D02*
X114156000Y-39586000D01*
X103486000Y-34596000D02*
X103486000Y-38596000D01*
X113576000Y-34166000D02*
X113576000Y-33566000D01*
X109436000Y-34166000D02*
X111036000Y-34166000D01*
X109436000Y-33566000D02*
X109436000Y-34166000D01*
X112526000Y-38056000D02*
X112776000Y-38586000D01*
X112776000Y-38586000D02*
X112776000Y-39586000D01*
X105406000Y-38056000D02*
X112526000Y-38056000D01*
X105156000Y-38586000D02*
X105406000Y-38056000D01*
X112526000Y-39586000D02*
X112526000Y-38586000D01*
X105156000Y-39586000D02*
X105156000Y-38586000D01*
X105156000Y-38586000D02*
X112776000Y-38586000D01*
X114156000Y-33566000D02*
X103776000Y-33566000D01*
X104356000Y-33566000D02*
X104356000Y-34166000D01*
X104356000Y-34166000D02*
X105956000Y-34166000D01*
X106896000Y-33566000D02*
X106896000Y-34166000D01*
X111976000Y-33566000D02*
X111976000Y-34166000D01*
X111036000Y-34166000D02*
X111036000Y-33566000D01*
X111976000Y-34166000D02*
X113576000Y-34166000D01*
X108496000Y-34166000D02*
X108496000Y-33566000D01*
X114156000Y-39586000D02*
X114156000Y-33566000D01*
X103776000Y-33566000D02*
X103776000Y-39586000D01*
X106896000Y-34166000D02*
X108496000Y-34166000D01*
X105406000Y-39586000D02*
X105406000Y-38586000D01*
X105956000Y-34166000D02*
X105956000Y-33566000D01*
%TO.C,R17*%
X126214000Y-79248000D02*
X125444000Y-79248000D01*
X118134000Y-79248000D02*
X118904000Y-79248000D01*
X125444000Y-80618000D02*
X125444000Y-77878000D01*
X125444000Y-77878000D02*
X118904000Y-77878000D01*
X118904000Y-77878000D02*
X118904000Y-80618000D01*
X118904000Y-80618000D02*
X125444000Y-80618000D01*
%TO.C,Q4*%
X125294000Y-118894000D02*
X125294000Y-115294000D01*
X125294000Y-115294000D02*
G75*
G03*
X124566795Y-114769816I-1849994J-1799991D01*
G01*
X120844000Y-117094000D02*
G75*
G03*
X122345193Y-119450400I2600002J2D01*
G01*
X124566795Y-119418184D02*
G75*
G03*
X125294000Y-118894000I-1122789J2324175D01*
G01*
X122345193Y-114737600D02*
G75*
G03*
X120844000Y-117094000I1098804J-2356399D01*
G01*
%TO.C,R23*%
X117856000Y-166854000D02*
X117856000Y-166084000D01*
X119226000Y-159544000D02*
X116486000Y-159544000D01*
X117856000Y-158774000D02*
X117856000Y-159544000D01*
X119226000Y-166084000D02*
X119226000Y-159544000D01*
X116486000Y-159544000D02*
X116486000Y-166084000D01*
X116486000Y-166084000D02*
X119226000Y-166084000D01*
%TO.C,R13*%
X126214000Y-76200000D02*
X125444000Y-76200000D01*
X118904000Y-77570000D02*
X125444000Y-77570000D01*
X125444000Y-77570000D02*
X125444000Y-74830000D01*
X125444000Y-74830000D02*
X118904000Y-74830000D01*
X118134000Y-76200000D02*
X118904000Y-76200000D01*
X118904000Y-74830000D02*
X118904000Y-77570000D01*
%TO.C,C7*%
X104120000Y-67870000D02*
X104120000Y-64130000D01*
X104120000Y-64130000D02*
X96880000Y-64130000D01*
X96880000Y-67870000D02*
X96880000Y-64130000D01*
X104120000Y-67870000D02*
X96880000Y-67870000D01*
%TO.C,R20*%
X131418000Y-105188000D02*
X128678000Y-105188000D01*
X130048000Y-112498000D02*
X130048000Y-111728000D01*
X130048000Y-104418000D02*
X130048000Y-105188000D01*
X131418000Y-111728000D02*
X131418000Y-105188000D01*
X128678000Y-105188000D02*
X128678000Y-111728000D01*
X128678000Y-111728000D02*
X131418000Y-111728000D01*
%TO.C,C2*%
X103990000Y-84744000D02*
X96750000Y-84744000D01*
X103990000Y-88484000D02*
X103990000Y-84744000D01*
X103990000Y-88484000D02*
X96750000Y-88484000D01*
X96750000Y-88484000D02*
X96750000Y-84744000D01*
%TO.C,R26*%
X116486000Y-153638000D02*
X119226000Y-153638000D01*
X117856000Y-154408000D02*
X117856000Y-153638000D01*
X119226000Y-153638000D02*
X119226000Y-147098000D01*
X117856000Y-146328000D02*
X117856000Y-147098000D01*
X119226000Y-147098000D02*
X116486000Y-147098000D01*
X116486000Y-147098000D02*
X116486000Y-153638000D01*
%TO.C,J4*%
X37170000Y-60330000D02*
X37170000Y-59000000D01*
X39830000Y-57730000D02*
X39830000Y-50050000D01*
X39830000Y-57730000D02*
X37170000Y-57730000D01*
X39830000Y-50050000D02*
X37170000Y-50050000D01*
X37170000Y-57730000D02*
X37170000Y-50050000D01*
X38500000Y-60330000D02*
X37170000Y-60330000D01*
%TO.C,C6*%
X111922000Y-143994000D02*
X111922000Y-151234000D01*
X115662000Y-143994000D02*
X111922000Y-143994000D01*
X115662000Y-151234000D02*
X111922000Y-151234000D01*
X115662000Y-143994000D02*
X115662000Y-151234000D01*
%TO.C,R3*%
X101060000Y-77570000D02*
X101060000Y-74830000D01*
X94520000Y-77570000D02*
X101060000Y-77570000D01*
X101060000Y-74830000D02*
X94520000Y-74830000D01*
X93750000Y-76200000D02*
X94520000Y-76200000D01*
X101830000Y-76200000D02*
X101060000Y-76200000D01*
X94520000Y-74830000D02*
X94520000Y-77570000D01*
%TO.C,R24*%
X129894000Y-146082000D02*
X127154000Y-146082000D01*
X128524000Y-145312000D02*
X128524000Y-146082000D01*
X129894000Y-152622000D02*
X129894000Y-146082000D01*
X127154000Y-146082000D02*
X127154000Y-152622000D01*
X128524000Y-153392000D02*
X128524000Y-152622000D01*
X127154000Y-152622000D02*
X129894000Y-152622000D01*
%TO.C,R9*%
X110720000Y-122682000D02*
X109950000Y-122682000D01*
X103410000Y-124052000D02*
X109950000Y-124052000D01*
X109950000Y-121312000D02*
X103410000Y-121312000D01*
X103410000Y-121312000D02*
X103410000Y-124052000D01*
X102640000Y-122682000D02*
X103410000Y-122682000D01*
X109950000Y-124052000D02*
X109950000Y-121312000D01*
%TO.C,R27*%
X126592000Y-158528000D02*
X123852000Y-158528000D01*
X123852000Y-158528000D02*
X123852000Y-165068000D01*
X125222000Y-165838000D02*
X125222000Y-165068000D01*
X123852000Y-165068000D02*
X126592000Y-165068000D01*
X126592000Y-165068000D02*
X126592000Y-158528000D01*
X125222000Y-157758000D02*
X125222000Y-158528000D01*
%TO.C,R16*%
X126214000Y-97028000D02*
X125444000Y-97028000D01*
X125444000Y-95658000D02*
X118904000Y-95658000D01*
X125444000Y-98398000D02*
X125444000Y-95658000D01*
X118904000Y-95658000D02*
X118904000Y-98398000D01*
X118134000Y-97028000D02*
X118904000Y-97028000D01*
X118904000Y-98398000D02*
X125444000Y-98398000D01*
%TO.C,C11*%
X104497000Y-44308000D02*
X104497000Y-45696000D01*
X105257000Y-47776000D02*
X105257000Y-48740000D01*
X104096000Y-44200000D02*
X104096000Y-45696000D01*
X105977000Y-45638000D02*
X105977000Y-47834000D01*
X105777000Y-45293000D02*
X105777000Y-48179000D01*
X104657000Y-44371000D02*
X104657000Y-45696000D01*
X103896000Y-47776000D02*
X103896000Y-49301000D01*
X105377000Y-44835000D02*
X105377000Y-45696000D01*
X106217000Y-46452000D02*
X106217000Y-47020000D01*
X104937000Y-47776000D02*
X104937000Y-48960000D01*
X105137000Y-47776000D02*
X105137000Y-48831000D01*
X104337000Y-47776000D02*
X104337000Y-49216000D01*
X104457000Y-47776000D02*
X104457000Y-49178000D01*
X104697000Y-47776000D02*
X104697000Y-49084000D01*
X105297000Y-47776000D02*
X105297000Y-48707000D01*
X104937000Y-44512000D02*
X104937000Y-45696000D01*
X104897000Y-44489000D02*
X104897000Y-45696000D01*
X104216000Y-44225000D02*
X104216000Y-45696000D01*
X104136000Y-47776000D02*
X104136000Y-49264000D01*
X103896000Y-44171000D02*
X103896000Y-45696000D01*
X105857000Y-45417000D02*
X105857000Y-48055000D01*
X105297000Y-44765000D02*
X105297000Y-45696000D01*
X104617000Y-47776000D02*
X104617000Y-49118000D01*
X104457000Y-44294000D02*
X104457000Y-45696000D01*
X104857000Y-47776000D02*
X104857000Y-49004000D01*
X103936000Y-47776000D02*
X103936000Y-49297000D01*
X103856000Y-47776000D02*
X103856000Y-49305000D01*
X103616000Y-44156000D02*
X103616000Y-45696000D01*
X104377000Y-44268000D02*
X104377000Y-45696000D01*
X105017000Y-44561000D02*
X105017000Y-45696000D01*
X103976000Y-44180000D02*
X103976000Y-45696000D01*
X105817000Y-45353000D02*
X105817000Y-48119000D01*
X103696000Y-44157000D02*
X103696000Y-45696000D01*
X104176000Y-47776000D02*
X104176000Y-49256000D01*
X105537000Y-44993000D02*
X105537000Y-45696000D01*
X105577000Y-45037000D02*
X105577000Y-45696000D01*
X105217000Y-44701000D02*
X105217000Y-45696000D01*
X103976000Y-47776000D02*
X103976000Y-49292000D01*
X104977000Y-47776000D02*
X104977000Y-48936000D01*
X103816000Y-47776000D02*
X103816000Y-49309000D01*
X106057000Y-45821000D02*
X106057000Y-47651000D01*
X104056000Y-44193000D02*
X104056000Y-45696000D01*
X105417000Y-47776000D02*
X105417000Y-48600000D01*
X104216000Y-47776000D02*
X104216000Y-49247000D01*
X106017000Y-45725000D02*
X106017000Y-47747000D01*
X105937000Y-45558000D02*
X105937000Y-47914000D01*
X105097000Y-44614000D02*
X105097000Y-45696000D01*
X106097000Y-45931000D02*
X106097000Y-47541000D01*
X104296000Y-44245000D02*
X104296000Y-45696000D01*
X103656000Y-44156000D02*
X103656000Y-45696000D01*
X104537000Y-44322000D02*
X104537000Y-45696000D01*
X105097000Y-47776000D02*
X105097000Y-48858000D01*
X104777000Y-47776000D02*
X104777000Y-49046000D01*
X105217000Y-47776000D02*
X105217000Y-48771000D01*
X105457000Y-44910000D02*
X105457000Y-45696000D01*
X104337000Y-44256000D02*
X104337000Y-45696000D01*
X104417000Y-47776000D02*
X104417000Y-49191000D01*
X105417000Y-44872000D02*
X105417000Y-45696000D01*
X104417000Y-44281000D02*
X104417000Y-45696000D01*
X104777000Y-44426000D02*
X104777000Y-45696000D01*
X104056000Y-47776000D02*
X104056000Y-49279000D01*
X103656000Y-47776000D02*
X103656000Y-49316000D01*
X105337000Y-47776000D02*
X105337000Y-48673000D01*
X104737000Y-44407000D02*
X104737000Y-45696000D01*
X104657000Y-47776000D02*
X104657000Y-49101000D01*
X105017000Y-47776000D02*
X105017000Y-48911000D01*
X103776000Y-44160000D02*
X103776000Y-45696000D01*
X104096000Y-47776000D02*
X104096000Y-49272000D01*
X104377000Y-47776000D02*
X104377000Y-49204000D01*
X105057000Y-47776000D02*
X105057000Y-48885000D01*
X105457000Y-47776000D02*
X105457000Y-48562000D01*
X104497000Y-47776000D02*
X104497000Y-49164000D01*
X105257000Y-44732000D02*
X105257000Y-45696000D01*
X104697000Y-44388000D02*
X104697000Y-45696000D01*
X104016000Y-47776000D02*
X104016000Y-49286000D01*
X104817000Y-47776000D02*
X104817000Y-49026000D01*
X103936000Y-44175000D02*
X103936000Y-45696000D01*
X105497000Y-47776000D02*
X105497000Y-48521000D01*
X105617000Y-47776000D02*
X105617000Y-48389000D01*
X105377000Y-47776000D02*
X105377000Y-48637000D01*
X106177000Y-46218000D02*
X106177000Y-47254000D01*
X104256000Y-44235000D02*
X104256000Y-45696000D01*
X105057000Y-44587000D02*
X105057000Y-45696000D01*
X104737000Y-47776000D02*
X104737000Y-49065000D01*
X103816000Y-44163000D02*
X103816000Y-45696000D01*
X104617000Y-44354000D02*
X104617000Y-45696000D01*
X103736000Y-44158000D02*
X103736000Y-45696000D01*
X105617000Y-45083000D02*
X105617000Y-45696000D01*
X106137000Y-46059000D02*
X106137000Y-47413000D01*
X104136000Y-44208000D02*
X104136000Y-45696000D01*
X105737000Y-45236000D02*
X105737000Y-48236000D01*
X105177000Y-44671000D02*
X105177000Y-45696000D01*
X104577000Y-44338000D02*
X104577000Y-45696000D01*
X105177000Y-47776000D02*
X105177000Y-48801000D01*
X104857000Y-44468000D02*
X104857000Y-45696000D01*
X104977000Y-44536000D02*
X104977000Y-45696000D01*
X103616000Y-47776000D02*
X103616000Y-49316000D01*
X104537000Y-47776000D02*
X104537000Y-49150000D01*
X104897000Y-47776000D02*
X104897000Y-48983000D01*
X104176000Y-44216000D02*
X104176000Y-45696000D01*
X104817000Y-44446000D02*
X104817000Y-45696000D01*
X105577000Y-47776000D02*
X105577000Y-48435000D01*
X103736000Y-47776000D02*
X103736000Y-49314000D01*
X100811225Y-45261000D02*
X101311225Y-45261000D01*
X105657000Y-45131000D02*
X105657000Y-48341000D01*
X101061225Y-45011000D02*
X101061225Y-45511000D01*
X103776000Y-47776000D02*
X103776000Y-49312000D01*
X104016000Y-44186000D02*
X104016000Y-45696000D01*
X105497000Y-44951000D02*
X105497000Y-45696000D01*
X105697000Y-45182000D02*
X105697000Y-48290000D01*
X103696000Y-47776000D02*
X103696000Y-49315000D01*
X104256000Y-47776000D02*
X104256000Y-49237000D01*
X103856000Y-44167000D02*
X103856000Y-45696000D01*
X105537000Y-47776000D02*
X105537000Y-48479000D01*
X105337000Y-44799000D02*
X105337000Y-45696000D01*
X105137000Y-44641000D02*
X105137000Y-45696000D01*
X104296000Y-47776000D02*
X104296000Y-49227000D01*
X104577000Y-47776000D02*
X104577000Y-49134000D01*
X105897000Y-45485000D02*
X105897000Y-47987000D01*
X106236000Y-46736000D02*
G75*
G03*
X106236000Y-46736000I-2620000J0D01*
G01*
%TO.C,D2*%
X120142000Y-45596000D02*
X120142000Y-44376000D01*
X121612000Y-44376000D02*
X121612000Y-38936000D01*
X121612000Y-38936000D02*
X118672000Y-38936000D01*
X121612000Y-39716000D02*
X118672000Y-39716000D01*
X121612000Y-39836000D02*
X118672000Y-39836000D01*
X120142000Y-37716000D02*
X120142000Y-38936000D01*
X118672000Y-38936000D02*
X118672000Y-44376000D01*
X118672000Y-44376000D02*
X121612000Y-44376000D01*
X121612000Y-39956000D02*
X118672000Y-39956000D01*
%TO.C,C4*%
X115974000Y-84744000D02*
X115974000Y-88484000D01*
X123214000Y-84744000D02*
X123214000Y-88484000D01*
X115974000Y-84744000D02*
X123214000Y-84744000D01*
X115974000Y-88484000D02*
X123214000Y-88484000D01*
%TO.C,C1*%
X96750000Y-112868000D02*
X103990000Y-112868000D01*
X103990000Y-109128000D02*
X103990000Y-112868000D01*
X96750000Y-109128000D02*
X96750000Y-112868000D01*
X96750000Y-109128000D02*
X103990000Y-109128000D01*
%TO.C,Q1*%
X100308000Y-119812000D02*
X103908000Y-119812000D01*
X102108000Y-115362000D02*
G75*
G03*
X99751600Y-116863193I2J-2600002D01*
G01*
X103908000Y-119812000D02*
G75*
G03*
X104432184Y-119084795I-1799991J1849994D01*
G01*
X99783816Y-119084795D02*
G75*
G03*
X100308000Y-119812000I2324175J1122789D01*
G01*
X104464400Y-116863193D02*
G75*
G03*
X102108000Y-115362000I-2356399J-1098804D01*
G01*
%TO.C,U1*%
X104832000Y-92849000D02*
X104832000Y-110869000D01*
X107322000Y-92909000D02*
X107322000Y-110809000D01*
X110972000Y-110809000D02*
X112622000Y-110809000D01*
X112622000Y-110809000D02*
X112622000Y-92909000D01*
X112622000Y-92909000D02*
X107322000Y-92909000D01*
X115112000Y-92849000D02*
X104832000Y-92849000D01*
X115112000Y-110869000D02*
X115112000Y-92849000D01*
X107322000Y-110809000D02*
X108972000Y-110809000D01*
X104832000Y-110869000D02*
X115112000Y-110869000D01*
X110972000Y-110809000D02*
G75*
G03*
X108972000Y-110809000I-1000000J0D01*
G01*
%TO.C,R25*%
X123852000Y-152622000D02*
X126592000Y-152622000D01*
X125222000Y-145312000D02*
X125222000Y-146082000D01*
X125222000Y-153392000D02*
X125222000Y-152622000D01*
X126592000Y-152622000D02*
X126592000Y-146082000D01*
X126592000Y-146082000D02*
X123852000Y-146082000D01*
X123852000Y-146082000D02*
X123852000Y-152622000D01*
%TO.C,J6*%
X37170000Y-126230000D02*
X37170000Y-118550000D01*
X37170000Y-128830000D02*
X37170000Y-127500000D01*
X39830000Y-126230000D02*
X37170000Y-126230000D01*
X39830000Y-126230000D02*
X39830000Y-118550000D01*
X38500000Y-128830000D02*
X37170000Y-128830000D01*
X39830000Y-118550000D02*
X37170000Y-118550000D01*
%TD*%
M02*
