%TF.GenerationSoftware,KiCad,Pcbnew,(6.0.0-0)*%
%TF.CreationDate,2022-06-17T06:04:18+01:00*%
%TF.ProjectId,4u-damped-integrator,34752d64-616d-4706-9564-2d696e746567,r01*%
%TF.SameCoordinates,Original*%
%TF.FileFunction,Profile,NP*%
%FSLAX46Y46*%
G04 Gerber Fmt 4.6, Leading zero omitted, Abs format (unit mm)*
G04 Created by KiCad (PCBNEW (6.0.0-0)) date 2022-06-17 06:04:18*
%MOMM*%
%LPD*%
G01*
G04 APERTURE LIST*
%TA.AperFunction,Profile*%
%ADD10C,0.050000*%
%TD*%
G04 APERTURE END LIST*
D10*
X86000000Y-54500000D02*
G75*
G03*
X84000000Y-54500000I-1000000J0D01*
G01*
X84000000Y-73000000D02*
G75*
G03*
X86000000Y-73000000I1000000J0D01*
G01*
X86000000Y-50500000D02*
X86000000Y-31000000D01*
X84000000Y-118000000D02*
G75*
G03*
X86000000Y-118000000I1000000J0D01*
G01*
X86000000Y-118000000D02*
X86000000Y-99500000D01*
X84000000Y-95500000D02*
G75*
G03*
X86000000Y-95500000I1000000J0D01*
G01*
X86000000Y-179000000D02*
G75*
G03*
X87000000Y-180000000I999999J-1D01*
G01*
X133000000Y-180000000D02*
X87000000Y-180000000D01*
X84000000Y-31000000D02*
X84000000Y-50500000D01*
X84000000Y-31000000D02*
G75*
G03*
X83000000Y-30000000I-999999J1D01*
G01*
X84000000Y-140500000D02*
G75*
G03*
X86000000Y-140500000I1000000J0D01*
G01*
X87000000Y-30000000D02*
G75*
G03*
X86000000Y-31000000I-1J-999999D01*
G01*
X133000000Y-180000000D02*
G75*
G03*
X134000000Y-179000000I1J999999D01*
G01*
X86000000Y-99500000D02*
G75*
G03*
X84000000Y-99500000I-1000000J0D01*
G01*
X83000000Y-180000000D02*
G75*
G03*
X84000000Y-179000000I1J999999D01*
G01*
X86000000Y-167000000D02*
G75*
G03*
X84000000Y-167000000I-1000000J0D01*
G01*
X86000000Y-144500000D02*
G75*
G03*
X84000000Y-144500000I-1000000J0D01*
G01*
X87000000Y-30000000D02*
X133000000Y-30000000D01*
X84000000Y-122000000D02*
X84000000Y-140500000D01*
X37000000Y-30000000D02*
G75*
G03*
X36000000Y-31000000I-1J-999999D01*
G01*
X86000000Y-179000000D02*
X86000000Y-167000000D01*
X134000000Y-31000000D02*
X134000000Y-179000000D01*
X36000000Y-179000000D02*
X36000000Y-31000000D01*
X84000000Y-50500000D02*
G75*
G03*
X86000000Y-50500000I1000000J0D01*
G01*
X84000000Y-163000000D02*
G75*
G03*
X86000000Y-163000000I1000000J0D01*
G01*
X86000000Y-95500000D02*
X86000000Y-77000000D01*
X86000000Y-73000000D02*
X86000000Y-54500000D01*
X84000000Y-99500000D02*
X84000000Y-118000000D01*
X37000000Y-30000000D02*
X83000000Y-30000000D01*
X84000000Y-77000000D02*
X84000000Y-95500000D01*
X86000000Y-122000000D02*
G75*
G03*
X84000000Y-122000000I-1000000J0D01*
G01*
X84000000Y-144500000D02*
X84000000Y-163000000D01*
X86000000Y-77000000D02*
G75*
G03*
X84000000Y-77000000I-1000000J0D01*
G01*
X84000000Y-54500000D02*
X84000000Y-73000000D01*
X84000000Y-167000000D02*
X84000000Y-179000000D01*
X134000000Y-31000000D02*
G75*
G03*
X133000000Y-30000000I-999999J1D01*
G01*
X86000000Y-140500000D02*
X86000000Y-122000000D01*
X86000000Y-163000000D02*
X86000000Y-144500000D01*
X83000000Y-180000000D02*
X37000000Y-180000000D01*
X36000000Y-179000000D02*
G75*
G03*
X37000000Y-180000000I999999J-1D01*
G01*
M02*
