%TF.GenerationSoftware,KiCad,Pcbnew,(6.0.0-0)*%
%TF.CreationDate,2022-06-17T06:04:18+01:00*%
%TF.ProjectId,4u-damped-integrator,34752d64-616d-4706-9564-2d696e746567,r01*%
%TF.SameCoordinates,Original*%
%TF.FileFunction,Legend,Bot*%
%TF.FilePolarity,Positive*%
%FSLAX46Y46*%
G04 Gerber Fmt 4.6, Leading zero omitted, Abs format (unit mm)*
G04 Created by KiCad (PCBNEW (6.0.0-0)) date 2022-06-17 06:04:18*
%MOMM*%
%LPD*%
G01*
G04 APERTURE LIST*
%ADD10C,0.150000*%
%ADD11C,0.120000*%
G04 APERTURE END LIST*
D10*
X63785714Y-65647380D02*
X63214285Y-65647380D01*
X63500000Y-66647380D02*
X63500000Y-65647380D01*
X62880952Y-66647380D02*
X62880952Y-65647380D01*
X62452380Y-66647380D02*
X62452380Y-66123571D01*
X62500000Y-66028333D01*
X62595238Y-65980714D01*
X62738095Y-65980714D01*
X62833333Y-66028333D01*
X62880952Y-66075952D01*
X61976190Y-66647380D02*
X61976190Y-65980714D01*
X61976190Y-65647380D02*
X62023809Y-65695000D01*
X61976190Y-65742619D01*
X61928571Y-65695000D01*
X61976190Y-65647380D01*
X61976190Y-65742619D01*
X61547619Y-66599761D02*
X61452380Y-66647380D01*
X61261904Y-66647380D01*
X61166666Y-66599761D01*
X61119047Y-66504523D01*
X61119047Y-66456904D01*
X61166666Y-66361666D01*
X61261904Y-66314047D01*
X61404761Y-66314047D01*
X61500000Y-66266428D01*
X61547619Y-66171190D01*
X61547619Y-66123571D01*
X61500000Y-66028333D01*
X61404761Y-65980714D01*
X61261904Y-65980714D01*
X61166666Y-66028333D01*
X59976190Y-66599761D02*
X59880952Y-66647380D01*
X59690476Y-66647380D01*
X59595238Y-66599761D01*
X59547619Y-66504523D01*
X59547619Y-66456904D01*
X59595238Y-66361666D01*
X59690476Y-66314047D01*
X59833333Y-66314047D01*
X59928571Y-66266428D01*
X59976190Y-66171190D01*
X59976190Y-66123571D01*
X59928571Y-66028333D01*
X59833333Y-65980714D01*
X59690476Y-65980714D01*
X59595238Y-66028333D01*
X59119047Y-66647380D02*
X59119047Y-65980714D01*
X59119047Y-65647380D02*
X59166666Y-65695000D01*
X59119047Y-65742619D01*
X59071428Y-65695000D01*
X59119047Y-65647380D01*
X59119047Y-65742619D01*
X58214285Y-66647380D02*
X58214285Y-65647380D01*
X58214285Y-66599761D02*
X58309523Y-66647380D01*
X58500000Y-66647380D01*
X58595238Y-66599761D01*
X58642857Y-66552142D01*
X58690476Y-66456904D01*
X58690476Y-66171190D01*
X58642857Y-66075952D01*
X58595238Y-66028333D01*
X58500000Y-65980714D01*
X58309523Y-65980714D01*
X58214285Y-66028333D01*
X57357142Y-66599761D02*
X57452380Y-66647380D01*
X57642857Y-66647380D01*
X57738095Y-66599761D01*
X57785714Y-66504523D01*
X57785714Y-66123571D01*
X57738095Y-66028333D01*
X57642857Y-65980714D01*
X57452380Y-65980714D01*
X57357142Y-66028333D01*
X57309523Y-66123571D01*
X57309523Y-66218809D01*
X57785714Y-66314047D01*
X65714285Y-67590714D02*
X65333333Y-67590714D01*
X65571428Y-67257380D02*
X65571428Y-68114523D01*
X65523809Y-68209761D01*
X65428571Y-68257380D01*
X65333333Y-68257380D01*
X64857142Y-68257380D02*
X64952380Y-68209761D01*
X65000000Y-68162142D01*
X65047619Y-68066904D01*
X65047619Y-67781190D01*
X65000000Y-67685952D01*
X64952380Y-67638333D01*
X64857142Y-67590714D01*
X64714285Y-67590714D01*
X64619047Y-67638333D01*
X64571428Y-67685952D01*
X64523809Y-67781190D01*
X64523809Y-68066904D01*
X64571428Y-68162142D01*
X64619047Y-68209761D01*
X64714285Y-68257380D01*
X64857142Y-68257380D01*
X64190476Y-67590714D02*
X64000000Y-68257380D01*
X63809523Y-67781190D01*
X63619047Y-68257380D01*
X63428571Y-67590714D01*
X62619047Y-68257380D02*
X62619047Y-67733571D01*
X62666666Y-67638333D01*
X62761904Y-67590714D01*
X62952380Y-67590714D01*
X63047619Y-67638333D01*
X62619047Y-68209761D02*
X62714285Y-68257380D01*
X62952380Y-68257380D01*
X63047619Y-68209761D01*
X63095238Y-68114523D01*
X63095238Y-68019285D01*
X63047619Y-67924047D01*
X62952380Y-67876428D01*
X62714285Y-67876428D01*
X62619047Y-67828809D01*
X62142857Y-68257380D02*
X62142857Y-67590714D01*
X62142857Y-67781190D02*
X62095238Y-67685952D01*
X62047619Y-67638333D01*
X61952380Y-67590714D01*
X61857142Y-67590714D01*
X61095238Y-68257380D02*
X61095238Y-67257380D01*
X61095238Y-68209761D02*
X61190476Y-68257380D01*
X61380952Y-68257380D01*
X61476190Y-68209761D01*
X61523809Y-68162142D01*
X61571428Y-68066904D01*
X61571428Y-67781190D01*
X61523809Y-67685952D01*
X61476190Y-67638333D01*
X61380952Y-67590714D01*
X61190476Y-67590714D01*
X61095238Y-67638333D01*
X60666666Y-68209761D02*
X60571428Y-68257380D01*
X60380952Y-68257380D01*
X60285714Y-68209761D01*
X60238095Y-68114523D01*
X60238095Y-68066904D01*
X60285714Y-67971666D01*
X60380952Y-67924047D01*
X60523809Y-67924047D01*
X60619047Y-67876428D01*
X60666666Y-67781190D01*
X60666666Y-67733571D01*
X60619047Y-67638333D01*
X60523809Y-67590714D01*
X60380952Y-67590714D01*
X60285714Y-67638333D01*
X59047619Y-67590714D02*
X59047619Y-68590714D01*
X59047619Y-67638333D02*
X58952380Y-67590714D01*
X58761904Y-67590714D01*
X58666666Y-67638333D01*
X58619047Y-67685952D01*
X58571428Y-67781190D01*
X58571428Y-68066904D01*
X58619047Y-68162142D01*
X58666666Y-68209761D01*
X58761904Y-68257380D01*
X58952380Y-68257380D01*
X59047619Y-68209761D01*
X57714285Y-68257380D02*
X57714285Y-67733571D01*
X57761904Y-67638333D01*
X57857142Y-67590714D01*
X58047619Y-67590714D01*
X58142857Y-67638333D01*
X57714285Y-68209761D02*
X57809523Y-68257380D01*
X58047619Y-68257380D01*
X58142857Y-68209761D01*
X58190476Y-68114523D01*
X58190476Y-68019285D01*
X58142857Y-67924047D01*
X58047619Y-67876428D01*
X57809523Y-67876428D01*
X57714285Y-67828809D01*
X57238095Y-67590714D02*
X57238095Y-68257380D01*
X57238095Y-67685952D02*
X57190476Y-67638333D01*
X57095238Y-67590714D01*
X56952380Y-67590714D01*
X56857142Y-67638333D01*
X56809523Y-67733571D01*
X56809523Y-68257380D01*
X55952380Y-68209761D02*
X56047619Y-68257380D01*
X56238095Y-68257380D01*
X56333333Y-68209761D01*
X56380952Y-68114523D01*
X56380952Y-67733571D01*
X56333333Y-67638333D01*
X56238095Y-67590714D01*
X56047619Y-67590714D01*
X55952380Y-67638333D01*
X55904761Y-67733571D01*
X55904761Y-67828809D01*
X56380952Y-67924047D01*
X55333333Y-68257380D02*
X55428571Y-68209761D01*
X55476190Y-68114523D01*
X55476190Y-67257380D01*
%TO.C,J17*%
X106108380Y-31857380D02*
X105775047Y-32857380D01*
X105441714Y-31857380D01*
X105108380Y-32476428D02*
X104346476Y-32476428D01*
X104727428Y-32857380D02*
X104727428Y-32095476D01*
X113728380Y-31984380D02*
X113395047Y-32984380D01*
X113061714Y-31984380D01*
X112728380Y-32603428D02*
X111966476Y-32603428D01*
%TO.C,RV3*%
X68545238Y-127552380D02*
X68878571Y-127076190D01*
X69116666Y-127552380D02*
X69116666Y-126552380D01*
X68735714Y-126552380D01*
X68640476Y-126600000D01*
X68592857Y-126647619D01*
X68545238Y-126742857D01*
X68545238Y-126885714D01*
X68592857Y-126980952D01*
X68640476Y-127028571D01*
X68735714Y-127076190D01*
X69116666Y-127076190D01*
X68259523Y-126552380D02*
X67926190Y-127552380D01*
X67592857Y-126552380D01*
X67354761Y-126552380D02*
X66735714Y-126552380D01*
X67069047Y-126933333D01*
X66926190Y-126933333D01*
X66830952Y-126980952D01*
X66783333Y-127028571D01*
X66735714Y-127123809D01*
X66735714Y-127361904D01*
X66783333Y-127457142D01*
X66830952Y-127504761D01*
X66926190Y-127552380D01*
X67211904Y-127552380D01*
X67307142Y-127504761D01*
X67354761Y-127457142D01*
%TO.C,J13*%
X132309523Y-60782380D02*
X132309523Y-61496666D01*
X132357142Y-61639523D01*
X132452380Y-61734761D01*
X132595238Y-61782380D01*
X132690476Y-61782380D01*
X131309523Y-61782380D02*
X131880952Y-61782380D01*
X131595238Y-61782380D02*
X131595238Y-60782380D01*
X131690476Y-60925238D01*
X131785714Y-61020476D01*
X131880952Y-61068095D01*
X130976190Y-60782380D02*
X130357142Y-60782380D01*
X130690476Y-61163333D01*
X130547619Y-61163333D01*
X130452380Y-61210952D01*
X130404761Y-61258571D01*
X130357142Y-61353809D01*
X130357142Y-61591904D01*
X130404761Y-61687142D01*
X130452380Y-61734761D01*
X130547619Y-61782380D01*
X130833333Y-61782380D01*
X130928571Y-61734761D01*
X130976190Y-61687142D01*
%TO.C,J20*%
X77152380Y-151090476D02*
X77866666Y-151090476D01*
X78009523Y-151042857D01*
X78104761Y-150947619D01*
X78152380Y-150804761D01*
X78152380Y-150709523D01*
X77247619Y-151519047D02*
X77200000Y-151566666D01*
X77152380Y-151661904D01*
X77152380Y-151900000D01*
X77200000Y-151995238D01*
X77247619Y-152042857D01*
X77342857Y-152090476D01*
X77438095Y-152090476D01*
X77580952Y-152042857D01*
X78152380Y-151471428D01*
X78152380Y-152090476D01*
X77152380Y-152709523D02*
X77152380Y-152804761D01*
X77200000Y-152900000D01*
X77247619Y-152947619D01*
X77342857Y-152995238D01*
X77533333Y-153042857D01*
X77771428Y-153042857D01*
X77961904Y-152995238D01*
X78057142Y-152947619D01*
X78104761Y-152900000D01*
X78152380Y-152804761D01*
X78152380Y-152709523D01*
X78104761Y-152614285D01*
X78057142Y-152566666D01*
X77961904Y-152519047D01*
X77771428Y-152471428D01*
X77533333Y-152471428D01*
X77342857Y-152519047D01*
X77247619Y-152566666D01*
X77200000Y-152614285D01*
X77152380Y-152709523D01*
%TO.C,J19*%
X48109523Y-146352380D02*
X48109523Y-147066666D01*
X48157142Y-147209523D01*
X48252380Y-147304761D01*
X48395238Y-147352380D01*
X48490476Y-147352380D01*
X47109523Y-147352380D02*
X47680952Y-147352380D01*
X47395238Y-147352380D02*
X47395238Y-146352380D01*
X47490476Y-146495238D01*
X47585714Y-146590476D01*
X47680952Y-146638095D01*
X46633333Y-147352380D02*
X46442857Y-147352380D01*
X46347619Y-147304761D01*
X46300000Y-147257142D01*
X46204761Y-147114285D01*
X46157142Y-146923809D01*
X46157142Y-146542857D01*
X46204761Y-146447619D01*
X46252380Y-146400000D01*
X46347619Y-146352380D01*
X46538095Y-146352380D01*
X46633333Y-146400000D01*
X46680952Y-146447619D01*
X46728571Y-146542857D01*
X46728571Y-146780952D01*
X46680952Y-146876190D01*
X46633333Y-146923809D01*
X46538095Y-146971428D01*
X46347619Y-146971428D01*
X46252380Y-146923809D01*
X46204761Y-146876190D01*
X46157142Y-146780952D01*
%TO.C,J10*%
X77152380Y-55840476D02*
X77866666Y-55840476D01*
X78009523Y-55792857D01*
X78104761Y-55697619D01*
X78152380Y-55554761D01*
X78152380Y-55459523D01*
X78152380Y-56840476D02*
X78152380Y-56269047D01*
X78152380Y-56554761D02*
X77152380Y-56554761D01*
X77295238Y-56459523D01*
X77390476Y-56364285D01*
X77438095Y-56269047D01*
X77152380Y-57459523D02*
X77152380Y-57554761D01*
X77200000Y-57650000D01*
X77247619Y-57697619D01*
X77342857Y-57745238D01*
X77533333Y-57792857D01*
X77771428Y-57792857D01*
X77961904Y-57745238D01*
X78057142Y-57697619D01*
X78104761Y-57650000D01*
X78152380Y-57554761D01*
X78152380Y-57459523D01*
X78104761Y-57364285D01*
X78057142Y-57316666D01*
X77961904Y-57269047D01*
X77771428Y-57221428D01*
X77533333Y-57221428D01*
X77342857Y-57269047D01*
X77247619Y-57316666D01*
X77200000Y-57364285D01*
X77152380Y-57459523D01*
%TO.C,J16*%
X77152380Y-36790476D02*
X77866666Y-36790476D01*
X78009523Y-36742857D01*
X78104761Y-36647619D01*
X78152380Y-36504761D01*
X78152380Y-36409523D01*
X78152380Y-37790476D02*
X78152380Y-37219047D01*
X78152380Y-37504761D02*
X77152380Y-37504761D01*
X77295238Y-37409523D01*
X77390476Y-37314285D01*
X77438095Y-37219047D01*
X77152380Y-38647619D02*
X77152380Y-38457142D01*
X77200000Y-38361904D01*
X77247619Y-38314285D01*
X77390476Y-38219047D01*
X77580952Y-38171428D01*
X77961904Y-38171428D01*
X78057142Y-38219047D01*
X78104761Y-38266666D01*
X78152380Y-38361904D01*
X78152380Y-38552380D01*
X78104761Y-38647619D01*
X78057142Y-38695238D01*
X77961904Y-38742857D01*
X77723809Y-38742857D01*
X77628571Y-38695238D01*
X77580952Y-38647619D01*
X77533333Y-38552380D01*
X77533333Y-38361904D01*
X77580952Y-38266666D01*
X77628571Y-38219047D01*
X77723809Y-38171428D01*
%TO.C,J2*%
X47633333Y-51102380D02*
X47633333Y-51816666D01*
X47680952Y-51959523D01*
X47776190Y-52054761D01*
X47919047Y-52102380D01*
X48014285Y-52102380D01*
X47204761Y-51197619D02*
X47157142Y-51150000D01*
X47061904Y-51102380D01*
X46823809Y-51102380D01*
X46728571Y-51150000D01*
X46680952Y-51197619D01*
X46633333Y-51292857D01*
X46633333Y-51388095D01*
X46680952Y-51530952D01*
X47252380Y-52102380D01*
X46633333Y-52102380D01*
%TO.C,J18*%
X48109523Y-165402380D02*
X48109523Y-166116666D01*
X48157142Y-166259523D01*
X48252380Y-166354761D01*
X48395238Y-166402380D01*
X48490476Y-166402380D01*
X47109523Y-166402380D02*
X47680952Y-166402380D01*
X47395238Y-166402380D02*
X47395238Y-165402380D01*
X47490476Y-165545238D01*
X47585714Y-165640476D01*
X47680952Y-165688095D01*
X46538095Y-165830952D02*
X46633333Y-165783333D01*
X46680952Y-165735714D01*
X46728571Y-165640476D01*
X46728571Y-165592857D01*
X46680952Y-165497619D01*
X46633333Y-165450000D01*
X46538095Y-165402380D01*
X46347619Y-165402380D01*
X46252380Y-165450000D01*
X46204761Y-165497619D01*
X46157142Y-165592857D01*
X46157142Y-165640476D01*
X46204761Y-165735714D01*
X46252380Y-165783333D01*
X46347619Y-165830952D01*
X46538095Y-165830952D01*
X46633333Y-165878571D01*
X46680952Y-165926190D01*
X46728571Y-166021428D01*
X46728571Y-166211904D01*
X46680952Y-166307142D01*
X46633333Y-166354761D01*
X46538095Y-166402380D01*
X46347619Y-166402380D01*
X46252380Y-166354761D01*
X46204761Y-166307142D01*
X46157142Y-166211904D01*
X46157142Y-166021428D01*
X46204761Y-165926190D01*
X46252380Y-165878571D01*
X46347619Y-165830952D01*
%TO.C,J9*%
X77152380Y-75366666D02*
X77866666Y-75366666D01*
X78009523Y-75319047D01*
X78104761Y-75223809D01*
X78152380Y-75080952D01*
X78152380Y-74985714D01*
X78152380Y-75890476D02*
X78152380Y-76080952D01*
X78104761Y-76176190D01*
X78057142Y-76223809D01*
X77914285Y-76319047D01*
X77723809Y-76366666D01*
X77342857Y-76366666D01*
X77247619Y-76319047D01*
X77200000Y-76271428D01*
X77152380Y-76176190D01*
X77152380Y-75985714D01*
X77200000Y-75890476D01*
X77247619Y-75842857D01*
X77342857Y-75795238D01*
X77580952Y-75795238D01*
X77676190Y-75842857D01*
X77723809Y-75890476D01*
X77771428Y-75985714D01*
X77771428Y-76176190D01*
X77723809Y-76271428D01*
X77676190Y-76319047D01*
X77580952Y-76366666D01*
%TO.C,RV1*%
X43145238Y-127552380D02*
X43478571Y-127076190D01*
X43716666Y-127552380D02*
X43716666Y-126552380D01*
X43335714Y-126552380D01*
X43240476Y-126600000D01*
X43192857Y-126647619D01*
X43145238Y-126742857D01*
X43145238Y-126885714D01*
X43192857Y-126980952D01*
X43240476Y-127028571D01*
X43335714Y-127076190D01*
X43716666Y-127076190D01*
X42859523Y-126552380D02*
X42526190Y-127552380D01*
X42192857Y-126552380D01*
X41335714Y-127552380D02*
X41907142Y-127552380D01*
X41621428Y-127552380D02*
X41621428Y-126552380D01*
X41716666Y-126695238D01*
X41811904Y-126790476D01*
X41907142Y-126838095D01*
%TO.C,J8*%
X47633333Y-32052380D02*
X47633333Y-32766666D01*
X47680952Y-32909523D01*
X47776190Y-33004761D01*
X47919047Y-33052380D01*
X48014285Y-33052380D01*
X47014285Y-32480952D02*
X47109523Y-32433333D01*
X47157142Y-32385714D01*
X47204761Y-32290476D01*
X47204761Y-32242857D01*
X47157142Y-32147619D01*
X47109523Y-32100000D01*
X47014285Y-32052380D01*
X46823809Y-32052380D01*
X46728571Y-32100000D01*
X46680952Y-32147619D01*
X46633333Y-32242857D01*
X46633333Y-32290476D01*
X46680952Y-32385714D01*
X46728571Y-32433333D01*
X46823809Y-32480952D01*
X47014285Y-32480952D01*
X47109523Y-32528571D01*
X47157142Y-32576190D01*
X47204761Y-32671428D01*
X47204761Y-32861904D01*
X47157142Y-32957142D01*
X47109523Y-33004761D01*
X47014285Y-33052380D01*
X46823809Y-33052380D01*
X46728571Y-33004761D01*
X46680952Y-32957142D01*
X46633333Y-32861904D01*
X46633333Y-32671428D01*
X46680952Y-32576190D01*
X46728571Y-32528571D01*
X46823809Y-32480952D01*
%TO.C,J7*%
X88833333Y-129282380D02*
X88833333Y-129996666D01*
X88880952Y-130139523D01*
X88976190Y-130234761D01*
X89119047Y-130282380D01*
X89214285Y-130282380D01*
X88452380Y-129282380D02*
X87785714Y-129282380D01*
X88214285Y-130282380D01*
%TO.C,J3*%
X47633333Y-89202380D02*
X47633333Y-89916666D01*
X47680952Y-90059523D01*
X47776190Y-90154761D01*
X47919047Y-90202380D01*
X48014285Y-90202380D01*
X47252380Y-89202380D02*
X46633333Y-89202380D01*
X46966666Y-89583333D01*
X46823809Y-89583333D01*
X46728571Y-89630952D01*
X46680952Y-89678571D01*
X46633333Y-89773809D01*
X46633333Y-90011904D01*
X46680952Y-90107142D01*
X46728571Y-90154761D01*
X46823809Y-90202380D01*
X47109523Y-90202380D01*
X47204761Y-90154761D01*
X47252380Y-90107142D01*
%TO.C,RV4*%
X68545238Y-108502380D02*
X68878571Y-108026190D01*
X69116666Y-108502380D02*
X69116666Y-107502380D01*
X68735714Y-107502380D01*
X68640476Y-107550000D01*
X68592857Y-107597619D01*
X68545238Y-107692857D01*
X68545238Y-107835714D01*
X68592857Y-107930952D01*
X68640476Y-107978571D01*
X68735714Y-108026190D01*
X69116666Y-108026190D01*
X68259523Y-107502380D02*
X67926190Y-108502380D01*
X67592857Y-107502380D01*
X66830952Y-107835714D02*
X66830952Y-108502380D01*
X67069047Y-107454761D02*
X67307142Y-108169047D01*
X66688095Y-108169047D01*
%TO.C,J5*%
X88833333Y-60782380D02*
X88833333Y-61496666D01*
X88880952Y-61639523D01*
X88976190Y-61734761D01*
X89119047Y-61782380D01*
X89214285Y-61782380D01*
X87880952Y-60782380D02*
X88357142Y-60782380D01*
X88404761Y-61258571D01*
X88357142Y-61210952D01*
X88261904Y-61163333D01*
X88023809Y-61163333D01*
X87928571Y-61210952D01*
X87880952Y-61258571D01*
X87833333Y-61353809D01*
X87833333Y-61591904D01*
X87880952Y-61687142D01*
X87928571Y-61734761D01*
X88023809Y-61782380D01*
X88261904Y-61782380D01*
X88357142Y-61734761D01*
X88404761Y-61687142D01*
%TO.C,J1*%
X47633333Y-70152380D02*
X47633333Y-70866666D01*
X47680952Y-71009523D01*
X47776190Y-71104761D01*
X47919047Y-71152380D01*
X48014285Y-71152380D01*
X46633333Y-71152380D02*
X47204761Y-71152380D01*
X46919047Y-71152380D02*
X46919047Y-70152380D01*
X47014285Y-70295238D01*
X47109523Y-70390476D01*
X47204761Y-70438095D01*
%TO.C,J21*%
X77152380Y-170140476D02*
X77866666Y-170140476D01*
X78009523Y-170092857D01*
X78104761Y-169997619D01*
X78152380Y-169854761D01*
X78152380Y-169759523D01*
X77247619Y-170569047D02*
X77200000Y-170616666D01*
X77152380Y-170711904D01*
X77152380Y-170950000D01*
X77200000Y-171045238D01*
X77247619Y-171092857D01*
X77342857Y-171140476D01*
X77438095Y-171140476D01*
X77580952Y-171092857D01*
X78152380Y-170521428D01*
X78152380Y-171140476D01*
X78152380Y-172092857D02*
X78152380Y-171521428D01*
X78152380Y-171807142D02*
X77152380Y-171807142D01*
X77295238Y-171711904D01*
X77390476Y-171616666D01*
X77438095Y-171521428D01*
%TO.C,J23*%
X104122380Y-176190476D02*
X104836666Y-176190476D01*
X104979523Y-176142857D01*
X105074761Y-176047619D01*
X105122380Y-175904761D01*
X105122380Y-175809523D01*
X104217619Y-176619047D02*
X104170000Y-176666666D01*
X104122380Y-176761904D01*
X104122380Y-177000000D01*
X104170000Y-177095238D01*
X104217619Y-177142857D01*
X104312857Y-177190476D01*
X104408095Y-177190476D01*
X104550952Y-177142857D01*
X105122380Y-176571428D01*
X105122380Y-177190476D01*
X104122380Y-177523809D02*
X104122380Y-178142857D01*
X104503333Y-177809523D01*
X104503333Y-177952380D01*
X104550952Y-178047619D01*
X104598571Y-178095238D01*
X104693809Y-178142857D01*
X104931904Y-178142857D01*
X105027142Y-178095238D01*
X105074761Y-178047619D01*
X105122380Y-177952380D01*
X105122380Y-177666666D01*
X105074761Y-177571428D01*
X105027142Y-177523809D01*
%TO.C,J11*%
X77152380Y-93940476D02*
X77866666Y-93940476D01*
X78009523Y-93892857D01*
X78104761Y-93797619D01*
X78152380Y-93654761D01*
X78152380Y-93559523D01*
X78152380Y-94940476D02*
X78152380Y-94369047D01*
X78152380Y-94654761D02*
X77152380Y-94654761D01*
X77295238Y-94559523D01*
X77390476Y-94464285D01*
X77438095Y-94369047D01*
X78152380Y-95892857D02*
X78152380Y-95321428D01*
X78152380Y-95607142D02*
X77152380Y-95607142D01*
X77295238Y-95511904D01*
X77390476Y-95416666D01*
X77438095Y-95321428D01*
%TO.C,RV2*%
X43145238Y-108502380D02*
X43478571Y-108026190D01*
X43716666Y-108502380D02*
X43716666Y-107502380D01*
X43335714Y-107502380D01*
X43240476Y-107550000D01*
X43192857Y-107597619D01*
X43145238Y-107692857D01*
X43145238Y-107835714D01*
X43192857Y-107930952D01*
X43240476Y-107978571D01*
X43335714Y-108026190D01*
X43716666Y-108026190D01*
X42859523Y-107502380D02*
X42526190Y-108502380D01*
X42192857Y-107502380D01*
X41907142Y-107597619D02*
X41859523Y-107550000D01*
X41764285Y-107502380D01*
X41526190Y-107502380D01*
X41430952Y-107550000D01*
X41383333Y-107597619D01*
X41335714Y-107692857D01*
X41335714Y-107788095D01*
X41383333Y-107930952D01*
X41954761Y-108502380D01*
X41335714Y-108502380D01*
%TO.C,J15*%
X132309523Y-126782380D02*
X132309523Y-127496666D01*
X132357142Y-127639523D01*
X132452380Y-127734761D01*
X132595238Y-127782380D01*
X132690476Y-127782380D01*
X131309523Y-127782380D02*
X131880952Y-127782380D01*
X131595238Y-127782380D02*
X131595238Y-126782380D01*
X131690476Y-126925238D01*
X131785714Y-127020476D01*
X131880952Y-127068095D01*
X130404761Y-126782380D02*
X130880952Y-126782380D01*
X130928571Y-127258571D01*
X130880952Y-127210952D01*
X130785714Y-127163333D01*
X130547619Y-127163333D01*
X130452380Y-127210952D01*
X130404761Y-127258571D01*
X130357142Y-127353809D01*
X130357142Y-127591904D01*
X130404761Y-127687142D01*
X130452380Y-127734761D01*
X130547619Y-127782380D01*
X130785714Y-127782380D01*
X130880952Y-127734761D01*
X130928571Y-127687142D01*
D11*
%TO.C,RV3*%
X76390000Y-139470000D02*
X77570000Y-139470000D01*
X71040000Y-139470000D02*
X71870000Y-139470000D01*
X77580000Y-139470000D02*
X77580000Y-134750000D01*
X67830000Y-127880000D02*
X77570000Y-127880000D01*
X67830000Y-130940000D02*
X67830000Y-127880000D01*
X77570000Y-130940000D02*
X77570000Y-127880000D01*
X67830000Y-139470000D02*
X69320000Y-139470000D01*
X72200000Y-132850000D02*
X73200000Y-132850000D01*
X73490000Y-139470000D02*
X74020000Y-139470000D01*
X72700000Y-132350000D02*
X72700000Y-133350000D01*
X67830000Y-139470000D02*
X67830000Y-134750000D01*
%TO.C,J13*%
X130170000Y-57730000D02*
X130170000Y-50050000D01*
X130170000Y-50050000D02*
X132830000Y-50050000D01*
X130170000Y-59000000D02*
X130170000Y-60330000D01*
X130170000Y-57730000D02*
X132830000Y-57730000D01*
X132830000Y-57730000D02*
X132830000Y-50050000D01*
X130170000Y-60330000D02*
X131500000Y-60330000D01*
%TO.C,J20*%
X76764000Y-151900000D02*
X76764000Y-148852000D01*
X75748000Y-147836000D02*
X72700000Y-147836000D01*
X76764000Y-148852000D02*
G75*
G03*
X75748000Y-147836000I-1016002J-2D01*
G01*
X72700000Y-147836000D02*
G75*
G03*
X76764000Y-151900000I0J-4064000D01*
G01*
%TO.C,J19*%
X43236000Y-148852000D02*
X43236000Y-151900000D01*
X47300000Y-147836000D02*
X44252000Y-147836000D01*
X44252000Y-147836000D02*
G75*
G03*
X43236000Y-148852000I2J-1016002D01*
G01*
X43236000Y-151900000D02*
G75*
G03*
X47300000Y-147836000I4064000J0D01*
G01*
%TO.C,J10*%
X75748000Y-52586000D02*
X72700000Y-52586000D01*
X76764000Y-56650000D02*
X76764000Y-53602000D01*
X72700000Y-52586000D02*
G75*
G03*
X76764000Y-56650000I0J-4064000D01*
G01*
X76764000Y-53602000D02*
G75*
G03*
X75748000Y-52586000I-1016002J-2D01*
G01*
%TO.C,J16*%
X75748000Y-33536000D02*
X72700000Y-33536000D01*
X76764000Y-37600000D02*
X76764000Y-34552000D01*
X76764000Y-34552000D02*
G75*
G03*
X75748000Y-33536000I-1016002J-2D01*
G01*
X72700000Y-33536000D02*
G75*
G03*
X76764000Y-37600000I0J-4064000D01*
G01*
%TO.C,J2*%
X43236000Y-53602000D02*
X43236000Y-56650000D01*
X47300000Y-52586000D02*
X44252000Y-52586000D01*
X44252000Y-52586000D02*
G75*
G03*
X43236000Y-53602000I2J-1016002D01*
G01*
X43236000Y-56650000D02*
G75*
G03*
X47300000Y-52586000I4064000J0D01*
G01*
%TO.C,J18*%
X43236000Y-167902000D02*
X43236000Y-170950000D01*
X47300000Y-166886000D02*
X44252000Y-166886000D01*
X43236000Y-170950000D02*
G75*
G03*
X47300000Y-166886000I4064000J0D01*
G01*
X44252000Y-166886000D02*
G75*
G03*
X43236000Y-167902000I2J-1016002D01*
G01*
%TO.C,J9*%
X76764000Y-75700000D02*
X76764000Y-72652000D01*
X75748000Y-71636000D02*
X72700000Y-71636000D01*
X76764000Y-72652000D02*
G75*
G03*
X75748000Y-71636000I-1016002J-2D01*
G01*
X72700000Y-71636000D02*
G75*
G03*
X76764000Y-75700000I0J-4064000D01*
G01*
%TO.C,RV1*%
X42430000Y-127880000D02*
X52170000Y-127880000D01*
X42430000Y-130940000D02*
X42430000Y-127880000D01*
X47300000Y-132350000D02*
X47300000Y-133350000D01*
X46800000Y-132850000D02*
X47800000Y-132850000D01*
X42430000Y-139470000D02*
X43920000Y-139470000D01*
X50990000Y-139470000D02*
X52170000Y-139470000D01*
X45640000Y-139470000D02*
X46470000Y-139470000D01*
X42430000Y-139470000D02*
X42430000Y-134750000D01*
X52180000Y-139470000D02*
X52180000Y-134750000D01*
X48090000Y-139470000D02*
X48620000Y-139470000D01*
X52170000Y-130940000D02*
X52170000Y-127880000D01*
%TO.C,J8*%
X43236000Y-34552000D02*
X43236000Y-37600000D01*
X47300000Y-33536000D02*
X44252000Y-33536000D01*
X43236000Y-37600000D02*
G75*
G03*
X47300000Y-33536000I4064000J0D01*
G01*
X44252000Y-33536000D02*
G75*
G03*
X43236000Y-34552000I2J-1016002D01*
G01*
%TO.C,J7*%
X87170000Y-127500000D02*
X87170000Y-128830000D01*
X87170000Y-118550000D02*
X89830000Y-118550000D01*
X87170000Y-126230000D02*
X89830000Y-126230000D01*
X87170000Y-128830000D02*
X88500000Y-128830000D01*
X89830000Y-126230000D02*
X89830000Y-118550000D01*
X87170000Y-126230000D02*
X87170000Y-118550000D01*
%TO.C,J3*%
X47300000Y-90686000D02*
X44252000Y-90686000D01*
X43236000Y-91702000D02*
X43236000Y-94750000D01*
X44252000Y-90686000D02*
G75*
G03*
X43236000Y-91702000I2J-1016002D01*
G01*
X43236000Y-94750000D02*
G75*
G03*
X47300000Y-90686000I4064000J0D01*
G01*
%TO.C,RV4*%
X72700000Y-113300000D02*
X72700000Y-114300000D01*
X67830000Y-111890000D02*
X67830000Y-108830000D01*
X73490000Y-120420000D02*
X74020000Y-120420000D01*
X67830000Y-120420000D02*
X67830000Y-115700000D01*
X76390000Y-120420000D02*
X77570000Y-120420000D01*
X77580000Y-120420000D02*
X77580000Y-115700000D01*
X67830000Y-120420000D02*
X69320000Y-120420000D01*
X67830000Y-108830000D02*
X77570000Y-108830000D01*
X71040000Y-120420000D02*
X71870000Y-120420000D01*
X77570000Y-111890000D02*
X77570000Y-108830000D01*
X72200000Y-113800000D02*
X73200000Y-113800000D01*
%TO.C,J5*%
X89830000Y-57730000D02*
X89830000Y-50050000D01*
X87170000Y-57730000D02*
X89830000Y-57730000D01*
X87170000Y-57730000D02*
X87170000Y-50050000D01*
X87170000Y-50050000D02*
X89830000Y-50050000D01*
X87170000Y-60330000D02*
X88500000Y-60330000D01*
X87170000Y-59000000D02*
X87170000Y-60330000D01*
%TO.C,J1*%
X43236000Y-72652000D02*
X43236000Y-75700000D01*
X47300000Y-71636000D02*
X44252000Y-71636000D01*
X44252000Y-71636000D02*
G75*
G03*
X43236000Y-72652000I2J-1016002D01*
G01*
X43236000Y-75700000D02*
G75*
G03*
X47300000Y-71636000I4064000J0D01*
G01*
%TO.C,J21*%
X76764000Y-170950000D02*
X76764000Y-167902000D01*
X75748000Y-166886000D02*
X72700000Y-166886000D01*
X72700000Y-166886000D02*
G75*
G03*
X76764000Y-170950000I0J-4064000D01*
G01*
X76764000Y-167902000D02*
G75*
G03*
X75748000Y-166886000I-1016002J-2D01*
G01*
%TO.C,J23*%
X108270000Y-175670000D02*
X108270000Y-178330000D01*
X108270000Y-178330000D02*
X115950000Y-178330000D01*
X115950000Y-175670000D02*
X115950000Y-178330000D01*
X105670000Y-175670000D02*
X105670000Y-177000000D01*
X108270000Y-175670000D02*
X115950000Y-175670000D01*
X107000000Y-175670000D02*
X105670000Y-175670000D01*
%TO.C,J11*%
X76764000Y-94750000D02*
X76764000Y-91702000D01*
X75748000Y-90686000D02*
X72700000Y-90686000D01*
X76764000Y-91702000D02*
G75*
G03*
X75748000Y-90686000I-1016002J-2D01*
G01*
X72700000Y-90686000D02*
G75*
G03*
X76764000Y-94750000I0J-4064000D01*
G01*
%TO.C,RV2*%
X42430000Y-120420000D02*
X43920000Y-120420000D01*
X52180000Y-120420000D02*
X52180000Y-115700000D01*
X52170000Y-111890000D02*
X52170000Y-108830000D01*
X42430000Y-120420000D02*
X42430000Y-115700000D01*
X46800000Y-113800000D02*
X47800000Y-113800000D01*
X47300000Y-113300000D02*
X47300000Y-114300000D01*
X48090000Y-120420000D02*
X48620000Y-120420000D01*
X42430000Y-108830000D02*
X52170000Y-108830000D01*
X45640000Y-120420000D02*
X46470000Y-120420000D01*
X50990000Y-120420000D02*
X52170000Y-120420000D01*
X42430000Y-111890000D02*
X42430000Y-108830000D01*
%TO.C,J15*%
X130170000Y-126330000D02*
X131500000Y-126330000D01*
X130170000Y-123730000D02*
X132830000Y-123730000D01*
X130170000Y-123730000D02*
X130170000Y-121130000D01*
X130170000Y-125000000D02*
X130170000Y-126330000D01*
X130170000Y-121130000D02*
X132830000Y-121130000D01*
X132830000Y-123730000D02*
X132830000Y-121130000D01*
%TD*%
M02*
