%TF.GenerationSoftware,KiCad,Pcbnew,(6.0.0-0)*%
%TF.CreationDate,2022-06-17T06:04:18+01:00*%
%TF.ProjectId,4u-damped-integrator,34752d64-616d-4706-9564-2d696e746567,r01*%
%TF.SameCoordinates,Original*%
%TF.FileFunction,Soldermask,Top*%
%TF.FilePolarity,Negative*%
%FSLAX46Y46*%
G04 Gerber Fmt 4.6, Leading zero omitted, Abs format (unit mm)*
G04 Created by KiCad (PCBNEW (6.0.0-0)) date 2022-06-17 06:04:18*
%MOMM*%
%LPD*%
G01*
G04 APERTURE LIST*
G04 Aperture macros list*
%AMRoundRect*
0 Rectangle with rounded corners*
0 $1 Rounding radius*
0 $2 $3 $4 $5 $6 $7 $8 $9 X,Y pos of 4 corners*
0 Add a 4 corners polygon primitive as box body*
4,1,4,$2,$3,$4,$5,$6,$7,$8,$9,$2,$3,0*
0 Add four circle primitives for the rounded corners*
1,1,$1+$1,$2,$3*
1,1,$1+$1,$4,$5*
1,1,$1+$1,$6,$7*
1,1,$1+$1,$8,$9*
0 Add four rect primitives between the rounded corners*
20,1,$1+$1,$2,$3,$4,$5,0*
20,1,$1+$1,$4,$5,$6,$7,0*
20,1,$1+$1,$6,$7,$8,$9,0*
20,1,$1+$1,$8,$9,$2,$3,0*%
G04 Aperture macros list end*
%ADD10C,1.600000*%
%ADD11O,1.600000X1.600000*%
%ADD12R,1.500000X1.500000*%
%ADD13C,1.500000*%
%ADD14C,5.600000*%
%ADD15C,0.500000*%
%ADD16R,1.600000X1.600000*%
%ADD17R,1.700000X1.700000*%
%ADD18O,1.700000X1.700000*%
%ADD19R,2.200000X2.200000*%
%ADD20O,2.200000X2.200000*%
%ADD21RoundRect,0.250000X-0.620000X-0.845000X0.620000X-0.845000X0.620000X0.845000X-0.620000X0.845000X0*%
%ADD22O,1.740000X2.190000*%
%ADD23R,1.800000X1.800000*%
%ADD24O,1.800000X1.800000*%
%ADD25C,3.240000*%
%ADD26C,1.800000*%
%ADD27C,6.500000*%
G04 APERTURE END LIST*
D10*
%TO.C,R21*%
X99314000Y-163068000D03*
D11*
X99314000Y-152908000D03*
%TD*%
D12*
%TO.C,Q2*%
X96012000Y-120396000D03*
D13*
X96012000Y-117856000D03*
X96012000Y-115316000D03*
%TD*%
D12*
%TO.C,Q3*%
X117856000Y-116840000D03*
D13*
X115316000Y-116840000D03*
X112776000Y-116840000D03*
%TD*%
D10*
%TO.C,C5*%
X106172000Y-164592000D03*
X111172000Y-164592000D03*
%TD*%
%TO.C,R22*%
X102362000Y-152908000D03*
D11*
X102362000Y-163068000D03*
%TD*%
D10*
%TO.C,R11*%
X108458000Y-90932000D03*
D11*
X118618000Y-90932000D03*
%TD*%
D14*
%TO.C,H3*%
X89500000Y-176500000D03*
%TD*%
%TO.C,H2*%
X80500000Y-33500000D03*
%TD*%
D10*
%TO.C,R8*%
X92710000Y-107188000D03*
D11*
X102870000Y-107188000D03*
%TD*%
D15*
%TO.C,H8*%
X85750000Y-97500000D03*
X84250000Y-96750000D03*
X84250000Y-97500000D03*
X84250000Y-98250000D03*
X85750000Y-96750000D03*
X85750000Y-98250000D03*
%TD*%
D16*
%TO.C,U2*%
X113800000Y-79766000D03*
D11*
X113800000Y-77226000D03*
X113800000Y-74686000D03*
X113800000Y-72146000D03*
X113800000Y-69606000D03*
X113800000Y-67066000D03*
X113800000Y-64526000D03*
X113800000Y-61986000D03*
X106180000Y-61986000D03*
X106180000Y-64526000D03*
X106180000Y-67066000D03*
X106180000Y-69606000D03*
X106180000Y-72146000D03*
X106180000Y-74686000D03*
X106180000Y-77226000D03*
X106180000Y-79766000D03*
%TD*%
D17*
%TO.C,J14*%
X81500000Y-125000000D03*
D18*
X81500000Y-122460000D03*
%TD*%
D10*
%TO.C,R6*%
X92710000Y-93980000D03*
D11*
X102870000Y-93980000D03*
%TD*%
D15*
%TO.C,H10*%
X84250000Y-75000000D03*
X84250000Y-74250000D03*
X85750000Y-75750000D03*
X84250000Y-75750000D03*
X85750000Y-74250000D03*
X85750000Y-75000000D03*
%TD*%
D10*
%TO.C,C3*%
X122134000Y-110998000D03*
X117134000Y-110998000D03*
%TD*%
%TO.C,R19*%
X121920000Y-125984000D03*
D11*
X111760000Y-125984000D03*
%TD*%
D19*
%TO.C,D4*%
X121666000Y-155160000D03*
D20*
X121666000Y-145000000D03*
%TD*%
D10*
%TO.C,R4*%
X92710000Y-104140000D03*
D11*
X102870000Y-104140000D03*
%TD*%
D10*
%TO.C,R10*%
X89916000Y-113538000D03*
D11*
X89916000Y-103378000D03*
%TD*%
D10*
%TO.C,R1*%
X102870000Y-97028000D03*
D11*
X92710000Y-97028000D03*
%TD*%
D10*
%TO.C,R14*%
X127254000Y-104140000D03*
D11*
X117094000Y-104140000D03*
%TD*%
D15*
%TO.C,H6*%
X84250000Y-165000000D03*
X85750000Y-164250000D03*
X85750000Y-165000000D03*
X84250000Y-164250000D03*
X85750000Y-165750000D03*
X84250000Y-165750000D03*
%TD*%
D19*
%TO.C,D3*%
X121666000Y-157988000D03*
D20*
X121666000Y-168148000D03*
%TD*%
D10*
%TO.C,R18*%
X127254000Y-107188000D03*
D11*
X117094000Y-107188000D03*
%TD*%
D19*
%TO.C,D1*%
X98044000Y-46736000D03*
D20*
X98044000Y-36576000D03*
%TD*%
D10*
%TO.C,R15*%
X127254000Y-70104000D03*
D11*
X117094000Y-70104000D03*
%TD*%
D10*
%TO.C,R2*%
X92710000Y-73152000D03*
D11*
X102870000Y-73152000D03*
%TD*%
D10*
%TO.C,C10*%
X122000000Y-100584000D03*
X117000000Y-100584000D03*
%TD*%
D16*
%TO.C,C12*%
X113570000Y-46736000D03*
D10*
X115570000Y-46736000D03*
%TD*%
D15*
%TO.C,H7*%
X85750000Y-120000000D03*
X84250000Y-120000000D03*
X84250000Y-120750000D03*
X84250000Y-119250000D03*
X85750000Y-120750000D03*
X85750000Y-119250000D03*
%TD*%
D16*
%TO.C,U3*%
X113792000Y-160782000D03*
D11*
X113792000Y-158242000D03*
X113792000Y-155702000D03*
X113792000Y-153162000D03*
X106172000Y-153162000D03*
X106172000Y-155702000D03*
X106172000Y-158242000D03*
X106172000Y-160782000D03*
%TD*%
D10*
%TO.C,R5*%
X92710000Y-70104000D03*
D11*
X102870000Y-70104000D03*
%TD*%
D17*
%TO.C,J22*%
X57000000Y-177000000D03*
D18*
X59540000Y-177000000D03*
X62080000Y-177000000D03*
X64620000Y-177000000D03*
%TD*%
D15*
%TO.C,H5*%
X84250000Y-143250000D03*
X85750000Y-142500000D03*
X85750000Y-143250000D03*
X85750000Y-141750000D03*
X84250000Y-141750000D03*
X84250000Y-142500000D03*
%TD*%
D10*
%TO.C,R12*%
X127254000Y-73152000D03*
D11*
X117094000Y-73152000D03*
%TD*%
D10*
%TO.C,C9*%
X102870000Y-100584000D03*
X97870000Y-100584000D03*
%TD*%
%TO.C,C8*%
X122000000Y-66000000D03*
X117000000Y-66000000D03*
%TD*%
D17*
%TO.C,J12*%
X81500000Y-59000000D03*
D18*
X81500000Y-56460000D03*
X81500000Y-53920000D03*
X81500000Y-51380000D03*
%TD*%
D10*
%TO.C,R7*%
X92710000Y-79248000D03*
D11*
X102870000Y-79248000D03*
%TD*%
D21*
%TO.C,J17*%
X105156000Y-36596000D03*
D22*
X107696000Y-36596000D03*
X110236000Y-36596000D03*
X112776000Y-36596000D03*
%TD*%
D10*
%TO.C,R17*%
X127254000Y-79248000D03*
D11*
X117094000Y-79248000D03*
%TD*%
D12*
%TO.C,Q4*%
X123444000Y-119634000D03*
D13*
X123444000Y-117094000D03*
X123444000Y-114554000D03*
%TD*%
D10*
%TO.C,R23*%
X117856000Y-157734000D03*
D11*
X117856000Y-167894000D03*
%TD*%
D10*
%TO.C,R13*%
X127254000Y-76200000D03*
D11*
X117094000Y-76200000D03*
%TD*%
D14*
%TO.C,H4*%
X130500000Y-33500000D03*
%TD*%
D10*
%TO.C,C7*%
X103000000Y-66000000D03*
X98000000Y-66000000D03*
%TD*%
%TO.C,R20*%
X130048000Y-113538000D03*
D11*
X130048000Y-103378000D03*
%TD*%
D10*
%TO.C,C2*%
X102870000Y-86614000D03*
X97870000Y-86614000D03*
%TD*%
%TO.C,R26*%
X117856000Y-155448000D03*
D11*
X117856000Y-145288000D03*
%TD*%
D17*
%TO.C,J4*%
X38500000Y-59000000D03*
D18*
X38500000Y-56460000D03*
X38500000Y-53920000D03*
X38500000Y-51380000D03*
%TD*%
D10*
%TO.C,C6*%
X113792000Y-145114000D03*
X113792000Y-150114000D03*
%TD*%
D14*
%TO.C,H1*%
X39500000Y-176500000D03*
%TD*%
D10*
%TO.C,R3*%
X92710000Y-76200000D03*
D11*
X102870000Y-76200000D03*
%TD*%
D10*
%TO.C,R24*%
X128524000Y-144272000D03*
D11*
X128524000Y-154432000D03*
%TD*%
D10*
%TO.C,R9*%
X101600000Y-122682000D03*
D11*
X111760000Y-122682000D03*
%TD*%
D10*
%TO.C,R27*%
X125222000Y-156718000D03*
D11*
X125222000Y-166878000D03*
%TD*%
D10*
%TO.C,R16*%
X127254000Y-97028000D03*
D11*
X117094000Y-97028000D03*
%TD*%
D16*
%TO.C,C11*%
X102616000Y-46736000D03*
D10*
X104616000Y-46736000D03*
%TD*%
D15*
%TO.C,H9*%
X85750000Y-53250000D03*
X85750000Y-51750000D03*
X85750000Y-52500000D03*
X84250000Y-52500000D03*
X84250000Y-53250000D03*
X84250000Y-51750000D03*
%TD*%
D23*
%TO.C,D2*%
X120142000Y-36576000D03*
D24*
X120142000Y-46736000D03*
%TD*%
D10*
%TO.C,C4*%
X117094000Y-86614000D03*
X122094000Y-86614000D03*
%TD*%
%TO.C,C1*%
X97870000Y-110998000D03*
X102870000Y-110998000D03*
%TD*%
D12*
%TO.C,Q1*%
X99568000Y-117962000D03*
D13*
X102108000Y-117962000D03*
X104648000Y-117962000D03*
%TD*%
D16*
%TO.C,U1*%
X113782000Y-109479000D03*
D11*
X113782000Y-106939000D03*
X113782000Y-104399000D03*
X113782000Y-101859000D03*
X113782000Y-99319000D03*
X113782000Y-96779000D03*
X113782000Y-94239000D03*
X106162000Y-94239000D03*
X106162000Y-96779000D03*
X106162000Y-99319000D03*
X106162000Y-101859000D03*
X106162000Y-104399000D03*
X106162000Y-106939000D03*
X106162000Y-109479000D03*
%TD*%
D10*
%TO.C,R25*%
X125222000Y-144272000D03*
D11*
X125222000Y-154432000D03*
%TD*%
D17*
%TO.C,J6*%
X38500000Y-127500000D03*
D18*
X38500000Y-124960000D03*
X38500000Y-122420000D03*
X38500000Y-119880000D03*
%TD*%
D25*
%TO.C,RV3*%
X77500000Y-132850000D03*
X67900000Y-132850000D03*
D23*
X75200000Y-140350000D03*
D26*
X72700000Y-140350000D03*
X70200000Y-140350000D03*
%TD*%
D17*
%TO.C,J13*%
X131500000Y-59000000D03*
D18*
X131500000Y-56460000D03*
X131500000Y-53920000D03*
X131500000Y-51380000D03*
%TD*%
D10*
%TO.C,J20*%
X75748000Y-148852000D03*
D27*
X72700000Y-151900000D03*
%TD*%
%TO.C,J19*%
X47300000Y-151900000D03*
D10*
X44252000Y-148852000D03*
%TD*%
D27*
%TO.C,J10*%
X72700000Y-56650000D03*
D10*
X75748000Y-53602000D03*
%TD*%
D27*
%TO.C,J16*%
X72700000Y-37600000D03*
D10*
X75748000Y-34552000D03*
%TD*%
D27*
%TO.C,J2*%
X47300000Y-56650000D03*
D10*
X44252000Y-53602000D03*
%TD*%
%TO.C,J18*%
X44252000Y-167902000D03*
D27*
X47300000Y-170950000D03*
%TD*%
D10*
%TO.C,J9*%
X75748000Y-72652000D03*
D27*
X72700000Y-75700000D03*
%TD*%
D25*
%TO.C,RV1*%
X52100000Y-132850000D03*
X42500000Y-132850000D03*
D23*
X49800000Y-140350000D03*
D26*
X47300000Y-140350000D03*
X44800000Y-140350000D03*
%TD*%
D27*
%TO.C,J8*%
X47300000Y-37600000D03*
D10*
X44252000Y-34552000D03*
%TD*%
D17*
%TO.C,J7*%
X88500000Y-127500000D03*
D18*
X88500000Y-124960000D03*
X88500000Y-122420000D03*
X88500000Y-119880000D03*
%TD*%
D10*
%TO.C,J3*%
X44252000Y-91702000D03*
D27*
X47300000Y-94750000D03*
%TD*%
D25*
%TO.C,RV4*%
X67900000Y-113800000D03*
X77500000Y-113800000D03*
D23*
X75200000Y-121300000D03*
D26*
X72700000Y-121300000D03*
X70200000Y-121300000D03*
%TD*%
D17*
%TO.C,J5*%
X88500000Y-59000000D03*
D18*
X88500000Y-56460000D03*
X88500000Y-53920000D03*
X88500000Y-51380000D03*
%TD*%
D10*
%TO.C,J1*%
X44252000Y-72652000D03*
D27*
X47300000Y-75700000D03*
%TD*%
%TO.C,J21*%
X72700000Y-170950000D03*
D10*
X75748000Y-167902000D03*
%TD*%
D17*
%TO.C,J23*%
X107000000Y-177000000D03*
D18*
X109540000Y-177000000D03*
X112080000Y-177000000D03*
X114620000Y-177000000D03*
%TD*%
D10*
%TO.C,J11*%
X75748000Y-91702000D03*
D27*
X72700000Y-94750000D03*
%TD*%
D25*
%TO.C,RV2*%
X42500000Y-113800000D03*
X52100000Y-113800000D03*
D23*
X49800000Y-121300000D03*
D26*
X47300000Y-121300000D03*
X44800000Y-121300000D03*
%TD*%
D17*
%TO.C,J15*%
X131500000Y-125000000D03*
D18*
X131500000Y-122460000D03*
%TD*%
M02*
