M48
; DRILL file {KiCad (6.0.0-0)} date Friday, 17 June 2022 at 06:04:27
; FORMAT={-:-/ absolute / metric / decimal}
; #@! TF.CreationDate,2022-06-17T06:04:27+01:00
; #@! TF.GenerationSoftware,Kicad,Pcbnew,(6.0.0-0)
; #@! TF.FileFunction,MixedPlating,1,2
FMAT,2
METRIC
; #@! TA.AperFunction,Plated,PTH,ViaDrill
T1C0.381
; #@! TA.AperFunction,Plated,PTH,ComponentDrill
T2C0.800
; #@! TA.AperFunction,Plated,PTH,ComponentDrill
T3C0.900
; #@! TA.AperFunction,Plated,PTH,ComponentDrill
T4C1.000
; #@! TA.AperFunction,Plated,PTH,ComponentDrill
T5C1.100
; #@! TA.AperFunction,Plated,PTH,ComponentDrill
T6C1.190
; #@! TA.AperFunction,Plated,PTH,ComponentDrill
T7C2.000
; #@! TA.AperFunction,Plated,PTH,ComponentDrill
T8C3.200
; #@! TA.AperFunction,Plated,PTH,ComponentDrill
T9C5.100
; #@! TA.AperFunction,NonPlated,NPTH,ComponentDrill
T10C0.500
%
G90
G05
T1
X45.0Y-136.5
X105.0Y-113.5
X115.0Y-83.5
T2
X44.252Y-34.552
X44.252Y-53.602
X44.252Y-72.652
X44.252Y-91.702
X44.252Y-148.852
X44.252Y-167.902
X75.748Y-34.552
X75.748Y-53.602
X75.748Y-72.652
X75.748Y-91.702
X75.748Y-148.852
X75.748Y-167.902
X89.916Y-103.378
X89.916Y-113.538
X92.71Y-70.104
X92.71Y-73.152
X92.71Y-76.2
X92.71Y-79.248
X92.71Y-93.98
X92.71Y-97.028
X92.71Y-104.14
X92.71Y-107.188
X96.012Y-115.316
X96.012Y-117.856
X96.012Y-120.396
X97.87Y-86.614
X97.87Y-100.584
X97.87Y-110.998
X98.0Y-66.0
X99.314Y-152.908
X99.314Y-163.068
X99.568Y-117.962
X101.6Y-122.682
X102.108Y-117.962
X102.362Y-152.908
X102.362Y-163.068
X102.616Y-46.736
X102.87Y-70.104
X102.87Y-73.152
X102.87Y-76.2
X102.87Y-79.248
X102.87Y-86.614
X102.87Y-93.98
X102.87Y-97.028
X102.87Y-100.584
X102.87Y-104.14
X102.87Y-107.188
X102.87Y-110.998
X103.0Y-66.0
X104.616Y-46.736
X104.648Y-117.962
X106.162Y-94.239
X106.162Y-96.779
X106.162Y-99.319
X106.162Y-101.859
X106.162Y-104.399
X106.162Y-106.939
X106.162Y-109.479
X106.172Y-153.162
X106.172Y-155.702
X106.172Y-158.242
X106.172Y-160.782
X106.172Y-164.592
X106.18Y-61.986
X106.18Y-64.526
X106.18Y-67.066
X106.18Y-69.606
X106.18Y-72.146
X106.18Y-74.686
X106.18Y-77.226
X106.18Y-79.766
X108.458Y-90.932
X111.172Y-164.592
X111.76Y-122.682
X111.76Y-125.984
X112.776Y-116.84
X113.57Y-46.736
X113.782Y-94.239
X113.782Y-96.779
X113.782Y-99.319
X113.782Y-101.859
X113.782Y-104.399
X113.782Y-106.939
X113.782Y-109.479
X113.792Y-145.114
X113.792Y-150.114
X113.792Y-153.162
X113.792Y-155.702
X113.792Y-158.242
X113.792Y-160.782
X113.8Y-61.986
X113.8Y-64.526
X113.8Y-67.066
X113.8Y-69.606
X113.8Y-72.146
X113.8Y-74.686
X113.8Y-77.226
X113.8Y-79.766
X115.316Y-116.84
X115.57Y-46.736
X117.0Y-66.0
X117.0Y-100.584
X117.094Y-70.104
X117.094Y-73.152
X117.094Y-76.2
X117.094Y-79.248
X117.094Y-86.614
X117.094Y-97.028
X117.094Y-104.14
X117.094Y-107.188
X117.134Y-110.998
X117.856Y-116.84
X117.856Y-145.288
X117.856Y-155.448
X117.856Y-157.734
X117.856Y-167.894
X118.618Y-90.932
X121.92Y-125.984
X122.0Y-66.0
X122.0Y-100.584
X122.094Y-86.614
X122.134Y-110.998
X123.444Y-114.554
X123.444Y-117.094
X123.444Y-119.634
X125.222Y-144.272
X125.222Y-154.432
X125.222Y-156.718
X125.222Y-166.878
X127.254Y-70.104
X127.254Y-73.152
X127.254Y-76.2
X127.254Y-79.248
X127.254Y-97.028
X127.254Y-104.14
X127.254Y-107.188
X128.524Y-144.272
X128.524Y-154.432
X130.048Y-103.378
X130.048Y-113.538
T3
X120.142Y-36.576
X120.142Y-46.736
T4
X38.5Y-51.38
X38.5Y-53.92
X38.5Y-56.46
X38.5Y-59.0
X38.5Y-119.88
X38.5Y-122.42
X38.5Y-124.96
X38.5Y-127.5
X44.8Y-121.3
X44.8Y-140.35
X47.3Y-121.3
X47.3Y-140.35
X49.8Y-121.3
X49.8Y-140.35
X57.0Y-177.0
X59.54Y-177.0
X62.08Y-177.0
X64.62Y-177.0
X70.2Y-121.3
X70.2Y-140.35
X72.7Y-121.3
X72.7Y-140.35
X75.2Y-121.3
X75.2Y-140.35
X81.5Y-51.38
X81.5Y-53.92
X81.5Y-56.46
X81.5Y-59.0
X81.5Y-122.46
X81.5Y-125.0
X88.5Y-51.38
X88.5Y-53.92
X88.5Y-56.46
X88.5Y-59.0
X88.5Y-119.88
X88.5Y-122.42
X88.5Y-124.96
X88.5Y-127.5
X107.0Y-177.0
X109.54Y-177.0
X112.08Y-177.0
X114.62Y-177.0
X131.5Y-51.38
X131.5Y-53.92
X131.5Y-56.46
X131.5Y-59.0
X131.5Y-122.46
X131.5Y-125.0
T5
X98.044Y-36.576
X98.044Y-46.736
X121.666Y-145.0
X121.666Y-155.16
X121.666Y-157.988
X121.666Y-168.148
T6
X105.156Y-36.596
X107.696Y-36.596
X110.236Y-36.596
X112.776Y-36.596
T7
X42.5Y-113.8
X42.5Y-132.85
X52.1Y-113.8
X52.1Y-132.85
X67.9Y-113.8
X67.9Y-132.85
X77.5Y-113.8
X77.5Y-132.85
T8
X39.5Y-176.5
X80.5Y-33.5
X89.5Y-176.5
X130.5Y-33.5
T9
X47.3Y-37.6
X47.3Y-56.65
X47.3Y-75.7
X47.3Y-94.75
X47.3Y-151.9
X47.3Y-170.95
X72.7Y-37.6
X72.7Y-56.65
X72.7Y-75.7
X72.7Y-94.75
X72.7Y-151.9
X72.7Y-170.95
T10
X84.25Y-51.75
X84.25Y-52.5
X84.25Y-53.25
X84.25Y-74.25
X84.25Y-75.0
X84.25Y-75.75
X84.25Y-96.75
X84.25Y-97.5
X84.25Y-98.25
X84.25Y-119.25
X84.25Y-120.0
X84.25Y-120.75
X84.25Y-141.75
X84.25Y-142.5
X84.25Y-143.25
X84.25Y-164.25
X84.25Y-165.0
X84.25Y-165.75
X85.75Y-51.75
X85.75Y-52.5
X85.75Y-53.25
X85.75Y-74.25
X85.75Y-75.0
X85.75Y-75.75
X85.75Y-96.75
X85.75Y-97.5
X85.75Y-98.25
X85.75Y-119.25
X85.75Y-120.0
X85.75Y-120.75
X85.75Y-141.75
X85.75Y-142.5
X85.75Y-143.25
X85.75Y-164.25
X85.75Y-165.0
X85.75Y-165.75
T0
M30
