<?xml version="1.0" encoding="UTF-8" standalone="no"?>
<!-- Created with Inkscape (http://www.inkscape.org/) -->

<svg
   width="25.0mm"
   height="175.0mm"
   viewBox="0 0 25.0 175.0"
   version="1.1"
   id="svg1157"
   sodipodi:docname="pcb-layers.svg"
   inkscape:version="1.1 (c4e8f9e, 2021-05-24)"
   xmlns:inkscape="http://www.inkscape.org/namespaces/inkscape"
   xmlns:sodipodi="http://sodipodi.sourceforge.net/DTD/sodipodi-0.dtd"
   xmlns="http://www.w3.org/2000/svg"
   xmlns:svg="http://www.w3.org/2000/svg">
  <sodipodi:namedview
     id="namedview1159"
     pagecolor="#ffffff"
     bordercolor="#666666"
     borderopacity="1.0"
     inkscape:pageshadow="2"
     inkscape:pageopacity="0.0"
     inkscape:pagecheckerboard="0"
     inkscape:document-units="mm"
     showgrid="false"
     inkscape:zoom="1.0998546"
     inkscape:cx="92.284926"
     inkscape:cy="334.58968"
     inkscape:window-width="1577"
     inkscape:window-height="1156"
     inkscape:window-x="232"
     inkscape:window-y="176"
     inkscape:window-maximized="0"
     inkscape:current-layer="g1234"
     inkscape:showpageshadow="false" />
  <defs
     id="defs1154" />
  <g
     inkscape:label="[fixed] BG"
     inkscape:groupmode="layer"
     sodipodi:insensitive="true"
     id="g1226"
     style="display:inline">
    <rect
       x="0"
       y="0"
       width="25"
       height="175"
       style="fill:#ffffff;fill-opacity:1;stroke:none"
       id="rect1224" />
  </g>
  <g
     inkscape:label="Edge.Cuts"
     inkscape:groupmode="layer"
     id="g1228"
     style="display:inline">
    <path
       d="M 9.32553 3.08795 L 9.33333 3.2404 L 9.35623 3.38865 L 9.44416 3.66946 L 9.58311 3.92414 L 9.76685 4.14648 L 9.98915 4.33025 L 10.2438 4.46923 L 10.5246 4.55717 L 10.6728 4.58007 L 10.8252 4.58787 L 14.1748 4.58787 L 14.3272 4.58007 L 14.4754 4.55717 L 14.7562 4.46923 L 15.0108 4.33025 L 15.2332 4.14648 L 15.4169 3.92414 L 15.5558 3.66946 L 15.6438 3.38865 L 15.6667 3.2404 L 15.6745 3.08795 L 15.6745 2.912 L 15.6667 2.75956 L 15.6438 2.61131 L 15.5558 2.3305 L 15.4169 2.07581 L 15.2332 1.85347 L 15.0108 1.6697 L 14.7562 1.53073 L 14.4754 1.44278 L 14.3272 1.41989 L 14.1748 1.41208 L 10.8252 1.41208 L 10.6728 1.41989 L 10.5246 1.44278 L 10.2438 1.53073 L 9.98915 1.6697 L 9.76685 1.85347 L 9.58311 2.07581 L 9.44416 2.3305 L 9.35623 2.61131 L 9.33333 2.75956 L 9.32553 2.912 L 9.32553 3.08795"
       style="clip-rule:evenodd;fill:none;fill-rule:evenodd;stroke:#000000;stroke-width:0.351895px;stroke-linecap:round;stroke-linejoin:round"
       id="path830" />
    <path
       d="M 9.32553 172.087 L 9.33333 172.24 L 9.35623 172.388 L 9.44416 172.669 L 9.58311 172.923 L 9.76685 173.146 L 9.98915 173.329 L 10.2438 173.468 L 10.5246 173.556 L 10.6728 173.579 L 10.8252 173.587 L 14.1748 173.587 L 14.3272 173.579 L 14.4754 173.556 L 14.7562 173.468 L 15.0108 173.329 L 15.2332 173.146 L 15.4169 172.923 L 15.5558 172.669 L 15.6438 172.388 L 15.6667 172.24 L 15.6745 172.087 L 15.6745 171.912 L 15.6667 171.76 L 15.6438 171.611 L 15.5558 171.33 L 15.4169 171.076 L 15.2332 170.853 L 15.0108 170.67 L 14.7562 170.531 L 14.4754 170.443 L 14.3272 170.42 L 14.1748 170.412 L 10.8252 170.412 L 10.6728 170.42 L 10.5246 170.443 L 10.2438 170.531 L 9.98915 170.67 L 9.76685 170.853 L 9.58311 171.076 L 9.44416 171.33 L 9.35623 171.611 L 9.33333 171.76 L 9.32553 171.912 L 9.32553 172.087"
       style="clip-rule:evenodd;fill:none;fill-rule:evenodd;stroke:#000000;stroke-width:0.351895px;stroke-linecap:round;stroke-linejoin:round"
       id="path832" />
    <path
       d="M 8.33563 22.5999 L 8.3573 22.1766 L 8.42086 21.765 L 8.52416 21.3672 L 8.66504 20.9853 L 8.84134 20.6216 L 9.05089 20.2781 L 9.29153 19.9571 L 9.5611 19.6608 L 9.85745 19.3911 L 10.1784 19.1505 L 10.5218 18.9409 L 10.8855 18.7646 L 11.2673 18.6237 L 11.6651 18.5204 L 12.0767 18.4568 L 12.5 18.4351 L 12.9233 18.4568 L 13.3349 18.5204 L 13.7327 18.6237 L 14.1145 18.7646 L 14.4782 18.9409 L 14.8216 19.1505 L 15.1425 19.3911 L 15.4389 19.6608 L 15.7085 19.9571 L 15.9491 20.2781 L 16.1587 20.6216 L 16.335 20.9853 L 16.4758 21.3672 L 16.5791 21.765 L 16.6427 22.1766 L 16.6644 22.5999 L 16.6427 23.0232 L 16.5791 23.4349 L 16.4758 23.8328 L 16.335 24.2147 L 16.1587 24.5784 L 15.9491 24.9219 L 15.7085 25.2429 L 15.4389 25.5393 L 15.1425 25.8089 L 14.8216 26.0496 L 14.4782 26.2592 L 14.1145 26.4355 L 13.7327 26.5764 L 13.3349 26.6797 L 12.9233 26.7433 L 12.5 26.765 L 12.0767 26.7433 L 11.6651 26.6797 L 11.2673 26.5764 L 10.8855 26.4355 L 10.5218 26.2592 L 10.1784 26.0496 L 9.85745 25.8089 L 9.5611 25.5393 L 9.29153 25.2429 L 9.05089 24.9219 L 8.84134 24.5784 L 8.66504 24.2147 L 8.52416 23.8328 L 8.42086 23.4349 L 8.3573 23.0232 L 8.33563 22.5999"
       style="clip-rule:evenodd;fill:none;fill-rule:evenodd;stroke:#000000;stroke-width:0.351895px;stroke-linecap:round;stroke-linejoin:round"
       id="path834" />
    <path
       d="M 8.33563 41.6499 L 8.3573 41.2266 L 8.42086 40.815 L 8.52416 40.4172 L 8.66504 40.0353 L 8.84134 39.6716 L 9.05089 39.3281 L 9.29153 39.0071 L 9.5611 38.7108 L 9.85745 38.4411 L 10.1784 38.2005 L 10.5218 37.9909 L 10.8855 37.8146 L 11.2673 37.6737 L 11.6651 37.5704 L 12.0767 37.5068 L 12.5 37.4851 L 12.9233 37.5068 L 13.3349 37.5704 L 13.7327 37.6737 L 14.1145 37.8146 L 14.4782 37.9909 L 14.8216 38.2005 L 15.1425 38.4411 L 15.4389 38.7108 L 15.7085 39.0071 L 15.9491 39.3281 L 16.1587 39.6716 L 16.335 40.0353 L 16.4758 40.4172 L 16.5791 40.815 L 16.6427 41.2266 L 16.6644 41.6499 L 16.6427 42.0732 L 16.5791 42.4849 L 16.4758 42.8828 L 16.335 43.2647 L 16.1587 43.6284 L 15.9491 43.9719 L 15.7085 44.2929 L 15.4389 44.5893 L 15.1425 44.8589 L 14.8216 45.0996 L 14.4782 45.3092 L 14.1145 45.4855 L 13.7327 45.6264 L 13.3349 45.7297 L 12.9233 45.7933 L 12.5 45.815 L 12.0767 45.7933 L 11.6651 45.7297 L 11.2673 45.6264 L 10.8855 45.4855 L 10.5218 45.3092 L 10.1784 45.0996 L 9.85745 44.8589 L 9.5611 44.5893 L 9.29153 44.2929 L 9.05089 43.9719 L 8.84134 43.6284 L 8.66504 43.2647 L 8.52416 42.8828 L 8.42086 42.4849 L 8.3573 42.0732 L 8.33563 41.6499"
       style="clip-rule:evenodd;fill:none;fill-rule:evenodd;stroke:#000000;stroke-width:0.351895px;stroke-linecap:round;stroke-linejoin:round"
       id="path836" />
    <path
       d="M 8.75069 60.6999 L 8.7702 60.3188 L 8.82743 59.9482 L 8.92044 59.59 L 9.04728 59.2461 L 9.20601 58.9186 L 9.39468 58.6094 L 9.61134 58.3204 L 9.85405 58.0535 L 10.1209 57.8108 L 10.4098 57.5941 L 10.719 57.4054 L 11.0465 57.2466 L 11.3902 57.1198 L 11.7484 57.0267 L 12.1189 56.9695 L 12.5 56.95 L 12.8811 56.9695 L 13.2516 57.0267 L 13.6098 57.1198 L 13.9535 57.2466 L 14.281 57.4054 L 14.5902 57.5941 L 14.8791 57.8108 L 15.146 58.0535 L 15.3887 58.3204 L 15.6053 58.6094 L 15.794 58.9186 L 15.9527 59.2461 L 16.0796 59.59 L 16.1726 59.9482 L 16.2298 60.3188 L 16.2493 60.6999 L 16.2298 61.0811 L 16.1726 61.4518 L 16.0796 61.81 L 15.9527 62.1538 L 15.794 62.4814 L 15.6053 62.7906 L 15.3887 63.0797 L 15.146 63.3465 L 14.8791 63.5893 L 14.5902 63.806 L 14.281 63.9947 L 13.9535 64.1535 L 13.6098 64.2803 L 13.2516 64.3734 L 12.8811 64.4306 L 12.5 64.4501 L 12.1189 64.4306 L 11.7484 64.3734 L 11.3902 64.2803 L 11.0465 64.1535 L 10.719 63.9947 L 10.4098 63.806 L 10.1209 63.5893 L 9.85405 63.3465 L 9.61134 63.0797 L 9.39468 62.7906 L 9.20601 62.4814 L 9.04728 62.1538 L 8.92044 61.81 L 8.82743 61.4518 L 8.7702 61.0811 L 8.75069 60.6999"
       style="clip-rule:evenodd;fill:none;fill-rule:evenodd;stroke:#000000;stroke-width:0.351895px;stroke-linecap:round;stroke-linejoin:round"
       id="path838" />
    <path
       d="M 8.33563 79.7499 L 8.3573 79.3266 L 8.42086 78.915 L 8.52416 78.5172 L 8.66504 78.1353 L 8.84134 77.7716 L 9.05089 77.4281 L 9.29153 77.1071 L 9.5611 76.8108 L 9.85745 76.5411 L 10.1784 76.3005 L 10.5218 76.0909 L 10.8855 75.9146 L 11.2673 75.7737 L 11.6651 75.6704 L 12.0767 75.6068 L 12.5 75.5851 L 12.9233 75.6068 L 13.3349 75.6704 L 13.7327 75.7737 L 14.1145 75.9146 L 14.4782 76.0909 L 14.8216 76.3005 L 15.1425 76.5411 L 15.4389 76.8108 L 15.7085 77.1071 L 15.9491 77.4281 L 16.1587 77.7716 L 16.335 78.1353 L 16.4758 78.5172 L 16.5791 78.915 L 16.6427 79.3266 L 16.6644 79.7499 L 16.6427 80.1732 L 16.5791 80.5849 L 16.4758 80.9828 L 16.335 81.3647 L 16.1587 81.7284 L 15.9491 82.0719 L 15.7085 82.3929 L 15.4389 82.6893 L 15.1425 82.9589 L 14.8216 83.1996 L 14.4782 83.4092 L 14.1145 83.5855 L 13.7327 83.7264 L 13.3349 83.8297 L 12.9233 83.8933 L 12.5 83.915 L 12.0767 83.8933 L 11.6651 83.8297 L 11.2673 83.7264 L 10.8855 83.5855 L 10.5218 83.4092 L 10.1784 83.1996 L 9.85745 82.9589 L 9.5611 82.6893 L 9.29153 82.3929 L 9.05089 82.0719 L 8.84134 81.7284 L 8.66504 81.3647 L 8.52416 80.9828 L 8.42086 80.5849 L 8.3573 80.1732 L 8.33563 79.7499"
       style="clip-rule:evenodd;fill:none;fill-rule:evenodd;stroke:#000000;stroke-width:0.351895px;stroke-linecap:round;stroke-linejoin:round"
       id="path840" />
    <path
       d="M 8.33563 98.7999 L 8.3573 98.3766 L 8.42086 97.965 L 8.52416 97.5672 L 8.66504 97.1853 L 8.84134 96.8216 L 9.05089 96.4781 L 9.29153 96.1571 L 9.5611 95.8608 L 9.85745 95.5911 L 10.1784 95.3505 L 10.5218 95.1409 L 10.8855 94.9646 L 11.2673 94.8237 L 11.6651 94.7204 L 12.0767 94.6568 L 12.5 94.6351 L 12.9233 94.6568 L 13.3349 94.7204 L 13.7327 94.8237 L 14.1145 94.9646 L 14.4782 95.1409 L 14.8216 95.3505 L 15.1425 95.5911 L 15.4389 95.8608 L 15.7085 96.1571 L 15.9491 96.4781 L 16.1587 96.8216 L 16.335 97.1853 L 16.4758 97.5672 L 16.5791 97.965 L 16.6427 98.3766 L 16.6644 98.7999 L 16.6427 99.2232 L 16.5791 99.6349 L 16.4758 100.033 L 16.335 100.415 L 16.1587 100.778 L 15.9491 101.122 L 15.7085 101.443 L 15.4389 101.739 L 15.1425 102.009 L 14.8216 102.25 L 14.4782 102.459 L 14.1145 102.636 L 13.7327 102.776 L 13.3349 102.88 L 12.9233 102.943 L 12.5 102.965 L 12.0767 102.943 L 11.6651 102.88 L 11.2673 102.776 L 10.8855 102.636 L 10.5218 102.459 L 10.1784 102.25 L 9.85745 102.009 L 9.5611 101.739 L 9.29153 101.443 L 9.05089 101.122 L 8.84134 100.778 L 8.66504 100.415 L 8.52416 100.033 L 8.42086 99.6349 L 8.3573 99.2232 L 8.33563 98.7999"
       style="clip-rule:evenodd;fill:none;fill-rule:evenodd;stroke:#000000;stroke-width:0.351895px;stroke-linecap:round;stroke-linejoin:round"
       id="path842" />
    <path
       d="M 8.33563 117.85 L 8.3573 117.427 L 8.42086 117.015 L 8.52416 116.617 L 8.66504 116.235 L 8.84134 115.872 L 9.05089 115.528 L 9.29153 115.207 L 9.5611 114.911 L 9.85745 114.641 L 10.1784 114.4 L 10.5218 114.191 L 10.8855 114.015 L 11.2673 113.874 L 11.6651 113.77 L 12.0767 113.707 L 12.5 113.685 L 12.9233 113.707 L 13.3349 113.77 L 13.7327 113.874 L 14.1145 114.015 L 14.4782 114.191 L 14.8216 114.4 L 15.1425 114.641 L 15.4389 114.911 L 15.7085 115.207 L 15.9491 115.528 L 16.1587 115.872 L 16.335 116.235 L 16.4758 116.617 L 16.5791 117.015 L 16.6427 117.427 L 16.6644 117.85 L 16.6427 118.273 L 16.5791 118.685 L 16.4758 119.083 L 16.335 119.465 L 16.1587 119.828 L 15.9491 120.172 L 15.7085 120.493 L 15.4389 120.789 L 15.1425 121.059 L 14.8216 121.3 L 14.4782 121.509 L 14.1145 121.686 L 13.7327 121.826 L 13.3349 121.93 L 12.9233 121.993 L 12.5 122.015 L 12.0767 121.993 L 11.6651 121.93 L 11.2673 121.826 L 10.8855 121.686 L 10.5218 121.509 L 10.1784 121.3 L 9.85745 121.059 L 9.5611 120.789 L 9.29153 120.493 L 9.05089 120.172 L 8.84134 119.828 L 8.66504 119.465 L 8.52416 119.083 L 8.42086 118.685 L 8.3573 118.273 L 8.33563 117.85"
       style="clip-rule:evenodd;fill:none;fill-rule:evenodd;stroke:#000000;stroke-width:0.351895px;stroke-linecap:round;stroke-linejoin:round"
       id="path844" />
    <path
       d="M 8.75069 136.9 L 8.7702 136.519 L 8.82743 136.148 L 8.92044 135.79 L 9.04728 135.446 L 9.20601 135.119 L 9.39468 134.809 L 9.61134 134.52 L 9.85405 134.254 L 10.1209 134.011 L 10.4098 133.794 L 10.719 133.605 L 11.0465 133.447 L 11.3902 133.32 L 11.7484 133.227 L 12.1189 133.169 L 12.5 133.15 L 12.8811 133.169 L 13.2516 133.227 L 13.6098 133.32 L 13.9535 133.447 L 14.281 133.605 L 14.5902 133.794 L 14.8791 134.011 L 15.146 134.254 L 15.3887 134.52 L 15.6053 134.809 L 15.794 135.119 L 15.9527 135.446 L 16.0796 135.79 L 16.1726 136.148 L 16.2298 136.519 L 16.2493 136.9 L 16.2298 137.281 L 16.1726 137.652 L 16.0796 138.01 L 15.9527 138.354 L 15.794 138.681 L 15.6053 138.991 L 15.3887 139.28 L 15.146 139.547 L 14.8791 139.789 L 14.5902 140.006 L 14.281 140.195 L 13.9535 140.353 L 13.6098 140.48 L 13.2516 140.573 L 12.8811 140.631 L 12.5 140.65 L 12.1189 140.631 L 11.7484 140.573 L 11.3902 140.48 L 11.0465 140.353 L 10.719 140.195 L 10.4098 140.006 L 10.1209 139.789 L 9.85405 139.547 L 9.61134 139.28 L 9.39468 138.991 L 9.20601 138.681 L 9.04728 138.354 L 8.92044 138.01 L 8.82743 137.652 L 8.7702 137.281 L 8.75069 136.9"
       style="clip-rule:evenodd;fill:none;fill-rule:evenodd;stroke:#000000;stroke-width:0.351895px;stroke-linecap:round;stroke-linejoin:round"
       id="path846" />
    <path
       d="M 8.33563 155.95 L 8.3573 155.527 L 8.42086 155.115 L 8.52416 154.717 L 8.66504 154.335 L 8.84134 153.972 L 9.05089 153.628 L 9.29153 153.307 L 9.5611 153.011 L 9.85745 152.741 L 10.1784 152.5 L 10.5218 152.291 L 10.8855 152.115 L 11.2673 151.974 L 11.6651 151.87 L 12.0767 151.807 L 12.5 151.785 L 12.9233 151.807 L 13.3349 151.87 L 13.7327 151.974 L 14.1145 152.115 L 14.4782 152.291 L 14.8216 152.5 L 15.1425 152.741 L 15.4389 153.011 L 15.7085 153.307 L 15.9491 153.628 L 16.1587 153.972 L 16.335 154.335 L 16.4758 154.717 L 16.5791 155.115 L 16.6427 155.527 L 16.6644 155.95 L 16.6427 156.373 L 16.5791 156.785 L 16.4758 157.183 L 16.335 157.565 L 16.1587 157.928 L 15.9491 158.272 L 15.7085 158.593 L 15.4389 158.889 L 15.1425 159.159 L 14.8216 159.4 L 14.4782 159.609 L 14.1145 159.786 L 13.7327 159.926 L 13.3349 160.03 L 12.9233 160.093 L 12.5 160.115 L 12.0767 160.093 L 11.6651 160.03 L 11.2673 159.926 L 10.8855 159.786 L 10.5218 159.609 L 10.1784 159.4 L 9.85745 159.159 L 9.5611 158.889 L 9.29153 158.593 L 9.05089 158.272 L 8.84134 157.928 L 8.66504 157.565 L 8.52416 157.183 L 8.42086 156.785 L 8.3573 156.373 L 8.33563 155.95"
       style="clip-rule:evenodd;fill:none;fill-rule:evenodd;stroke:#000000;stroke-width:0.351895px;stroke-linecap:round;stroke-linejoin:round"
       id="path848" />
    <path
       d="M 24.4979 0 L 24.5982 0.0102335 L 24.6918 0.0395511 L 24.7767 0.0858785 L 24.8508 0.147141 L 24.912 0.221266 L 24.9583 0.306177 L 24.9877 0.3998 L 24.9979 0.500062 L 24.9979 174.5 L 24.9877 174.6 L 24.9583 174.694 L 24.912 174.779 L 24.8508 174.853 L 24.7767 174.914 L 24.6918 174.96 L 24.5982 174.99 L 24.4979 175 L 0.502095 175 L 0.40185 174.99 L 0.308242 174.96 L 0.223345 174.914 L 0.149233 174.853 L 0.0879804 174.779 L 0.0416608 174.694 L 0.0123481 174.6 L 0.00211632 174.5 L 0.00211632 0.500062 L 0.0123481 0.3998 L 0.0416608 0.306177 L 0.0879804 0.221266 L 0.149233 0.147141 L 0.223345 0.0858785 L 0.308242 0.0395511 L 0.40185 0.0102335 L 0.502095 0 L 24.4979 0"
       style="clip-rule:evenodd;fill:none;fill-rule:evenodd;stroke:#000000;stroke-width:0.351895px;stroke-linecap:round;stroke-linejoin:round"
       id="path850" />
    <path
       d="M 24.4979 0 L 24.5982 0.0102335 L 24.6918 0.0395511 L 24.7767 0.0858785 L 24.8508 0.147141 L 24.912 0.221266 L 24.9583 0.306177 L 24.9877 0.3998 L 24.9979 0.500062 L 24.9979 174.5 L 24.9877 174.6 L 24.9583 174.694 L 24.912 174.779 L 24.8508 174.853 L 24.7767 174.914 L 24.6918 174.96 L 24.5982 174.99 L 24.4979 175 L 0.502095 175 L 0.40185 174.99 L 0.308242 174.96 L 0.223345 174.914 L 0.149233 174.853 L 0.0879804 174.779 L 0.0416608 174.694 L 0.0123481 174.6 L 0.00211632 174.5 L 0.00211632 0.500062 L 0.0123481 0.3998 L 0.0416608 0.306177 L 0.0879804 0.221266 L 0.149233 0.147141 L 0.223345 0.0858785 L 0.308242 0.0395511 L 0.40185 0.0102335 L 0.502095 0 L 24.4979 0"
       style="clip-rule:evenodd;fill:none;fill-rule:evenodd;stroke:#000000;stroke-width:0.264582;stroke-linecap:round;stroke-linejoin:round"
       id="path828" />
    <path
       d="M 9.32553 3.08795 L 9.33333 3.2404 L 9.35623 3.38865 L 9.44416 3.66946 L 9.58311 3.92414 L 9.76685 4.14648 L 9.98915 4.33025 L 10.2438 4.46923 L 10.5246 4.55717 L 10.6728 4.58007 L 10.8252 4.58787 L 14.1748 4.58787 L 14.3272 4.58007 L 14.4754 4.55717 L 14.7562 4.46923 L 15.0108 4.33025 L 15.2332 4.14648 L 15.4169 3.92414 L 15.5558 3.66946 L 15.6438 3.38865 L 15.6667 3.2404 L 15.6745 3.08795 L 15.6745 2.912 L 15.6667 2.75956 L 15.6438 2.61131 L 15.5558 2.3305 L 15.4169 2.07581 L 15.2332 1.85347 L 15.0108 1.6697 L 14.7562 1.53073 L 14.4754 1.44278 L 14.3272 1.41989 L 14.1748 1.41208 L 10.8252 1.41208 L 10.6728 1.41989 L 10.5246 1.44278 L 10.2438 1.53073 L 9.98915 1.6697 L 9.76685 1.85347 L 9.58311 2.07581 L 9.44416 2.3305 L 9.35623 2.61131 L 9.33333 2.75956 L 9.32553 2.912 L 9.32553 3.08795"
       style="clip-rule:evenodd;fill:none;fill-rule:evenodd;stroke:#000000;stroke-width:0.351895px;stroke-linecap:round;stroke-linejoin:round"
       id="path824" />
    <path
       d="M 9.37553 172.087 L 9.38333 172.24 L 9.40622 172.388 L 9.49416 172.669 L 9.63311 172.923 L 9.81685 173.146 L 10.0392 173.329 L 10.2938 173.468 L 10.5746 173.556 L 10.7228 173.579 L 10.8752 173.587 L 14.2248 173.587 L 14.3772 173.579 L 14.5254 173.556 L 14.8062 173.468 L 15.0608 173.329 L 15.2831 173.146 L 15.4669 172.923 L 15.6058 172.669 L 15.6938 172.388 L 15.7167 172.24 L 15.7245 172.087 L 15.7245 171.912 L 15.7167 171.76 L 15.6938 171.611 L 15.6058 171.33 L 15.4669 171.076 L 15.2831 170.853 L 15.0608 170.67 L 14.8062 170.531 L 14.5254 170.443 L 14.3772 170.42 L 14.2248 170.412 L 10.8752 170.412 L 10.7228 170.42 L 10.5746 170.443 L 10.2938 170.531 L 10.0392 170.67 L 9.81685 170.853 L 9.63311 171.076 L 9.49416 171.33 L 9.40622 171.611 L 9.38333 171.76 L 9.37553 171.912 L 9.37553 172.087"
       style="clip-rule:evenodd;fill:none;fill-rule:evenodd;stroke:#000000;stroke-width:0.351895px;stroke-linecap:round;stroke-linejoin:round"
       id="path826" />
  </g>
  <g
     inkscape:label="F.Cu"
     inkscape:groupmode="layer"
     id="g1230"
     style="display:inline" />
  <g
     inkscape:label="F.Mask"
     inkscape:groupmode="layer"
     id="g1232" />
  <g
     inkscape:label="F.SilkS"
     inkscape:groupmode="layer"
     id="g1234">
    <g
       id="Hardware"
       style="clip-rule:evenodd;fill-rule:evenodd;stroke-width:1.00008;stroke-linecap:round;stroke-linejoin:round"
       transform="matrix(0.26453907,0,0,0.26458333,0.00211632,0)" />
    <path
       d="M 0.00211632,12.65846 24.997884,12.732014"
       style="clip-rule:evenodd;fill:none;fill-rule:evenodd;stroke:#000000;stroke-width:1.05833px;stroke-linecap:butt;stroke-linejoin:round;stroke-miterlimit:1.5"
       id="path853" />
    <path
       d="m 0.00211632,167.56327 24.99576768,0.0736"
       style="clip-rule:evenodd;fill:none;fill-rule:evenodd;stroke:#000000;stroke-width:1.05833px;stroke-linecap:butt;stroke-linejoin:round;stroke-miterlimit:1.5"
       id="path855" />
    <text
       x="2.15538"
       y="9.7062216"
       style="font-weight:500;font-size:4.23298px;font-family:Futura-Medium, Futura, sans-serif;clip-rule:evenodd;fill-rule:evenodd;stroke-width:0.264582;stroke-linecap:round;stroke-linejoin:round"
       id="text864"
       transform="scale(0.99991635,1.0000837)">INTEGRAL</text>
    <text
       x="3.9850855"
       y="32.328056"
       style="font-weight:500;font-size:3.52739px;font-family:Futura-Medium, Futura, sans-serif;clip-rule:evenodd;fill-rule:evenodd;stroke-width:0.264582;stroke-linecap:round;stroke-linejoin:round"
       id="text866"
       transform="scale(0.99991635,1.0000837)">OUTPUT −</text>
    <text
       x="3.9435492"
       y="108.52168"
       style="font-weight:500;font-size:3.52739px;font-family:Futura-Medium, Futura, sans-serif;clip-rule:evenodd;fill-rule:evenodd;stroke-width:0.264582;stroke-linecap:round;stroke-linejoin:round"
       id="text868"
       transform="scale(0.99991635,1.0000837)">OUTPUT −</text>
    <text
       x="3.9390516"
       y="51.426464"
       style="font-weight:500;font-size:3.52739px;font-family:Futura-Medium, Futura, sans-serif;clip-rule:evenodd;fill-rule:evenodd;stroke-width:0.264582;stroke-linecap:round;stroke-linejoin:round"
       id="text870"
       transform="scale(0.99991635,1.0000837)">OUTPUT +</text>
    <text
       x="4.025034"
       y="127.62009"
       style="font-weight:500;font-size:3.52739px;font-family:Futura-Medium, Futura, sans-serif;clip-rule:evenodd;fill-rule:evenodd;stroke-width:0.264582;stroke-linecap:round;stroke-linejoin:round"
       id="text872"
       transform="scale(0.99991635,1.0000837)">OUTPUT +</text>
    <text
       x="3.7565045"
       y="70.442856"
       style="font-weight:500;font-size:3.52739px;font-family:Futura-Medium, Futura, sans-serif;clip-rule:evenodd;fill-rule:evenodd;stroke-width:0.264582;stroke-linecap:round;stroke-linejoin:round"
       id="text878"
       transform="scale(0.99991635,1.0000837)">D<tspan
   x="6.1867638 8.7995701"
   y="70.442856 70.442856"
   id="tspan874"
   style="stroke-width:0.264582">AM</tspan>PIN<tspan
   x="18.142019"
   y="70.442856"
   id="tspan876"
   style="stroke-width:0.264582">G</tspan></text>
    <text
       x="3.5818942"
       y="146.63649"
       style="font-weight:500;font-size:3.52739px;font-family:Futura-Medium, Futura, sans-serif;clip-rule:evenodd;fill-rule:evenodd;stroke-width:0.264582;stroke-linecap:round;stroke-linejoin:round"
       id="text884"
       transform="scale(0.99991635,1.0000837)">D<tspan
   x="6.0121531 8.6252251"
   y="146.63649 146.63649"
   id="tspan880"
   style="stroke-width:0.264582">AM</tspan>PIN<tspan
   x="17.967409"
   y="146.63649"
   id="tspan882"
   style="stroke-width:0.264582">G</tspan></text>
    <text
       x="7.1860113"
       y="89.531738"
       style="font-weight:500;font-size:3.52739px;font-family:Futura-Medium, Futura, sans-serif;clip-rule:evenodd;fill-rule:evenodd;stroke-width:0.264582;stroke-linecap:round;stroke-linejoin:round"
       id="text886"
       transform="scale(0.99991635,1.0000837)">INPUT</text>
    <text
       x="7.246067"
       y="165.72537"
       style="font-weight:500;font-size:3.52739px;font-family:Futura-Medium, Futura, sans-serif;clip-rule:evenodd;fill-rule:evenodd;stroke-width:0.264582;stroke-linecap:round;stroke-linejoin:round"
       id="text888"
       transform="scale(0.99991635,1.0000837)">INPUT</text>
    <path
       d="M 0,91.500059 H 25"
       style="clip-rule:evenodd;fill:none;fill-rule:evenodd;stroke:#000000;stroke-width:0.529167px;stroke-linecap:butt;stroke-linejoin:round;stroke-miterlimit:1.5"
       id="path890" />
  </g>
</svg>
