<?xml version="1.0" encoding="UTF-8" standalone="no"?>
<svg
   width="99px"
   height="663px"
   version="1.1"
   xml:space="preserve"
   style="fill-rule:evenodd;clip-rule:evenodd;stroke-linecap:round;stroke-linejoin:round;"
   id="svg1124"
   sodipodi:docname="simple-integrators-graphics.svg"
   inkscape:version="1.1 (c4e8f9e, 2021-05-24)"
   xmlns:inkscape="http://www.inkscape.org/namespaces/inkscape"
   xmlns:sodipodi="http://sodipodi.sourceforge.net/DTD/sodipodi-0.dtd"
   xmlns="http://www.w3.org/2000/svg"
   xmlns:svg="http://www.w3.org/2000/svg"><defs
     id="defs1128" /><sodipodi:namedview
     id="namedview1126"
     pagecolor="#ffffff"
     bordercolor="#666666"
     borderopacity="1.0"
     inkscape:pageshadow="2"
     inkscape:pageopacity="0.0"
     inkscape:pagecheckerboard="0"
     showgrid="false"
     inkscape:zoom="0.44645551"
     inkscape:cx="49.277027"
     inkscape:cy="330.38007"
     inkscape:window-width="1478"
     inkscape:window-height="869"
     inkscape:window-x="325"
     inkscape:window-y="124"
     inkscape:window-maximized="0"
     inkscape:current-layer="svg1124" /><path
     d="m 37.244,12.338 c 0,3.11 2.56,5.669 5.67,5.669 h 12.661 c 3.11,0 5.669,-2.559 5.669,-5.669 v -0.665 c 0,-3.11 -2.559,-5.67 -5.669,-5.67 H 42.914 c -3.11,0 -5.67,2.56 -5.67,5.67 v 0.665"
     style="fill:#ffffff;stroke:#000000;stroke-width:1.33px"
     id="path993" /><path
     d="m 37.433,651.074 c 0,3.11 2.559,5.67 5.67,5.67 h 12.661 c 3.11,0 5.669,-2.56 5.669,-5.67 v -0.661 c 0,-3.11 -2.559,-5.669 -5.669,-5.669 H 43.103 c -3.111,0 -5.67,2.559 -5.67,5.669 v 0.661"
     style="fill:#ffffff;stroke:#000000;stroke-width:1.33px"
     id="path995" /><path
     d="m 33.503,86.084 c 0,-8.636 7.106,-15.742 15.741,-15.742 8.636,0 15.742,7.106 15.742,15.742 0,8.636 -7.106,15.742 -15.742,15.742 -8.635,0 -15.741,-7.106 -15.741,-15.742"
     style="fill:#ffffff;stroke:#000000;stroke-width:1.33px"
     id="path997" /><path
     d="m 33.503,158.084 c 0,-8.636 7.106,-15.742 15.741,-15.742 8.636,0 15.742,7.106 15.742,15.742 0,8.636 -7.106,15.742 -15.742,15.742 -8.635,0 -15.741,-7.106 -15.741,-15.742"
     style="fill:#ffffff;stroke:#000000;stroke-width:1.33px"
     id="path999" /><path
     d="m 35.071,230.084 c 0,-7.775 6.398,-14.173 14.173,-14.173 7.776,0 14.174,6.398 14.174,14.173 0,7.775 -6.398,14.173 -14.174,14.173 -7.775,0 -14.173,-6.398 -14.173,-14.173"
     style="fill:#ffffff;stroke:#000000;stroke-width:1.33px"
     id="path1001" /><path
     d="m 33.503,302.084 c 0,-8.636 7.106,-15.742 15.741,-15.742 8.636,0 15.742,7.106 15.742,15.742 0,8.636 -7.106,15.742 -15.742,15.742 -8.635,0 -15.741,-7.106 -15.741,-15.742"
     style="fill:#ffffff;stroke:#000000;stroke-width:1.33px"
     id="path1003" /><path
     d="m 33.503,374.084 c 0,-8.636 7.106,-15.742 15.741,-15.742 8.636,0 15.742,7.106 15.742,15.742 0,8.636 -7.106,15.742 -15.742,15.742 -8.635,0 -15.741,-7.106 -15.741,-15.742"
     style="fill:#ffffff;stroke:#000000;stroke-width:1.33px"
     id="path1005" /><path
     d="m 33.503,446.084 c 0,-8.636 7.106,-15.742 15.741,-15.742 8.636,0 15.742,7.106 15.742,15.742 0,8.636 -7.106,15.742 -15.742,15.742 -8.635,0 -15.741,-7.106 -15.741,-15.742"
     style="fill:#ffffff;stroke:#000000;stroke-width:1.33px"
     id="path1007" /><path
     d="m 35.071,518.084 c 0,-7.775 6.398,-14.173 14.173,-14.173 7.776,0 14.174,6.398 14.174,14.173 0,7.775 -6.398,14.173 -14.174,14.173 -7.775,0 -14.173,-6.398 -14.173,-14.173"
     style="fill:#ffffff;stroke:#000000;stroke-width:1.33px"
     id="path1009" /><path
     d="m 33.503,590.084 c 0,-8.636 7.106,-15.742 15.741,-15.742 8.636,0 15.742,7.106 15.742,15.742 0,8.636 -7.106,15.742 -15.742,15.742 -8.635,0 -15.741,-7.106 -15.741,-15.742"
     style="fill:#ffffff;stroke:#000000;stroke-width:1.33px"
     id="path1011" /><path
     d="m 94.599,0.667 c 1.036,0 1.889,0.853 1.889,1.889 v 657.638 c 0,1.037 -0.853,1.89 -1.889,1.89 H 3.89 C 2.853,662.084 2,661.231 2,660.194 V 2.556 C 2,1.52 2.853,0.667 3.89,0.667 h 90.709"
     style="fill:none;stroke:#000000;stroke-width:1.33px"
     id="path1013" /><path
     d="M 2,48.648 H 96.489"
     style="fill:none;stroke:#000000;stroke-width:4px;stroke-linecap:butt;stroke-miterlimit:1.5"
     id="path1016" /><path
     d="M 2,634.115 H 96.489"
     style="fill:none;stroke:#000000;stroke-width:4px;stroke-linecap:butt;stroke-miterlimit:1.5"
     id="path1018" /><path
     d="m 75.225,245.025 c 2.633,-4.561 4.019,-9.734 4.019,-15 0,-16.558 -13.442,-30 -30,-30 -16.557,0 -30,13.442 -30,30 0,5.266 1.386,10.439 4.02,15"
     style="fill:none;stroke:#000000;stroke-width:1.78px;stroke-miterlimit:1.5"
     id="path1020" /><path
     d="m 49.244,245.899 v 38.843"
     style="fill:none;stroke:#000000;stroke-width:1.73px;stroke-miterlimit:1.5"
     id="path1022" /><path
     d="m 74.998,533.025 c 2.634,-4.561 4.02,-9.734 4.02,-15 0,-16.558 -13.443,-30 -30,-30 -16.558,0 -30,13.442 -30,30 0,5.266 1.386,10.439 4.019,15"
     style="fill:none;stroke:#000000;stroke-width:1.78px;stroke-miterlimit:1.5"
     id="path1024" /><path
     d="m 49.018,533.873 v 38.843"
     style="fill:none;stroke:#000000;stroke-width:1.73px;stroke-miterlimit:1.5"
     id="path1026" /><path
     d="M 1.992,346.493 H 96.497"
     style="fill:none;stroke:#000000;stroke-width:2px;stroke-linecap:butt;stroke-miterlimit:1.5"
     id="path1028" /><rect
     x="11.584"
     y="25.292999"
     width="1.8200001"
     height="12.063"
     style="fill-rule:nonzero"
     id="rect1031" /><path
     d="M 16.303,37.355 V 24.472 l 8.797,9.203 v -8.382 h 1.82 V 38.089 L 18.123,28.91 v 8.445 z"
     style="fill-rule:nonzero"
     id="path1033" /><path
     d="m 33.139,27.003 v 10.352 h -1.82 V 27.003 h -2.774 v -1.71 h 7.359 v 1.71 z"
     style="fill-rule:nonzero"
     id="path1035" /><path
     d="M 44.186,27.003 H 39.35 v 2.899 h 4.695 v 1.711 H 39.35 v 4.031 h 4.836 v 1.711 H 37.529 V 25.293 h 6.657 z"
     style="fill-rule:nonzero"
     id="path1037" /><path
     d="m 52.779,31.074 h 4.985 v 0.398 c 0,0.906 -0.107,1.709 -0.32,2.406 -0.209,0.646 -0.56,1.25 -1.055,1.813 -1.12,1.26 -2.544,1.891 -4.274,1.891 -1.687,0 -3.132,-0.61 -4.336,-1.829 -1.203,-1.223 -1.804,-2.692 -1.804,-4.406 0,-1.75 0.612,-3.234 1.836,-4.453 1.224,-1.224 2.713,-1.836 4.468,-1.836 0.943,0 1.823,0.193 2.641,0.578 0.781,0.386 1.55,1.011 2.305,1.875 l -1.297,1.242 c -0.99,-1.317 -2.195,-1.976 -3.617,-1.976 -1.276,0 -2.347,0.44 -3.211,1.32 -0.865,0.865 -1.297,1.948 -1.297,3.25 0,1.344 0.482,2.451 1.445,3.321 0.901,0.807 1.878,1.21 2.93,1.21 0.896,0 1.7,-0.302 2.414,-0.906 0.713,-0.609 1.112,-1.338 1.195,-2.187 h -3.008 z"
     style="fill-rule:nonzero"
     id="path1039" /><path
     d="m 64.139,32.214 3.734,5.141 h -2.226 l -3.446,-4.937 h -0.328 v 4.937 h -1.82 V 25.293 h 2.133 c 1.593,0 2.744,0.299 3.453,0.898 0.781,0.667 1.172,1.547 1.172,2.641 0,0.854 -0.245,1.588 -0.735,2.203 -0.489,0.614 -1.135,1.008 -1.937,1.179 z m -2.266,-1.382 h 0.578 c 1.724,0 2.586,-0.659 2.586,-1.977 0,-1.234 -0.838,-1.852 -2.515,-1.852 h -0.649 z"
     style="fill-rule:nonzero"
     id="path1041" /><path
     d="m 76.772,34.425 h -5.164 l -1.344,2.93 h -1.961 l 5.969,-12.82 5.757,12.82 h -1.992 z m -0.743,-1.711 -1.789,-4.101 -1.875,4.101 z"
     style="fill-rule:nonzero"
     id="path1043" /><path
     d="m 83.358,25.293 v 10.351 h 3.546 v 1.711 H 81.537 V 25.293 Z"
     style="fill-rule:nonzero"
     id="path1045" /><path
     d="m 17.758,117.79 c 0,-1.415 0.519,-2.631 1.556,-3.646 1.033,-1.016 2.274,-1.524 3.724,-1.524 1.432,0 2.661,0.513 3.685,1.537 1.028,1.024 1.543,2.255 1.543,3.691 0,1.446 -0.517,2.672 -1.55,3.679 -1.037,1.011 -2.289,1.517 -3.756,1.517 -1.298,0 -2.463,-0.45 -3.496,-1.348 -1.137,-0.994 -1.706,-2.296 -1.706,-3.906 z m 1.53,0.019 c 0,1.111 0.373,2.025 1.12,2.741 0.742,0.716 1.599,1.074 2.571,1.074 1.055,0 1.945,-0.364 2.67,-1.093 0.724,-0.738 1.087,-1.637 1.087,-2.696 0,-1.072 -0.358,-1.97 -1.074,-2.695 -0.712,-0.729 -1.593,-1.094 -2.644,-1.094 -1.046,0 -1.929,0.365 -2.649,1.094 -0.721,0.72 -1.081,1.61 -1.081,2.669 z"
     style="fill-rule:nonzero"
     id="path1047" /><path
     d="m 31.69,112.809 v 6.055 c 0,0.864 0.141,1.495 0.423,1.894 0.421,0.578 1.014,0.866 1.778,0.866 0.768,0 1.363,-0.288 1.784,-0.866 0.282,-0.386 0.423,-1.017 0.423,-1.894 v -6.055 h 1.517 v 6.472 c 0,1.059 -0.33,1.931 -0.99,2.617 -0.742,0.764 -1.653,1.146 -2.734,1.146 -1.081,0 -1.99,-0.382 -2.728,-1.146 -0.66,-0.686 -0.99,-1.558 -0.99,-2.617 v -6.472 z"
     style="fill-rule:nonzero"
     id="path1049" /><path
     d="m 42.797,114.235 v 8.626 H 41.28 v -8.626 h -2.311 v -1.426 h 6.133 v 1.426 z"
     style="fill-rule:nonzero"
     id="path1051" /><path
     d="m 47.973,118.779 v 4.082 h -1.517 v -10.052 h 1.719 c 0.842,0 1.478,0.059 1.907,0.176 0.434,0.117 0.816,0.339 1.146,0.664 0.577,0.564 0.866,1.276 0.866,2.135 0,0.921 -0.308,1.65 -0.925,2.188 -0.616,0.538 -1.447,0.807 -2.493,0.807 z m 0,-1.406 h 0.566 c 1.393,0 2.09,-0.536 2.09,-1.608 0,-1.037 -0.718,-1.556 -2.155,-1.556 h -0.501 z"
     style="fill-rule:nonzero"
     id="path1053" /><path
     d="m 55.173,112.809 v 6.055 c 0,0.864 0.141,1.495 0.424,1.894 0.421,0.578 1.013,0.866 1.777,0.866 0.768,0 1.363,-0.288 1.784,-0.866 0.282,-0.386 0.423,-1.017 0.423,-1.894 v -6.055 h 1.517 v 6.472 c 0,1.059 -0.33,1.931 -0.99,2.617 -0.742,0.764 -1.653,1.146 -2.734,1.146 -1.081,0 -1.99,-0.382 -2.728,-1.146 -0.66,-0.686 -0.99,-1.558 -0.99,-2.617 v -6.472 z"
     style="fill-rule:nonzero"
     id="path1055" /><path
     d="m 66.28,114.235 v 8.626 h -1.517 v -8.626 h -2.311 v -1.426 h 6.133 v 1.426 z"
     style="fill-rule:nonzero"
     id="path1057" /><rect
     x="73.655998"
     y="117.028"
     width="6.934"
     height="1.211"
     style="fill-rule:nonzero"
     id="rect1059" /><path
     d="m 17.602,405.79 c 0,-1.415 0.518,-2.631 1.556,-3.646 1.033,-1.016 2.274,-1.524 3.724,-1.524 1.432,0 2.66,0.513 3.685,1.537 1.028,1.024 1.543,2.255 1.543,3.691 0,1.446 -0.517,2.672 -1.55,3.679 -1.037,1.011 -2.289,1.517 -3.756,1.517 -1.298,0 -2.464,-0.45 -3.497,-1.348 -1.137,-0.994 -1.705,-2.296 -1.705,-3.906 z m 1.53,0.019 c 0,1.111 0.373,2.025 1.119,2.741 0.743,0.716 1.6,1.074 2.572,1.074 1.055,0 1.945,-0.364 2.669,-1.093 0.725,-0.738 1.088,-1.637 1.088,-2.696 0,-1.072 -0.358,-1.97 -1.075,-2.695 -0.711,-0.729 -1.593,-1.094 -2.643,-1.094 -1.046,0 -1.929,0.365 -2.65,1.094 -0.72,0.72 -1.08,1.61 -1.08,2.669 z"
     style="fill-rule:nonzero"
     id="path1061" /><path
     d="m 31.534,400.809 v 6.055 c 0,0.864 0.141,1.495 0.423,1.894 0.421,0.578 1.014,0.866 1.778,0.866 0.768,0 1.362,-0.288 1.783,-0.866 0.283,-0.386 0.424,-1.017 0.424,-1.894 v -6.055 h 1.516 v 6.472 c 0,1.059 -0.329,1.931 -0.989,2.617 -0.742,0.764 -1.654,1.146 -2.734,1.146 -1.081,0 -1.99,-0.382 -2.728,-1.146 -0.66,-0.686 -0.99,-1.558 -0.99,-2.617 v -6.472 z"
     style="fill-rule:nonzero"
     id="path1063" /><path
     d="m 42.641,402.235 v 8.626 h -1.517 v -8.626 h -2.311 v -1.426 h 6.132 v 1.426 z"
     style="fill-rule:nonzero"
     id="path1065" /><path
     d="m 47.817,406.779 v 4.082 H 46.3 v -10.052 h 1.718 c 0.842,0 1.478,0.059 1.908,0.176 0.434,0.117 0.816,0.339 1.146,0.664 0.577,0.564 0.866,1.276 0.866,2.135 0,0.921 -0.309,1.65 -0.925,2.188 -0.616,0.538 -1.447,0.807 -2.493,0.807 z m 0,-1.406 h 0.566 c 1.393,0 2.09,-0.536 2.09,-1.608 0,-1.037 -0.719,-1.556 -2.155,-1.556 h -0.501 z"
     style="fill-rule:nonzero"
     id="path1067" /><path
     d="m 55.017,400.809 v 6.055 c 0,0.864 0.141,1.495 0.423,1.894 0.421,0.578 1.014,0.866 1.778,0.866 0.768,0 1.362,-0.288 1.783,-0.866 0.283,-0.386 0.424,-1.017 0.424,-1.894 v -6.055 h 1.517 v 6.472 c 0,1.059 -0.33,1.931 -0.99,2.617 -0.742,0.764 -1.654,1.146 -2.734,1.146 -1.081,0 -1.99,-0.382 -2.728,-1.146 -0.66,-0.686 -0.99,-1.558 -0.99,-2.617 v -6.472 z"
     style="fill-rule:nonzero"
     id="path1069" /><path
     d="m 66.124,402.235 v 8.626 h -1.517 v -8.626 h -2.311 v -1.426 h 6.133 v 1.426 z"
     style="fill-rule:nonzero"
     id="path1071" /><rect
     x="73.5"
     y="405.02802"
     width="6.934"
     height="1.211"
     style="fill-rule:nonzero"
     id="rect1073" /><path
     d="m 17.584,189.979 c 0,-1.415 0.519,-2.631 1.556,-3.646 1.033,-1.016 2.274,-1.524 3.724,-1.524 1.432,0 2.661,0.513 3.685,1.537 1.029,1.024 1.543,2.255 1.543,3.691 0,1.446 -0.517,2.672 -1.55,3.679 -1.037,1.011 -2.289,1.517 -3.756,1.517 -1.298,0 -2.463,-0.45 -3.496,-1.348 -1.137,-0.994 -1.706,-2.296 -1.706,-3.906 z m 1.53,0.019 c 0,1.111 0.373,2.025 1.12,2.741 0.742,0.716 1.599,1.074 2.571,1.074 1.055,0 1.945,-0.364 2.67,-1.093 0.725,-0.738 1.087,-1.637 1.087,-2.696 0,-1.072 -0.358,-1.97 -1.074,-2.695 -0.712,-0.729 -1.593,-1.094 -2.643,-1.094 -1.046,0 -1.93,0.365 -2.65,1.094 -0.721,0.72 -1.081,1.61 -1.081,2.669 z"
     style="fill-rule:nonzero"
     id="path1075" /><path
     d="m 31.516,184.998 v 6.055 c 0,0.864 0.141,1.495 0.424,1.894 0.421,0.578 1.013,0.866 1.777,0.866 0.768,0 1.363,-0.288 1.784,-0.866 0.282,-0.386 0.423,-1.017 0.423,-1.894 v -6.055 h 1.517 v 6.472 c 0,1.059 -0.33,1.931 -0.99,2.617 -0.742,0.764 -1.653,1.146 -2.734,1.146 -1.081,0 -1.99,-0.382 -2.728,-1.146 C 30.329,193.401 30,192.529 30,191.47 v -6.472 z"
     style="fill-rule:nonzero"
     id="path1077" /><path
     d="m 42.623,186.424 v 8.626 h -1.517 v -8.626 h -2.311 v -1.426 h 6.133 v 1.426 z"
     style="fill-rule:nonzero"
     id="path1079" /><path
     d="m 47.799,190.968 v 4.082 h -1.517 v -10.052 h 1.719 c 0.842,0 1.478,0.059 1.907,0.176 0.434,0.117 0.816,0.339 1.146,0.664 0.577,0.564 0.866,1.276 0.866,2.135 0,0.921 -0.308,1.65 -0.924,2.188 -0.617,0.538 -1.448,0.807 -2.494,0.807 z m 0,-1.406 h 0.566 c 1.394,0 2.09,-0.536 2.09,-1.608 0,-1.037 -0.718,-1.556 -2.155,-1.556 h -0.501 z"
     style="fill-rule:nonzero"
     id="path1081" /><path
     d="m 55,184.998 v 6.055 c 0,0.864 0.141,1.495 0.423,1.894 0.421,0.578 1.013,0.866 1.777,0.866 0.768,0 1.363,-0.288 1.784,-0.866 0.282,-0.386 0.423,-1.017 0.423,-1.894 v -6.055 h 1.517 v 6.472 c 0,1.059 -0.33,1.931 -0.99,2.617 -0.742,0.764 -1.653,1.146 -2.734,1.146 -1.081,0 -1.99,-0.382 -2.728,-1.146 -0.66,-0.686 -0.989,-1.558 -0.989,-2.617 v -6.472 z"
     style="fill-rule:nonzero"
     id="path1083" /><path
     d="m 66.106,186.424 v 8.626 h -1.517 v -8.626 h -2.311 v -1.426 h 6.133 v 1.426 z"
     style="fill-rule:nonzero"
     id="path1085" /><path
     d="m 73.32,190.428 v -1.211 h 2.864 v -2.813 h 1.205 v 2.813 h 2.864 v 1.211 h -2.864 v 2.812 h -1.205 v -2.812 z"
     style="fill-rule:nonzero"
     id="path1087" /><path
     d="m 17.91,477.979 c 0,-1.415 0.518,-2.631 1.556,-3.646 1.033,-1.016 2.274,-1.524 3.724,-1.524 1.432,0 2.66,0.513 3.685,1.537 1.028,1.024 1.542,2.255 1.542,3.691 0,1.446 -0.516,2.672 -1.549,3.679 -1.037,1.011 -2.29,1.517 -3.757,1.517 -1.297,0 -2.463,-0.45 -3.496,-1.348 -1.137,-0.994 -1.705,-2.296 -1.705,-3.906 z m 1.53,0.019 c 0,1.111 0.373,2.025 1.119,2.741 0.743,0.716 1.6,1.074 2.572,1.074 1.055,0 1.944,-0.364 2.669,-1.093 0.725,-0.738 1.088,-1.637 1.088,-2.696 0,-1.072 -0.359,-1.97 -1.075,-2.695 -0.711,-0.729 -1.593,-1.094 -2.643,-1.094 -1.046,0 -1.929,0.365 -2.65,1.094 -0.72,0.72 -1.08,1.61 -1.08,2.669 z"
     style="fill-rule:nonzero"
     id="path1089" /><path
     d="m 31.842,472.998 v 6.055 c 0,0.864 0.141,1.495 0.423,1.894 0.421,0.578 1.014,0.866 1.777,0.866 0.769,0 1.363,-0.288 1.784,-0.866 0.282,-0.386 0.424,-1.017 0.424,-1.894 v -6.055 h 1.516 v 6.472 c 0,1.059 -0.329,1.931 -0.989,2.617 -0.742,0.764 -1.654,1.146 -2.735,1.146 -1.08,0 -1.99,-0.382 -2.727,-1.146 -0.66,-0.686 -0.99,-1.558 -0.99,-2.617 v -6.472 z"
     style="fill-rule:nonzero"
     id="path1091" /><path
     d="m 42.949,474.424 v 8.626 h -1.517 v -8.626 h -2.311 v -1.426 h 6.132 v 1.426 z"
     style="fill-rule:nonzero"
     id="path1093" /><path
     d="m 48.125,478.968 v 4.082 h -1.517 v -10.052 h 1.718 c 0.842,0 1.478,0.059 1.908,0.176 0.434,0.117 0.816,0.339 1.146,0.664 0.577,0.564 0.866,1.276 0.866,2.135 0,0.921 -0.309,1.65 -0.925,2.188 -0.616,0.538 -1.447,0.807 -2.493,0.807 z m 0,-1.406 h 0.566 c 1.393,0 2.09,-0.536 2.09,-1.608 0,-1.037 -0.719,-1.556 -2.155,-1.556 h -0.501 z"
     style="fill-rule:nonzero"
     id="path1095" /><path
     d="m 55.325,472.998 v 6.055 c 0,0.864 0.141,1.495 0.423,1.894 0.421,0.578 1.014,0.866 1.778,0.866 0.768,0 1.362,-0.288 1.783,-0.866 0.283,-0.386 0.424,-1.017 0.424,-1.894 v -6.055 h 1.517 v 6.472 c 0,1.059 -0.33,1.931 -0.99,2.617 -0.742,0.764 -1.654,1.146 -2.734,1.146 -1.081,0 -1.99,-0.382 -2.728,-1.146 -0.66,-0.686 -0.99,-1.558 -0.99,-2.617 v -6.472 z"
     style="fill-rule:nonzero"
     id="path1097" /><path
     d="m 66.432,474.424 v 8.626 h -1.517 v -8.626 h -2.311 v -1.426 h 6.132 v 1.426 z"
     style="fill-rule:nonzero"
     id="path1099" /><path
     d="m 73.645,478.428 v -1.211 h 2.865 v -2.813 h 1.204 v 2.813 h 2.865 v 1.211 h -2.865 v 2.812 H 76.51 v -2.812 z"
     style="fill-rule:nonzero"
     id="path1101" /><rect
     x="30.358999"
     y="329.03101"
     width="1.517"
     height="10.052"
     style="fill-rule:nonzero"
     id="rect1103" /><path
     d="m 34.291,339.083 v -10.736 l 7.331,7.669 v -6.985 h 1.517 v 10.664 l -7.331,-7.65 v 7.038 z"
     style="fill-rule:nonzero"
     id="path1105" /><path
     d="m 47.065,335.001 v 4.082 h -1.517 v -10.052 h 1.718 c 0.842,0 1.478,0.058 1.908,0.176 0.434,0.117 0.816,0.338 1.146,0.664 0.577,0.564 0.866,1.276 0.866,2.135 0,0.92 -0.308,1.649 -0.925,2.188 -0.616,0.538 -1.447,0.807 -2.493,0.807 z m 0,-1.406 h 0.566 c 1.393,0 2.09,-0.536 2.09,-1.609 0,-1.037 -0.718,-1.555 -2.155,-1.555 h -0.501 z"
     style="fill-rule:nonzero"
     id="path1107" /><path
     d="m 54.265,329.031 v 6.054 c 0,0.864 0.141,1.496 0.423,1.895 0.421,0.577 1.014,0.866 1.778,0.866 0.768,0 1.362,-0.289 1.784,-0.866 0.282,-0.386 0.423,-1.018 0.423,-1.895 v -6.054 h 1.517 v 6.471 c 0,1.059 -0.33,1.932 -0.99,2.617 -0.742,0.764 -1.654,1.146 -2.734,1.146 -1.081,0 -1.99,-0.382 -2.728,-1.146 -0.66,-0.685 -0.99,-1.558 -0.99,-2.617 v -6.471 z"
     style="fill-rule:nonzero"
     id="path1109" /><path
     d="m 65.372,330.457 v 8.626 h -1.517 v -8.626 h -2.311 v -1.426 h 6.133 v 1.426 z"
     style="fill-rule:nonzero"
     id="path1111" /><rect
     x="30.584999"
     y="617.03101"
     width="1.517"
     height="10.052"
     style="fill-rule:nonzero"
     id="rect1113" /><path
     d="m 34.518,627.083 v -10.736 l 7.33,7.669 v -6.985 h 1.517 v 10.664 l -7.33,-7.65 v 7.038 z"
     style="fill-rule:nonzero"
     id="path1115" /><path
     d="m 47.291,623.001 v 4.082 h -1.517 v -10.052 h 1.719 c 0.842,0 1.478,0.058 1.908,0.176 0.434,0.117 0.816,0.338 1.145,0.664 0.578,0.564 0.866,1.276 0.866,2.135 0,0.92 -0.308,1.649 -0.924,2.188 -0.617,0.538 -1.448,0.807 -2.494,0.807 z m 0,-1.406 h 0.567 c 1.393,0 2.089,-0.536 2.089,-1.609 0,-1.037 -0.718,-1.555 -2.155,-1.555 h -0.501 z"
     style="fill-rule:nonzero"
     id="path1117" /><path
     d="m 54.492,617.031 v 6.054 c 0,0.864 0.141,1.496 0.423,1.895 0.421,0.577 1.013,0.866 1.777,0.866 0.768,0 1.363,-0.289 1.784,-0.866 0.282,-0.386 0.423,-1.018 0.423,-1.895 v -6.054 h 1.517 v 6.471 c 0,1.059 -0.33,1.932 -0.989,2.617 -0.743,0.764 -1.654,1.146 -2.735,1.146 -1.081,0 -1.99,-0.382 -2.728,-1.146 -0.659,-0.685 -0.989,-1.558 -0.989,-2.617 v -6.471 z"
     style="fill-rule:nonzero"
     id="path1119" /><path
     d="m 65.598,618.457 v 8.626 h -1.516 v -8.626 H 61.77 v -1.426 h 6.133 v 1.426 z"
     style="fill-rule:nonzero"
     id="path1121" /></svg>
