%TF.GenerationSoftware,KiCad,Pcbnew,(5.1.8-0-10_14)*%
%TF.CreationDate,2021-06-26T19:18:40+01:00*%
%TF.ProjectId,breadboard-power-distrib,62726561-6462-46f6-9172-642d706f7765,v01*%
%TF.SameCoordinates,Original*%
%TF.FileFunction,Copper,L2,Bot*%
%TF.FilePolarity,Positive*%
%FSLAX46Y46*%
G04 Gerber Fmt 4.6, Leading zero omitted, Abs format (unit mm)*
G04 Created by KiCad (PCBNEW (5.1.8-0-10_14)) date 2021-06-26 19:18:40*
%MOMM*%
%LPD*%
G01*
G04 APERTURE LIST*
%TA.AperFunction,ComponentPad*%
%ADD10C,3.000000*%
%TD*%
%TA.AperFunction,SMDPad,CuDef*%
%ADD11R,3.680000X1.280000*%
%TD*%
%TA.AperFunction,Conductor*%
%ADD12C,1.270000*%
%TD*%
%TA.AperFunction,Conductor*%
%ADD13C,0.254000*%
%TD*%
%TA.AperFunction,Conductor*%
%ADD14C,0.100000*%
%TD*%
G04 APERTURE END LIST*
D10*
%TO.P,J3,1*%
%TO.N,Net-(J1-Pad5)*%
X97250000Y-62500000D03*
X112550000Y-62500000D03*
%TD*%
%TO.P,J4,1*%
%TO.N,Net-(J1-Pad1)*%
X97250000Y-72500000D03*
X112550000Y-72500000D03*
%TD*%
%TO.P,J5,1*%
%TO.N,Net-(J2-Pad5)*%
X97250000Y-82500000D03*
X112550000Y-82500000D03*
%TD*%
D11*
%TO.P,J1,1*%
%TO.N,Net-(J1-Pad1)*%
X83185000Y-60960000D03*
%TO.P,J1,2*%
X83185000Y-63500000D03*
%TO.P,J1,3*%
X83185000Y-66040000D03*
%TO.P,J1,4*%
X83185000Y-68580000D03*
%TO.P,J1,5*%
%TO.N,Net-(J1-Pad5)*%
X87625000Y-60960000D03*
%TO.P,J1,6*%
X87625000Y-63500000D03*
%TO.P,J1,7*%
X87625000Y-66040000D03*
%TO.P,J1,8*%
X87625000Y-68580000D03*
%TD*%
%TO.P,J2,8*%
%TO.N,Net-(J2-Pad5)*%
X87625000Y-83820000D03*
%TO.P,J2,7*%
X87625000Y-81280000D03*
%TO.P,J2,6*%
X87625000Y-78740000D03*
%TO.P,J2,5*%
X87625000Y-76200000D03*
%TO.P,J2,4*%
%TO.N,Net-(J1-Pad1)*%
X83185000Y-83820000D03*
%TO.P,J2,3*%
X83185000Y-81280000D03*
%TO.P,J2,2*%
X83185000Y-78740000D03*
%TO.P,J2,1*%
X83185000Y-76200000D03*
%TD*%
D12*
%TO.N,Net-(J1-Pad5)*%
X112550000Y-62500000D02*
X97250000Y-62500000D01*
X87625000Y-60960000D02*
X87625000Y-68580000D01*
X96250000Y-63500000D02*
X97250000Y-62500000D01*
X87625000Y-63500000D02*
X96250000Y-63500000D01*
%TO.N,Net-(J2-Pad5)*%
X87625000Y-83820000D02*
X87625000Y-76200000D01*
X112550000Y-82500000D02*
X97250000Y-82500000D01*
X96030000Y-81280000D02*
X97250000Y-82500000D01*
X87625000Y-81280000D02*
X96030000Y-81280000D01*
%TD*%
D13*
%TO.N,Net-(J1-Pad1)*%
X117009659Y-57438625D02*
X117259429Y-57514035D01*
X117489792Y-57636522D01*
X117691980Y-57801422D01*
X117858286Y-58002450D01*
X117982378Y-58231954D01*
X118059531Y-58481195D01*
X118090000Y-58771089D01*
X118090001Y-86217711D01*
X118061375Y-86509660D01*
X117985965Y-86759429D01*
X117863477Y-86989794D01*
X117698579Y-87191979D01*
X117497546Y-87358288D01*
X117268046Y-87482378D01*
X117018805Y-87559531D01*
X116728911Y-87590000D01*
X82032279Y-87590000D01*
X81740340Y-87561375D01*
X81490571Y-87485965D01*
X81260206Y-87363477D01*
X81058021Y-87198579D01*
X80891712Y-86997546D01*
X80767622Y-86768046D01*
X80690469Y-86518805D01*
X80660000Y-86228911D01*
X80660000Y-84460000D01*
X80706928Y-84460000D01*
X80719188Y-84584482D01*
X80755498Y-84704180D01*
X80814463Y-84814494D01*
X80893815Y-84911185D01*
X80990506Y-84990537D01*
X81100820Y-85049502D01*
X81220518Y-85085812D01*
X81345000Y-85098072D01*
X82899250Y-85095000D01*
X83058000Y-84936250D01*
X83058000Y-83947000D01*
X80868750Y-83947000D01*
X80710000Y-84105750D01*
X80706928Y-84460000D01*
X80660000Y-84460000D01*
X80660000Y-81920000D01*
X80706928Y-81920000D01*
X80719188Y-82044482D01*
X80755498Y-82164180D01*
X80814463Y-82274494D01*
X80893815Y-82371185D01*
X80990506Y-82450537D01*
X81100820Y-82509502D01*
X81220518Y-82545812D01*
X81263041Y-82550000D01*
X81220518Y-82554188D01*
X81100820Y-82590498D01*
X80990506Y-82649463D01*
X80893815Y-82728815D01*
X80814463Y-82825506D01*
X80755498Y-82935820D01*
X80719188Y-83055518D01*
X80706928Y-83180000D01*
X80710000Y-83534250D01*
X80868750Y-83693000D01*
X83058000Y-83693000D01*
X83058000Y-82703750D01*
X82904250Y-82550000D01*
X83058000Y-82396250D01*
X83058000Y-81407000D01*
X80868750Y-81407000D01*
X80710000Y-81565750D01*
X80706928Y-81920000D01*
X80660000Y-81920000D01*
X80660000Y-79380000D01*
X80706928Y-79380000D01*
X80719188Y-79504482D01*
X80755498Y-79624180D01*
X80814463Y-79734494D01*
X80893815Y-79831185D01*
X80990506Y-79910537D01*
X81100820Y-79969502D01*
X81220518Y-80005812D01*
X81263041Y-80010000D01*
X81220518Y-80014188D01*
X81100820Y-80050498D01*
X80990506Y-80109463D01*
X80893815Y-80188815D01*
X80814463Y-80285506D01*
X80755498Y-80395820D01*
X80719188Y-80515518D01*
X80706928Y-80640000D01*
X80710000Y-80994250D01*
X80868750Y-81153000D01*
X83058000Y-81153000D01*
X83058000Y-80163750D01*
X82904250Y-80010000D01*
X83058000Y-79856250D01*
X83058000Y-78867000D01*
X80868750Y-78867000D01*
X80710000Y-79025750D01*
X80706928Y-79380000D01*
X80660000Y-79380000D01*
X80660000Y-76840000D01*
X80706928Y-76840000D01*
X80719188Y-76964482D01*
X80755498Y-77084180D01*
X80814463Y-77194494D01*
X80893815Y-77291185D01*
X80990506Y-77370537D01*
X81100820Y-77429502D01*
X81220518Y-77465812D01*
X81263041Y-77470000D01*
X81220518Y-77474188D01*
X81100820Y-77510498D01*
X80990506Y-77569463D01*
X80893815Y-77648815D01*
X80814463Y-77745506D01*
X80755498Y-77855820D01*
X80719188Y-77975518D01*
X80706928Y-78100000D01*
X80710000Y-78454250D01*
X80868750Y-78613000D01*
X83058000Y-78613000D01*
X83058000Y-77623750D01*
X82904250Y-77470000D01*
X83058000Y-77316250D01*
X83058000Y-76327000D01*
X80868750Y-76327000D01*
X80710000Y-76485750D01*
X80706928Y-76840000D01*
X80660000Y-76840000D01*
X80660000Y-75560000D01*
X80706928Y-75560000D01*
X80710000Y-75914250D01*
X80868750Y-76073000D01*
X83058000Y-76073000D01*
X83058000Y-75083750D01*
X83312000Y-75083750D01*
X83312000Y-76073000D01*
X83332000Y-76073000D01*
X83332000Y-76327000D01*
X83312000Y-76327000D01*
X83312000Y-77316250D01*
X83465750Y-77470000D01*
X83312000Y-77623750D01*
X83312000Y-78613000D01*
X83332000Y-78613000D01*
X83332000Y-78867000D01*
X83312000Y-78867000D01*
X83312000Y-79856250D01*
X83465750Y-80010000D01*
X83312000Y-80163750D01*
X83312000Y-81153000D01*
X83332000Y-81153000D01*
X83332000Y-81407000D01*
X83312000Y-81407000D01*
X83312000Y-82396250D01*
X83465750Y-82550000D01*
X83312000Y-82703750D01*
X83312000Y-83693000D01*
X83332000Y-83693000D01*
X83332000Y-83947000D01*
X83312000Y-83947000D01*
X83312000Y-84936250D01*
X83470750Y-85095000D01*
X85025000Y-85098072D01*
X85149482Y-85085812D01*
X85269180Y-85049502D01*
X85379494Y-84990537D01*
X85405000Y-84969605D01*
X85430506Y-84990537D01*
X85540820Y-85049502D01*
X85660518Y-85085812D01*
X85785000Y-85098072D01*
X89465000Y-85098072D01*
X89589482Y-85085812D01*
X89709180Y-85049502D01*
X89819494Y-84990537D01*
X89916185Y-84911185D01*
X89995537Y-84814494D01*
X90054502Y-84704180D01*
X90090812Y-84584482D01*
X90103072Y-84460000D01*
X90103072Y-83180000D01*
X90090812Y-83055518D01*
X90054502Y-82935820D01*
X89995537Y-82825506D01*
X89916185Y-82728815D01*
X89819494Y-82649463D01*
X89709180Y-82590498D01*
X89589482Y-82554188D01*
X89546959Y-82550000D01*
X95115000Y-82550000D01*
X95115000Y-82710279D01*
X95197047Y-83122756D01*
X95357988Y-83511302D01*
X95591637Y-83860983D01*
X95889017Y-84158363D01*
X96238698Y-84392012D01*
X96627244Y-84552953D01*
X97039721Y-84635000D01*
X97460279Y-84635000D01*
X97872756Y-84552953D01*
X98261302Y-84392012D01*
X98610983Y-84158363D01*
X98908363Y-83860983D01*
X98969156Y-83770000D01*
X110830844Y-83770000D01*
X110891637Y-83860983D01*
X111189017Y-84158363D01*
X111538698Y-84392012D01*
X111927244Y-84552953D01*
X112339721Y-84635000D01*
X112760279Y-84635000D01*
X113172756Y-84552953D01*
X113561302Y-84392012D01*
X113910983Y-84158363D01*
X114208363Y-83860983D01*
X114442012Y-83511302D01*
X114602953Y-83122756D01*
X114685000Y-82710279D01*
X114685000Y-82289721D01*
X114602953Y-81877244D01*
X114442012Y-81488698D01*
X114208363Y-81139017D01*
X113910983Y-80841637D01*
X113561302Y-80607988D01*
X113172756Y-80447047D01*
X112760279Y-80365000D01*
X112339721Y-80365000D01*
X111927244Y-80447047D01*
X111538698Y-80607988D01*
X111189017Y-80841637D01*
X110891637Y-81139017D01*
X110830844Y-81230000D01*
X98969156Y-81230000D01*
X98908363Y-81139017D01*
X98610983Y-80841637D01*
X98261302Y-80607988D01*
X97872756Y-80447047D01*
X97460279Y-80365000D01*
X97039721Y-80365000D01*
X96938525Y-80385129D01*
X96932370Y-80377630D01*
X96738988Y-80218925D01*
X96518359Y-80100997D01*
X96278963Y-80028377D01*
X96092380Y-80010000D01*
X96092373Y-80010000D01*
X96030000Y-80003857D01*
X95967627Y-80010000D01*
X89546959Y-80010000D01*
X89589482Y-80005812D01*
X89709180Y-79969502D01*
X89819494Y-79910537D01*
X89916185Y-79831185D01*
X89995537Y-79734494D01*
X90054502Y-79624180D01*
X90090812Y-79504482D01*
X90103072Y-79380000D01*
X90103072Y-78100000D01*
X90090812Y-77975518D01*
X90054502Y-77855820D01*
X89995537Y-77745506D01*
X89916185Y-77648815D01*
X89819494Y-77569463D01*
X89709180Y-77510498D01*
X89589482Y-77474188D01*
X89546959Y-77470000D01*
X89589482Y-77465812D01*
X89709180Y-77429502D01*
X89819494Y-77370537D01*
X89916185Y-77291185D01*
X89995537Y-77194494D01*
X90054502Y-77084180D01*
X90090812Y-76964482D01*
X90103072Y-76840000D01*
X90103072Y-75560000D01*
X90090812Y-75435518D01*
X90054502Y-75315820D01*
X89995537Y-75205506D01*
X89916185Y-75108815D01*
X89819494Y-75029463D01*
X89709180Y-74970498D01*
X89589482Y-74934188D01*
X89465000Y-74921928D01*
X85785000Y-74921928D01*
X85660518Y-74934188D01*
X85540820Y-74970498D01*
X85430506Y-75029463D01*
X85405000Y-75050395D01*
X85379494Y-75029463D01*
X85269180Y-74970498D01*
X85149482Y-74934188D01*
X85025000Y-74921928D01*
X83470750Y-74925000D01*
X83312000Y-75083750D01*
X83058000Y-75083750D01*
X82899250Y-74925000D01*
X81345000Y-74921928D01*
X81220518Y-74934188D01*
X81100820Y-74970498D01*
X80990506Y-75029463D01*
X80893815Y-75108815D01*
X80814463Y-75205506D01*
X80755498Y-75315820D01*
X80719188Y-75435518D01*
X80706928Y-75560000D01*
X80660000Y-75560000D01*
X80660000Y-73991653D01*
X95937952Y-73991653D01*
X96093962Y-74307214D01*
X96468745Y-74498020D01*
X96873551Y-74612044D01*
X97292824Y-74644902D01*
X97710451Y-74595334D01*
X98110383Y-74465243D01*
X98406038Y-74307214D01*
X98562048Y-73991653D01*
X111237952Y-73991653D01*
X111393962Y-74307214D01*
X111768745Y-74498020D01*
X112173551Y-74612044D01*
X112592824Y-74644902D01*
X113010451Y-74595334D01*
X113410383Y-74465243D01*
X113706038Y-74307214D01*
X113862048Y-73991653D01*
X112550000Y-72679605D01*
X111237952Y-73991653D01*
X98562048Y-73991653D01*
X97250000Y-72679605D01*
X95937952Y-73991653D01*
X80660000Y-73991653D01*
X80660000Y-72542824D01*
X95105098Y-72542824D01*
X95154666Y-72960451D01*
X95284757Y-73360383D01*
X95442786Y-73656038D01*
X95758347Y-73812048D01*
X97070395Y-72500000D01*
X97429605Y-72500000D01*
X98741653Y-73812048D01*
X99057214Y-73656038D01*
X99248020Y-73281255D01*
X99362044Y-72876449D01*
X99388189Y-72542824D01*
X110405098Y-72542824D01*
X110454666Y-72960451D01*
X110584757Y-73360383D01*
X110742786Y-73656038D01*
X111058347Y-73812048D01*
X112370395Y-72500000D01*
X112729605Y-72500000D01*
X114041653Y-73812048D01*
X114357214Y-73656038D01*
X114548020Y-73281255D01*
X114662044Y-72876449D01*
X114694902Y-72457176D01*
X114645334Y-72039549D01*
X114515243Y-71639617D01*
X114357214Y-71343962D01*
X114041653Y-71187952D01*
X112729605Y-72500000D01*
X112370395Y-72500000D01*
X111058347Y-71187952D01*
X110742786Y-71343962D01*
X110551980Y-71718745D01*
X110437956Y-72123551D01*
X110405098Y-72542824D01*
X99388189Y-72542824D01*
X99394902Y-72457176D01*
X99345334Y-72039549D01*
X99215243Y-71639617D01*
X99057214Y-71343962D01*
X98741653Y-71187952D01*
X97429605Y-72500000D01*
X97070395Y-72500000D01*
X95758347Y-71187952D01*
X95442786Y-71343962D01*
X95251980Y-71718745D01*
X95137956Y-72123551D01*
X95105098Y-72542824D01*
X80660000Y-72542824D01*
X80660000Y-71008347D01*
X95937952Y-71008347D01*
X97250000Y-72320395D01*
X98562048Y-71008347D01*
X111237952Y-71008347D01*
X112550000Y-72320395D01*
X113862048Y-71008347D01*
X113706038Y-70692786D01*
X113331255Y-70501980D01*
X112926449Y-70387956D01*
X112507176Y-70355098D01*
X112089549Y-70404666D01*
X111689617Y-70534757D01*
X111393962Y-70692786D01*
X111237952Y-71008347D01*
X98562048Y-71008347D01*
X98406038Y-70692786D01*
X98031255Y-70501980D01*
X97626449Y-70387956D01*
X97207176Y-70355098D01*
X96789549Y-70404666D01*
X96389617Y-70534757D01*
X96093962Y-70692786D01*
X95937952Y-71008347D01*
X80660000Y-71008347D01*
X80660000Y-69220000D01*
X80706928Y-69220000D01*
X80719188Y-69344482D01*
X80755498Y-69464180D01*
X80814463Y-69574494D01*
X80893815Y-69671185D01*
X80990506Y-69750537D01*
X81100820Y-69809502D01*
X81220518Y-69845812D01*
X81345000Y-69858072D01*
X82899250Y-69855000D01*
X83058000Y-69696250D01*
X83058000Y-68707000D01*
X80868750Y-68707000D01*
X80710000Y-68865750D01*
X80706928Y-69220000D01*
X80660000Y-69220000D01*
X80660000Y-66680000D01*
X80706928Y-66680000D01*
X80719188Y-66804482D01*
X80755498Y-66924180D01*
X80814463Y-67034494D01*
X80893815Y-67131185D01*
X80990506Y-67210537D01*
X81100820Y-67269502D01*
X81220518Y-67305812D01*
X81263041Y-67310000D01*
X81220518Y-67314188D01*
X81100820Y-67350498D01*
X80990506Y-67409463D01*
X80893815Y-67488815D01*
X80814463Y-67585506D01*
X80755498Y-67695820D01*
X80719188Y-67815518D01*
X80706928Y-67940000D01*
X80710000Y-68294250D01*
X80868750Y-68453000D01*
X83058000Y-68453000D01*
X83058000Y-67463750D01*
X82904250Y-67310000D01*
X83058000Y-67156250D01*
X83058000Y-66167000D01*
X80868750Y-66167000D01*
X80710000Y-66325750D01*
X80706928Y-66680000D01*
X80660000Y-66680000D01*
X80660000Y-64140000D01*
X80706928Y-64140000D01*
X80719188Y-64264482D01*
X80755498Y-64384180D01*
X80814463Y-64494494D01*
X80893815Y-64591185D01*
X80990506Y-64670537D01*
X81100820Y-64729502D01*
X81220518Y-64765812D01*
X81263041Y-64770000D01*
X81220518Y-64774188D01*
X81100820Y-64810498D01*
X80990506Y-64869463D01*
X80893815Y-64948815D01*
X80814463Y-65045506D01*
X80755498Y-65155820D01*
X80719188Y-65275518D01*
X80706928Y-65400000D01*
X80710000Y-65754250D01*
X80868750Y-65913000D01*
X83058000Y-65913000D01*
X83058000Y-64923750D01*
X82904250Y-64770000D01*
X83058000Y-64616250D01*
X83058000Y-63627000D01*
X80868750Y-63627000D01*
X80710000Y-63785750D01*
X80706928Y-64140000D01*
X80660000Y-64140000D01*
X80660000Y-61600000D01*
X80706928Y-61600000D01*
X80719188Y-61724482D01*
X80755498Y-61844180D01*
X80814463Y-61954494D01*
X80893815Y-62051185D01*
X80990506Y-62130537D01*
X81100820Y-62189502D01*
X81220518Y-62225812D01*
X81263041Y-62230000D01*
X81220518Y-62234188D01*
X81100820Y-62270498D01*
X80990506Y-62329463D01*
X80893815Y-62408815D01*
X80814463Y-62505506D01*
X80755498Y-62615820D01*
X80719188Y-62735518D01*
X80706928Y-62860000D01*
X80710000Y-63214250D01*
X80868750Y-63373000D01*
X83058000Y-63373000D01*
X83058000Y-62383750D01*
X82904250Y-62230000D01*
X83058000Y-62076250D01*
X83058000Y-61087000D01*
X80868750Y-61087000D01*
X80710000Y-61245750D01*
X80706928Y-61600000D01*
X80660000Y-61600000D01*
X80660000Y-60320000D01*
X80706928Y-60320000D01*
X80710000Y-60674250D01*
X80868750Y-60833000D01*
X83058000Y-60833000D01*
X83058000Y-59843750D01*
X83312000Y-59843750D01*
X83312000Y-60833000D01*
X83332000Y-60833000D01*
X83332000Y-61087000D01*
X83312000Y-61087000D01*
X83312000Y-62076250D01*
X83465750Y-62230000D01*
X83312000Y-62383750D01*
X83312000Y-63373000D01*
X83332000Y-63373000D01*
X83332000Y-63627000D01*
X83312000Y-63627000D01*
X83312000Y-64616250D01*
X83465750Y-64770000D01*
X83312000Y-64923750D01*
X83312000Y-65913000D01*
X83332000Y-65913000D01*
X83332000Y-66167000D01*
X83312000Y-66167000D01*
X83312000Y-67156250D01*
X83465750Y-67310000D01*
X83312000Y-67463750D01*
X83312000Y-68453000D01*
X83332000Y-68453000D01*
X83332000Y-68707000D01*
X83312000Y-68707000D01*
X83312000Y-69696250D01*
X83470750Y-69855000D01*
X85025000Y-69858072D01*
X85149482Y-69845812D01*
X85269180Y-69809502D01*
X85379494Y-69750537D01*
X85405000Y-69729605D01*
X85430506Y-69750537D01*
X85540820Y-69809502D01*
X85660518Y-69845812D01*
X85785000Y-69858072D01*
X89465000Y-69858072D01*
X89589482Y-69845812D01*
X89709180Y-69809502D01*
X89819494Y-69750537D01*
X89916185Y-69671185D01*
X89995537Y-69574494D01*
X90054502Y-69464180D01*
X90090812Y-69344482D01*
X90103072Y-69220000D01*
X90103072Y-67940000D01*
X90090812Y-67815518D01*
X90054502Y-67695820D01*
X89995537Y-67585506D01*
X89916185Y-67488815D01*
X89819494Y-67409463D01*
X89709180Y-67350498D01*
X89589482Y-67314188D01*
X89546959Y-67310000D01*
X89589482Y-67305812D01*
X89709180Y-67269502D01*
X89819494Y-67210537D01*
X89916185Y-67131185D01*
X89995537Y-67034494D01*
X90054502Y-66924180D01*
X90090812Y-66804482D01*
X90103072Y-66680000D01*
X90103072Y-65400000D01*
X90090812Y-65275518D01*
X90054502Y-65155820D01*
X89995537Y-65045506D01*
X89916185Y-64948815D01*
X89819494Y-64869463D01*
X89709180Y-64810498D01*
X89589482Y-64774188D01*
X89546959Y-64770000D01*
X96187627Y-64770000D01*
X96250000Y-64776143D01*
X96312373Y-64770000D01*
X96312380Y-64770000D01*
X96498963Y-64751623D01*
X96738359Y-64679003D01*
X96880089Y-64603247D01*
X97039721Y-64635000D01*
X97460279Y-64635000D01*
X97872756Y-64552953D01*
X98261302Y-64392012D01*
X98610983Y-64158363D01*
X98908363Y-63860983D01*
X98969156Y-63770000D01*
X110830844Y-63770000D01*
X110891637Y-63860983D01*
X111189017Y-64158363D01*
X111538698Y-64392012D01*
X111927244Y-64552953D01*
X112339721Y-64635000D01*
X112760279Y-64635000D01*
X113172756Y-64552953D01*
X113561302Y-64392012D01*
X113910983Y-64158363D01*
X114208363Y-63860983D01*
X114442012Y-63511302D01*
X114602953Y-63122756D01*
X114685000Y-62710279D01*
X114685000Y-62289721D01*
X114602953Y-61877244D01*
X114442012Y-61488698D01*
X114208363Y-61139017D01*
X113910983Y-60841637D01*
X113561302Y-60607988D01*
X113172756Y-60447047D01*
X112760279Y-60365000D01*
X112339721Y-60365000D01*
X111927244Y-60447047D01*
X111538698Y-60607988D01*
X111189017Y-60841637D01*
X110891637Y-61139017D01*
X110830844Y-61230000D01*
X98969156Y-61230000D01*
X98908363Y-61139017D01*
X98610983Y-60841637D01*
X98261302Y-60607988D01*
X97872756Y-60447047D01*
X97460279Y-60365000D01*
X97039721Y-60365000D01*
X96627244Y-60447047D01*
X96238698Y-60607988D01*
X95889017Y-60841637D01*
X95591637Y-61139017D01*
X95357988Y-61488698D01*
X95197047Y-61877244D01*
X95126879Y-62230000D01*
X89546959Y-62230000D01*
X89589482Y-62225812D01*
X89709180Y-62189502D01*
X89819494Y-62130537D01*
X89916185Y-62051185D01*
X89995537Y-61954494D01*
X90054502Y-61844180D01*
X90090812Y-61724482D01*
X90103072Y-61600000D01*
X90103072Y-60320000D01*
X90090812Y-60195518D01*
X90054502Y-60075820D01*
X89995537Y-59965506D01*
X89916185Y-59868815D01*
X89819494Y-59789463D01*
X89709180Y-59730498D01*
X89589482Y-59694188D01*
X89465000Y-59681928D01*
X85785000Y-59681928D01*
X85660518Y-59694188D01*
X85540820Y-59730498D01*
X85430506Y-59789463D01*
X85405000Y-59810395D01*
X85379494Y-59789463D01*
X85269180Y-59730498D01*
X85149482Y-59694188D01*
X85025000Y-59681928D01*
X83470750Y-59685000D01*
X83312000Y-59843750D01*
X83058000Y-59843750D01*
X82899250Y-59685000D01*
X81345000Y-59681928D01*
X81220518Y-59694188D01*
X81100820Y-59730498D01*
X80990506Y-59789463D01*
X80893815Y-59868815D01*
X80814463Y-59965506D01*
X80755498Y-60075820D01*
X80719188Y-60195518D01*
X80706928Y-60320000D01*
X80660000Y-60320000D01*
X80660000Y-58782279D01*
X80688625Y-58490341D01*
X80764035Y-58240571D01*
X80886522Y-58010208D01*
X81051422Y-57808020D01*
X81252450Y-57641714D01*
X81481954Y-57517622D01*
X81731195Y-57440469D01*
X82021088Y-57410000D01*
X116717721Y-57410000D01*
X117009659Y-57438625D01*
%TA.AperFunction,Conductor*%
D14*
G36*
X117009659Y-57438625D02*
G01*
X117259429Y-57514035D01*
X117489792Y-57636522D01*
X117691980Y-57801422D01*
X117858286Y-58002450D01*
X117982378Y-58231954D01*
X118059531Y-58481195D01*
X118090000Y-58771089D01*
X118090001Y-86217711D01*
X118061375Y-86509660D01*
X117985965Y-86759429D01*
X117863477Y-86989794D01*
X117698579Y-87191979D01*
X117497546Y-87358288D01*
X117268046Y-87482378D01*
X117018805Y-87559531D01*
X116728911Y-87590000D01*
X82032279Y-87590000D01*
X81740340Y-87561375D01*
X81490571Y-87485965D01*
X81260206Y-87363477D01*
X81058021Y-87198579D01*
X80891712Y-86997546D01*
X80767622Y-86768046D01*
X80690469Y-86518805D01*
X80660000Y-86228911D01*
X80660000Y-84460000D01*
X80706928Y-84460000D01*
X80719188Y-84584482D01*
X80755498Y-84704180D01*
X80814463Y-84814494D01*
X80893815Y-84911185D01*
X80990506Y-84990537D01*
X81100820Y-85049502D01*
X81220518Y-85085812D01*
X81345000Y-85098072D01*
X82899250Y-85095000D01*
X83058000Y-84936250D01*
X83058000Y-83947000D01*
X80868750Y-83947000D01*
X80710000Y-84105750D01*
X80706928Y-84460000D01*
X80660000Y-84460000D01*
X80660000Y-81920000D01*
X80706928Y-81920000D01*
X80719188Y-82044482D01*
X80755498Y-82164180D01*
X80814463Y-82274494D01*
X80893815Y-82371185D01*
X80990506Y-82450537D01*
X81100820Y-82509502D01*
X81220518Y-82545812D01*
X81263041Y-82550000D01*
X81220518Y-82554188D01*
X81100820Y-82590498D01*
X80990506Y-82649463D01*
X80893815Y-82728815D01*
X80814463Y-82825506D01*
X80755498Y-82935820D01*
X80719188Y-83055518D01*
X80706928Y-83180000D01*
X80710000Y-83534250D01*
X80868750Y-83693000D01*
X83058000Y-83693000D01*
X83058000Y-82703750D01*
X82904250Y-82550000D01*
X83058000Y-82396250D01*
X83058000Y-81407000D01*
X80868750Y-81407000D01*
X80710000Y-81565750D01*
X80706928Y-81920000D01*
X80660000Y-81920000D01*
X80660000Y-79380000D01*
X80706928Y-79380000D01*
X80719188Y-79504482D01*
X80755498Y-79624180D01*
X80814463Y-79734494D01*
X80893815Y-79831185D01*
X80990506Y-79910537D01*
X81100820Y-79969502D01*
X81220518Y-80005812D01*
X81263041Y-80010000D01*
X81220518Y-80014188D01*
X81100820Y-80050498D01*
X80990506Y-80109463D01*
X80893815Y-80188815D01*
X80814463Y-80285506D01*
X80755498Y-80395820D01*
X80719188Y-80515518D01*
X80706928Y-80640000D01*
X80710000Y-80994250D01*
X80868750Y-81153000D01*
X83058000Y-81153000D01*
X83058000Y-80163750D01*
X82904250Y-80010000D01*
X83058000Y-79856250D01*
X83058000Y-78867000D01*
X80868750Y-78867000D01*
X80710000Y-79025750D01*
X80706928Y-79380000D01*
X80660000Y-79380000D01*
X80660000Y-76840000D01*
X80706928Y-76840000D01*
X80719188Y-76964482D01*
X80755498Y-77084180D01*
X80814463Y-77194494D01*
X80893815Y-77291185D01*
X80990506Y-77370537D01*
X81100820Y-77429502D01*
X81220518Y-77465812D01*
X81263041Y-77470000D01*
X81220518Y-77474188D01*
X81100820Y-77510498D01*
X80990506Y-77569463D01*
X80893815Y-77648815D01*
X80814463Y-77745506D01*
X80755498Y-77855820D01*
X80719188Y-77975518D01*
X80706928Y-78100000D01*
X80710000Y-78454250D01*
X80868750Y-78613000D01*
X83058000Y-78613000D01*
X83058000Y-77623750D01*
X82904250Y-77470000D01*
X83058000Y-77316250D01*
X83058000Y-76327000D01*
X80868750Y-76327000D01*
X80710000Y-76485750D01*
X80706928Y-76840000D01*
X80660000Y-76840000D01*
X80660000Y-75560000D01*
X80706928Y-75560000D01*
X80710000Y-75914250D01*
X80868750Y-76073000D01*
X83058000Y-76073000D01*
X83058000Y-75083750D01*
X83312000Y-75083750D01*
X83312000Y-76073000D01*
X83332000Y-76073000D01*
X83332000Y-76327000D01*
X83312000Y-76327000D01*
X83312000Y-77316250D01*
X83465750Y-77470000D01*
X83312000Y-77623750D01*
X83312000Y-78613000D01*
X83332000Y-78613000D01*
X83332000Y-78867000D01*
X83312000Y-78867000D01*
X83312000Y-79856250D01*
X83465750Y-80010000D01*
X83312000Y-80163750D01*
X83312000Y-81153000D01*
X83332000Y-81153000D01*
X83332000Y-81407000D01*
X83312000Y-81407000D01*
X83312000Y-82396250D01*
X83465750Y-82550000D01*
X83312000Y-82703750D01*
X83312000Y-83693000D01*
X83332000Y-83693000D01*
X83332000Y-83947000D01*
X83312000Y-83947000D01*
X83312000Y-84936250D01*
X83470750Y-85095000D01*
X85025000Y-85098072D01*
X85149482Y-85085812D01*
X85269180Y-85049502D01*
X85379494Y-84990537D01*
X85405000Y-84969605D01*
X85430506Y-84990537D01*
X85540820Y-85049502D01*
X85660518Y-85085812D01*
X85785000Y-85098072D01*
X89465000Y-85098072D01*
X89589482Y-85085812D01*
X89709180Y-85049502D01*
X89819494Y-84990537D01*
X89916185Y-84911185D01*
X89995537Y-84814494D01*
X90054502Y-84704180D01*
X90090812Y-84584482D01*
X90103072Y-84460000D01*
X90103072Y-83180000D01*
X90090812Y-83055518D01*
X90054502Y-82935820D01*
X89995537Y-82825506D01*
X89916185Y-82728815D01*
X89819494Y-82649463D01*
X89709180Y-82590498D01*
X89589482Y-82554188D01*
X89546959Y-82550000D01*
X95115000Y-82550000D01*
X95115000Y-82710279D01*
X95197047Y-83122756D01*
X95357988Y-83511302D01*
X95591637Y-83860983D01*
X95889017Y-84158363D01*
X96238698Y-84392012D01*
X96627244Y-84552953D01*
X97039721Y-84635000D01*
X97460279Y-84635000D01*
X97872756Y-84552953D01*
X98261302Y-84392012D01*
X98610983Y-84158363D01*
X98908363Y-83860983D01*
X98969156Y-83770000D01*
X110830844Y-83770000D01*
X110891637Y-83860983D01*
X111189017Y-84158363D01*
X111538698Y-84392012D01*
X111927244Y-84552953D01*
X112339721Y-84635000D01*
X112760279Y-84635000D01*
X113172756Y-84552953D01*
X113561302Y-84392012D01*
X113910983Y-84158363D01*
X114208363Y-83860983D01*
X114442012Y-83511302D01*
X114602953Y-83122756D01*
X114685000Y-82710279D01*
X114685000Y-82289721D01*
X114602953Y-81877244D01*
X114442012Y-81488698D01*
X114208363Y-81139017D01*
X113910983Y-80841637D01*
X113561302Y-80607988D01*
X113172756Y-80447047D01*
X112760279Y-80365000D01*
X112339721Y-80365000D01*
X111927244Y-80447047D01*
X111538698Y-80607988D01*
X111189017Y-80841637D01*
X110891637Y-81139017D01*
X110830844Y-81230000D01*
X98969156Y-81230000D01*
X98908363Y-81139017D01*
X98610983Y-80841637D01*
X98261302Y-80607988D01*
X97872756Y-80447047D01*
X97460279Y-80365000D01*
X97039721Y-80365000D01*
X96938525Y-80385129D01*
X96932370Y-80377630D01*
X96738988Y-80218925D01*
X96518359Y-80100997D01*
X96278963Y-80028377D01*
X96092380Y-80010000D01*
X96092373Y-80010000D01*
X96030000Y-80003857D01*
X95967627Y-80010000D01*
X89546959Y-80010000D01*
X89589482Y-80005812D01*
X89709180Y-79969502D01*
X89819494Y-79910537D01*
X89916185Y-79831185D01*
X89995537Y-79734494D01*
X90054502Y-79624180D01*
X90090812Y-79504482D01*
X90103072Y-79380000D01*
X90103072Y-78100000D01*
X90090812Y-77975518D01*
X90054502Y-77855820D01*
X89995537Y-77745506D01*
X89916185Y-77648815D01*
X89819494Y-77569463D01*
X89709180Y-77510498D01*
X89589482Y-77474188D01*
X89546959Y-77470000D01*
X89589482Y-77465812D01*
X89709180Y-77429502D01*
X89819494Y-77370537D01*
X89916185Y-77291185D01*
X89995537Y-77194494D01*
X90054502Y-77084180D01*
X90090812Y-76964482D01*
X90103072Y-76840000D01*
X90103072Y-75560000D01*
X90090812Y-75435518D01*
X90054502Y-75315820D01*
X89995537Y-75205506D01*
X89916185Y-75108815D01*
X89819494Y-75029463D01*
X89709180Y-74970498D01*
X89589482Y-74934188D01*
X89465000Y-74921928D01*
X85785000Y-74921928D01*
X85660518Y-74934188D01*
X85540820Y-74970498D01*
X85430506Y-75029463D01*
X85405000Y-75050395D01*
X85379494Y-75029463D01*
X85269180Y-74970498D01*
X85149482Y-74934188D01*
X85025000Y-74921928D01*
X83470750Y-74925000D01*
X83312000Y-75083750D01*
X83058000Y-75083750D01*
X82899250Y-74925000D01*
X81345000Y-74921928D01*
X81220518Y-74934188D01*
X81100820Y-74970498D01*
X80990506Y-75029463D01*
X80893815Y-75108815D01*
X80814463Y-75205506D01*
X80755498Y-75315820D01*
X80719188Y-75435518D01*
X80706928Y-75560000D01*
X80660000Y-75560000D01*
X80660000Y-73991653D01*
X95937952Y-73991653D01*
X96093962Y-74307214D01*
X96468745Y-74498020D01*
X96873551Y-74612044D01*
X97292824Y-74644902D01*
X97710451Y-74595334D01*
X98110383Y-74465243D01*
X98406038Y-74307214D01*
X98562048Y-73991653D01*
X111237952Y-73991653D01*
X111393962Y-74307214D01*
X111768745Y-74498020D01*
X112173551Y-74612044D01*
X112592824Y-74644902D01*
X113010451Y-74595334D01*
X113410383Y-74465243D01*
X113706038Y-74307214D01*
X113862048Y-73991653D01*
X112550000Y-72679605D01*
X111237952Y-73991653D01*
X98562048Y-73991653D01*
X97250000Y-72679605D01*
X95937952Y-73991653D01*
X80660000Y-73991653D01*
X80660000Y-72542824D01*
X95105098Y-72542824D01*
X95154666Y-72960451D01*
X95284757Y-73360383D01*
X95442786Y-73656038D01*
X95758347Y-73812048D01*
X97070395Y-72500000D01*
X97429605Y-72500000D01*
X98741653Y-73812048D01*
X99057214Y-73656038D01*
X99248020Y-73281255D01*
X99362044Y-72876449D01*
X99388189Y-72542824D01*
X110405098Y-72542824D01*
X110454666Y-72960451D01*
X110584757Y-73360383D01*
X110742786Y-73656038D01*
X111058347Y-73812048D01*
X112370395Y-72500000D01*
X112729605Y-72500000D01*
X114041653Y-73812048D01*
X114357214Y-73656038D01*
X114548020Y-73281255D01*
X114662044Y-72876449D01*
X114694902Y-72457176D01*
X114645334Y-72039549D01*
X114515243Y-71639617D01*
X114357214Y-71343962D01*
X114041653Y-71187952D01*
X112729605Y-72500000D01*
X112370395Y-72500000D01*
X111058347Y-71187952D01*
X110742786Y-71343962D01*
X110551980Y-71718745D01*
X110437956Y-72123551D01*
X110405098Y-72542824D01*
X99388189Y-72542824D01*
X99394902Y-72457176D01*
X99345334Y-72039549D01*
X99215243Y-71639617D01*
X99057214Y-71343962D01*
X98741653Y-71187952D01*
X97429605Y-72500000D01*
X97070395Y-72500000D01*
X95758347Y-71187952D01*
X95442786Y-71343962D01*
X95251980Y-71718745D01*
X95137956Y-72123551D01*
X95105098Y-72542824D01*
X80660000Y-72542824D01*
X80660000Y-71008347D01*
X95937952Y-71008347D01*
X97250000Y-72320395D01*
X98562048Y-71008347D01*
X111237952Y-71008347D01*
X112550000Y-72320395D01*
X113862048Y-71008347D01*
X113706038Y-70692786D01*
X113331255Y-70501980D01*
X112926449Y-70387956D01*
X112507176Y-70355098D01*
X112089549Y-70404666D01*
X111689617Y-70534757D01*
X111393962Y-70692786D01*
X111237952Y-71008347D01*
X98562048Y-71008347D01*
X98406038Y-70692786D01*
X98031255Y-70501980D01*
X97626449Y-70387956D01*
X97207176Y-70355098D01*
X96789549Y-70404666D01*
X96389617Y-70534757D01*
X96093962Y-70692786D01*
X95937952Y-71008347D01*
X80660000Y-71008347D01*
X80660000Y-69220000D01*
X80706928Y-69220000D01*
X80719188Y-69344482D01*
X80755498Y-69464180D01*
X80814463Y-69574494D01*
X80893815Y-69671185D01*
X80990506Y-69750537D01*
X81100820Y-69809502D01*
X81220518Y-69845812D01*
X81345000Y-69858072D01*
X82899250Y-69855000D01*
X83058000Y-69696250D01*
X83058000Y-68707000D01*
X80868750Y-68707000D01*
X80710000Y-68865750D01*
X80706928Y-69220000D01*
X80660000Y-69220000D01*
X80660000Y-66680000D01*
X80706928Y-66680000D01*
X80719188Y-66804482D01*
X80755498Y-66924180D01*
X80814463Y-67034494D01*
X80893815Y-67131185D01*
X80990506Y-67210537D01*
X81100820Y-67269502D01*
X81220518Y-67305812D01*
X81263041Y-67310000D01*
X81220518Y-67314188D01*
X81100820Y-67350498D01*
X80990506Y-67409463D01*
X80893815Y-67488815D01*
X80814463Y-67585506D01*
X80755498Y-67695820D01*
X80719188Y-67815518D01*
X80706928Y-67940000D01*
X80710000Y-68294250D01*
X80868750Y-68453000D01*
X83058000Y-68453000D01*
X83058000Y-67463750D01*
X82904250Y-67310000D01*
X83058000Y-67156250D01*
X83058000Y-66167000D01*
X80868750Y-66167000D01*
X80710000Y-66325750D01*
X80706928Y-66680000D01*
X80660000Y-66680000D01*
X80660000Y-64140000D01*
X80706928Y-64140000D01*
X80719188Y-64264482D01*
X80755498Y-64384180D01*
X80814463Y-64494494D01*
X80893815Y-64591185D01*
X80990506Y-64670537D01*
X81100820Y-64729502D01*
X81220518Y-64765812D01*
X81263041Y-64770000D01*
X81220518Y-64774188D01*
X81100820Y-64810498D01*
X80990506Y-64869463D01*
X80893815Y-64948815D01*
X80814463Y-65045506D01*
X80755498Y-65155820D01*
X80719188Y-65275518D01*
X80706928Y-65400000D01*
X80710000Y-65754250D01*
X80868750Y-65913000D01*
X83058000Y-65913000D01*
X83058000Y-64923750D01*
X82904250Y-64770000D01*
X83058000Y-64616250D01*
X83058000Y-63627000D01*
X80868750Y-63627000D01*
X80710000Y-63785750D01*
X80706928Y-64140000D01*
X80660000Y-64140000D01*
X80660000Y-61600000D01*
X80706928Y-61600000D01*
X80719188Y-61724482D01*
X80755498Y-61844180D01*
X80814463Y-61954494D01*
X80893815Y-62051185D01*
X80990506Y-62130537D01*
X81100820Y-62189502D01*
X81220518Y-62225812D01*
X81263041Y-62230000D01*
X81220518Y-62234188D01*
X81100820Y-62270498D01*
X80990506Y-62329463D01*
X80893815Y-62408815D01*
X80814463Y-62505506D01*
X80755498Y-62615820D01*
X80719188Y-62735518D01*
X80706928Y-62860000D01*
X80710000Y-63214250D01*
X80868750Y-63373000D01*
X83058000Y-63373000D01*
X83058000Y-62383750D01*
X82904250Y-62230000D01*
X83058000Y-62076250D01*
X83058000Y-61087000D01*
X80868750Y-61087000D01*
X80710000Y-61245750D01*
X80706928Y-61600000D01*
X80660000Y-61600000D01*
X80660000Y-60320000D01*
X80706928Y-60320000D01*
X80710000Y-60674250D01*
X80868750Y-60833000D01*
X83058000Y-60833000D01*
X83058000Y-59843750D01*
X83312000Y-59843750D01*
X83312000Y-60833000D01*
X83332000Y-60833000D01*
X83332000Y-61087000D01*
X83312000Y-61087000D01*
X83312000Y-62076250D01*
X83465750Y-62230000D01*
X83312000Y-62383750D01*
X83312000Y-63373000D01*
X83332000Y-63373000D01*
X83332000Y-63627000D01*
X83312000Y-63627000D01*
X83312000Y-64616250D01*
X83465750Y-64770000D01*
X83312000Y-64923750D01*
X83312000Y-65913000D01*
X83332000Y-65913000D01*
X83332000Y-66167000D01*
X83312000Y-66167000D01*
X83312000Y-67156250D01*
X83465750Y-67310000D01*
X83312000Y-67463750D01*
X83312000Y-68453000D01*
X83332000Y-68453000D01*
X83332000Y-68707000D01*
X83312000Y-68707000D01*
X83312000Y-69696250D01*
X83470750Y-69855000D01*
X85025000Y-69858072D01*
X85149482Y-69845812D01*
X85269180Y-69809502D01*
X85379494Y-69750537D01*
X85405000Y-69729605D01*
X85430506Y-69750537D01*
X85540820Y-69809502D01*
X85660518Y-69845812D01*
X85785000Y-69858072D01*
X89465000Y-69858072D01*
X89589482Y-69845812D01*
X89709180Y-69809502D01*
X89819494Y-69750537D01*
X89916185Y-69671185D01*
X89995537Y-69574494D01*
X90054502Y-69464180D01*
X90090812Y-69344482D01*
X90103072Y-69220000D01*
X90103072Y-67940000D01*
X90090812Y-67815518D01*
X90054502Y-67695820D01*
X89995537Y-67585506D01*
X89916185Y-67488815D01*
X89819494Y-67409463D01*
X89709180Y-67350498D01*
X89589482Y-67314188D01*
X89546959Y-67310000D01*
X89589482Y-67305812D01*
X89709180Y-67269502D01*
X89819494Y-67210537D01*
X89916185Y-67131185D01*
X89995537Y-67034494D01*
X90054502Y-66924180D01*
X90090812Y-66804482D01*
X90103072Y-66680000D01*
X90103072Y-65400000D01*
X90090812Y-65275518D01*
X90054502Y-65155820D01*
X89995537Y-65045506D01*
X89916185Y-64948815D01*
X89819494Y-64869463D01*
X89709180Y-64810498D01*
X89589482Y-64774188D01*
X89546959Y-64770000D01*
X96187627Y-64770000D01*
X96250000Y-64776143D01*
X96312373Y-64770000D01*
X96312380Y-64770000D01*
X96498963Y-64751623D01*
X96738359Y-64679003D01*
X96880089Y-64603247D01*
X97039721Y-64635000D01*
X97460279Y-64635000D01*
X97872756Y-64552953D01*
X98261302Y-64392012D01*
X98610983Y-64158363D01*
X98908363Y-63860983D01*
X98969156Y-63770000D01*
X110830844Y-63770000D01*
X110891637Y-63860983D01*
X111189017Y-64158363D01*
X111538698Y-64392012D01*
X111927244Y-64552953D01*
X112339721Y-64635000D01*
X112760279Y-64635000D01*
X113172756Y-64552953D01*
X113561302Y-64392012D01*
X113910983Y-64158363D01*
X114208363Y-63860983D01*
X114442012Y-63511302D01*
X114602953Y-63122756D01*
X114685000Y-62710279D01*
X114685000Y-62289721D01*
X114602953Y-61877244D01*
X114442012Y-61488698D01*
X114208363Y-61139017D01*
X113910983Y-60841637D01*
X113561302Y-60607988D01*
X113172756Y-60447047D01*
X112760279Y-60365000D01*
X112339721Y-60365000D01*
X111927244Y-60447047D01*
X111538698Y-60607988D01*
X111189017Y-60841637D01*
X110891637Y-61139017D01*
X110830844Y-61230000D01*
X98969156Y-61230000D01*
X98908363Y-61139017D01*
X98610983Y-60841637D01*
X98261302Y-60607988D01*
X97872756Y-60447047D01*
X97460279Y-60365000D01*
X97039721Y-60365000D01*
X96627244Y-60447047D01*
X96238698Y-60607988D01*
X95889017Y-60841637D01*
X95591637Y-61139017D01*
X95357988Y-61488698D01*
X95197047Y-61877244D01*
X95126879Y-62230000D01*
X89546959Y-62230000D01*
X89589482Y-62225812D01*
X89709180Y-62189502D01*
X89819494Y-62130537D01*
X89916185Y-62051185D01*
X89995537Y-61954494D01*
X90054502Y-61844180D01*
X90090812Y-61724482D01*
X90103072Y-61600000D01*
X90103072Y-60320000D01*
X90090812Y-60195518D01*
X90054502Y-60075820D01*
X89995537Y-59965506D01*
X89916185Y-59868815D01*
X89819494Y-59789463D01*
X89709180Y-59730498D01*
X89589482Y-59694188D01*
X89465000Y-59681928D01*
X85785000Y-59681928D01*
X85660518Y-59694188D01*
X85540820Y-59730498D01*
X85430506Y-59789463D01*
X85405000Y-59810395D01*
X85379494Y-59789463D01*
X85269180Y-59730498D01*
X85149482Y-59694188D01*
X85025000Y-59681928D01*
X83470750Y-59685000D01*
X83312000Y-59843750D01*
X83058000Y-59843750D01*
X82899250Y-59685000D01*
X81345000Y-59681928D01*
X81220518Y-59694188D01*
X81100820Y-59730498D01*
X80990506Y-59789463D01*
X80893815Y-59868815D01*
X80814463Y-59965506D01*
X80755498Y-60075820D01*
X80719188Y-60195518D01*
X80706928Y-60320000D01*
X80660000Y-60320000D01*
X80660000Y-58782279D01*
X80688625Y-58490341D01*
X80764035Y-58240571D01*
X80886522Y-58010208D01*
X81051422Y-57808020D01*
X81252450Y-57641714D01*
X81481954Y-57517622D01*
X81731195Y-57440469D01*
X82021088Y-57410000D01*
X116717721Y-57410000D01*
X117009659Y-57438625D01*
G37*
%TD.AperFunction*%
%TD*%
M02*
