%TF.GenerationSoftware,KiCad,Pcbnew,(5.1.8-0-10_14)*%
%TF.CreationDate,2021-06-26T19:18:40+01:00*%
%TF.ProjectId,breadboard-power-distrib,62726561-6462-46f6-9172-642d706f7765,v01*%
%TF.SameCoordinates,Original*%
%TF.FileFunction,Legend,Top*%
%TF.FilePolarity,Positive*%
%FSLAX46Y46*%
G04 Gerber Fmt 4.6, Leading zero omitted, Abs format (unit mm)*
G04 Created by KiCad (PCBNEW (5.1.8-0-10_14)) date 2021-06-26 19:18:40*
%MOMM*%
%LPD*%
G01*
G04 APERTURE LIST*
%ADD10C,0.150000*%
%ADD11C,0.300000*%
%ADD12C,0.010000*%
G04 APERTURE END LIST*
D10*
X117821428Y-83761904D02*
X117821428Y-83000000D01*
X117202380Y-82666666D02*
X118202380Y-82333333D01*
X117202380Y-82000000D01*
X117678571Y-81666666D02*
X117678571Y-81333333D01*
X118202380Y-81190476D02*
X118202380Y-81666666D01*
X117202380Y-81666666D01*
X117202380Y-81190476D01*
X117250000Y-73261904D02*
X117202380Y-73357142D01*
X117202380Y-73500000D01*
X117250000Y-73642857D01*
X117345238Y-73738095D01*
X117440476Y-73785714D01*
X117630952Y-73833333D01*
X117773809Y-73833333D01*
X117964285Y-73785714D01*
X118059523Y-73738095D01*
X118154761Y-73642857D01*
X118202380Y-73500000D01*
X118202380Y-73404761D01*
X118154761Y-73261904D01*
X118107142Y-73214285D01*
X117773809Y-73214285D01*
X117773809Y-73404761D01*
X118202380Y-72785714D02*
X117202380Y-72785714D01*
X118202380Y-72214285D01*
X117202380Y-72214285D01*
X118202380Y-71738095D02*
X117202380Y-71738095D01*
X117202380Y-71500000D01*
X117250000Y-71357142D01*
X117345238Y-71261904D01*
X117440476Y-71214285D01*
X117630952Y-71166666D01*
X117773809Y-71166666D01*
X117964285Y-71214285D01*
X118059523Y-71261904D01*
X118154761Y-71357142D01*
X118202380Y-71500000D01*
X118202380Y-71738095D01*
X117821428Y-63761904D02*
X117821428Y-63000000D01*
X118202380Y-63380952D02*
X117440476Y-63380952D01*
X117202380Y-62666666D02*
X118202380Y-62333333D01*
X117202380Y-62000000D01*
X117678571Y-61666666D02*
X117678571Y-61333333D01*
X118202380Y-61190476D02*
X118202380Y-61666666D01*
X117202380Y-61666666D01*
X117202380Y-61190476D01*
D11*
X81792857Y-84857142D02*
X81864285Y-84642857D01*
X81935714Y-84571428D01*
X82078571Y-84500000D01*
X82292857Y-84500000D01*
X82435714Y-84571428D01*
X82507142Y-84642857D01*
X82578571Y-84785714D01*
X82578571Y-85357142D01*
X81078571Y-85357142D01*
X81078571Y-84857142D01*
X81150000Y-84714285D01*
X81221428Y-84642857D01*
X81364285Y-84571428D01*
X81507142Y-84571428D01*
X81650000Y-84642857D01*
X81721428Y-84714285D01*
X81792857Y-84857142D01*
X81792857Y-85357142D01*
X82578571Y-83857142D02*
X81578571Y-83857142D01*
X81864285Y-83857142D02*
X81721428Y-83785714D01*
X81650000Y-83714285D01*
X81578571Y-83571428D01*
X81578571Y-83428571D01*
X82507142Y-82357142D02*
X82578571Y-82500000D01*
X82578571Y-82785714D01*
X82507142Y-82928571D01*
X82364285Y-83000000D01*
X81792857Y-83000000D01*
X81650000Y-82928571D01*
X81578571Y-82785714D01*
X81578571Y-82500000D01*
X81650000Y-82357142D01*
X81792857Y-82285714D01*
X81935714Y-82285714D01*
X82078571Y-83000000D01*
X82578571Y-81000000D02*
X81792857Y-81000000D01*
X81650000Y-81071428D01*
X81578571Y-81214285D01*
X81578571Y-81500000D01*
X81650000Y-81642857D01*
X82507142Y-81000000D02*
X82578571Y-81142857D01*
X82578571Y-81500000D01*
X82507142Y-81642857D01*
X82364285Y-81714285D01*
X82221428Y-81714285D01*
X82078571Y-81642857D01*
X82007142Y-81500000D01*
X82007142Y-81142857D01*
X81935714Y-81000000D01*
X82578571Y-79642857D02*
X81078571Y-79642857D01*
X82507142Y-79642857D02*
X82578571Y-79785714D01*
X82578571Y-80071428D01*
X82507142Y-80214285D01*
X82435714Y-80285714D01*
X82292857Y-80357142D01*
X81864285Y-80357142D01*
X81721428Y-80285714D01*
X81650000Y-80214285D01*
X81578571Y-80071428D01*
X81578571Y-79785714D01*
X81650000Y-79642857D01*
X81792857Y-78428571D02*
X81864285Y-78214285D01*
X81935714Y-78142857D01*
X82078571Y-78071428D01*
X82292857Y-78071428D01*
X82435714Y-78142857D01*
X82507142Y-78214285D01*
X82578571Y-78357142D01*
X82578571Y-78928571D01*
X81078571Y-78928571D01*
X81078571Y-78428571D01*
X81150000Y-78285714D01*
X81221428Y-78214285D01*
X81364285Y-78142857D01*
X81507142Y-78142857D01*
X81650000Y-78214285D01*
X81721428Y-78285714D01*
X81792857Y-78428571D01*
X81792857Y-78928571D01*
X82578571Y-77214285D02*
X82507142Y-77357142D01*
X82435714Y-77428571D01*
X82292857Y-77500000D01*
X81864285Y-77500000D01*
X81721428Y-77428571D01*
X81650000Y-77357142D01*
X81578571Y-77214285D01*
X81578571Y-77000000D01*
X81650000Y-76857142D01*
X81721428Y-76785714D01*
X81864285Y-76714285D01*
X82292857Y-76714285D01*
X82435714Y-76785714D01*
X82507142Y-76857142D01*
X82578571Y-77000000D01*
X82578571Y-77214285D01*
X82578571Y-75428571D02*
X81792857Y-75428571D01*
X81650000Y-75500000D01*
X81578571Y-75642857D01*
X81578571Y-75928571D01*
X81650000Y-76071428D01*
X82507142Y-75428571D02*
X82578571Y-75571428D01*
X82578571Y-75928571D01*
X82507142Y-76071428D01*
X82364285Y-76142857D01*
X82221428Y-76142857D01*
X82078571Y-76071428D01*
X82007142Y-75928571D01*
X82007142Y-75571428D01*
X81935714Y-75428571D01*
X82578571Y-74714285D02*
X81578571Y-74714285D01*
X81864285Y-74714285D02*
X81721428Y-74642857D01*
X81650000Y-74571428D01*
X81578571Y-74428571D01*
X81578571Y-74285714D01*
X82578571Y-73142857D02*
X81078571Y-73142857D01*
X82507142Y-73142857D02*
X82578571Y-73285714D01*
X82578571Y-73571428D01*
X82507142Y-73714285D01*
X82435714Y-73785714D01*
X82292857Y-73857142D01*
X81864285Y-73857142D01*
X81721428Y-73785714D01*
X81650000Y-73714285D01*
X81578571Y-73571428D01*
X81578571Y-73285714D01*
X81650000Y-73142857D01*
X85128571Y-86428571D02*
X83628571Y-86428571D01*
X83628571Y-85857142D01*
X83700000Y-85714285D01*
X83771428Y-85642857D01*
X83914285Y-85571428D01*
X84128571Y-85571428D01*
X84271428Y-85642857D01*
X84342857Y-85714285D01*
X84414285Y-85857142D01*
X84414285Y-86428571D01*
X85128571Y-84714285D02*
X85057142Y-84857142D01*
X84985714Y-84928571D01*
X84842857Y-85000000D01*
X84414285Y-85000000D01*
X84271428Y-84928571D01*
X84200000Y-84857142D01*
X84128571Y-84714285D01*
X84128571Y-84500000D01*
X84200000Y-84357142D01*
X84271428Y-84285714D01*
X84414285Y-84214285D01*
X84842857Y-84214285D01*
X84985714Y-84285714D01*
X85057142Y-84357142D01*
X85128571Y-84500000D01*
X85128571Y-84714285D01*
X84128571Y-83714285D02*
X85128571Y-83428571D01*
X84414285Y-83142857D01*
X85128571Y-82857142D01*
X84128571Y-82571428D01*
X85057142Y-81428571D02*
X85128571Y-81571428D01*
X85128571Y-81857142D01*
X85057142Y-82000000D01*
X84914285Y-82071428D01*
X84342857Y-82071428D01*
X84200000Y-82000000D01*
X84128571Y-81857142D01*
X84128571Y-81571428D01*
X84200000Y-81428571D01*
X84342857Y-81357142D01*
X84485714Y-81357142D01*
X84628571Y-82071428D01*
X85128571Y-80714285D02*
X84128571Y-80714285D01*
X84414285Y-80714285D02*
X84271428Y-80642857D01*
X84200000Y-80571428D01*
X84128571Y-80428571D01*
X84128571Y-80285714D01*
X85128571Y-78642857D02*
X83628571Y-78642857D01*
X83628571Y-78285714D01*
X83700000Y-78071428D01*
X83842857Y-77928571D01*
X83985714Y-77857142D01*
X84271428Y-77785714D01*
X84485714Y-77785714D01*
X84771428Y-77857142D01*
X84914285Y-77928571D01*
X85057142Y-78071428D01*
X85128571Y-78285714D01*
X85128571Y-78642857D01*
X85128571Y-77142857D02*
X84128571Y-77142857D01*
X83628571Y-77142857D02*
X83700000Y-77214285D01*
X83771428Y-77142857D01*
X83700000Y-77071428D01*
X83628571Y-77142857D01*
X83771428Y-77142857D01*
X85057142Y-76500000D02*
X85128571Y-76357142D01*
X85128571Y-76071428D01*
X85057142Y-75928571D01*
X84914285Y-75857142D01*
X84842857Y-75857142D01*
X84700000Y-75928571D01*
X84628571Y-76071428D01*
X84628571Y-76285714D01*
X84557142Y-76428571D01*
X84414285Y-76500000D01*
X84342857Y-76500000D01*
X84200000Y-76428571D01*
X84128571Y-76285714D01*
X84128571Y-76071428D01*
X84200000Y-75928571D01*
X84128571Y-75428571D02*
X84128571Y-74857142D01*
X83628571Y-75214285D02*
X84914285Y-75214285D01*
X85057142Y-75142857D01*
X85128571Y-75000000D01*
X85128571Y-74857142D01*
X85128571Y-74357142D02*
X84128571Y-74357142D01*
X84414285Y-74357142D02*
X84271428Y-74285714D01*
X84200000Y-74214285D01*
X84128571Y-74071428D01*
X84128571Y-73928571D01*
X85128571Y-73428571D02*
X84128571Y-73428571D01*
X83628571Y-73428571D02*
X83700000Y-73500000D01*
X83771428Y-73428571D01*
X83700000Y-73357142D01*
X83628571Y-73428571D01*
X83771428Y-73428571D01*
X85128571Y-72714285D02*
X83628571Y-72714285D01*
X84200000Y-72714285D02*
X84128571Y-72571428D01*
X84128571Y-72285714D01*
X84200000Y-72142857D01*
X84271428Y-72071428D01*
X84414285Y-72000000D01*
X84842857Y-72000000D01*
X84985714Y-72071428D01*
X85057142Y-72142857D01*
X85128571Y-72285714D01*
X85128571Y-72571428D01*
X85057142Y-72714285D01*
X86678571Y-81035714D02*
X87678571Y-80678571D01*
X86678571Y-80321428D01*
X86178571Y-79464285D02*
X86178571Y-79321428D01*
X86250000Y-79178571D01*
X86321428Y-79107142D01*
X86464285Y-79035714D01*
X86750000Y-78964285D01*
X87107142Y-78964285D01*
X87392857Y-79035714D01*
X87535714Y-79107142D01*
X87607142Y-79178571D01*
X87678571Y-79321428D01*
X87678571Y-79464285D01*
X87607142Y-79607142D01*
X87535714Y-79678571D01*
X87392857Y-79750000D01*
X87107142Y-79821428D01*
X86750000Y-79821428D01*
X86464285Y-79750000D01*
X86321428Y-79678571D01*
X86250000Y-79607142D01*
X86178571Y-79464285D01*
X87678571Y-77535714D02*
X87678571Y-78392857D01*
X87678571Y-77964285D02*
X86178571Y-77964285D01*
X86392857Y-78107142D01*
X86535714Y-78250000D01*
X86607142Y-78392857D01*
X90228571Y-87392857D02*
X89228571Y-87392857D01*
X89514285Y-87392857D02*
X89371428Y-87321428D01*
X89300000Y-87250000D01*
X89228571Y-87107142D01*
X89228571Y-86964285D01*
X89228571Y-85821428D02*
X90228571Y-85821428D01*
X89228571Y-86464285D02*
X90014285Y-86464285D01*
X90157142Y-86392857D01*
X90228571Y-86250000D01*
X90228571Y-86035714D01*
X90157142Y-85892857D01*
X90085714Y-85821428D01*
X90228571Y-85107142D02*
X89228571Y-85107142D01*
X89371428Y-85107142D02*
X89300000Y-85035714D01*
X89228571Y-84892857D01*
X89228571Y-84678571D01*
X89300000Y-84535714D01*
X89442857Y-84464285D01*
X90228571Y-84464285D01*
X89442857Y-84464285D02*
X89300000Y-84392857D01*
X89228571Y-84250000D01*
X89228571Y-84035714D01*
X89300000Y-83892857D01*
X89442857Y-83821428D01*
X90228571Y-83821428D01*
X90228571Y-83107142D02*
X88728571Y-83107142D01*
X89300000Y-83107142D02*
X89228571Y-82964285D01*
X89228571Y-82678571D01*
X89300000Y-82535714D01*
X89371428Y-82464285D01*
X89514285Y-82392857D01*
X89942857Y-82392857D01*
X90085714Y-82464285D01*
X90157142Y-82535714D01*
X90228571Y-82678571D01*
X90228571Y-82964285D01*
X90157142Y-83107142D01*
X90228571Y-81535714D02*
X90157142Y-81678571D01*
X90014285Y-81750000D01*
X88728571Y-81750000D01*
X90157142Y-80392857D02*
X90228571Y-80535714D01*
X90228571Y-80821428D01*
X90157142Y-80964285D01*
X90014285Y-81035714D01*
X89442857Y-81035714D01*
X89300000Y-80964285D01*
X89228571Y-80821428D01*
X89228571Y-80535714D01*
X89300000Y-80392857D01*
X89442857Y-80321428D01*
X89585714Y-80321428D01*
X89728571Y-81035714D01*
X90157142Y-79750000D02*
X90228571Y-79607142D01*
X90228571Y-79321428D01*
X90157142Y-79178571D01*
X90014285Y-79107142D01*
X89942857Y-79107142D01*
X89800000Y-79178571D01*
X89728571Y-79321428D01*
X89728571Y-79535714D01*
X89657142Y-79678571D01*
X89514285Y-79750000D01*
X89442857Y-79750000D01*
X89300000Y-79678571D01*
X89228571Y-79535714D01*
X89228571Y-79321428D01*
X89300000Y-79178571D01*
X90228571Y-77821428D02*
X89442857Y-77821428D01*
X89300000Y-77892857D01*
X89228571Y-78035714D01*
X89228571Y-78321428D01*
X89300000Y-78464285D01*
X90157142Y-77821428D02*
X90228571Y-77964285D01*
X90228571Y-78321428D01*
X90157142Y-78464285D01*
X90014285Y-78535714D01*
X89871428Y-78535714D01*
X89728571Y-78464285D01*
X89657142Y-78321428D01*
X89657142Y-77964285D01*
X89585714Y-77821428D01*
X89228571Y-77107142D02*
X90228571Y-77107142D01*
X89371428Y-77107142D02*
X89300000Y-77035714D01*
X89228571Y-76892857D01*
X89228571Y-76678571D01*
X89300000Y-76535714D01*
X89442857Y-76464285D01*
X90228571Y-76464285D01*
X90085714Y-75750000D02*
X90157142Y-75678571D01*
X90228571Y-75750000D01*
X90157142Y-75821428D01*
X90085714Y-75750000D01*
X90228571Y-75750000D01*
X90157142Y-74392857D02*
X90228571Y-74535714D01*
X90228571Y-74821428D01*
X90157142Y-74964285D01*
X90085714Y-75035714D01*
X89942857Y-75107142D01*
X89514285Y-75107142D01*
X89371428Y-75035714D01*
X89300000Y-74964285D01*
X89228571Y-74821428D01*
X89228571Y-74535714D01*
X89300000Y-74392857D01*
X90228571Y-73535714D02*
X90157142Y-73678571D01*
X90085714Y-73750000D01*
X89942857Y-73821428D01*
X89514285Y-73821428D01*
X89371428Y-73750000D01*
X89300000Y-73678571D01*
X89228571Y-73535714D01*
X89228571Y-73321428D01*
X89300000Y-73178571D01*
X89371428Y-73107142D01*
X89514285Y-73035714D01*
X89942857Y-73035714D01*
X90085714Y-73107142D01*
X90157142Y-73178571D01*
X90228571Y-73321428D01*
X90228571Y-73535714D01*
X90228571Y-72392857D02*
X89228571Y-72392857D01*
X89371428Y-72392857D02*
X89300000Y-72321428D01*
X89228571Y-72178571D01*
X89228571Y-71964285D01*
X89300000Y-71821428D01*
X89442857Y-71750000D01*
X90228571Y-71750000D01*
X89442857Y-71750000D02*
X89300000Y-71678571D01*
X89228571Y-71535714D01*
X89228571Y-71321428D01*
X89300000Y-71178571D01*
X89442857Y-71107142D01*
X90228571Y-71107142D01*
%TO.C,J3*%
X116550000Y-65500000D02*
X116550000Y-66500000D01*
X116550000Y-66500000D02*
X114850000Y-66500000D01*
X114850000Y-66500000D02*
X114850000Y-67400000D01*
X114850000Y-67400000D02*
X93950000Y-67400000D01*
X93950000Y-67400000D02*
X93950000Y-57600000D01*
X93950000Y-57600000D02*
X114850000Y-57600000D01*
X114850000Y-57600000D02*
X114850000Y-58500000D01*
X114850000Y-58500000D02*
X116550000Y-58500000D01*
X116550000Y-58500000D02*
X116550000Y-59500000D01*
%TO.C,J4*%
X116550000Y-75500000D02*
X116550000Y-76500000D01*
X116550000Y-76500000D02*
X114850000Y-76500000D01*
X114850000Y-76500000D02*
X114850000Y-77400000D01*
X114850000Y-77400000D02*
X93950000Y-77400000D01*
X93950000Y-77400000D02*
X93950000Y-67600000D01*
X93950000Y-67600000D02*
X114850000Y-67600000D01*
X114850000Y-67600000D02*
X114850000Y-68500000D01*
X114850000Y-68500000D02*
X116550000Y-68500000D01*
X116550000Y-68500000D02*
X116550000Y-69500000D01*
%TO.C,J5*%
X116550000Y-85500000D02*
X116550000Y-86500000D01*
X116550000Y-86500000D02*
X114850000Y-86500000D01*
X114850000Y-86500000D02*
X114850000Y-87400000D01*
X114850000Y-87400000D02*
X93950000Y-87400000D01*
X93950000Y-87400000D02*
X93950000Y-77600000D01*
X93950000Y-77600000D02*
X114850000Y-77600000D01*
X114850000Y-77600000D02*
X114850000Y-78500000D01*
X114850000Y-78500000D02*
X116550000Y-78500000D01*
X116550000Y-78500000D02*
X116550000Y-79500000D01*
D12*
%TO.C,H1*%
G36*
X86122799Y-57312797D02*
G01*
X86692938Y-57426106D01*
X87040328Y-57527846D01*
X87601868Y-57748058D01*
X88133657Y-58026445D01*
X88631437Y-58358717D01*
X89090951Y-58740585D01*
X89507944Y-59167760D01*
X89878157Y-59635952D01*
X90197334Y-60140872D01*
X90461218Y-60678229D01*
X90637304Y-61152380D01*
X90795433Y-61757990D01*
X90887610Y-62372950D01*
X90914220Y-62992934D01*
X90875649Y-63613615D01*
X90772283Y-64230669D01*
X90604507Y-64839767D01*
X90372707Y-65436585D01*
X90228453Y-65737792D01*
X89897993Y-66312105D01*
X89516498Y-66844309D01*
X89087568Y-67331669D01*
X88614802Y-67771449D01*
X88101799Y-68160913D01*
X87552160Y-68497326D01*
X86969485Y-68777954D01*
X86357372Y-69000060D01*
X85725371Y-69159721D01*
X85487238Y-69204242D01*
X85270809Y-69238760D01*
X85085381Y-69262246D01*
X84940253Y-69273669D01*
X84844720Y-69271998D01*
X84810770Y-69261103D01*
X84805768Y-69223104D01*
X84801091Y-69123944D01*
X84796837Y-68970195D01*
X84793103Y-68768429D01*
X84789988Y-68525218D01*
X84787591Y-68247133D01*
X84786008Y-67940748D01*
X84785338Y-67612634D01*
X84785322Y-67556002D01*
X84785274Y-65876780D01*
X84302722Y-65872638D01*
X83931175Y-65855497D01*
X83598775Y-65807387D01*
X83281985Y-65722995D01*
X82957269Y-65597012D01*
X82837109Y-65541977D01*
X82483619Y-65347184D01*
X82922703Y-65347184D01*
X82953657Y-65379546D01*
X83038241Y-65422674D01*
X83164040Y-65472309D01*
X83318640Y-65524189D01*
X83489625Y-65574054D01*
X83664580Y-65617644D01*
X83781569Y-65641919D01*
X83894299Y-65657182D01*
X84040014Y-65668675D01*
X84203726Y-65676222D01*
X84370450Y-65679648D01*
X84525200Y-65678777D01*
X84652988Y-65673434D01*
X84738830Y-65663443D01*
X84766073Y-65653453D01*
X84770136Y-65616366D01*
X84773512Y-65518660D01*
X84776146Y-65367446D01*
X84777983Y-65169835D01*
X84778968Y-64932938D01*
X84778990Y-64856808D01*
X86774212Y-64856808D01*
X86808205Y-64907566D01*
X86875793Y-65003435D01*
X86972204Y-65137923D01*
X87092668Y-65304541D01*
X87232412Y-65496797D01*
X87386664Y-65708201D01*
X87550654Y-65932263D01*
X87719610Y-66162492D01*
X87888759Y-66392397D01*
X88053332Y-66615489D01*
X88208555Y-66825276D01*
X88349657Y-67015269D01*
X88471867Y-67178976D01*
X88570414Y-67309907D01*
X88640525Y-67401572D01*
X88677429Y-67447480D01*
X88681790Y-67451580D01*
X88713503Y-67428507D01*
X88780449Y-67366237D01*
X88871757Y-67275191D01*
X88944667Y-67199581D01*
X89376587Y-66700052D01*
X89751763Y-66171747D01*
X90067562Y-65619158D01*
X90321351Y-65046778D01*
X90474822Y-64588586D01*
X90533801Y-64384126D01*
X88979878Y-63880716D01*
X88669962Y-63780662D01*
X88380171Y-63687777D01*
X88116769Y-63604020D01*
X87886022Y-63531351D01*
X87694195Y-63471732D01*
X87547551Y-63427122D01*
X87452357Y-63399482D01*
X87414877Y-63390772D01*
X87414586Y-63390910D01*
X87401475Y-63428162D01*
X87377607Y-63513500D01*
X87347938Y-63629123D01*
X87345308Y-63639773D01*
X87244430Y-63950344D01*
X87095668Y-64270898D01*
X86909984Y-64577874D01*
X86906520Y-64582914D01*
X86823843Y-64712934D01*
X86778680Y-64806999D01*
X86774212Y-64856808D01*
X84778990Y-64856808D01*
X84779046Y-64663866D01*
X84778163Y-64369731D01*
X84777275Y-64204266D01*
X84768437Y-62775206D01*
X83845570Y-64044363D01*
X83657767Y-64303342D01*
X83482790Y-64545996D01*
X83324580Y-64766763D01*
X83187076Y-64960082D01*
X83074220Y-65120389D01*
X82989949Y-65242123D01*
X82938206Y-65319721D01*
X82922703Y-65347184D01*
X82483619Y-65347184D01*
X82379362Y-65289733D01*
X81968453Y-64991089D01*
X81606184Y-64650231D01*
X81294354Y-64271349D01*
X81034764Y-63858632D01*
X80829213Y-63416268D01*
X80679504Y-62948446D01*
X80587434Y-62459354D01*
X80554806Y-61953182D01*
X80559578Y-61866606D01*
X80756040Y-61866606D01*
X80760288Y-62069717D01*
X80772356Y-62273850D01*
X80792548Y-62467932D01*
X80805803Y-62557847D01*
X80843645Y-62755690D01*
X80890452Y-62952236D01*
X80942665Y-63136977D01*
X80996725Y-63299402D01*
X81049073Y-63429002D01*
X81096151Y-63515270D01*
X81134400Y-63547694D01*
X81140681Y-63546792D01*
X81179518Y-63533867D01*
X81276456Y-63502119D01*
X81425162Y-63453609D01*
X81619305Y-63390398D01*
X81852551Y-63314545D01*
X82118568Y-63228111D01*
X82411023Y-63133157D01*
X82723584Y-63031741D01*
X82770303Y-63016588D01*
X83084370Y-62914537D01*
X83378478Y-62818606D01*
X83646409Y-62730848D01*
X83881946Y-62653318D01*
X83887776Y-62651386D01*
X85166634Y-62651386D01*
X85879339Y-63629948D01*
X86044589Y-63855176D01*
X86198278Y-64061463D01*
X86335701Y-64242735D01*
X86452152Y-64392918D01*
X86542926Y-64505937D01*
X86603317Y-64575721D01*
X86628171Y-64596469D01*
X86663250Y-64564181D01*
X86723008Y-64489809D01*
X86795585Y-64388300D01*
X86808564Y-64369093D01*
X86913353Y-64191580D01*
X87011924Y-63986847D01*
X87095400Y-63776709D01*
X87154905Y-63582981D01*
X87178726Y-63459385D01*
X87197183Y-63302914D01*
X86524677Y-63086305D01*
X86295046Y-63012407D01*
X86061598Y-62937393D01*
X85841412Y-62866744D01*
X85651567Y-62805939D01*
X85509402Y-62760541D01*
X85166634Y-62651386D01*
X83887776Y-62651386D01*
X84078873Y-62588067D01*
X84230972Y-62537151D01*
X84332027Y-62502623D01*
X84375819Y-62486537D01*
X84377088Y-62485820D01*
X84382183Y-62465269D01*
X84357795Y-62438427D01*
X84300066Y-62403828D01*
X84205136Y-62360004D01*
X84069145Y-62305489D01*
X83888233Y-62238816D01*
X83819433Y-62214764D01*
X85191770Y-62214764D01*
X85222184Y-62208074D01*
X85306377Y-62183633D01*
X85433777Y-62144823D01*
X85593811Y-62095026D01*
X85775905Y-62037625D01*
X85969487Y-61976000D01*
X86163983Y-61913535D01*
X86348822Y-61853611D01*
X86513429Y-61799609D01*
X86647233Y-61754913D01*
X86739660Y-61722903D01*
X86780137Y-61706962D01*
X86780814Y-61706481D01*
X86772953Y-61673207D01*
X86719400Y-61612218D01*
X86631466Y-61532382D01*
X86520464Y-61442566D01*
X86397706Y-61351640D01*
X86274504Y-61268470D01*
X86162170Y-61201925D01*
X86096885Y-61170327D01*
X85977583Y-61120479D01*
X85584676Y-61661394D01*
X85464327Y-61827680D01*
X85358881Y-61974524D01*
X85274366Y-62093437D01*
X85216809Y-62175929D01*
X85192238Y-62213510D01*
X85191770Y-62214764D01*
X83819433Y-62214764D01*
X83658542Y-62158518D01*
X83376212Y-62063127D01*
X83037382Y-61951178D01*
X82638194Y-61821203D01*
X82572454Y-61799926D01*
X82247807Y-61695184D01*
X82093589Y-61645679D01*
X84437685Y-61645679D01*
X84602663Y-61873163D01*
X84679167Y-61977287D01*
X84739145Y-62056356D01*
X84772800Y-62097548D01*
X84776506Y-62100647D01*
X84779795Y-62068871D01*
X84782532Y-61981905D01*
X84784465Y-61852290D01*
X84785343Y-61692570D01*
X84785370Y-61658074D01*
X84785370Y-61215501D01*
X84689367Y-61283861D01*
X84614153Y-61356673D01*
X84538985Y-61458585D01*
X84515525Y-61498950D01*
X84437685Y-61645679D01*
X82093589Y-61645679D01*
X81942065Y-61597039D01*
X81661389Y-61507437D01*
X81411937Y-61428318D01*
X81199870Y-61361626D01*
X81031346Y-61309303D01*
X80912526Y-61273293D01*
X80849569Y-61255537D01*
X80841505Y-61253980D01*
X80811196Y-61285868D01*
X80787192Y-61374149D01*
X80769796Y-61507748D01*
X80759311Y-61675592D01*
X80756040Y-61866606D01*
X80559578Y-61866606D01*
X80583419Y-61434116D01*
X80675074Y-60906348D01*
X80739159Y-60660911D01*
X80909546Y-60187189D01*
X81140736Y-59724467D01*
X81425832Y-59281604D01*
X81757936Y-58867458D01*
X81970936Y-58651966D01*
X82279236Y-58651966D01*
X82298330Y-58682525D01*
X82352582Y-58761436D01*
X82437444Y-58882383D01*
X82548373Y-59039051D01*
X82680822Y-59225124D01*
X82830245Y-59434287D01*
X82992096Y-59660225D01*
X83161831Y-59896623D01*
X83334903Y-60137164D01*
X83506766Y-60375535D01*
X83672874Y-60605419D01*
X83828683Y-60820501D01*
X83969646Y-61014466D01*
X84091217Y-61180998D01*
X84188851Y-61313782D01*
X84258002Y-61406503D01*
X84294124Y-61452845D01*
X84298269Y-61456984D01*
X84317407Y-61431703D01*
X84361507Y-61367288D01*
X84389665Y-61325066D01*
X84470874Y-61225933D01*
X84577776Y-61124247D01*
X84631232Y-61082258D01*
X84785370Y-60971565D01*
X84785370Y-60943255D01*
X86106000Y-60943255D01*
X86329734Y-61068375D01*
X86463450Y-61154002D01*
X86614644Y-61267273D01*
X86754534Y-61386354D01*
X86778552Y-61408877D01*
X86880272Y-61503562D01*
X86964758Y-61577301D01*
X87019571Y-61619467D01*
X87031928Y-61625387D01*
X87068850Y-61615445D01*
X87163818Y-61586504D01*
X87310487Y-61540586D01*
X87502513Y-61479709D01*
X87733553Y-61405896D01*
X87997261Y-61321165D01*
X88287295Y-61227537D01*
X88597310Y-61127033D01*
X88619544Y-61119809D01*
X88930287Y-61018631D01*
X89221013Y-60923583D01*
X89485443Y-60836744D01*
X89717296Y-60760196D01*
X89910291Y-60696019D01*
X90058148Y-60646294D01*
X90154587Y-60613103D01*
X90193328Y-60598525D01*
X90193729Y-60598243D01*
X90188675Y-60559121D01*
X90152267Y-60473714D01*
X90090086Y-60352514D01*
X90007712Y-60206015D01*
X89910724Y-60044709D01*
X89840088Y-59933180D01*
X89604631Y-59599980D01*
X89336620Y-59272856D01*
X89056721Y-58976299D01*
X88939688Y-58865935D01*
X88804975Y-58748804D01*
X88657698Y-58628806D01*
X88508225Y-58513465D01*
X88366926Y-58410307D01*
X88244167Y-58326854D01*
X88150318Y-58270632D01*
X88095746Y-58249164D01*
X88090508Y-58249687D01*
X88064821Y-58278168D01*
X88003985Y-58355199D01*
X87912631Y-58474507D01*
X87795394Y-58629824D01*
X87656907Y-58814879D01*
X87501804Y-59023402D01*
X87334717Y-59249123D01*
X87160280Y-59485771D01*
X86983127Y-59727077D01*
X86807891Y-59966771D01*
X86639205Y-60198581D01*
X86481703Y-60416239D01*
X86340017Y-60613474D01*
X86241780Y-60751484D01*
X86106000Y-60943255D01*
X84785370Y-60943255D01*
X84785370Y-59233172D01*
X84784759Y-58791000D01*
X84782911Y-58415497D01*
X84779804Y-58105608D01*
X84775419Y-57860279D01*
X84769732Y-57678458D01*
X84762723Y-57559089D01*
X84754371Y-57501119D01*
X84750075Y-57494780D01*
X84701907Y-57501093D01*
X84606219Y-57517811D01*
X84481816Y-57541610D01*
X84453742Y-57547208D01*
X83957210Y-57676852D01*
X83468865Y-57861923D01*
X83008896Y-58094210D01*
X82812388Y-58214663D01*
X82634745Y-58335135D01*
X82484727Y-58446063D01*
X82370284Y-58540928D01*
X82299363Y-58613211D01*
X82279236Y-58651966D01*
X81970936Y-58651966D01*
X82130152Y-58490888D01*
X82535582Y-58160754D01*
X82844689Y-57956481D01*
X83347065Y-57694393D01*
X83874228Y-57493492D01*
X84420779Y-57354331D01*
X84981323Y-57277460D01*
X85550462Y-57263432D01*
X86122799Y-57312797D01*
G37*
X86122799Y-57312797D02*
X86692938Y-57426106D01*
X87040328Y-57527846D01*
X87601868Y-57748058D01*
X88133657Y-58026445D01*
X88631437Y-58358717D01*
X89090951Y-58740585D01*
X89507944Y-59167760D01*
X89878157Y-59635952D01*
X90197334Y-60140872D01*
X90461218Y-60678229D01*
X90637304Y-61152380D01*
X90795433Y-61757990D01*
X90887610Y-62372950D01*
X90914220Y-62992934D01*
X90875649Y-63613615D01*
X90772283Y-64230669D01*
X90604507Y-64839767D01*
X90372707Y-65436585D01*
X90228453Y-65737792D01*
X89897993Y-66312105D01*
X89516498Y-66844309D01*
X89087568Y-67331669D01*
X88614802Y-67771449D01*
X88101799Y-68160913D01*
X87552160Y-68497326D01*
X86969485Y-68777954D01*
X86357372Y-69000060D01*
X85725371Y-69159721D01*
X85487238Y-69204242D01*
X85270809Y-69238760D01*
X85085381Y-69262246D01*
X84940253Y-69273669D01*
X84844720Y-69271998D01*
X84810770Y-69261103D01*
X84805768Y-69223104D01*
X84801091Y-69123944D01*
X84796837Y-68970195D01*
X84793103Y-68768429D01*
X84789988Y-68525218D01*
X84787591Y-68247133D01*
X84786008Y-67940748D01*
X84785338Y-67612634D01*
X84785322Y-67556002D01*
X84785274Y-65876780D01*
X84302722Y-65872638D01*
X83931175Y-65855497D01*
X83598775Y-65807387D01*
X83281985Y-65722995D01*
X82957269Y-65597012D01*
X82837109Y-65541977D01*
X82483619Y-65347184D01*
X82922703Y-65347184D01*
X82953657Y-65379546D01*
X83038241Y-65422674D01*
X83164040Y-65472309D01*
X83318640Y-65524189D01*
X83489625Y-65574054D01*
X83664580Y-65617644D01*
X83781569Y-65641919D01*
X83894299Y-65657182D01*
X84040014Y-65668675D01*
X84203726Y-65676222D01*
X84370450Y-65679648D01*
X84525200Y-65678777D01*
X84652988Y-65673434D01*
X84738830Y-65663443D01*
X84766073Y-65653453D01*
X84770136Y-65616366D01*
X84773512Y-65518660D01*
X84776146Y-65367446D01*
X84777983Y-65169835D01*
X84778968Y-64932938D01*
X84778990Y-64856808D01*
X86774212Y-64856808D01*
X86808205Y-64907566D01*
X86875793Y-65003435D01*
X86972204Y-65137923D01*
X87092668Y-65304541D01*
X87232412Y-65496797D01*
X87386664Y-65708201D01*
X87550654Y-65932263D01*
X87719610Y-66162492D01*
X87888759Y-66392397D01*
X88053332Y-66615489D01*
X88208555Y-66825276D01*
X88349657Y-67015269D01*
X88471867Y-67178976D01*
X88570414Y-67309907D01*
X88640525Y-67401572D01*
X88677429Y-67447480D01*
X88681790Y-67451580D01*
X88713503Y-67428507D01*
X88780449Y-67366237D01*
X88871757Y-67275191D01*
X88944667Y-67199581D01*
X89376587Y-66700052D01*
X89751763Y-66171747D01*
X90067562Y-65619158D01*
X90321351Y-65046778D01*
X90474822Y-64588586D01*
X90533801Y-64384126D01*
X88979878Y-63880716D01*
X88669962Y-63780662D01*
X88380171Y-63687777D01*
X88116769Y-63604020D01*
X87886022Y-63531351D01*
X87694195Y-63471732D01*
X87547551Y-63427122D01*
X87452357Y-63399482D01*
X87414877Y-63390772D01*
X87414586Y-63390910D01*
X87401475Y-63428162D01*
X87377607Y-63513500D01*
X87347938Y-63629123D01*
X87345308Y-63639773D01*
X87244430Y-63950344D01*
X87095668Y-64270898D01*
X86909984Y-64577874D01*
X86906520Y-64582914D01*
X86823843Y-64712934D01*
X86778680Y-64806999D01*
X86774212Y-64856808D01*
X84778990Y-64856808D01*
X84779046Y-64663866D01*
X84778163Y-64369731D01*
X84777275Y-64204266D01*
X84768437Y-62775206D01*
X83845570Y-64044363D01*
X83657767Y-64303342D01*
X83482790Y-64545996D01*
X83324580Y-64766763D01*
X83187076Y-64960082D01*
X83074220Y-65120389D01*
X82989949Y-65242123D01*
X82938206Y-65319721D01*
X82922703Y-65347184D01*
X82483619Y-65347184D01*
X82379362Y-65289733D01*
X81968453Y-64991089D01*
X81606184Y-64650231D01*
X81294354Y-64271349D01*
X81034764Y-63858632D01*
X80829213Y-63416268D01*
X80679504Y-62948446D01*
X80587434Y-62459354D01*
X80554806Y-61953182D01*
X80559578Y-61866606D01*
X80756040Y-61866606D01*
X80760288Y-62069717D01*
X80772356Y-62273850D01*
X80792548Y-62467932D01*
X80805803Y-62557847D01*
X80843645Y-62755690D01*
X80890452Y-62952236D01*
X80942665Y-63136977D01*
X80996725Y-63299402D01*
X81049073Y-63429002D01*
X81096151Y-63515270D01*
X81134400Y-63547694D01*
X81140681Y-63546792D01*
X81179518Y-63533867D01*
X81276456Y-63502119D01*
X81425162Y-63453609D01*
X81619305Y-63390398D01*
X81852551Y-63314545D01*
X82118568Y-63228111D01*
X82411023Y-63133157D01*
X82723584Y-63031741D01*
X82770303Y-63016588D01*
X83084370Y-62914537D01*
X83378478Y-62818606D01*
X83646409Y-62730848D01*
X83881946Y-62653318D01*
X83887776Y-62651386D01*
X85166634Y-62651386D01*
X85879339Y-63629948D01*
X86044589Y-63855176D01*
X86198278Y-64061463D01*
X86335701Y-64242735D01*
X86452152Y-64392918D01*
X86542926Y-64505937D01*
X86603317Y-64575721D01*
X86628171Y-64596469D01*
X86663250Y-64564181D01*
X86723008Y-64489809D01*
X86795585Y-64388300D01*
X86808564Y-64369093D01*
X86913353Y-64191580D01*
X87011924Y-63986847D01*
X87095400Y-63776709D01*
X87154905Y-63582981D01*
X87178726Y-63459385D01*
X87197183Y-63302914D01*
X86524677Y-63086305D01*
X86295046Y-63012407D01*
X86061598Y-62937393D01*
X85841412Y-62866744D01*
X85651567Y-62805939D01*
X85509402Y-62760541D01*
X85166634Y-62651386D01*
X83887776Y-62651386D01*
X84078873Y-62588067D01*
X84230972Y-62537151D01*
X84332027Y-62502623D01*
X84375819Y-62486537D01*
X84377088Y-62485820D01*
X84382183Y-62465269D01*
X84357795Y-62438427D01*
X84300066Y-62403828D01*
X84205136Y-62360004D01*
X84069145Y-62305489D01*
X83888233Y-62238816D01*
X83819433Y-62214764D01*
X85191770Y-62214764D01*
X85222184Y-62208074D01*
X85306377Y-62183633D01*
X85433777Y-62144823D01*
X85593811Y-62095026D01*
X85775905Y-62037625D01*
X85969487Y-61976000D01*
X86163983Y-61913535D01*
X86348822Y-61853611D01*
X86513429Y-61799609D01*
X86647233Y-61754913D01*
X86739660Y-61722903D01*
X86780137Y-61706962D01*
X86780814Y-61706481D01*
X86772953Y-61673207D01*
X86719400Y-61612218D01*
X86631466Y-61532382D01*
X86520464Y-61442566D01*
X86397706Y-61351640D01*
X86274504Y-61268470D01*
X86162170Y-61201925D01*
X86096885Y-61170327D01*
X85977583Y-61120479D01*
X85584676Y-61661394D01*
X85464327Y-61827680D01*
X85358881Y-61974524D01*
X85274366Y-62093437D01*
X85216809Y-62175929D01*
X85192238Y-62213510D01*
X85191770Y-62214764D01*
X83819433Y-62214764D01*
X83658542Y-62158518D01*
X83376212Y-62063127D01*
X83037382Y-61951178D01*
X82638194Y-61821203D01*
X82572454Y-61799926D01*
X82247807Y-61695184D01*
X82093589Y-61645679D01*
X84437685Y-61645679D01*
X84602663Y-61873163D01*
X84679167Y-61977287D01*
X84739145Y-62056356D01*
X84772800Y-62097548D01*
X84776506Y-62100647D01*
X84779795Y-62068871D01*
X84782532Y-61981905D01*
X84784465Y-61852290D01*
X84785343Y-61692570D01*
X84785370Y-61658074D01*
X84785370Y-61215501D01*
X84689367Y-61283861D01*
X84614153Y-61356673D01*
X84538985Y-61458585D01*
X84515525Y-61498950D01*
X84437685Y-61645679D01*
X82093589Y-61645679D01*
X81942065Y-61597039D01*
X81661389Y-61507437D01*
X81411937Y-61428318D01*
X81199870Y-61361626D01*
X81031346Y-61309303D01*
X80912526Y-61273293D01*
X80849569Y-61255537D01*
X80841505Y-61253980D01*
X80811196Y-61285868D01*
X80787192Y-61374149D01*
X80769796Y-61507748D01*
X80759311Y-61675592D01*
X80756040Y-61866606D01*
X80559578Y-61866606D01*
X80583419Y-61434116D01*
X80675074Y-60906348D01*
X80739159Y-60660911D01*
X80909546Y-60187189D01*
X81140736Y-59724467D01*
X81425832Y-59281604D01*
X81757936Y-58867458D01*
X81970936Y-58651966D01*
X82279236Y-58651966D01*
X82298330Y-58682525D01*
X82352582Y-58761436D01*
X82437444Y-58882383D01*
X82548373Y-59039051D01*
X82680822Y-59225124D01*
X82830245Y-59434287D01*
X82992096Y-59660225D01*
X83161831Y-59896623D01*
X83334903Y-60137164D01*
X83506766Y-60375535D01*
X83672874Y-60605419D01*
X83828683Y-60820501D01*
X83969646Y-61014466D01*
X84091217Y-61180998D01*
X84188851Y-61313782D01*
X84258002Y-61406503D01*
X84294124Y-61452845D01*
X84298269Y-61456984D01*
X84317407Y-61431703D01*
X84361507Y-61367288D01*
X84389665Y-61325066D01*
X84470874Y-61225933D01*
X84577776Y-61124247D01*
X84631232Y-61082258D01*
X84785370Y-60971565D01*
X84785370Y-60943255D01*
X86106000Y-60943255D01*
X86329734Y-61068375D01*
X86463450Y-61154002D01*
X86614644Y-61267273D01*
X86754534Y-61386354D01*
X86778552Y-61408877D01*
X86880272Y-61503562D01*
X86964758Y-61577301D01*
X87019571Y-61619467D01*
X87031928Y-61625387D01*
X87068850Y-61615445D01*
X87163818Y-61586504D01*
X87310487Y-61540586D01*
X87502513Y-61479709D01*
X87733553Y-61405896D01*
X87997261Y-61321165D01*
X88287295Y-61227537D01*
X88597310Y-61127033D01*
X88619544Y-61119809D01*
X88930287Y-61018631D01*
X89221013Y-60923583D01*
X89485443Y-60836744D01*
X89717296Y-60760196D01*
X89910291Y-60696019D01*
X90058148Y-60646294D01*
X90154587Y-60613103D01*
X90193328Y-60598525D01*
X90193729Y-60598243D01*
X90188675Y-60559121D01*
X90152267Y-60473714D01*
X90090086Y-60352514D01*
X90007712Y-60206015D01*
X89910724Y-60044709D01*
X89840088Y-59933180D01*
X89604631Y-59599980D01*
X89336620Y-59272856D01*
X89056721Y-58976299D01*
X88939688Y-58865935D01*
X88804975Y-58748804D01*
X88657698Y-58628806D01*
X88508225Y-58513465D01*
X88366926Y-58410307D01*
X88244167Y-58326854D01*
X88150318Y-58270632D01*
X88095746Y-58249164D01*
X88090508Y-58249687D01*
X88064821Y-58278168D01*
X88003985Y-58355199D01*
X87912631Y-58474507D01*
X87795394Y-58629824D01*
X87656907Y-58814879D01*
X87501804Y-59023402D01*
X87334717Y-59249123D01*
X87160280Y-59485771D01*
X86983127Y-59727077D01*
X86807891Y-59966771D01*
X86639205Y-60198581D01*
X86481703Y-60416239D01*
X86340017Y-60613474D01*
X86241780Y-60751484D01*
X86106000Y-60943255D01*
X84785370Y-60943255D01*
X84785370Y-59233172D01*
X84784759Y-58791000D01*
X84782911Y-58415497D01*
X84779804Y-58105608D01*
X84775419Y-57860279D01*
X84769732Y-57678458D01*
X84762723Y-57559089D01*
X84754371Y-57501119D01*
X84750075Y-57494780D01*
X84701907Y-57501093D01*
X84606219Y-57517811D01*
X84481816Y-57541610D01*
X84453742Y-57547208D01*
X83957210Y-57676852D01*
X83468865Y-57861923D01*
X83008896Y-58094210D01*
X82812388Y-58214663D01*
X82634745Y-58335135D01*
X82484727Y-58446063D01*
X82370284Y-58540928D01*
X82299363Y-58613211D01*
X82279236Y-58651966D01*
X81970936Y-58651966D01*
X82130152Y-58490888D01*
X82535582Y-58160754D01*
X82844689Y-57956481D01*
X83347065Y-57694393D01*
X83874228Y-57493492D01*
X84420779Y-57354331D01*
X84981323Y-57277460D01*
X85550462Y-57263432D01*
X86122799Y-57312797D01*
%TD*%
M02*
