%TF.GenerationSoftware,KiCad,Pcbnew,(6.0.6-0)*%
%TF.CreationDate,2022-09-03T02:13:53+01:00*%
%TF.ProjectId,serge-r5-triple-wave-shaper,73657267-652d-4723-952d-747269706c65,rev?*%
%TF.SameCoordinates,Original*%
%TF.FileFunction,Profile,NP*%
%FSLAX46Y46*%
G04 Gerber Fmt 4.6, Leading zero omitted, Abs format (unit mm)*
G04 Created by KiCad (PCBNEW (6.0.6-0)) date 2022-09-03 02:13:53*
%MOMM*%
%LPD*%
G01*
G04 APERTURE LIST*
%TA.AperFunction,Profile*%
%ADD10C,0.050000*%
%TD*%
G04 APERTURE END LIST*
D10*
X76200000Y-161544000D02*
X76200000Y-147066000D01*
X25400000Y-182245000D02*
X25400000Y-31115000D01*
X73660000Y-128016000D02*
X73660000Y-142494000D01*
X76200000Y-85344000D02*
X76200000Y-70866000D01*
X123825000Y-182880000D02*
X76835000Y-182880000D01*
X124460000Y-31115000D02*
G75*
G03*
X123825000Y-30480000I-635000J0D01*
G01*
X76200000Y-104394000D02*
X76200000Y-89916000D01*
X76200000Y-123444000D02*
X76200000Y-108966000D01*
X73660000Y-166116000D02*
X73660000Y-182245000D01*
X73660000Y-31115000D02*
G75*
G03*
X73025000Y-30480000I-635000J0D01*
G01*
X76835000Y-30480000D02*
G75*
G03*
X76200000Y-31115000I0J-635000D01*
G01*
X76835000Y-30480000D02*
X123825000Y-30480000D01*
X73660000Y-70866000D02*
X73660000Y-85344000D01*
X73660000Y-147066000D02*
X73660000Y-161544000D01*
X73660000Y-51816000D02*
X73660000Y-66294000D01*
X76200000Y-66294000D02*
X76200000Y-51816000D01*
X73025000Y-182880000D02*
X26035000Y-182880000D01*
X73025000Y-182880000D02*
G75*
G03*
X73660000Y-182245000I0J635000D01*
G01*
X73660000Y-108966000D02*
X73660000Y-123444000D01*
X73660000Y-47244000D02*
X73660000Y-31115000D01*
X76200000Y-47244000D02*
X76200000Y-31115000D01*
X123825000Y-182880000D02*
G75*
G03*
X124460000Y-182245000I0J635000D01*
G01*
X124460000Y-31115000D02*
X124460000Y-182245000D01*
X25400000Y-182245000D02*
G75*
G03*
X26035000Y-182880000I635000J0D01*
G01*
X76200000Y-142494000D02*
X76200000Y-128016000D01*
X26035000Y-30480000D02*
G75*
G03*
X25400000Y-31115000I0J-635000D01*
G01*
X26035000Y-30480000D02*
X73025000Y-30480000D01*
X76200000Y-166116000D02*
X76200000Y-182245000D01*
X73660000Y-89916000D02*
X73660000Y-104394000D01*
X76200000Y-182245000D02*
G75*
G03*
X76835000Y-182880000I635000J0D01*
G01*
%TO.C,mouse-bite-2.54mm-slot*%
X73660000Y-47244000D02*
G75*
G03*
X76200000Y-47244000I1270000J0D01*
G01*
X76200000Y-51816000D02*
G75*
G03*
X73660000Y-51816000I-1270000J0D01*
G01*
X73660000Y-123444000D02*
G75*
G03*
X76200000Y-123444000I1270000J0D01*
G01*
X76200000Y-128016000D02*
G75*
G03*
X73660000Y-128016000I-1270000J0D01*
G01*
X76200000Y-147066000D02*
G75*
G03*
X73660000Y-147066000I-1270000J0D01*
G01*
X73660000Y-142494000D02*
G75*
G03*
X76200000Y-142494000I1270000J0D01*
G01*
X76200000Y-108966000D02*
G75*
G03*
X73660000Y-108966000I-1270000J0D01*
G01*
X73660000Y-104394000D02*
G75*
G03*
X76200000Y-104394000I1270000J0D01*
G01*
X76200000Y-166116000D02*
G75*
G03*
X73660000Y-166116000I-1270000J0D01*
G01*
X73660000Y-161544000D02*
G75*
G03*
X76200000Y-161544000I1270000J0D01*
G01*
X73660000Y-66294000D02*
G75*
G03*
X76200000Y-66294000I1270000J0D01*
G01*
X76200000Y-70866000D02*
G75*
G03*
X73660000Y-70866000I-1270000J0D01*
G01*
X76200000Y-89916000D02*
G75*
G03*
X73660000Y-89916000I-1270000J0D01*
G01*
X73660000Y-85344000D02*
G75*
G03*
X76200000Y-85344000I1270000J0D01*
G01*
%TD*%
M02*
