%TF.GenerationSoftware,KiCad,Pcbnew,(6.0.6-0)*%
%TF.CreationDate,2022-09-03T02:13:53+01:00*%
%TF.ProjectId,serge-r5-triple-wave-shaper,73657267-652d-4723-952d-747269706c65,rev?*%
%TF.SameCoordinates,Original*%
%TF.FileFunction,Legend,Bot*%
%TF.FilePolarity,Positive*%
%FSLAX46Y46*%
G04 Gerber Fmt 4.6, Leading zero omitted, Abs format (unit mm)*
G04 Created by KiCad (PCBNEW (6.0.6-0)) date 2022-09-03 02:13:53*
%MOMM*%
%LPD*%
G01*
G04 APERTURE LIST*
%ADD10C,0.150000*%
%ADD11C,0.120000*%
G04 APERTURE END LIST*
D10*
%TO.C,J19*%
X96075619Y-40679619D02*
X96408952Y-39679619D01*
X96742285Y-40679619D01*
X97075619Y-40060571D02*
X97837523Y-40060571D01*
X103695619Y-40806619D02*
X104028952Y-39806619D01*
X104362285Y-40806619D01*
X104695619Y-40187571D02*
X105457523Y-40187571D01*
X105076571Y-39806619D02*
X105076571Y-40568523D01*
%TO.C,J6*%
X37163333Y-72731380D02*
X37163333Y-73445666D01*
X37210952Y-73588523D01*
X37306190Y-73683761D01*
X37449047Y-73731380D01*
X37544285Y-73731380D01*
X36258571Y-72731380D02*
X36449047Y-72731380D01*
X36544285Y-72779000D01*
X36591904Y-72826619D01*
X36687142Y-72969476D01*
X36734761Y-73159952D01*
X36734761Y-73540904D01*
X36687142Y-73636142D01*
X36639523Y-73683761D01*
X36544285Y-73731380D01*
X36353809Y-73731380D01*
X36258571Y-73683761D01*
X36210952Y-73636142D01*
X36163333Y-73540904D01*
X36163333Y-73302809D01*
X36210952Y-73207571D01*
X36258571Y-73159952D01*
X36353809Y-73112333D01*
X36544285Y-73112333D01*
X36639523Y-73159952D01*
X36687142Y-73207571D01*
X36734761Y-73302809D01*
%TO.C,J12*%
X79295523Y-50462380D02*
X79295523Y-51176666D01*
X79343142Y-51319523D01*
X79438380Y-51414761D01*
X79581238Y-51462380D01*
X79676476Y-51462380D01*
X78295523Y-51462380D02*
X78866952Y-51462380D01*
X78581238Y-51462380D02*
X78581238Y-50462380D01*
X78676476Y-50605238D01*
X78771714Y-50700476D01*
X78866952Y-50748095D01*
X77914571Y-50557619D02*
X77866952Y-50510000D01*
X77771714Y-50462380D01*
X77533619Y-50462380D01*
X77438380Y-50510000D01*
X77390761Y-50557619D01*
X77343142Y-50652857D01*
X77343142Y-50748095D01*
X77390761Y-50890952D01*
X77962190Y-51462380D01*
X77343142Y-51462380D01*
%TO.C,J18*%
X79295523Y-101262380D02*
X79295523Y-101976666D01*
X79343142Y-102119523D01*
X79438380Y-102214761D01*
X79581238Y-102262380D01*
X79676476Y-102262380D01*
X78295523Y-102262380D02*
X78866952Y-102262380D01*
X78581238Y-102262380D02*
X78581238Y-101262380D01*
X78676476Y-101405238D01*
X78771714Y-101500476D01*
X78866952Y-101548095D01*
X77724095Y-101690952D02*
X77819333Y-101643333D01*
X77866952Y-101595714D01*
X77914571Y-101500476D01*
X77914571Y-101452857D01*
X77866952Y-101357619D01*
X77819333Y-101310000D01*
X77724095Y-101262380D01*
X77533619Y-101262380D01*
X77438380Y-101310000D01*
X77390761Y-101357619D01*
X77343142Y-101452857D01*
X77343142Y-101500476D01*
X77390761Y-101595714D01*
X77438380Y-101643333D01*
X77533619Y-101690952D01*
X77724095Y-101690952D01*
X77819333Y-101738571D01*
X77866952Y-101786190D01*
X77914571Y-101881428D01*
X77914571Y-102071904D01*
X77866952Y-102167142D01*
X77819333Y-102214761D01*
X77724095Y-102262380D01*
X77533619Y-102262380D01*
X77438380Y-102214761D01*
X77390761Y-102167142D01*
X77343142Y-102071904D01*
X77343142Y-101881428D01*
X77390761Y-101786190D01*
X77438380Y-101738571D01*
X77533619Y-101690952D01*
%TO.C,RV6*%
X67270238Y-122372380D02*
X67603571Y-121896190D01*
X67841666Y-122372380D02*
X67841666Y-121372380D01*
X67460714Y-121372380D01*
X67365476Y-121420000D01*
X67317857Y-121467619D01*
X67270238Y-121562857D01*
X67270238Y-121705714D01*
X67317857Y-121800952D01*
X67365476Y-121848571D01*
X67460714Y-121896190D01*
X67841666Y-121896190D01*
X66984523Y-121372380D02*
X66651190Y-122372380D01*
X66317857Y-121372380D01*
X65555952Y-121372380D02*
X65746428Y-121372380D01*
X65841666Y-121420000D01*
X65889285Y-121467619D01*
X65984523Y-121610476D01*
X66032142Y-121800952D01*
X66032142Y-122181904D01*
X65984523Y-122277142D01*
X65936904Y-122324761D01*
X65841666Y-122372380D01*
X65651190Y-122372380D01*
X65555952Y-122324761D01*
X65508333Y-122277142D01*
X65460714Y-122181904D01*
X65460714Y-121943809D01*
X65508333Y-121848571D01*
X65555952Y-121800952D01*
X65651190Y-121753333D01*
X65841666Y-121753333D01*
X65936904Y-121800952D01*
X65984523Y-121848571D01*
X66032142Y-121943809D01*
%TO.C,J16*%
X63039523Y-101433380D02*
X63039523Y-102147666D01*
X63087142Y-102290523D01*
X63182380Y-102385761D01*
X63325238Y-102433380D01*
X63420476Y-102433380D01*
X62039523Y-102433380D02*
X62610952Y-102433380D01*
X62325238Y-102433380D02*
X62325238Y-101433380D01*
X62420476Y-101576238D01*
X62515714Y-101671476D01*
X62610952Y-101719095D01*
X61182380Y-101433380D02*
X61372857Y-101433380D01*
X61468095Y-101481000D01*
X61515714Y-101528619D01*
X61610952Y-101671476D01*
X61658571Y-101861952D01*
X61658571Y-102242904D01*
X61610952Y-102338142D01*
X61563333Y-102385761D01*
X61468095Y-102433380D01*
X61277619Y-102433380D01*
X61182380Y-102385761D01*
X61134761Y-102338142D01*
X61087142Y-102242904D01*
X61087142Y-102004809D01*
X61134761Y-101909571D01*
X61182380Y-101861952D01*
X61277619Y-101814333D01*
X61468095Y-101814333D01*
X61563333Y-101861952D01*
X61610952Y-101909571D01*
X61658571Y-102004809D01*
%TO.C,J3*%
X66508380Y-173021666D02*
X67222666Y-173021666D01*
X67365523Y-172974047D01*
X67460761Y-172878809D01*
X67508380Y-172735952D01*
X67508380Y-172640714D01*
X66508380Y-173402619D02*
X66508380Y-174021666D01*
X66889333Y-173688333D01*
X66889333Y-173831190D01*
X66936952Y-173926428D01*
X66984571Y-173974047D01*
X67079809Y-174021666D01*
X67317904Y-174021666D01*
X67413142Y-173974047D01*
X67460761Y-173926428D01*
X67508380Y-173831190D01*
X67508380Y-173545476D01*
X67460761Y-173450238D01*
X67413142Y-173402619D01*
%TO.C,SW2*%
X45616761Y-87541266D02*
X45664380Y-87684123D01*
X45664380Y-87922219D01*
X45616761Y-88017457D01*
X45569142Y-88065076D01*
X45473904Y-88112695D01*
X45378666Y-88112695D01*
X45283428Y-88065076D01*
X45235809Y-88017457D01*
X45188190Y-87922219D01*
X45140571Y-87731742D01*
X45092952Y-87636504D01*
X45045333Y-87588885D01*
X44950095Y-87541266D01*
X44854857Y-87541266D01*
X44759619Y-87588885D01*
X44712000Y-87636504D01*
X44664380Y-87731742D01*
X44664380Y-87969838D01*
X44712000Y-88112695D01*
X44664380Y-88446028D02*
X45664380Y-88684123D01*
X44950095Y-88874600D01*
X45664380Y-89065076D01*
X44664380Y-89303171D01*
X44759619Y-89636504D02*
X44712000Y-89684123D01*
X44664380Y-89779361D01*
X44664380Y-90017457D01*
X44712000Y-90112695D01*
X44759619Y-90160314D01*
X44854857Y-90207933D01*
X44950095Y-90207933D01*
X45092952Y-90160314D01*
X45664380Y-89588885D01*
X45664380Y-90207933D01*
%TO.C,SW3*%
X45616761Y-125641266D02*
X45664380Y-125784123D01*
X45664380Y-126022219D01*
X45616761Y-126117457D01*
X45569142Y-126165076D01*
X45473904Y-126212695D01*
X45378666Y-126212695D01*
X45283428Y-126165076D01*
X45235809Y-126117457D01*
X45188190Y-126022219D01*
X45140571Y-125831742D01*
X45092952Y-125736504D01*
X45045333Y-125688885D01*
X44950095Y-125641266D01*
X44854857Y-125641266D01*
X44759619Y-125688885D01*
X44712000Y-125736504D01*
X44664380Y-125831742D01*
X44664380Y-126069838D01*
X44712000Y-126212695D01*
X44664380Y-126546028D02*
X45664380Y-126784123D01*
X44950095Y-126974600D01*
X45664380Y-127165076D01*
X44664380Y-127403171D01*
X44664380Y-127688885D02*
X44664380Y-128307933D01*
X45045333Y-127974600D01*
X45045333Y-128117457D01*
X45092952Y-128212695D01*
X45140571Y-128260314D01*
X45235809Y-128307933D01*
X45473904Y-128307933D01*
X45569142Y-128260314D01*
X45616761Y-128212695D01*
X45664380Y-128117457D01*
X45664380Y-127831742D01*
X45616761Y-127736504D01*
X45569142Y-127688885D01*
%TO.C,J4*%
X56856380Y-134921666D02*
X57570666Y-134921666D01*
X57713523Y-134874047D01*
X57808761Y-134778809D01*
X57856380Y-134635952D01*
X57856380Y-134540714D01*
X57189714Y-135826428D02*
X57856380Y-135826428D01*
X56808761Y-135588333D02*
X57523047Y-135350238D01*
X57523047Y-135969285D01*
%TO.C,J15*%
X31456380Y-115395476D02*
X32170666Y-115395476D01*
X32313523Y-115347857D01*
X32408761Y-115252619D01*
X32456380Y-115109761D01*
X32456380Y-115014523D01*
X32456380Y-116395476D02*
X32456380Y-115824047D01*
X32456380Y-116109761D02*
X31456380Y-116109761D01*
X31599238Y-116014523D01*
X31694476Y-115919285D01*
X31742095Y-115824047D01*
X31456380Y-117300238D02*
X31456380Y-116824047D01*
X31932571Y-116776428D01*
X31884952Y-116824047D01*
X31837333Y-116919285D01*
X31837333Y-117157380D01*
X31884952Y-117252619D01*
X31932571Y-117300238D01*
X32027809Y-117347857D01*
X32265904Y-117347857D01*
X32361142Y-117300238D01*
X32408761Y-117252619D01*
X32456380Y-117157380D01*
X32456380Y-116919285D01*
X32408761Y-116824047D01*
X32361142Y-116776428D01*
%TO.C,J1*%
X41108380Y-153971666D02*
X41822666Y-153971666D01*
X41965523Y-153924047D01*
X42060761Y-153828809D01*
X42108380Y-153685952D01*
X42108380Y-153590714D01*
X42108380Y-154971666D02*
X42108380Y-154400238D01*
X42108380Y-154685952D02*
X41108380Y-154685952D01*
X41251238Y-154590714D01*
X41346476Y-154495476D01*
X41394095Y-154400238D01*
%TO.C,J5*%
X31456380Y-39671666D02*
X32170666Y-39671666D01*
X32313523Y-39624047D01*
X32408761Y-39528809D01*
X32456380Y-39385952D01*
X32456380Y-39290714D01*
X31456380Y-40624047D02*
X31456380Y-40147857D01*
X31932571Y-40100238D01*
X31884952Y-40147857D01*
X31837333Y-40243095D01*
X31837333Y-40481190D01*
X31884952Y-40576428D01*
X31932571Y-40624047D01*
X32027809Y-40671666D01*
X32265904Y-40671666D01*
X32361142Y-40624047D01*
X32408761Y-40576428D01*
X32456380Y-40481190D01*
X32456380Y-40243095D01*
X32408761Y-40147857D01*
X32361142Y-40100238D01*
%TO.C,J13*%
X31456380Y-96345476D02*
X32170666Y-96345476D01*
X32313523Y-96297857D01*
X32408761Y-96202619D01*
X32456380Y-96059761D01*
X32456380Y-95964523D01*
X32456380Y-97345476D02*
X32456380Y-96774047D01*
X32456380Y-97059761D02*
X31456380Y-97059761D01*
X31599238Y-96964523D01*
X31694476Y-96869285D01*
X31742095Y-96774047D01*
X31456380Y-97678809D02*
X31456380Y-98297857D01*
X31837333Y-97964523D01*
X31837333Y-98107380D01*
X31884952Y-98202619D01*
X31932571Y-98250238D01*
X32027809Y-98297857D01*
X32265904Y-98297857D01*
X32361142Y-98250238D01*
X32408761Y-98202619D01*
X32456380Y-98107380D01*
X32456380Y-97821666D01*
X32408761Y-97726428D01*
X32361142Y-97678809D01*
%TO.C,J7*%
X31456380Y-58721666D02*
X32170666Y-58721666D01*
X32313523Y-58674047D01*
X32408761Y-58578809D01*
X32456380Y-58435952D01*
X32456380Y-58340714D01*
X31456380Y-59102619D02*
X31456380Y-59769285D01*
X32456380Y-59340714D01*
%TO.C,RV2*%
X58380238Y-72842380D02*
X58713571Y-72366190D01*
X58951666Y-72842380D02*
X58951666Y-71842380D01*
X58570714Y-71842380D01*
X58475476Y-71890000D01*
X58427857Y-71937619D01*
X58380238Y-72032857D01*
X58380238Y-72175714D01*
X58427857Y-72270952D01*
X58475476Y-72318571D01*
X58570714Y-72366190D01*
X58951666Y-72366190D01*
X58094523Y-71842380D02*
X57761190Y-72842380D01*
X57427857Y-71842380D01*
X57142142Y-71937619D02*
X57094523Y-71890000D01*
X56999285Y-71842380D01*
X56761190Y-71842380D01*
X56665952Y-71890000D01*
X56618333Y-71937619D01*
X56570714Y-72032857D01*
X56570714Y-72128095D01*
X56618333Y-72270952D01*
X57189761Y-72842380D01*
X56570714Y-72842380D01*
%TO.C,SW1*%
X54252761Y-68491266D02*
X54300380Y-68634123D01*
X54300380Y-68872219D01*
X54252761Y-68967457D01*
X54205142Y-69015076D01*
X54109904Y-69062695D01*
X54014666Y-69062695D01*
X53919428Y-69015076D01*
X53871809Y-68967457D01*
X53824190Y-68872219D01*
X53776571Y-68681742D01*
X53728952Y-68586504D01*
X53681333Y-68538885D01*
X53586095Y-68491266D01*
X53490857Y-68491266D01*
X53395619Y-68538885D01*
X53348000Y-68586504D01*
X53300380Y-68681742D01*
X53300380Y-68919838D01*
X53348000Y-69062695D01*
X53300380Y-69396028D02*
X54300380Y-69634123D01*
X53586095Y-69824600D01*
X54300380Y-70015076D01*
X53300380Y-70253171D01*
X54300380Y-71157933D02*
X54300380Y-70586504D01*
X54300380Y-70872219D02*
X53300380Y-70872219D01*
X53443238Y-70776980D01*
X53538476Y-70681742D01*
X53586095Y-70586504D01*
%TO.C,J14*%
X37639523Y-129881380D02*
X37639523Y-130595666D01*
X37687142Y-130738523D01*
X37782380Y-130833761D01*
X37925238Y-130881380D01*
X38020476Y-130881380D01*
X36639523Y-130881380D02*
X37210952Y-130881380D01*
X36925238Y-130881380D02*
X36925238Y-129881380D01*
X37020476Y-130024238D01*
X37115714Y-130119476D01*
X37210952Y-130167095D01*
X35782380Y-130214714D02*
X35782380Y-130881380D01*
X36020476Y-129833761D02*
X36258571Y-130548047D01*
X35639523Y-130548047D01*
%TO.C,J8*%
X62563333Y-44283380D02*
X62563333Y-44997666D01*
X62610952Y-45140523D01*
X62706190Y-45235761D01*
X62849047Y-45283380D01*
X62944285Y-45283380D01*
X61944285Y-44711952D02*
X62039523Y-44664333D01*
X62087142Y-44616714D01*
X62134761Y-44521476D01*
X62134761Y-44473857D01*
X62087142Y-44378619D01*
X62039523Y-44331000D01*
X61944285Y-44283380D01*
X61753809Y-44283380D01*
X61658571Y-44331000D01*
X61610952Y-44378619D01*
X61563333Y-44473857D01*
X61563333Y-44521476D01*
X61610952Y-44616714D01*
X61658571Y-44664333D01*
X61753809Y-44711952D01*
X61944285Y-44711952D01*
X62039523Y-44759571D01*
X62087142Y-44807190D01*
X62134761Y-44902428D01*
X62134761Y-45092904D01*
X62087142Y-45188142D01*
X62039523Y-45235761D01*
X61944285Y-45283380D01*
X61753809Y-45283380D01*
X61658571Y-45235761D01*
X61610952Y-45188142D01*
X61563333Y-45092904D01*
X61563333Y-44902428D01*
X61610952Y-44807190D01*
X61658571Y-44759571D01*
X61753809Y-44711952D01*
%TO.C,RV1*%
X67270238Y-160472380D02*
X67603571Y-159996190D01*
X67841666Y-160472380D02*
X67841666Y-159472380D01*
X67460714Y-159472380D01*
X67365476Y-159520000D01*
X67317857Y-159567619D01*
X67270238Y-159662857D01*
X67270238Y-159805714D01*
X67317857Y-159900952D01*
X67365476Y-159948571D01*
X67460714Y-159996190D01*
X67841666Y-159996190D01*
X66984523Y-159472380D02*
X66651190Y-160472380D01*
X66317857Y-159472380D01*
X65460714Y-160472380D02*
X66032142Y-160472380D01*
X65746428Y-160472380D02*
X65746428Y-159472380D01*
X65841666Y-159615238D01*
X65936904Y-159710476D01*
X66032142Y-159758095D01*
%TO.C,RV3*%
X67270238Y-65222380D02*
X67603571Y-64746190D01*
X67841666Y-65222380D02*
X67841666Y-64222380D01*
X67460714Y-64222380D01*
X67365476Y-64270000D01*
X67317857Y-64317619D01*
X67270238Y-64412857D01*
X67270238Y-64555714D01*
X67317857Y-64650952D01*
X67365476Y-64698571D01*
X67460714Y-64746190D01*
X67841666Y-64746190D01*
X66984523Y-64222380D02*
X66651190Y-65222380D01*
X66317857Y-64222380D01*
X66079761Y-64222380D02*
X65460714Y-64222380D01*
X65794047Y-64603333D01*
X65651190Y-64603333D01*
X65555952Y-64650952D01*
X65508333Y-64698571D01*
X65460714Y-64793809D01*
X65460714Y-65031904D01*
X65508333Y-65127142D01*
X65555952Y-65174761D01*
X65651190Y-65222380D01*
X65936904Y-65222380D01*
X66032142Y-65174761D01*
X66079761Y-65127142D01*
%TO.C,J2*%
X41108380Y-173021666D02*
X41822666Y-173021666D01*
X41965523Y-172974047D01*
X42060761Y-172878809D01*
X42108380Y-172735952D01*
X42108380Y-172640714D01*
X41203619Y-173450238D02*
X41156000Y-173497857D01*
X41108380Y-173593095D01*
X41108380Y-173831190D01*
X41156000Y-173926428D01*
X41203619Y-173974047D01*
X41298857Y-174021666D01*
X41394095Y-174021666D01*
X41536952Y-173974047D01*
X42108380Y-173402619D01*
X42108380Y-174021666D01*
%TO.C,J10*%
X122983523Y-143514380D02*
X122983523Y-144228666D01*
X123031142Y-144371523D01*
X123126380Y-144466761D01*
X123269238Y-144514380D01*
X123364476Y-144514380D01*
X121983523Y-144514380D02*
X122554952Y-144514380D01*
X122269238Y-144514380D02*
X122269238Y-143514380D01*
X122364476Y-143657238D01*
X122459714Y-143752476D01*
X122554952Y-143800095D01*
X121364476Y-143514380D02*
X121269238Y-143514380D01*
X121174000Y-143562000D01*
X121126380Y-143609619D01*
X121078761Y-143704857D01*
X121031142Y-143895333D01*
X121031142Y-144133428D01*
X121078761Y-144323904D01*
X121126380Y-144419142D01*
X121174000Y-144466761D01*
X121269238Y-144514380D01*
X121364476Y-144514380D01*
X121459714Y-144466761D01*
X121507333Y-144419142D01*
X121554952Y-144323904D01*
X121602571Y-144133428D01*
X121602571Y-143895333D01*
X121554952Y-143704857D01*
X121507333Y-143609619D01*
X121459714Y-143562000D01*
X121364476Y-143514380D01*
D11*
%TO.C,J6*%
X36830000Y-74041000D02*
X33782000Y-74041000D01*
X32766000Y-75057000D02*
X32766000Y-78105000D01*
X32766000Y-78105000D02*
G75*
G03*
X36830000Y-74041000I4064000J0D01*
G01*
X33782000Y-74041000D02*
G75*
G03*
X32766000Y-75057000I0J-1016000D01*
G01*
%TO.C,J12*%
X79816000Y-67370000D02*
X77156000Y-67370000D01*
X79816000Y-54610000D02*
X77156000Y-54610000D01*
X77156000Y-54610000D02*
X77156000Y-67370000D01*
X79816000Y-52010000D02*
X78486000Y-52010000D01*
X79816000Y-53340000D02*
X79816000Y-52010000D01*
X79816000Y-54610000D02*
X79816000Y-67370000D01*
%TO.C,J18*%
X79816000Y-118170000D02*
X77156000Y-118170000D01*
X77156000Y-105410000D02*
X77156000Y-118170000D01*
X79816000Y-104140000D02*
X79816000Y-102810000D01*
X79816000Y-105410000D02*
X79816000Y-118170000D01*
X79816000Y-105410000D02*
X77156000Y-105410000D01*
X79816000Y-102810000D02*
X78486000Y-102810000D01*
%TO.C,RV6*%
X63890000Y-109585000D02*
X63060000Y-109585000D01*
X57350000Y-109585000D02*
X57350000Y-114305000D01*
X67100000Y-121175000D02*
X57360000Y-121175000D01*
X67100000Y-109585000D02*
X67100000Y-114305000D01*
X61440000Y-109585000D02*
X60910000Y-109585000D01*
X67100000Y-109585000D02*
X65610000Y-109585000D01*
X58540000Y-109585000D02*
X57360000Y-109585000D01*
X57360000Y-118115000D02*
X57360000Y-121175000D01*
X61730000Y-116205000D02*
X62730000Y-116205000D01*
X62230000Y-116705000D02*
X62230000Y-115705000D01*
X67100000Y-118115000D02*
X67100000Y-121175000D01*
%TO.C,J16*%
X62230000Y-101219000D02*
X65278000Y-101219000D01*
X66294000Y-100203000D02*
X66294000Y-97155000D01*
X65278000Y-101219000D02*
G75*
G03*
X66294000Y-100203000I0J1016000D01*
G01*
X66294000Y-97155000D02*
G75*
G03*
X62230000Y-101219000I-4064000J0D01*
G01*
%TO.C,J3*%
X65278000Y-169291000D02*
X62230000Y-169291000D01*
X66294000Y-173355000D02*
X66294000Y-170307000D01*
X62230000Y-169291000D02*
G75*
G03*
X66294000Y-173355000I0J-4064000D01*
G01*
X66294000Y-170307000D02*
G75*
G03*
X65278000Y-169291000I-1016000J0D01*
G01*
%TO.C,SW2*%
X45974000Y-95351600D02*
X53086000Y-95351600D01*
X53086000Y-95351600D02*
X53086000Y-82397600D01*
X53086000Y-82397600D02*
X45974000Y-82397600D01*
X45974000Y-82397600D02*
X45974000Y-95351600D01*
%TO.C,SW3*%
X45974000Y-120497600D02*
X45974000Y-133451600D01*
X45974000Y-133451600D02*
X53086000Y-133451600D01*
X53086000Y-120497600D02*
X45974000Y-120497600D01*
X53086000Y-133451600D02*
X53086000Y-120497600D01*
%TO.C,J4*%
X59182000Y-139319000D02*
X62230000Y-139319000D01*
X58166000Y-135255000D02*
X58166000Y-138303000D01*
X58166000Y-138303000D02*
G75*
G03*
X59182000Y-139319000I1016000J0D01*
G01*
X62230000Y-139319000D02*
G75*
G03*
X58166000Y-135255000I0J4064000D01*
G01*
%TO.C,J15*%
X32766000Y-116205000D02*
X32766000Y-119253000D01*
X33782000Y-120269000D02*
X36830000Y-120269000D01*
X36830000Y-120269000D02*
G75*
G03*
X32766000Y-116205000I0J4064000D01*
G01*
X32766000Y-119253000D02*
G75*
G03*
X33782000Y-120269000I1016000J0D01*
G01*
%TO.C,J1*%
X39878000Y-150241000D02*
X36830000Y-150241000D01*
X40894000Y-154305000D02*
X40894000Y-151257000D01*
X36830000Y-150241000D02*
G75*
G03*
X40894000Y-154305000I0J-4064000D01*
G01*
X40894000Y-151257000D02*
G75*
G03*
X39878000Y-150241000I-1016000J0D01*
G01*
%TO.C,J5*%
X32766000Y-40005000D02*
X32766000Y-43053000D01*
X33782000Y-44069000D02*
X36830000Y-44069000D01*
X32766000Y-43053000D02*
G75*
G03*
X33782000Y-44069000I1016000J0D01*
G01*
X36830000Y-44069000D02*
G75*
G03*
X32766000Y-40005000I0J4064000D01*
G01*
%TO.C,J13*%
X32766000Y-97155000D02*
X32766000Y-100203000D01*
X33782000Y-101219000D02*
X36830000Y-101219000D01*
X32766000Y-100203000D02*
G75*
G03*
X33782000Y-101219000I1016000J0D01*
G01*
X36830000Y-101219000D02*
G75*
G03*
X32766000Y-97155000I0J4064000D01*
G01*
%TO.C,J7*%
X33782000Y-63119000D02*
X36830000Y-63119000D01*
X32766000Y-59055000D02*
X32766000Y-62103000D01*
X32766000Y-62103000D02*
G75*
G03*
X33782000Y-63119000I1016000J0D01*
G01*
X36830000Y-63119000D02*
G75*
G03*
X32766000Y-59055000I0J4064000D01*
G01*
%TO.C,RV2*%
X60570000Y-84725000D02*
X61400000Y-84725000D01*
X63020000Y-84725000D02*
X63550000Y-84725000D01*
X57360000Y-76195000D02*
X57360000Y-73135000D01*
X62730000Y-78105000D02*
X61730000Y-78105000D01*
X65920000Y-84725000D02*
X67100000Y-84725000D01*
X67110000Y-84725000D02*
X67110000Y-80005000D01*
X67100000Y-76195000D02*
X67100000Y-73135000D01*
X57360000Y-84725000D02*
X57360000Y-80005000D01*
X57360000Y-73135000D02*
X67100000Y-73135000D01*
X62230000Y-77605000D02*
X62230000Y-78605000D01*
X57360000Y-84725000D02*
X58850000Y-84725000D01*
%TO.C,SW1*%
X53086000Y-63347600D02*
X45974000Y-63347600D01*
X45974000Y-63347600D02*
X45974000Y-76301600D01*
X53086000Y-76301600D02*
X53086000Y-63347600D01*
X45974000Y-76301600D02*
X53086000Y-76301600D01*
%TO.C,J14*%
X32766000Y-132207000D02*
X32766000Y-135255000D01*
X36830000Y-131191000D02*
X33782000Y-131191000D01*
X32766000Y-135255000D02*
G75*
G03*
X36830000Y-131191000I4064000J0D01*
G01*
X33782000Y-131191000D02*
G75*
G03*
X32766000Y-132207000I0J-1016000D01*
G01*
%TO.C,J8*%
X66294000Y-43053000D02*
X66294000Y-40005000D01*
X62230000Y-44069000D02*
X65278000Y-44069000D01*
X65278000Y-44069000D02*
G75*
G03*
X66294000Y-43053000I0J1016000D01*
G01*
X66294000Y-40005000D02*
G75*
G03*
X62230000Y-44069000I-4064000J0D01*
G01*
%TO.C,RV1*%
X67100000Y-156215000D02*
X67100000Y-159275000D01*
X62230000Y-154805000D02*
X62230000Y-153805000D01*
X67100000Y-147685000D02*
X65610000Y-147685000D01*
X63890000Y-147685000D02*
X63060000Y-147685000D01*
X67100000Y-159275000D02*
X57360000Y-159275000D01*
X57350000Y-147685000D02*
X57350000Y-152405000D01*
X57360000Y-156215000D02*
X57360000Y-159275000D01*
X61730000Y-154305000D02*
X62730000Y-154305000D01*
X61440000Y-147685000D02*
X60910000Y-147685000D01*
X67100000Y-147685000D02*
X67100000Y-152405000D01*
X58540000Y-147685000D02*
X57360000Y-147685000D01*
%TO.C,RV3*%
X57360000Y-60965000D02*
X57360000Y-64025000D01*
X61730000Y-59055000D02*
X62730000Y-59055000D01*
X58540000Y-52435000D02*
X57360000Y-52435000D01*
X67100000Y-60965000D02*
X67100000Y-64025000D01*
X57350000Y-52435000D02*
X57350000Y-57155000D01*
X61440000Y-52435000D02*
X60910000Y-52435000D01*
X67100000Y-64025000D02*
X57360000Y-64025000D01*
X67100000Y-52435000D02*
X65610000Y-52435000D01*
X67100000Y-52435000D02*
X67100000Y-57155000D01*
X62230000Y-59555000D02*
X62230000Y-58555000D01*
X63890000Y-52435000D02*
X63060000Y-52435000D01*
%TO.C,J2*%
X40894000Y-173355000D02*
X40894000Y-170307000D01*
X39878000Y-169291000D02*
X36830000Y-169291000D01*
X40894000Y-170307000D02*
G75*
G03*
X39878000Y-169291000I-1016000J0D01*
G01*
X36830000Y-169291000D02*
G75*
G03*
X40894000Y-173355000I0J-4064000D01*
G01*
%TO.C,J10*%
X120844000Y-140462000D02*
X123504000Y-140462000D01*
X120844000Y-143062000D02*
X122174000Y-143062000D01*
X120844000Y-141732000D02*
X120844000Y-143062000D01*
X120844000Y-127702000D02*
X123504000Y-127702000D01*
X123504000Y-140462000D02*
X123504000Y-127702000D01*
X120844000Y-140462000D02*
X120844000Y-127702000D01*
%TD*%
M02*
