M48
; DRILL file {KiCad (6.0.6-0)} date Saturday, 03 September 2022 at 02:13:54
; FORMAT={-:-/ absolute / metric / decimal}
; #@! TF.CreationDate,2022-09-03T02:13:54+01:00
; #@! TF.GenerationSoftware,Kicad,Pcbnew,(6.0.6-0)
; #@! TF.FileFunction,MixedPlating,1,2
FMAT,2
METRIC
; #@! TA.AperFunction,Plated,PTH,ComponentDrill
T1C0.800
; #@! TA.AperFunction,Plated,PTH,ComponentDrill
T2C1.000
; #@! TA.AperFunction,Plated,PTH,ComponentDrill
T3C1.100
; #@! TA.AperFunction,Plated,PTH,ComponentDrill
T4C1.190
; #@! TA.AperFunction,Plated,PTH,ComponentDrill
T5C1.905
; #@! TA.AperFunction,Plated,PTH,ComponentDrill
T6C5.100
; #@! TA.AperFunction,NonPlated,NPTH,ComponentDrill
T7C0.500
%
G90
G05
T1
X33.782Y-43.053
X33.782Y-62.103
X33.782Y-75.057
X33.782Y-100.203
X33.782Y-119.253
X33.782Y-132.207
X39.878Y-151.257
X39.878Y-170.307
X59.182Y-138.303
X65.278Y-43.053
X65.278Y-100.203
X65.278Y-170.307
X78.486Y-120.904
X78.486Y-131.064
X80.518Y-38.608
X80.518Y-48.768
X81.28Y-69.85
X81.28Y-80.01
X81.28Y-120.904
X81.28Y-128.524
X82.296Y-108.204
X82.296Y-111.252
X82.296Y-114.3
X82.296Y-117.094
X82.931Y-84.455
X82.931Y-94.615
X84.074Y-120.904
X84.074Y-131.064
X86.106Y-59.182
X86.106Y-62.23
X86.106Y-65.024
X86.106Y-68.072
X87.884Y-92.935
X87.884Y-94.935
X88.392Y-71.628
X88.392Y-79.248
X88.9Y-83.058
X88.9Y-88.058
X89.916Y-117.094
X90.932Y-133.604
X90.932Y-139.192
X91.948Y-96.52
X92.202Y-52.803
X92.202Y-54.803
X92.202Y-99.568
X92.202Y-104.568
X92.456Y-108.204
X92.456Y-111.252
X92.456Y-114.3
X93.467Y-85.334
X93.467Y-92.954
X93.472Y-130.81
X93.472Y-136.398
X93.726Y-65.024
X95.758Y-99.568
X95.758Y-109.728
X96.007Y-85.334
X96.007Y-92.954
X96.012Y-72.136
X96.012Y-82.296
X96.092Y-127.508
X96.266Y-59.182
X96.266Y-62.23
X96.266Y-68.072
X98.547Y-85.334
X98.547Y-92.954
X98.552Y-99.568
X98.552Y-107.188
X99.06Y-79.248
X101.087Y-85.334
X101.087Y-92.954
X101.092Y-99.568
X101.092Y-107.188
X101.092Y-127.508
X101.092Y-130.81
X101.092Y-133.604
X101.092Y-136.398
X101.092Y-139.192
X101.6Y-71.2
X101.6Y-76.2
X101.6Y-82.296
X102.108Y-96.52
X103.627Y-85.334
X103.627Y-92.954
X103.886Y-99.568
X103.886Y-109.728
X104.648Y-118.618
X104.648Y-124.206
X104.648Y-134.112
X104.648Y-141.732
X106.167Y-85.334
X106.167Y-92.954
X106.172Y-66.294
X106.172Y-76.454
X106.68Y-96.266
X107.188Y-121.412
X107.696Y-107.188
X107.696Y-112.188
X108.707Y-85.334
X108.707Y-92.954
X108.966Y-131.572
X108.966Y-133.572
X109.22Y-79.248
X109.22Y-82.296
X109.699Y-46.228
X109.728Y-66.294
X109.728Y-76.454
X110.744Y-136.652
X110.744Y-146.812
X111.699Y-46.228
X112.522Y-68.834
X112.522Y-76.454
X114.808Y-118.618
X114.808Y-121.412
X114.808Y-124.206
X116.078Y-71.454
X116.078Y-76.454
X116.84Y-96.266
X118.364Y-118.698
X118.364Y-123.698
X118.364Y-126.492
X118.364Y-136.652
X118.364Y-141.732
X118.364Y-151.892
X122.174Y-114.808
X122.174Y-124.968
T2
X27.686Y-53.34
X27.686Y-55.88
X27.686Y-58.42
X27.686Y-60.96
X27.686Y-63.5
X27.686Y-66.04
X27.686Y-104.14
X27.686Y-106.68
X27.686Y-109.22
X27.686Y-111.76
X27.686Y-114.3
X27.686Y-116.84
X59.73Y-51.555
X59.73Y-85.605
X59.73Y-108.705
X59.73Y-146.805
X62.23Y-51.555
X62.23Y-85.605
X62.23Y-108.705
X62.23Y-146.805
X64.73Y-51.555
X64.73Y-85.605
X64.73Y-108.705
X64.73Y-146.805
X71.374Y-129.032
X71.374Y-131.572
X71.374Y-134.112
X71.374Y-136.652
X71.374Y-139.192
X71.374Y-141.732
X78.486Y-53.34
X78.486Y-55.88
X78.486Y-58.42
X78.486Y-60.96
X78.486Y-63.5
X78.486Y-66.04
X78.486Y-104.14
X78.486Y-106.68
X78.486Y-109.22
X78.486Y-111.76
X78.486Y-114.3
X78.486Y-116.84
X82.931Y-99.075
X82.931Y-101.615
X82.931Y-104.155
X85.344Y-50.292
X85.344Y-52.832
X85.344Y-55.372
X114.3Y-131.572
X114.3Y-134.112
X114.3Y-136.652
X122.174Y-129.032
X122.174Y-131.572
X122.174Y-134.112
X122.174Y-136.652
X122.174Y-139.192
X122.174Y-141.732
T3
X96.012Y-121.118
X98.512Y-118.618
X98.512Y-123.618
X107.696Y-101.854
X110.022Y-57.19
X110.196Y-99.354
X110.196Y-104.354
X112.522Y-59.69
X115.022Y-57.19
X115.824Y-36.068
X115.824Y-46.228
T4
X97.028Y-36.068
X99.568Y-36.068
X102.108Y-36.068
X104.648Y-36.068
T5
X49.53Y-65.126
X49.53Y-69.825
X49.53Y-74.524
X49.53Y-84.176
X49.53Y-88.875
X49.53Y-93.574
X49.53Y-122.276
X49.53Y-126.975
X49.53Y-131.674
T6
X36.83Y-40.005
X36.83Y-59.055
X36.83Y-78.105
X36.83Y-97.155
X36.83Y-116.205
X36.83Y-135.255
X36.83Y-154.305
X36.83Y-173.355
X62.23Y-40.005
X62.23Y-97.155
X62.23Y-135.255
X62.23Y-173.355
T7
X73.83Y-48.73
X73.83Y-49.53
X73.83Y-50.33
X73.83Y-67.78
X73.83Y-68.58
X73.83Y-69.38
X73.83Y-86.83
X73.83Y-87.63
X73.83Y-88.43
X73.83Y-105.88
X73.83Y-106.68
X73.83Y-107.48
X73.83Y-124.93
X73.83Y-125.73
X73.83Y-126.53
X73.83Y-143.98
X73.83Y-144.78
X73.83Y-145.58
X73.83Y-163.03
X73.83Y-163.83
X73.83Y-164.63
X76.03Y-48.73
X76.03Y-49.53
X76.03Y-50.33
X76.03Y-67.78
X76.03Y-68.58
X76.03Y-69.38
X76.03Y-86.83
X76.03Y-87.63
X76.03Y-88.43
X76.03Y-105.88
X76.03Y-106.68
X76.03Y-107.48
X76.03Y-124.93
X76.03Y-125.73
X76.03Y-126.53
X76.03Y-143.98
X76.03Y-144.78
X76.03Y-145.58
X76.03Y-163.03
X76.03Y-163.83
X76.03Y-164.63
T3
G00X57.43Y-59.405
M15
G01X57.43Y-58.705
M16
G05
G00X57.43Y-77.755
M15
G01X57.43Y-78.455
M16
G05
G00X57.43Y-116.555
M15
G01X57.43Y-115.855
M16
G05
G00X57.43Y-154.655
M15
G01X57.43Y-153.955
M16
G05
G00X67.03Y-59.405
M15
G01X67.03Y-58.705
M16
G05
G00X67.03Y-77.755
M15
G01X67.03Y-78.455
M16
G05
G00X67.03Y-116.555
M15
G01X67.03Y-115.855
M16
G05
G00X67.03Y-154.655
M15
G01X67.03Y-153.955
M16
G05
T0
M30
