%TF.GenerationSoftware,KiCad,Pcbnew,(6.0.6-0)*%
%TF.CreationDate,2022-09-03T02:13:53+01:00*%
%TF.ProjectId,serge-r5-triple-wave-shaper,73657267-652d-4723-952d-747269706c65,rev?*%
%TF.SameCoordinates,Original*%
%TF.FileFunction,Legend,Top*%
%TF.FilePolarity,Positive*%
%FSLAX46Y46*%
G04 Gerber Fmt 4.6, Leading zero omitted, Abs format (unit mm)*
G04 Created by KiCad (PCBNEW (6.0.6-0)) date 2022-09-03 02:13:53*
%MOMM*%
%LPD*%
G01*
G04 APERTURE LIST*
%ADD10C,0.150000*%
%ADD11C,0.120000*%
G04 APERTURE END LIST*
D10*
%TO.C,D13*%
X116276380Y-41930485D02*
X115276380Y-41930485D01*
X115276380Y-41692390D01*
X115324000Y-41549533D01*
X115419238Y-41454295D01*
X115514476Y-41406676D01*
X115704952Y-41359057D01*
X115847809Y-41359057D01*
X116038285Y-41406676D01*
X116133523Y-41454295D01*
X116228761Y-41549533D01*
X116276380Y-41692390D01*
X116276380Y-41930485D01*
X116276380Y-40406676D02*
X116276380Y-40978104D01*
X116276380Y-40692390D02*
X115276380Y-40692390D01*
X115419238Y-40787628D01*
X115514476Y-40882866D01*
X115562095Y-40978104D01*
X115276380Y-40073342D02*
X115276380Y-39454295D01*
X115657333Y-39787628D01*
X115657333Y-39644771D01*
X115704952Y-39549533D01*
X115752571Y-39501914D01*
X115847809Y-39454295D01*
X116085904Y-39454295D01*
X116181142Y-39501914D01*
X116228761Y-39549533D01*
X116276380Y-39644771D01*
X116276380Y-39930485D01*
X116228761Y-40025723D01*
X116181142Y-40073342D01*
%TO.C,R16*%
X111196380Y-142374857D02*
X110720190Y-142708190D01*
X111196380Y-142946285D02*
X110196380Y-142946285D01*
X110196380Y-142565333D01*
X110244000Y-142470095D01*
X110291619Y-142422476D01*
X110386857Y-142374857D01*
X110529714Y-142374857D01*
X110624952Y-142422476D01*
X110672571Y-142470095D01*
X110720190Y-142565333D01*
X110720190Y-142946285D01*
X111196380Y-141422476D02*
X111196380Y-141993904D01*
X111196380Y-141708190D02*
X110196380Y-141708190D01*
X110339238Y-141803428D01*
X110434476Y-141898666D01*
X110482095Y-141993904D01*
X110196380Y-140565333D02*
X110196380Y-140755809D01*
X110244000Y-140851047D01*
X110291619Y-140898666D01*
X110434476Y-140993904D01*
X110624952Y-141041523D01*
X111005904Y-141041523D01*
X111101142Y-140993904D01*
X111148761Y-140946285D01*
X111196380Y-140851047D01*
X111196380Y-140660571D01*
X111148761Y-140565333D01*
X111101142Y-140517714D01*
X111005904Y-140470095D01*
X110767809Y-140470095D01*
X110672571Y-140517714D01*
X110624952Y-140565333D01*
X110577333Y-140660571D01*
X110577333Y-140851047D01*
X110624952Y-140946285D01*
X110672571Y-140993904D01*
X110767809Y-141041523D01*
%TO.C,RV7*%
X112180761Y-107132380D02*
X111847428Y-106656190D01*
X111609333Y-107132380D02*
X111609333Y-106132380D01*
X111990285Y-106132380D01*
X112085523Y-106180000D01*
X112133142Y-106227619D01*
X112180761Y-106322857D01*
X112180761Y-106465714D01*
X112133142Y-106560952D01*
X112085523Y-106608571D01*
X111990285Y-106656190D01*
X111609333Y-106656190D01*
X112466476Y-106132380D02*
X112799809Y-107132380D01*
X113133142Y-106132380D01*
X113371238Y-106132380D02*
X114037904Y-106132380D01*
X113609333Y-107132380D01*
%TO.C,R23*%
X96210380Y-105290857D02*
X95734190Y-105624190D01*
X96210380Y-105862285D02*
X95210380Y-105862285D01*
X95210380Y-105481333D01*
X95258000Y-105386095D01*
X95305619Y-105338476D01*
X95400857Y-105290857D01*
X95543714Y-105290857D01*
X95638952Y-105338476D01*
X95686571Y-105386095D01*
X95734190Y-105481333D01*
X95734190Y-105862285D01*
X95305619Y-104909904D02*
X95258000Y-104862285D01*
X95210380Y-104767047D01*
X95210380Y-104528952D01*
X95258000Y-104433714D01*
X95305619Y-104386095D01*
X95400857Y-104338476D01*
X95496095Y-104338476D01*
X95638952Y-104386095D01*
X96210380Y-104957523D01*
X96210380Y-104338476D01*
X95210380Y-104005142D02*
X95210380Y-103386095D01*
X95591333Y-103719428D01*
X95591333Y-103576571D01*
X95638952Y-103481333D01*
X95686571Y-103433714D01*
X95781809Y-103386095D01*
X96019904Y-103386095D01*
X96115142Y-103433714D01*
X96162761Y-103481333D01*
X96210380Y-103576571D01*
X96210380Y-103862285D01*
X96162761Y-103957523D01*
X96115142Y-104005142D01*
%TO.C,R13*%
X111117142Y-96718380D02*
X110783809Y-96242190D01*
X110545714Y-96718380D02*
X110545714Y-95718380D01*
X110926666Y-95718380D01*
X111021904Y-95766000D01*
X111069523Y-95813619D01*
X111117142Y-95908857D01*
X111117142Y-96051714D01*
X111069523Y-96146952D01*
X111021904Y-96194571D01*
X110926666Y-96242190D01*
X110545714Y-96242190D01*
X112069523Y-96718380D02*
X111498095Y-96718380D01*
X111783809Y-96718380D02*
X111783809Y-95718380D01*
X111688571Y-95861238D01*
X111593333Y-95956476D01*
X111498095Y-96004095D01*
X112402857Y-95718380D02*
X113021904Y-95718380D01*
X112688571Y-96099333D01*
X112831428Y-96099333D01*
X112926666Y-96146952D01*
X112974285Y-96194571D01*
X113021904Y-96289809D01*
X113021904Y-96527904D01*
X112974285Y-96623142D01*
X112926666Y-96670761D01*
X112831428Y-96718380D01*
X112545714Y-96718380D01*
X112450476Y-96670761D01*
X112402857Y-96623142D01*
%TO.C,R1*%
X95845333Y-139644380D02*
X95512000Y-139168190D01*
X95273904Y-139644380D02*
X95273904Y-138644380D01*
X95654857Y-138644380D01*
X95750095Y-138692000D01*
X95797714Y-138739619D01*
X95845333Y-138834857D01*
X95845333Y-138977714D01*
X95797714Y-139072952D01*
X95750095Y-139120571D01*
X95654857Y-139168190D01*
X95273904Y-139168190D01*
X96797714Y-139644380D02*
X96226285Y-139644380D01*
X96512000Y-139644380D02*
X96512000Y-138644380D01*
X96416761Y-138787238D01*
X96321523Y-138882476D01*
X96226285Y-138930095D01*
%TO.C,D8*%
X112974380Y-73026495D02*
X111974380Y-73026495D01*
X111974380Y-72788400D01*
X112022000Y-72645542D01*
X112117238Y-72550304D01*
X112212476Y-72502685D01*
X112402952Y-72455066D01*
X112545809Y-72455066D01*
X112736285Y-72502685D01*
X112831523Y-72550304D01*
X112926761Y-72645542D01*
X112974380Y-72788400D01*
X112974380Y-73026495D01*
X112402952Y-71883638D02*
X112355333Y-71978876D01*
X112307714Y-72026495D01*
X112212476Y-72074114D01*
X112164857Y-72074114D01*
X112069619Y-72026495D01*
X112022000Y-71978876D01*
X111974380Y-71883638D01*
X111974380Y-71693161D01*
X112022000Y-71597923D01*
X112069619Y-71550304D01*
X112164857Y-71502685D01*
X112212476Y-71502685D01*
X112307714Y-71550304D01*
X112355333Y-71597923D01*
X112402952Y-71693161D01*
X112402952Y-71883638D01*
X112450571Y-71978876D01*
X112498190Y-72026495D01*
X112593428Y-72074114D01*
X112783904Y-72074114D01*
X112879142Y-72026495D01*
X112926761Y-71978876D01*
X112974380Y-71883638D01*
X112974380Y-71693161D01*
X112926761Y-71597923D01*
X112879142Y-71550304D01*
X112783904Y-71502685D01*
X112593428Y-71502685D01*
X112498190Y-71550304D01*
X112450571Y-71597923D01*
X112402952Y-71693161D01*
%TO.C,R10*%
X90543142Y-68524380D02*
X90209809Y-68048190D01*
X89971714Y-68524380D02*
X89971714Y-67524380D01*
X90352666Y-67524380D01*
X90447904Y-67572000D01*
X90495523Y-67619619D01*
X90543142Y-67714857D01*
X90543142Y-67857714D01*
X90495523Y-67952952D01*
X90447904Y-68000571D01*
X90352666Y-68048190D01*
X89971714Y-68048190D01*
X91495523Y-68524380D02*
X90924095Y-68524380D01*
X91209809Y-68524380D02*
X91209809Y-67524380D01*
X91114571Y-67667238D01*
X91019333Y-67762476D01*
X90924095Y-67810095D01*
X92114571Y-67524380D02*
X92209809Y-67524380D01*
X92305047Y-67572000D01*
X92352666Y-67619619D01*
X92400285Y-67714857D01*
X92447904Y-67905333D01*
X92447904Y-68143428D01*
X92400285Y-68333904D01*
X92352666Y-68429142D01*
X92305047Y-68476761D01*
X92209809Y-68524380D01*
X92114571Y-68524380D01*
X92019333Y-68476761D01*
X91971714Y-68429142D01*
X91924095Y-68333904D01*
X91876476Y-68143428D01*
X91876476Y-67905333D01*
X91924095Y-67714857D01*
X91971714Y-67619619D01*
X92019333Y-67572000D01*
X92114571Y-67524380D01*
%TO.C,R27*%
X83383380Y-90177857D02*
X82907190Y-90511190D01*
X83383380Y-90749285D02*
X82383380Y-90749285D01*
X82383380Y-90368333D01*
X82431000Y-90273095D01*
X82478619Y-90225476D01*
X82573857Y-90177857D01*
X82716714Y-90177857D01*
X82811952Y-90225476D01*
X82859571Y-90273095D01*
X82907190Y-90368333D01*
X82907190Y-90749285D01*
X82478619Y-89796904D02*
X82431000Y-89749285D01*
X82383380Y-89654047D01*
X82383380Y-89415952D01*
X82431000Y-89320714D01*
X82478619Y-89273095D01*
X82573857Y-89225476D01*
X82669095Y-89225476D01*
X82811952Y-89273095D01*
X83383380Y-89844523D01*
X83383380Y-89225476D01*
X82383380Y-88892142D02*
X82383380Y-88225476D01*
X83383380Y-88654047D01*
%TO.C,R21*%
X86733142Y-108656380D02*
X86399809Y-108180190D01*
X86161714Y-108656380D02*
X86161714Y-107656380D01*
X86542666Y-107656380D01*
X86637904Y-107704000D01*
X86685523Y-107751619D01*
X86733142Y-107846857D01*
X86733142Y-107989714D01*
X86685523Y-108084952D01*
X86637904Y-108132571D01*
X86542666Y-108180190D01*
X86161714Y-108180190D01*
X87114095Y-107751619D02*
X87161714Y-107704000D01*
X87256952Y-107656380D01*
X87495047Y-107656380D01*
X87590285Y-107704000D01*
X87637904Y-107751619D01*
X87685523Y-107846857D01*
X87685523Y-107942095D01*
X87637904Y-108084952D01*
X87066476Y-108656380D01*
X87685523Y-108656380D01*
X88637904Y-108656380D02*
X88066476Y-108656380D01*
X88352190Y-108656380D02*
X88352190Y-107656380D01*
X88256952Y-107799238D01*
X88161714Y-107894476D01*
X88066476Y-107942095D01*
%TO.C,D2*%
X105100380Y-139015695D02*
X104100380Y-139015695D01*
X104100380Y-138777600D01*
X104148000Y-138634742D01*
X104243238Y-138539504D01*
X104338476Y-138491885D01*
X104528952Y-138444266D01*
X104671809Y-138444266D01*
X104862285Y-138491885D01*
X104957523Y-138539504D01*
X105052761Y-138634742D01*
X105100380Y-138777600D01*
X105100380Y-139015695D01*
X104195619Y-138063314D02*
X104148000Y-138015695D01*
X104100380Y-137920457D01*
X104100380Y-137682361D01*
X104148000Y-137587123D01*
X104195619Y-137539504D01*
X104290857Y-137491885D01*
X104386095Y-137491885D01*
X104528952Y-137539504D01*
X105100380Y-138110933D01*
X105100380Y-137491885D01*
%TO.C,R11*%
X96464380Y-77858857D02*
X95988190Y-78192190D01*
X96464380Y-78430285D02*
X95464380Y-78430285D01*
X95464380Y-78049333D01*
X95512000Y-77954095D01*
X95559619Y-77906476D01*
X95654857Y-77858857D01*
X95797714Y-77858857D01*
X95892952Y-77906476D01*
X95940571Y-77954095D01*
X95988190Y-78049333D01*
X95988190Y-78430285D01*
X96464380Y-76906476D02*
X96464380Y-77477904D01*
X96464380Y-77192190D02*
X95464380Y-77192190D01*
X95607238Y-77287428D01*
X95702476Y-77382666D01*
X95750095Y-77477904D01*
X96464380Y-75954095D02*
X96464380Y-76525523D01*
X96464380Y-76239809D02*
X95464380Y-76239809D01*
X95607238Y-76335047D01*
X95702476Y-76430285D01*
X95750095Y-76525523D01*
%TO.C,C1*%
X118721142Y-121364666D02*
X118768761Y-121412285D01*
X118816380Y-121555142D01*
X118816380Y-121650380D01*
X118768761Y-121793238D01*
X118673523Y-121888476D01*
X118578285Y-121936095D01*
X118387809Y-121983714D01*
X118244952Y-121983714D01*
X118054476Y-121936095D01*
X117959238Y-121888476D01*
X117864000Y-121793238D01*
X117816380Y-121650380D01*
X117816380Y-121555142D01*
X117864000Y-121412285D01*
X117911619Y-121364666D01*
X118816380Y-120412285D02*
X118816380Y-120983714D01*
X118816380Y-120698000D02*
X117816380Y-120698000D01*
X117959238Y-120793238D01*
X118054476Y-120888476D01*
X118102095Y-120983714D01*
%TO.C,R17*%
X106624380Y-72016857D02*
X106148190Y-72350190D01*
X106624380Y-72588285D02*
X105624380Y-72588285D01*
X105624380Y-72207333D01*
X105672000Y-72112095D01*
X105719619Y-72064476D01*
X105814857Y-72016857D01*
X105957714Y-72016857D01*
X106052952Y-72064476D01*
X106100571Y-72112095D01*
X106148190Y-72207333D01*
X106148190Y-72588285D01*
X106624380Y-71064476D02*
X106624380Y-71635904D01*
X106624380Y-71350190D02*
X105624380Y-71350190D01*
X105767238Y-71445428D01*
X105862476Y-71540666D01*
X105910095Y-71635904D01*
X105624380Y-70731142D02*
X105624380Y-70064476D01*
X106624380Y-70493047D01*
%TO.C,R26*%
X96385142Y-96972380D02*
X96051809Y-96496190D01*
X95813714Y-96972380D02*
X95813714Y-95972380D01*
X96194666Y-95972380D01*
X96289904Y-96020000D01*
X96337523Y-96067619D01*
X96385142Y-96162857D01*
X96385142Y-96305714D01*
X96337523Y-96400952D01*
X96289904Y-96448571D01*
X96194666Y-96496190D01*
X95813714Y-96496190D01*
X96766095Y-96067619D02*
X96813714Y-96020000D01*
X96908952Y-95972380D01*
X97147047Y-95972380D01*
X97242285Y-96020000D01*
X97289904Y-96067619D01*
X97337523Y-96162857D01*
X97337523Y-96258095D01*
X97289904Y-96400952D01*
X96718476Y-96972380D01*
X97337523Y-96972380D01*
X98194666Y-95972380D02*
X98004190Y-95972380D01*
X97908952Y-96020000D01*
X97861333Y-96067619D01*
X97766095Y-96210476D01*
X97718476Y-96400952D01*
X97718476Y-96781904D01*
X97766095Y-96877142D01*
X97813714Y-96924761D01*
X97908952Y-96972380D01*
X98099428Y-96972380D01*
X98194666Y-96924761D01*
X98242285Y-96877142D01*
X98289904Y-96781904D01*
X98289904Y-96543809D01*
X98242285Y-96448571D01*
X98194666Y-96400952D01*
X98099428Y-96353333D01*
X97908952Y-96353333D01*
X97813714Y-96400952D01*
X97766095Y-96448571D01*
X97718476Y-96543809D01*
%TO.C,D3*%
X88844380Y-75820495D02*
X87844380Y-75820495D01*
X87844380Y-75582400D01*
X87892000Y-75439542D01*
X87987238Y-75344304D01*
X88082476Y-75296685D01*
X88272952Y-75249066D01*
X88415809Y-75249066D01*
X88606285Y-75296685D01*
X88701523Y-75344304D01*
X88796761Y-75439542D01*
X88844380Y-75582400D01*
X88844380Y-75820495D01*
X87844380Y-74915733D02*
X87844380Y-74296685D01*
X88225333Y-74630019D01*
X88225333Y-74487161D01*
X88272952Y-74391923D01*
X88320571Y-74344304D01*
X88415809Y-74296685D01*
X88653904Y-74296685D01*
X88749142Y-74344304D01*
X88796761Y-74391923D01*
X88844380Y-74487161D01*
X88844380Y-74772876D01*
X88796761Y-74868114D01*
X88749142Y-74915733D01*
%TO.C,J19*%
X97980380Y-40679619D02*
X97647047Y-39679619D01*
X97313714Y-40679619D01*
X96980380Y-40060571D02*
X96218476Y-40060571D01*
X105600380Y-40806619D02*
X105267047Y-39806619D01*
X104933714Y-40806619D01*
X104600380Y-40187571D02*
X103838476Y-40187571D01*
X104219428Y-39806619D02*
X104219428Y-40568523D01*
%TO.C,R4*%
X122626380Y-120054666D02*
X122150190Y-120388000D01*
X122626380Y-120626095D02*
X121626380Y-120626095D01*
X121626380Y-120245142D01*
X121674000Y-120149904D01*
X121721619Y-120102285D01*
X121816857Y-120054666D01*
X121959714Y-120054666D01*
X122054952Y-120102285D01*
X122102571Y-120149904D01*
X122150190Y-120245142D01*
X122150190Y-120626095D01*
X121959714Y-119197523D02*
X122626380Y-119197523D01*
X121578761Y-119435619D02*
X122293047Y-119673714D01*
X122293047Y-119054666D01*
%TO.C,R8*%
X95845333Y-134056380D02*
X95512000Y-133580190D01*
X95273904Y-134056380D02*
X95273904Y-133056380D01*
X95654857Y-133056380D01*
X95750095Y-133104000D01*
X95797714Y-133151619D01*
X95845333Y-133246857D01*
X95845333Y-133389714D01*
X95797714Y-133484952D01*
X95750095Y-133532571D01*
X95654857Y-133580190D01*
X95273904Y-133580190D01*
X96416761Y-133484952D02*
X96321523Y-133437333D01*
X96273904Y-133389714D01*
X96226285Y-133294476D01*
X96226285Y-133246857D01*
X96273904Y-133151619D01*
X96321523Y-133104000D01*
X96416761Y-133056380D01*
X96607238Y-133056380D01*
X96702476Y-133104000D01*
X96750095Y-133151619D01*
X96797714Y-133246857D01*
X96797714Y-133294476D01*
X96750095Y-133389714D01*
X96702476Y-133437333D01*
X96607238Y-133484952D01*
X96416761Y-133484952D01*
X96321523Y-133532571D01*
X96273904Y-133580190D01*
X96226285Y-133675428D01*
X96226285Y-133865904D01*
X96273904Y-133961142D01*
X96321523Y-134008761D01*
X96416761Y-134056380D01*
X96607238Y-134056380D01*
X96702476Y-134008761D01*
X96750095Y-133961142D01*
X96797714Y-133865904D01*
X96797714Y-133675428D01*
X96750095Y-133580190D01*
X96702476Y-133532571D01*
X96607238Y-133484952D01*
%TO.C,R15*%
X109085142Y-119070380D02*
X108751809Y-118594190D01*
X108513714Y-119070380D02*
X108513714Y-118070380D01*
X108894666Y-118070380D01*
X108989904Y-118118000D01*
X109037523Y-118165619D01*
X109085142Y-118260857D01*
X109085142Y-118403714D01*
X109037523Y-118498952D01*
X108989904Y-118546571D01*
X108894666Y-118594190D01*
X108513714Y-118594190D01*
X110037523Y-119070380D02*
X109466095Y-119070380D01*
X109751809Y-119070380D02*
X109751809Y-118070380D01*
X109656571Y-118213238D01*
X109561333Y-118308476D01*
X109466095Y-118356095D01*
X110942285Y-118070380D02*
X110466095Y-118070380D01*
X110418476Y-118546571D01*
X110466095Y-118498952D01*
X110561333Y-118451333D01*
X110799428Y-118451333D01*
X110894666Y-118498952D01*
X110942285Y-118546571D01*
X110989904Y-118641809D01*
X110989904Y-118879904D01*
X110942285Y-118975142D01*
X110894666Y-119022761D01*
X110799428Y-119070380D01*
X110561333Y-119070380D01*
X110466095Y-119022761D01*
X110418476Y-118975142D01*
%TO.C,C4*%
X116435142Y-74120666D02*
X116482761Y-74168285D01*
X116530380Y-74311142D01*
X116530380Y-74406380D01*
X116482761Y-74549238D01*
X116387523Y-74644476D01*
X116292285Y-74692095D01*
X116101809Y-74739714D01*
X115958952Y-74739714D01*
X115768476Y-74692095D01*
X115673238Y-74644476D01*
X115578000Y-74549238D01*
X115530380Y-74406380D01*
X115530380Y-74311142D01*
X115578000Y-74168285D01*
X115625619Y-74120666D01*
X115863714Y-73263523D02*
X116530380Y-73263523D01*
X115482761Y-73501619D02*
X116197047Y-73739714D01*
X116197047Y-73120666D01*
%TO.C,JP3*%
X82097666Y-96197380D02*
X82097666Y-96911666D01*
X82050047Y-97054523D01*
X81954809Y-97149761D01*
X81811952Y-97197380D01*
X81716714Y-97197380D01*
X82573857Y-97197380D02*
X82573857Y-96197380D01*
X82954809Y-96197380D01*
X83050047Y-96245000D01*
X83097666Y-96292619D01*
X83145285Y-96387857D01*
X83145285Y-96530714D01*
X83097666Y-96625952D01*
X83050047Y-96673571D01*
X82954809Y-96721190D01*
X82573857Y-96721190D01*
X83478619Y-96197380D02*
X84097666Y-96197380D01*
X83764333Y-96578333D01*
X83907190Y-96578333D01*
X84002428Y-96625952D01*
X84050047Y-96673571D01*
X84097666Y-96768809D01*
X84097666Y-97006904D01*
X84050047Y-97102142D01*
X84002428Y-97149761D01*
X83907190Y-97197380D01*
X83621476Y-97197380D01*
X83526238Y-97149761D01*
X83478619Y-97102142D01*
%TO.C,D6*%
X96188304Y-131262380D02*
X96188304Y-130262380D01*
X96426400Y-130262380D01*
X96569257Y-130310000D01*
X96664495Y-130405238D01*
X96712114Y-130500476D01*
X96759733Y-130690952D01*
X96759733Y-130833809D01*
X96712114Y-131024285D01*
X96664495Y-131119523D01*
X96569257Y-131214761D01*
X96426400Y-131262380D01*
X96188304Y-131262380D01*
X97616876Y-130262380D02*
X97426400Y-130262380D01*
X97331161Y-130310000D01*
X97283542Y-130357619D01*
X97188304Y-130500476D01*
X97140685Y-130690952D01*
X97140685Y-131071904D01*
X97188304Y-131167142D01*
X97235923Y-131214761D01*
X97331161Y-131262380D01*
X97521638Y-131262380D01*
X97616876Y-131214761D01*
X97664495Y-131167142D01*
X97712114Y-131071904D01*
X97712114Y-130833809D01*
X97664495Y-130738571D01*
X97616876Y-130690952D01*
X97521638Y-130643333D01*
X97331161Y-130643333D01*
X97235923Y-130690952D01*
X97188304Y-130738571D01*
X97140685Y-130833809D01*
%TO.C,J11*%
X26876476Y-50022380D02*
X26876476Y-50736666D01*
X26828857Y-50879523D01*
X26733619Y-50974761D01*
X26590761Y-51022380D01*
X26495523Y-51022380D01*
X27876476Y-51022380D02*
X27305047Y-51022380D01*
X27590761Y-51022380D02*
X27590761Y-50022380D01*
X27495523Y-50165238D01*
X27400285Y-50260476D01*
X27305047Y-50308095D01*
X28828857Y-51022380D02*
X28257428Y-51022380D01*
X28543142Y-51022380D02*
X28543142Y-50022380D01*
X28447904Y-50165238D01*
X28352666Y-50260476D01*
X28257428Y-50308095D01*
%TO.C,C9*%
X108053142Y-109854666D02*
X108100761Y-109902285D01*
X108148380Y-110045142D01*
X108148380Y-110140380D01*
X108100761Y-110283238D01*
X108005523Y-110378476D01*
X107910285Y-110426095D01*
X107719809Y-110473714D01*
X107576952Y-110473714D01*
X107386476Y-110426095D01*
X107291238Y-110378476D01*
X107196000Y-110283238D01*
X107148380Y-110140380D01*
X107148380Y-110045142D01*
X107196000Y-109902285D01*
X107243619Y-109854666D01*
X108148380Y-109378476D02*
X108148380Y-109188000D01*
X108100761Y-109092761D01*
X108053142Y-109045142D01*
X107910285Y-108949904D01*
X107719809Y-108902285D01*
X107338857Y-108902285D01*
X107243619Y-108949904D01*
X107196000Y-108997523D01*
X107148380Y-109092761D01*
X107148380Y-109283238D01*
X107196000Y-109378476D01*
X107243619Y-109426095D01*
X107338857Y-109473714D01*
X107576952Y-109473714D01*
X107672190Y-109426095D01*
X107719809Y-109378476D01*
X107767428Y-109283238D01*
X107767428Y-109092761D01*
X107719809Y-108997523D01*
X107672190Y-108949904D01*
X107576952Y-108902285D01*
%TO.C,C3*%
X98425333Y-127865142D02*
X98377714Y-127912761D01*
X98234857Y-127960380D01*
X98139619Y-127960380D01*
X97996761Y-127912761D01*
X97901523Y-127817523D01*
X97853904Y-127722285D01*
X97806285Y-127531809D01*
X97806285Y-127388952D01*
X97853904Y-127198476D01*
X97901523Y-127103238D01*
X97996761Y-127008000D01*
X98139619Y-126960380D01*
X98234857Y-126960380D01*
X98377714Y-127008000D01*
X98425333Y-127055619D01*
X98758666Y-126960380D02*
X99377714Y-126960380D01*
X99044380Y-127341333D01*
X99187238Y-127341333D01*
X99282476Y-127388952D01*
X99330095Y-127436571D01*
X99377714Y-127531809D01*
X99377714Y-127769904D01*
X99330095Y-127865142D01*
X99282476Y-127912761D01*
X99187238Y-127960380D01*
X98901523Y-127960380D01*
X98806285Y-127912761D01*
X98758666Y-127865142D01*
%TO.C,R22*%
X86733142Y-111704380D02*
X86399809Y-111228190D01*
X86161714Y-111704380D02*
X86161714Y-110704380D01*
X86542666Y-110704380D01*
X86637904Y-110752000D01*
X86685523Y-110799619D01*
X86733142Y-110894857D01*
X86733142Y-111037714D01*
X86685523Y-111132952D01*
X86637904Y-111180571D01*
X86542666Y-111228190D01*
X86161714Y-111228190D01*
X87114095Y-110799619D02*
X87161714Y-110752000D01*
X87256952Y-110704380D01*
X87495047Y-110704380D01*
X87590285Y-110752000D01*
X87637904Y-110799619D01*
X87685523Y-110894857D01*
X87685523Y-110990095D01*
X87637904Y-111132952D01*
X87066476Y-111704380D01*
X87685523Y-111704380D01*
X88066476Y-110799619D02*
X88114095Y-110752000D01*
X88209333Y-110704380D01*
X88447428Y-110704380D01*
X88542666Y-110752000D01*
X88590285Y-110799619D01*
X88637904Y-110894857D01*
X88637904Y-110990095D01*
X88590285Y-111132952D01*
X88018857Y-111704380D01*
X88637904Y-111704380D01*
%TO.C,RV5*%
X111926761Y-63142380D02*
X111593428Y-62666190D01*
X111355333Y-63142380D02*
X111355333Y-62142380D01*
X111736285Y-62142380D01*
X111831523Y-62190000D01*
X111879142Y-62237619D01*
X111926761Y-62332857D01*
X111926761Y-62475714D01*
X111879142Y-62570952D01*
X111831523Y-62618571D01*
X111736285Y-62666190D01*
X111355333Y-62666190D01*
X112212476Y-62142380D02*
X112545809Y-63142380D01*
X112879142Y-62142380D01*
X113688666Y-62142380D02*
X113212476Y-62142380D01*
X113164857Y-62618571D01*
X113212476Y-62570952D01*
X113307714Y-62523333D01*
X113545809Y-62523333D01*
X113641047Y-62570952D01*
X113688666Y-62618571D01*
X113736285Y-62713809D01*
X113736285Y-62951904D01*
X113688666Y-63047142D01*
X113641047Y-63094761D01*
X113545809Y-63142380D01*
X113307714Y-63142380D01*
X113212476Y-63094761D01*
X113164857Y-63047142D01*
%TO.C,C10*%
X110056254Y-50335142D02*
X110008635Y-50382761D01*
X109865778Y-50430380D01*
X109770540Y-50430380D01*
X109627683Y-50382761D01*
X109532445Y-50287523D01*
X109484826Y-50192285D01*
X109437207Y-50001809D01*
X109437207Y-49858952D01*
X109484826Y-49668476D01*
X109532445Y-49573238D01*
X109627683Y-49478000D01*
X109770540Y-49430380D01*
X109865778Y-49430380D01*
X110008635Y-49478000D01*
X110056254Y-49525619D01*
X111008635Y-50430380D02*
X110437207Y-50430380D01*
X110722921Y-50430380D02*
X110722921Y-49430380D01*
X110627683Y-49573238D01*
X110532445Y-49668476D01*
X110437207Y-49716095D01*
X111627683Y-49430380D02*
X111722921Y-49430380D01*
X111818159Y-49478000D01*
X111865778Y-49525619D01*
X111913397Y-49620857D01*
X111961016Y-49811333D01*
X111961016Y-50049428D01*
X111913397Y-50239904D01*
X111865778Y-50335142D01*
X111818159Y-50382761D01*
X111722921Y-50430380D01*
X111627683Y-50430380D01*
X111532445Y-50382761D01*
X111484826Y-50335142D01*
X111437207Y-50239904D01*
X111389588Y-50049428D01*
X111389588Y-49811333D01*
X111437207Y-49620857D01*
X111484826Y-49525619D01*
X111532445Y-49478000D01*
X111627683Y-49430380D01*
%TO.C,R19*%
X78938380Y-126626857D02*
X78462190Y-126960190D01*
X78938380Y-127198285D02*
X77938380Y-127198285D01*
X77938380Y-126817333D01*
X77986000Y-126722095D01*
X78033619Y-126674476D01*
X78128857Y-126626857D01*
X78271714Y-126626857D01*
X78366952Y-126674476D01*
X78414571Y-126722095D01*
X78462190Y-126817333D01*
X78462190Y-127198285D01*
X78938380Y-125674476D02*
X78938380Y-126245904D01*
X78938380Y-125960190D02*
X77938380Y-125960190D01*
X78081238Y-126055428D01*
X78176476Y-126150666D01*
X78224095Y-126245904D01*
X78938380Y-125198285D02*
X78938380Y-125007809D01*
X78890761Y-124912571D01*
X78843142Y-124864952D01*
X78700285Y-124769714D01*
X78509809Y-124722095D01*
X78128857Y-124722095D01*
X78033619Y-124769714D01*
X77986000Y-124817333D01*
X77938380Y-124912571D01*
X77938380Y-125103047D01*
X77986000Y-125198285D01*
X78033619Y-125245904D01*
X78128857Y-125293523D01*
X78366952Y-125293523D01*
X78462190Y-125245904D01*
X78509809Y-125198285D01*
X78557428Y-125103047D01*
X78557428Y-124912571D01*
X78509809Y-124817333D01*
X78462190Y-124769714D01*
X78366952Y-124722095D01*
%TO.C,D7*%
X105027504Y-82748380D02*
X105027504Y-81748380D01*
X105265600Y-81748380D01*
X105408457Y-81796000D01*
X105503695Y-81891238D01*
X105551314Y-81986476D01*
X105598933Y-82176952D01*
X105598933Y-82319809D01*
X105551314Y-82510285D01*
X105503695Y-82605523D01*
X105408457Y-82700761D01*
X105265600Y-82748380D01*
X105027504Y-82748380D01*
X105932266Y-81748380D02*
X106598933Y-81748380D01*
X106170361Y-82748380D01*
%TO.C,R24*%
X84526380Y-126626857D02*
X84050190Y-126960190D01*
X84526380Y-127198285D02*
X83526380Y-127198285D01*
X83526380Y-126817333D01*
X83574000Y-126722095D01*
X83621619Y-126674476D01*
X83716857Y-126626857D01*
X83859714Y-126626857D01*
X83954952Y-126674476D01*
X84002571Y-126722095D01*
X84050190Y-126817333D01*
X84050190Y-127198285D01*
X83621619Y-126245904D02*
X83574000Y-126198285D01*
X83526380Y-126103047D01*
X83526380Y-125864952D01*
X83574000Y-125769714D01*
X83621619Y-125722095D01*
X83716857Y-125674476D01*
X83812095Y-125674476D01*
X83954952Y-125722095D01*
X84526380Y-126293523D01*
X84526380Y-125674476D01*
X83859714Y-124817333D02*
X84526380Y-124817333D01*
X83478761Y-125055428D02*
X84193047Y-125293523D01*
X84193047Y-124674476D01*
%TO.C,R9*%
X91019333Y-59634380D02*
X90686000Y-59158190D01*
X90447904Y-59634380D02*
X90447904Y-58634380D01*
X90828857Y-58634380D01*
X90924095Y-58682000D01*
X90971714Y-58729619D01*
X91019333Y-58824857D01*
X91019333Y-58967714D01*
X90971714Y-59062952D01*
X90924095Y-59110571D01*
X90828857Y-59158190D01*
X90447904Y-59158190D01*
X91495523Y-59634380D02*
X91686000Y-59634380D01*
X91781238Y-59586761D01*
X91828857Y-59539142D01*
X91924095Y-59396285D01*
X91971714Y-59205809D01*
X91971714Y-58824857D01*
X91924095Y-58729619D01*
X91876476Y-58682000D01*
X91781238Y-58634380D01*
X91590761Y-58634380D01*
X91495523Y-58682000D01*
X91447904Y-58729619D01*
X91400285Y-58824857D01*
X91400285Y-59062952D01*
X91447904Y-59158190D01*
X91495523Y-59205809D01*
X91590761Y-59253428D01*
X91781238Y-59253428D01*
X91876476Y-59205809D01*
X91924095Y-59158190D01*
X91971714Y-59062952D01*
%TO.C,D4*%
X88822304Y-65476380D02*
X88822304Y-64476380D01*
X89060400Y-64476380D01*
X89203257Y-64524000D01*
X89298495Y-64619238D01*
X89346114Y-64714476D01*
X89393733Y-64904952D01*
X89393733Y-65047809D01*
X89346114Y-65238285D01*
X89298495Y-65333523D01*
X89203257Y-65428761D01*
X89060400Y-65476380D01*
X88822304Y-65476380D01*
X90250876Y-64809714D02*
X90250876Y-65476380D01*
X90012780Y-64428761D02*
X89774685Y-65143047D01*
X90393733Y-65143047D01*
%TO.C,C11*%
X87241142Y-90527142D02*
X87193523Y-90574761D01*
X87050666Y-90622380D01*
X86955428Y-90622380D01*
X86812571Y-90574761D01*
X86717333Y-90479523D01*
X86669714Y-90384285D01*
X86622095Y-90193809D01*
X86622095Y-90050952D01*
X86669714Y-89860476D01*
X86717333Y-89765238D01*
X86812571Y-89670000D01*
X86955428Y-89622380D01*
X87050666Y-89622380D01*
X87193523Y-89670000D01*
X87241142Y-89717619D01*
X88193523Y-90622380D02*
X87622095Y-90622380D01*
X87907809Y-90622380D02*
X87907809Y-89622380D01*
X87812571Y-89765238D01*
X87717333Y-89860476D01*
X87622095Y-89908095D01*
X89145904Y-90622380D02*
X88574476Y-90622380D01*
X88860190Y-90622380D02*
X88860190Y-89622380D01*
X88764952Y-89765238D01*
X88669714Y-89860476D01*
X88574476Y-89908095D01*
%TO.C,D10*%
X84536114Y-117546380D02*
X84536114Y-116546380D01*
X84774209Y-116546380D01*
X84917066Y-116594000D01*
X85012304Y-116689238D01*
X85059923Y-116784476D01*
X85107542Y-116974952D01*
X85107542Y-117117809D01*
X85059923Y-117308285D01*
X85012304Y-117403523D01*
X84917066Y-117498761D01*
X84774209Y-117546380D01*
X84536114Y-117546380D01*
X86059923Y-117546380D02*
X85488495Y-117546380D01*
X85774209Y-117546380D02*
X85774209Y-116546380D01*
X85678971Y-116689238D01*
X85583733Y-116784476D01*
X85488495Y-116832095D01*
X86678971Y-116546380D02*
X86774209Y-116546380D01*
X86869447Y-116594000D01*
X86917066Y-116641619D01*
X86964685Y-116736857D01*
X87012304Y-116927333D01*
X87012304Y-117165428D01*
X86964685Y-117355904D01*
X86917066Y-117451142D01*
X86869447Y-117498761D01*
X86774209Y-117546380D01*
X86678971Y-117546380D01*
X86583733Y-117498761D01*
X86536114Y-117451142D01*
X86488495Y-117355904D01*
X86440876Y-117165428D01*
X86440876Y-116927333D01*
X86488495Y-116736857D01*
X86536114Y-116641619D01*
X86583733Y-116594000D01*
X86678971Y-116546380D01*
%TO.C,J17*%
X26876476Y-100822380D02*
X26876476Y-101536666D01*
X26828857Y-101679523D01*
X26733619Y-101774761D01*
X26590761Y-101822380D01*
X26495523Y-101822380D01*
X27876476Y-101822380D02*
X27305047Y-101822380D01*
X27590761Y-101822380D02*
X27590761Y-100822380D01*
X27495523Y-100965238D01*
X27400285Y-101060476D01*
X27305047Y-101108095D01*
X28209809Y-100822380D02*
X28876476Y-100822380D01*
X28447904Y-101822380D01*
%TO.C,JP2*%
X84510666Y-47414380D02*
X84510666Y-48128666D01*
X84463047Y-48271523D01*
X84367809Y-48366761D01*
X84224952Y-48414380D01*
X84129714Y-48414380D01*
X84986857Y-48414380D02*
X84986857Y-47414380D01*
X85367809Y-47414380D01*
X85463047Y-47462000D01*
X85510666Y-47509619D01*
X85558285Y-47604857D01*
X85558285Y-47747714D01*
X85510666Y-47842952D01*
X85463047Y-47890571D01*
X85367809Y-47938190D01*
X84986857Y-47938190D01*
X85939238Y-47509619D02*
X85986857Y-47462000D01*
X86082095Y-47414380D01*
X86320190Y-47414380D01*
X86415428Y-47462000D01*
X86463047Y-47509619D01*
X86510666Y-47604857D01*
X86510666Y-47700095D01*
X86463047Y-47842952D01*
X85891619Y-48414380D01*
X86510666Y-48414380D01*
%TO.C,RV4*%
X93464380Y-121713238D02*
X92988190Y-122046571D01*
X93464380Y-122284666D02*
X92464380Y-122284666D01*
X92464380Y-121903714D01*
X92512000Y-121808476D01*
X92559619Y-121760857D01*
X92654857Y-121713238D01*
X92797714Y-121713238D01*
X92892952Y-121760857D01*
X92940571Y-121808476D01*
X92988190Y-121903714D01*
X92988190Y-122284666D01*
X92464380Y-121427523D02*
X93464380Y-121094190D01*
X92464380Y-120760857D01*
X92797714Y-119998952D02*
X93464380Y-119998952D01*
X92416761Y-120237047D02*
X93131047Y-120475142D01*
X93131047Y-119856095D01*
%TO.C,R18*%
X80970380Y-44330857D02*
X80494190Y-44664190D01*
X80970380Y-44902285D02*
X79970380Y-44902285D01*
X79970380Y-44521333D01*
X80018000Y-44426095D01*
X80065619Y-44378476D01*
X80160857Y-44330857D01*
X80303714Y-44330857D01*
X80398952Y-44378476D01*
X80446571Y-44426095D01*
X80494190Y-44521333D01*
X80494190Y-44902285D01*
X80970380Y-43378476D02*
X80970380Y-43949904D01*
X80970380Y-43664190D02*
X79970380Y-43664190D01*
X80113238Y-43759428D01*
X80208476Y-43854666D01*
X80256095Y-43949904D01*
X80398952Y-42807047D02*
X80351333Y-42902285D01*
X80303714Y-42949904D01*
X80208476Y-42997523D01*
X80160857Y-42997523D01*
X80065619Y-42949904D01*
X80018000Y-42902285D01*
X79970380Y-42807047D01*
X79970380Y-42616571D01*
X80018000Y-42521333D01*
X80065619Y-42473714D01*
X80160857Y-42426095D01*
X80208476Y-42426095D01*
X80303714Y-42473714D01*
X80351333Y-42521333D01*
X80398952Y-42616571D01*
X80398952Y-42807047D01*
X80446571Y-42902285D01*
X80494190Y-42949904D01*
X80589428Y-42997523D01*
X80779904Y-42997523D01*
X80875142Y-42949904D01*
X80922761Y-42902285D01*
X80970380Y-42807047D01*
X80970380Y-42616571D01*
X80922761Y-42521333D01*
X80875142Y-42473714D01*
X80779904Y-42426095D01*
X80589428Y-42426095D01*
X80494190Y-42473714D01*
X80446571Y-42521333D01*
X80398952Y-42616571D01*
%TO.C,R7*%
X109561333Y-124658380D02*
X109228000Y-124182190D01*
X108989904Y-124658380D02*
X108989904Y-123658380D01*
X109370857Y-123658380D01*
X109466095Y-123706000D01*
X109513714Y-123753619D01*
X109561333Y-123848857D01*
X109561333Y-123991714D01*
X109513714Y-124086952D01*
X109466095Y-124134571D01*
X109370857Y-124182190D01*
X108989904Y-124182190D01*
X109894666Y-123658380D02*
X110561333Y-123658380D01*
X110132761Y-124658380D01*
%TO.C,U1*%
X110450380Y-85597904D02*
X111259904Y-85597904D01*
X111355142Y-85550285D01*
X111402761Y-85502666D01*
X111450380Y-85407428D01*
X111450380Y-85216952D01*
X111402761Y-85121714D01*
X111355142Y-85074095D01*
X111259904Y-85026476D01*
X110450380Y-85026476D01*
X111450380Y-84026476D02*
X111450380Y-84597904D01*
X111450380Y-84312190D02*
X110450380Y-84312190D01*
X110593238Y-84407428D01*
X110688476Y-84502666D01*
X110736095Y-84597904D01*
%TO.C,R3*%
X118816380Y-131738666D02*
X118340190Y-132072000D01*
X118816380Y-132310095D02*
X117816380Y-132310095D01*
X117816380Y-131929142D01*
X117864000Y-131833904D01*
X117911619Y-131786285D01*
X118006857Y-131738666D01*
X118149714Y-131738666D01*
X118244952Y-131786285D01*
X118292571Y-131833904D01*
X118340190Y-131929142D01*
X118340190Y-132310095D01*
X117816380Y-131405333D02*
X117816380Y-130786285D01*
X118197333Y-131119619D01*
X118197333Y-130976761D01*
X118244952Y-130881523D01*
X118292571Y-130833904D01*
X118387809Y-130786285D01*
X118625904Y-130786285D01*
X118721142Y-130833904D01*
X118768761Y-130881523D01*
X118816380Y-130976761D01*
X118816380Y-131262476D01*
X118768761Y-131357714D01*
X118721142Y-131405333D01*
%TO.C,R2*%
X118816380Y-146978666D02*
X118340190Y-147312000D01*
X118816380Y-147550095D02*
X117816380Y-147550095D01*
X117816380Y-147169142D01*
X117864000Y-147073904D01*
X117911619Y-147026285D01*
X118006857Y-146978666D01*
X118149714Y-146978666D01*
X118244952Y-147026285D01*
X118292571Y-147073904D01*
X118340190Y-147169142D01*
X118340190Y-147550095D01*
X117911619Y-146597714D02*
X117864000Y-146550095D01*
X117816380Y-146454857D01*
X117816380Y-146216761D01*
X117864000Y-146121523D01*
X117911619Y-146073904D01*
X118006857Y-146026285D01*
X118102095Y-146026285D01*
X118244952Y-146073904D01*
X118816380Y-146645333D01*
X118816380Y-146026285D01*
%TO.C,C5*%
X108799333Y-129389142D02*
X108751714Y-129436761D01*
X108608857Y-129484380D01*
X108513619Y-129484380D01*
X108370761Y-129436761D01*
X108275523Y-129341523D01*
X108227904Y-129246285D01*
X108180285Y-129055809D01*
X108180285Y-128912952D01*
X108227904Y-128722476D01*
X108275523Y-128627238D01*
X108370761Y-128532000D01*
X108513619Y-128484380D01*
X108608857Y-128484380D01*
X108751714Y-128532000D01*
X108799333Y-128579619D01*
X109704095Y-128484380D02*
X109227904Y-128484380D01*
X109180285Y-128960571D01*
X109227904Y-128912952D01*
X109323142Y-128865333D01*
X109561238Y-128865333D01*
X109656476Y-128912952D01*
X109704095Y-128960571D01*
X109751714Y-129055809D01*
X109751714Y-129293904D01*
X109704095Y-129389142D01*
X109656476Y-129436761D01*
X109561238Y-129484380D01*
X109323142Y-129484380D01*
X109227904Y-129436761D01*
X109180285Y-129389142D01*
%TO.C,D1*%
X96899504Y-136850380D02*
X96899504Y-135850380D01*
X97137600Y-135850380D01*
X97280457Y-135898000D01*
X97375695Y-135993238D01*
X97423314Y-136088476D01*
X97470933Y-136278952D01*
X97470933Y-136421809D01*
X97423314Y-136612285D01*
X97375695Y-136707523D01*
X97280457Y-136802761D01*
X97137600Y-136850380D01*
X96899504Y-136850380D01*
X98423314Y-136850380D02*
X97851885Y-136850380D01*
X98137600Y-136850380D02*
X98137600Y-135850380D01*
X98042361Y-135993238D01*
X97947123Y-136088476D01*
X97851885Y-136136095D01*
%TO.C,R14*%
X110180380Y-72016857D02*
X109704190Y-72350190D01*
X110180380Y-72588285D02*
X109180380Y-72588285D01*
X109180380Y-72207333D01*
X109228000Y-72112095D01*
X109275619Y-72064476D01*
X109370857Y-72016857D01*
X109513714Y-72016857D01*
X109608952Y-72064476D01*
X109656571Y-72112095D01*
X109704190Y-72207333D01*
X109704190Y-72588285D01*
X110180380Y-71064476D02*
X110180380Y-71635904D01*
X110180380Y-71350190D02*
X109180380Y-71350190D01*
X109323238Y-71445428D01*
X109418476Y-71540666D01*
X109466095Y-71635904D01*
X109513714Y-70207333D02*
X110180380Y-70207333D01*
X109132761Y-70445428D02*
X109847047Y-70683523D01*
X109847047Y-70064476D01*
%TO.C,C8*%
X89257142Y-85724666D02*
X89304761Y-85772285D01*
X89352380Y-85915142D01*
X89352380Y-86010380D01*
X89304761Y-86153238D01*
X89209523Y-86248476D01*
X89114285Y-86296095D01*
X88923809Y-86343714D01*
X88780952Y-86343714D01*
X88590476Y-86296095D01*
X88495238Y-86248476D01*
X88400000Y-86153238D01*
X88352380Y-86010380D01*
X88352380Y-85915142D01*
X88400000Y-85772285D01*
X88447619Y-85724666D01*
X88780952Y-85153238D02*
X88733333Y-85248476D01*
X88685714Y-85296095D01*
X88590476Y-85343714D01*
X88542857Y-85343714D01*
X88447619Y-85296095D01*
X88400000Y-85248476D01*
X88352380Y-85153238D01*
X88352380Y-84962761D01*
X88400000Y-84867523D01*
X88447619Y-84819904D01*
X88542857Y-84772285D01*
X88590476Y-84772285D01*
X88685714Y-84819904D01*
X88733333Y-84867523D01*
X88780952Y-84962761D01*
X88780952Y-85153238D01*
X88828571Y-85248476D01*
X88876190Y-85296095D01*
X88971428Y-85343714D01*
X89161904Y-85343714D01*
X89257142Y-85296095D01*
X89304761Y-85248476D01*
X89352380Y-85153238D01*
X89352380Y-84962761D01*
X89304761Y-84867523D01*
X89257142Y-84819904D01*
X89161904Y-84772285D01*
X88971428Y-84772285D01*
X88876190Y-84819904D01*
X88828571Y-84867523D01*
X88780952Y-84962761D01*
%TO.C,C7*%
X92559142Y-102234666D02*
X92606761Y-102282285D01*
X92654380Y-102425142D01*
X92654380Y-102520380D01*
X92606761Y-102663238D01*
X92511523Y-102758476D01*
X92416285Y-102806095D01*
X92225809Y-102853714D01*
X92082952Y-102853714D01*
X91892476Y-102806095D01*
X91797238Y-102758476D01*
X91702000Y-102663238D01*
X91654380Y-102520380D01*
X91654380Y-102425142D01*
X91702000Y-102282285D01*
X91749619Y-102234666D01*
X91654380Y-101901333D02*
X91654380Y-101234666D01*
X92654380Y-101663238D01*
%TO.C,R25*%
X104338380Y-105290857D02*
X103862190Y-105624190D01*
X104338380Y-105862285D02*
X103338380Y-105862285D01*
X103338380Y-105481333D01*
X103386000Y-105386095D01*
X103433619Y-105338476D01*
X103528857Y-105290857D01*
X103671714Y-105290857D01*
X103766952Y-105338476D01*
X103814571Y-105386095D01*
X103862190Y-105481333D01*
X103862190Y-105862285D01*
X103433619Y-104909904D02*
X103386000Y-104862285D01*
X103338380Y-104767047D01*
X103338380Y-104528952D01*
X103386000Y-104433714D01*
X103433619Y-104386095D01*
X103528857Y-104338476D01*
X103624095Y-104338476D01*
X103766952Y-104386095D01*
X104338380Y-104957523D01*
X104338380Y-104338476D01*
X103338380Y-103433714D02*
X103338380Y-103909904D01*
X103814571Y-103957523D01*
X103766952Y-103909904D01*
X103719333Y-103814666D01*
X103719333Y-103576571D01*
X103766952Y-103481333D01*
X103814571Y-103433714D01*
X103909809Y-103386095D01*
X104147904Y-103386095D01*
X104243142Y-103433714D01*
X104290761Y-103481333D01*
X104338380Y-103576571D01*
X104338380Y-103814666D01*
X104290761Y-103909904D01*
X104243142Y-103957523D01*
%TO.C,JP1*%
X113466666Y-128484380D02*
X113466666Y-129198666D01*
X113419047Y-129341523D01*
X113323809Y-129436761D01*
X113180952Y-129484380D01*
X113085714Y-129484380D01*
X113942857Y-129484380D02*
X113942857Y-128484380D01*
X114323809Y-128484380D01*
X114419047Y-128532000D01*
X114466666Y-128579619D01*
X114514285Y-128674857D01*
X114514285Y-128817714D01*
X114466666Y-128912952D01*
X114419047Y-128960571D01*
X114323809Y-129008190D01*
X113942857Y-129008190D01*
X115466666Y-129484380D02*
X114895238Y-129484380D01*
X115180952Y-129484380D02*
X115180952Y-128484380D01*
X115085714Y-128627238D01*
X114990476Y-128722476D01*
X114895238Y-128770095D01*
%TO.C,R12*%
X103497142Y-79700380D02*
X103163809Y-79224190D01*
X102925714Y-79700380D02*
X102925714Y-78700380D01*
X103306666Y-78700380D01*
X103401904Y-78748000D01*
X103449523Y-78795619D01*
X103497142Y-78890857D01*
X103497142Y-79033714D01*
X103449523Y-79128952D01*
X103401904Y-79176571D01*
X103306666Y-79224190D01*
X102925714Y-79224190D01*
X104449523Y-79700380D02*
X103878095Y-79700380D01*
X104163809Y-79700380D02*
X104163809Y-78700380D01*
X104068571Y-78843238D01*
X103973333Y-78938476D01*
X103878095Y-78986095D01*
X104830476Y-78795619D02*
X104878095Y-78748000D01*
X104973333Y-78700380D01*
X105211428Y-78700380D01*
X105306666Y-78748000D01*
X105354285Y-78795619D01*
X105401904Y-78890857D01*
X105401904Y-78986095D01*
X105354285Y-79128952D01*
X104782857Y-79700380D01*
X105401904Y-79700380D01*
%TO.C,J9*%
X71040666Y-143954380D02*
X71040666Y-144668666D01*
X70993047Y-144811523D01*
X70897809Y-144906761D01*
X70754952Y-144954380D01*
X70659714Y-144954380D01*
X71564476Y-144954380D02*
X71754952Y-144954380D01*
X71850190Y-144906761D01*
X71897809Y-144859142D01*
X71993047Y-144716285D01*
X72040666Y-144525809D01*
X72040666Y-144144857D01*
X71993047Y-144049619D01*
X71945428Y-144002000D01*
X71850190Y-143954380D01*
X71659714Y-143954380D01*
X71564476Y-144002000D01*
X71516857Y-144049619D01*
X71469238Y-144144857D01*
X71469238Y-144382952D01*
X71516857Y-144478190D01*
X71564476Y-144525809D01*
X71659714Y-144573428D01*
X71850190Y-144573428D01*
X71945428Y-144525809D01*
X71993047Y-144478190D01*
X72040666Y-144382952D01*
%TO.C,D12*%
X101544380Y-104947885D02*
X100544380Y-104947885D01*
X100544380Y-104709790D01*
X100592000Y-104566933D01*
X100687238Y-104471695D01*
X100782476Y-104424076D01*
X100972952Y-104376457D01*
X101115809Y-104376457D01*
X101306285Y-104424076D01*
X101401523Y-104471695D01*
X101496761Y-104566933D01*
X101544380Y-104709790D01*
X101544380Y-104947885D01*
X101544380Y-103424076D02*
X101544380Y-103995504D01*
X101544380Y-103709790D02*
X100544380Y-103709790D01*
X100687238Y-103805028D01*
X100782476Y-103900266D01*
X100830095Y-103995504D01*
X100639619Y-103043123D02*
X100592000Y-102995504D01*
X100544380Y-102900266D01*
X100544380Y-102662171D01*
X100592000Y-102566933D01*
X100639619Y-102519314D01*
X100734857Y-102471695D01*
X100830095Y-102471695D01*
X100972952Y-102519314D01*
X101544380Y-103090742D01*
X101544380Y-102471695D01*
%TO.C,D5*%
X109904304Y-121864380D02*
X109904304Y-120864380D01*
X110142400Y-120864380D01*
X110285257Y-120912000D01*
X110380495Y-121007238D01*
X110428114Y-121102476D01*
X110475733Y-121292952D01*
X110475733Y-121435809D01*
X110428114Y-121626285D01*
X110380495Y-121721523D01*
X110285257Y-121816761D01*
X110142400Y-121864380D01*
X109904304Y-121864380D01*
X111380495Y-120864380D02*
X110904304Y-120864380D01*
X110856685Y-121340571D01*
X110904304Y-121292952D01*
X110999542Y-121245333D01*
X111237638Y-121245333D01*
X111332876Y-121292952D01*
X111380495Y-121340571D01*
X111428114Y-121435809D01*
X111428114Y-121673904D01*
X111380495Y-121769142D01*
X111332876Y-121816761D01*
X111237638Y-121864380D01*
X110999542Y-121864380D01*
X110904304Y-121816761D01*
X110856685Y-121769142D01*
%TO.C,R5*%
X81732380Y-75096666D02*
X81256190Y-75430000D01*
X81732380Y-75668095D02*
X80732380Y-75668095D01*
X80732380Y-75287142D01*
X80780000Y-75191904D01*
X80827619Y-75144285D01*
X80922857Y-75096666D01*
X81065714Y-75096666D01*
X81160952Y-75144285D01*
X81208571Y-75191904D01*
X81256190Y-75287142D01*
X81256190Y-75668095D01*
X80732380Y-74191904D02*
X80732380Y-74668095D01*
X81208571Y-74715714D01*
X81160952Y-74668095D01*
X81113333Y-74572857D01*
X81113333Y-74334761D01*
X81160952Y-74239523D01*
X81208571Y-74191904D01*
X81303809Y-74144285D01*
X81541904Y-74144285D01*
X81637142Y-74191904D01*
X81684761Y-74239523D01*
X81732380Y-74334761D01*
X81732380Y-74572857D01*
X81684761Y-74668095D01*
X81637142Y-74715714D01*
%TO.C,C6*%
X88809142Y-53969779D02*
X88856761Y-54017398D01*
X88904380Y-54160255D01*
X88904380Y-54255493D01*
X88856761Y-54398351D01*
X88761523Y-54493589D01*
X88666285Y-54541208D01*
X88475809Y-54588827D01*
X88332952Y-54588827D01*
X88142476Y-54541208D01*
X88047238Y-54493589D01*
X87952000Y-54398351D01*
X87904380Y-54255493D01*
X87904380Y-54160255D01*
X87952000Y-54017398D01*
X87999619Y-53969779D01*
X87904380Y-53112636D02*
X87904380Y-53303113D01*
X87952000Y-53398351D01*
X87999619Y-53445970D01*
X88142476Y-53541208D01*
X88332952Y-53588827D01*
X88713904Y-53588827D01*
X88809142Y-53541208D01*
X88856761Y-53493589D01*
X88904380Y-53398351D01*
X88904380Y-53207874D01*
X88856761Y-53112636D01*
X88809142Y-53065017D01*
X88713904Y-53017398D01*
X88475809Y-53017398D01*
X88380571Y-53065017D01*
X88332952Y-53112636D01*
X88285333Y-53207874D01*
X88285333Y-53398351D01*
X88332952Y-53493589D01*
X88380571Y-53541208D01*
X88475809Y-53588827D01*
%TO.C,C2*%
X101957142Y-73866666D02*
X102004761Y-73914285D01*
X102052380Y-74057142D01*
X102052380Y-74152380D01*
X102004761Y-74295238D01*
X101909523Y-74390476D01*
X101814285Y-74438095D01*
X101623809Y-74485714D01*
X101480952Y-74485714D01*
X101290476Y-74438095D01*
X101195238Y-74390476D01*
X101100000Y-74295238D01*
X101052380Y-74152380D01*
X101052380Y-74057142D01*
X101100000Y-73914285D01*
X101147619Y-73866666D01*
X101147619Y-73485714D02*
X101100000Y-73438095D01*
X101052380Y-73342857D01*
X101052380Y-73104761D01*
X101100000Y-73009523D01*
X101147619Y-72961904D01*
X101242857Y-72914285D01*
X101338095Y-72914285D01*
X101480952Y-72961904D01*
X102052380Y-73533333D01*
X102052380Y-72914285D01*
%TO.C,R20*%
X86733142Y-114752380D02*
X86399809Y-114276190D01*
X86161714Y-114752380D02*
X86161714Y-113752380D01*
X86542666Y-113752380D01*
X86637904Y-113800000D01*
X86685523Y-113847619D01*
X86733142Y-113942857D01*
X86733142Y-114085714D01*
X86685523Y-114180952D01*
X86637904Y-114228571D01*
X86542666Y-114276190D01*
X86161714Y-114276190D01*
X87114095Y-113847619D02*
X87161714Y-113800000D01*
X87256952Y-113752380D01*
X87495047Y-113752380D01*
X87590285Y-113800000D01*
X87637904Y-113847619D01*
X87685523Y-113942857D01*
X87685523Y-114038095D01*
X87637904Y-114180952D01*
X87066476Y-114752380D01*
X87685523Y-114752380D01*
X88304571Y-113752380D02*
X88399809Y-113752380D01*
X88495047Y-113800000D01*
X88542666Y-113847619D01*
X88590285Y-113942857D01*
X88637904Y-114133333D01*
X88637904Y-114371428D01*
X88590285Y-114561904D01*
X88542666Y-114657142D01*
X88495047Y-114704761D01*
X88399809Y-114752380D01*
X88304571Y-114752380D01*
X88209333Y-114704761D01*
X88161714Y-114657142D01*
X88114095Y-114561904D01*
X88066476Y-114371428D01*
X88066476Y-114133333D01*
X88114095Y-113942857D01*
X88161714Y-113847619D01*
X88209333Y-113800000D01*
X88304571Y-113752380D01*
%TO.C,D11*%
X99004380Y-104947885D02*
X98004380Y-104947885D01*
X98004380Y-104709790D01*
X98052000Y-104566933D01*
X98147238Y-104471695D01*
X98242476Y-104424076D01*
X98432952Y-104376457D01*
X98575809Y-104376457D01*
X98766285Y-104424076D01*
X98861523Y-104471695D01*
X98956761Y-104566933D01*
X99004380Y-104709790D01*
X99004380Y-104947885D01*
X99004380Y-103424076D02*
X99004380Y-103995504D01*
X99004380Y-103709790D02*
X98004380Y-103709790D01*
X98147238Y-103805028D01*
X98242476Y-103900266D01*
X98290095Y-103995504D01*
X99004380Y-102471695D02*
X99004380Y-103043123D01*
X99004380Y-102757409D02*
X98004380Y-102757409D01*
X98147238Y-102852647D01*
X98242476Y-102947885D01*
X98290095Y-103043123D01*
%TO.C,R6*%
X91019333Y-62682380D02*
X90686000Y-62206190D01*
X90447904Y-62682380D02*
X90447904Y-61682380D01*
X90828857Y-61682380D01*
X90924095Y-61730000D01*
X90971714Y-61777619D01*
X91019333Y-61872857D01*
X91019333Y-62015714D01*
X90971714Y-62110952D01*
X90924095Y-62158571D01*
X90828857Y-62206190D01*
X90447904Y-62206190D01*
X91876476Y-61682380D02*
X91686000Y-61682380D01*
X91590761Y-61730000D01*
X91543142Y-61777619D01*
X91447904Y-61920476D01*
X91400285Y-62110952D01*
X91400285Y-62491904D01*
X91447904Y-62587142D01*
X91495523Y-62634761D01*
X91590761Y-62682380D01*
X91781238Y-62682380D01*
X91876476Y-62634761D01*
X91924095Y-62587142D01*
X91971714Y-62491904D01*
X91971714Y-62253809D01*
X91924095Y-62158571D01*
X91876476Y-62110952D01*
X91781238Y-62063333D01*
X91590761Y-62063333D01*
X91495523Y-62110952D01*
X91447904Y-62158571D01*
X91400285Y-62253809D01*
%TO.C,D9*%
X81732380Y-125096495D02*
X80732380Y-125096495D01*
X80732380Y-124858400D01*
X80780000Y-124715542D01*
X80875238Y-124620304D01*
X80970476Y-124572685D01*
X81160952Y-124525066D01*
X81303809Y-124525066D01*
X81494285Y-124572685D01*
X81589523Y-124620304D01*
X81684761Y-124715542D01*
X81732380Y-124858400D01*
X81732380Y-125096495D01*
X81732380Y-124048876D02*
X81732380Y-123858400D01*
X81684761Y-123763161D01*
X81637142Y-123715542D01*
X81494285Y-123620304D01*
X81303809Y-123572685D01*
X80922857Y-123572685D01*
X80827619Y-123620304D01*
X80780000Y-123667923D01*
X80732380Y-123763161D01*
X80732380Y-123953638D01*
X80780000Y-124048876D01*
X80827619Y-124096495D01*
X80922857Y-124144114D01*
X81160952Y-124144114D01*
X81256190Y-124096495D01*
X81303809Y-124048876D01*
X81351428Y-123953638D01*
X81351428Y-123763161D01*
X81303809Y-123667923D01*
X81256190Y-123620304D01*
X81160952Y-123572685D01*
D11*
%TO.C,D13*%
X117294000Y-38428000D02*
X114354000Y-38428000D01*
X114354000Y-43868000D02*
X117294000Y-43868000D01*
X114354000Y-42848000D02*
X117294000Y-42848000D01*
X115824000Y-44888000D02*
X115824000Y-43868000D01*
X114354000Y-38428000D02*
X114354000Y-43868000D01*
X117294000Y-43868000D02*
X117294000Y-38428000D01*
X115824000Y-37408000D02*
X115824000Y-38428000D01*
X114354000Y-42968000D02*
X117294000Y-42968000D01*
X114354000Y-43088000D02*
X117294000Y-43088000D01*
%TO.C,R16*%
X109374000Y-138462000D02*
X109374000Y-145002000D01*
X112114000Y-145002000D02*
X112114000Y-138462000D01*
X110744000Y-145772000D02*
X110744000Y-145002000D01*
X109374000Y-145002000D02*
X112114000Y-145002000D01*
X112114000Y-138462000D02*
X109374000Y-138462000D01*
X110744000Y-137692000D02*
X110744000Y-138462000D01*
%TO.C,RV7*%
X113696000Y-98104000D02*
X107696000Y-98104000D01*
X105696000Y-103604000D02*
X105696000Y-100104000D01*
X107696000Y-105604000D02*
X113696000Y-105604000D01*
X109146000Y-101854000D02*
X108796000Y-101854000D01*
X114696000Y-104604000D02*
X114696000Y-99104000D01*
X108946000Y-100854000D02*
X108946000Y-102854000D01*
X108946000Y-102854000D02*
G75*
G03*
X108946000Y-100854000I0J1000000D01*
G01*
%TO.C,R23*%
X94388000Y-107918000D02*
X97128000Y-107918000D01*
X95758000Y-100608000D02*
X95758000Y-101378000D01*
X94388000Y-101378000D02*
X94388000Y-107918000D01*
X97128000Y-101378000D02*
X94388000Y-101378000D01*
X97128000Y-107918000D02*
X97128000Y-101378000D01*
X95758000Y-108688000D02*
X95758000Y-107918000D01*
%TO.C,R13*%
X115030000Y-94896000D02*
X108490000Y-94896000D01*
X108490000Y-94896000D02*
X108490000Y-97636000D01*
X115030000Y-97636000D02*
X115030000Y-94896000D01*
X107720000Y-96266000D02*
X108490000Y-96266000D01*
X115800000Y-96266000D02*
X115030000Y-96266000D01*
X108490000Y-97636000D02*
X115030000Y-97636000D01*
%TO.C,R1*%
X99282000Y-140562000D02*
X99282000Y-137822000D01*
X99282000Y-137822000D02*
X92742000Y-137822000D01*
X91972000Y-139192000D02*
X92742000Y-139192000D01*
X100052000Y-139192000D02*
X99282000Y-139192000D01*
X92742000Y-140562000D02*
X99282000Y-140562000D01*
X92742000Y-137822000D02*
X92742000Y-140562000D01*
%TO.C,D8*%
X111402000Y-70524000D02*
X111402000Y-74764000D01*
X112522000Y-69874000D02*
X112522000Y-70524000D01*
X112522000Y-75414000D02*
X112522000Y-74764000D01*
X113642000Y-74764000D02*
X113642000Y-70524000D01*
X111402000Y-74164000D02*
X113642000Y-74164000D01*
X111402000Y-74044000D02*
X113642000Y-74044000D01*
X111402000Y-73924000D02*
X113642000Y-73924000D01*
X111402000Y-74764000D02*
X113642000Y-74764000D01*
X113642000Y-70524000D02*
X111402000Y-70524000D01*
%TO.C,R10*%
X95226000Y-68072000D02*
X94456000Y-68072000D01*
X87916000Y-69442000D02*
X94456000Y-69442000D01*
X87916000Y-66702000D02*
X87916000Y-69442000D01*
X87146000Y-68072000D02*
X87916000Y-68072000D01*
X94456000Y-69442000D02*
X94456000Y-66702000D01*
X94456000Y-66702000D02*
X87916000Y-66702000D01*
%TO.C,R27*%
X84301000Y-92805000D02*
X84301000Y-86265000D01*
X82931000Y-93575000D02*
X82931000Y-92805000D01*
X84301000Y-86265000D02*
X81561000Y-86265000D01*
X82931000Y-85495000D02*
X82931000Y-86265000D01*
X81561000Y-92805000D02*
X84301000Y-92805000D01*
X81561000Y-86265000D02*
X81561000Y-92805000D01*
%TO.C,R21*%
X90646000Y-106834000D02*
X84106000Y-106834000D01*
X90646000Y-109574000D02*
X90646000Y-106834000D01*
X84106000Y-106834000D02*
X84106000Y-109574000D01*
X84106000Y-109574000D02*
X90646000Y-109574000D01*
X91416000Y-108204000D02*
X90646000Y-108204000D01*
X83336000Y-108204000D02*
X84106000Y-108204000D01*
%TO.C,D2*%
X105768000Y-136642000D02*
X103528000Y-136642000D01*
X104648000Y-140692000D02*
X104648000Y-140042000D01*
X103528000Y-140042000D02*
X105768000Y-140042000D01*
X105768000Y-135802000D02*
X103528000Y-135802000D01*
X105768000Y-140042000D02*
X105768000Y-135802000D01*
X104648000Y-135152000D02*
X104648000Y-135802000D01*
X105768000Y-136522000D02*
X103528000Y-136522000D01*
X105768000Y-136402000D02*
X103528000Y-136402000D01*
X103528000Y-135802000D02*
X103528000Y-140042000D01*
%TO.C,R11*%
X96012000Y-81256000D02*
X96012000Y-80486000D01*
X96012000Y-73176000D02*
X96012000Y-73946000D01*
X94642000Y-80486000D02*
X97382000Y-80486000D01*
X97382000Y-80486000D02*
X97382000Y-73946000D01*
X97382000Y-73946000D02*
X94642000Y-73946000D01*
X94642000Y-73946000D02*
X94642000Y-80486000D01*
%TO.C,C1*%
X116494000Y-124818000D02*
X120234000Y-124818000D01*
X116494000Y-117578000D02*
X120234000Y-117578000D01*
X120234000Y-124818000D02*
X120234000Y-117578000D01*
X116494000Y-124818000D02*
X116494000Y-117578000D01*
%TO.C,R17*%
X104802000Y-74644000D02*
X107542000Y-74644000D01*
X106172000Y-67334000D02*
X106172000Y-68104000D01*
X107542000Y-68104000D02*
X104802000Y-68104000D01*
X106172000Y-75414000D02*
X106172000Y-74644000D01*
X107542000Y-74644000D02*
X107542000Y-68104000D01*
X104802000Y-68104000D02*
X104802000Y-74644000D01*
%TO.C,R26*%
X92988000Y-96520000D02*
X93758000Y-96520000D01*
X93758000Y-95150000D02*
X93758000Y-97890000D01*
X100298000Y-95150000D02*
X93758000Y-95150000D01*
X100298000Y-97890000D02*
X100298000Y-95150000D01*
X93758000Y-97890000D02*
X100298000Y-97890000D01*
X101068000Y-96520000D02*
X100298000Y-96520000D01*
%TO.C,D3*%
X87272000Y-76718000D02*
X89512000Y-76718000D01*
X87272000Y-77558000D02*
X89512000Y-77558000D01*
X87272000Y-76958000D02*
X89512000Y-76958000D01*
X88392000Y-72668000D02*
X88392000Y-73318000D01*
X88392000Y-78208000D02*
X88392000Y-77558000D01*
X89512000Y-73318000D02*
X87272000Y-73318000D01*
X87272000Y-76838000D02*
X89512000Y-76838000D01*
X87272000Y-73318000D02*
X87272000Y-77558000D01*
X89512000Y-77558000D02*
X89512000Y-73318000D01*
%TO.C,J19*%
X100368000Y-39098000D02*
X100368000Y-38498000D01*
X102908000Y-39098000D02*
X102908000Y-38498000D01*
X106318000Y-38068000D02*
X106318000Y-34068000D01*
X97278000Y-33078000D02*
X97278000Y-34078000D01*
X100368000Y-38498000D02*
X98768000Y-38498000D01*
X105448000Y-38498000D02*
X103848000Y-38498000D01*
X103848000Y-38498000D02*
X103848000Y-39098000D01*
X104648000Y-34078000D02*
X104398000Y-34608000D01*
X101308000Y-38498000D02*
X101308000Y-39098000D01*
X105448000Y-39098000D02*
X105448000Y-38498000D01*
X97828000Y-39098000D02*
X97828000Y-38498000D01*
X97028000Y-34078000D02*
X97028000Y-33078000D01*
X104398000Y-34608000D02*
X97278000Y-34608000D01*
X104648000Y-33078000D02*
X104648000Y-34078000D01*
X106028000Y-33078000D02*
X95648000Y-33078000D01*
X97828000Y-38498000D02*
X96228000Y-38498000D01*
X98768000Y-38498000D02*
X98768000Y-39098000D01*
X102908000Y-38498000D02*
X101308000Y-38498000D01*
X104398000Y-33078000D02*
X104398000Y-34078000D01*
X106028000Y-39098000D02*
X106028000Y-33078000D01*
X104648000Y-34078000D02*
X97028000Y-34078000D01*
X97278000Y-34608000D02*
X97028000Y-34078000D01*
X96228000Y-38498000D02*
X96228000Y-39098000D01*
X95648000Y-39098000D02*
X106028000Y-39098000D01*
X95648000Y-33078000D02*
X95648000Y-39098000D01*
%TO.C,R4*%
X120804000Y-116618000D02*
X120804000Y-123158000D01*
X123544000Y-116618000D02*
X120804000Y-116618000D01*
X123544000Y-123158000D02*
X123544000Y-116618000D01*
X122174000Y-123928000D02*
X122174000Y-123158000D01*
X120804000Y-123158000D02*
X123544000Y-123158000D01*
X122174000Y-115848000D02*
X122174000Y-116618000D01*
%TO.C,R8*%
X100052000Y-133604000D02*
X99282000Y-133604000D01*
X92742000Y-132234000D02*
X92742000Y-134974000D01*
X92742000Y-134974000D02*
X99282000Y-134974000D01*
X91972000Y-133604000D02*
X92742000Y-133604000D01*
X99282000Y-134974000D02*
X99282000Y-132234000D01*
X99282000Y-132234000D02*
X92742000Y-132234000D01*
%TO.C,R15*%
X106458000Y-119988000D02*
X112998000Y-119988000D01*
X106458000Y-117248000D02*
X106458000Y-119988000D01*
X105688000Y-118618000D02*
X106458000Y-118618000D01*
X112998000Y-117248000D02*
X106458000Y-117248000D01*
X113768000Y-118618000D02*
X112998000Y-118618000D01*
X112998000Y-119988000D02*
X112998000Y-117248000D01*
%TO.C,C4*%
X117948000Y-77574000D02*
X117948000Y-70334000D01*
X114208000Y-77574000D02*
X114208000Y-70334000D01*
X114208000Y-70334000D02*
X117948000Y-70334000D01*
X114208000Y-77574000D02*
X117948000Y-77574000D01*
%TO.C,JP3*%
X84261000Y-100345000D02*
X84261000Y-105485000D01*
X81601000Y-97745000D02*
X82931000Y-97745000D01*
X81601000Y-99075000D02*
X81601000Y-97745000D01*
X81601000Y-100345000D02*
X84261000Y-100345000D01*
X81601000Y-100345000D02*
X81601000Y-105485000D01*
X81601000Y-105485000D02*
X84261000Y-105485000D01*
%TO.C,D6*%
X98802000Y-131930000D02*
X98802000Y-129690000D01*
X98682000Y-131930000D02*
X98682000Y-129690000D01*
X98562000Y-131930000D02*
X98562000Y-129690000D01*
X100052000Y-130810000D02*
X99402000Y-130810000D01*
X99402000Y-131930000D02*
X99402000Y-129690000D01*
X94512000Y-130810000D02*
X95162000Y-130810000D01*
X95162000Y-129690000D02*
X95162000Y-131930000D01*
X99402000Y-129690000D02*
X95162000Y-129690000D01*
X95162000Y-131930000D02*
X99402000Y-131930000D01*
%TO.C,J11*%
X29016000Y-52010000D02*
X29016000Y-53340000D01*
X27686000Y-52010000D02*
X29016000Y-52010000D01*
X26356000Y-54610000D02*
X29016000Y-54610000D01*
X26356000Y-54610000D02*
X26356000Y-67370000D01*
X26356000Y-67370000D02*
X29016000Y-67370000D01*
X29016000Y-54610000D02*
X29016000Y-67370000D01*
%TO.C,C9*%
X109566000Y-113308000D02*
X109566000Y-106068000D01*
X105826000Y-106068000D02*
X109566000Y-106068000D01*
X105826000Y-113308000D02*
X109566000Y-113308000D01*
X105826000Y-113308000D02*
X105826000Y-106068000D01*
%TO.C,C3*%
X102212000Y-129378000D02*
X94972000Y-129378000D01*
X94972000Y-129378000D02*
X94972000Y-125638000D01*
X102212000Y-125638000D02*
X94972000Y-125638000D01*
X102212000Y-129378000D02*
X102212000Y-125638000D01*
%TO.C,R22*%
X90646000Y-112622000D02*
X90646000Y-109882000D01*
X91416000Y-111252000D02*
X90646000Y-111252000D01*
X84106000Y-109882000D02*
X84106000Y-112622000D01*
X83336000Y-111252000D02*
X84106000Y-111252000D01*
X84106000Y-112622000D02*
X90646000Y-112622000D01*
X90646000Y-109882000D02*
X84106000Y-109882000D01*
%TO.C,RV5*%
X112522000Y-58240000D02*
X112522000Y-58590000D01*
X115272000Y-52690000D02*
X109772000Y-52690000D01*
X108772000Y-53690000D02*
X108772000Y-59690000D01*
X114272000Y-61690000D02*
X110772000Y-61690000D01*
X111522000Y-58440000D02*
X113522000Y-58440000D01*
X116272000Y-59690000D02*
X116272000Y-53690000D01*
X113522000Y-58440000D02*
G75*
G03*
X111522000Y-58440000I-1000000J0D01*
G01*
%TO.C,C10*%
X108858112Y-48054000D02*
X108858112Y-47268000D01*
X108698112Y-47881000D02*
X108698112Y-47268000D01*
X108898112Y-48092000D02*
X108898112Y-47268000D01*
X110099112Y-45188000D02*
X110099112Y-43717000D01*
X109178112Y-48323000D02*
X109178112Y-47268000D01*
X108738112Y-45188000D02*
X108738112Y-44529000D01*
X109458112Y-45188000D02*
X109458112Y-43960000D01*
X108978112Y-45188000D02*
X108978112Y-44291000D01*
X110499112Y-45188000D02*
X110499112Y-43655000D01*
X109898112Y-45188000D02*
X109898112Y-43773000D01*
X110539112Y-48804000D02*
X110539112Y-47268000D01*
X109938112Y-48696000D02*
X109938112Y-47268000D01*
X108978112Y-48165000D02*
X108978112Y-47268000D01*
X110139112Y-48748000D02*
X110139112Y-47268000D01*
X109498112Y-48518000D02*
X109498112Y-47268000D01*
X108298112Y-47239000D02*
X108298112Y-45217000D01*
X110619112Y-48807000D02*
X110619112Y-47268000D01*
X109298112Y-48403000D02*
X109298112Y-47268000D01*
X108898112Y-45188000D02*
X108898112Y-44364000D01*
X108498112Y-47611000D02*
X108498112Y-44845000D01*
X109218112Y-48350000D02*
X109218112Y-47268000D01*
X109858112Y-48670000D02*
X109858112Y-47268000D01*
X109578112Y-45188000D02*
X109578112Y-43899000D01*
X110419112Y-48793000D02*
X110419112Y-47268000D01*
X109498112Y-45188000D02*
X109498112Y-43938000D01*
X110459112Y-45188000D02*
X110459112Y-43659000D01*
X108818112Y-48013000D02*
X108818112Y-47268000D01*
X109778112Y-48642000D02*
X109778112Y-47268000D01*
X109578112Y-48557000D02*
X109578112Y-47268000D01*
X110259112Y-45188000D02*
X110259112Y-43685000D01*
X109338112Y-48428000D02*
X109338112Y-47268000D01*
X109058112Y-48232000D02*
X109058112Y-47268000D01*
X109978112Y-45188000D02*
X109978112Y-43748000D01*
X110339112Y-45188000D02*
X110339112Y-43672000D01*
X109898112Y-48683000D02*
X109898112Y-47268000D01*
X113503887Y-47703000D02*
X113003887Y-47703000D01*
X108418112Y-47479000D02*
X108418112Y-44977000D01*
X109338112Y-45188000D02*
X109338112Y-44028000D01*
X110219112Y-45188000D02*
X110219112Y-43692000D01*
X110179112Y-45188000D02*
X110179112Y-43700000D01*
X108618112Y-47782000D02*
X108618112Y-44674000D01*
X108538112Y-47671000D02*
X108538112Y-44785000D01*
X108698112Y-45188000D02*
X108698112Y-44575000D01*
X110419112Y-45188000D02*
X110419112Y-43663000D01*
X110259112Y-48771000D02*
X110259112Y-47268000D01*
X109138112Y-48293000D02*
X109138112Y-47268000D01*
X109258112Y-45188000D02*
X109258112Y-44079000D01*
X110219112Y-48764000D02*
X110219112Y-47268000D01*
X113253887Y-47953000D02*
X113253887Y-47453000D01*
X109538112Y-48538000D02*
X109538112Y-47268000D01*
X108338112Y-47326000D02*
X108338112Y-45130000D01*
X109778112Y-45188000D02*
X109778112Y-43814000D01*
X109658112Y-45188000D02*
X109658112Y-43863000D01*
X109738112Y-48626000D02*
X109738112Y-47268000D01*
X110019112Y-45188000D02*
X110019112Y-43737000D01*
X110139112Y-45188000D02*
X110139112Y-43708000D01*
X110699112Y-48808000D02*
X110699112Y-47268000D01*
X108258112Y-47143000D02*
X108258112Y-45313000D01*
X108458112Y-47547000D02*
X108458112Y-44909000D01*
X109698112Y-45188000D02*
X109698112Y-43846000D01*
X110699112Y-45188000D02*
X110699112Y-43648000D01*
X108578112Y-47728000D02*
X108578112Y-44728000D01*
X110299112Y-45188000D02*
X110299112Y-43678000D01*
X109538112Y-45188000D02*
X109538112Y-43918000D01*
X109218112Y-45188000D02*
X109218112Y-44106000D01*
X109018112Y-48199000D02*
X109018112Y-47268000D01*
X110499112Y-48801000D02*
X110499112Y-47268000D01*
X108778112Y-45188000D02*
X108778112Y-44485000D01*
X109378112Y-45188000D02*
X109378112Y-44004000D01*
X108818112Y-45188000D02*
X108818112Y-44443000D01*
X109418112Y-45188000D02*
X109418112Y-43981000D01*
X108738112Y-47927000D02*
X108738112Y-47268000D01*
X110059112Y-45188000D02*
X110059112Y-43727000D01*
X110659112Y-48808000D02*
X110659112Y-47268000D01*
X109138112Y-45188000D02*
X109138112Y-44163000D01*
X110459112Y-48797000D02*
X110459112Y-47268000D01*
X110619112Y-45188000D02*
X110619112Y-43649000D01*
X109618112Y-48576000D02*
X109618112Y-47268000D01*
X109658112Y-48593000D02*
X109658112Y-47268000D01*
X108378112Y-47406000D02*
X108378112Y-45050000D01*
X110179112Y-48756000D02*
X110179112Y-47268000D01*
X109258112Y-48377000D02*
X109258112Y-47268000D01*
X108938112Y-45188000D02*
X108938112Y-44327000D01*
X108098112Y-46512000D02*
X108098112Y-45944000D01*
X108218112Y-47033000D02*
X108218112Y-45423000D01*
X110299112Y-48778000D02*
X110299112Y-47268000D01*
X109618112Y-45188000D02*
X109618112Y-43880000D01*
X108858112Y-45188000D02*
X108858112Y-44402000D01*
X110379112Y-45188000D02*
X110379112Y-43667000D01*
X110059112Y-48729000D02*
X110059112Y-47268000D01*
X109098112Y-45188000D02*
X109098112Y-44193000D01*
X109458112Y-48496000D02*
X109458112Y-47268000D01*
X108178112Y-46905000D02*
X108178112Y-45551000D01*
X110379112Y-48789000D02*
X110379112Y-47268000D01*
X109738112Y-45188000D02*
X109738112Y-43830000D01*
X110579112Y-45188000D02*
X110579112Y-43650000D01*
X109378112Y-48452000D02*
X109378112Y-47268000D01*
X110579112Y-48806000D02*
X110579112Y-47268000D01*
X109818112Y-48656000D02*
X109818112Y-47268000D01*
X109298112Y-45188000D02*
X109298112Y-44053000D01*
X110659112Y-45188000D02*
X110659112Y-43648000D01*
X109098112Y-48263000D02*
X109098112Y-47268000D01*
X109858112Y-45188000D02*
X109858112Y-43786000D01*
X109418112Y-48475000D02*
X109418112Y-47268000D01*
X108658112Y-47833000D02*
X108658112Y-44623000D01*
X110339112Y-48784000D02*
X110339112Y-47268000D01*
X110539112Y-45188000D02*
X110539112Y-43652000D01*
X108138112Y-46746000D02*
X108138112Y-45710000D01*
X109058112Y-45188000D02*
X109058112Y-44224000D01*
X110019112Y-48719000D02*
X110019112Y-47268000D01*
X109698112Y-48610000D02*
X109698112Y-47268000D01*
X108938112Y-48129000D02*
X108938112Y-47268000D01*
X109178112Y-45188000D02*
X109178112Y-44133000D01*
X109978112Y-48708000D02*
X109978112Y-47268000D01*
X109818112Y-45188000D02*
X109818112Y-43800000D01*
X110099112Y-48739000D02*
X110099112Y-47268000D01*
X108778112Y-47971000D02*
X108778112Y-47268000D01*
X109018112Y-45188000D02*
X109018112Y-44257000D01*
X109938112Y-45188000D02*
X109938112Y-43760000D01*
X113319112Y-46228000D02*
G75*
G03*
X113319112Y-46228000I-2620000J0D01*
G01*
%TO.C,R19*%
X77116000Y-122714000D02*
X77116000Y-129254000D01*
X78486000Y-130024000D02*
X78486000Y-129254000D01*
X79856000Y-122714000D02*
X77116000Y-122714000D01*
X78486000Y-121944000D02*
X78486000Y-122714000D01*
X77116000Y-129254000D02*
X79856000Y-129254000D01*
X79856000Y-129254000D02*
X79856000Y-122714000D01*
%TO.C,D7*%
X103290000Y-83416000D02*
X107530000Y-83416000D01*
X107530000Y-81176000D02*
X103290000Y-81176000D01*
X102640000Y-82296000D02*
X103290000Y-82296000D01*
X103890000Y-81176000D02*
X103890000Y-83416000D01*
X108180000Y-82296000D02*
X107530000Y-82296000D01*
X104130000Y-81176000D02*
X104130000Y-83416000D01*
X103290000Y-81176000D02*
X103290000Y-83416000D01*
X107530000Y-83416000D02*
X107530000Y-81176000D01*
X104010000Y-81176000D02*
X104010000Y-83416000D01*
%TO.C,R24*%
X82704000Y-129254000D02*
X85444000Y-129254000D01*
X85444000Y-122714000D02*
X82704000Y-122714000D01*
X82704000Y-122714000D02*
X82704000Y-129254000D01*
X85444000Y-129254000D02*
X85444000Y-122714000D01*
X84074000Y-121944000D02*
X84074000Y-122714000D01*
X84074000Y-130024000D02*
X84074000Y-129254000D01*
%TO.C,R9*%
X87146000Y-59182000D02*
X87916000Y-59182000D01*
X87916000Y-57812000D02*
X87916000Y-60552000D01*
X94456000Y-60552000D02*
X94456000Y-57812000D01*
X94456000Y-57812000D02*
X87916000Y-57812000D01*
X95226000Y-59182000D02*
X94456000Y-59182000D01*
X87916000Y-60552000D02*
X94456000Y-60552000D01*
%TO.C,D4*%
X91196000Y-66144000D02*
X91196000Y-63904000D01*
X92686000Y-65024000D02*
X92036000Y-65024000D01*
X87796000Y-63904000D02*
X87796000Y-66144000D01*
X91436000Y-66144000D02*
X91436000Y-63904000D01*
X91316000Y-66144000D02*
X91316000Y-63904000D01*
X87796000Y-66144000D02*
X92036000Y-66144000D01*
X87146000Y-65024000D02*
X87796000Y-65024000D01*
X92036000Y-66144000D02*
X92036000Y-63904000D01*
X92036000Y-63904000D02*
X87796000Y-63904000D01*
%TO.C,C11*%
X88924000Y-93655113D02*
X90449000Y-93655113D01*
X85637000Y-92654113D02*
X86844000Y-92654113D01*
X88924000Y-93094113D02*
X90326000Y-93094113D01*
X88924000Y-92534113D02*
X90059000Y-92534113D01*
X85323000Y-93615113D02*
X86844000Y-93615113D01*
X88924000Y-92774113D02*
X90194000Y-92774113D01*
X86501000Y-91734113D02*
X89267000Y-91734113D01*
X88924000Y-92734113D02*
X90174000Y-92734113D01*
X88924000Y-92894113D02*
X90249000Y-92894113D01*
X88924000Y-93895113D02*
X90464000Y-93895113D01*
X88924000Y-93415113D02*
X90412000Y-93415113D01*
X86873000Y-91534113D02*
X88895000Y-91534113D01*
X87207000Y-91414113D02*
X88561000Y-91414113D01*
X88924000Y-91974113D02*
X89583000Y-91974113D01*
X88924000Y-92454113D02*
X90006000Y-92454113D01*
X88924000Y-93014113D02*
X90298000Y-93014113D01*
X85555000Y-92814113D02*
X86844000Y-92814113D01*
X88924000Y-92654113D02*
X90131000Y-92654113D01*
X88924000Y-93735113D02*
X90457000Y-93735113D01*
X88924000Y-93255113D02*
X90375000Y-93255113D01*
X88924000Y-92414113D02*
X89979000Y-92414113D01*
X85913000Y-92254113D02*
X86844000Y-92254113D01*
X88924000Y-92214113D02*
X89821000Y-92214113D01*
X85356000Y-93415113D02*
X86844000Y-93415113D01*
X85470000Y-93014113D02*
X86844000Y-93014113D01*
X88924000Y-92294113D02*
X89888000Y-92294113D01*
X86185000Y-91974113D02*
X86844000Y-91974113D01*
X85819000Y-92374113D02*
X86844000Y-92374113D01*
X87600000Y-91334113D02*
X88168000Y-91334113D01*
X86633000Y-91654113D02*
X89135000Y-91654113D01*
X88924000Y-92694113D02*
X90152000Y-92694113D01*
X88924000Y-92574113D02*
X90084000Y-92574113D01*
X87079000Y-91454113D02*
X88689000Y-91454113D01*
X85849000Y-92334113D02*
X86844000Y-92334113D01*
X86058000Y-92094113D02*
X86844000Y-92094113D01*
X86706000Y-91614113D02*
X89062000Y-91614113D01*
X88924000Y-93214113D02*
X90364000Y-93214113D01*
X88924000Y-93775113D02*
X90460000Y-93775113D01*
X85947000Y-92214113D02*
X86844000Y-92214113D01*
X85304000Y-93895113D02*
X86844000Y-93895113D01*
X85502000Y-92934113D02*
X86844000Y-92934113D01*
X85305000Y-93855113D02*
X86844000Y-93855113D01*
X88924000Y-93295113D02*
X90385000Y-93295113D01*
X88924000Y-92614113D02*
X90108000Y-92614113D01*
X85306000Y-93815113D02*
X86844000Y-93815113D01*
X85404000Y-93214113D02*
X86844000Y-93214113D01*
X85311000Y-93735113D02*
X86844000Y-93735113D01*
X85341000Y-93495113D02*
X86844000Y-93495113D01*
X88924000Y-92174113D02*
X89785000Y-92174113D01*
X88924000Y-92254113D02*
X89855000Y-92254113D01*
X88924000Y-93335113D02*
X90395000Y-93335113D01*
X88924000Y-92014113D02*
X89627000Y-92014113D01*
X88924000Y-93174113D02*
X90352000Y-93174113D01*
X88924000Y-93855113D02*
X90463000Y-93855113D01*
X88924000Y-92854113D02*
X90232000Y-92854113D01*
X85319000Y-93655113D02*
X86844000Y-93655113D01*
X85684000Y-92574113D02*
X86844000Y-92574113D01*
X85393000Y-93255113D02*
X86844000Y-93255113D01*
X85616000Y-92694113D02*
X86844000Y-92694113D01*
X85880000Y-92294113D02*
X86844000Y-92294113D01*
X88924000Y-92494113D02*
X90033000Y-92494113D01*
X86020000Y-92134113D02*
X86844000Y-92134113D01*
X85519000Y-92894113D02*
X86844000Y-92894113D01*
X85709000Y-92534113D02*
X86844000Y-92534113D01*
X85315000Y-93695113D02*
X86844000Y-93695113D01*
X88924000Y-92374113D02*
X89949000Y-92374113D01*
X88924000Y-93054113D02*
X90312000Y-93054113D01*
X86141000Y-92014113D02*
X86844000Y-92014113D01*
X87366000Y-91374113D02*
X88402000Y-91374113D01*
X88924000Y-93695113D02*
X90453000Y-93695113D01*
X85304000Y-93935113D02*
X86844000Y-93935113D01*
X88924000Y-93455113D02*
X90420000Y-93455113D01*
X88924000Y-93935113D02*
X90464000Y-93935113D01*
X85328000Y-93575113D02*
X86844000Y-93575113D01*
X85429000Y-93134113D02*
X86844000Y-93134113D01*
X85594000Y-92734113D02*
X86844000Y-92734113D01*
X85536000Y-92854113D02*
X86844000Y-92854113D01*
X86384000Y-91814113D02*
X89384000Y-91814113D01*
X85334000Y-93535113D02*
X86844000Y-93535113D01*
X88924000Y-92334113D02*
X89919000Y-92334113D01*
X86441000Y-91774113D02*
X89327000Y-91774113D01*
X86786000Y-91574113D02*
X88982000Y-91574113D01*
X88924000Y-93575113D02*
X90440000Y-93575113D01*
X85660000Y-92614113D02*
X86844000Y-92614113D01*
X86159000Y-96489888D02*
X86659000Y-96489888D01*
X88924000Y-93375113D02*
X90404000Y-93375113D01*
X85442000Y-93094113D02*
X86844000Y-93094113D01*
X85416000Y-93174113D02*
X86844000Y-93174113D01*
X85373000Y-93335113D02*
X86844000Y-93335113D01*
X85789000Y-92414113D02*
X86844000Y-92414113D01*
X85762000Y-92454113D02*
X86844000Y-92454113D01*
X88924000Y-93535113D02*
X90434000Y-93535113D01*
X88924000Y-92094113D02*
X89710000Y-92094113D01*
X88924000Y-92134113D02*
X89748000Y-92134113D01*
X88924000Y-93615113D02*
X90445000Y-93615113D01*
X85574000Y-92774113D02*
X86844000Y-92774113D01*
X88924000Y-93815113D02*
X90462000Y-93815113D01*
X86969000Y-91494113D02*
X88799000Y-91494113D01*
X86231000Y-91934113D02*
X86844000Y-91934113D01*
X85456000Y-93054113D02*
X86844000Y-93054113D01*
X86099000Y-92054113D02*
X86844000Y-92054113D01*
X85308000Y-93775113D02*
X86844000Y-93775113D01*
X88924000Y-92814113D02*
X90213000Y-92814113D01*
X88924000Y-92054113D02*
X89669000Y-92054113D01*
X85364000Y-93375113D02*
X86844000Y-93375113D01*
X88924000Y-92974113D02*
X90282000Y-92974113D01*
X86330000Y-91854113D02*
X89438000Y-91854113D01*
X85735000Y-92494113D02*
X86844000Y-92494113D01*
X88924000Y-93134113D02*
X90339000Y-93134113D01*
X88924000Y-92934113D02*
X90266000Y-92934113D01*
X85383000Y-93295113D02*
X86844000Y-93295113D01*
X86409000Y-96739888D02*
X86409000Y-96239888D01*
X86565000Y-91694113D02*
X89203000Y-91694113D01*
X85348000Y-93455113D02*
X86844000Y-93455113D01*
X88924000Y-91934113D02*
X89537000Y-91934113D01*
X85983000Y-92174113D02*
X86844000Y-92174113D01*
X88924000Y-93495113D02*
X90427000Y-93495113D01*
X85486000Y-92974113D02*
X86844000Y-92974113D01*
X86279000Y-91894113D02*
X89489000Y-91894113D01*
X90504000Y-93935113D02*
G75*
G03*
X90504000Y-93935113I-2620000J0D01*
G01*
%TO.C,D10*%
X87506000Y-118214000D02*
X87506000Y-115974000D01*
X83336000Y-117094000D02*
X83986000Y-117094000D01*
X87386000Y-118214000D02*
X87386000Y-115974000D01*
X88876000Y-117094000D02*
X88226000Y-117094000D01*
X87626000Y-118214000D02*
X87626000Y-115974000D01*
X83986000Y-118214000D02*
X88226000Y-118214000D01*
X88226000Y-115974000D02*
X83986000Y-115974000D01*
X83986000Y-115974000D02*
X83986000Y-118214000D01*
X88226000Y-118214000D02*
X88226000Y-115974000D01*
%TO.C,J17*%
X29016000Y-105410000D02*
X29016000Y-118170000D01*
X27686000Y-102810000D02*
X29016000Y-102810000D01*
X26356000Y-105410000D02*
X26356000Y-118170000D01*
X29016000Y-102810000D02*
X29016000Y-104140000D01*
X26356000Y-105410000D02*
X29016000Y-105410000D01*
X26356000Y-118170000D02*
X29016000Y-118170000D01*
%TO.C,JP2*%
X84014000Y-48962000D02*
X85344000Y-48962000D01*
X84014000Y-56702000D02*
X86674000Y-56702000D01*
X86674000Y-51562000D02*
X86674000Y-56702000D01*
X84014000Y-50292000D02*
X84014000Y-48962000D01*
X84014000Y-51562000D02*
X84014000Y-56702000D01*
X84014000Y-51562000D02*
X86674000Y-51562000D01*
%TO.C,RV4*%
X94012000Y-122868000D02*
X94012000Y-119368000D01*
X103012000Y-123868000D02*
X103012000Y-118368000D01*
X96012000Y-124868000D02*
X102012000Y-124868000D01*
X97462000Y-121118000D02*
X97112000Y-121118000D01*
X97262000Y-120118000D02*
X97262000Y-122118000D01*
X102012000Y-117368000D02*
X96012000Y-117368000D01*
X97262000Y-122118000D02*
G75*
G03*
X97262000Y-120118000I0J1000000D01*
G01*
%TO.C,R18*%
X80518000Y-47728000D02*
X80518000Y-46958000D01*
X80518000Y-39648000D02*
X80518000Y-40418000D01*
X79148000Y-40418000D02*
X79148000Y-46958000D01*
X81888000Y-40418000D02*
X79148000Y-40418000D01*
X81888000Y-46958000D02*
X81888000Y-40418000D01*
X79148000Y-46958000D02*
X81888000Y-46958000D01*
%TO.C,R7*%
X112998000Y-122836000D02*
X106458000Y-122836000D01*
X113768000Y-124206000D02*
X112998000Y-124206000D01*
X105688000Y-124206000D02*
X106458000Y-124206000D01*
X106458000Y-125576000D02*
X112998000Y-125576000D01*
X112998000Y-125576000D02*
X112998000Y-122836000D01*
X106458000Y-122836000D02*
X106458000Y-125576000D01*
%TO.C,U1*%
X110097000Y-84004000D02*
X92077000Y-84004000D01*
X92077000Y-84004000D02*
X92077000Y-94284000D01*
X92077000Y-94284000D02*
X110097000Y-94284000D01*
X92137000Y-90144000D02*
X92137000Y-91794000D01*
X110037000Y-91794000D02*
X110037000Y-86494000D01*
X92137000Y-91794000D02*
X110037000Y-91794000D01*
X110097000Y-94284000D02*
X110097000Y-84004000D01*
X92137000Y-86494000D02*
X92137000Y-88144000D01*
X110037000Y-86494000D02*
X92137000Y-86494000D01*
X92137000Y-90144000D02*
G75*
G03*
X92137000Y-88144000I0J1000000D01*
G01*
%TO.C,R3*%
X119734000Y-134842000D02*
X119734000Y-128302000D01*
X118364000Y-127532000D02*
X118364000Y-128302000D01*
X119734000Y-128302000D02*
X116994000Y-128302000D01*
X116994000Y-128302000D02*
X116994000Y-134842000D01*
X118364000Y-135612000D02*
X118364000Y-134842000D01*
X116994000Y-134842000D02*
X119734000Y-134842000D01*
%TO.C,R2*%
X118364000Y-142772000D02*
X118364000Y-143542000D01*
X116994000Y-143542000D02*
X116994000Y-150082000D01*
X118364000Y-150852000D02*
X118364000Y-150082000D01*
X116994000Y-150082000D02*
X119734000Y-150082000D01*
X119734000Y-150082000D02*
X119734000Y-143542000D01*
X119734000Y-143542000D02*
X116994000Y-143542000D01*
%TO.C,C5*%
X107926000Y-133052000D02*
X106430000Y-133052000D01*
X110144000Y-134893000D02*
X107788000Y-134893000D01*
X109881000Y-135013000D02*
X108051000Y-135013000D01*
X110349000Y-134773000D02*
X107583000Y-134773000D01*
X110409000Y-134733000D02*
X107523000Y-134733000D01*
X110285000Y-134813000D02*
X107647000Y-134813000D01*
X107926000Y-133613000D02*
X106601000Y-133613000D01*
X111001000Y-134173000D02*
X110006000Y-134173000D01*
X107926000Y-134213000D02*
X106962000Y-134213000D01*
X110867000Y-134333000D02*
X110006000Y-134333000D01*
X111380000Y-133493000D02*
X110006000Y-133493000D01*
X110792000Y-134413000D02*
X110006000Y-134413000D01*
X107926000Y-134053000D02*
X106844000Y-134053000D01*
X107926000Y-134453000D02*
X107181000Y-134453000D01*
X107926000Y-133773000D02*
X106676000Y-133773000D01*
X107926000Y-134413000D02*
X107140000Y-134413000D01*
X111190000Y-133893000D02*
X110006000Y-133893000D01*
X110217000Y-134853000D02*
X107715000Y-134853000D01*
X110830000Y-134373000D02*
X110006000Y-134373000D01*
X111295000Y-133693000D02*
X110006000Y-133693000D01*
X111509000Y-133012000D02*
X110006000Y-133012000D01*
X107926000Y-134573000D02*
X107313000Y-134573000D01*
X111502000Y-133052000D02*
X110006000Y-133052000D01*
X107926000Y-132692000D02*
X106388000Y-132692000D01*
X107926000Y-134133000D02*
X106901000Y-134133000D01*
X111364000Y-133533000D02*
X110006000Y-133533000D01*
X110691000Y-130017225D02*
X110191000Y-130017225D01*
X107926000Y-133573000D02*
X106584000Y-133573000D01*
X111486000Y-133132000D02*
X110006000Y-133132000D01*
X107926000Y-133132000D02*
X106446000Y-133132000D01*
X107926000Y-132972000D02*
X106416000Y-132972000D01*
X110466000Y-134693000D02*
X107466000Y-134693000D01*
X107926000Y-134013000D02*
X106817000Y-134013000D01*
X110937000Y-134253000D02*
X110006000Y-134253000D01*
X107926000Y-132812000D02*
X106397000Y-132812000D01*
X107926000Y-132852000D02*
X106401000Y-132852000D01*
X111527000Y-132892000D02*
X110006000Y-132892000D01*
X111539000Y-132772000D02*
X110006000Y-132772000D01*
X111348000Y-133573000D02*
X110006000Y-133573000D01*
X107926000Y-134253000D02*
X106995000Y-134253000D01*
X107926000Y-133212000D02*
X106465000Y-133212000D01*
X107926000Y-133533000D02*
X106568000Y-133533000D01*
X111061000Y-134093000D02*
X110006000Y-134093000D01*
X111141000Y-133973000D02*
X110006000Y-133973000D01*
X107926000Y-134173000D02*
X106931000Y-134173000D01*
X109250000Y-135173000D02*
X108682000Y-135173000D01*
X110571000Y-134613000D02*
X107361000Y-134613000D01*
X107926000Y-134493000D02*
X107223000Y-134493000D01*
X107926000Y-134533000D02*
X107267000Y-134533000D01*
X110619000Y-134573000D02*
X110006000Y-134573000D01*
X110064000Y-134933000D02*
X107868000Y-134933000D01*
X107926000Y-132892000D02*
X106405000Y-132892000D01*
X111546000Y-132572000D02*
X110006000Y-132572000D01*
X107926000Y-133973000D02*
X106791000Y-133973000D01*
X107926000Y-132612000D02*
X106386000Y-132612000D01*
X111408000Y-133413000D02*
X110006000Y-133413000D01*
X107926000Y-134293000D02*
X107029000Y-134293000D01*
X111546000Y-132612000D02*
X110006000Y-132612000D01*
X107926000Y-133373000D02*
X106511000Y-133373000D01*
X109484000Y-135133000D02*
X108448000Y-135133000D01*
X107926000Y-132932000D02*
X106410000Y-132932000D01*
X107926000Y-134373000D02*
X107102000Y-134373000D01*
X109977000Y-134973000D02*
X107955000Y-134973000D01*
X111535000Y-132812000D02*
X110006000Y-132812000D01*
X111421000Y-133373000D02*
X110006000Y-133373000D01*
X111545000Y-132652000D02*
X110006000Y-132652000D01*
X111542000Y-132732000D02*
X110006000Y-132732000D01*
X107926000Y-133333000D02*
X106498000Y-133333000D01*
X111522000Y-132932000D02*
X110006000Y-132932000D01*
X111516000Y-132972000D02*
X110006000Y-132972000D01*
X107926000Y-133653000D02*
X106618000Y-133653000D01*
X107926000Y-134093000D02*
X106871000Y-134093000D01*
X110751000Y-134453000D02*
X110006000Y-134453000D01*
X107926000Y-133453000D02*
X106538000Y-133453000D01*
X109643000Y-135093000D02*
X108289000Y-135093000D01*
X107926000Y-133813000D02*
X106698000Y-133813000D01*
X111477000Y-133172000D02*
X110006000Y-133172000D01*
X110665000Y-134533000D02*
X110006000Y-134533000D01*
X107926000Y-133252000D02*
X106475000Y-133252000D01*
X107926000Y-133012000D02*
X106423000Y-133012000D01*
X107926000Y-133733000D02*
X106656000Y-133733000D01*
X107926000Y-132732000D02*
X106390000Y-132732000D01*
X107926000Y-132652000D02*
X106387000Y-132652000D01*
X110441000Y-129767225D02*
X110441000Y-130267225D01*
X107926000Y-134333000D02*
X107065000Y-134333000D01*
X107926000Y-133293000D02*
X106486000Y-133293000D01*
X111394000Y-133453000D02*
X110006000Y-133453000D01*
X111544000Y-132692000D02*
X110006000Y-132692000D01*
X111031000Y-134133000D02*
X110006000Y-134133000D01*
X111256000Y-133773000D02*
X110006000Y-133773000D01*
X111531000Y-132852000D02*
X110006000Y-132852000D01*
X107926000Y-133853000D02*
X106719000Y-133853000D01*
X111213000Y-133853000D02*
X110006000Y-133853000D01*
X110709000Y-134493000D02*
X110006000Y-134493000D01*
X107926000Y-132572000D02*
X106386000Y-132572000D01*
X111314000Y-133653000D02*
X110006000Y-133653000D01*
X107926000Y-132772000D02*
X106393000Y-132772000D01*
X111494000Y-133092000D02*
X110006000Y-133092000D01*
X111457000Y-133252000D02*
X110006000Y-133252000D01*
X111331000Y-133613000D02*
X110006000Y-133613000D01*
X107926000Y-133933000D02*
X106766000Y-133933000D01*
X111434000Y-133333000D02*
X110006000Y-133333000D01*
X107926000Y-133092000D02*
X106438000Y-133092000D01*
X111115000Y-134013000D02*
X110006000Y-134013000D01*
X107926000Y-133493000D02*
X106552000Y-133493000D01*
X107926000Y-133172000D02*
X106455000Y-133172000D01*
X107926000Y-133693000D02*
X106637000Y-133693000D01*
X111166000Y-133933000D02*
X110006000Y-133933000D01*
X110520000Y-134653000D02*
X107412000Y-134653000D01*
X107926000Y-133413000D02*
X106524000Y-133413000D01*
X110903000Y-134293000D02*
X110006000Y-134293000D01*
X111446000Y-133293000D02*
X110006000Y-133293000D01*
X111234000Y-133813000D02*
X110006000Y-133813000D01*
X111467000Y-133212000D02*
X110006000Y-133212000D01*
X110970000Y-134213000D02*
X110006000Y-134213000D01*
X111088000Y-134053000D02*
X110006000Y-134053000D01*
X109771000Y-135053000D02*
X108161000Y-135053000D01*
X111276000Y-133733000D02*
X110006000Y-133733000D01*
X107926000Y-133893000D02*
X106742000Y-133893000D01*
X111586000Y-132572000D02*
G75*
G03*
X111586000Y-132572000I-2620000J0D01*
G01*
%TO.C,D1*%
X96002000Y-135278000D02*
X96002000Y-137518000D01*
X99402000Y-137518000D02*
X99402000Y-135278000D01*
X95162000Y-137518000D02*
X99402000Y-137518000D01*
X99402000Y-135278000D02*
X95162000Y-135278000D01*
X95882000Y-135278000D02*
X95882000Y-137518000D01*
X95762000Y-135278000D02*
X95762000Y-137518000D01*
X95162000Y-135278000D02*
X95162000Y-137518000D01*
X100052000Y-136398000D02*
X99402000Y-136398000D01*
X94512000Y-136398000D02*
X95162000Y-136398000D01*
%TO.C,R14*%
X108358000Y-74644000D02*
X111098000Y-74644000D01*
X109728000Y-75414000D02*
X109728000Y-74644000D01*
X111098000Y-68104000D02*
X108358000Y-68104000D01*
X109728000Y-67334000D02*
X109728000Y-68104000D01*
X111098000Y-74644000D02*
X111098000Y-68104000D01*
X108358000Y-68104000D02*
X108358000Y-74644000D01*
%TO.C,C8*%
X90770000Y-81938000D02*
X90770000Y-89178000D01*
X90770000Y-89178000D02*
X87030000Y-89178000D01*
X87030000Y-81938000D02*
X87030000Y-89178000D01*
X90770000Y-81938000D02*
X87030000Y-81938000D01*
%TO.C,C7*%
X90332000Y-105688000D02*
X90332000Y-98448000D01*
X94072000Y-105688000D02*
X94072000Y-98448000D01*
X90332000Y-105688000D02*
X94072000Y-105688000D01*
X90332000Y-98448000D02*
X94072000Y-98448000D01*
%TO.C,R25*%
X102516000Y-101378000D02*
X102516000Y-107918000D01*
X105256000Y-101378000D02*
X102516000Y-101378000D01*
X103886000Y-108688000D02*
X103886000Y-107918000D01*
X105256000Y-107918000D02*
X105256000Y-101378000D01*
X103886000Y-100608000D02*
X103886000Y-101378000D01*
X102516000Y-107918000D02*
X105256000Y-107918000D01*
%TO.C,JP1*%
X115630000Y-130242000D02*
X112970000Y-130242000D01*
X115630000Y-135382000D02*
X115630000Y-130242000D01*
X115630000Y-137982000D02*
X114300000Y-137982000D01*
X112970000Y-135382000D02*
X112970000Y-130242000D01*
X115630000Y-136652000D02*
X115630000Y-137982000D01*
X115630000Y-135382000D02*
X112970000Y-135382000D01*
%TO.C,R12*%
X100870000Y-80618000D02*
X107410000Y-80618000D01*
X100870000Y-77878000D02*
X100870000Y-80618000D01*
X100100000Y-79248000D02*
X100870000Y-79248000D01*
X108180000Y-79248000D02*
X107410000Y-79248000D01*
X107410000Y-77878000D02*
X100870000Y-77878000D01*
X107410000Y-80618000D02*
X107410000Y-77878000D01*
%TO.C,J9*%
X70044000Y-140462000D02*
X70044000Y-127702000D01*
X71374000Y-143062000D02*
X70044000Y-143062000D01*
X72704000Y-140462000D02*
X72704000Y-127702000D01*
X70044000Y-143062000D02*
X70044000Y-141732000D01*
X72704000Y-140462000D02*
X70044000Y-140462000D01*
X72704000Y-127702000D02*
X70044000Y-127702000D01*
%TO.C,D12*%
X102212000Y-101258000D02*
X99972000Y-101258000D01*
X101092000Y-106148000D02*
X101092000Y-105498000D01*
X102212000Y-101858000D02*
X99972000Y-101858000D01*
X99972000Y-101258000D02*
X99972000Y-105498000D01*
X102212000Y-102098000D02*
X99972000Y-102098000D01*
X102212000Y-105498000D02*
X102212000Y-101258000D01*
X102212000Y-101978000D02*
X99972000Y-101978000D01*
X101092000Y-100608000D02*
X101092000Y-101258000D01*
X99972000Y-105498000D02*
X102212000Y-105498000D01*
%TO.C,D5*%
X113768000Y-121412000D02*
X113118000Y-121412000D01*
X108878000Y-120292000D02*
X108878000Y-122532000D01*
X113118000Y-122532000D02*
X113118000Y-120292000D01*
X108228000Y-121412000D02*
X108878000Y-121412000D01*
X112398000Y-122532000D02*
X112398000Y-120292000D01*
X112278000Y-122532000D02*
X112278000Y-120292000D01*
X112518000Y-122532000D02*
X112518000Y-120292000D01*
X113118000Y-120292000D02*
X108878000Y-120292000D01*
X108878000Y-122532000D02*
X113118000Y-122532000D01*
%TO.C,R5*%
X81280000Y-70890000D02*
X81280000Y-71660000D01*
X82650000Y-71660000D02*
X79910000Y-71660000D01*
X81280000Y-78970000D02*
X81280000Y-78200000D01*
X79910000Y-78200000D02*
X82650000Y-78200000D01*
X82650000Y-78200000D02*
X82650000Y-71660000D01*
X79910000Y-71660000D02*
X79910000Y-78200000D01*
%TO.C,C6*%
X89854000Y-52722113D02*
X91162000Y-52722113D01*
X93242000Y-52922113D02*
X94630000Y-52922113D01*
X89747000Y-53002113D02*
X91162000Y-53002113D01*
X93242000Y-51882113D02*
X93945000Y-51882113D01*
X89734000Y-53042113D02*
X91162000Y-53042113D01*
X89623000Y-53723113D02*
X91162000Y-53723113D01*
X89622000Y-53763113D02*
X91162000Y-53763113D01*
X90231000Y-52122113D02*
X91162000Y-52122113D01*
X90376000Y-51962113D02*
X91162000Y-51962113D01*
X89873000Y-52682113D02*
X91162000Y-52682113D01*
X89624000Y-53683113D02*
X91162000Y-53683113D01*
X93242000Y-52402113D02*
X94377000Y-52402113D01*
X93242000Y-53042113D02*
X94670000Y-53042113D01*
X93242000Y-53723113D02*
X94781000Y-53723113D01*
X89666000Y-53323113D02*
X91162000Y-53323113D01*
X90107000Y-52282113D02*
X91162000Y-52282113D01*
X93242000Y-53483113D02*
X94763000Y-53483113D01*
X93242000Y-52322113D02*
X94324000Y-52322113D01*
X93242000Y-52722113D02*
X94550000Y-52722113D01*
X89722000Y-53082113D02*
X91162000Y-53082113D01*
X93242000Y-53523113D02*
X94767000Y-53523113D01*
X90027000Y-52402113D02*
X91162000Y-52402113D01*
X93242000Y-52802113D02*
X94584000Y-52802113D01*
X90459000Y-51882113D02*
X91162000Y-51882113D01*
X93242000Y-52242113D02*
X94267000Y-52242113D01*
X93242000Y-52842113D02*
X94600000Y-52842113D01*
X90819000Y-51602113D02*
X93585000Y-51602113D01*
X93242000Y-51802113D02*
X93855000Y-51802113D01*
X90198000Y-52162113D02*
X91162000Y-52162113D01*
X93242000Y-53643113D02*
X94778000Y-53643113D01*
X90727000Y-56607888D02*
X90727000Y-56107888D01*
X90702000Y-51682113D02*
X93702000Y-51682113D01*
X93242000Y-52162113D02*
X94206000Y-52162113D01*
X90883000Y-51562113D02*
X93521000Y-51562113D01*
X89674000Y-53283113D02*
X91162000Y-53283113D01*
X93242000Y-52642113D02*
X94512000Y-52642113D01*
X93242000Y-52042113D02*
X94103000Y-52042113D01*
X90417000Y-51922113D02*
X91162000Y-51922113D01*
X90951000Y-51522113D02*
X93453000Y-51522113D01*
X93242000Y-53082113D02*
X94682000Y-53082113D01*
X90549000Y-51802113D02*
X91162000Y-51802113D01*
X91918000Y-51202113D02*
X92486000Y-51202113D01*
X90648000Y-51722113D02*
X93756000Y-51722113D01*
X93242000Y-52682113D02*
X94531000Y-52682113D01*
X91191000Y-51402113D02*
X93213000Y-51402113D01*
X90002000Y-52442113D02*
X91162000Y-52442113D01*
X93242000Y-53283113D02*
X94730000Y-53283113D01*
X89629000Y-53603113D02*
X91162000Y-53603113D01*
X93242000Y-51922113D02*
X93987000Y-51922113D01*
X93242000Y-53163113D02*
X94703000Y-53163113D01*
X93242000Y-53002113D02*
X94657000Y-53002113D01*
X89837000Y-52762113D02*
X91162000Y-52762113D01*
X89633000Y-53563113D02*
X91162000Y-53563113D01*
X91397000Y-51322113D02*
X93007000Y-51322113D01*
X89691000Y-53203113D02*
X91162000Y-53203113D01*
X89820000Y-52802113D02*
X91162000Y-52802113D01*
X91024000Y-51482113D02*
X93380000Y-51482113D01*
X93242000Y-51962113D02*
X94028000Y-51962113D01*
X89637000Y-53523113D02*
X91162000Y-53523113D01*
X89788000Y-52882113D02*
X91162000Y-52882113D01*
X91684000Y-51242113D02*
X92720000Y-51242113D01*
X89646000Y-53443113D02*
X91162000Y-53443113D01*
X90265000Y-52082113D02*
X91162000Y-52082113D01*
X93242000Y-53803113D02*
X94782000Y-53803113D01*
X91287000Y-51362113D02*
X93117000Y-51362113D01*
X89804000Y-52842113D02*
X91162000Y-52842113D01*
X93242000Y-53763113D02*
X94782000Y-53763113D01*
X93242000Y-53123113D02*
X94693000Y-53123113D01*
X89626000Y-53643113D02*
X91162000Y-53643113D01*
X93242000Y-51842113D02*
X93901000Y-51842113D01*
X93242000Y-53243113D02*
X94722000Y-53243113D01*
X89701000Y-53163113D02*
X91162000Y-53163113D01*
X93242000Y-52882113D02*
X94616000Y-52882113D01*
X91525000Y-51282113D02*
X92879000Y-51282113D01*
X93242000Y-53403113D02*
X94752000Y-53403113D01*
X93242000Y-52762113D02*
X94567000Y-52762113D01*
X93242000Y-52002113D02*
X94066000Y-52002113D01*
X93242000Y-53683113D02*
X94780000Y-53683113D01*
X93242000Y-52202113D02*
X94237000Y-52202113D01*
X89659000Y-53363113D02*
X91162000Y-53363113D01*
X93242000Y-53203113D02*
X94713000Y-53203113D01*
X90503000Y-51842113D02*
X91162000Y-51842113D01*
X93242000Y-52962113D02*
X94644000Y-52962113D01*
X89912000Y-52602113D02*
X91162000Y-52602113D01*
X89892000Y-52642113D02*
X91162000Y-52642113D01*
X90759000Y-51642113D02*
X93645000Y-51642113D01*
X89652000Y-53403113D02*
X91162000Y-53403113D01*
X90167000Y-52202113D02*
X91162000Y-52202113D01*
X90053000Y-52362113D02*
X91162000Y-52362113D01*
X93242000Y-53323113D02*
X94738000Y-53323113D01*
X90597000Y-51762113D02*
X93807000Y-51762113D01*
X93242000Y-52482113D02*
X94426000Y-52482113D01*
X93242000Y-52442113D02*
X94402000Y-52442113D01*
X93242000Y-52282113D02*
X94297000Y-52282113D01*
X90137000Y-52242113D02*
X91162000Y-52242113D01*
X93242000Y-52362113D02*
X94351000Y-52362113D01*
X93242000Y-53603113D02*
X94775000Y-53603113D01*
X93242000Y-52522113D02*
X94449000Y-52522113D01*
X90338000Y-52002113D02*
X91162000Y-52002113D01*
X89955000Y-52522113D02*
X91162000Y-52522113D01*
X89774000Y-52922113D02*
X91162000Y-52922113D01*
X90301000Y-52042113D02*
X91162000Y-52042113D01*
X93242000Y-52082113D02*
X94139000Y-52082113D01*
X89934000Y-52562113D02*
X91162000Y-52562113D01*
X89978000Y-52482113D02*
X91162000Y-52482113D01*
X89622000Y-53803113D02*
X91162000Y-53803113D01*
X93242000Y-53563113D02*
X94771000Y-53563113D01*
X89760000Y-52962113D02*
X91162000Y-52962113D01*
X93242000Y-53443113D02*
X94758000Y-53443113D01*
X93242000Y-52602113D02*
X94492000Y-52602113D01*
X93242000Y-52122113D02*
X94173000Y-52122113D01*
X93242000Y-52562113D02*
X94470000Y-52562113D01*
X89711000Y-53123113D02*
X91162000Y-53123113D01*
X91104000Y-51442113D02*
X93300000Y-51442113D01*
X89682000Y-53243113D02*
X91162000Y-53243113D01*
X89641000Y-53483113D02*
X91162000Y-53483113D01*
X90477000Y-56357888D02*
X90977000Y-56357888D01*
X93242000Y-53363113D02*
X94745000Y-53363113D01*
X90080000Y-52322113D02*
X91162000Y-52322113D01*
X94822000Y-53803113D02*
G75*
G03*
X94822000Y-53803113I-2620000J0D01*
G01*
%TO.C,C2*%
X103470000Y-70080000D02*
X103470000Y-77320000D01*
X99730000Y-70080000D02*
X99730000Y-77320000D01*
X103470000Y-77320000D02*
X99730000Y-77320000D01*
X103470000Y-70080000D02*
X99730000Y-70080000D01*
%TO.C,R20*%
X90646000Y-115670000D02*
X90646000Y-112930000D01*
X84106000Y-112930000D02*
X84106000Y-115670000D01*
X83336000Y-114300000D02*
X84106000Y-114300000D01*
X84106000Y-115670000D02*
X90646000Y-115670000D01*
X90646000Y-112930000D02*
X84106000Y-112930000D01*
X91416000Y-114300000D02*
X90646000Y-114300000D01*
%TO.C,D11*%
X99672000Y-101258000D02*
X97432000Y-101258000D01*
X99672000Y-105498000D02*
X99672000Y-101258000D01*
X99672000Y-102098000D02*
X97432000Y-102098000D01*
X98552000Y-106148000D02*
X98552000Y-105498000D01*
X98552000Y-100608000D02*
X98552000Y-101258000D01*
X99672000Y-101858000D02*
X97432000Y-101858000D01*
X97432000Y-105498000D02*
X99672000Y-105498000D01*
X97432000Y-101258000D02*
X97432000Y-105498000D01*
X99672000Y-101978000D02*
X97432000Y-101978000D01*
%TO.C,R6*%
X87916000Y-60860000D02*
X87916000Y-63600000D01*
X94456000Y-63600000D02*
X94456000Y-60860000D01*
X95226000Y-62230000D02*
X94456000Y-62230000D01*
X87916000Y-63600000D02*
X94456000Y-63600000D01*
X87146000Y-62230000D02*
X87916000Y-62230000D01*
X94456000Y-60860000D02*
X87916000Y-60860000D01*
%TO.C,D9*%
X80160000Y-126234000D02*
X82400000Y-126234000D01*
X81280000Y-127484000D02*
X81280000Y-126834000D01*
X80160000Y-126834000D02*
X82400000Y-126834000D01*
X80160000Y-126114000D02*
X82400000Y-126114000D01*
X80160000Y-125994000D02*
X82400000Y-125994000D01*
X80160000Y-122594000D02*
X80160000Y-126834000D01*
X81280000Y-121944000D02*
X81280000Y-122594000D01*
X82400000Y-126834000D02*
X82400000Y-122594000D01*
X82400000Y-122594000D02*
X80160000Y-122594000D01*
%TD*%
M02*
