%TF.GenerationSoftware,KiCad,Pcbnew,(6.0.6-0)*%
%TF.CreationDate,2022-09-02T19:29:28+01:00*%
%TF.ProjectId,4u-simple-integrator-frontpanel,34752d73-696d-4706-9c65-2d696e746567,r01*%
%TF.SameCoordinates,Original*%
%TF.FileFunction,Profile,NP*%
%FSLAX46Y46*%
G04 Gerber Fmt 4.6, Leading zero omitted, Abs format (unit mm)*
G04 Created by KiCad (PCBNEW (6.0.6-0)) date 2022-09-02 19:29:28*
%MOMM*%
%LPD*%
G01*
G04 APERTURE LIST*
%TA.AperFunction,Profile*%
%ADD10C,0.100000*%
%TD*%
G04 APERTURE END LIST*
D10*
%TO.C,Ref\u002A\u002A*%
X88158890Y-101192952D02*
X87889290Y-101489252D01*
X88609190Y-58471352D02*
X88785490Y-58835152D01*
X88926390Y-61682752D02*
X88785490Y-62064652D01*
X83335290Y-140485052D02*
X82971590Y-140309052D01*
X84114990Y-132570052D02*
X84526590Y-132506052D01*
X82971590Y-140309052D02*
X82628090Y-140100052D01*
X80806780Y-136227052D02*
X80870360Y-135815052D01*
X87596590Y-76853552D02*
X87839290Y-77120352D01*
X83335290Y-178585052D02*
X82971590Y-178409052D01*
X80870360Y-99384952D02*
X80806780Y-98973252D01*
X80785110Y-98549952D02*
X80785110Y-98549952D01*
X87889290Y-133710052D02*
X88158890Y-134007052D01*
X83168590Y-152405052D02*
X83496090Y-152247052D01*
X81290890Y-43378452D02*
X81114570Y-43014652D01*
X86928390Y-121259052D02*
X86564690Y-121435052D01*
X81496620Y-80953652D02*
X81369750Y-80609852D01*
X88158890Y-177393052D02*
X87889290Y-177689052D01*
X89114990Y-174750052D02*
X89093290Y-175173052D01*
X86403890Y-82953252D02*
X86059990Y-83080052D01*
X85373190Y-94406552D02*
X85784890Y-94470052D01*
X86731390Y-82794452D02*
X86403890Y-82953252D01*
X81114570Y-135035052D02*
X81290890Y-134671052D01*
X81219490Y-79881052D02*
X81199970Y-79499952D01*
X82971590Y-56790652D02*
X83335290Y-56614352D01*
X83839990Y-152120052D02*
X84198190Y-152027052D01*
X81500470Y-138972052D02*
X81290890Y-138628052D01*
X87839290Y-77120352D02*
X88055990Y-77409352D01*
X72535816Y-19021201D02*
X72597079Y-18947108D01*
X80785110Y-41399952D02*
X80785110Y-41399952D01*
X83717190Y-94573452D02*
X84114990Y-94470052D01*
X86928390Y-37740652D02*
X87271890Y-37950252D01*
X89029690Y-116764952D02*
X89093290Y-117176552D01*
X88680590Y-156081052D02*
X88623390Y-156452052D01*
X81500470Y-177072052D02*
X81290890Y-176728052D01*
X81290890Y-96571352D02*
X81500470Y-96227952D01*
X80870360Y-116764952D02*
X80973670Y-116367052D01*
X86059990Y-75919752D02*
X86403890Y-76046652D01*
X82971590Y-37740652D02*
X83335290Y-37564352D01*
X84949890Y-121765052D02*
X84526590Y-121743052D01*
X84114990Y-140730052D02*
X83717190Y-140626052D01*
X82307090Y-114390952D02*
X82628090Y-114150252D01*
X83335290Y-45235552D02*
X82971590Y-45059152D01*
X81496620Y-154246052D02*
X81655370Y-153919052D01*
X88785490Y-135035052D02*
X88926390Y-135417052D01*
X97228690Y-193714052D02*
X97143790Y-193760052D01*
X88158890Y-38756952D02*
X88399590Y-39077952D01*
X87271890Y-121050052D02*
X86928390Y-121259052D01*
X81741150Y-101192952D02*
X81500470Y-100871852D01*
X83717190Y-121576052D02*
X83335290Y-121435052D01*
X81496620Y-78046152D02*
X81655370Y-77718652D01*
X80806780Y-98973252D02*
X80785110Y-98549952D01*
X86182790Y-132673052D02*
X86564690Y-132814052D01*
X82859390Y-76394052D02*
X83168590Y-76205352D01*
X80973670Y-97317052D02*
X81114570Y-96935152D01*
X89029690Y-42234952D02*
X88926390Y-42632752D01*
X83717190Y-178726052D02*
X83335290Y-178585052D01*
X87596590Y-82146352D02*
X87329690Y-82389052D01*
X83335290Y-56614352D02*
X83717190Y-56473452D01*
X88399590Y-177072052D02*
X88158890Y-177393052D01*
X87889290Y-177689052D02*
X87592890Y-177959052D01*
X82060770Y-81879452D02*
X81844070Y-81590452D01*
X84568790Y-159430052D02*
X84198190Y-159373052D01*
X87839290Y-158079052D02*
X87596590Y-158346052D01*
X83335290Y-37564352D02*
X83717190Y-37423452D01*
X86564690Y-45235552D02*
X86182790Y-45376452D01*
X82628090Y-121050052D02*
X82307090Y-120809052D01*
X83839990Y-159280052D02*
X83496090Y-159153052D01*
X85373190Y-56306552D02*
X85784890Y-56370052D01*
X81741150Y-38756952D02*
X82010760Y-38460552D01*
X81500470Y-134328052D02*
X81741150Y-134007052D01*
X80806780Y-118023252D02*
X80785110Y-117599952D01*
X88158890Y-57806952D02*
X88399590Y-58127952D01*
X82971590Y-132991052D02*
X83335290Y-132814052D01*
X87271890Y-133200052D02*
X87592890Y-133441052D01*
X85784890Y-37320052D02*
X86182790Y-37423452D01*
X80806780Y-117176552D02*
X80870360Y-116764952D01*
X81369750Y-154590052D02*
X81496620Y-154246052D01*
X81219490Y-155319052D02*
X81276730Y-154948052D01*
X85331090Y-151969052D02*
X85701790Y-152027052D01*
X82010760Y-95610552D02*
X82307090Y-95340952D01*
X84526590Y-121743052D02*
X84114990Y-121680052D01*
X82307090Y-57240952D02*
X82628090Y-57000252D01*
X83717190Y-140626052D02*
X83335290Y-140485052D01*
X97410390Y-19106065D02*
X97439690Y-19199623D01*
X80870360Y-61284952D02*
X80806780Y-60873252D01*
X82971590Y-94890652D02*
X83335290Y-94714352D01*
X84198190Y-159373052D02*
X83839990Y-159280052D01*
X82307090Y-139859052D02*
X82010760Y-139589052D01*
X96950090Y-193800052D02*
X72950000Y-193800052D01*
X84949890Y-151950052D02*
X85331090Y-151969052D01*
X86564690Y-37564352D02*
X86928390Y-37740652D01*
X81741150Y-177393052D02*
X81500470Y-177072052D01*
X87889290Y-120539052D02*
X87592890Y-120809052D01*
X88609190Y-138628052D02*
X88399590Y-138972052D01*
X83335290Y-113764352D02*
X83717190Y-113623452D01*
X81500470Y-172428052D02*
X81741150Y-172107052D01*
X88926390Y-175983052D02*
X88785490Y-176365052D01*
X80870360Y-59614952D02*
X80973670Y-59217052D01*
X80973670Y-135417052D02*
X81114570Y-135035052D01*
X89029690Y-175585052D02*
X88926390Y-175983052D01*
X89093290Y-41823252D02*
X89029690Y-42234952D01*
X81500470Y-119922052D02*
X81290890Y-119578052D01*
X80806780Y-98126552D02*
X80870360Y-97714952D01*
X81369750Y-80609852D02*
X81276730Y-80251652D01*
X88055990Y-153609052D02*
X88244690Y-153919052D01*
X81741150Y-95906952D02*
X82010760Y-95610552D01*
X88399590Y-100871852D02*
X88158890Y-101192952D01*
X81290890Y-39421452D02*
X81500470Y-39077952D01*
X88785490Y-96935152D02*
X88926390Y-97317052D01*
X82859390Y-82605752D02*
X82570390Y-82389052D01*
X83717190Y-64426452D02*
X83335290Y-64285552D01*
X88680590Y-155319052D02*
X88700090Y-155700052D01*
X84949890Y-64614952D02*
X84526590Y-64593352D01*
X80806780Y-60873252D02*
X80785110Y-60449952D01*
X89093290Y-60026552D02*
X89114990Y-60449952D01*
X84114990Y-94470052D02*
X84526590Y-94406552D01*
X81741150Y-172107052D02*
X82010760Y-171810052D01*
X81844070Y-77409352D02*
X82060770Y-77120352D01*
X86928390Y-113940652D02*
X87271890Y-114150252D01*
X81276730Y-154948052D02*
X81369750Y-154590052D01*
X84949890Y-159450052D02*
X84568790Y-159430052D01*
X88623390Y-78748152D02*
X88680590Y-79118752D01*
X83335290Y-94714352D02*
X83717190Y-94573452D01*
X85373190Y-113456552D02*
X85784890Y-113520052D01*
X86928390Y-171091052D02*
X87271890Y-171300052D01*
X89029690Y-173915052D02*
X89093290Y-174327052D01*
X86182790Y-64426452D02*
X85784890Y-64529752D01*
X89114990Y-117599952D02*
X89093290Y-118023252D01*
X87889290Y-95610552D02*
X88158890Y-95906952D01*
X88158890Y-63092952D02*
X87889290Y-63389352D01*
X87889290Y-171810052D02*
X88158890Y-172107052D01*
X82010760Y-63389352D02*
X81741150Y-63092952D01*
X87271890Y-44849652D02*
X86928390Y-45059152D01*
X86731390Y-76205352D02*
X87040590Y-76394052D01*
X81741150Y-134007052D02*
X82010760Y-133710052D01*
X86182790Y-37423452D02*
X86564690Y-37564352D01*
X84114990Y-178830052D02*
X83717190Y-178726052D01*
X88399590Y-39077952D02*
X88609190Y-39421452D01*
X81500470Y-58127952D02*
X81741150Y-57806952D01*
X83717190Y-45376452D02*
X83335290Y-45235552D01*
X86928390Y-56790652D02*
X87271890Y-57000252D01*
X97228690Y-18885865D02*
X97302790Y-18947108D01*
X80973670Y-59217052D02*
X81114570Y-58835152D01*
X81114570Y-173135052D02*
X81290890Y-172771052D01*
X82971590Y-102209152D02*
X82628090Y-101999652D01*
X86564690Y-140485052D02*
X86182790Y-140626052D01*
X84949890Y-170585052D02*
X85373190Y-170606052D01*
X88530290Y-154590052D02*
X88623390Y-154948052D01*
X81219490Y-79118752D02*
X81276730Y-78748152D01*
X82628090Y-57000252D02*
X82971590Y-56790652D01*
X96950090Y-18800000D02*
X96950090Y-18800000D01*
X82010760Y-114660552D02*
X82307090Y-114390952D01*
X72849738Y-18810233D02*
X72950000Y-18800000D01*
X81199970Y-79499952D02*
X81219490Y-79118752D01*
X83335290Y-64285552D02*
X82971590Y-64109152D01*
X82628090Y-178200052D02*
X82307090Y-177959052D01*
X88530290Y-156810052D02*
X88403490Y-157154052D01*
X88399590Y-134328052D02*
X88609190Y-134671052D01*
X96950090Y-18800000D02*
X97050290Y-18810233D01*
X81114570Y-176365052D02*
X80973670Y-175983052D01*
X80785110Y-98549952D02*
X80806780Y-98126552D01*
X83168590Y-158994052D02*
X82859390Y-158806052D01*
X84568790Y-75769452D02*
X84949890Y-75749952D01*
X88680590Y-79118752D02*
X88700090Y-79499952D01*
X84949890Y-102714952D02*
X84526590Y-102693352D01*
X89114990Y-60449952D02*
X89093290Y-60873252D01*
X88623390Y-156452052D02*
X88530290Y-156810052D01*
X87596590Y-153053052D02*
X87839290Y-153320052D01*
X82570390Y-82389052D02*
X82303490Y-82146352D01*
X89093290Y-137073052D02*
X89029690Y-137485052D01*
X84526590Y-94406552D02*
X84949890Y-94384852D01*
X84114990Y-45479752D02*
X83717190Y-45376452D01*
X81219490Y-156081052D02*
X81199970Y-155700052D01*
X82628090Y-171300052D02*
X82971590Y-171091052D01*
X82628090Y-37950252D02*
X82971590Y-37740652D01*
X89093290Y-174327052D02*
X89114990Y-174750052D01*
X86928390Y-178409052D02*
X86564690Y-178585052D01*
X88530290Y-78389952D02*
X88623390Y-78748152D01*
X82307090Y-177959052D02*
X82010760Y-177689052D01*
X84568790Y-151969052D02*
X84949890Y-151950052D01*
X97363990Y-19021201D02*
X97410390Y-19106065D01*
X85373190Y-132506052D02*
X85784890Y-132570052D01*
X86182790Y-178726052D02*
X85784890Y-178830052D01*
X81500470Y-39077952D02*
X81741150Y-38756952D01*
X81114570Y-100164652D02*
X80973670Y-99782752D01*
X86182790Y-45376452D02*
X85784890Y-45479752D01*
X88530290Y-80609852D02*
X88403490Y-80953652D01*
X88158890Y-95906952D02*
X88399590Y-96227952D01*
X84526590Y-64593352D02*
X84114990Y-64529752D01*
X84949890Y-140815052D02*
X84526590Y-140793052D01*
X85701790Y-83173052D02*
X85331090Y-83230352D01*
X81290890Y-115621352D02*
X81500470Y-115277952D01*
X88158890Y-139293052D02*
X87889290Y-139589052D01*
X85784890Y-56370052D02*
X86182790Y-56473452D01*
X89093290Y-118023252D02*
X89029690Y-118434952D01*
X88623390Y-80251652D02*
X88530290Y-80609852D01*
X80870360Y-118434952D02*
X80806780Y-118023252D01*
X84526590Y-56306552D02*
X84949890Y-56284852D01*
X81290890Y-134671052D02*
X81500470Y-134328052D01*
X86059990Y-159280052D02*
X85701790Y-159373052D01*
X83335290Y-121435052D02*
X82971590Y-121259052D01*
X87271890Y-95100252D02*
X87592890Y-95340952D01*
X82971590Y-178409052D02*
X82628090Y-178200052D01*
X87592890Y-171541052D02*
X87889290Y-171810052D01*
X87839290Y-153320052D02*
X88055990Y-153609052D01*
X84949890Y-94384852D02*
X85373190Y-94406552D01*
X85373190Y-170606052D02*
X85784890Y-170670052D01*
X86403890Y-159153052D02*
X86059990Y-159280052D01*
X80870360Y-42234952D02*
X80806780Y-41823252D01*
X89029690Y-59614952D02*
X89093290Y-60026552D01*
X84526590Y-113456552D02*
X84949890Y-113434852D01*
X82971590Y-121259052D02*
X82628090Y-121050052D01*
X83717190Y-102526452D02*
X83335290Y-102385552D01*
X82859390Y-158806052D02*
X82570390Y-158589052D01*
X82010760Y-133710052D02*
X82307090Y-133441052D01*
X87592890Y-63658952D02*
X87271890Y-63899652D01*
X88700090Y-155700052D02*
X88680590Y-156081052D01*
X88399590Y-96227952D02*
X88609190Y-96571352D01*
X84949890Y-75749952D02*
X85331090Y-75769452D01*
X80870360Y-137485052D02*
X80806780Y-137073052D01*
X84526590Y-45543352D02*
X84114990Y-45479752D01*
X83839990Y-83080052D02*
X83496090Y-82953252D01*
X84526590Y-102693352D02*
X84114990Y-102629752D01*
X85331090Y-83230352D02*
X84949890Y-83249852D01*
X83496090Y-159153052D02*
X83168590Y-158994052D01*
X80870360Y-175585052D02*
X80806780Y-175173052D01*
X83168590Y-82794452D02*
X82859390Y-82605752D01*
X87271890Y-140100052D02*
X86928390Y-140309052D01*
X83496090Y-76046652D02*
X83839990Y-75919752D01*
X97050290Y-18810233D02*
X97143790Y-18839547D01*
X86182790Y-94573452D02*
X86564690Y-94714352D01*
X88680590Y-79881052D02*
X88623390Y-80251652D01*
X88785490Y-62064652D02*
X88609190Y-62428452D01*
X88785490Y-138265052D02*
X88609190Y-138628052D01*
X84949890Y-45564952D02*
X84526590Y-45543352D01*
X87889290Y-44339352D02*
X87592890Y-44608952D01*
X72535816Y-193579052D02*
X72489489Y-193494052D01*
X82060770Y-153320052D02*
X82303490Y-153053052D01*
X80806780Y-175173052D02*
X80785110Y-174750052D01*
X82303490Y-153053052D02*
X82570390Y-152811052D01*
X84114990Y-37320052D02*
X84526590Y-37256552D01*
X88609190Y-119578052D02*
X88399590Y-119922052D01*
X85373190Y-178893052D02*
X84949890Y-178915052D01*
X82971590Y-171091052D02*
X83335290Y-170914052D01*
X81500470Y-43721852D02*
X81290890Y-43378452D01*
X82010760Y-171810052D02*
X82307090Y-171541052D01*
X81290890Y-58471352D02*
X81500470Y-58127952D01*
X97439690Y-19199623D02*
X97449890Y-19299798D01*
X82628090Y-140100052D02*
X82307090Y-139859052D01*
X86564690Y-102385552D02*
X86182790Y-102526452D01*
X81500470Y-62771852D02*
X81290890Y-62428452D01*
X97143790Y-193760052D02*
X97050290Y-193790052D01*
X85784890Y-121680052D02*
X85373190Y-121743052D01*
X81655370Y-157481052D02*
X81496620Y-157154052D01*
X81500470Y-115277952D02*
X81741150Y-114956952D01*
X72460171Y-193400052D02*
X72449938Y-193300052D01*
X86564690Y-178585052D02*
X86182790Y-178726052D01*
X80973670Y-40167052D02*
X81114570Y-39785152D01*
X89114990Y-136650052D02*
X89093290Y-137073052D01*
X87592890Y-44608952D02*
X87271890Y-44849652D01*
X81655370Y-77718652D02*
X81844070Y-77409352D01*
X86731390Y-152405052D02*
X87040590Y-152594052D01*
X82010760Y-101489252D02*
X81741150Y-101192952D01*
X81276730Y-80251652D02*
X81219490Y-79881052D01*
X89029690Y-99384952D02*
X88926390Y-99782752D01*
X72460171Y-19199623D02*
X72489489Y-19106065D01*
X82628090Y-44849652D02*
X82307090Y-44608952D01*
X81500470Y-96227952D02*
X81741150Y-95906952D01*
X88609190Y-100528452D02*
X88399590Y-100871852D01*
X84114990Y-102629752D02*
X83717190Y-102526452D01*
X85331090Y-75769452D02*
X85701790Y-75826752D01*
X87889290Y-38460552D02*
X88158890Y-38756952D01*
X80870360Y-135815052D02*
X80973670Y-135417052D01*
X88609190Y-39421452D02*
X88785490Y-39785152D01*
X88785490Y-119215052D02*
X88609190Y-119578052D01*
X84526590Y-37256552D02*
X84949890Y-37234852D01*
X88926390Y-135417052D02*
X89029690Y-135815052D01*
X87592890Y-114390952D02*
X87889290Y-114660552D01*
X80973670Y-137883052D02*
X80870360Y-137485052D01*
X86403890Y-152247052D02*
X86731390Y-152405052D01*
X85331090Y-159430052D02*
X84949890Y-159450052D01*
X82971590Y-113940652D02*
X83335290Y-113764352D01*
X86182790Y-56473452D02*
X86564690Y-56614352D01*
X83839990Y-75919752D02*
X84198190Y-75826752D01*
X81741150Y-139293052D02*
X81500470Y-138972052D01*
X84114990Y-113520052D02*
X84526590Y-113456552D01*
X89093290Y-98126552D02*
X89114990Y-98549952D01*
X88399590Y-138972052D02*
X88158890Y-139293052D01*
X89093290Y-136227052D02*
X89114990Y-136650052D01*
X72449938Y-193300052D02*
X72449938Y-19299798D01*
X81741150Y-57806952D02*
X82010760Y-57510552D01*
X83168590Y-76205352D02*
X83496090Y-76046652D01*
X72489489Y-193494052D02*
X72460171Y-193400052D01*
X82570390Y-76610752D02*
X82859390Y-76394052D01*
X87889290Y-114660552D02*
X88158890Y-114956952D01*
X81844070Y-81590452D02*
X81655370Y-81281152D01*
X85784890Y-45479752D02*
X85373190Y-45543352D01*
X86564690Y-132814052D02*
X86928390Y-132991052D01*
X82307090Y-95340952D02*
X82628090Y-95100252D01*
X81276730Y-78748152D02*
X81369750Y-78389952D01*
X97050290Y-193790052D02*
X96950090Y-193800052D01*
X72671204Y-18885865D02*
X72756115Y-18839547D01*
X88609190Y-176728052D02*
X88399590Y-177072052D01*
X82010760Y-120539052D02*
X81741150Y-120243052D01*
X83335290Y-170914052D02*
X83717190Y-170773052D01*
X72756115Y-193760052D02*
X72671204Y-193714052D01*
X86059990Y-83080052D02*
X85701790Y-83173052D01*
X85373190Y-140793052D02*
X84949890Y-140815052D01*
X88399590Y-58127952D02*
X88609190Y-58471352D01*
X84198190Y-152027052D02*
X84568790Y-151969052D01*
X97449890Y-19299798D02*
X97449890Y-193300052D01*
X87271890Y-171300052D02*
X87592890Y-171541052D01*
X88609190Y-96571352D02*
X88785490Y-96935152D01*
X88244690Y-157481052D02*
X88055990Y-157790052D01*
X86564690Y-94714352D02*
X86928390Y-94890652D01*
X87329690Y-158589052D02*
X87040590Y-158806052D01*
X88700090Y-79499952D02*
X88680590Y-79881052D01*
X88158890Y-120243052D02*
X87889290Y-120539052D01*
X85701790Y-152027052D02*
X86059990Y-152120052D01*
X88609190Y-172771052D02*
X88785490Y-173135052D01*
X82010760Y-44339352D02*
X81741150Y-44042952D01*
X86182790Y-140626052D02*
X85784890Y-140730052D01*
X86928390Y-102209152D02*
X86564690Y-102385552D01*
X86731390Y-158994052D02*
X86403890Y-159153052D01*
X88785490Y-176365052D02*
X88609190Y-176728052D01*
X72756115Y-18839547D02*
X72849738Y-18810233D01*
X83717190Y-132673052D02*
X84114990Y-132570052D01*
X84949890Y-56284852D02*
X85373190Y-56306552D01*
X80785110Y-41399952D02*
X80806780Y-40976552D01*
X88926390Y-173517052D02*
X89029690Y-173915052D01*
X80870360Y-97714952D02*
X80973670Y-97317052D01*
X86564690Y-56614352D02*
X86928390Y-56790652D01*
X80870360Y-173915052D02*
X80973670Y-173517052D01*
X88926390Y-97317052D02*
X89029690Y-97714952D01*
X84949890Y-113434852D02*
X85373190Y-113456552D01*
X88403490Y-80953652D02*
X88244690Y-81281152D01*
X86403890Y-76046652D02*
X86731390Y-76205352D01*
X80785110Y-60449952D02*
X80785110Y-60449952D01*
X97302790Y-193653052D02*
X97228690Y-193714052D01*
X80806780Y-60026552D02*
X80870360Y-59614952D01*
X87592890Y-38190952D02*
X87889290Y-38460552D01*
X81114570Y-62064652D02*
X80973670Y-61682752D01*
X88926390Y-59217052D02*
X89029690Y-59614952D01*
X89029690Y-61284952D02*
X88926390Y-61682752D01*
X97302790Y-18947108D02*
X97363990Y-19021201D01*
X88399590Y-172428052D02*
X88609190Y-172771052D01*
X72950000Y-193800052D02*
X72849738Y-193790052D01*
X81114570Y-39785152D02*
X81290890Y-39421452D01*
X83717190Y-56473452D02*
X84114990Y-56370052D01*
X82010760Y-139589052D02*
X81741150Y-139293052D01*
X85373190Y-64593352D02*
X84949890Y-64614952D01*
X84198190Y-75826752D02*
X84568790Y-75769452D01*
X82307090Y-171541052D02*
X82628090Y-171300052D01*
X81114570Y-58835152D02*
X81290890Y-58471352D01*
X72849738Y-193790052D02*
X72756115Y-193760052D01*
X84526590Y-132506052D02*
X84949890Y-132485052D01*
X88158890Y-114956952D02*
X88399590Y-115277952D01*
X86182790Y-121576052D02*
X85784890Y-121680052D01*
X81114570Y-96935152D02*
X81290890Y-96571352D01*
X72950000Y-18800000D02*
X96950090Y-18800000D01*
X81741150Y-114956952D02*
X82010760Y-114660552D01*
X81290890Y-119578052D02*
X81114570Y-119215052D01*
X80973670Y-175983052D02*
X80870360Y-175585052D01*
X87271890Y-114150252D02*
X87592890Y-114390952D01*
X89029690Y-135815052D02*
X89093290Y-136227052D01*
X82307090Y-63658952D02*
X82010760Y-63389352D01*
X87329690Y-82389052D02*
X87040590Y-82605752D01*
X89029690Y-97714952D02*
X89093290Y-98126552D01*
X80806780Y-174327052D02*
X80870360Y-173915052D01*
X88785490Y-173135052D02*
X88926390Y-173517052D01*
X81290890Y-100528452D02*
X81114570Y-100164652D01*
X89029690Y-137485052D02*
X88926390Y-137883052D01*
X87592890Y-139859052D02*
X87271890Y-140100052D01*
X86564690Y-121435052D02*
X86182790Y-121576052D01*
X81844070Y-153609052D02*
X82060770Y-153320052D01*
X88926390Y-116367052D02*
X89029690Y-116764952D01*
X72489489Y-19106065D02*
X72535816Y-19021201D01*
X81741150Y-63092952D02*
X81500470Y-62771852D01*
X82628090Y-95100252D02*
X82971590Y-94890652D01*
X88785490Y-115985152D02*
X88926390Y-116367052D01*
X87329690Y-152811052D02*
X87596590Y-153053052D01*
X87839290Y-81879452D02*
X87596590Y-82146352D01*
X89029690Y-118434952D02*
X88926390Y-118833052D01*
X83717190Y-170773052D02*
X84114990Y-170670052D01*
X84949890Y-83249852D02*
X84568790Y-83230352D01*
X86928390Y-45059152D02*
X86564690Y-45235552D01*
X81741150Y-44042952D02*
X81500470Y-43721852D01*
X88399590Y-115277952D02*
X88609190Y-115621352D01*
X80973670Y-61682752D02*
X80870360Y-61284952D01*
X85784890Y-170670052D02*
X86182790Y-170773052D01*
X87889290Y-139589052D02*
X87592890Y-139859052D01*
X85784890Y-178830052D02*
X85373190Y-178893052D01*
X88609190Y-62428452D02*
X88399590Y-62771852D01*
X97363990Y-193579052D02*
X97302790Y-193653052D01*
X72671204Y-193714052D02*
X72597079Y-193653052D01*
X80973670Y-99782752D02*
X80870360Y-99384952D01*
X87271890Y-57000252D02*
X87592890Y-57240952D01*
X86928390Y-132991052D02*
X87271890Y-133200052D01*
X88055990Y-81590452D02*
X87839290Y-81879452D01*
X82971590Y-45059152D02*
X82628090Y-44849652D01*
X97449890Y-193300052D02*
X97439690Y-193400052D01*
X88785490Y-58835152D02*
X88926390Y-59217052D01*
X85373190Y-37256552D02*
X85784890Y-37320052D01*
X80973670Y-173517052D02*
X81114570Y-173135052D01*
X88926390Y-42632752D02*
X88785490Y-43014652D01*
X82303490Y-158346052D02*
X82060770Y-158079052D01*
X82570390Y-152811052D02*
X82859390Y-152594052D01*
X85784890Y-113520052D02*
X86182790Y-113623452D01*
X87592890Y-57240952D02*
X87889290Y-57510552D01*
X81290890Y-62428452D02*
X81114570Y-62064652D01*
X81114570Y-119215052D02*
X80973670Y-118833052D01*
X87271890Y-37950252D02*
X87592890Y-38190952D01*
X82859390Y-152594052D02*
X83168590Y-152405052D01*
X82307090Y-101758952D02*
X82010760Y-101489252D01*
X85784890Y-132570052D02*
X86182790Y-132673052D01*
X89093290Y-175173052D02*
X89029690Y-175585052D01*
X85784890Y-94470052D02*
X86182790Y-94573452D01*
X84114990Y-170670052D02*
X84526590Y-170606052D01*
X88403490Y-154246052D02*
X88530290Y-154590052D01*
X87596590Y-158346052D02*
X87329690Y-158589052D01*
X86182790Y-113623452D02*
X86564690Y-113764352D01*
X80785110Y-60449952D02*
X80806780Y-60026552D01*
X81276730Y-156452052D02*
X81219490Y-156081052D01*
X81369750Y-78389952D02*
X81496620Y-78046152D01*
X87271890Y-178200052D02*
X86928390Y-178409052D01*
X87889290Y-57510552D02*
X88158890Y-57806952D01*
X83496090Y-152247052D02*
X83839990Y-152120052D01*
X88158890Y-44042952D02*
X87889290Y-44339352D01*
X81290890Y-138628052D02*
X81114570Y-138265052D01*
X86059990Y-152120052D02*
X86403890Y-152247052D01*
X84114990Y-64529752D02*
X83717190Y-64426452D01*
X81844070Y-157790052D02*
X81655370Y-157481052D01*
X81199970Y-155700052D02*
X81219490Y-155319052D01*
X83335290Y-132814052D02*
X83717190Y-132673052D01*
X82303490Y-82146352D02*
X82060770Y-81879452D01*
X89114990Y-98549952D02*
X89093290Y-98973252D01*
X80785110Y-117599952D02*
X80806780Y-117176552D01*
X81290890Y-172771052D02*
X81500470Y-172428052D01*
X81290890Y-176728052D02*
X81114570Y-176365052D01*
X83496090Y-82953252D02*
X83168590Y-82794452D01*
X88926390Y-40167052D02*
X89029690Y-40564952D01*
X87040590Y-152594052D02*
X87329690Y-152811052D01*
X86564690Y-170914052D02*
X86928390Y-171091052D01*
X81655370Y-153919052D02*
X81844070Y-153609052D01*
X88609190Y-134671052D02*
X88785490Y-135035052D01*
X84114990Y-121680052D02*
X83717190Y-121576052D01*
X87592890Y-120809052D02*
X87271890Y-121050052D01*
X80785110Y-136650052D02*
X80785110Y-136650052D01*
X82307090Y-120809052D02*
X82010760Y-120539052D01*
X81199970Y-155700052D02*
X81199970Y-155700052D01*
X80806780Y-41823252D02*
X80785110Y-41399952D01*
X88399590Y-62771852D02*
X88158890Y-63092952D01*
X88055990Y-77409352D02*
X88244690Y-77718652D01*
X82628090Y-101999652D02*
X82307090Y-101758952D01*
X80806780Y-40976552D02*
X80870360Y-40564952D01*
X88785490Y-43014652D02*
X88609190Y-43378452D01*
X81655370Y-81281152D02*
X81496620Y-80953652D01*
X84526590Y-140793052D02*
X84114990Y-140730052D01*
X85373190Y-121743052D02*
X84949890Y-121765052D01*
X82010760Y-177689052D02*
X81741150Y-177393052D01*
X88609190Y-43378452D02*
X88399590Y-43721852D01*
X87592890Y-133441052D02*
X87889290Y-133710052D01*
X87329690Y-76610752D02*
X87596590Y-76853552D01*
X88158890Y-172107052D02*
X88399590Y-172428052D01*
X85701790Y-75826752D02*
X86059990Y-75919752D01*
X82570390Y-158589052D02*
X82303490Y-158346052D01*
X88244690Y-153919052D02*
X88403490Y-154246052D01*
X80785110Y-117599952D02*
X80785110Y-117599952D01*
X86182790Y-102526452D02*
X85784890Y-102629752D01*
X89093290Y-117176552D02*
X89114990Y-117599952D01*
X83717190Y-37423452D02*
X84114990Y-37320052D01*
X97143790Y-18839547D02*
X97228690Y-18885865D01*
X81741150Y-120243052D02*
X81500470Y-119922052D01*
X80785110Y-174750052D02*
X80785110Y-174750052D01*
X88244690Y-77718652D02*
X88403490Y-78046152D01*
X80973670Y-118833052D02*
X80870360Y-118434952D01*
X80806780Y-137073052D02*
X80785110Y-136650052D01*
X89114990Y-41399952D02*
X89093290Y-41823252D01*
X84526590Y-170606052D02*
X84949890Y-170585052D01*
X88926390Y-137883052D02*
X88785490Y-138265052D01*
X88399590Y-43721852D02*
X88158890Y-44042952D01*
X72597079Y-18947108D02*
X72671204Y-18885865D01*
X84568790Y-83230352D02*
X84198190Y-83173052D01*
X82010760Y-57510552D02*
X82307090Y-57240952D01*
X83335290Y-102385552D02*
X82971590Y-102209152D01*
X82628090Y-133200052D02*
X82971590Y-132991052D01*
X88926390Y-118833052D02*
X88785490Y-119215052D01*
X85373190Y-102693352D02*
X84949890Y-102714952D01*
X81114570Y-115985152D02*
X81290890Y-115621352D01*
X87592890Y-177959052D02*
X87271890Y-178200052D01*
X84949890Y-37234852D02*
X85373190Y-37256552D01*
X88158890Y-134007052D02*
X88399590Y-134328052D01*
X82628090Y-63899652D02*
X82307090Y-63658952D01*
X85784890Y-102629752D02*
X85373190Y-102693352D01*
X84114990Y-56370052D02*
X84526590Y-56306552D01*
X82060770Y-158079052D02*
X81844070Y-157790052D01*
X88399590Y-119922052D02*
X88158890Y-120243052D01*
X82307090Y-133441052D02*
X82628090Y-133200052D01*
X87040590Y-76394052D02*
X87329690Y-76610752D01*
X86564690Y-113764352D02*
X86928390Y-113940652D01*
X81500470Y-100871852D02*
X81290890Y-100528452D01*
X89029690Y-40564952D02*
X89093290Y-40976552D01*
X85784890Y-64529752D02*
X85373190Y-64593352D01*
X88055990Y-157790052D02*
X87839290Y-158079052D01*
X97439690Y-193400052D02*
X97410390Y-193494052D01*
X87592890Y-95340952D02*
X87889290Y-95610552D01*
X87040590Y-82605752D02*
X86731390Y-82794452D01*
X72449938Y-19299798D02*
X72460171Y-19199623D01*
X87592890Y-101758952D02*
X87271890Y-101999652D01*
X89093290Y-40976552D02*
X89114990Y-41399952D01*
X80870360Y-40564952D02*
X80973670Y-40167052D01*
X86564690Y-64285552D02*
X86182790Y-64426452D01*
X87040590Y-158806052D02*
X86731390Y-158994052D01*
X86928390Y-64109152D02*
X86564690Y-64285552D01*
X82307090Y-44608952D02*
X82010760Y-44339352D01*
X85784890Y-140730052D02*
X85373190Y-140793052D01*
X84198190Y-83173052D02*
X83839990Y-83080052D01*
X80973670Y-116367052D02*
X81114570Y-115985152D01*
X86928390Y-94890652D02*
X87271890Y-95100252D01*
X80785110Y-174750052D02*
X80806780Y-174327052D01*
X89093290Y-98973252D02*
X89029690Y-99384952D01*
X80973670Y-42632752D02*
X80870360Y-42234952D01*
X87889290Y-63389352D02*
X87592890Y-63658952D01*
X82303490Y-76853552D02*
X82570390Y-76610752D01*
X87889290Y-101489252D02*
X87592890Y-101758952D01*
X81369750Y-156810052D02*
X81276730Y-156452052D01*
X97410390Y-193494052D02*
X97363990Y-193579052D01*
X88785490Y-100164652D02*
X88609190Y-100528452D01*
X82628090Y-114150252D02*
X82971590Y-113940652D01*
X88403490Y-157154052D02*
X88244690Y-157481052D01*
X88623390Y-154948052D02*
X88680590Y-155319052D01*
X87271890Y-101999652D02*
X86928390Y-102209152D01*
X81199970Y-79499952D02*
X81199970Y-79499952D01*
X88609190Y-115621352D02*
X88785490Y-115985152D01*
X82060770Y-77120352D02*
X82303490Y-76853552D01*
X88244690Y-81281152D02*
X88055990Y-81590452D01*
X83717190Y-113623452D02*
X84114990Y-113520052D01*
X87271890Y-63899652D02*
X86928390Y-64109152D01*
X84949890Y-178915052D02*
X84526590Y-178893052D01*
X80785110Y-136650052D02*
X80806780Y-136227052D01*
X88926390Y-99782752D02*
X88785490Y-100164652D01*
X88785490Y-39785152D02*
X88926390Y-40167052D01*
X82010760Y-38460552D02*
X82307090Y-38190952D01*
X85373190Y-45543352D02*
X84949890Y-45564952D01*
X72597079Y-193653052D02*
X72535816Y-193579052D01*
X82971590Y-64109152D02*
X82628090Y-63899652D01*
X84949890Y-132485052D02*
X85373190Y-132506052D01*
X89093290Y-60873252D02*
X89029690Y-61284952D01*
X88403490Y-78046152D02*
X88530290Y-78389952D01*
X81496620Y-157154052D02*
X81369750Y-156810052D01*
X86182790Y-170773052D02*
X86564690Y-170914052D01*
X84526590Y-178893052D02*
X84114990Y-178830052D01*
X86928390Y-140309052D02*
X86564690Y-140485052D01*
X85701790Y-159373052D02*
X85331090Y-159430052D01*
X82307090Y-38190952D02*
X82628090Y-37950252D01*
X81114570Y-43014652D02*
X80973670Y-42632752D01*
X81114570Y-138265052D02*
X80973670Y-137883052D01*
%TD*%
M02*
