%TF.GenerationSoftware,KiCad,Pcbnew,(6.0.6-0)*%
%TF.CreationDate,2022-09-02T19:29:28+01:00*%
%TF.ProjectId,4u-simple-integrator-frontpanel,34752d73-696d-4706-9c65-2d696e746567,r01*%
%TF.SameCoordinates,Original*%
%TF.FileFunction,Legend,Top*%
%TF.FilePolarity,Positive*%
%FSLAX46Y46*%
G04 Gerber Fmt 4.6, Leading zero omitted, Abs format (unit mm)*
G04 Created by KiCad (PCBNEW (6.0.6-0)) date 2022-09-02 19:29:28*
%MOMM*%
%LPD*%
G01*
G04 APERTURE LIST*
%ADD10C,0.010000*%
G04 APERTURE END LIST*
%TO.C,Ref\u002A\u002A*%
G36*
X81421657Y-25775385D02*
G01*
X80701990Y-25775385D01*
X80701990Y-28505885D01*
X80193990Y-28505885D01*
X80193990Y-25775385D01*
X79474323Y-25775385D01*
X79474323Y-25309718D01*
X81421657Y-25309718D01*
X81421657Y-25775385D01*
G37*
D10*
X81421657Y-25775385D02*
X80701990Y-25775385D01*
X80701990Y-28505885D01*
X80193990Y-28505885D01*
X80193990Y-25775385D01*
X79474323Y-25775385D01*
X79474323Y-25309718D01*
X81421657Y-25309718D01*
X81421657Y-25775385D01*
G36*
X93211490Y-126126552D02*
G01*
X91348823Y-126126552D01*
X91348823Y-125787885D01*
X93211490Y-125787885D01*
X93211490Y-126126552D01*
G37*
X93211490Y-126126552D02*
X91348823Y-126126552D01*
X91348823Y-125787885D01*
X93211490Y-125787885D01*
X93211490Y-126126552D01*
G36*
X90121157Y-144160552D02*
G01*
X89507323Y-144160552D01*
X89507323Y-146446552D01*
X89083990Y-146446552D01*
X89083990Y-144160552D01*
X88470157Y-144160552D01*
X88470157Y-143758385D01*
X90121157Y-143758385D01*
X90121157Y-144160552D01*
G37*
X90121157Y-144160552D02*
X89507323Y-144160552D01*
X89507323Y-146446552D01*
X89083990Y-146446552D01*
X89083990Y-144160552D01*
X88470157Y-144160552D01*
X88470157Y-143758385D01*
X90121157Y-143758385D01*
X90121157Y-144160552D01*
G36*
X86485543Y-125592093D02*
G01*
X86487835Y-125832976D01*
X86490432Y-126035479D01*
X86493850Y-126203555D01*
X86498606Y-126341158D01*
X86505214Y-126452240D01*
X86514191Y-126540754D01*
X86526053Y-126610653D01*
X86541315Y-126665891D01*
X86560493Y-126710421D01*
X86584103Y-126748195D01*
X86612662Y-126783166D01*
X86645531Y-126818100D01*
X86736306Y-126898664D01*
X86828831Y-126949629D01*
X86936006Y-126976101D01*
X87062573Y-126983215D01*
X87196711Y-126974208D01*
X87304048Y-126943964D01*
X87396972Y-126887254D01*
X87480864Y-126806679D01*
X87513021Y-126769737D01*
X87539947Y-126733580D01*
X87562104Y-126694228D01*
X87579958Y-126647704D01*
X87593971Y-126590029D01*
X87604608Y-126517222D01*
X87612332Y-126425307D01*
X87617606Y-126310304D01*
X87620896Y-126168235D01*
X87622663Y-125995120D01*
X87623372Y-125786982D01*
X87623490Y-125582960D01*
X87623490Y-124666052D01*
X88046823Y-124666052D01*
X88046306Y-125613260D01*
X88045697Y-125837496D01*
X88044175Y-126042339D01*
X88041819Y-126224110D01*
X88038706Y-126379126D01*
X88034913Y-126503709D01*
X88030519Y-126594177D01*
X88025600Y-126646851D01*
X88024389Y-126653291D01*
X87966446Y-126818208D01*
X87873522Y-126976283D01*
X87752847Y-127117518D01*
X87611657Y-127231916D01*
X87600700Y-127238972D01*
X87451842Y-127311913D01*
X87279154Y-127361213D01*
X87095417Y-127384482D01*
X86913415Y-127379329D01*
X86876457Y-127374388D01*
X86723306Y-127333379D01*
X86569631Y-127261061D01*
X86425403Y-127164433D01*
X86300593Y-127050491D01*
X86205175Y-126926233D01*
X86184031Y-126888499D01*
X86158569Y-126837628D01*
X86137247Y-126790442D01*
X86119659Y-126742707D01*
X86105399Y-126690189D01*
X86094061Y-126628656D01*
X86085239Y-126553873D01*
X86078526Y-126461608D01*
X86073516Y-126347627D01*
X86069803Y-126207696D01*
X86066981Y-126037582D01*
X86064644Y-125833053D01*
X86062689Y-125623843D01*
X86054104Y-124666052D01*
X86477354Y-124666052D01*
X86485543Y-125592093D01*
G37*
X86485543Y-125592093D02*
X86487835Y-125832976D01*
X86490432Y-126035479D01*
X86493850Y-126203555D01*
X86498606Y-126341158D01*
X86505214Y-126452240D01*
X86514191Y-126540754D01*
X86526053Y-126610653D01*
X86541315Y-126665891D01*
X86560493Y-126710421D01*
X86584103Y-126748195D01*
X86612662Y-126783166D01*
X86645531Y-126818100D01*
X86736306Y-126898664D01*
X86828831Y-126949629D01*
X86936006Y-126976101D01*
X87062573Y-126983215D01*
X87196711Y-126974208D01*
X87304048Y-126943964D01*
X87396972Y-126887254D01*
X87480864Y-126806679D01*
X87513021Y-126769737D01*
X87539947Y-126733580D01*
X87562104Y-126694228D01*
X87579958Y-126647704D01*
X87593971Y-126590029D01*
X87604608Y-126517222D01*
X87612332Y-126425307D01*
X87617606Y-126310304D01*
X87620896Y-126168235D01*
X87622663Y-125995120D01*
X87623372Y-125786982D01*
X87623490Y-125582960D01*
X87623490Y-124666052D01*
X88046823Y-124666052D01*
X88046306Y-125613260D01*
X88045697Y-125837496D01*
X88044175Y-126042339D01*
X88041819Y-126224110D01*
X88038706Y-126379126D01*
X88034913Y-126503709D01*
X88030519Y-126594177D01*
X88025600Y-126646851D01*
X88024389Y-126653291D01*
X87966446Y-126818208D01*
X87873522Y-126976283D01*
X87752847Y-127117518D01*
X87611657Y-127231916D01*
X87600700Y-127238972D01*
X87451842Y-127311913D01*
X87279154Y-127361213D01*
X87095417Y-127384482D01*
X86913415Y-127379329D01*
X86876457Y-127374388D01*
X86723306Y-127333379D01*
X86569631Y-127261061D01*
X86425403Y-127164433D01*
X86300593Y-127050491D01*
X86205175Y-126926233D01*
X86184031Y-126888499D01*
X86158569Y-126837628D01*
X86137247Y-126790442D01*
X86119659Y-126742707D01*
X86105399Y-126690189D01*
X86094061Y-126628656D01*
X86085239Y-126553873D01*
X86078526Y-126461608D01*
X86073516Y-126347627D01*
X86069803Y-126207696D01*
X86066981Y-126037582D01*
X86064644Y-125833053D01*
X86062689Y-125623843D01*
X86054104Y-124666052D01*
X86477354Y-124666052D01*
X86485543Y-125592093D01*
G36*
X80363323Y-108346552D02*
G01*
X79939990Y-108346552D01*
X79939990Y-105679552D01*
X80363323Y-105679552D01*
X80363323Y-108346552D01*
G37*
X80363323Y-108346552D02*
X79939990Y-108346552D01*
X79939990Y-105679552D01*
X80363323Y-105679552D01*
X80363323Y-108346552D01*
G36*
X80426823Y-184546552D02*
G01*
X80003490Y-184546552D01*
X80003490Y-181879552D01*
X80426823Y-181879552D01*
X80426823Y-184546552D01*
G37*
X80426823Y-184546552D02*
X80003490Y-184546552D01*
X80003490Y-181879552D01*
X80426823Y-181879552D01*
X80426823Y-184546552D01*
G36*
X81012216Y-105508711D02*
G01*
X81056278Y-105552902D01*
X81124591Y-105622584D01*
X81214669Y-105715187D01*
X81324026Y-105828143D01*
X81450176Y-105958881D01*
X81590633Y-106104832D01*
X81742912Y-106263428D01*
X81904527Y-106432098D01*
X81963265Y-106493484D01*
X82913907Y-107487333D01*
X82919425Y-106583442D01*
X82924944Y-105679552D01*
X83347823Y-105679552D01*
X83347823Y-107097718D01*
X83347709Y-107338478D01*
X83347381Y-107566368D01*
X83346857Y-107777927D01*
X83346157Y-107969693D01*
X83345299Y-108138203D01*
X83344303Y-108279995D01*
X83343188Y-108391607D01*
X83341973Y-108469578D01*
X83340677Y-108510445D01*
X83339991Y-108515885D01*
X83324398Y-108501006D01*
X83281994Y-108458058D01*
X83215223Y-108389569D01*
X83126528Y-108298070D01*
X83018350Y-108186090D01*
X82893133Y-108056160D01*
X82753320Y-107910810D01*
X82601353Y-107752570D01*
X82439675Y-107583970D01*
X82371616Y-107512925D01*
X81411073Y-106509966D01*
X81400045Y-108346552D01*
X80977157Y-108346552D01*
X80977157Y-106916038D01*
X80977411Y-106674438D01*
X80978148Y-106445867D01*
X80979324Y-106233752D01*
X80980895Y-106041515D01*
X80982820Y-105872582D01*
X80985057Y-105730377D01*
X80987561Y-105618323D01*
X80990291Y-105539847D01*
X80993204Y-105498371D01*
X80994890Y-105492579D01*
X81012216Y-105508711D01*
G37*
X81012216Y-105508711D02*
X81056278Y-105552902D01*
X81124591Y-105622584D01*
X81214669Y-105715187D01*
X81324026Y-105828143D01*
X81450176Y-105958881D01*
X81590633Y-106104832D01*
X81742912Y-106263428D01*
X81904527Y-106432098D01*
X81963265Y-106493484D01*
X82913907Y-107487333D01*
X82919425Y-106583442D01*
X82924944Y-105679552D01*
X83347823Y-105679552D01*
X83347823Y-107097718D01*
X83347709Y-107338478D01*
X83347381Y-107566368D01*
X83346857Y-107777927D01*
X83346157Y-107969693D01*
X83345299Y-108138203D01*
X83344303Y-108279995D01*
X83343188Y-108391607D01*
X83341973Y-108469578D01*
X83340677Y-108510445D01*
X83339991Y-108515885D01*
X83324398Y-108501006D01*
X83281994Y-108458058D01*
X83215223Y-108389569D01*
X83126528Y-108298070D01*
X83018350Y-108186090D01*
X82893133Y-108056160D01*
X82753320Y-107910810D01*
X82601353Y-107752570D01*
X82439675Y-107583970D01*
X82371616Y-107512925D01*
X81411073Y-106509966D01*
X81400045Y-108346552D01*
X80977157Y-108346552D01*
X80977157Y-106916038D01*
X80977411Y-106674438D01*
X80978148Y-106445867D01*
X80979324Y-106233752D01*
X80980895Y-106041515D01*
X80982820Y-105872582D01*
X80985057Y-105730377D01*
X80987561Y-105618323D01*
X80990291Y-105539847D01*
X80993204Y-105498371D01*
X80994890Y-105492579D01*
X81012216Y-105508711D01*
G36*
X84496115Y-67558804D02*
G01*
X84709442Y-67562046D01*
X84886373Y-67572122D01*
X85032492Y-67590414D01*
X85153383Y-67618304D01*
X85254631Y-67657172D01*
X85341820Y-67708401D01*
X85420534Y-67773371D01*
X85439867Y-67792249D01*
X85549441Y-67931581D01*
X85623556Y-68091481D01*
X85660776Y-68267331D01*
X85659668Y-68454513D01*
X85655591Y-68486945D01*
X85611602Y-68661237D01*
X85533627Y-68811118D01*
X85422818Y-68935790D01*
X85280328Y-69034454D01*
X85107307Y-69106311D01*
X84904908Y-69150562D01*
X84676032Y-69166398D01*
X84575490Y-69167052D01*
X84575490Y-70246552D01*
X84152157Y-70246552D01*
X84152157Y-68770063D01*
X84575490Y-68770063D01*
X84763408Y-68761079D01*
X84872639Y-68752809D01*
X84954435Y-68738127D01*
X85023572Y-68713885D01*
X85054450Y-68699038D01*
X85153457Y-68629491D01*
X85217449Y-68539005D01*
X85248571Y-68423868D01*
X85252475Y-68356375D01*
X85241125Y-68238144D01*
X85204329Y-68143351D01*
X85139075Y-68069664D01*
X85042355Y-68014751D01*
X84911159Y-67976280D01*
X84742477Y-67951918D01*
X84728948Y-67950659D01*
X84575490Y-67936821D01*
X84575490Y-68770063D01*
X84152157Y-68770063D01*
X84152157Y-67558385D01*
X84496115Y-67558804D01*
G37*
X84496115Y-67558804D02*
X84709442Y-67562046D01*
X84886373Y-67572122D01*
X85032492Y-67590414D01*
X85153383Y-67618304D01*
X85254631Y-67657172D01*
X85341820Y-67708401D01*
X85420534Y-67773371D01*
X85439867Y-67792249D01*
X85549441Y-67931581D01*
X85623556Y-68091481D01*
X85660776Y-68267331D01*
X85659668Y-68454513D01*
X85655591Y-68486945D01*
X85611602Y-68661237D01*
X85533627Y-68811118D01*
X85422818Y-68935790D01*
X85280328Y-69034454D01*
X85107307Y-69106311D01*
X84904908Y-69150562D01*
X84676032Y-69166398D01*
X84575490Y-69167052D01*
X84575490Y-70246552D01*
X84152157Y-70246552D01*
X84152157Y-68770063D01*
X84575490Y-68770063D01*
X84763408Y-68761079D01*
X84872639Y-68752809D01*
X84954435Y-68738127D01*
X85023572Y-68713885D01*
X85054450Y-68699038D01*
X85153457Y-68629491D01*
X85217449Y-68539005D01*
X85248571Y-68423868D01*
X85252475Y-68356375D01*
X85241125Y-68238144D01*
X85204329Y-68143351D01*
X85139075Y-68069664D01*
X85042355Y-68014751D01*
X84911159Y-67976280D01*
X84742477Y-67951918D01*
X84728948Y-67950659D01*
X84575490Y-67936821D01*
X84575490Y-68770063D01*
X84152157Y-68770063D01*
X84152157Y-67558385D01*
X84496115Y-67558804D01*
G36*
X93253823Y-49905385D02*
G01*
X91391157Y-49905385D01*
X91391157Y-49566718D01*
X93253823Y-49566718D01*
X93253823Y-49905385D01*
G37*
X93253823Y-49905385D02*
X91391157Y-49905385D01*
X91391157Y-49566718D01*
X93253823Y-49566718D01*
X93253823Y-49905385D01*
G36*
X90078823Y-48847052D02*
G01*
X89464990Y-48847052D01*
X89464990Y-51133052D01*
X89041657Y-51133052D01*
X89041657Y-48847052D01*
X88427823Y-48847052D01*
X88427823Y-48466052D01*
X90078823Y-48466052D01*
X90078823Y-48847052D01*
G37*
X90078823Y-48847052D02*
X89464990Y-48847052D01*
X89464990Y-51133052D01*
X89041657Y-51133052D01*
X89041657Y-48847052D01*
X88427823Y-48847052D01*
X88427823Y-48466052D01*
X90078823Y-48466052D01*
X90078823Y-48847052D01*
G36*
X89888323Y-182260552D02*
G01*
X89295657Y-182260552D01*
X89295657Y-184546552D01*
X88872323Y-184546552D01*
X88872323Y-182260552D01*
X88258490Y-182260552D01*
X88258490Y-181879552D01*
X89888323Y-181879552D01*
X89888323Y-182260552D01*
G37*
X89888323Y-182260552D02*
X89295657Y-182260552D01*
X89295657Y-184546552D01*
X88872323Y-184546552D01*
X88872323Y-182260552D01*
X88258490Y-182260552D01*
X88258490Y-181879552D01*
X89888323Y-181879552D01*
X89888323Y-182260552D01*
G36*
X84422032Y-105684111D02*
G01*
X84577037Y-105687403D01*
X84696497Y-105691092D01*
X84787198Y-105695832D01*
X84855926Y-105702273D01*
X84909470Y-105711067D01*
X84954615Y-105722867D01*
X84998148Y-105738324D01*
X85001937Y-105739806D01*
X85151197Y-105820865D01*
X85278712Y-105936907D01*
X85380919Y-106084686D01*
X85381366Y-106085508D01*
X85412674Y-106145071D01*
X85433367Y-106193606D01*
X85445642Y-106242526D01*
X85451692Y-106303245D01*
X85453714Y-106387177D01*
X85453907Y-106462718D01*
X85449825Y-106606412D01*
X85435040Y-106719347D01*
X85405739Y-106812532D01*
X85358111Y-106896978D01*
X85288345Y-106983694D01*
X85264571Y-107009616D01*
X85132793Y-107119598D01*
X84971793Y-107199258D01*
X84782073Y-107248417D01*
X84564137Y-107266898D01*
X84540851Y-107267052D01*
X84384990Y-107267052D01*
X84384990Y-108346552D01*
X83961657Y-108346552D01*
X83961657Y-106892138D01*
X84384990Y-106892138D01*
X84552039Y-106878207D01*
X84642678Y-106868361D01*
X84726157Y-106855371D01*
X84785826Y-106841874D01*
X84790164Y-106840490D01*
X84908713Y-106781642D01*
X84994910Y-106696644D01*
X85046736Y-106588233D01*
X85062323Y-106471494D01*
X85044960Y-106342517D01*
X84992947Y-106237790D01*
X84906397Y-106157406D01*
X84785423Y-106101456D01*
X84630141Y-106070033D01*
X84561906Y-106064529D01*
X84384990Y-106055243D01*
X84384990Y-106892138D01*
X83961657Y-106892138D01*
X83961657Y-105675406D01*
X84422032Y-105684111D01*
G37*
X84422032Y-105684111D02*
X84577037Y-105687403D01*
X84696497Y-105691092D01*
X84787198Y-105695832D01*
X84855926Y-105702273D01*
X84909470Y-105711067D01*
X84954615Y-105722867D01*
X84998148Y-105738324D01*
X85001937Y-105739806D01*
X85151197Y-105820865D01*
X85278712Y-105936907D01*
X85380919Y-106084686D01*
X85381366Y-106085508D01*
X85412674Y-106145071D01*
X85433367Y-106193606D01*
X85445642Y-106242526D01*
X85451692Y-106303245D01*
X85453714Y-106387177D01*
X85453907Y-106462718D01*
X85449825Y-106606412D01*
X85435040Y-106719347D01*
X85405739Y-106812532D01*
X85358111Y-106896978D01*
X85288345Y-106983694D01*
X85264571Y-107009616D01*
X85132793Y-107119598D01*
X84971793Y-107199258D01*
X84782073Y-107248417D01*
X84564137Y-107266898D01*
X84540851Y-107267052D01*
X84384990Y-107267052D01*
X84384990Y-108346552D01*
X83961657Y-108346552D01*
X83961657Y-106892138D01*
X84384990Y-106892138D01*
X84552039Y-106878207D01*
X84642678Y-106868361D01*
X84726157Y-106855371D01*
X84785826Y-106841874D01*
X84790164Y-106840490D01*
X84908713Y-106781642D01*
X84994910Y-106696644D01*
X85046736Y-106588233D01*
X85062323Y-106471494D01*
X85044960Y-106342517D01*
X84992947Y-106237790D01*
X84906397Y-106157406D01*
X84785423Y-106101456D01*
X84630141Y-106070033D01*
X84561906Y-106064529D01*
X84384990Y-106055243D01*
X84384990Y-106892138D01*
X83961657Y-106892138D01*
X83961657Y-105675406D01*
X84422032Y-105684111D01*
G36*
X84411448Y-181879919D02*
G01*
X84605786Y-181882310D01*
X84764169Y-181889790D01*
X84892783Y-181903430D01*
X84997815Y-181924301D01*
X85085452Y-181953475D01*
X85161879Y-181992023D01*
X85199647Y-182016405D01*
X85330958Y-182128280D01*
X85431159Y-182263313D01*
X85471330Y-182340736D01*
X85499800Y-182433033D01*
X85516538Y-182552014D01*
X85521536Y-182683764D01*
X85514788Y-182814366D01*
X85496285Y-182929903D01*
X85471668Y-183005103D01*
X85380903Y-183152800D01*
X85258772Y-183273923D01*
X85108011Y-183366980D01*
X84931357Y-183430480D01*
X84731544Y-183462933D01*
X84623959Y-183467052D01*
X84448490Y-183467052D01*
X84448490Y-184546552D01*
X84025157Y-184546552D01*
X84025157Y-183092326D01*
X84448490Y-183092326D01*
X84612532Y-183079521D01*
X84703213Y-183069881D01*
X84787390Y-183056568D01*
X84847775Y-183042351D01*
X84850657Y-183041397D01*
X84969625Y-182981319D01*
X85056505Y-182894860D01*
X85109112Y-182784992D01*
X85125358Y-182667330D01*
X85109644Y-182542479D01*
X85060591Y-182441406D01*
X84977436Y-182363499D01*
X84859420Y-182308148D01*
X84705781Y-182274743D01*
X84626257Y-182266809D01*
X84448490Y-182254264D01*
X84448490Y-183092326D01*
X84025157Y-183092326D01*
X84025157Y-181879552D01*
X84411448Y-181879919D01*
G37*
X84411448Y-181879919D02*
X84605786Y-181882310D01*
X84764169Y-181889790D01*
X84892783Y-181903430D01*
X84997815Y-181924301D01*
X85085452Y-181953475D01*
X85161879Y-181992023D01*
X85199647Y-182016405D01*
X85330958Y-182128280D01*
X85431159Y-182263313D01*
X85471330Y-182340736D01*
X85499800Y-182433033D01*
X85516538Y-182552014D01*
X85521536Y-182683764D01*
X85514788Y-182814366D01*
X85496285Y-182929903D01*
X85471668Y-183005103D01*
X85380903Y-183152800D01*
X85258772Y-183273923D01*
X85108011Y-183366980D01*
X84931357Y-183430480D01*
X84731544Y-183462933D01*
X84623959Y-183467052D01*
X84448490Y-183467052D01*
X84448490Y-184546552D01*
X84025157Y-184546552D01*
X84025157Y-183092326D01*
X84448490Y-183092326D01*
X84612532Y-183079521D01*
X84703213Y-183069881D01*
X84787390Y-183056568D01*
X84847775Y-183042351D01*
X84850657Y-183041397D01*
X84969625Y-182981319D01*
X85056505Y-182894860D01*
X85109112Y-182784992D01*
X85125358Y-182667330D01*
X85109644Y-182542479D01*
X85060591Y-182441406D01*
X84977436Y-182363499D01*
X84859420Y-182308148D01*
X84705781Y-182274743D01*
X84626257Y-182266809D01*
X84448490Y-182254264D01*
X84448490Y-183092326D01*
X84025157Y-183092326D01*
X84025157Y-181879552D01*
X84411448Y-181879919D01*
G36*
X76603350Y-125701382D02*
G01*
X76633724Y-125573494D01*
X76637520Y-125562209D01*
X76735730Y-125343364D01*
X76869197Y-125145246D01*
X77034310Y-124971807D01*
X77227458Y-124827001D01*
X77389407Y-124739165D01*
X77543971Y-124677982D01*
X77699920Y-124639572D01*
X77871823Y-124621013D01*
X77992657Y-124618195D01*
X78228849Y-124636786D01*
X78447897Y-124692515D01*
X78652037Y-124786453D01*
X78843503Y-124919672D01*
X79024534Y-125093243D01*
X79054360Y-125126757D01*
X79183895Y-125306626D01*
X79278996Y-125505553D01*
X79339661Y-125717968D01*
X79365889Y-125938302D01*
X79357678Y-126160986D01*
X79315027Y-126380451D01*
X79237934Y-126591127D01*
X79126399Y-126787445D01*
X79054809Y-126881982D01*
X78917468Y-127021300D01*
X78752551Y-127147084D01*
X78572237Y-127251684D01*
X78388703Y-127327453D01*
X78310157Y-127349665D01*
X78190553Y-127370072D01*
X78048543Y-127382035D01*
X77903356Y-127384749D01*
X77774223Y-127377412D01*
X77742995Y-127373362D01*
X77522493Y-127319625D01*
X77314395Y-127229600D01*
X77123270Y-127107526D01*
X76953693Y-126957643D01*
X76810233Y-126784190D01*
X76697464Y-126591407D01*
X76619956Y-126383533D01*
X76603879Y-126317052D01*
X76584151Y-126176517D01*
X76577917Y-126017394D01*
X76578640Y-125999552D01*
X76997823Y-125999552D01*
X77017444Y-126205142D01*
X77075754Y-126394645D01*
X77171927Y-126566102D01*
X77299005Y-126711813D01*
X77462269Y-126842793D01*
X77632232Y-126932370D01*
X77811581Y-126981284D01*
X78003000Y-126990274D01*
X78204423Y-126961169D01*
X78377031Y-126900971D01*
X78536281Y-126804942D01*
X78676616Y-126678860D01*
X78792481Y-126528501D01*
X78878319Y-126359644D01*
X78921564Y-126215468D01*
X78944633Y-126009234D01*
X78927116Y-125809156D01*
X78870136Y-125619374D01*
X78774813Y-125444025D01*
X78680794Y-125326582D01*
X78539586Y-125196780D01*
X78389146Y-125104258D01*
X78220713Y-125043968D01*
X78170313Y-125032416D01*
X77967155Y-125010762D01*
X77772406Y-125030424D01*
X77587702Y-125090934D01*
X77414676Y-125191819D01*
X77307144Y-125280787D01*
X77171918Y-125432984D01*
X77075810Y-125600703D01*
X77018048Y-125785735D01*
X76997860Y-125989875D01*
X76997823Y-125999552D01*
X76578640Y-125999552D01*
X76584532Y-125854182D01*
X76603350Y-125701382D01*
G37*
X76603350Y-125701382D02*
X76633724Y-125573494D01*
X76637520Y-125562209D01*
X76735730Y-125343364D01*
X76869197Y-125145246D01*
X77034310Y-124971807D01*
X77227458Y-124827001D01*
X77389407Y-124739165D01*
X77543971Y-124677982D01*
X77699920Y-124639572D01*
X77871823Y-124621013D01*
X77992657Y-124618195D01*
X78228849Y-124636786D01*
X78447897Y-124692515D01*
X78652037Y-124786453D01*
X78843503Y-124919672D01*
X79024534Y-125093243D01*
X79054360Y-125126757D01*
X79183895Y-125306626D01*
X79278996Y-125505553D01*
X79339661Y-125717968D01*
X79365889Y-125938302D01*
X79357678Y-126160986D01*
X79315027Y-126380451D01*
X79237934Y-126591127D01*
X79126399Y-126787445D01*
X79054809Y-126881982D01*
X78917468Y-127021300D01*
X78752551Y-127147084D01*
X78572237Y-127251684D01*
X78388703Y-127327453D01*
X78310157Y-127349665D01*
X78190553Y-127370072D01*
X78048543Y-127382035D01*
X77903356Y-127384749D01*
X77774223Y-127377412D01*
X77742995Y-127373362D01*
X77522493Y-127319625D01*
X77314395Y-127229600D01*
X77123270Y-127107526D01*
X76953693Y-126957643D01*
X76810233Y-126784190D01*
X76697464Y-126591407D01*
X76619956Y-126383533D01*
X76603879Y-126317052D01*
X76584151Y-126176517D01*
X76577917Y-126017394D01*
X76578640Y-125999552D01*
X76997823Y-125999552D01*
X77017444Y-126205142D01*
X77075754Y-126394645D01*
X77171927Y-126566102D01*
X77299005Y-126711813D01*
X77462269Y-126842793D01*
X77632232Y-126932370D01*
X77811581Y-126981284D01*
X78003000Y-126990274D01*
X78204423Y-126961169D01*
X78377031Y-126900971D01*
X78536281Y-126804942D01*
X78676616Y-126678860D01*
X78792481Y-126528501D01*
X78878319Y-126359644D01*
X78921564Y-126215468D01*
X78944633Y-126009234D01*
X78927116Y-125809156D01*
X78870136Y-125619374D01*
X78774813Y-125444025D01*
X78680794Y-125326582D01*
X78539586Y-125196780D01*
X78389146Y-125104258D01*
X78220713Y-125043968D01*
X78170313Y-125032416D01*
X77967155Y-125010762D01*
X77772406Y-125030424D01*
X77587702Y-125090934D01*
X77414676Y-125191819D01*
X77307144Y-125280787D01*
X77171918Y-125432984D01*
X77075810Y-125600703D01*
X77018048Y-125785735D01*
X76997860Y-125989875D01*
X76997823Y-125999552D01*
X76578640Y-125999552D01*
X76584532Y-125854182D01*
X76603350Y-125701382D01*
G36*
X76661948Y-144958975D02*
G01*
X76678201Y-144815972D01*
X76679131Y-144811042D01*
X76730103Y-144635703D01*
X76813330Y-144457313D01*
X76921906Y-144288901D01*
X77014318Y-144178566D01*
X77182885Y-144018225D01*
X77352684Y-143896193D01*
X77531205Y-143808909D01*
X77725937Y-143752814D01*
X77944367Y-143724347D01*
X77973548Y-143722563D01*
X78220506Y-143726748D01*
X78447781Y-143767948D01*
X78657828Y-143847095D01*
X78853099Y-143965118D01*
X79036051Y-144122950D01*
X79040407Y-144127332D01*
X79197993Y-144314646D01*
X79318389Y-144518611D01*
X79400967Y-144735177D01*
X79445101Y-144960295D01*
X79450164Y-145189914D01*
X79415531Y-145419985D01*
X79340575Y-145646457D01*
X79291389Y-145750216D01*
X79178965Y-145924862D01*
X79033615Y-146087607D01*
X78864618Y-146229843D01*
X78681252Y-146342962D01*
X78622129Y-146371130D01*
X78435516Y-146434910D01*
X78228588Y-146473557D01*
X78016129Y-146485606D01*
X77812924Y-146469592D01*
X77749240Y-146457642D01*
X77524596Y-146388090D01*
X77316052Y-146283582D01*
X77128259Y-146148130D01*
X76965868Y-145985744D01*
X76833532Y-145800436D01*
X76735902Y-145596216D01*
X76729397Y-145578240D01*
X76694667Y-145446869D01*
X76671182Y-145289690D01*
X76660097Y-145124282D01*
X77085065Y-145124282D01*
X77098596Y-145284272D01*
X77129609Y-145428792D01*
X77146164Y-145477042D01*
X77227592Y-145632091D01*
X77342578Y-145776043D01*
X77482448Y-145900740D01*
X77638527Y-145998025D01*
X77749240Y-146044273D01*
X77826545Y-146065962D01*
X77906247Y-146078047D01*
X78002963Y-146082103D01*
X78089834Y-146080978D01*
X78191801Y-146077120D01*
X78266083Y-146069737D01*
X78327329Y-146055519D01*
X78390188Y-146031153D01*
X78462406Y-145996744D01*
X78637807Y-145887856D01*
X78783301Y-145751507D01*
X78896603Y-145592065D01*
X78975426Y-145413899D01*
X79017484Y-145221377D01*
X79020489Y-145018867D01*
X79011955Y-144946849D01*
X78961357Y-144750769D01*
X78874094Y-144571277D01*
X78753854Y-144413418D01*
X78604327Y-144282236D01*
X78465683Y-144199687D01*
X78403367Y-144170127D01*
X78352378Y-144150194D01*
X78301759Y-144137993D01*
X78240556Y-144131629D01*
X78157812Y-144129206D01*
X78056157Y-144128827D01*
X77944013Y-144129386D01*
X77863307Y-144132275D01*
X77803146Y-144139276D01*
X77752638Y-144152174D01*
X77700890Y-144172749D01*
X77653990Y-144194637D01*
X77483664Y-144297620D01*
X77336961Y-144429821D01*
X77219170Y-144585060D01*
X77135582Y-144757154D01*
X77113830Y-144825893D01*
X77089862Y-144965822D01*
X77085065Y-145124282D01*
X76660097Y-145124282D01*
X76659942Y-145121970D01*
X76661948Y-144958975D01*
G37*
X76661948Y-144958975D02*
X76678201Y-144815972D01*
X76679131Y-144811042D01*
X76730103Y-144635703D01*
X76813330Y-144457313D01*
X76921906Y-144288901D01*
X77014318Y-144178566D01*
X77182885Y-144018225D01*
X77352684Y-143896193D01*
X77531205Y-143808909D01*
X77725937Y-143752814D01*
X77944367Y-143724347D01*
X77973548Y-143722563D01*
X78220506Y-143726748D01*
X78447781Y-143767948D01*
X78657828Y-143847095D01*
X78853099Y-143965118D01*
X79036051Y-144122950D01*
X79040407Y-144127332D01*
X79197993Y-144314646D01*
X79318389Y-144518611D01*
X79400967Y-144735177D01*
X79445101Y-144960295D01*
X79450164Y-145189914D01*
X79415531Y-145419985D01*
X79340575Y-145646457D01*
X79291389Y-145750216D01*
X79178965Y-145924862D01*
X79033615Y-146087607D01*
X78864618Y-146229843D01*
X78681252Y-146342962D01*
X78622129Y-146371130D01*
X78435516Y-146434910D01*
X78228588Y-146473557D01*
X78016129Y-146485606D01*
X77812924Y-146469592D01*
X77749240Y-146457642D01*
X77524596Y-146388090D01*
X77316052Y-146283582D01*
X77128259Y-146148130D01*
X76965868Y-145985744D01*
X76833532Y-145800436D01*
X76735902Y-145596216D01*
X76729397Y-145578240D01*
X76694667Y-145446869D01*
X76671182Y-145289690D01*
X76660097Y-145124282D01*
X77085065Y-145124282D01*
X77098596Y-145284272D01*
X77129609Y-145428792D01*
X77146164Y-145477042D01*
X77227592Y-145632091D01*
X77342578Y-145776043D01*
X77482448Y-145900740D01*
X77638527Y-145998025D01*
X77749240Y-146044273D01*
X77826545Y-146065962D01*
X77906247Y-146078047D01*
X78002963Y-146082103D01*
X78089834Y-146080978D01*
X78191801Y-146077120D01*
X78266083Y-146069737D01*
X78327329Y-146055519D01*
X78390188Y-146031153D01*
X78462406Y-145996744D01*
X78637807Y-145887856D01*
X78783301Y-145751507D01*
X78896603Y-145592065D01*
X78975426Y-145413899D01*
X79017484Y-145221377D01*
X79020489Y-145018867D01*
X79011955Y-144946849D01*
X78961357Y-144750769D01*
X78874094Y-144571277D01*
X78753854Y-144413418D01*
X78604327Y-144282236D01*
X78465683Y-144199687D01*
X78403367Y-144170127D01*
X78352378Y-144150194D01*
X78301759Y-144137993D01*
X78240556Y-144131629D01*
X78157812Y-144129206D01*
X78056157Y-144128827D01*
X77944013Y-144129386D01*
X77863307Y-144132275D01*
X77803146Y-144139276D01*
X77752638Y-144152174D01*
X77700890Y-144172749D01*
X77653990Y-144194637D01*
X77483664Y-144297620D01*
X77336961Y-144429821D01*
X77219170Y-144585060D01*
X77135582Y-144757154D01*
X77113830Y-144825893D01*
X77089862Y-144965822D01*
X77085065Y-145124282D01*
X76660097Y-145124282D01*
X76659942Y-145121970D01*
X76661948Y-144958975D01*
G36*
X83855823Y-48847052D02*
G01*
X83263157Y-48847052D01*
X83263157Y-51133052D01*
X82839823Y-51133052D01*
X82839823Y-48847052D01*
X82225990Y-48847052D01*
X82225990Y-48466052D01*
X83855823Y-48466052D01*
X83855823Y-48847052D01*
G37*
X83855823Y-48847052D02*
X83263157Y-48847052D01*
X83263157Y-51133052D01*
X82839823Y-51133052D01*
X82839823Y-48847052D01*
X82225990Y-48847052D01*
X82225990Y-48466052D01*
X83855823Y-48466052D01*
X83855823Y-48847052D01*
G36*
X86294086Y-106626760D02*
G01*
X86295771Y-106854301D01*
X86297539Y-107043466D01*
X86299561Y-107198212D01*
X86302007Y-107322496D01*
X86305046Y-107420276D01*
X86308848Y-107495508D01*
X86313581Y-107552150D01*
X86319417Y-107594159D01*
X86326525Y-107625492D01*
X86335073Y-107650106D01*
X86338270Y-107657496D01*
X86405961Y-107777755D01*
X86490786Y-107868291D01*
X86589070Y-107933411D01*
X86721133Y-107983653D01*
X86861417Y-107999198D01*
X87001211Y-107981971D01*
X87131804Y-107933899D01*
X87244486Y-107856909D01*
X87318373Y-107772119D01*
X87344648Y-107730315D01*
X87366599Y-107687248D01*
X87384610Y-107638832D01*
X87399065Y-107580985D01*
X87410349Y-107509622D01*
X87418847Y-107420660D01*
X87424942Y-107310014D01*
X87429020Y-107173600D01*
X87431464Y-107007335D01*
X87432659Y-106807134D01*
X87432989Y-106568915D01*
X87432990Y-106554438D01*
X87432990Y-105679552D01*
X87858649Y-105679552D01*
X87852024Y-106658510D01*
X87850430Y-106887579D01*
X87848889Y-107078364D01*
X87847199Y-107234915D01*
X87845153Y-107361279D01*
X87842548Y-107461506D01*
X87839180Y-107539645D01*
X87834845Y-107599745D01*
X87829338Y-107645854D01*
X87822455Y-107682022D01*
X87813992Y-107712296D01*
X87803744Y-107740727D01*
X87796522Y-107758915D01*
X87705630Y-107935169D01*
X87585671Y-108090346D01*
X87442695Y-108218206D01*
X87282751Y-108312514D01*
X87243386Y-108329122D01*
X87119851Y-108363194D01*
X86971988Y-108382222D01*
X86815143Y-108385935D01*
X86664659Y-108374063D01*
X86535883Y-108346337D01*
X86522254Y-108341805D01*
X86365628Y-108269397D01*
X86216408Y-108167924D01*
X86098086Y-108055969D01*
X86029417Y-107959731D01*
X85965665Y-107838344D01*
X85914826Y-107708883D01*
X85888261Y-107608029D01*
X85883199Y-107559689D01*
X85878646Y-107473259D01*
X85874692Y-107352979D01*
X85871428Y-107203090D01*
X85868943Y-107027835D01*
X85867326Y-106831452D01*
X85866667Y-106618185D01*
X85866657Y-106586829D01*
X85866657Y-105679552D01*
X86287599Y-105679552D01*
X86294086Y-106626760D01*
G37*
X86294086Y-106626760D02*
X86295771Y-106854301D01*
X86297539Y-107043466D01*
X86299561Y-107198212D01*
X86302007Y-107322496D01*
X86305046Y-107420276D01*
X86308848Y-107495508D01*
X86313581Y-107552150D01*
X86319417Y-107594159D01*
X86326525Y-107625492D01*
X86335073Y-107650106D01*
X86338270Y-107657496D01*
X86405961Y-107777755D01*
X86490786Y-107868291D01*
X86589070Y-107933411D01*
X86721133Y-107983653D01*
X86861417Y-107999198D01*
X87001211Y-107981971D01*
X87131804Y-107933899D01*
X87244486Y-107856909D01*
X87318373Y-107772119D01*
X87344648Y-107730315D01*
X87366599Y-107687248D01*
X87384610Y-107638832D01*
X87399065Y-107580985D01*
X87410349Y-107509622D01*
X87418847Y-107420660D01*
X87424942Y-107310014D01*
X87429020Y-107173600D01*
X87431464Y-107007335D01*
X87432659Y-106807134D01*
X87432989Y-106568915D01*
X87432990Y-106554438D01*
X87432990Y-105679552D01*
X87858649Y-105679552D01*
X87852024Y-106658510D01*
X87850430Y-106887579D01*
X87848889Y-107078364D01*
X87847199Y-107234915D01*
X87845153Y-107361279D01*
X87842548Y-107461506D01*
X87839180Y-107539645D01*
X87834845Y-107599745D01*
X87829338Y-107645854D01*
X87822455Y-107682022D01*
X87813992Y-107712296D01*
X87803744Y-107740727D01*
X87796522Y-107758915D01*
X87705630Y-107935169D01*
X87585671Y-108090346D01*
X87442695Y-108218206D01*
X87282751Y-108312514D01*
X87243386Y-108329122D01*
X87119851Y-108363194D01*
X86971988Y-108382222D01*
X86815143Y-108385935D01*
X86664659Y-108374063D01*
X86535883Y-108346337D01*
X86522254Y-108341805D01*
X86365628Y-108269397D01*
X86216408Y-108167924D01*
X86098086Y-108055969D01*
X86029417Y-107959731D01*
X85965665Y-107838344D01*
X85914826Y-107708883D01*
X85888261Y-107608029D01*
X85883199Y-107559689D01*
X85878646Y-107473259D01*
X85874692Y-107352979D01*
X85871428Y-107203090D01*
X85868943Y-107027835D01*
X85867326Y-106831452D01*
X85866667Y-106618185D01*
X85866657Y-106586829D01*
X85866657Y-105679552D01*
X86287599Y-105679552D01*
X86294086Y-106626760D01*
G36*
X76636953Y-49545982D02*
G01*
X76695292Y-49319660D01*
X76792286Y-49110493D01*
X76927704Y-48918971D01*
X77101312Y-48745584D01*
X77121009Y-48729059D01*
X77305871Y-48597567D01*
X77499290Y-48503445D01*
X77707752Y-48444423D01*
X77937742Y-48418231D01*
X78013823Y-48416424D01*
X78257965Y-48433666D01*
X78483358Y-48488379D01*
X78691531Y-48581281D01*
X78884013Y-48713095D01*
X79062333Y-48884538D01*
X79099758Y-48927578D01*
X79227287Y-49110663D01*
X79321662Y-49314446D01*
X79382105Y-49532350D01*
X79407837Y-49757795D01*
X79398079Y-49984205D01*
X79352052Y-50205001D01*
X79274404Y-50402802D01*
X79149216Y-50609720D01*
X78994866Y-50787874D01*
X78814936Y-50935332D01*
X78613009Y-51050160D01*
X78392667Y-51130426D01*
X78157491Y-51174197D01*
X77911064Y-51179540D01*
X77844490Y-51174286D01*
X77618666Y-51133057D01*
X77409466Y-51055239D01*
X77213377Y-50939109D01*
X77026887Y-50782943D01*
X77006878Y-50763316D01*
X76858977Y-50594129D01*
X76748364Y-50415794D01*
X76672772Y-50222638D01*
X76629935Y-50008989D01*
X76618102Y-49799551D01*
X77040157Y-49799551D01*
X77060178Y-50000082D01*
X77118226Y-50188674D01*
X77211275Y-50360210D01*
X77336300Y-50509573D01*
X77490275Y-50631644D01*
X77554015Y-50668888D01*
X77731291Y-50746532D01*
X77904063Y-50785607D01*
X78081460Y-50787619D01*
X78185559Y-50773244D01*
X78371511Y-50718297D01*
X78539006Y-50628648D01*
X78684735Y-50509125D01*
X78805388Y-50364559D01*
X78897656Y-50199775D01*
X78958231Y-50019605D01*
X78983804Y-49828874D01*
X78971065Y-49632413D01*
X78970334Y-49628090D01*
X78924452Y-49450466D01*
X78848646Y-49292317D01*
X78737433Y-49142828D01*
X78707756Y-49110121D01*
X78559475Y-48980654D01*
X78393927Y-48886976D01*
X78216574Y-48829163D01*
X78032881Y-48807291D01*
X77848311Y-48821436D01*
X77668329Y-48871675D01*
X77498397Y-48958084D01*
X77343981Y-49080739D01*
X77333634Y-49090944D01*
X77201562Y-49249625D01*
X77109221Y-49422401D01*
X77055754Y-49611344D01*
X77040157Y-49799551D01*
X76618102Y-49799551D01*
X76617504Y-49788968D01*
X76636953Y-49545982D01*
G37*
X76636953Y-49545982D02*
X76695292Y-49319660D01*
X76792286Y-49110493D01*
X76927704Y-48918971D01*
X77101312Y-48745584D01*
X77121009Y-48729059D01*
X77305871Y-48597567D01*
X77499290Y-48503445D01*
X77707752Y-48444423D01*
X77937742Y-48418231D01*
X78013823Y-48416424D01*
X78257965Y-48433666D01*
X78483358Y-48488379D01*
X78691531Y-48581281D01*
X78884013Y-48713095D01*
X79062333Y-48884538D01*
X79099758Y-48927578D01*
X79227287Y-49110663D01*
X79321662Y-49314446D01*
X79382105Y-49532350D01*
X79407837Y-49757795D01*
X79398079Y-49984205D01*
X79352052Y-50205001D01*
X79274404Y-50402802D01*
X79149216Y-50609720D01*
X78994866Y-50787874D01*
X78814936Y-50935332D01*
X78613009Y-51050160D01*
X78392667Y-51130426D01*
X78157491Y-51174197D01*
X77911064Y-51179540D01*
X77844490Y-51174286D01*
X77618666Y-51133057D01*
X77409466Y-51055239D01*
X77213377Y-50939109D01*
X77026887Y-50782943D01*
X77006878Y-50763316D01*
X76858977Y-50594129D01*
X76748364Y-50415794D01*
X76672772Y-50222638D01*
X76629935Y-50008989D01*
X76618102Y-49799551D01*
X77040157Y-49799551D01*
X77060178Y-50000082D01*
X77118226Y-50188674D01*
X77211275Y-50360210D01*
X77336300Y-50509573D01*
X77490275Y-50631644D01*
X77554015Y-50668888D01*
X77731291Y-50746532D01*
X77904063Y-50785607D01*
X78081460Y-50787619D01*
X78185559Y-50773244D01*
X78371511Y-50718297D01*
X78539006Y-50628648D01*
X78684735Y-50509125D01*
X78805388Y-50364559D01*
X78897656Y-50199775D01*
X78958231Y-50019605D01*
X78983804Y-49828874D01*
X78971065Y-49632413D01*
X78970334Y-49628090D01*
X78924452Y-49450466D01*
X78848646Y-49292317D01*
X78737433Y-49142828D01*
X78707756Y-49110121D01*
X78559475Y-48980654D01*
X78393927Y-48886976D01*
X78216574Y-48829163D01*
X78032881Y-48807291D01*
X77848311Y-48821436D01*
X77668329Y-48871675D01*
X77498397Y-48958084D01*
X77343981Y-49080739D01*
X77333634Y-49090944D01*
X77201562Y-49249625D01*
X77109221Y-49422401D01*
X77055754Y-49611344D01*
X77040157Y-49799551D01*
X76618102Y-49799551D01*
X76617504Y-49788968D01*
X76636953Y-49545982D01*
G36*
X93973490Y-28040218D02*
G01*
X94925990Y-28040218D01*
X94925990Y-28505885D01*
X93486657Y-28505885D01*
X93486657Y-25309718D01*
X93973490Y-25309718D01*
X93973490Y-28040218D01*
G37*
X93973490Y-28040218D02*
X94925990Y-28040218D01*
X94925990Y-28505885D01*
X93486657Y-28505885D01*
X93486657Y-25309718D01*
X93973490Y-25309718D01*
X93973490Y-28040218D01*
G36*
X92407157Y-68680218D02*
G01*
X93169157Y-68680218D01*
X93169157Y-69018885D01*
X92407157Y-69018885D01*
X92407157Y-69759718D01*
X92068490Y-69759718D01*
X92068490Y-69018885D01*
X91306490Y-69018885D01*
X91306490Y-68680218D01*
X92068490Y-68680218D01*
X92068490Y-67939385D01*
X92407157Y-67939385D01*
X92407157Y-68680218D01*
G37*
X92407157Y-68680218D02*
X93169157Y-68680218D01*
X93169157Y-69018885D01*
X92407157Y-69018885D01*
X92407157Y-69759718D01*
X92068490Y-69759718D01*
X92068490Y-69018885D01*
X91306490Y-69018885D01*
X91306490Y-68680218D01*
X92068490Y-68680218D01*
X92068490Y-67939385D01*
X92407157Y-67939385D01*
X92407157Y-68680218D01*
G36*
X83813490Y-125068218D02*
G01*
X83220823Y-125068218D01*
X83220823Y-127333052D01*
X82797490Y-127333052D01*
X82797490Y-125068218D01*
X82183657Y-125068218D01*
X82183657Y-124666052D01*
X83813490Y-124666052D01*
X83813490Y-125068218D01*
G37*
X83813490Y-125068218D02*
X83220823Y-125068218D01*
X83220823Y-127333052D01*
X82797490Y-127333052D01*
X82797490Y-125068218D01*
X82183657Y-125068218D01*
X82183657Y-124666052D01*
X83813490Y-124666052D01*
X83813490Y-125068218D01*
G36*
X97465990Y-186938385D02*
G01*
X72446990Y-186938385D01*
X72446990Y-185858885D01*
X97465990Y-185858885D01*
X97465990Y-186938385D01*
G37*
X97465990Y-186938385D02*
X72446990Y-186938385D01*
X72446990Y-185858885D01*
X97465990Y-185858885D01*
X97465990Y-186938385D01*
G36*
X90036490Y-67960552D02*
G01*
X89422657Y-67960552D01*
X89422657Y-70246552D01*
X88999323Y-70246552D01*
X88999323Y-67960552D01*
X88385490Y-67960552D01*
X88385490Y-67558385D01*
X90036490Y-67558385D01*
X90036490Y-67960552D01*
G37*
X90036490Y-67960552D02*
X89422657Y-67960552D01*
X89422657Y-70246552D01*
X88999323Y-70246552D01*
X88999323Y-67960552D01*
X88385490Y-67960552D01*
X88385490Y-67558385D01*
X90036490Y-67558385D01*
X90036490Y-67960552D01*
G36*
X97461062Y-31495677D02*
G01*
X97455407Y-32030135D01*
X84951198Y-32035444D01*
X72446990Y-32040754D01*
X72446990Y-30961218D01*
X97466717Y-30961218D01*
X97461062Y-31495677D01*
G37*
X97461062Y-31495677D02*
X97455407Y-32030135D01*
X84951198Y-32035444D01*
X72446990Y-32040754D01*
X72446990Y-30961218D01*
X97466717Y-30961218D01*
X97461062Y-31495677D01*
G36*
X84549587Y-143758385D02*
G01*
X84769231Y-143761562D01*
X84952331Y-143771967D01*
X85104261Y-143790909D01*
X85230395Y-143819697D01*
X85336105Y-143859641D01*
X85426767Y-143912050D01*
X85507753Y-143978233D01*
X85526434Y-143996400D01*
X85635793Y-144135026D01*
X85710403Y-144294232D01*
X85748450Y-144467995D01*
X85748117Y-144650295D01*
X85740297Y-144705545D01*
X85690656Y-144879826D01*
X85607590Y-145029032D01*
X85492443Y-145152234D01*
X85346561Y-145248505D01*
X85171290Y-145316915D01*
X84967974Y-145356536D01*
X84781865Y-145366892D01*
X84660157Y-145367052D01*
X84660157Y-146446552D01*
X84236823Y-146446552D01*
X84236823Y-144969934D01*
X84660157Y-144969934D01*
X84855948Y-144960744D01*
X84971761Y-144952023D01*
X85057327Y-144936988D01*
X85124538Y-144913336D01*
X85139916Y-144905782D01*
X85230649Y-144844965D01*
X85290117Y-144769009D01*
X85323261Y-144669442D01*
X85333855Y-144573395D01*
X85335800Y-144489124D01*
X85329641Y-144431756D01*
X85312455Y-144386177D01*
X85290851Y-144351052D01*
X85219225Y-144270817D01*
X85126644Y-144214637D01*
X85007044Y-144179904D01*
X84855948Y-144164083D01*
X84660157Y-144155502D01*
X84660157Y-144969934D01*
X84236823Y-144969934D01*
X84236823Y-143758385D01*
X84549587Y-143758385D01*
G37*
X84549587Y-143758385D02*
X84769231Y-143761562D01*
X84952331Y-143771967D01*
X85104261Y-143790909D01*
X85230395Y-143819697D01*
X85336105Y-143859641D01*
X85426767Y-143912050D01*
X85507753Y-143978233D01*
X85526434Y-143996400D01*
X85635793Y-144135026D01*
X85710403Y-144294232D01*
X85748450Y-144467995D01*
X85748117Y-144650295D01*
X85740297Y-144705545D01*
X85690656Y-144879826D01*
X85607590Y-145029032D01*
X85492443Y-145152234D01*
X85346561Y-145248505D01*
X85171290Y-145316915D01*
X84967974Y-145356536D01*
X84781865Y-145366892D01*
X84660157Y-145367052D01*
X84660157Y-146446552D01*
X84236823Y-146446552D01*
X84236823Y-144969934D01*
X84660157Y-144969934D01*
X84855948Y-144960744D01*
X84971761Y-144952023D01*
X85057327Y-144936988D01*
X85124538Y-144913336D01*
X85139916Y-144905782D01*
X85230649Y-144844965D01*
X85290117Y-144769009D01*
X85323261Y-144669442D01*
X85333855Y-144573395D01*
X85335800Y-144489124D01*
X85329641Y-144431756D01*
X85312455Y-144386177D01*
X85290851Y-144351052D01*
X85219225Y-144270817D01*
X85126644Y-144214637D01*
X85007044Y-144179904D01*
X84855948Y-144164083D01*
X84660157Y-144155502D01*
X84660157Y-144969934D01*
X84236823Y-144969934D01*
X84236823Y-143758385D01*
X84549587Y-143758385D01*
G36*
X86060941Y-25272792D02*
G01*
X86263387Y-25318018D01*
X86449224Y-25390993D01*
X86626820Y-25495375D01*
X86804544Y-25634825D01*
X86891123Y-25714117D01*
X87082117Y-25896266D01*
X86903012Y-26066968D01*
X86723907Y-26237669D01*
X86596907Y-26105330D01*
X86420618Y-25946892D01*
X86235324Y-25829763D01*
X86040655Y-25753809D01*
X85836239Y-25718894D01*
X85621706Y-25724885D01*
X85568759Y-25732381D01*
X85360047Y-25785799D01*
X85173053Y-25871880D01*
X85009110Y-25986333D01*
X84869549Y-26124866D01*
X84755703Y-26283190D01*
X84668906Y-26457013D01*
X84610488Y-26642045D01*
X84581783Y-26833994D01*
X84584124Y-27028571D01*
X84618842Y-27221484D01*
X84687270Y-27408443D01*
X84790741Y-27585156D01*
X84930587Y-27747334D01*
X84940171Y-27756516D01*
X85117072Y-27900307D01*
X85301872Y-28005915D01*
X85491184Y-28073209D01*
X85681621Y-28102062D01*
X85869797Y-28092345D01*
X86052326Y-28043930D01*
X86225821Y-27956687D01*
X86386895Y-27830488D01*
X86405772Y-27812182D01*
X86495186Y-27707404D01*
X86573626Y-27585571D01*
X86632676Y-27461343D01*
X86660683Y-27368177D01*
X86674353Y-27299385D01*
X85866657Y-27299385D01*
X85866657Y-26833718D01*
X87225890Y-26833718D01*
X87211222Y-27050677D01*
X87201252Y-27165330D01*
X87187189Y-27285741D01*
X87171479Y-27391934D01*
X87165197Y-27426385D01*
X87099765Y-27651421D01*
X86997532Y-27860834D01*
X86862412Y-28050593D01*
X86698321Y-28216666D01*
X86509173Y-28355020D01*
X86298883Y-28461622D01*
X86097107Y-28526529D01*
X85906717Y-28557975D01*
X85699058Y-28568082D01*
X85492244Y-28556873D01*
X85308933Y-28525499D01*
X85093656Y-28452843D01*
X84882725Y-28344243D01*
X84685574Y-28205779D01*
X84511636Y-28043533D01*
X84448690Y-27970895D01*
X84299316Y-27753878D01*
X84186895Y-27519318D01*
X84112734Y-27271717D01*
X84078142Y-27015575D01*
X84084425Y-26755396D01*
X84087581Y-26727434D01*
X84131967Y-26480690D01*
X84203755Y-26260791D01*
X84306805Y-26059401D01*
X84444976Y-25868184D01*
X84529653Y-25772488D01*
X84722091Y-25591936D01*
X84925102Y-25450913D01*
X85141965Y-25348111D01*
X85375958Y-25282218D01*
X85630356Y-25251927D01*
X85833515Y-25251655D01*
X86060941Y-25272792D01*
G37*
X86060941Y-25272792D02*
X86263387Y-25318018D01*
X86449224Y-25390993D01*
X86626820Y-25495375D01*
X86804544Y-25634825D01*
X86891123Y-25714117D01*
X87082117Y-25896266D01*
X86903012Y-26066968D01*
X86723907Y-26237669D01*
X86596907Y-26105330D01*
X86420618Y-25946892D01*
X86235324Y-25829763D01*
X86040655Y-25753809D01*
X85836239Y-25718894D01*
X85621706Y-25724885D01*
X85568759Y-25732381D01*
X85360047Y-25785799D01*
X85173053Y-25871880D01*
X85009110Y-25986333D01*
X84869549Y-26124866D01*
X84755703Y-26283190D01*
X84668906Y-26457013D01*
X84610488Y-26642045D01*
X84581783Y-26833994D01*
X84584124Y-27028571D01*
X84618842Y-27221484D01*
X84687270Y-27408443D01*
X84790741Y-27585156D01*
X84930587Y-27747334D01*
X84940171Y-27756516D01*
X85117072Y-27900307D01*
X85301872Y-28005915D01*
X85491184Y-28073209D01*
X85681621Y-28102062D01*
X85869797Y-28092345D01*
X86052326Y-28043930D01*
X86225821Y-27956687D01*
X86386895Y-27830488D01*
X86405772Y-27812182D01*
X86495186Y-27707404D01*
X86573626Y-27585571D01*
X86632676Y-27461343D01*
X86660683Y-27368177D01*
X86674353Y-27299385D01*
X85866657Y-27299385D01*
X85866657Y-26833718D01*
X87225890Y-26833718D01*
X87211222Y-27050677D01*
X87201252Y-27165330D01*
X87187189Y-27285741D01*
X87171479Y-27391934D01*
X87165197Y-27426385D01*
X87099765Y-27651421D01*
X86997532Y-27860834D01*
X86862412Y-28050593D01*
X86698321Y-28216666D01*
X86509173Y-28355020D01*
X86298883Y-28461622D01*
X86097107Y-28526529D01*
X85906717Y-28557975D01*
X85699058Y-28568082D01*
X85492244Y-28556873D01*
X85308933Y-28525499D01*
X85093656Y-28452843D01*
X84882725Y-28344243D01*
X84685574Y-28205779D01*
X84511636Y-28043533D01*
X84448690Y-27970895D01*
X84299316Y-27753878D01*
X84186895Y-27519318D01*
X84112734Y-27271717D01*
X84078142Y-27015575D01*
X84084425Y-26755396D01*
X84087581Y-26727434D01*
X84131967Y-26480690D01*
X84203755Y-26260791D01*
X84306805Y-26059401D01*
X84444976Y-25868184D01*
X84529653Y-25772488D01*
X84722091Y-25591936D01*
X84925102Y-25450913D01*
X85141965Y-25348111D01*
X85375958Y-25282218D01*
X85630356Y-25251927D01*
X85833515Y-25251655D01*
X86060941Y-25272792D01*
G36*
X83622990Y-25775385D02*
G01*
X82352990Y-25775385D01*
X82352990Y-26516218D01*
X83580657Y-26516218D01*
X83580657Y-27003052D01*
X82352990Y-27003052D01*
X82352990Y-28040218D01*
X83622990Y-28040218D01*
X83622990Y-28505885D01*
X81844990Y-28505885D01*
X81844990Y-25309718D01*
X83622990Y-25309718D01*
X83622990Y-25775385D01*
G37*
X83622990Y-25775385D02*
X82352990Y-25775385D01*
X82352990Y-26516218D01*
X83580657Y-26516218D01*
X83580657Y-27003052D01*
X82352990Y-27003052D01*
X82352990Y-28040218D01*
X83622990Y-28040218D01*
X83622990Y-28505885D01*
X81844990Y-28505885D01*
X81844990Y-25309718D01*
X83622990Y-25309718D01*
X83622990Y-25775385D01*
G36*
X84654865Y-48470611D02*
G01*
X84809028Y-48473847D01*
X84927734Y-48477424D01*
X85017856Y-48482026D01*
X85086269Y-48488337D01*
X85139847Y-48497041D01*
X85185465Y-48508822D01*
X85229997Y-48524365D01*
X85242084Y-48529043D01*
X85374019Y-48600708D01*
X85495213Y-48703592D01*
X85594681Y-48826703D01*
X85655287Y-48942458D01*
X85691229Y-49076144D01*
X85706596Y-49229208D01*
X85701004Y-49383960D01*
X85674068Y-49522707D01*
X85668284Y-49540693D01*
X85594891Y-49692886D01*
X85488622Y-49820467D01*
X85352105Y-49921874D01*
X85187971Y-49995549D01*
X84998847Y-50039932D01*
X84803876Y-50053552D01*
X84617823Y-50053552D01*
X84617823Y-51133052D01*
X84194490Y-51133052D01*
X84194490Y-49678839D01*
X84617823Y-49678839D01*
X84795591Y-49666294D01*
X84890211Y-49656183D01*
X84979170Y-49640820D01*
X85045751Y-49623203D01*
X85054593Y-49619807D01*
X85167420Y-49555500D01*
X85243685Y-49470710D01*
X85285371Y-49362463D01*
X85295157Y-49258760D01*
X85280125Y-49128943D01*
X85236148Y-49024879D01*
X85168143Y-48952875D01*
X85092039Y-48913822D01*
X84988208Y-48880797D01*
X84871187Y-48857396D01*
X84755514Y-48847217D01*
X84740376Y-48847052D01*
X84617823Y-48847052D01*
X84617823Y-49678839D01*
X84194490Y-49678839D01*
X84194490Y-48461906D01*
X84654865Y-48470611D01*
G37*
X84654865Y-48470611D02*
X84809028Y-48473847D01*
X84927734Y-48477424D01*
X85017856Y-48482026D01*
X85086269Y-48488337D01*
X85139847Y-48497041D01*
X85185465Y-48508822D01*
X85229997Y-48524365D01*
X85242084Y-48529043D01*
X85374019Y-48600708D01*
X85495213Y-48703592D01*
X85594681Y-48826703D01*
X85655287Y-48942458D01*
X85691229Y-49076144D01*
X85706596Y-49229208D01*
X85701004Y-49383960D01*
X85674068Y-49522707D01*
X85668284Y-49540693D01*
X85594891Y-49692886D01*
X85488622Y-49820467D01*
X85352105Y-49921874D01*
X85187971Y-49995549D01*
X84998847Y-50039932D01*
X84803876Y-50053552D01*
X84617823Y-50053552D01*
X84617823Y-51133052D01*
X84194490Y-51133052D01*
X84194490Y-49678839D01*
X84617823Y-49678839D01*
X84795591Y-49666294D01*
X84890211Y-49656183D01*
X84979170Y-49640820D01*
X85045751Y-49623203D01*
X85054593Y-49619807D01*
X85167420Y-49555500D01*
X85243685Y-49470710D01*
X85285371Y-49362463D01*
X85295157Y-49258760D01*
X85280125Y-49128943D01*
X85236148Y-49024879D01*
X85168143Y-48952875D01*
X85092039Y-48913822D01*
X84988208Y-48880797D01*
X84871187Y-48857396D01*
X84755514Y-48847217D01*
X84740376Y-48847052D01*
X84617823Y-48847052D01*
X84617823Y-49678839D01*
X84194490Y-49678839D01*
X84194490Y-48461906D01*
X84654865Y-48470611D01*
G36*
X89845990Y-106060552D02*
G01*
X89232157Y-106060552D01*
X89232157Y-108346552D01*
X88808823Y-108346552D01*
X88808823Y-106060552D01*
X88194990Y-106060552D01*
X88194990Y-105679552D01*
X89845990Y-105679552D01*
X89845990Y-106060552D01*
G37*
X89845990Y-106060552D02*
X89232157Y-106060552D01*
X89232157Y-108346552D01*
X88808823Y-108346552D01*
X88808823Y-106060552D01*
X88194990Y-106060552D01*
X88194990Y-105679552D01*
X89845990Y-105679552D01*
X89845990Y-106060552D01*
G36*
X86565157Y-144622331D02*
G01*
X86565572Y-144875899D01*
X86567223Y-145090988D01*
X86570718Y-145271449D01*
X86576662Y-145421132D01*
X86585664Y-145543886D01*
X86598331Y-145643563D01*
X86615269Y-145724011D01*
X86637086Y-145789082D01*
X86664389Y-145842625D01*
X86697785Y-145888491D01*
X86737881Y-145930529D01*
X86776979Y-145965524D01*
X86883126Y-146035628D01*
X87004769Y-146074524D01*
X87149577Y-146084327D01*
X87198838Y-146081899D01*
X87351209Y-146052513D01*
X87479153Y-145989089D01*
X87580435Y-145893566D01*
X87652817Y-145767880D01*
X87685683Y-145660260D01*
X87691495Y-145610820D01*
X87696550Y-145522014D01*
X87700779Y-145396805D01*
X87704116Y-145238157D01*
X87706496Y-145049031D01*
X87707852Y-144832390D01*
X87708157Y-144656926D01*
X87708157Y-143758385D01*
X88131490Y-143758385D01*
X88131239Y-144705593D01*
X88131033Y-144944136D01*
X88130311Y-145144598D01*
X88128709Y-145311231D01*
X88125863Y-145448288D01*
X88121409Y-145560021D01*
X88114984Y-145650683D01*
X88106224Y-145724525D01*
X88094766Y-145785800D01*
X88080244Y-145838760D01*
X88062297Y-145887658D01*
X88040560Y-145936746D01*
X88022763Y-145973764D01*
X87961212Y-146071412D01*
X87873612Y-146174350D01*
X87772354Y-146270134D01*
X87669831Y-146346322D01*
X87628001Y-146370182D01*
X87431271Y-146446588D01*
X87224029Y-146483267D01*
X87012047Y-146479568D01*
X86874285Y-146455163D01*
X86698731Y-146391732D01*
X86536563Y-146289193D01*
X86414333Y-146177315D01*
X86356575Y-146114462D01*
X86307606Y-146054668D01*
X86266706Y-145993907D01*
X86233149Y-145928154D01*
X86206212Y-145853383D01*
X86185172Y-145765569D01*
X86169306Y-145660688D01*
X86157889Y-145534713D01*
X86150198Y-145383620D01*
X86145511Y-145203383D01*
X86143102Y-144989976D01*
X86142249Y-144739376D01*
X86142191Y-144663260D01*
X86141823Y-143758385D01*
X86565157Y-143758385D01*
X86565157Y-144622331D01*
G37*
X86565157Y-144622331D02*
X86565572Y-144875899D01*
X86567223Y-145090988D01*
X86570718Y-145271449D01*
X86576662Y-145421132D01*
X86585664Y-145543886D01*
X86598331Y-145643563D01*
X86615269Y-145724011D01*
X86637086Y-145789082D01*
X86664389Y-145842625D01*
X86697785Y-145888491D01*
X86737881Y-145930529D01*
X86776979Y-145965524D01*
X86883126Y-146035628D01*
X87004769Y-146074524D01*
X87149577Y-146084327D01*
X87198838Y-146081899D01*
X87351209Y-146052513D01*
X87479153Y-145989089D01*
X87580435Y-145893566D01*
X87652817Y-145767880D01*
X87685683Y-145660260D01*
X87691495Y-145610820D01*
X87696550Y-145522014D01*
X87700779Y-145396805D01*
X87704116Y-145238157D01*
X87706496Y-145049031D01*
X87707852Y-144832390D01*
X87708157Y-144656926D01*
X87708157Y-143758385D01*
X88131490Y-143758385D01*
X88131239Y-144705593D01*
X88131033Y-144944136D01*
X88130311Y-145144598D01*
X88128709Y-145311231D01*
X88125863Y-145448288D01*
X88121409Y-145560021D01*
X88114984Y-145650683D01*
X88106224Y-145724525D01*
X88094766Y-145785800D01*
X88080244Y-145838760D01*
X88062297Y-145887658D01*
X88040560Y-145936746D01*
X88022763Y-145973764D01*
X87961212Y-146071412D01*
X87873612Y-146174350D01*
X87772354Y-146270134D01*
X87669831Y-146346322D01*
X87628001Y-146370182D01*
X87431271Y-146446588D01*
X87224029Y-146483267D01*
X87012047Y-146479568D01*
X86874285Y-146455163D01*
X86698731Y-146391732D01*
X86536563Y-146289193D01*
X86414333Y-146177315D01*
X86356575Y-146114462D01*
X86307606Y-146054668D01*
X86266706Y-145993907D01*
X86233149Y-145928154D01*
X86206212Y-145853383D01*
X86185172Y-145765569D01*
X86169306Y-145660688D01*
X86157889Y-145534713D01*
X86150198Y-145383620D01*
X86145511Y-145203383D01*
X86143102Y-144989976D01*
X86142249Y-144739376D01*
X86142191Y-144663260D01*
X86141823Y-143758385D01*
X86565157Y-143758385D01*
X86565157Y-144622331D01*
G36*
X80325269Y-49413260D02*
G01*
X80326797Y-49638023D01*
X80328263Y-49824539D01*
X80329886Y-49976894D01*
X80331887Y-50099173D01*
X80334484Y-50195464D01*
X80337897Y-50269850D01*
X80342347Y-50326418D01*
X80348052Y-50369254D01*
X80355232Y-50402443D01*
X80364106Y-50430071D01*
X80374895Y-50456224D01*
X80382201Y-50472514D01*
X80457707Y-50592714D01*
X80558460Y-50684825D01*
X80677513Y-50748252D01*
X80807923Y-50782398D01*
X80942743Y-50786666D01*
X81075028Y-50760460D01*
X81197834Y-50703185D01*
X81304214Y-50614243D01*
X81350489Y-50555644D01*
X81376414Y-50514440D01*
X81398102Y-50470927D01*
X81415925Y-50421079D01*
X81430254Y-50360870D01*
X81441463Y-50286273D01*
X81449921Y-50193263D01*
X81456003Y-50077813D01*
X81460078Y-49935898D01*
X81462520Y-49763492D01*
X81463699Y-49556568D01*
X81463990Y-49326859D01*
X81463990Y-48466052D01*
X81887323Y-48466052D01*
X81886956Y-49370927D01*
X81886567Y-49614707D01*
X81885365Y-49820400D01*
X81882972Y-49992251D01*
X81879010Y-50134502D01*
X81873102Y-50251399D01*
X81864871Y-50347184D01*
X81853938Y-50426103D01*
X81839927Y-50492399D01*
X81822459Y-50550316D01*
X81801158Y-50604099D01*
X81775646Y-50657991D01*
X81771797Y-50665627D01*
X81666713Y-50828152D01*
X81532486Y-50962157D01*
X81372825Y-51065822D01*
X81191440Y-51137327D01*
X80992041Y-51174849D01*
X80778338Y-51176569D01*
X80738369Y-51172907D01*
X80560083Y-51133405D01*
X80391976Y-51057197D01*
X80239838Y-50949634D01*
X80109463Y-50816068D01*
X80006641Y-50661850D01*
X79937167Y-50492333D01*
X79918935Y-50415787D01*
X79914118Y-50368550D01*
X79909741Y-50283481D01*
X79905897Y-50165081D01*
X79902678Y-50017850D01*
X79900177Y-49846290D01*
X79898488Y-49654900D01*
X79897702Y-49448180D01*
X79897657Y-49383912D01*
X79897657Y-48466052D01*
X80318964Y-48466052D01*
X80325269Y-49413260D01*
G37*
X80325269Y-49413260D02*
X80326797Y-49638023D01*
X80328263Y-49824539D01*
X80329886Y-49976894D01*
X80331887Y-50099173D01*
X80334484Y-50195464D01*
X80337897Y-50269850D01*
X80342347Y-50326418D01*
X80348052Y-50369254D01*
X80355232Y-50402443D01*
X80364106Y-50430071D01*
X80374895Y-50456224D01*
X80382201Y-50472514D01*
X80457707Y-50592714D01*
X80558460Y-50684825D01*
X80677513Y-50748252D01*
X80807923Y-50782398D01*
X80942743Y-50786666D01*
X81075028Y-50760460D01*
X81197834Y-50703185D01*
X81304214Y-50614243D01*
X81350489Y-50555644D01*
X81376414Y-50514440D01*
X81398102Y-50470927D01*
X81415925Y-50421079D01*
X81430254Y-50360870D01*
X81441463Y-50286273D01*
X81449921Y-50193263D01*
X81456003Y-50077813D01*
X81460078Y-49935898D01*
X81462520Y-49763492D01*
X81463699Y-49556568D01*
X81463990Y-49326859D01*
X81463990Y-48466052D01*
X81887323Y-48466052D01*
X81886956Y-49370927D01*
X81886567Y-49614707D01*
X81885365Y-49820400D01*
X81882972Y-49992251D01*
X81879010Y-50134502D01*
X81873102Y-50251399D01*
X81864871Y-50347184D01*
X81853938Y-50426103D01*
X81839927Y-50492399D01*
X81822459Y-50550316D01*
X81801158Y-50604099D01*
X81775646Y-50657991D01*
X81771797Y-50665627D01*
X81666713Y-50828152D01*
X81532486Y-50962157D01*
X81372825Y-51065822D01*
X81191440Y-51137327D01*
X80992041Y-51174849D01*
X80778338Y-51176569D01*
X80738369Y-51172907D01*
X80560083Y-51133405D01*
X80391976Y-51057197D01*
X80239838Y-50949634D01*
X80109463Y-50816068D01*
X80006641Y-50661850D01*
X79937167Y-50492333D01*
X79918935Y-50415787D01*
X79914118Y-50368550D01*
X79909741Y-50283481D01*
X79905897Y-50165081D01*
X79902678Y-50017850D01*
X79900177Y-49846290D01*
X79898488Y-49654900D01*
X79897702Y-49448180D01*
X79897657Y-49383912D01*
X79897657Y-48466052D01*
X80318964Y-48466052D01*
X80325269Y-49413260D01*
G36*
X90036490Y-125068218D02*
G01*
X89422657Y-125068218D01*
X89422657Y-127333052D01*
X88999323Y-127333052D01*
X88999323Y-125069380D01*
X88697698Y-125063508D01*
X88396073Y-125057635D01*
X88389987Y-124861843D01*
X88383901Y-124666052D01*
X90036490Y-124666052D01*
X90036490Y-125068218D01*
G37*
X90036490Y-125068218D02*
X89422657Y-125068218D01*
X89422657Y-127333052D01*
X88999323Y-127333052D01*
X88999323Y-125069380D01*
X88697698Y-125063508D01*
X88396073Y-125057635D01*
X88389987Y-124861843D01*
X88383901Y-124666052D01*
X90036490Y-124666052D01*
X90036490Y-125068218D01*
G36*
X86480490Y-68422331D02*
G01*
X86480872Y-68663924D01*
X86482211Y-68867259D01*
X86484797Y-69036405D01*
X86488921Y-69175433D01*
X86494871Y-69288413D01*
X86502938Y-69379413D01*
X86513412Y-69452504D01*
X86526582Y-69511756D01*
X86542738Y-69561238D01*
X86562171Y-69605021D01*
X86565145Y-69610880D01*
X86646337Y-69724181D01*
X86756226Y-69810480D01*
X86887994Y-69865815D01*
X87034824Y-69886224D01*
X87038951Y-69886253D01*
X87176195Y-69876484D01*
X87289029Y-69842835D01*
X87390827Y-69780520D01*
X87432782Y-69745302D01*
X87473021Y-69709001D01*
X87506763Y-69676027D01*
X87534605Y-69642443D01*
X87557144Y-69604310D01*
X87574978Y-69557688D01*
X87588704Y-69498639D01*
X87598919Y-69423223D01*
X87606220Y-69327502D01*
X87611206Y-69207537D01*
X87614474Y-69059388D01*
X87616621Y-68879118D01*
X87618244Y-68662786D01*
X87619201Y-68516177D01*
X87625496Y-67558385D01*
X88046823Y-67558385D01*
X88046823Y-68495854D01*
X88046654Y-68735765D01*
X88045887Y-68937609D01*
X88044137Y-69105650D01*
X88041017Y-69244154D01*
X88036140Y-69357386D01*
X88029119Y-69449611D01*
X88019569Y-69525094D01*
X88007102Y-69588101D01*
X87991332Y-69642897D01*
X87971872Y-69693747D01*
X87948336Y-69744916D01*
X87930333Y-69781030D01*
X87863994Y-69883553D01*
X87771326Y-69989493D01*
X87665090Y-70086023D01*
X87558048Y-70160317D01*
X87546708Y-70166616D01*
X87380420Y-70235098D01*
X87195106Y-70275116D01*
X87004563Y-70284938D01*
X86822592Y-70262831D01*
X86807696Y-70259360D01*
X86631303Y-70198095D01*
X86471392Y-70102229D01*
X86381932Y-70028179D01*
X86271325Y-69914613D01*
X86189239Y-69797908D01*
X86124159Y-69661162D01*
X86114056Y-69634965D01*
X86103588Y-69605432D01*
X86094850Y-69574836D01*
X86087650Y-69539124D01*
X86081795Y-69494245D01*
X86077094Y-69436147D01*
X86073354Y-69360778D01*
X86070382Y-69264086D01*
X86067988Y-69142021D01*
X86065979Y-68990529D01*
X86064162Y-68805560D01*
X86062345Y-68583062D01*
X86061993Y-68537343D01*
X86054488Y-67558385D01*
X86480490Y-67558385D01*
X86480490Y-68422331D01*
G37*
X86480490Y-68422331D02*
X86480872Y-68663924D01*
X86482211Y-68867259D01*
X86484797Y-69036405D01*
X86488921Y-69175433D01*
X86494871Y-69288413D01*
X86502938Y-69379413D01*
X86513412Y-69452504D01*
X86526582Y-69511756D01*
X86542738Y-69561238D01*
X86562171Y-69605021D01*
X86565145Y-69610880D01*
X86646337Y-69724181D01*
X86756226Y-69810480D01*
X86887994Y-69865815D01*
X87034824Y-69886224D01*
X87038951Y-69886253D01*
X87176195Y-69876484D01*
X87289029Y-69842835D01*
X87390827Y-69780520D01*
X87432782Y-69745302D01*
X87473021Y-69709001D01*
X87506763Y-69676027D01*
X87534605Y-69642443D01*
X87557144Y-69604310D01*
X87574978Y-69557688D01*
X87588704Y-69498639D01*
X87598919Y-69423223D01*
X87606220Y-69327502D01*
X87611206Y-69207537D01*
X87614474Y-69059388D01*
X87616621Y-68879118D01*
X87618244Y-68662786D01*
X87619201Y-68516177D01*
X87625496Y-67558385D01*
X88046823Y-67558385D01*
X88046823Y-68495854D01*
X88046654Y-68735765D01*
X88045887Y-68937609D01*
X88044137Y-69105650D01*
X88041017Y-69244154D01*
X88036140Y-69357386D01*
X88029119Y-69449611D01*
X88019569Y-69525094D01*
X88007102Y-69588101D01*
X87991332Y-69642897D01*
X87971872Y-69693747D01*
X87948336Y-69744916D01*
X87930333Y-69781030D01*
X87863994Y-69883553D01*
X87771326Y-69989493D01*
X87665090Y-70086023D01*
X87558048Y-70160317D01*
X87546708Y-70166616D01*
X87380420Y-70235098D01*
X87195106Y-70275116D01*
X87004563Y-70284938D01*
X86822592Y-70262831D01*
X86807696Y-70259360D01*
X86631303Y-70198095D01*
X86471392Y-70102229D01*
X86381932Y-70028179D01*
X86271325Y-69914613D01*
X86189239Y-69797908D01*
X86124159Y-69661162D01*
X86114056Y-69634965D01*
X86103588Y-69605432D01*
X86094850Y-69574836D01*
X86087650Y-69539124D01*
X86081795Y-69494245D01*
X86077094Y-69436147D01*
X86073354Y-69360778D01*
X86070382Y-69264086D01*
X86067988Y-69142021D01*
X86065979Y-68990529D01*
X86064162Y-68805560D01*
X86062345Y-68583062D01*
X86061993Y-68537343D01*
X86054488Y-67558385D01*
X86480490Y-67558385D01*
X86480490Y-68422331D01*
G36*
X92491823Y-144880218D02*
G01*
X93253823Y-144880218D01*
X93253823Y-145218885D01*
X92491823Y-145218885D01*
X92491823Y-145959718D01*
X92153157Y-145959718D01*
X92153157Y-145218885D01*
X91391157Y-145218885D01*
X91391157Y-144880218D01*
X92153157Y-144880218D01*
X92153157Y-144139385D01*
X92491823Y-144139385D01*
X92491823Y-144880218D01*
G37*
X92491823Y-144880218D02*
X93253823Y-144880218D01*
X93253823Y-145218885D01*
X92491823Y-145218885D01*
X92491823Y-145959718D01*
X92153157Y-145959718D01*
X92153157Y-145218885D01*
X91391157Y-145218885D01*
X91391157Y-144880218D01*
X92153157Y-144880218D01*
X92153157Y-144139385D01*
X92491823Y-144139385D01*
X92491823Y-144880218D01*
G36*
X90768085Y-26809534D02*
G01*
X90869945Y-26591014D01*
X90970120Y-26376027D01*
X91066980Y-26168065D01*
X91158897Y-25970620D01*
X91244242Y-25787187D01*
X91321387Y-25621257D01*
X91388702Y-25476324D01*
X91444561Y-25355881D01*
X91487332Y-25263419D01*
X91515389Y-25202434D01*
X91523690Y-25184171D01*
X91549395Y-25129042D01*
X91565205Y-25107976D01*
X91578556Y-25116414D01*
X91592719Y-25141837D01*
X91604605Y-25167246D01*
X91632244Y-25227780D01*
X91674062Y-25319941D01*
X91728485Y-25440228D01*
X91793940Y-25585143D01*
X91868852Y-25751185D01*
X91951648Y-25934856D01*
X92040753Y-26132656D01*
X92134595Y-26341086D01*
X92231598Y-26556646D01*
X92330190Y-26775837D01*
X92428796Y-26995159D01*
X92525842Y-27211113D01*
X92619756Y-27420200D01*
X92708962Y-27618920D01*
X92791887Y-27803773D01*
X92866957Y-27971261D01*
X92932598Y-28117883D01*
X92987237Y-28240141D01*
X93029299Y-28334535D01*
X93057211Y-28397566D01*
X93065504Y-28416537D01*
X93104676Y-28507107D01*
X92827062Y-28501204D01*
X92549448Y-28495302D01*
X92227240Y-27744204D01*
X91548722Y-27744044D01*
X90870204Y-27743885D01*
X90699166Y-28119593D01*
X90528128Y-28495302D01*
X90249695Y-28501214D01*
X89971261Y-28507126D01*
X90002141Y-28447409D01*
X90015057Y-28420566D01*
X90044201Y-28358833D01*
X90087946Y-28265704D01*
X90144663Y-28144671D01*
X90212723Y-27999227D01*
X90290497Y-27832864D01*
X90376357Y-27649077D01*
X90468675Y-27451357D01*
X90565821Y-27243198D01*
X90568428Y-27237609D01*
X91098351Y-27237609D01*
X91116358Y-27243797D01*
X91172124Y-27249028D01*
X91261085Y-27253107D01*
X91378673Y-27255835D01*
X91520322Y-27257018D01*
X91550407Y-27257052D01*
X91701415Y-27256807D01*
X91815072Y-27255815D01*
X91896357Y-27253687D01*
X91950251Y-27250036D01*
X91981735Y-27244473D01*
X91995788Y-27236611D01*
X91997392Y-27226062D01*
X91996194Y-27222327D01*
X91974427Y-27168470D01*
X91940830Y-27088868D01*
X91898170Y-26989761D01*
X91849216Y-26877389D01*
X91796736Y-26757994D01*
X91743498Y-26637814D01*
X91692270Y-26523092D01*
X91645821Y-26420066D01*
X91606918Y-26334978D01*
X91578330Y-26274067D01*
X91562824Y-26243575D01*
X91560999Y-26241244D01*
X91550537Y-26259520D01*
X91525410Y-26310159D01*
X91488482Y-26386993D01*
X91442617Y-26483852D01*
X91390681Y-26594567D01*
X91335538Y-26712968D01*
X91280052Y-26832886D01*
X91227089Y-26948151D01*
X91179513Y-27052594D01*
X91140188Y-27140046D01*
X91111980Y-27204338D01*
X91098351Y-27237609D01*
X90568428Y-27237609D01*
X90666167Y-27028093D01*
X90768085Y-26809534D01*
G37*
X90768085Y-26809534D02*
X90869945Y-26591014D01*
X90970120Y-26376027D01*
X91066980Y-26168065D01*
X91158897Y-25970620D01*
X91244242Y-25787187D01*
X91321387Y-25621257D01*
X91388702Y-25476324D01*
X91444561Y-25355881D01*
X91487332Y-25263419D01*
X91515389Y-25202434D01*
X91523690Y-25184171D01*
X91549395Y-25129042D01*
X91565205Y-25107976D01*
X91578556Y-25116414D01*
X91592719Y-25141837D01*
X91604605Y-25167246D01*
X91632244Y-25227780D01*
X91674062Y-25319941D01*
X91728485Y-25440228D01*
X91793940Y-25585143D01*
X91868852Y-25751185D01*
X91951648Y-25934856D01*
X92040753Y-26132656D01*
X92134595Y-26341086D01*
X92231598Y-26556646D01*
X92330190Y-26775837D01*
X92428796Y-26995159D01*
X92525842Y-27211113D01*
X92619756Y-27420200D01*
X92708962Y-27618920D01*
X92791887Y-27803773D01*
X92866957Y-27971261D01*
X92932598Y-28117883D01*
X92987237Y-28240141D01*
X93029299Y-28334535D01*
X93057211Y-28397566D01*
X93065504Y-28416537D01*
X93104676Y-28507107D01*
X92827062Y-28501204D01*
X92549448Y-28495302D01*
X92227240Y-27744204D01*
X91548722Y-27744044D01*
X90870204Y-27743885D01*
X90699166Y-28119593D01*
X90528128Y-28495302D01*
X90249695Y-28501214D01*
X89971261Y-28507126D01*
X90002141Y-28447409D01*
X90015057Y-28420566D01*
X90044201Y-28358833D01*
X90087946Y-28265704D01*
X90144663Y-28144671D01*
X90212723Y-27999227D01*
X90290497Y-27832864D01*
X90376357Y-27649077D01*
X90468675Y-27451357D01*
X90565821Y-27243198D01*
X90568428Y-27237609D01*
X91098351Y-27237609D01*
X91116358Y-27243797D01*
X91172124Y-27249028D01*
X91261085Y-27253107D01*
X91378673Y-27255835D01*
X91520322Y-27257018D01*
X91550407Y-27257052D01*
X91701415Y-27256807D01*
X91815072Y-27255815D01*
X91896357Y-27253687D01*
X91950251Y-27250036D01*
X91981735Y-27244473D01*
X91995788Y-27236611D01*
X91997392Y-27226062D01*
X91996194Y-27222327D01*
X91974427Y-27168470D01*
X91940830Y-27088868D01*
X91898170Y-26989761D01*
X91849216Y-26877389D01*
X91796736Y-26757994D01*
X91743498Y-26637814D01*
X91692270Y-26523092D01*
X91645821Y-26420066D01*
X91606918Y-26334978D01*
X91578330Y-26274067D01*
X91562824Y-26243575D01*
X91560999Y-26241244D01*
X91550537Y-26259520D01*
X91525410Y-26310159D01*
X91488482Y-26386993D01*
X91442617Y-26483852D01*
X91390681Y-26594567D01*
X91335538Y-26712968D01*
X91280052Y-26832886D01*
X91227089Y-26948151D01*
X91179513Y-27052594D01*
X91140188Y-27140046D01*
X91111980Y-27204338D01*
X91098351Y-27237609D01*
X90568428Y-27237609D01*
X90666167Y-27028093D01*
X90768085Y-26809534D01*
G36*
X97465990Y-110569052D02*
G01*
X72446990Y-110569052D01*
X72446990Y-110018718D01*
X97465990Y-110018718D01*
X97465990Y-110569052D01*
G37*
X97465990Y-110569052D02*
X72446990Y-110569052D01*
X72446990Y-110018718D01*
X97465990Y-110018718D01*
X97465990Y-110569052D01*
G36*
X88295532Y-25315510D02*
G01*
X88482636Y-25320203D01*
X88634127Y-25326585D01*
X88756720Y-25335710D01*
X88857130Y-25348634D01*
X88942072Y-25366412D01*
X89018262Y-25390099D01*
X89092415Y-25420752D01*
X89153481Y-25450338D01*
X89296711Y-25545625D01*
X89414619Y-25670127D01*
X89505518Y-25817937D01*
X89567719Y-25983146D01*
X89599533Y-26159846D01*
X89599270Y-26342131D01*
X89565243Y-26524091D01*
X89505236Y-26680887D01*
X89431026Y-26807897D01*
X89339161Y-26914761D01*
X89222841Y-27007267D01*
X89075266Y-27091207D01*
X88963581Y-27142129D01*
X88952345Y-27149104D01*
X88947644Y-27160645D01*
X88951657Y-27180228D01*
X88966564Y-27211328D01*
X88994544Y-27257421D01*
X89037778Y-27321984D01*
X89098443Y-27408491D01*
X89178719Y-27520419D01*
X89280786Y-27661244D01*
X89340896Y-27743885D01*
X89444319Y-27886091D01*
X89542382Y-28021123D01*
X89631629Y-28144204D01*
X89708600Y-28250558D01*
X89769837Y-28335408D01*
X89811883Y-28393978D01*
X89827447Y-28415927D01*
X89890357Y-28505885D01*
X89275974Y-28505885D01*
X88829356Y-27865593D01*
X88699117Y-27680313D01*
X88587505Y-27524548D01*
X88495384Y-27399443D01*
X88423618Y-27306148D01*
X88373072Y-27245808D01*
X88344611Y-27219571D01*
X88341780Y-27218538D01*
X88330239Y-27218028D01*
X88321097Y-27223649D01*
X88314075Y-27239767D01*
X88308894Y-27270747D01*
X88305274Y-27320956D01*
X88302937Y-27394758D01*
X88301604Y-27496521D01*
X88300993Y-27630611D01*
X88300828Y-27801392D01*
X88300823Y-27858829D01*
X88300823Y-28505885D01*
X87792823Y-28505885D01*
X87792823Y-26776438D01*
X88300823Y-26776438D01*
X88496615Y-26764603D01*
X88632161Y-26750472D01*
X88751602Y-26726709D01*
X88810213Y-26708515D01*
X88936071Y-26643363D01*
X89027148Y-26554782D01*
X89084453Y-26441279D01*
X89108993Y-26301360D01*
X89110117Y-26264203D01*
X89094008Y-26120379D01*
X89043741Y-26001547D01*
X88959337Y-25907723D01*
X88840819Y-25838924D01*
X88688210Y-25795167D01*
X88501531Y-25776469D01*
X88454282Y-25775715D01*
X88300823Y-25775385D01*
X88300823Y-26776438D01*
X87792823Y-26776438D01*
X87792823Y-25305315D01*
X88295532Y-25315510D01*
G37*
X88295532Y-25315510D02*
X88482636Y-25320203D01*
X88634127Y-25326585D01*
X88756720Y-25335710D01*
X88857130Y-25348634D01*
X88942072Y-25366412D01*
X89018262Y-25390099D01*
X89092415Y-25420752D01*
X89153481Y-25450338D01*
X89296711Y-25545625D01*
X89414619Y-25670127D01*
X89505518Y-25817937D01*
X89567719Y-25983146D01*
X89599533Y-26159846D01*
X89599270Y-26342131D01*
X89565243Y-26524091D01*
X89505236Y-26680887D01*
X89431026Y-26807897D01*
X89339161Y-26914761D01*
X89222841Y-27007267D01*
X89075266Y-27091207D01*
X88963581Y-27142129D01*
X88952345Y-27149104D01*
X88947644Y-27160645D01*
X88951657Y-27180228D01*
X88966564Y-27211328D01*
X88994544Y-27257421D01*
X89037778Y-27321984D01*
X89098443Y-27408491D01*
X89178719Y-27520419D01*
X89280786Y-27661244D01*
X89340896Y-27743885D01*
X89444319Y-27886091D01*
X89542382Y-28021123D01*
X89631629Y-28144204D01*
X89708600Y-28250558D01*
X89769837Y-28335408D01*
X89811883Y-28393978D01*
X89827447Y-28415927D01*
X89890357Y-28505885D01*
X89275974Y-28505885D01*
X88829356Y-27865593D01*
X88699117Y-27680313D01*
X88587505Y-27524548D01*
X88495384Y-27399443D01*
X88423618Y-27306148D01*
X88373072Y-27245808D01*
X88344611Y-27219571D01*
X88341780Y-27218538D01*
X88330239Y-27218028D01*
X88321097Y-27223649D01*
X88314075Y-27239767D01*
X88308894Y-27270747D01*
X88305274Y-27320956D01*
X88302937Y-27394758D01*
X88301604Y-27496521D01*
X88300993Y-27630611D01*
X88300828Y-27801392D01*
X88300823Y-27858829D01*
X88300823Y-28505885D01*
X87792823Y-28505885D01*
X87792823Y-26776438D01*
X88300823Y-26776438D01*
X88496615Y-26764603D01*
X88632161Y-26750472D01*
X88751602Y-26726709D01*
X88810213Y-26708515D01*
X88936071Y-26643363D01*
X89027148Y-26554782D01*
X89084453Y-26441279D01*
X89108993Y-26301360D01*
X89110117Y-26264203D01*
X89094008Y-26120379D01*
X89043741Y-26001547D01*
X88959337Y-25907723D01*
X88840819Y-25838924D01*
X88688210Y-25795167D01*
X88501531Y-25776469D01*
X88454282Y-25775715D01*
X88300823Y-25775385D01*
X88300823Y-26776438D01*
X87792823Y-26776438D01*
X87792823Y-25305315D01*
X88295532Y-25315510D01*
G36*
X75473823Y-28505885D02*
G01*
X74986990Y-28505885D01*
X74986990Y-25309718D01*
X75473823Y-25309718D01*
X75473823Y-28505885D01*
G37*
X75473823Y-28505885D02*
X74986990Y-28505885D01*
X74986990Y-25309718D01*
X75473823Y-25309718D01*
X75473823Y-28505885D01*
G36*
X84538448Y-124666419D02*
G01*
X84748231Y-124669593D01*
X84921734Y-124679750D01*
X85064669Y-124698499D01*
X85182747Y-124727449D01*
X85281680Y-124768210D01*
X85367180Y-124822389D01*
X85444957Y-124891597D01*
X85482857Y-124932478D01*
X85574171Y-125060505D01*
X85632308Y-125202532D01*
X85659968Y-125366298D01*
X85663192Y-125449218D01*
X85657909Y-125592853D01*
X85637887Y-125709060D01*
X85599629Y-125811229D01*
X85543577Y-125906928D01*
X85442078Y-126029505D01*
X85320160Y-126123118D01*
X85173696Y-126189698D01*
X84998557Y-126231177D01*
X84813615Y-126248618D01*
X84575490Y-126258879D01*
X84575490Y-127333052D01*
X84152157Y-127333052D01*
X84152157Y-125872552D01*
X84575490Y-125872552D01*
X84698043Y-125872552D01*
X84792380Y-125866526D01*
X84895481Y-125851186D01*
X84944055Y-125840394D01*
X85022476Y-125815508D01*
X85092709Y-125785743D01*
X85125810Y-125766728D01*
X85193715Y-125694033D01*
X85239447Y-125593215D01*
X85258570Y-125474589D01*
X85258871Y-125457350D01*
X85242336Y-125331100D01*
X85192304Y-125228873D01*
X85108132Y-125150150D01*
X84989179Y-125094411D01*
X84834800Y-125061135D01*
X84760670Y-125053832D01*
X84575490Y-125040764D01*
X84575490Y-125872552D01*
X84152157Y-125872552D01*
X84152157Y-124666052D01*
X84538448Y-124666419D01*
G37*
X84538448Y-124666419D02*
X84748231Y-124669593D01*
X84921734Y-124679750D01*
X85064669Y-124698499D01*
X85182747Y-124727449D01*
X85281680Y-124768210D01*
X85367180Y-124822389D01*
X85444957Y-124891597D01*
X85482857Y-124932478D01*
X85574171Y-125060505D01*
X85632308Y-125202532D01*
X85659968Y-125366298D01*
X85663192Y-125449218D01*
X85657909Y-125592853D01*
X85637887Y-125709060D01*
X85599629Y-125811229D01*
X85543577Y-125906928D01*
X85442078Y-126029505D01*
X85320160Y-126123118D01*
X85173696Y-126189698D01*
X84998557Y-126231177D01*
X84813615Y-126248618D01*
X84575490Y-126258879D01*
X84575490Y-127333052D01*
X84152157Y-127333052D01*
X84152157Y-125872552D01*
X84575490Y-125872552D01*
X84698043Y-125872552D01*
X84792380Y-125866526D01*
X84895481Y-125851186D01*
X84944055Y-125840394D01*
X85022476Y-125815508D01*
X85092709Y-125785743D01*
X85125810Y-125766728D01*
X85193715Y-125694033D01*
X85239447Y-125593215D01*
X85258570Y-125474589D01*
X85258871Y-125457350D01*
X85242336Y-125331100D01*
X85192304Y-125228873D01*
X85108132Y-125150150D01*
X84989179Y-125094411D01*
X84834800Y-125061135D01*
X84760670Y-125053832D01*
X84575490Y-125040764D01*
X84575490Y-125872552D01*
X84152157Y-125872552D01*
X84152157Y-124666052D01*
X84538448Y-124666419D01*
G36*
X76577431Y-68753792D02*
G01*
X76593999Y-68608135D01*
X76605565Y-68555051D01*
X76682937Y-68339097D01*
X76796087Y-68138685D01*
X76940276Y-67958410D01*
X77110765Y-67802869D01*
X77302817Y-67676655D01*
X77511692Y-67584365D01*
X77645397Y-67546678D01*
X77808056Y-67522766D01*
X77987405Y-67516936D01*
X78168126Y-67528458D01*
X78334896Y-67556601D01*
X78430302Y-67584074D01*
X78631894Y-67676435D01*
X78821319Y-67804081D01*
X78990940Y-67960204D01*
X79133123Y-68137999D01*
X79220699Y-68288635D01*
X79307900Y-68510882D01*
X79355275Y-68734844D01*
X79364995Y-68956902D01*
X79339231Y-69173435D01*
X79280151Y-69380825D01*
X79189928Y-69575454D01*
X79070732Y-69753701D01*
X78924732Y-69911947D01*
X78754099Y-70046574D01*
X78561004Y-70153962D01*
X78347617Y-70230491D01*
X78116109Y-70272544D01*
X78027322Y-70278602D01*
X77921673Y-70280208D01*
X77818415Y-70277607D01*
X77733565Y-70271364D01*
X77703661Y-70267166D01*
X77485361Y-70207346D01*
X77278474Y-70111095D01*
X77088445Y-69982985D01*
X76920720Y-69827584D01*
X76780746Y-69649464D01*
X76673968Y-69453194D01*
X76644442Y-69378240D01*
X76609073Y-69245010D01*
X76585656Y-69086807D01*
X76577608Y-68960898D01*
X76999377Y-68960898D01*
X77002271Y-69044520D01*
X77012356Y-69114378D01*
X77031083Y-69184647D01*
X77039087Y-69209385D01*
X77122380Y-69394570D01*
X77239739Y-69557024D01*
X77387482Y-69693175D01*
X77561926Y-69799452D01*
X77706907Y-69857039D01*
X77811767Y-69877852D01*
X77939835Y-69884893D01*
X78074397Y-69878479D01*
X78198740Y-69858929D01*
X78244013Y-69846840D01*
X78397495Y-69787190D01*
X78527635Y-69707695D01*
X78650313Y-69598387D01*
X78666022Y-69582017D01*
X78788199Y-69423687D01*
X78874179Y-69249134D01*
X78924019Y-69063992D01*
X78937778Y-68873897D01*
X78915511Y-68684485D01*
X78857276Y-68501389D01*
X78763130Y-68330245D01*
X78651980Y-68195381D01*
X78502358Y-68070992D01*
X78337441Y-67982773D01*
X78162383Y-67929829D01*
X77982336Y-67911262D01*
X77802454Y-67926176D01*
X77627889Y-67973673D01*
X77463794Y-68052857D01*
X77315323Y-68162831D01*
X77187628Y-68302699D01*
X77087761Y-68467595D01*
X77052212Y-68545053D01*
X77029047Y-68608974D01*
X77015047Y-68673717D01*
X77006996Y-68753638D01*
X77002221Y-68849336D01*
X76999377Y-68960898D01*
X76577608Y-68960898D01*
X76574879Y-68918208D01*
X76577431Y-68753792D01*
G37*
X76577431Y-68753792D02*
X76593999Y-68608135D01*
X76605565Y-68555051D01*
X76682937Y-68339097D01*
X76796087Y-68138685D01*
X76940276Y-67958410D01*
X77110765Y-67802869D01*
X77302817Y-67676655D01*
X77511692Y-67584365D01*
X77645397Y-67546678D01*
X77808056Y-67522766D01*
X77987405Y-67516936D01*
X78168126Y-67528458D01*
X78334896Y-67556601D01*
X78430302Y-67584074D01*
X78631894Y-67676435D01*
X78821319Y-67804081D01*
X78990940Y-67960204D01*
X79133123Y-68137999D01*
X79220699Y-68288635D01*
X79307900Y-68510882D01*
X79355275Y-68734844D01*
X79364995Y-68956902D01*
X79339231Y-69173435D01*
X79280151Y-69380825D01*
X79189928Y-69575454D01*
X79070732Y-69753701D01*
X78924732Y-69911947D01*
X78754099Y-70046574D01*
X78561004Y-70153962D01*
X78347617Y-70230491D01*
X78116109Y-70272544D01*
X78027322Y-70278602D01*
X77921673Y-70280208D01*
X77818415Y-70277607D01*
X77733565Y-70271364D01*
X77703661Y-70267166D01*
X77485361Y-70207346D01*
X77278474Y-70111095D01*
X77088445Y-69982985D01*
X76920720Y-69827584D01*
X76780746Y-69649464D01*
X76673968Y-69453194D01*
X76644442Y-69378240D01*
X76609073Y-69245010D01*
X76585656Y-69086807D01*
X76577608Y-68960898D01*
X76999377Y-68960898D01*
X77002271Y-69044520D01*
X77012356Y-69114378D01*
X77031083Y-69184647D01*
X77039087Y-69209385D01*
X77122380Y-69394570D01*
X77239739Y-69557024D01*
X77387482Y-69693175D01*
X77561926Y-69799452D01*
X77706907Y-69857039D01*
X77811767Y-69877852D01*
X77939835Y-69884893D01*
X78074397Y-69878479D01*
X78198740Y-69858929D01*
X78244013Y-69846840D01*
X78397495Y-69787190D01*
X78527635Y-69707695D01*
X78650313Y-69598387D01*
X78666022Y-69582017D01*
X78788199Y-69423687D01*
X78874179Y-69249134D01*
X78924019Y-69063992D01*
X78937778Y-68873897D01*
X78915511Y-68684485D01*
X78857276Y-68501389D01*
X78763130Y-68330245D01*
X78651980Y-68195381D01*
X78502358Y-68070992D01*
X78337441Y-67982773D01*
X78162383Y-67929829D01*
X77982336Y-67911262D01*
X77802454Y-67926176D01*
X77627889Y-67973673D01*
X77463794Y-68052857D01*
X77315323Y-68162831D01*
X77187628Y-68302699D01*
X77087761Y-68467595D01*
X77052212Y-68545053D01*
X77029047Y-68608974D01*
X77015047Y-68673717D01*
X77006996Y-68753638D01*
X77002221Y-68849336D01*
X76999377Y-68960898D01*
X76577608Y-68960898D01*
X76574879Y-68918208D01*
X76577431Y-68753792D01*
G36*
X83813490Y-67960552D02*
G01*
X83199657Y-67960552D01*
X83199657Y-70246552D01*
X82797490Y-70246552D01*
X82797490Y-67960552D01*
X82183657Y-67960552D01*
X82183657Y-67558385D01*
X83813490Y-67558385D01*
X83813490Y-67960552D01*
G37*
X83813490Y-67960552D02*
X83199657Y-67960552D01*
X83199657Y-70246552D01*
X82797490Y-70246552D01*
X82797490Y-67960552D01*
X82183657Y-67960552D01*
X82183657Y-67558385D01*
X83813490Y-67558385D01*
X83813490Y-67960552D01*
G36*
X86353490Y-182783038D02*
G01*
X86353666Y-183007877D01*
X86354294Y-183194637D01*
X86355522Y-183347571D01*
X86357498Y-183470930D01*
X86360372Y-183568969D01*
X86364291Y-183645940D01*
X86369403Y-183706095D01*
X86375858Y-183753689D01*
X86383804Y-183792972D01*
X86389510Y-183814899D01*
X86446719Y-183946870D01*
X86533619Y-184054077D01*
X86643956Y-184134119D01*
X86771477Y-184184596D01*
X86909928Y-184203106D01*
X87053057Y-184187249D01*
X87194608Y-184134624D01*
X87206231Y-184128453D01*
X87314083Y-184053033D01*
X87394336Y-183955615D01*
X87447850Y-183846598D01*
X87456808Y-183820077D01*
X87464294Y-183787472D01*
X87470480Y-183744772D01*
X87475536Y-183687969D01*
X87479633Y-183613054D01*
X87482943Y-183516018D01*
X87485636Y-183392852D01*
X87487884Y-183239547D01*
X87489857Y-183052095D01*
X87491727Y-182826485D01*
X87491805Y-182816177D01*
X87498903Y-181879552D01*
X87919823Y-181879552D01*
X87919456Y-182784427D01*
X87919041Y-183029003D01*
X87917782Y-183235432D01*
X87915329Y-183407897D01*
X87911333Y-183550580D01*
X87905448Y-183667666D01*
X87897324Y-183763337D01*
X87886613Y-183841776D01*
X87872966Y-183907167D01*
X87856037Y-183963691D01*
X87835475Y-184015534D01*
X87813013Y-184062766D01*
X87705544Y-184231757D01*
X87570288Y-184370058D01*
X87410013Y-184476282D01*
X87227486Y-184549040D01*
X87025474Y-184586945D01*
X86806744Y-184588609D01*
X86770869Y-184585469D01*
X86605712Y-184549457D01*
X86442161Y-184478322D01*
X86289879Y-184378499D01*
X86158527Y-184256424D01*
X86057768Y-184118534D01*
X86050619Y-184105731D01*
X86023396Y-184054050D01*
X86000608Y-184004866D01*
X85981862Y-183953975D01*
X85966766Y-183897171D01*
X85954924Y-183830246D01*
X85945945Y-183748995D01*
X85939436Y-183649213D01*
X85935003Y-183526692D01*
X85932252Y-183377228D01*
X85930792Y-183196614D01*
X85930228Y-182980644D01*
X85930157Y-182817021D01*
X85930157Y-181879552D01*
X86353490Y-181879552D01*
X86353490Y-182783038D01*
G37*
X86353490Y-182783038D02*
X86353666Y-183007877D01*
X86354294Y-183194637D01*
X86355522Y-183347571D01*
X86357498Y-183470930D01*
X86360372Y-183568969D01*
X86364291Y-183645940D01*
X86369403Y-183706095D01*
X86375858Y-183753689D01*
X86383804Y-183792972D01*
X86389510Y-183814899D01*
X86446719Y-183946870D01*
X86533619Y-184054077D01*
X86643956Y-184134119D01*
X86771477Y-184184596D01*
X86909928Y-184203106D01*
X87053057Y-184187249D01*
X87194608Y-184134624D01*
X87206231Y-184128453D01*
X87314083Y-184053033D01*
X87394336Y-183955615D01*
X87447850Y-183846598D01*
X87456808Y-183820077D01*
X87464294Y-183787472D01*
X87470480Y-183744772D01*
X87475536Y-183687969D01*
X87479633Y-183613054D01*
X87482943Y-183516018D01*
X87485636Y-183392852D01*
X87487884Y-183239547D01*
X87489857Y-183052095D01*
X87491727Y-182826485D01*
X87491805Y-182816177D01*
X87498903Y-181879552D01*
X87919823Y-181879552D01*
X87919456Y-182784427D01*
X87919041Y-183029003D01*
X87917782Y-183235432D01*
X87915329Y-183407897D01*
X87911333Y-183550580D01*
X87905448Y-183667666D01*
X87897324Y-183763337D01*
X87886613Y-183841776D01*
X87872966Y-183907167D01*
X87856037Y-183963691D01*
X87835475Y-184015534D01*
X87813013Y-184062766D01*
X87705544Y-184231757D01*
X87570288Y-184370058D01*
X87410013Y-184476282D01*
X87227486Y-184549040D01*
X87025474Y-184586945D01*
X86806744Y-184588609D01*
X86770869Y-184585469D01*
X86605712Y-184549457D01*
X86442161Y-184478322D01*
X86289879Y-184378499D01*
X86158527Y-184256424D01*
X86057768Y-184118534D01*
X86050619Y-184105731D01*
X86023396Y-184054050D01*
X86000608Y-184004866D01*
X85981862Y-183953975D01*
X85966766Y-183897171D01*
X85954924Y-183830246D01*
X85945945Y-183748995D01*
X85939436Y-183649213D01*
X85935003Y-183526692D01*
X85932252Y-183377228D01*
X85930792Y-183196614D01*
X85930228Y-182980644D01*
X85930157Y-182817021D01*
X85930157Y-181879552D01*
X86353490Y-181879552D01*
X86353490Y-182783038D01*
G36*
X80283133Y-68516177D02*
G01*
X80284644Y-68742944D01*
X80286155Y-68931393D01*
X80287858Y-69085540D01*
X80289947Y-69209399D01*
X80292616Y-69306985D01*
X80296059Y-69382312D01*
X80300469Y-69439397D01*
X80306039Y-69482254D01*
X80312964Y-69514897D01*
X80321436Y-69541343D01*
X80331651Y-69565605D01*
X80333988Y-69570697D01*
X80414668Y-69699289D01*
X80521320Y-69795191D01*
X80651338Y-69856945D01*
X80802116Y-69883092D01*
X80890198Y-69881969D01*
X81045945Y-69853456D01*
X81175092Y-69792030D01*
X81277827Y-69697559D01*
X81354335Y-69569914D01*
X81363063Y-69549141D01*
X81374335Y-69519825D01*
X81383692Y-69490438D01*
X81391347Y-69456826D01*
X81397515Y-69414838D01*
X81402409Y-69360321D01*
X81406243Y-69289121D01*
X81409230Y-69197086D01*
X81411585Y-69080064D01*
X81413520Y-68933901D01*
X81415249Y-68754445D01*
X81416987Y-68537543D01*
X81417312Y-68495010D01*
X81424424Y-67558385D01*
X81844990Y-67558385D01*
X81844830Y-68442093D01*
X81844255Y-68650669D01*
X81842676Y-68846118D01*
X81840196Y-69023663D01*
X81836918Y-69178528D01*
X81832947Y-69305939D01*
X81828385Y-69401118D01*
X81823336Y-69459290D01*
X81822730Y-69463385D01*
X81772072Y-69655278D01*
X81687010Y-69826955D01*
X81571711Y-69975641D01*
X81430345Y-70098563D01*
X81267078Y-70192946D01*
X81086081Y-70256015D01*
X80891520Y-70284996D01*
X80687566Y-70277116D01*
X80617323Y-70265645D01*
X80448781Y-70212199D01*
X80289437Y-70122895D01*
X80145858Y-70004128D01*
X80024612Y-69862290D01*
X79932265Y-69703777D01*
X79877758Y-69545625D01*
X79872728Y-69502268D01*
X79868204Y-69420261D01*
X79864264Y-69303283D01*
X79860986Y-69155016D01*
X79858447Y-68979139D01*
X79856725Y-68779333D01*
X79855897Y-68559278D01*
X79855841Y-68505593D01*
X79855323Y-67558385D01*
X80277025Y-67558385D01*
X80283133Y-68516177D01*
G37*
X80283133Y-68516177D02*
X80284644Y-68742944D01*
X80286155Y-68931393D01*
X80287858Y-69085540D01*
X80289947Y-69209399D01*
X80292616Y-69306985D01*
X80296059Y-69382312D01*
X80300469Y-69439397D01*
X80306039Y-69482254D01*
X80312964Y-69514897D01*
X80321436Y-69541343D01*
X80331651Y-69565605D01*
X80333988Y-69570697D01*
X80414668Y-69699289D01*
X80521320Y-69795191D01*
X80651338Y-69856945D01*
X80802116Y-69883092D01*
X80890198Y-69881969D01*
X81045945Y-69853456D01*
X81175092Y-69792030D01*
X81277827Y-69697559D01*
X81354335Y-69569914D01*
X81363063Y-69549141D01*
X81374335Y-69519825D01*
X81383692Y-69490438D01*
X81391347Y-69456826D01*
X81397515Y-69414838D01*
X81402409Y-69360321D01*
X81406243Y-69289121D01*
X81409230Y-69197086D01*
X81411585Y-69080064D01*
X81413520Y-68933901D01*
X81415249Y-68754445D01*
X81416987Y-68537543D01*
X81417312Y-68495010D01*
X81424424Y-67558385D01*
X81844990Y-67558385D01*
X81844830Y-68442093D01*
X81844255Y-68650669D01*
X81842676Y-68846118D01*
X81840196Y-69023663D01*
X81836918Y-69178528D01*
X81832947Y-69305939D01*
X81828385Y-69401118D01*
X81823336Y-69459290D01*
X81822730Y-69463385D01*
X81772072Y-69655278D01*
X81687010Y-69826955D01*
X81571711Y-69975641D01*
X81430345Y-70098563D01*
X81267078Y-70192946D01*
X81086081Y-70256015D01*
X80891520Y-70284996D01*
X80687566Y-70277116D01*
X80617323Y-70265645D01*
X80448781Y-70212199D01*
X80289437Y-70122895D01*
X80145858Y-70004128D01*
X80024612Y-69862290D01*
X79932265Y-69703777D01*
X79877758Y-69545625D01*
X79872728Y-69502268D01*
X79868204Y-69420261D01*
X79864264Y-69303283D01*
X79860986Y-69155016D01*
X79858447Y-68979139D01*
X79856725Y-68779333D01*
X79855897Y-68559278D01*
X79855841Y-68505593D01*
X79855323Y-67558385D01*
X80277025Y-67558385D01*
X80283133Y-68516177D01*
G36*
X80363323Y-144656926D02*
G01*
X80363906Y-144902024D01*
X80365619Y-145117603D01*
X80368410Y-145301361D01*
X80372226Y-145450995D01*
X80377015Y-145564204D01*
X80382724Y-145638684D01*
X80386318Y-145662687D01*
X80435846Y-145801553D01*
X80517839Y-145920079D01*
X80626662Y-146010664D01*
X80656782Y-146027732D01*
X80790437Y-146075331D01*
X80934477Y-146089169D01*
X81078432Y-146070584D01*
X81211832Y-146020915D01*
X81323053Y-145942595D01*
X81363363Y-145901644D01*
X81397335Y-145858908D01*
X81425506Y-145810532D01*
X81448410Y-145752661D01*
X81466582Y-145681440D01*
X81480557Y-145593013D01*
X81490871Y-145483526D01*
X81498059Y-145349124D01*
X81502656Y-145185950D01*
X81505196Y-144990151D01*
X81506216Y-144757871D01*
X81506323Y-144622331D01*
X81506323Y-143758385D01*
X81929657Y-143758385D01*
X81929289Y-144663260D01*
X81928874Y-144907905D01*
X81927607Y-145114466D01*
X81925129Y-145287188D01*
X81921082Y-145430318D01*
X81915110Y-145548100D01*
X81906853Y-145644782D01*
X81895955Y-145724609D01*
X81882057Y-145791827D01*
X81864801Y-145850682D01*
X81843830Y-145905420D01*
X81820237Y-145957274D01*
X81762892Y-146050041D01*
X81679960Y-146150924D01*
X81583050Y-146247819D01*
X81483766Y-146328622D01*
X81432268Y-146361869D01*
X81278248Y-146429181D01*
X81102782Y-146471255D01*
X80919605Y-146486402D01*
X80742452Y-146472931D01*
X80665256Y-146456254D01*
X80481340Y-146386340D01*
X80316370Y-146283205D01*
X80175291Y-146151853D01*
X80063049Y-145997283D01*
X79984593Y-145824497D01*
X79962424Y-145745625D01*
X79957394Y-145702268D01*
X79952871Y-145620261D01*
X79948931Y-145503283D01*
X79945653Y-145355016D01*
X79943114Y-145179139D01*
X79941392Y-144979333D01*
X79940563Y-144759278D01*
X79940507Y-144705593D01*
X79939990Y-143758385D01*
X80363323Y-143758385D01*
X80363323Y-144656926D01*
G37*
X80363323Y-144656926D02*
X80363906Y-144902024D01*
X80365619Y-145117603D01*
X80368410Y-145301361D01*
X80372226Y-145450995D01*
X80377015Y-145564204D01*
X80382724Y-145638684D01*
X80386318Y-145662687D01*
X80435846Y-145801553D01*
X80517839Y-145920079D01*
X80626662Y-146010664D01*
X80656782Y-146027732D01*
X80790437Y-146075331D01*
X80934477Y-146089169D01*
X81078432Y-146070584D01*
X81211832Y-146020915D01*
X81323053Y-145942595D01*
X81363363Y-145901644D01*
X81397335Y-145858908D01*
X81425506Y-145810532D01*
X81448410Y-145752661D01*
X81466582Y-145681440D01*
X81480557Y-145593013D01*
X81490871Y-145483526D01*
X81498059Y-145349124D01*
X81502656Y-145185950D01*
X81505196Y-144990151D01*
X81506216Y-144757871D01*
X81506323Y-144622331D01*
X81506323Y-143758385D01*
X81929657Y-143758385D01*
X81929289Y-144663260D01*
X81928874Y-144907905D01*
X81927607Y-145114466D01*
X81925129Y-145287188D01*
X81921082Y-145430318D01*
X81915110Y-145548100D01*
X81906853Y-145644782D01*
X81895955Y-145724609D01*
X81882057Y-145791827D01*
X81864801Y-145850682D01*
X81843830Y-145905420D01*
X81820237Y-145957274D01*
X81762892Y-146050041D01*
X81679960Y-146150924D01*
X81583050Y-146247819D01*
X81483766Y-146328622D01*
X81432268Y-146361869D01*
X81278248Y-146429181D01*
X81102782Y-146471255D01*
X80919605Y-146486402D01*
X80742452Y-146472931D01*
X80665256Y-146456254D01*
X80481340Y-146386340D01*
X80316370Y-146283205D01*
X80175291Y-146151853D01*
X80063049Y-145997283D01*
X79984593Y-145824497D01*
X79962424Y-145745625D01*
X79957394Y-145702268D01*
X79952871Y-145620261D01*
X79948931Y-145503283D01*
X79945653Y-145355016D01*
X79943114Y-145179139D01*
X79941392Y-144979333D01*
X79940563Y-144759278D01*
X79940507Y-144705593D01*
X79939990Y-143758385D01*
X80363323Y-143758385D01*
X80363323Y-144656926D01*
G36*
X86528185Y-49392093D02*
G01*
X86530322Y-49623804D01*
X86532575Y-49817365D01*
X86535362Y-49976960D01*
X86539105Y-50106772D01*
X86544224Y-50210983D01*
X86551139Y-50293777D01*
X86560271Y-50359336D01*
X86572040Y-50411844D01*
X86586867Y-50455483D01*
X86605172Y-50494436D01*
X86627375Y-50532887D01*
X86645805Y-50562282D01*
X86733002Y-50663323D01*
X86842135Y-50734136D01*
X86966152Y-50775346D01*
X87098001Y-50787578D01*
X87230629Y-50771454D01*
X87356984Y-50727598D01*
X87470014Y-50656636D01*
X87562666Y-50559190D01*
X87611006Y-50476885D01*
X87621486Y-50452820D01*
X87630207Y-50427150D01*
X87637361Y-50395865D01*
X87643141Y-50354955D01*
X87647739Y-50300411D01*
X87651347Y-50228223D01*
X87654158Y-50134382D01*
X87656365Y-50014878D01*
X87658159Y-49865701D01*
X87659734Y-49682843D01*
X87661281Y-49462293D01*
X87661535Y-49423843D01*
X87667829Y-48466052D01*
X88089157Y-48466052D01*
X88089157Y-49416322D01*
X88089055Y-49643585D01*
X88088642Y-49832712D01*
X88087758Y-49987901D01*
X88086241Y-50113347D01*
X88083931Y-50213250D01*
X88080667Y-50291805D01*
X88076288Y-50353210D01*
X88070633Y-50401662D01*
X88063541Y-50441359D01*
X88054852Y-50476496D01*
X88047582Y-50501114D01*
X87968940Y-50686916D01*
X87856158Y-50848191D01*
X87710932Y-50982951D01*
X87554339Y-51079694D01*
X87471727Y-51117761D01*
X87393138Y-51144525D01*
X87304667Y-51163508D01*
X87192411Y-51178233D01*
X87147240Y-51182810D01*
X87090871Y-51183584D01*
X87013002Y-51179086D01*
X86956740Y-51173356D01*
X86763684Y-51129391D01*
X86585583Y-51048654D01*
X86428341Y-50934797D01*
X86297863Y-50791469D01*
X86267364Y-50747227D01*
X86230481Y-50687624D01*
X86199409Y-50629683D01*
X86173653Y-50569258D01*
X86152721Y-50502205D01*
X86136119Y-50424377D01*
X86123351Y-50331629D01*
X86113926Y-50219815D01*
X86107348Y-50084791D01*
X86103124Y-49922411D01*
X86100760Y-49728528D01*
X86099762Y-49498999D01*
X86099612Y-49339177D01*
X86099490Y-48466052D01*
X86520030Y-48466052D01*
X86528185Y-49392093D01*
G37*
X86528185Y-49392093D02*
X86530322Y-49623804D01*
X86532575Y-49817365D01*
X86535362Y-49976960D01*
X86539105Y-50106772D01*
X86544224Y-50210983D01*
X86551139Y-50293777D01*
X86560271Y-50359336D01*
X86572040Y-50411844D01*
X86586867Y-50455483D01*
X86605172Y-50494436D01*
X86627375Y-50532887D01*
X86645805Y-50562282D01*
X86733002Y-50663323D01*
X86842135Y-50734136D01*
X86966152Y-50775346D01*
X87098001Y-50787578D01*
X87230629Y-50771454D01*
X87356984Y-50727598D01*
X87470014Y-50656636D01*
X87562666Y-50559190D01*
X87611006Y-50476885D01*
X87621486Y-50452820D01*
X87630207Y-50427150D01*
X87637361Y-50395865D01*
X87643141Y-50354955D01*
X87647739Y-50300411D01*
X87651347Y-50228223D01*
X87654158Y-50134382D01*
X87656365Y-50014878D01*
X87658159Y-49865701D01*
X87659734Y-49682843D01*
X87661281Y-49462293D01*
X87661535Y-49423843D01*
X87667829Y-48466052D01*
X88089157Y-48466052D01*
X88089157Y-49416322D01*
X88089055Y-49643585D01*
X88088642Y-49832712D01*
X88087758Y-49987901D01*
X88086241Y-50113347D01*
X88083931Y-50213250D01*
X88080667Y-50291805D01*
X88076288Y-50353210D01*
X88070633Y-50401662D01*
X88063541Y-50441359D01*
X88054852Y-50476496D01*
X88047582Y-50501114D01*
X87968940Y-50686916D01*
X87856158Y-50848191D01*
X87710932Y-50982951D01*
X87554339Y-51079694D01*
X87471727Y-51117761D01*
X87393138Y-51144525D01*
X87304667Y-51163508D01*
X87192411Y-51178233D01*
X87147240Y-51182810D01*
X87090871Y-51183584D01*
X87013002Y-51179086D01*
X86956740Y-51173356D01*
X86763684Y-51129391D01*
X86585583Y-51048654D01*
X86428341Y-50934797D01*
X86297863Y-50791469D01*
X86267364Y-50747227D01*
X86230481Y-50687624D01*
X86199409Y-50629683D01*
X86173653Y-50569258D01*
X86152721Y-50502205D01*
X86136119Y-50424377D01*
X86123351Y-50331629D01*
X86113926Y-50219815D01*
X86107348Y-50084791D01*
X86103124Y-49922411D01*
X86100760Y-49728528D01*
X86099762Y-49498999D01*
X86099612Y-49339177D01*
X86099490Y-48466052D01*
X86520030Y-48466052D01*
X86528185Y-49392093D01*
G36*
X76260759Y-25112970D02*
G01*
X76303495Y-25156178D01*
X76371001Y-25225359D01*
X76461040Y-25318194D01*
X76571376Y-25432364D01*
X76699773Y-25565551D01*
X76843992Y-25715437D01*
X77001798Y-25879703D01*
X77170953Y-26056032D01*
X77349222Y-26242104D01*
X77398422Y-26293500D01*
X78542606Y-27488948D01*
X78548090Y-26404625D01*
X78553573Y-25320302D01*
X78802282Y-25314338D01*
X79050990Y-25308375D01*
X79050990Y-27002380D01*
X79050796Y-27266022D01*
X79050236Y-27517065D01*
X79049338Y-27752345D01*
X79048133Y-27968696D01*
X79046650Y-28162954D01*
X79044918Y-28331954D01*
X79042968Y-28472531D01*
X79040829Y-28581520D01*
X79038531Y-28655756D01*
X79036103Y-28692074D01*
X79035115Y-28695276D01*
X79018336Y-28680163D01*
X78974603Y-28636727D01*
X78906167Y-28567295D01*
X78815279Y-28474191D01*
X78704190Y-28359740D01*
X78575150Y-28226268D01*
X78430411Y-28076099D01*
X78272222Y-27911558D01*
X78102834Y-27734971D01*
X77924499Y-27548662D01*
X77876240Y-27498179D01*
X76733240Y-26302189D01*
X76727759Y-27404037D01*
X76722279Y-28505885D01*
X76235823Y-28505885D01*
X76235823Y-26801968D01*
X76235935Y-26537507D01*
X76236258Y-26285611D01*
X76236776Y-26049440D01*
X76237471Y-25832151D01*
X76238327Y-25636904D01*
X76239326Y-25466856D01*
X76240452Y-25325166D01*
X76241687Y-25214993D01*
X76243014Y-25139495D01*
X76244416Y-25101830D01*
X76245030Y-25098052D01*
X76260759Y-25112970D01*
G37*
X76260759Y-25112970D02*
X76303495Y-25156178D01*
X76371001Y-25225359D01*
X76461040Y-25318194D01*
X76571376Y-25432364D01*
X76699773Y-25565551D01*
X76843992Y-25715437D01*
X77001798Y-25879703D01*
X77170953Y-26056032D01*
X77349222Y-26242104D01*
X77398422Y-26293500D01*
X78542606Y-27488948D01*
X78548090Y-26404625D01*
X78553573Y-25320302D01*
X78802282Y-25314338D01*
X79050990Y-25308375D01*
X79050990Y-27002380D01*
X79050796Y-27266022D01*
X79050236Y-27517065D01*
X79049338Y-27752345D01*
X79048133Y-27968696D01*
X79046650Y-28162954D01*
X79044918Y-28331954D01*
X79042968Y-28472531D01*
X79040829Y-28581520D01*
X79038531Y-28655756D01*
X79036103Y-28692074D01*
X79035115Y-28695276D01*
X79018336Y-28680163D01*
X78974603Y-28636727D01*
X78906167Y-28567295D01*
X78815279Y-28474191D01*
X78704190Y-28359740D01*
X78575150Y-28226268D01*
X78430411Y-28076099D01*
X78272222Y-27911558D01*
X78102834Y-27734971D01*
X77924499Y-27548662D01*
X77876240Y-27498179D01*
X76733240Y-26302189D01*
X76727759Y-27404037D01*
X76722279Y-28505885D01*
X76235823Y-28505885D01*
X76235823Y-26801968D01*
X76235935Y-26537507D01*
X76236258Y-26285611D01*
X76236776Y-26049440D01*
X76237471Y-25832151D01*
X76238327Y-25636904D01*
X76239326Y-25466856D01*
X76240452Y-25325166D01*
X76241687Y-25214993D01*
X76243014Y-25139495D01*
X76244416Y-25101830D01*
X76245030Y-25098052D01*
X76260759Y-25112970D01*
G36*
X83898157Y-144160552D02*
G01*
X83305858Y-144160552D01*
X83300382Y-145298260D01*
X83294907Y-146435968D01*
X82882157Y-146448084D01*
X82882157Y-144160552D01*
X82268323Y-144160552D01*
X82268323Y-143758385D01*
X83898157Y-143758385D01*
X83898157Y-144160552D01*
G37*
X83898157Y-144160552D02*
X83305858Y-144160552D01*
X83300382Y-145298260D01*
X83294907Y-146435968D01*
X82882157Y-146448084D01*
X82882157Y-144160552D01*
X82268323Y-144160552D01*
X82268323Y-143758385D01*
X83898157Y-143758385D01*
X83898157Y-144160552D01*
G36*
X81136963Y-181774603D02*
G01*
X81168994Y-181806978D01*
X81227309Y-181866970D01*
X81308995Y-181951542D01*
X81411135Y-182057660D01*
X81530814Y-182182288D01*
X81665118Y-182322391D01*
X81811131Y-182474934D01*
X81965939Y-182636882D01*
X82105338Y-182782888D01*
X82977407Y-183696808D01*
X82982923Y-182788180D01*
X82988440Y-181879552D01*
X83411323Y-181879552D01*
X83411323Y-183297718D01*
X83411093Y-183538411D01*
X83410427Y-183766184D01*
X83409366Y-183977582D01*
X83407947Y-184169148D01*
X83406209Y-184337428D01*
X83404191Y-184478966D01*
X83401931Y-184590306D01*
X83399469Y-184667993D01*
X83396844Y-184708572D01*
X83395448Y-184713865D01*
X83378465Y-184698609D01*
X83334758Y-184655251D01*
X83266800Y-184586343D01*
X83177066Y-184494436D01*
X83068028Y-184382083D01*
X82942162Y-184251833D01*
X82801941Y-184106239D01*
X82649838Y-183947851D01*
X82488328Y-183779222D01*
X82427073Y-183715155D01*
X81474573Y-182718465D01*
X81469057Y-183632508D01*
X81463540Y-184546552D01*
X81040657Y-184546552D01*
X81040657Y-181680237D01*
X81136963Y-181774603D01*
G37*
X81136963Y-181774603D02*
X81168994Y-181806978D01*
X81227309Y-181866970D01*
X81308995Y-181951542D01*
X81411135Y-182057660D01*
X81530814Y-182182288D01*
X81665118Y-182322391D01*
X81811131Y-182474934D01*
X81965939Y-182636882D01*
X82105338Y-182782888D01*
X82977407Y-183696808D01*
X82982923Y-182788180D01*
X82988440Y-181879552D01*
X83411323Y-181879552D01*
X83411323Y-183297718D01*
X83411093Y-183538411D01*
X83410427Y-183766184D01*
X83409366Y-183977582D01*
X83407947Y-184169148D01*
X83406209Y-184337428D01*
X83404191Y-184478966D01*
X83401931Y-184590306D01*
X83399469Y-184667993D01*
X83396844Y-184708572D01*
X83395448Y-184713865D01*
X83378465Y-184698609D01*
X83334758Y-184655251D01*
X83266800Y-184586343D01*
X83177066Y-184494436D01*
X83068028Y-184382083D01*
X82942162Y-184251833D01*
X82801941Y-184106239D01*
X82649838Y-183947851D01*
X82488328Y-183779222D01*
X82427073Y-183715155D01*
X81474573Y-182718465D01*
X81469057Y-183632508D01*
X81463540Y-184546552D01*
X81040657Y-184546552D01*
X81040657Y-181680237D01*
X81136963Y-181774603D01*
G36*
X80282935Y-125613260D02*
G01*
X80284475Y-125838185D01*
X80285969Y-126024845D01*
X80287630Y-126177307D01*
X80289669Y-126299640D01*
X80292300Y-126395910D01*
X80295735Y-126470184D01*
X80300186Y-126526532D01*
X80305865Y-126569019D01*
X80312984Y-126601713D01*
X80321757Y-126628682D01*
X80332395Y-126653994D01*
X80337899Y-126666038D01*
X80374802Y-126736557D01*
X80414498Y-126798365D01*
X80433149Y-126821510D01*
X80538578Y-126906638D01*
X80661868Y-126961356D01*
X80795333Y-126986511D01*
X80931285Y-126982945D01*
X81062037Y-126951504D01*
X81179903Y-126893031D01*
X81277196Y-126808370D01*
X81334996Y-126722462D01*
X81355346Y-126678730D01*
X81372278Y-126632372D01*
X81386099Y-126579207D01*
X81397118Y-126515050D01*
X81405641Y-126435719D01*
X81411977Y-126337029D01*
X81416432Y-126214798D01*
X81419314Y-126064843D01*
X81420931Y-125882979D01*
X81421590Y-125665024D01*
X81421657Y-125543426D01*
X81421657Y-124666052D01*
X81847315Y-124666052D01*
X81840690Y-125645010D01*
X81839107Y-125873911D01*
X81837591Y-126064542D01*
X81835933Y-126220968D01*
X81833922Y-126347250D01*
X81831349Y-126447451D01*
X81828003Y-126525636D01*
X81823674Y-126585866D01*
X81818153Y-126632205D01*
X81811228Y-126668716D01*
X81802690Y-126699462D01*
X81792329Y-126728506D01*
X81783493Y-126750968D01*
X81688762Y-126935707D01*
X81564291Y-127092781D01*
X81413585Y-127219331D01*
X81240148Y-127312499D01*
X81047483Y-127369426D01*
X81019490Y-127374291D01*
X80923620Y-127387890D01*
X80848077Y-127392739D01*
X80773503Y-127388737D01*
X80680541Y-127375779D01*
X80659657Y-127372371D01*
X80499928Y-127327605D01*
X80341397Y-127249945D01*
X80194304Y-127146583D01*
X80068892Y-127024712D01*
X79975650Y-126891982D01*
X79948647Y-126840118D01*
X79926022Y-126789480D01*
X79907390Y-126735888D01*
X79892362Y-126675161D01*
X79880555Y-126603116D01*
X79871582Y-126515574D01*
X79865056Y-126408352D01*
X79860592Y-126277271D01*
X79857803Y-126118148D01*
X79856304Y-125926803D01*
X79855709Y-125699054D01*
X79855636Y-125592093D01*
X79855323Y-124666052D01*
X80276631Y-124666052D01*
X80282935Y-125613260D01*
G37*
X80282935Y-125613260D02*
X80284475Y-125838185D01*
X80285969Y-126024845D01*
X80287630Y-126177307D01*
X80289669Y-126299640D01*
X80292300Y-126395910D01*
X80295735Y-126470184D01*
X80300186Y-126526532D01*
X80305865Y-126569019D01*
X80312984Y-126601713D01*
X80321757Y-126628682D01*
X80332395Y-126653994D01*
X80337899Y-126666038D01*
X80374802Y-126736557D01*
X80414498Y-126798365D01*
X80433149Y-126821510D01*
X80538578Y-126906638D01*
X80661868Y-126961356D01*
X80795333Y-126986511D01*
X80931285Y-126982945D01*
X81062037Y-126951504D01*
X81179903Y-126893031D01*
X81277196Y-126808370D01*
X81334996Y-126722462D01*
X81355346Y-126678730D01*
X81372278Y-126632372D01*
X81386099Y-126579207D01*
X81397118Y-126515050D01*
X81405641Y-126435719D01*
X81411977Y-126337029D01*
X81416432Y-126214798D01*
X81419314Y-126064843D01*
X81420931Y-125882979D01*
X81421590Y-125665024D01*
X81421657Y-125543426D01*
X81421657Y-124666052D01*
X81847315Y-124666052D01*
X81840690Y-125645010D01*
X81839107Y-125873911D01*
X81837591Y-126064542D01*
X81835933Y-126220968D01*
X81833922Y-126347250D01*
X81831349Y-126447451D01*
X81828003Y-126525636D01*
X81823674Y-126585866D01*
X81818153Y-126632205D01*
X81811228Y-126668716D01*
X81802690Y-126699462D01*
X81792329Y-126728506D01*
X81783493Y-126750968D01*
X81688762Y-126935707D01*
X81564291Y-127092781D01*
X81413585Y-127219331D01*
X81240148Y-127312499D01*
X81047483Y-127369426D01*
X81019490Y-127374291D01*
X80923620Y-127387890D01*
X80848077Y-127392739D01*
X80773503Y-127388737D01*
X80680541Y-127375779D01*
X80659657Y-127372371D01*
X80499928Y-127327605D01*
X80341397Y-127249945D01*
X80194304Y-127146583D01*
X80068892Y-127024712D01*
X79975650Y-126891982D01*
X79948647Y-126840118D01*
X79926022Y-126789480D01*
X79907390Y-126735888D01*
X79892362Y-126675161D01*
X79880555Y-126603116D01*
X79871582Y-126515574D01*
X79865056Y-126408352D01*
X79860592Y-126277271D01*
X79857803Y-126118148D01*
X79856304Y-125926803D01*
X79855709Y-125699054D01*
X79855636Y-125592093D01*
X79855323Y-124666052D01*
X80276631Y-124666052D01*
X80282935Y-125613260D01*
%TD*%
M02*
