M48
; DRILL file {KiCad (5.1.8-0-10_14)} date Wednesday, July 14, 2021 at 10:20:28 AM
; FORMAT={-:-/ absolute / metric / decimal}
; #@! TF.CreationDate,2021-07-14T10:20:28+01:00
; #@! TF.GenerationSoftware,Kicad,Pcbnew,(5.1.8-0-10_14)
FMAT,2
METRIC
T1C0.700
T2C0.800
T3C0.900
T4C1.000
T5C1.500
T6C2.000
%
G90
G05
T1
X88.265Y-72.235
X88.265Y-74.735
X92.265Y-72.235
X92.265Y-74.735
X96.265Y-72.235
X96.265Y-74.735
T2
X84.455Y-90.17
X84.455Y-82.55
X97.155Y-82.55
X84.455Y-86.36
X97.155Y-86.36
X97.155Y-90.17
T3
X113.03Y-68.58
X113.03Y-76.2
X106.68Y-68.58
X106.68Y-76.2
T4
X105.41Y-83.82
X107.95Y-83.82
X110.49Y-83.82
X113.03Y-83.82
X115.57Y-83.82
X105.41Y-88.265
X107.95Y-88.265
X110.49Y-88.265
X113.03Y-88.265
X115.57Y-88.265
T5
X84.765Y-70.485
X84.765Y-76.485
X99.765Y-70.485
X99.765Y-76.485
T6
X112.268Y-41.85
X112.268Y-57.15
X102.362Y-41.85
X102.362Y-57.15
X100.0Y-100.95
X100.0Y-116.25
X90.0Y-100.965
X90.0Y-116.265
X92.456Y-41.85
X92.456Y-57.15
T0
M30
