%TF.GenerationSoftware,KiCad,Pcbnew,(5.1.8-0-10_14)*%
%TF.CreationDate,2021-07-14T10:20:26+01:00*%
%TF.ProjectId,transistor-matcher,7472616e-7369-4737-946f-722d6d617463,rev?*%
%TF.SameCoordinates,Original*%
%TF.FileFunction,Legend,Top*%
%TF.FilePolarity,Positive*%
%FSLAX46Y46*%
G04 Gerber Fmt 4.6, Leading zero omitted, Abs format (unit mm)*
G04 Created by KiCad (PCBNEW (5.1.8-0-10_14)) date 2021-07-14 10:20:26*
%MOMM*%
%LPD*%
G01*
G04 APERTURE LIST*
%ADD10C,0.300000*%
%ADD11C,0.010000*%
%ADD12C,0.120000*%
%ADD13C,0.150000*%
G04 APERTURE END LIST*
D10*
X96964285Y-96678571D02*
X96964285Y-95178571D01*
X97321428Y-95178571D01*
X97535714Y-95250000D01*
X97678571Y-95392857D01*
X97750000Y-95535714D01*
X97821428Y-95821428D01*
X97821428Y-96035714D01*
X97750000Y-96321428D01*
X97678571Y-96464285D01*
X97535714Y-96607142D01*
X97321428Y-96678571D01*
X96964285Y-96678571D01*
X98464285Y-96678571D02*
X98464285Y-95178571D01*
X98964285Y-96250000D01*
X99464285Y-95178571D01*
X99464285Y-96678571D01*
X100178571Y-96678571D02*
X100178571Y-95178571D01*
X100678571Y-96250000D01*
X101178571Y-95178571D01*
X101178571Y-96678571D01*
X101892857Y-96107142D02*
X103035714Y-96107142D01*
X86964285Y-96678571D02*
X86964285Y-95178571D01*
X87321428Y-95178571D01*
X87535714Y-95250000D01*
X87678571Y-95392857D01*
X87750000Y-95535714D01*
X87821428Y-95821428D01*
X87821428Y-96035714D01*
X87750000Y-96321428D01*
X87678571Y-96464285D01*
X87535714Y-96607142D01*
X87321428Y-96678571D01*
X86964285Y-96678571D01*
X88464285Y-96678571D02*
X88464285Y-95178571D01*
X88964285Y-96250000D01*
X89464285Y-95178571D01*
X89464285Y-96678571D01*
X90178571Y-96678571D02*
X90178571Y-95178571D01*
X90678571Y-96250000D01*
X91178571Y-95178571D01*
X91178571Y-96678571D01*
X91892857Y-96107142D02*
X93035714Y-96107142D01*
X92464285Y-96678571D02*
X92464285Y-95535714D01*
X101219142Y-61734000D02*
X101076285Y-61662571D01*
X100862000Y-61662571D01*
X100647714Y-61734000D01*
X100504857Y-61876857D01*
X100433428Y-62019714D01*
X100362000Y-62305428D01*
X100362000Y-62519714D01*
X100433428Y-62805428D01*
X100504857Y-62948285D01*
X100647714Y-63091142D01*
X100862000Y-63162571D01*
X101004857Y-63162571D01*
X101219142Y-63091142D01*
X101290571Y-63019714D01*
X101290571Y-62519714D01*
X101004857Y-62519714D01*
X101933428Y-63162571D02*
X101933428Y-61662571D01*
X102790571Y-63162571D01*
X102790571Y-61662571D01*
X103504857Y-63162571D02*
X103504857Y-61662571D01*
X103862000Y-61662571D01*
X104076285Y-61734000D01*
X104219142Y-61876857D01*
X104290571Y-62019714D01*
X104362000Y-62305428D01*
X104362000Y-62519714D01*
X104290571Y-62805428D01*
X104219142Y-62948285D01*
X104076285Y-63091142D01*
X103862000Y-63162571D01*
X103504857Y-63162571D01*
X111053714Y-62591142D02*
X112196571Y-62591142D01*
X112696571Y-61662571D02*
X113196571Y-63162571D01*
X113696571Y-61662571D01*
X91241714Y-62591142D02*
X92384571Y-62591142D01*
X91813142Y-63162571D02*
X91813142Y-62019714D01*
X92884571Y-61662571D02*
X93384571Y-63162571D01*
X93884571Y-61662571D01*
X96496428Y-67988571D02*
X96496428Y-66488571D01*
X97067857Y-66488571D01*
X97210714Y-66560000D01*
X97282142Y-66631428D01*
X97353571Y-66774285D01*
X97353571Y-66988571D01*
X97282142Y-67131428D01*
X97210714Y-67202857D01*
X97067857Y-67274285D01*
X96496428Y-67274285D01*
X97996428Y-67988571D02*
X97996428Y-66488571D01*
X98853571Y-67988571D01*
X98853571Y-66488571D01*
X99567857Y-67988571D02*
X99567857Y-66488571D01*
X100139285Y-66488571D01*
X100282142Y-66560000D01*
X100353571Y-66631428D01*
X100425000Y-66774285D01*
X100425000Y-66988571D01*
X100353571Y-67131428D01*
X100282142Y-67202857D01*
X100139285Y-67274285D01*
X99567857Y-67274285D01*
X84395714Y-67988571D02*
X84395714Y-66488571D01*
X85252857Y-67988571D01*
X85252857Y-66488571D01*
X85967142Y-67988571D02*
X85967142Y-66488571D01*
X86538571Y-66488571D01*
X86681428Y-66560000D01*
X86752857Y-66631428D01*
X86824285Y-66774285D01*
X86824285Y-66988571D01*
X86752857Y-67131428D01*
X86681428Y-67202857D01*
X86538571Y-67274285D01*
X85967142Y-67274285D01*
X87467142Y-67988571D02*
X87467142Y-66488571D01*
X88324285Y-67988571D01*
X88324285Y-66488571D01*
X104954285Y-91332857D02*
X105454285Y-91332857D01*
X105668571Y-92118571D02*
X104954285Y-92118571D01*
X104954285Y-90618571D01*
X105668571Y-90618571D01*
X108311428Y-91975714D02*
X108240000Y-92047142D01*
X108025714Y-92118571D01*
X107882857Y-92118571D01*
X107668571Y-92047142D01*
X107525714Y-91904285D01*
X107454285Y-91761428D01*
X107382857Y-91475714D01*
X107382857Y-91261428D01*
X107454285Y-90975714D01*
X107525714Y-90832857D01*
X107668571Y-90690000D01*
X107882857Y-90618571D01*
X108025714Y-90618571D01*
X108240000Y-90690000D01*
X108311428Y-90761428D01*
X110597142Y-91332857D02*
X110811428Y-91404285D01*
X110882857Y-91475714D01*
X110954285Y-91618571D01*
X110954285Y-91832857D01*
X110882857Y-91975714D01*
X110811428Y-92047142D01*
X110668571Y-92118571D01*
X110097142Y-92118571D01*
X110097142Y-90618571D01*
X110597142Y-90618571D01*
X110740000Y-90690000D01*
X110811428Y-90761428D01*
X110882857Y-90904285D01*
X110882857Y-91047142D01*
X110811428Y-91190000D01*
X110740000Y-91261428D01*
X110597142Y-91332857D01*
X110097142Y-91332857D01*
X112740000Y-91332857D02*
X113240000Y-91332857D01*
X113454285Y-92118571D02*
X112740000Y-92118571D01*
X112740000Y-90618571D01*
X113454285Y-90618571D01*
X116097142Y-91975714D02*
X116025714Y-92047142D01*
X115811428Y-92118571D01*
X115668571Y-92118571D01*
X115454285Y-92047142D01*
X115311428Y-91904285D01*
X115239999Y-91761428D01*
X115168571Y-91475714D01*
X115168571Y-91261428D01*
X115239999Y-90975714D01*
X115311428Y-90832857D01*
X115454285Y-90690000D01*
X115668571Y-90618571D01*
X115811428Y-90618571D01*
X116025714Y-90690000D01*
X116097142Y-90761428D01*
X104954285Y-80537857D02*
X105454285Y-80537857D01*
X105668571Y-81323571D02*
X104954285Y-81323571D01*
X104954285Y-79823571D01*
X105668571Y-79823571D01*
X108311428Y-81180714D02*
X108240000Y-81252142D01*
X108025714Y-81323571D01*
X107882857Y-81323571D01*
X107668571Y-81252142D01*
X107525714Y-81109285D01*
X107454285Y-80966428D01*
X107382857Y-80680714D01*
X107382857Y-80466428D01*
X107454285Y-80180714D01*
X107525714Y-80037857D01*
X107668571Y-79895000D01*
X107882857Y-79823571D01*
X108025714Y-79823571D01*
X108240000Y-79895000D01*
X108311428Y-79966428D01*
X110597142Y-80537857D02*
X110811428Y-80609285D01*
X110882857Y-80680714D01*
X110954285Y-80823571D01*
X110954285Y-81037857D01*
X110882857Y-81180714D01*
X110811428Y-81252142D01*
X110668571Y-81323571D01*
X110097142Y-81323571D01*
X110097142Y-79823571D01*
X110597142Y-79823571D01*
X110740000Y-79895000D01*
X110811428Y-79966428D01*
X110882857Y-80109285D01*
X110882857Y-80252142D01*
X110811428Y-80395000D01*
X110740000Y-80466428D01*
X110597142Y-80537857D01*
X110097142Y-80537857D01*
X112740000Y-80537857D02*
X113240000Y-80537857D01*
X113454285Y-81323571D02*
X112740000Y-81323571D01*
X112740000Y-79823571D01*
X113454285Y-79823571D01*
X116097142Y-81180714D02*
X116025714Y-81252142D01*
X115811428Y-81323571D01*
X115668571Y-81323571D01*
X115454285Y-81252142D01*
X115311428Y-81109285D01*
X115239999Y-80966428D01*
X115168571Y-80680714D01*
X115168571Y-80466428D01*
X115239999Y-80180714D01*
X115311428Y-80037857D01*
X115454285Y-79895000D01*
X115668571Y-79823571D01*
X115811428Y-79823571D01*
X116025714Y-79895000D01*
X116097142Y-79966428D01*
%TO.C,J1*%
X95456000Y-37850000D02*
X96456000Y-37850000D01*
X96456000Y-37850000D02*
X96456000Y-39550000D01*
X96456000Y-39550000D02*
X97356000Y-39550000D01*
X97356000Y-39550000D02*
X97356000Y-60450000D01*
X97356000Y-60450000D02*
X87556000Y-60450000D01*
X87556000Y-60450000D02*
X87556000Y-39550000D01*
X87556000Y-39550000D02*
X88456000Y-39550000D01*
X88456000Y-39550000D02*
X88456000Y-37850000D01*
X88456000Y-37850000D02*
X89456000Y-37850000D01*
%TO.C,J2*%
X105362000Y-37850000D02*
X106362000Y-37850000D01*
X106362000Y-37850000D02*
X106362000Y-39550000D01*
X106362000Y-39550000D02*
X107262000Y-39550000D01*
X107262000Y-39550000D02*
X107262000Y-60450000D01*
X107262000Y-60450000D02*
X97462000Y-60450000D01*
X97462000Y-60450000D02*
X97462000Y-39550000D01*
X97462000Y-39550000D02*
X98362000Y-39550000D01*
X98362000Y-39550000D02*
X98362000Y-37850000D01*
X98362000Y-37850000D02*
X99362000Y-37850000D01*
%TO.C,J3*%
X115268000Y-37850000D02*
X116268000Y-37850000D01*
X116268000Y-37850000D02*
X116268000Y-39550000D01*
X116268000Y-39550000D02*
X117168000Y-39550000D01*
X117168000Y-39550000D02*
X117168000Y-60450000D01*
X117168000Y-60450000D02*
X107368000Y-60450000D01*
X107368000Y-60450000D02*
X107368000Y-39550000D01*
X107368000Y-39550000D02*
X108268000Y-39550000D01*
X108268000Y-39550000D02*
X108268000Y-37850000D01*
X108268000Y-37850000D02*
X109268000Y-37850000D01*
%TO.C,J4*%
X87000000Y-120265000D02*
X86000000Y-120265000D01*
X86000000Y-120265000D02*
X86000000Y-118565000D01*
X86000000Y-118565000D02*
X85100000Y-118565000D01*
X85100000Y-118565000D02*
X85100000Y-97665000D01*
X85100000Y-97665000D02*
X94900000Y-97665000D01*
X94900000Y-97665000D02*
X94900000Y-118565000D01*
X94900000Y-118565000D02*
X94000000Y-118565000D01*
X94000000Y-118565000D02*
X94000000Y-120265000D01*
X94000000Y-120265000D02*
X93000000Y-120265000D01*
%TO.C,J7*%
X97000000Y-120250000D02*
X96000000Y-120250000D01*
X96000000Y-120250000D02*
X96000000Y-118550000D01*
X96000000Y-118550000D02*
X95100000Y-118550000D01*
X95100000Y-118550000D02*
X95100000Y-97650000D01*
X95100000Y-97650000D02*
X104900000Y-97650000D01*
X104900000Y-97650000D02*
X104900000Y-118550000D01*
X104900000Y-118550000D02*
X104000000Y-118550000D01*
X104000000Y-118550000D02*
X104000000Y-120250000D01*
X104000000Y-120250000D02*
X103000000Y-120250000D01*
D11*
%TO.C,H1*%
G36*
X113532799Y-102332797D02*
G01*
X114102938Y-102446106D01*
X114450328Y-102547846D01*
X115011868Y-102768058D01*
X115543657Y-103046445D01*
X116041437Y-103378717D01*
X116500951Y-103760585D01*
X116917944Y-104187760D01*
X117288157Y-104655952D01*
X117607334Y-105160872D01*
X117871218Y-105698229D01*
X118047304Y-106172380D01*
X118205433Y-106777990D01*
X118297610Y-107392950D01*
X118324220Y-108012934D01*
X118285649Y-108633615D01*
X118182283Y-109250669D01*
X118014507Y-109859767D01*
X117782707Y-110456585D01*
X117638453Y-110757792D01*
X117307993Y-111332105D01*
X116926498Y-111864309D01*
X116497568Y-112351669D01*
X116024802Y-112791449D01*
X115511799Y-113180913D01*
X114962160Y-113517326D01*
X114379485Y-113797954D01*
X113767372Y-114020060D01*
X113135371Y-114179721D01*
X112897238Y-114224242D01*
X112680809Y-114258760D01*
X112495381Y-114282246D01*
X112350253Y-114293669D01*
X112254720Y-114291998D01*
X112220770Y-114281103D01*
X112215768Y-114243104D01*
X112211091Y-114143944D01*
X112206837Y-113990195D01*
X112203103Y-113788429D01*
X112199988Y-113545218D01*
X112197591Y-113267133D01*
X112196008Y-112960748D01*
X112195338Y-112632634D01*
X112195322Y-112576002D01*
X112195274Y-110896780D01*
X111712722Y-110892638D01*
X111341175Y-110875497D01*
X111008775Y-110827387D01*
X110691985Y-110742995D01*
X110367269Y-110617012D01*
X110247109Y-110561977D01*
X109893619Y-110367184D01*
X110332703Y-110367184D01*
X110363657Y-110399546D01*
X110448241Y-110442674D01*
X110574040Y-110492309D01*
X110728640Y-110544189D01*
X110899625Y-110594054D01*
X111074580Y-110637644D01*
X111191569Y-110661919D01*
X111304299Y-110677182D01*
X111450014Y-110688675D01*
X111613726Y-110696222D01*
X111780450Y-110699648D01*
X111935200Y-110698777D01*
X112062988Y-110693434D01*
X112148830Y-110683443D01*
X112176073Y-110673453D01*
X112180136Y-110636366D01*
X112183512Y-110538660D01*
X112186146Y-110387446D01*
X112187983Y-110189835D01*
X112188968Y-109952938D01*
X112188990Y-109876808D01*
X114184212Y-109876808D01*
X114218205Y-109927566D01*
X114285793Y-110023435D01*
X114382204Y-110157923D01*
X114502668Y-110324541D01*
X114642412Y-110516797D01*
X114796664Y-110728201D01*
X114960654Y-110952263D01*
X115129610Y-111182492D01*
X115298759Y-111412397D01*
X115463332Y-111635489D01*
X115618555Y-111845276D01*
X115759657Y-112035269D01*
X115881867Y-112198976D01*
X115980414Y-112329907D01*
X116050525Y-112421572D01*
X116087429Y-112467480D01*
X116091790Y-112471580D01*
X116123503Y-112448507D01*
X116190449Y-112386237D01*
X116281757Y-112295191D01*
X116354667Y-112219581D01*
X116786587Y-111720052D01*
X117161763Y-111191747D01*
X117477562Y-110639158D01*
X117731351Y-110066778D01*
X117884822Y-109608586D01*
X117943801Y-109404126D01*
X116389878Y-108900716D01*
X116079962Y-108800662D01*
X115790171Y-108707777D01*
X115526769Y-108624020D01*
X115296022Y-108551351D01*
X115104195Y-108491732D01*
X114957551Y-108447122D01*
X114862357Y-108419482D01*
X114824877Y-108410772D01*
X114824586Y-108410910D01*
X114811475Y-108448162D01*
X114787607Y-108533500D01*
X114757938Y-108649123D01*
X114755308Y-108659773D01*
X114654430Y-108970344D01*
X114505668Y-109290898D01*
X114319984Y-109597874D01*
X114316520Y-109602914D01*
X114233843Y-109732934D01*
X114188680Y-109826999D01*
X114184212Y-109876808D01*
X112188990Y-109876808D01*
X112189046Y-109683866D01*
X112188163Y-109389731D01*
X112187275Y-109224266D01*
X112178437Y-107795206D01*
X111255570Y-109064363D01*
X111067767Y-109323342D01*
X110892790Y-109565996D01*
X110734580Y-109786763D01*
X110597076Y-109980082D01*
X110484220Y-110140389D01*
X110399949Y-110262123D01*
X110348206Y-110339721D01*
X110332703Y-110367184D01*
X109893619Y-110367184D01*
X109789362Y-110309733D01*
X109378453Y-110011089D01*
X109016184Y-109670231D01*
X108704354Y-109291349D01*
X108444764Y-108878632D01*
X108239213Y-108436268D01*
X108089504Y-107968446D01*
X107997434Y-107479354D01*
X107964806Y-106973182D01*
X107969578Y-106886606D01*
X108166040Y-106886606D01*
X108170288Y-107089717D01*
X108182356Y-107293850D01*
X108202548Y-107487932D01*
X108215803Y-107577847D01*
X108253645Y-107775690D01*
X108300452Y-107972236D01*
X108352665Y-108156977D01*
X108406725Y-108319402D01*
X108459073Y-108449002D01*
X108506151Y-108535270D01*
X108544400Y-108567694D01*
X108550681Y-108566792D01*
X108589518Y-108553867D01*
X108686456Y-108522119D01*
X108835162Y-108473609D01*
X109029305Y-108410398D01*
X109262551Y-108334545D01*
X109528568Y-108248111D01*
X109821023Y-108153157D01*
X110133584Y-108051741D01*
X110180303Y-108036588D01*
X110494370Y-107934537D01*
X110788478Y-107838606D01*
X111056409Y-107750848D01*
X111291946Y-107673318D01*
X111297776Y-107671386D01*
X112576634Y-107671386D01*
X113289339Y-108649948D01*
X113454589Y-108875176D01*
X113608278Y-109081463D01*
X113745701Y-109262735D01*
X113862152Y-109412918D01*
X113952926Y-109525937D01*
X114013317Y-109595721D01*
X114038171Y-109616469D01*
X114073250Y-109584181D01*
X114133008Y-109509809D01*
X114205585Y-109408300D01*
X114218564Y-109389093D01*
X114323353Y-109211580D01*
X114421924Y-109006847D01*
X114505400Y-108796709D01*
X114564905Y-108602981D01*
X114588726Y-108479385D01*
X114607183Y-108322914D01*
X113934677Y-108106305D01*
X113705046Y-108032407D01*
X113471598Y-107957393D01*
X113251412Y-107886744D01*
X113061567Y-107825939D01*
X112919402Y-107780541D01*
X112576634Y-107671386D01*
X111297776Y-107671386D01*
X111488873Y-107608067D01*
X111640972Y-107557151D01*
X111742027Y-107522623D01*
X111785819Y-107506537D01*
X111787088Y-107505820D01*
X111792183Y-107485269D01*
X111767795Y-107458427D01*
X111710066Y-107423828D01*
X111615136Y-107380004D01*
X111479145Y-107325489D01*
X111298233Y-107258816D01*
X111229433Y-107234764D01*
X112601770Y-107234764D01*
X112632184Y-107228074D01*
X112716377Y-107203633D01*
X112843777Y-107164823D01*
X113003811Y-107115026D01*
X113185905Y-107057625D01*
X113379487Y-106996000D01*
X113573983Y-106933535D01*
X113758822Y-106873611D01*
X113923429Y-106819609D01*
X114057233Y-106774913D01*
X114149660Y-106742903D01*
X114190137Y-106726962D01*
X114190814Y-106726481D01*
X114182953Y-106693207D01*
X114129400Y-106632218D01*
X114041466Y-106552382D01*
X113930464Y-106462566D01*
X113807706Y-106371640D01*
X113684504Y-106288470D01*
X113572170Y-106221925D01*
X113506885Y-106190327D01*
X113387583Y-106140479D01*
X112994676Y-106681394D01*
X112874327Y-106847680D01*
X112768881Y-106994524D01*
X112684366Y-107113437D01*
X112626809Y-107195929D01*
X112602238Y-107233510D01*
X112601770Y-107234764D01*
X111229433Y-107234764D01*
X111068542Y-107178518D01*
X110786212Y-107083127D01*
X110447382Y-106971178D01*
X110048194Y-106841203D01*
X109982454Y-106819926D01*
X109657807Y-106715184D01*
X109503589Y-106665679D01*
X111847685Y-106665679D01*
X112012663Y-106893163D01*
X112089167Y-106997287D01*
X112149145Y-107076356D01*
X112182800Y-107117548D01*
X112186506Y-107120647D01*
X112189795Y-107088871D01*
X112192532Y-107001905D01*
X112194465Y-106872290D01*
X112195343Y-106712570D01*
X112195370Y-106678074D01*
X112195370Y-106235501D01*
X112099367Y-106303861D01*
X112024153Y-106376673D01*
X111948985Y-106478585D01*
X111925525Y-106518950D01*
X111847685Y-106665679D01*
X109503589Y-106665679D01*
X109352065Y-106617039D01*
X109071389Y-106527437D01*
X108821937Y-106448318D01*
X108609870Y-106381626D01*
X108441346Y-106329303D01*
X108322526Y-106293293D01*
X108259569Y-106275537D01*
X108251505Y-106273980D01*
X108221196Y-106305868D01*
X108197192Y-106394149D01*
X108179796Y-106527748D01*
X108169311Y-106695592D01*
X108166040Y-106886606D01*
X107969578Y-106886606D01*
X107993419Y-106454116D01*
X108085074Y-105926348D01*
X108149159Y-105680911D01*
X108319546Y-105207189D01*
X108550736Y-104744467D01*
X108835832Y-104301604D01*
X109167936Y-103887458D01*
X109380936Y-103671966D01*
X109689236Y-103671966D01*
X109708330Y-103702525D01*
X109762582Y-103781436D01*
X109847444Y-103902383D01*
X109958373Y-104059051D01*
X110090822Y-104245124D01*
X110240245Y-104454287D01*
X110402096Y-104680225D01*
X110571831Y-104916623D01*
X110744903Y-105157164D01*
X110916766Y-105395535D01*
X111082874Y-105625419D01*
X111238683Y-105840501D01*
X111379646Y-106034466D01*
X111501217Y-106200998D01*
X111598851Y-106333782D01*
X111668002Y-106426503D01*
X111704124Y-106472845D01*
X111708269Y-106476984D01*
X111727407Y-106451703D01*
X111771507Y-106387288D01*
X111799665Y-106345066D01*
X111880874Y-106245933D01*
X111987776Y-106144247D01*
X112041232Y-106102258D01*
X112195370Y-105991565D01*
X112195370Y-105963255D01*
X113516000Y-105963255D01*
X113739734Y-106088375D01*
X113873450Y-106174002D01*
X114024644Y-106287273D01*
X114164534Y-106406354D01*
X114188552Y-106428877D01*
X114290272Y-106523562D01*
X114374758Y-106597301D01*
X114429571Y-106639467D01*
X114441928Y-106645387D01*
X114478850Y-106635445D01*
X114573818Y-106606504D01*
X114720487Y-106560586D01*
X114912513Y-106499709D01*
X115143553Y-106425896D01*
X115407261Y-106341165D01*
X115697295Y-106247537D01*
X116007310Y-106147033D01*
X116029544Y-106139809D01*
X116340287Y-106038631D01*
X116631013Y-105943583D01*
X116895443Y-105856744D01*
X117127296Y-105780196D01*
X117320291Y-105716019D01*
X117468148Y-105666294D01*
X117564587Y-105633103D01*
X117603328Y-105618525D01*
X117603729Y-105618243D01*
X117598675Y-105579121D01*
X117562267Y-105493714D01*
X117500086Y-105372514D01*
X117417712Y-105226015D01*
X117320724Y-105064709D01*
X117250088Y-104953180D01*
X117014631Y-104619980D01*
X116746620Y-104292856D01*
X116466721Y-103996299D01*
X116349688Y-103885935D01*
X116214975Y-103768804D01*
X116067698Y-103648806D01*
X115918225Y-103533465D01*
X115776926Y-103430307D01*
X115654167Y-103346854D01*
X115560318Y-103290632D01*
X115505746Y-103269164D01*
X115500508Y-103269687D01*
X115474821Y-103298168D01*
X115413985Y-103375199D01*
X115322631Y-103494507D01*
X115205394Y-103649824D01*
X115066907Y-103834879D01*
X114911804Y-104043402D01*
X114744717Y-104269123D01*
X114570280Y-104505771D01*
X114393127Y-104747077D01*
X114217891Y-104986771D01*
X114049205Y-105218581D01*
X113891703Y-105436239D01*
X113750017Y-105633474D01*
X113651780Y-105771484D01*
X113516000Y-105963255D01*
X112195370Y-105963255D01*
X112195370Y-104253172D01*
X112194759Y-103811000D01*
X112192911Y-103435497D01*
X112189804Y-103125608D01*
X112185419Y-102880279D01*
X112179732Y-102698458D01*
X112172723Y-102579089D01*
X112164371Y-102521119D01*
X112160075Y-102514780D01*
X112111907Y-102521093D01*
X112016219Y-102537811D01*
X111891816Y-102561610D01*
X111863742Y-102567208D01*
X111367210Y-102696852D01*
X110878865Y-102881923D01*
X110418896Y-103114210D01*
X110222388Y-103234663D01*
X110044745Y-103355135D01*
X109894727Y-103466063D01*
X109780284Y-103560928D01*
X109709363Y-103633211D01*
X109689236Y-103671966D01*
X109380936Y-103671966D01*
X109540152Y-103510888D01*
X109945582Y-103180754D01*
X110254689Y-102976481D01*
X110757065Y-102714393D01*
X111284228Y-102513492D01*
X111830779Y-102374331D01*
X112391323Y-102297460D01*
X112960462Y-102283432D01*
X113532799Y-102332797D01*
G37*
X113532799Y-102332797D02*
X114102938Y-102446106D01*
X114450328Y-102547846D01*
X115011868Y-102768058D01*
X115543657Y-103046445D01*
X116041437Y-103378717D01*
X116500951Y-103760585D01*
X116917944Y-104187760D01*
X117288157Y-104655952D01*
X117607334Y-105160872D01*
X117871218Y-105698229D01*
X118047304Y-106172380D01*
X118205433Y-106777990D01*
X118297610Y-107392950D01*
X118324220Y-108012934D01*
X118285649Y-108633615D01*
X118182283Y-109250669D01*
X118014507Y-109859767D01*
X117782707Y-110456585D01*
X117638453Y-110757792D01*
X117307993Y-111332105D01*
X116926498Y-111864309D01*
X116497568Y-112351669D01*
X116024802Y-112791449D01*
X115511799Y-113180913D01*
X114962160Y-113517326D01*
X114379485Y-113797954D01*
X113767372Y-114020060D01*
X113135371Y-114179721D01*
X112897238Y-114224242D01*
X112680809Y-114258760D01*
X112495381Y-114282246D01*
X112350253Y-114293669D01*
X112254720Y-114291998D01*
X112220770Y-114281103D01*
X112215768Y-114243104D01*
X112211091Y-114143944D01*
X112206837Y-113990195D01*
X112203103Y-113788429D01*
X112199988Y-113545218D01*
X112197591Y-113267133D01*
X112196008Y-112960748D01*
X112195338Y-112632634D01*
X112195322Y-112576002D01*
X112195274Y-110896780D01*
X111712722Y-110892638D01*
X111341175Y-110875497D01*
X111008775Y-110827387D01*
X110691985Y-110742995D01*
X110367269Y-110617012D01*
X110247109Y-110561977D01*
X109893619Y-110367184D01*
X110332703Y-110367184D01*
X110363657Y-110399546D01*
X110448241Y-110442674D01*
X110574040Y-110492309D01*
X110728640Y-110544189D01*
X110899625Y-110594054D01*
X111074580Y-110637644D01*
X111191569Y-110661919D01*
X111304299Y-110677182D01*
X111450014Y-110688675D01*
X111613726Y-110696222D01*
X111780450Y-110699648D01*
X111935200Y-110698777D01*
X112062988Y-110693434D01*
X112148830Y-110683443D01*
X112176073Y-110673453D01*
X112180136Y-110636366D01*
X112183512Y-110538660D01*
X112186146Y-110387446D01*
X112187983Y-110189835D01*
X112188968Y-109952938D01*
X112188990Y-109876808D01*
X114184212Y-109876808D01*
X114218205Y-109927566D01*
X114285793Y-110023435D01*
X114382204Y-110157923D01*
X114502668Y-110324541D01*
X114642412Y-110516797D01*
X114796664Y-110728201D01*
X114960654Y-110952263D01*
X115129610Y-111182492D01*
X115298759Y-111412397D01*
X115463332Y-111635489D01*
X115618555Y-111845276D01*
X115759657Y-112035269D01*
X115881867Y-112198976D01*
X115980414Y-112329907D01*
X116050525Y-112421572D01*
X116087429Y-112467480D01*
X116091790Y-112471580D01*
X116123503Y-112448507D01*
X116190449Y-112386237D01*
X116281757Y-112295191D01*
X116354667Y-112219581D01*
X116786587Y-111720052D01*
X117161763Y-111191747D01*
X117477562Y-110639158D01*
X117731351Y-110066778D01*
X117884822Y-109608586D01*
X117943801Y-109404126D01*
X116389878Y-108900716D01*
X116079962Y-108800662D01*
X115790171Y-108707777D01*
X115526769Y-108624020D01*
X115296022Y-108551351D01*
X115104195Y-108491732D01*
X114957551Y-108447122D01*
X114862357Y-108419482D01*
X114824877Y-108410772D01*
X114824586Y-108410910D01*
X114811475Y-108448162D01*
X114787607Y-108533500D01*
X114757938Y-108649123D01*
X114755308Y-108659773D01*
X114654430Y-108970344D01*
X114505668Y-109290898D01*
X114319984Y-109597874D01*
X114316520Y-109602914D01*
X114233843Y-109732934D01*
X114188680Y-109826999D01*
X114184212Y-109876808D01*
X112188990Y-109876808D01*
X112189046Y-109683866D01*
X112188163Y-109389731D01*
X112187275Y-109224266D01*
X112178437Y-107795206D01*
X111255570Y-109064363D01*
X111067767Y-109323342D01*
X110892790Y-109565996D01*
X110734580Y-109786763D01*
X110597076Y-109980082D01*
X110484220Y-110140389D01*
X110399949Y-110262123D01*
X110348206Y-110339721D01*
X110332703Y-110367184D01*
X109893619Y-110367184D01*
X109789362Y-110309733D01*
X109378453Y-110011089D01*
X109016184Y-109670231D01*
X108704354Y-109291349D01*
X108444764Y-108878632D01*
X108239213Y-108436268D01*
X108089504Y-107968446D01*
X107997434Y-107479354D01*
X107964806Y-106973182D01*
X107969578Y-106886606D01*
X108166040Y-106886606D01*
X108170288Y-107089717D01*
X108182356Y-107293850D01*
X108202548Y-107487932D01*
X108215803Y-107577847D01*
X108253645Y-107775690D01*
X108300452Y-107972236D01*
X108352665Y-108156977D01*
X108406725Y-108319402D01*
X108459073Y-108449002D01*
X108506151Y-108535270D01*
X108544400Y-108567694D01*
X108550681Y-108566792D01*
X108589518Y-108553867D01*
X108686456Y-108522119D01*
X108835162Y-108473609D01*
X109029305Y-108410398D01*
X109262551Y-108334545D01*
X109528568Y-108248111D01*
X109821023Y-108153157D01*
X110133584Y-108051741D01*
X110180303Y-108036588D01*
X110494370Y-107934537D01*
X110788478Y-107838606D01*
X111056409Y-107750848D01*
X111291946Y-107673318D01*
X111297776Y-107671386D01*
X112576634Y-107671386D01*
X113289339Y-108649948D01*
X113454589Y-108875176D01*
X113608278Y-109081463D01*
X113745701Y-109262735D01*
X113862152Y-109412918D01*
X113952926Y-109525937D01*
X114013317Y-109595721D01*
X114038171Y-109616469D01*
X114073250Y-109584181D01*
X114133008Y-109509809D01*
X114205585Y-109408300D01*
X114218564Y-109389093D01*
X114323353Y-109211580D01*
X114421924Y-109006847D01*
X114505400Y-108796709D01*
X114564905Y-108602981D01*
X114588726Y-108479385D01*
X114607183Y-108322914D01*
X113934677Y-108106305D01*
X113705046Y-108032407D01*
X113471598Y-107957393D01*
X113251412Y-107886744D01*
X113061567Y-107825939D01*
X112919402Y-107780541D01*
X112576634Y-107671386D01*
X111297776Y-107671386D01*
X111488873Y-107608067D01*
X111640972Y-107557151D01*
X111742027Y-107522623D01*
X111785819Y-107506537D01*
X111787088Y-107505820D01*
X111792183Y-107485269D01*
X111767795Y-107458427D01*
X111710066Y-107423828D01*
X111615136Y-107380004D01*
X111479145Y-107325489D01*
X111298233Y-107258816D01*
X111229433Y-107234764D01*
X112601770Y-107234764D01*
X112632184Y-107228074D01*
X112716377Y-107203633D01*
X112843777Y-107164823D01*
X113003811Y-107115026D01*
X113185905Y-107057625D01*
X113379487Y-106996000D01*
X113573983Y-106933535D01*
X113758822Y-106873611D01*
X113923429Y-106819609D01*
X114057233Y-106774913D01*
X114149660Y-106742903D01*
X114190137Y-106726962D01*
X114190814Y-106726481D01*
X114182953Y-106693207D01*
X114129400Y-106632218D01*
X114041466Y-106552382D01*
X113930464Y-106462566D01*
X113807706Y-106371640D01*
X113684504Y-106288470D01*
X113572170Y-106221925D01*
X113506885Y-106190327D01*
X113387583Y-106140479D01*
X112994676Y-106681394D01*
X112874327Y-106847680D01*
X112768881Y-106994524D01*
X112684366Y-107113437D01*
X112626809Y-107195929D01*
X112602238Y-107233510D01*
X112601770Y-107234764D01*
X111229433Y-107234764D01*
X111068542Y-107178518D01*
X110786212Y-107083127D01*
X110447382Y-106971178D01*
X110048194Y-106841203D01*
X109982454Y-106819926D01*
X109657807Y-106715184D01*
X109503589Y-106665679D01*
X111847685Y-106665679D01*
X112012663Y-106893163D01*
X112089167Y-106997287D01*
X112149145Y-107076356D01*
X112182800Y-107117548D01*
X112186506Y-107120647D01*
X112189795Y-107088871D01*
X112192532Y-107001905D01*
X112194465Y-106872290D01*
X112195343Y-106712570D01*
X112195370Y-106678074D01*
X112195370Y-106235501D01*
X112099367Y-106303861D01*
X112024153Y-106376673D01*
X111948985Y-106478585D01*
X111925525Y-106518950D01*
X111847685Y-106665679D01*
X109503589Y-106665679D01*
X109352065Y-106617039D01*
X109071389Y-106527437D01*
X108821937Y-106448318D01*
X108609870Y-106381626D01*
X108441346Y-106329303D01*
X108322526Y-106293293D01*
X108259569Y-106275537D01*
X108251505Y-106273980D01*
X108221196Y-106305868D01*
X108197192Y-106394149D01*
X108179796Y-106527748D01*
X108169311Y-106695592D01*
X108166040Y-106886606D01*
X107969578Y-106886606D01*
X107993419Y-106454116D01*
X108085074Y-105926348D01*
X108149159Y-105680911D01*
X108319546Y-105207189D01*
X108550736Y-104744467D01*
X108835832Y-104301604D01*
X109167936Y-103887458D01*
X109380936Y-103671966D01*
X109689236Y-103671966D01*
X109708330Y-103702525D01*
X109762582Y-103781436D01*
X109847444Y-103902383D01*
X109958373Y-104059051D01*
X110090822Y-104245124D01*
X110240245Y-104454287D01*
X110402096Y-104680225D01*
X110571831Y-104916623D01*
X110744903Y-105157164D01*
X110916766Y-105395535D01*
X111082874Y-105625419D01*
X111238683Y-105840501D01*
X111379646Y-106034466D01*
X111501217Y-106200998D01*
X111598851Y-106333782D01*
X111668002Y-106426503D01*
X111704124Y-106472845D01*
X111708269Y-106476984D01*
X111727407Y-106451703D01*
X111771507Y-106387288D01*
X111799665Y-106345066D01*
X111880874Y-106245933D01*
X111987776Y-106144247D01*
X112041232Y-106102258D01*
X112195370Y-105991565D01*
X112195370Y-105963255D01*
X113516000Y-105963255D01*
X113739734Y-106088375D01*
X113873450Y-106174002D01*
X114024644Y-106287273D01*
X114164534Y-106406354D01*
X114188552Y-106428877D01*
X114290272Y-106523562D01*
X114374758Y-106597301D01*
X114429571Y-106639467D01*
X114441928Y-106645387D01*
X114478850Y-106635445D01*
X114573818Y-106606504D01*
X114720487Y-106560586D01*
X114912513Y-106499709D01*
X115143553Y-106425896D01*
X115407261Y-106341165D01*
X115697295Y-106247537D01*
X116007310Y-106147033D01*
X116029544Y-106139809D01*
X116340287Y-106038631D01*
X116631013Y-105943583D01*
X116895443Y-105856744D01*
X117127296Y-105780196D01*
X117320291Y-105716019D01*
X117468148Y-105666294D01*
X117564587Y-105633103D01*
X117603328Y-105618525D01*
X117603729Y-105618243D01*
X117598675Y-105579121D01*
X117562267Y-105493714D01*
X117500086Y-105372514D01*
X117417712Y-105226015D01*
X117320724Y-105064709D01*
X117250088Y-104953180D01*
X117014631Y-104619980D01*
X116746620Y-104292856D01*
X116466721Y-103996299D01*
X116349688Y-103885935D01*
X116214975Y-103768804D01*
X116067698Y-103648806D01*
X115918225Y-103533465D01*
X115776926Y-103430307D01*
X115654167Y-103346854D01*
X115560318Y-103290632D01*
X115505746Y-103269164D01*
X115500508Y-103269687D01*
X115474821Y-103298168D01*
X115413985Y-103375199D01*
X115322631Y-103494507D01*
X115205394Y-103649824D01*
X115066907Y-103834879D01*
X114911804Y-104043402D01*
X114744717Y-104269123D01*
X114570280Y-104505771D01*
X114393127Y-104747077D01*
X114217891Y-104986771D01*
X114049205Y-105218581D01*
X113891703Y-105436239D01*
X113750017Y-105633474D01*
X113651780Y-105771484D01*
X113516000Y-105963255D01*
X112195370Y-105963255D01*
X112195370Y-104253172D01*
X112194759Y-103811000D01*
X112192911Y-103435497D01*
X112189804Y-103125608D01*
X112185419Y-102880279D01*
X112179732Y-102698458D01*
X112172723Y-102579089D01*
X112164371Y-102521119D01*
X112160075Y-102514780D01*
X112111907Y-102521093D01*
X112016219Y-102537811D01*
X111891816Y-102561610D01*
X111863742Y-102567208D01*
X111367210Y-102696852D01*
X110878865Y-102881923D01*
X110418896Y-103114210D01*
X110222388Y-103234663D01*
X110044745Y-103355135D01*
X109894727Y-103466063D01*
X109780284Y-103560928D01*
X109709363Y-103633211D01*
X109689236Y-103671966D01*
X109380936Y-103671966D01*
X109540152Y-103510888D01*
X109945582Y-103180754D01*
X110254689Y-102976481D01*
X110757065Y-102714393D01*
X111284228Y-102513492D01*
X111830779Y-102374331D01*
X112391323Y-102297460D01*
X112960462Y-102283432D01*
X113532799Y-102332797D01*
D12*
%TO.C,D1*%
X114500000Y-70450000D02*
X111560000Y-70450000D01*
X114500000Y-70690000D02*
X111560000Y-70690000D01*
X114500000Y-70570000D02*
X111560000Y-70570000D01*
X111560000Y-75110000D02*
X111890000Y-75110000D01*
X111560000Y-69670000D02*
X111560000Y-75110000D01*
X111890000Y-69670000D02*
X111560000Y-69670000D01*
X114500000Y-75110000D02*
X114170000Y-75110000D01*
X114500000Y-69670000D02*
X114500000Y-75110000D01*
X114170000Y-69670000D02*
X114500000Y-69670000D01*
%TO.C,D2*%
X105540000Y-75110000D02*
X105210000Y-75110000D01*
X105210000Y-75110000D02*
X105210000Y-69670000D01*
X105210000Y-69670000D02*
X105540000Y-69670000D01*
X107820000Y-75110000D02*
X108150000Y-75110000D01*
X108150000Y-75110000D02*
X108150000Y-69670000D01*
X108150000Y-69670000D02*
X107820000Y-69670000D01*
X105210000Y-74210000D02*
X108150000Y-74210000D01*
X105210000Y-74090000D02*
X108150000Y-74090000D01*
X105210000Y-74330000D02*
X108150000Y-74330000D01*
%TO.C,J5*%
X116900000Y-85150000D02*
X104080000Y-85150000D01*
X104080000Y-82490000D02*
X104080000Y-85150000D01*
X116900000Y-82490000D02*
X104080000Y-82490000D01*
X116900000Y-82490000D02*
X116900000Y-85150000D01*
%TO.C,J6*%
X116900000Y-86935000D02*
X116900000Y-89595000D01*
X116900000Y-86935000D02*
X104080000Y-86935000D01*
X104080000Y-86935000D02*
X104080000Y-89595000D01*
X116900000Y-89595000D02*
X104080000Y-89595000D01*
%TO.C,R1*%
X85495000Y-82550000D02*
X86185000Y-82550000D01*
X96115000Y-82550000D02*
X95425000Y-82550000D01*
X86185000Y-84270000D02*
X95425000Y-84270000D01*
X86185000Y-80830000D02*
X86185000Y-84270000D01*
X95425000Y-80830000D02*
X86185000Y-80830000D01*
X95425000Y-84270000D02*
X95425000Y-80830000D01*
%TO.C,R2*%
X95425000Y-88080000D02*
X95425000Y-84640000D01*
X95425000Y-84640000D02*
X86185000Y-84640000D01*
X86185000Y-84640000D02*
X86185000Y-88080000D01*
X86185000Y-88080000D02*
X95425000Y-88080000D01*
X96115000Y-86360000D02*
X95425000Y-86360000D01*
X85495000Y-86360000D02*
X86185000Y-86360000D01*
%TO.C,R3*%
X85495000Y-90170000D02*
X86185000Y-90170000D01*
X96115000Y-90170000D02*
X95425000Y-90170000D01*
X86185000Y-91890000D02*
X95425000Y-91890000D01*
X86185000Y-88450000D02*
X86185000Y-91890000D01*
X95425000Y-88450000D02*
X86185000Y-88450000D01*
X95425000Y-91890000D02*
X95425000Y-88450000D01*
%TO.C,SW1*%
X83165000Y-68885000D02*
X83165000Y-70485000D01*
X84765000Y-68885000D02*
X83165000Y-68885000D01*
X85965000Y-69885000D02*
X98565000Y-69885000D01*
X100865000Y-71285000D02*
X100865000Y-75685000D01*
X98565000Y-77085000D02*
X85965000Y-77085000D01*
X83665000Y-75685000D02*
X83665000Y-71285000D01*
%TO.C,J1*%
D13*
X91908380Y-49803333D02*
X92622666Y-49803333D01*
X92765523Y-49850952D01*
X92860761Y-49946190D01*
X92908380Y-50089047D01*
X92908380Y-50184285D01*
X92908380Y-48803333D02*
X92908380Y-49374761D01*
X92908380Y-49089047D02*
X91908380Y-49089047D01*
X92051238Y-49184285D01*
X92146476Y-49279523D01*
X92194095Y-49374761D01*
%TO.C,J2*%
X101814380Y-49803333D02*
X102528666Y-49803333D01*
X102671523Y-49850952D01*
X102766761Y-49946190D01*
X102814380Y-50089047D01*
X102814380Y-50184285D01*
X101909619Y-49374761D02*
X101862000Y-49327142D01*
X101814380Y-49231904D01*
X101814380Y-48993809D01*
X101862000Y-48898571D01*
X101909619Y-48850952D01*
X102004857Y-48803333D01*
X102100095Y-48803333D01*
X102242952Y-48850952D01*
X102814380Y-49422380D01*
X102814380Y-48803333D01*
%TO.C,J3*%
X111720380Y-49803333D02*
X112434666Y-49803333D01*
X112577523Y-49850952D01*
X112672761Y-49946190D01*
X112720380Y-50089047D01*
X112720380Y-50184285D01*
X111720380Y-49422380D02*
X111720380Y-48803333D01*
X112101333Y-49136666D01*
X112101333Y-48993809D01*
X112148952Y-48898571D01*
X112196571Y-48850952D01*
X112291809Y-48803333D01*
X112529904Y-48803333D01*
X112625142Y-48850952D01*
X112672761Y-48898571D01*
X112720380Y-48993809D01*
X112720380Y-49279523D01*
X112672761Y-49374761D01*
X112625142Y-49422380D01*
%TO.C,D1*%
X115952380Y-73128095D02*
X114952380Y-73128095D01*
X114952380Y-72890000D01*
X115000000Y-72747142D01*
X115095238Y-72651904D01*
X115190476Y-72604285D01*
X115380952Y-72556666D01*
X115523809Y-72556666D01*
X115714285Y-72604285D01*
X115809523Y-72651904D01*
X115904761Y-72747142D01*
X115952380Y-72890000D01*
X115952380Y-73128095D01*
X115952380Y-71604285D02*
X115952380Y-72175714D01*
X115952380Y-71890000D02*
X114952380Y-71890000D01*
X115095238Y-71985238D01*
X115190476Y-72080476D01*
X115238095Y-72175714D01*
X115382380Y-68841904D02*
X114382380Y-68841904D01*
X115382380Y-68270476D02*
X114810952Y-68699047D01*
X114382380Y-68270476D02*
X114953809Y-68841904D01*
%TO.C,D2*%
X104662380Y-73128095D02*
X103662380Y-73128095D01*
X103662380Y-72890000D01*
X103710000Y-72747142D01*
X103805238Y-72651904D01*
X103900476Y-72604285D01*
X104090952Y-72556666D01*
X104233809Y-72556666D01*
X104424285Y-72604285D01*
X104519523Y-72651904D01*
X104614761Y-72747142D01*
X104662380Y-72890000D01*
X104662380Y-73128095D01*
X103757619Y-72175714D02*
X103710000Y-72128095D01*
X103662380Y-72032857D01*
X103662380Y-71794761D01*
X103710000Y-71699523D01*
X103757619Y-71651904D01*
X103852857Y-71604285D01*
X103948095Y-71604285D01*
X104090952Y-71651904D01*
X104662380Y-72223333D01*
X104662380Y-71604285D01*
X105232380Y-76461904D02*
X104232380Y-76461904D01*
X105232380Y-75890476D02*
X104660952Y-76319047D01*
X104232380Y-75890476D02*
X104803809Y-76461904D01*
%TO.C,R1*%
X98893333Y-83002380D02*
X98560000Y-82526190D01*
X98321904Y-83002380D02*
X98321904Y-82002380D01*
X98702857Y-82002380D01*
X98798095Y-82050000D01*
X98845714Y-82097619D01*
X98893333Y-82192857D01*
X98893333Y-82335714D01*
X98845714Y-82430952D01*
X98798095Y-82478571D01*
X98702857Y-82526190D01*
X98321904Y-82526190D01*
X99845714Y-83002380D02*
X99274285Y-83002380D01*
X99560000Y-83002380D02*
X99560000Y-82002380D01*
X99464761Y-82145238D01*
X99369523Y-82240476D01*
X99274285Y-82288095D01*
%TO.C,R2*%
X98893333Y-86812380D02*
X98560000Y-86336190D01*
X98321904Y-86812380D02*
X98321904Y-85812380D01*
X98702857Y-85812380D01*
X98798095Y-85860000D01*
X98845714Y-85907619D01*
X98893333Y-86002857D01*
X98893333Y-86145714D01*
X98845714Y-86240952D01*
X98798095Y-86288571D01*
X98702857Y-86336190D01*
X98321904Y-86336190D01*
X99274285Y-85907619D02*
X99321904Y-85860000D01*
X99417142Y-85812380D01*
X99655238Y-85812380D01*
X99750476Y-85860000D01*
X99798095Y-85907619D01*
X99845714Y-86002857D01*
X99845714Y-86098095D01*
X99798095Y-86240952D01*
X99226666Y-86812380D01*
X99845714Y-86812380D01*
%TO.C,R3*%
X98893333Y-90622380D02*
X98560000Y-90146190D01*
X98321904Y-90622380D02*
X98321904Y-89622380D01*
X98702857Y-89622380D01*
X98798095Y-89670000D01*
X98845714Y-89717619D01*
X98893333Y-89812857D01*
X98893333Y-89955714D01*
X98845714Y-90050952D01*
X98798095Y-90098571D01*
X98702857Y-90146190D01*
X98321904Y-90146190D01*
X99226666Y-89622380D02*
X99845714Y-89622380D01*
X99512380Y-90003333D01*
X99655238Y-90003333D01*
X99750476Y-90050952D01*
X99798095Y-90098571D01*
X99845714Y-90193809D01*
X99845714Y-90431904D01*
X99798095Y-90527142D01*
X99750476Y-90574761D01*
X99655238Y-90622380D01*
X99369523Y-90622380D01*
X99274285Y-90574761D01*
X99226666Y-90527142D01*
%TO.C,SW1*%
X90741666Y-78989761D02*
X90884523Y-79037380D01*
X91122619Y-79037380D01*
X91217857Y-78989761D01*
X91265476Y-78942142D01*
X91313095Y-78846904D01*
X91313095Y-78751666D01*
X91265476Y-78656428D01*
X91217857Y-78608809D01*
X91122619Y-78561190D01*
X90932142Y-78513571D01*
X90836904Y-78465952D01*
X90789285Y-78418333D01*
X90741666Y-78323095D01*
X90741666Y-78227857D01*
X90789285Y-78132619D01*
X90836904Y-78085000D01*
X90932142Y-78037380D01*
X91170238Y-78037380D01*
X91313095Y-78085000D01*
X91646428Y-78037380D02*
X91884523Y-79037380D01*
X92075000Y-78323095D01*
X92265476Y-79037380D01*
X92503571Y-78037380D01*
X93408333Y-79037380D02*
X92836904Y-79037380D01*
X93122619Y-79037380D02*
X93122619Y-78037380D01*
X93027380Y-78180238D01*
X92932142Y-78275476D01*
X92836904Y-78323095D01*
%TD*%
M02*
