%TF.GenerationSoftware,KiCad,Pcbnew,(5.1.8-0-10_14)*%
%TF.CreationDate,2021-07-14T10:20:26+01:00*%
%TF.ProjectId,transistor-matcher,7472616e-7369-4737-946f-722d6d617463,rev?*%
%TF.SameCoordinates,Original*%
%TF.FileFunction,Soldermask,Bot*%
%TF.FilePolarity,Negative*%
%FSLAX46Y46*%
G04 Gerber Fmt 4.6, Leading zero omitted, Abs format (unit mm)*
G04 Created by KiCad (PCBNEW (5.1.8-0-10_14)) date 2021-07-14 10:20:26*
%MOMM*%
%LPD*%
G01*
G04 APERTURE LIST*
%ADD10C,3.000000*%
%ADD11R,1.800000X1.800000*%
%ADD12O,1.800000X1.800000*%
%ADD13O,1.700000X1.700000*%
%ADD14C,1.700000*%
%ADD15C,1.600000*%
%ADD16O,1.600000X1.600000*%
%ADD17C,1.500000*%
%ADD18C,2.500000*%
G04 APERTURE END LIST*
D10*
%TO.C,J1*%
X92456000Y-57150000D03*
X92456000Y-41850000D03*
%TD*%
%TO.C,J2*%
X102362000Y-57150000D03*
X102362000Y-41850000D03*
%TD*%
%TO.C,J3*%
X112268000Y-57150000D03*
X112268000Y-41850000D03*
%TD*%
%TO.C,J4*%
X90000000Y-100965000D03*
X90000000Y-116265000D03*
%TD*%
%TO.C,J7*%
X100000000Y-100950000D03*
X100000000Y-116250000D03*
%TD*%
D11*
%TO.C,D1*%
X113030000Y-68580000D03*
D12*
X113030000Y-76200000D03*
%TD*%
%TO.C,D2*%
X106680000Y-68580000D03*
D11*
X106680000Y-76200000D03*
%TD*%
D13*
%TO.C,J5*%
X105410000Y-83820000D03*
X107950000Y-83820000D03*
X110490000Y-83820000D03*
X113030000Y-83820000D03*
D14*
X115570000Y-83820000D03*
%TD*%
%TO.C,J6*%
X115570000Y-88265000D03*
D13*
X113030000Y-88265000D03*
X110490000Y-88265000D03*
X107950000Y-88265000D03*
X105410000Y-88265000D03*
%TD*%
D15*
%TO.C,R1*%
X97155000Y-82550000D03*
D16*
X84455000Y-82550000D03*
%TD*%
%TO.C,R2*%
X84455000Y-86360000D03*
D15*
X97155000Y-86360000D03*
%TD*%
%TO.C,R3*%
X97155000Y-90170000D03*
D16*
X84455000Y-90170000D03*
%TD*%
D17*
%TO.C,SW1*%
X88265000Y-72235000D03*
X92265000Y-72235000D03*
X96265000Y-72235000D03*
X88265000Y-74735000D03*
X92265000Y-74735000D03*
X96265000Y-74735000D03*
D18*
X84765000Y-70485000D03*
X84765000Y-76485000D03*
X99765000Y-70485000D03*
X99765000Y-76485000D03*
%TD*%
M02*
