<?xml version="1.0" encoding="UTF-8" standalone="no"?>
<!-- Created with Inkscape (http://www.inkscape.org/) -->

<svg
   width="51.0mm"
   height="176.0mm"
   viewBox="0 0 51.0 176.0"
   version="1.1"
   id="svg1405"
   sodipodi:docname="4u-variable-integrators-graphics.svg"
   inkscape:version="1.1 (c4e8f9e, 2021-05-24)"
   xmlns:inkscape="http://www.inkscape.org/namespaces/inkscape"
   xmlns:sodipodi="http://sodipodi.sourceforge.net/DTD/sodipodi-0.dtd"
   xmlns="http://www.w3.org/2000/svg"
   xmlns:svg="http://www.w3.org/2000/svg"
   xmlns:serif="http://www.serif.com/">
  <sodipodi:namedview
     id="namedview1407"
     pagecolor="#ffffff"
     bordercolor="#666666"
     borderopacity="1.0"
     inkscape:pageshadow="2"
     inkscape:pageopacity="0.0"
     inkscape:pagecheckerboard="0"
     inkscape:document-units="mm"
     showgrid="false"
     inkscape:zoom="1.5554293"
     inkscape:cx="123.76005"
     inkscape:cy="283.20156"
     inkscape:window-width="1707"
     inkscape:window-height="1387"
     inkscape:window-x="512"
     inkscape:window-y="25"
     inkscape:window-maximized="0"
     inkscape:current-layer="g1476"
     inkscape:showpageshadow="false"
     showborder="false" />
  <defs
     id="defs1402" />
  <g
     inkscape:label="[fixed] BG"
     inkscape:groupmode="layer"
     id="g1474" />
  <g
     inkscape:label="Edge.Cuts"
     inkscape:groupmode="layer"
     id="g1476"
     style="display:inline">
    <rect
       x="0"
       y="0"
       width="51"
       height="176"
       style="fill:#ffffff;fill-opacity:1;stroke:none"
       id="rect1472" />
    <path
       id="Panel"
       d="M 49.9999 0 L 50.1002 0.0102335 L 50.1938 0.0395511 L 50.2787 0.0858786 L 50.3528 0.147141 L 50.4141 0.221266 L 50.4604 0.306177 L 50.4897 0.3998 L 50.5 0.500062 L 50.5 174.5 L 50.4897 174.6 L 50.4604 174.694 L 50.4141 174.779 L 50.3528 174.853 L 50.2787 174.914 L 50.1938 174.96 L 50.1002 174.99 L 49.9999 175 L 0.500062 175 L 0.3998 174.99 L 0.306177 174.96 L 0.221266 174.914 L 0.147141 174.853 L 0.0858786 174.779 L 0.0395511 174.694 L 0.0102335 174.6 L 0 174.5 L 0 0.500062 L 0.0102335 0.3998 L 0.0395511 0.306177 L 0.0858786 0.221266 L 0.147141 0.147141 L 0.221266 0.0858786 L 0.306177 0.0395511 L 0.3998 0.0102335 L 0.500062 0 L 49.9999 0"
       style="clip-rule:evenodd;fill:none;fill-rule:evenodd;stroke:#000000;stroke-width:0.264583;stroke-linecap:round;stroke-linejoin:round" />
    <path
       d="M 9.37498 3.08795 L 9.38279 3.2404 L 9.40568 3.38865 L 9.49363 3.66946 L 9.6326 3.92414 L 9.81637 4.14648 L 10.0387 4.33025 L 10.2934 4.46923 L 10.5742 4.55717 L 10.7225 4.58007 L 10.8749 4.58787 L 14.2251 4.58787 L 14.3775 4.58007 L 14.5258 4.55717 L 14.8066 4.46923 L 15.0612 4.33025 L 15.2836 4.14648 L 15.4674 3.92414 L 15.6063 3.66946 L 15.6943 3.38865 L 15.7172 3.2404 L 15.725 3.08795 L 15.725 2.912 L 15.7172 2.75956 L 15.6943 2.61131 L 15.6063 2.3305 L 15.4674 2.07581 L 15.2836 1.85347 L 15.0612 1.6697 L 14.8066 1.53073 L 14.5258 1.44278 L 14.3775 1.41989 L 14.2251 1.41208 L 10.8749 1.41208 L 10.7225 1.41989 L 10.5742 1.44278 L 10.2934 1.53073 L 10.0387 1.6697 L 9.81637 1.85347 L 9.6326 2.07581 L 9.49363 2.3305 L 9.40568 2.61131 L 9.38279 2.75956 L 9.37498 2.912 L 9.37498 3.08795"
       style="clip-rule:evenodd;fill:#ffffff;fill-rule:evenodd;stroke:#000000;stroke-width:0.351896px;stroke-linecap:round;stroke-linejoin:round"
       id="path1090" />
    <path
       d="M 34.775 3.08795 L 34.7828 3.2404 L 34.8057 3.38865 L 34.8936 3.66946 L 35.0326 3.92414 L 35.2164 4.14648 L 35.4387 4.33025 L 35.6934 4.46923 L 35.9742 4.55717 L 36.1225 4.58007 L 36.2749 4.58787 L 39.6251 4.58787 L 39.7775 4.58007 L 39.9258 4.55717 L 40.2066 4.46923 L 40.4612 4.33025 L 40.6836 4.14648 L 40.8674 3.92414 L 41.0063 3.66946 L 41.0943 3.38865 L 41.1172 3.2404 L 41.125 3.08795 L 41.125 2.912 L 41.1172 2.75956 L 41.0943 2.61131 L 41.0063 2.3305 L 40.8674 2.07581 L 40.6836 1.85347 L 40.4612 1.6697 L 40.2066 1.53073 L 39.9258 1.44278 L 39.7775 1.41989 L 39.6251 1.41208 L 36.2749 1.41208 L 36.1225 1.41989 L 35.9742 1.44278 L 35.6934 1.53073 L 35.4387 1.6697 L 35.2164 1.85347 L 35.0326 2.07581 L 34.8936 2.3305 L 34.8057 2.61131 L 34.7828 2.75956 L 34.775 2.912 L 34.775 3.08795"
       style="clip-rule:evenodd;fill:#ffffff;fill-rule:evenodd;stroke:#000000;stroke-width:0.351896px;stroke-linecap:round;stroke-linejoin:round"
       id="path1092" />
    <path
       d="M 34.775 172.087 L 34.7828 172.24 L 34.8057 172.388 L 34.8936 172.669 L 35.0326 172.923 L 35.2164 173.146 L 35.4387 173.329 L 35.6934 173.468 L 35.9742 173.556 L 36.1225 173.579 L 36.2749 173.587 L 39.6251 173.587 L 39.7775 173.579 L 39.9258 173.556 L 40.2066 173.468 L 40.4612 173.329 L 40.6836 173.146 L 40.8674 172.923 L 41.0063 172.669 L 41.0943 172.388 L 41.1172 172.24 L 41.125 172.087 L 41.125 171.912 L 41.1172 171.76 L 41.0943 171.611 L 41.0063 171.33 L 40.8674 171.076 L 40.6836 170.853 L 40.4612 170.67 L 40.2066 170.531 L 39.9258 170.443 L 39.7775 170.42 L 39.6251 170.412 L 36.2749 170.412 L 36.1225 170.42 L 35.9742 170.443 L 35.6934 170.531 L 35.4387 170.67 L 35.2164 170.853 L 35.0326 171.076 L 34.8936 171.33 L 34.8057 171.611 L 34.7828 171.76 L 34.775 171.912 L 34.775 172.087"
       style="clip-rule:evenodd;fill:#ffffff;fill-rule:evenodd;stroke:#000000;stroke-width:0.351896px;stroke-linecap:round;stroke-linejoin:round"
       id="path1094" />
    <path
       d="M 9.37498 172.087 L 9.38279 172.24 L 9.40568 172.388 L 9.49363 172.669 L 9.6326 172.923 L 9.81637 173.146 L 10.0387 173.329 L 10.2934 173.468 L 10.5742 173.556 L 10.7225 173.579 L 10.8749 173.587 L 14.2251 173.587 L 14.3775 173.579 L 14.5258 173.556 L 14.8066 173.468 L 15.0612 173.329 L 15.2836 173.146 L 15.4674 172.923 L 15.6063 172.669 L 15.6943 172.388 L 15.7172 172.24 L 15.725 172.087 L 15.725 171.912 L 15.7172 171.76 L 15.6943 171.611 L 15.6063 171.33 L 15.4674 171.076 L 15.2836 170.853 L 15.0612 170.67 L 14.8066 170.531 L 14.5258 170.443 L 14.3775 170.42 L 14.2251 170.412 L 10.8749 170.412 L 10.7225 170.42 L 10.5742 170.443 L 10.2934 170.531 L 10.0387 170.67 L 9.81637 170.853 L 9.6326 171.076 L 9.49363 171.33 L 9.40568 171.611 L 9.38279 171.76 L 9.37498 171.912 L 9.37498 172.087"
       style="clip-rule:evenodd;fill:#ffffff;fill-rule:evenodd;stroke:#000000;stroke-width:0.351896px;stroke-linecap:round;stroke-linejoin:round"
       id="path1096" />
    <path
       d="M 8.38491 22.5999 L 8.40658 22.1766 L 8.47016 21.765 L 8.57348 21.3672 L 8.71438 20.9853 L 8.89071 20.6216 L 9.10029 20.2781 L 9.34097 19.9571 L 9.61059 19.6608 L 9.90699 19.3911 L 10.228 19.1505 L 10.5715 18.9409 L 10.9352 18.7646 L 11.3171 18.6237 L 11.715 18.5204 L 12.1267 18.4568 L 12.55 18.4351 L 12.9733 18.4568 L 13.385 18.5204 L 13.7828 18.6237 L 14.1647 18.7646 L 14.5285 18.9409 L 14.872 19.1505 L 15.193 19.3911 L 15.4894 19.6608 L 15.759 19.9571 L 15.9997 20.2781 L 16.2093 20.6216 L 16.3856 20.9853 L 16.5265 21.3672 L 16.6298 21.765 L 16.6934 22.1766 L 16.7151 22.5999 L 16.6934 23.0232 L 16.6298 23.4349 L 16.5265 23.8328 L 16.3856 24.2147 L 16.2093 24.5784 L 15.9997 24.9219 L 15.759 25.2429 L 15.4894 25.5393 L 15.193 25.8089 L 14.872 26.0496 L 14.5285 26.2592 L 14.1647 26.4355 L 13.7828 26.5764 L 13.385 26.6797 L 12.9733 26.7433 L 12.55 26.765 L 12.1267 26.7433 L 11.715 26.6797 L 11.3171 26.5764 L 10.9352 26.4355 L 10.5715 26.2592 L 10.228 26.0496 L 9.90699 25.8089 L 9.61059 25.5393 L 9.34097 25.2429 L 9.10029 24.9219 L 8.89071 24.5784 L 8.71438 24.2147 L 8.57348 23.8328 L 8.47016 23.4349 L 8.40658 23.0232 L 8.38491 22.5999"
       style="clip-rule:evenodd;fill:#ffffff;fill-rule:evenodd;stroke:#000000;stroke-width:0.351896px;stroke-linecap:round;stroke-linejoin:round"
       id="path1098" />
    <path
       d="M 8.38491 41.6499 L 8.40658 41.2266 L 8.47016 40.815 L 8.57348 40.4172 L 8.71438 40.0353 L 8.89071 39.6716 L 9.10029 39.3281 L 9.34097 39.0071 L 9.61059 38.7108 L 9.90699 38.4411 L 10.228 38.2005 L 10.5715 37.9909 L 10.9352 37.8146 L 11.3171 37.6737 L 11.715 37.5704 L 12.1267 37.5068 L 12.55 37.4851 L 12.9733 37.5068 L 13.385 37.5704 L 13.7828 37.6737 L 14.1647 37.8146 L 14.5285 37.9909 L 14.872 38.2005 L 15.193 38.4411 L 15.4894 38.7108 L 15.759 39.0071 L 15.9997 39.3281 L 16.2093 39.6716 L 16.3856 40.0353 L 16.5265 40.4172 L 16.6298 40.815 L 16.6934 41.2266 L 16.7151 41.6499 L 16.6934 42.0732 L 16.6298 42.4849 L 16.5265 42.8828 L 16.3856 43.2647 L 16.2093 43.6284 L 15.9997 43.9719 L 15.759 44.2929 L 15.4894 44.5893 L 15.193 44.8589 L 14.872 45.0996 L 14.5285 45.3092 L 14.1647 45.4855 L 13.7828 45.6264 L 13.385 45.7297 L 12.9733 45.7933 L 12.55 45.815 L 12.1267 45.7933 L 11.715 45.7297 L 11.3171 45.6264 L 10.9352 45.4855 L 10.5715 45.3092 L 10.228 45.0996 L 9.90699 44.8589 L 9.61059 44.5893 L 9.34097 44.2929 L 9.10029 43.9719 L 8.89071 43.6284 L 8.71438 43.2647 L 8.57348 42.8828 L 8.47016 42.4849 L 8.40658 42.0732 L 8.38491 41.6499"
       style="clip-rule:evenodd;fill:#ffffff;fill-rule:evenodd;stroke:#000000;stroke-width:0.351896px;stroke-linecap:round;stroke-linejoin:round"
       id="path1100" />
    <path
       d="M 8.38491 60.6999 L 8.40658 60.2766 L 8.47016 59.865 L 8.57348 59.4672 L 8.71438 59.0853 L 8.89071 58.7216 L 9.10029 58.3781 L 9.34097 58.0571 L 9.61059 57.7608 L 9.90699 57.4911 L 10.228 57.2505 L 10.5715 57.0409 L 10.9352 56.8646 L 11.3171 56.7237 L 11.715 56.6204 L 12.1267 56.5568 L 12.55 56.5351 L 12.9733 56.5568 L 13.385 56.6204 L 13.7828 56.7237 L 14.1647 56.8646 L 14.5285 57.0409 L 14.872 57.2505 L 15.193 57.4911 L 15.4894 57.7608 L 15.759 58.0571 L 15.9997 58.3781 L 16.2093 58.7216 L 16.3856 59.0853 L 16.5265 59.4672 L 16.6298 59.865 L 16.6934 60.2766 L 16.7151 60.6999 L 16.6934 61.1232 L 16.6298 61.5349 L 16.5265 61.9328 L 16.3856 62.3147 L 16.2093 62.6784 L 15.9997 63.0219 L 15.759 63.3429 L 15.4894 63.6393 L 15.193 63.9089 L 14.872 64.1496 L 14.5285 64.3592 L 14.1647 64.5355 L 13.7828 64.6764 L 13.385 64.7797 L 12.9733 64.8433 L 12.55 64.865 L 12.1267 64.8433 L 11.715 64.7797 L 11.3171 64.6764 L 10.9352 64.5355 L 10.5715 64.3592 L 10.228 64.1496 L 9.90699 63.9089 L 9.61059 63.6393 L 9.34097 63.3429 L 9.10029 63.0219 L 8.89071 62.6784 L 8.71438 62.3147 L 8.57348 61.9328 L 8.47016 61.5349 L 8.40658 61.1232 L 8.38491 60.6999"
       style="clip-rule:evenodd;fill:#ffffff;fill-rule:evenodd;stroke:#000000;stroke-width:0.351896px;stroke-linecap:round;stroke-linejoin:round"
       id="path1102" />
    <path
       d="M 8.38491 79.7499 L 8.40658 79.3266 L 8.47016 78.915 L 8.57348 78.5172 L 8.71438 78.1353 L 8.89071 77.7716 L 9.10029 77.4281 L 9.34097 77.1071 L 9.61059 76.8108 L 9.90699 76.5411 L 10.228 76.3005 L 10.5715 76.0909 L 10.9352 75.9146 L 11.3171 75.7737 L 11.715 75.6704 L 12.1267 75.6068 L 12.55 75.5851 L 12.9733 75.6068 L 13.385 75.6704 L 13.7828 75.7737 L 14.1647 75.9146 L 14.5285 76.0909 L 14.872 76.3005 L 15.193 76.5411 L 15.4894 76.8108 L 15.759 77.1071 L 15.9997 77.4281 L 16.2093 77.7716 L 16.3856 78.1353 L 16.5265 78.5172 L 16.6298 78.915 L 16.6934 79.3266 L 16.7151 79.7499 L 16.6934 80.1732 L 16.6298 80.5849 L 16.5265 80.9828 L 16.3856 81.3647 L 16.2093 81.7284 L 15.9997 82.0719 L 15.759 82.3929 L 15.4894 82.6893 L 15.193 82.9589 L 14.872 83.1996 L 14.5285 83.4092 L 14.1647 83.5855 L 13.7828 83.7264 L 13.385 83.8297 L 12.9733 83.8933 L 12.55 83.915 L 12.1267 83.8933 L 11.715 83.8297 L 11.3171 83.7264 L 10.9352 83.5855 L 10.5715 83.4092 L 10.228 83.1996 L 9.90699 82.9589 L 9.61059 82.6893 L 9.34097 82.3929 L 9.10029 82.0719 L 8.89071 81.7284 L 8.71438 81.3647 L 8.57348 80.9828 L 8.47016 80.5849 L 8.40658 80.1732 L 8.38491 79.7499"
       style="clip-rule:evenodd;fill:#ffffff;fill-rule:evenodd;stroke:#000000;stroke-width:0.351896px;stroke-linecap:round;stroke-linejoin:round"
       id="path1104" />
    <path
       d="M 8.80004 98.7999 L 8.81955 98.4188 L 8.8768 98.0482 L 8.96982 97.69 L 9.09669 97.3461 L 9.25544 97.0186 L 9.44414 96.7094 L 9.66083 96.4204 L 9.90359 96.1535 L 10.1704 95.9108 L 10.4595 95.6941 L 10.7687 95.5054 L 11.0962 95.3466 L 11.44 95.2198 L 11.7982 95.1267 L 12.1689 95.0695 L 12.55 95.05 L 12.9311 95.0695 L 13.3017 95.1267 L 13.6599 95.2198 L 14.0038 95.3466 L 14.3313 95.5054 L 14.6405 95.6941 L 14.9295 95.9108 L 15.1964 96.1535 L 15.4391 96.4204 L 15.6558 96.7094 L 15.8445 97.0186 L 16.0033 97.3461 L 16.1301 97.69 L 16.2232 98.0482 L 16.2804 98.4188 L 16.2999 98.7999 L 16.2804 99.1811 L 16.2232 99.5518 L 16.1301 99.91 L 16.0033 100.254 L 15.8445 100.581 L 15.6558 100.891 L 15.4391 101.18 L 15.1964 101.447 L 14.9295 101.689 L 14.6405 101.906 L 14.3313 102.095 L 14.0038 102.253 L 13.6599 102.38 L 13.3017 102.473 L 12.9311 102.531 L 12.55 102.55 L 12.1689 102.531 L 11.7982 102.473 L 11.44 102.38 L 11.0962 102.253 L 10.7687 102.095 L 10.4595 101.906 L 10.1704 101.689 L 9.90359 101.447 L 9.66083 101.18 L 9.44414 100.891 L 9.25544 100.581 L 9.09669 100.254 L 8.96982 99.91 L 8.8768 99.5518 L 8.81955 99.1811 L 8.80004 98.7999"
       style="clip-rule:evenodd;fill:#ffffff;fill-rule:evenodd;stroke:#000000;stroke-width:0.351896px;stroke-linecap:round;stroke-linejoin:round"
       id="path1106" />
    <path
       d="M 8.80004 117.85 L 8.81955 117.469 L 8.8768 117.098 L 8.96982 116.74 L 9.09669 116.396 L 9.25544 116.069 L 9.44414 115.759 L 9.66083 115.47 L 9.90359 115.204 L 10.1704 114.961 L 10.4595 114.744 L 10.7687 114.555 L 11.0962 114.397 L 11.44 114.27 L 11.7982 114.177 L 12.1689 114.119 L 12.55 114.1 L 12.9311 114.119 L 13.3017 114.177 L 13.6599 114.27 L 14.0038 114.397 L 14.3313 114.555 L 14.6405 114.744 L 14.9295 114.961 L 15.1964 115.204 L 15.4391 115.47 L 15.6558 115.759 L 15.8445 116.069 L 16.0033 116.396 L 16.1301 116.74 L 16.2232 117.098 L 16.2804 117.469 L 16.2999 117.85 L 16.2804 118.231 L 16.2232 118.602 L 16.1301 118.96 L 16.0033 119.304 L 15.8445 119.631 L 15.6558 119.941 L 15.4391 120.23 L 15.1964 120.497 L 14.9295 120.739 L 14.6405 120.956 L 14.3313 121.145 L 14.0038 121.303 L 13.6599 121.43 L 13.3017 121.523 L 12.9311 121.581 L 12.55 121.6 L 12.1689 121.581 L 11.7982 121.523 L 11.44 121.43 L 11.0962 121.303 L 10.7687 121.145 L 10.4595 120.956 L 10.1704 120.739 L 9.90359 120.497 L 9.66083 120.23 L 9.44414 119.941 L 9.25544 119.631 L 9.09669 119.304 L 8.96982 118.96 L 8.8768 118.602 L 8.81955 118.231 L 8.80004 117.85"
       style="clip-rule:evenodd;fill:#ffffff;fill-rule:evenodd;stroke:#000000;stroke-width:0.351896px;stroke-linecap:round;stroke-linejoin:round"
       id="path1108" />
    <path
       d="M 8.38491 136.9 L 8.40658 136.477 L 8.47016 136.065 L 8.57348 135.667 L 8.71438 135.285 L 8.89071 134.922 L 9.10029 134.578 L 9.34097 134.257 L 9.61059 133.961 L 9.90699 133.691 L 10.228 133.45 L 10.5715 133.241 L 10.9352 133.065 L 11.3171 132.924 L 11.715 132.82 L 12.1267 132.757 L 12.55 132.735 L 12.9733 132.757 L 13.385 132.82 L 13.7828 132.924 L 14.1647 133.065 L 14.5285 133.241 L 14.872 133.45 L 15.193 133.691 L 15.4894 133.961 L 15.759 134.257 L 15.9997 134.578 L 16.2093 134.922 L 16.3856 135.285 L 16.5265 135.667 L 16.6298 136.065 L 16.6934 136.477 L 16.7151 136.9 L 16.6934 137.323 L 16.6298 137.735 L 16.5265 138.133 L 16.3856 138.515 L 16.2093 138.878 L 15.9997 139.222 L 15.759 139.543 L 15.4894 139.839 L 15.193 140.109 L 14.872 140.35 L 14.5285 140.559 L 14.1647 140.736 L 13.7828 140.876 L 13.385 140.98 L 12.9733 141.043 L 12.55 141.065 L 12.1267 141.043 L 11.715 140.98 L 11.3171 140.876 L 10.9352 140.736 L 10.5715 140.559 L 10.228 140.35 L 9.90699 140.109 L 9.61059 139.839 L 9.34097 139.543 L 9.10029 139.222 L 8.89071 138.878 L 8.71438 138.515 L 8.57348 138.133 L 8.47016 137.735 L 8.40658 137.323 L 8.38491 136.9"
       style="clip-rule:evenodd;fill:#ffffff;fill-rule:evenodd;stroke:#000000;stroke-width:0.351896px;stroke-linecap:round;stroke-linejoin:round"
       id="path1110" />
    <path
       d="M 8.38491 155.95 L 8.40658 155.527 L 8.47016 155.115 L 8.57348 154.717 L 8.71438 154.335 L 8.89071 153.972 L 9.10029 153.628 L 9.34097 153.307 L 9.61059 153.011 L 9.90699 152.741 L 10.228 152.5 L 10.5715 152.291 L 10.9352 152.115 L 11.3171 151.974 L 11.715 151.87 L 12.1267 151.807 L 12.55 151.785 L 12.9733 151.807 L 13.385 151.87 L 13.7828 151.974 L 14.1647 152.115 L 14.5285 152.291 L 14.872 152.5 L 15.193 152.741 L 15.4894 153.011 L 15.759 153.307 L 15.9997 153.628 L 16.2093 153.972 L 16.3856 154.335 L 16.5265 154.717 L 16.6298 155.115 L 16.6934 155.527 L 16.7151 155.95 L 16.6934 156.373 L 16.6298 156.785 L 16.5265 157.183 L 16.3856 157.565 L 16.2093 157.928 L 15.9997 158.272 L 15.759 158.593 L 15.4894 158.889 L 15.193 159.159 L 14.872 159.4 L 14.5285 159.609 L 14.1647 159.786 L 13.7828 159.926 L 13.385 160.03 L 12.9733 160.093 L 12.55 160.115 L 12.1267 160.093 L 11.715 160.03 L 11.3171 159.926 L 10.9352 159.786 L 10.5715 159.609 L 10.228 159.4 L 9.90699 159.159 L 9.61059 158.889 L 9.34097 158.593 L 9.10029 158.272 L 8.89071 157.928 L 8.71438 157.565 L 8.57348 157.183 L 8.47016 156.785 L 8.40658 156.373 L 8.38491 155.95"
       style="clip-rule:evenodd;fill:#ffffff;fill-rule:evenodd;stroke:#000000;stroke-width:0.351896px;stroke-linecap:round;stroke-linejoin:round"
       id="path1112" />
    <path
       d="M 33.7849 22.5999 L 33.8066 22.1766 L 33.8702 21.765 L 33.9735 21.3672 L 34.1144 20.9853 L 34.2907 20.6216 L 34.5003 20.2781 L 34.741 19.9571 L 35.0106 19.6608 L 35.307 19.3911 L 35.628 19.1505 L 35.9715 18.9409 L 36.3352 18.7646 L 36.7171 18.6237 L 37.115 18.5204 L 37.5267 18.4568 L 37.95 18.4351 L 38.3733 18.4568 L 38.785 18.5204 L 39.1828 18.6237 L 39.5647 18.7646 L 39.9285 18.9409 L 40.272 19.1505 L 40.593 19.3911 L 40.8894 19.6608 L 41.159 19.9571 L 41.3997 20.2781 L 41.6093 20.6216 L 41.7856 20.9853 L 41.9265 21.3672 L 42.0298 21.765 L 42.0934 22.1766 L 42.1151 22.5999 L 42.0934 23.0232 L 42.0298 23.4349 L 41.9265 23.8328 L 41.7856 24.2147 L 41.6093 24.5784 L 41.3997 24.9219 L 41.159 25.2429 L 40.8894 25.5393 L 40.593 25.8089 L 40.272 26.0496 L 39.9285 26.2592 L 39.5647 26.4355 L 39.1828 26.5764 L 38.785 26.6797 L 38.3733 26.7433 L 37.95 26.765 L 37.5267 26.7433 L 37.115 26.6797 L 36.7171 26.5764 L 36.3352 26.4355 L 35.9715 26.2592 L 35.628 26.0496 L 35.307 25.8089 L 35.0106 25.5393 L 34.741 25.2429 L 34.5003 24.9219 L 34.2907 24.5784 L 34.1144 24.2147 L 33.9735 23.8328 L 33.8702 23.4349 L 33.8066 23.0232 L 33.7849 22.5999"
       style="clip-rule:evenodd;fill:#ffffff;fill-rule:evenodd;stroke:#000000;stroke-width:0.351896px;stroke-linecap:round;stroke-linejoin:round"
       id="path1114" />
    <path
       d="M 33.7849 41.6499 L 33.8066 41.2266 L 33.8702 40.815 L 33.9735 40.4172 L 34.1144 40.0353 L 34.2907 39.6716 L 34.5003 39.3281 L 34.741 39.0071 L 35.0106 38.7108 L 35.307 38.4411 L 35.628 38.2005 L 35.9715 37.9909 L 36.3352 37.8146 L 36.7171 37.6737 L 37.115 37.5704 L 37.5267 37.5068 L 37.95 37.4851 L 38.3733 37.5068 L 38.785 37.5704 L 39.1828 37.6737 L 39.5647 37.8146 L 39.9285 37.9909 L 40.272 38.2005 L 40.593 38.4411 L 40.8894 38.7108 L 41.159 39.0071 L 41.3997 39.3281 L 41.6093 39.6716 L 41.7856 40.0353 L 41.9265 40.4172 L 42.0298 40.815 L 42.0934 41.2266 L 42.1151 41.6499 L 42.0934 42.0732 L 42.0298 42.4849 L 41.9265 42.8828 L 41.7856 43.2647 L 41.6093 43.6284 L 41.3997 43.9719 L 41.159 44.2929 L 40.8894 44.5893 L 40.593 44.8589 L 40.272 45.0996 L 39.9285 45.3092 L 39.5647 45.4855 L 39.1828 45.6264 L 38.785 45.7297 L 38.3733 45.7933 L 37.95 45.815 L 37.5267 45.7933 L 37.115 45.7297 L 36.7171 45.6264 L 36.3352 45.4855 L 35.9715 45.3092 L 35.628 45.0996 L 35.307 44.8589 L 35.0106 44.5893 L 34.741 44.2929 L 34.5003 43.9719 L 34.2907 43.6284 L 34.1144 43.2647 L 33.9735 42.8828 L 33.8702 42.4849 L 33.8066 42.0732 L 33.7849 41.6499"
       style="clip-rule:evenodd;fill:#ffffff;fill-rule:evenodd;stroke:#000000;stroke-width:0.351896px;stroke-linecap:round;stroke-linejoin:round"
       id="path1116" />
    <path
       d="M 33.7849 60.6999 L 33.8066 60.2766 L 33.8702 59.865 L 33.9735 59.4672 L 34.1144 59.0853 L 34.2907 58.7216 L 34.5003 58.3781 L 34.741 58.0571 L 35.0106 57.7608 L 35.307 57.4911 L 35.628 57.2505 L 35.9715 57.0409 L 36.3352 56.8646 L 36.7171 56.7237 L 37.115 56.6204 L 37.5267 56.5568 L 37.95 56.5351 L 38.3733 56.5568 L 38.785 56.6204 L 39.1828 56.7237 L 39.5647 56.8646 L 39.9285 57.0409 L 40.272 57.2505 L 40.593 57.4911 L 40.8894 57.7608 L 41.159 58.0571 L 41.3997 58.3781 L 41.6093 58.7216 L 41.7856 59.0853 L 41.9265 59.4672 L 42.0298 59.865 L 42.0934 60.2766 L 42.1151 60.6999 L 42.0934 61.1232 L 42.0298 61.5349 L 41.9265 61.9328 L 41.7856 62.3147 L 41.6093 62.6784 L 41.3997 63.0219 L 41.159 63.3429 L 40.8894 63.6393 L 40.593 63.9089 L 40.272 64.1496 L 39.9285 64.3592 L 39.5647 64.5355 L 39.1828 64.6764 L 38.785 64.7797 L 38.3733 64.8433 L 37.95 64.865 L 37.5267 64.8433 L 37.115 64.7797 L 36.7171 64.6764 L 36.3352 64.5355 L 35.9715 64.3592 L 35.628 64.1496 L 35.307 63.9089 L 35.0106 63.6393 L 34.741 63.3429 L 34.5003 63.0219 L 34.2907 62.6784 L 34.1144 62.3147 L 33.9735 61.9328 L 33.8702 61.5349 L 33.8066 61.1232 L 33.7849 60.6999"
       style="clip-rule:evenodd;fill:#ffffff;fill-rule:evenodd;stroke:#000000;stroke-width:0.351896px;stroke-linecap:round;stroke-linejoin:round"
       id="path1118" />
    <path
       d="M 33.7849 79.7499 L 33.8066 79.3266 L 33.8702 78.915 L 33.9735 78.5172 L 34.1144 78.1353 L 34.2907 77.7716 L 34.5003 77.4281 L 34.741 77.1071 L 35.0106 76.8108 L 35.307 76.5411 L 35.628 76.3005 L 35.9715 76.0909 L 36.3352 75.9146 L 36.7171 75.7737 L 37.115 75.6704 L 37.5267 75.6068 L 37.95 75.5851 L 38.3733 75.6068 L 38.785 75.6704 L 39.1828 75.7737 L 39.5647 75.9146 L 39.9285 76.0909 L 40.272 76.3005 L 40.593 76.5411 L 40.8894 76.8108 L 41.159 77.1071 L 41.3997 77.4281 L 41.6093 77.7716 L 41.7856 78.1353 L 41.9265 78.5172 L 42.0298 78.915 L 42.0934 79.3266 L 42.1151 79.7499 L 42.0934 80.1732 L 42.0298 80.5849 L 41.9265 80.9828 L 41.7856 81.3647 L 41.6093 81.7284 L 41.3997 82.0719 L 41.159 82.3929 L 40.8894 82.6893 L 40.593 82.9589 L 40.272 83.1996 L 39.9285 83.4092 L 39.5647 83.5855 L 39.1828 83.7264 L 38.785 83.8297 L 38.3733 83.8933 L 37.95 83.915 L 37.5267 83.8933 L 37.115 83.8297 L 36.7171 83.7264 L 36.3352 83.5855 L 35.9715 83.4092 L 35.628 83.1996 L 35.307 82.9589 L 35.0106 82.6893 L 34.741 82.3929 L 34.5003 82.0719 L 34.2907 81.7284 L 34.1144 81.3647 L 33.9735 80.9828 L 33.8702 80.5849 L 33.8066 80.1732 L 33.7849 79.7499"
       style="clip-rule:evenodd;fill:#ffffff;fill-rule:evenodd;stroke:#000000;stroke-width:0.351896px;stroke-linecap:round;stroke-linejoin:round"
       id="path1120" />
    <path
       d="M 34.2 98.7999 L 34.2196 98.4188 L 34.2768 98.0482 L 34.3698 97.69 L 34.4967 97.3461 L 34.6554 97.0186 L 34.8441 96.7094 L 35.0608 96.4204 L 35.3036 96.1535 L 35.5704 95.9108 L 35.8595 95.6941 L 36.1687 95.5054 L 36.4962 95.3466 L 36.84 95.2198 L 37.1982 95.1267 L 37.5689 95.0695 L 37.95 95.05 L 38.3311 95.0695 L 38.7017 95.1267 L 39.0599 95.2198 L 39.4038 95.3466 L 39.7313 95.5054 L 40.0405 95.6941 L 40.3295 95.9108 L 40.5964 96.1535 L 40.8391 96.4204 L 41.0558 96.7094 L 41.2445 97.0186 L 41.4033 97.3461 L 41.5301 97.69 L 41.6232 98.0482 L 41.6804 98.4188 L 41.6999 98.7999 L 41.6804 99.1811 L 41.6232 99.5518 L 41.5301 99.91 L 41.4033 100.254 L 41.2445 100.581 L 41.0558 100.891 L 40.8391 101.18 L 40.5964 101.447 L 40.3295 101.689 L 40.0405 101.906 L 39.7313 102.095 L 39.4038 102.253 L 39.0599 102.38 L 38.7017 102.473 L 38.3311 102.531 L 37.95 102.55 L 37.5689 102.531 L 37.1982 102.473 L 36.84 102.38 L 36.4962 102.253 L 36.1687 102.095 L 35.8595 101.906 L 35.5704 101.689 L 35.3036 101.447 L 35.0608 101.18 L 34.8441 100.891 L 34.6554 100.581 L 34.4967 100.254 L 34.3698 99.91 L 34.2768 99.5518 L 34.2196 99.1811 L 34.2 98.7999"
       style="clip-rule:evenodd;fill:#ffffff;fill-rule:evenodd;stroke:#000000;stroke-width:0.351896px;stroke-linecap:round;stroke-linejoin:round"
       id="path1122" />
    <path
       d="M 34.2 117.85 L 34.2196 117.469 L 34.2768 117.098 L 34.3698 116.74 L 34.4967 116.396 L 34.6554 116.069 L 34.8441 115.759 L 35.0608 115.47 L 35.3036 115.204 L 35.5704 114.961 L 35.8595 114.744 L 36.1687 114.555 L 36.4962 114.397 L 36.84 114.27 L 37.1982 114.177 L 37.5689 114.119 L 37.95 114.1 L 38.3311 114.119 L 38.7017 114.177 L 39.0599 114.27 L 39.4038 114.397 L 39.7313 114.555 L 40.0405 114.744 L 40.3295 114.961 L 40.5964 115.204 L 40.8391 115.47 L 41.0558 115.759 L 41.2445 116.069 L 41.4033 116.396 L 41.5301 116.74 L 41.6232 117.098 L 41.6804 117.469 L 41.6999 117.85 L 41.6804 118.231 L 41.6232 118.602 L 41.5301 118.96 L 41.4033 119.304 L 41.2445 119.631 L 41.0558 119.941 L 40.8391 120.23 L 40.5964 120.497 L 40.3295 120.739 L 40.0405 120.956 L 39.7313 121.145 L 39.4038 121.303 L 39.0599 121.43 L 38.7017 121.523 L 38.3311 121.581 L 37.95 121.6 L 37.5689 121.581 L 37.1982 121.523 L 36.84 121.43 L 36.4962 121.303 L 36.1687 121.145 L 35.8595 120.956 L 35.5704 120.739 L 35.3036 120.497 L 35.0608 120.23 L 34.8441 119.941 L 34.6554 119.631 L 34.4967 119.304 L 34.3698 118.96 L 34.2768 118.602 L 34.2196 118.231 L 34.2 117.85"
       style="clip-rule:evenodd;fill:#ffffff;fill-rule:evenodd;stroke:#000000;stroke-width:0.351896px;stroke-linecap:round;stroke-linejoin:round"
       id="path1124" />
    <path
       d="M 33.7849 136.9 L 33.8066 136.477 L 33.8702 136.065 L 33.9735 135.667 L 34.1144 135.285 L 34.2907 134.922 L 34.5003 134.578 L 34.741 134.257 L 35.0106 133.961 L 35.307 133.691 L 35.628 133.45 L 35.9715 133.241 L 36.3352 133.065 L 36.7171 132.924 L 37.115 132.82 L 37.5267 132.757 L 37.95 132.735 L 38.3733 132.757 L 38.785 132.82 L 39.1828 132.924 L 39.5647 133.065 L 39.9285 133.241 L 40.272 133.45 L 40.593 133.691 L 40.8894 133.961 L 41.159 134.257 L 41.3997 134.578 L 41.6093 134.922 L 41.7856 135.285 L 41.9265 135.667 L 42.0298 136.065 L 42.0934 136.477 L 42.1151 136.9 L 42.0934 137.323 L 42.0298 137.735 L 41.9265 138.133 L 41.7856 138.515 L 41.6093 138.878 L 41.3997 139.222 L 41.159 139.543 L 40.8894 139.839 L 40.593 140.109 L 40.272 140.35 L 39.9285 140.559 L 39.5647 140.736 L 39.1828 140.876 L 38.785 140.98 L 38.3733 141.043 L 37.95 141.065 L 37.5267 141.043 L 37.115 140.98 L 36.7171 140.876 L 36.3352 140.736 L 35.9715 140.559 L 35.628 140.35 L 35.307 140.109 L 35.0106 139.839 L 34.741 139.543 L 34.5003 139.222 L 34.2907 138.878 L 34.1144 138.515 L 33.9735 138.133 L 33.8702 137.735 L 33.8066 137.323 L 33.7849 136.9"
       style="clip-rule:evenodd;fill:#ffffff;fill-rule:evenodd;stroke:#000000;stroke-width:0.351896px;stroke-linecap:round;stroke-linejoin:round"
       id="path1126" />
    <path
       d="M 33.7849 155.95 L 33.8066 155.527 L 33.8702 155.115 L 33.9735 154.717 L 34.1144 154.335 L 34.2907 153.972 L 34.5003 153.628 L 34.741 153.307 L 35.0106 153.011 L 35.307 152.741 L 35.628 152.5 L 35.9715 152.291 L 36.3352 152.115 L 36.7171 151.974 L 37.115 151.87 L 37.5267 151.807 L 37.95 151.785 L 38.3733 151.807 L 38.785 151.87 L 39.1828 151.974 L 39.5647 152.115 L 39.9285 152.291 L 40.272 152.5 L 40.593 152.741 L 40.8894 153.011 L 41.159 153.307 L 41.3997 153.628 L 41.6093 153.972 L 41.7856 154.335 L 41.9265 154.717 L 42.0298 155.115 L 42.0934 155.527 L 42.1151 155.95 L 42.0934 156.373 L 42.0298 156.785 L 41.9265 157.183 L 41.7856 157.565 L 41.6093 157.928 L 41.3997 158.272 L 41.159 158.593 L 40.8894 158.889 L 40.593 159.159 L 40.272 159.4 L 39.9285 159.609 L 39.5647 159.786 L 39.1828 159.926 L 38.785 160.03 L 38.3733 160.093 L 37.95 160.115 L 37.5267 160.093 L 37.115 160.03 L 36.7171 159.926 L 36.3352 159.786 L 35.9715 159.609 L 35.628 159.4 L 35.307 159.159 L 35.0106 158.889 L 34.741 158.593 L 34.5003 158.272 L 34.2907 157.928 L 34.1144 157.565 L 33.9735 157.183 L 33.8702 156.785 L 33.8066 156.373 L 33.7849 155.95"
       style="clip-rule:evenodd;fill:#ffffff;fill-rule:evenodd;stroke:#000000;stroke-width:0.351896px;stroke-linecap:round;stroke-linejoin:round"
       id="path1128" />
  </g>
  <g
     inkscape:label="F.Cu"
     inkscape:groupmode="layer"
     id="g1478"
     style="display:inline">
    <path
       d="m 19.424121,102.72686 c 0.696647,-1.2065 1.06336,-2.57546 1.06336,-3.968751 0,-4.380706 -3.556529,-7.9375 -7.9375,-7.9375 -4.3807061,0 -7.9374998,3.556794 -7.9374998,7.9375 0,1.393291 0.3667125,2.762251 1.0633604,3.968751"
       style="clip-rule:evenodd;fill:none;fill-rule:evenodd;stroke:#000000;stroke-width:0.470958px;stroke-linecap:round;stroke-linejoin:round;stroke-miterlimit:1.5"
       id="path1137" />
    <path
       d="m 12.549981,84.359484 v 6.461125"
       style="clip-rule:evenodd;fill:none;fill-rule:evenodd;stroke:#000000;stroke-width:0.457729px;stroke-linecap:round;stroke-linejoin:round;stroke-miterlimit:1.5"
       id="path1139" />
    <path
       d="m 12.549981,103.12268 v 10.51771"
       style="clip-rule:evenodd;fill:none;fill-rule:evenodd;stroke:#000000;stroke-width:0.457729px;stroke-linecap:round;stroke-linejoin:round;stroke-miterlimit:1.5"
       id="path1141" />
    <path
       d="m 44.809833,102.72686 c 0.696648,-1.2065 1.06336,-2.57546 1.06336,-3.968751 0,-4.380706 -3.556529,-7.9375 -7.9375,-7.9375 -4.380706,0 -7.9375,3.556794 -7.9375,7.9375 0,1.393291 0.366977,2.762251 1.063625,3.968751"
       style="clip-rule:evenodd;fill:none;fill-rule:evenodd;stroke:#000000;stroke-width:0.470958px;stroke-linecap:round;stroke-linejoin:round;stroke-miterlimit:1.5"
       id="path1143" />
    <path
       d="m 37.935693,84.359484 v 6.461125"
       style="clip-rule:evenodd;fill:none;fill-rule:evenodd;stroke:#000000;stroke-width:0.457729px;stroke-linecap:round;stroke-linejoin:round;stroke-miterlimit:1.5"
       id="path1145" />
    <path
       d="m 37.935693,103.12268 v 10.51771"
       style="clip-rule:evenodd;fill:none;fill-rule:evenodd;stroke:#000000;stroke-width:0.457729px;stroke-linecap:round;stroke-linejoin:round;stroke-miterlimit:1.5"
       id="path1147" />
  </g>
  <g
     inkscape:label="F.Mask"
     inkscape:groupmode="layer"
     id="g1480"
     style="display:inline">
    <path
       d="m 19.424121,102.72686 c 0.696647,-1.2065 1.06336,-2.57546 1.06336,-3.968751 0,-4.380706 -3.556529,-7.9375 -7.9375,-7.9375 -4.3807061,0 -7.9374998,3.556794 -7.9374998,7.9375 0,1.393291 0.3667125,2.762251 1.0633604,3.968751"
       style="clip-rule:evenodd;fill:none;fill-rule:evenodd;stroke:#000000;stroke-width:0.470958px;stroke-linecap:round;stroke-linejoin:round;stroke-miterlimit:1.5"
       id="path2409" />
    <path
       d="m 12.549981,84.359484 v 6.461125"
       style="clip-rule:evenodd;fill:none;fill-rule:evenodd;stroke:#000000;stroke-width:0.457729px;stroke-linecap:round;stroke-linejoin:round;stroke-miterlimit:1.5"
       id="path2411" />
    <path
       d="m 12.549981,103.12268 v 10.51771"
       style="clip-rule:evenodd;fill:none;fill-rule:evenodd;stroke:#000000;stroke-width:0.457729px;stroke-linecap:round;stroke-linejoin:round;stroke-miterlimit:1.5"
       id="path2413" />
    <path
       d="m 44.809833,102.72686 c 0.696648,-1.2065 1.06336,-2.57546 1.06336,-3.968751 0,-4.380706 -3.556529,-7.9375 -7.9375,-7.9375 -4.380706,0 -7.9375,3.556794 -7.9375,7.9375 0,1.393291 0.366977,2.762251 1.063625,3.968751"
       style="clip-rule:evenodd;fill:none;fill-rule:evenodd;stroke:#000000;stroke-width:0.470958px;stroke-linecap:round;stroke-linejoin:round;stroke-miterlimit:1.5"
       id="path2415" />
    <path
       d="m 37.935693,84.359484 v 6.461125"
       style="clip-rule:evenodd;fill:none;fill-rule:evenodd;stroke:#000000;stroke-width:0.457729px;stroke-linecap:round;stroke-linejoin:round;stroke-miterlimit:1.5"
       id="path2417" />
    <path
       d="m 37.935693,103.12268 v 10.51771"
       style="clip-rule:evenodd;fill:none;fill-rule:evenodd;stroke:#000000;stroke-width:0.457729px;stroke-linecap:round;stroke-linejoin:round;stroke-miterlimit:1.5"
       id="path2419" />
  </g>
  <g
     inkscape:label="F.SilkS"
     inkscape:groupmode="layer"
     id="g1482"
     style="display:inline">
    <g
       id="Text"
       style="clip-rule:evenodd;fill-rule:evenodd;stroke-linecap:round;stroke-linejoin:round"
       transform="scale(0.26458333)">
      <path
         id="Title"
         d="m 3.691,24.951 3.336,8.36 3.383,-8.36 h 1.992 L 6.988,37.92 1.699,24.951 Z"
         style="fill-rule:nonzero" />
      <path
         d="m 19.98,34.084 h -5.164 l -1.344,2.93 h -1.961 l 5.969,-12.821 5.758,12.821 h -1.992 z m -0.742,-1.711 -1.789,-4.101 -1.875,4.101 z"
         style="fill-rule:nonzero"
         id="path1151" />
      <path
         d="m 28.832,31.873 3.734,5.141 h -2.227 l -3.445,-4.938 h -0.328 v 4.938 h -1.82 V 24.951 h 2.132 c 1.594,0 2.745,0.3 3.454,0.899 0.781,0.666 1.171,1.547 1.171,2.64 0,0.854 -0.244,1.589 -0.734,2.203 -0.49,0.615 -1.135,1.008 -1.937,1.18 z M 26.566,30.49 h 0.578 c 1.724,0 2.586,-0.659 2.586,-1.976 0,-1.235 -0.839,-1.852 -2.516,-1.852 h -0.648 z"
         style="fill-rule:nonzero"
         id="path1153" />
      <rect
         x="34.377998"
         y="24.951"
         width="1.8200001"
         height="12.063"
         style="fill-rule:nonzero"
         id="rect1155" />
      <path
         d="m 46.183,34.084 h -5.164 l -1.344,2.93 h -1.961 l 5.969,-12.821 5.758,12.821 h -1.992 z m -0.742,-1.711 -1.789,-4.101 -1.875,4.101 z"
         style="fill-rule:nonzero"
         id="path1157" />
      <path
         d="M 50.949,37.014 V 24.951 h 1.812 c 0.807,0 1.451,0.063 1.93,0.188 0.484,0.125 0.893,0.336 1.226,0.633 0.339,0.307 0.607,0.69 0.805,1.148 0.203,0.464 0.305,0.932 0.305,1.406 0,0.865 -0.331,1.597 -0.992,2.196 0.64,0.218 1.145,0.601 1.515,1.148 0.375,0.542 0.563,1.172 0.563,1.891 0,0.942 -0.334,1.739 -1,2.39 -0.401,0.401 -0.852,0.68 -1.352,0.836 -0.547,0.151 -1.232,0.227 -2.054,0.227 z m 1.82,-6.883 h 0.57 c 0.677,0 1.173,-0.15 1.489,-0.449 0.315,-0.3 0.472,-0.741 0.472,-1.324 0,-0.568 -0.161,-0.999 -0.484,-1.293 -0.323,-0.295 -0.792,-0.442 -1.406,-0.442 h -0.641 z m 0,5.172 h 1.125 c 0.823,0 1.427,-0.162 1.813,-0.485 0.406,-0.349 0.609,-0.791 0.609,-1.328 0,-0.521 -0.195,-0.958 -0.586,-1.312 -0.38,-0.349 -1.06,-0.524 -2.039,-0.524 h -0.922 z"
         style="fill-rule:nonzero"
         id="path1159" />
      <path
         d="m 62.23,24.951 v 10.352 h 3.547 v 1.711 H 60.41 V 24.951 Z"
         style="fill-rule:nonzero"
         id="path1161" />
      <path
         d="m 74.16,26.662 h -4.836 v 2.899 h 4.695 v 1.711 h -4.695 v 4.031 h 4.836 v 1.711 H 67.503 V 24.951 h 6.657 z"
         style="fill-rule:nonzero"
         id="path1163" />
      <rect
         x="81.487999"
         y="24.951"
         width="1.8200001"
         height="12.063"
         style="fill-rule:nonzero"
         id="rect1165" />
      <path
         d="M 86.207,37.014 V 24.131 l 8.796,9.203 v -8.383 h 1.821 v 12.797 l -8.797,-9.18 v 8.446 z"
         style="fill-rule:nonzero"
         id="path1167" />
      <path
         d="m 103.042,26.662 v 10.352 h -1.82 V 26.662 h -2.773 v -1.711 h 7.359 v 1.711 z"
         style="fill-rule:nonzero"
         id="path1169" />
      <path
         d="m 114.089,26.662 h -4.836 v 2.899 h 4.696 v 1.711 h -4.696 v 4.031 h 4.836 v 1.711 h -6.656 V 24.951 h 6.656 z"
         style="fill-rule:nonzero"
         id="path1171" />
      <path
         d="m 122.683,30.733 h 4.984 v 0.398 c 0,0.906 -0.106,1.708 -0.32,2.406 -0.208,0.646 -0.56,1.25 -1.055,1.813 -1.119,1.26 -2.544,1.89 -4.273,1.89 -1.687,0 -3.133,-0.609 -4.336,-1.828 -1.203,-1.224 -1.805,-2.693 -1.805,-4.406 0,-1.75 0.612,-3.234 1.836,-4.453 1.224,-1.224 2.714,-1.836 4.469,-1.836 0.943,0 1.823,0.193 2.641,0.578 0.781,0.385 1.549,1.01 2.304,1.875 l -1.296,1.242 c -0.99,-1.318 -2.196,-1.976 -3.618,-1.976 -1.276,0 -2.346,0.44 -3.211,1.32 -0.864,0.865 -1.296,1.948 -1.296,3.25 0,1.344 0.481,2.45 1.445,3.32 0.901,0.808 1.877,1.211 2.93,1.211 0.895,0 1.7,-0.302 2.414,-0.906 0.713,-0.609 1.112,-1.339 1.195,-2.188 h -3.008 z"
         style="fill-rule:nonzero"
         id="path1173" />
      <path
         d="m 134.042,31.873 3.735,5.141 h -2.227 l -3.445,-4.938 h -0.328 v 4.938 h -1.82 V 24.951 h 2.132 c 1.594,0 2.745,0.3 3.453,0.899 0.782,0.666 1.172,1.547 1.172,2.64 0,0.854 -0.244,1.589 -0.734,2.203 -0.49,0.615 -1.135,1.008 -1.938,1.18 z m -2.265,-1.383 h 0.578 c 1.724,0 2.586,-0.659 2.586,-1.976 0,-1.235 -0.839,-1.852 -2.516,-1.852 h -0.648 z"
         style="fill-rule:nonzero"
         id="path1175" />
      <path
         d="m 146.675,34.084 h -5.164 l -1.344,2.93 h -1.96 l 5.968,-12.821 5.758,12.821 h -1.992 z m -0.742,-1.711 -1.789,-4.101 -1.875,4.101 z"
         style="fill-rule:nonzero"
         id="path1177" />
      <path
         d="m 154.097,26.662 v 10.352 h -1.82 V 26.662 h -2.774 v -1.711 h 7.36 v 1.711 z"
         style="fill-rule:nonzero"
         id="path1179" />
      <path
         d="m 157.503,30.928 c 0,-1.698 0.623,-3.156 1.868,-4.375 1.239,-1.219 2.729,-1.828 4.468,-1.828 1.719,0 3.193,0.614 4.422,1.843 1.235,1.23 1.852,2.706 1.852,4.43 0,1.735 -0.62,3.206 -1.86,4.414 -1.244,1.214 -2.747,1.821 -4.507,1.821 -1.558,0 -2.956,-0.54 -4.196,-1.618 -1.364,-1.192 -2.047,-2.755 -2.047,-4.687 z m 1.836,0.023 c 0,1.334 0.448,2.43 1.344,3.289 0.891,0.86 1.919,1.289 3.086,1.289 1.266,0 2.333,-0.437 3.203,-1.312 0.87,-0.886 1.305,-1.964 1.305,-3.234 0,-1.287 -0.43,-2.365 -1.289,-3.235 -0.854,-0.875 -1.912,-1.312 -3.172,-1.312 -1.255,0 -2.315,0.437 -3.18,1.312 -0.864,0.865 -1.297,1.932 -1.297,3.203 z"
         style="fill-rule:nonzero"
         id="path1181" />
      <path
         d="m 176.488,31.873 3.734,5.141 h -2.226 l -3.446,-4.938 h -0.328 v 4.938 h -1.82 V 24.951 h 2.133 c 1.593,0 2.744,0.3 3.453,0.899 0.781,0.666 1.172,1.547 1.172,2.64 0,0.854 -0.245,1.589 -0.735,2.203 -0.489,0.615 -1.135,1.008 -1.937,1.18 z m -2.266,-1.383 h 0.578 c 1.724,0 2.586,-0.659 2.586,-1.976 0,-1.235 -0.838,-1.852 -2.515,-1.852 h -0.649 z"
         style="fill-rule:nonzero"
         id="path1183" />
      <path
         d="m 188.855,26.748 -1.477,0.875 c -0.276,-0.479 -0.539,-0.792 -0.789,-0.937 -0.26,-0.167 -0.596,-0.25 -1.007,-0.25 -0.506,0 -0.925,0.143 -1.258,0.429 -0.334,0.282 -0.5,0.636 -0.5,1.063 0,0.588 0.437,1.062 1.312,1.422 l 1.203,0.492 c 0.979,0.396 1.696,0.879 2.149,1.449 0.453,0.57 0.679,1.27 0.679,2.098 0,1.109 -0.369,2.026 -1.109,2.75 -0.745,0.729 -1.669,1.094 -2.773,1.094 -1.047,0 -1.912,-0.31 -2.594,-0.93 -0.672,-0.62 -1.091,-1.492 -1.258,-2.617 l 1.844,-0.407 c 0.083,0.709 0.229,1.198 0.437,1.469 0.375,0.521 0.922,0.781 1.641,0.781 0.568,0 1.039,-0.19 1.414,-0.57 0.375,-0.38 0.563,-0.862 0.563,-1.445 0,-0.235 -0.033,-0.449 -0.098,-0.645 -0.065,-0.195 -0.167,-0.375 -0.305,-0.539 -0.138,-0.164 -0.316,-0.318 -0.535,-0.461 -0.219,-0.143 -0.479,-0.28 -0.781,-0.41 l -1.164,-0.484 c -1.651,-0.698 -2.477,-1.719 -2.477,-3.063 0,-0.906 0.346,-1.664 1.039,-2.273 0.693,-0.615 1.555,-0.922 2.586,-0.922 1.391,0 2.477,0.677 3.258,2.031 z"
         style="fill-rule:nonzero"
         id="path1185" />
      <path
         d="m 22.089,117.123 c 0,-1.415 0.519,-2.63 1.556,-3.646 1.033,-1.015 2.274,-1.523 3.724,-1.523 1.432,0 2.661,0.512 3.685,1.536 1.029,1.025 1.543,2.255 1.543,3.692 0,1.445 -0.517,2.671 -1.55,3.678 -1.037,1.011 -2.289,1.517 -3.756,1.517 -1.298,0 -2.463,-0.449 -3.496,-1.348 -1.137,-0.994 -1.706,-2.296 -1.706,-3.906 z m 1.53,0.02 c 0,1.111 0.373,2.024 1.12,2.74 0.742,0.717 1.599,1.075 2.572,1.075 1.054,0 1.944,-0.365 2.669,-1.094 0.725,-0.738 1.087,-1.636 1.087,-2.695 0,-1.072 -0.358,-1.971 -1.074,-2.696 -0.712,-0.729 -1.593,-1.093 -2.643,-1.093 -1.046,0 -1.93,0.364 -2.65,1.093 -0.721,0.721 -1.081,1.611 -1.081,2.67 z"
         style="fill-rule:nonzero"
         id="path1187" />
      <path
         d="m 36.021,112.143 v 6.054 c 0,0.864 0.141,1.495 0.424,1.895 0.421,0.577 1.013,0.866 1.777,0.866 0.768,0 1.363,-0.289 1.784,-0.866 0.282,-0.386 0.423,-1.018 0.423,-1.895 v -6.054 h 1.517 v 6.471 c 0,1.059 -0.33,1.931 -0.99,2.617 -0.742,0.764 -1.653,1.146 -2.734,1.146 -1.081,0 -1.99,-0.382 -2.728,-1.146 -0.66,-0.686 -0.989,-1.558 -0.989,-2.617 v -6.471 z"
         style="fill-rule:nonzero"
         id="path1189" />
      <path
         d="m 47.128,113.568 v 8.627 h -1.517 v -8.627 H 43.3 v -1.425 h 6.133 v 1.425 z"
         style="fill-rule:nonzero"
         id="path1191" />
      <path
         d="m 52.304,118.113 v 4.082 h -1.517 v -10.052 h 1.719 c 0.842,0 1.478,0.058 1.907,0.175 0.434,0.118 0.816,0.339 1.146,0.664 0.577,0.565 0.866,1.276 0.866,2.136 0,0.92 -0.308,1.649 -0.924,2.187 -0.617,0.539 -1.448,0.808 -2.494,0.808 z m 0,-1.407 h 0.566 c 1.394,0 2.09,-0.536 2.09,-1.608 0,-1.037 -0.718,-1.556 -2.155,-1.556 h -0.501 z"
         style="fill-rule:nonzero"
         id="path1193" />
      <path
         d="m 59.505,112.143 v 6.054 c 0,0.864 0.141,1.495 0.423,1.895 0.421,0.577 1.013,0.866 1.777,0.866 0.768,0 1.363,-0.289 1.784,-0.866 0.282,-0.386 0.423,-1.018 0.423,-1.895 v -6.054 h 1.517 v 6.471 c 0,1.059 -0.33,1.931 -0.99,2.617 -0.742,0.764 -1.653,1.146 -2.734,1.146 -1.081,0 -1.99,-0.382 -2.728,-1.146 -0.66,-0.686 -0.989,-1.558 -0.989,-2.617 v -6.471 z"
         style="fill-rule:nonzero"
         id="path1195" />
      <path
         d="m 70.611,113.568 v 8.627 h -1.517 v -8.627 h -2.311 v -1.425 h 6.133 v 1.425 z"
         style="fill-rule:nonzero"
         id="path1197" />
      <rect
         x="22.853001"
         y="184.332"
         width="1.517"
         height="10.052"
         style="fill-rule:nonzero"
         id="rect1199" />
      <path
         d="m 26.785,194.384 v -10.736 l 7.331,7.669 v -6.985 h 1.517 v 10.664 l -7.331,-7.65 v 7.038 z"
         style="fill-rule:nonzero"
         id="path1201" />
      <path
         d="m 39.559,190.302 v 4.082 h -1.517 v -10.052 h 1.719 c 0.842,0 1.477,0.058 1.907,0.175 0.434,0.118 0.816,0.339 1.146,0.664 0.577,0.565 0.866,1.276 0.866,2.136 0,0.92 -0.308,1.649 -0.925,2.187 -0.616,0.538 -1.447,0.808 -2.493,0.808 z m 0,-1.407 h 0.566 c 1.393,0 2.09,-0.536 2.09,-1.608 0,-1.037 -0.718,-1.556 -2.155,-1.556 h -0.501 z"
         style="fill-rule:nonzero"
         id="path1203" />
      <path
         d="m 46.759,184.332 v 6.054 c 0,0.864 0.141,1.495 0.423,1.895 0.421,0.577 1.014,0.866 1.778,0.866 0.768,0 1.363,-0.289 1.784,-0.866 0.282,-0.387 0.423,-1.018 0.423,-1.895 v -6.054 h 1.517 v 6.471 c 0,1.059 -0.33,1.931 -0.99,2.617 -0.742,0.764 -1.654,1.146 -2.734,1.146 -1.081,0 -1.99,-0.382 -2.728,-1.146 -0.66,-0.686 -0.99,-1.558 -0.99,-2.617 v -6.471 z"
         style="fill-rule:nonzero"
         id="path1205" />
      <path
         d="m 57.866,185.757 v 8.627 h -1.517 v -8.627 h -2.311 v -1.425 h 6.133 v 1.425 z"
         style="fill-rule:nonzero"
         id="path1207" />
      <path
         d="m 65.08,189.761 v -1.211 h 2.864 v -2.812 h 1.205 v 2.812 h 2.864 v 1.211 h -2.864 v 2.813 h -1.205 v -2.813 z"
         style="fill-rule:nonzero"
         id="path1209" />
      <path
         d="m 36.17,478.1 3.112,4.284 h -1.856 l -2.871,-4.115 h -0.273 v 4.115 h -1.517 v -10.052 h 1.777 c 1.328,0 2.288,0.249 2.878,0.748 0.651,0.556 0.976,1.289 0.976,2.201 0,0.712 -0.204,1.324 -0.612,1.836 -0.408,0.512 -0.946,0.84 -1.614,0.983 z m -1.888,-1.153 h 0.482 c 1.436,0 2.155,-0.549 2.155,-1.647 0,-1.028 -0.699,-1.543 -2.097,-1.543 h -0.54 z"
         style="fill-rule:nonzero"
         id="path1211" />
      <path
         d="m 46.697,479.942 h -4.303 l -1.12,2.442 H 39.64 l 4.974,-10.684 4.798,10.684 h -1.66 z m -0.618,-1.426 -1.491,-3.418 -1.563,3.418 z"
         style="fill-rule:nonzero"
         id="path1213" />
      <path
         d="m 52.882,473.757 v 8.627 h -1.517 v -8.627 h -2.311 v -1.425 h 6.133 v 1.425 z"
         style="fill-rule:nonzero"
         id="path1215" />
      <path
         d="m 62.088,473.757 h -4.03 v 2.416 h 3.913 v 1.425 h -3.913 v 3.36 h 4.03 v 1.426 h -5.547 v -10.052 h 5.547 z"
         style="fill-rule:nonzero"
         id="path1217" />
      <rect
         x="25.353001"
         y="256.211"
         width="1.517"
         height="10.052"
         style="fill-rule:nonzero"
         id="rect1219" />
      <path
         d="m 29.285,266.263 v -10.736 l 7.331,7.67 v -6.986 h 1.517 v 10.664 l -7.331,-7.65 v 7.038 z"
         style="fill-rule:nonzero"
         id="path1221" />
      <path
         d="m 42.059,262.181 v 4.082 h -1.517 v -10.052 h 1.718 c 0.842,0 1.478,0.059 1.908,0.176 0.434,0.117 0.816,0.338 1.146,0.664 0.577,0.564 0.866,1.276 0.866,2.135 0,0.92 -0.309,1.649 -0.925,2.188 -0.616,0.538 -1.447,0.807 -2.493,0.807 z m 0,-1.406 h 0.566 c 1.393,0 2.09,-0.536 2.09,-1.608 0,-1.038 -0.719,-1.556 -2.155,-1.556 h -0.501 z"
         style="fill-rule:nonzero"
         id="path1223" />
      <path
         d="m 49.259,256.211 v 6.055 c 0,0.863 0.141,1.495 0.423,1.894 0.421,0.577 1.014,0.866 1.778,0.866 0.768,0 1.362,-0.289 1.783,-0.866 0.283,-0.386 0.424,-1.018 0.424,-1.894 v -6.055 h 1.517 v 6.471 c 0,1.059 -0.33,1.932 -0.99,2.617 -0.742,0.764 -1.654,1.146 -2.734,1.146 -1.081,0 -1.99,-0.382 -2.728,-1.146 -0.66,-0.685 -0.99,-1.558 -0.99,-2.617 v -6.471 z"
         style="fill-rule:nonzero"
         id="path1225" />
      <path
         d="m 60.366,257.637 v 8.626 h -1.517 v -8.626 h -2.311 v -1.426 h 6.133 v 1.426 z"
         style="fill-rule:nonzero"
         id="path1227" />
      <rect
         x="66.934998"
         y="262.40201"
         width="2.904"
         height="1.276"
         style="fill-rule:nonzero"
         id="rect1229" />
      <path
         d="m 33.761,549.191 c 0,-1.415 0.519,-2.63 1.556,-3.645 1.033,-1.016 2.274,-1.524 3.724,-1.524 1.432,0 2.661,0.512 3.685,1.537 1.029,1.024 1.543,2.254 1.543,3.691 0,1.445 -0.516,2.671 -1.549,3.678 -1.038,1.012 -2.29,1.517 -3.757,1.517 -1.298,0 -2.463,-0.449 -3.496,-1.347 -1.137,-0.994 -1.706,-2.296 -1.706,-3.907 z m 1.53,0.02 c 0,1.111 0.373,2.025 1.12,2.741 0.742,0.716 1.599,1.074 2.572,1.074 1.054,0 1.944,-0.365 2.669,-1.094 0.725,-0.738 1.087,-1.636 1.087,-2.695 0,-1.072 -0.358,-1.971 -1.074,-2.695 -0.712,-0.73 -1.593,-1.094 -2.643,-1.094 -1.046,0 -1.93,0.364 -2.65,1.094 -0.721,0.72 -1.081,1.61 -1.081,2.669 z"
         style="fill-rule:nonzero"
         id="path1231" />
      <path
         d="m 47.693,544.211 v 6.055 c 0,0.863 0.142,1.495 0.424,1.894 0.421,0.577 1.013,0.866 1.777,0.866 0.768,0 1.363,-0.289 1.784,-0.866 0.282,-0.386 0.423,-1.018 0.423,-1.894 v -6.055 h 1.517 v 6.471 c 0,1.059 -0.33,1.932 -0.99,2.617 -0.742,0.764 -1.653,1.146 -2.734,1.146 -1.081,0 -1.99,-0.382 -2.728,-1.146 -0.66,-0.685 -0.989,-1.558 -0.989,-2.617 v -6.471 z"
         style="fill-rule:nonzero"
         id="path1233" />
      <path
         d="m 58.8,545.637 v 8.626 h -1.517 v -8.626 h -2.311 v -1.426 h 6.133 v 1.426 z"
         style="fill-rule:nonzero"
         id="path1235" />
      <rect
         x="25.066999"
         y="616.36401"
         width="1.517"
         height="10.052"
         style="fill-rule:nonzero"
         id="rect1237" />
      <path
         d="m 28.999,626.416 v -10.735 l 7.331,7.669 v -6.986 h 1.516 v 10.664 l -7.33,-7.65 v 7.038 z"
         style="fill-rule:nonzero"
         id="path1239" />
      <path
         d="m 40.763,616.364 2.78,6.966 2.819,-6.966 h 1.66 l -4.511,10.807 -4.408,-10.807 z"
         style="fill-rule:nonzero"
         id="path1241" />
      <path
         d="m 54.819,617.79 h -4.03 v 2.415 h 3.913 v 1.426 h -3.913 v 3.359 h 4.03 v 1.426 h -5.547 v -10.052 h 5.547 z"
         style="fill-rule:nonzero"
         id="path1243" />
      <path
         d="m 60.216,622.132 3.112,4.284 h -1.855 l -2.871,-4.114 h -0.274 v 4.114 h -1.517 v -10.052 h 1.778 c 1.328,0 2.287,0.25 2.877,0.749 0.651,0.555 0.977,1.289 0.977,2.2 0,0.712 -0.204,1.324 -0.612,1.836 -0.408,0.512 -0.946,0.84 -1.615,0.983 z m -1.888,-1.152 h 0.482 c 1.437,0 2.155,-0.549 2.155,-1.647 0,-1.029 -0.699,-1.543 -2.096,-1.543 h -0.541 z"
         style="fill-rule:nonzero"
         id="path1245" />
      <path
         d="m 67.495,617.79 v 8.626 h -1.517 v -8.626 h -2.311 v -1.426 H 69.8 v 1.426 z"
         style="fill-rule:nonzero"
         id="path1247" />
      <path
         d="m 118.02,117.27 c 0,-1.415 0.518,-2.63 1.556,-3.646 1.033,-1.016 2.274,-1.523 3.724,-1.523 1.432,0 2.66,0.512 3.685,1.536 1.028,1.024 1.542,2.255 1.542,3.691 0,1.446 -0.516,2.672 -1.549,3.679 -1.037,1.011 -2.29,1.517 -3.757,1.517 -1.297,0 -2.463,-0.449 -3.496,-1.348 -1.137,-0.994 -1.705,-2.296 -1.705,-3.906 z m 1.53,0.019 c 0,1.112 0.373,2.025 1.119,2.741 0.743,0.716 1.6,1.075 2.572,1.075 1.055,0 1.944,-0.365 2.669,-1.094 0.725,-0.738 1.088,-1.637 1.088,-2.696 0,-1.072 -0.359,-1.97 -1.075,-2.695 -0.712,-0.729 -1.593,-1.094 -2.643,-1.094 -1.046,0 -1.929,0.365 -2.65,1.094 -0.72,0.721 -1.08,1.61 -1.08,2.669 z"
         style="fill-rule:nonzero"
         id="path1249" />
      <path
         d="m 131.952,112.289 v 6.055 c 0,0.864 0.141,1.495 0.423,1.895 0.421,0.577 1.014,0.866 1.777,0.866 0.769,0 1.363,-0.289 1.784,-0.866 0.282,-0.387 0.424,-1.018 0.424,-1.895 v -6.055 h 1.516 v 6.472 c 0,1.059 -0.329,1.931 -0.989,2.617 -0.742,0.764 -1.654,1.146 -2.735,1.146 -1.08,0 -1.99,-0.382 -2.727,-1.146 -0.66,-0.686 -0.99,-1.558 -0.99,-2.617 v -6.472 z"
         style="fill-rule:nonzero"
         id="path1251" />
      <path
         d="m 143.059,113.715 v 8.626 h -1.517 v -8.626 h -2.311 v -1.426 h 6.132 v 1.426 z"
         style="fill-rule:nonzero"
         id="path1253" />
      <path
         d="m 148.235,118.259 v 4.082 h -1.517 v -10.052 h 1.718 c 0.842,0 1.478,0.059 1.908,0.176 0.434,0.117 0.816,0.339 1.146,0.664 0.577,0.564 0.866,1.276 0.866,2.136 0,0.92 -0.309,1.649 -0.925,2.187 -0.616,0.538 -1.447,0.807 -2.493,0.807 z m 0,-1.406 h 0.566 c 1.393,0 2.09,-0.536 2.09,-1.608 0,-1.037 -0.719,-1.556 -2.155,-1.556 h -0.501 z"
         style="fill-rule:nonzero"
         id="path1255" />
      <path
         d="m 155.435,112.289 v 6.055 c 0,0.864 0.141,1.495 0.423,1.895 0.421,0.577 1.014,0.866 1.778,0.866 0.768,0 1.362,-0.289 1.783,-0.866 0.283,-0.387 0.424,-1.018 0.424,-1.895 v -6.055 h 1.517 v 6.472 c 0,1.059 -0.33,1.931 -0.99,2.617 -0.742,0.764 -1.654,1.146 -2.734,1.146 -1.081,0 -1.99,-0.382 -2.728,-1.146 -0.66,-0.686 -0.99,-1.558 -0.99,-2.617 v -6.472 z"
         style="fill-rule:nonzero"
         id="path1257" />
      <path
         d="m 166.542,113.715 v 8.626 h -1.517 v -8.626 h -2.311 v -1.426 h 6.132 v 1.426 z"
         style="fill-rule:nonzero"
         id="path1259" />
      <rect
         x="118.853"
         y="184.478"
         width="1.517"
         height="10.052"
         style="fill-rule:nonzero"
         id="rect1261" />
      <path
         d="m 122.785,194.53 v -10.735 l 7.331,7.669 v -6.986 h 1.517 v 10.664 l -7.331,-7.649 v 7.037 z"
         style="fill-rule:nonzero"
         id="path1263" />
      <path
         d="m 135.559,190.448 v 4.082 h -1.517 v -10.052 h 1.719 c 0.842,0 1.477,0.059 1.907,0.176 0.434,0.117 0.816,0.339 1.146,0.664 0.577,0.564 0.866,1.276 0.866,2.136 0,0.92 -0.308,1.649 -0.925,2.187 -0.616,0.538 -1.447,0.807 -2.493,0.807 z m 0,-1.406 h 0.566 c 1.393,0 2.09,-0.536 2.09,-1.608 0,-1.037 -0.718,-1.556 -2.155,-1.556 h -0.501 z"
         style="fill-rule:nonzero"
         id="path1265" />
      <path
         d="m 142.759,184.478 v 6.055 c 0,0.864 0.141,1.495 0.423,1.895 0.421,0.577 1.014,0.865 1.778,0.865 0.768,0 1.363,-0.288 1.784,-0.865 0.282,-0.387 0.423,-1.018 0.423,-1.895 v -6.055 h 1.517 v 6.472 c 0,1.059 -0.33,1.931 -0.99,2.617 -0.742,0.764 -1.654,1.146 -2.734,1.146 -1.081,0 -1.99,-0.382 -2.728,-1.146 -0.66,-0.686 -0.99,-1.558 -0.99,-2.617 v -6.472 z"
         style="fill-rule:nonzero"
         id="path1267" />
      <path
         d="m 153.866,185.904 v 8.626 h -1.517 v -8.626 h -2.311 v -1.426 h 6.133 v 1.426 z"
         style="fill-rule:nonzero"
         id="path1269" />
      <path
         d="m 161.08,189.908 v -1.211 h 2.864 v -2.812 h 1.205 v 2.812 h 2.864 v 1.211 h -2.864 v 2.813 h -1.205 v -2.813 z"
         style="fill-rule:nonzero"
         id="path1271" />
      <path
         d="m 132.177,478.247 3.112,4.283 h -1.856 l -2.871,-4.114 h -0.273 v 4.114 h -1.517 v -10.052 h 1.777 c 1.328,0 2.287,0.25 2.878,0.749 0.651,0.556 0.976,1.289 0.976,2.201 0,0.711 -0.204,1.323 -0.612,1.836 -0.408,0.512 -0.946,0.839 -1.614,0.983 z m -1.888,-1.153 h 0.481 c 1.437,0 2.155,-0.549 2.155,-1.647 0,-1.029 -0.699,-1.543 -2.096,-1.543 h -0.54 z"
         style="fill-rule:nonzero"
         id="path1273" />
      <path
         d="m 142.704,480.089 h -4.303 l -1.12,2.441 h -1.634 l 4.974,-10.683 4.798,10.683 h -1.66 z m -0.619,-1.426 -1.49,-3.418 -1.563,3.418 z"
         style="fill-rule:nonzero"
         id="path1275" />
      <path
         d="m 148.889,473.904 v 8.626 h -1.517 v -8.626 h -2.311 v -1.426 h 6.132 v 1.426 z"
         style="fill-rule:nonzero"
         id="path1277" />
      <path
         d="m 158.095,473.904 h -4.03 v 2.416 h 3.912 v 1.425 h -3.912 v 3.36 h 4.03 v 1.425 h -5.547 v -10.052 h 5.547 z"
         style="fill-rule:nonzero"
         id="path1279" />
      <rect
         x="121.19"
         y="256.358"
         width="1.517"
         height="10.052"
         style="fill-rule:nonzero"
         id="rect1281" />
      <path
         d="m 125.123,266.41 v -10.736 l 7.33,7.669 v -6.985 h 1.517 v 10.664 l -7.331,-7.65 v 7.038 z"
         style="fill-rule:nonzero"
         id="path1283" />
      <path
         d="m 137.896,262.328 v 4.082 h -1.517 v -10.052 h 1.719 c 0.842,0 1.478,0.058 1.907,0.176 0.434,0.117 0.816,0.338 1.146,0.664 0.577,0.564 0.866,1.276 0.866,2.135 0,0.92 -0.308,1.649 -0.924,2.188 -0.617,0.538 -1.448,0.807 -2.494,0.807 z m 0,-1.406 h 0.566 c 1.394,0 2.09,-0.536 2.09,-1.609 0,-1.037 -0.718,-1.556 -2.155,-1.556 h -0.501 z"
         style="fill-rule:nonzero"
         id="path1285" />
      <path
         d="m 145.096,256.358 v 6.054 c 0,0.864 0.142,1.496 0.424,1.895 0.421,0.577 1.013,0.866 1.777,0.866 0.768,0 1.363,-0.289 1.784,-0.866 0.282,-0.386 0.423,-1.018 0.423,-1.895 v -6.054 h 1.517 v 6.471 c 0,1.059 -0.33,1.932 -0.99,2.617 -0.742,0.764 -1.653,1.146 -2.734,1.146 -1.081,0 -1.99,-0.382 -2.728,-1.146 -0.66,-0.685 -0.989,-1.558 -0.989,-2.617 v -6.471 z"
         style="fill-rule:nonzero"
         id="path1287" />
      <path
         d="m 156.203,257.784 v 8.626 h -1.517 v -8.626 h -2.311 v -1.426 h 6.133 v 1.426 z"
         style="fill-rule:nonzero"
         id="path1289" />
      <rect
         x="162.772"
         y="262.54901"
         width="2.904"
         height="1.276"
         style="fill-rule:nonzero"
         id="rect1291" />
      <path
         d="m 129.761,549.338 c 0,-1.415 0.519,-2.63 1.556,-3.646 1.033,-1.015 2.274,-1.523 3.724,-1.523 1.432,0 2.661,0.512 3.685,1.536 1.029,1.025 1.543,2.255 1.543,3.692 0,1.445 -0.516,2.671 -1.549,3.678 -1.038,1.011 -2.29,1.517 -3.757,1.517 -1.298,0 -2.463,-0.449 -3.496,-1.348 -1.137,-0.993 -1.706,-2.296 -1.706,-3.906 z m 1.53,0.02 c 0,1.111 0.373,2.024 1.12,2.741 0.742,0.716 1.599,1.074 2.572,1.074 1.054,0 1.944,-0.365 2.669,-1.094 0.725,-0.738 1.087,-1.636 1.087,-2.695 0,-1.072 -0.358,-1.971 -1.074,-2.696 -0.712,-0.729 -1.593,-1.093 -2.643,-1.093 -1.046,0 -1.93,0.364 -2.65,1.093 -0.721,0.721 -1.081,1.611 -1.081,2.67 z"
         style="fill-rule:nonzero"
         id="path1293" />
      <path
         d="m 143.693,544.358 v 6.054 c 0,0.864 0.142,1.496 0.424,1.895 0.421,0.577 1.013,0.866 1.777,0.866 0.768,0 1.363,-0.289 1.784,-0.866 0.282,-0.386 0.423,-1.018 0.423,-1.895 v -6.054 h 1.517 v 6.471 c 0,1.059 -0.33,1.932 -0.99,2.617 -0.742,0.764 -1.653,1.146 -2.734,1.146 -1.081,0 -1.99,-0.382 -2.728,-1.146 -0.66,-0.685 -0.989,-1.558 -0.989,-2.617 v -6.471 z"
         style="fill-rule:nonzero"
         id="path1295" />
      <path
         d="m 154.8,545.784 v 8.626 h -1.517 v -8.626 h -2.311 v -1.426 h 6.133 v 1.426 z"
         style="fill-rule:nonzero"
         id="path1297" />
      <path
         d="m 120.699,621.309 -2.767,-4.798 h 1.725 l 1.921,3.405 2.018,-3.405 h 1.738 l -2.897,4.798 3.04,5.254 h -1.699 l -2.226,-3.848 -2.292,3.848 h -1.719 z"
         style="fill-rule:nonzero"
         id="path1299" />
      <path
         d="m 128.251,615.456 1.354,0.521 c -0.473,1.133 -0.805,2.179 -0.996,3.138 -0.096,0.486 -0.167,0.997 -0.215,1.533 -0.048,0.536 -0.072,1.121 -0.072,1.755 0,0.638 0.024,1.225 0.072,1.761 0.048,0.536 0.119,1.047 0.215,1.533 0.186,0.955 0.519,1.999 0.996,3.132 l -1.354,0.52 c -0.946,-1.983 -1.419,-4.299 -1.419,-6.946 0,-2.648 0.473,-4.963 1.419,-6.947 z"
         style="fill-rule:nonzero"
         id="path1301" />
      <path
         d="m 134.123,617.93 h -1.738 l 0.833,-1.419 h 2.422 v 10.052 h -1.517 z"
         style="fill-rule:nonzero"
         id="path1303" />
      <rect
         x="138.739"
         y="622.70203"
         width="2.904"
         height="1.276"
         style="fill-rule:nonzero"
         id="rect1305" />
      <path
         d="m 144.95,621.309 -2.767,-4.798 h 1.725 l 1.921,3.405 2.018,-3.405 h 1.738 l -2.897,4.798 3.041,5.254 h -1.7 l -2.226,-3.848 -2.292,3.848 h -1.719 z"
         style="fill-rule:nonzero"
         id="path1307" />
      <path
         d="m 151.708,621.277 h -1.595 l 2.545,-4.812 h 1.979 l 2.553,4.812 h -1.602 l -1.94,-3.614 z"
         style="fill-rule:nonzero"
         id="path1309" />
      <path
         d="m 160.757,625.137 h 3.744 v 1.426 h -6.752 l 3.49,-4.225 c 0.343,-0.421 0.63,-0.786 0.863,-1.094 0.232,-0.308 0.409,-0.566 0.53,-0.775 0.248,-0.408 0.371,-0.774 0.371,-1.1 0,-0.469 -0.165,-0.862 -0.494,-1.178 -0.33,-0.317 -0.738,-0.476 -1.224,-0.476 -1.016,0 -1.598,0.601 -1.745,1.804 h -1.511 c 0.243,-2.118 1.313,-3.177 3.21,-3.177 0.916,0 1.684,0.29 2.305,0.872 0.625,0.582 0.937,1.302 0.937,2.162 0,0.546 -0.145,1.082 -0.436,1.608 -0.148,0.273 -0.363,0.597 -0.648,0.973 -0.284,0.375 -0.643,0.819 -1.077,1.331 z"
         style="fill-rule:nonzero"
         id="path1311" />
      <path
         d="m 167.906,629.349 -1.354,-0.52 c 0.477,-1.133 0.809,-2.177 0.996,-3.132 0.195,-0.955 0.293,-2.053 0.293,-3.294 0,-1.233 -0.098,-2.329 -0.293,-3.288 -0.191,-0.959 -0.523,-2.005 -0.996,-3.138 l 1.354,-0.521 c 0.946,1.984 1.419,4.299 1.419,6.947 0,2.647 -0.473,4.963 -1.419,6.946 z"
         style="fill-rule:nonzero"
         id="path1313" />
    </g>
    <path
       id="Footer-Line"
       serif:id="Footer Line"
       d="M 0,167.64 H 50.500226"
       style="clip-rule:evenodd;fill:none;fill-rule:evenodd;stroke:#000000;stroke-width:1.05833px;stroke-linecap:butt;stroke-linejoin:round;stroke-miterlimit:1.5" />
    <path
       id="Header-Line"
       serif:id="Header Line"
       d="M 0,12.7 H 50.500226"
       style="clip-rule:evenodd;fill:none;fill-rule:evenodd;stroke:#000000;stroke-width:1.05833px;stroke-linecap:butt;stroke-linejoin:round;stroke-miterlimit:1.5" />
    <path
       d="m 25.249981,167.64 v -35.50126 c 0,-1.40203 -1.13665,-2.53868 -2.538677,-2.53868 H 0"
       style="clip-rule:evenodd;fill:none;fill-rule:evenodd;stroke:#000000;stroke-width:0.529167px;stroke-linecap:butt;stroke-linejoin:round;stroke-miterlimit:1.5"
       id="path1133" />
    <path
       d="m 25.310835,167.64 v -35.50126 c 0,-1.40203 1.13665,-2.53868 2.538677,-2.53868 h 22.711304"
       style="clip-rule:evenodd;fill:none;fill-rule:evenodd;stroke:#000000;stroke-width:0.529167px;stroke-linecap:butt;stroke-linejoin:round;stroke-miterlimit:1.5"
       id="path1135" />
  </g>
</svg>
