%TF.GenerationSoftware,KiCad,Pcbnew,(5.1.8-0-10_14)*%
%TF.CreationDate,2021-07-08T18:54:03+01:00*%
%TF.ProjectId,4u-mini-boat-power-connection,34752d6d-696e-4692-9d62-6f61742d706f,rev?*%
%TF.SameCoordinates,Original*%
%TF.FileFunction,Legend,Top*%
%TF.FilePolarity,Positive*%
%FSLAX46Y46*%
G04 Gerber Fmt 4.6, Leading zero omitted, Abs format (unit mm)*
G04 Created by KiCad (PCBNEW (5.1.8-0-10_14)) date 2021-07-08 18:54:03*
%MOMM*%
%LPD*%
G01*
G04 APERTURE LIST*
%ADD10C,0.150000*%
%ADD11C,0.120000*%
%ADD12C,0.203200*%
G04 APERTURE END LIST*
D10*
X137620476Y-88971428D02*
X138382380Y-88971428D01*
X138715714Y-88352380D02*
X139049047Y-89352380D01*
X139382380Y-88352380D01*
X154130476Y-88971428D02*
X154892380Y-88971428D01*
X154511428Y-89352380D02*
X154511428Y-88590476D01*
X155225714Y-88352380D02*
X155559047Y-89352380D01*
X155892380Y-88352380D01*
X170640476Y-92781428D02*
X171402380Y-92781428D01*
X171735714Y-92162380D02*
X172069047Y-93162380D01*
X172402380Y-92162380D01*
X170640476Y-85161428D02*
X171402380Y-85161428D01*
X171021428Y-85542380D02*
X171021428Y-84780476D01*
X171735714Y-84542380D02*
X172069047Y-85542380D01*
X172402380Y-84542380D01*
D11*
%TO.C,J2*%
X168800000Y-93510000D02*
X169400000Y-93510000D01*
X168800000Y-91910000D02*
X168800000Y-93510000D01*
X169400000Y-91910000D02*
X168800000Y-91910000D01*
X168800000Y-90970000D02*
X169400000Y-90970000D01*
X168800000Y-89370000D02*
X168800000Y-90970000D01*
X169400000Y-89370000D02*
X168800000Y-89370000D01*
X168800000Y-88430000D02*
X169400000Y-88430000D01*
X168800000Y-86830000D02*
X168800000Y-88430000D01*
X169400000Y-86830000D02*
X168800000Y-86830000D01*
X168800000Y-85890000D02*
X169400000Y-85890000D01*
X168800000Y-84290000D02*
X168800000Y-85890000D01*
X169400000Y-84290000D02*
X168800000Y-84290000D01*
X163380000Y-92460000D02*
X164380000Y-92460000D01*
X163380000Y-85340000D02*
X164380000Y-85340000D01*
X164910000Y-92460000D02*
X164380000Y-92710000D01*
X164910000Y-85340000D02*
X164910000Y-92460000D01*
X164380000Y-85090000D02*
X164910000Y-85340000D01*
X164380000Y-92710000D02*
X163380000Y-92710000D01*
X164380000Y-85090000D02*
X164380000Y-92710000D01*
X163380000Y-85090000D02*
X164380000Y-85090000D01*
X168370000Y-83420000D02*
X164370000Y-83420000D01*
X169400000Y-94090000D02*
X169400000Y-83710000D01*
X163380000Y-94090000D02*
X169400000Y-94090000D01*
X163380000Y-83710000D02*
X163380000Y-94090000D01*
X169400000Y-83710000D02*
X163380000Y-83710000D01*
D12*
%TO.C,J1*%
X138430000Y-77470000D02*
X135890000Y-79248000D01*
X140970000Y-79248000D02*
X138430000Y-77470000D01*
X144018000Y-77470000D02*
X141478000Y-79248000D01*
X146558000Y-79248000D02*
X144018000Y-77470000D01*
X149606000Y-77470000D02*
X147066000Y-79248000D01*
X152146000Y-79248000D02*
X149606000Y-77470000D01*
X155194000Y-77470000D02*
X157734000Y-79248000D01*
X155194000Y-77470000D02*
X152654000Y-79248000D01*
X147066000Y-87630000D02*
X152146000Y-87630000D01*
X152654000Y-87630000D02*
X157734000Y-87630000D01*
X135890000Y-87630000D02*
X140970000Y-87630000D01*
X141478000Y-87630000D02*
X146558000Y-87630000D01*
%TD*%
M02*
