%TF.GenerationSoftware,KiCad,Pcbnew,(5.1.8-0-10_14)*%
%TF.CreationDate,2021-07-08T18:54:03+01:00*%
%TF.ProjectId,4u-mini-boat-power-connection,34752d6d-696e-4692-9d62-6f61742d706f,rev?*%
%TF.SameCoordinates,Original*%
%TF.FileFunction,Copper,L2,Bot*%
%TF.FilePolarity,Positive*%
%FSLAX46Y46*%
G04 Gerber Fmt 4.6, Leading zero omitted, Abs format (unit mm)*
G04 Created by KiCad (PCBNEW (5.1.8-0-10_14)) date 2021-07-08 18:54:03*
%MOMM*%
%LPD*%
G01*
G04 APERTURE LIST*
%TA.AperFunction,ComponentPad*%
%ADD10O,2.190000X1.740000*%
%TD*%
%TA.AperFunction,ComponentPad*%
%ADD11C,3.048000*%
%TD*%
%TA.AperFunction,ComponentPad*%
%ADD12C,6.400000*%
%TD*%
%TA.AperFunction,Conductor*%
%ADD13C,0.254000*%
%TD*%
%TA.AperFunction,Conductor*%
%ADD14C,0.100000*%
%TD*%
G04 APERTURE END LIST*
D10*
%TO.P,J2,4*%
%TO.N,Net-(J1-Pad4)*%
X166370000Y-92710000D03*
%TO.P,J2,3*%
%TO.N,GND*%
X166370000Y-90170000D03*
%TO.P,J2,2*%
X166370000Y-87630000D03*
%TO.P,J2,1*%
%TO.N,Net-(J1-Pad1)*%
%TA.AperFunction,ComponentPad*%
G36*
G01*
X165524999Y-84220000D02*
X167215001Y-84220000D01*
G75*
G02*
X167465000Y-84469999I0J-249999D01*
G01*
X167465000Y-85710001D01*
G75*
G02*
X167215001Y-85960000I-249999J0D01*
G01*
X165524999Y-85960000D01*
G75*
G02*
X165275000Y-85710001I0J249999D01*
G01*
X165275000Y-84469999D01*
G75*
G02*
X165524999Y-84220000I249999J0D01*
G01*
G37*
%TD.AperFunction*%
%TD*%
D11*
%TO.P,J1,3*%
%TO.N,GND*%
X144018000Y-85090000D03*
%TO.P,J1,4*%
%TO.N,Net-(J1-Pad4)*%
X138430000Y-80010000D03*
X138430000Y-85090000D03*
%TO.P,J1,3*%
%TO.N,GND*%
X144018000Y-80010000D03*
%TO.P,J1,1*%
%TO.N,Net-(J1-Pad1)*%
X155194000Y-80010000D03*
X155194000Y-85090000D03*
%TO.P,J1,2*%
%TO.N,GND*%
X149606000Y-85090000D03*
X149606000Y-80010000D03*
%TD*%
D12*
%TO.P,H4,1*%
%TO.N,GND*%
X130810000Y-97790000D03*
%TD*%
%TO.P,H3,1*%
%TO.N,GND*%
X173990000Y-80010000D03*
%TD*%
%TO.P,H2,1*%
%TO.N,GND*%
X130810000Y-80010000D03*
%TD*%
%TO.P,H1,1*%
%TO.N,GND*%
X173990000Y-97790000D03*
%TD*%
D13*
%TO.N,GND*%
X128288724Y-77309119D02*
X130810000Y-79830395D01*
X133331276Y-77309119D01*
X133000914Y-76860000D01*
X171799086Y-76860000D01*
X171468724Y-77309119D01*
X173990000Y-79830395D01*
X176511276Y-77309119D01*
X176180914Y-76860000D01*
X176497721Y-76860000D01*
X176647869Y-76874722D01*
X176761246Y-76908953D01*
X176865819Y-76964555D01*
X176957596Y-77039407D01*
X177033091Y-77130664D01*
X177089419Y-77234844D01*
X177124440Y-77347976D01*
X177140000Y-77496022D01*
X177140000Y-77819086D01*
X176690881Y-77488724D01*
X174169605Y-80010000D01*
X176690881Y-82531276D01*
X177140000Y-82200914D01*
X177140001Y-95599086D01*
X176690881Y-95268724D01*
X174169605Y-97790000D01*
X176690881Y-100311276D01*
X177140001Y-99980913D01*
X177140001Y-100297711D01*
X177125278Y-100447869D01*
X177091047Y-100561246D01*
X177035446Y-100665817D01*
X176960594Y-100757595D01*
X176869335Y-100833091D01*
X176765160Y-100889419D01*
X176652024Y-100924440D01*
X176503979Y-100940000D01*
X176180914Y-100940000D01*
X176511276Y-100490881D01*
X173990000Y-97969605D01*
X171468724Y-100490881D01*
X171799086Y-100940000D01*
X133000914Y-100940000D01*
X133331276Y-100490881D01*
X130810000Y-97969605D01*
X128288724Y-100490881D01*
X128619086Y-100940000D01*
X128302279Y-100940000D01*
X128152131Y-100925278D01*
X128038754Y-100891047D01*
X127934183Y-100835446D01*
X127842405Y-100760594D01*
X127766909Y-100669335D01*
X127710581Y-100565160D01*
X127675560Y-100452024D01*
X127660000Y-100303979D01*
X127660000Y-99980914D01*
X128109119Y-100311276D01*
X130630395Y-97790000D01*
X130989605Y-97790000D01*
X133510881Y-100311276D01*
X134000548Y-99951088D01*
X134360849Y-99287118D01*
X134584694Y-98565615D01*
X134663480Y-97814305D01*
X134659002Y-97765695D01*
X170136520Y-97765695D01*
X170205822Y-98517938D01*
X170420548Y-99242208D01*
X170772445Y-99910670D01*
X170799452Y-99951088D01*
X171289119Y-100311276D01*
X173810395Y-97790000D01*
X171289119Y-95268724D01*
X170799452Y-95628912D01*
X170439151Y-96292882D01*
X170215306Y-97014385D01*
X170136520Y-97765695D01*
X134659002Y-97765695D01*
X134594178Y-97062062D01*
X134379452Y-96337792D01*
X134027555Y-95669330D01*
X134000548Y-95628912D01*
X133510881Y-95268724D01*
X130989605Y-97790000D01*
X130630395Y-97790000D01*
X128109119Y-95268724D01*
X127660000Y-95599086D01*
X127660000Y-95089119D01*
X128288724Y-95089119D01*
X130810000Y-97610395D01*
X133331276Y-95089119D01*
X171468724Y-95089119D01*
X173990000Y-97610395D01*
X176511276Y-95089119D01*
X176151088Y-94599452D01*
X175487118Y-94239151D01*
X174765615Y-94015306D01*
X174014305Y-93936520D01*
X173262062Y-94005822D01*
X172537792Y-94220548D01*
X171869330Y-94572445D01*
X171828912Y-94599452D01*
X171468724Y-95089119D01*
X133331276Y-95089119D01*
X132971088Y-94599452D01*
X132307118Y-94239151D01*
X131585615Y-94015306D01*
X130834305Y-93936520D01*
X130082062Y-94005822D01*
X129357792Y-94220548D01*
X128689330Y-94572445D01*
X128648912Y-94599452D01*
X128288724Y-95089119D01*
X127660000Y-95089119D01*
X127660000Y-92710000D01*
X164632718Y-92710000D01*
X164661776Y-93005032D01*
X164747834Y-93288725D01*
X164887583Y-93550179D01*
X165075655Y-93779345D01*
X165304821Y-93967417D01*
X165566275Y-94107166D01*
X165849968Y-94193224D01*
X166071064Y-94215000D01*
X166668936Y-94215000D01*
X166890032Y-94193224D01*
X167173725Y-94107166D01*
X167435179Y-93967417D01*
X167664345Y-93779345D01*
X167852417Y-93550179D01*
X167992166Y-93288725D01*
X168078224Y-93005032D01*
X168107282Y-92710000D01*
X168078224Y-92414968D01*
X167992166Y-92131275D01*
X167852417Y-91869821D01*
X167664345Y-91640655D01*
X167435179Y-91452583D01*
X167406848Y-91437440D01*
X167547433Y-91344708D01*
X167758306Y-91136326D01*
X167924474Y-90890809D01*
X168039551Y-90617591D01*
X168056302Y-90530031D01*
X167935246Y-90297000D01*
X166497000Y-90297000D01*
X166497000Y-90317000D01*
X166243000Y-90317000D01*
X166243000Y-90297000D01*
X164804754Y-90297000D01*
X164683698Y-90530031D01*
X164700449Y-90617591D01*
X164815526Y-90890809D01*
X164981694Y-91136326D01*
X165192567Y-91344708D01*
X165333152Y-91437440D01*
X165304821Y-91452583D01*
X165075655Y-91640655D01*
X164887583Y-91869821D01*
X164747834Y-92131275D01*
X164661776Y-92414968D01*
X164632718Y-92710000D01*
X127660000Y-92710000D01*
X127660000Y-87990031D01*
X164683698Y-87990031D01*
X164700449Y-88077591D01*
X164815526Y-88350809D01*
X164981694Y-88596326D01*
X165192567Y-88804708D01*
X165337032Y-88900000D01*
X165192567Y-88995292D01*
X164981694Y-89203674D01*
X164815526Y-89449191D01*
X164700449Y-89722409D01*
X164683698Y-89809969D01*
X164804754Y-90043000D01*
X166243000Y-90043000D01*
X166243000Y-87757000D01*
X166497000Y-87757000D01*
X166497000Y-90043000D01*
X167935246Y-90043000D01*
X168056302Y-89809969D01*
X168039551Y-89722409D01*
X167924474Y-89449191D01*
X167758306Y-89203674D01*
X167547433Y-88995292D01*
X167402968Y-88900000D01*
X167547433Y-88804708D01*
X167758306Y-88596326D01*
X167924474Y-88350809D01*
X168039551Y-88077591D01*
X168056302Y-87990031D01*
X167935246Y-87757000D01*
X166497000Y-87757000D01*
X166243000Y-87757000D01*
X164804754Y-87757000D01*
X164683698Y-87990031D01*
X127660000Y-87990031D01*
X127660000Y-84877357D01*
X136271000Y-84877357D01*
X136271000Y-85302643D01*
X136353970Y-85719757D01*
X136516719Y-86112670D01*
X136752996Y-86466282D01*
X137053718Y-86767004D01*
X137407330Y-87003281D01*
X137800243Y-87166030D01*
X138217357Y-87249000D01*
X138642643Y-87249000D01*
X139059757Y-87166030D01*
X139452670Y-87003281D01*
X139806282Y-86767004D01*
X139974546Y-86598740D01*
X142688865Y-86598740D01*
X142847764Y-86916758D01*
X143226632Y-87109959D01*
X143635913Y-87225534D01*
X144059876Y-87259042D01*
X144482230Y-87209194D01*
X144886744Y-87077908D01*
X145188236Y-86916758D01*
X145347135Y-86598740D01*
X148276865Y-86598740D01*
X148435764Y-86916758D01*
X148814632Y-87109959D01*
X149223913Y-87225534D01*
X149647876Y-87259042D01*
X150070230Y-87209194D01*
X150474744Y-87077908D01*
X150776236Y-86916758D01*
X150935135Y-86598740D01*
X149606000Y-85269605D01*
X148276865Y-86598740D01*
X145347135Y-86598740D01*
X144018000Y-85269605D01*
X142688865Y-86598740D01*
X139974546Y-86598740D01*
X140107004Y-86466282D01*
X140343281Y-86112670D01*
X140506030Y-85719757D01*
X140589000Y-85302643D01*
X140589000Y-85131876D01*
X141848958Y-85131876D01*
X141898806Y-85554230D01*
X142030092Y-85958744D01*
X142191242Y-86260236D01*
X142509260Y-86419135D01*
X143838395Y-85090000D01*
X144197605Y-85090000D01*
X145526740Y-86419135D01*
X145844758Y-86260236D01*
X146037959Y-85881368D01*
X146153534Y-85472087D01*
X146180422Y-85131876D01*
X147436958Y-85131876D01*
X147486806Y-85554230D01*
X147618092Y-85958744D01*
X147779242Y-86260236D01*
X148097260Y-86419135D01*
X149426395Y-85090000D01*
X149785605Y-85090000D01*
X151114740Y-86419135D01*
X151432758Y-86260236D01*
X151625959Y-85881368D01*
X151741534Y-85472087D01*
X151775042Y-85048124D01*
X151754888Y-84877357D01*
X153035000Y-84877357D01*
X153035000Y-85302643D01*
X153117970Y-85719757D01*
X153280719Y-86112670D01*
X153516996Y-86466282D01*
X153817718Y-86767004D01*
X154171330Y-87003281D01*
X154564243Y-87166030D01*
X154981357Y-87249000D01*
X155406643Y-87249000D01*
X155823757Y-87166030D01*
X156216670Y-87003281D01*
X156570282Y-86767004D01*
X156871004Y-86466282D01*
X157107281Y-86112670D01*
X157270030Y-85719757D01*
X157353000Y-85302643D01*
X157353000Y-84877357D01*
X157271971Y-84469999D01*
X164636928Y-84469999D01*
X164636928Y-85710001D01*
X164653992Y-85883255D01*
X164704528Y-86049851D01*
X164786595Y-86203387D01*
X164897038Y-86337962D01*
X165031613Y-86448405D01*
X165140590Y-86506655D01*
X164981694Y-86663674D01*
X164815526Y-86909191D01*
X164700449Y-87182409D01*
X164683698Y-87269969D01*
X164804754Y-87503000D01*
X166243000Y-87503000D01*
X166243000Y-87483000D01*
X166497000Y-87483000D01*
X166497000Y-87503000D01*
X167935246Y-87503000D01*
X168056302Y-87269969D01*
X168039551Y-87182409D01*
X167924474Y-86909191D01*
X167758306Y-86663674D01*
X167599410Y-86506655D01*
X167708387Y-86448405D01*
X167842962Y-86337962D01*
X167953405Y-86203387D01*
X168035472Y-86049851D01*
X168086008Y-85883255D01*
X168103072Y-85710001D01*
X168103072Y-84469999D01*
X168086008Y-84296745D01*
X168035472Y-84130149D01*
X167953405Y-83976613D01*
X167842962Y-83842038D01*
X167708387Y-83731595D01*
X167554851Y-83649528D01*
X167388255Y-83598992D01*
X167215001Y-83581928D01*
X165524999Y-83581928D01*
X165351745Y-83598992D01*
X165185149Y-83649528D01*
X165031613Y-83731595D01*
X164897038Y-83842038D01*
X164786595Y-83976613D01*
X164704528Y-84130149D01*
X164653992Y-84296745D01*
X164636928Y-84469999D01*
X157271971Y-84469999D01*
X157270030Y-84460243D01*
X157107281Y-84067330D01*
X156871004Y-83713718D01*
X156570282Y-83412996D01*
X156216670Y-83176719D01*
X155823757Y-83013970D01*
X155406643Y-82931000D01*
X154981357Y-82931000D01*
X154564243Y-83013970D01*
X154171330Y-83176719D01*
X153817718Y-83412996D01*
X153516996Y-83713718D01*
X153280719Y-84067330D01*
X153117970Y-84460243D01*
X153035000Y-84877357D01*
X151754888Y-84877357D01*
X151725194Y-84625770D01*
X151593908Y-84221256D01*
X151432758Y-83919764D01*
X151114740Y-83760865D01*
X149785605Y-85090000D01*
X149426395Y-85090000D01*
X148097260Y-83760865D01*
X147779242Y-83919764D01*
X147586041Y-84298632D01*
X147470466Y-84707913D01*
X147436958Y-85131876D01*
X146180422Y-85131876D01*
X146187042Y-85048124D01*
X146137194Y-84625770D01*
X146005908Y-84221256D01*
X145844758Y-83919764D01*
X145526740Y-83760865D01*
X144197605Y-85090000D01*
X143838395Y-85090000D01*
X142509260Y-83760865D01*
X142191242Y-83919764D01*
X141998041Y-84298632D01*
X141882466Y-84707913D01*
X141848958Y-85131876D01*
X140589000Y-85131876D01*
X140589000Y-84877357D01*
X140506030Y-84460243D01*
X140343281Y-84067330D01*
X140107004Y-83713718D01*
X139974546Y-83581260D01*
X142688865Y-83581260D01*
X144018000Y-84910395D01*
X145347135Y-83581260D01*
X148276865Y-83581260D01*
X149606000Y-84910395D01*
X150935135Y-83581260D01*
X150776236Y-83263242D01*
X150397368Y-83070041D01*
X149988087Y-82954466D01*
X149564124Y-82920958D01*
X149141770Y-82970806D01*
X148737256Y-83102092D01*
X148435764Y-83263242D01*
X148276865Y-83581260D01*
X145347135Y-83581260D01*
X145188236Y-83263242D01*
X144809368Y-83070041D01*
X144400087Y-82954466D01*
X143976124Y-82920958D01*
X143553770Y-82970806D01*
X143149256Y-83102092D01*
X142847764Y-83263242D01*
X142688865Y-83581260D01*
X139974546Y-83581260D01*
X139806282Y-83412996D01*
X139452670Y-83176719D01*
X139059757Y-83013970D01*
X138642643Y-82931000D01*
X138217357Y-82931000D01*
X137800243Y-83013970D01*
X137407330Y-83176719D01*
X137053718Y-83412996D01*
X136752996Y-83713718D01*
X136516719Y-84067330D01*
X136353970Y-84460243D01*
X136271000Y-84877357D01*
X127660000Y-84877357D01*
X127660000Y-82710881D01*
X128288724Y-82710881D01*
X128648912Y-83200548D01*
X129312882Y-83560849D01*
X130034385Y-83784694D01*
X130785695Y-83863480D01*
X131537938Y-83794178D01*
X132262208Y-83579452D01*
X132930670Y-83227555D01*
X132971088Y-83200548D01*
X133331276Y-82710881D01*
X171468724Y-82710881D01*
X171828912Y-83200548D01*
X172492882Y-83560849D01*
X173214385Y-83784694D01*
X173965695Y-83863480D01*
X174717938Y-83794178D01*
X175442208Y-83579452D01*
X176110670Y-83227555D01*
X176151088Y-83200548D01*
X176511276Y-82710881D01*
X173990000Y-80189605D01*
X171468724Y-82710881D01*
X133331276Y-82710881D01*
X130810000Y-80189605D01*
X128288724Y-82710881D01*
X127660000Y-82710881D01*
X127660000Y-82200914D01*
X128109119Y-82531276D01*
X130630395Y-80010000D01*
X130989605Y-80010000D01*
X133510881Y-82531276D01*
X134000548Y-82171088D01*
X134360849Y-81507118D01*
X134584694Y-80785615D01*
X134663480Y-80034305D01*
X134641651Y-79797357D01*
X136271000Y-79797357D01*
X136271000Y-80222643D01*
X136353970Y-80639757D01*
X136516719Y-81032670D01*
X136752996Y-81386282D01*
X137053718Y-81687004D01*
X137407330Y-81923281D01*
X137800243Y-82086030D01*
X138217357Y-82169000D01*
X138642643Y-82169000D01*
X139059757Y-82086030D01*
X139452670Y-81923281D01*
X139806282Y-81687004D01*
X139974546Y-81518740D01*
X142688865Y-81518740D01*
X142847764Y-81836758D01*
X143226632Y-82029959D01*
X143635913Y-82145534D01*
X144059876Y-82179042D01*
X144482230Y-82129194D01*
X144886744Y-81997908D01*
X145188236Y-81836758D01*
X145347135Y-81518740D01*
X148276865Y-81518740D01*
X148435764Y-81836758D01*
X148814632Y-82029959D01*
X149223913Y-82145534D01*
X149647876Y-82179042D01*
X150070230Y-82129194D01*
X150474744Y-81997908D01*
X150776236Y-81836758D01*
X150935135Y-81518740D01*
X149606000Y-80189605D01*
X148276865Y-81518740D01*
X145347135Y-81518740D01*
X144018000Y-80189605D01*
X142688865Y-81518740D01*
X139974546Y-81518740D01*
X140107004Y-81386282D01*
X140343281Y-81032670D01*
X140506030Y-80639757D01*
X140589000Y-80222643D01*
X140589000Y-80051876D01*
X141848958Y-80051876D01*
X141898806Y-80474230D01*
X142030092Y-80878744D01*
X142191242Y-81180236D01*
X142509260Y-81339135D01*
X143838395Y-80010000D01*
X144197605Y-80010000D01*
X145526740Y-81339135D01*
X145844758Y-81180236D01*
X146037959Y-80801368D01*
X146153534Y-80392087D01*
X146180422Y-80051876D01*
X147436958Y-80051876D01*
X147486806Y-80474230D01*
X147618092Y-80878744D01*
X147779242Y-81180236D01*
X148097260Y-81339135D01*
X149426395Y-80010000D01*
X149785605Y-80010000D01*
X151114740Y-81339135D01*
X151432758Y-81180236D01*
X151625959Y-80801368D01*
X151741534Y-80392087D01*
X151775042Y-79968124D01*
X151754888Y-79797357D01*
X153035000Y-79797357D01*
X153035000Y-80222643D01*
X153117970Y-80639757D01*
X153280719Y-81032670D01*
X153516996Y-81386282D01*
X153817718Y-81687004D01*
X154171330Y-81923281D01*
X154564243Y-82086030D01*
X154981357Y-82169000D01*
X155406643Y-82169000D01*
X155823757Y-82086030D01*
X156216670Y-81923281D01*
X156570282Y-81687004D01*
X156871004Y-81386282D01*
X157107281Y-81032670D01*
X157270030Y-80639757D01*
X157353000Y-80222643D01*
X157353000Y-79985695D01*
X170136520Y-79985695D01*
X170205822Y-80737938D01*
X170420548Y-81462208D01*
X170772445Y-82130670D01*
X170799452Y-82171088D01*
X171289119Y-82531276D01*
X173810395Y-80010000D01*
X171289119Y-77488724D01*
X170799452Y-77848912D01*
X170439151Y-78512882D01*
X170215306Y-79234385D01*
X170136520Y-79985695D01*
X157353000Y-79985695D01*
X157353000Y-79797357D01*
X157270030Y-79380243D01*
X157107281Y-78987330D01*
X156871004Y-78633718D01*
X156570282Y-78332996D01*
X156216670Y-78096719D01*
X155823757Y-77933970D01*
X155406643Y-77851000D01*
X154981357Y-77851000D01*
X154564243Y-77933970D01*
X154171330Y-78096719D01*
X153817718Y-78332996D01*
X153516996Y-78633718D01*
X153280719Y-78987330D01*
X153117970Y-79380243D01*
X153035000Y-79797357D01*
X151754888Y-79797357D01*
X151725194Y-79545770D01*
X151593908Y-79141256D01*
X151432758Y-78839764D01*
X151114740Y-78680865D01*
X149785605Y-80010000D01*
X149426395Y-80010000D01*
X148097260Y-78680865D01*
X147779242Y-78839764D01*
X147586041Y-79218632D01*
X147470466Y-79627913D01*
X147436958Y-80051876D01*
X146180422Y-80051876D01*
X146187042Y-79968124D01*
X146137194Y-79545770D01*
X146005908Y-79141256D01*
X145844758Y-78839764D01*
X145526740Y-78680865D01*
X144197605Y-80010000D01*
X143838395Y-80010000D01*
X142509260Y-78680865D01*
X142191242Y-78839764D01*
X141998041Y-79218632D01*
X141882466Y-79627913D01*
X141848958Y-80051876D01*
X140589000Y-80051876D01*
X140589000Y-79797357D01*
X140506030Y-79380243D01*
X140343281Y-78987330D01*
X140107004Y-78633718D01*
X139974546Y-78501260D01*
X142688865Y-78501260D01*
X144018000Y-79830395D01*
X145347135Y-78501260D01*
X148276865Y-78501260D01*
X149606000Y-79830395D01*
X150935135Y-78501260D01*
X150776236Y-78183242D01*
X150397368Y-77990041D01*
X149988087Y-77874466D01*
X149564124Y-77840958D01*
X149141770Y-77890806D01*
X148737256Y-78022092D01*
X148435764Y-78183242D01*
X148276865Y-78501260D01*
X145347135Y-78501260D01*
X145188236Y-78183242D01*
X144809368Y-77990041D01*
X144400087Y-77874466D01*
X143976124Y-77840958D01*
X143553770Y-77890806D01*
X143149256Y-78022092D01*
X142847764Y-78183242D01*
X142688865Y-78501260D01*
X139974546Y-78501260D01*
X139806282Y-78332996D01*
X139452670Y-78096719D01*
X139059757Y-77933970D01*
X138642643Y-77851000D01*
X138217357Y-77851000D01*
X137800243Y-77933970D01*
X137407330Y-78096719D01*
X137053718Y-78332996D01*
X136752996Y-78633718D01*
X136516719Y-78987330D01*
X136353970Y-79380243D01*
X136271000Y-79797357D01*
X134641651Y-79797357D01*
X134594178Y-79282062D01*
X134379452Y-78557792D01*
X134027555Y-77889330D01*
X134000548Y-77848912D01*
X133510881Y-77488724D01*
X130989605Y-80010000D01*
X130630395Y-80010000D01*
X128109119Y-77488724D01*
X127660000Y-77819086D01*
X127660000Y-77502279D01*
X127674722Y-77352131D01*
X127708953Y-77238754D01*
X127764555Y-77134181D01*
X127839407Y-77042404D01*
X127930664Y-76966909D01*
X128034844Y-76910581D01*
X128147976Y-76875560D01*
X128296022Y-76860000D01*
X128619086Y-76860000D01*
X128288724Y-77309119D01*
%TA.AperFunction,Conductor*%
D14*
G36*
X128288724Y-77309119D02*
G01*
X130810000Y-79830395D01*
X133331276Y-77309119D01*
X133000914Y-76860000D01*
X171799086Y-76860000D01*
X171468724Y-77309119D01*
X173990000Y-79830395D01*
X176511276Y-77309119D01*
X176180914Y-76860000D01*
X176497721Y-76860000D01*
X176647869Y-76874722D01*
X176761246Y-76908953D01*
X176865819Y-76964555D01*
X176957596Y-77039407D01*
X177033091Y-77130664D01*
X177089419Y-77234844D01*
X177124440Y-77347976D01*
X177140000Y-77496022D01*
X177140000Y-77819086D01*
X176690881Y-77488724D01*
X174169605Y-80010000D01*
X176690881Y-82531276D01*
X177140000Y-82200914D01*
X177140001Y-95599086D01*
X176690881Y-95268724D01*
X174169605Y-97790000D01*
X176690881Y-100311276D01*
X177140001Y-99980913D01*
X177140001Y-100297711D01*
X177125278Y-100447869D01*
X177091047Y-100561246D01*
X177035446Y-100665817D01*
X176960594Y-100757595D01*
X176869335Y-100833091D01*
X176765160Y-100889419D01*
X176652024Y-100924440D01*
X176503979Y-100940000D01*
X176180914Y-100940000D01*
X176511276Y-100490881D01*
X173990000Y-97969605D01*
X171468724Y-100490881D01*
X171799086Y-100940000D01*
X133000914Y-100940000D01*
X133331276Y-100490881D01*
X130810000Y-97969605D01*
X128288724Y-100490881D01*
X128619086Y-100940000D01*
X128302279Y-100940000D01*
X128152131Y-100925278D01*
X128038754Y-100891047D01*
X127934183Y-100835446D01*
X127842405Y-100760594D01*
X127766909Y-100669335D01*
X127710581Y-100565160D01*
X127675560Y-100452024D01*
X127660000Y-100303979D01*
X127660000Y-99980914D01*
X128109119Y-100311276D01*
X130630395Y-97790000D01*
X130989605Y-97790000D01*
X133510881Y-100311276D01*
X134000548Y-99951088D01*
X134360849Y-99287118D01*
X134584694Y-98565615D01*
X134663480Y-97814305D01*
X134659002Y-97765695D01*
X170136520Y-97765695D01*
X170205822Y-98517938D01*
X170420548Y-99242208D01*
X170772445Y-99910670D01*
X170799452Y-99951088D01*
X171289119Y-100311276D01*
X173810395Y-97790000D01*
X171289119Y-95268724D01*
X170799452Y-95628912D01*
X170439151Y-96292882D01*
X170215306Y-97014385D01*
X170136520Y-97765695D01*
X134659002Y-97765695D01*
X134594178Y-97062062D01*
X134379452Y-96337792D01*
X134027555Y-95669330D01*
X134000548Y-95628912D01*
X133510881Y-95268724D01*
X130989605Y-97790000D01*
X130630395Y-97790000D01*
X128109119Y-95268724D01*
X127660000Y-95599086D01*
X127660000Y-95089119D01*
X128288724Y-95089119D01*
X130810000Y-97610395D01*
X133331276Y-95089119D01*
X171468724Y-95089119D01*
X173990000Y-97610395D01*
X176511276Y-95089119D01*
X176151088Y-94599452D01*
X175487118Y-94239151D01*
X174765615Y-94015306D01*
X174014305Y-93936520D01*
X173262062Y-94005822D01*
X172537792Y-94220548D01*
X171869330Y-94572445D01*
X171828912Y-94599452D01*
X171468724Y-95089119D01*
X133331276Y-95089119D01*
X132971088Y-94599452D01*
X132307118Y-94239151D01*
X131585615Y-94015306D01*
X130834305Y-93936520D01*
X130082062Y-94005822D01*
X129357792Y-94220548D01*
X128689330Y-94572445D01*
X128648912Y-94599452D01*
X128288724Y-95089119D01*
X127660000Y-95089119D01*
X127660000Y-92710000D01*
X164632718Y-92710000D01*
X164661776Y-93005032D01*
X164747834Y-93288725D01*
X164887583Y-93550179D01*
X165075655Y-93779345D01*
X165304821Y-93967417D01*
X165566275Y-94107166D01*
X165849968Y-94193224D01*
X166071064Y-94215000D01*
X166668936Y-94215000D01*
X166890032Y-94193224D01*
X167173725Y-94107166D01*
X167435179Y-93967417D01*
X167664345Y-93779345D01*
X167852417Y-93550179D01*
X167992166Y-93288725D01*
X168078224Y-93005032D01*
X168107282Y-92710000D01*
X168078224Y-92414968D01*
X167992166Y-92131275D01*
X167852417Y-91869821D01*
X167664345Y-91640655D01*
X167435179Y-91452583D01*
X167406848Y-91437440D01*
X167547433Y-91344708D01*
X167758306Y-91136326D01*
X167924474Y-90890809D01*
X168039551Y-90617591D01*
X168056302Y-90530031D01*
X167935246Y-90297000D01*
X166497000Y-90297000D01*
X166497000Y-90317000D01*
X166243000Y-90317000D01*
X166243000Y-90297000D01*
X164804754Y-90297000D01*
X164683698Y-90530031D01*
X164700449Y-90617591D01*
X164815526Y-90890809D01*
X164981694Y-91136326D01*
X165192567Y-91344708D01*
X165333152Y-91437440D01*
X165304821Y-91452583D01*
X165075655Y-91640655D01*
X164887583Y-91869821D01*
X164747834Y-92131275D01*
X164661776Y-92414968D01*
X164632718Y-92710000D01*
X127660000Y-92710000D01*
X127660000Y-87990031D01*
X164683698Y-87990031D01*
X164700449Y-88077591D01*
X164815526Y-88350809D01*
X164981694Y-88596326D01*
X165192567Y-88804708D01*
X165337032Y-88900000D01*
X165192567Y-88995292D01*
X164981694Y-89203674D01*
X164815526Y-89449191D01*
X164700449Y-89722409D01*
X164683698Y-89809969D01*
X164804754Y-90043000D01*
X166243000Y-90043000D01*
X166243000Y-87757000D01*
X166497000Y-87757000D01*
X166497000Y-90043000D01*
X167935246Y-90043000D01*
X168056302Y-89809969D01*
X168039551Y-89722409D01*
X167924474Y-89449191D01*
X167758306Y-89203674D01*
X167547433Y-88995292D01*
X167402968Y-88900000D01*
X167547433Y-88804708D01*
X167758306Y-88596326D01*
X167924474Y-88350809D01*
X168039551Y-88077591D01*
X168056302Y-87990031D01*
X167935246Y-87757000D01*
X166497000Y-87757000D01*
X166243000Y-87757000D01*
X164804754Y-87757000D01*
X164683698Y-87990031D01*
X127660000Y-87990031D01*
X127660000Y-84877357D01*
X136271000Y-84877357D01*
X136271000Y-85302643D01*
X136353970Y-85719757D01*
X136516719Y-86112670D01*
X136752996Y-86466282D01*
X137053718Y-86767004D01*
X137407330Y-87003281D01*
X137800243Y-87166030D01*
X138217357Y-87249000D01*
X138642643Y-87249000D01*
X139059757Y-87166030D01*
X139452670Y-87003281D01*
X139806282Y-86767004D01*
X139974546Y-86598740D01*
X142688865Y-86598740D01*
X142847764Y-86916758D01*
X143226632Y-87109959D01*
X143635913Y-87225534D01*
X144059876Y-87259042D01*
X144482230Y-87209194D01*
X144886744Y-87077908D01*
X145188236Y-86916758D01*
X145347135Y-86598740D01*
X148276865Y-86598740D01*
X148435764Y-86916758D01*
X148814632Y-87109959D01*
X149223913Y-87225534D01*
X149647876Y-87259042D01*
X150070230Y-87209194D01*
X150474744Y-87077908D01*
X150776236Y-86916758D01*
X150935135Y-86598740D01*
X149606000Y-85269605D01*
X148276865Y-86598740D01*
X145347135Y-86598740D01*
X144018000Y-85269605D01*
X142688865Y-86598740D01*
X139974546Y-86598740D01*
X140107004Y-86466282D01*
X140343281Y-86112670D01*
X140506030Y-85719757D01*
X140589000Y-85302643D01*
X140589000Y-85131876D01*
X141848958Y-85131876D01*
X141898806Y-85554230D01*
X142030092Y-85958744D01*
X142191242Y-86260236D01*
X142509260Y-86419135D01*
X143838395Y-85090000D01*
X144197605Y-85090000D01*
X145526740Y-86419135D01*
X145844758Y-86260236D01*
X146037959Y-85881368D01*
X146153534Y-85472087D01*
X146180422Y-85131876D01*
X147436958Y-85131876D01*
X147486806Y-85554230D01*
X147618092Y-85958744D01*
X147779242Y-86260236D01*
X148097260Y-86419135D01*
X149426395Y-85090000D01*
X149785605Y-85090000D01*
X151114740Y-86419135D01*
X151432758Y-86260236D01*
X151625959Y-85881368D01*
X151741534Y-85472087D01*
X151775042Y-85048124D01*
X151754888Y-84877357D01*
X153035000Y-84877357D01*
X153035000Y-85302643D01*
X153117970Y-85719757D01*
X153280719Y-86112670D01*
X153516996Y-86466282D01*
X153817718Y-86767004D01*
X154171330Y-87003281D01*
X154564243Y-87166030D01*
X154981357Y-87249000D01*
X155406643Y-87249000D01*
X155823757Y-87166030D01*
X156216670Y-87003281D01*
X156570282Y-86767004D01*
X156871004Y-86466282D01*
X157107281Y-86112670D01*
X157270030Y-85719757D01*
X157353000Y-85302643D01*
X157353000Y-84877357D01*
X157271971Y-84469999D01*
X164636928Y-84469999D01*
X164636928Y-85710001D01*
X164653992Y-85883255D01*
X164704528Y-86049851D01*
X164786595Y-86203387D01*
X164897038Y-86337962D01*
X165031613Y-86448405D01*
X165140590Y-86506655D01*
X164981694Y-86663674D01*
X164815526Y-86909191D01*
X164700449Y-87182409D01*
X164683698Y-87269969D01*
X164804754Y-87503000D01*
X166243000Y-87503000D01*
X166243000Y-87483000D01*
X166497000Y-87483000D01*
X166497000Y-87503000D01*
X167935246Y-87503000D01*
X168056302Y-87269969D01*
X168039551Y-87182409D01*
X167924474Y-86909191D01*
X167758306Y-86663674D01*
X167599410Y-86506655D01*
X167708387Y-86448405D01*
X167842962Y-86337962D01*
X167953405Y-86203387D01*
X168035472Y-86049851D01*
X168086008Y-85883255D01*
X168103072Y-85710001D01*
X168103072Y-84469999D01*
X168086008Y-84296745D01*
X168035472Y-84130149D01*
X167953405Y-83976613D01*
X167842962Y-83842038D01*
X167708387Y-83731595D01*
X167554851Y-83649528D01*
X167388255Y-83598992D01*
X167215001Y-83581928D01*
X165524999Y-83581928D01*
X165351745Y-83598992D01*
X165185149Y-83649528D01*
X165031613Y-83731595D01*
X164897038Y-83842038D01*
X164786595Y-83976613D01*
X164704528Y-84130149D01*
X164653992Y-84296745D01*
X164636928Y-84469999D01*
X157271971Y-84469999D01*
X157270030Y-84460243D01*
X157107281Y-84067330D01*
X156871004Y-83713718D01*
X156570282Y-83412996D01*
X156216670Y-83176719D01*
X155823757Y-83013970D01*
X155406643Y-82931000D01*
X154981357Y-82931000D01*
X154564243Y-83013970D01*
X154171330Y-83176719D01*
X153817718Y-83412996D01*
X153516996Y-83713718D01*
X153280719Y-84067330D01*
X153117970Y-84460243D01*
X153035000Y-84877357D01*
X151754888Y-84877357D01*
X151725194Y-84625770D01*
X151593908Y-84221256D01*
X151432758Y-83919764D01*
X151114740Y-83760865D01*
X149785605Y-85090000D01*
X149426395Y-85090000D01*
X148097260Y-83760865D01*
X147779242Y-83919764D01*
X147586041Y-84298632D01*
X147470466Y-84707913D01*
X147436958Y-85131876D01*
X146180422Y-85131876D01*
X146187042Y-85048124D01*
X146137194Y-84625770D01*
X146005908Y-84221256D01*
X145844758Y-83919764D01*
X145526740Y-83760865D01*
X144197605Y-85090000D01*
X143838395Y-85090000D01*
X142509260Y-83760865D01*
X142191242Y-83919764D01*
X141998041Y-84298632D01*
X141882466Y-84707913D01*
X141848958Y-85131876D01*
X140589000Y-85131876D01*
X140589000Y-84877357D01*
X140506030Y-84460243D01*
X140343281Y-84067330D01*
X140107004Y-83713718D01*
X139974546Y-83581260D01*
X142688865Y-83581260D01*
X144018000Y-84910395D01*
X145347135Y-83581260D01*
X148276865Y-83581260D01*
X149606000Y-84910395D01*
X150935135Y-83581260D01*
X150776236Y-83263242D01*
X150397368Y-83070041D01*
X149988087Y-82954466D01*
X149564124Y-82920958D01*
X149141770Y-82970806D01*
X148737256Y-83102092D01*
X148435764Y-83263242D01*
X148276865Y-83581260D01*
X145347135Y-83581260D01*
X145188236Y-83263242D01*
X144809368Y-83070041D01*
X144400087Y-82954466D01*
X143976124Y-82920958D01*
X143553770Y-82970806D01*
X143149256Y-83102092D01*
X142847764Y-83263242D01*
X142688865Y-83581260D01*
X139974546Y-83581260D01*
X139806282Y-83412996D01*
X139452670Y-83176719D01*
X139059757Y-83013970D01*
X138642643Y-82931000D01*
X138217357Y-82931000D01*
X137800243Y-83013970D01*
X137407330Y-83176719D01*
X137053718Y-83412996D01*
X136752996Y-83713718D01*
X136516719Y-84067330D01*
X136353970Y-84460243D01*
X136271000Y-84877357D01*
X127660000Y-84877357D01*
X127660000Y-82710881D01*
X128288724Y-82710881D01*
X128648912Y-83200548D01*
X129312882Y-83560849D01*
X130034385Y-83784694D01*
X130785695Y-83863480D01*
X131537938Y-83794178D01*
X132262208Y-83579452D01*
X132930670Y-83227555D01*
X132971088Y-83200548D01*
X133331276Y-82710881D01*
X171468724Y-82710881D01*
X171828912Y-83200548D01*
X172492882Y-83560849D01*
X173214385Y-83784694D01*
X173965695Y-83863480D01*
X174717938Y-83794178D01*
X175442208Y-83579452D01*
X176110670Y-83227555D01*
X176151088Y-83200548D01*
X176511276Y-82710881D01*
X173990000Y-80189605D01*
X171468724Y-82710881D01*
X133331276Y-82710881D01*
X130810000Y-80189605D01*
X128288724Y-82710881D01*
X127660000Y-82710881D01*
X127660000Y-82200914D01*
X128109119Y-82531276D01*
X130630395Y-80010000D01*
X130989605Y-80010000D01*
X133510881Y-82531276D01*
X134000548Y-82171088D01*
X134360849Y-81507118D01*
X134584694Y-80785615D01*
X134663480Y-80034305D01*
X134641651Y-79797357D01*
X136271000Y-79797357D01*
X136271000Y-80222643D01*
X136353970Y-80639757D01*
X136516719Y-81032670D01*
X136752996Y-81386282D01*
X137053718Y-81687004D01*
X137407330Y-81923281D01*
X137800243Y-82086030D01*
X138217357Y-82169000D01*
X138642643Y-82169000D01*
X139059757Y-82086030D01*
X139452670Y-81923281D01*
X139806282Y-81687004D01*
X139974546Y-81518740D01*
X142688865Y-81518740D01*
X142847764Y-81836758D01*
X143226632Y-82029959D01*
X143635913Y-82145534D01*
X144059876Y-82179042D01*
X144482230Y-82129194D01*
X144886744Y-81997908D01*
X145188236Y-81836758D01*
X145347135Y-81518740D01*
X148276865Y-81518740D01*
X148435764Y-81836758D01*
X148814632Y-82029959D01*
X149223913Y-82145534D01*
X149647876Y-82179042D01*
X150070230Y-82129194D01*
X150474744Y-81997908D01*
X150776236Y-81836758D01*
X150935135Y-81518740D01*
X149606000Y-80189605D01*
X148276865Y-81518740D01*
X145347135Y-81518740D01*
X144018000Y-80189605D01*
X142688865Y-81518740D01*
X139974546Y-81518740D01*
X140107004Y-81386282D01*
X140343281Y-81032670D01*
X140506030Y-80639757D01*
X140589000Y-80222643D01*
X140589000Y-80051876D01*
X141848958Y-80051876D01*
X141898806Y-80474230D01*
X142030092Y-80878744D01*
X142191242Y-81180236D01*
X142509260Y-81339135D01*
X143838395Y-80010000D01*
X144197605Y-80010000D01*
X145526740Y-81339135D01*
X145844758Y-81180236D01*
X146037959Y-80801368D01*
X146153534Y-80392087D01*
X146180422Y-80051876D01*
X147436958Y-80051876D01*
X147486806Y-80474230D01*
X147618092Y-80878744D01*
X147779242Y-81180236D01*
X148097260Y-81339135D01*
X149426395Y-80010000D01*
X149785605Y-80010000D01*
X151114740Y-81339135D01*
X151432758Y-81180236D01*
X151625959Y-80801368D01*
X151741534Y-80392087D01*
X151775042Y-79968124D01*
X151754888Y-79797357D01*
X153035000Y-79797357D01*
X153035000Y-80222643D01*
X153117970Y-80639757D01*
X153280719Y-81032670D01*
X153516996Y-81386282D01*
X153817718Y-81687004D01*
X154171330Y-81923281D01*
X154564243Y-82086030D01*
X154981357Y-82169000D01*
X155406643Y-82169000D01*
X155823757Y-82086030D01*
X156216670Y-81923281D01*
X156570282Y-81687004D01*
X156871004Y-81386282D01*
X157107281Y-81032670D01*
X157270030Y-80639757D01*
X157353000Y-80222643D01*
X157353000Y-79985695D01*
X170136520Y-79985695D01*
X170205822Y-80737938D01*
X170420548Y-81462208D01*
X170772445Y-82130670D01*
X170799452Y-82171088D01*
X171289119Y-82531276D01*
X173810395Y-80010000D01*
X171289119Y-77488724D01*
X170799452Y-77848912D01*
X170439151Y-78512882D01*
X170215306Y-79234385D01*
X170136520Y-79985695D01*
X157353000Y-79985695D01*
X157353000Y-79797357D01*
X157270030Y-79380243D01*
X157107281Y-78987330D01*
X156871004Y-78633718D01*
X156570282Y-78332996D01*
X156216670Y-78096719D01*
X155823757Y-77933970D01*
X155406643Y-77851000D01*
X154981357Y-77851000D01*
X154564243Y-77933970D01*
X154171330Y-78096719D01*
X153817718Y-78332996D01*
X153516996Y-78633718D01*
X153280719Y-78987330D01*
X153117970Y-79380243D01*
X153035000Y-79797357D01*
X151754888Y-79797357D01*
X151725194Y-79545770D01*
X151593908Y-79141256D01*
X151432758Y-78839764D01*
X151114740Y-78680865D01*
X149785605Y-80010000D01*
X149426395Y-80010000D01*
X148097260Y-78680865D01*
X147779242Y-78839764D01*
X147586041Y-79218632D01*
X147470466Y-79627913D01*
X147436958Y-80051876D01*
X146180422Y-80051876D01*
X146187042Y-79968124D01*
X146137194Y-79545770D01*
X146005908Y-79141256D01*
X145844758Y-78839764D01*
X145526740Y-78680865D01*
X144197605Y-80010000D01*
X143838395Y-80010000D01*
X142509260Y-78680865D01*
X142191242Y-78839764D01*
X141998041Y-79218632D01*
X141882466Y-79627913D01*
X141848958Y-80051876D01*
X140589000Y-80051876D01*
X140589000Y-79797357D01*
X140506030Y-79380243D01*
X140343281Y-78987330D01*
X140107004Y-78633718D01*
X139974546Y-78501260D01*
X142688865Y-78501260D01*
X144018000Y-79830395D01*
X145347135Y-78501260D01*
X148276865Y-78501260D01*
X149606000Y-79830395D01*
X150935135Y-78501260D01*
X150776236Y-78183242D01*
X150397368Y-77990041D01*
X149988087Y-77874466D01*
X149564124Y-77840958D01*
X149141770Y-77890806D01*
X148737256Y-78022092D01*
X148435764Y-78183242D01*
X148276865Y-78501260D01*
X145347135Y-78501260D01*
X145188236Y-78183242D01*
X144809368Y-77990041D01*
X144400087Y-77874466D01*
X143976124Y-77840958D01*
X143553770Y-77890806D01*
X143149256Y-78022092D01*
X142847764Y-78183242D01*
X142688865Y-78501260D01*
X139974546Y-78501260D01*
X139806282Y-78332996D01*
X139452670Y-78096719D01*
X139059757Y-77933970D01*
X138642643Y-77851000D01*
X138217357Y-77851000D01*
X137800243Y-77933970D01*
X137407330Y-78096719D01*
X137053718Y-78332996D01*
X136752996Y-78633718D01*
X136516719Y-78987330D01*
X136353970Y-79380243D01*
X136271000Y-79797357D01*
X134641651Y-79797357D01*
X134594178Y-79282062D01*
X134379452Y-78557792D01*
X134027555Y-77889330D01*
X134000548Y-77848912D01*
X133510881Y-77488724D01*
X130989605Y-80010000D01*
X130630395Y-80010000D01*
X128109119Y-77488724D01*
X127660000Y-77819086D01*
X127660000Y-77502279D01*
X127674722Y-77352131D01*
X127708953Y-77238754D01*
X127764555Y-77134181D01*
X127839407Y-77042404D01*
X127930664Y-76966909D01*
X128034844Y-76910581D01*
X128147976Y-76875560D01*
X128296022Y-76860000D01*
X128619086Y-76860000D01*
X128288724Y-77309119D01*
G37*
%TD.AperFunction*%
%TD*%
M02*
