%TF.GenerationSoftware,KiCad,Pcbnew,(6.0.0-0)*%
%TF.CreationDate,2022-06-17T06:07:28+01:00*%
%TF.ProjectId,4u-damped-integrator-panel,34752d64-616d-4706-9564-2d696e746567,r01*%
%TF.SameCoordinates,Original*%
%TF.FileFunction,Soldermask,Top*%
%TF.FilePolarity,Negative*%
%FSLAX46Y46*%
G04 Gerber Fmt 4.6, Leading zero omitted, Abs format (unit mm)*
G04 Created by KiCad (PCBNEW (6.0.0-0)) date 2022-06-17 06:07:28*
%MOMM*%
%LPD*%
G01*
G04 APERTURE LIST*
%ADD10C,0.010000*%
%ADD11O,7.000000X4.000000*%
G04 APERTURE END LIST*
D10*
%TO.C,Ref\u002A\u002A*%
X87375281Y-106634980D02*
X87457494Y-106677339D01*
X87457494Y-106677339D02*
X87482649Y-106701016D01*
X87482649Y-106701016D02*
X87488004Y-106708057D01*
X87488004Y-106708057D02*
X87492867Y-106718126D01*
X87492867Y-106718126D02*
X87497269Y-106733247D01*
X87497269Y-106733247D02*
X87501241Y-106755441D01*
X87501241Y-106755441D02*
X87504816Y-106786733D01*
X87504816Y-106786733D02*
X87508024Y-106829144D01*
X87508024Y-106829144D02*
X87510898Y-106884699D01*
X87510898Y-106884699D02*
X87513469Y-106955419D01*
X87513469Y-106955419D02*
X87515768Y-107043328D01*
X87515768Y-107043328D02*
X87517828Y-107150450D01*
X87517828Y-107150450D02*
X87519680Y-107278806D01*
X87519680Y-107278806D02*
X87521356Y-107430420D01*
X87521356Y-107430420D02*
X87522886Y-107607314D01*
X87522886Y-107607314D02*
X87524304Y-107811513D01*
X87524304Y-107811513D02*
X87525639Y-108045038D01*
X87525639Y-108045038D02*
X87526925Y-108309912D01*
X87526925Y-108309912D02*
X87528192Y-108608160D01*
X87528192Y-108608160D02*
X87529473Y-108941802D01*
X87529473Y-108941802D02*
X87530798Y-109312864D01*
X87530798Y-109312864D02*
X87532200Y-109723366D01*
X87532200Y-109723366D02*
X87532833Y-109912261D01*
X87532833Y-109912261D02*
X87543417Y-113079750D01*
X87543417Y-113079750D02*
X87817368Y-113094027D01*
X87817368Y-113094027D02*
X88266784Y-113132872D01*
X88266784Y-113132872D02*
X88731265Y-113202125D01*
X88731265Y-113202125D02*
X89199176Y-113299348D01*
X89199176Y-113299348D02*
X89658880Y-113422100D01*
X89658880Y-113422100D02*
X90098740Y-113567940D01*
X90098740Y-113567940D02*
X90126640Y-113578262D01*
X90126640Y-113578262D02*
X90668064Y-113801948D01*
X90668064Y-113801948D02*
X91188376Y-114061093D01*
X91188376Y-114061093D02*
X91686125Y-114354104D01*
X91686125Y-114354104D02*
X92159857Y-114679388D01*
X92159857Y-114679388D02*
X92608121Y-115035351D01*
X92608121Y-115035351D02*
X93029466Y-115420398D01*
X93029466Y-115420398D02*
X93422439Y-115832937D01*
X93422439Y-115832937D02*
X93785589Y-116271373D01*
X93785589Y-116271373D02*
X94117464Y-116734113D01*
X94117464Y-116734113D02*
X94416611Y-117219562D01*
X94416611Y-117219562D02*
X94681580Y-117726128D01*
X94681580Y-117726128D02*
X94910917Y-118252215D01*
X94910917Y-118252215D02*
X95103172Y-118796232D01*
X95103172Y-118796232D02*
X95206481Y-119154583D01*
X95206481Y-119154583D02*
X95308645Y-119583865D01*
X95308645Y-119583865D02*
X95384849Y-120001858D01*
X95384849Y-120001858D02*
X95437707Y-120425409D01*
X95437707Y-120425409D02*
X95468356Y-120841957D01*
X95468356Y-120841957D02*
X95477812Y-121430428D01*
X95477812Y-121430428D02*
X95445132Y-122014883D01*
X95445132Y-122014883D02*
X95370313Y-122595346D01*
X95370313Y-122595346D02*
X95253352Y-123171842D01*
X95253352Y-123171842D02*
X95094243Y-123744396D01*
X95094243Y-123744396D02*
X94962205Y-124130863D01*
X94962205Y-124130863D02*
X94921072Y-124236200D01*
X94921072Y-124236200D02*
X94868401Y-124361083D01*
X94868401Y-124361083D02*
X94807022Y-124499699D01*
X94807022Y-124499699D02*
X94739767Y-124646233D01*
X94739767Y-124646233D02*
X94669466Y-124794871D01*
X94669466Y-124794871D02*
X94598950Y-124939799D01*
X94598950Y-124939799D02*
X94531048Y-125075202D01*
X94531048Y-125075202D02*
X94468592Y-125195267D01*
X94468592Y-125195267D02*
X94414412Y-125294179D01*
X94414412Y-125294179D02*
X94371339Y-125366124D01*
X94371339Y-125366124D02*
X94342203Y-125405288D01*
X94342203Y-125405288D02*
X94341385Y-125406074D01*
X94341385Y-125406074D02*
X94264538Y-125451679D01*
X94264538Y-125451679D02*
X94171748Y-125468062D01*
X94171748Y-125468062D02*
X94079546Y-125453156D01*
X94079546Y-125453156D02*
X94053944Y-125442002D01*
X94053944Y-125442002D02*
X93992286Y-125389843D01*
X93992286Y-125389843D02*
X93946020Y-125313330D01*
X93946020Y-125313330D02*
X93925425Y-125230131D01*
X93925425Y-125230131D02*
X93925167Y-125220654D01*
X93925167Y-125220654D02*
X93934567Y-125189429D01*
X93934567Y-125189429D02*
X93960746Y-125127349D01*
X93960746Y-125127349D02*
X94000666Y-125040968D01*
X94000666Y-125040968D02*
X94051292Y-124936840D01*
X94051292Y-124936840D02*
X94109587Y-124821519D01*
X94109587Y-124821519D02*
X94114228Y-124812516D01*
X94114228Y-124812516D02*
X94359963Y-124295362D01*
X94359963Y-124295362D02*
X94563995Y-123775921D01*
X94563995Y-123775921D02*
X94726950Y-123251632D01*
X94726950Y-123251632D02*
X94849457Y-122719936D01*
X94849457Y-122719936D02*
X94932144Y-122178273D01*
X94932144Y-122178273D02*
X94975640Y-121624083D01*
X94975640Y-121624083D02*
X94983201Y-121271250D01*
X94983201Y-121271250D02*
X94980974Y-121016866D01*
X94980974Y-121016866D02*
X94973433Y-120791363D01*
X94973433Y-120791363D02*
X94959568Y-120581506D01*
X94959568Y-120581506D02*
X94938371Y-120374063D01*
X94938371Y-120374063D02*
X94908833Y-120155800D01*
X94908833Y-120155800D02*
X94888031Y-120022416D01*
X94888031Y-120022416D02*
X94791262Y-119523463D01*
X94791262Y-119523463D02*
X94664872Y-119044453D01*
X94664872Y-119044453D02*
X94506015Y-118576802D01*
X94506015Y-118576802D02*
X94311845Y-118111928D01*
X94311845Y-118111928D02*
X94131171Y-117740142D01*
X94131171Y-117740142D02*
X93997111Y-117487890D01*
X93997111Y-117487890D02*
X93867802Y-117262869D01*
X93867802Y-117262869D02*
X93735112Y-117051987D01*
X93735112Y-117051987D02*
X93590905Y-116842150D01*
X93590905Y-116842150D02*
X93474824Y-116683623D01*
X93474824Y-116683623D02*
X93111847Y-116232947D01*
X93111847Y-116232947D02*
X92722087Y-115814309D01*
X92722087Y-115814309D02*
X92307023Y-115428555D01*
X92307023Y-115428555D02*
X91868133Y-115076526D01*
X91868133Y-115076526D02*
X91406893Y-114759069D01*
X91406893Y-114759069D02*
X90924782Y-114477025D01*
X90924782Y-114477025D02*
X90423277Y-114231240D01*
X90423277Y-114231240D02*
X89903857Y-114022556D01*
X89903857Y-114022556D02*
X89367998Y-113851819D01*
X89367998Y-113851819D02*
X88817179Y-113719871D01*
X88817179Y-113719871D02*
X88252877Y-113627557D01*
X88252877Y-113627557D02*
X88090433Y-113608690D01*
X88090433Y-113608690D02*
X87939418Y-113595901D01*
X87939418Y-113595901D02*
X87758452Y-113585783D01*
X87758452Y-113585783D02*
X87559865Y-113578854D01*
X87559865Y-113578854D02*
X87355983Y-113575632D01*
X87355983Y-113575632D02*
X87300000Y-113575465D01*
X87300000Y-113575465D02*
X86737786Y-113593763D01*
X86737786Y-113593763D02*
X86193079Y-113649285D01*
X86193079Y-113649285D02*
X85661630Y-113742972D01*
X85661630Y-113742972D02*
X85139191Y-113875767D01*
X85139191Y-113875767D02*
X84621512Y-114048611D01*
X84621512Y-114048611D02*
X84104347Y-114262446D01*
X84104347Y-114262446D02*
X84014245Y-114303841D01*
X84014245Y-114303841D02*
X83760030Y-114431061D01*
X83760030Y-114431061D02*
X83488266Y-114582727D01*
X83488266Y-114582727D02*
X83209891Y-114751972D01*
X83209891Y-114751972D02*
X82935846Y-114931929D01*
X82935846Y-114931929D02*
X82677070Y-115115733D01*
X82677070Y-115115733D02*
X82484945Y-115263701D01*
X82484945Y-115263701D02*
X82338084Y-115387169D01*
X82338084Y-115387169D02*
X82173532Y-115534850D01*
X82173532Y-115534850D02*
X82000218Y-115698040D01*
X82000218Y-115698040D02*
X81827070Y-115868035D01*
X81827070Y-115868035D02*
X81663017Y-116036129D01*
X81663017Y-116036129D02*
X81516986Y-116193619D01*
X81516986Y-116193619D02*
X81435028Y-116287275D01*
X81435028Y-116287275D02*
X81093730Y-116720878D01*
X81093730Y-116720878D02*
X80782997Y-117180704D01*
X80782997Y-117180704D02*
X80504936Y-117662599D01*
X80504936Y-117662599D02*
X80261658Y-118162412D01*
X80261658Y-118162412D02*
X80055271Y-118675990D01*
X80055271Y-118675990D02*
X79887883Y-119199179D01*
X79887883Y-119199179D02*
X79816980Y-119473548D01*
X79816980Y-119473548D02*
X79738997Y-119838014D01*
X79738997Y-119838014D02*
X79681489Y-120192594D01*
X79681489Y-120192594D02*
X79642994Y-120550262D01*
X79642994Y-120550262D02*
X79622052Y-120923988D01*
X79622052Y-120923988D02*
X79616953Y-121250083D01*
X79616953Y-121250083D02*
X79624507Y-121646895D01*
X79624507Y-121646895D02*
X79648161Y-122016192D01*
X79648161Y-122016192D02*
X79689402Y-122370192D01*
X79689402Y-122370192D02*
X79749718Y-122721111D01*
X79749718Y-122721111D02*
X79830595Y-123081167D01*
X79830595Y-123081167D02*
X79848487Y-123151922D01*
X79848487Y-123151922D02*
X79927405Y-123441742D01*
X79927405Y-123441742D02*
X80010191Y-123708646D01*
X80010191Y-123708646D02*
X80101214Y-123964160D01*
X80101214Y-123964160D02*
X80204843Y-124219814D01*
X80204843Y-124219814D02*
X80325446Y-124487133D01*
X80325446Y-124487133D02*
X80456139Y-124755254D01*
X80456139Y-124755254D02*
X80518734Y-124881603D01*
X80518734Y-124881603D02*
X80574339Y-124996823D01*
X80574339Y-124996823D02*
X80620247Y-125095057D01*
X80620247Y-125095057D02*
X80653750Y-125170447D01*
X80653750Y-125170447D02*
X80672139Y-125217137D01*
X80672139Y-125217137D02*
X80674833Y-125228305D01*
X80674833Y-125228305D02*
X80659302Y-125296508D01*
X80659302Y-125296508D02*
X80620320Y-125368828D01*
X80620320Y-125368828D02*
X80569309Y-125426318D01*
X80569309Y-125426318D02*
X80546030Y-125442015D01*
X80546030Y-125442015D02*
X80450146Y-125470102D01*
X80450146Y-125470102D02*
X80352919Y-125460694D01*
X80352919Y-125460694D02*
X80315904Y-125445888D01*
X80315904Y-125445888D02*
X80280104Y-125421376D01*
X80280104Y-125421376D02*
X80241850Y-125380859D01*
X80241850Y-125380859D02*
X80198366Y-125319978D01*
X80198366Y-125319978D02*
X80146878Y-125234372D01*
X80146878Y-125234372D02*
X80084610Y-125119679D01*
X80084610Y-125119679D02*
X80008788Y-124971541D01*
X80008788Y-124971541D02*
X79989540Y-124933083D01*
X79989540Y-124933083D02*
X79741197Y-124389294D01*
X79741197Y-124389294D02*
X79534240Y-123836790D01*
X79534240Y-123836790D02*
X79368762Y-123276167D01*
X79368762Y-123276167D02*
X79244854Y-122708024D01*
X79244854Y-122708024D02*
X79162605Y-122132959D01*
X79162605Y-122132959D02*
X79122109Y-121551568D01*
X79122109Y-121551568D02*
X79123455Y-120964451D01*
X79123455Y-120964451D02*
X79166736Y-120372204D01*
X79166736Y-120372204D02*
X79226425Y-119927166D01*
X79226425Y-119927166D02*
X79338260Y-119360736D01*
X79338260Y-119360736D02*
X79489909Y-118806793D01*
X79489909Y-118806793D02*
X79680253Y-118267028D01*
X79680253Y-118267028D02*
X79908171Y-117743132D01*
X79908171Y-117743132D02*
X80172544Y-117236796D01*
X80172544Y-117236796D02*
X80472253Y-116749710D01*
X80472253Y-116749710D02*
X80806179Y-116283565D01*
X80806179Y-116283565D02*
X81173201Y-115840051D01*
X81173201Y-115840051D02*
X81572201Y-115420860D01*
X81572201Y-115420860D02*
X82002058Y-115027681D01*
X82002058Y-115027681D02*
X82461654Y-114662205D01*
X82461654Y-114662205D02*
X82924569Y-114342350D01*
X82924569Y-114342350D02*
X83377428Y-114074002D01*
X83377428Y-114074002D02*
X83856822Y-113833731D01*
X83856822Y-113833731D02*
X84356931Y-113623423D01*
X84356931Y-113623423D02*
X84871932Y-113444965D01*
X84871932Y-113444965D02*
X85396006Y-113300244D01*
X85396006Y-113300244D02*
X85923330Y-113191148D01*
X85923330Y-113191148D02*
X86448083Y-113119563D01*
X86448083Y-113119563D02*
X86773624Y-113094632D01*
X86773624Y-113094632D02*
X87056583Y-113079750D01*
X87056583Y-113079750D02*
X87067167Y-109912261D01*
X87067167Y-109912261D02*
X87068611Y-109484200D01*
X87068611Y-109484200D02*
X87069965Y-109096449D01*
X87069965Y-109096449D02*
X87071261Y-108746985D01*
X87071261Y-108746985D02*
X87072530Y-108433785D01*
X87072530Y-108433785D02*
X87073804Y-108154827D01*
X87073804Y-108154827D02*
X87075114Y-107908087D01*
X87075114Y-107908087D02*
X87076493Y-107691542D01*
X87076493Y-107691542D02*
X87077971Y-107503170D01*
X87077971Y-107503170D02*
X87079580Y-107340947D01*
X87079580Y-107340947D02*
X87081352Y-107202851D01*
X87081352Y-107202851D02*
X87083319Y-107086859D01*
X87083319Y-107086859D02*
X87085512Y-106990947D01*
X87085512Y-106990947D02*
X87087962Y-106913093D01*
X87087962Y-106913093D02*
X87090702Y-106851273D01*
X87090702Y-106851273D02*
X87093763Y-106803465D01*
X87093763Y-106803465D02*
X87097177Y-106767646D01*
X87097177Y-106767646D02*
X87100974Y-106741793D01*
X87100974Y-106741793D02*
X87105188Y-106723883D01*
X87105188Y-106723883D02*
X87109849Y-106711892D01*
X87109849Y-106711892D02*
X87114989Y-106703799D01*
X87114989Y-106703799D02*
X87117351Y-106701016D01*
X87117351Y-106701016D02*
X87192618Y-106646818D01*
X87192618Y-106646818D02*
X87282791Y-106624806D01*
X87282791Y-106624806D02*
X87375281Y-106634980D01*
X87375281Y-106634980D02*
X87375281Y-106634980D01*
G36*
X87375281Y-106634980D02*
G01*
X87457494Y-106677339D01*
X87482649Y-106701016D01*
X87488004Y-106708057D01*
X87492867Y-106718126D01*
X87497269Y-106733247D01*
X87501241Y-106755441D01*
X87504816Y-106786733D01*
X87508024Y-106829144D01*
X87510898Y-106884699D01*
X87513469Y-106955419D01*
X87515768Y-107043328D01*
X87517828Y-107150450D01*
X87519680Y-107278806D01*
X87521356Y-107430420D01*
X87522886Y-107607314D01*
X87524304Y-107811513D01*
X87525639Y-108045038D01*
X87526925Y-108309912D01*
X87528192Y-108608160D01*
X87529473Y-108941802D01*
X87530798Y-109312864D01*
X87532200Y-109723366D01*
X87532833Y-109912261D01*
X87543417Y-113079750D01*
X87817368Y-113094027D01*
X88266784Y-113132872D01*
X88731265Y-113202125D01*
X89199176Y-113299348D01*
X89658880Y-113422100D01*
X90098740Y-113567940D01*
X90126640Y-113578262D01*
X90668064Y-113801948D01*
X91188376Y-114061093D01*
X91686125Y-114354104D01*
X92159857Y-114679388D01*
X92608121Y-115035351D01*
X93029466Y-115420398D01*
X93422439Y-115832937D01*
X93785589Y-116271373D01*
X94117464Y-116734113D01*
X94416611Y-117219562D01*
X94681580Y-117726128D01*
X94910917Y-118252215D01*
X95103172Y-118796232D01*
X95206481Y-119154583D01*
X95308645Y-119583865D01*
X95384849Y-120001858D01*
X95437707Y-120425409D01*
X95468356Y-120841957D01*
X95477812Y-121430428D01*
X95445132Y-122014883D01*
X95370313Y-122595346D01*
X95253352Y-123171842D01*
X95094243Y-123744396D01*
X94962205Y-124130863D01*
X94921072Y-124236200D01*
X94868401Y-124361083D01*
X94807022Y-124499699D01*
X94739767Y-124646233D01*
X94669466Y-124794871D01*
X94598950Y-124939799D01*
X94531048Y-125075202D01*
X94468592Y-125195267D01*
X94414412Y-125294179D01*
X94371339Y-125366124D01*
X94342203Y-125405288D01*
X94341385Y-125406074D01*
X94264538Y-125451679D01*
X94171748Y-125468062D01*
X94079546Y-125453156D01*
X94053944Y-125442002D01*
X93992286Y-125389843D01*
X93946020Y-125313330D01*
X93925425Y-125230131D01*
X93925167Y-125220654D01*
X93934567Y-125189429D01*
X93960746Y-125127349D01*
X94000666Y-125040968D01*
X94051292Y-124936840D01*
X94109587Y-124821519D01*
X94114228Y-124812516D01*
X94359963Y-124295362D01*
X94563995Y-123775921D01*
X94726950Y-123251632D01*
X94849457Y-122719936D01*
X94932144Y-122178273D01*
X94975640Y-121624083D01*
X94983201Y-121271250D01*
X94980974Y-121016866D01*
X94973433Y-120791363D01*
X94959568Y-120581506D01*
X94938371Y-120374063D01*
X94908833Y-120155800D01*
X94888031Y-120022416D01*
X94791262Y-119523463D01*
X94664872Y-119044453D01*
X94506015Y-118576802D01*
X94311845Y-118111928D01*
X94131171Y-117740142D01*
X93997111Y-117487890D01*
X93867802Y-117262869D01*
X93735112Y-117051987D01*
X93590905Y-116842150D01*
X93474824Y-116683623D01*
X93111847Y-116232947D01*
X92722087Y-115814309D01*
X92307023Y-115428555D01*
X91868133Y-115076526D01*
X91406893Y-114759069D01*
X90924782Y-114477025D01*
X90423277Y-114231240D01*
X89903857Y-114022556D01*
X89367998Y-113851819D01*
X88817179Y-113719871D01*
X88252877Y-113627557D01*
X88090433Y-113608690D01*
X87939418Y-113595901D01*
X87758452Y-113585783D01*
X87559865Y-113578854D01*
X87355983Y-113575632D01*
X87300000Y-113575465D01*
X86737786Y-113593763D01*
X86193079Y-113649285D01*
X85661630Y-113742972D01*
X85139191Y-113875767D01*
X84621512Y-114048611D01*
X84104347Y-114262446D01*
X84014245Y-114303841D01*
X83760030Y-114431061D01*
X83488266Y-114582727D01*
X83209891Y-114751972D01*
X82935846Y-114931929D01*
X82677070Y-115115733D01*
X82484945Y-115263701D01*
X82338084Y-115387169D01*
X82173532Y-115534850D01*
X82000218Y-115698040D01*
X81827070Y-115868035D01*
X81663017Y-116036129D01*
X81516986Y-116193619D01*
X81435028Y-116287275D01*
X81093730Y-116720878D01*
X80782997Y-117180704D01*
X80504936Y-117662599D01*
X80261658Y-118162412D01*
X80055271Y-118675990D01*
X79887883Y-119199179D01*
X79816980Y-119473548D01*
X79738997Y-119838014D01*
X79681489Y-120192594D01*
X79642994Y-120550262D01*
X79622052Y-120923988D01*
X79616953Y-121250083D01*
X79624507Y-121646895D01*
X79648161Y-122016192D01*
X79689402Y-122370192D01*
X79749718Y-122721111D01*
X79830595Y-123081167D01*
X79848487Y-123151922D01*
X79927405Y-123441742D01*
X80010191Y-123708646D01*
X80101214Y-123964160D01*
X80204843Y-124219814D01*
X80325446Y-124487133D01*
X80456139Y-124755254D01*
X80518734Y-124881603D01*
X80574339Y-124996823D01*
X80620247Y-125095057D01*
X80653750Y-125170447D01*
X80672139Y-125217137D01*
X80674833Y-125228305D01*
X80659302Y-125296508D01*
X80620320Y-125368828D01*
X80569309Y-125426318D01*
X80546030Y-125442015D01*
X80450146Y-125470102D01*
X80352919Y-125460694D01*
X80315904Y-125445888D01*
X80280104Y-125421376D01*
X80241850Y-125380859D01*
X80198366Y-125319978D01*
X80146878Y-125234372D01*
X80084610Y-125119679D01*
X80008788Y-124971541D01*
X79989540Y-124933083D01*
X79741197Y-124389294D01*
X79534240Y-123836790D01*
X79368762Y-123276167D01*
X79244854Y-122708024D01*
X79162605Y-122132959D01*
X79122109Y-121551568D01*
X79123455Y-120964451D01*
X79166736Y-120372204D01*
X79226425Y-119927166D01*
X79338260Y-119360736D01*
X79489909Y-118806793D01*
X79680253Y-118267028D01*
X79908171Y-117743132D01*
X80172544Y-117236796D01*
X80472253Y-116749710D01*
X80806179Y-116283565D01*
X81173201Y-115840051D01*
X81572201Y-115420860D01*
X82002058Y-115027681D01*
X82461654Y-114662205D01*
X82924569Y-114342350D01*
X83377428Y-114074002D01*
X83856822Y-113833731D01*
X84356931Y-113623423D01*
X84871932Y-113444965D01*
X85396006Y-113300244D01*
X85923330Y-113191148D01*
X86448083Y-113119563D01*
X86773624Y-113094632D01*
X87056583Y-113079750D01*
X87067167Y-109912261D01*
X87068611Y-109484200D01*
X87069965Y-109096449D01*
X87071261Y-108746985D01*
X87072530Y-108433785D01*
X87073804Y-108154827D01*
X87075114Y-107908087D01*
X87076493Y-107691542D01*
X87077971Y-107503170D01*
X87079580Y-107340947D01*
X87081352Y-107202851D01*
X87083319Y-107086859D01*
X87085512Y-106990947D01*
X87087962Y-106913093D01*
X87090702Y-106851273D01*
X87093763Y-106803465D01*
X87097177Y-106767646D01*
X87100974Y-106741793D01*
X87105188Y-106723883D01*
X87109849Y-106711892D01*
X87114989Y-106703799D01*
X87117351Y-106701016D01*
X87192618Y-106646818D01*
X87282791Y-106624806D01*
X87375281Y-106634980D01*
G37*
X87375281Y-106634980D02*
X87457494Y-106677339D01*
X87482649Y-106701016D01*
X87488004Y-106708057D01*
X87492867Y-106718126D01*
X87497269Y-106733247D01*
X87501241Y-106755441D01*
X87504816Y-106786733D01*
X87508024Y-106829144D01*
X87510898Y-106884699D01*
X87513469Y-106955419D01*
X87515768Y-107043328D01*
X87517828Y-107150450D01*
X87519680Y-107278806D01*
X87521356Y-107430420D01*
X87522886Y-107607314D01*
X87524304Y-107811513D01*
X87525639Y-108045038D01*
X87526925Y-108309912D01*
X87528192Y-108608160D01*
X87529473Y-108941802D01*
X87530798Y-109312864D01*
X87532200Y-109723366D01*
X87532833Y-109912261D01*
X87543417Y-113079750D01*
X87817368Y-113094027D01*
X88266784Y-113132872D01*
X88731265Y-113202125D01*
X89199176Y-113299348D01*
X89658880Y-113422100D01*
X90098740Y-113567940D01*
X90126640Y-113578262D01*
X90668064Y-113801948D01*
X91188376Y-114061093D01*
X91686125Y-114354104D01*
X92159857Y-114679388D01*
X92608121Y-115035351D01*
X93029466Y-115420398D01*
X93422439Y-115832937D01*
X93785589Y-116271373D01*
X94117464Y-116734113D01*
X94416611Y-117219562D01*
X94681580Y-117726128D01*
X94910917Y-118252215D01*
X95103172Y-118796232D01*
X95206481Y-119154583D01*
X95308645Y-119583865D01*
X95384849Y-120001858D01*
X95437707Y-120425409D01*
X95468356Y-120841957D01*
X95477812Y-121430428D01*
X95445132Y-122014883D01*
X95370313Y-122595346D01*
X95253352Y-123171842D01*
X95094243Y-123744396D01*
X94962205Y-124130863D01*
X94921072Y-124236200D01*
X94868401Y-124361083D01*
X94807022Y-124499699D01*
X94739767Y-124646233D01*
X94669466Y-124794871D01*
X94598950Y-124939799D01*
X94531048Y-125075202D01*
X94468592Y-125195267D01*
X94414412Y-125294179D01*
X94371339Y-125366124D01*
X94342203Y-125405288D01*
X94341385Y-125406074D01*
X94264538Y-125451679D01*
X94171748Y-125468062D01*
X94079546Y-125453156D01*
X94053944Y-125442002D01*
X93992286Y-125389843D01*
X93946020Y-125313330D01*
X93925425Y-125230131D01*
X93925167Y-125220654D01*
X93934567Y-125189429D01*
X93960746Y-125127349D01*
X94000666Y-125040968D01*
X94051292Y-124936840D01*
X94109587Y-124821519D01*
X94114228Y-124812516D01*
X94359963Y-124295362D01*
X94563995Y-123775921D01*
X94726950Y-123251632D01*
X94849457Y-122719936D01*
X94932144Y-122178273D01*
X94975640Y-121624083D01*
X94983201Y-121271250D01*
X94980974Y-121016866D01*
X94973433Y-120791363D01*
X94959568Y-120581506D01*
X94938371Y-120374063D01*
X94908833Y-120155800D01*
X94888031Y-120022416D01*
X94791262Y-119523463D01*
X94664872Y-119044453D01*
X94506015Y-118576802D01*
X94311845Y-118111928D01*
X94131171Y-117740142D01*
X93997111Y-117487890D01*
X93867802Y-117262869D01*
X93735112Y-117051987D01*
X93590905Y-116842150D01*
X93474824Y-116683623D01*
X93111847Y-116232947D01*
X92722087Y-115814309D01*
X92307023Y-115428555D01*
X91868133Y-115076526D01*
X91406893Y-114759069D01*
X90924782Y-114477025D01*
X90423277Y-114231240D01*
X89903857Y-114022556D01*
X89367998Y-113851819D01*
X88817179Y-113719871D01*
X88252877Y-113627557D01*
X88090433Y-113608690D01*
X87939418Y-113595901D01*
X87758452Y-113585783D01*
X87559865Y-113578854D01*
X87355983Y-113575632D01*
X87300000Y-113575465D01*
X86737786Y-113593763D01*
X86193079Y-113649285D01*
X85661630Y-113742972D01*
X85139191Y-113875767D01*
X84621512Y-114048611D01*
X84104347Y-114262446D01*
X84014245Y-114303841D01*
X83760030Y-114431061D01*
X83488266Y-114582727D01*
X83209891Y-114751972D01*
X82935846Y-114931929D01*
X82677070Y-115115733D01*
X82484945Y-115263701D01*
X82338084Y-115387169D01*
X82173532Y-115534850D01*
X82000218Y-115698040D01*
X81827070Y-115868035D01*
X81663017Y-116036129D01*
X81516986Y-116193619D01*
X81435028Y-116287275D01*
X81093730Y-116720878D01*
X80782997Y-117180704D01*
X80504936Y-117662599D01*
X80261658Y-118162412D01*
X80055271Y-118675990D01*
X79887883Y-119199179D01*
X79816980Y-119473548D01*
X79738997Y-119838014D01*
X79681489Y-120192594D01*
X79642994Y-120550262D01*
X79622052Y-120923988D01*
X79616953Y-121250083D01*
X79624507Y-121646895D01*
X79648161Y-122016192D01*
X79689402Y-122370192D01*
X79749718Y-122721111D01*
X79830595Y-123081167D01*
X79848487Y-123151922D01*
X79927405Y-123441742D01*
X80010191Y-123708646D01*
X80101214Y-123964160D01*
X80204843Y-124219814D01*
X80325446Y-124487133D01*
X80456139Y-124755254D01*
X80518734Y-124881603D01*
X80574339Y-124996823D01*
X80620247Y-125095057D01*
X80653750Y-125170447D01*
X80672139Y-125217137D01*
X80674833Y-125228305D01*
X80659302Y-125296508D01*
X80620320Y-125368828D01*
X80569309Y-125426318D01*
X80546030Y-125442015D01*
X80450146Y-125470102D01*
X80352919Y-125460694D01*
X80315904Y-125445888D01*
X80280104Y-125421376D01*
X80241850Y-125380859D01*
X80198366Y-125319978D01*
X80146878Y-125234372D01*
X80084610Y-125119679D01*
X80008788Y-124971541D01*
X79989540Y-124933083D01*
X79741197Y-124389294D01*
X79534240Y-123836790D01*
X79368762Y-123276167D01*
X79244854Y-122708024D01*
X79162605Y-122132959D01*
X79122109Y-121551568D01*
X79123455Y-120964451D01*
X79166736Y-120372204D01*
X79226425Y-119927166D01*
X79338260Y-119360736D01*
X79489909Y-118806793D01*
X79680253Y-118267028D01*
X79908171Y-117743132D01*
X80172544Y-117236796D01*
X80472253Y-116749710D01*
X80806179Y-116283565D01*
X81173201Y-115840051D01*
X81572201Y-115420860D01*
X82002058Y-115027681D01*
X82461654Y-114662205D01*
X82924569Y-114342350D01*
X83377428Y-114074002D01*
X83856822Y-113833731D01*
X84356931Y-113623423D01*
X84871932Y-113444965D01*
X85396006Y-113300244D01*
X85923330Y-113191148D01*
X86448083Y-113119563D01*
X86773624Y-113094632D01*
X87056583Y-113079750D01*
X87067167Y-109912261D01*
X87068611Y-109484200D01*
X87069965Y-109096449D01*
X87071261Y-108746985D01*
X87072530Y-108433785D01*
X87073804Y-108154827D01*
X87075114Y-107908087D01*
X87076493Y-107691542D01*
X87077971Y-107503170D01*
X87079580Y-107340947D01*
X87081352Y-107202851D01*
X87083319Y-107086859D01*
X87085512Y-106990947D01*
X87087962Y-106913093D01*
X87090702Y-106851273D01*
X87093763Y-106803465D01*
X87097177Y-106767646D01*
X87100974Y-106741793D01*
X87105188Y-106723883D01*
X87109849Y-106711892D01*
X87114989Y-106703799D01*
X87117351Y-106701016D01*
X87192618Y-106646818D01*
X87282791Y-106624806D01*
X87375281Y-106634980D01*
X112750159Y-106636686D02*
X112815961Y-106670859D01*
X112815961Y-106670859D02*
X112870763Y-106717101D01*
X112870763Y-106717101D02*
X112877999Y-106726006D01*
X112877999Y-106726006D02*
X112922250Y-106785763D01*
X112922250Y-106785763D02*
X112932833Y-109932756D01*
X112932833Y-109932756D02*
X112943417Y-113079750D01*
X112943417Y-113079750D02*
X113059833Y-113084600D01*
X113059833Y-113084600D02*
X113631839Y-113129373D01*
X113631839Y-113129373D02*
X114197037Y-113214992D01*
X114197037Y-113214992D02*
X114753265Y-113340248D01*
X114753265Y-113340248D02*
X115298360Y-113503933D01*
X115298360Y-113503933D02*
X115830160Y-113704838D01*
X115830160Y-113704838D02*
X116346503Y-113941754D01*
X116346503Y-113941754D02*
X116845226Y-114213472D01*
X116845226Y-114213472D02*
X117324168Y-114518784D01*
X117324168Y-114518784D02*
X117781166Y-114856481D01*
X117781166Y-114856481D02*
X118214057Y-115225354D01*
X118214057Y-115225354D02*
X118620680Y-115624194D01*
X118620680Y-115624194D02*
X118998873Y-116051793D01*
X118998873Y-116051793D02*
X119346472Y-116506941D01*
X119346472Y-116506941D02*
X119450019Y-116656916D01*
X119450019Y-116656916D02*
X119729536Y-117096174D01*
X119729536Y-117096174D02*
X119972428Y-117530968D01*
X119972428Y-117530968D02*
X120182510Y-117969358D01*
X120182510Y-117969358D02*
X120363593Y-118419406D01*
X120363593Y-118419406D02*
X120519492Y-118889170D01*
X120519492Y-118889170D02*
X120541594Y-118964083D01*
X120541594Y-118964083D02*
X120684926Y-119533251D01*
X120684926Y-119533251D02*
X120787037Y-120110284D01*
X120787037Y-120110284D02*
X120847802Y-120692892D01*
X120847802Y-120692892D02*
X120867097Y-121278783D01*
X120867097Y-121278783D02*
X120844797Y-121865666D01*
X120844797Y-121865666D02*
X120780778Y-122451248D01*
X120780778Y-122451248D02*
X120743666Y-122683428D01*
X120743666Y-122683428D02*
X120663529Y-123075237D01*
X120663529Y-123075237D02*
X120558363Y-123482054D01*
X120558363Y-123482054D02*
X120432670Y-123888557D01*
X120432670Y-123888557D02*
X120290951Y-124279423D01*
X120290951Y-124279423D02*
X120231988Y-124425083D01*
X120231988Y-124425083D02*
X120179430Y-124546060D01*
X120179430Y-124546060D02*
X120118358Y-124678849D01*
X120118358Y-124678849D02*
X120052057Y-124817062D01*
X120052057Y-124817062D02*
X119983813Y-124954306D01*
X119983813Y-124954306D02*
X119916910Y-125084193D01*
X119916910Y-125084193D02*
X119854632Y-125200332D01*
X119854632Y-125200332D02*
X119800264Y-125296333D01*
X119800264Y-125296333D02*
X119757092Y-125365805D01*
X119757092Y-125365805D02*
X119730790Y-125400103D01*
X119730790Y-125400103D02*
X119650049Y-125454017D01*
X119650049Y-125454017D02*
X119559451Y-125471465D01*
X119559451Y-125471465D02*
X119469563Y-125452876D01*
X119469563Y-125452876D02*
X119390953Y-125398680D01*
X119390953Y-125398680D02*
X119379359Y-125385822D01*
X119379359Y-125385822D02*
X119348864Y-125344199D01*
X119348864Y-125344199D02*
X119330510Y-125301678D01*
X119330510Y-125301678D02*
X119325547Y-125252908D01*
X119325547Y-125252908D02*
X119335228Y-125192538D01*
X119335228Y-125192538D02*
X119360805Y-125115216D01*
X119360805Y-125115216D02*
X119403530Y-125015589D01*
X119403530Y-125015589D02*
X119464655Y-124888307D01*
X119464655Y-124888307D02*
X119522860Y-124772397D01*
X119522860Y-124772397D02*
X119762902Y-124259579D01*
X119762902Y-124259579D02*
X119961713Y-123747334D01*
X119961713Y-123747334D02*
X120120181Y-123231982D01*
X120120181Y-123231982D02*
X120239194Y-122709844D01*
X120239194Y-122709844D02*
X120319640Y-122177239D01*
X120319640Y-122177239D02*
X120362408Y-121630488D01*
X120362408Y-121630488D02*
X120370425Y-121260666D01*
X120370425Y-121260666D02*
X120368870Y-121025794D01*
X120368870Y-121025794D02*
X120363454Y-120821356D01*
X120363454Y-120821356D02*
X120353279Y-120635557D01*
X120353279Y-120635557D02*
X120337451Y-120456603D01*
X120337451Y-120456603D02*
X120315072Y-120272698D01*
X120315072Y-120272698D02*
X120285246Y-120072047D01*
X120285246Y-120072047D02*
X120275532Y-120011833D01*
X120275532Y-120011833D02*
X120164646Y-119461886D01*
X120164646Y-119461886D02*
X120015153Y-118926708D01*
X120015153Y-118926708D02*
X119828614Y-118407835D01*
X119828614Y-118407835D02*
X119606586Y-117906808D01*
X119606586Y-117906808D02*
X119350630Y-117425163D01*
X119350630Y-117425163D02*
X119062304Y-116964439D01*
X119062304Y-116964439D02*
X118743167Y-116526175D01*
X118743167Y-116526175D02*
X118394779Y-116111909D01*
X118394779Y-116111909D02*
X118018699Y-115723179D01*
X118018699Y-115723179D02*
X117616485Y-115361524D01*
X117616485Y-115361524D02*
X117189696Y-115028481D01*
X117189696Y-115028481D02*
X116739893Y-114725590D01*
X116739893Y-114725590D02*
X116268633Y-114454388D01*
X116268633Y-114454388D02*
X115777476Y-114216414D01*
X115777476Y-114216414D02*
X115267981Y-114013206D01*
X115267981Y-114013206D02*
X114741707Y-113846302D01*
X114741707Y-113846302D02*
X114200213Y-113717241D01*
X114200213Y-113717241D02*
X113830767Y-113652870D01*
X113830767Y-113652870D02*
X113631090Y-113625245D01*
X113631090Y-113625245D02*
X113445927Y-113604642D01*
X113445927Y-113604642D02*
X113263187Y-113590245D01*
X113263187Y-113590245D02*
X113070780Y-113581240D01*
X113070780Y-113581240D02*
X112856613Y-113576814D01*
X112856613Y-113576814D02*
X112689417Y-113576004D01*
X112689417Y-113576004D02*
X112334688Y-113581536D01*
X112334688Y-113581536D02*
X112009252Y-113598914D01*
X112009252Y-113598914D02*
X111701432Y-113629310D01*
X111701432Y-113629310D02*
X111399555Y-113673896D01*
X111399555Y-113673896D02*
X111091946Y-113733844D01*
X111091946Y-113733844D02*
X111070167Y-113738587D01*
X111070167Y-113738587D02*
X110517097Y-113881179D01*
X110517097Y-113881179D02*
X109979317Y-114062651D01*
X109979317Y-114062651D02*
X109458636Y-114281817D01*
X109458636Y-114281817D02*
X108956862Y-114537485D01*
X108956862Y-114537485D02*
X108475803Y-114828469D01*
X108475803Y-114828469D02*
X108017267Y-115153579D01*
X108017267Y-115153579D02*
X107583062Y-115511626D01*
X107583062Y-115511626D02*
X107174996Y-115901422D01*
X107174996Y-115901422D02*
X106794879Y-116321777D01*
X106794879Y-116321777D02*
X106444517Y-116771503D01*
X106444517Y-116771503D02*
X106433285Y-116787107D01*
X106433285Y-116787107D02*
X106119582Y-117259918D01*
X106119582Y-117259918D02*
X105843183Y-117751721D01*
X105843183Y-117751721D02*
X105604716Y-118260460D01*
X105604716Y-118260460D02*
X105404809Y-118784078D01*
X105404809Y-118784078D02*
X105244091Y-119320517D01*
X105244091Y-119320517D02*
X105123188Y-119867721D01*
X105123188Y-119867721D02*
X105042729Y-120423633D01*
X105042729Y-120423633D02*
X105003342Y-120986197D01*
X105003342Y-120986197D02*
X105002755Y-121472333D01*
X105002755Y-121472333D02*
X105040152Y-122046485D01*
X105040152Y-122046485D02*
X105117118Y-122606135D01*
X105117118Y-122606135D02*
X105234102Y-123152954D01*
X105234102Y-123152954D02*
X105391550Y-123688612D01*
X105391550Y-123688612D02*
X105589911Y-124214781D01*
X105589911Y-124214781D02*
X105829631Y-124733132D01*
X105829631Y-124733132D02*
X105925685Y-124917296D01*
X105925685Y-124917296D02*
X105977638Y-125018909D01*
X105977638Y-125018909D02*
X106018698Y-125108897D01*
X106018698Y-125108897D02*
X106045225Y-125178721D01*
X106045225Y-125178721D02*
X106053667Y-125217543D01*
X106053667Y-125217543D02*
X106035626Y-125316146D01*
X106035626Y-125316146D02*
X105986809Y-125394539D01*
X105986809Y-125394539D02*
X105915171Y-125447854D01*
X105915171Y-125447854D02*
X105828671Y-125471224D01*
X105828671Y-125471224D02*
X105735263Y-125459783D01*
X105735263Y-125459783D02*
X105689692Y-125440162D01*
X105689692Y-125440162D02*
X105647294Y-125401664D01*
X105647294Y-125401664D02*
X105592829Y-125327953D01*
X105592829Y-125327953D02*
X105528495Y-125223674D01*
X105528495Y-125223674D02*
X105456490Y-125093472D01*
X105456490Y-125093472D02*
X105379012Y-124941992D01*
X105379012Y-124941992D02*
X105298259Y-124773879D01*
X105298259Y-124773879D02*
X105216428Y-124593777D01*
X105216428Y-124593777D02*
X105135719Y-124406331D01*
X105135719Y-124406331D02*
X105058329Y-124216187D01*
X105058329Y-124216187D02*
X104986456Y-124027988D01*
X104986456Y-124027988D02*
X104922298Y-123846380D01*
X104922298Y-123846380D02*
X104892627Y-123755816D01*
X104892627Y-123755816D02*
X104796908Y-123425498D01*
X104796908Y-123425498D02*
X104709610Y-123066526D01*
X104709610Y-123066526D02*
X104633564Y-122692210D01*
X104633564Y-122692210D02*
X104571602Y-122315858D01*
X104571602Y-122315858D02*
X104546468Y-122128500D01*
X104546468Y-122128500D02*
X104535954Y-122012957D01*
X104535954Y-122012957D02*
X104527972Y-121863040D01*
X104527972Y-121863040D02*
X104522473Y-121686630D01*
X104522473Y-121686630D02*
X104519409Y-121491607D01*
X104519409Y-121491607D02*
X104518732Y-121285852D01*
X104518732Y-121285852D02*
X104520393Y-121077246D01*
X104520393Y-121077246D02*
X104524346Y-120873669D01*
X104524346Y-120873669D02*
X104530540Y-120683002D01*
X104530540Y-120683002D02*
X104538929Y-120513126D01*
X104538929Y-120513126D02*
X104549464Y-120371921D01*
X104549464Y-120371921D02*
X104557658Y-120297583D01*
X104557658Y-120297583D02*
X104653340Y-119709397D01*
X104653340Y-119709397D02*
X104781886Y-119146311D01*
X104781886Y-119146311D02*
X104944354Y-118605492D01*
X104944354Y-118605492D02*
X105141799Y-118084104D01*
X105141799Y-118084104D02*
X105375279Y-117579315D01*
X105375279Y-117579315D02*
X105645849Y-117088291D01*
X105645849Y-117088291D02*
X105906828Y-116678083D01*
X105906828Y-116678083D02*
X106251237Y-116205873D01*
X106251237Y-116205873D02*
X106625777Y-115762265D01*
X106625777Y-115762265D02*
X107028575Y-115348386D01*
X107028575Y-115348386D02*
X107457753Y-114965363D01*
X107457753Y-114965363D02*
X107911437Y-114614324D01*
X107911437Y-114614324D02*
X108387751Y-114296395D01*
X108387751Y-114296395D02*
X108884821Y-114012704D01*
X108884821Y-114012704D02*
X109400770Y-113764378D01*
X109400770Y-113764378D02*
X109933724Y-113552543D01*
X109933724Y-113552543D02*
X110481806Y-113378326D01*
X110481806Y-113378326D02*
X111043143Y-113242856D01*
X111043143Y-113242856D02*
X111615858Y-113147259D01*
X111615858Y-113147259D02*
X111821923Y-113123086D01*
X111821923Y-113123086D02*
X111948105Y-113110638D01*
X111948105Y-113110638D02*
X112073244Y-113099550D01*
X112073244Y-113099550D02*
X112184798Y-113090853D01*
X112184798Y-113090853D02*
X112270226Y-113085576D01*
X112270226Y-113085576D02*
X112287250Y-113084870D01*
X112287250Y-113084870D02*
X112435417Y-113079750D01*
X112435417Y-113079750D02*
X112446000Y-109925916D01*
X112446000Y-109925916D02*
X112447401Y-109493644D01*
X112447401Y-109493644D02*
X112448625Y-109101704D01*
X112448625Y-109101704D02*
X112449760Y-108748092D01*
X112449760Y-108748092D02*
X112450897Y-108430808D01*
X112450897Y-108430808D02*
X112452125Y-108147850D01*
X112452125Y-108147850D02*
X112453533Y-107897216D01*
X112453533Y-107897216D02*
X112455212Y-107676905D01*
X112455212Y-107676905D02*
X112457251Y-107484916D01*
X112457251Y-107484916D02*
X112459739Y-107319245D01*
X112459739Y-107319245D02*
X112462767Y-107177893D01*
X112462767Y-107177893D02*
X112466425Y-107058856D01*
X112466425Y-107058856D02*
X112470800Y-106960134D01*
X112470800Y-106960134D02*
X112475985Y-106879726D01*
X112475985Y-106879726D02*
X112482067Y-106815628D01*
X112482067Y-106815628D02*
X112489138Y-106765840D01*
X112489138Y-106765840D02*
X112497286Y-106728360D01*
X112497286Y-106728360D02*
X112506601Y-106701187D01*
X112506601Y-106701187D02*
X112517173Y-106682319D01*
X112517173Y-106682319D02*
X112529091Y-106669753D01*
X112529091Y-106669753D02*
X112542446Y-106661489D01*
X112542446Y-106661489D02*
X112557327Y-106655526D01*
X112557327Y-106655526D02*
X112573823Y-106649860D01*
X112573823Y-106649860D02*
X112592024Y-106642491D01*
X112592024Y-106642491D02*
X112593130Y-106641971D01*
X112593130Y-106641971D02*
X112646984Y-106620952D01*
X112646984Y-106620952D02*
X112692617Y-106619884D01*
X112692617Y-106619884D02*
X112750159Y-106636686D01*
X112750159Y-106636686D02*
X112750159Y-106636686D01*
G36*
X112750159Y-106636686D02*
G01*
X112815961Y-106670859D01*
X112870763Y-106717101D01*
X112877999Y-106726006D01*
X112922250Y-106785763D01*
X112932833Y-109932756D01*
X112943417Y-113079750D01*
X113059833Y-113084600D01*
X113631839Y-113129373D01*
X114197037Y-113214992D01*
X114753265Y-113340248D01*
X115298360Y-113503933D01*
X115830160Y-113704838D01*
X116346503Y-113941754D01*
X116845226Y-114213472D01*
X117324168Y-114518784D01*
X117781166Y-114856481D01*
X118214057Y-115225354D01*
X118620680Y-115624194D01*
X118998873Y-116051793D01*
X119346472Y-116506941D01*
X119450019Y-116656916D01*
X119729536Y-117096174D01*
X119972428Y-117530968D01*
X120182510Y-117969358D01*
X120363593Y-118419406D01*
X120519492Y-118889170D01*
X120541594Y-118964083D01*
X120684926Y-119533251D01*
X120787037Y-120110284D01*
X120847802Y-120692892D01*
X120867097Y-121278783D01*
X120844797Y-121865666D01*
X120780778Y-122451248D01*
X120743666Y-122683428D01*
X120663529Y-123075237D01*
X120558363Y-123482054D01*
X120432670Y-123888557D01*
X120290951Y-124279423D01*
X120231988Y-124425083D01*
X120179430Y-124546060D01*
X120118358Y-124678849D01*
X120052057Y-124817062D01*
X119983813Y-124954306D01*
X119916910Y-125084193D01*
X119854632Y-125200332D01*
X119800264Y-125296333D01*
X119757092Y-125365805D01*
X119730790Y-125400103D01*
X119650049Y-125454017D01*
X119559451Y-125471465D01*
X119469563Y-125452876D01*
X119390953Y-125398680D01*
X119379359Y-125385822D01*
X119348864Y-125344199D01*
X119330510Y-125301678D01*
X119325547Y-125252908D01*
X119335228Y-125192538D01*
X119360805Y-125115216D01*
X119403530Y-125015589D01*
X119464655Y-124888307D01*
X119522860Y-124772397D01*
X119762902Y-124259579D01*
X119961713Y-123747334D01*
X120120181Y-123231982D01*
X120239194Y-122709844D01*
X120319640Y-122177239D01*
X120362408Y-121630488D01*
X120370425Y-121260666D01*
X120368870Y-121025794D01*
X120363454Y-120821356D01*
X120353279Y-120635557D01*
X120337451Y-120456603D01*
X120315072Y-120272698D01*
X120285246Y-120072047D01*
X120275532Y-120011833D01*
X120164646Y-119461886D01*
X120015153Y-118926708D01*
X119828614Y-118407835D01*
X119606586Y-117906808D01*
X119350630Y-117425163D01*
X119062304Y-116964439D01*
X118743167Y-116526175D01*
X118394779Y-116111909D01*
X118018699Y-115723179D01*
X117616485Y-115361524D01*
X117189696Y-115028481D01*
X116739893Y-114725590D01*
X116268633Y-114454388D01*
X115777476Y-114216414D01*
X115267981Y-114013206D01*
X114741707Y-113846302D01*
X114200213Y-113717241D01*
X113830767Y-113652870D01*
X113631090Y-113625245D01*
X113445927Y-113604642D01*
X113263187Y-113590245D01*
X113070780Y-113581240D01*
X112856613Y-113576814D01*
X112689417Y-113576004D01*
X112334688Y-113581536D01*
X112009252Y-113598914D01*
X111701432Y-113629310D01*
X111399555Y-113673896D01*
X111091946Y-113733844D01*
X111070167Y-113738587D01*
X110517097Y-113881179D01*
X109979317Y-114062651D01*
X109458636Y-114281817D01*
X108956862Y-114537485D01*
X108475803Y-114828469D01*
X108017267Y-115153579D01*
X107583062Y-115511626D01*
X107174996Y-115901422D01*
X106794879Y-116321777D01*
X106444517Y-116771503D01*
X106433285Y-116787107D01*
X106119582Y-117259918D01*
X105843183Y-117751721D01*
X105604716Y-118260460D01*
X105404809Y-118784078D01*
X105244091Y-119320517D01*
X105123188Y-119867721D01*
X105042729Y-120423633D01*
X105003342Y-120986197D01*
X105002755Y-121472333D01*
X105040152Y-122046485D01*
X105117118Y-122606135D01*
X105234102Y-123152954D01*
X105391550Y-123688612D01*
X105589911Y-124214781D01*
X105829631Y-124733132D01*
X105925685Y-124917296D01*
X105977638Y-125018909D01*
X106018698Y-125108897D01*
X106045225Y-125178721D01*
X106053667Y-125217543D01*
X106035626Y-125316146D01*
X105986809Y-125394539D01*
X105915171Y-125447854D01*
X105828671Y-125471224D01*
X105735263Y-125459783D01*
X105689692Y-125440162D01*
X105647294Y-125401664D01*
X105592829Y-125327953D01*
X105528495Y-125223674D01*
X105456490Y-125093472D01*
X105379012Y-124941992D01*
X105298259Y-124773879D01*
X105216428Y-124593777D01*
X105135719Y-124406331D01*
X105058329Y-124216187D01*
X104986456Y-124027988D01*
X104922298Y-123846380D01*
X104892627Y-123755816D01*
X104796908Y-123425498D01*
X104709610Y-123066526D01*
X104633564Y-122692210D01*
X104571602Y-122315858D01*
X104546468Y-122128500D01*
X104535954Y-122012957D01*
X104527972Y-121863040D01*
X104522473Y-121686630D01*
X104519409Y-121491607D01*
X104518732Y-121285852D01*
X104520393Y-121077246D01*
X104524346Y-120873669D01*
X104530540Y-120683002D01*
X104538929Y-120513126D01*
X104549464Y-120371921D01*
X104557658Y-120297583D01*
X104653340Y-119709397D01*
X104781886Y-119146311D01*
X104944354Y-118605492D01*
X105141799Y-118084104D01*
X105375279Y-117579315D01*
X105645849Y-117088291D01*
X105906828Y-116678083D01*
X106251237Y-116205873D01*
X106625777Y-115762265D01*
X107028575Y-115348386D01*
X107457753Y-114965363D01*
X107911437Y-114614324D01*
X108387751Y-114296395D01*
X108884821Y-114012704D01*
X109400770Y-113764378D01*
X109933724Y-113552543D01*
X110481806Y-113378326D01*
X111043143Y-113242856D01*
X111615858Y-113147259D01*
X111821923Y-113123086D01*
X111948105Y-113110638D01*
X112073244Y-113099550D01*
X112184798Y-113090853D01*
X112270226Y-113085576D01*
X112287250Y-113084870D01*
X112435417Y-113079750D01*
X112446000Y-109925916D01*
X112447401Y-109493644D01*
X112448625Y-109101704D01*
X112449760Y-108748092D01*
X112450897Y-108430808D01*
X112452125Y-108147850D01*
X112453533Y-107897216D01*
X112455212Y-107676905D01*
X112457251Y-107484916D01*
X112459739Y-107319245D01*
X112462767Y-107177893D01*
X112466425Y-107058856D01*
X112470800Y-106960134D01*
X112475985Y-106879726D01*
X112482067Y-106815628D01*
X112489138Y-106765840D01*
X112497286Y-106728360D01*
X112506601Y-106701187D01*
X112517173Y-106682319D01*
X112529091Y-106669753D01*
X112542446Y-106661489D01*
X112557327Y-106655526D01*
X112573823Y-106649860D01*
X112592024Y-106642491D01*
X112593130Y-106641971D01*
X112646984Y-106620952D01*
X112692617Y-106619884D01*
X112750159Y-106636686D01*
G37*
X112750159Y-106636686D02*
X112815961Y-106670859D01*
X112870763Y-106717101D01*
X112877999Y-106726006D01*
X112922250Y-106785763D01*
X112932833Y-109932756D01*
X112943417Y-113079750D01*
X113059833Y-113084600D01*
X113631839Y-113129373D01*
X114197037Y-113214992D01*
X114753265Y-113340248D01*
X115298360Y-113503933D01*
X115830160Y-113704838D01*
X116346503Y-113941754D01*
X116845226Y-114213472D01*
X117324168Y-114518784D01*
X117781166Y-114856481D01*
X118214057Y-115225354D01*
X118620680Y-115624194D01*
X118998873Y-116051793D01*
X119346472Y-116506941D01*
X119450019Y-116656916D01*
X119729536Y-117096174D01*
X119972428Y-117530968D01*
X120182510Y-117969358D01*
X120363593Y-118419406D01*
X120519492Y-118889170D01*
X120541594Y-118964083D01*
X120684926Y-119533251D01*
X120787037Y-120110284D01*
X120847802Y-120692892D01*
X120867097Y-121278783D01*
X120844797Y-121865666D01*
X120780778Y-122451248D01*
X120743666Y-122683428D01*
X120663529Y-123075237D01*
X120558363Y-123482054D01*
X120432670Y-123888557D01*
X120290951Y-124279423D01*
X120231988Y-124425083D01*
X120179430Y-124546060D01*
X120118358Y-124678849D01*
X120052057Y-124817062D01*
X119983813Y-124954306D01*
X119916910Y-125084193D01*
X119854632Y-125200332D01*
X119800264Y-125296333D01*
X119757092Y-125365805D01*
X119730790Y-125400103D01*
X119650049Y-125454017D01*
X119559451Y-125471465D01*
X119469563Y-125452876D01*
X119390953Y-125398680D01*
X119379359Y-125385822D01*
X119348864Y-125344199D01*
X119330510Y-125301678D01*
X119325547Y-125252908D01*
X119335228Y-125192538D01*
X119360805Y-125115216D01*
X119403530Y-125015589D01*
X119464655Y-124888307D01*
X119522860Y-124772397D01*
X119762902Y-124259579D01*
X119961713Y-123747334D01*
X120120181Y-123231982D01*
X120239194Y-122709844D01*
X120319640Y-122177239D01*
X120362408Y-121630488D01*
X120370425Y-121260666D01*
X120368870Y-121025794D01*
X120363454Y-120821356D01*
X120353279Y-120635557D01*
X120337451Y-120456603D01*
X120315072Y-120272698D01*
X120285246Y-120072047D01*
X120275532Y-120011833D01*
X120164646Y-119461886D01*
X120015153Y-118926708D01*
X119828614Y-118407835D01*
X119606586Y-117906808D01*
X119350630Y-117425163D01*
X119062304Y-116964439D01*
X118743167Y-116526175D01*
X118394779Y-116111909D01*
X118018699Y-115723179D01*
X117616485Y-115361524D01*
X117189696Y-115028481D01*
X116739893Y-114725590D01*
X116268633Y-114454388D01*
X115777476Y-114216414D01*
X115267981Y-114013206D01*
X114741707Y-113846302D01*
X114200213Y-113717241D01*
X113830767Y-113652870D01*
X113631090Y-113625245D01*
X113445927Y-113604642D01*
X113263187Y-113590245D01*
X113070780Y-113581240D01*
X112856613Y-113576814D01*
X112689417Y-113576004D01*
X112334688Y-113581536D01*
X112009252Y-113598914D01*
X111701432Y-113629310D01*
X111399555Y-113673896D01*
X111091946Y-113733844D01*
X111070167Y-113738587D01*
X110517097Y-113881179D01*
X109979317Y-114062651D01*
X109458636Y-114281817D01*
X108956862Y-114537485D01*
X108475803Y-114828469D01*
X108017267Y-115153579D01*
X107583062Y-115511626D01*
X107174996Y-115901422D01*
X106794879Y-116321777D01*
X106444517Y-116771503D01*
X106433285Y-116787107D01*
X106119582Y-117259918D01*
X105843183Y-117751721D01*
X105604716Y-118260460D01*
X105404809Y-118784078D01*
X105244091Y-119320517D01*
X105123188Y-119867721D01*
X105042729Y-120423633D01*
X105003342Y-120986197D01*
X105002755Y-121472333D01*
X105040152Y-122046485D01*
X105117118Y-122606135D01*
X105234102Y-123152954D01*
X105391550Y-123688612D01*
X105589911Y-124214781D01*
X105829631Y-124733132D01*
X105925685Y-124917296D01*
X105977638Y-125018909D01*
X106018698Y-125108897D01*
X106045225Y-125178721D01*
X106053667Y-125217543D01*
X106035626Y-125316146D01*
X105986809Y-125394539D01*
X105915171Y-125447854D01*
X105828671Y-125471224D01*
X105735263Y-125459783D01*
X105689692Y-125440162D01*
X105647294Y-125401664D01*
X105592829Y-125327953D01*
X105528495Y-125223674D01*
X105456490Y-125093472D01*
X105379012Y-124941992D01*
X105298259Y-124773879D01*
X105216428Y-124593777D01*
X105135719Y-124406331D01*
X105058329Y-124216187D01*
X104986456Y-124027988D01*
X104922298Y-123846380D01*
X104892627Y-123755816D01*
X104796908Y-123425498D01*
X104709610Y-123066526D01*
X104633564Y-122692210D01*
X104571602Y-122315858D01*
X104546468Y-122128500D01*
X104535954Y-122012957D01*
X104527972Y-121863040D01*
X104522473Y-121686630D01*
X104519409Y-121491607D01*
X104518732Y-121285852D01*
X104520393Y-121077246D01*
X104524346Y-120873669D01*
X104530540Y-120683002D01*
X104538929Y-120513126D01*
X104549464Y-120371921D01*
X104557658Y-120297583D01*
X104653340Y-119709397D01*
X104781886Y-119146311D01*
X104944354Y-118605492D01*
X105141799Y-118084104D01*
X105375279Y-117579315D01*
X105645849Y-117088291D01*
X105906828Y-116678083D01*
X106251237Y-116205873D01*
X106625777Y-115762265D01*
X107028575Y-115348386D01*
X107457753Y-114965363D01*
X107911437Y-114614324D01*
X108387751Y-114296395D01*
X108884821Y-114012704D01*
X109400770Y-113764378D01*
X109933724Y-113552543D01*
X110481806Y-113378326D01*
X111043143Y-113242856D01*
X111615858Y-113147259D01*
X111821923Y-113123086D01*
X111948105Y-113110638D01*
X112073244Y-113099550D01*
X112184798Y-113090853D01*
X112270226Y-113085576D01*
X112287250Y-113084870D01*
X112435417Y-113079750D01*
X112446000Y-109925916D01*
X112447401Y-109493644D01*
X112448625Y-109101704D01*
X112449760Y-108748092D01*
X112450897Y-108430808D01*
X112452125Y-108147850D01*
X112453533Y-107897216D01*
X112455212Y-107676905D01*
X112457251Y-107484916D01*
X112459739Y-107319245D01*
X112462767Y-107177893D01*
X112466425Y-107058856D01*
X112470800Y-106960134D01*
X112475985Y-106879726D01*
X112482067Y-106815628D01*
X112489138Y-106765840D01*
X112497286Y-106728360D01*
X112506601Y-106701187D01*
X112517173Y-106682319D01*
X112529091Y-106669753D01*
X112542446Y-106661489D01*
X112557327Y-106655526D01*
X112573823Y-106649860D01*
X112592024Y-106642491D01*
X112593130Y-106641971D01*
X112646984Y-106620952D01*
X112692617Y-106619884D01*
X112750159Y-106636686D01*
X112781976Y-125407740D02*
X112855427Y-125456251D01*
X112855427Y-125456251D02*
X112902751Y-125526475D01*
X112902751Y-125526475D02*
X112906160Y-125555649D01*
X112906160Y-125555649D02*
X112909389Y-125624949D01*
X112909389Y-125624949D02*
X112912437Y-125732168D01*
X112912437Y-125732168D02*
X112915306Y-125875100D01*
X112915306Y-125875100D02*
X112917993Y-126051538D01*
X112917993Y-126051538D02*
X112920500Y-126259276D01*
X112920500Y-126259276D02*
X112922826Y-126496106D01*
X112922826Y-126496106D02*
X112924971Y-126759822D01*
X112924971Y-126759822D02*
X112926935Y-127048217D01*
X112926935Y-127048217D02*
X112928717Y-127359085D01*
X112928717Y-127359085D02*
X112930319Y-127690219D01*
X112930319Y-127690219D02*
X112931739Y-128039412D01*
X112931739Y-128039412D02*
X112932977Y-128404457D01*
X112932977Y-128404457D02*
X112934034Y-128783149D01*
X112934034Y-128783149D02*
X112934909Y-129173279D01*
X112934909Y-129173279D02*
X112935602Y-129572642D01*
X112935602Y-129572642D02*
X112936113Y-129979030D01*
X112936113Y-129979030D02*
X112936442Y-130390238D01*
X112936442Y-130390238D02*
X112936589Y-130804057D01*
X112936589Y-130804057D02*
X112936553Y-131218283D01*
X112936553Y-131218283D02*
X112936335Y-131630707D01*
X112936335Y-131630707D02*
X112935934Y-132039124D01*
X112935934Y-132039124D02*
X112935351Y-132441326D01*
X112935351Y-132441326D02*
X112934584Y-132835107D01*
X112934584Y-132835107D02*
X112933635Y-133218261D01*
X112933635Y-133218261D02*
X112932503Y-133588579D01*
X112932503Y-133588579D02*
X112931187Y-133943857D01*
X112931187Y-133943857D02*
X112929689Y-134281886D01*
X112929689Y-134281886D02*
X112928006Y-134600461D01*
X112928006Y-134600461D02*
X112926141Y-134897375D01*
X112926141Y-134897375D02*
X112924091Y-135170421D01*
X112924091Y-135170421D02*
X112921858Y-135417392D01*
X112921858Y-135417392D02*
X112919441Y-135636081D01*
X112919441Y-135636081D02*
X112916840Y-135824283D01*
X112916840Y-135824283D02*
X112914055Y-135979790D01*
X112914055Y-135979790D02*
X112911085Y-136100395D01*
X112911085Y-136100395D02*
X112907931Y-136183892D01*
X112907931Y-136183892D02*
X112904593Y-136228074D01*
X112904593Y-136228074D02*
X112903319Y-136233996D01*
X112903319Y-136233996D02*
X112850243Y-136312814D01*
X112850243Y-136312814D02*
X112775456Y-136361145D01*
X112775456Y-136361145D02*
X112688541Y-136377013D01*
X112688541Y-136377013D02*
X112599081Y-136358441D01*
X112599081Y-136358441D02*
X112525709Y-136311902D01*
X112525709Y-136311902D02*
X112456583Y-136250139D01*
X112456583Y-136250139D02*
X112456583Y-125511694D01*
X112456583Y-125511694D02*
X112525709Y-125449930D01*
X112525709Y-125449930D02*
X112606468Y-125402417D01*
X112606468Y-125402417D02*
X112695440Y-125389075D01*
X112695440Y-125389075D02*
X112781976Y-125407740D01*
X112781976Y-125407740D02*
X112781976Y-125407740D01*
G36*
X112781976Y-125407740D02*
G01*
X112855427Y-125456251D01*
X112902751Y-125526475D01*
X112906160Y-125555649D01*
X112909389Y-125624949D01*
X112912437Y-125732168D01*
X112915306Y-125875100D01*
X112917993Y-126051538D01*
X112920500Y-126259276D01*
X112922826Y-126496106D01*
X112924971Y-126759822D01*
X112926935Y-127048217D01*
X112928717Y-127359085D01*
X112930319Y-127690219D01*
X112931739Y-128039412D01*
X112932977Y-128404457D01*
X112934034Y-128783149D01*
X112934909Y-129173279D01*
X112935602Y-129572642D01*
X112936113Y-129979030D01*
X112936442Y-130390238D01*
X112936589Y-130804057D01*
X112936553Y-131218283D01*
X112936335Y-131630707D01*
X112935934Y-132039124D01*
X112935351Y-132441326D01*
X112934584Y-132835107D01*
X112933635Y-133218261D01*
X112932503Y-133588579D01*
X112931187Y-133943857D01*
X112929689Y-134281886D01*
X112928006Y-134600461D01*
X112926141Y-134897375D01*
X112924091Y-135170421D01*
X112921858Y-135417392D01*
X112919441Y-135636081D01*
X112916840Y-135824283D01*
X112914055Y-135979790D01*
X112911085Y-136100395D01*
X112907931Y-136183892D01*
X112904593Y-136228074D01*
X112903319Y-136233996D01*
X112850243Y-136312814D01*
X112775456Y-136361145D01*
X112688541Y-136377013D01*
X112599081Y-136358441D01*
X112525709Y-136311902D01*
X112456583Y-136250139D01*
X112456583Y-125511694D01*
X112525709Y-125449930D01*
X112606468Y-125402417D01*
X112695440Y-125389075D01*
X112781976Y-125407740D01*
G37*
X112781976Y-125407740D02*
X112855427Y-125456251D01*
X112902751Y-125526475D01*
X112906160Y-125555649D01*
X112909389Y-125624949D01*
X112912437Y-125732168D01*
X112915306Y-125875100D01*
X112917993Y-126051538D01*
X112920500Y-126259276D01*
X112922826Y-126496106D01*
X112924971Y-126759822D01*
X112926935Y-127048217D01*
X112928717Y-127359085D01*
X112930319Y-127690219D01*
X112931739Y-128039412D01*
X112932977Y-128404457D01*
X112934034Y-128783149D01*
X112934909Y-129173279D01*
X112935602Y-129572642D01*
X112936113Y-129979030D01*
X112936442Y-130390238D01*
X112936589Y-130804057D01*
X112936553Y-131218283D01*
X112936335Y-131630707D01*
X112935934Y-132039124D01*
X112935351Y-132441326D01*
X112934584Y-132835107D01*
X112933635Y-133218261D01*
X112932503Y-133588579D01*
X112931187Y-133943857D01*
X112929689Y-134281886D01*
X112928006Y-134600461D01*
X112926141Y-134897375D01*
X112924091Y-135170421D01*
X112921858Y-135417392D01*
X112919441Y-135636081D01*
X112916840Y-135824283D01*
X112914055Y-135979790D01*
X112911085Y-136100395D01*
X112907931Y-136183892D01*
X112904593Y-136228074D01*
X112903319Y-136233996D01*
X112850243Y-136312814D01*
X112775456Y-136361145D01*
X112688541Y-136377013D01*
X112599081Y-136358441D01*
X112525709Y-136311902D01*
X112456583Y-136250139D01*
X112456583Y-125511694D01*
X112525709Y-125449930D01*
X112606468Y-125402417D01*
X112695440Y-125389075D01*
X112781976Y-125407740D01*
X87364839Y-125394683D02*
X87416266Y-125420319D01*
X87416266Y-125420319D02*
X87460867Y-125460133D01*
X87460867Y-125460133D02*
X87532833Y-125532100D01*
X87532833Y-125532100D02*
X87532833Y-130867220D01*
X87532833Y-130867220D02*
X87532788Y-131458616D01*
X87532788Y-131458616D02*
X87532650Y-132008886D01*
X87532650Y-132008886D02*
X87532411Y-132519238D01*
X87532411Y-132519238D02*
X87532068Y-132990878D01*
X87532068Y-132990878D02*
X87531615Y-133425014D01*
X87531615Y-133425014D02*
X87531044Y-133822853D01*
X87531044Y-133822853D02*
X87530352Y-134185603D01*
X87530352Y-134185603D02*
X87529532Y-134514471D01*
X87529532Y-134514471D02*
X87528579Y-134810665D01*
X87528579Y-134810665D02*
X87527487Y-135075390D01*
X87527487Y-135075390D02*
X87526250Y-135309856D01*
X87526250Y-135309856D02*
X87524862Y-135515269D01*
X87524862Y-135515269D02*
X87523319Y-135692836D01*
X87523319Y-135692836D02*
X87521614Y-135843765D01*
X87521614Y-135843765D02*
X87519742Y-135969264D01*
X87519742Y-135969264D02*
X87517696Y-136070538D01*
X87517696Y-136070538D02*
X87515472Y-136148797D01*
X87515472Y-136148797D02*
X87513064Y-136205246D01*
X87513064Y-136205246D02*
X87510466Y-136241094D01*
X87510466Y-136241094D02*
X87507671Y-136257547D01*
X87507671Y-136257547D02*
X87507546Y-136257841D01*
X87507546Y-136257841D02*
X87458367Y-136318842D01*
X87458367Y-136318842D02*
X87383736Y-136358264D01*
X87383736Y-136358264D02*
X87296389Y-136372798D01*
X87296389Y-136372798D02*
X87209061Y-136359137D01*
X87209061Y-136359137D02*
X87175330Y-136344128D01*
X87175330Y-136344128D02*
X87164173Y-136338851D01*
X87164173Y-136338851D02*
X87153819Y-136334820D01*
X87153819Y-136334820D02*
X87144240Y-136330499D01*
X87144240Y-136330499D02*
X87135404Y-136324351D01*
X87135404Y-136324351D02*
X87127282Y-136314840D01*
X87127282Y-136314840D02*
X87119843Y-136300428D01*
X87119843Y-136300428D02*
X87113057Y-136279579D01*
X87113057Y-136279579D02*
X87106894Y-136250757D01*
X87106894Y-136250757D02*
X87101324Y-136212424D01*
X87101324Y-136212424D02*
X87096317Y-136163045D01*
X87096317Y-136163045D02*
X87091842Y-136101082D01*
X87091842Y-136101082D02*
X87087869Y-136024998D01*
X87087869Y-136024998D02*
X87084368Y-135933258D01*
X87084368Y-135933258D02*
X87081309Y-135824325D01*
X87081309Y-135824325D02*
X87078662Y-135696661D01*
X87078662Y-135696661D02*
X87076397Y-135548730D01*
X87076397Y-135548730D02*
X87074483Y-135378996D01*
X87074483Y-135378996D02*
X87072890Y-135185922D01*
X87072890Y-135185922D02*
X87071589Y-134967972D01*
X87071589Y-134967972D02*
X87070548Y-134723607D01*
X87070548Y-134723607D02*
X87069738Y-134451293D01*
X87069738Y-134451293D02*
X87069128Y-134149492D01*
X87069128Y-134149492D02*
X87068689Y-133816668D01*
X87068689Y-133816668D02*
X87068390Y-133451284D01*
X87068390Y-133451284D02*
X87068202Y-133051803D01*
X87068202Y-133051803D02*
X87068093Y-132616689D01*
X87068093Y-132616689D02*
X87068033Y-132144405D01*
X87068033Y-132144405D02*
X87067994Y-131633414D01*
X87067994Y-131633414D02*
X87067943Y-131082180D01*
X87067943Y-131082180D02*
X87067917Y-130873508D01*
X87067917Y-130873508D02*
X87067167Y-125532100D01*
X87067167Y-125532100D02*
X87139133Y-125460133D01*
X87139133Y-125460133D02*
X87194397Y-125412919D01*
X87194397Y-125412919D02*
X87246943Y-125392041D01*
X87246943Y-125392041D02*
X87300000Y-125388166D01*
X87300000Y-125388166D02*
X87364839Y-125394683D01*
X87364839Y-125394683D02*
X87364839Y-125394683D01*
G36*
X87364839Y-125394683D02*
G01*
X87416266Y-125420319D01*
X87460867Y-125460133D01*
X87532833Y-125532100D01*
X87532833Y-130867220D01*
X87532788Y-131458616D01*
X87532650Y-132008886D01*
X87532411Y-132519238D01*
X87532068Y-132990878D01*
X87531615Y-133425014D01*
X87531044Y-133822853D01*
X87530352Y-134185603D01*
X87529532Y-134514471D01*
X87528579Y-134810665D01*
X87527487Y-135075390D01*
X87526250Y-135309856D01*
X87524862Y-135515269D01*
X87523319Y-135692836D01*
X87521614Y-135843765D01*
X87519742Y-135969264D01*
X87517696Y-136070538D01*
X87515472Y-136148797D01*
X87513064Y-136205246D01*
X87510466Y-136241094D01*
X87507671Y-136257547D01*
X87507546Y-136257841D01*
X87458367Y-136318842D01*
X87383736Y-136358264D01*
X87296389Y-136372798D01*
X87209061Y-136359137D01*
X87175330Y-136344128D01*
X87164173Y-136338851D01*
X87153819Y-136334820D01*
X87144240Y-136330499D01*
X87135404Y-136324351D01*
X87127282Y-136314840D01*
X87119843Y-136300428D01*
X87113057Y-136279579D01*
X87106894Y-136250757D01*
X87101324Y-136212424D01*
X87096317Y-136163045D01*
X87091842Y-136101082D01*
X87087869Y-136024998D01*
X87084368Y-135933258D01*
X87081309Y-135824325D01*
X87078662Y-135696661D01*
X87076397Y-135548730D01*
X87074483Y-135378996D01*
X87072890Y-135185922D01*
X87071589Y-134967972D01*
X87070548Y-134723607D01*
X87069738Y-134451293D01*
X87069128Y-134149492D01*
X87068689Y-133816668D01*
X87068390Y-133451284D01*
X87068202Y-133051803D01*
X87068093Y-132616689D01*
X87068033Y-132144405D01*
X87067994Y-131633414D01*
X87067943Y-131082180D01*
X87067917Y-130873508D01*
X87067167Y-125532100D01*
X87139133Y-125460133D01*
X87194397Y-125412919D01*
X87246943Y-125392041D01*
X87300000Y-125388166D01*
X87364839Y-125394683D01*
G37*
X87364839Y-125394683D02*
X87416266Y-125420319D01*
X87460867Y-125460133D01*
X87532833Y-125532100D01*
X87532833Y-130867220D01*
X87532788Y-131458616D01*
X87532650Y-132008886D01*
X87532411Y-132519238D01*
X87532068Y-132990878D01*
X87531615Y-133425014D01*
X87531044Y-133822853D01*
X87530352Y-134185603D01*
X87529532Y-134514471D01*
X87528579Y-134810665D01*
X87527487Y-135075390D01*
X87526250Y-135309856D01*
X87524862Y-135515269D01*
X87523319Y-135692836D01*
X87521614Y-135843765D01*
X87519742Y-135969264D01*
X87517696Y-136070538D01*
X87515472Y-136148797D01*
X87513064Y-136205246D01*
X87510466Y-136241094D01*
X87507671Y-136257547D01*
X87507546Y-136257841D01*
X87458367Y-136318842D01*
X87383736Y-136358264D01*
X87296389Y-136372798D01*
X87209061Y-136359137D01*
X87175330Y-136344128D01*
X87164173Y-136338851D01*
X87153819Y-136334820D01*
X87144240Y-136330499D01*
X87135404Y-136324351D01*
X87127282Y-136314840D01*
X87119843Y-136300428D01*
X87113057Y-136279579D01*
X87106894Y-136250757D01*
X87101324Y-136212424D01*
X87096317Y-136163045D01*
X87091842Y-136101082D01*
X87087869Y-136024998D01*
X87084368Y-135933258D01*
X87081309Y-135824325D01*
X87078662Y-135696661D01*
X87076397Y-135548730D01*
X87074483Y-135378996D01*
X87072890Y-135185922D01*
X87071589Y-134967972D01*
X87070548Y-134723607D01*
X87069738Y-134451293D01*
X87069128Y-134149492D01*
X87068689Y-133816668D01*
X87068390Y-133451284D01*
X87068202Y-133051803D01*
X87068093Y-132616689D01*
X87068033Y-132144405D01*
X87067994Y-131633414D01*
X87067943Y-131082180D01*
X87067917Y-130873508D01*
X87067167Y-125532100D01*
X87139133Y-125460133D01*
X87194397Y-125412919D01*
X87246943Y-125392041D01*
X87300000Y-125388166D01*
X87364839Y-125394683D01*
%TD*%
D11*
%TO.C,Ref\u002A\u002A*%
X87476000Y-194500000D03*
X87476000Y-25500000D03*
X112524000Y-194500000D03*
X112524000Y-25500000D03*
%TD*%
M02*
