%TF.GenerationSoftware,KiCad,Pcbnew,(6.0.6-0)*%
%TF.CreationDate,2022-09-03T01:28:16+01:00*%
%TF.ProjectId,4u-variable-integrator,34752d76-6172-4696-9162-6c652d696e74,r02*%
%TF.SameCoordinates,Original*%
%TF.FileFunction,Legend,Top*%
%TF.FilePolarity,Positive*%
%FSLAX46Y46*%
G04 Gerber Fmt 4.6, Leading zero omitted, Abs format (unit mm)*
G04 Created by KiCad (PCBNEW (6.0.6-0)) date 2022-09-03 01:28:16*
%MOMM*%
%LPD*%
G01*
G04 APERTURE LIST*
%ADD10C,0.150000*%
%ADD11C,0.120000*%
%ADD12C,0.010000*%
G04 APERTURE END LIST*
D10*
X137168809Y-147872380D02*
X137502142Y-148872380D01*
X137835476Y-147872380D01*
X138597380Y-148872380D02*
X138597380Y-148348571D01*
X138549761Y-148253333D01*
X138454523Y-148205714D01*
X138264047Y-148205714D01*
X138168809Y-148253333D01*
X138597380Y-148824761D02*
X138502142Y-148872380D01*
X138264047Y-148872380D01*
X138168809Y-148824761D01*
X138121190Y-148729523D01*
X138121190Y-148634285D01*
X138168809Y-148539047D01*
X138264047Y-148491428D01*
X138502142Y-148491428D01*
X138597380Y-148443809D01*
X139073571Y-148872380D02*
X139073571Y-148205714D01*
X139073571Y-148396190D02*
X139121190Y-148300952D01*
X139168809Y-148253333D01*
X139264047Y-148205714D01*
X139359285Y-148205714D01*
X139692619Y-148872380D02*
X139692619Y-148205714D01*
X139692619Y-147872380D02*
X139645000Y-147920000D01*
X139692619Y-147967619D01*
X139740238Y-147920000D01*
X139692619Y-147872380D01*
X139692619Y-147967619D01*
X140597380Y-148872380D02*
X140597380Y-148348571D01*
X140549761Y-148253333D01*
X140454523Y-148205714D01*
X140264047Y-148205714D01*
X140168809Y-148253333D01*
X140597380Y-148824761D02*
X140502142Y-148872380D01*
X140264047Y-148872380D01*
X140168809Y-148824761D01*
X140121190Y-148729523D01*
X140121190Y-148634285D01*
X140168809Y-148539047D01*
X140264047Y-148491428D01*
X140502142Y-148491428D01*
X140597380Y-148443809D01*
X141073571Y-148872380D02*
X141073571Y-147872380D01*
X141073571Y-148253333D02*
X141168809Y-148205714D01*
X141359285Y-148205714D01*
X141454523Y-148253333D01*
X141502142Y-148300952D01*
X141549761Y-148396190D01*
X141549761Y-148681904D01*
X141502142Y-148777142D01*
X141454523Y-148824761D01*
X141359285Y-148872380D01*
X141168809Y-148872380D01*
X141073571Y-148824761D01*
X142121190Y-148872380D02*
X142025952Y-148824761D01*
X141978333Y-148729523D01*
X141978333Y-147872380D01*
X142883095Y-148824761D02*
X142787857Y-148872380D01*
X142597380Y-148872380D01*
X142502142Y-148824761D01*
X142454523Y-148729523D01*
X142454523Y-148348571D01*
X142502142Y-148253333D01*
X142597380Y-148205714D01*
X142787857Y-148205714D01*
X142883095Y-148253333D01*
X142930714Y-148348571D01*
X142930714Y-148443809D01*
X142454523Y-148539047D01*
X144121190Y-148872380D02*
X144121190Y-147872380D01*
X144597380Y-148205714D02*
X144597380Y-148872380D01*
X144597380Y-148300952D02*
X144645000Y-148253333D01*
X144740238Y-148205714D01*
X144883095Y-148205714D01*
X144978333Y-148253333D01*
X145025952Y-148348571D01*
X145025952Y-148872380D01*
X145359285Y-148205714D02*
X145740238Y-148205714D01*
X145502142Y-147872380D02*
X145502142Y-148729523D01*
X145549761Y-148824761D01*
X145645000Y-148872380D01*
X145740238Y-148872380D01*
X146454523Y-148824761D02*
X146359285Y-148872380D01*
X146168809Y-148872380D01*
X146073571Y-148824761D01*
X146025952Y-148729523D01*
X146025952Y-148348571D01*
X146073571Y-148253333D01*
X146168809Y-148205714D01*
X146359285Y-148205714D01*
X146454523Y-148253333D01*
X146502142Y-148348571D01*
X146502142Y-148443809D01*
X146025952Y-148539047D01*
X147359285Y-148205714D02*
X147359285Y-149015238D01*
X147311666Y-149110476D01*
X147264047Y-149158095D01*
X147168809Y-149205714D01*
X147025952Y-149205714D01*
X146930714Y-149158095D01*
X147359285Y-148824761D02*
X147264047Y-148872380D01*
X147073571Y-148872380D01*
X146978333Y-148824761D01*
X146930714Y-148777142D01*
X146883095Y-148681904D01*
X146883095Y-148396190D01*
X146930714Y-148300952D01*
X146978333Y-148253333D01*
X147073571Y-148205714D01*
X147264047Y-148205714D01*
X147359285Y-148253333D01*
X147835476Y-148872380D02*
X147835476Y-148205714D01*
X147835476Y-148396190D02*
X147883095Y-148300952D01*
X147930714Y-148253333D01*
X148025952Y-148205714D01*
X148121190Y-148205714D01*
X148883095Y-148872380D02*
X148883095Y-148348571D01*
X148835476Y-148253333D01*
X148740238Y-148205714D01*
X148549761Y-148205714D01*
X148454523Y-148253333D01*
X148883095Y-148824761D02*
X148787857Y-148872380D01*
X148549761Y-148872380D01*
X148454523Y-148824761D01*
X148406904Y-148729523D01*
X148406904Y-148634285D01*
X148454523Y-148539047D01*
X148549761Y-148491428D01*
X148787857Y-148491428D01*
X148883095Y-148443809D01*
X149216428Y-148205714D02*
X149597380Y-148205714D01*
X149359285Y-147872380D02*
X149359285Y-148729523D01*
X149406904Y-148824761D01*
X149502142Y-148872380D01*
X149597380Y-148872380D01*
X150073571Y-148872380D02*
X149978333Y-148824761D01*
X149930714Y-148777142D01*
X149883095Y-148681904D01*
X149883095Y-148396190D01*
X149930714Y-148300952D01*
X149978333Y-148253333D01*
X150073571Y-148205714D01*
X150216428Y-148205714D01*
X150311666Y-148253333D01*
X150359285Y-148300952D01*
X150406904Y-148396190D01*
X150406904Y-148681904D01*
X150359285Y-148777142D01*
X150311666Y-148824761D01*
X150216428Y-148872380D01*
X150073571Y-148872380D01*
X150835476Y-148872380D02*
X150835476Y-148205714D01*
X150835476Y-148396190D02*
X150883095Y-148300952D01*
X150930714Y-148253333D01*
X151025952Y-148205714D01*
X151121190Y-148205714D01*
X140145000Y-150482380D02*
X140145000Y-149815714D01*
X140145000Y-150006190D02*
X140192619Y-149910952D01*
X140240238Y-149863333D01*
X140335476Y-149815714D01*
X140430714Y-149815714D01*
X141145000Y-150434761D02*
X141049761Y-150482380D01*
X140859285Y-150482380D01*
X140764047Y-150434761D01*
X140716428Y-150339523D01*
X140716428Y-149958571D01*
X140764047Y-149863333D01*
X140859285Y-149815714D01*
X141049761Y-149815714D01*
X141145000Y-149863333D01*
X141192619Y-149958571D01*
X141192619Y-150053809D01*
X140716428Y-150149047D01*
X141525952Y-149815714D02*
X141764047Y-150482380D01*
X142002142Y-149815714D01*
X142383095Y-150482380D02*
X142383095Y-149815714D01*
X142383095Y-149482380D02*
X142335476Y-149530000D01*
X142383095Y-149577619D01*
X142430714Y-149530000D01*
X142383095Y-149482380D01*
X142383095Y-149577619D01*
X142811666Y-150434761D02*
X142906904Y-150482380D01*
X143097380Y-150482380D01*
X143192619Y-150434761D01*
X143240238Y-150339523D01*
X143240238Y-150291904D01*
X143192619Y-150196666D01*
X143097380Y-150149047D01*
X142954523Y-150149047D01*
X142859285Y-150101428D01*
X142811666Y-150006190D01*
X142811666Y-149958571D01*
X142859285Y-149863333D01*
X142954523Y-149815714D01*
X143097380Y-149815714D01*
X143192619Y-149863333D01*
X143668809Y-150482380D02*
X143668809Y-149815714D01*
X143668809Y-149482380D02*
X143621190Y-149530000D01*
X143668809Y-149577619D01*
X143716428Y-149530000D01*
X143668809Y-149482380D01*
X143668809Y-149577619D01*
X144287857Y-150482380D02*
X144192619Y-150434761D01*
X144145000Y-150387142D01*
X144097380Y-150291904D01*
X144097380Y-150006190D01*
X144145000Y-149910952D01*
X144192619Y-149863333D01*
X144287857Y-149815714D01*
X144430714Y-149815714D01*
X144525952Y-149863333D01*
X144573571Y-149910952D01*
X144621190Y-150006190D01*
X144621190Y-150291904D01*
X144573571Y-150387142D01*
X144525952Y-150434761D01*
X144430714Y-150482380D01*
X144287857Y-150482380D01*
X145049761Y-149815714D02*
X145049761Y-150482380D01*
X145049761Y-149910952D02*
X145097380Y-149863333D01*
X145192619Y-149815714D01*
X145335476Y-149815714D01*
X145430714Y-149863333D01*
X145478333Y-149958571D01*
X145478333Y-150482380D01*
X146906904Y-149482380D02*
X147002142Y-149482380D01*
X147097380Y-149530000D01*
X147145000Y-149577619D01*
X147192619Y-149672857D01*
X147240238Y-149863333D01*
X147240238Y-150101428D01*
X147192619Y-150291904D01*
X147145000Y-150387142D01*
X147097380Y-150434761D01*
X147002142Y-150482380D01*
X146906904Y-150482380D01*
X146811666Y-150434761D01*
X146764047Y-150387142D01*
X146716428Y-150291904D01*
X146668809Y-150101428D01*
X146668809Y-149863333D01*
X146716428Y-149672857D01*
X146764047Y-149577619D01*
X146811666Y-149530000D01*
X146906904Y-149482380D01*
X147621190Y-149577619D02*
X147668809Y-149530000D01*
X147764047Y-149482380D01*
X148002142Y-149482380D01*
X148097380Y-149530000D01*
X148145000Y-149577619D01*
X148192619Y-149672857D01*
X148192619Y-149768095D01*
X148145000Y-149910952D01*
X147573571Y-150482380D01*
X148192619Y-150482380D01*
%TO.C,R21*%
X120769142Y-155392380D02*
X120435809Y-154916190D01*
X120197714Y-155392380D02*
X120197714Y-154392380D01*
X120578666Y-154392380D01*
X120673904Y-154440000D01*
X120721523Y-154487619D01*
X120769142Y-154582857D01*
X120769142Y-154725714D01*
X120721523Y-154820952D01*
X120673904Y-154868571D01*
X120578666Y-154916190D01*
X120197714Y-154916190D01*
X121150095Y-154487619D02*
X121197714Y-154440000D01*
X121292952Y-154392380D01*
X121531047Y-154392380D01*
X121626285Y-154440000D01*
X121673904Y-154487619D01*
X121721523Y-154582857D01*
X121721523Y-154678095D01*
X121673904Y-154820952D01*
X121102476Y-155392380D01*
X121721523Y-155392380D01*
X122673904Y-155392380D02*
X122102476Y-155392380D01*
X122388190Y-155392380D02*
X122388190Y-154392380D01*
X122292952Y-154535238D01*
X122197714Y-154630476D01*
X122102476Y-154678095D01*
%TO.C,Q2*%
X153963619Y-93059238D02*
X153916000Y-93154476D01*
X153820761Y-93249714D01*
X153677904Y-93392571D01*
X153630285Y-93487809D01*
X153630285Y-93583047D01*
X153868380Y-93535428D02*
X153820761Y-93630666D01*
X153725523Y-93725904D01*
X153535047Y-93773523D01*
X153201714Y-93773523D01*
X153011238Y-93725904D01*
X152916000Y-93630666D01*
X152868380Y-93535428D01*
X152868380Y-93344952D01*
X152916000Y-93249714D01*
X153011238Y-93154476D01*
X153201714Y-93106857D01*
X153535047Y-93106857D01*
X153725523Y-93154476D01*
X153820761Y-93249714D01*
X153868380Y-93344952D01*
X153868380Y-93535428D01*
X152963619Y-92725904D02*
X152916000Y-92678285D01*
X152868380Y-92583047D01*
X152868380Y-92344952D01*
X152916000Y-92249714D01*
X152963619Y-92202095D01*
X153058857Y-92154476D01*
X153154095Y-92154476D01*
X153296952Y-92202095D01*
X153868380Y-92773523D01*
X153868380Y-92154476D01*
%TO.C,C5*%
X123571333Y-58523142D02*
X123523714Y-58570761D01*
X123380857Y-58618380D01*
X123285619Y-58618380D01*
X123142761Y-58570761D01*
X123047523Y-58475523D01*
X122999904Y-58380285D01*
X122952285Y-58189809D01*
X122952285Y-58046952D01*
X122999904Y-57856476D01*
X123047523Y-57761238D01*
X123142761Y-57666000D01*
X123285619Y-57618380D01*
X123380857Y-57618380D01*
X123523714Y-57666000D01*
X123571333Y-57713619D01*
X124476095Y-57618380D02*
X123999904Y-57618380D01*
X123952285Y-58094571D01*
X123999904Y-58046952D01*
X124095142Y-57999333D01*
X124333238Y-57999333D01*
X124428476Y-58046952D01*
X124476095Y-58094571D01*
X124523714Y-58189809D01*
X124523714Y-58427904D01*
X124476095Y-58523142D01*
X124428476Y-58570761D01*
X124333238Y-58618380D01*
X124095142Y-58618380D01*
X123999904Y-58570761D01*
X123952285Y-58523142D01*
%TO.C,R22*%
X144645142Y-170632380D02*
X144311809Y-170156190D01*
X144073714Y-170632380D02*
X144073714Y-169632380D01*
X144454666Y-169632380D01*
X144549904Y-169680000D01*
X144597523Y-169727619D01*
X144645142Y-169822857D01*
X144645142Y-169965714D01*
X144597523Y-170060952D01*
X144549904Y-170108571D01*
X144454666Y-170156190D01*
X144073714Y-170156190D01*
X145026095Y-169727619D02*
X145073714Y-169680000D01*
X145168952Y-169632380D01*
X145407047Y-169632380D01*
X145502285Y-169680000D01*
X145549904Y-169727619D01*
X145597523Y-169822857D01*
X145597523Y-169918095D01*
X145549904Y-170060952D01*
X144978476Y-170632380D01*
X145597523Y-170632380D01*
X145978476Y-169727619D02*
X146026095Y-169680000D01*
X146121333Y-169632380D01*
X146359428Y-169632380D01*
X146454666Y-169680000D01*
X146502285Y-169727619D01*
X146549904Y-169822857D01*
X146549904Y-169918095D01*
X146502285Y-170060952D01*
X145930857Y-170632380D01*
X146549904Y-170632380D01*
%TO.C,R11*%
X144645142Y-70048380D02*
X144311809Y-69572190D01*
X144073714Y-70048380D02*
X144073714Y-69048380D01*
X144454666Y-69048380D01*
X144549904Y-69096000D01*
X144597523Y-69143619D01*
X144645142Y-69238857D01*
X144645142Y-69381714D01*
X144597523Y-69476952D01*
X144549904Y-69524571D01*
X144454666Y-69572190D01*
X144073714Y-69572190D01*
X145597523Y-70048380D02*
X145026095Y-70048380D01*
X145311809Y-70048380D02*
X145311809Y-69048380D01*
X145216571Y-69191238D01*
X145121333Y-69286476D01*
X145026095Y-69334095D01*
X146549904Y-70048380D02*
X145978476Y-70048380D01*
X146264190Y-70048380D02*
X146264190Y-69048380D01*
X146168952Y-69191238D01*
X146073714Y-69286476D01*
X145978476Y-69334095D01*
%TO.C,J20*%
X88582380Y-182419523D02*
X89296666Y-182419523D01*
X89439523Y-182467142D01*
X89534761Y-182562380D01*
X89582380Y-182705238D01*
X89582380Y-182800476D01*
X88677619Y-181990952D02*
X88630000Y-181943333D01*
X88582380Y-181848095D01*
X88582380Y-181610000D01*
X88630000Y-181514761D01*
X88677619Y-181467142D01*
X88772857Y-181419523D01*
X88868095Y-181419523D01*
X89010952Y-181467142D01*
X89582380Y-182038571D01*
X89582380Y-181419523D01*
X88582380Y-180800476D02*
X88582380Y-180705238D01*
X88630000Y-180610000D01*
X88677619Y-180562380D01*
X88772857Y-180514761D01*
X88963333Y-180467142D01*
X89201428Y-180467142D01*
X89391904Y-180514761D01*
X89487142Y-180562380D01*
X89534761Y-180610000D01*
X89582380Y-180705238D01*
X89582380Y-180800476D01*
X89534761Y-180895714D01*
X89487142Y-180943333D01*
X89391904Y-180990952D01*
X89201428Y-181038571D01*
X88963333Y-181038571D01*
X88772857Y-180990952D01*
X88677619Y-180943333D01*
X88630000Y-180895714D01*
X88582380Y-180800476D01*
%TO.C,D5*%
X118743504Y-142946380D02*
X118743504Y-141946380D01*
X118981600Y-141946380D01*
X119124457Y-141994000D01*
X119219695Y-142089238D01*
X119267314Y-142184476D01*
X119314933Y-142374952D01*
X119314933Y-142517809D01*
X119267314Y-142708285D01*
X119219695Y-142803523D01*
X119124457Y-142898761D01*
X118981600Y-142946380D01*
X118743504Y-142946380D01*
X120219695Y-141946380D02*
X119743504Y-141946380D01*
X119695885Y-142422571D01*
X119743504Y-142374952D01*
X119838742Y-142327333D01*
X120076838Y-142327333D01*
X120172076Y-142374952D01*
X120219695Y-142422571D01*
X120267314Y-142517809D01*
X120267314Y-142755904D01*
X120219695Y-142851142D01*
X120172076Y-142898761D01*
X120076838Y-142946380D01*
X119838742Y-142946380D01*
X119743504Y-142898761D01*
X119695885Y-142851142D01*
%TO.C,R8*%
X121245333Y-73096380D02*
X120912000Y-72620190D01*
X120673904Y-73096380D02*
X120673904Y-72096380D01*
X121054857Y-72096380D01*
X121150095Y-72144000D01*
X121197714Y-72191619D01*
X121245333Y-72286857D01*
X121245333Y-72429714D01*
X121197714Y-72524952D01*
X121150095Y-72572571D01*
X121054857Y-72620190D01*
X120673904Y-72620190D01*
X121816761Y-72524952D02*
X121721523Y-72477333D01*
X121673904Y-72429714D01*
X121626285Y-72334476D01*
X121626285Y-72286857D01*
X121673904Y-72191619D01*
X121721523Y-72144000D01*
X121816761Y-72096380D01*
X122007238Y-72096380D01*
X122102476Y-72144000D01*
X122150095Y-72191619D01*
X122197714Y-72286857D01*
X122197714Y-72334476D01*
X122150095Y-72429714D01*
X122102476Y-72477333D01*
X122007238Y-72524952D01*
X121816761Y-72524952D01*
X121721523Y-72572571D01*
X121673904Y-72620190D01*
X121626285Y-72715428D01*
X121626285Y-72905904D01*
X121673904Y-73001142D01*
X121721523Y-73048761D01*
X121816761Y-73096380D01*
X122007238Y-73096380D01*
X122102476Y-73048761D01*
X122150095Y-73001142D01*
X122197714Y-72905904D01*
X122197714Y-72715428D01*
X122150095Y-72620190D01*
X122102476Y-72572571D01*
X122007238Y-72524952D01*
%TO.C,U2*%
X132578095Y-74680380D02*
X132578095Y-75489904D01*
X132625714Y-75585142D01*
X132673333Y-75632761D01*
X132768571Y-75680380D01*
X132959047Y-75680380D01*
X133054285Y-75632761D01*
X133101904Y-75585142D01*
X133149523Y-75489904D01*
X133149523Y-74680380D01*
X133578095Y-74775619D02*
X133625714Y-74728000D01*
X133720952Y-74680380D01*
X133959047Y-74680380D01*
X134054285Y-74728000D01*
X134101904Y-74775619D01*
X134149523Y-74870857D01*
X134149523Y-74966095D01*
X134101904Y-75108952D01*
X133530476Y-75680380D01*
X134149523Y-75680380D01*
%TO.C,J14*%
X103330476Y-142176380D02*
X103330476Y-142890666D01*
X103282857Y-143033523D01*
X103187619Y-143128761D01*
X103044761Y-143176380D01*
X102949523Y-143176380D01*
X104330476Y-143176380D02*
X103759047Y-143176380D01*
X104044761Y-143176380D02*
X104044761Y-142176380D01*
X103949523Y-142319238D01*
X103854285Y-142414476D01*
X103759047Y-142462095D01*
X105187619Y-142509714D02*
X105187619Y-143176380D01*
X104949523Y-142128761D02*
X104711428Y-142843047D01*
X105330476Y-142843047D01*
%TO.C,R6*%
X121245333Y-63952380D02*
X120912000Y-63476190D01*
X120673904Y-63952380D02*
X120673904Y-62952380D01*
X121054857Y-62952380D01*
X121150095Y-63000000D01*
X121197714Y-63047619D01*
X121245333Y-63142857D01*
X121245333Y-63285714D01*
X121197714Y-63380952D01*
X121150095Y-63428571D01*
X121054857Y-63476190D01*
X120673904Y-63476190D01*
X122102476Y-62952380D02*
X121912000Y-62952380D01*
X121816761Y-63000000D01*
X121769142Y-63047619D01*
X121673904Y-63190476D01*
X121626285Y-63380952D01*
X121626285Y-63761904D01*
X121673904Y-63857142D01*
X121721523Y-63904761D01*
X121816761Y-63952380D01*
X122007238Y-63952380D01*
X122102476Y-63904761D01*
X122150095Y-63857142D01*
X122197714Y-63761904D01*
X122197714Y-63523809D01*
X122150095Y-63428571D01*
X122102476Y-63380952D01*
X122007238Y-63333333D01*
X121816761Y-63333333D01*
X121721523Y-63380952D01*
X121673904Y-63428571D01*
X121626285Y-63523809D01*
%TO.C,C3*%
X141581142Y-114172666D02*
X141628761Y-114220285D01*
X141676380Y-114363142D01*
X141676380Y-114458380D01*
X141628761Y-114601238D01*
X141533523Y-114696476D01*
X141438285Y-114744095D01*
X141247809Y-114791714D01*
X141104952Y-114791714D01*
X140914476Y-114744095D01*
X140819238Y-114696476D01*
X140724000Y-114601238D01*
X140676380Y-114458380D01*
X140676380Y-114363142D01*
X140724000Y-114220285D01*
X140771619Y-114172666D01*
X140676380Y-113839333D02*
X140676380Y-113220285D01*
X141057333Y-113553619D01*
X141057333Y-113410761D01*
X141104952Y-113315523D01*
X141152571Y-113267904D01*
X141247809Y-113220285D01*
X141485904Y-113220285D01*
X141581142Y-113267904D01*
X141628761Y-113315523D01*
X141676380Y-113410761D01*
X141676380Y-113696476D01*
X141628761Y-113791714D01*
X141581142Y-113839333D01*
%TO.C,R19*%
X119753142Y-145740380D02*
X119419809Y-145264190D01*
X119181714Y-145740380D02*
X119181714Y-144740380D01*
X119562666Y-144740380D01*
X119657904Y-144788000D01*
X119705523Y-144835619D01*
X119753142Y-144930857D01*
X119753142Y-145073714D01*
X119705523Y-145168952D01*
X119657904Y-145216571D01*
X119562666Y-145264190D01*
X119181714Y-145264190D01*
X120705523Y-145740380D02*
X120134095Y-145740380D01*
X120419809Y-145740380D02*
X120419809Y-144740380D01*
X120324571Y-144883238D01*
X120229333Y-144978476D01*
X120134095Y-145026095D01*
X121181714Y-145740380D02*
X121372190Y-145740380D01*
X121467428Y-145692761D01*
X121515047Y-145645142D01*
X121610285Y-145502285D01*
X121657904Y-145311809D01*
X121657904Y-144930857D01*
X121610285Y-144835619D01*
X121562666Y-144788000D01*
X121467428Y-144740380D01*
X121276952Y-144740380D01*
X121181714Y-144788000D01*
X121134095Y-144835619D01*
X121086476Y-144930857D01*
X121086476Y-145168952D01*
X121134095Y-145264190D01*
X121181714Y-145311809D01*
X121276952Y-145359428D01*
X121467428Y-145359428D01*
X121562666Y-145311809D01*
X121610285Y-145264190D01*
X121657904Y-145168952D01*
%TO.C,D4*%
X142568704Y-40457380D02*
X142568704Y-39457380D01*
X142806800Y-39457380D01*
X142949657Y-39505000D01*
X143044895Y-39600238D01*
X143092514Y-39695476D01*
X143140133Y-39885952D01*
X143140133Y-40028809D01*
X143092514Y-40219285D01*
X143044895Y-40314523D01*
X142949657Y-40409761D01*
X142806800Y-40457380D01*
X142568704Y-40457380D01*
X143997276Y-39790714D02*
X143997276Y-40457380D01*
X143759180Y-39409761D02*
X143521085Y-40124047D01*
X144140133Y-40124047D01*
%TO.C,R4*%
X119578380Y-116752666D02*
X119102190Y-117086000D01*
X119578380Y-117324095D02*
X118578380Y-117324095D01*
X118578380Y-116943142D01*
X118626000Y-116847904D01*
X118673619Y-116800285D01*
X118768857Y-116752666D01*
X118911714Y-116752666D01*
X119006952Y-116800285D01*
X119054571Y-116847904D01*
X119102190Y-116943142D01*
X119102190Y-117324095D01*
X118911714Y-115895523D02*
X119578380Y-115895523D01*
X118530761Y-116133619D02*
X119245047Y-116371714D01*
X119245047Y-115752666D01*
%TO.C,R10*%
X144645142Y-67000380D02*
X144311809Y-66524190D01*
X144073714Y-67000380D02*
X144073714Y-66000380D01*
X144454666Y-66000380D01*
X144549904Y-66048000D01*
X144597523Y-66095619D01*
X144645142Y-66190857D01*
X144645142Y-66333714D01*
X144597523Y-66428952D01*
X144549904Y-66476571D01*
X144454666Y-66524190D01*
X144073714Y-66524190D01*
X145597523Y-67000380D02*
X145026095Y-67000380D01*
X145311809Y-67000380D02*
X145311809Y-66000380D01*
X145216571Y-66143238D01*
X145121333Y-66238476D01*
X145026095Y-66286095D01*
X146216571Y-66000380D02*
X146311809Y-66000380D01*
X146407047Y-66048000D01*
X146454666Y-66095619D01*
X146502285Y-66190857D01*
X146549904Y-66381333D01*
X146549904Y-66619428D01*
X146502285Y-66809904D01*
X146454666Y-66905142D01*
X146407047Y-66952761D01*
X146311809Y-67000380D01*
X146216571Y-67000380D01*
X146121333Y-66952761D01*
X146073714Y-66905142D01*
X146026095Y-66809904D01*
X145978476Y-66619428D01*
X145978476Y-66381333D01*
X146026095Y-66190857D01*
X146073714Y-66095619D01*
X146121333Y-66048000D01*
X146216571Y-66000380D01*
%TO.C,R1*%
X121245333Y-67000380D02*
X120912000Y-66524190D01*
X120673904Y-67000380D02*
X120673904Y-66000380D01*
X121054857Y-66000380D01*
X121150095Y-66048000D01*
X121197714Y-66095619D01*
X121245333Y-66190857D01*
X121245333Y-66333714D01*
X121197714Y-66428952D01*
X121150095Y-66476571D01*
X121054857Y-66524190D01*
X120673904Y-66524190D01*
X122197714Y-67000380D02*
X121626285Y-67000380D01*
X121912000Y-67000380D02*
X121912000Y-66000380D01*
X121816761Y-66143238D01*
X121721523Y-66238476D01*
X121626285Y-66286095D01*
%TO.C,R14*%
X151074380Y-119514857D02*
X150598190Y-119848190D01*
X151074380Y-120086285D02*
X150074380Y-120086285D01*
X150074380Y-119705333D01*
X150122000Y-119610095D01*
X150169619Y-119562476D01*
X150264857Y-119514857D01*
X150407714Y-119514857D01*
X150502952Y-119562476D01*
X150550571Y-119610095D01*
X150598190Y-119705333D01*
X150598190Y-120086285D01*
X151074380Y-118562476D02*
X151074380Y-119133904D01*
X151074380Y-118848190D02*
X150074380Y-118848190D01*
X150217238Y-118943428D01*
X150312476Y-119038666D01*
X150360095Y-119133904D01*
X150407714Y-117705333D02*
X151074380Y-117705333D01*
X150026761Y-117943428D02*
X150741047Y-118181523D01*
X150741047Y-117562476D01*
%TO.C,D3*%
X117168704Y-40457380D02*
X117168704Y-39457380D01*
X117406800Y-39457380D01*
X117549657Y-39505000D01*
X117644895Y-39600238D01*
X117692514Y-39695476D01*
X117740133Y-39885952D01*
X117740133Y-40028809D01*
X117692514Y-40219285D01*
X117644895Y-40314523D01*
X117549657Y-40409761D01*
X117406800Y-40457380D01*
X117168704Y-40457380D01*
X118073466Y-39457380D02*
X118692514Y-39457380D01*
X118359180Y-39838333D01*
X118502038Y-39838333D01*
X118597276Y-39885952D01*
X118644895Y-39933571D01*
X118692514Y-40028809D01*
X118692514Y-40266904D01*
X118644895Y-40362142D01*
X118597276Y-40409761D01*
X118502038Y-40457380D01*
X118216323Y-40457380D01*
X118121085Y-40409761D01*
X118073466Y-40362142D01*
%TO.C,U4*%
X132588095Y-172172380D02*
X132588095Y-172981904D01*
X132635714Y-173077142D01*
X132683333Y-173124761D01*
X132778571Y-173172380D01*
X132969047Y-173172380D01*
X133064285Y-173124761D01*
X133111904Y-173077142D01*
X133159523Y-172981904D01*
X133159523Y-172172380D01*
X134064285Y-172505714D02*
X134064285Y-173172380D01*
X133826190Y-172124761D02*
X133588095Y-172839047D01*
X134207142Y-172839047D01*
%TO.C,R18*%
X145661142Y-89098380D02*
X145327809Y-88622190D01*
X145089714Y-89098380D02*
X145089714Y-88098380D01*
X145470666Y-88098380D01*
X145565904Y-88146000D01*
X145613523Y-88193619D01*
X145661142Y-88288857D01*
X145661142Y-88431714D01*
X145613523Y-88526952D01*
X145565904Y-88574571D01*
X145470666Y-88622190D01*
X145089714Y-88622190D01*
X146613523Y-89098380D02*
X146042095Y-89098380D01*
X146327809Y-89098380D02*
X146327809Y-88098380D01*
X146232571Y-88241238D01*
X146137333Y-88336476D01*
X146042095Y-88384095D01*
X147184952Y-88526952D02*
X147089714Y-88479333D01*
X147042095Y-88431714D01*
X146994476Y-88336476D01*
X146994476Y-88288857D01*
X147042095Y-88193619D01*
X147089714Y-88146000D01*
X147184952Y-88098380D01*
X147375428Y-88098380D01*
X147470666Y-88146000D01*
X147518285Y-88193619D01*
X147565904Y-88288857D01*
X147565904Y-88336476D01*
X147518285Y-88431714D01*
X147470666Y-88479333D01*
X147375428Y-88526952D01*
X147184952Y-88526952D01*
X147089714Y-88574571D01*
X147042095Y-88622190D01*
X146994476Y-88717428D01*
X146994476Y-88907904D01*
X147042095Y-89003142D01*
X147089714Y-89050761D01*
X147184952Y-89098380D01*
X147375428Y-89098380D01*
X147470666Y-89050761D01*
X147518285Y-89003142D01*
X147565904Y-88907904D01*
X147565904Y-88717428D01*
X147518285Y-88622190D01*
X147470666Y-88574571D01*
X147375428Y-88526952D01*
%TO.C,D1*%
X122372380Y-116409695D02*
X121372380Y-116409695D01*
X121372380Y-116171600D01*
X121420000Y-116028742D01*
X121515238Y-115933504D01*
X121610476Y-115885885D01*
X121800952Y-115838266D01*
X121943809Y-115838266D01*
X122134285Y-115885885D01*
X122229523Y-115933504D01*
X122324761Y-116028742D01*
X122372380Y-116171600D01*
X122372380Y-116409695D01*
X122372380Y-114885885D02*
X122372380Y-115457314D01*
X122372380Y-115171600D02*
X121372380Y-115171600D01*
X121515238Y-115266838D01*
X121610476Y-115362076D01*
X121658095Y-115457314D01*
%TO.C,R15*%
X144645142Y-63952380D02*
X144311809Y-63476190D01*
X144073714Y-63952380D02*
X144073714Y-62952380D01*
X144454666Y-62952380D01*
X144549904Y-63000000D01*
X144597523Y-63047619D01*
X144645142Y-63142857D01*
X144645142Y-63285714D01*
X144597523Y-63380952D01*
X144549904Y-63428571D01*
X144454666Y-63476190D01*
X144073714Y-63476190D01*
X145597523Y-63952380D02*
X145026095Y-63952380D01*
X145311809Y-63952380D02*
X145311809Y-62952380D01*
X145216571Y-63095238D01*
X145121333Y-63190476D01*
X145026095Y-63238095D01*
X146502285Y-62952380D02*
X146026095Y-62952380D01*
X145978476Y-63428571D01*
X146026095Y-63380952D01*
X146121333Y-63333333D01*
X146359428Y-63333333D01*
X146454666Y-63380952D01*
X146502285Y-63428571D01*
X146549904Y-63523809D01*
X146549904Y-63761904D01*
X146502285Y-63857142D01*
X146454666Y-63904761D01*
X146359428Y-63952380D01*
X146121333Y-63952380D01*
X146026095Y-63904761D01*
X145978476Y-63857142D01*
%TO.C,R2*%
X121245333Y-70048380D02*
X120912000Y-69572190D01*
X120673904Y-70048380D02*
X120673904Y-69048380D01*
X121054857Y-69048380D01*
X121150095Y-69096000D01*
X121197714Y-69143619D01*
X121245333Y-69238857D01*
X121245333Y-69381714D01*
X121197714Y-69476952D01*
X121150095Y-69524571D01*
X121054857Y-69572190D01*
X120673904Y-69572190D01*
X121626285Y-69143619D02*
X121673904Y-69096000D01*
X121769142Y-69048380D01*
X122007238Y-69048380D01*
X122102476Y-69096000D01*
X122150095Y-69143619D01*
X122197714Y-69238857D01*
X122197714Y-69334095D01*
X122150095Y-69476952D01*
X121578666Y-70048380D01*
X122197714Y-70048380D01*
%TO.C,C10*%
X139017142Y-158853142D02*
X138969523Y-158900761D01*
X138826666Y-158948380D01*
X138731428Y-158948380D01*
X138588571Y-158900761D01*
X138493333Y-158805523D01*
X138445714Y-158710285D01*
X138398095Y-158519809D01*
X138398095Y-158376952D01*
X138445714Y-158186476D01*
X138493333Y-158091238D01*
X138588571Y-157996000D01*
X138731428Y-157948380D01*
X138826666Y-157948380D01*
X138969523Y-157996000D01*
X139017142Y-158043619D01*
X139969523Y-158948380D02*
X139398095Y-158948380D01*
X139683809Y-158948380D02*
X139683809Y-157948380D01*
X139588571Y-158091238D01*
X139493333Y-158186476D01*
X139398095Y-158234095D01*
X140588571Y-157948380D02*
X140683809Y-157948380D01*
X140779047Y-157996000D01*
X140826666Y-158043619D01*
X140874285Y-158138857D01*
X140921904Y-158329333D01*
X140921904Y-158567428D01*
X140874285Y-158757904D01*
X140826666Y-158853142D01*
X140779047Y-158900761D01*
X140683809Y-158948380D01*
X140588571Y-158948380D01*
X140493333Y-158900761D01*
X140445714Y-158853142D01*
X140398095Y-158757904D01*
X140350476Y-158567428D01*
X140350476Y-158329333D01*
X140398095Y-158138857D01*
X140445714Y-158043619D01*
X140493333Y-157996000D01*
X140588571Y-157948380D01*
%TO.C,C12*%
X137832030Y-43597142D02*
X137784411Y-43644761D01*
X137641554Y-43692380D01*
X137546316Y-43692380D01*
X137403459Y-43644761D01*
X137308221Y-43549523D01*
X137260602Y-43454285D01*
X137212983Y-43263809D01*
X137212983Y-43120952D01*
X137260602Y-42930476D01*
X137308221Y-42835238D01*
X137403459Y-42740000D01*
X137546316Y-42692380D01*
X137641554Y-42692380D01*
X137784411Y-42740000D01*
X137832030Y-42787619D01*
X138784411Y-43692380D02*
X138212983Y-43692380D01*
X138498697Y-43692380D02*
X138498697Y-42692380D01*
X138403459Y-42835238D01*
X138308221Y-42930476D01*
X138212983Y-42978095D01*
X139165364Y-42787619D02*
X139212983Y-42740000D01*
X139308221Y-42692380D01*
X139546316Y-42692380D01*
X139641554Y-42740000D01*
X139689173Y-42787619D01*
X139736792Y-42882857D01*
X139736792Y-42978095D01*
X139689173Y-43120952D01*
X139117745Y-43692380D01*
X139736792Y-43692380D01*
%TO.C,R28*%
X120769142Y-172664380D02*
X120435809Y-172188190D01*
X120197714Y-172664380D02*
X120197714Y-171664380D01*
X120578666Y-171664380D01*
X120673904Y-171712000D01*
X120721523Y-171759619D01*
X120769142Y-171854857D01*
X120769142Y-171997714D01*
X120721523Y-172092952D01*
X120673904Y-172140571D01*
X120578666Y-172188190D01*
X120197714Y-172188190D01*
X121150095Y-171759619D02*
X121197714Y-171712000D01*
X121292952Y-171664380D01*
X121531047Y-171664380D01*
X121626285Y-171712000D01*
X121673904Y-171759619D01*
X121721523Y-171854857D01*
X121721523Y-171950095D01*
X121673904Y-172092952D01*
X121102476Y-172664380D01*
X121721523Y-172664380D01*
X122292952Y-172092952D02*
X122197714Y-172045333D01*
X122150095Y-171997714D01*
X122102476Y-171902476D01*
X122102476Y-171854857D01*
X122150095Y-171759619D01*
X122197714Y-171712000D01*
X122292952Y-171664380D01*
X122483428Y-171664380D01*
X122578666Y-171712000D01*
X122626285Y-171759619D01*
X122673904Y-171854857D01*
X122673904Y-171902476D01*
X122626285Y-171997714D01*
X122578666Y-172045333D01*
X122483428Y-172092952D01*
X122292952Y-172092952D01*
X122197714Y-172140571D01*
X122150095Y-172188190D01*
X122102476Y-172283428D01*
X122102476Y-172473904D01*
X122150095Y-172569142D01*
X122197714Y-172616761D01*
X122292952Y-172664380D01*
X122483428Y-172664380D01*
X122578666Y-172616761D01*
X122626285Y-172569142D01*
X122673904Y-172473904D01*
X122673904Y-172283428D01*
X122626285Y-172188190D01*
X122578666Y-172140571D01*
X122483428Y-172092952D01*
%TO.C,R5*%
X116530380Y-119038666D02*
X116054190Y-119372000D01*
X116530380Y-119610095D02*
X115530380Y-119610095D01*
X115530380Y-119229142D01*
X115578000Y-119133904D01*
X115625619Y-119086285D01*
X115720857Y-119038666D01*
X115863714Y-119038666D01*
X115958952Y-119086285D01*
X116006571Y-119133904D01*
X116054190Y-119229142D01*
X116054190Y-119610095D01*
X115530380Y-118133904D02*
X115530380Y-118610095D01*
X116006571Y-118657714D01*
X115958952Y-118610095D01*
X115911333Y-118514857D01*
X115911333Y-118276761D01*
X115958952Y-118181523D01*
X116006571Y-118133904D01*
X116101809Y-118086285D01*
X116339904Y-118086285D01*
X116435142Y-118133904D01*
X116482761Y-118181523D01*
X116530380Y-118276761D01*
X116530380Y-118514857D01*
X116482761Y-118610095D01*
X116435142Y-118657714D01*
%TO.C,R12*%
X146502380Y-98686857D02*
X146026190Y-99020190D01*
X146502380Y-99258285D02*
X145502380Y-99258285D01*
X145502380Y-98877333D01*
X145550000Y-98782095D01*
X145597619Y-98734476D01*
X145692857Y-98686857D01*
X145835714Y-98686857D01*
X145930952Y-98734476D01*
X145978571Y-98782095D01*
X146026190Y-98877333D01*
X146026190Y-99258285D01*
X146502380Y-97734476D02*
X146502380Y-98305904D01*
X146502380Y-98020190D02*
X145502380Y-98020190D01*
X145645238Y-98115428D01*
X145740476Y-98210666D01*
X145788095Y-98305904D01*
X145597619Y-97353523D02*
X145550000Y-97305904D01*
X145502380Y-97210666D01*
X145502380Y-96972571D01*
X145550000Y-96877333D01*
X145597619Y-96829714D01*
X145692857Y-96782095D01*
X145788095Y-96782095D01*
X145930952Y-96829714D01*
X146502380Y-97401142D01*
X146502380Y-96782095D01*
%TO.C,C9*%
X131873333Y-175871142D02*
X131825714Y-175918761D01*
X131682857Y-175966380D01*
X131587619Y-175966380D01*
X131444761Y-175918761D01*
X131349523Y-175823523D01*
X131301904Y-175728285D01*
X131254285Y-175537809D01*
X131254285Y-175394952D01*
X131301904Y-175204476D01*
X131349523Y-175109238D01*
X131444761Y-175014000D01*
X131587619Y-174966380D01*
X131682857Y-174966380D01*
X131825714Y-175014000D01*
X131873333Y-175061619D01*
X132349523Y-175966380D02*
X132540000Y-175966380D01*
X132635238Y-175918761D01*
X132682857Y-175871142D01*
X132778095Y-175728285D01*
X132825714Y-175537809D01*
X132825714Y-175156857D01*
X132778095Y-175061619D01*
X132730476Y-175014000D01*
X132635238Y-174966380D01*
X132444761Y-174966380D01*
X132349523Y-175014000D01*
X132301904Y-175061619D01*
X132254285Y-175156857D01*
X132254285Y-175394952D01*
X132301904Y-175490190D01*
X132349523Y-175537809D01*
X132444761Y-175585428D01*
X132635238Y-175585428D01*
X132730476Y-175537809D01*
X132778095Y-175490190D01*
X132825714Y-175394952D01*
%TO.C,C8*%
X142795333Y-106783142D02*
X142747714Y-106830761D01*
X142604857Y-106878380D01*
X142509619Y-106878380D01*
X142366761Y-106830761D01*
X142271523Y-106735523D01*
X142223904Y-106640285D01*
X142176285Y-106449809D01*
X142176285Y-106306952D01*
X142223904Y-106116476D01*
X142271523Y-106021238D01*
X142366761Y-105926000D01*
X142509619Y-105878380D01*
X142604857Y-105878380D01*
X142747714Y-105926000D01*
X142795333Y-105973619D01*
X143366761Y-106306952D02*
X143271523Y-106259333D01*
X143223904Y-106211714D01*
X143176285Y-106116476D01*
X143176285Y-106068857D01*
X143223904Y-105973619D01*
X143271523Y-105926000D01*
X143366761Y-105878380D01*
X143557238Y-105878380D01*
X143652476Y-105926000D01*
X143700095Y-105973619D01*
X143747714Y-106068857D01*
X143747714Y-106116476D01*
X143700095Y-106211714D01*
X143652476Y-106259333D01*
X143557238Y-106306952D01*
X143366761Y-106306952D01*
X143271523Y-106354571D01*
X143223904Y-106402190D01*
X143176285Y-106497428D01*
X143176285Y-106687904D01*
X143223904Y-106783142D01*
X143271523Y-106830761D01*
X143366761Y-106878380D01*
X143557238Y-106878380D01*
X143652476Y-106830761D01*
X143700095Y-106783142D01*
X143747714Y-106687904D01*
X143747714Y-106497428D01*
X143700095Y-106402190D01*
X143652476Y-106354571D01*
X143557238Y-106306952D01*
%TO.C,J12*%
X103330476Y-66738380D02*
X103330476Y-67452666D01*
X103282857Y-67595523D01*
X103187619Y-67690761D01*
X103044761Y-67738380D01*
X102949523Y-67738380D01*
X104330476Y-67738380D02*
X103759047Y-67738380D01*
X104044761Y-67738380D02*
X104044761Y-66738380D01*
X103949523Y-66881238D01*
X103854285Y-66976476D01*
X103759047Y-67024095D01*
X104711428Y-66833619D02*
X104759047Y-66786000D01*
X104854285Y-66738380D01*
X105092380Y-66738380D01*
X105187619Y-66786000D01*
X105235238Y-66833619D01*
X105282857Y-66928857D01*
X105282857Y-67024095D01*
X105235238Y-67166952D01*
X104663809Y-67738380D01*
X105282857Y-67738380D01*
%TO.C,R7*%
X116530380Y-106592666D02*
X116054190Y-106926000D01*
X116530380Y-107164095D02*
X115530380Y-107164095D01*
X115530380Y-106783142D01*
X115578000Y-106687904D01*
X115625619Y-106640285D01*
X115720857Y-106592666D01*
X115863714Y-106592666D01*
X115958952Y-106640285D01*
X116006571Y-106687904D01*
X116054190Y-106783142D01*
X116054190Y-107164095D01*
X115530380Y-106259333D02*
X115530380Y-105592666D01*
X116530380Y-106021238D01*
%TO.C,J17*%
X125412619Y-35286370D02*
X125745952Y-36286370D01*
X126079285Y-35286370D01*
X126412619Y-35905418D02*
X127174523Y-35905418D01*
X126793571Y-36286370D02*
X126793571Y-35524466D01*
X133032619Y-35413370D02*
X133365952Y-36413370D01*
X133699285Y-35413370D01*
X134032619Y-36032418D02*
X134794523Y-36032418D01*
%TO.C,R17*%
X144645142Y-73096380D02*
X144311809Y-72620190D01*
X144073714Y-73096380D02*
X144073714Y-72096380D01*
X144454666Y-72096380D01*
X144549904Y-72144000D01*
X144597523Y-72191619D01*
X144645142Y-72286857D01*
X144645142Y-72429714D01*
X144597523Y-72524952D01*
X144549904Y-72572571D01*
X144454666Y-72620190D01*
X144073714Y-72620190D01*
X145597523Y-73096380D02*
X145026095Y-73096380D01*
X145311809Y-73096380D02*
X145311809Y-72096380D01*
X145216571Y-72239238D01*
X145121333Y-72334476D01*
X145026095Y-72382095D01*
X145930857Y-72096380D02*
X146597523Y-72096380D01*
X146168952Y-73096380D01*
%TO.C,R23*%
X120769142Y-163520380D02*
X120435809Y-163044190D01*
X120197714Y-163520380D02*
X120197714Y-162520380D01*
X120578666Y-162520380D01*
X120673904Y-162568000D01*
X120721523Y-162615619D01*
X120769142Y-162710857D01*
X120769142Y-162853714D01*
X120721523Y-162948952D01*
X120673904Y-162996571D01*
X120578666Y-163044190D01*
X120197714Y-163044190D01*
X121150095Y-162615619D02*
X121197714Y-162568000D01*
X121292952Y-162520380D01*
X121531047Y-162520380D01*
X121626285Y-162568000D01*
X121673904Y-162615619D01*
X121721523Y-162710857D01*
X121721523Y-162806095D01*
X121673904Y-162948952D01*
X121102476Y-163520380D01*
X121721523Y-163520380D01*
X122054857Y-162520380D02*
X122673904Y-162520380D01*
X122340571Y-162901333D01*
X122483428Y-162901333D01*
X122578666Y-162948952D01*
X122626285Y-162996571D01*
X122673904Y-163091809D01*
X122673904Y-163329904D01*
X122626285Y-163425142D01*
X122578666Y-163472761D01*
X122483428Y-163520380D01*
X122197714Y-163520380D01*
X122102476Y-163472761D01*
X122054857Y-163425142D01*
%TO.C,R13*%
X148026380Y-117228857D02*
X147550190Y-117562190D01*
X148026380Y-117800285D02*
X147026380Y-117800285D01*
X147026380Y-117419333D01*
X147074000Y-117324095D01*
X147121619Y-117276476D01*
X147216857Y-117228857D01*
X147359714Y-117228857D01*
X147454952Y-117276476D01*
X147502571Y-117324095D01*
X147550190Y-117419333D01*
X147550190Y-117800285D01*
X148026380Y-116276476D02*
X148026380Y-116847904D01*
X148026380Y-116562190D02*
X147026380Y-116562190D01*
X147169238Y-116657428D01*
X147264476Y-116752666D01*
X147312095Y-116847904D01*
X147026380Y-115943142D02*
X147026380Y-115324095D01*
X147407333Y-115657428D01*
X147407333Y-115514571D01*
X147454952Y-115419333D01*
X147502571Y-115371714D01*
X147597809Y-115324095D01*
X147835904Y-115324095D01*
X147931142Y-115371714D01*
X147978761Y-115419333D01*
X148026380Y-115514571D01*
X148026380Y-115800285D01*
X147978761Y-115895523D01*
X147931142Y-115943142D01*
%TO.C,C7*%
X123571333Y-106783142D02*
X123523714Y-106830761D01*
X123380857Y-106878380D01*
X123285619Y-106878380D01*
X123142761Y-106830761D01*
X123047523Y-106735523D01*
X122999904Y-106640285D01*
X122952285Y-106449809D01*
X122952285Y-106306952D01*
X122999904Y-106116476D01*
X123047523Y-106021238D01*
X123142761Y-105926000D01*
X123285619Y-105878380D01*
X123380857Y-105878380D01*
X123523714Y-105926000D01*
X123571333Y-105973619D01*
X123904666Y-105878380D02*
X124571333Y-105878380D01*
X124142761Y-106878380D01*
%TO.C,R20*%
X144645142Y-167584380D02*
X144311809Y-167108190D01*
X144073714Y-167584380D02*
X144073714Y-166584380D01*
X144454666Y-166584380D01*
X144549904Y-166632000D01*
X144597523Y-166679619D01*
X144645142Y-166774857D01*
X144645142Y-166917714D01*
X144597523Y-167012952D01*
X144549904Y-167060571D01*
X144454666Y-167108190D01*
X144073714Y-167108190D01*
X145026095Y-166679619D02*
X145073714Y-166632000D01*
X145168952Y-166584380D01*
X145407047Y-166584380D01*
X145502285Y-166632000D01*
X145549904Y-166679619D01*
X145597523Y-166774857D01*
X145597523Y-166870095D01*
X145549904Y-167012952D01*
X144978476Y-167584380D01*
X145597523Y-167584380D01*
X146216571Y-166584380D02*
X146311809Y-166584380D01*
X146407047Y-166632000D01*
X146454666Y-166679619D01*
X146502285Y-166774857D01*
X146549904Y-166965333D01*
X146549904Y-167203428D01*
X146502285Y-167393904D01*
X146454666Y-167489142D01*
X146407047Y-167536761D01*
X146311809Y-167584380D01*
X146216571Y-167584380D01*
X146121333Y-167536761D01*
X146073714Y-167489142D01*
X146026095Y-167393904D01*
X145978476Y-167203428D01*
X145978476Y-166965333D01*
X146026095Y-166774857D01*
X146073714Y-166679619D01*
X146121333Y-166632000D01*
X146216571Y-166584380D01*
%TO.C,C2*%
X125833142Y-99012666D02*
X125880761Y-99060285D01*
X125928380Y-99203142D01*
X125928380Y-99298380D01*
X125880761Y-99441238D01*
X125785523Y-99536476D01*
X125690285Y-99584095D01*
X125499809Y-99631714D01*
X125356952Y-99631714D01*
X125166476Y-99584095D01*
X125071238Y-99536476D01*
X124976000Y-99441238D01*
X124928380Y-99298380D01*
X124928380Y-99203142D01*
X124976000Y-99060285D01*
X125023619Y-99012666D01*
X125023619Y-98631714D02*
X124976000Y-98584095D01*
X124928380Y-98488857D01*
X124928380Y-98250761D01*
X124976000Y-98155523D01*
X125023619Y-98107904D01*
X125118857Y-98060285D01*
X125214095Y-98060285D01*
X125356952Y-98107904D01*
X125928380Y-98679333D01*
X125928380Y-98060285D01*
%TO.C,R26*%
X120769142Y-152344380D02*
X120435809Y-151868190D01*
X120197714Y-152344380D02*
X120197714Y-151344380D01*
X120578666Y-151344380D01*
X120673904Y-151392000D01*
X120721523Y-151439619D01*
X120769142Y-151534857D01*
X120769142Y-151677714D01*
X120721523Y-151772952D01*
X120673904Y-151820571D01*
X120578666Y-151868190D01*
X120197714Y-151868190D01*
X121150095Y-151439619D02*
X121197714Y-151392000D01*
X121292952Y-151344380D01*
X121531047Y-151344380D01*
X121626285Y-151392000D01*
X121673904Y-151439619D01*
X121721523Y-151534857D01*
X121721523Y-151630095D01*
X121673904Y-151772952D01*
X121102476Y-152344380D01*
X121721523Y-152344380D01*
X122578666Y-151344380D02*
X122388190Y-151344380D01*
X122292952Y-151392000D01*
X122245333Y-151439619D01*
X122150095Y-151582476D01*
X122102476Y-151772952D01*
X122102476Y-152153904D01*
X122150095Y-152249142D01*
X122197714Y-152296761D01*
X122292952Y-152344380D01*
X122483428Y-152344380D01*
X122578666Y-152296761D01*
X122626285Y-152249142D01*
X122673904Y-152153904D01*
X122673904Y-151915809D01*
X122626285Y-151820571D01*
X122578666Y-151772952D01*
X122483428Y-151725333D01*
X122292952Y-151725333D01*
X122197714Y-151772952D01*
X122150095Y-151820571D01*
X122102476Y-151915809D01*
%TO.C,J4*%
X60626666Y-144716380D02*
X60626666Y-145430666D01*
X60579047Y-145573523D01*
X60483809Y-145668761D01*
X60340952Y-145716380D01*
X60245714Y-145716380D01*
X61531428Y-145049714D02*
X61531428Y-145716380D01*
X61293333Y-144668761D02*
X61055238Y-145383047D01*
X61674285Y-145383047D01*
%TO.C,C6*%
X142795333Y-58523142D02*
X142747714Y-58570761D01*
X142604857Y-58618380D01*
X142509619Y-58618380D01*
X142366761Y-58570761D01*
X142271523Y-58475523D01*
X142223904Y-58380285D01*
X142176285Y-58189809D01*
X142176285Y-58046952D01*
X142223904Y-57856476D01*
X142271523Y-57761238D01*
X142366761Y-57666000D01*
X142509619Y-57618380D01*
X142604857Y-57618380D01*
X142747714Y-57666000D01*
X142795333Y-57713619D01*
X143652476Y-57618380D02*
X143462000Y-57618380D01*
X143366761Y-57666000D01*
X143319142Y-57713619D01*
X143223904Y-57856476D01*
X143176285Y-58046952D01*
X143176285Y-58427904D01*
X143223904Y-58523142D01*
X143271523Y-58570761D01*
X143366761Y-58618380D01*
X143557238Y-58618380D01*
X143652476Y-58570761D01*
X143700095Y-58523142D01*
X143747714Y-58427904D01*
X143747714Y-58189809D01*
X143700095Y-58094571D01*
X143652476Y-58046952D01*
X143557238Y-57999333D01*
X143366761Y-57999333D01*
X143271523Y-58046952D01*
X143223904Y-58094571D01*
X143176285Y-58189809D01*
%TO.C,R3*%
X120340380Y-98210666D02*
X119864190Y-98544000D01*
X120340380Y-98782095D02*
X119340380Y-98782095D01*
X119340380Y-98401142D01*
X119388000Y-98305904D01*
X119435619Y-98258285D01*
X119530857Y-98210666D01*
X119673714Y-98210666D01*
X119768952Y-98258285D01*
X119816571Y-98305904D01*
X119864190Y-98401142D01*
X119864190Y-98782095D01*
X119340380Y-97877333D02*
X119340380Y-97258285D01*
X119721333Y-97591619D01*
X119721333Y-97448761D01*
X119768952Y-97353523D01*
X119816571Y-97305904D01*
X119911809Y-97258285D01*
X120149904Y-97258285D01*
X120245142Y-97305904D01*
X120292761Y-97353523D01*
X120340380Y-97448761D01*
X120340380Y-97734476D01*
X120292761Y-97829714D01*
X120245142Y-97877333D01*
%TO.C,R24*%
X120769142Y-166568380D02*
X120435809Y-166092190D01*
X120197714Y-166568380D02*
X120197714Y-165568380D01*
X120578666Y-165568380D01*
X120673904Y-165616000D01*
X120721523Y-165663619D01*
X120769142Y-165758857D01*
X120769142Y-165901714D01*
X120721523Y-165996952D01*
X120673904Y-166044571D01*
X120578666Y-166092190D01*
X120197714Y-166092190D01*
X121150095Y-165663619D02*
X121197714Y-165616000D01*
X121292952Y-165568380D01*
X121531047Y-165568380D01*
X121626285Y-165616000D01*
X121673904Y-165663619D01*
X121721523Y-165758857D01*
X121721523Y-165854095D01*
X121673904Y-165996952D01*
X121102476Y-166568380D01*
X121721523Y-166568380D01*
X122578666Y-165901714D02*
X122578666Y-166568380D01*
X122340571Y-165520761D02*
X122102476Y-166235047D01*
X122721523Y-166235047D01*
%TO.C,R9*%
X120229333Y-89098380D02*
X119896000Y-88622190D01*
X119657904Y-89098380D02*
X119657904Y-88098380D01*
X120038857Y-88098380D01*
X120134095Y-88146000D01*
X120181714Y-88193619D01*
X120229333Y-88288857D01*
X120229333Y-88431714D01*
X120181714Y-88526952D01*
X120134095Y-88574571D01*
X120038857Y-88622190D01*
X119657904Y-88622190D01*
X120705523Y-89098380D02*
X120896000Y-89098380D01*
X120991238Y-89050761D01*
X121038857Y-89003142D01*
X121134095Y-88860285D01*
X121181714Y-88669809D01*
X121181714Y-88288857D01*
X121134095Y-88193619D01*
X121086476Y-88146000D01*
X120991238Y-88098380D01*
X120800761Y-88098380D01*
X120705523Y-88146000D01*
X120657904Y-88193619D01*
X120610285Y-88288857D01*
X120610285Y-88526952D01*
X120657904Y-88622190D01*
X120705523Y-88669809D01*
X120800761Y-88717428D01*
X120991238Y-88717428D01*
X121086476Y-88669809D01*
X121134095Y-88622190D01*
X121181714Y-88526952D01*
%TO.C,R27*%
X120769142Y-169616380D02*
X120435809Y-169140190D01*
X120197714Y-169616380D02*
X120197714Y-168616380D01*
X120578666Y-168616380D01*
X120673904Y-168664000D01*
X120721523Y-168711619D01*
X120769142Y-168806857D01*
X120769142Y-168949714D01*
X120721523Y-169044952D01*
X120673904Y-169092571D01*
X120578666Y-169140190D01*
X120197714Y-169140190D01*
X121150095Y-168711619D02*
X121197714Y-168664000D01*
X121292952Y-168616380D01*
X121531047Y-168616380D01*
X121626285Y-168664000D01*
X121673904Y-168711619D01*
X121721523Y-168806857D01*
X121721523Y-168902095D01*
X121673904Y-169044952D01*
X121102476Y-169616380D01*
X121721523Y-169616380D01*
X122054857Y-168616380D02*
X122721523Y-168616380D01*
X122292952Y-169616380D01*
%TO.C,J5*%
X60626666Y-66738380D02*
X60626666Y-67452666D01*
X60579047Y-67595523D01*
X60483809Y-67690761D01*
X60340952Y-67738380D01*
X60245714Y-67738380D01*
X61579047Y-66738380D02*
X61102857Y-66738380D01*
X61055238Y-67214571D01*
X61102857Y-67166952D01*
X61198095Y-67119333D01*
X61436190Y-67119333D01*
X61531428Y-67166952D01*
X61579047Y-67214571D01*
X61626666Y-67309809D01*
X61626666Y-67547904D01*
X61579047Y-67643142D01*
X61531428Y-67690761D01*
X61436190Y-67738380D01*
X61198095Y-67738380D01*
X61102857Y-67690761D01*
X61055238Y-67643142D01*
%TO.C,D6*%
X119048304Y-158186380D02*
X119048304Y-157186380D01*
X119286400Y-157186380D01*
X119429257Y-157234000D01*
X119524495Y-157329238D01*
X119572114Y-157424476D01*
X119619733Y-157614952D01*
X119619733Y-157757809D01*
X119572114Y-157948285D01*
X119524495Y-158043523D01*
X119429257Y-158138761D01*
X119286400Y-158186380D01*
X119048304Y-158186380D01*
X120476876Y-157186380D02*
X120286400Y-157186380D01*
X120191161Y-157234000D01*
X120143542Y-157281619D01*
X120048304Y-157424476D01*
X120000685Y-157614952D01*
X120000685Y-157995904D01*
X120048304Y-158091142D01*
X120095923Y-158138761D01*
X120191161Y-158186380D01*
X120381638Y-158186380D01*
X120476876Y-158138761D01*
X120524495Y-158091142D01*
X120572114Y-157995904D01*
X120572114Y-157757809D01*
X120524495Y-157662571D01*
X120476876Y-157614952D01*
X120381638Y-157567333D01*
X120191161Y-157567333D01*
X120095923Y-157614952D01*
X120048304Y-157662571D01*
X120000685Y-157757809D01*
%TO.C,R16*%
X151074380Y-107068857D02*
X150598190Y-107402190D01*
X151074380Y-107640285D02*
X150074380Y-107640285D01*
X150074380Y-107259333D01*
X150122000Y-107164095D01*
X150169619Y-107116476D01*
X150264857Y-107068857D01*
X150407714Y-107068857D01*
X150502952Y-107116476D01*
X150550571Y-107164095D01*
X150598190Y-107259333D01*
X150598190Y-107640285D01*
X151074380Y-106116476D02*
X151074380Y-106687904D01*
X151074380Y-106402190D02*
X150074380Y-106402190D01*
X150217238Y-106497428D01*
X150312476Y-106592666D01*
X150360095Y-106687904D01*
X150074380Y-105259333D02*
X150074380Y-105449809D01*
X150122000Y-105545047D01*
X150169619Y-105592666D01*
X150312476Y-105687904D01*
X150502952Y-105735523D01*
X150883904Y-105735523D01*
X150979142Y-105687904D01*
X151026761Y-105640285D01*
X151074380Y-105545047D01*
X151074380Y-105354571D01*
X151026761Y-105259333D01*
X150979142Y-105211714D01*
X150883904Y-105164095D01*
X150645809Y-105164095D01*
X150550571Y-105211714D01*
X150502952Y-105259333D01*
X150455333Y-105354571D01*
X150455333Y-105545047D01*
X150502952Y-105640285D01*
X150550571Y-105687904D01*
X150645809Y-105735523D01*
%TO.C,C11*%
X121322030Y-43597142D02*
X121274411Y-43644761D01*
X121131554Y-43692380D01*
X121036316Y-43692380D01*
X120893459Y-43644761D01*
X120798221Y-43549523D01*
X120750602Y-43454285D01*
X120702983Y-43263809D01*
X120702983Y-43120952D01*
X120750602Y-42930476D01*
X120798221Y-42835238D01*
X120893459Y-42740000D01*
X121036316Y-42692380D01*
X121131554Y-42692380D01*
X121274411Y-42740000D01*
X121322030Y-42787619D01*
X122274411Y-43692380D02*
X121702983Y-43692380D01*
X121988697Y-43692380D02*
X121988697Y-42692380D01*
X121893459Y-42835238D01*
X121798221Y-42930476D01*
X121702983Y-42978095D01*
X123226792Y-43692380D02*
X122655364Y-43692380D01*
X122941078Y-43692380D02*
X122941078Y-42692380D01*
X122845840Y-42835238D01*
X122750602Y-42930476D01*
X122655364Y-42978095D01*
%TO.C,D2*%
X145232380Y-116409695D02*
X144232380Y-116409695D01*
X144232380Y-116171600D01*
X144280000Y-116028742D01*
X144375238Y-115933504D01*
X144470476Y-115885885D01*
X144660952Y-115838266D01*
X144803809Y-115838266D01*
X144994285Y-115885885D01*
X145089523Y-115933504D01*
X145184761Y-116028742D01*
X145232380Y-116171600D01*
X145232380Y-116409695D01*
X144327619Y-115457314D02*
X144280000Y-115409695D01*
X144232380Y-115314457D01*
X144232380Y-115076361D01*
X144280000Y-114981123D01*
X144327619Y-114933504D01*
X144422857Y-114885885D01*
X144518095Y-114885885D01*
X144660952Y-114933504D01*
X145232380Y-115504933D01*
X145232380Y-114885885D01*
%TO.C,C4*%
X141581142Y-99012666D02*
X141628761Y-99060285D01*
X141676380Y-99203142D01*
X141676380Y-99298380D01*
X141628761Y-99441238D01*
X141533523Y-99536476D01*
X141438285Y-99584095D01*
X141247809Y-99631714D01*
X141104952Y-99631714D01*
X140914476Y-99584095D01*
X140819238Y-99536476D01*
X140724000Y-99441238D01*
X140676380Y-99298380D01*
X140676380Y-99203142D01*
X140724000Y-99060285D01*
X140771619Y-99012666D01*
X141009714Y-98155523D02*
X141676380Y-98155523D01*
X140628761Y-98393619D02*
X141343047Y-98631714D01*
X141343047Y-98012666D01*
%TO.C,C1*%
X125833142Y-114172666D02*
X125880761Y-114220285D01*
X125928380Y-114363142D01*
X125928380Y-114458380D01*
X125880761Y-114601238D01*
X125785523Y-114696476D01*
X125690285Y-114744095D01*
X125499809Y-114791714D01*
X125356952Y-114791714D01*
X125166476Y-114744095D01*
X125071238Y-114696476D01*
X124976000Y-114601238D01*
X124928380Y-114458380D01*
X124928380Y-114363142D01*
X124976000Y-114220285D01*
X125023619Y-114172666D01*
X125928380Y-113220285D02*
X125928380Y-113791714D01*
X125928380Y-113506000D02*
X124928380Y-113506000D01*
X125071238Y-113601238D01*
X125166476Y-113696476D01*
X125214095Y-113791714D01*
%TO.C,Q1*%
X113069619Y-92805238D02*
X113022000Y-92900476D01*
X112926761Y-92995714D01*
X112783904Y-93138571D01*
X112736285Y-93233809D01*
X112736285Y-93329047D01*
X112974380Y-93281428D02*
X112926761Y-93376666D01*
X112831523Y-93471904D01*
X112641047Y-93519523D01*
X112307714Y-93519523D01*
X112117238Y-93471904D01*
X112022000Y-93376666D01*
X111974380Y-93281428D01*
X111974380Y-93090952D01*
X112022000Y-92995714D01*
X112117238Y-92900476D01*
X112307714Y-92852857D01*
X112641047Y-92852857D01*
X112831523Y-92900476D01*
X112926761Y-92995714D01*
X112974380Y-93090952D01*
X112974380Y-93281428D01*
X112974380Y-91900476D02*
X112974380Y-92471904D01*
X112974380Y-92186190D02*
X111974380Y-92186190D01*
X112117238Y-92281428D01*
X112212476Y-92376666D01*
X112260095Y-92471904D01*
%TO.C,U1*%
X132588095Y-95928380D02*
X132588095Y-96737904D01*
X132635714Y-96833142D01*
X132683333Y-96880761D01*
X132778571Y-96928380D01*
X132969047Y-96928380D01*
X133064285Y-96880761D01*
X133111904Y-96833142D01*
X133159523Y-96737904D01*
X133159523Y-95928380D01*
X134159523Y-96928380D02*
X133588095Y-96928380D01*
X133873809Y-96928380D02*
X133873809Y-95928380D01*
X133778571Y-96071238D01*
X133683333Y-96166476D01*
X133588095Y-96214095D01*
%TO.C,R25*%
X144645142Y-173680380D02*
X144311809Y-173204190D01*
X144073714Y-173680380D02*
X144073714Y-172680380D01*
X144454666Y-172680380D01*
X144549904Y-172728000D01*
X144597523Y-172775619D01*
X144645142Y-172870857D01*
X144645142Y-173013714D01*
X144597523Y-173108952D01*
X144549904Y-173156571D01*
X144454666Y-173204190D01*
X144073714Y-173204190D01*
X145026095Y-172775619D02*
X145073714Y-172728000D01*
X145168952Y-172680380D01*
X145407047Y-172680380D01*
X145502285Y-172728000D01*
X145549904Y-172775619D01*
X145597523Y-172870857D01*
X145597523Y-172966095D01*
X145549904Y-173108952D01*
X144978476Y-173680380D01*
X145597523Y-173680380D01*
X146502285Y-172680380D02*
X146026095Y-172680380D01*
X145978476Y-173156571D01*
X146026095Y-173108952D01*
X146121333Y-173061333D01*
X146359428Y-173061333D01*
X146454666Y-173108952D01*
X146502285Y-173156571D01*
X146549904Y-173251809D01*
X146549904Y-173489904D01*
X146502285Y-173585142D01*
X146454666Y-173632761D01*
X146359428Y-173680380D01*
X146121333Y-173680380D01*
X146026095Y-173632761D01*
X145978476Y-173585142D01*
%TO.C,D7*%
X119048304Y-160726380D02*
X119048304Y-159726380D01*
X119286400Y-159726380D01*
X119429257Y-159774000D01*
X119524495Y-159869238D01*
X119572114Y-159964476D01*
X119619733Y-160154952D01*
X119619733Y-160297809D01*
X119572114Y-160488285D01*
X119524495Y-160583523D01*
X119429257Y-160678761D01*
X119286400Y-160726380D01*
X119048304Y-160726380D01*
X119953066Y-159726380D02*
X120619733Y-159726380D01*
X120191161Y-160726380D01*
D11*
%TO.C,R21*%
X117372000Y-154940000D02*
X118142000Y-154940000D01*
X118142000Y-156310000D02*
X124682000Y-156310000D01*
X124682000Y-153570000D02*
X118142000Y-153570000D01*
X124682000Y-156310000D02*
X124682000Y-153570000D01*
X125452000Y-154940000D02*
X124682000Y-154940000D01*
X118142000Y-153570000D02*
X118142000Y-156310000D01*
%TO.C,Q2*%
X152472000Y-97304000D02*
X152472000Y-93704000D01*
X148022000Y-95504000D02*
G75*
G03*
X149523193Y-97860400I2600000J0D01*
G01*
X151744795Y-97828184D02*
G75*
G03*
X152472000Y-97304000I-1122795J2324184D01*
G01*
X152472000Y-93704000D02*
G75*
G03*
X151744795Y-93179816I-1850000J-1800000D01*
G01*
X149523193Y-93147600D02*
G75*
G03*
X148022000Y-95504000I1098807J-2356400D01*
G01*
%TO.C,C5*%
X127358000Y-60036000D02*
X127358000Y-56296000D01*
X127358000Y-60036000D02*
X120118000Y-60036000D01*
X127358000Y-56296000D02*
X120118000Y-56296000D01*
X120118000Y-60036000D02*
X120118000Y-56296000D01*
%TO.C,R22*%
X141248000Y-170180000D02*
X142018000Y-170180000D01*
X148558000Y-171550000D02*
X148558000Y-168810000D01*
X142018000Y-168810000D02*
X142018000Y-171550000D01*
X149328000Y-170180000D02*
X148558000Y-170180000D01*
X148558000Y-168810000D02*
X142018000Y-168810000D01*
X142018000Y-171550000D02*
X148558000Y-171550000D01*
%TO.C,R11*%
X141248000Y-69596000D02*
X142018000Y-69596000D01*
X142018000Y-68226000D02*
X142018000Y-70966000D01*
X149328000Y-69596000D02*
X148558000Y-69596000D01*
X148558000Y-70966000D02*
X148558000Y-68226000D01*
X148558000Y-68226000D02*
X142018000Y-68226000D01*
X142018000Y-70966000D02*
X148558000Y-70966000D01*
%TO.C,J20*%
X85090000Y-180280000D02*
X85090000Y-182940000D01*
X87690000Y-182940000D02*
X86360000Y-182940000D01*
X77410000Y-180280000D02*
X77410000Y-182940000D01*
X87690000Y-181610000D02*
X87690000Y-182940000D01*
X85090000Y-182940000D02*
X77410000Y-182940000D01*
X85090000Y-180280000D02*
X77410000Y-180280000D01*
%TO.C,D5*%
X117726000Y-141374000D02*
X117726000Y-143614000D01*
X117006000Y-143614000D02*
X121246000Y-143614000D01*
X117606000Y-141374000D02*
X117606000Y-143614000D01*
X117846000Y-141374000D02*
X117846000Y-143614000D01*
X121896000Y-142494000D02*
X121246000Y-142494000D01*
X121246000Y-143614000D02*
X121246000Y-141374000D01*
X116356000Y-142494000D02*
X117006000Y-142494000D01*
X121246000Y-141374000D02*
X117006000Y-141374000D01*
X117006000Y-141374000D02*
X117006000Y-143614000D01*
%TO.C,R8*%
X118142000Y-71274000D02*
X118142000Y-74014000D01*
X125452000Y-72644000D02*
X124682000Y-72644000D01*
X118142000Y-74014000D02*
X124682000Y-74014000D01*
X117372000Y-72644000D02*
X118142000Y-72644000D01*
X124682000Y-71274000D02*
X118142000Y-71274000D01*
X124682000Y-74014000D02*
X124682000Y-71274000D01*
%TO.C,U2*%
X128200000Y-53728000D02*
X128200000Y-74288000D01*
X138480000Y-53728000D02*
X128200000Y-53728000D01*
X135990000Y-74228000D02*
X135990000Y-53788000D01*
X135990000Y-53788000D02*
X130690000Y-53788000D01*
X138480000Y-74288000D02*
X138480000Y-53728000D01*
X130690000Y-53788000D02*
X130690000Y-74228000D01*
X130690000Y-74228000D02*
X132340000Y-74228000D01*
X134340000Y-74228000D02*
X135990000Y-74228000D01*
X128200000Y-74288000D02*
X138480000Y-74288000D01*
X134340000Y-74228000D02*
G75*
G03*
X132340000Y-74228000I-1000000J0D01*
G01*
%TO.C,J14*%
X105470000Y-138684000D02*
X105470000Y-136084000D01*
X102810000Y-141284000D02*
X102810000Y-139954000D01*
X104140000Y-141284000D02*
X102810000Y-141284000D01*
X105470000Y-136084000D02*
X102810000Y-136084000D01*
X102810000Y-138684000D02*
X102810000Y-136084000D01*
X105470000Y-138684000D02*
X102810000Y-138684000D01*
%TO.C,R6*%
X118142000Y-64870000D02*
X124682000Y-64870000D01*
X125452000Y-63500000D02*
X124682000Y-63500000D01*
X124682000Y-64870000D02*
X124682000Y-62130000D01*
X118142000Y-62130000D02*
X118142000Y-64870000D01*
X124682000Y-62130000D02*
X118142000Y-62130000D01*
X117372000Y-63500000D02*
X118142000Y-63500000D01*
%TO.C,C3*%
X143094000Y-110386000D02*
X139354000Y-110386000D01*
X143094000Y-110386000D02*
X143094000Y-117626000D01*
X139354000Y-110386000D02*
X139354000Y-117626000D01*
X143094000Y-117626000D02*
X139354000Y-117626000D01*
%TO.C,R19*%
X116356000Y-145288000D02*
X117126000Y-145288000D01*
X117126000Y-143918000D02*
X117126000Y-146658000D01*
X124436000Y-145288000D02*
X123666000Y-145288000D01*
X117126000Y-146658000D02*
X123666000Y-146658000D01*
X123666000Y-146658000D02*
X123666000Y-143918000D01*
X123666000Y-143918000D02*
X117126000Y-143918000D01*
%TO.C,D4*%
X140155000Y-38535000D02*
X140155000Y-41475000D01*
X146615000Y-40005000D02*
X145595000Y-40005000D01*
X145595000Y-41475000D02*
X145595000Y-38535000D01*
X141175000Y-38535000D02*
X141175000Y-41475000D01*
X141055000Y-38535000D02*
X141055000Y-41475000D01*
X145595000Y-38535000D02*
X140155000Y-38535000D01*
X139135000Y-40005000D02*
X140155000Y-40005000D01*
X140155000Y-41475000D02*
X145595000Y-41475000D01*
X140935000Y-38535000D02*
X140935000Y-41475000D01*
%TO.C,R4*%
X120496000Y-113316000D02*
X117756000Y-113316000D01*
X119126000Y-112546000D02*
X119126000Y-113316000D01*
X117756000Y-113316000D02*
X117756000Y-119856000D01*
X117756000Y-119856000D02*
X120496000Y-119856000D01*
X119126000Y-120626000D02*
X119126000Y-119856000D01*
X120496000Y-119856000D02*
X120496000Y-113316000D01*
%TO.C,R10*%
X149328000Y-66548000D02*
X148558000Y-66548000D01*
X142018000Y-67918000D02*
X148558000Y-67918000D01*
X148558000Y-67918000D02*
X148558000Y-65178000D01*
X141248000Y-66548000D02*
X142018000Y-66548000D01*
X148558000Y-65178000D02*
X142018000Y-65178000D01*
X142018000Y-65178000D02*
X142018000Y-67918000D01*
%TO.C,R1*%
X124682000Y-67918000D02*
X124682000Y-65178000D01*
X125452000Y-66548000D02*
X124682000Y-66548000D01*
X124682000Y-65178000D02*
X118142000Y-65178000D01*
X118142000Y-67918000D02*
X124682000Y-67918000D01*
X118142000Y-65178000D02*
X118142000Y-67918000D01*
X117372000Y-66548000D02*
X118142000Y-66548000D01*
%TO.C,R14*%
X151992000Y-122142000D02*
X151992000Y-115602000D01*
X150622000Y-122912000D02*
X150622000Y-122142000D01*
X149252000Y-115602000D02*
X149252000Y-122142000D01*
X150622000Y-114832000D02*
X150622000Y-115602000D01*
X149252000Y-122142000D02*
X151992000Y-122142000D01*
X151992000Y-115602000D02*
X149252000Y-115602000D01*
%TO.C,G\u002A\u002A\u002A*%
G36*
X138483453Y-141191089D02*
G01*
X138121184Y-140850231D01*
X137809354Y-140471349D01*
X137549764Y-140058632D01*
X137344213Y-139616268D01*
X137194504Y-139148446D01*
X137102434Y-138659354D01*
X137069806Y-138153182D01*
X137074578Y-138066606D01*
X137271040Y-138066606D01*
X137275288Y-138269717D01*
X137287356Y-138473850D01*
X137307548Y-138667932D01*
X137320803Y-138757847D01*
X137358645Y-138955690D01*
X137405452Y-139152236D01*
X137457665Y-139336977D01*
X137511725Y-139499402D01*
X137564073Y-139629002D01*
X137611151Y-139715270D01*
X137649400Y-139747694D01*
X137655681Y-139746792D01*
X137694518Y-139733867D01*
X137791456Y-139702119D01*
X137940162Y-139653609D01*
X138134305Y-139590398D01*
X138367551Y-139514545D01*
X138633568Y-139428111D01*
X138926023Y-139333157D01*
X139238584Y-139231741D01*
X139285303Y-139216588D01*
X139599370Y-139114537D01*
X139893478Y-139018606D01*
X140161409Y-138930848D01*
X140396946Y-138853318D01*
X140402776Y-138851386D01*
X141681634Y-138851386D01*
X142394339Y-139829948D01*
X142559589Y-140055176D01*
X142713278Y-140261463D01*
X142850701Y-140442735D01*
X142967152Y-140592918D01*
X143057926Y-140705937D01*
X143118317Y-140775721D01*
X143143171Y-140796469D01*
X143178250Y-140764181D01*
X143238008Y-140689809D01*
X143310585Y-140588300D01*
X143323564Y-140569093D01*
X143428353Y-140391580D01*
X143526924Y-140186847D01*
X143610400Y-139976709D01*
X143669905Y-139782981D01*
X143693726Y-139659385D01*
X143712183Y-139502914D01*
X143039677Y-139286305D01*
X142810046Y-139212407D01*
X142576598Y-139137393D01*
X142356412Y-139066744D01*
X142166567Y-139005939D01*
X142024402Y-138960541D01*
X141681634Y-138851386D01*
X140402776Y-138851386D01*
X140593873Y-138788067D01*
X140745972Y-138737151D01*
X140847027Y-138702623D01*
X140890819Y-138686537D01*
X140892088Y-138685820D01*
X140897183Y-138665269D01*
X140872795Y-138638427D01*
X140815066Y-138603828D01*
X140720136Y-138560004D01*
X140584145Y-138505489D01*
X140403233Y-138438816D01*
X140334433Y-138414764D01*
X141706770Y-138414764D01*
X141737184Y-138408074D01*
X141821377Y-138383633D01*
X141948777Y-138344823D01*
X142108811Y-138295026D01*
X142290905Y-138237625D01*
X142484487Y-138176000D01*
X142678983Y-138113535D01*
X142863822Y-138053611D01*
X143028429Y-137999609D01*
X143162233Y-137954913D01*
X143254660Y-137922903D01*
X143295137Y-137906962D01*
X143295814Y-137906481D01*
X143287953Y-137873207D01*
X143234400Y-137812218D01*
X143146466Y-137732382D01*
X143035464Y-137642566D01*
X142912706Y-137551640D01*
X142789504Y-137468470D01*
X142677170Y-137401925D01*
X142611885Y-137370327D01*
X142492583Y-137320479D01*
X142099676Y-137861394D01*
X141979327Y-138027680D01*
X141873881Y-138174524D01*
X141789366Y-138293437D01*
X141731809Y-138375929D01*
X141707238Y-138413510D01*
X141706770Y-138414764D01*
X140334433Y-138414764D01*
X140173542Y-138358518D01*
X139891212Y-138263127D01*
X139552382Y-138151178D01*
X139153194Y-138021203D01*
X139087454Y-137999926D01*
X138762807Y-137895184D01*
X138608589Y-137845679D01*
X140952685Y-137845679D01*
X141117663Y-138073163D01*
X141194167Y-138177287D01*
X141254145Y-138256356D01*
X141287800Y-138297548D01*
X141291506Y-138300647D01*
X141294795Y-138268871D01*
X141297532Y-138181905D01*
X141299465Y-138052290D01*
X141300343Y-137892570D01*
X141300370Y-137858074D01*
X141300370Y-137415501D01*
X141204367Y-137483861D01*
X141129153Y-137556673D01*
X141053985Y-137658585D01*
X141030525Y-137698950D01*
X140952685Y-137845679D01*
X138608589Y-137845679D01*
X138457065Y-137797039D01*
X138176389Y-137707437D01*
X137926937Y-137628318D01*
X137714870Y-137561626D01*
X137546346Y-137509303D01*
X137427526Y-137473293D01*
X137364569Y-137455537D01*
X137356505Y-137453980D01*
X137326196Y-137485868D01*
X137302192Y-137574149D01*
X137284796Y-137707748D01*
X137274311Y-137875592D01*
X137271040Y-138066606D01*
X137074578Y-138066606D01*
X137098419Y-137634116D01*
X137190074Y-137106348D01*
X137254159Y-136860911D01*
X137424546Y-136387189D01*
X137655736Y-135924467D01*
X137940832Y-135481604D01*
X138272936Y-135067458D01*
X138485936Y-134851966D01*
X138794236Y-134851966D01*
X138813330Y-134882525D01*
X138867582Y-134961436D01*
X138952444Y-135082383D01*
X139063373Y-135239051D01*
X139195822Y-135425124D01*
X139345245Y-135634287D01*
X139507096Y-135860225D01*
X139676831Y-136096623D01*
X139849903Y-136337164D01*
X140021766Y-136575535D01*
X140187874Y-136805419D01*
X140343683Y-137020501D01*
X140484646Y-137214466D01*
X140606217Y-137380998D01*
X140703851Y-137513782D01*
X140773002Y-137606503D01*
X140809124Y-137652845D01*
X140813269Y-137656984D01*
X140832407Y-137631703D01*
X140876507Y-137567288D01*
X140904665Y-137525066D01*
X140985874Y-137425933D01*
X141092776Y-137324247D01*
X141146232Y-137282258D01*
X141300370Y-137171565D01*
X141300370Y-137143255D01*
X142621000Y-137143255D01*
X142844734Y-137268375D01*
X142978450Y-137354002D01*
X143129644Y-137467273D01*
X143269534Y-137586354D01*
X143293552Y-137608877D01*
X143395272Y-137703562D01*
X143479758Y-137777301D01*
X143534571Y-137819467D01*
X143546928Y-137825387D01*
X143583850Y-137815445D01*
X143678818Y-137786504D01*
X143825487Y-137740586D01*
X144017513Y-137679709D01*
X144248553Y-137605896D01*
X144512261Y-137521165D01*
X144802295Y-137427537D01*
X145112310Y-137327033D01*
X145134544Y-137319809D01*
X145445287Y-137218631D01*
X145736013Y-137123583D01*
X146000443Y-137036744D01*
X146232296Y-136960196D01*
X146425291Y-136896019D01*
X146573148Y-136846294D01*
X146669587Y-136813103D01*
X146708328Y-136798525D01*
X146708729Y-136798243D01*
X146703675Y-136759121D01*
X146667267Y-136673714D01*
X146605086Y-136552514D01*
X146522712Y-136406015D01*
X146425724Y-136244709D01*
X146355088Y-136133180D01*
X146119631Y-135799980D01*
X145851620Y-135472856D01*
X145571721Y-135176299D01*
X145454688Y-135065935D01*
X145319975Y-134948804D01*
X145172698Y-134828806D01*
X145023225Y-134713465D01*
X144881926Y-134610307D01*
X144759167Y-134526854D01*
X144665318Y-134470632D01*
X144610746Y-134449164D01*
X144605508Y-134449687D01*
X144579821Y-134478168D01*
X144518985Y-134555199D01*
X144427631Y-134674507D01*
X144310394Y-134829824D01*
X144171907Y-135014879D01*
X144016804Y-135223402D01*
X143849717Y-135449123D01*
X143675280Y-135685771D01*
X143498127Y-135927077D01*
X143322891Y-136166771D01*
X143154205Y-136398581D01*
X142996703Y-136616239D01*
X142855017Y-136813474D01*
X142756780Y-136951484D01*
X142621000Y-137143255D01*
X141300370Y-137143255D01*
X141300370Y-135433172D01*
X141299759Y-134991000D01*
X141297911Y-134615497D01*
X141294804Y-134305608D01*
X141290419Y-134060279D01*
X141284732Y-133878458D01*
X141277723Y-133759089D01*
X141269371Y-133701119D01*
X141265075Y-133694780D01*
X141216907Y-133701093D01*
X141121219Y-133717811D01*
X140996816Y-133741610D01*
X140968742Y-133747208D01*
X140472210Y-133876852D01*
X139983865Y-134061923D01*
X139523896Y-134294210D01*
X139327388Y-134414663D01*
X139149745Y-134535135D01*
X138999727Y-134646063D01*
X138885284Y-134740928D01*
X138814363Y-134813211D01*
X138794236Y-134851966D01*
X138485936Y-134851966D01*
X138645152Y-134690888D01*
X139050582Y-134360754D01*
X139359689Y-134156481D01*
X139862065Y-133894393D01*
X140389228Y-133693492D01*
X140935779Y-133554331D01*
X141496323Y-133477460D01*
X142065462Y-133463432D01*
X142637799Y-133512797D01*
X143207938Y-133626106D01*
X143555328Y-133727846D01*
X144116868Y-133948058D01*
X144648657Y-134226445D01*
X145146437Y-134558717D01*
X145605951Y-134940585D01*
X146022944Y-135367760D01*
X146393157Y-135835952D01*
X146712334Y-136340872D01*
X146976218Y-136878229D01*
X147152304Y-137352380D01*
X147310433Y-137957990D01*
X147402610Y-138572950D01*
X147429220Y-139192934D01*
X147390649Y-139813615D01*
X147287283Y-140430669D01*
X147119507Y-141039767D01*
X146887707Y-141636585D01*
X146743453Y-141937792D01*
X146412993Y-142512105D01*
X146031498Y-143044309D01*
X145602568Y-143531669D01*
X145129802Y-143971449D01*
X144616799Y-144360913D01*
X144067160Y-144697326D01*
X143484485Y-144977954D01*
X142872372Y-145200060D01*
X142240371Y-145359721D01*
X142002238Y-145404242D01*
X141785809Y-145438760D01*
X141600381Y-145462246D01*
X141455253Y-145473669D01*
X141359720Y-145471998D01*
X141325770Y-145461103D01*
X141320768Y-145423104D01*
X141316091Y-145323944D01*
X141311837Y-145170195D01*
X141308103Y-144968429D01*
X141304988Y-144725218D01*
X141302591Y-144447133D01*
X141301008Y-144140748D01*
X141300338Y-143812634D01*
X141300322Y-143756002D01*
X141300274Y-142076780D01*
X140817722Y-142072638D01*
X140446175Y-142055497D01*
X140113775Y-142007387D01*
X139796985Y-141922995D01*
X139472269Y-141797012D01*
X139352109Y-141741977D01*
X138998619Y-141547184D01*
X139437703Y-141547184D01*
X139468657Y-141579546D01*
X139553241Y-141622674D01*
X139679040Y-141672309D01*
X139833640Y-141724189D01*
X140004625Y-141774054D01*
X140179580Y-141817644D01*
X140296569Y-141841919D01*
X140409299Y-141857182D01*
X140555014Y-141868675D01*
X140718726Y-141876222D01*
X140885450Y-141879648D01*
X141040200Y-141878777D01*
X141167988Y-141873434D01*
X141253830Y-141863443D01*
X141281073Y-141853453D01*
X141285136Y-141816366D01*
X141288512Y-141718660D01*
X141291146Y-141567446D01*
X141292983Y-141369835D01*
X141293968Y-141132938D01*
X141293990Y-141056808D01*
X143289212Y-141056808D01*
X143323205Y-141107566D01*
X143390793Y-141203435D01*
X143487204Y-141337923D01*
X143607668Y-141504541D01*
X143747412Y-141696797D01*
X143901664Y-141908201D01*
X144065654Y-142132263D01*
X144234610Y-142362492D01*
X144403759Y-142592397D01*
X144568332Y-142815489D01*
X144723555Y-143025276D01*
X144864657Y-143215269D01*
X144986867Y-143378976D01*
X145085414Y-143509907D01*
X145155525Y-143601572D01*
X145192429Y-143647480D01*
X145196790Y-143651580D01*
X145228503Y-143628507D01*
X145295449Y-143566237D01*
X145386757Y-143475191D01*
X145459667Y-143399581D01*
X145891587Y-142900052D01*
X146266763Y-142371747D01*
X146582562Y-141819158D01*
X146836351Y-141246778D01*
X146989822Y-140788586D01*
X147048801Y-140584126D01*
X145494878Y-140080716D01*
X145184962Y-139980662D01*
X144895171Y-139887777D01*
X144631769Y-139804020D01*
X144401022Y-139731351D01*
X144209195Y-139671732D01*
X144062551Y-139627122D01*
X143967357Y-139599482D01*
X143929877Y-139590772D01*
X143929586Y-139590910D01*
X143916475Y-139628162D01*
X143892607Y-139713500D01*
X143862938Y-139829123D01*
X143860308Y-139839773D01*
X143759430Y-140150344D01*
X143610668Y-140470898D01*
X143424984Y-140777874D01*
X143421520Y-140782914D01*
X143338843Y-140912934D01*
X143293680Y-141006999D01*
X143289212Y-141056808D01*
X141293990Y-141056808D01*
X141294046Y-140863866D01*
X141293163Y-140569731D01*
X141292275Y-140404266D01*
X141283437Y-138975206D01*
X140360570Y-140244363D01*
X140172767Y-140503342D01*
X139997790Y-140745996D01*
X139839580Y-140966763D01*
X139702076Y-141160082D01*
X139589220Y-141320389D01*
X139504949Y-141442123D01*
X139453206Y-141519721D01*
X139437703Y-141547184D01*
X138998619Y-141547184D01*
X138894362Y-141489733D01*
X138483453Y-141191089D01*
G37*
D12*
X138483453Y-141191089D02*
X138121184Y-140850231D01*
X137809354Y-140471349D01*
X137549764Y-140058632D01*
X137344213Y-139616268D01*
X137194504Y-139148446D01*
X137102434Y-138659354D01*
X137069806Y-138153182D01*
X137074578Y-138066606D01*
X137271040Y-138066606D01*
X137275288Y-138269717D01*
X137287356Y-138473850D01*
X137307548Y-138667932D01*
X137320803Y-138757847D01*
X137358645Y-138955690D01*
X137405452Y-139152236D01*
X137457665Y-139336977D01*
X137511725Y-139499402D01*
X137564073Y-139629002D01*
X137611151Y-139715270D01*
X137649400Y-139747694D01*
X137655681Y-139746792D01*
X137694518Y-139733867D01*
X137791456Y-139702119D01*
X137940162Y-139653609D01*
X138134305Y-139590398D01*
X138367551Y-139514545D01*
X138633568Y-139428111D01*
X138926023Y-139333157D01*
X139238584Y-139231741D01*
X139285303Y-139216588D01*
X139599370Y-139114537D01*
X139893478Y-139018606D01*
X140161409Y-138930848D01*
X140396946Y-138853318D01*
X140402776Y-138851386D01*
X141681634Y-138851386D01*
X142394339Y-139829948D01*
X142559589Y-140055176D01*
X142713278Y-140261463D01*
X142850701Y-140442735D01*
X142967152Y-140592918D01*
X143057926Y-140705937D01*
X143118317Y-140775721D01*
X143143171Y-140796469D01*
X143178250Y-140764181D01*
X143238008Y-140689809D01*
X143310585Y-140588300D01*
X143323564Y-140569093D01*
X143428353Y-140391580D01*
X143526924Y-140186847D01*
X143610400Y-139976709D01*
X143669905Y-139782981D01*
X143693726Y-139659385D01*
X143712183Y-139502914D01*
X143039677Y-139286305D01*
X142810046Y-139212407D01*
X142576598Y-139137393D01*
X142356412Y-139066744D01*
X142166567Y-139005939D01*
X142024402Y-138960541D01*
X141681634Y-138851386D01*
X140402776Y-138851386D01*
X140593873Y-138788067D01*
X140745972Y-138737151D01*
X140847027Y-138702623D01*
X140890819Y-138686537D01*
X140892088Y-138685820D01*
X140897183Y-138665269D01*
X140872795Y-138638427D01*
X140815066Y-138603828D01*
X140720136Y-138560004D01*
X140584145Y-138505489D01*
X140403233Y-138438816D01*
X140334433Y-138414764D01*
X141706770Y-138414764D01*
X141737184Y-138408074D01*
X141821377Y-138383633D01*
X141948777Y-138344823D01*
X142108811Y-138295026D01*
X142290905Y-138237625D01*
X142484487Y-138176000D01*
X142678983Y-138113535D01*
X142863822Y-138053611D01*
X143028429Y-137999609D01*
X143162233Y-137954913D01*
X143254660Y-137922903D01*
X143295137Y-137906962D01*
X143295814Y-137906481D01*
X143287953Y-137873207D01*
X143234400Y-137812218D01*
X143146466Y-137732382D01*
X143035464Y-137642566D01*
X142912706Y-137551640D01*
X142789504Y-137468470D01*
X142677170Y-137401925D01*
X142611885Y-137370327D01*
X142492583Y-137320479D01*
X142099676Y-137861394D01*
X141979327Y-138027680D01*
X141873881Y-138174524D01*
X141789366Y-138293437D01*
X141731809Y-138375929D01*
X141707238Y-138413510D01*
X141706770Y-138414764D01*
X140334433Y-138414764D01*
X140173542Y-138358518D01*
X139891212Y-138263127D01*
X139552382Y-138151178D01*
X139153194Y-138021203D01*
X139087454Y-137999926D01*
X138762807Y-137895184D01*
X138608589Y-137845679D01*
X140952685Y-137845679D01*
X141117663Y-138073163D01*
X141194167Y-138177287D01*
X141254145Y-138256356D01*
X141287800Y-138297548D01*
X141291506Y-138300647D01*
X141294795Y-138268871D01*
X141297532Y-138181905D01*
X141299465Y-138052290D01*
X141300343Y-137892570D01*
X141300370Y-137858074D01*
X141300370Y-137415501D01*
X141204367Y-137483861D01*
X141129153Y-137556673D01*
X141053985Y-137658585D01*
X141030525Y-137698950D01*
X140952685Y-137845679D01*
X138608589Y-137845679D01*
X138457065Y-137797039D01*
X138176389Y-137707437D01*
X137926937Y-137628318D01*
X137714870Y-137561626D01*
X137546346Y-137509303D01*
X137427526Y-137473293D01*
X137364569Y-137455537D01*
X137356505Y-137453980D01*
X137326196Y-137485868D01*
X137302192Y-137574149D01*
X137284796Y-137707748D01*
X137274311Y-137875592D01*
X137271040Y-138066606D01*
X137074578Y-138066606D01*
X137098419Y-137634116D01*
X137190074Y-137106348D01*
X137254159Y-136860911D01*
X137424546Y-136387189D01*
X137655736Y-135924467D01*
X137940832Y-135481604D01*
X138272936Y-135067458D01*
X138485936Y-134851966D01*
X138794236Y-134851966D01*
X138813330Y-134882525D01*
X138867582Y-134961436D01*
X138952444Y-135082383D01*
X139063373Y-135239051D01*
X139195822Y-135425124D01*
X139345245Y-135634287D01*
X139507096Y-135860225D01*
X139676831Y-136096623D01*
X139849903Y-136337164D01*
X140021766Y-136575535D01*
X140187874Y-136805419D01*
X140343683Y-137020501D01*
X140484646Y-137214466D01*
X140606217Y-137380998D01*
X140703851Y-137513782D01*
X140773002Y-137606503D01*
X140809124Y-137652845D01*
X140813269Y-137656984D01*
X140832407Y-137631703D01*
X140876507Y-137567288D01*
X140904665Y-137525066D01*
X140985874Y-137425933D01*
X141092776Y-137324247D01*
X141146232Y-137282258D01*
X141300370Y-137171565D01*
X141300370Y-137143255D01*
X142621000Y-137143255D01*
X142844734Y-137268375D01*
X142978450Y-137354002D01*
X143129644Y-137467273D01*
X143269534Y-137586354D01*
X143293552Y-137608877D01*
X143395272Y-137703562D01*
X143479758Y-137777301D01*
X143534571Y-137819467D01*
X143546928Y-137825387D01*
X143583850Y-137815445D01*
X143678818Y-137786504D01*
X143825487Y-137740586D01*
X144017513Y-137679709D01*
X144248553Y-137605896D01*
X144512261Y-137521165D01*
X144802295Y-137427537D01*
X145112310Y-137327033D01*
X145134544Y-137319809D01*
X145445287Y-137218631D01*
X145736013Y-137123583D01*
X146000443Y-137036744D01*
X146232296Y-136960196D01*
X146425291Y-136896019D01*
X146573148Y-136846294D01*
X146669587Y-136813103D01*
X146708328Y-136798525D01*
X146708729Y-136798243D01*
X146703675Y-136759121D01*
X146667267Y-136673714D01*
X146605086Y-136552514D01*
X146522712Y-136406015D01*
X146425724Y-136244709D01*
X146355088Y-136133180D01*
X146119631Y-135799980D01*
X145851620Y-135472856D01*
X145571721Y-135176299D01*
X145454688Y-135065935D01*
X145319975Y-134948804D01*
X145172698Y-134828806D01*
X145023225Y-134713465D01*
X144881926Y-134610307D01*
X144759167Y-134526854D01*
X144665318Y-134470632D01*
X144610746Y-134449164D01*
X144605508Y-134449687D01*
X144579821Y-134478168D01*
X144518985Y-134555199D01*
X144427631Y-134674507D01*
X144310394Y-134829824D01*
X144171907Y-135014879D01*
X144016804Y-135223402D01*
X143849717Y-135449123D01*
X143675280Y-135685771D01*
X143498127Y-135927077D01*
X143322891Y-136166771D01*
X143154205Y-136398581D01*
X142996703Y-136616239D01*
X142855017Y-136813474D01*
X142756780Y-136951484D01*
X142621000Y-137143255D01*
X141300370Y-137143255D01*
X141300370Y-135433172D01*
X141299759Y-134991000D01*
X141297911Y-134615497D01*
X141294804Y-134305608D01*
X141290419Y-134060279D01*
X141284732Y-133878458D01*
X141277723Y-133759089D01*
X141269371Y-133701119D01*
X141265075Y-133694780D01*
X141216907Y-133701093D01*
X141121219Y-133717811D01*
X140996816Y-133741610D01*
X140968742Y-133747208D01*
X140472210Y-133876852D01*
X139983865Y-134061923D01*
X139523896Y-134294210D01*
X139327388Y-134414663D01*
X139149745Y-134535135D01*
X138999727Y-134646063D01*
X138885284Y-134740928D01*
X138814363Y-134813211D01*
X138794236Y-134851966D01*
X138485936Y-134851966D01*
X138645152Y-134690888D01*
X139050582Y-134360754D01*
X139359689Y-134156481D01*
X139862065Y-133894393D01*
X140389228Y-133693492D01*
X140935779Y-133554331D01*
X141496323Y-133477460D01*
X142065462Y-133463432D01*
X142637799Y-133512797D01*
X143207938Y-133626106D01*
X143555328Y-133727846D01*
X144116868Y-133948058D01*
X144648657Y-134226445D01*
X145146437Y-134558717D01*
X145605951Y-134940585D01*
X146022944Y-135367760D01*
X146393157Y-135835952D01*
X146712334Y-136340872D01*
X146976218Y-136878229D01*
X147152304Y-137352380D01*
X147310433Y-137957990D01*
X147402610Y-138572950D01*
X147429220Y-139192934D01*
X147390649Y-139813615D01*
X147287283Y-140430669D01*
X147119507Y-141039767D01*
X146887707Y-141636585D01*
X146743453Y-141937792D01*
X146412993Y-142512105D01*
X146031498Y-143044309D01*
X145602568Y-143531669D01*
X145129802Y-143971449D01*
X144616799Y-144360913D01*
X144067160Y-144697326D01*
X143484485Y-144977954D01*
X142872372Y-145200060D01*
X142240371Y-145359721D01*
X142002238Y-145404242D01*
X141785809Y-145438760D01*
X141600381Y-145462246D01*
X141455253Y-145473669D01*
X141359720Y-145471998D01*
X141325770Y-145461103D01*
X141320768Y-145423104D01*
X141316091Y-145323944D01*
X141311837Y-145170195D01*
X141308103Y-144968429D01*
X141304988Y-144725218D01*
X141302591Y-144447133D01*
X141301008Y-144140748D01*
X141300338Y-143812634D01*
X141300322Y-143756002D01*
X141300274Y-142076780D01*
X140817722Y-142072638D01*
X140446175Y-142055497D01*
X140113775Y-142007387D01*
X139796985Y-141922995D01*
X139472269Y-141797012D01*
X139352109Y-141741977D01*
X138998619Y-141547184D01*
X139437703Y-141547184D01*
X139468657Y-141579546D01*
X139553241Y-141622674D01*
X139679040Y-141672309D01*
X139833640Y-141724189D01*
X140004625Y-141774054D01*
X140179580Y-141817644D01*
X140296569Y-141841919D01*
X140409299Y-141857182D01*
X140555014Y-141868675D01*
X140718726Y-141876222D01*
X140885450Y-141879648D01*
X141040200Y-141878777D01*
X141167988Y-141873434D01*
X141253830Y-141863443D01*
X141281073Y-141853453D01*
X141285136Y-141816366D01*
X141288512Y-141718660D01*
X141291146Y-141567446D01*
X141292983Y-141369835D01*
X141293968Y-141132938D01*
X141293990Y-141056808D01*
X143289212Y-141056808D01*
X143323205Y-141107566D01*
X143390793Y-141203435D01*
X143487204Y-141337923D01*
X143607668Y-141504541D01*
X143747412Y-141696797D01*
X143901664Y-141908201D01*
X144065654Y-142132263D01*
X144234610Y-142362492D01*
X144403759Y-142592397D01*
X144568332Y-142815489D01*
X144723555Y-143025276D01*
X144864657Y-143215269D01*
X144986867Y-143378976D01*
X145085414Y-143509907D01*
X145155525Y-143601572D01*
X145192429Y-143647480D01*
X145196790Y-143651580D01*
X145228503Y-143628507D01*
X145295449Y-143566237D01*
X145386757Y-143475191D01*
X145459667Y-143399581D01*
X145891587Y-142900052D01*
X146266763Y-142371747D01*
X146582562Y-141819158D01*
X146836351Y-141246778D01*
X146989822Y-140788586D01*
X147048801Y-140584126D01*
X145494878Y-140080716D01*
X145184962Y-139980662D01*
X144895171Y-139887777D01*
X144631769Y-139804020D01*
X144401022Y-139731351D01*
X144209195Y-139671732D01*
X144062551Y-139627122D01*
X143967357Y-139599482D01*
X143929877Y-139590772D01*
X143929586Y-139590910D01*
X143916475Y-139628162D01*
X143892607Y-139713500D01*
X143862938Y-139829123D01*
X143860308Y-139839773D01*
X143759430Y-140150344D01*
X143610668Y-140470898D01*
X143424984Y-140777874D01*
X143421520Y-140782914D01*
X143338843Y-140912934D01*
X143293680Y-141006999D01*
X143289212Y-141056808D01*
X141293990Y-141056808D01*
X141294046Y-140863866D01*
X141293163Y-140569731D01*
X141292275Y-140404266D01*
X141283437Y-138975206D01*
X140360570Y-140244363D01*
X140172767Y-140503342D01*
X139997790Y-140745996D01*
X139839580Y-140966763D01*
X139702076Y-141160082D01*
X139589220Y-141320389D01*
X139504949Y-141442123D01*
X139453206Y-141519721D01*
X139437703Y-141547184D01*
X138998619Y-141547184D01*
X138894362Y-141489733D01*
X138483453Y-141191089D01*
D11*
%TO.C,D3*%
X115775000Y-38535000D02*
X115775000Y-41475000D01*
X115655000Y-38535000D02*
X115655000Y-41475000D01*
X114755000Y-38535000D02*
X114755000Y-41475000D01*
X120195000Y-41475000D02*
X120195000Y-38535000D01*
X121215000Y-40005000D02*
X120195000Y-40005000D01*
X120195000Y-38535000D02*
X114755000Y-38535000D01*
X113735000Y-40005000D02*
X114755000Y-40005000D01*
X114755000Y-41475000D02*
X120195000Y-41475000D01*
X115535000Y-38535000D02*
X115535000Y-41475000D01*
%TO.C,U4*%
X138490000Y-171570000D02*
X138490000Y-161170000D01*
X128210000Y-161170000D02*
X128210000Y-171570000D01*
X136000000Y-171510000D02*
X136000000Y-161230000D01*
X130700000Y-171510000D02*
X132350000Y-171510000D01*
X138490000Y-161170000D02*
X128210000Y-161170000D01*
X136000000Y-161230000D02*
X130700000Y-161230000D01*
X134350000Y-171510000D02*
X136000000Y-171510000D01*
X130700000Y-161230000D02*
X130700000Y-171510000D01*
X128210000Y-171570000D02*
X138490000Y-171570000D01*
X134350000Y-171510000D02*
G75*
G03*
X132350000Y-171510000I-1000000J0D01*
G01*
%TO.C,R18*%
X143034000Y-87276000D02*
X143034000Y-90016000D01*
X143034000Y-90016000D02*
X149574000Y-90016000D01*
X149574000Y-90016000D02*
X149574000Y-87276000D01*
X149574000Y-87276000D02*
X143034000Y-87276000D01*
X150344000Y-88646000D02*
X149574000Y-88646000D01*
X142264000Y-88646000D02*
X143034000Y-88646000D01*
%TO.C,D1*%
X123040000Y-113916000D02*
X120800000Y-113916000D01*
X123040000Y-113196000D02*
X120800000Y-113196000D01*
X123040000Y-113796000D02*
X120800000Y-113796000D01*
X121920000Y-112546000D02*
X121920000Y-113196000D01*
X123040000Y-114036000D02*
X120800000Y-114036000D01*
X121920000Y-118086000D02*
X121920000Y-117436000D01*
X120800000Y-113196000D02*
X120800000Y-117436000D01*
X123040000Y-117436000D02*
X123040000Y-113196000D01*
X120800000Y-117436000D02*
X123040000Y-117436000D01*
%TO.C,R15*%
X141248000Y-63500000D02*
X142018000Y-63500000D01*
X148558000Y-62130000D02*
X142018000Y-62130000D01*
X142018000Y-62130000D02*
X142018000Y-64870000D01*
X148558000Y-64870000D02*
X148558000Y-62130000D01*
X149328000Y-63500000D02*
X148558000Y-63500000D01*
X142018000Y-64870000D02*
X148558000Y-64870000D01*
%TO.C,R2*%
X125452000Y-69596000D02*
X124682000Y-69596000D01*
X124682000Y-68226000D02*
X118142000Y-68226000D01*
X118142000Y-68226000D02*
X118142000Y-70966000D01*
X118142000Y-70966000D02*
X124682000Y-70966000D01*
X124682000Y-70966000D02*
X124682000Y-68226000D01*
X117372000Y-69596000D02*
X118142000Y-69596000D01*
%TO.C,C10*%
X143280000Y-160366000D02*
X143280000Y-156626000D01*
X143280000Y-160366000D02*
X136040000Y-160366000D01*
X136040000Y-160366000D02*
X136040000Y-156626000D01*
X143280000Y-156626000D02*
X136040000Y-156626000D01*
%TO.C,C12*%
X139114888Y-48030000D02*
X139114888Y-49491000D01*
X140315888Y-45164000D02*
X140315888Y-45950000D01*
X140115888Y-44986000D02*
X140115888Y-45950000D01*
X140635888Y-45547000D02*
X140635888Y-48433000D01*
X138634888Y-44414000D02*
X138634888Y-45950000D01*
X138954888Y-44454000D02*
X138954888Y-45950000D01*
X139395888Y-44576000D02*
X139395888Y-45950000D01*
X139275888Y-48030000D02*
X139275888Y-49445000D01*
X139915888Y-48030000D02*
X139915888Y-49139000D01*
X140515888Y-45385000D02*
X140515888Y-48595000D01*
X139595888Y-44661000D02*
X139595888Y-45950000D01*
X140755888Y-45739000D02*
X140755888Y-48241000D01*
X140075888Y-44955000D02*
X140075888Y-45950000D01*
X138834888Y-44434000D02*
X138834888Y-45950000D01*
X139435888Y-44592000D02*
X139435888Y-45950000D01*
X139675888Y-48030000D02*
X139675888Y-49280000D01*
X140155888Y-48030000D02*
X140155888Y-48961000D01*
X139515888Y-48030000D02*
X139515888Y-49355000D01*
X140315888Y-48030000D02*
X140315888Y-48816000D01*
X138474888Y-44410000D02*
X138474888Y-45950000D01*
X138914888Y-44447000D02*
X138914888Y-45950000D01*
X139755888Y-44743000D02*
X139755888Y-45950000D01*
X139195888Y-44510000D02*
X139195888Y-45950000D01*
X140795888Y-45812000D02*
X140795888Y-48168000D01*
X138914888Y-48030000D02*
X138914888Y-49533000D01*
X138674888Y-48030000D02*
X138674888Y-49563000D01*
X138954888Y-48030000D02*
X138954888Y-49526000D01*
X139635888Y-48030000D02*
X139635888Y-49300000D01*
X138874888Y-44440000D02*
X138874888Y-45950000D01*
X140035888Y-48030000D02*
X140035888Y-49055000D01*
X139755888Y-48030000D02*
X139755888Y-49237000D01*
X138754888Y-44425000D02*
X138754888Y-45950000D01*
X140115888Y-48030000D02*
X140115888Y-48994000D01*
X140595888Y-45490000D02*
X140595888Y-48490000D01*
X140475888Y-48030000D02*
X140475888Y-48643000D01*
X139235888Y-48030000D02*
X139235888Y-49458000D01*
X138594888Y-44412000D02*
X138594888Y-45950000D01*
X140395888Y-48030000D02*
X140395888Y-48733000D01*
X139034888Y-44470000D02*
X139034888Y-45950000D01*
X139995888Y-44895000D02*
X139995888Y-45950000D01*
X139355888Y-44562000D02*
X139355888Y-45950000D01*
X139355888Y-48030000D02*
X139355888Y-49418000D01*
X139154888Y-44499000D02*
X139154888Y-45950000D01*
X140555888Y-45436000D02*
X140555888Y-48544000D01*
X140995888Y-46313000D02*
X140995888Y-47667000D01*
X140875888Y-45979000D02*
X140875888Y-48001000D01*
X138994888Y-48030000D02*
X138994888Y-49518000D01*
X139074888Y-44479000D02*
X139074888Y-45950000D01*
X140435888Y-48030000D02*
X140435888Y-48689000D01*
X140235888Y-45089000D02*
X140235888Y-45950000D01*
X138754888Y-48030000D02*
X138754888Y-49555000D01*
X139195888Y-48030000D02*
X139195888Y-49470000D01*
X140235888Y-48030000D02*
X140235888Y-48891000D01*
X139595888Y-48030000D02*
X139595888Y-49319000D01*
X141035888Y-46472000D02*
X141035888Y-47508000D01*
X139635888Y-44680000D02*
X139635888Y-45950000D01*
X140715888Y-45671000D02*
X140715888Y-48309000D01*
X139715888Y-44722000D02*
X139715888Y-45950000D01*
X140195888Y-48030000D02*
X140195888Y-48927000D01*
X139315888Y-44548000D02*
X139315888Y-45950000D01*
X138514888Y-44410000D02*
X138514888Y-45950000D01*
X139114888Y-44489000D02*
X139114888Y-45950000D01*
X139555888Y-44642000D02*
X139555888Y-45950000D01*
X140395888Y-45247000D02*
X140395888Y-45950000D01*
X140355888Y-45205000D02*
X140355888Y-45950000D01*
X139034888Y-48030000D02*
X139034888Y-49510000D01*
X140075888Y-48030000D02*
X140075888Y-49025000D01*
X140675888Y-45607000D02*
X140675888Y-48373000D01*
X140275888Y-45126000D02*
X140275888Y-45950000D01*
X135670113Y-45515000D02*
X136170113Y-45515000D01*
X140915888Y-46075000D02*
X140915888Y-47905000D01*
X139675888Y-44700000D02*
X139675888Y-45950000D01*
X139235888Y-44522000D02*
X139235888Y-45950000D01*
X140355888Y-48030000D02*
X140355888Y-48775000D01*
X140835888Y-45892000D02*
X140835888Y-48088000D01*
X139875888Y-48030000D02*
X139875888Y-49165000D01*
X138594888Y-48030000D02*
X138594888Y-49568000D01*
X138794888Y-48030000D02*
X138794888Y-49551000D01*
X139275888Y-44535000D02*
X139275888Y-45950000D01*
X140435888Y-45291000D02*
X140435888Y-45950000D01*
X138794888Y-44429000D02*
X138794888Y-45950000D01*
X139154888Y-48030000D02*
X139154888Y-49481000D01*
X138554888Y-48030000D02*
X138554888Y-49569000D01*
X138674888Y-44417000D02*
X138674888Y-45950000D01*
X138634888Y-48030000D02*
X138634888Y-49566000D01*
X139835888Y-48030000D02*
X139835888Y-49190000D01*
X139315888Y-48030000D02*
X139315888Y-49432000D01*
X139835888Y-44790000D02*
X139835888Y-45950000D01*
X139875888Y-44815000D02*
X139875888Y-45950000D01*
X141075888Y-46706000D02*
X141075888Y-47274000D01*
X139955888Y-48030000D02*
X139955888Y-49112000D01*
X139955888Y-44868000D02*
X139955888Y-45950000D01*
X140475888Y-45337000D02*
X140475888Y-45950000D01*
X140955888Y-46185000D02*
X140955888Y-47795000D01*
X140155888Y-45019000D02*
X140155888Y-45950000D01*
X139435888Y-48030000D02*
X139435888Y-49388000D01*
X140195888Y-45053000D02*
X140195888Y-45950000D01*
X139074888Y-48030000D02*
X139074888Y-49501000D01*
X139715888Y-48030000D02*
X139715888Y-49258000D01*
X138474888Y-48030000D02*
X138474888Y-49570000D01*
X139555888Y-48030000D02*
X139555888Y-49338000D01*
X139795888Y-48030000D02*
X139795888Y-49214000D01*
X139915888Y-44841000D02*
X139915888Y-45950000D01*
X139795888Y-44766000D02*
X139795888Y-45950000D01*
X140035888Y-44925000D02*
X140035888Y-45950000D01*
X135920113Y-45265000D02*
X135920113Y-45765000D01*
X138714888Y-44421000D02*
X138714888Y-45950000D01*
X139475888Y-44608000D02*
X139475888Y-45950000D01*
X139995888Y-48030000D02*
X139995888Y-49085000D01*
X138554888Y-44411000D02*
X138554888Y-45950000D01*
X139395888Y-48030000D02*
X139395888Y-49404000D01*
X138714888Y-48030000D02*
X138714888Y-49559000D01*
X139515888Y-44625000D02*
X139515888Y-45950000D01*
X139475888Y-48030000D02*
X139475888Y-49372000D01*
X138834888Y-48030000D02*
X138834888Y-49546000D01*
X138994888Y-44462000D02*
X138994888Y-45950000D01*
X138874888Y-48030000D02*
X138874888Y-49540000D01*
X140275888Y-48030000D02*
X140275888Y-48854000D01*
X138514888Y-48030000D02*
X138514888Y-49570000D01*
X141094888Y-46990000D02*
G75*
G03*
X141094888Y-46990000I-2620000J0D01*
G01*
%TO.C,R28*%
X125452000Y-172212000D02*
X124682000Y-172212000D01*
X118142000Y-173582000D02*
X124682000Y-173582000D01*
X124682000Y-170842000D02*
X118142000Y-170842000D01*
X124682000Y-173582000D02*
X124682000Y-170842000D01*
X117372000Y-172212000D02*
X118142000Y-172212000D01*
X118142000Y-170842000D02*
X118142000Y-173582000D01*
%TO.C,R5*%
X114708000Y-115602000D02*
X114708000Y-122142000D01*
X116078000Y-122912000D02*
X116078000Y-122142000D01*
X117448000Y-115602000D02*
X114708000Y-115602000D01*
X114708000Y-122142000D02*
X117448000Y-122142000D01*
X116078000Y-114832000D02*
X116078000Y-115602000D01*
X117448000Y-122142000D02*
X117448000Y-115602000D01*
%TO.C,R12*%
X144680000Y-94774000D02*
X144680000Y-101314000D01*
X146050000Y-94004000D02*
X146050000Y-94774000D01*
X147420000Y-94774000D02*
X144680000Y-94774000D01*
X144680000Y-101314000D02*
X147420000Y-101314000D01*
X147420000Y-101314000D02*
X147420000Y-94774000D01*
X146050000Y-102084000D02*
X146050000Y-101314000D01*
%TO.C,C9*%
X128420000Y-173644000D02*
X135660000Y-173644000D01*
X135660000Y-173644000D02*
X135660000Y-177384000D01*
X128420000Y-173644000D02*
X128420000Y-177384000D01*
X128420000Y-177384000D02*
X135660000Y-177384000D01*
%TO.C,C8*%
X146582000Y-108296000D02*
X139342000Y-108296000D01*
X146582000Y-108296000D02*
X146582000Y-104556000D01*
X146582000Y-104556000D02*
X139342000Y-104556000D01*
X139342000Y-108296000D02*
X139342000Y-104556000D01*
%TO.C,J12*%
X105470000Y-63246000D02*
X105470000Y-55566000D01*
X102810000Y-65846000D02*
X102810000Y-64516000D01*
X102810000Y-63246000D02*
X102810000Y-55566000D01*
X105470000Y-63246000D02*
X102810000Y-63246000D01*
X104140000Y-65846000D02*
X102810000Y-65846000D01*
X105470000Y-55566000D02*
X102810000Y-55566000D01*
%TO.C,R7*%
X116078000Y-110466000D02*
X116078000Y-109696000D01*
X114708000Y-109696000D02*
X117448000Y-109696000D01*
X114708000Y-103156000D02*
X114708000Y-109696000D01*
X116078000Y-102386000D02*
X116078000Y-103156000D01*
X117448000Y-109696000D02*
X117448000Y-103156000D01*
X117448000Y-103156000D02*
X114708000Y-103156000D01*
%TO.C,J17*%
X135365000Y-43014990D02*
X135365000Y-36994990D01*
X127165000Y-37594990D02*
X127165000Y-36994990D01*
X133735000Y-43014990D02*
X133735000Y-42014990D01*
X133185000Y-36994990D02*
X133185000Y-37594990D01*
X128105000Y-36994990D02*
X128105000Y-37594990D01*
X126365000Y-42014990D02*
X133985000Y-42014990D01*
X133985000Y-42014990D02*
X133985000Y-43014990D01*
X124985000Y-36994990D02*
X124985000Y-43014990D01*
X126365000Y-42014990D02*
X126615000Y-41484990D01*
X124695000Y-38024990D02*
X124695000Y-42024990D01*
X134785000Y-37594990D02*
X134785000Y-36994990D01*
X124985000Y-43014990D02*
X135365000Y-43014990D01*
X129705000Y-37594990D02*
X129705000Y-36994990D01*
X128105000Y-37594990D02*
X129705000Y-37594990D01*
X126365000Y-43014990D02*
X126365000Y-42014990D01*
X126615000Y-41484990D02*
X133735000Y-41484990D01*
X130645000Y-36994990D02*
X130645000Y-37594990D01*
X126615000Y-43014990D02*
X126615000Y-42014990D01*
X133185000Y-37594990D02*
X134785000Y-37594990D01*
X125565000Y-36994990D02*
X125565000Y-37594990D01*
X133735000Y-41484990D02*
X133985000Y-42014990D01*
X132245000Y-37594990D02*
X132245000Y-36994990D01*
X130645000Y-37594990D02*
X132245000Y-37594990D01*
X135365000Y-36994990D02*
X124985000Y-36994990D01*
X125565000Y-37594990D02*
X127165000Y-37594990D01*
%TO.C,R17*%
X141248000Y-72644000D02*
X142018000Y-72644000D01*
X148558000Y-71274000D02*
X142018000Y-71274000D01*
X148558000Y-74014000D02*
X148558000Y-71274000D01*
X149328000Y-72644000D02*
X148558000Y-72644000D01*
X142018000Y-74014000D02*
X148558000Y-74014000D01*
X142018000Y-71274000D02*
X142018000Y-74014000D01*
%TO.C,R23*%
X125452000Y-163068000D02*
X124682000Y-163068000D01*
X117372000Y-163068000D02*
X118142000Y-163068000D01*
X118142000Y-161698000D02*
X118142000Y-164438000D01*
X124682000Y-161698000D02*
X118142000Y-161698000D01*
X124682000Y-164438000D02*
X124682000Y-161698000D01*
X118142000Y-164438000D02*
X124682000Y-164438000D01*
%TO.C,R13*%
X146204000Y-119856000D02*
X148944000Y-119856000D01*
X148944000Y-119856000D02*
X148944000Y-113316000D01*
X148944000Y-113316000D02*
X146204000Y-113316000D01*
X147574000Y-112546000D02*
X147574000Y-113316000D01*
X146204000Y-113316000D02*
X146204000Y-119856000D01*
X147574000Y-120626000D02*
X147574000Y-119856000D01*
%TO.C,C7*%
X127358000Y-104556000D02*
X120118000Y-104556000D01*
X120118000Y-108296000D02*
X120118000Y-104556000D01*
X127358000Y-108296000D02*
X120118000Y-108296000D01*
X127358000Y-108296000D02*
X127358000Y-104556000D01*
%TO.C,R20*%
X148558000Y-168502000D02*
X148558000Y-165762000D01*
X148558000Y-165762000D02*
X142018000Y-165762000D01*
X142018000Y-165762000D02*
X142018000Y-168502000D01*
X149328000Y-167132000D02*
X148558000Y-167132000D01*
X142018000Y-168502000D02*
X148558000Y-168502000D01*
X141248000Y-167132000D02*
X142018000Y-167132000D01*
%TO.C,C2*%
X127346000Y-102466000D02*
X127346000Y-95226000D01*
X123606000Y-102466000D02*
X127346000Y-102466000D01*
X123606000Y-102466000D02*
X123606000Y-95226000D01*
X123606000Y-95226000D02*
X127346000Y-95226000D01*
%TO.C,R26*%
X124682000Y-150522000D02*
X118142000Y-150522000D01*
X124682000Y-153262000D02*
X124682000Y-150522000D01*
X125452000Y-151892000D02*
X124682000Y-151892000D01*
X118142000Y-153262000D02*
X124682000Y-153262000D01*
X118142000Y-150522000D02*
X118142000Y-153262000D01*
X117372000Y-151892000D02*
X118142000Y-151892000D01*
%TO.C,J4*%
X59630000Y-143824000D02*
X59630000Y-142494000D01*
X62290000Y-141224000D02*
X62290000Y-133544000D01*
X62290000Y-141224000D02*
X59630000Y-141224000D01*
X62290000Y-133544000D02*
X59630000Y-133544000D01*
X59630000Y-141224000D02*
X59630000Y-133544000D01*
X60960000Y-143824000D02*
X59630000Y-143824000D01*
%TO.C,C6*%
X146582000Y-56296000D02*
X139342000Y-56296000D01*
X139342000Y-60036000D02*
X139342000Y-56296000D01*
X146582000Y-60036000D02*
X146582000Y-56296000D01*
X146582000Y-60036000D02*
X139342000Y-60036000D01*
%TO.C,R3*%
X121258000Y-94774000D02*
X118518000Y-94774000D01*
X119888000Y-94004000D02*
X119888000Y-94774000D01*
X118518000Y-94774000D02*
X118518000Y-101314000D01*
X118518000Y-101314000D02*
X121258000Y-101314000D01*
X119888000Y-102084000D02*
X119888000Y-101314000D01*
X121258000Y-101314000D02*
X121258000Y-94774000D01*
%TO.C,R24*%
X125452000Y-166116000D02*
X124682000Y-166116000D01*
X124682000Y-167486000D02*
X124682000Y-164746000D01*
X117372000Y-166116000D02*
X118142000Y-166116000D01*
X124682000Y-164746000D02*
X118142000Y-164746000D01*
X118142000Y-164746000D02*
X118142000Y-167486000D01*
X118142000Y-167486000D02*
X124682000Y-167486000D01*
%TO.C,R9*%
X117126000Y-87276000D02*
X117126000Y-90016000D01*
X116356000Y-88646000D02*
X117126000Y-88646000D01*
X117126000Y-90016000D02*
X123666000Y-90016000D01*
X123666000Y-87276000D02*
X117126000Y-87276000D01*
X124436000Y-88646000D02*
X123666000Y-88646000D01*
X123666000Y-90016000D02*
X123666000Y-87276000D01*
%TO.C,R27*%
X125452000Y-169164000D02*
X124682000Y-169164000D01*
X117372000Y-169164000D02*
X118142000Y-169164000D01*
X118142000Y-170534000D02*
X124682000Y-170534000D01*
X124682000Y-167794000D02*
X118142000Y-167794000D01*
X124682000Y-170534000D02*
X124682000Y-167794000D01*
X118142000Y-167794000D02*
X118142000Y-170534000D01*
%TO.C,J5*%
X60960000Y-65846000D02*
X59630000Y-65846000D01*
X62290000Y-55566000D02*
X59630000Y-55566000D01*
X62290000Y-63246000D02*
X59630000Y-63246000D01*
X62290000Y-63246000D02*
X62290000Y-55566000D01*
X59630000Y-65846000D02*
X59630000Y-64516000D01*
X59630000Y-63246000D02*
X59630000Y-55566000D01*
%TO.C,D6*%
X121542000Y-158854000D02*
X121542000Y-156614000D01*
X121422000Y-158854000D02*
X121422000Y-156614000D01*
X117372000Y-157734000D02*
X118022000Y-157734000D01*
X122912000Y-157734000D02*
X122262000Y-157734000D01*
X121662000Y-158854000D02*
X121662000Y-156614000D01*
X118022000Y-158854000D02*
X122262000Y-158854000D01*
X118022000Y-156614000D02*
X118022000Y-158854000D01*
X122262000Y-158854000D02*
X122262000Y-156614000D01*
X122262000Y-156614000D02*
X118022000Y-156614000D01*
%TO.C,R16*%
X149252000Y-103156000D02*
X149252000Y-109696000D01*
X149252000Y-109696000D02*
X151992000Y-109696000D01*
X150622000Y-110466000D02*
X150622000Y-109696000D01*
X151992000Y-109696000D02*
X151992000Y-103156000D01*
X150622000Y-102386000D02*
X150622000Y-103156000D01*
X151992000Y-103156000D02*
X149252000Y-103156000D01*
%TO.C,C11*%
X123885888Y-45247000D02*
X123885888Y-45950000D01*
X123725888Y-45089000D02*
X123725888Y-45950000D01*
X124085888Y-45490000D02*
X124085888Y-48490000D01*
X124165888Y-45607000D02*
X124165888Y-48373000D01*
X122805888Y-44548000D02*
X122805888Y-45950000D01*
X121964888Y-44410000D02*
X121964888Y-45950000D01*
X121964888Y-48030000D02*
X121964888Y-49570000D01*
X123885888Y-48030000D02*
X123885888Y-48733000D01*
X123605888Y-44986000D02*
X123605888Y-45950000D01*
X122364888Y-48030000D02*
X122364888Y-49540000D01*
X123285888Y-44766000D02*
X123285888Y-45950000D01*
X122644888Y-44499000D02*
X122644888Y-45950000D01*
X124365888Y-45979000D02*
X124365888Y-48001000D01*
X123085888Y-44661000D02*
X123085888Y-45950000D01*
X122845888Y-44562000D02*
X122845888Y-45950000D01*
X124245888Y-45739000D02*
X124245888Y-48241000D01*
X123125888Y-44680000D02*
X123125888Y-45950000D01*
X123005888Y-44625000D02*
X123005888Y-45950000D01*
X123965888Y-48030000D02*
X123965888Y-48643000D01*
X122685888Y-48030000D02*
X122685888Y-49470000D01*
X123805888Y-45164000D02*
X123805888Y-45950000D01*
X123325888Y-44790000D02*
X123325888Y-45950000D01*
X122004888Y-44410000D02*
X122004888Y-45950000D01*
X124485888Y-46313000D02*
X124485888Y-47667000D01*
X122845888Y-48030000D02*
X122845888Y-49418000D01*
X123765888Y-45126000D02*
X123765888Y-45950000D01*
X122164888Y-48030000D02*
X122164888Y-49563000D01*
X122725888Y-48030000D02*
X122725888Y-49458000D01*
X123565888Y-48030000D02*
X123565888Y-49025000D01*
X123445888Y-44868000D02*
X123445888Y-45950000D01*
X123485888Y-44895000D02*
X123485888Y-45950000D01*
X124125888Y-45547000D02*
X124125888Y-48433000D01*
X123725888Y-48030000D02*
X123725888Y-48891000D01*
X123325888Y-48030000D02*
X123325888Y-49190000D01*
X122524888Y-48030000D02*
X122524888Y-49510000D01*
X123565888Y-44955000D02*
X123565888Y-45950000D01*
X123765888Y-48030000D02*
X123765888Y-48854000D01*
X123925888Y-45291000D02*
X123925888Y-45950000D01*
X123085888Y-48030000D02*
X123085888Y-49319000D01*
X123645888Y-48030000D02*
X123645888Y-48961000D01*
X123205888Y-48030000D02*
X123205888Y-49258000D01*
X123125888Y-48030000D02*
X123125888Y-49300000D01*
X123205888Y-44722000D02*
X123205888Y-45950000D01*
X124445888Y-46185000D02*
X124445888Y-47795000D01*
X123165888Y-48030000D02*
X123165888Y-49280000D01*
X119410113Y-45265000D02*
X119410113Y-45765000D01*
X123605888Y-48030000D02*
X123605888Y-48994000D01*
X122364888Y-44440000D02*
X122364888Y-45950000D01*
X122084888Y-44412000D02*
X122084888Y-45950000D01*
X122324888Y-44434000D02*
X122324888Y-45950000D01*
X122885888Y-44576000D02*
X122885888Y-45950000D01*
X122204888Y-44421000D02*
X122204888Y-45950000D01*
X122564888Y-48030000D02*
X122564888Y-49501000D01*
X123845888Y-48030000D02*
X123845888Y-48775000D01*
X123965888Y-45337000D02*
X123965888Y-45950000D01*
X122244888Y-48030000D02*
X122244888Y-49555000D01*
X123165888Y-44700000D02*
X123165888Y-45950000D01*
X122444888Y-44454000D02*
X122444888Y-45950000D01*
X122124888Y-48030000D02*
X122124888Y-49566000D01*
X124565888Y-46706000D02*
X124565888Y-47274000D01*
X123685888Y-45053000D02*
X123685888Y-45950000D01*
X122685888Y-44510000D02*
X122685888Y-45950000D01*
X122925888Y-48030000D02*
X122925888Y-49388000D01*
X123045888Y-48030000D02*
X123045888Y-49338000D01*
X122164888Y-44417000D02*
X122164888Y-45950000D01*
X122925888Y-44592000D02*
X122925888Y-45950000D01*
X122044888Y-48030000D02*
X122044888Y-49569000D01*
X123925888Y-48030000D02*
X123925888Y-48689000D01*
X124285888Y-45812000D02*
X124285888Y-48168000D01*
X122965888Y-44608000D02*
X122965888Y-45950000D01*
X119160113Y-45515000D02*
X119660113Y-45515000D01*
X123245888Y-48030000D02*
X123245888Y-49237000D01*
X123525888Y-48030000D02*
X123525888Y-49055000D01*
X124525888Y-46472000D02*
X124525888Y-47508000D01*
X123445888Y-48030000D02*
X123445888Y-49112000D01*
X123365888Y-44815000D02*
X123365888Y-45950000D01*
X122644888Y-48030000D02*
X122644888Y-49481000D01*
X122044888Y-44411000D02*
X122044888Y-45950000D01*
X123045888Y-44642000D02*
X123045888Y-45950000D01*
X122284888Y-48030000D02*
X122284888Y-49551000D01*
X122244888Y-44425000D02*
X122244888Y-45950000D01*
X123685888Y-48030000D02*
X123685888Y-48927000D01*
X122765888Y-48030000D02*
X122765888Y-49445000D01*
X122524888Y-44470000D02*
X122524888Y-45950000D01*
X122004888Y-48030000D02*
X122004888Y-49570000D01*
X122084888Y-48030000D02*
X122084888Y-49568000D01*
X122604888Y-48030000D02*
X122604888Y-49491000D01*
X124005888Y-45385000D02*
X124005888Y-48595000D01*
X123285888Y-48030000D02*
X123285888Y-49214000D01*
X123005888Y-48030000D02*
X123005888Y-49355000D01*
X122885888Y-48030000D02*
X122885888Y-49404000D01*
X122965888Y-48030000D02*
X122965888Y-49372000D01*
X123525888Y-44925000D02*
X123525888Y-45950000D01*
X122564888Y-44479000D02*
X122564888Y-45950000D01*
X123645888Y-45019000D02*
X123645888Y-45950000D01*
X124045888Y-45436000D02*
X124045888Y-48544000D01*
X122284888Y-44429000D02*
X122284888Y-45950000D01*
X122725888Y-44522000D02*
X122725888Y-45950000D01*
X123485888Y-48030000D02*
X123485888Y-49085000D01*
X124205888Y-45671000D02*
X124205888Y-48309000D01*
X122324888Y-48030000D02*
X122324888Y-49546000D01*
X122484888Y-48030000D02*
X122484888Y-49518000D01*
X122404888Y-44447000D02*
X122404888Y-45950000D01*
X122484888Y-44462000D02*
X122484888Y-45950000D01*
X123805888Y-48030000D02*
X123805888Y-48816000D01*
X122124888Y-44414000D02*
X122124888Y-45950000D01*
X122404888Y-48030000D02*
X122404888Y-49533000D01*
X123405888Y-48030000D02*
X123405888Y-49139000D01*
X122204888Y-48030000D02*
X122204888Y-49559000D01*
X122444888Y-48030000D02*
X122444888Y-49526000D01*
X122765888Y-44535000D02*
X122765888Y-45950000D01*
X123845888Y-45205000D02*
X123845888Y-45950000D01*
X122604888Y-44489000D02*
X122604888Y-45950000D01*
X123405888Y-44841000D02*
X123405888Y-45950000D01*
X123365888Y-48030000D02*
X123365888Y-49165000D01*
X122805888Y-48030000D02*
X122805888Y-49432000D01*
X124405888Y-46075000D02*
X124405888Y-47905000D01*
X124325888Y-45892000D02*
X124325888Y-48088000D01*
X123245888Y-44743000D02*
X123245888Y-45950000D01*
X124584888Y-46990000D02*
G75*
G03*
X124584888Y-46990000I-2620000J0D01*
G01*
%TO.C,D2*%
X145900000Y-114036000D02*
X143660000Y-114036000D01*
X144780000Y-118086000D02*
X144780000Y-117436000D01*
X143660000Y-117436000D02*
X145900000Y-117436000D01*
X145900000Y-113916000D02*
X143660000Y-113916000D01*
X143660000Y-113196000D02*
X143660000Y-117436000D01*
X145900000Y-113196000D02*
X143660000Y-113196000D01*
X145900000Y-117436000D02*
X145900000Y-113196000D01*
X145900000Y-113796000D02*
X143660000Y-113796000D01*
X144780000Y-112546000D02*
X144780000Y-113196000D01*
%TO.C,C4*%
X139354000Y-102466000D02*
X139354000Y-95226000D01*
X143094000Y-102466000D02*
X143094000Y-95226000D01*
X139354000Y-95226000D02*
X143094000Y-95226000D01*
X139354000Y-102466000D02*
X143094000Y-102466000D01*
%TO.C,C1*%
X127346000Y-110386000D02*
X123606000Y-110386000D01*
X127346000Y-117626000D02*
X123606000Y-117626000D01*
X123606000Y-110386000D02*
X123606000Y-117626000D01*
X127346000Y-110386000D02*
X127346000Y-117626000D01*
%TO.C,Q1*%
X117928000Y-97304000D02*
X117928000Y-93704000D01*
X113478000Y-95504000D02*
G75*
G03*
X114979193Y-97860400I2600000J0D01*
G01*
X117928000Y-93704000D02*
G75*
G03*
X117200795Y-93179816I-1850000J-1800000D01*
G01*
X117200795Y-97828184D02*
G75*
G03*
X117928000Y-97304000I-1122795J2324184D01*
G01*
X114979193Y-93147600D02*
G75*
G03*
X113478000Y-95504000I1098807J-2356400D01*
G01*
%TO.C,U1*%
X128210000Y-97416000D02*
X128210000Y-115436000D01*
X130700000Y-115376000D02*
X136000000Y-115376000D01*
X138490000Y-97416000D02*
X128210000Y-97416000D01*
X136000000Y-97476000D02*
X134350000Y-97476000D01*
X132350000Y-97476000D02*
X130700000Y-97476000D01*
X138490000Y-115436000D02*
X138490000Y-97416000D01*
X128210000Y-115436000D02*
X138490000Y-115436000D01*
X136000000Y-115376000D02*
X136000000Y-97476000D01*
X130700000Y-97476000D02*
X130700000Y-115376000D01*
X132350000Y-97476000D02*
G75*
G03*
X134350000Y-97476000I1000000J0D01*
G01*
%TO.C,R25*%
X142018000Y-174598000D02*
X148558000Y-174598000D01*
X142018000Y-171858000D02*
X142018000Y-174598000D01*
X141248000Y-173228000D02*
X142018000Y-173228000D01*
X149328000Y-173228000D02*
X148558000Y-173228000D01*
X148558000Y-171858000D02*
X142018000Y-171858000D01*
X148558000Y-174598000D02*
X148558000Y-171858000D01*
%TO.C,D7*%
X122262000Y-161394000D02*
X122262000Y-159154000D01*
X121662000Y-161394000D02*
X121662000Y-159154000D01*
X121422000Y-161394000D02*
X121422000Y-159154000D01*
X118022000Y-159154000D02*
X118022000Y-161394000D01*
X122262000Y-159154000D02*
X118022000Y-159154000D01*
X118022000Y-161394000D02*
X122262000Y-161394000D01*
X122912000Y-160274000D02*
X122262000Y-160274000D01*
X117372000Y-160274000D02*
X118022000Y-160274000D01*
X121542000Y-161394000D02*
X121542000Y-159154000D01*
%TD*%
M02*
