M48
; DRILL file {KiCad (6.0.6-0)} date Saturday, 03 September 2022 at 01:28:20
; FORMAT={-:-/ absolute / metric / decimal}
; #@! TF.CreationDate,2022-09-03T01:28:20+01:00
; #@! TF.GenerationSoftware,Kicad,Pcbnew,(6.0.6-0)
; #@! TF.FileFunction,MixedPlating,1,2
FMAT,2
METRIC
; #@! TA.AperFunction,Plated,PTH,ViaDrill
T1C0.381
; #@! TA.AperFunction,Plated,PTH,ComponentDrill
T2C0.800
; #@! TA.AperFunction,Plated,PTH,ComponentDrill
T3C1.000
; #@! TA.AperFunction,Plated,PTH,ComponentDrill
T4C1.100
; #@! TA.AperFunction,Plated,PTH,ComponentDrill
T5C1.190
; #@! TA.AperFunction,Plated,PTH,ComponentDrill
T6C3.200
; #@! TA.AperFunction,Plated,PTH,ComponentDrill
T7C5.100
; #@! TA.AperFunction,NonPlated,NPTH,ComponentDrill
T8C0.500
%
G90
G05
T1
X126.3Y-77.4
X128.85Y-87.95
X133.35Y-106.68
X137.75Y-87.3
X141.0Y-77.85
T2
X66.802Y-47.498
X66.802Y-66.548
X66.802Y-79.502
X66.802Y-104.648
X72.898Y-161.798
X72.898Y-180.848
X92.202Y-104.648
X92.202Y-161.798
X92.202Y-180.848
X98.298Y-47.498
X98.298Y-66.548
X98.298Y-79.502
X115.316Y-88.646
X115.316Y-142.494
X115.316Y-145.288
X116.078Y-92.964
X116.078Y-95.504
X116.078Y-98.044
X116.078Y-101.346
X116.078Y-111.506
X116.078Y-113.792
X116.078Y-123.952
X116.332Y-63.5
X116.332Y-66.548
X116.332Y-69.596
X116.332Y-72.644
X116.332Y-151.892
X116.332Y-154.94
X116.332Y-157.734
X116.332Y-160.274
X116.332Y-163.068
X116.332Y-166.116
X116.332Y-169.164
X116.332Y-172.212
X119.126Y-111.506
X119.126Y-121.666
X119.888Y-92.964
X119.888Y-103.124
X120.965Y-46.99
X121.238Y-58.166
X121.238Y-106.426
X121.92Y-111.506
X121.92Y-119.126
X122.936Y-142.494
X122.965Y-46.99
X123.952Y-157.734
X123.952Y-160.274
X125.476Y-88.646
X125.476Y-96.346
X125.476Y-101.346
X125.476Y-111.506
X125.476Y-116.506
X125.476Y-145.288
X126.238Y-58.166
X126.238Y-106.426
X126.492Y-63.5
X126.492Y-66.548
X126.492Y-69.596
X126.492Y-72.644
X126.492Y-151.892
X126.492Y-154.94
X126.492Y-163.068
X126.492Y-166.116
X126.492Y-169.164
X126.492Y-172.212
X129.53Y-55.118
X129.53Y-57.658
X129.53Y-60.198
X129.53Y-62.738
X129.53Y-65.278
X129.53Y-67.818
X129.53Y-70.358
X129.53Y-72.898
X129.54Y-98.806
X129.54Y-101.346
X129.54Y-103.886
X129.54Y-106.426
X129.54Y-108.966
X129.54Y-111.506
X129.54Y-114.046
X129.54Y-162.56
X129.54Y-165.1
X129.54Y-167.64
X129.54Y-170.18
X129.54Y-175.514
X134.54Y-175.514
X137.15Y-55.118
X137.15Y-57.658
X137.15Y-60.198
X137.15Y-62.738
X137.15Y-65.278
X137.15Y-67.818
X137.15Y-70.358
X137.15Y-72.898
X137.16Y-98.806
X137.16Y-101.346
X137.16Y-103.886
X137.16Y-106.426
X137.16Y-108.966
X137.16Y-111.506
X137.16Y-114.046
X137.16Y-158.496
X137.16Y-162.56
X137.16Y-165.1
X137.16Y-167.64
X137.16Y-170.18
X137.475Y-46.99
X139.475Y-46.99
X140.208Y-63.5
X140.208Y-66.548
X140.208Y-69.596
X140.208Y-72.644
X140.208Y-167.132
X140.208Y-170.18
X140.208Y-173.228
X140.462Y-58.166
X140.462Y-106.426
X141.224Y-88.646
X141.224Y-96.346
X141.224Y-101.346
X141.224Y-111.506
X141.224Y-116.506
X142.16Y-158.496
X144.78Y-111.506
X144.78Y-119.126
X145.462Y-58.166
X145.462Y-106.426
X146.05Y-92.964
X146.05Y-103.124
X147.574Y-111.506
X147.574Y-121.666
X150.368Y-63.5
X150.368Y-66.548
X150.368Y-69.596
X150.368Y-72.644
X150.368Y-167.132
X150.368Y-170.18
X150.368Y-173.228
X150.622Y-92.964
X150.622Y-95.504
X150.622Y-98.044
X150.622Y-101.346
X150.622Y-111.506
X150.622Y-113.792
X150.622Y-123.952
X151.384Y-88.646
T3
X60.96Y-56.896
X60.96Y-59.436
X60.96Y-61.976
X60.96Y-64.516
X60.96Y-134.874
X60.96Y-137.414
X60.96Y-139.954
X60.96Y-142.494
X67.35Y-128.15
X67.35Y-147.2
X69.85Y-128.15
X69.85Y-147.2
X72.35Y-128.15
X72.35Y-147.2
X78.74Y-181.61
X81.28Y-181.61
X83.82Y-181.61
X86.36Y-181.61
X92.75Y-128.15
X92.75Y-147.2
X95.25Y-128.15
X95.25Y-147.2
X97.75Y-128.15
X97.75Y-147.2
X104.14Y-56.896
X104.14Y-59.436
X104.14Y-61.976
X104.14Y-64.516
X104.14Y-137.414
X104.14Y-139.954
X111.76Y-56.896
X111.76Y-59.436
X111.76Y-61.976
X111.76Y-64.516
X111.76Y-134.874
X111.76Y-137.414
X111.76Y-139.954
X111.76Y-142.494
X129.54Y-181.61
X132.08Y-181.61
X134.62Y-181.61
X137.16Y-181.61
X154.94Y-56.896
X154.94Y-59.436
X154.94Y-61.976
X154.94Y-64.516
X154.94Y-137.922
X154.94Y-140.462
T4
X112.395Y-40.005
X122.555Y-40.005
X137.795Y-40.005
X147.955Y-40.005
T5
X126.365Y-40.025
X128.905Y-40.025
X131.445Y-40.025
X133.985Y-40.025
T6
X61.595Y-184.15
X103.505Y-38.1
X112.395Y-184.15
X154.305Y-38.1
T7
X69.85Y-44.45
X69.85Y-63.5
X69.85Y-82.55
X69.85Y-101.6
X69.85Y-158.75
X69.85Y-177.8
X95.25Y-44.45
X95.25Y-63.5
X95.25Y-82.55
X95.25Y-101.6
X95.25Y-158.75
X95.25Y-177.8
T8
X106.85Y-53.175
X106.85Y-53.975
X106.85Y-54.775
X106.85Y-72.225
X106.85Y-73.025
X106.85Y-73.825
X106.85Y-91.275
X106.85Y-92.075
X106.85Y-92.875
X106.85Y-110.325
X106.85Y-111.125
X106.85Y-111.925
X106.85Y-129.375
X106.85Y-130.175
X106.85Y-130.975
X106.85Y-148.425
X106.85Y-149.225
X106.85Y-150.025
X106.85Y-167.475
X106.85Y-168.275
X106.85Y-169.075
X109.05Y-53.175
X109.05Y-53.975
X109.05Y-54.775
X109.05Y-72.225
X109.05Y-73.025
X109.05Y-73.825
X109.05Y-91.275
X109.05Y-92.075
X109.05Y-92.875
X109.05Y-110.325
X109.05Y-111.125
X109.05Y-111.925
X109.05Y-129.375
X109.05Y-130.175
X109.05Y-130.975
X109.05Y-148.425
X109.05Y-149.225
X109.05Y-150.025
X109.05Y-167.475
X109.05Y-168.275
X109.05Y-169.075
T4
G00X65.05Y-120.3
M15
G01X65.05Y-121.0
M16
G05
G00X65.05Y-139.35
M15
G01X65.05Y-140.05
M16
G05
G00X74.65Y-120.3
M15
G01X74.65Y-121.0
M16
G05
G00X74.65Y-139.35
M15
G01X74.65Y-140.05
M16
G05
G00X90.45Y-120.3
M15
G01X90.45Y-121.0
M16
G05
G00X90.45Y-139.35
M15
G01X90.45Y-140.05
M16
G05
G00X100.05Y-120.3
M15
G01X100.05Y-121.0
M16
G05
G00X100.05Y-139.35
M15
G01X100.05Y-140.05
M16
G05
T0
M30
