%TF.GenerationSoftware,KiCad,Pcbnew,(6.0.6-0)*%
%TF.CreationDate,2022-09-03T01:28:16+01:00*%
%TF.ProjectId,4u-variable-integrator,34752d76-6172-4696-9162-6c652d696e74,r02*%
%TF.SameCoordinates,Original*%
%TF.FileFunction,Legend,Bot*%
%TF.FilePolarity,Positive*%
%FSLAX46Y46*%
G04 Gerber Fmt 4.6, Leading zero omitted, Abs format (unit mm)*
G04 Created by KiCad (PCBNEW (6.0.6-0)) date 2022-09-03 01:28:16*
%MOMM*%
%LPD*%
G01*
G04 APERTURE LIST*
%ADD10C,0.150000*%
%ADD11C,0.120000*%
G04 APERTURE END LIST*
D10*
X85835714Y-79292380D02*
X85264285Y-79292380D01*
X85550000Y-80292380D02*
X85550000Y-79292380D01*
X84930952Y-80292380D02*
X84930952Y-79292380D01*
X84502380Y-80292380D02*
X84502380Y-79768571D01*
X84550000Y-79673333D01*
X84645238Y-79625714D01*
X84788095Y-79625714D01*
X84883333Y-79673333D01*
X84930952Y-79720952D01*
X84026190Y-80292380D02*
X84026190Y-79625714D01*
X84026190Y-79292380D02*
X84073809Y-79340000D01*
X84026190Y-79387619D01*
X83978571Y-79340000D01*
X84026190Y-79292380D01*
X84026190Y-79387619D01*
X83597619Y-80244761D02*
X83502380Y-80292380D01*
X83311904Y-80292380D01*
X83216666Y-80244761D01*
X83169047Y-80149523D01*
X83169047Y-80101904D01*
X83216666Y-80006666D01*
X83311904Y-79959047D01*
X83454761Y-79959047D01*
X83550000Y-79911428D01*
X83597619Y-79816190D01*
X83597619Y-79768571D01*
X83550000Y-79673333D01*
X83454761Y-79625714D01*
X83311904Y-79625714D01*
X83216666Y-79673333D01*
X82026190Y-80244761D02*
X81930952Y-80292380D01*
X81740476Y-80292380D01*
X81645238Y-80244761D01*
X81597619Y-80149523D01*
X81597619Y-80101904D01*
X81645238Y-80006666D01*
X81740476Y-79959047D01*
X81883333Y-79959047D01*
X81978571Y-79911428D01*
X82026190Y-79816190D01*
X82026190Y-79768571D01*
X81978571Y-79673333D01*
X81883333Y-79625714D01*
X81740476Y-79625714D01*
X81645238Y-79673333D01*
X81169047Y-80292380D02*
X81169047Y-79625714D01*
X81169047Y-79292380D02*
X81216666Y-79340000D01*
X81169047Y-79387619D01*
X81121428Y-79340000D01*
X81169047Y-79292380D01*
X81169047Y-79387619D01*
X80264285Y-80292380D02*
X80264285Y-79292380D01*
X80264285Y-80244761D02*
X80359523Y-80292380D01*
X80550000Y-80292380D01*
X80645238Y-80244761D01*
X80692857Y-80197142D01*
X80740476Y-80101904D01*
X80740476Y-79816190D01*
X80692857Y-79720952D01*
X80645238Y-79673333D01*
X80550000Y-79625714D01*
X80359523Y-79625714D01*
X80264285Y-79673333D01*
X79407142Y-80244761D02*
X79502380Y-80292380D01*
X79692857Y-80292380D01*
X79788095Y-80244761D01*
X79835714Y-80149523D01*
X79835714Y-79768571D01*
X79788095Y-79673333D01*
X79692857Y-79625714D01*
X79502380Y-79625714D01*
X79407142Y-79673333D01*
X79359523Y-79768571D01*
X79359523Y-79863809D01*
X79835714Y-79959047D01*
X87764285Y-81235714D02*
X87383333Y-81235714D01*
X87621428Y-80902380D02*
X87621428Y-81759523D01*
X87573809Y-81854761D01*
X87478571Y-81902380D01*
X87383333Y-81902380D01*
X86907142Y-81902380D02*
X87002380Y-81854761D01*
X87050000Y-81807142D01*
X87097619Y-81711904D01*
X87097619Y-81426190D01*
X87050000Y-81330952D01*
X87002380Y-81283333D01*
X86907142Y-81235714D01*
X86764285Y-81235714D01*
X86669047Y-81283333D01*
X86621428Y-81330952D01*
X86573809Y-81426190D01*
X86573809Y-81711904D01*
X86621428Y-81807142D01*
X86669047Y-81854761D01*
X86764285Y-81902380D01*
X86907142Y-81902380D01*
X86240476Y-81235714D02*
X86050000Y-81902380D01*
X85859523Y-81426190D01*
X85669047Y-81902380D01*
X85478571Y-81235714D01*
X84669047Y-81902380D02*
X84669047Y-81378571D01*
X84716666Y-81283333D01*
X84811904Y-81235714D01*
X85002380Y-81235714D01*
X85097619Y-81283333D01*
X84669047Y-81854761D02*
X84764285Y-81902380D01*
X85002380Y-81902380D01*
X85097619Y-81854761D01*
X85145238Y-81759523D01*
X85145238Y-81664285D01*
X85097619Y-81569047D01*
X85002380Y-81521428D01*
X84764285Y-81521428D01*
X84669047Y-81473809D01*
X84192857Y-81902380D02*
X84192857Y-81235714D01*
X84192857Y-81426190D02*
X84145238Y-81330952D01*
X84097619Y-81283333D01*
X84002380Y-81235714D01*
X83907142Y-81235714D01*
X83145238Y-81902380D02*
X83145238Y-80902380D01*
X83145238Y-81854761D02*
X83240476Y-81902380D01*
X83430952Y-81902380D01*
X83526190Y-81854761D01*
X83573809Y-81807142D01*
X83621428Y-81711904D01*
X83621428Y-81426190D01*
X83573809Y-81330952D01*
X83526190Y-81283333D01*
X83430952Y-81235714D01*
X83240476Y-81235714D01*
X83145238Y-81283333D01*
X82716666Y-81854761D02*
X82621428Y-81902380D01*
X82430952Y-81902380D01*
X82335714Y-81854761D01*
X82288095Y-81759523D01*
X82288095Y-81711904D01*
X82335714Y-81616666D01*
X82430952Y-81569047D01*
X82573809Y-81569047D01*
X82669047Y-81521428D01*
X82716666Y-81426190D01*
X82716666Y-81378571D01*
X82669047Y-81283333D01*
X82573809Y-81235714D01*
X82430952Y-81235714D01*
X82335714Y-81283333D01*
X81097619Y-81235714D02*
X81097619Y-82235714D01*
X81097619Y-81283333D02*
X81002380Y-81235714D01*
X80811904Y-81235714D01*
X80716666Y-81283333D01*
X80669047Y-81330952D01*
X80621428Y-81426190D01*
X80621428Y-81711904D01*
X80669047Y-81807142D01*
X80716666Y-81854761D01*
X80811904Y-81902380D01*
X81002380Y-81902380D01*
X81097619Y-81854761D01*
X79764285Y-81902380D02*
X79764285Y-81378571D01*
X79811904Y-81283333D01*
X79907142Y-81235714D01*
X80097619Y-81235714D01*
X80192857Y-81283333D01*
X79764285Y-81854761D02*
X79859523Y-81902380D01*
X80097619Y-81902380D01*
X80192857Y-81854761D01*
X80240476Y-81759523D01*
X80240476Y-81664285D01*
X80192857Y-81569047D01*
X80097619Y-81521428D01*
X79859523Y-81521428D01*
X79764285Y-81473809D01*
X79288095Y-81235714D02*
X79288095Y-81902380D01*
X79288095Y-81330952D02*
X79240476Y-81283333D01*
X79145238Y-81235714D01*
X79002380Y-81235714D01*
X78907142Y-81283333D01*
X78859523Y-81378571D01*
X78859523Y-81902380D01*
X78002380Y-81854761D02*
X78097619Y-81902380D01*
X78288095Y-81902380D01*
X78383333Y-81854761D01*
X78430952Y-81759523D01*
X78430952Y-81378571D01*
X78383333Y-81283333D01*
X78288095Y-81235714D01*
X78097619Y-81235714D01*
X78002380Y-81283333D01*
X77954761Y-81378571D01*
X77954761Y-81473809D01*
X78430952Y-81569047D01*
X77383333Y-81902380D02*
X77478571Y-81854761D01*
X77526190Y-81759523D01*
X77526190Y-80902380D01*
%TO.C,J17*%
X127317380Y-35286370D02*
X126984047Y-36286370D01*
X126650714Y-35286370D01*
X126317380Y-35905418D02*
X125555476Y-35905418D01*
X125936428Y-36286370D02*
X125936428Y-35524466D01*
X134937380Y-35413370D02*
X134604047Y-36413370D01*
X134270714Y-35413370D01*
X133937380Y-36032418D02*
X133175476Y-36032418D01*
%TO.C,RV3*%
X91400238Y-115387380D02*
X91733571Y-114911190D01*
X91971666Y-115387380D02*
X91971666Y-114387380D01*
X91590714Y-114387380D01*
X91495476Y-114435000D01*
X91447857Y-114482619D01*
X91400238Y-114577857D01*
X91400238Y-114720714D01*
X91447857Y-114815952D01*
X91495476Y-114863571D01*
X91590714Y-114911190D01*
X91971666Y-114911190D01*
X91114523Y-114387380D02*
X90781190Y-115387380D01*
X90447857Y-114387380D01*
X90209761Y-114387380D02*
X89590714Y-114387380D01*
X89924047Y-114768333D01*
X89781190Y-114768333D01*
X89685952Y-114815952D01*
X89638333Y-114863571D01*
X89590714Y-114958809D01*
X89590714Y-115196904D01*
X89638333Y-115292142D01*
X89685952Y-115339761D01*
X89781190Y-115387380D01*
X90066904Y-115387380D01*
X90162142Y-115339761D01*
X90209761Y-115292142D01*
%TO.C,J13*%
X155749523Y-66298380D02*
X155749523Y-67012666D01*
X155797142Y-67155523D01*
X155892380Y-67250761D01*
X156035238Y-67298380D01*
X156130476Y-67298380D01*
X154749523Y-67298380D02*
X155320952Y-67298380D01*
X155035238Y-67298380D02*
X155035238Y-66298380D01*
X155130476Y-66441238D01*
X155225714Y-66536476D01*
X155320952Y-66584095D01*
X154416190Y-66298380D02*
X153797142Y-66298380D01*
X154130476Y-66679333D01*
X153987619Y-66679333D01*
X153892380Y-66726952D01*
X153844761Y-66774571D01*
X153797142Y-66869809D01*
X153797142Y-67107904D01*
X153844761Y-67203142D01*
X153892380Y-67250761D01*
X153987619Y-67298380D01*
X154273333Y-67298380D01*
X154368571Y-67250761D01*
X154416190Y-67203142D01*
%TO.C,J19*%
X70659523Y-182078380D02*
X70659523Y-182792666D01*
X70707142Y-182935523D01*
X70802380Y-183030761D01*
X70945238Y-183078380D01*
X71040476Y-183078380D01*
X69659523Y-183078380D02*
X70230952Y-183078380D01*
X69945238Y-183078380D02*
X69945238Y-182078380D01*
X70040476Y-182221238D01*
X70135714Y-182316476D01*
X70230952Y-182364095D01*
X69183333Y-183078380D02*
X68992857Y-183078380D01*
X68897619Y-183030761D01*
X68850000Y-182983142D01*
X68754761Y-182840285D01*
X68707142Y-182649809D01*
X68707142Y-182268857D01*
X68754761Y-182173619D01*
X68802380Y-182126000D01*
X68897619Y-182078380D01*
X69088095Y-182078380D01*
X69183333Y-182126000D01*
X69230952Y-182173619D01*
X69278571Y-182268857D01*
X69278571Y-182506952D01*
X69230952Y-182602190D01*
X69183333Y-182649809D01*
X69088095Y-182697428D01*
X68897619Y-182697428D01*
X68802380Y-182649809D01*
X68754761Y-182602190D01*
X68707142Y-182506952D01*
%TO.C,J10*%
X99528380Y-81740476D02*
X100242666Y-81740476D01*
X100385523Y-81692857D01*
X100480761Y-81597619D01*
X100528380Y-81454761D01*
X100528380Y-81359523D01*
X100528380Y-82740476D02*
X100528380Y-82169047D01*
X100528380Y-82454761D02*
X99528380Y-82454761D01*
X99671238Y-82359523D01*
X99766476Y-82264285D01*
X99814095Y-82169047D01*
X99528380Y-83359523D02*
X99528380Y-83454761D01*
X99576000Y-83550000D01*
X99623619Y-83597619D01*
X99718857Y-83645238D01*
X99909333Y-83692857D01*
X100147428Y-83692857D01*
X100337904Y-83645238D01*
X100433142Y-83597619D01*
X100480761Y-83550000D01*
X100528380Y-83454761D01*
X100528380Y-83359523D01*
X100480761Y-83264285D01*
X100433142Y-83216666D01*
X100337904Y-83169047D01*
X100147428Y-83121428D01*
X99909333Y-83121428D01*
X99718857Y-83169047D01*
X99623619Y-83216666D01*
X99576000Y-83264285D01*
X99528380Y-83359523D01*
%TO.C,J16*%
X96059523Y-48728380D02*
X96059523Y-49442666D01*
X96107142Y-49585523D01*
X96202380Y-49680761D01*
X96345238Y-49728380D01*
X96440476Y-49728380D01*
X95059523Y-49728380D02*
X95630952Y-49728380D01*
X95345238Y-49728380D02*
X95345238Y-48728380D01*
X95440476Y-48871238D01*
X95535714Y-48966476D01*
X95630952Y-49014095D01*
X94202380Y-48728380D02*
X94392857Y-48728380D01*
X94488095Y-48776000D01*
X94535714Y-48823619D01*
X94630952Y-48966476D01*
X94678571Y-49156952D01*
X94678571Y-49537904D01*
X94630952Y-49633142D01*
X94583333Y-49680761D01*
X94488095Y-49728380D01*
X94297619Y-49728380D01*
X94202380Y-49680761D01*
X94154761Y-49633142D01*
X94107142Y-49537904D01*
X94107142Y-49299809D01*
X94154761Y-49204571D01*
X94202380Y-49156952D01*
X94297619Y-49109333D01*
X94488095Y-49109333D01*
X94583333Y-49156952D01*
X94630952Y-49204571D01*
X94678571Y-49299809D01*
%TO.C,J2*%
X64476380Y-63166666D02*
X65190666Y-63166666D01*
X65333523Y-63119047D01*
X65428761Y-63023809D01*
X65476380Y-62880952D01*
X65476380Y-62785714D01*
X64571619Y-63595238D02*
X64524000Y-63642857D01*
X64476380Y-63738095D01*
X64476380Y-63976190D01*
X64524000Y-64071428D01*
X64571619Y-64119047D01*
X64666857Y-64166666D01*
X64762095Y-64166666D01*
X64904952Y-64119047D01*
X65476380Y-63547619D01*
X65476380Y-64166666D01*
%TO.C,J18*%
X89876380Y-176990476D02*
X90590666Y-176990476D01*
X90733523Y-176942857D01*
X90828761Y-176847619D01*
X90876380Y-176704761D01*
X90876380Y-176609523D01*
X90876380Y-177990476D02*
X90876380Y-177419047D01*
X90876380Y-177704761D02*
X89876380Y-177704761D01*
X90019238Y-177609523D01*
X90114476Y-177514285D01*
X90162095Y-177419047D01*
X90304952Y-178561904D02*
X90257333Y-178466666D01*
X90209714Y-178419047D01*
X90114476Y-178371428D01*
X90066857Y-178371428D01*
X89971619Y-178419047D01*
X89924000Y-178466666D01*
X89876380Y-178561904D01*
X89876380Y-178752380D01*
X89924000Y-178847619D01*
X89971619Y-178895238D01*
X90066857Y-178942857D01*
X90114476Y-178942857D01*
X90209714Y-178895238D01*
X90257333Y-178847619D01*
X90304952Y-178752380D01*
X90304952Y-178561904D01*
X90352571Y-178466666D01*
X90400190Y-178419047D01*
X90495428Y-178371428D01*
X90685904Y-178371428D01*
X90781142Y-178419047D01*
X90828761Y-178466666D01*
X90876380Y-178561904D01*
X90876380Y-178752380D01*
X90828761Y-178847619D01*
X90781142Y-178895238D01*
X90685904Y-178942857D01*
X90495428Y-178942857D01*
X90400190Y-178895238D01*
X90352571Y-178847619D01*
X90304952Y-178752380D01*
%TO.C,J9*%
X89876380Y-101266666D02*
X90590666Y-101266666D01*
X90733523Y-101219047D01*
X90828761Y-101123809D01*
X90876380Y-100980952D01*
X90876380Y-100885714D01*
X90876380Y-101790476D02*
X90876380Y-101980952D01*
X90828761Y-102076190D01*
X90781142Y-102123809D01*
X90638285Y-102219047D01*
X90447809Y-102266666D01*
X90066857Y-102266666D01*
X89971619Y-102219047D01*
X89924000Y-102171428D01*
X89876380Y-102076190D01*
X89876380Y-101885714D01*
X89924000Y-101790476D01*
X89971619Y-101742857D01*
X90066857Y-101695238D01*
X90304952Y-101695238D01*
X90400190Y-101742857D01*
X90447809Y-101790476D01*
X90495428Y-101885714D01*
X90495428Y-102076190D01*
X90447809Y-102171428D01*
X90400190Y-102219047D01*
X90304952Y-102266666D01*
%TO.C,J22*%
X89876380Y-157940476D02*
X90590666Y-157940476D01*
X90733523Y-157892857D01*
X90828761Y-157797619D01*
X90876380Y-157654761D01*
X90876380Y-157559523D01*
X89971619Y-158369047D02*
X89924000Y-158416666D01*
X89876380Y-158511904D01*
X89876380Y-158750000D01*
X89924000Y-158845238D01*
X89971619Y-158892857D01*
X90066857Y-158940476D01*
X90162095Y-158940476D01*
X90304952Y-158892857D01*
X90876380Y-158321428D01*
X90876380Y-158940476D01*
X89971619Y-159321428D02*
X89924000Y-159369047D01*
X89876380Y-159464285D01*
X89876380Y-159702380D01*
X89924000Y-159797619D01*
X89971619Y-159845238D01*
X90066857Y-159892857D01*
X90162095Y-159892857D01*
X90304952Y-159845238D01*
X90876380Y-159273809D01*
X90876380Y-159892857D01*
%TO.C,RV1*%
X66000238Y-115387380D02*
X66333571Y-114911190D01*
X66571666Y-115387380D02*
X66571666Y-114387380D01*
X66190714Y-114387380D01*
X66095476Y-114435000D01*
X66047857Y-114482619D01*
X66000238Y-114577857D01*
X66000238Y-114720714D01*
X66047857Y-114815952D01*
X66095476Y-114863571D01*
X66190714Y-114911190D01*
X66571666Y-114911190D01*
X65714523Y-114387380D02*
X65381190Y-115387380D01*
X65047857Y-114387380D01*
X64190714Y-115387380D02*
X64762142Y-115387380D01*
X64476428Y-115387380D02*
X64476428Y-114387380D01*
X64571666Y-114530238D01*
X64666904Y-114625476D01*
X64762142Y-114673095D01*
%TO.C,J8*%
X64476380Y-44116666D02*
X65190666Y-44116666D01*
X65333523Y-44069047D01*
X65428761Y-43973809D01*
X65476380Y-43830952D01*
X65476380Y-43735714D01*
X64904952Y-44735714D02*
X64857333Y-44640476D01*
X64809714Y-44592857D01*
X64714476Y-44545238D01*
X64666857Y-44545238D01*
X64571619Y-44592857D01*
X64524000Y-44640476D01*
X64476380Y-44735714D01*
X64476380Y-44926190D01*
X64524000Y-45021428D01*
X64571619Y-45069047D01*
X64666857Y-45116666D01*
X64714476Y-45116666D01*
X64809714Y-45069047D01*
X64857333Y-45021428D01*
X64904952Y-44926190D01*
X64904952Y-44735714D01*
X64952571Y-44640476D01*
X65000190Y-44592857D01*
X65095428Y-44545238D01*
X65285904Y-44545238D01*
X65381142Y-44592857D01*
X65428761Y-44640476D01*
X65476380Y-44735714D01*
X65476380Y-44926190D01*
X65428761Y-45021428D01*
X65381142Y-45069047D01*
X65285904Y-45116666D01*
X65095428Y-45116666D01*
X65000190Y-45069047D01*
X64952571Y-45021428D01*
X64904952Y-44926190D01*
%TO.C,J7*%
X112093333Y-66298380D02*
X112093333Y-67012666D01*
X112140952Y-67155523D01*
X112236190Y-67250761D01*
X112379047Y-67298380D01*
X112474285Y-67298380D01*
X111712380Y-66298380D02*
X111045714Y-66298380D01*
X111474285Y-67298380D01*
%TO.C,J3*%
X64476380Y-101266666D02*
X65190666Y-101266666D01*
X65333523Y-101219047D01*
X65428761Y-101123809D01*
X65476380Y-100980952D01*
X65476380Y-100885714D01*
X64476380Y-101647619D02*
X64476380Y-102266666D01*
X64857333Y-101933333D01*
X64857333Y-102076190D01*
X64904952Y-102171428D01*
X64952571Y-102219047D01*
X65047809Y-102266666D01*
X65285904Y-102266666D01*
X65381142Y-102219047D01*
X65428761Y-102171428D01*
X65476380Y-102076190D01*
X65476380Y-101790476D01*
X65428761Y-101695238D01*
X65381142Y-101647619D01*
%TO.C,RV4*%
X91400238Y-134437380D02*
X91733571Y-133961190D01*
X91971666Y-134437380D02*
X91971666Y-133437380D01*
X91590714Y-133437380D01*
X91495476Y-133485000D01*
X91447857Y-133532619D01*
X91400238Y-133627857D01*
X91400238Y-133770714D01*
X91447857Y-133865952D01*
X91495476Y-133913571D01*
X91590714Y-133961190D01*
X91971666Y-133961190D01*
X91114523Y-133437380D02*
X90781190Y-134437380D01*
X90447857Y-133437380D01*
X89685952Y-133770714D02*
X89685952Y-134437380D01*
X89924047Y-133389761D02*
X90162142Y-134104047D01*
X89543095Y-134104047D01*
%TO.C,J1*%
X70183333Y-77176380D02*
X70183333Y-77890666D01*
X70230952Y-78033523D01*
X70326190Y-78128761D01*
X70469047Y-78176380D01*
X70564285Y-78176380D01*
X69183333Y-78176380D02*
X69754761Y-78176380D01*
X69469047Y-78176380D02*
X69469047Y-77176380D01*
X69564285Y-77319238D01*
X69659523Y-77414476D01*
X69754761Y-77462095D01*
%TO.C,J21*%
X138942380Y-180800476D02*
X139656666Y-180800476D01*
X139799523Y-180752857D01*
X139894761Y-180657619D01*
X139942380Y-180514761D01*
X139942380Y-180419523D01*
X139037619Y-181229047D02*
X138990000Y-181276666D01*
X138942380Y-181371904D01*
X138942380Y-181610000D01*
X138990000Y-181705238D01*
X139037619Y-181752857D01*
X139132857Y-181800476D01*
X139228095Y-181800476D01*
X139370952Y-181752857D01*
X139942380Y-181181428D01*
X139942380Y-181800476D01*
X139942380Y-182752857D02*
X139942380Y-182181428D01*
X139942380Y-182467142D02*
X138942380Y-182467142D01*
X139085238Y-182371904D01*
X139180476Y-182276666D01*
X139228095Y-182181428D01*
%TO.C,J23*%
X70659523Y-163028380D02*
X70659523Y-163742666D01*
X70707142Y-163885523D01*
X70802380Y-163980761D01*
X70945238Y-164028380D01*
X71040476Y-164028380D01*
X70230952Y-163123619D02*
X70183333Y-163076000D01*
X70088095Y-163028380D01*
X69850000Y-163028380D01*
X69754761Y-163076000D01*
X69707142Y-163123619D01*
X69659523Y-163218857D01*
X69659523Y-163314095D01*
X69707142Y-163456952D01*
X70278571Y-164028380D01*
X69659523Y-164028380D01*
X69326190Y-163028380D02*
X68707142Y-163028380D01*
X69040476Y-163409333D01*
X68897619Y-163409333D01*
X68802380Y-163456952D01*
X68754761Y-163504571D01*
X68707142Y-163599809D01*
X68707142Y-163837904D01*
X68754761Y-163933142D01*
X68802380Y-163980761D01*
X68897619Y-164028380D01*
X69183333Y-164028380D01*
X69278571Y-163980761D01*
X69326190Y-163933142D01*
%TO.C,J11*%
X96059523Y-67778380D02*
X96059523Y-68492666D01*
X96107142Y-68635523D01*
X96202380Y-68730761D01*
X96345238Y-68778380D01*
X96440476Y-68778380D01*
X95059523Y-68778380D02*
X95630952Y-68778380D01*
X95345238Y-68778380D02*
X95345238Y-67778380D01*
X95440476Y-67921238D01*
X95535714Y-68016476D01*
X95630952Y-68064095D01*
X94107142Y-68778380D02*
X94678571Y-68778380D01*
X94392857Y-68778380D02*
X94392857Y-67778380D01*
X94488095Y-67921238D01*
X94583333Y-68016476D01*
X94678571Y-68064095D01*
%TO.C,J6*%
X112093333Y-144276380D02*
X112093333Y-144990666D01*
X112140952Y-145133523D01*
X112236190Y-145228761D01*
X112379047Y-145276380D01*
X112474285Y-145276380D01*
X111188571Y-144276380D02*
X111379047Y-144276380D01*
X111474285Y-144324000D01*
X111521904Y-144371619D01*
X111617142Y-144514476D01*
X111664761Y-144704952D01*
X111664761Y-145085904D01*
X111617142Y-145181142D01*
X111569523Y-145228761D01*
X111474285Y-145276380D01*
X111283809Y-145276380D01*
X111188571Y-145228761D01*
X111140952Y-145181142D01*
X111093333Y-145085904D01*
X111093333Y-144847809D01*
X111140952Y-144752571D01*
X111188571Y-144704952D01*
X111283809Y-144657333D01*
X111474285Y-144657333D01*
X111569523Y-144704952D01*
X111617142Y-144752571D01*
X111664761Y-144847809D01*
%TO.C,RV2*%
X66000238Y-134437380D02*
X66333571Y-133961190D01*
X66571666Y-134437380D02*
X66571666Y-133437380D01*
X66190714Y-133437380D01*
X66095476Y-133485000D01*
X66047857Y-133532619D01*
X66000238Y-133627857D01*
X66000238Y-133770714D01*
X66047857Y-133865952D01*
X66095476Y-133913571D01*
X66190714Y-133961190D01*
X66571666Y-133961190D01*
X65714523Y-133437380D02*
X65381190Y-134437380D01*
X65047857Y-133437380D01*
X64762142Y-133532619D02*
X64714523Y-133485000D01*
X64619285Y-133437380D01*
X64381190Y-133437380D01*
X64285952Y-133485000D01*
X64238333Y-133532619D01*
X64190714Y-133627857D01*
X64190714Y-133723095D01*
X64238333Y-133865952D01*
X64809761Y-134437380D01*
X64190714Y-134437380D01*
%TO.C,J15*%
X155749523Y-142244380D02*
X155749523Y-142958666D01*
X155797142Y-143101523D01*
X155892380Y-143196761D01*
X156035238Y-143244380D01*
X156130476Y-143244380D01*
X154749523Y-143244380D02*
X155320952Y-143244380D01*
X155035238Y-143244380D02*
X155035238Y-142244380D01*
X155130476Y-142387238D01*
X155225714Y-142482476D01*
X155320952Y-142530095D01*
X153844761Y-142244380D02*
X154320952Y-142244380D01*
X154368571Y-142720571D01*
X154320952Y-142672952D01*
X154225714Y-142625333D01*
X153987619Y-142625333D01*
X153892380Y-142672952D01*
X153844761Y-142720571D01*
X153797142Y-142815809D01*
X153797142Y-143053904D01*
X153844761Y-143149142D01*
X153892380Y-143196761D01*
X153987619Y-143244380D01*
X154225714Y-143244380D01*
X154320952Y-143196761D01*
X154368571Y-143149142D01*
D11*
%TO.C,RV3*%
X90380000Y-127270000D02*
X91870000Y-127270000D01*
X90380000Y-127270000D02*
X90380000Y-122550000D01*
X100130000Y-127270000D02*
X100130000Y-122550000D01*
X93590000Y-127270000D02*
X94420000Y-127270000D01*
X98940000Y-127270000D02*
X100120000Y-127270000D01*
X90380000Y-115680000D02*
X100120000Y-115680000D01*
X90380000Y-118740000D02*
X90380000Y-115680000D01*
X95750000Y-120650000D02*
X94750000Y-120650000D01*
X96040000Y-127270000D02*
X96570000Y-127270000D01*
X95250000Y-120150000D02*
X95250000Y-121150000D01*
X100120000Y-118740000D02*
X100120000Y-115680000D01*
%TO.C,J13*%
X153610000Y-63246000D02*
X153610000Y-55566000D01*
X153610000Y-55566000D02*
X156270000Y-55566000D01*
X153610000Y-64516000D02*
X153610000Y-65846000D01*
X153610000Y-63246000D02*
X156270000Y-63246000D01*
X156270000Y-63246000D02*
X156270000Y-55566000D01*
X153610000Y-65846000D02*
X154940000Y-65846000D01*
%TO.C,J19*%
X73914000Y-180848000D02*
X73914000Y-177800000D01*
X69850000Y-181864000D02*
X72898000Y-181864000D01*
X72898000Y-181864000D02*
G75*
G03*
X73914000Y-180848000I0J1016000D01*
G01*
X73914000Y-177800000D02*
G75*
G03*
X69850000Y-181864000I-4064000J0D01*
G01*
%TO.C,J10*%
X99314000Y-82550000D02*
X99314000Y-79502000D01*
X98298000Y-78486000D02*
X95250000Y-78486000D01*
X95250000Y-78486000D02*
G75*
G03*
X99314000Y-82550000I0J-4064000D01*
G01*
X99314000Y-79502000D02*
G75*
G03*
X98298000Y-78486000I-1016000J0D01*
G01*
%TO.C,J16*%
X99314000Y-47498000D02*
X99314000Y-44450000D01*
X95250000Y-48514000D02*
X98298000Y-48514000D01*
X99314000Y-44450000D02*
G75*
G03*
X95250000Y-48514000I-4064000J0D01*
G01*
X98298000Y-48514000D02*
G75*
G03*
X99314000Y-47498000I0J1016000D01*
G01*
%TO.C,J2*%
X66802000Y-67564000D02*
X69850000Y-67564000D01*
X65786000Y-63500000D02*
X65786000Y-66548000D01*
X65786000Y-66548000D02*
G75*
G03*
X66802000Y-67564000I1016000J0D01*
G01*
X69850000Y-67564000D02*
G75*
G03*
X65786000Y-63500000I0J4064000D01*
G01*
%TO.C,J18*%
X92202000Y-181864000D02*
X95250000Y-181864000D01*
X91186000Y-177800000D02*
X91186000Y-180848000D01*
X95250000Y-181864000D02*
G75*
G03*
X91186000Y-177800000I0J4064000D01*
G01*
X91186000Y-180848000D02*
G75*
G03*
X92202000Y-181864000I1016000J0D01*
G01*
%TO.C,J9*%
X91186000Y-101600000D02*
X91186000Y-104648000D01*
X92202000Y-105664000D02*
X95250000Y-105664000D01*
X91186000Y-104648000D02*
G75*
G03*
X92202000Y-105664000I1016000J0D01*
G01*
X95250000Y-105664000D02*
G75*
G03*
X91186000Y-101600000I0J4064000D01*
G01*
%TO.C,J22*%
X92202000Y-162814000D02*
X95250000Y-162814000D01*
X91186000Y-158750000D02*
X91186000Y-161798000D01*
X91186000Y-161798000D02*
G75*
G03*
X92202000Y-162814000I1016000J0D01*
G01*
X95250000Y-162814000D02*
G75*
G03*
X91186000Y-158750000I0J4064000D01*
G01*
%TO.C,RV1*%
X74720000Y-118740000D02*
X74720000Y-115680000D01*
X64980000Y-118740000D02*
X64980000Y-115680000D01*
X70350000Y-120650000D02*
X69350000Y-120650000D01*
X64980000Y-127270000D02*
X64980000Y-122550000D01*
X68190000Y-127270000D02*
X69020000Y-127270000D01*
X70640000Y-127270000D02*
X71170000Y-127270000D01*
X64980000Y-127270000D02*
X66470000Y-127270000D01*
X73540000Y-127270000D02*
X74720000Y-127270000D01*
X64980000Y-115680000D02*
X74720000Y-115680000D01*
X69850000Y-120150000D02*
X69850000Y-121150000D01*
X74730000Y-127270000D02*
X74730000Y-122550000D01*
%TO.C,J8*%
X66802000Y-48514000D02*
X69850000Y-48514000D01*
X65786000Y-44450000D02*
X65786000Y-47498000D01*
X69850000Y-48514000D02*
G75*
G03*
X65786000Y-44450000I0J4064000D01*
G01*
X65786000Y-47498000D02*
G75*
G03*
X66802000Y-48514000I1016000J0D01*
G01*
%TO.C,J7*%
X110430000Y-64516000D02*
X110430000Y-65846000D01*
X110430000Y-55566000D02*
X113090000Y-55566000D01*
X110430000Y-63246000D02*
X113090000Y-63246000D01*
X110430000Y-65846000D02*
X111760000Y-65846000D01*
X113090000Y-63246000D02*
X113090000Y-55566000D01*
X110430000Y-63246000D02*
X110430000Y-55566000D01*
%TO.C,J3*%
X66802000Y-105664000D02*
X69850000Y-105664000D01*
X65786000Y-101600000D02*
X65786000Y-104648000D01*
X69850000Y-105664000D02*
G75*
G03*
X65786000Y-101600000I0J4064000D01*
G01*
X65786000Y-104648000D02*
G75*
G03*
X66802000Y-105664000I1016000J0D01*
G01*
%TO.C,RV4*%
X95250000Y-139200000D02*
X95250000Y-140200000D01*
X90380000Y-146320000D02*
X91870000Y-146320000D01*
X95750000Y-139700000D02*
X94750000Y-139700000D01*
X100120000Y-137790000D02*
X100120000Y-134730000D01*
X93590000Y-146320000D02*
X94420000Y-146320000D01*
X96040000Y-146320000D02*
X96570000Y-146320000D01*
X90380000Y-137790000D02*
X90380000Y-134730000D01*
X98940000Y-146320000D02*
X100120000Y-146320000D01*
X90380000Y-146320000D02*
X90380000Y-141600000D01*
X100130000Y-146320000D02*
X100130000Y-141600000D01*
X90380000Y-134730000D02*
X100120000Y-134730000D01*
%TO.C,J1*%
X65786000Y-79502000D02*
X65786000Y-82550000D01*
X69850000Y-78486000D02*
X66802000Y-78486000D01*
X66802000Y-78486000D02*
G75*
G03*
X65786000Y-79502000I0J-1016000D01*
G01*
X65786000Y-82550000D02*
G75*
G03*
X69850000Y-78486000I4064000J0D01*
G01*
%TO.C,J21*%
X135890000Y-182940000D02*
X135890000Y-180280000D01*
X135890000Y-182940000D02*
X128210000Y-182940000D01*
X138490000Y-182940000D02*
X138490000Y-181610000D01*
X128210000Y-182940000D02*
X128210000Y-180280000D01*
X137160000Y-182940000D02*
X138490000Y-182940000D01*
X135890000Y-180280000D02*
X128210000Y-180280000D01*
%TO.C,J23*%
X73914000Y-161798000D02*
X73914000Y-158750000D01*
X69850000Y-162814000D02*
X72898000Y-162814000D01*
X72898000Y-162814000D02*
G75*
G03*
X73914000Y-161798000I0J1016000D01*
G01*
X73914000Y-158750000D02*
G75*
G03*
X69850000Y-162814000I-4064000J0D01*
G01*
%TO.C,J11*%
X95250000Y-67564000D02*
X98298000Y-67564000D01*
X99314000Y-66548000D02*
X99314000Y-63500000D01*
X98298000Y-67564000D02*
G75*
G03*
X99314000Y-66548000I0J1016000D01*
G01*
X99314000Y-63500000D02*
G75*
G03*
X95250000Y-67564000I-4064000J0D01*
G01*
%TO.C,J6*%
X110430000Y-142494000D02*
X110430000Y-143824000D01*
X113090000Y-141224000D02*
X113090000Y-133544000D01*
X110430000Y-141224000D02*
X113090000Y-141224000D01*
X110430000Y-141224000D02*
X110430000Y-133544000D01*
X110430000Y-133544000D02*
X113090000Y-133544000D01*
X110430000Y-143824000D02*
X111760000Y-143824000D01*
%TO.C,RV2*%
X64980000Y-146320000D02*
X64980000Y-141600000D01*
X64980000Y-146320000D02*
X66470000Y-146320000D01*
X64980000Y-134730000D02*
X74720000Y-134730000D01*
X64980000Y-137790000D02*
X64980000Y-134730000D01*
X70350000Y-139700000D02*
X69350000Y-139700000D01*
X69850000Y-139200000D02*
X69850000Y-140200000D01*
X74720000Y-137790000D02*
X74720000Y-134730000D01*
X70640000Y-146320000D02*
X71170000Y-146320000D01*
X73540000Y-146320000D02*
X74720000Y-146320000D01*
X68190000Y-146320000D02*
X69020000Y-146320000D01*
X74730000Y-146320000D02*
X74730000Y-141600000D01*
%TO.C,J15*%
X153610000Y-141792000D02*
X154940000Y-141792000D01*
X153610000Y-139192000D02*
X156270000Y-139192000D01*
X153610000Y-139192000D02*
X153610000Y-136592000D01*
X153610000Y-140462000D02*
X153610000Y-141792000D01*
X153610000Y-136592000D02*
X156270000Y-136592000D01*
X156270000Y-139192000D02*
X156270000Y-136592000D01*
%TD*%
M02*
