%TF.GenerationSoftware,KiCad,Pcbnew,(6.0.6-0)*%
%TF.CreationDate,2022-09-03T01:28:16+01:00*%
%TF.ProjectId,4u-variable-integrator,34752d76-6172-4696-9162-6c652d696e74,r02*%
%TF.SameCoordinates,Original*%
%TF.FileFunction,Profile,NP*%
%FSLAX46Y46*%
G04 Gerber Fmt 4.6, Leading zero omitted, Abs format (unit mm)*
G04 Created by KiCad (PCBNEW (6.0.6-0)) date 2022-09-03 01:28:16*
%MOMM*%
%LPD*%
G01*
G04 APERTURE LIST*
%TA.AperFunction,Profile*%
%ADD10C,0.050000*%
%TD*%
G04 APERTURE END LIST*
D10*
X109220000Y-35560000D02*
X109220000Y-51689000D01*
X106680000Y-170561000D02*
X106680000Y-186690000D01*
X106045000Y-187325000D02*
G75*
G03*
X106680000Y-186690000I0J635000D01*
G01*
X109855000Y-34925000D02*
G75*
G03*
X109220000Y-35560000I0J-635000D01*
G01*
X106680000Y-35560000D02*
G75*
G03*
X106045000Y-34925000I-635000J0D01*
G01*
X58420000Y-186690000D02*
X58420000Y-35560000D01*
X109220000Y-94361000D02*
X109220000Y-108839000D01*
X109220000Y-113411000D02*
X109220000Y-127889000D01*
X157480000Y-186690000D02*
X157480000Y-35560000D01*
X109220000Y-75311000D02*
X109220000Y-89789000D01*
X109855000Y-187325000D02*
X156845000Y-187325000D01*
X59055000Y-34925000D02*
X106045000Y-34925000D01*
X106680000Y-75311000D02*
X106680000Y-89789000D01*
X106680000Y-94361000D02*
X106680000Y-108839000D01*
X109220000Y-151511000D02*
X109220000Y-165989000D01*
X156845000Y-34925000D02*
X109855000Y-34925000D01*
X59055000Y-34925000D02*
G75*
G03*
X58420000Y-35560000I0J-635000D01*
G01*
X106680000Y-35560000D02*
X106680000Y-51689000D01*
X106680000Y-113411000D02*
X106680000Y-127889000D01*
X106680000Y-132461000D02*
X106680000Y-146939000D01*
X58420000Y-186690000D02*
G75*
G03*
X59055000Y-187325000I635000J0D01*
G01*
X157480000Y-35560000D02*
G75*
G03*
X156845000Y-34925000I-635000J0D01*
G01*
X109220000Y-56261000D02*
X109220000Y-70739000D01*
X106680000Y-151511000D02*
X106680000Y-165989000D01*
X109220000Y-186690000D02*
G75*
G03*
X109855000Y-187325000I635000J0D01*
G01*
X106045000Y-187325000D02*
X59055000Y-187325000D01*
X109220000Y-170561000D02*
X109220000Y-186690000D01*
X156845000Y-187325000D02*
G75*
G03*
X157480000Y-186690000I0J635000D01*
G01*
X109220000Y-132461000D02*
X109220000Y-146939000D01*
X106680000Y-56261000D02*
X106680000Y-70739000D01*
%TO.C,mouse-bite-2.54mm-slot*%
X106680000Y-89789000D02*
G75*
G03*
X109220000Y-89789000I1270000J0D01*
G01*
X109220000Y-94361000D02*
G75*
G03*
X106680000Y-94361000I-1270000J0D01*
G01*
X109220000Y-75311000D02*
G75*
G03*
X106680000Y-75311000I-1270000J0D01*
G01*
X106680000Y-70739000D02*
G75*
G03*
X109220000Y-70739000I1270000J0D01*
G01*
X109220000Y-56261000D02*
G75*
G03*
X106680000Y-56261000I-1270000J0D01*
G01*
X106680000Y-51689000D02*
G75*
G03*
X109220000Y-51689000I1270000J0D01*
G01*
X109220000Y-132461000D02*
G75*
G03*
X106680000Y-132461000I-1270000J0D01*
G01*
X106680000Y-127889000D02*
G75*
G03*
X109220000Y-127889000I1270000J0D01*
G01*
X109220000Y-151511000D02*
G75*
G03*
X106680000Y-151511000I-1270000J0D01*
G01*
X106680000Y-146939000D02*
G75*
G03*
X109220000Y-146939000I1270000J0D01*
G01*
X106680000Y-108839000D02*
G75*
G03*
X109220000Y-108839000I1270000J0D01*
G01*
X109220000Y-113411000D02*
G75*
G03*
X106680000Y-113411000I-1270000J0D01*
G01*
X106680000Y-165989000D02*
G75*
G03*
X109220000Y-165989000I1270000J0D01*
G01*
X109220000Y-170561000D02*
G75*
G03*
X106680000Y-170561000I-1270000J0D01*
G01*
%TD*%
M02*
