<?xml version="1.0" encoding="UTF-8" standalone="no"?>
<!-- Created with Inkscape (http://www.inkscape.org/) -->

<svg
   width="50.5mm"
   height="175mm"
   viewBox="0 0 50.5 175"
   version="1.1"
   id="svg5"
   inkscape:version="1.1 (c4e8f9e, 2021-05-24)"
   sodipodi:docname="4u-2col-blank-spirals.svg"
   xmlns:inkscape="http://www.inkscape.org/namespaces/inkscape"
   xmlns:sodipodi="http://sodipodi.sourceforge.net/DTD/sodipodi-0.dtd"
   xmlns="http://www.w3.org/2000/svg"
   xmlns:svg="http://www.w3.org/2000/svg">
  <sodipodi:namedview
     id="namedview7"
     pagecolor="#ffffff"
     bordercolor="#666666"
     borderopacity="1.0"
     inkscape:pageshadow="2"
     inkscape:pageopacity="0.0"
     inkscape:pagecheckerboard="0"
     inkscape:document-units="mm"
     showgrid="false"
     width="50.5mm"
     showguides="true"
     inkscape:guide-bbox="true"
     inkscape:snap-bbox="true"
     inkscape:bbox-nodes="true"
     inkscape:snap-intersection-paths="false"
     inkscape:object-nodes="false"
     inkscape:showpageshadow="false"
     inkscape:zoom="1.5554293"
     inkscape:cx="125.04586"
     inkscape:cy="147.54769"
     inkscape:window-width="1793"
     inkscape:window-height="1289"
     inkscape:window-x="332"
     inkscape:window-y="70"
     inkscape:window-maximized="0"
     inkscape:current-layer="layer1" />
  <defs
     id="defs2" />
  <g
     inkscape:label="Layer 1"
     inkscape:groupmode="layer"
     id="layer1">
    <path
       sodipodi:type="spiral"
       style="fill:none;fill-rule:evenodd;stroke:#000000;stroke-width:3.46461;stroke-linecap:round;stroke-miterlimit:4;stroke-dasharray:none"
       id="path32"
       sodipodi:cx="49.182564"
       sodipodi:cy="94.186218"
       sodipodi:expansion="1"
       sodipodi:revolution="2.97"
       sodipodi:radius="23.885185"
       sodipodi:argument="-4.5898614"
       sodipodi:t0="0.029999999"
       d="m 48.730685,94.742328 c -1.29821,0.515628 -1.893624,-1.354067 -1.664583,-2.275885 0.545795,-2.19665 3.25802,-2.778127 5.104134,-1.957038 3.014821,1.340889 3.722666,5.202844 2.249493,7.932383 -2.075084,3.844772 -7.16414,4.684382 -10.760631,2.541952 -4.682115,-2.789143 -5.653971,-9.131937 -2.834403,-13.588885 3.494319,-5.523542 11.103026,-6.6278 16.417129,-3.126858 6.36739,4.19485 7.604161,13.076053 3.419313,19.245383 -4.89265,7.21277 -15.050319,8.58214 -22.073627,3.71176 -8.059178,-5.58871 -9.561238,-17.025424 -4.004223,-24.901873 6.283602,-8.906305 19.001136,-10.541113 27.730125,-4.296678 9.753955,6.977664 11.521564,20.977291 4.589133,30.558371 -3.788777,5.23635 -9.739131,8.66524 -16.145471,9.43449"
       transform="matrix(0,0.28867249,-0.28859384,0,33.559567,16.474118)" />
    <path
       sodipodi:type="spiral"
       style="fill:none;fill-rule:evenodd;stroke:#000000;stroke-width:3.46461;stroke-linecap:round;stroke-miterlimit:4;stroke-dasharray:none"
       id="path32-5"
       sodipodi:cx="49.182564"
       sodipodi:cy="94.186218"
       sodipodi:expansion="1"
       sodipodi:revolution="2.97"
       sodipodi:radius="23.885185"
       sodipodi:argument="-4.5898614"
       sodipodi:t0="0.029999999"
       transform="matrix(0,0.28867249,-0.28859384,0,84.059619,16.474119)"
       d="m 48.730685,94.742328 c -1.29821,0.515628 -1.893624,-1.354067 -1.664583,-2.275885 0.545795,-2.19665 3.25802,-2.778127 5.104134,-1.957038 3.014821,1.340889 3.722666,5.202844 2.249493,7.932383 -2.075084,3.844772 -7.16414,4.684382 -10.760631,2.541952 -4.682115,-2.789143 -5.653971,-9.131937 -2.834403,-13.588885 3.494319,-5.523542 11.103026,-6.6278 16.417129,-3.126858 6.36739,4.19485 7.604161,13.076053 3.419313,19.245383 -4.89265,7.21277 -15.050319,8.58214 -22.073627,3.71176 -8.059178,-5.58871 -9.561238,-17.025424 -4.004223,-24.901873 6.283602,-8.906305 19.001136,-10.541113 27.730125,-4.296678 9.753955,6.977664 11.521564,20.977291 4.589133,30.558371 -3.788777,5.23635 -9.739131,8.66524 -16.145471,9.43449" />
    <path
       sodipodi:type="spiral"
       style="fill:none;fill-rule:evenodd;stroke:#000000;stroke-width:3.46461;stroke-linecap:round;stroke-miterlimit:4;stroke-dasharray:none"
       id="path32-2"
       sodipodi:cx="49.182564"
       sodipodi:cy="94.186218"
       sodipodi:expansion="1"
       sodipodi:revolution="2.97"
       sodipodi:radius="23.885185"
       sodipodi:argument="-4.5898614"
       sodipodi:t0="0.029999999"
       transform="matrix(0,-0.28867249,-0.28859384,0,46.184619,46.023408)"
       d="m 48.730685,94.742328 c -1.29821,0.515628 -1.893624,-1.354067 -1.664583,-2.275885 0.545795,-2.19665 3.25802,-2.778127 5.104134,-1.957038 3.014821,1.340889 3.722666,5.202844 2.249493,7.932383 -2.075084,3.844772 -7.16414,4.684382 -10.760631,2.541952 -4.682115,-2.789143 -5.653971,-9.131937 -2.834403,-13.588885 3.494319,-5.523542 11.103026,-6.6278 16.417129,-3.126858 6.36739,4.19485 7.604161,13.076053 3.419313,19.245383 -4.89265,7.21277 -15.050319,8.58214 -22.073627,3.71176 -8.059178,-5.58871 -9.561238,-17.025424 -4.004223,-24.901873 6.283602,-8.906305 19.001136,-10.541113 27.730125,-4.296678 9.753955,6.977664 11.521564,20.977291 4.589133,30.558371 -3.788777,5.23635 -9.739131,8.66524 -16.145471,9.43449" />
    <path
       sodipodi:type="spiral"
       style="fill:none;fill-rule:evenodd;stroke:#000000;stroke-width:3.46461;stroke-linecap:round;stroke-miterlimit:4;stroke-dasharray:none"
       id="path3630"
       sodipodi:cx="49.182564"
       sodipodi:cy="94.186218"
       sodipodi:expansion="1"
       sodipodi:revolution="2.97"
       sodipodi:radius="23.885185"
       sodipodi:argument="-4.5898614"
       sodipodi:t0="0.029999999"
       d="m 48.730685,94.742328 c -1.29821,0.515628 -1.893624,-1.354067 -1.664583,-2.275885 0.545795,-2.19665 3.25802,-2.778127 5.104134,-1.957038 3.014821,1.340889 3.722666,5.202844 2.249493,7.932383 -2.075084,3.844772 -7.16414,4.684382 -10.760631,2.541952 -4.682115,-2.789143 -5.653971,-9.131937 -2.834403,-13.588885 3.494319,-5.523542 11.103026,-6.6278 16.417129,-3.126858 6.36739,4.19485 7.604161,13.076053 3.419313,19.245383 -4.89265,7.21277 -15.050319,8.58214 -22.073627,3.71176 -8.059178,-5.58871 -9.561238,-17.025424 -4.004223,-24.901873 6.283602,-8.906305 19.001136,-10.541113 27.730125,-4.296678 9.753955,6.977664 11.521564,20.977291 4.589133,30.558371 -3.788777,5.23635 -9.739131,8.66524 -16.145471,9.43449"
       transform="matrix(0,0.28867249,-0.28859384,0,58.809619,16.474034)" />
    <path
       sodipodi:type="spiral"
       style="fill:none;fill-rule:evenodd;stroke:#000000;stroke-width:3.46461;stroke-linecap:round;stroke-miterlimit:4;stroke-dasharray:none"
       id="path3632"
       sodipodi:cx="49.182564"
       sodipodi:cy="94.186218"
       sodipodi:expansion="1"
       sodipodi:revolution="2.97"
       sodipodi:radius="23.885185"
       sodipodi:argument="-4.5898614"
       sodipodi:t0="0.029999999"
       transform="matrix(0,-0.28867249,-0.28859384,0,71.434619,46.023492)"
       d="m 48.730685,94.742328 c -1.29821,0.515628 -1.893624,-1.354067 -1.664583,-2.275885 0.545795,-2.19665 3.25802,-2.778127 5.104134,-1.957038 3.014821,1.340889 3.722666,5.202844 2.249493,7.932383 -2.075084,3.844772 -7.16414,4.684382 -10.760631,2.541952 -4.682115,-2.789143 -5.653971,-9.131937 -2.834403,-13.588885 3.494319,-5.523542 11.103026,-6.6278 16.417129,-3.126858 6.36739,4.19485 7.604161,13.076053 3.419313,19.245383 -4.89265,7.21277 -15.050319,8.58214 -22.073627,3.71176 -8.059178,-5.58871 -9.561238,-17.025424 -4.004223,-24.901873 6.283602,-8.906305 19.001136,-10.541113 27.730125,-4.296678 9.753955,6.977664 11.521564,20.977291 4.589133,30.558371 -3.788777,5.23635 -9.739131,8.66524 -16.145471,9.43449" />
    <path
       sodipodi:type="spiral"
       style="fill:none;fill-rule:evenodd;stroke:#000000;stroke-width:3.46461;stroke-linecap:round;stroke-miterlimit:4;stroke-dasharray:none"
       id="path32-0"
       sodipodi:cx="49.182564"
       sodipodi:cy="94.186218"
       sodipodi:expansion="1"
       sodipodi:revolution="2.97"
       sodipodi:radius="23.885185"
       sodipodi:argument="-4.5898614"
       sodipodi:t0="0.029999999"
       transform="matrix(0,0.28867249,-0.28859384,0,20.934515,3.9741487)"
       d="m 48.730685,94.742328 c -1.29821,0.515628 -1.893624,-1.354067 -1.664583,-2.275885 0.545795,-2.19665 3.25802,-2.778127 5.104134,-1.957038 3.014821,1.340889 3.722666,5.202844 2.249493,7.932383 -2.075084,3.844772 -7.16414,4.684382 -10.760631,2.541952 -4.682115,-2.789143 -5.653971,-9.131937 -2.834403,-13.588885 3.494319,-5.523542 11.103026,-6.6278 16.417129,-3.126858 6.36739,4.19485 7.604161,13.076053 3.419313,19.245383 -4.89265,7.21277 -15.050319,8.58214 -22.073627,3.71176 -8.059178,-5.58871 -9.561238,-17.025424 -4.004223,-24.901873 6.283602,-8.906305 19.001136,-10.541113 27.730125,-4.296678 9.753955,6.977664 11.521564,20.977291 4.589133,30.558371 -3.788777,5.23635 -9.739131,8.66524 -16.145471,9.43449" />
    <path
       sodipodi:type="spiral"
       style="fill:none;fill-rule:evenodd;stroke:#000000;stroke-width:3.46461;stroke-linecap:round;stroke-miterlimit:4;stroke-dasharray:none"
       id="path32-0-4"
       sodipodi:cx="49.182564"
       sodipodi:cy="94.186218"
       sodipodi:expansion="1"
       sodipodi:revolution="2.97"
       sodipodi:radius="23.885185"
       sodipodi:argument="-4.5898614"
       sodipodi:t0="0.029999999"
       transform="matrix(0,-0.28867249,-0.28859384,0,84.059619,33.52344)"
       d="m 48.730685,94.742328 c -1.29821,0.515628 -1.893624,-1.354067 -1.664583,-2.275885 0.545795,-2.19665 3.25802,-2.778127 5.104134,-1.957038 3.014821,1.340889 3.722666,5.202844 2.249493,7.932383 -2.075084,3.844772 -7.16414,4.684382 -10.760631,2.541952 -4.682115,-2.789143 -5.653971,-9.131937 -2.834403,-13.588885 3.494319,-5.523542 11.103026,-6.6278 16.417129,-3.126858 6.36739,4.19485 7.604161,13.076053 3.419313,19.245383 -4.89265,7.21277 -15.050319,8.58214 -22.073627,3.71176 -8.059178,-5.58871 -9.561238,-17.025424 -4.004223,-24.901873 6.283602,-8.906305 19.001136,-10.541113 27.730125,-4.296678 9.753955,6.977664 11.521564,20.977291 4.589133,30.558371 -3.788777,5.23635 -9.739131,8.66524 -16.145471,9.43449" />
    <path
       sodipodi:type="spiral"
       style="fill:none;fill-rule:evenodd;stroke:#000000;stroke-width:3.46461;stroke-linecap:round;stroke-miterlimit:4;stroke-dasharray:none"
       id="path32-5-9"
       sodipodi:cx="49.182564"
       sodipodi:cy="94.186218"
       sodipodi:expansion="1"
       sodipodi:revolution="2.97"
       sodipodi:radius="23.885185"
       sodipodi:argument="-4.5898614"
       sodipodi:t0="0.029999999"
       transform="matrix(0,0.28867249,-0.28859384,0,71.434565,3.9741497)"
       d="m 48.730685,94.742328 c -1.29821,0.515628 -1.893624,-1.354067 -1.664583,-2.275885 0.545795,-2.19665 3.25802,-2.778127 5.104134,-1.957038 3.014821,1.340889 3.722666,5.202844 2.249493,7.932383 -2.075084,3.844772 -7.16414,4.684382 -10.760631,2.541952 -4.682115,-2.789143 -5.653971,-9.131937 -2.834403,-13.588885 3.494319,-5.523542 11.103026,-6.6278 16.417129,-3.126858 6.36739,4.19485 7.604161,13.076053 3.419313,19.245383 -4.89265,7.21277 -15.050319,8.58214 -22.073627,3.71176 -8.059178,-5.58871 -9.561238,-17.025424 -4.004223,-24.901873 6.283602,-8.906305 19.001136,-10.541113 27.730125,-4.296678 9.753955,6.977664 11.521564,20.977291 4.589133,30.558371 -3.788777,5.23635 -9.739131,8.66524 -16.145471,9.43449" />
    <path
       sodipodi:type="spiral"
       style="fill:none;fill-rule:evenodd;stroke:#000000;stroke-width:3.46461;stroke-linecap:round;stroke-miterlimit:4;stroke-dasharray:none"
       id="path32-2-7"
       sodipodi:cx="49.182564"
       sodipodi:cy="94.186218"
       sodipodi:expansion="1"
       sodipodi:revolution="2.97"
       sodipodi:radius="23.885185"
       sodipodi:argument="-4.5898614"
       sodipodi:t0="0.029999999"
       transform="matrix(0,-0.28867249,-0.28859384,0,33.559567,33.523439)"
       d="m 48.730685,94.742328 c -1.29821,0.515628 -1.893624,-1.354067 -1.664583,-2.275885 0.545795,-2.19665 3.25802,-2.778127 5.104134,-1.957038 3.014821,1.340889 3.722666,5.202844 2.249493,7.932383 -2.075084,3.844772 -7.16414,4.684382 -10.760631,2.541952 -4.682115,-2.789143 -5.653971,-9.131937 -2.834403,-13.588885 3.494319,-5.523542 11.103026,-6.6278 16.417129,-3.126858 6.36739,4.19485 7.604161,13.076053 3.419313,19.245383 -4.89265,7.21277 -15.050319,8.58214 -22.073627,3.71176 -8.059178,-5.58871 -9.561238,-17.025424 -4.004223,-24.901873 6.283602,-8.906305 19.001136,-10.541113 27.730125,-4.296678 9.753955,6.977664 11.521564,20.977291 4.589133,30.558371 -3.788777,5.23635 -9.739131,8.66524 -16.145471,9.43449" />
    <path
       sodipodi:type="spiral"
       style="fill:none;fill-rule:evenodd;stroke:#000000;stroke-width:3.46461;stroke-linecap:round;stroke-miterlimit:4;stroke-dasharray:none"
       id="path3630-1"
       sodipodi:cx="49.182564"
       sodipodi:cy="94.186218"
       sodipodi:expansion="1"
       sodipodi:revolution="2.97"
       sodipodi:radius="23.885185"
       sodipodi:argument="-4.5898614"
       sodipodi:t0="0.029999999"
       transform="matrix(0,0.28867249,-0.28859384,0,46.184565,3.9740647)"
       d="m 48.730685,94.742328 c -1.29821,0.515628 -1.893624,-1.354067 -1.664583,-2.275885 0.545795,-2.19665 3.25802,-2.778127 5.104134,-1.957038 3.014821,1.340889 3.722666,5.202844 2.249493,7.932383 -2.075084,3.844772 -7.16414,4.684382 -10.760631,2.541952 -4.682115,-2.789143 -5.653971,-9.131937 -2.834403,-13.588885 3.494319,-5.523542 11.103026,-6.6278 16.417129,-3.126858 6.36739,4.19485 7.604161,13.076053 3.419313,19.245383 -4.89265,7.21277 -15.050319,8.58214 -22.073627,3.71176 -8.059178,-5.58871 -9.561238,-17.025424 -4.004223,-24.901873 6.283602,-8.906305 19.001136,-10.541113 27.730125,-4.296678 9.753955,6.977664 11.521564,20.977291 4.589133,30.558371 -3.788777,5.23635 -9.739131,8.66524 -16.145471,9.43449" />
    <path
       sodipodi:type="spiral"
       style="fill:none;fill-rule:evenodd;stroke:#000000;stroke-width:3.46461;stroke-linecap:round;stroke-miterlimit:4;stroke-dasharray:none"
       id="path3632-7"
       sodipodi:cx="49.182564"
       sodipodi:cy="94.186218"
       sodipodi:expansion="1"
       sodipodi:revolution="2.97"
       sodipodi:radius="23.885185"
       sodipodi:argument="-4.5898614"
       sodipodi:t0="0.029999999"
       transform="matrix(0,-0.28867249,-0.28859384,0,58.809565,33.523523)"
       d="m 48.730685,94.742328 c -1.29821,0.515628 -1.893624,-1.354067 -1.664583,-2.275885 0.545795,-2.19665 3.25802,-2.778127 5.104134,-1.957038 3.014821,1.340889 3.722666,5.202844 2.249493,7.932383 -2.075084,3.844772 -7.16414,4.684382 -10.760631,2.541952 -4.682115,-2.789143 -5.653971,-9.131937 -2.834403,-13.588885 3.494319,-5.523542 11.103026,-6.6278 16.417129,-3.126858 6.36739,4.19485 7.604161,13.076053 3.419313,19.245383 -4.89265,7.21277 -15.050319,8.58214 -22.073627,3.71176 -8.059178,-5.58871 -9.561238,-17.025424 -4.004223,-24.901873 6.283602,-8.906305 19.001136,-10.541113 27.730125,-4.296678 9.753955,6.977664 11.521564,20.977291 4.589133,30.558371 -3.788777,5.23635 -9.739131,8.66524 -16.145471,9.43449" />
    <path
       sodipodi:type="spiral"
       style="fill:none;fill-rule:evenodd;stroke:#000000;stroke-width:3.46461;stroke-linecap:round;stroke-miterlimit:4;stroke-dasharray:none"
       id="path32-1"
       sodipodi:cx="49.182564"
       sodipodi:cy="94.186218"
       sodipodi:expansion="1"
       sodipodi:revolution="2.97"
       sodipodi:radius="23.885185"
       sodipodi:argument="-4.5898614"
       sodipodi:t0="0.029999999"
       transform="matrix(0,0.28867249,-0.28859384,0,33.559671,73.974118)"
       d="m 48.730685,94.742328 c -1.29821,0.515628 -1.893624,-1.354067 -1.664583,-2.275885 0.545795,-2.19665 3.25802,-2.778127 5.104134,-1.957038 3.014821,1.340889 3.722666,5.202844 2.249493,7.932383 -2.075084,3.844772 -7.16414,4.684382 -10.760631,2.541952 -4.682115,-2.789143 -5.653971,-9.131937 -2.834403,-13.588885 3.494319,-5.523542 11.103026,-6.6278 16.417129,-3.126858 6.36739,4.19485 7.604161,13.076053 3.419313,19.245383 -4.89265,7.21277 -15.050319,8.58214 -22.073627,3.71176 -8.059178,-5.58871 -9.561238,-17.025424 -4.004223,-24.901873 6.283602,-8.906305 19.001136,-10.541113 27.730125,-4.296678 9.753955,6.977664 11.521564,20.977291 4.589133,30.558371 -3.788777,5.23635 -9.739131,8.66524 -16.145471,9.43449" />
    <path
       sodipodi:type="spiral"
       style="fill:none;fill-rule:evenodd;stroke:#000000;stroke-width:3.46461;stroke-linecap:round;stroke-miterlimit:4;stroke-dasharray:none"
       id="path32-5-94"
       sodipodi:cx="49.182564"
       sodipodi:cy="94.186218"
       sodipodi:expansion="1"
       sodipodi:revolution="2.97"
       sodipodi:radius="23.885185"
       sodipodi:argument="-4.5898614"
       sodipodi:t0="0.029999999"
       transform="matrix(0,0.28867249,-0.28859384,0,84.059724,73.974119)"
       d="m 48.730685,94.742328 c -1.29821,0.515628 -1.893624,-1.354067 -1.664583,-2.275885 0.545795,-2.19665 3.25802,-2.778127 5.104134,-1.957038 3.014821,1.340889 3.722666,5.202844 2.249493,7.932383 -2.075084,3.844772 -7.16414,4.684382 -10.760631,2.541952 -4.682115,-2.789143 -5.653971,-9.131937 -2.834403,-13.588885 3.494319,-5.523542 11.103026,-6.6278 16.417129,-3.126858 6.36739,4.19485 7.604161,13.076053 3.419313,19.245383 -4.89265,7.21277 -15.050319,8.58214 -22.073627,3.71176 -8.059178,-5.58871 -9.561238,-17.025424 -4.004223,-24.901873 6.283602,-8.906305 19.001136,-10.541113 27.730125,-4.296678 9.753955,6.977664 11.521564,20.977291 4.589133,30.558371 -3.788777,5.23635 -9.739131,8.66524 -16.145471,9.43449" />
    <path
       sodipodi:type="spiral"
       style="fill:none;fill-rule:evenodd;stroke:#000000;stroke-width:3.46461;stroke-linecap:round;stroke-miterlimit:4;stroke-dasharray:none"
       id="path32-2-5"
       sodipodi:cx="49.182564"
       sodipodi:cy="94.186218"
       sodipodi:expansion="1"
       sodipodi:revolution="2.97"
       sodipodi:radius="23.885185"
       sodipodi:argument="-4.5898614"
       sodipodi:t0="0.029999999"
       transform="matrix(0,-0.28867249,-0.28859384,0,46.184723,103.52341)"
       d="m 48.730685,94.742328 c -1.29821,0.515628 -1.893624,-1.354067 -1.664583,-2.275885 0.545795,-2.19665 3.25802,-2.778127 5.104134,-1.957038 3.014821,1.340889 3.722666,5.202844 2.249493,7.932383 -2.075084,3.844772 -7.16414,4.684382 -10.760631,2.541952 -4.682115,-2.789143 -5.653971,-9.131937 -2.834403,-13.588885 3.494319,-5.523542 11.103026,-6.6278 16.417129,-3.126858 6.36739,4.19485 7.604161,13.076053 3.419313,19.245383 -4.89265,7.21277 -15.050319,8.58214 -22.073627,3.71176 -8.059178,-5.58871 -9.561238,-17.025424 -4.004223,-24.901873 6.283602,-8.906305 19.001136,-10.541113 27.730125,-4.296678 9.753955,6.977664 11.521564,20.977291 4.589133,30.558371 -3.788777,5.23635 -9.739131,8.66524 -16.145471,9.43449" />
    <path
       sodipodi:type="spiral"
       style="fill:none;fill-rule:evenodd;stroke:#000000;stroke-width:3.46461;stroke-linecap:round;stroke-miterlimit:4;stroke-dasharray:none"
       id="path3630-9"
       sodipodi:cx="49.182564"
       sodipodi:cy="94.186218"
       sodipodi:expansion="1"
       sodipodi:revolution="2.97"
       sodipodi:radius="23.885185"
       sodipodi:argument="-4.5898614"
       sodipodi:t0="0.029999999"
       transform="matrix(0,0.28867249,-0.28859384,0,58.809723,73.974034)"
       d="m 48.730685,94.742328 c -1.29821,0.515628 -1.893624,-1.354067 -1.664583,-2.275885 0.545795,-2.19665 3.25802,-2.778127 5.104134,-1.957038 3.014821,1.340889 3.722666,5.202844 2.249493,7.932383 -2.075084,3.844772 -7.16414,4.684382 -10.760631,2.541952 -4.682115,-2.789143 -5.653971,-9.131937 -2.834403,-13.588885 3.494319,-5.523542 11.103026,-6.6278 16.417129,-3.126858 6.36739,4.19485 7.604161,13.076053 3.419313,19.245383 -4.89265,7.21277 -15.050319,8.58214 -22.073627,3.71176 -8.059178,-5.58871 -9.561238,-17.025424 -4.004223,-24.901873 6.283602,-8.906305 19.001136,-10.541113 27.730125,-4.296678 9.753955,6.977664 11.521564,20.977291 4.589133,30.558371 -3.788777,5.23635 -9.739131,8.66524 -16.145471,9.43449" />
    <path
       sodipodi:type="spiral"
       style="fill:none;fill-rule:evenodd;stroke:#000000;stroke-width:3.46461;stroke-linecap:round;stroke-miterlimit:4;stroke-dasharray:none"
       id="path3632-3"
       sodipodi:cx="49.182564"
       sodipodi:cy="94.186218"
       sodipodi:expansion="1"
       sodipodi:revolution="2.97"
       sodipodi:radius="23.885185"
       sodipodi:argument="-4.5898614"
       sodipodi:t0="0.029999999"
       transform="matrix(0,-0.28867249,-0.28859384,0,71.434724,103.52349)"
       d="m 48.730685,94.742328 c -1.29821,0.515628 -1.893624,-1.354067 -1.664583,-2.275885 0.545795,-2.19665 3.25802,-2.778127 5.104134,-1.957038 3.014821,1.340889 3.722666,5.202844 2.249493,7.932383 -2.075084,3.844772 -7.16414,4.684382 -10.760631,2.541952 -4.682115,-2.789143 -5.653971,-9.131937 -2.834403,-13.588885 3.494319,-5.523542 11.103026,-6.6278 16.417129,-3.126858 6.36739,4.19485 7.604161,13.076053 3.419313,19.245383 -4.89265,7.21277 -15.050319,8.58214 -22.073627,3.71176 -8.059178,-5.58871 -9.561238,-17.025424 -4.004223,-24.901873 6.283602,-8.906305 19.001136,-10.541113 27.730125,-4.296678 9.753955,6.977664 11.521564,20.977291 4.589133,30.558371 -3.788777,5.23635 -9.739131,8.66524 -16.145471,9.43449" />
    <path
       sodipodi:type="spiral"
       style="fill:none;fill-rule:evenodd;stroke:#000000;stroke-width:3.46461;stroke-linecap:round;stroke-miterlimit:4;stroke-dasharray:none"
       id="path32-0-9"
       sodipodi:cx="49.182564"
       sodipodi:cy="94.186218"
       sodipodi:expansion="1"
       sodipodi:revolution="2.97"
       sodipodi:radius="23.885185"
       sodipodi:argument="-4.5898614"
       sodipodi:t0="0.029999999"
       transform="matrix(0,0.28867249,-0.28859384,0,27.459619,63.474149)"
       d="m 48.730685,94.742328 c -1.29821,0.515628 -1.893624,-1.354067 -1.664583,-2.275885 0.545795,-2.19665 3.25802,-2.778127 5.104134,-1.957038 3.014821,1.340889 3.722666,5.202844 2.249493,7.932383 -2.075084,3.844772 -7.16414,4.684382 -10.760631,2.541952 -4.682115,-2.789143 -5.653971,-9.131937 -2.834403,-13.588885 3.494319,-5.523542 11.103026,-6.6278 16.417129,-3.126858 6.36739,4.19485 7.604161,13.076053 3.419313,19.245383 -4.89265,7.21277 -15.050319,8.58214 -22.073627,3.71176 -8.059178,-5.58871 -9.561238,-17.025424 -4.004223,-24.901873 6.283602,-8.906305 19.001136,-10.541113 27.730125,-4.296678 9.753955,6.977664 11.521564,20.977291 4.589133,30.558371 -3.788777,5.23635 -9.739131,8.66524 -16.145471,9.43449" />
    <path
       sodipodi:type="spiral"
       style="fill:none;fill-rule:evenodd;stroke:#000000;stroke-width:3.46461;stroke-linecap:round;stroke-miterlimit:4;stroke-dasharray:none"
       id="path32-0-4-6"
       sodipodi:cx="49.182564"
       sodipodi:cy="94.186218"
       sodipodi:expansion="1"
       sodipodi:revolution="2.97"
       sodipodi:radius="23.885185"
       sodipodi:argument="-4.5898614"
       sodipodi:t0="0.029999999"
       transform="matrix(0,-0.28867249,-0.28859384,0,90.584724,93.02344)"
       d="m 48.730685,94.742328 c -1.29821,0.515628 -1.893624,-1.354067 -1.664583,-2.275885 0.545795,-2.19665 3.25802,-2.778127 5.104134,-1.957038 3.014821,1.340889 3.722666,5.202844 2.249493,7.932383 -2.075084,3.844772 -7.16414,4.684382 -10.760631,2.541952 -4.682115,-2.789143 -5.653971,-9.131937 -2.834403,-13.588885 3.494319,-5.523542 11.103026,-6.6278 16.417129,-3.126858 6.36739,4.19485 7.604161,13.076053 3.419313,19.245383 -4.89265,7.21277 -15.050319,8.58214 -22.073627,3.71176 -8.059178,-5.58871 -9.561238,-17.025424 -4.004223,-24.901873 6.283602,-8.906305 19.001136,-10.541113 27.730125,-4.296678 9.753955,6.977664 11.521564,20.977291 4.589133,30.558371 -3.788777,5.23635 -9.739131,8.66524 -16.145471,9.43449" />
    <path
       sodipodi:type="spiral"
       style="fill:none;fill-rule:evenodd;stroke:#000000;stroke-width:3.46461;stroke-linecap:round;stroke-miterlimit:4;stroke-dasharray:none"
       id="path32-5-9-6"
       sodipodi:cx="49.182564"
       sodipodi:cy="94.186218"
       sodipodi:expansion="1"
       sodipodi:revolution="2.97"
       sodipodi:radius="23.885185"
       sodipodi:argument="-4.5898614"
       sodipodi:t0="0.029999999"
       transform="matrix(0,0.28867249,-0.28859384,0,77.959674,63.47415)"
       d="m 48.730685,94.742328 c -1.29821,0.515628 -1.893624,-1.354067 -1.664583,-2.275885 0.545795,-2.19665 3.25802,-2.778127 5.104134,-1.957038 3.014821,1.340889 3.722666,5.202844 2.249493,7.932383 -2.075084,3.844772 -7.16414,4.684382 -10.760631,2.541952 -4.682115,-2.789143 -5.653971,-9.131937 -2.834403,-13.588885 3.494319,-5.523542 11.103026,-6.6278 16.417129,-3.126858 6.36739,4.19485 7.604161,13.076053 3.419313,19.245383 -4.89265,7.21277 -15.050319,8.58214 -22.073627,3.71176 -8.059178,-5.58871 -9.561238,-17.025424 -4.004223,-24.901873 6.283602,-8.906305 19.001136,-10.541113 27.730125,-4.296678 9.753955,6.977664 11.521564,20.977291 4.589133,30.558371 -3.788777,5.23635 -9.739131,8.66524 -16.145471,9.43449" />
    <path
       sodipodi:type="spiral"
       style="fill:none;fill-rule:evenodd;stroke:#000000;stroke-width:3.46461;stroke-linecap:round;stroke-miterlimit:4;stroke-dasharray:none"
       id="path32-2-7-4"
       sodipodi:cx="49.182564"
       sodipodi:cy="94.186218"
       sodipodi:expansion="1"
       sodipodi:revolution="2.97"
       sodipodi:radius="23.885185"
       sodipodi:argument="-4.5898614"
       sodipodi:t0="0.029999999"
       transform="matrix(0,-0.28867249,-0.28859384,0,40.084671,93.023439)"
       d="m 48.730685,94.742328 c -1.29821,0.515628 -1.893624,-1.354067 -1.664583,-2.275885 0.545795,-2.19665 3.25802,-2.778127 5.104134,-1.957038 3.014821,1.340889 3.722666,5.202844 2.249493,7.932383 -2.075084,3.844772 -7.16414,4.684382 -10.760631,2.541952 -4.682115,-2.789143 -5.653971,-9.131937 -2.834403,-13.588885 3.494319,-5.523542 11.103026,-6.6278 16.417129,-3.126858 6.36739,4.19485 7.604161,13.076053 3.419313,19.245383 -4.89265,7.21277 -15.050319,8.58214 -22.073627,3.71176 -8.059178,-5.58871 -9.561238,-17.025424 -4.004223,-24.901873 6.283602,-8.906305 19.001136,-10.541113 27.730125,-4.296678 9.753955,6.977664 11.521564,20.977291 4.589133,30.558371 -3.788777,5.23635 -9.739131,8.66524 -16.145471,9.43449" />
    <path
       sodipodi:type="spiral"
       style="fill:none;fill-rule:evenodd;stroke:#000000;stroke-width:3.46461;stroke-linecap:round;stroke-miterlimit:4;stroke-dasharray:none"
       id="path3630-1-0"
       sodipodi:cx="49.182564"
       sodipodi:cy="94.186218"
       sodipodi:expansion="1"
       sodipodi:revolution="2.97"
       sodipodi:radius="23.885185"
       sodipodi:argument="-4.5898614"
       sodipodi:t0="0.029999999"
       transform="matrix(0,0.28867249,-0.28859384,0,52.709669,63.474065)"
       d="m 48.730685,94.742328 c -1.29821,0.515628 -1.893624,-1.354067 -1.664583,-2.275885 0.545795,-2.19665 3.25802,-2.778127 5.104134,-1.957038 3.014821,1.340889 3.722666,5.202844 2.249493,7.932383 -2.075084,3.844772 -7.16414,4.684382 -10.760631,2.541952 -4.682115,-2.789143 -5.653971,-9.131937 -2.834403,-13.588885 3.494319,-5.523542 11.103026,-6.6278 16.417129,-3.126858 6.36739,4.19485 7.604161,13.076053 3.419313,19.245383 -4.89265,7.21277 -15.050319,8.58214 -22.073627,3.71176 -8.059178,-5.58871 -9.561238,-17.025424 -4.004223,-24.901873 6.283602,-8.906305 19.001136,-10.541113 27.730125,-4.296678 9.753955,6.977664 11.521564,20.977291 4.589133,30.558371 -3.788777,5.23635 -9.739131,8.66524 -16.145471,9.43449" />
    <path
       sodipodi:type="spiral"
       style="fill:none;fill-rule:evenodd;stroke:#000000;stroke-width:3.46461;stroke-linecap:round;stroke-miterlimit:4;stroke-dasharray:none"
       id="path3632-7-8"
       sodipodi:cx="49.182564"
       sodipodi:cy="94.186218"
       sodipodi:expansion="1"
       sodipodi:revolution="2.97"
       sodipodi:radius="23.885185"
       sodipodi:argument="-4.5898614"
       sodipodi:t0="0.029999999"
       transform="matrix(0,-0.28867249,-0.28859384,0,65.334669,93.023523)"
       d="m 48.730685,94.742328 c -1.29821,0.515628 -1.893624,-1.354067 -1.664583,-2.275885 0.545795,-2.19665 3.25802,-2.778127 5.104134,-1.957038 3.014821,1.340889 3.722666,5.202844 2.249493,7.932383 -2.075084,3.844772 -7.16414,4.684382 -10.760631,2.541952 -4.682115,-2.789143 -5.653971,-9.131937 -2.834403,-13.588885 3.494319,-5.523542 11.103026,-6.6278 16.417129,-3.126858 6.36739,4.19485 7.604161,13.076053 3.419313,19.245383 -4.89265,7.21277 -15.050319,8.58214 -22.073627,3.71176 -8.059178,-5.58871 -9.561238,-17.025424 -4.004223,-24.901873 6.283602,-8.906305 19.001136,-10.541113 27.730125,-4.296678 9.753955,6.977664 11.521564,20.977291 4.589133,30.558371 -3.788777,5.23635 -9.739131,8.66524 -16.145471,9.43449" />
    <path
       sodipodi:type="spiral"
       style="fill:none;fill-rule:evenodd;stroke:#000000;stroke-width:3.46461;stroke-linecap:round;stroke-miterlimit:4;stroke-dasharray:none"
       id="path4294"
       sodipodi:cx="49.182564"
       sodipodi:cy="94.186218"
       sodipodi:expansion="1"
       sodipodi:revolution="2.97"
       sodipodi:radius="23.885185"
       sodipodi:argument="-4.5898614"
       sodipodi:t0="0.029999999"
       d="m 48.730685,94.742328 c -1.29821,0.515628 -1.893624,-1.354067 -1.664583,-2.275885 0.545795,-2.19665 3.25802,-2.778127 5.104134,-1.957038 3.014821,1.340889 3.722666,5.202844 2.249493,7.932383 -2.075084,3.844772 -7.16414,4.684382 -10.760631,2.541952 -4.682115,-2.789143 -5.653971,-9.131937 -2.834403,-13.588885 3.494319,-5.523542 11.103026,-6.6278 16.417129,-3.126858 6.36739,4.19485 7.604161,13.076053 3.419313,19.245383 -4.89265,7.21277 -15.050319,8.58214 -22.073627,3.71176 -8.059178,-5.58871 -9.561238,-17.025424 -4.004223,-24.901873 6.283602,-8.906305 19.001136,-10.541113 27.730125,-4.296678 9.753955,6.977664 11.521564,20.977291 4.589133,30.558371 -3.788777,5.23635 -9.739131,8.66524 -16.145471,9.43449"
       transform="matrix(0,0.28867249,-0.28859384,0,33.559567,43.974118)" />
    <path
       sodipodi:type="spiral"
       style="fill:none;fill-rule:evenodd;stroke:#000000;stroke-width:3.46461;stroke-linecap:round;stroke-miterlimit:4;stroke-dasharray:none"
       id="path4296"
       sodipodi:cx="49.182564"
       sodipodi:cy="94.186218"
       sodipodi:expansion="1"
       sodipodi:revolution="2.97"
       sodipodi:radius="23.885185"
       sodipodi:argument="-4.5898614"
       sodipodi:t0="0.029999999"
       transform="matrix(0,0.28867249,-0.28859384,0,84.059619,43.974119)"
       d="m 48.730685,94.742328 c -1.29821,0.515628 -1.893624,-1.354067 -1.664583,-2.275885 0.545795,-2.19665 3.25802,-2.778127 5.104134,-1.957038 3.014821,1.340889 3.722666,5.202844 2.249493,7.932383 -2.075084,3.844772 -7.16414,4.684382 -10.760631,2.541952 -4.682115,-2.789143 -5.653971,-9.131937 -2.834403,-13.588885 3.494319,-5.523542 11.103026,-6.6278 16.417129,-3.126858 6.36739,4.19485 7.604161,13.076053 3.419313,19.245383 -4.89265,7.21277 -15.050319,8.58214 -22.073627,3.71176 -8.059178,-5.58871 -9.561238,-17.025424 -4.004223,-24.901873 6.283602,-8.906305 19.001136,-10.541113 27.730125,-4.296678 9.753955,6.977664 11.521564,20.977291 4.589133,30.558371 -3.788777,5.23635 -9.739131,8.66524 -16.145471,9.43449" />
    <path
       sodipodi:type="spiral"
       style="fill:none;fill-rule:evenodd;stroke:#000000;stroke-width:3.46461;stroke-linecap:round;stroke-miterlimit:4;stroke-dasharray:none"
       id="path4298"
       sodipodi:cx="49.182564"
       sodipodi:cy="94.186218"
       sodipodi:expansion="1"
       sodipodi:revolution="2.97"
       sodipodi:radius="23.885185"
       sodipodi:argument="-4.5898614"
       sodipodi:t0="0.029999999"
       transform="matrix(0,-0.28867249,-0.28859384,0,46.184619,73.523408)"
       d="m 48.730685,94.742328 c -1.29821,0.515628 -1.893624,-1.354067 -1.664583,-2.275885 0.545795,-2.19665 3.25802,-2.778127 5.104134,-1.957038 3.014821,1.340889 3.722666,5.202844 2.249493,7.932383 -2.075084,3.844772 -7.16414,4.684382 -10.760631,2.541952 -4.682115,-2.789143 -5.653971,-9.131937 -2.834403,-13.588885 3.494319,-5.523542 11.103026,-6.6278 16.417129,-3.126858 6.36739,4.19485 7.604161,13.076053 3.419313,19.245383 -4.89265,7.21277 -15.050319,8.58214 -22.073627,3.71176 -8.059178,-5.58871 -9.561238,-17.025424 -4.004223,-24.901873 6.283602,-8.906305 19.001136,-10.541113 27.730125,-4.296678 9.753955,6.977664 11.521564,20.977291 4.589133,30.558371 -3.788777,5.23635 -9.739131,8.66524 -16.145471,9.43449" />
    <path
       sodipodi:type="spiral"
       style="fill:none;fill-rule:evenodd;stroke:#000000;stroke-width:3.46461;stroke-linecap:round;stroke-miterlimit:4;stroke-dasharray:none"
       id="path4300"
       sodipodi:cx="49.182564"
       sodipodi:cy="94.186218"
       sodipodi:expansion="1"
       sodipodi:revolution="2.97"
       sodipodi:radius="23.885185"
       sodipodi:argument="-4.5898614"
       sodipodi:t0="0.029999999"
       d="m 48.730685,94.742328 c -1.29821,0.515628 -1.893624,-1.354067 -1.664583,-2.275885 0.545795,-2.19665 3.25802,-2.778127 5.104134,-1.957038 3.014821,1.340889 3.722666,5.202844 2.249493,7.932383 -2.075084,3.844772 -7.16414,4.684382 -10.760631,2.541952 -4.682115,-2.789143 -5.653971,-9.131937 -2.834403,-13.588885 3.494319,-5.523542 11.103026,-6.6278 16.417129,-3.126858 6.36739,4.19485 7.604161,13.076053 3.419313,19.245383 -4.89265,7.21277 -15.050319,8.58214 -22.073627,3.71176 -8.059178,-5.58871 -9.561238,-17.025424 -4.004223,-24.901873 6.283602,-8.906305 19.001136,-10.541113 27.730125,-4.296678 9.753955,6.977664 11.521564,20.977291 4.589133,30.558371 -3.788777,5.23635 -9.739131,8.66524 -16.145471,9.43449"
       transform="matrix(0,0.28867249,-0.28859384,0,58.809619,43.974034)" />
    <path
       sodipodi:type="spiral"
       style="fill:none;fill-rule:evenodd;stroke:#000000;stroke-width:3.46461;stroke-linecap:round;stroke-miterlimit:4;stroke-dasharray:none"
       id="path4302"
       sodipodi:cx="49.182564"
       sodipodi:cy="94.186218"
       sodipodi:expansion="1"
       sodipodi:revolution="2.97"
       sodipodi:radius="23.885185"
       sodipodi:argument="-4.5898614"
       sodipodi:t0="0.029999999"
       transform="matrix(0,-0.28867249,-0.28859384,0,71.434619,73.523492)"
       d="m 48.730685,94.742328 c -1.29821,0.515628 -1.893624,-1.354067 -1.664583,-2.275885 0.545795,-2.19665 3.25802,-2.778127 5.104134,-1.957038 3.014821,1.340889 3.722666,5.202844 2.249493,7.932383 -2.075084,3.844772 -7.16414,4.684382 -10.760631,2.541952 -4.682115,-2.789143 -5.653971,-9.131937 -2.834403,-13.588885 3.494319,-5.523542 11.103026,-6.6278 16.417129,-3.126858 6.36739,4.19485 7.604161,13.076053 3.419313,19.245383 -4.89265,7.21277 -15.050319,8.58214 -22.073627,3.71176 -8.059178,-5.58871 -9.561238,-17.025424 -4.004223,-24.901873 6.283602,-8.906305 19.001136,-10.541113 27.730125,-4.296678 9.753955,6.977664 11.521564,20.977291 4.589133,30.558371 -3.788777,5.23635 -9.739131,8.66524 -16.145471,9.43449" />
    <path
       sodipodi:type="spiral"
       style="fill:none;fill-rule:evenodd;stroke:#000000;stroke-width:3.46461;stroke-linecap:round;stroke-miterlimit:4;stroke-dasharray:none"
       id="path4304"
       sodipodi:cx="49.182564"
       sodipodi:cy="94.186218"
       sodipodi:expansion="1"
       sodipodi:revolution="2.97"
       sodipodi:radius="23.885185"
       sodipodi:argument="-4.5898614"
       sodipodi:t0="0.029999999"
       transform="matrix(0,0.28867249,-0.28859384,0,33.559619,31.474149)"
       d="m 48.730685,94.742328 c -1.29821,0.515628 -1.893624,-1.354067 -1.664583,-2.275885 0.545795,-2.19665 3.25802,-2.778127 5.104134,-1.957038 3.014821,1.340889 3.722666,5.202844 2.249493,7.932383 -2.075084,3.844772 -7.16414,4.684382 -10.760631,2.541952 -4.682115,-2.789143 -5.653971,-9.131937 -2.834403,-13.588885 3.494319,-5.523542 11.103026,-6.6278 16.417129,-3.126858 6.36739,4.19485 7.604161,13.076053 3.419313,19.245383 -4.89265,7.21277 -15.050319,8.58214 -22.073627,3.71176 -8.059178,-5.58871 -9.561238,-17.025424 -4.004223,-24.901873 6.283602,-8.906305 19.001136,-10.541113 27.730125,-4.296678 9.753955,6.977664 11.521564,20.977291 4.589133,30.558371 -3.788777,5.23635 -9.739131,8.66524 -16.145471,9.43449" />
    <path
       sodipodi:type="spiral"
       style="fill:none;fill-rule:evenodd;stroke:#000000;stroke-width:3.46461;stroke-linecap:round;stroke-miterlimit:4;stroke-dasharray:none"
       id="path4306"
       sodipodi:cx="49.182564"
       sodipodi:cy="94.186218"
       sodipodi:expansion="1"
       sodipodi:revolution="2.97"
       sodipodi:radius="23.885185"
       sodipodi:argument="-4.5898614"
       sodipodi:t0="0.029999999"
       transform="matrix(0,-0.28867249,-0.28859384,0,96.684723,61.02344)"
       d="m 48.730685,94.742328 c -1.29821,0.515628 -1.893624,-1.354067 -1.664583,-2.275885 0.545795,-2.19665 3.25802,-2.778127 5.104134,-1.957038 3.014821,1.340889 3.722666,5.202844 2.249493,7.932383 -2.075084,3.844772 -7.16414,4.684382 -10.760631,2.541952 -4.682115,-2.789143 -5.653971,-9.131937 -2.834403,-13.588885 3.494319,-5.523542 11.103026,-6.6278 16.417129,-3.126858 6.36739,4.19485 7.604161,13.076053 3.419313,19.245383 -4.89265,7.21277 -15.050319,8.58214 -22.073627,3.71176 -8.059178,-5.58871 -9.561238,-17.025424 -4.004223,-24.901873 6.283602,-8.906305 19.001136,-10.541113 27.730125,-4.296678 9.753955,6.977664 11.521564,20.977291 4.589133,30.558371 -3.788777,5.23635 -9.739131,8.66524 -16.145471,9.43449" />
    <path
       sodipodi:type="spiral"
       style="fill:none;fill-rule:evenodd;stroke:#000000;stroke-width:3.46461;stroke-linecap:round;stroke-miterlimit:4;stroke-dasharray:none"
       id="path4308"
       sodipodi:cx="49.182564"
       sodipodi:cy="94.186218"
       sodipodi:expansion="1"
       sodipodi:revolution="2.97"
       sodipodi:radius="23.885185"
       sodipodi:argument="-4.5898614"
       sodipodi:t0="0.029999999"
       transform="matrix(0,0.28867249,-0.28859384,0,84.059669,31.47415)"
       d="m 48.730685,94.742328 c -1.29821,0.515628 -1.893624,-1.354067 -1.664583,-2.275885 0.545795,-2.19665 3.25802,-2.778127 5.104134,-1.957038 3.014821,1.340889 3.722666,5.202844 2.249493,7.932383 -2.075084,3.844772 -7.16414,4.684382 -10.760631,2.541952 -4.682115,-2.789143 -5.653971,-9.131937 -2.834403,-13.588885 3.494319,-5.523542 11.103026,-6.6278 16.417129,-3.126858 6.36739,4.19485 7.604161,13.076053 3.419313,19.245383 -4.89265,7.21277 -15.050319,8.58214 -22.073627,3.71176 -8.059178,-5.58871 -9.561238,-17.025424 -4.004223,-24.901873 6.283602,-8.906305 19.001136,-10.541113 27.730125,-4.296678 9.753955,6.977664 11.521564,20.977291 4.589133,30.558371 -3.788777,5.23635 -9.739131,8.66524 -16.145471,9.43449" />
    <path
       sodipodi:type="spiral"
       style="fill:none;fill-rule:evenodd;stroke:#000000;stroke-width:3.46461;stroke-linecap:round;stroke-miterlimit:4;stroke-dasharray:none"
       id="path4310"
       sodipodi:cx="49.182564"
       sodipodi:cy="94.186218"
       sodipodi:expansion="1"
       sodipodi:revolution="2.97"
       sodipodi:radius="23.885185"
       sodipodi:argument="-4.5898614"
       sodipodi:t0="0.029999999"
       transform="matrix(0,-0.28867249,-0.28859384,0,46.184671,61.023439)"
       d="m 48.730685,94.742328 c -1.29821,0.515628 -1.893624,-1.354067 -1.664583,-2.275885 0.545795,-2.19665 3.25802,-2.778127 5.104134,-1.957038 3.014821,1.340889 3.722666,5.202844 2.249493,7.932383 -2.075084,3.844772 -7.16414,4.684382 -10.760631,2.541952 -4.682115,-2.789143 -5.653971,-9.131937 -2.834403,-13.588885 3.494319,-5.523542 11.103026,-6.6278 16.417129,-3.126858 6.36739,4.19485 7.604161,13.076053 3.419313,19.245383 -4.89265,7.21277 -15.050319,8.58214 -22.073627,3.71176 -8.059178,-5.58871 -9.561238,-17.025424 -4.004223,-24.901873 6.283602,-8.906305 19.001136,-10.541113 27.730125,-4.296678 9.753955,6.977664 11.521564,20.977291 4.589133,30.558371 -3.788777,5.23635 -9.739131,8.66524 -16.145471,9.43449" />
    <path
       sodipodi:type="spiral"
       style="fill:none;fill-rule:evenodd;stroke:#000000;stroke-width:3.46461;stroke-linecap:round;stroke-miterlimit:4;stroke-dasharray:none"
       id="path4312"
       sodipodi:cx="49.182564"
       sodipodi:cy="94.186218"
       sodipodi:expansion="1"
       sodipodi:revolution="2.97"
       sodipodi:radius="23.885185"
       sodipodi:argument="-4.5898614"
       sodipodi:t0="0.029999999"
       transform="matrix(0,0.28867249,-0.28859384,0,58.809669,31.474065)"
       d="m 48.730685,94.742328 c -1.29821,0.515628 -1.893624,-1.354067 -1.664583,-2.275885 0.545795,-2.19665 3.25802,-2.778127 5.104134,-1.957038 3.014821,1.340889 3.722666,5.202844 2.249493,7.932383 -2.075084,3.844772 -7.16414,4.684382 -10.760631,2.541952 -4.682115,-2.789143 -5.653971,-9.131937 -2.834403,-13.588885 3.494319,-5.523542 11.103026,-6.6278 16.417129,-3.126858 6.36739,4.19485 7.604161,13.076053 3.419313,19.245383 -4.89265,7.21277 -15.050319,8.58214 -22.073627,3.71176 -8.059178,-5.58871 -9.561238,-17.025424 -4.004223,-24.901873 6.283602,-8.906305 19.001136,-10.541113 27.730125,-4.296678 9.753955,6.977664 11.521564,20.977291 4.589133,30.558371 -3.788777,5.23635 -9.739131,8.66524 -16.145471,9.43449" />
    <path
       sodipodi:type="spiral"
       style="fill:none;fill-rule:evenodd;stroke:#000000;stroke-width:3.46461;stroke-linecap:round;stroke-miterlimit:4;stroke-dasharray:none"
       id="path4314"
       sodipodi:cx="49.182564"
       sodipodi:cy="94.186218"
       sodipodi:expansion="1"
       sodipodi:revolution="2.97"
       sodipodi:radius="23.885185"
       sodipodi:argument="-4.5898614"
       sodipodi:t0="0.029999999"
       transform="matrix(0,-0.28867249,-0.28859384,0,71.434669,61.023523)"
       d="m 48.730685,94.742328 c -1.29821,0.515628 -1.893624,-1.354067 -1.664583,-2.275885 0.545795,-2.19665 3.25802,-2.778127 5.104134,-1.957038 3.014821,1.340889 3.722666,5.202844 2.249493,7.932383 -2.075084,3.844772 -7.16414,4.684382 -10.760631,2.541952 -4.682115,-2.789143 -5.653971,-9.131937 -2.834403,-13.588885 3.494319,-5.523542 11.103026,-6.6278 16.417129,-3.126858 6.36739,4.19485 7.604161,13.076053 3.419313,19.245383 -4.89265,7.21277 -15.050319,8.58214 -22.073627,3.71176 -8.059178,-5.58871 -9.561238,-17.025424 -4.004223,-24.901873 6.283602,-8.906305 19.001136,-10.541113 27.730125,-4.296678 9.753955,6.977664 11.521564,20.977291 4.589133,30.558371 -3.788777,5.23635 -9.739131,8.66524 -16.145471,9.43449" />
  </g>
</svg>
