%TF.GenerationSoftware,KiCad,Pcbnew,(5.1.8-0-10_14)*%
%TF.CreationDate,2021-07-20T13:11:58+01:00*%
%TF.ProjectId,4u-music-thing-spring-reverb,34752d6d-7573-4696-932d-7468696e672d,rev?*%
%TF.SameCoordinates,Original*%
%TF.FileFunction,Copper,L1,Top*%
%TF.FilePolarity,Positive*%
%FSLAX46Y46*%
G04 Gerber Fmt 4.6, Leading zero omitted, Abs format (unit mm)*
G04 Created by KiCad (PCBNEW (5.1.8-0-10_14)) date 2021-07-20 13:11:58*
%MOMM*%
%LPD*%
G01*
G04 APERTURE LIST*
%TA.AperFunction,ComponentPad*%
%ADD10C,2.000000*%
%TD*%
%TA.AperFunction,ComponentPad*%
%ADD11O,1.600000X1.600000*%
%TD*%
%TA.AperFunction,ComponentPad*%
%ADD12C,1.600000*%
%TD*%
%TA.AperFunction,ComponentPad*%
%ADD13O,1.740000X2.190000*%
%TD*%
%TA.AperFunction,ComponentPad*%
%ADD14O,1.700000X1.700000*%
%TD*%
%TA.AperFunction,ComponentPad*%
%ADD15R,1.700000X1.700000*%
%TD*%
%TA.AperFunction,ComponentPad*%
%ADD16C,2.032000*%
%TD*%
%TA.AperFunction,ComponentPad*%
%ADD17C,6.500000*%
%TD*%
%TA.AperFunction,ComponentPad*%
%ADD18R,1.600000X1.600000*%
%TD*%
%TA.AperFunction,ComponentPad*%
%ADD19O,2.720000X3.240000*%
%TD*%
%TA.AperFunction,ComponentPad*%
%ADD20C,1.800000*%
%TD*%
%TA.AperFunction,ComponentPad*%
%ADD21R,1.800000X1.800000*%
%TD*%
%TA.AperFunction,ComponentPad*%
%ADD22O,1.800000X1.800000*%
%TD*%
%TA.AperFunction,ViaPad*%
%ADD23C,0.762000*%
%TD*%
%TA.AperFunction,Conductor*%
%ADD24C,0.635000*%
%TD*%
%TA.AperFunction,Conductor*%
%ADD25C,1.270000*%
%TD*%
%TA.AperFunction,Conductor*%
%ADD26C,0.254000*%
%TD*%
%TA.AperFunction,Conductor*%
%ADD27C,0.100000*%
%TD*%
G04 APERTURE END LIST*
D10*
%TO.P,R14,3*%
%TO.N,GND*%
X139486000Y-73112000D03*
%TO.P,R14,1*%
%TO.N,Net-(C10-Pad2)*%
X139486000Y-68112000D03*
%TO.P,R14,2*%
X141986000Y-70612000D03*
%TD*%
D11*
%TO.P,R13,2*%
%TO.N,Net-(C9-Pad1)*%
X129794000Y-127000000D03*
D12*
%TO.P,R13,1*%
%TO.N,/AUDIO_OUT_MAIN*%
X129794000Y-116840000D03*
%TD*%
D11*
%TO.P,R2,2*%
%TO.N,GND*%
X129413000Y-81026000D03*
D12*
%TO.P,R2,1*%
%TO.N,Net-(C3-Pad2)*%
X129413000Y-70866000D03*
%TD*%
D13*
%TO.P,J8,4*%
%TO.N,Net-(D2-Pad1)*%
X142240000Y-144780000D03*
%TO.P,J8,3*%
%TO.N,GND*%
X139700000Y-144780000D03*
%TO.P,J8,2*%
X137160000Y-144780000D03*
%TO.P,J8,1*%
%TO.N,Net-(D1-Pad2)*%
%TA.AperFunction,ComponentPad*%
G36*
G01*
X133750000Y-145625001D02*
X133750000Y-143934999D01*
G75*
G02*
X133999999Y-143685000I249999J0D01*
G01*
X135240001Y-143685000D01*
G75*
G02*
X135490000Y-143934999I0J-249999D01*
G01*
X135490000Y-145625001D01*
G75*
G02*
X135240001Y-145875000I-249999J0D01*
G01*
X133999999Y-145875000D01*
G75*
G02*
X133750000Y-145625001I0J249999D01*
G01*
G37*
%TD.AperFunction*%
%TD*%
D14*
%TO.P,J7,3*%
%TO.N,/TILT_CENTRE_CTRL*%
X121920000Y-91440000D03*
%TO.P,J7,2*%
%TO.N,/TILT_HI_CTRL*%
X121920000Y-88900000D03*
D15*
%TO.P,J7,1*%
%TO.N,/TILT_LO_CTRL*%
X121920000Y-86360000D03*
%TD*%
D14*
%TO.P,J6,3*%
%TO.N,/TILT_CENTRE_MAIN*%
X129540000Y-91440000D03*
%TO.P,J6,2*%
%TO.N,/TILT_HI_MAIN*%
X129540000Y-88900000D03*
D15*
%TO.P,J6,1*%
%TO.N,/TILT_LO_MAIN*%
X129540000Y-86360000D03*
%TD*%
%TO.P,J5,1*%
%TO.N,Net-(C10-Pad1)*%
%TA.AperFunction,ComponentPad*%
G36*
G01*
X143256000Y-42672000D02*
X143256000Y-44196000D01*
G75*
G02*
X143002000Y-44450000I-254000J0D01*
G01*
X141478000Y-44450000D01*
G75*
G02*
X141224000Y-44196000I0J254000D01*
G01*
X141224000Y-42672000D01*
G75*
G02*
X141478000Y-42418000I254000J0D01*
G01*
X143002000Y-42418000D01*
G75*
G02*
X143256000Y-42672000I0J-254000D01*
G01*
G37*
%TD.AperFunction*%
D16*
%TO.P,J5,2*%
%TO.N,Net-(C11-Pad1)*%
X138938000Y-43434000D03*
%TD*%
D12*
%TO.P,J3,1*%
%TO.N,Net-(C2-Pad2)*%
X114808000Y-60452000D03*
D17*
X111760000Y-63500000D03*
%TD*%
%TO.P,J2,1*%
%TO.N,Net-(J2-Pad1)*%
%TA.AperFunction,ComponentPad*%
G36*
G01*
X133858000Y-42418000D02*
X133858000Y-43942000D01*
G75*
G02*
X133604000Y-44196000I-254000J0D01*
G01*
X132080000Y-44196000D01*
G75*
G02*
X131826000Y-43942000I0J254000D01*
G01*
X131826000Y-42418000D01*
G75*
G02*
X132080000Y-42164000I254000J0D01*
G01*
X133604000Y-42164000D01*
G75*
G02*
X133858000Y-42418000I0J-254000D01*
G01*
G37*
%TD.AperFunction*%
D16*
%TO.P,J2,2*%
%TO.N,GND*%
X129540000Y-43180000D03*
%TD*%
D12*
%TO.P,C13,2*%
%TO.N,-12V*%
X145248000Y-136398000D03*
D18*
%TO.P,C13,1*%
%TO.N,GND*%
X142748000Y-136398000D03*
%TD*%
D12*
%TO.P,C12,2*%
%TO.N,GND*%
X138390000Y-138176000D03*
D18*
%TO.P,C12,1*%
%TO.N,+12V*%
X135890000Y-138176000D03*
%TD*%
D12*
%TO.P,C11,2*%
%TO.N,Net-(C11-Pad2)*%
X145796000Y-66802000D03*
%TO.P,C11,1*%
%TO.N,Net-(C11-Pad1)*%
X145796000Y-61802000D03*
%TD*%
%TO.P,C9,2*%
%TO.N,Net-(C9-Pad2)*%
X137922000Y-122936000D03*
%TO.P,C9,1*%
%TO.N,Net-(C9-Pad1)*%
X132922000Y-122936000D03*
%TD*%
D19*
%TO.P,RV3,*%
%TO.N,*%
X106960000Y-120650000D03*
X116560000Y-120650000D03*
D20*
%TO.P,RV3,3*%
%TO.N,/TILT_HI_CTRL*%
X114260000Y-128150000D03*
%TO.P,RV3,2*%
%TO.N,/TILT_CENTRE_CTRL*%
X111760000Y-128150000D03*
D21*
%TO.P,RV3,1*%
%TO.N,/TILT_LO_CTRL*%
X109260000Y-128150000D03*
%TD*%
D19*
%TO.P,RV2,*%
%TO.N,*%
X106960000Y-101600000D03*
X116560000Y-101600000D03*
D20*
%TO.P,RV2,3*%
%TO.N,/AUDIO_WET_CTRL*%
X114260000Y-109100000D03*
%TO.P,RV2,2*%
%TO.N,/AUDIO_MIX_CTRL*%
X111760000Y-109100000D03*
D21*
%TO.P,RV2,1*%
%TO.N,/AUDIO_DRY_CTRL*%
X109260000Y-109100000D03*
%TD*%
D19*
%TO.P,RV1,*%
%TO.N,*%
X106960000Y-139700000D03*
X116560000Y-139700000D03*
D20*
%TO.P,RV1,3*%
%TO.N,GND1*%
X114260000Y-147200000D03*
%TO.P,RV1,2*%
%TO.N,/AUDIO1_IN_CTRL*%
X111760000Y-147200000D03*
D21*
%TO.P,RV1,1*%
%TO.N,Net-(C1-Pad1)*%
X109260000Y-147200000D03*
%TD*%
D11*
%TO.P,U3,8*%
%TO.N,+12V*%
X140970000Y-131064000D03*
%TO.P,U3,4*%
%TO.N,-12V*%
X148590000Y-123444000D03*
%TO.P,U3,7*%
%TO.N,Net-(C9-Pad1)*%
X140970000Y-128524000D03*
%TO.P,U3,3*%
%TO.N,/AUDIO_MIX*%
X148590000Y-125984000D03*
%TO.P,U3,6*%
%TO.N,Net-(C9-Pad2)*%
X140970000Y-125984000D03*
%TO.P,U3,2*%
%TO.N,/AUDIO_DRY_MAIN*%
X148590000Y-128524000D03*
%TO.P,U3,5*%
%TO.N,GND*%
X140970000Y-123444000D03*
D18*
%TO.P,U3,1*%
%TO.N,/AUDIO_DRY_MAIN*%
X148590000Y-131064000D03*
%TD*%
D11*
%TO.P,U2,8*%
%TO.N,+12V*%
X134366000Y-116078000D03*
%TO.P,U2,4*%
%TO.N,-12V*%
X141986000Y-108458000D03*
%TO.P,U2,7*%
%TO.N,Net-(C8-Pad1)*%
X134366000Y-113538000D03*
%TO.P,U2,3*%
%TO.N,GND*%
X141986000Y-110998000D03*
%TO.P,U2,6*%
%TO.N,/TILT_CENTRE_MAIN*%
X134366000Y-110998000D03*
%TO.P,U2,2*%
%TO.N,Net-(C5-Pad2)*%
X141986000Y-113538000D03*
%TO.P,U2,5*%
%TO.N,GND*%
X134366000Y-108458000D03*
D18*
%TO.P,U2,1*%
%TO.N,/AUDIO_MIX*%
X141986000Y-116078000D03*
%TD*%
D11*
%TO.P,U1,8*%
%TO.N,+12V*%
X138176000Y-58420000D03*
%TO.P,U1,4*%
%TO.N,-12V*%
X145796000Y-50800000D03*
%TO.P,U1,7*%
%TO.N,/AUDIO_WET_MAIN*%
X138176000Y-55880000D03*
%TO.P,U1,3*%
%TO.N,Net-(C8-Pad1)*%
X145796000Y-53340000D03*
%TO.P,U1,6*%
%TO.N,Net-(C3-Pad1)*%
X138176000Y-53340000D03*
%TO.P,U1,2*%
%TO.N,Net-(C10-Pad1)*%
X145796000Y-55880000D03*
%TO.P,U1,5*%
%TO.N,Net-(J2-Pad1)*%
X138176000Y-50800000D03*
D18*
%TO.P,U1,1*%
%TO.N,Net-(C11-Pad1)*%
X145796000Y-58420000D03*
%TD*%
D11*
%TO.P,R15,2*%
%TO.N,Net-(C10-Pad1)*%
X149098000Y-55880000D03*
D12*
%TO.P,R15,1*%
%TO.N,Net-(C11-Pad2)*%
X149098000Y-66040000D03*
%TD*%
D11*
%TO.P,R12,2*%
%TO.N,Net-(C7-Pad1)*%
X133985000Y-80264000D03*
D12*
%TO.P,R12,1*%
%TO.N,Net-(C8-Pad1)*%
X144145000Y-80264000D03*
%TD*%
D11*
%TO.P,R11,2*%
%TO.N,/TILT_HI_MAIN*%
X134112000Y-83693000D03*
D12*
%TO.P,R11,1*%
%TO.N,Net-(C8-Pad1)*%
X144272000Y-83693000D03*
%TD*%
D11*
%TO.P,R10,2*%
%TO.N,Net-(C9-Pad2)*%
X143891000Y-94869000D03*
D12*
%TO.P,R10,1*%
%TO.N,/AUDIO_OUT_MAIN*%
X133731000Y-94869000D03*
%TD*%
D11*
%TO.P,R9,2*%
%TO.N,/AUDIO_MIX_MAIN*%
X143891000Y-91694000D03*
D12*
%TO.P,R9,1*%
%TO.N,Net-(C9-Pad2)*%
X133731000Y-91694000D03*
%TD*%
D11*
%TO.P,R8,2*%
%TO.N,/AUDIO_MIX*%
X147447000Y-91821000D03*
D12*
%TO.P,R8,1*%
%TO.N,/TILT_LO_MAIN*%
X147447000Y-81661000D03*
%TD*%
D11*
%TO.P,R7,2*%
%TO.N,/AUDIO_MIX*%
X148590000Y-104775000D03*
D12*
%TO.P,R7,1*%
%TO.N,Net-(C6-Pad2)*%
X148590000Y-94615000D03*
%TD*%
D11*
%TO.P,R6,2*%
%TO.N,Net-(C5-Pad2)*%
X145288000Y-106299000D03*
D12*
%TO.P,R6,1*%
%TO.N,/AUDIO_MIX*%
X145288000Y-116459000D03*
%TD*%
D11*
%TO.P,R5,2*%
%TO.N,/AUDIO1_IN_MAIN*%
X134620000Y-98171000D03*
D12*
%TO.P,R5,1*%
%TO.N,Net-(C5-Pad2)*%
X144780000Y-98171000D03*
%TD*%
D11*
%TO.P,R4,2*%
%TO.N,/AUDIO2_IN_MAIN*%
X134620000Y-101727000D03*
D12*
%TO.P,R4,1*%
%TO.N,Net-(C5-Pad2)*%
X144780000Y-101727000D03*
%TD*%
D11*
%TO.P,R3,2*%
%TO.N,Net-(C3-Pad1)*%
X129032000Y-49784000D03*
D12*
%TO.P,R3,1*%
%TO.N,/AUDIO_WET_MAIN*%
X129032000Y-59944000D03*
%TD*%
D11*
%TO.P,R1,2*%
%TO.N,GND*%
X129540000Y-46990000D03*
D12*
%TO.P,R1,1*%
%TO.N,Net-(J2-Pad1)*%
X139700000Y-46990000D03*
%TD*%
D14*
%TO.P,J12,4*%
%TO.N,GND1*%
X121666000Y-105410000D03*
%TO.P,J12,3*%
%TO.N,/AUDIO2_IN_CTRL*%
X121666000Y-102870000D03*
%TO.P,J12,2*%
%TO.N,/AUDIO1_IN_CTRL*%
X121666000Y-100330000D03*
D15*
%TO.P,J12,1*%
%TO.N,/AUDIO_OUT_CTRL*%
X121666000Y-97790000D03*
%TD*%
D14*
%TO.P,J11,4*%
%TO.N,GND*%
X129794000Y-105410000D03*
%TO.P,J11,3*%
%TO.N,/AUDIO2_IN_MAIN*%
X129794000Y-102870000D03*
%TO.P,J11,2*%
%TO.N,/AUDIO1_IN_MAIN*%
X129794000Y-100330000D03*
D15*
%TO.P,J11,1*%
%TO.N,/AUDIO_OUT_MAIN*%
X129794000Y-97790000D03*
%TD*%
D14*
%TO.P,J10,3*%
%TO.N,/AUDIO_WET_MAIN*%
X147828000Y-71120000D03*
%TO.P,J10,2*%
%TO.N,/AUDIO_MIX_MAIN*%
X147828000Y-73660000D03*
D15*
%TO.P,J10,1*%
%TO.N,/AUDIO_DRY_MAIN*%
X147828000Y-76200000D03*
%TD*%
D14*
%TO.P,J9,3*%
%TO.N,/AUDIO_WET_CTRL*%
X103632000Y-71120000D03*
%TO.P,J9,2*%
%TO.N,/AUDIO_MIX_CTRL*%
X103632000Y-73660000D03*
D15*
%TO.P,J9,1*%
%TO.N,/AUDIO_DRY_CTRL*%
X103632000Y-76200000D03*
%TD*%
D12*
%TO.P,J4,1*%
%TO.N,/AUDIO_OUT_CTRL*%
X114808000Y-41402000D03*
D17*
X111760000Y-44450000D03*
%TD*%
D12*
%TO.P,J1,1*%
%TO.N,Net-(C1-Pad2)*%
X114808000Y-79502000D03*
D17*
X111760000Y-82550000D03*
%TD*%
D22*
%TO.P,D2,2*%
%TO.N,-12V*%
X148590000Y-139700000D03*
D21*
%TO.P,D2,1*%
%TO.N,Net-(D2-Pad1)*%
X148590000Y-147320000D03*
%TD*%
D22*
%TO.P,D1,2*%
%TO.N,Net-(D1-Pad2)*%
X129540000Y-147320000D03*
D21*
%TO.P,D1,1*%
%TO.N,+12V*%
X129540000Y-139700000D03*
%TD*%
D12*
%TO.P,C19,2*%
%TO.N,-12V*%
X147320000Y-46990000D03*
%TO.P,C19,1*%
%TO.N,GND*%
X142320000Y-46990000D03*
%TD*%
%TO.P,C18,2*%
%TO.N,GND*%
X137160000Y-125810000D03*
%TO.P,C18,1*%
%TO.N,+12V*%
X137160000Y-130810000D03*
%TD*%
%TO.P,C17,2*%
%TO.N,-12V*%
X148510000Y-119380000D03*
%TO.P,C17,1*%
%TO.N,GND*%
X143510000Y-119380000D03*
%TD*%
%TO.P,C16,2*%
%TO.N,GND*%
X135128000Y-53420000D03*
%TO.P,C16,1*%
%TO.N,+12V*%
X135128000Y-58420000D03*
%TD*%
%TO.P,C15,2*%
%TO.N,-12V*%
X141986000Y-105156000D03*
%TO.P,C15,1*%
%TO.N,GND*%
X136986000Y-105156000D03*
%TD*%
%TO.P,C14,2*%
%TO.N,GND*%
X134112000Y-119380000D03*
%TO.P,C14,1*%
%TO.N,+12V*%
X139112000Y-119380000D03*
%TD*%
%TO.P,C10,2*%
%TO.N,Net-(C10-Pad2)*%
X138724000Y-63246000D03*
D18*
%TO.P,C10,1*%
%TO.N,Net-(C10-Pad1)*%
X141224000Y-63246000D03*
%TD*%
D12*
%TO.P,C8,2*%
%TO.N,/TILT_CENTRE_MAIN*%
X130302000Y-109300000D03*
%TO.P,C8,1*%
%TO.N,Net-(C8-Pad1)*%
X130302000Y-114300000D03*
%TD*%
%TO.P,C7,2*%
%TO.N,/TILT_LO_MAIN*%
X134366000Y-76708000D03*
%TO.P,C7,1*%
%TO.N,Net-(C7-Pad1)*%
X139366000Y-76708000D03*
%TD*%
%TO.P,C6,2*%
%TO.N,Net-(C6-Pad2)*%
X139112000Y-87503000D03*
%TO.P,C6,1*%
%TO.N,/TILT_HI_MAIN*%
X134112000Y-87503000D03*
%TD*%
%TO.P,C5,2*%
%TO.N,Net-(C5-Pad2)*%
X148590000Y-110062000D03*
%TO.P,C5,1*%
%TO.N,/AUDIO_MIX*%
X148590000Y-115062000D03*
%TD*%
%TO.P,C4,2*%
%TO.N,Net-(C3-Pad1)*%
X132080000Y-50038000D03*
%TO.P,C4,1*%
%TO.N,/AUDIO_WET_MAIN*%
X132080000Y-55038000D03*
%TD*%
%TO.P,C3,2*%
%TO.N,Net-(C3-Pad2)*%
X131064000Y-66762000D03*
D18*
%TO.P,C3,1*%
%TO.N,Net-(C3-Pad1)*%
X131064000Y-64262000D03*
%TD*%
D12*
%TO.P,C2,2*%
%TO.N,Net-(C2-Pad2)*%
X118999000Y-71922000D03*
D18*
%TO.P,C2,1*%
%TO.N,/AUDIO2_IN_CTRL*%
X118999000Y-74422000D03*
%TD*%
D12*
%TO.P,C1,2*%
%TO.N,Net-(C1-Pad2)*%
X103759000Y-90972000D03*
D18*
%TO.P,C1,1*%
%TO.N,Net-(C1-Pad1)*%
X103759000Y-93472000D03*
%TD*%
D23*
%TO.N,Net-(C8-Pad1)*%
X140208000Y-100838000D03*
%TO.N,Net-(C10-Pad1)*%
X142748000Y-55880000D03*
%TD*%
D24*
%TO.N,Net-(C3-Pad2)*%
X129413000Y-68413000D02*
X131064000Y-66762000D01*
X129413000Y-70866000D02*
X129413000Y-68413000D01*
%TO.N,Net-(C3-Pad1)*%
X134874000Y-50038000D02*
X132080000Y-50038000D01*
X138176000Y-53340000D02*
X134874000Y-50038000D01*
X129286000Y-50038000D02*
X129032000Y-49784000D01*
X132080000Y-50038000D02*
X129286000Y-50038000D01*
%TO.N,Net-(C5-Pad2)*%
X144780000Y-98171000D02*
X144780000Y-101727000D01*
X144780000Y-105791000D02*
X145288000Y-106299000D01*
X144780000Y-101727000D02*
X144780000Y-105791000D01*
X145288000Y-106299000D02*
X145288000Y-106760000D01*
%TO.N,Net-(C7-Pad1)*%
X135810000Y-80264000D02*
X139366000Y-76708000D01*
X133985000Y-80264000D02*
X135810000Y-80264000D01*
%TO.N,Net-(C8-Pad1)*%
X144272000Y-80391000D02*
X144145000Y-80264000D01*
X144272000Y-83693000D02*
X144272000Y-80391000D01*
X131064000Y-113538000D02*
X130302000Y-114300000D01*
X134366000Y-113538000D02*
X131064000Y-113538000D01*
X145313509Y-74917243D02*
X144145000Y-76085752D01*
X144145000Y-76085752D02*
X144145000Y-80264000D01*
X147167501Y-69698499D02*
X145313509Y-71552491D01*
X145313509Y-71552491D02*
X145313509Y-74917243D01*
X147167501Y-55221679D02*
X147167501Y-69698499D01*
X145796000Y-53850178D02*
X147167501Y-55221679D01*
X145796000Y-53340000D02*
X145796000Y-53850178D01*
X142519499Y-98526501D02*
X140208000Y-100838000D01*
X142519499Y-85445501D02*
X142519499Y-98526501D01*
X144272000Y-83693000D02*
X142519499Y-85445501D01*
D25*
%TO.N,+12V*%
X134366000Y-139700000D02*
X135890000Y-138176000D01*
X129540000Y-139700000D02*
X134366000Y-139700000D01*
X135890000Y-132080000D02*
X137160000Y-130810000D01*
X135890000Y-138176000D02*
X135890000Y-132080000D01*
X140716000Y-130810000D02*
X140970000Y-131064000D01*
X137160000Y-130810000D02*
X140716000Y-130810000D01*
X142659001Y-122633279D02*
X139405722Y-119380000D01*
X139405722Y-119380000D02*
X139112000Y-119380000D01*
X142659001Y-129374999D02*
X142659001Y-122633279D01*
X140970000Y-131064000D02*
X142659001Y-129374999D01*
X137668000Y-119380000D02*
X134366000Y-116078000D01*
X139112000Y-119380000D02*
X137668000Y-119380000D01*
X136055001Y-114388999D02*
X136055001Y-107647279D01*
X136055001Y-107647279D02*
X132930999Y-104523277D01*
X134366000Y-116078000D02*
X136055001Y-114388999D01*
X135128000Y-65197722D02*
X135128000Y-58420000D01*
X132041999Y-68283723D02*
X135128000Y-65197722D01*
X132041999Y-99529999D02*
X132041999Y-68283723D01*
X132930999Y-100418999D02*
X132041999Y-99529999D01*
X132930999Y-104523277D02*
X132930999Y-100418999D01*
X135128000Y-58420000D02*
X138176000Y-58420000D01*
%TO.N,-12V*%
X148550000Y-139700000D02*
X145248000Y-136398000D01*
X148590000Y-139700000D02*
X148550000Y-139700000D01*
X145248000Y-126786000D02*
X148590000Y-123444000D01*
X145248000Y-136398000D02*
X145248000Y-126786000D01*
X148590000Y-119460000D02*
X148510000Y-119380000D01*
X148590000Y-123444000D02*
X148590000Y-119460000D01*
X146900999Y-113372999D02*
X141986000Y-108458000D01*
X148510000Y-117481722D02*
X146900999Y-115872721D01*
X146900999Y-115872721D02*
X146900999Y-113372999D01*
X148510000Y-119380000D02*
X148510000Y-117481722D01*
X141986000Y-108458000D02*
X141986000Y-105156000D01*
X145796000Y-48514000D02*
X147320000Y-46990000D01*
X145796000Y-50800000D02*
X145796000Y-48514000D01*
X137422999Y-100592999D02*
X141986000Y-105156000D01*
X141055001Y-78146999D02*
X137422999Y-81779001D01*
X145796000Y-50800000D02*
X144106999Y-52489001D01*
X144106999Y-52489001D02*
X144106999Y-73698001D01*
X141055001Y-76749999D02*
X141055001Y-78146999D01*
X137422999Y-81779001D02*
X137422999Y-100592999D01*
X144106999Y-73698001D02*
X141055001Y-76749999D01*
D24*
%TO.N,Net-(C11-Pad1)*%
X145796000Y-61802000D02*
X145796000Y-58420000D01*
%TO.N,/TILT_HI_MAIN*%
X134112000Y-83693000D02*
X134112000Y-87503000D01*
%TO.N,/TILT_CENTRE_MAIN*%
X132000000Y-110998000D02*
X130302000Y-109300000D01*
X134366000Y-110998000D02*
X132000000Y-110998000D01*
X128372499Y-92607501D02*
X129540000Y-91440000D01*
X128372499Y-107370499D02*
X128372499Y-92607501D01*
X130302000Y-109300000D02*
X128372499Y-107370499D01*
%TO.N,/AUDIO1_IN_CTRL*%
X111760000Y-133997752D02*
X111760000Y-147200000D01*
X120244499Y-125513253D02*
X111760000Y-133997752D01*
X120244499Y-101751501D02*
X120244499Y-125513253D01*
X121666000Y-100330000D02*
X120244499Y-101751501D01*
%TO.N,/AUDIO_OUT_CTRL*%
X122833501Y-55523501D02*
X111760000Y-44450000D01*
X111760000Y-44450000D02*
X114808000Y-41402000D01*
X123341501Y-96114499D02*
X123341501Y-56031501D01*
X123341501Y-56031501D02*
X122833501Y-55523501D01*
X121666000Y-97790000D02*
X123341501Y-96114499D01*
%TO.N,/TILT_HI_CTRL*%
X119355489Y-123054511D02*
X114260000Y-128150000D01*
X119355489Y-91464511D02*
X119355489Y-123054511D01*
X121920000Y-88900000D02*
X119355489Y-91464511D01*
%TO.N,/TILT_LO_CTRL*%
X114628490Y-93651510D02*
X121920000Y-86360000D01*
X114628490Y-102660057D02*
X114628490Y-93651510D01*
X115731501Y-103763068D02*
X114628490Y-102660057D01*
X115731501Y-109806321D02*
X115731501Y-103763068D01*
X109260000Y-116277822D02*
X115731501Y-109806321D01*
X109260000Y-128150000D02*
X109260000Y-116277822D01*
%TO.N,Net-(C1-Pad1)*%
X109260000Y-144991567D02*
X109260000Y-147200000D01*
X103759000Y-139490567D02*
X109260000Y-144991567D01*
X103759000Y-93472000D02*
X103759000Y-139490567D01*
%TO.N,Net-(C2-Pad2)*%
X114808000Y-60452000D02*
X111760000Y-63500000D01*
X118999000Y-70739000D02*
X118999000Y-71922000D01*
X111760000Y-63500000D02*
X118999000Y-70739000D01*
%TO.N,/AUDIO_WET_MAIN*%
X132922000Y-55880000D02*
X132080000Y-55038000D01*
X138176000Y-55880000D02*
X132922000Y-55880000D01*
X133096000Y-55880000D02*
X138176000Y-55880000D01*
X129032000Y-59944000D02*
X133096000Y-55880000D01*
%TO.N,/AUDIO_MIX*%
X142367000Y-116459000D02*
X141986000Y-116078000D01*
X145288000Y-116459000D02*
X142367000Y-116459000D01*
X147218499Y-111984237D02*
X148590000Y-113355738D01*
X147218499Y-106146501D02*
X147218499Y-111984237D01*
X148590000Y-113355738D02*
X148590000Y-115062000D01*
X148590000Y-104775000D02*
X147218499Y-106146501D01*
X146647001Y-102832001D02*
X148590000Y-104775000D01*
X146647001Y-92620999D02*
X146647001Y-102832001D01*
X147447000Y-91821000D02*
X146647001Y-92620999D01*
D25*
%TO.N,Net-(D1-Pad2)*%
X132080000Y-144780000D02*
X129540000Y-147320000D01*
X134620000Y-144780000D02*
X132080000Y-144780000D01*
%TO.N,Net-(D2-Pad1)*%
X146050000Y-144780000D02*
X148590000Y-147320000D01*
X142240000Y-144780000D02*
X146050000Y-144780000D01*
D24*
%TO.N,/AUDIO_MIX_CTRL*%
X111760000Y-102151185D02*
X111760000Y-109100000D01*
X106019511Y-76047511D02*
X106019511Y-96410696D01*
X106019511Y-96410696D02*
X111760000Y-102151185D01*
X103632000Y-73660000D02*
X106019511Y-76047511D01*
%TO.N,/AUDIO_WET_CTRL*%
X106908521Y-74396521D02*
X106908521Y-95478521D01*
X103632000Y-71120000D02*
X106908521Y-74396521D01*
X113360001Y-101930001D02*
X106908521Y-95478521D01*
X113360001Y-108200001D02*
X113360001Y-101930001D01*
X114260000Y-109100000D02*
X113360001Y-108200001D01*
%TO.N,/AUDIO_DRY_CTRL*%
X109260000Y-100908433D02*
X109260000Y-109100000D01*
X105130501Y-96778934D02*
X109260000Y-100908433D01*
X105130501Y-77698501D02*
X105130501Y-96778934D01*
X103632000Y-76200000D02*
X105130501Y-77698501D01*
%TO.N,/AUDIO_MIX_MAIN*%
X145643501Y-75844499D02*
X147828000Y-73660000D01*
X145643501Y-89941499D02*
X145643501Y-75844499D01*
X143891000Y-91694000D02*
X145643501Y-89941499D01*
%TO.N,/AUDIO_DRY_MAIN*%
X148590000Y-131064000D02*
X148590000Y-128524000D01*
X149961501Y-127152499D02*
X148590000Y-128524000D01*
X149961501Y-78333501D02*
X149961501Y-127152499D01*
X147828000Y-76200000D02*
X149961501Y-78333501D01*
%TO.N,Net-(C1-Pad2)*%
X111760000Y-82550000D02*
X114808000Y-79502000D01*
%TO.N,Net-(C9-Pad2)*%
X140970000Y-125984000D02*
X137922000Y-122936000D01*
%TO.N,Net-(C9-Pad1)*%
X132922000Y-124067370D02*
X132922000Y-122936000D01*
X137378630Y-128524000D02*
X132922000Y-124067370D01*
X140970000Y-128524000D02*
X137378630Y-128524000D01*
X132922000Y-123872000D02*
X129794000Y-127000000D01*
X132922000Y-122936000D02*
X132922000Y-123872000D01*
%TO.N,Net-(C10-Pad2)*%
X138724000Y-67350000D02*
X139486000Y-68112000D01*
X138724000Y-63246000D02*
X138724000Y-67350000D01*
X139486000Y-68112000D02*
X141986000Y-70612000D01*
%TO.N,Net-(C10-Pad1)*%
X141224000Y-57404000D02*
X142748000Y-55880000D01*
X141224000Y-63246000D02*
X141224000Y-57404000D01*
X143691501Y-44885501D02*
X142240000Y-43434000D01*
X143691501Y-47648321D02*
X143691501Y-44885501D01*
X142748000Y-48591822D02*
X143691501Y-47648321D01*
X142748000Y-55880000D02*
X142748000Y-48591822D01*
%TO.N,Net-(J2-Pad1)*%
X136652000Y-46990000D02*
X132842000Y-43180000D01*
X139700000Y-46990000D02*
X136652000Y-46990000D01*
X138176000Y-48514000D02*
X139700000Y-46990000D01*
X138176000Y-50800000D02*
X138176000Y-48514000D01*
%TD*%
D26*
%TO.N,GND*%
X136361924Y-81070014D02*
X136243996Y-81290643D01*
X136171376Y-81530039D01*
X136152999Y-81716622D01*
X136152999Y-81716628D01*
X136146856Y-81779001D01*
X136152999Y-81841374D01*
X136153000Y-100530616D01*
X136146856Y-100592999D01*
X136171376Y-100841962D01*
X136229452Y-101033411D01*
X136243997Y-101081358D01*
X136361925Y-101301987D01*
X136520630Y-101495369D01*
X136569085Y-101535135D01*
X140605557Y-105571609D01*
X140606147Y-105574574D01*
X140714320Y-105835727D01*
X140716001Y-105838242D01*
X140716000Y-107775758D01*
X140714320Y-107778273D01*
X140606147Y-108039426D01*
X140551000Y-108316665D01*
X140551000Y-108599335D01*
X140606147Y-108876574D01*
X140714320Y-109137727D01*
X140871363Y-109372759D01*
X141071241Y-109572637D01*
X141306273Y-109729680D01*
X141316865Y-109734067D01*
X141130869Y-109845615D01*
X140922481Y-110034586D01*
X140754963Y-110260580D01*
X140634754Y-110514913D01*
X140594096Y-110648961D01*
X140716085Y-110871000D01*
X141859000Y-110871000D01*
X141859000Y-110851000D01*
X142113000Y-110851000D01*
X142113000Y-110871000D01*
X142133000Y-110871000D01*
X142133000Y-111125000D01*
X142113000Y-111125000D01*
X142113000Y-111145000D01*
X141859000Y-111145000D01*
X141859000Y-111125000D01*
X140716085Y-111125000D01*
X140594096Y-111347039D01*
X140634754Y-111481087D01*
X140754963Y-111735420D01*
X140922481Y-111961414D01*
X141130869Y-112150385D01*
X141316865Y-112261933D01*
X141306273Y-112266320D01*
X141071241Y-112423363D01*
X140871363Y-112623241D01*
X140714320Y-112858273D01*
X140606147Y-113119426D01*
X140551000Y-113396665D01*
X140551000Y-113679335D01*
X140606147Y-113956574D01*
X140714320Y-114217727D01*
X140871363Y-114452759D01*
X141069961Y-114651357D01*
X141061518Y-114652188D01*
X140941820Y-114688498D01*
X140831506Y-114747463D01*
X140734815Y-114826815D01*
X140655463Y-114923506D01*
X140596498Y-115033820D01*
X140560188Y-115153518D01*
X140547928Y-115278000D01*
X140547928Y-116878000D01*
X140560188Y-117002482D01*
X140596498Y-117122180D01*
X140655463Y-117232494D01*
X140734815Y-117329185D01*
X140831506Y-117408537D01*
X140941820Y-117467502D01*
X141061518Y-117503812D01*
X141186000Y-117516072D01*
X142786000Y-117516072D01*
X142910482Y-117503812D01*
X143030180Y-117467502D01*
X143134951Y-117411500D01*
X144211104Y-117411500D01*
X144373241Y-117573637D01*
X144608273Y-117730680D01*
X144869426Y-117838853D01*
X145146665Y-117894000D01*
X145429335Y-117894000D01*
X145706574Y-117838853D01*
X145967727Y-117730680D01*
X146202759Y-117573637D01*
X146402637Y-117373759D01*
X146484087Y-117251860D01*
X147240001Y-118007773D01*
X147240000Y-118697758D01*
X147238320Y-118700273D01*
X147130147Y-118961426D01*
X147075000Y-119238665D01*
X147075000Y-119521335D01*
X147130147Y-119798574D01*
X147238320Y-120059727D01*
X147320001Y-120181971D01*
X147320000Y-122761758D01*
X147318320Y-122764273D01*
X147210147Y-123025426D01*
X147209557Y-123028391D01*
X144394086Y-125843864D01*
X144345631Y-125883630D01*
X144186926Y-126077012D01*
X144084709Y-126268248D01*
X144068998Y-126297641D01*
X143996377Y-126537037D01*
X143971857Y-126786000D01*
X143978001Y-126848383D01*
X143978000Y-135129429D01*
X143902494Y-135067463D01*
X143792180Y-135008498D01*
X143672482Y-134972188D01*
X143548000Y-134959928D01*
X143033750Y-134963000D01*
X142875000Y-135121750D01*
X142875000Y-136271000D01*
X142895000Y-136271000D01*
X142895000Y-136525000D01*
X142875000Y-136525000D01*
X142875000Y-137674250D01*
X143033750Y-137833000D01*
X143548000Y-137836072D01*
X143672482Y-137823812D01*
X143792180Y-137787502D01*
X143902494Y-137728537D01*
X143999185Y-137649185D01*
X144078537Y-137552494D01*
X144137502Y-137442180D01*
X144166661Y-137346057D01*
X144333241Y-137512637D01*
X144568273Y-137669680D01*
X144829426Y-137777853D01*
X144832393Y-137778443D01*
X147092212Y-140038263D01*
X147113989Y-140147743D01*
X147229701Y-140427095D01*
X147397688Y-140678505D01*
X147611495Y-140892312D01*
X147862905Y-141060299D01*
X148142257Y-141176011D01*
X148438816Y-141235000D01*
X148741184Y-141235000D01*
X149037743Y-141176011D01*
X149317095Y-141060299D01*
X149568505Y-140892312D01*
X149782312Y-140678505D01*
X149950299Y-140427095D01*
X150066011Y-140147743D01*
X150125000Y-139851184D01*
X150125000Y-139548816D01*
X150066011Y-139252257D01*
X149950299Y-138972905D01*
X149782312Y-138721495D01*
X149568505Y-138507688D01*
X149317095Y-138339701D01*
X149037743Y-138223989D01*
X148828399Y-138182348D01*
X146628443Y-135982393D01*
X146627853Y-135979426D01*
X146519680Y-135718273D01*
X146518000Y-135715759D01*
X146518000Y-127312050D01*
X147273801Y-126556249D01*
X147318320Y-126663727D01*
X147475363Y-126898759D01*
X147675241Y-127098637D01*
X147907759Y-127254000D01*
X147675241Y-127409363D01*
X147475363Y-127609241D01*
X147318320Y-127844273D01*
X147210147Y-128105426D01*
X147155000Y-128382665D01*
X147155000Y-128665335D01*
X147210147Y-128942574D01*
X147318320Y-129203727D01*
X147475363Y-129438759D01*
X147637501Y-129600897D01*
X147637501Y-129646687D01*
X147545820Y-129674498D01*
X147435506Y-129733463D01*
X147338815Y-129812815D01*
X147259463Y-129909506D01*
X147200498Y-130019820D01*
X147164188Y-130139518D01*
X147151928Y-130264000D01*
X147151928Y-131864000D01*
X147164188Y-131988482D01*
X147200498Y-132108180D01*
X147259463Y-132218494D01*
X147338815Y-132315185D01*
X147435506Y-132394537D01*
X147545820Y-132453502D01*
X147665518Y-132489812D01*
X147790000Y-132502072D01*
X149390000Y-132502072D01*
X149514482Y-132489812D01*
X149634180Y-132453502D01*
X149744494Y-132394537D01*
X149841185Y-132315185D01*
X149920537Y-132218494D01*
X149979502Y-132108180D01*
X150015812Y-131988482D01*
X150028072Y-131864000D01*
X150028072Y-130264000D01*
X150015812Y-130139518D01*
X149979502Y-130019820D01*
X149920537Y-129909506D01*
X149841185Y-129812815D01*
X149744494Y-129733463D01*
X149634180Y-129674498D01*
X149542500Y-129646687D01*
X149542500Y-129600896D01*
X149704637Y-129438759D01*
X149861680Y-129203727D01*
X149969853Y-128942574D01*
X150025000Y-128665335D01*
X150025000Y-128436038D01*
X150470001Y-127991037D01*
X150470001Y-148557711D01*
X150455278Y-148707869D01*
X150421047Y-148821246D01*
X150365446Y-148925817D01*
X150290594Y-149017595D01*
X150199335Y-149093091D01*
X150095160Y-149149419D01*
X149982024Y-149184440D01*
X149833979Y-149200000D01*
X128302279Y-149200000D01*
X128152131Y-149185278D01*
X128038754Y-149151047D01*
X127934183Y-149095446D01*
X127842405Y-149020594D01*
X127766909Y-148929335D01*
X127710581Y-148825160D01*
X127675560Y-148712024D01*
X127660000Y-148563979D01*
X127660000Y-147168816D01*
X128005000Y-147168816D01*
X128005000Y-147471184D01*
X128063989Y-147767743D01*
X128179701Y-148047095D01*
X128347688Y-148298505D01*
X128561495Y-148512312D01*
X128812905Y-148680299D01*
X129092257Y-148796011D01*
X129388816Y-148855000D01*
X129691184Y-148855000D01*
X129987743Y-148796011D01*
X130267095Y-148680299D01*
X130518505Y-148512312D01*
X130732312Y-148298505D01*
X130900299Y-148047095D01*
X131016011Y-147767743D01*
X131047720Y-147608330D01*
X132606051Y-146050000D01*
X133225041Y-146050000D01*
X133261595Y-146118387D01*
X133372038Y-146252962D01*
X133506613Y-146363405D01*
X133660149Y-146445472D01*
X133826745Y-146496008D01*
X133999999Y-146513072D01*
X135240001Y-146513072D01*
X135413255Y-146496008D01*
X135579851Y-146445472D01*
X135733387Y-146363405D01*
X135867962Y-146252962D01*
X135978405Y-146118387D01*
X136036655Y-146009410D01*
X136193674Y-146168306D01*
X136439191Y-146334474D01*
X136712409Y-146449551D01*
X136799969Y-146466302D01*
X137033000Y-146345246D01*
X137033000Y-144907000D01*
X137287000Y-144907000D01*
X137287000Y-146345246D01*
X137520031Y-146466302D01*
X137607591Y-146449551D01*
X137880809Y-146334474D01*
X138126326Y-146168306D01*
X138334708Y-145957433D01*
X138430000Y-145812968D01*
X138525292Y-145957433D01*
X138733674Y-146168306D01*
X138979191Y-146334474D01*
X139252409Y-146449551D01*
X139339969Y-146466302D01*
X139573000Y-146345246D01*
X139573000Y-144907000D01*
X137287000Y-144907000D01*
X137033000Y-144907000D01*
X137013000Y-144907000D01*
X137013000Y-144653000D01*
X137033000Y-144653000D01*
X137033000Y-143214754D01*
X137287000Y-143214754D01*
X137287000Y-144653000D01*
X139573000Y-144653000D01*
X139573000Y-143214754D01*
X139827000Y-143214754D01*
X139827000Y-144653000D01*
X139847000Y-144653000D01*
X139847000Y-144907000D01*
X139827000Y-144907000D01*
X139827000Y-146345246D01*
X140060031Y-146466302D01*
X140147591Y-146449551D01*
X140420809Y-146334474D01*
X140666326Y-146168306D01*
X140874708Y-145957433D01*
X140967440Y-145816848D01*
X140982583Y-145845179D01*
X141170655Y-146074345D01*
X141399822Y-146262417D01*
X141661276Y-146402166D01*
X141944969Y-146488224D01*
X142240000Y-146517282D01*
X142535032Y-146488224D01*
X142818725Y-146402166D01*
X143080179Y-146262417D01*
X143309345Y-146074345D01*
X143329324Y-146050000D01*
X145523950Y-146050000D01*
X147051928Y-147577979D01*
X147051928Y-148220000D01*
X147064188Y-148344482D01*
X147100498Y-148464180D01*
X147159463Y-148574494D01*
X147238815Y-148671185D01*
X147335506Y-148750537D01*
X147445820Y-148809502D01*
X147565518Y-148845812D01*
X147690000Y-148858072D01*
X149490000Y-148858072D01*
X149614482Y-148845812D01*
X149734180Y-148809502D01*
X149844494Y-148750537D01*
X149941185Y-148671185D01*
X150020537Y-148574494D01*
X150079502Y-148464180D01*
X150115812Y-148344482D01*
X150128072Y-148220000D01*
X150128072Y-146420000D01*
X150115812Y-146295518D01*
X150079502Y-146175820D01*
X150020537Y-146065506D01*
X149941185Y-145968815D01*
X149844494Y-145889463D01*
X149734180Y-145830498D01*
X149614482Y-145794188D01*
X149490000Y-145781928D01*
X148847979Y-145781928D01*
X146992141Y-143926091D01*
X146952370Y-143877630D01*
X146758988Y-143718925D01*
X146538359Y-143600997D01*
X146298963Y-143528377D01*
X146112380Y-143510000D01*
X146112373Y-143510000D01*
X146050000Y-143503857D01*
X145987627Y-143510000D01*
X143329324Y-143510000D01*
X143309345Y-143485655D01*
X143080178Y-143297583D01*
X142818724Y-143157834D01*
X142535031Y-143071776D01*
X142240000Y-143042718D01*
X141944968Y-143071776D01*
X141661275Y-143157834D01*
X141399821Y-143297583D01*
X141170655Y-143485655D01*
X140982583Y-143714822D01*
X140967440Y-143743152D01*
X140874708Y-143602567D01*
X140666326Y-143391694D01*
X140420809Y-143225526D01*
X140147591Y-143110449D01*
X140060031Y-143093698D01*
X139827000Y-143214754D01*
X139573000Y-143214754D01*
X139339969Y-143093698D01*
X139252409Y-143110449D01*
X138979191Y-143225526D01*
X138733674Y-143391694D01*
X138525292Y-143602567D01*
X138430000Y-143747032D01*
X138334708Y-143602567D01*
X138126326Y-143391694D01*
X137880809Y-143225526D01*
X137607591Y-143110449D01*
X137520031Y-143093698D01*
X137287000Y-143214754D01*
X137033000Y-143214754D01*
X136799969Y-143093698D01*
X136712409Y-143110449D01*
X136439191Y-143225526D01*
X136193674Y-143391694D01*
X136036655Y-143550590D01*
X135978405Y-143441613D01*
X135867962Y-143307038D01*
X135733387Y-143196595D01*
X135579851Y-143114528D01*
X135413255Y-143063992D01*
X135240001Y-143046928D01*
X133999999Y-143046928D01*
X133826745Y-143063992D01*
X133660149Y-143114528D01*
X133506613Y-143196595D01*
X133372038Y-143307038D01*
X133261595Y-143441613D01*
X133225041Y-143510000D01*
X132142372Y-143510000D01*
X132079999Y-143503857D01*
X132017626Y-143510000D01*
X132017620Y-143510000D01*
X131856755Y-143525844D01*
X131831036Y-143528377D01*
X131758416Y-143550406D01*
X131591641Y-143600997D01*
X131371012Y-143718925D01*
X131177630Y-143877630D01*
X131137863Y-143926086D01*
X129251670Y-145812280D01*
X129092257Y-145843989D01*
X128812905Y-145959701D01*
X128561495Y-146127688D01*
X128347688Y-146341495D01*
X128179701Y-146592905D01*
X128063989Y-146872257D01*
X128005000Y-147168816D01*
X127660000Y-147168816D01*
X127660000Y-142017081D01*
X127656726Y-141983839D01*
X127656726Y-141967363D01*
X127655763Y-141958198D01*
X127628134Y-141711882D01*
X127615695Y-141653365D01*
X127604078Y-141594692D01*
X127601353Y-141585889D01*
X127526408Y-141349631D01*
X127502868Y-141294709D01*
X127480048Y-141239342D01*
X127475664Y-141231236D01*
X127431208Y-141150371D01*
X127517424Y-141064155D01*
X127614277Y-140919205D01*
X127680990Y-140758145D01*
X127715000Y-140587165D01*
X127715000Y-140412835D01*
X127680990Y-140241855D01*
X127622232Y-140100000D01*
X127680990Y-139958145D01*
X127715000Y-139787165D01*
X127715000Y-139612835D01*
X127680990Y-139441855D01*
X127622232Y-139300000D01*
X127680990Y-139158145D01*
X127715000Y-138987165D01*
X127715000Y-138812835D01*
X127680990Y-138641855D01*
X127614277Y-138480795D01*
X127517424Y-138335845D01*
X127431020Y-138249441D01*
X127486919Y-138144309D01*
X127509707Y-138089021D01*
X127533279Y-138034025D01*
X127536003Y-138025222D01*
X127607643Y-137787941D01*
X127619264Y-137729254D01*
X127631700Y-137670748D01*
X127632663Y-137661583D01*
X127656850Y-137414905D01*
X127656850Y-137414902D01*
X127660000Y-137382919D01*
X127660000Y-131605872D01*
X128321000Y-131605872D01*
X128321000Y-132046128D01*
X128406890Y-132477925D01*
X128575369Y-132884669D01*
X128819962Y-133250729D01*
X129131271Y-133562038D01*
X129497331Y-133806631D01*
X129904075Y-133975110D01*
X130335872Y-134061000D01*
X130776128Y-134061000D01*
X131207925Y-133975110D01*
X131614669Y-133806631D01*
X131980729Y-133562038D01*
X132292038Y-133250729D01*
X132536631Y-132884669D01*
X132705110Y-132477925D01*
X132791000Y-132046128D01*
X132791000Y-131605872D01*
X132705110Y-131174075D01*
X132536631Y-130767331D01*
X132292038Y-130401271D01*
X131980729Y-130089962D01*
X131614669Y-129845369D01*
X131207925Y-129676890D01*
X130776128Y-129591000D01*
X130335872Y-129591000D01*
X129904075Y-129676890D01*
X129497331Y-129845369D01*
X129131271Y-130089962D01*
X128819962Y-130401271D01*
X128575369Y-130767331D01*
X128406890Y-131174075D01*
X128321000Y-131605872D01*
X127660000Y-131605872D01*
X127660000Y-125507081D01*
X127656726Y-125473839D01*
X127656726Y-125457363D01*
X127655763Y-125448198D01*
X127628134Y-125201882D01*
X127615695Y-125143365D01*
X127604078Y-125084692D01*
X127601353Y-125075889D01*
X127526408Y-124839631D01*
X127502868Y-124784709D01*
X127480048Y-124729342D01*
X127475664Y-124721236D01*
X127431208Y-124640371D01*
X127517424Y-124554155D01*
X127614277Y-124409205D01*
X127680990Y-124248145D01*
X127715000Y-124077165D01*
X127715000Y-123902835D01*
X127680990Y-123731855D01*
X127622232Y-123590000D01*
X127680990Y-123448145D01*
X127715000Y-123277165D01*
X127715000Y-123102835D01*
X127680990Y-122931855D01*
X127622232Y-122790000D01*
X127680990Y-122648145D01*
X127715000Y-122477165D01*
X127715000Y-122302835D01*
X127680990Y-122131855D01*
X127614277Y-121970795D01*
X127517424Y-121825845D01*
X127431020Y-121739441D01*
X127486919Y-121634309D01*
X127509707Y-121579021D01*
X127533279Y-121524025D01*
X127536003Y-121515222D01*
X127607643Y-121277941D01*
X127619264Y-121219254D01*
X127631700Y-121160748D01*
X127632663Y-121151583D01*
X127656850Y-120904905D01*
X127656850Y-120904902D01*
X127660000Y-120872919D01*
X127660000Y-120372702D01*
X133298903Y-120372702D01*
X133370486Y-120616671D01*
X133625996Y-120737571D01*
X133900184Y-120806300D01*
X134182512Y-120820217D01*
X134462130Y-120778787D01*
X134728292Y-120683603D01*
X134853514Y-120616671D01*
X134925097Y-120372702D01*
X134112000Y-119559605D01*
X133298903Y-120372702D01*
X127660000Y-120372702D01*
X127660000Y-119450512D01*
X132671783Y-119450512D01*
X132713213Y-119730130D01*
X132808397Y-119996292D01*
X132875329Y-120121514D01*
X133119298Y-120193097D01*
X133932395Y-119380000D01*
X133119298Y-118566903D01*
X132875329Y-118638486D01*
X132754429Y-118893996D01*
X132685700Y-119168184D01*
X132671783Y-119450512D01*
X127660000Y-119450512D01*
X127660000Y-111537081D01*
X127656726Y-111503839D01*
X127656726Y-111487363D01*
X127655763Y-111478198D01*
X127628134Y-111231882D01*
X127615695Y-111173365D01*
X127604078Y-111114692D01*
X127601353Y-111105889D01*
X127526408Y-110869631D01*
X127502868Y-110814709D01*
X127480048Y-110759342D01*
X127475664Y-110751236D01*
X127431208Y-110670371D01*
X127517424Y-110584155D01*
X127614277Y-110439205D01*
X127680990Y-110278145D01*
X127715000Y-110107165D01*
X127715000Y-109932835D01*
X127680990Y-109761855D01*
X127622232Y-109620000D01*
X127680990Y-109478145D01*
X127715000Y-109307165D01*
X127715000Y-109132835D01*
X127680990Y-108961855D01*
X127622232Y-108820000D01*
X127680990Y-108678145D01*
X127715000Y-108507165D01*
X127715000Y-108332835D01*
X127680990Y-108161855D01*
X127614277Y-108000795D01*
X127517424Y-107855845D01*
X127431020Y-107769441D01*
X127473769Y-107689040D01*
X127488247Y-107736767D01*
X127576693Y-107902240D01*
X127695721Y-108047277D01*
X127732068Y-108077106D01*
X128867000Y-109212038D01*
X128867000Y-109441335D01*
X128922147Y-109718574D01*
X129030320Y-109979727D01*
X129187363Y-110214759D01*
X129387241Y-110414637D01*
X129622273Y-110571680D01*
X129883426Y-110679853D01*
X130160665Y-110735000D01*
X130389962Y-110735000D01*
X131293393Y-111638431D01*
X131323222Y-111674778D01*
X131468259Y-111793806D01*
X131506023Y-111813991D01*
X131633730Y-111882252D01*
X131703413Y-111903390D01*
X131813277Y-111936717D01*
X131953215Y-111950500D01*
X132000000Y-111955108D01*
X132046785Y-111950500D01*
X133289104Y-111950500D01*
X133451241Y-112112637D01*
X133683759Y-112268000D01*
X133451241Y-112423363D01*
X133289104Y-112585500D01*
X131110785Y-112585500D01*
X131064000Y-112580892D01*
X131017215Y-112585500D01*
X130877277Y-112599283D01*
X130798299Y-112623241D01*
X130697730Y-112653748D01*
X130650562Y-112678960D01*
X130532259Y-112742194D01*
X130387222Y-112861222D01*
X130384121Y-112865000D01*
X130160665Y-112865000D01*
X129883426Y-112920147D01*
X129622273Y-113028320D01*
X129387241Y-113185363D01*
X129187363Y-113385241D01*
X129030320Y-113620273D01*
X128922147Y-113881426D01*
X128867000Y-114158665D01*
X128867000Y-114441335D01*
X128922147Y-114718574D01*
X129030320Y-114979727D01*
X129187363Y-115214759D01*
X129387241Y-115414637D01*
X129437016Y-115447896D01*
X129375426Y-115460147D01*
X129114273Y-115568320D01*
X128879241Y-115725363D01*
X128679363Y-115925241D01*
X128522320Y-116160273D01*
X128414147Y-116421426D01*
X128359000Y-116698665D01*
X128359000Y-116981335D01*
X128414147Y-117258574D01*
X128522320Y-117519727D01*
X128679363Y-117754759D01*
X128879241Y-117954637D01*
X129114273Y-118111680D01*
X129375426Y-118219853D01*
X129652665Y-118275000D01*
X129935335Y-118275000D01*
X130212574Y-118219853D01*
X130473727Y-118111680D01*
X130708759Y-117954637D01*
X130908637Y-117754759D01*
X131065680Y-117519727D01*
X131173853Y-117258574D01*
X131229000Y-116981335D01*
X131229000Y-116698665D01*
X131173853Y-116421426D01*
X131065680Y-116160273D01*
X130908637Y-115925241D01*
X130708759Y-115725363D01*
X130658984Y-115692104D01*
X130720574Y-115679853D01*
X130981727Y-115571680D01*
X131216759Y-115414637D01*
X131416637Y-115214759D01*
X131573680Y-114979727D01*
X131681853Y-114718574D01*
X131727220Y-114490500D01*
X133289104Y-114490500D01*
X133451241Y-114652637D01*
X133683759Y-114808000D01*
X133451241Y-114963363D01*
X133251363Y-115163241D01*
X133094320Y-115398273D01*
X132986147Y-115659426D01*
X132931000Y-115936665D01*
X132931000Y-116219335D01*
X132986147Y-116496574D01*
X133094320Y-116757727D01*
X133251363Y-116992759D01*
X133451241Y-117192637D01*
X133686273Y-117349680D01*
X133947426Y-117457853D01*
X133950393Y-117458443D01*
X134486405Y-117994455D01*
X134323816Y-117953700D01*
X134041488Y-117939783D01*
X133761870Y-117981213D01*
X133495708Y-118076397D01*
X133370486Y-118143329D01*
X133298903Y-118387298D01*
X134112000Y-119200395D01*
X134126143Y-119186253D01*
X134305748Y-119365858D01*
X134291605Y-119380000D01*
X135104702Y-120193097D01*
X135348671Y-120121514D01*
X135469571Y-119866004D01*
X135538300Y-119591816D01*
X135552217Y-119309488D01*
X135510787Y-119029870D01*
X135504645Y-119012696D01*
X136725863Y-120233914D01*
X136765630Y-120282370D01*
X136959012Y-120441075D01*
X137179641Y-120559003D01*
X137346416Y-120609594D01*
X137419036Y-120631623D01*
X137444755Y-120634156D01*
X137605620Y-120650000D01*
X137605626Y-120650000D01*
X137667999Y-120656143D01*
X137730372Y-120650000D01*
X138429759Y-120650000D01*
X138432273Y-120651680D01*
X138693426Y-120759853D01*
X138970665Y-120815000D01*
X139044672Y-120815000D01*
X140371201Y-122141529D01*
X140356119Y-122146930D01*
X140114869Y-122291615D01*
X139906481Y-122480586D01*
X139738963Y-122706580D01*
X139618754Y-122960913D01*
X139578096Y-123094961D01*
X139700084Y-123316998D01*
X139650036Y-123316998D01*
X139357000Y-123023962D01*
X139357000Y-122794665D01*
X139301853Y-122517426D01*
X139193680Y-122256273D01*
X139036637Y-122021241D01*
X138836759Y-121821363D01*
X138601727Y-121664320D01*
X138340574Y-121556147D01*
X138063335Y-121501000D01*
X137780665Y-121501000D01*
X137503426Y-121556147D01*
X137242273Y-121664320D01*
X137007241Y-121821363D01*
X136807363Y-122021241D01*
X136650320Y-122256273D01*
X136542147Y-122517426D01*
X136487000Y-122794665D01*
X136487000Y-123077335D01*
X136542147Y-123354574D01*
X136650320Y-123615727D01*
X136807363Y-123850759D01*
X137007241Y-124050637D01*
X137242273Y-124207680D01*
X137503426Y-124315853D01*
X137780665Y-124371000D01*
X138009962Y-124371000D01*
X139535000Y-125896039D01*
X139535000Y-126125335D01*
X139590147Y-126402574D01*
X139698320Y-126663727D01*
X139855363Y-126898759D01*
X140055241Y-127098637D01*
X140287759Y-127254000D01*
X140055241Y-127409363D01*
X139893104Y-127571500D01*
X137773168Y-127571500D01*
X137423318Y-127221650D01*
X137510130Y-127208787D01*
X137776292Y-127113603D01*
X137901514Y-127046671D01*
X137973097Y-126802702D01*
X137160000Y-125989605D01*
X137145858Y-126003748D01*
X136966253Y-125824143D01*
X136980395Y-125810000D01*
X137339605Y-125810000D01*
X138152702Y-126623097D01*
X138396671Y-126551514D01*
X138517571Y-126296004D01*
X138586300Y-126021816D01*
X138600217Y-125739488D01*
X138558787Y-125459870D01*
X138463603Y-125193708D01*
X138396671Y-125068486D01*
X138152702Y-124996903D01*
X137339605Y-125810000D01*
X136980395Y-125810000D01*
X136167298Y-124996903D01*
X135923329Y-125068486D01*
X135802429Y-125323996D01*
X135746958Y-125545290D01*
X135018966Y-124817298D01*
X136346903Y-124817298D01*
X137160000Y-125630395D01*
X137973097Y-124817298D01*
X137901514Y-124573329D01*
X137646004Y-124452429D01*
X137371816Y-124383700D01*
X137089488Y-124369783D01*
X136809870Y-124411213D01*
X136543708Y-124506397D01*
X136418486Y-124573329D01*
X136346903Y-124817298D01*
X135018966Y-124817298D01*
X134042962Y-123841294D01*
X134193680Y-123615727D01*
X134301853Y-123354574D01*
X134357000Y-123077335D01*
X134357000Y-122794665D01*
X134301853Y-122517426D01*
X134193680Y-122256273D01*
X134036637Y-122021241D01*
X133836759Y-121821363D01*
X133601727Y-121664320D01*
X133340574Y-121556147D01*
X133063335Y-121501000D01*
X132780665Y-121501000D01*
X132503426Y-121556147D01*
X132242273Y-121664320D01*
X132007241Y-121821363D01*
X131807363Y-122021241D01*
X131650320Y-122256273D01*
X131542147Y-122517426D01*
X131487000Y-122794665D01*
X131487000Y-123077335D01*
X131542147Y-123354574D01*
X131650320Y-123615727D01*
X131722784Y-123724177D01*
X129881962Y-125565000D01*
X129652665Y-125565000D01*
X129375426Y-125620147D01*
X129114273Y-125728320D01*
X128879241Y-125885363D01*
X128679363Y-126085241D01*
X128522320Y-126320273D01*
X128414147Y-126581426D01*
X128359000Y-126858665D01*
X128359000Y-127141335D01*
X128414147Y-127418574D01*
X128522320Y-127679727D01*
X128679363Y-127914759D01*
X128879241Y-128114637D01*
X129114273Y-128271680D01*
X129375426Y-128379853D01*
X129652665Y-128435000D01*
X129935335Y-128435000D01*
X130212574Y-128379853D01*
X130473727Y-128271680D01*
X130708759Y-128114637D01*
X130908637Y-127914759D01*
X131065680Y-127679727D01*
X131173853Y-127418574D01*
X131229000Y-127141335D01*
X131229000Y-126912038D01*
X132824315Y-125316723D01*
X136672023Y-129164431D01*
X136701852Y-129200778D01*
X136846889Y-129319806D01*
X136929625Y-129364029D01*
X136968732Y-129384932D01*
X136741426Y-129430147D01*
X136480273Y-129538320D01*
X136245241Y-129695363D01*
X136045363Y-129895241D01*
X135888320Y-130130273D01*
X135780147Y-130391426D01*
X135779557Y-130394392D01*
X135036086Y-131137864D01*
X134987631Y-131177630D01*
X134828926Y-131371012D01*
X134797253Y-131430269D01*
X134710998Y-131591641D01*
X134638377Y-131831037D01*
X134613857Y-132080000D01*
X134620001Y-132142383D01*
X134620000Y-136947741D01*
X134559463Y-137021506D01*
X134500498Y-137131820D01*
X134464188Y-137251518D01*
X134451928Y-137376000D01*
X134451928Y-137818021D01*
X133839950Y-138430000D01*
X130957812Y-138430000D01*
X130891185Y-138348815D01*
X130794494Y-138269463D01*
X130684180Y-138210498D01*
X130564482Y-138174188D01*
X130440000Y-138161928D01*
X128640000Y-138161928D01*
X128515518Y-138174188D01*
X128395820Y-138210498D01*
X128285506Y-138269463D01*
X128188815Y-138348815D01*
X128109463Y-138445506D01*
X128050498Y-138555820D01*
X128014188Y-138675518D01*
X128001928Y-138800000D01*
X128001928Y-140600000D01*
X128014188Y-140724482D01*
X128050498Y-140844180D01*
X128109463Y-140954494D01*
X128188815Y-141051185D01*
X128285506Y-141130537D01*
X128395820Y-141189502D01*
X128515518Y-141225812D01*
X128640000Y-141238072D01*
X130440000Y-141238072D01*
X130564482Y-141225812D01*
X130684180Y-141189502D01*
X130794494Y-141130537D01*
X130891185Y-141051185D01*
X130957812Y-140970000D01*
X134303627Y-140970000D01*
X134366000Y-140976143D01*
X134428373Y-140970000D01*
X134428380Y-140970000D01*
X134614963Y-140951623D01*
X134854359Y-140879003D01*
X135074988Y-140761075D01*
X135268370Y-140602370D01*
X135308141Y-140553909D01*
X136247979Y-139614072D01*
X136690000Y-139614072D01*
X136814482Y-139601812D01*
X136934180Y-139565502D01*
X137044494Y-139506537D01*
X137141185Y-139427185D01*
X137220537Y-139330494D01*
X137279502Y-139220180D01*
X137295117Y-139168702D01*
X137576903Y-139168702D01*
X137648486Y-139412671D01*
X137903996Y-139533571D01*
X138178184Y-139602300D01*
X138460512Y-139616217D01*
X138740130Y-139574787D01*
X139006292Y-139479603D01*
X139131514Y-139412671D01*
X139203097Y-139168702D01*
X138390000Y-138355605D01*
X137576903Y-139168702D01*
X137295117Y-139168702D01*
X137315812Y-139100482D01*
X137328072Y-138976000D01*
X137328072Y-138968785D01*
X137397298Y-138989097D01*
X138210395Y-138176000D01*
X138569605Y-138176000D01*
X139382702Y-138989097D01*
X139626671Y-138917514D01*
X139747571Y-138662004D01*
X139816300Y-138387816D01*
X139830217Y-138105488D01*
X139788787Y-137825870D01*
X139693603Y-137559708D01*
X139626671Y-137434486D01*
X139382702Y-137362903D01*
X138569605Y-138176000D01*
X138210395Y-138176000D01*
X137397298Y-137362903D01*
X137328072Y-137383215D01*
X137328072Y-137376000D01*
X137315812Y-137251518D01*
X137295118Y-137183298D01*
X137576903Y-137183298D01*
X138390000Y-137996395D01*
X139188395Y-137198000D01*
X141309928Y-137198000D01*
X141322188Y-137322482D01*
X141358498Y-137442180D01*
X141417463Y-137552494D01*
X141496815Y-137649185D01*
X141593506Y-137728537D01*
X141703820Y-137787502D01*
X141823518Y-137823812D01*
X141948000Y-137836072D01*
X142462250Y-137833000D01*
X142621000Y-137674250D01*
X142621000Y-136525000D01*
X141471750Y-136525000D01*
X141313000Y-136683750D01*
X141309928Y-137198000D01*
X139188395Y-137198000D01*
X139203097Y-137183298D01*
X139131514Y-136939329D01*
X138876004Y-136818429D01*
X138601816Y-136749700D01*
X138319488Y-136735783D01*
X138039870Y-136777213D01*
X137773708Y-136872397D01*
X137648486Y-136939329D01*
X137576903Y-137183298D01*
X137295118Y-137183298D01*
X137279502Y-137131820D01*
X137220537Y-137021506D01*
X137160000Y-136947741D01*
X137160000Y-135598000D01*
X141309928Y-135598000D01*
X141313000Y-136112250D01*
X141471750Y-136271000D01*
X142621000Y-136271000D01*
X142621000Y-135121750D01*
X142462250Y-134963000D01*
X141948000Y-134959928D01*
X141823518Y-134972188D01*
X141703820Y-135008498D01*
X141593506Y-135067463D01*
X141496815Y-135146815D01*
X141417463Y-135243506D01*
X141358498Y-135353820D01*
X141322188Y-135473518D01*
X141309928Y-135598000D01*
X137160000Y-135598000D01*
X137160000Y-132606050D01*
X137575608Y-132190443D01*
X137578574Y-132189853D01*
X137839727Y-132081680D01*
X137842241Y-132080000D01*
X139956604Y-132080000D01*
X140055241Y-132178637D01*
X140290273Y-132335680D01*
X140551426Y-132443853D01*
X140828665Y-132499000D01*
X141111335Y-132499000D01*
X141388574Y-132443853D01*
X141649727Y-132335680D01*
X141884759Y-132178637D01*
X142084637Y-131978759D01*
X142241680Y-131743727D01*
X142349853Y-131482574D01*
X142350443Y-131479607D01*
X143512916Y-130317135D01*
X143561371Y-130277369D01*
X143720076Y-130083987D01*
X143838004Y-129863358D01*
X143892367Y-129684147D01*
X143910624Y-129623963D01*
X143913157Y-129598244D01*
X143929001Y-129437379D01*
X143929001Y-129437373D01*
X143935144Y-129375000D01*
X143929001Y-129312627D01*
X143929001Y-122695651D01*
X143935144Y-122633278D01*
X143929001Y-122570905D01*
X143929001Y-122570899D01*
X143911619Y-122394414D01*
X143910624Y-122384315D01*
X143871827Y-122256419D01*
X143838004Y-122144920D01*
X143720076Y-121924291D01*
X143561371Y-121730909D01*
X143512915Y-121691142D01*
X142194475Y-120372702D01*
X142696903Y-120372702D01*
X142768486Y-120616671D01*
X143023996Y-120737571D01*
X143298184Y-120806300D01*
X143580512Y-120820217D01*
X143860130Y-120778787D01*
X144126292Y-120683603D01*
X144251514Y-120616671D01*
X144323097Y-120372702D01*
X143510000Y-119559605D01*
X142696903Y-120372702D01*
X142194475Y-120372702D01*
X141272285Y-119450512D01*
X142069783Y-119450512D01*
X142111213Y-119730130D01*
X142206397Y-119996292D01*
X142273329Y-120121514D01*
X142517298Y-120193097D01*
X143330395Y-119380000D01*
X143689605Y-119380000D01*
X144502702Y-120193097D01*
X144746671Y-120121514D01*
X144867571Y-119866004D01*
X144936300Y-119591816D01*
X144950217Y-119309488D01*
X144908787Y-119029870D01*
X144813603Y-118763708D01*
X144746671Y-118638486D01*
X144502702Y-118566903D01*
X143689605Y-119380000D01*
X143330395Y-119380000D01*
X142517298Y-118566903D01*
X142273329Y-118638486D01*
X142152429Y-118893996D01*
X142083700Y-119168184D01*
X142069783Y-119450512D01*
X141272285Y-119450512D01*
X140347863Y-118526091D01*
X140308092Y-118477630D01*
X140198023Y-118387298D01*
X142696903Y-118387298D01*
X143510000Y-119200395D01*
X144323097Y-118387298D01*
X144251514Y-118143329D01*
X143996004Y-118022429D01*
X143721816Y-117953700D01*
X143439488Y-117939783D01*
X143159870Y-117981213D01*
X142893708Y-118076397D01*
X142768486Y-118143329D01*
X142696903Y-118387298D01*
X140198023Y-118387298D01*
X140114710Y-118318925D01*
X140040833Y-118279437D01*
X140026759Y-118265363D01*
X139791727Y-118108320D01*
X139530574Y-118000147D01*
X139253335Y-117945000D01*
X138970665Y-117945000D01*
X138693426Y-118000147D01*
X138432273Y-118108320D01*
X138429759Y-118110000D01*
X138194051Y-118110000D01*
X136162050Y-116078000D01*
X136908916Y-115331135D01*
X136957371Y-115291369D01*
X137116076Y-115097987D01*
X137234004Y-114877358D01*
X137298037Y-114666269D01*
X137306624Y-114637963D01*
X137310700Y-114596578D01*
X137325001Y-114451379D01*
X137325001Y-114451373D01*
X137331144Y-114389000D01*
X137325001Y-114326627D01*
X137325001Y-107709652D01*
X137331144Y-107647279D01*
X137325001Y-107584906D01*
X137325001Y-107584899D01*
X137308255Y-107414876D01*
X137306624Y-107398315D01*
X137276813Y-107300043D01*
X137234004Y-107158920D01*
X137116076Y-106938291D01*
X136957371Y-106744909D01*
X136908915Y-106705142D01*
X136786689Y-106582916D01*
X137056512Y-106596217D01*
X137336130Y-106554787D01*
X137602292Y-106459603D01*
X137727514Y-106392671D01*
X137799097Y-106148702D01*
X136986000Y-105335605D01*
X136971858Y-105349748D01*
X136792253Y-105170143D01*
X136806395Y-105156000D01*
X137165605Y-105156000D01*
X137978702Y-105969097D01*
X138222671Y-105897514D01*
X138343571Y-105642004D01*
X138412300Y-105367816D01*
X138426217Y-105085488D01*
X138384787Y-104805870D01*
X138289603Y-104539708D01*
X138222671Y-104414486D01*
X137978702Y-104342903D01*
X137165605Y-105156000D01*
X136806395Y-105156000D01*
X135993298Y-104342903D01*
X135749329Y-104414486D01*
X135628429Y-104669996D01*
X135559700Y-104944184D01*
X135545783Y-105226512D01*
X135565873Y-105362100D01*
X134367071Y-104163298D01*
X136172903Y-104163298D01*
X136986000Y-104976395D01*
X137799097Y-104163298D01*
X137727514Y-103919329D01*
X137472004Y-103798429D01*
X137197816Y-103729700D01*
X136915488Y-103715783D01*
X136635870Y-103757213D01*
X136369708Y-103852397D01*
X136244486Y-103919329D01*
X136172903Y-104163298D01*
X134367071Y-104163298D01*
X134200999Y-103997227D01*
X134200999Y-103106676D01*
X134201426Y-103106853D01*
X134478665Y-103162000D01*
X134761335Y-103162000D01*
X135038574Y-103106853D01*
X135299727Y-102998680D01*
X135534759Y-102841637D01*
X135734637Y-102641759D01*
X135891680Y-102406727D01*
X135999853Y-102145574D01*
X136055000Y-101868335D01*
X136055000Y-101585665D01*
X135999853Y-101308426D01*
X135891680Y-101047273D01*
X135734637Y-100812241D01*
X135534759Y-100612363D01*
X135299727Y-100455320D01*
X135038574Y-100347147D01*
X134761335Y-100292000D01*
X134478665Y-100292000D01*
X134201426Y-100347147D01*
X134200119Y-100347688D01*
X134182622Y-100170036D01*
X134162785Y-100104640D01*
X134110002Y-99930640D01*
X134051933Y-99822000D01*
X133992074Y-99710011D01*
X133895535Y-99592378D01*
X133873134Y-99565082D01*
X133873131Y-99565079D01*
X133833369Y-99516629D01*
X133784918Y-99476866D01*
X133311999Y-99003948D01*
X133311999Y-98763040D01*
X133348320Y-98850727D01*
X133505363Y-99085759D01*
X133705241Y-99285637D01*
X133940273Y-99442680D01*
X134201426Y-99550853D01*
X134478665Y-99606000D01*
X134761335Y-99606000D01*
X135038574Y-99550853D01*
X135299727Y-99442680D01*
X135534759Y-99285637D01*
X135734637Y-99085759D01*
X135891680Y-98850727D01*
X135999853Y-98589574D01*
X136055000Y-98312335D01*
X136055000Y-98029665D01*
X135999853Y-97752426D01*
X135891680Y-97491273D01*
X135734637Y-97256241D01*
X135534759Y-97056363D01*
X135299727Y-96899320D01*
X135038574Y-96791147D01*
X134761335Y-96736000D01*
X134478665Y-96736000D01*
X134201426Y-96791147D01*
X133940273Y-96899320D01*
X133705241Y-97056363D01*
X133505363Y-97256241D01*
X133348320Y-97491273D01*
X133311999Y-97578960D01*
X133311999Y-96248676D01*
X133312426Y-96248853D01*
X133589665Y-96304000D01*
X133872335Y-96304000D01*
X134149574Y-96248853D01*
X134410727Y-96140680D01*
X134645759Y-95983637D01*
X134845637Y-95783759D01*
X135002680Y-95548727D01*
X135110853Y-95287574D01*
X135166000Y-95010335D01*
X135166000Y-94727665D01*
X135110853Y-94450426D01*
X135002680Y-94189273D01*
X134845637Y-93954241D01*
X134645759Y-93754363D01*
X134410727Y-93597320D01*
X134149574Y-93489147D01*
X133872335Y-93434000D01*
X133589665Y-93434000D01*
X133312426Y-93489147D01*
X133311999Y-93489324D01*
X133311999Y-93073676D01*
X133312426Y-93073853D01*
X133589665Y-93129000D01*
X133872335Y-93129000D01*
X134149574Y-93073853D01*
X134410727Y-92965680D01*
X134645759Y-92808637D01*
X134845637Y-92608759D01*
X135002680Y-92373727D01*
X135110853Y-92112574D01*
X135166000Y-91835335D01*
X135166000Y-91552665D01*
X135110853Y-91275426D01*
X135002680Y-91014273D01*
X134845637Y-90779241D01*
X134645759Y-90579363D01*
X134410727Y-90422320D01*
X134149574Y-90314147D01*
X133872335Y-90259000D01*
X133589665Y-90259000D01*
X133312426Y-90314147D01*
X133311999Y-90314324D01*
X133311999Y-88694316D01*
X133432273Y-88774680D01*
X133693426Y-88882853D01*
X133970665Y-88938000D01*
X134253335Y-88938000D01*
X134530574Y-88882853D01*
X134791727Y-88774680D01*
X135026759Y-88617637D01*
X135226637Y-88417759D01*
X135383680Y-88182727D01*
X135491853Y-87921574D01*
X135547000Y-87644335D01*
X135547000Y-87361665D01*
X135491853Y-87084426D01*
X135383680Y-86823273D01*
X135226637Y-86588241D01*
X135064500Y-86426104D01*
X135064500Y-84769896D01*
X135226637Y-84607759D01*
X135383680Y-84372727D01*
X135491853Y-84111574D01*
X135547000Y-83834335D01*
X135547000Y-83551665D01*
X135491853Y-83274426D01*
X135383680Y-83013273D01*
X135226637Y-82778241D01*
X135026759Y-82578363D01*
X134791727Y-82421320D01*
X134530574Y-82313147D01*
X134253335Y-82258000D01*
X133970665Y-82258000D01*
X133693426Y-82313147D01*
X133432273Y-82421320D01*
X133311999Y-82501684D01*
X133311999Y-81538466D01*
X133566426Y-81643853D01*
X133843665Y-81699000D01*
X134126335Y-81699000D01*
X134403574Y-81643853D01*
X134664727Y-81535680D01*
X134899759Y-81378637D01*
X135061896Y-81216500D01*
X135763215Y-81216500D01*
X135810000Y-81221108D01*
X135856785Y-81216500D01*
X135996723Y-81202717D01*
X136176269Y-81148252D01*
X136341741Y-81059806D01*
X136429218Y-80988016D01*
X136361924Y-81070014D01*
%TA.AperFunction,Conductor*%
D27*
G36*
X136361924Y-81070014D02*
G01*
X136243996Y-81290643D01*
X136171376Y-81530039D01*
X136152999Y-81716622D01*
X136152999Y-81716628D01*
X136146856Y-81779001D01*
X136152999Y-81841374D01*
X136153000Y-100530616D01*
X136146856Y-100592999D01*
X136171376Y-100841962D01*
X136229452Y-101033411D01*
X136243997Y-101081358D01*
X136361925Y-101301987D01*
X136520630Y-101495369D01*
X136569085Y-101535135D01*
X140605557Y-105571609D01*
X140606147Y-105574574D01*
X140714320Y-105835727D01*
X140716001Y-105838242D01*
X140716000Y-107775758D01*
X140714320Y-107778273D01*
X140606147Y-108039426D01*
X140551000Y-108316665D01*
X140551000Y-108599335D01*
X140606147Y-108876574D01*
X140714320Y-109137727D01*
X140871363Y-109372759D01*
X141071241Y-109572637D01*
X141306273Y-109729680D01*
X141316865Y-109734067D01*
X141130869Y-109845615D01*
X140922481Y-110034586D01*
X140754963Y-110260580D01*
X140634754Y-110514913D01*
X140594096Y-110648961D01*
X140716085Y-110871000D01*
X141859000Y-110871000D01*
X141859000Y-110851000D01*
X142113000Y-110851000D01*
X142113000Y-110871000D01*
X142133000Y-110871000D01*
X142133000Y-111125000D01*
X142113000Y-111125000D01*
X142113000Y-111145000D01*
X141859000Y-111145000D01*
X141859000Y-111125000D01*
X140716085Y-111125000D01*
X140594096Y-111347039D01*
X140634754Y-111481087D01*
X140754963Y-111735420D01*
X140922481Y-111961414D01*
X141130869Y-112150385D01*
X141316865Y-112261933D01*
X141306273Y-112266320D01*
X141071241Y-112423363D01*
X140871363Y-112623241D01*
X140714320Y-112858273D01*
X140606147Y-113119426D01*
X140551000Y-113396665D01*
X140551000Y-113679335D01*
X140606147Y-113956574D01*
X140714320Y-114217727D01*
X140871363Y-114452759D01*
X141069961Y-114651357D01*
X141061518Y-114652188D01*
X140941820Y-114688498D01*
X140831506Y-114747463D01*
X140734815Y-114826815D01*
X140655463Y-114923506D01*
X140596498Y-115033820D01*
X140560188Y-115153518D01*
X140547928Y-115278000D01*
X140547928Y-116878000D01*
X140560188Y-117002482D01*
X140596498Y-117122180D01*
X140655463Y-117232494D01*
X140734815Y-117329185D01*
X140831506Y-117408537D01*
X140941820Y-117467502D01*
X141061518Y-117503812D01*
X141186000Y-117516072D01*
X142786000Y-117516072D01*
X142910482Y-117503812D01*
X143030180Y-117467502D01*
X143134951Y-117411500D01*
X144211104Y-117411500D01*
X144373241Y-117573637D01*
X144608273Y-117730680D01*
X144869426Y-117838853D01*
X145146665Y-117894000D01*
X145429335Y-117894000D01*
X145706574Y-117838853D01*
X145967727Y-117730680D01*
X146202759Y-117573637D01*
X146402637Y-117373759D01*
X146484087Y-117251860D01*
X147240001Y-118007773D01*
X147240000Y-118697758D01*
X147238320Y-118700273D01*
X147130147Y-118961426D01*
X147075000Y-119238665D01*
X147075000Y-119521335D01*
X147130147Y-119798574D01*
X147238320Y-120059727D01*
X147320001Y-120181971D01*
X147320000Y-122761758D01*
X147318320Y-122764273D01*
X147210147Y-123025426D01*
X147209557Y-123028391D01*
X144394086Y-125843864D01*
X144345631Y-125883630D01*
X144186926Y-126077012D01*
X144084709Y-126268248D01*
X144068998Y-126297641D01*
X143996377Y-126537037D01*
X143971857Y-126786000D01*
X143978001Y-126848383D01*
X143978000Y-135129429D01*
X143902494Y-135067463D01*
X143792180Y-135008498D01*
X143672482Y-134972188D01*
X143548000Y-134959928D01*
X143033750Y-134963000D01*
X142875000Y-135121750D01*
X142875000Y-136271000D01*
X142895000Y-136271000D01*
X142895000Y-136525000D01*
X142875000Y-136525000D01*
X142875000Y-137674250D01*
X143033750Y-137833000D01*
X143548000Y-137836072D01*
X143672482Y-137823812D01*
X143792180Y-137787502D01*
X143902494Y-137728537D01*
X143999185Y-137649185D01*
X144078537Y-137552494D01*
X144137502Y-137442180D01*
X144166661Y-137346057D01*
X144333241Y-137512637D01*
X144568273Y-137669680D01*
X144829426Y-137777853D01*
X144832393Y-137778443D01*
X147092212Y-140038263D01*
X147113989Y-140147743D01*
X147229701Y-140427095D01*
X147397688Y-140678505D01*
X147611495Y-140892312D01*
X147862905Y-141060299D01*
X148142257Y-141176011D01*
X148438816Y-141235000D01*
X148741184Y-141235000D01*
X149037743Y-141176011D01*
X149317095Y-141060299D01*
X149568505Y-140892312D01*
X149782312Y-140678505D01*
X149950299Y-140427095D01*
X150066011Y-140147743D01*
X150125000Y-139851184D01*
X150125000Y-139548816D01*
X150066011Y-139252257D01*
X149950299Y-138972905D01*
X149782312Y-138721495D01*
X149568505Y-138507688D01*
X149317095Y-138339701D01*
X149037743Y-138223989D01*
X148828399Y-138182348D01*
X146628443Y-135982393D01*
X146627853Y-135979426D01*
X146519680Y-135718273D01*
X146518000Y-135715759D01*
X146518000Y-127312050D01*
X147273801Y-126556249D01*
X147318320Y-126663727D01*
X147475363Y-126898759D01*
X147675241Y-127098637D01*
X147907759Y-127254000D01*
X147675241Y-127409363D01*
X147475363Y-127609241D01*
X147318320Y-127844273D01*
X147210147Y-128105426D01*
X147155000Y-128382665D01*
X147155000Y-128665335D01*
X147210147Y-128942574D01*
X147318320Y-129203727D01*
X147475363Y-129438759D01*
X147637501Y-129600897D01*
X147637501Y-129646687D01*
X147545820Y-129674498D01*
X147435506Y-129733463D01*
X147338815Y-129812815D01*
X147259463Y-129909506D01*
X147200498Y-130019820D01*
X147164188Y-130139518D01*
X147151928Y-130264000D01*
X147151928Y-131864000D01*
X147164188Y-131988482D01*
X147200498Y-132108180D01*
X147259463Y-132218494D01*
X147338815Y-132315185D01*
X147435506Y-132394537D01*
X147545820Y-132453502D01*
X147665518Y-132489812D01*
X147790000Y-132502072D01*
X149390000Y-132502072D01*
X149514482Y-132489812D01*
X149634180Y-132453502D01*
X149744494Y-132394537D01*
X149841185Y-132315185D01*
X149920537Y-132218494D01*
X149979502Y-132108180D01*
X150015812Y-131988482D01*
X150028072Y-131864000D01*
X150028072Y-130264000D01*
X150015812Y-130139518D01*
X149979502Y-130019820D01*
X149920537Y-129909506D01*
X149841185Y-129812815D01*
X149744494Y-129733463D01*
X149634180Y-129674498D01*
X149542500Y-129646687D01*
X149542500Y-129600896D01*
X149704637Y-129438759D01*
X149861680Y-129203727D01*
X149969853Y-128942574D01*
X150025000Y-128665335D01*
X150025000Y-128436038D01*
X150470001Y-127991037D01*
X150470001Y-148557711D01*
X150455278Y-148707869D01*
X150421047Y-148821246D01*
X150365446Y-148925817D01*
X150290594Y-149017595D01*
X150199335Y-149093091D01*
X150095160Y-149149419D01*
X149982024Y-149184440D01*
X149833979Y-149200000D01*
X128302279Y-149200000D01*
X128152131Y-149185278D01*
X128038754Y-149151047D01*
X127934183Y-149095446D01*
X127842405Y-149020594D01*
X127766909Y-148929335D01*
X127710581Y-148825160D01*
X127675560Y-148712024D01*
X127660000Y-148563979D01*
X127660000Y-147168816D01*
X128005000Y-147168816D01*
X128005000Y-147471184D01*
X128063989Y-147767743D01*
X128179701Y-148047095D01*
X128347688Y-148298505D01*
X128561495Y-148512312D01*
X128812905Y-148680299D01*
X129092257Y-148796011D01*
X129388816Y-148855000D01*
X129691184Y-148855000D01*
X129987743Y-148796011D01*
X130267095Y-148680299D01*
X130518505Y-148512312D01*
X130732312Y-148298505D01*
X130900299Y-148047095D01*
X131016011Y-147767743D01*
X131047720Y-147608330D01*
X132606051Y-146050000D01*
X133225041Y-146050000D01*
X133261595Y-146118387D01*
X133372038Y-146252962D01*
X133506613Y-146363405D01*
X133660149Y-146445472D01*
X133826745Y-146496008D01*
X133999999Y-146513072D01*
X135240001Y-146513072D01*
X135413255Y-146496008D01*
X135579851Y-146445472D01*
X135733387Y-146363405D01*
X135867962Y-146252962D01*
X135978405Y-146118387D01*
X136036655Y-146009410D01*
X136193674Y-146168306D01*
X136439191Y-146334474D01*
X136712409Y-146449551D01*
X136799969Y-146466302D01*
X137033000Y-146345246D01*
X137033000Y-144907000D01*
X137287000Y-144907000D01*
X137287000Y-146345246D01*
X137520031Y-146466302D01*
X137607591Y-146449551D01*
X137880809Y-146334474D01*
X138126326Y-146168306D01*
X138334708Y-145957433D01*
X138430000Y-145812968D01*
X138525292Y-145957433D01*
X138733674Y-146168306D01*
X138979191Y-146334474D01*
X139252409Y-146449551D01*
X139339969Y-146466302D01*
X139573000Y-146345246D01*
X139573000Y-144907000D01*
X137287000Y-144907000D01*
X137033000Y-144907000D01*
X137013000Y-144907000D01*
X137013000Y-144653000D01*
X137033000Y-144653000D01*
X137033000Y-143214754D01*
X137287000Y-143214754D01*
X137287000Y-144653000D01*
X139573000Y-144653000D01*
X139573000Y-143214754D01*
X139827000Y-143214754D01*
X139827000Y-144653000D01*
X139847000Y-144653000D01*
X139847000Y-144907000D01*
X139827000Y-144907000D01*
X139827000Y-146345246D01*
X140060031Y-146466302D01*
X140147591Y-146449551D01*
X140420809Y-146334474D01*
X140666326Y-146168306D01*
X140874708Y-145957433D01*
X140967440Y-145816848D01*
X140982583Y-145845179D01*
X141170655Y-146074345D01*
X141399822Y-146262417D01*
X141661276Y-146402166D01*
X141944969Y-146488224D01*
X142240000Y-146517282D01*
X142535032Y-146488224D01*
X142818725Y-146402166D01*
X143080179Y-146262417D01*
X143309345Y-146074345D01*
X143329324Y-146050000D01*
X145523950Y-146050000D01*
X147051928Y-147577979D01*
X147051928Y-148220000D01*
X147064188Y-148344482D01*
X147100498Y-148464180D01*
X147159463Y-148574494D01*
X147238815Y-148671185D01*
X147335506Y-148750537D01*
X147445820Y-148809502D01*
X147565518Y-148845812D01*
X147690000Y-148858072D01*
X149490000Y-148858072D01*
X149614482Y-148845812D01*
X149734180Y-148809502D01*
X149844494Y-148750537D01*
X149941185Y-148671185D01*
X150020537Y-148574494D01*
X150079502Y-148464180D01*
X150115812Y-148344482D01*
X150128072Y-148220000D01*
X150128072Y-146420000D01*
X150115812Y-146295518D01*
X150079502Y-146175820D01*
X150020537Y-146065506D01*
X149941185Y-145968815D01*
X149844494Y-145889463D01*
X149734180Y-145830498D01*
X149614482Y-145794188D01*
X149490000Y-145781928D01*
X148847979Y-145781928D01*
X146992141Y-143926091D01*
X146952370Y-143877630D01*
X146758988Y-143718925D01*
X146538359Y-143600997D01*
X146298963Y-143528377D01*
X146112380Y-143510000D01*
X146112373Y-143510000D01*
X146050000Y-143503857D01*
X145987627Y-143510000D01*
X143329324Y-143510000D01*
X143309345Y-143485655D01*
X143080178Y-143297583D01*
X142818724Y-143157834D01*
X142535031Y-143071776D01*
X142240000Y-143042718D01*
X141944968Y-143071776D01*
X141661275Y-143157834D01*
X141399821Y-143297583D01*
X141170655Y-143485655D01*
X140982583Y-143714822D01*
X140967440Y-143743152D01*
X140874708Y-143602567D01*
X140666326Y-143391694D01*
X140420809Y-143225526D01*
X140147591Y-143110449D01*
X140060031Y-143093698D01*
X139827000Y-143214754D01*
X139573000Y-143214754D01*
X139339969Y-143093698D01*
X139252409Y-143110449D01*
X138979191Y-143225526D01*
X138733674Y-143391694D01*
X138525292Y-143602567D01*
X138430000Y-143747032D01*
X138334708Y-143602567D01*
X138126326Y-143391694D01*
X137880809Y-143225526D01*
X137607591Y-143110449D01*
X137520031Y-143093698D01*
X137287000Y-143214754D01*
X137033000Y-143214754D01*
X136799969Y-143093698D01*
X136712409Y-143110449D01*
X136439191Y-143225526D01*
X136193674Y-143391694D01*
X136036655Y-143550590D01*
X135978405Y-143441613D01*
X135867962Y-143307038D01*
X135733387Y-143196595D01*
X135579851Y-143114528D01*
X135413255Y-143063992D01*
X135240001Y-143046928D01*
X133999999Y-143046928D01*
X133826745Y-143063992D01*
X133660149Y-143114528D01*
X133506613Y-143196595D01*
X133372038Y-143307038D01*
X133261595Y-143441613D01*
X133225041Y-143510000D01*
X132142372Y-143510000D01*
X132079999Y-143503857D01*
X132017626Y-143510000D01*
X132017620Y-143510000D01*
X131856755Y-143525844D01*
X131831036Y-143528377D01*
X131758416Y-143550406D01*
X131591641Y-143600997D01*
X131371012Y-143718925D01*
X131177630Y-143877630D01*
X131137863Y-143926086D01*
X129251670Y-145812280D01*
X129092257Y-145843989D01*
X128812905Y-145959701D01*
X128561495Y-146127688D01*
X128347688Y-146341495D01*
X128179701Y-146592905D01*
X128063989Y-146872257D01*
X128005000Y-147168816D01*
X127660000Y-147168816D01*
X127660000Y-142017081D01*
X127656726Y-141983839D01*
X127656726Y-141967363D01*
X127655763Y-141958198D01*
X127628134Y-141711882D01*
X127615695Y-141653365D01*
X127604078Y-141594692D01*
X127601353Y-141585889D01*
X127526408Y-141349631D01*
X127502868Y-141294709D01*
X127480048Y-141239342D01*
X127475664Y-141231236D01*
X127431208Y-141150371D01*
X127517424Y-141064155D01*
X127614277Y-140919205D01*
X127680990Y-140758145D01*
X127715000Y-140587165D01*
X127715000Y-140412835D01*
X127680990Y-140241855D01*
X127622232Y-140100000D01*
X127680990Y-139958145D01*
X127715000Y-139787165D01*
X127715000Y-139612835D01*
X127680990Y-139441855D01*
X127622232Y-139300000D01*
X127680990Y-139158145D01*
X127715000Y-138987165D01*
X127715000Y-138812835D01*
X127680990Y-138641855D01*
X127614277Y-138480795D01*
X127517424Y-138335845D01*
X127431020Y-138249441D01*
X127486919Y-138144309D01*
X127509707Y-138089021D01*
X127533279Y-138034025D01*
X127536003Y-138025222D01*
X127607643Y-137787941D01*
X127619264Y-137729254D01*
X127631700Y-137670748D01*
X127632663Y-137661583D01*
X127656850Y-137414905D01*
X127656850Y-137414902D01*
X127660000Y-137382919D01*
X127660000Y-131605872D01*
X128321000Y-131605872D01*
X128321000Y-132046128D01*
X128406890Y-132477925D01*
X128575369Y-132884669D01*
X128819962Y-133250729D01*
X129131271Y-133562038D01*
X129497331Y-133806631D01*
X129904075Y-133975110D01*
X130335872Y-134061000D01*
X130776128Y-134061000D01*
X131207925Y-133975110D01*
X131614669Y-133806631D01*
X131980729Y-133562038D01*
X132292038Y-133250729D01*
X132536631Y-132884669D01*
X132705110Y-132477925D01*
X132791000Y-132046128D01*
X132791000Y-131605872D01*
X132705110Y-131174075D01*
X132536631Y-130767331D01*
X132292038Y-130401271D01*
X131980729Y-130089962D01*
X131614669Y-129845369D01*
X131207925Y-129676890D01*
X130776128Y-129591000D01*
X130335872Y-129591000D01*
X129904075Y-129676890D01*
X129497331Y-129845369D01*
X129131271Y-130089962D01*
X128819962Y-130401271D01*
X128575369Y-130767331D01*
X128406890Y-131174075D01*
X128321000Y-131605872D01*
X127660000Y-131605872D01*
X127660000Y-125507081D01*
X127656726Y-125473839D01*
X127656726Y-125457363D01*
X127655763Y-125448198D01*
X127628134Y-125201882D01*
X127615695Y-125143365D01*
X127604078Y-125084692D01*
X127601353Y-125075889D01*
X127526408Y-124839631D01*
X127502868Y-124784709D01*
X127480048Y-124729342D01*
X127475664Y-124721236D01*
X127431208Y-124640371D01*
X127517424Y-124554155D01*
X127614277Y-124409205D01*
X127680990Y-124248145D01*
X127715000Y-124077165D01*
X127715000Y-123902835D01*
X127680990Y-123731855D01*
X127622232Y-123590000D01*
X127680990Y-123448145D01*
X127715000Y-123277165D01*
X127715000Y-123102835D01*
X127680990Y-122931855D01*
X127622232Y-122790000D01*
X127680990Y-122648145D01*
X127715000Y-122477165D01*
X127715000Y-122302835D01*
X127680990Y-122131855D01*
X127614277Y-121970795D01*
X127517424Y-121825845D01*
X127431020Y-121739441D01*
X127486919Y-121634309D01*
X127509707Y-121579021D01*
X127533279Y-121524025D01*
X127536003Y-121515222D01*
X127607643Y-121277941D01*
X127619264Y-121219254D01*
X127631700Y-121160748D01*
X127632663Y-121151583D01*
X127656850Y-120904905D01*
X127656850Y-120904902D01*
X127660000Y-120872919D01*
X127660000Y-120372702D01*
X133298903Y-120372702D01*
X133370486Y-120616671D01*
X133625996Y-120737571D01*
X133900184Y-120806300D01*
X134182512Y-120820217D01*
X134462130Y-120778787D01*
X134728292Y-120683603D01*
X134853514Y-120616671D01*
X134925097Y-120372702D01*
X134112000Y-119559605D01*
X133298903Y-120372702D01*
X127660000Y-120372702D01*
X127660000Y-119450512D01*
X132671783Y-119450512D01*
X132713213Y-119730130D01*
X132808397Y-119996292D01*
X132875329Y-120121514D01*
X133119298Y-120193097D01*
X133932395Y-119380000D01*
X133119298Y-118566903D01*
X132875329Y-118638486D01*
X132754429Y-118893996D01*
X132685700Y-119168184D01*
X132671783Y-119450512D01*
X127660000Y-119450512D01*
X127660000Y-111537081D01*
X127656726Y-111503839D01*
X127656726Y-111487363D01*
X127655763Y-111478198D01*
X127628134Y-111231882D01*
X127615695Y-111173365D01*
X127604078Y-111114692D01*
X127601353Y-111105889D01*
X127526408Y-110869631D01*
X127502868Y-110814709D01*
X127480048Y-110759342D01*
X127475664Y-110751236D01*
X127431208Y-110670371D01*
X127517424Y-110584155D01*
X127614277Y-110439205D01*
X127680990Y-110278145D01*
X127715000Y-110107165D01*
X127715000Y-109932835D01*
X127680990Y-109761855D01*
X127622232Y-109620000D01*
X127680990Y-109478145D01*
X127715000Y-109307165D01*
X127715000Y-109132835D01*
X127680990Y-108961855D01*
X127622232Y-108820000D01*
X127680990Y-108678145D01*
X127715000Y-108507165D01*
X127715000Y-108332835D01*
X127680990Y-108161855D01*
X127614277Y-108000795D01*
X127517424Y-107855845D01*
X127431020Y-107769441D01*
X127473769Y-107689040D01*
X127488247Y-107736767D01*
X127576693Y-107902240D01*
X127695721Y-108047277D01*
X127732068Y-108077106D01*
X128867000Y-109212038D01*
X128867000Y-109441335D01*
X128922147Y-109718574D01*
X129030320Y-109979727D01*
X129187363Y-110214759D01*
X129387241Y-110414637D01*
X129622273Y-110571680D01*
X129883426Y-110679853D01*
X130160665Y-110735000D01*
X130389962Y-110735000D01*
X131293393Y-111638431D01*
X131323222Y-111674778D01*
X131468259Y-111793806D01*
X131506023Y-111813991D01*
X131633730Y-111882252D01*
X131703413Y-111903390D01*
X131813277Y-111936717D01*
X131953215Y-111950500D01*
X132000000Y-111955108D01*
X132046785Y-111950500D01*
X133289104Y-111950500D01*
X133451241Y-112112637D01*
X133683759Y-112268000D01*
X133451241Y-112423363D01*
X133289104Y-112585500D01*
X131110785Y-112585500D01*
X131064000Y-112580892D01*
X131017215Y-112585500D01*
X130877277Y-112599283D01*
X130798299Y-112623241D01*
X130697730Y-112653748D01*
X130650562Y-112678960D01*
X130532259Y-112742194D01*
X130387222Y-112861222D01*
X130384121Y-112865000D01*
X130160665Y-112865000D01*
X129883426Y-112920147D01*
X129622273Y-113028320D01*
X129387241Y-113185363D01*
X129187363Y-113385241D01*
X129030320Y-113620273D01*
X128922147Y-113881426D01*
X128867000Y-114158665D01*
X128867000Y-114441335D01*
X128922147Y-114718574D01*
X129030320Y-114979727D01*
X129187363Y-115214759D01*
X129387241Y-115414637D01*
X129437016Y-115447896D01*
X129375426Y-115460147D01*
X129114273Y-115568320D01*
X128879241Y-115725363D01*
X128679363Y-115925241D01*
X128522320Y-116160273D01*
X128414147Y-116421426D01*
X128359000Y-116698665D01*
X128359000Y-116981335D01*
X128414147Y-117258574D01*
X128522320Y-117519727D01*
X128679363Y-117754759D01*
X128879241Y-117954637D01*
X129114273Y-118111680D01*
X129375426Y-118219853D01*
X129652665Y-118275000D01*
X129935335Y-118275000D01*
X130212574Y-118219853D01*
X130473727Y-118111680D01*
X130708759Y-117954637D01*
X130908637Y-117754759D01*
X131065680Y-117519727D01*
X131173853Y-117258574D01*
X131229000Y-116981335D01*
X131229000Y-116698665D01*
X131173853Y-116421426D01*
X131065680Y-116160273D01*
X130908637Y-115925241D01*
X130708759Y-115725363D01*
X130658984Y-115692104D01*
X130720574Y-115679853D01*
X130981727Y-115571680D01*
X131216759Y-115414637D01*
X131416637Y-115214759D01*
X131573680Y-114979727D01*
X131681853Y-114718574D01*
X131727220Y-114490500D01*
X133289104Y-114490500D01*
X133451241Y-114652637D01*
X133683759Y-114808000D01*
X133451241Y-114963363D01*
X133251363Y-115163241D01*
X133094320Y-115398273D01*
X132986147Y-115659426D01*
X132931000Y-115936665D01*
X132931000Y-116219335D01*
X132986147Y-116496574D01*
X133094320Y-116757727D01*
X133251363Y-116992759D01*
X133451241Y-117192637D01*
X133686273Y-117349680D01*
X133947426Y-117457853D01*
X133950393Y-117458443D01*
X134486405Y-117994455D01*
X134323816Y-117953700D01*
X134041488Y-117939783D01*
X133761870Y-117981213D01*
X133495708Y-118076397D01*
X133370486Y-118143329D01*
X133298903Y-118387298D01*
X134112000Y-119200395D01*
X134126143Y-119186253D01*
X134305748Y-119365858D01*
X134291605Y-119380000D01*
X135104702Y-120193097D01*
X135348671Y-120121514D01*
X135469571Y-119866004D01*
X135538300Y-119591816D01*
X135552217Y-119309488D01*
X135510787Y-119029870D01*
X135504645Y-119012696D01*
X136725863Y-120233914D01*
X136765630Y-120282370D01*
X136959012Y-120441075D01*
X137179641Y-120559003D01*
X137346416Y-120609594D01*
X137419036Y-120631623D01*
X137444755Y-120634156D01*
X137605620Y-120650000D01*
X137605626Y-120650000D01*
X137667999Y-120656143D01*
X137730372Y-120650000D01*
X138429759Y-120650000D01*
X138432273Y-120651680D01*
X138693426Y-120759853D01*
X138970665Y-120815000D01*
X139044672Y-120815000D01*
X140371201Y-122141529D01*
X140356119Y-122146930D01*
X140114869Y-122291615D01*
X139906481Y-122480586D01*
X139738963Y-122706580D01*
X139618754Y-122960913D01*
X139578096Y-123094961D01*
X139700084Y-123316998D01*
X139650036Y-123316998D01*
X139357000Y-123023962D01*
X139357000Y-122794665D01*
X139301853Y-122517426D01*
X139193680Y-122256273D01*
X139036637Y-122021241D01*
X138836759Y-121821363D01*
X138601727Y-121664320D01*
X138340574Y-121556147D01*
X138063335Y-121501000D01*
X137780665Y-121501000D01*
X137503426Y-121556147D01*
X137242273Y-121664320D01*
X137007241Y-121821363D01*
X136807363Y-122021241D01*
X136650320Y-122256273D01*
X136542147Y-122517426D01*
X136487000Y-122794665D01*
X136487000Y-123077335D01*
X136542147Y-123354574D01*
X136650320Y-123615727D01*
X136807363Y-123850759D01*
X137007241Y-124050637D01*
X137242273Y-124207680D01*
X137503426Y-124315853D01*
X137780665Y-124371000D01*
X138009962Y-124371000D01*
X139535000Y-125896039D01*
X139535000Y-126125335D01*
X139590147Y-126402574D01*
X139698320Y-126663727D01*
X139855363Y-126898759D01*
X140055241Y-127098637D01*
X140287759Y-127254000D01*
X140055241Y-127409363D01*
X139893104Y-127571500D01*
X137773168Y-127571500D01*
X137423318Y-127221650D01*
X137510130Y-127208787D01*
X137776292Y-127113603D01*
X137901514Y-127046671D01*
X137973097Y-126802702D01*
X137160000Y-125989605D01*
X137145858Y-126003748D01*
X136966253Y-125824143D01*
X136980395Y-125810000D01*
X137339605Y-125810000D01*
X138152702Y-126623097D01*
X138396671Y-126551514D01*
X138517571Y-126296004D01*
X138586300Y-126021816D01*
X138600217Y-125739488D01*
X138558787Y-125459870D01*
X138463603Y-125193708D01*
X138396671Y-125068486D01*
X138152702Y-124996903D01*
X137339605Y-125810000D01*
X136980395Y-125810000D01*
X136167298Y-124996903D01*
X135923329Y-125068486D01*
X135802429Y-125323996D01*
X135746958Y-125545290D01*
X135018966Y-124817298D01*
X136346903Y-124817298D01*
X137160000Y-125630395D01*
X137973097Y-124817298D01*
X137901514Y-124573329D01*
X137646004Y-124452429D01*
X137371816Y-124383700D01*
X137089488Y-124369783D01*
X136809870Y-124411213D01*
X136543708Y-124506397D01*
X136418486Y-124573329D01*
X136346903Y-124817298D01*
X135018966Y-124817298D01*
X134042962Y-123841294D01*
X134193680Y-123615727D01*
X134301853Y-123354574D01*
X134357000Y-123077335D01*
X134357000Y-122794665D01*
X134301853Y-122517426D01*
X134193680Y-122256273D01*
X134036637Y-122021241D01*
X133836759Y-121821363D01*
X133601727Y-121664320D01*
X133340574Y-121556147D01*
X133063335Y-121501000D01*
X132780665Y-121501000D01*
X132503426Y-121556147D01*
X132242273Y-121664320D01*
X132007241Y-121821363D01*
X131807363Y-122021241D01*
X131650320Y-122256273D01*
X131542147Y-122517426D01*
X131487000Y-122794665D01*
X131487000Y-123077335D01*
X131542147Y-123354574D01*
X131650320Y-123615727D01*
X131722784Y-123724177D01*
X129881962Y-125565000D01*
X129652665Y-125565000D01*
X129375426Y-125620147D01*
X129114273Y-125728320D01*
X128879241Y-125885363D01*
X128679363Y-126085241D01*
X128522320Y-126320273D01*
X128414147Y-126581426D01*
X128359000Y-126858665D01*
X128359000Y-127141335D01*
X128414147Y-127418574D01*
X128522320Y-127679727D01*
X128679363Y-127914759D01*
X128879241Y-128114637D01*
X129114273Y-128271680D01*
X129375426Y-128379853D01*
X129652665Y-128435000D01*
X129935335Y-128435000D01*
X130212574Y-128379853D01*
X130473727Y-128271680D01*
X130708759Y-128114637D01*
X130908637Y-127914759D01*
X131065680Y-127679727D01*
X131173853Y-127418574D01*
X131229000Y-127141335D01*
X131229000Y-126912038D01*
X132824315Y-125316723D01*
X136672023Y-129164431D01*
X136701852Y-129200778D01*
X136846889Y-129319806D01*
X136929625Y-129364029D01*
X136968732Y-129384932D01*
X136741426Y-129430147D01*
X136480273Y-129538320D01*
X136245241Y-129695363D01*
X136045363Y-129895241D01*
X135888320Y-130130273D01*
X135780147Y-130391426D01*
X135779557Y-130394392D01*
X135036086Y-131137864D01*
X134987631Y-131177630D01*
X134828926Y-131371012D01*
X134797253Y-131430269D01*
X134710998Y-131591641D01*
X134638377Y-131831037D01*
X134613857Y-132080000D01*
X134620001Y-132142383D01*
X134620000Y-136947741D01*
X134559463Y-137021506D01*
X134500498Y-137131820D01*
X134464188Y-137251518D01*
X134451928Y-137376000D01*
X134451928Y-137818021D01*
X133839950Y-138430000D01*
X130957812Y-138430000D01*
X130891185Y-138348815D01*
X130794494Y-138269463D01*
X130684180Y-138210498D01*
X130564482Y-138174188D01*
X130440000Y-138161928D01*
X128640000Y-138161928D01*
X128515518Y-138174188D01*
X128395820Y-138210498D01*
X128285506Y-138269463D01*
X128188815Y-138348815D01*
X128109463Y-138445506D01*
X128050498Y-138555820D01*
X128014188Y-138675518D01*
X128001928Y-138800000D01*
X128001928Y-140600000D01*
X128014188Y-140724482D01*
X128050498Y-140844180D01*
X128109463Y-140954494D01*
X128188815Y-141051185D01*
X128285506Y-141130537D01*
X128395820Y-141189502D01*
X128515518Y-141225812D01*
X128640000Y-141238072D01*
X130440000Y-141238072D01*
X130564482Y-141225812D01*
X130684180Y-141189502D01*
X130794494Y-141130537D01*
X130891185Y-141051185D01*
X130957812Y-140970000D01*
X134303627Y-140970000D01*
X134366000Y-140976143D01*
X134428373Y-140970000D01*
X134428380Y-140970000D01*
X134614963Y-140951623D01*
X134854359Y-140879003D01*
X135074988Y-140761075D01*
X135268370Y-140602370D01*
X135308141Y-140553909D01*
X136247979Y-139614072D01*
X136690000Y-139614072D01*
X136814482Y-139601812D01*
X136934180Y-139565502D01*
X137044494Y-139506537D01*
X137141185Y-139427185D01*
X137220537Y-139330494D01*
X137279502Y-139220180D01*
X137295117Y-139168702D01*
X137576903Y-139168702D01*
X137648486Y-139412671D01*
X137903996Y-139533571D01*
X138178184Y-139602300D01*
X138460512Y-139616217D01*
X138740130Y-139574787D01*
X139006292Y-139479603D01*
X139131514Y-139412671D01*
X139203097Y-139168702D01*
X138390000Y-138355605D01*
X137576903Y-139168702D01*
X137295117Y-139168702D01*
X137315812Y-139100482D01*
X137328072Y-138976000D01*
X137328072Y-138968785D01*
X137397298Y-138989097D01*
X138210395Y-138176000D01*
X138569605Y-138176000D01*
X139382702Y-138989097D01*
X139626671Y-138917514D01*
X139747571Y-138662004D01*
X139816300Y-138387816D01*
X139830217Y-138105488D01*
X139788787Y-137825870D01*
X139693603Y-137559708D01*
X139626671Y-137434486D01*
X139382702Y-137362903D01*
X138569605Y-138176000D01*
X138210395Y-138176000D01*
X137397298Y-137362903D01*
X137328072Y-137383215D01*
X137328072Y-137376000D01*
X137315812Y-137251518D01*
X137295118Y-137183298D01*
X137576903Y-137183298D01*
X138390000Y-137996395D01*
X139188395Y-137198000D01*
X141309928Y-137198000D01*
X141322188Y-137322482D01*
X141358498Y-137442180D01*
X141417463Y-137552494D01*
X141496815Y-137649185D01*
X141593506Y-137728537D01*
X141703820Y-137787502D01*
X141823518Y-137823812D01*
X141948000Y-137836072D01*
X142462250Y-137833000D01*
X142621000Y-137674250D01*
X142621000Y-136525000D01*
X141471750Y-136525000D01*
X141313000Y-136683750D01*
X141309928Y-137198000D01*
X139188395Y-137198000D01*
X139203097Y-137183298D01*
X139131514Y-136939329D01*
X138876004Y-136818429D01*
X138601816Y-136749700D01*
X138319488Y-136735783D01*
X138039870Y-136777213D01*
X137773708Y-136872397D01*
X137648486Y-136939329D01*
X137576903Y-137183298D01*
X137295118Y-137183298D01*
X137279502Y-137131820D01*
X137220537Y-137021506D01*
X137160000Y-136947741D01*
X137160000Y-135598000D01*
X141309928Y-135598000D01*
X141313000Y-136112250D01*
X141471750Y-136271000D01*
X142621000Y-136271000D01*
X142621000Y-135121750D01*
X142462250Y-134963000D01*
X141948000Y-134959928D01*
X141823518Y-134972188D01*
X141703820Y-135008498D01*
X141593506Y-135067463D01*
X141496815Y-135146815D01*
X141417463Y-135243506D01*
X141358498Y-135353820D01*
X141322188Y-135473518D01*
X141309928Y-135598000D01*
X137160000Y-135598000D01*
X137160000Y-132606050D01*
X137575608Y-132190443D01*
X137578574Y-132189853D01*
X137839727Y-132081680D01*
X137842241Y-132080000D01*
X139956604Y-132080000D01*
X140055241Y-132178637D01*
X140290273Y-132335680D01*
X140551426Y-132443853D01*
X140828665Y-132499000D01*
X141111335Y-132499000D01*
X141388574Y-132443853D01*
X141649727Y-132335680D01*
X141884759Y-132178637D01*
X142084637Y-131978759D01*
X142241680Y-131743727D01*
X142349853Y-131482574D01*
X142350443Y-131479607D01*
X143512916Y-130317135D01*
X143561371Y-130277369D01*
X143720076Y-130083987D01*
X143838004Y-129863358D01*
X143892367Y-129684147D01*
X143910624Y-129623963D01*
X143913157Y-129598244D01*
X143929001Y-129437379D01*
X143929001Y-129437373D01*
X143935144Y-129375000D01*
X143929001Y-129312627D01*
X143929001Y-122695651D01*
X143935144Y-122633278D01*
X143929001Y-122570905D01*
X143929001Y-122570899D01*
X143911619Y-122394414D01*
X143910624Y-122384315D01*
X143871827Y-122256419D01*
X143838004Y-122144920D01*
X143720076Y-121924291D01*
X143561371Y-121730909D01*
X143512915Y-121691142D01*
X142194475Y-120372702D01*
X142696903Y-120372702D01*
X142768486Y-120616671D01*
X143023996Y-120737571D01*
X143298184Y-120806300D01*
X143580512Y-120820217D01*
X143860130Y-120778787D01*
X144126292Y-120683603D01*
X144251514Y-120616671D01*
X144323097Y-120372702D01*
X143510000Y-119559605D01*
X142696903Y-120372702D01*
X142194475Y-120372702D01*
X141272285Y-119450512D01*
X142069783Y-119450512D01*
X142111213Y-119730130D01*
X142206397Y-119996292D01*
X142273329Y-120121514D01*
X142517298Y-120193097D01*
X143330395Y-119380000D01*
X143689605Y-119380000D01*
X144502702Y-120193097D01*
X144746671Y-120121514D01*
X144867571Y-119866004D01*
X144936300Y-119591816D01*
X144950217Y-119309488D01*
X144908787Y-119029870D01*
X144813603Y-118763708D01*
X144746671Y-118638486D01*
X144502702Y-118566903D01*
X143689605Y-119380000D01*
X143330395Y-119380000D01*
X142517298Y-118566903D01*
X142273329Y-118638486D01*
X142152429Y-118893996D01*
X142083700Y-119168184D01*
X142069783Y-119450512D01*
X141272285Y-119450512D01*
X140347863Y-118526091D01*
X140308092Y-118477630D01*
X140198023Y-118387298D01*
X142696903Y-118387298D01*
X143510000Y-119200395D01*
X144323097Y-118387298D01*
X144251514Y-118143329D01*
X143996004Y-118022429D01*
X143721816Y-117953700D01*
X143439488Y-117939783D01*
X143159870Y-117981213D01*
X142893708Y-118076397D01*
X142768486Y-118143329D01*
X142696903Y-118387298D01*
X140198023Y-118387298D01*
X140114710Y-118318925D01*
X140040833Y-118279437D01*
X140026759Y-118265363D01*
X139791727Y-118108320D01*
X139530574Y-118000147D01*
X139253335Y-117945000D01*
X138970665Y-117945000D01*
X138693426Y-118000147D01*
X138432273Y-118108320D01*
X138429759Y-118110000D01*
X138194051Y-118110000D01*
X136162050Y-116078000D01*
X136908916Y-115331135D01*
X136957371Y-115291369D01*
X137116076Y-115097987D01*
X137234004Y-114877358D01*
X137298037Y-114666269D01*
X137306624Y-114637963D01*
X137310700Y-114596578D01*
X137325001Y-114451379D01*
X137325001Y-114451373D01*
X137331144Y-114389000D01*
X137325001Y-114326627D01*
X137325001Y-107709652D01*
X137331144Y-107647279D01*
X137325001Y-107584906D01*
X137325001Y-107584899D01*
X137308255Y-107414876D01*
X137306624Y-107398315D01*
X137276813Y-107300043D01*
X137234004Y-107158920D01*
X137116076Y-106938291D01*
X136957371Y-106744909D01*
X136908915Y-106705142D01*
X136786689Y-106582916D01*
X137056512Y-106596217D01*
X137336130Y-106554787D01*
X137602292Y-106459603D01*
X137727514Y-106392671D01*
X137799097Y-106148702D01*
X136986000Y-105335605D01*
X136971858Y-105349748D01*
X136792253Y-105170143D01*
X136806395Y-105156000D01*
X137165605Y-105156000D01*
X137978702Y-105969097D01*
X138222671Y-105897514D01*
X138343571Y-105642004D01*
X138412300Y-105367816D01*
X138426217Y-105085488D01*
X138384787Y-104805870D01*
X138289603Y-104539708D01*
X138222671Y-104414486D01*
X137978702Y-104342903D01*
X137165605Y-105156000D01*
X136806395Y-105156000D01*
X135993298Y-104342903D01*
X135749329Y-104414486D01*
X135628429Y-104669996D01*
X135559700Y-104944184D01*
X135545783Y-105226512D01*
X135565873Y-105362100D01*
X134367071Y-104163298D01*
X136172903Y-104163298D01*
X136986000Y-104976395D01*
X137799097Y-104163298D01*
X137727514Y-103919329D01*
X137472004Y-103798429D01*
X137197816Y-103729700D01*
X136915488Y-103715783D01*
X136635870Y-103757213D01*
X136369708Y-103852397D01*
X136244486Y-103919329D01*
X136172903Y-104163298D01*
X134367071Y-104163298D01*
X134200999Y-103997227D01*
X134200999Y-103106676D01*
X134201426Y-103106853D01*
X134478665Y-103162000D01*
X134761335Y-103162000D01*
X135038574Y-103106853D01*
X135299727Y-102998680D01*
X135534759Y-102841637D01*
X135734637Y-102641759D01*
X135891680Y-102406727D01*
X135999853Y-102145574D01*
X136055000Y-101868335D01*
X136055000Y-101585665D01*
X135999853Y-101308426D01*
X135891680Y-101047273D01*
X135734637Y-100812241D01*
X135534759Y-100612363D01*
X135299727Y-100455320D01*
X135038574Y-100347147D01*
X134761335Y-100292000D01*
X134478665Y-100292000D01*
X134201426Y-100347147D01*
X134200119Y-100347688D01*
X134182622Y-100170036D01*
X134162785Y-100104640D01*
X134110002Y-99930640D01*
X134051933Y-99822000D01*
X133992074Y-99710011D01*
X133895535Y-99592378D01*
X133873134Y-99565082D01*
X133873131Y-99565079D01*
X133833369Y-99516629D01*
X133784918Y-99476866D01*
X133311999Y-99003948D01*
X133311999Y-98763040D01*
X133348320Y-98850727D01*
X133505363Y-99085759D01*
X133705241Y-99285637D01*
X133940273Y-99442680D01*
X134201426Y-99550853D01*
X134478665Y-99606000D01*
X134761335Y-99606000D01*
X135038574Y-99550853D01*
X135299727Y-99442680D01*
X135534759Y-99285637D01*
X135734637Y-99085759D01*
X135891680Y-98850727D01*
X135999853Y-98589574D01*
X136055000Y-98312335D01*
X136055000Y-98029665D01*
X135999853Y-97752426D01*
X135891680Y-97491273D01*
X135734637Y-97256241D01*
X135534759Y-97056363D01*
X135299727Y-96899320D01*
X135038574Y-96791147D01*
X134761335Y-96736000D01*
X134478665Y-96736000D01*
X134201426Y-96791147D01*
X133940273Y-96899320D01*
X133705241Y-97056363D01*
X133505363Y-97256241D01*
X133348320Y-97491273D01*
X133311999Y-97578960D01*
X133311999Y-96248676D01*
X133312426Y-96248853D01*
X133589665Y-96304000D01*
X133872335Y-96304000D01*
X134149574Y-96248853D01*
X134410727Y-96140680D01*
X134645759Y-95983637D01*
X134845637Y-95783759D01*
X135002680Y-95548727D01*
X135110853Y-95287574D01*
X135166000Y-95010335D01*
X135166000Y-94727665D01*
X135110853Y-94450426D01*
X135002680Y-94189273D01*
X134845637Y-93954241D01*
X134645759Y-93754363D01*
X134410727Y-93597320D01*
X134149574Y-93489147D01*
X133872335Y-93434000D01*
X133589665Y-93434000D01*
X133312426Y-93489147D01*
X133311999Y-93489324D01*
X133311999Y-93073676D01*
X133312426Y-93073853D01*
X133589665Y-93129000D01*
X133872335Y-93129000D01*
X134149574Y-93073853D01*
X134410727Y-92965680D01*
X134645759Y-92808637D01*
X134845637Y-92608759D01*
X135002680Y-92373727D01*
X135110853Y-92112574D01*
X135166000Y-91835335D01*
X135166000Y-91552665D01*
X135110853Y-91275426D01*
X135002680Y-91014273D01*
X134845637Y-90779241D01*
X134645759Y-90579363D01*
X134410727Y-90422320D01*
X134149574Y-90314147D01*
X133872335Y-90259000D01*
X133589665Y-90259000D01*
X133312426Y-90314147D01*
X133311999Y-90314324D01*
X133311999Y-88694316D01*
X133432273Y-88774680D01*
X133693426Y-88882853D01*
X133970665Y-88938000D01*
X134253335Y-88938000D01*
X134530574Y-88882853D01*
X134791727Y-88774680D01*
X135026759Y-88617637D01*
X135226637Y-88417759D01*
X135383680Y-88182727D01*
X135491853Y-87921574D01*
X135547000Y-87644335D01*
X135547000Y-87361665D01*
X135491853Y-87084426D01*
X135383680Y-86823273D01*
X135226637Y-86588241D01*
X135064500Y-86426104D01*
X135064500Y-84769896D01*
X135226637Y-84607759D01*
X135383680Y-84372727D01*
X135491853Y-84111574D01*
X135547000Y-83834335D01*
X135547000Y-83551665D01*
X135491853Y-83274426D01*
X135383680Y-83013273D01*
X135226637Y-82778241D01*
X135026759Y-82578363D01*
X134791727Y-82421320D01*
X134530574Y-82313147D01*
X134253335Y-82258000D01*
X133970665Y-82258000D01*
X133693426Y-82313147D01*
X133432273Y-82421320D01*
X133311999Y-82501684D01*
X133311999Y-81538466D01*
X133566426Y-81643853D01*
X133843665Y-81699000D01*
X134126335Y-81699000D01*
X134403574Y-81643853D01*
X134664727Y-81535680D01*
X134899759Y-81378637D01*
X135061896Y-81216500D01*
X135763215Y-81216500D01*
X135810000Y-81221108D01*
X135856785Y-81216500D01*
X135996723Y-81202717D01*
X136176269Y-81148252D01*
X136341741Y-81059806D01*
X136429218Y-80988016D01*
X136361924Y-81070014D01*
G37*
%TD.AperFunction*%
D26*
X141097000Y-123317000D02*
X141117000Y-123317000D01*
X141117000Y-123571000D01*
X141097000Y-123571000D01*
X141097000Y-123591000D01*
X140843000Y-123591000D01*
X140843000Y-123571000D01*
X140823000Y-123571000D01*
X140823000Y-123317000D01*
X140843000Y-123317000D01*
X140843000Y-123297000D01*
X141097000Y-123297000D01*
X141097000Y-123317000D01*
%TA.AperFunction,Conductor*%
D27*
G36*
X141097000Y-123317000D02*
G01*
X141117000Y-123317000D01*
X141117000Y-123571000D01*
X141097000Y-123571000D01*
X141097000Y-123591000D01*
X140843000Y-123591000D01*
X140843000Y-123571000D01*
X140823000Y-123571000D01*
X140823000Y-123317000D01*
X140843000Y-123317000D01*
X140843000Y-123297000D01*
X141097000Y-123297000D01*
X141097000Y-123317000D01*
G37*
%TD.AperFunction*%
D26*
X131661000Y-100945051D02*
X131660999Y-104460904D01*
X131654856Y-104523277D01*
X131660999Y-104585650D01*
X131660999Y-104585656D01*
X131665728Y-104633665D01*
X131679376Y-104772240D01*
X131680214Y-104775001D01*
X131751996Y-105011635D01*
X131869924Y-105232264D01*
X132028629Y-105425647D01*
X132077090Y-105465418D01*
X133767201Y-107155529D01*
X133752119Y-107160930D01*
X133510869Y-107305615D01*
X133302481Y-107494586D01*
X133134963Y-107720580D01*
X133014754Y-107974913D01*
X132974096Y-108108961D01*
X133096085Y-108331000D01*
X134239000Y-108331000D01*
X134239000Y-108311000D01*
X134493000Y-108311000D01*
X134493000Y-108331000D01*
X134513000Y-108331000D01*
X134513000Y-108585000D01*
X134493000Y-108585000D01*
X134493000Y-108605000D01*
X134239000Y-108605000D01*
X134239000Y-108585000D01*
X133096085Y-108585000D01*
X132974096Y-108807039D01*
X133014754Y-108941087D01*
X133134963Y-109195420D01*
X133302481Y-109421414D01*
X133510869Y-109610385D01*
X133696865Y-109721933D01*
X133686273Y-109726320D01*
X133451241Y-109883363D01*
X133289104Y-110045500D01*
X132394538Y-110045500D01*
X131737000Y-109387962D01*
X131737000Y-109158665D01*
X131681853Y-108881426D01*
X131573680Y-108620273D01*
X131416637Y-108385241D01*
X131216759Y-108185363D01*
X130981727Y-108028320D01*
X130720574Y-107920147D01*
X130443335Y-107865000D01*
X130214038Y-107865000D01*
X129324999Y-106975961D01*
X129324999Y-106811712D01*
X129437109Y-106851481D01*
X129667000Y-106730814D01*
X129667000Y-105537000D01*
X129921000Y-105537000D01*
X129921000Y-106730814D01*
X130150891Y-106851481D01*
X130425252Y-106754157D01*
X130675355Y-106605178D01*
X130891588Y-106410269D01*
X131065641Y-106176920D01*
X131190825Y-105914099D01*
X131235476Y-105766890D01*
X131114155Y-105537000D01*
X129921000Y-105537000D01*
X129667000Y-105537000D01*
X129647000Y-105537000D01*
X129647000Y-105283000D01*
X129667000Y-105283000D01*
X129667000Y-105263000D01*
X129921000Y-105263000D01*
X129921000Y-105283000D01*
X131114155Y-105283000D01*
X131235476Y-105053110D01*
X131190825Y-104905901D01*
X131065641Y-104643080D01*
X130891588Y-104409731D01*
X130675355Y-104214822D01*
X130558466Y-104145195D01*
X130740632Y-104023475D01*
X130947475Y-103816632D01*
X131109990Y-103573411D01*
X131221932Y-103303158D01*
X131279000Y-103016260D01*
X131279000Y-102723740D01*
X131221932Y-102436842D01*
X131109990Y-102166589D01*
X130947475Y-101923368D01*
X130740632Y-101716525D01*
X130566240Y-101600000D01*
X130740632Y-101483475D01*
X130947475Y-101276632D01*
X131109990Y-101033411D01*
X131221932Y-100763158D01*
X131264600Y-100548651D01*
X131661000Y-100945051D01*
%TA.AperFunction,Conductor*%
D27*
G36*
X131661000Y-100945051D02*
G01*
X131660999Y-104460904D01*
X131654856Y-104523277D01*
X131660999Y-104585650D01*
X131660999Y-104585656D01*
X131665728Y-104633665D01*
X131679376Y-104772240D01*
X131680214Y-104775001D01*
X131751996Y-105011635D01*
X131869924Y-105232264D01*
X132028629Y-105425647D01*
X132077090Y-105465418D01*
X133767201Y-107155529D01*
X133752119Y-107160930D01*
X133510869Y-107305615D01*
X133302481Y-107494586D01*
X133134963Y-107720580D01*
X133014754Y-107974913D01*
X132974096Y-108108961D01*
X133096085Y-108331000D01*
X134239000Y-108331000D01*
X134239000Y-108311000D01*
X134493000Y-108311000D01*
X134493000Y-108331000D01*
X134513000Y-108331000D01*
X134513000Y-108585000D01*
X134493000Y-108585000D01*
X134493000Y-108605000D01*
X134239000Y-108605000D01*
X134239000Y-108585000D01*
X133096085Y-108585000D01*
X132974096Y-108807039D01*
X133014754Y-108941087D01*
X133134963Y-109195420D01*
X133302481Y-109421414D01*
X133510869Y-109610385D01*
X133696865Y-109721933D01*
X133686273Y-109726320D01*
X133451241Y-109883363D01*
X133289104Y-110045500D01*
X132394538Y-110045500D01*
X131737000Y-109387962D01*
X131737000Y-109158665D01*
X131681853Y-108881426D01*
X131573680Y-108620273D01*
X131416637Y-108385241D01*
X131216759Y-108185363D01*
X130981727Y-108028320D01*
X130720574Y-107920147D01*
X130443335Y-107865000D01*
X130214038Y-107865000D01*
X129324999Y-106975961D01*
X129324999Y-106811712D01*
X129437109Y-106851481D01*
X129667000Y-106730814D01*
X129667000Y-105537000D01*
X129921000Y-105537000D01*
X129921000Y-106730814D01*
X130150891Y-106851481D01*
X130425252Y-106754157D01*
X130675355Y-106605178D01*
X130891588Y-106410269D01*
X131065641Y-106176920D01*
X131190825Y-105914099D01*
X131235476Y-105766890D01*
X131114155Y-105537000D01*
X129921000Y-105537000D01*
X129667000Y-105537000D01*
X129647000Y-105537000D01*
X129647000Y-105283000D01*
X129667000Y-105283000D01*
X129667000Y-105263000D01*
X129921000Y-105263000D01*
X129921000Y-105283000D01*
X131114155Y-105283000D01*
X131235476Y-105053110D01*
X131190825Y-104905901D01*
X131065641Y-104643080D01*
X130891588Y-104409731D01*
X130675355Y-104214822D01*
X130558466Y-104145195D01*
X130740632Y-104023475D01*
X130947475Y-103816632D01*
X131109990Y-103573411D01*
X131221932Y-103303158D01*
X131279000Y-103016260D01*
X131279000Y-102723740D01*
X131221932Y-102436842D01*
X131109990Y-102166589D01*
X130947475Y-101923368D01*
X130740632Y-101716525D01*
X130566240Y-101600000D01*
X130740632Y-101483475D01*
X130947475Y-101276632D01*
X131109990Y-101033411D01*
X131221932Y-100763158D01*
X131264600Y-100548651D01*
X131661000Y-100945051D01*
G37*
%TD.AperFunction*%
D26*
X137261241Y-56994637D02*
X137493759Y-57150000D01*
X135810241Y-57150000D01*
X135807727Y-57148320D01*
X135546574Y-57040147D01*
X135269335Y-56985000D01*
X134986665Y-56985000D01*
X134709426Y-57040147D01*
X134448273Y-57148320D01*
X134213241Y-57305363D01*
X134013363Y-57505241D01*
X133856320Y-57740273D01*
X133748147Y-58001426D01*
X133693000Y-58278665D01*
X133693000Y-58561335D01*
X133748147Y-58838574D01*
X133856320Y-59099727D01*
X133858001Y-59102243D01*
X133858000Y-64671671D01*
X132368402Y-66161270D01*
X132335680Y-66082273D01*
X132178637Y-65847241D01*
X132012057Y-65680661D01*
X132108180Y-65651502D01*
X132218494Y-65592537D01*
X132315185Y-65513185D01*
X132394537Y-65416494D01*
X132453502Y-65306180D01*
X132489812Y-65186482D01*
X132502072Y-65062000D01*
X132502072Y-63462000D01*
X132489812Y-63337518D01*
X132453502Y-63217820D01*
X132394537Y-63107506D01*
X132315185Y-63010815D01*
X132218494Y-62931463D01*
X132108180Y-62872498D01*
X131988482Y-62836188D01*
X131864000Y-62823928D01*
X130264000Y-62823928D01*
X130139518Y-62836188D01*
X130019820Y-62872498D01*
X129909506Y-62931463D01*
X129812815Y-63010815D01*
X129733463Y-63107506D01*
X129674498Y-63217820D01*
X129638188Y-63337518D01*
X129625928Y-63462000D01*
X129625928Y-65062000D01*
X129638188Y-65186482D01*
X129674498Y-65306180D01*
X129733463Y-65416494D01*
X129812815Y-65513185D01*
X129909506Y-65592537D01*
X130019820Y-65651502D01*
X130115943Y-65680661D01*
X129949363Y-65847241D01*
X129792320Y-66082273D01*
X129684147Y-66343426D01*
X129629000Y-66620665D01*
X129629000Y-66849962D01*
X128772565Y-67706397D01*
X128736223Y-67736222D01*
X128706399Y-67772563D01*
X128617194Y-67881260D01*
X128528749Y-68046731D01*
X128474283Y-68226278D01*
X128455892Y-68413000D01*
X128460501Y-68459794D01*
X128460500Y-69789104D01*
X128298363Y-69951241D01*
X128141320Y-70186273D01*
X128033147Y-70447426D01*
X127978000Y-70724665D01*
X127978000Y-71007335D01*
X128033147Y-71284574D01*
X128141320Y-71545727D01*
X128298363Y-71780759D01*
X128498241Y-71980637D01*
X128733273Y-72137680D01*
X128994426Y-72245853D01*
X129271665Y-72301000D01*
X129554335Y-72301000D01*
X129831574Y-72245853D01*
X130092727Y-72137680D01*
X130327759Y-71980637D01*
X130527637Y-71780759D01*
X130684680Y-71545727D01*
X130772000Y-71334918D01*
X130772000Y-80585059D01*
X130710070Y-80412119D01*
X130565385Y-80170869D01*
X130376414Y-79962481D01*
X130150420Y-79794963D01*
X129896087Y-79674754D01*
X129762039Y-79634096D01*
X129540000Y-79756085D01*
X129540000Y-80899000D01*
X129560000Y-80899000D01*
X129560000Y-81153000D01*
X129540000Y-81153000D01*
X129540000Y-82295915D01*
X129762039Y-82417904D01*
X129896087Y-82377246D01*
X130150420Y-82257037D01*
X130376414Y-82089519D01*
X130565385Y-81881131D01*
X130710070Y-81639881D01*
X130772000Y-81466941D01*
X130771999Y-85002036D01*
X130744494Y-84979463D01*
X130634180Y-84920498D01*
X130514482Y-84884188D01*
X130390000Y-84871928D01*
X128690000Y-84871928D01*
X128565518Y-84884188D01*
X128445820Y-84920498D01*
X128335506Y-84979463D01*
X128238815Y-85058815D01*
X128159463Y-85155506D01*
X128100498Y-85265820D01*
X128064188Y-85385518D01*
X128051928Y-85510000D01*
X128051928Y-87210000D01*
X128064188Y-87334482D01*
X128100498Y-87454180D01*
X128159463Y-87564494D01*
X128238815Y-87661185D01*
X128335506Y-87740537D01*
X128445820Y-87799502D01*
X128518380Y-87821513D01*
X128386525Y-87953368D01*
X128224010Y-88196589D01*
X128112068Y-88466842D01*
X128055000Y-88753740D01*
X128055000Y-89046260D01*
X128112068Y-89333158D01*
X128224010Y-89603411D01*
X128386525Y-89846632D01*
X128593368Y-90053475D01*
X128767760Y-90170000D01*
X128593368Y-90286525D01*
X128386525Y-90493368D01*
X128224010Y-90736589D01*
X128112068Y-91006842D01*
X128055000Y-91293740D01*
X128055000Y-91577962D01*
X127732063Y-91900899D01*
X127695722Y-91930723D01*
X127653738Y-91981881D01*
X127599025Y-92048550D01*
X127526408Y-91819631D01*
X127502868Y-91764709D01*
X127480048Y-91709342D01*
X127475664Y-91701236D01*
X127431208Y-91620371D01*
X127517424Y-91534155D01*
X127614277Y-91389205D01*
X127680990Y-91228145D01*
X127715000Y-91057165D01*
X127715000Y-90882835D01*
X127680990Y-90711855D01*
X127622232Y-90570000D01*
X127680990Y-90428145D01*
X127715000Y-90257165D01*
X127715000Y-90082835D01*
X127680990Y-89911855D01*
X127622232Y-89770000D01*
X127680990Y-89628145D01*
X127715000Y-89457165D01*
X127715000Y-89282835D01*
X127680990Y-89111855D01*
X127614277Y-88950795D01*
X127517424Y-88805845D01*
X127431020Y-88719441D01*
X127486919Y-88614309D01*
X127509707Y-88559021D01*
X127533279Y-88504025D01*
X127536003Y-88495222D01*
X127607643Y-88257941D01*
X127619264Y-88199254D01*
X127631700Y-88140748D01*
X127632663Y-88131583D01*
X127656850Y-87884905D01*
X127656850Y-87884902D01*
X127660000Y-87852919D01*
X127660000Y-81375040D01*
X128021091Y-81375040D01*
X128115930Y-81639881D01*
X128260615Y-81881131D01*
X128449586Y-82089519D01*
X128675580Y-82257037D01*
X128929913Y-82377246D01*
X129063961Y-82417904D01*
X129286000Y-82295915D01*
X129286000Y-81153000D01*
X128142376Y-81153000D01*
X128021091Y-81375040D01*
X127660000Y-81375040D01*
X127660000Y-80676960D01*
X128021091Y-80676960D01*
X128142376Y-80899000D01*
X129286000Y-80899000D01*
X129286000Y-79756085D01*
X129063961Y-79634096D01*
X128929913Y-79674754D01*
X128675580Y-79794963D01*
X128449586Y-79962481D01*
X128260615Y-80170869D01*
X128115930Y-80412119D01*
X128021091Y-80676960D01*
X127660000Y-80676960D01*
X127660000Y-75977081D01*
X127656726Y-75943839D01*
X127656726Y-75927363D01*
X127655763Y-75918198D01*
X127628134Y-75671882D01*
X127615695Y-75613365D01*
X127604078Y-75554692D01*
X127601353Y-75545889D01*
X127526408Y-75309631D01*
X127502868Y-75254709D01*
X127480048Y-75199342D01*
X127475664Y-75191236D01*
X127431208Y-75110371D01*
X127517424Y-75024155D01*
X127614277Y-74879205D01*
X127680990Y-74718145D01*
X127715000Y-74547165D01*
X127715000Y-74372835D01*
X127680990Y-74201855D01*
X127622232Y-74060000D01*
X127680990Y-73918145D01*
X127715000Y-73747165D01*
X127715000Y-73572835D01*
X127680990Y-73401855D01*
X127622232Y-73260000D01*
X127680990Y-73118145D01*
X127715000Y-72947165D01*
X127715000Y-72772835D01*
X127680990Y-72601855D01*
X127614277Y-72440795D01*
X127517424Y-72295845D01*
X127431020Y-72209441D01*
X127486919Y-72104309D01*
X127509707Y-72049021D01*
X127533279Y-71994025D01*
X127536003Y-71985222D01*
X127607643Y-71747941D01*
X127619264Y-71689254D01*
X127631700Y-71630748D01*
X127632663Y-71621583D01*
X127656850Y-71374905D01*
X127656850Y-71374902D01*
X127660000Y-71342919D01*
X127660000Y-60381533D01*
X127760320Y-60623727D01*
X127917363Y-60858759D01*
X128117241Y-61058637D01*
X128352273Y-61215680D01*
X128613426Y-61323853D01*
X128890665Y-61379000D01*
X129173335Y-61379000D01*
X129450574Y-61323853D01*
X129711727Y-61215680D01*
X129946759Y-61058637D01*
X130146637Y-60858759D01*
X130303680Y-60623727D01*
X130411853Y-60362574D01*
X130467000Y-60085335D01*
X130467000Y-59856038D01*
X133490539Y-56832500D01*
X137099104Y-56832500D01*
X137261241Y-56994637D01*
%TA.AperFunction,Conductor*%
D27*
G36*
X137261241Y-56994637D02*
G01*
X137493759Y-57150000D01*
X135810241Y-57150000D01*
X135807727Y-57148320D01*
X135546574Y-57040147D01*
X135269335Y-56985000D01*
X134986665Y-56985000D01*
X134709426Y-57040147D01*
X134448273Y-57148320D01*
X134213241Y-57305363D01*
X134013363Y-57505241D01*
X133856320Y-57740273D01*
X133748147Y-58001426D01*
X133693000Y-58278665D01*
X133693000Y-58561335D01*
X133748147Y-58838574D01*
X133856320Y-59099727D01*
X133858001Y-59102243D01*
X133858000Y-64671671D01*
X132368402Y-66161270D01*
X132335680Y-66082273D01*
X132178637Y-65847241D01*
X132012057Y-65680661D01*
X132108180Y-65651502D01*
X132218494Y-65592537D01*
X132315185Y-65513185D01*
X132394537Y-65416494D01*
X132453502Y-65306180D01*
X132489812Y-65186482D01*
X132502072Y-65062000D01*
X132502072Y-63462000D01*
X132489812Y-63337518D01*
X132453502Y-63217820D01*
X132394537Y-63107506D01*
X132315185Y-63010815D01*
X132218494Y-62931463D01*
X132108180Y-62872498D01*
X131988482Y-62836188D01*
X131864000Y-62823928D01*
X130264000Y-62823928D01*
X130139518Y-62836188D01*
X130019820Y-62872498D01*
X129909506Y-62931463D01*
X129812815Y-63010815D01*
X129733463Y-63107506D01*
X129674498Y-63217820D01*
X129638188Y-63337518D01*
X129625928Y-63462000D01*
X129625928Y-65062000D01*
X129638188Y-65186482D01*
X129674498Y-65306180D01*
X129733463Y-65416494D01*
X129812815Y-65513185D01*
X129909506Y-65592537D01*
X130019820Y-65651502D01*
X130115943Y-65680661D01*
X129949363Y-65847241D01*
X129792320Y-66082273D01*
X129684147Y-66343426D01*
X129629000Y-66620665D01*
X129629000Y-66849962D01*
X128772565Y-67706397D01*
X128736223Y-67736222D01*
X128706399Y-67772563D01*
X128617194Y-67881260D01*
X128528749Y-68046731D01*
X128474283Y-68226278D01*
X128455892Y-68413000D01*
X128460501Y-68459794D01*
X128460500Y-69789104D01*
X128298363Y-69951241D01*
X128141320Y-70186273D01*
X128033147Y-70447426D01*
X127978000Y-70724665D01*
X127978000Y-71007335D01*
X128033147Y-71284574D01*
X128141320Y-71545727D01*
X128298363Y-71780759D01*
X128498241Y-71980637D01*
X128733273Y-72137680D01*
X128994426Y-72245853D01*
X129271665Y-72301000D01*
X129554335Y-72301000D01*
X129831574Y-72245853D01*
X130092727Y-72137680D01*
X130327759Y-71980637D01*
X130527637Y-71780759D01*
X130684680Y-71545727D01*
X130772000Y-71334918D01*
X130772000Y-80585059D01*
X130710070Y-80412119D01*
X130565385Y-80170869D01*
X130376414Y-79962481D01*
X130150420Y-79794963D01*
X129896087Y-79674754D01*
X129762039Y-79634096D01*
X129540000Y-79756085D01*
X129540000Y-80899000D01*
X129560000Y-80899000D01*
X129560000Y-81153000D01*
X129540000Y-81153000D01*
X129540000Y-82295915D01*
X129762039Y-82417904D01*
X129896087Y-82377246D01*
X130150420Y-82257037D01*
X130376414Y-82089519D01*
X130565385Y-81881131D01*
X130710070Y-81639881D01*
X130772000Y-81466941D01*
X130771999Y-85002036D01*
X130744494Y-84979463D01*
X130634180Y-84920498D01*
X130514482Y-84884188D01*
X130390000Y-84871928D01*
X128690000Y-84871928D01*
X128565518Y-84884188D01*
X128445820Y-84920498D01*
X128335506Y-84979463D01*
X128238815Y-85058815D01*
X128159463Y-85155506D01*
X128100498Y-85265820D01*
X128064188Y-85385518D01*
X128051928Y-85510000D01*
X128051928Y-87210000D01*
X128064188Y-87334482D01*
X128100498Y-87454180D01*
X128159463Y-87564494D01*
X128238815Y-87661185D01*
X128335506Y-87740537D01*
X128445820Y-87799502D01*
X128518380Y-87821513D01*
X128386525Y-87953368D01*
X128224010Y-88196589D01*
X128112068Y-88466842D01*
X128055000Y-88753740D01*
X128055000Y-89046260D01*
X128112068Y-89333158D01*
X128224010Y-89603411D01*
X128386525Y-89846632D01*
X128593368Y-90053475D01*
X128767760Y-90170000D01*
X128593368Y-90286525D01*
X128386525Y-90493368D01*
X128224010Y-90736589D01*
X128112068Y-91006842D01*
X128055000Y-91293740D01*
X128055000Y-91577962D01*
X127732063Y-91900899D01*
X127695722Y-91930723D01*
X127653738Y-91981881D01*
X127599025Y-92048550D01*
X127526408Y-91819631D01*
X127502868Y-91764709D01*
X127480048Y-91709342D01*
X127475664Y-91701236D01*
X127431208Y-91620371D01*
X127517424Y-91534155D01*
X127614277Y-91389205D01*
X127680990Y-91228145D01*
X127715000Y-91057165D01*
X127715000Y-90882835D01*
X127680990Y-90711855D01*
X127622232Y-90570000D01*
X127680990Y-90428145D01*
X127715000Y-90257165D01*
X127715000Y-90082835D01*
X127680990Y-89911855D01*
X127622232Y-89770000D01*
X127680990Y-89628145D01*
X127715000Y-89457165D01*
X127715000Y-89282835D01*
X127680990Y-89111855D01*
X127614277Y-88950795D01*
X127517424Y-88805845D01*
X127431020Y-88719441D01*
X127486919Y-88614309D01*
X127509707Y-88559021D01*
X127533279Y-88504025D01*
X127536003Y-88495222D01*
X127607643Y-88257941D01*
X127619264Y-88199254D01*
X127631700Y-88140748D01*
X127632663Y-88131583D01*
X127656850Y-87884905D01*
X127656850Y-87884902D01*
X127660000Y-87852919D01*
X127660000Y-81375040D01*
X128021091Y-81375040D01*
X128115930Y-81639881D01*
X128260615Y-81881131D01*
X128449586Y-82089519D01*
X128675580Y-82257037D01*
X128929913Y-82377246D01*
X129063961Y-82417904D01*
X129286000Y-82295915D01*
X129286000Y-81153000D01*
X128142376Y-81153000D01*
X128021091Y-81375040D01*
X127660000Y-81375040D01*
X127660000Y-80676960D01*
X128021091Y-80676960D01*
X128142376Y-80899000D01*
X129286000Y-80899000D01*
X129286000Y-79756085D01*
X129063961Y-79634096D01*
X128929913Y-79674754D01*
X128675580Y-79794963D01*
X128449586Y-79962481D01*
X128260615Y-80170869D01*
X128115930Y-80412119D01*
X128021091Y-80676960D01*
X127660000Y-80676960D01*
X127660000Y-75977081D01*
X127656726Y-75943839D01*
X127656726Y-75927363D01*
X127655763Y-75918198D01*
X127628134Y-75671882D01*
X127615695Y-75613365D01*
X127604078Y-75554692D01*
X127601353Y-75545889D01*
X127526408Y-75309631D01*
X127502868Y-75254709D01*
X127480048Y-75199342D01*
X127475664Y-75191236D01*
X127431208Y-75110371D01*
X127517424Y-75024155D01*
X127614277Y-74879205D01*
X127680990Y-74718145D01*
X127715000Y-74547165D01*
X127715000Y-74372835D01*
X127680990Y-74201855D01*
X127622232Y-74060000D01*
X127680990Y-73918145D01*
X127715000Y-73747165D01*
X127715000Y-73572835D01*
X127680990Y-73401855D01*
X127622232Y-73260000D01*
X127680990Y-73118145D01*
X127715000Y-72947165D01*
X127715000Y-72772835D01*
X127680990Y-72601855D01*
X127614277Y-72440795D01*
X127517424Y-72295845D01*
X127431020Y-72209441D01*
X127486919Y-72104309D01*
X127509707Y-72049021D01*
X127533279Y-71994025D01*
X127536003Y-71985222D01*
X127607643Y-71747941D01*
X127619264Y-71689254D01*
X127631700Y-71630748D01*
X127632663Y-71621583D01*
X127656850Y-71374905D01*
X127656850Y-71374902D01*
X127660000Y-71342919D01*
X127660000Y-60381533D01*
X127760320Y-60623727D01*
X127917363Y-60858759D01*
X128117241Y-61058637D01*
X128352273Y-61215680D01*
X128613426Y-61323853D01*
X128890665Y-61379000D01*
X129173335Y-61379000D01*
X129450574Y-61323853D01*
X129711727Y-61215680D01*
X129946759Y-61058637D01*
X130146637Y-60858759D01*
X130303680Y-60623727D01*
X130411853Y-60362574D01*
X130467000Y-60085335D01*
X130467000Y-59856038D01*
X133490539Y-56832500D01*
X137099104Y-56832500D01*
X137261241Y-56994637D01*
G37*
%TD.AperFunction*%
D26*
X149977869Y-38774722D02*
X150091246Y-38808953D01*
X150195819Y-38864555D01*
X150287596Y-38939407D01*
X150363091Y-39030664D01*
X150419419Y-39134844D01*
X150454440Y-39247976D01*
X150470000Y-39396022D01*
X150470000Y-55442468D01*
X150369680Y-55200273D01*
X150212637Y-54965241D01*
X150012759Y-54765363D01*
X149777727Y-54608320D01*
X149516574Y-54500147D01*
X149239335Y-54445000D01*
X148956665Y-54445000D01*
X148679426Y-54500147D01*
X148418273Y-54608320D01*
X148183241Y-54765363D01*
X148061398Y-54887206D01*
X148051753Y-54855410D01*
X147963307Y-54689938D01*
X147844279Y-54544901D01*
X147807932Y-54515072D01*
X147139412Y-53846552D01*
X147175853Y-53758574D01*
X147231000Y-53481335D01*
X147231000Y-53198665D01*
X147175853Y-52921426D01*
X147067680Y-52660273D01*
X146910637Y-52425241D01*
X146710759Y-52225363D01*
X146478241Y-52070000D01*
X146710759Y-51914637D01*
X146910637Y-51714759D01*
X147067680Y-51479727D01*
X147175853Y-51218574D01*
X147231000Y-50941335D01*
X147231000Y-50658665D01*
X147175853Y-50381426D01*
X147067680Y-50120273D01*
X147066000Y-50117759D01*
X147066000Y-49040050D01*
X147735608Y-48370443D01*
X147738574Y-48369853D01*
X147999727Y-48261680D01*
X148234759Y-48104637D01*
X148434637Y-47904759D01*
X148591680Y-47669727D01*
X148699853Y-47408574D01*
X148755000Y-47131335D01*
X148755000Y-46848665D01*
X148699853Y-46571426D01*
X148591680Y-46310273D01*
X148434637Y-46075241D01*
X148234759Y-45875363D01*
X147999727Y-45718320D01*
X147738574Y-45610147D01*
X147461335Y-45555000D01*
X147178665Y-45555000D01*
X146901426Y-45610147D01*
X146640273Y-45718320D01*
X146405241Y-45875363D01*
X146205363Y-46075241D01*
X146048320Y-46310273D01*
X145940147Y-46571426D01*
X145939557Y-46574392D01*
X144942086Y-47571864D01*
X144893631Y-47611630D01*
X144734926Y-47805012D01*
X144639949Y-47982702D01*
X144616998Y-48025641D01*
X144544377Y-48265037D01*
X144519857Y-48514000D01*
X144526001Y-48576382D01*
X144526000Y-50117758D01*
X144524320Y-50120273D01*
X144416147Y-50381426D01*
X144415557Y-50384392D01*
X143700500Y-51099450D01*
X143700500Y-48986360D01*
X144331937Y-48354924D01*
X144368279Y-48325099D01*
X144487307Y-48180062D01*
X144575753Y-48014590D01*
X144630218Y-47835044D01*
X144644001Y-47695106D01*
X144644001Y-47695105D01*
X144648609Y-47648321D01*
X144644001Y-47601536D01*
X144644001Y-44932285D01*
X144648609Y-44885500D01*
X144630218Y-44698778D01*
X144626295Y-44685845D01*
X144575753Y-44519232D01*
X144487307Y-44353760D01*
X144368279Y-44208723D01*
X144331932Y-44178894D01*
X143894072Y-43741034D01*
X143894072Y-42672000D01*
X143876931Y-42497965D01*
X143826167Y-42330619D01*
X143743731Y-42176391D01*
X143632790Y-42041210D01*
X143497609Y-41930269D01*
X143343381Y-41847833D01*
X143176035Y-41797069D01*
X143107188Y-41790288D01*
X143122886Y-41779799D01*
X143315799Y-41586886D01*
X143416703Y-41435872D01*
X145339000Y-41435872D01*
X145339000Y-41876128D01*
X145424890Y-42307925D01*
X145593369Y-42714669D01*
X145837962Y-43080729D01*
X146149271Y-43392038D01*
X146515331Y-43636631D01*
X146922075Y-43805110D01*
X147353872Y-43891000D01*
X147794128Y-43891000D01*
X148225925Y-43805110D01*
X148632669Y-43636631D01*
X148998729Y-43392038D01*
X149310038Y-43080729D01*
X149554631Y-42714669D01*
X149723110Y-42307925D01*
X149809000Y-41876128D01*
X149809000Y-41435872D01*
X149723110Y-41004075D01*
X149554631Y-40597331D01*
X149310038Y-40231271D01*
X148998729Y-39919962D01*
X148632669Y-39675369D01*
X148225925Y-39506890D01*
X147794128Y-39421000D01*
X147353872Y-39421000D01*
X146922075Y-39506890D01*
X146515331Y-39675369D01*
X146149271Y-39919962D01*
X145837962Y-40231271D01*
X145593369Y-40597331D01*
X145424890Y-41004075D01*
X145339000Y-41435872D01*
X143416703Y-41435872D01*
X143467371Y-41360043D01*
X143571775Y-41107989D01*
X143625000Y-40840411D01*
X143625000Y-40567589D01*
X143571775Y-40300011D01*
X143467371Y-40047957D01*
X143315799Y-39821114D01*
X143122886Y-39628201D01*
X142896043Y-39476629D01*
X142643989Y-39372225D01*
X142376411Y-39319000D01*
X142103589Y-39319000D01*
X141836011Y-39372225D01*
X141583957Y-39476629D01*
X141357114Y-39628201D01*
X141164201Y-39821114D01*
X141012629Y-40047957D01*
X140908225Y-40300011D01*
X140855000Y-40567589D01*
X140855000Y-40840411D01*
X140908225Y-41107989D01*
X141012629Y-41360043D01*
X141164201Y-41586886D01*
X141357114Y-41779799D01*
X141372812Y-41790288D01*
X141303965Y-41797069D01*
X141136619Y-41847833D01*
X140982391Y-41930269D01*
X140847210Y-42041210D01*
X140736269Y-42176391D01*
X140653833Y-42330619D01*
X140603069Y-42497965D01*
X140585928Y-42672000D01*
X140585928Y-43255947D01*
X140525553Y-42952421D01*
X140401097Y-42651958D01*
X140220415Y-42381549D01*
X139990451Y-42151585D01*
X139720042Y-41970903D01*
X139605738Y-41923557D01*
X139820886Y-41779799D01*
X140013799Y-41586886D01*
X140165371Y-41360043D01*
X140269775Y-41107989D01*
X140323000Y-40840411D01*
X140323000Y-40567589D01*
X140269775Y-40300011D01*
X140165371Y-40047957D01*
X140013799Y-39821114D01*
X139820886Y-39628201D01*
X139594043Y-39476629D01*
X139341989Y-39372225D01*
X139074411Y-39319000D01*
X138801589Y-39319000D01*
X138534011Y-39372225D01*
X138281957Y-39476629D01*
X138055114Y-39628201D01*
X137862201Y-39821114D01*
X137710629Y-40047957D01*
X137606225Y-40300011D01*
X137553000Y-40567589D01*
X137553000Y-40840411D01*
X137606225Y-41107989D01*
X137710629Y-41360043D01*
X137862201Y-41586886D01*
X138055114Y-41779799D01*
X138270262Y-41923557D01*
X138155958Y-41970903D01*
X137885549Y-42151585D01*
X137655585Y-42381549D01*
X137474903Y-42651958D01*
X137350447Y-42952421D01*
X137287000Y-43271391D01*
X137287000Y-43596609D01*
X137350447Y-43915579D01*
X137474903Y-44216042D01*
X137655585Y-44486451D01*
X137885549Y-44716415D01*
X138155958Y-44897097D01*
X138456421Y-45021553D01*
X138775391Y-45085000D01*
X139100609Y-45085000D01*
X139419579Y-45021553D01*
X139720042Y-44897097D01*
X139990451Y-44716415D01*
X140220415Y-44486451D01*
X140401097Y-44216042D01*
X140525553Y-43915579D01*
X140585928Y-43612053D01*
X140585928Y-44196000D01*
X140603069Y-44370035D01*
X140653833Y-44537381D01*
X140736269Y-44691609D01*
X140847210Y-44826790D01*
X140982391Y-44937731D01*
X141136619Y-45020167D01*
X141303965Y-45070931D01*
X141478000Y-45088072D01*
X142547034Y-45088072D01*
X142739002Y-45280040D01*
X142739002Y-45615634D01*
X142531816Y-45563700D01*
X142249488Y-45549783D01*
X141969870Y-45591213D01*
X141703708Y-45686397D01*
X141578486Y-45753329D01*
X141506903Y-45997298D01*
X142320000Y-46810395D01*
X142334143Y-46796253D01*
X142513748Y-46975858D01*
X142499605Y-46990000D01*
X142513748Y-47004143D01*
X142334143Y-47183748D01*
X142320000Y-47169605D01*
X141506903Y-47982702D01*
X141578486Y-48226671D01*
X141827646Y-48344566D01*
X141809283Y-48405100D01*
X141790892Y-48591822D01*
X141795501Y-48638617D01*
X141795500Y-55485462D01*
X140583565Y-56697397D01*
X140547223Y-56727222D01*
X140491797Y-56794759D01*
X140428194Y-56872260D01*
X140339749Y-57037731D01*
X140285283Y-57217278D01*
X140266892Y-57404000D01*
X140271501Y-57450795D01*
X140271500Y-61828687D01*
X140179820Y-61856498D01*
X140069506Y-61915463D01*
X139972815Y-61994815D01*
X139893463Y-62091506D01*
X139834498Y-62201820D01*
X139805339Y-62297943D01*
X139638759Y-62131363D01*
X139403727Y-61974320D01*
X139142574Y-61866147D01*
X138865335Y-61811000D01*
X138582665Y-61811000D01*
X138305426Y-61866147D01*
X138044273Y-61974320D01*
X137809241Y-62131363D01*
X137609363Y-62331241D01*
X137452320Y-62566273D01*
X137344147Y-62827426D01*
X137289000Y-63104665D01*
X137289000Y-63387335D01*
X137344147Y-63664574D01*
X137452320Y-63925727D01*
X137609363Y-64160759D01*
X137771500Y-64322896D01*
X137771501Y-67303206D01*
X137766892Y-67350000D01*
X137785283Y-67536722D01*
X137839749Y-67716269D01*
X137881971Y-67795263D01*
X137851000Y-67950967D01*
X137851000Y-68273033D01*
X137913832Y-68588912D01*
X138037082Y-68886463D01*
X138216013Y-69154252D01*
X138443748Y-69381987D01*
X138711537Y-69560918D01*
X139009088Y-69684168D01*
X139324967Y-69747000D01*
X139647033Y-69747000D01*
X139752903Y-69725941D01*
X140372059Y-70345097D01*
X140351000Y-70450967D01*
X140351000Y-70773033D01*
X140413832Y-71088912D01*
X140537082Y-71386463D01*
X140716013Y-71654252D01*
X140943748Y-71881987D01*
X141211537Y-72060918D01*
X141509088Y-72184168D01*
X141824967Y-72247000D01*
X142147033Y-72247000D01*
X142462912Y-72184168D01*
X142760463Y-72060918D01*
X142837000Y-72009778D01*
X142837000Y-73171949D01*
X140348173Y-75660777D01*
X140280759Y-75593363D01*
X140045727Y-75436320D01*
X139784574Y-75328147D01*
X139507335Y-75273000D01*
X139224665Y-75273000D01*
X138947426Y-75328147D01*
X138686273Y-75436320D01*
X138451241Y-75593363D01*
X138251363Y-75793241D01*
X138094320Y-76028273D01*
X137986147Y-76289426D01*
X137931000Y-76566665D01*
X137931000Y-76795962D01*
X135415462Y-79311500D01*
X135061896Y-79311500D01*
X134899759Y-79149363D01*
X134664727Y-78992320D01*
X134403574Y-78884147D01*
X134126335Y-78829000D01*
X133843665Y-78829000D01*
X133566426Y-78884147D01*
X133311999Y-78989534D01*
X133311999Y-77683395D01*
X133451241Y-77822637D01*
X133686273Y-77979680D01*
X133947426Y-78087853D01*
X134224665Y-78143000D01*
X134507335Y-78143000D01*
X134784574Y-78087853D01*
X135045727Y-77979680D01*
X135280759Y-77822637D01*
X135480637Y-77622759D01*
X135637680Y-77387727D01*
X135745853Y-77126574D01*
X135801000Y-76849335D01*
X135801000Y-76566665D01*
X135745853Y-76289426D01*
X135637680Y-76028273D01*
X135480637Y-75793241D01*
X135280759Y-75593363D01*
X135045727Y-75436320D01*
X134784574Y-75328147D01*
X134507335Y-75273000D01*
X134224665Y-75273000D01*
X133947426Y-75328147D01*
X133686273Y-75436320D01*
X133451241Y-75593363D01*
X133311999Y-75732605D01*
X133311999Y-74247413D01*
X138530192Y-74247413D01*
X138625956Y-74511814D01*
X138915571Y-74652704D01*
X139227108Y-74734384D01*
X139548595Y-74753718D01*
X139867675Y-74709961D01*
X140172088Y-74604795D01*
X140346044Y-74511814D01*
X140441808Y-74247413D01*
X139486000Y-73291605D01*
X138530192Y-74247413D01*
X133311999Y-74247413D01*
X133311999Y-73174595D01*
X137844282Y-73174595D01*
X137888039Y-73493675D01*
X137993205Y-73798088D01*
X138086186Y-73972044D01*
X138350587Y-74067808D01*
X139306395Y-73112000D01*
X139665605Y-73112000D01*
X140621413Y-74067808D01*
X140885814Y-73972044D01*
X141026704Y-73682429D01*
X141108384Y-73370892D01*
X141127718Y-73049405D01*
X141083961Y-72730325D01*
X140978795Y-72425912D01*
X140885814Y-72251956D01*
X140621413Y-72156192D01*
X139665605Y-73112000D01*
X139306395Y-73112000D01*
X138350587Y-72156192D01*
X138086186Y-72251956D01*
X137945296Y-72541571D01*
X137863616Y-72853108D01*
X137844282Y-73174595D01*
X133311999Y-73174595D01*
X133311999Y-71976587D01*
X138530192Y-71976587D01*
X139486000Y-72932395D01*
X140441808Y-71976587D01*
X140346044Y-71712186D01*
X140056429Y-71571296D01*
X139744892Y-71489616D01*
X139423405Y-71470282D01*
X139104325Y-71514039D01*
X138799912Y-71619205D01*
X138625956Y-71712186D01*
X138530192Y-71976587D01*
X133311999Y-71976587D01*
X133311999Y-68809773D01*
X135981915Y-66139858D01*
X136030370Y-66100092D01*
X136189075Y-65906710D01*
X136307003Y-65686081D01*
X136359450Y-65513185D01*
X136379623Y-65446686D01*
X136391411Y-65327000D01*
X136398000Y-65260102D01*
X136398000Y-65260096D01*
X136404143Y-65197723D01*
X136398000Y-65135350D01*
X136398000Y-59690000D01*
X137493759Y-59690000D01*
X137496273Y-59691680D01*
X137757426Y-59799853D01*
X138034665Y-59855000D01*
X138317335Y-59855000D01*
X138594574Y-59799853D01*
X138855727Y-59691680D01*
X139090759Y-59534637D01*
X139290637Y-59334759D01*
X139447680Y-59099727D01*
X139555853Y-58838574D01*
X139611000Y-58561335D01*
X139611000Y-58278665D01*
X139555853Y-58001426D01*
X139447680Y-57740273D01*
X139290637Y-57505241D01*
X139090759Y-57305363D01*
X138858241Y-57150000D01*
X139090759Y-56994637D01*
X139290637Y-56794759D01*
X139447680Y-56559727D01*
X139555853Y-56298574D01*
X139611000Y-56021335D01*
X139611000Y-55738665D01*
X139555853Y-55461426D01*
X139447680Y-55200273D01*
X139290637Y-54965241D01*
X139090759Y-54765363D01*
X138858241Y-54610000D01*
X139090759Y-54454637D01*
X139290637Y-54254759D01*
X139447680Y-54019727D01*
X139555853Y-53758574D01*
X139611000Y-53481335D01*
X139611000Y-53198665D01*
X139555853Y-52921426D01*
X139447680Y-52660273D01*
X139290637Y-52425241D01*
X139090759Y-52225363D01*
X138858241Y-52070000D01*
X139090759Y-51914637D01*
X139290637Y-51714759D01*
X139447680Y-51479727D01*
X139555853Y-51218574D01*
X139611000Y-50941335D01*
X139611000Y-50658665D01*
X139555853Y-50381426D01*
X139447680Y-50120273D01*
X139290637Y-49885241D01*
X139128500Y-49723104D01*
X139128500Y-48908538D01*
X139612038Y-48425000D01*
X139841335Y-48425000D01*
X140118574Y-48369853D01*
X140379727Y-48261680D01*
X140614759Y-48104637D01*
X140814637Y-47904759D01*
X140971680Y-47669727D01*
X141007852Y-47582399D01*
X141016397Y-47606292D01*
X141083329Y-47731514D01*
X141327298Y-47803097D01*
X142140395Y-46990000D01*
X141327298Y-46176903D01*
X141083329Y-46248486D01*
X141010149Y-46403145D01*
X140971680Y-46310273D01*
X140814637Y-46075241D01*
X140614759Y-45875363D01*
X140379727Y-45718320D01*
X140118574Y-45610147D01*
X139841335Y-45555000D01*
X139558665Y-45555000D01*
X139281426Y-45610147D01*
X139020273Y-45718320D01*
X138785241Y-45875363D01*
X138623104Y-46037500D01*
X137046538Y-46037500D01*
X134496072Y-43487034D01*
X134496072Y-42418000D01*
X134478931Y-42243965D01*
X134428167Y-42076619D01*
X134345731Y-41922391D01*
X134234790Y-41787210D01*
X134099609Y-41676269D01*
X133945381Y-41593833D01*
X133778035Y-41543069D01*
X133709188Y-41536288D01*
X133724886Y-41525799D01*
X133917799Y-41332886D01*
X134069371Y-41106043D01*
X134173775Y-40853989D01*
X134227000Y-40586411D01*
X134227000Y-40313589D01*
X134173775Y-40046011D01*
X134069371Y-39793957D01*
X133917799Y-39567114D01*
X133724886Y-39374201D01*
X133498043Y-39222629D01*
X133245989Y-39118225D01*
X132978411Y-39065000D01*
X132705589Y-39065000D01*
X132438011Y-39118225D01*
X132185957Y-39222629D01*
X131959114Y-39374201D01*
X131766201Y-39567114D01*
X131614629Y-39793957D01*
X131510225Y-40046011D01*
X131457000Y-40313589D01*
X131457000Y-40586411D01*
X131510225Y-40853989D01*
X131614629Y-41106043D01*
X131766201Y-41332886D01*
X131959114Y-41525799D01*
X131974812Y-41536288D01*
X131905965Y-41543069D01*
X131738619Y-41593833D01*
X131584391Y-41676269D01*
X131449210Y-41787210D01*
X131338269Y-41922391D01*
X131255833Y-42076619D01*
X131205069Y-42243965D01*
X131187928Y-42418000D01*
X131187928Y-43045419D01*
X131153888Y-42795802D01*
X131047924Y-42488330D01*
X130952860Y-42310478D01*
X130686823Y-42212782D01*
X129719605Y-43180000D01*
X130686823Y-44147218D01*
X130952860Y-44049522D01*
X131095348Y-43757179D01*
X131178064Y-43442656D01*
X131187928Y-43280667D01*
X131187928Y-43942000D01*
X131205069Y-44116035D01*
X131255833Y-44283381D01*
X131338269Y-44437609D01*
X131449210Y-44572790D01*
X131584391Y-44683731D01*
X131738619Y-44766167D01*
X131905965Y-44816931D01*
X132080000Y-44834072D01*
X133149034Y-44834072D01*
X135945393Y-47630431D01*
X135975222Y-47666778D01*
X136120259Y-47785806D01*
X136202995Y-47830029D01*
X136285730Y-47874252D01*
X136375504Y-47901485D01*
X136465277Y-47928717D01*
X136605215Y-47942500D01*
X136652000Y-47947108D01*
X136698785Y-47942500D01*
X137412824Y-47942500D01*
X137380194Y-47982260D01*
X137291749Y-48147731D01*
X137237283Y-48327278D01*
X137218892Y-48514000D01*
X137223501Y-48560794D01*
X137223500Y-49723104D01*
X137061363Y-49885241D01*
X136904320Y-50120273D01*
X136796147Y-50381426D01*
X136757708Y-50574670D01*
X135580607Y-49397569D01*
X135550778Y-49361222D01*
X135405741Y-49242194D01*
X135240269Y-49153748D01*
X135060723Y-49099283D01*
X134920785Y-49085500D01*
X134874000Y-49080892D01*
X134827215Y-49085500D01*
X133156896Y-49085500D01*
X132994759Y-48923363D01*
X132759727Y-48766320D01*
X132498574Y-48658147D01*
X132221335Y-48603000D01*
X131938665Y-48603000D01*
X131661426Y-48658147D01*
X131400273Y-48766320D01*
X131165241Y-48923363D01*
X131003104Y-49085500D01*
X130291136Y-49085500D01*
X130146637Y-48869241D01*
X129946759Y-48669363D01*
X129711727Y-48512320D01*
X129450574Y-48404147D01*
X129230420Y-48360355D01*
X129413000Y-48260624D01*
X129413000Y-47117000D01*
X129667000Y-47117000D01*
X129667000Y-48260624D01*
X129889040Y-48381909D01*
X130153881Y-48287070D01*
X130395131Y-48142385D01*
X130603519Y-47953414D01*
X130771037Y-47727420D01*
X130891246Y-47473087D01*
X130931904Y-47339039D01*
X130809915Y-47117000D01*
X129667000Y-47117000D01*
X129413000Y-47117000D01*
X128270085Y-47117000D01*
X128148096Y-47339039D01*
X128188754Y-47473087D01*
X128308963Y-47727420D01*
X128476481Y-47953414D01*
X128684869Y-48142385D01*
X128926119Y-48287070D01*
X129099061Y-48349000D01*
X128890665Y-48349000D01*
X128613426Y-48404147D01*
X128352273Y-48512320D01*
X128117241Y-48669363D01*
X127917363Y-48869241D01*
X127760320Y-49104273D01*
X127660000Y-49346467D01*
X127660000Y-46767081D01*
X127656726Y-46733839D01*
X127656726Y-46717363D01*
X127655763Y-46708198D01*
X127648222Y-46640961D01*
X128148096Y-46640961D01*
X128270085Y-46863000D01*
X129413000Y-46863000D01*
X129413000Y-45719376D01*
X129667000Y-45719376D01*
X129667000Y-46863000D01*
X130809915Y-46863000D01*
X130931904Y-46640961D01*
X130891246Y-46506913D01*
X130771037Y-46252580D01*
X130603519Y-46026586D01*
X130395131Y-45837615D01*
X130153881Y-45692930D01*
X129889040Y-45598091D01*
X129667000Y-45719376D01*
X129413000Y-45719376D01*
X129190960Y-45598091D01*
X128926119Y-45692930D01*
X128684869Y-45837615D01*
X128476481Y-46026586D01*
X128308963Y-46252580D01*
X128188754Y-46506913D01*
X128148096Y-46640961D01*
X127648222Y-46640961D01*
X127628134Y-46461882D01*
X127615695Y-46403365D01*
X127604078Y-46344692D01*
X127601353Y-46335889D01*
X127526408Y-46099631D01*
X127502868Y-46044709D01*
X127480048Y-45989342D01*
X127475664Y-45981236D01*
X127431208Y-45900371D01*
X127517424Y-45814155D01*
X127614277Y-45669205D01*
X127680990Y-45508145D01*
X127715000Y-45337165D01*
X127715000Y-45162835D01*
X127680990Y-44991855D01*
X127622232Y-44850000D01*
X127680990Y-44708145D01*
X127715000Y-44537165D01*
X127715000Y-44362835D01*
X127707837Y-44326823D01*
X128572782Y-44326823D01*
X128670478Y-44592860D01*
X128962821Y-44735348D01*
X129277344Y-44818064D01*
X129601962Y-44837831D01*
X129924198Y-44793888D01*
X130231670Y-44687924D01*
X130409522Y-44592860D01*
X130507218Y-44326823D01*
X129540000Y-43359605D01*
X128572782Y-44326823D01*
X127707837Y-44326823D01*
X127680990Y-44191855D01*
X127622232Y-44050000D01*
X127680990Y-43908145D01*
X127715000Y-43737165D01*
X127715000Y-43562835D01*
X127680990Y-43391855D01*
X127618903Y-43241962D01*
X127882169Y-43241962D01*
X127926112Y-43564198D01*
X128032076Y-43871670D01*
X128127140Y-44049522D01*
X128393177Y-44147218D01*
X129360395Y-43180000D01*
X128393177Y-42212782D01*
X128127140Y-42310478D01*
X127984652Y-42602821D01*
X127901936Y-42917344D01*
X127882169Y-43241962D01*
X127618903Y-43241962D01*
X127614277Y-43230795D01*
X127517424Y-43085845D01*
X127431020Y-42999441D01*
X127486919Y-42894309D01*
X127509707Y-42839021D01*
X127533279Y-42784025D01*
X127536003Y-42775222D01*
X127607643Y-42537941D01*
X127619264Y-42479254D01*
X127631700Y-42420748D01*
X127632663Y-42411583D01*
X127656850Y-42164905D01*
X127656850Y-42164902D01*
X127660000Y-42132919D01*
X127660000Y-40313589D01*
X128155000Y-40313589D01*
X128155000Y-40586411D01*
X128208225Y-40853989D01*
X128312629Y-41106043D01*
X128464201Y-41332886D01*
X128657114Y-41525799D01*
X128866606Y-41665777D01*
X128848330Y-41672076D01*
X128670478Y-41767140D01*
X128572782Y-42033177D01*
X129540000Y-43000395D01*
X130507218Y-42033177D01*
X130409522Y-41767140D01*
X130208401Y-41669114D01*
X130422886Y-41525799D01*
X130615799Y-41332886D01*
X130767371Y-41106043D01*
X130871775Y-40853989D01*
X130925000Y-40586411D01*
X130925000Y-40313589D01*
X130871775Y-40046011D01*
X130767371Y-39793957D01*
X130615799Y-39567114D01*
X130422886Y-39374201D01*
X130196043Y-39222629D01*
X129943989Y-39118225D01*
X129676411Y-39065000D01*
X129403589Y-39065000D01*
X129136011Y-39118225D01*
X128883957Y-39222629D01*
X128657114Y-39374201D01*
X128464201Y-39567114D01*
X128312629Y-39793957D01*
X128208225Y-40046011D01*
X128155000Y-40313589D01*
X127660000Y-40313589D01*
X127660000Y-39402279D01*
X127674722Y-39252131D01*
X127708953Y-39138754D01*
X127764555Y-39034181D01*
X127839407Y-38942404D01*
X127930664Y-38866909D01*
X128034844Y-38810581D01*
X128147976Y-38775560D01*
X128296022Y-38760000D01*
X149827721Y-38760000D01*
X149977869Y-38774722D01*
%TA.AperFunction,Conductor*%
D27*
G36*
X149977869Y-38774722D02*
G01*
X150091246Y-38808953D01*
X150195819Y-38864555D01*
X150287596Y-38939407D01*
X150363091Y-39030664D01*
X150419419Y-39134844D01*
X150454440Y-39247976D01*
X150470000Y-39396022D01*
X150470000Y-55442468D01*
X150369680Y-55200273D01*
X150212637Y-54965241D01*
X150012759Y-54765363D01*
X149777727Y-54608320D01*
X149516574Y-54500147D01*
X149239335Y-54445000D01*
X148956665Y-54445000D01*
X148679426Y-54500147D01*
X148418273Y-54608320D01*
X148183241Y-54765363D01*
X148061398Y-54887206D01*
X148051753Y-54855410D01*
X147963307Y-54689938D01*
X147844279Y-54544901D01*
X147807932Y-54515072D01*
X147139412Y-53846552D01*
X147175853Y-53758574D01*
X147231000Y-53481335D01*
X147231000Y-53198665D01*
X147175853Y-52921426D01*
X147067680Y-52660273D01*
X146910637Y-52425241D01*
X146710759Y-52225363D01*
X146478241Y-52070000D01*
X146710759Y-51914637D01*
X146910637Y-51714759D01*
X147067680Y-51479727D01*
X147175853Y-51218574D01*
X147231000Y-50941335D01*
X147231000Y-50658665D01*
X147175853Y-50381426D01*
X147067680Y-50120273D01*
X147066000Y-50117759D01*
X147066000Y-49040050D01*
X147735608Y-48370443D01*
X147738574Y-48369853D01*
X147999727Y-48261680D01*
X148234759Y-48104637D01*
X148434637Y-47904759D01*
X148591680Y-47669727D01*
X148699853Y-47408574D01*
X148755000Y-47131335D01*
X148755000Y-46848665D01*
X148699853Y-46571426D01*
X148591680Y-46310273D01*
X148434637Y-46075241D01*
X148234759Y-45875363D01*
X147999727Y-45718320D01*
X147738574Y-45610147D01*
X147461335Y-45555000D01*
X147178665Y-45555000D01*
X146901426Y-45610147D01*
X146640273Y-45718320D01*
X146405241Y-45875363D01*
X146205363Y-46075241D01*
X146048320Y-46310273D01*
X145940147Y-46571426D01*
X145939557Y-46574392D01*
X144942086Y-47571864D01*
X144893631Y-47611630D01*
X144734926Y-47805012D01*
X144639949Y-47982702D01*
X144616998Y-48025641D01*
X144544377Y-48265037D01*
X144519857Y-48514000D01*
X144526001Y-48576382D01*
X144526000Y-50117758D01*
X144524320Y-50120273D01*
X144416147Y-50381426D01*
X144415557Y-50384392D01*
X143700500Y-51099450D01*
X143700500Y-48986360D01*
X144331937Y-48354924D01*
X144368279Y-48325099D01*
X144487307Y-48180062D01*
X144575753Y-48014590D01*
X144630218Y-47835044D01*
X144644001Y-47695106D01*
X144644001Y-47695105D01*
X144648609Y-47648321D01*
X144644001Y-47601536D01*
X144644001Y-44932285D01*
X144648609Y-44885500D01*
X144630218Y-44698778D01*
X144626295Y-44685845D01*
X144575753Y-44519232D01*
X144487307Y-44353760D01*
X144368279Y-44208723D01*
X144331932Y-44178894D01*
X143894072Y-43741034D01*
X143894072Y-42672000D01*
X143876931Y-42497965D01*
X143826167Y-42330619D01*
X143743731Y-42176391D01*
X143632790Y-42041210D01*
X143497609Y-41930269D01*
X143343381Y-41847833D01*
X143176035Y-41797069D01*
X143107188Y-41790288D01*
X143122886Y-41779799D01*
X143315799Y-41586886D01*
X143416703Y-41435872D01*
X145339000Y-41435872D01*
X145339000Y-41876128D01*
X145424890Y-42307925D01*
X145593369Y-42714669D01*
X145837962Y-43080729D01*
X146149271Y-43392038D01*
X146515331Y-43636631D01*
X146922075Y-43805110D01*
X147353872Y-43891000D01*
X147794128Y-43891000D01*
X148225925Y-43805110D01*
X148632669Y-43636631D01*
X148998729Y-43392038D01*
X149310038Y-43080729D01*
X149554631Y-42714669D01*
X149723110Y-42307925D01*
X149809000Y-41876128D01*
X149809000Y-41435872D01*
X149723110Y-41004075D01*
X149554631Y-40597331D01*
X149310038Y-40231271D01*
X148998729Y-39919962D01*
X148632669Y-39675369D01*
X148225925Y-39506890D01*
X147794128Y-39421000D01*
X147353872Y-39421000D01*
X146922075Y-39506890D01*
X146515331Y-39675369D01*
X146149271Y-39919962D01*
X145837962Y-40231271D01*
X145593369Y-40597331D01*
X145424890Y-41004075D01*
X145339000Y-41435872D01*
X143416703Y-41435872D01*
X143467371Y-41360043D01*
X143571775Y-41107989D01*
X143625000Y-40840411D01*
X143625000Y-40567589D01*
X143571775Y-40300011D01*
X143467371Y-40047957D01*
X143315799Y-39821114D01*
X143122886Y-39628201D01*
X142896043Y-39476629D01*
X142643989Y-39372225D01*
X142376411Y-39319000D01*
X142103589Y-39319000D01*
X141836011Y-39372225D01*
X141583957Y-39476629D01*
X141357114Y-39628201D01*
X141164201Y-39821114D01*
X141012629Y-40047957D01*
X140908225Y-40300011D01*
X140855000Y-40567589D01*
X140855000Y-40840411D01*
X140908225Y-41107989D01*
X141012629Y-41360043D01*
X141164201Y-41586886D01*
X141357114Y-41779799D01*
X141372812Y-41790288D01*
X141303965Y-41797069D01*
X141136619Y-41847833D01*
X140982391Y-41930269D01*
X140847210Y-42041210D01*
X140736269Y-42176391D01*
X140653833Y-42330619D01*
X140603069Y-42497965D01*
X140585928Y-42672000D01*
X140585928Y-43255947D01*
X140525553Y-42952421D01*
X140401097Y-42651958D01*
X140220415Y-42381549D01*
X139990451Y-42151585D01*
X139720042Y-41970903D01*
X139605738Y-41923557D01*
X139820886Y-41779799D01*
X140013799Y-41586886D01*
X140165371Y-41360043D01*
X140269775Y-41107989D01*
X140323000Y-40840411D01*
X140323000Y-40567589D01*
X140269775Y-40300011D01*
X140165371Y-40047957D01*
X140013799Y-39821114D01*
X139820886Y-39628201D01*
X139594043Y-39476629D01*
X139341989Y-39372225D01*
X139074411Y-39319000D01*
X138801589Y-39319000D01*
X138534011Y-39372225D01*
X138281957Y-39476629D01*
X138055114Y-39628201D01*
X137862201Y-39821114D01*
X137710629Y-40047957D01*
X137606225Y-40300011D01*
X137553000Y-40567589D01*
X137553000Y-40840411D01*
X137606225Y-41107989D01*
X137710629Y-41360043D01*
X137862201Y-41586886D01*
X138055114Y-41779799D01*
X138270262Y-41923557D01*
X138155958Y-41970903D01*
X137885549Y-42151585D01*
X137655585Y-42381549D01*
X137474903Y-42651958D01*
X137350447Y-42952421D01*
X137287000Y-43271391D01*
X137287000Y-43596609D01*
X137350447Y-43915579D01*
X137474903Y-44216042D01*
X137655585Y-44486451D01*
X137885549Y-44716415D01*
X138155958Y-44897097D01*
X138456421Y-45021553D01*
X138775391Y-45085000D01*
X139100609Y-45085000D01*
X139419579Y-45021553D01*
X139720042Y-44897097D01*
X139990451Y-44716415D01*
X140220415Y-44486451D01*
X140401097Y-44216042D01*
X140525553Y-43915579D01*
X140585928Y-43612053D01*
X140585928Y-44196000D01*
X140603069Y-44370035D01*
X140653833Y-44537381D01*
X140736269Y-44691609D01*
X140847210Y-44826790D01*
X140982391Y-44937731D01*
X141136619Y-45020167D01*
X141303965Y-45070931D01*
X141478000Y-45088072D01*
X142547034Y-45088072D01*
X142739002Y-45280040D01*
X142739002Y-45615634D01*
X142531816Y-45563700D01*
X142249488Y-45549783D01*
X141969870Y-45591213D01*
X141703708Y-45686397D01*
X141578486Y-45753329D01*
X141506903Y-45997298D01*
X142320000Y-46810395D01*
X142334143Y-46796253D01*
X142513748Y-46975858D01*
X142499605Y-46990000D01*
X142513748Y-47004143D01*
X142334143Y-47183748D01*
X142320000Y-47169605D01*
X141506903Y-47982702D01*
X141578486Y-48226671D01*
X141827646Y-48344566D01*
X141809283Y-48405100D01*
X141790892Y-48591822D01*
X141795501Y-48638617D01*
X141795500Y-55485462D01*
X140583565Y-56697397D01*
X140547223Y-56727222D01*
X140491797Y-56794759D01*
X140428194Y-56872260D01*
X140339749Y-57037731D01*
X140285283Y-57217278D01*
X140266892Y-57404000D01*
X140271501Y-57450795D01*
X140271500Y-61828687D01*
X140179820Y-61856498D01*
X140069506Y-61915463D01*
X139972815Y-61994815D01*
X139893463Y-62091506D01*
X139834498Y-62201820D01*
X139805339Y-62297943D01*
X139638759Y-62131363D01*
X139403727Y-61974320D01*
X139142574Y-61866147D01*
X138865335Y-61811000D01*
X138582665Y-61811000D01*
X138305426Y-61866147D01*
X138044273Y-61974320D01*
X137809241Y-62131363D01*
X137609363Y-62331241D01*
X137452320Y-62566273D01*
X137344147Y-62827426D01*
X137289000Y-63104665D01*
X137289000Y-63387335D01*
X137344147Y-63664574D01*
X137452320Y-63925727D01*
X137609363Y-64160759D01*
X137771500Y-64322896D01*
X137771501Y-67303206D01*
X137766892Y-67350000D01*
X137785283Y-67536722D01*
X137839749Y-67716269D01*
X137881971Y-67795263D01*
X137851000Y-67950967D01*
X137851000Y-68273033D01*
X137913832Y-68588912D01*
X138037082Y-68886463D01*
X138216013Y-69154252D01*
X138443748Y-69381987D01*
X138711537Y-69560918D01*
X139009088Y-69684168D01*
X139324967Y-69747000D01*
X139647033Y-69747000D01*
X139752903Y-69725941D01*
X140372059Y-70345097D01*
X140351000Y-70450967D01*
X140351000Y-70773033D01*
X140413832Y-71088912D01*
X140537082Y-71386463D01*
X140716013Y-71654252D01*
X140943748Y-71881987D01*
X141211537Y-72060918D01*
X141509088Y-72184168D01*
X141824967Y-72247000D01*
X142147033Y-72247000D01*
X142462912Y-72184168D01*
X142760463Y-72060918D01*
X142837000Y-72009778D01*
X142837000Y-73171949D01*
X140348173Y-75660777D01*
X140280759Y-75593363D01*
X140045727Y-75436320D01*
X139784574Y-75328147D01*
X139507335Y-75273000D01*
X139224665Y-75273000D01*
X138947426Y-75328147D01*
X138686273Y-75436320D01*
X138451241Y-75593363D01*
X138251363Y-75793241D01*
X138094320Y-76028273D01*
X137986147Y-76289426D01*
X137931000Y-76566665D01*
X137931000Y-76795962D01*
X135415462Y-79311500D01*
X135061896Y-79311500D01*
X134899759Y-79149363D01*
X134664727Y-78992320D01*
X134403574Y-78884147D01*
X134126335Y-78829000D01*
X133843665Y-78829000D01*
X133566426Y-78884147D01*
X133311999Y-78989534D01*
X133311999Y-77683395D01*
X133451241Y-77822637D01*
X133686273Y-77979680D01*
X133947426Y-78087853D01*
X134224665Y-78143000D01*
X134507335Y-78143000D01*
X134784574Y-78087853D01*
X135045727Y-77979680D01*
X135280759Y-77822637D01*
X135480637Y-77622759D01*
X135637680Y-77387727D01*
X135745853Y-77126574D01*
X135801000Y-76849335D01*
X135801000Y-76566665D01*
X135745853Y-76289426D01*
X135637680Y-76028273D01*
X135480637Y-75793241D01*
X135280759Y-75593363D01*
X135045727Y-75436320D01*
X134784574Y-75328147D01*
X134507335Y-75273000D01*
X134224665Y-75273000D01*
X133947426Y-75328147D01*
X133686273Y-75436320D01*
X133451241Y-75593363D01*
X133311999Y-75732605D01*
X133311999Y-74247413D01*
X138530192Y-74247413D01*
X138625956Y-74511814D01*
X138915571Y-74652704D01*
X139227108Y-74734384D01*
X139548595Y-74753718D01*
X139867675Y-74709961D01*
X140172088Y-74604795D01*
X140346044Y-74511814D01*
X140441808Y-74247413D01*
X139486000Y-73291605D01*
X138530192Y-74247413D01*
X133311999Y-74247413D01*
X133311999Y-73174595D01*
X137844282Y-73174595D01*
X137888039Y-73493675D01*
X137993205Y-73798088D01*
X138086186Y-73972044D01*
X138350587Y-74067808D01*
X139306395Y-73112000D01*
X139665605Y-73112000D01*
X140621413Y-74067808D01*
X140885814Y-73972044D01*
X141026704Y-73682429D01*
X141108384Y-73370892D01*
X141127718Y-73049405D01*
X141083961Y-72730325D01*
X140978795Y-72425912D01*
X140885814Y-72251956D01*
X140621413Y-72156192D01*
X139665605Y-73112000D01*
X139306395Y-73112000D01*
X138350587Y-72156192D01*
X138086186Y-72251956D01*
X137945296Y-72541571D01*
X137863616Y-72853108D01*
X137844282Y-73174595D01*
X133311999Y-73174595D01*
X133311999Y-71976587D01*
X138530192Y-71976587D01*
X139486000Y-72932395D01*
X140441808Y-71976587D01*
X140346044Y-71712186D01*
X140056429Y-71571296D01*
X139744892Y-71489616D01*
X139423405Y-71470282D01*
X139104325Y-71514039D01*
X138799912Y-71619205D01*
X138625956Y-71712186D01*
X138530192Y-71976587D01*
X133311999Y-71976587D01*
X133311999Y-68809773D01*
X135981915Y-66139858D01*
X136030370Y-66100092D01*
X136189075Y-65906710D01*
X136307003Y-65686081D01*
X136359450Y-65513185D01*
X136379623Y-65446686D01*
X136391411Y-65327000D01*
X136398000Y-65260102D01*
X136398000Y-65260096D01*
X136404143Y-65197723D01*
X136398000Y-65135350D01*
X136398000Y-59690000D01*
X137493759Y-59690000D01*
X137496273Y-59691680D01*
X137757426Y-59799853D01*
X138034665Y-59855000D01*
X138317335Y-59855000D01*
X138594574Y-59799853D01*
X138855727Y-59691680D01*
X139090759Y-59534637D01*
X139290637Y-59334759D01*
X139447680Y-59099727D01*
X139555853Y-58838574D01*
X139611000Y-58561335D01*
X139611000Y-58278665D01*
X139555853Y-58001426D01*
X139447680Y-57740273D01*
X139290637Y-57505241D01*
X139090759Y-57305363D01*
X138858241Y-57150000D01*
X139090759Y-56994637D01*
X139290637Y-56794759D01*
X139447680Y-56559727D01*
X139555853Y-56298574D01*
X139611000Y-56021335D01*
X139611000Y-55738665D01*
X139555853Y-55461426D01*
X139447680Y-55200273D01*
X139290637Y-54965241D01*
X139090759Y-54765363D01*
X138858241Y-54610000D01*
X139090759Y-54454637D01*
X139290637Y-54254759D01*
X139447680Y-54019727D01*
X139555853Y-53758574D01*
X139611000Y-53481335D01*
X139611000Y-53198665D01*
X139555853Y-52921426D01*
X139447680Y-52660273D01*
X139290637Y-52425241D01*
X139090759Y-52225363D01*
X138858241Y-52070000D01*
X139090759Y-51914637D01*
X139290637Y-51714759D01*
X139447680Y-51479727D01*
X139555853Y-51218574D01*
X139611000Y-50941335D01*
X139611000Y-50658665D01*
X139555853Y-50381426D01*
X139447680Y-50120273D01*
X139290637Y-49885241D01*
X139128500Y-49723104D01*
X139128500Y-48908538D01*
X139612038Y-48425000D01*
X139841335Y-48425000D01*
X140118574Y-48369853D01*
X140379727Y-48261680D01*
X140614759Y-48104637D01*
X140814637Y-47904759D01*
X140971680Y-47669727D01*
X141007852Y-47582399D01*
X141016397Y-47606292D01*
X141083329Y-47731514D01*
X141327298Y-47803097D01*
X142140395Y-46990000D01*
X141327298Y-46176903D01*
X141083329Y-46248486D01*
X141010149Y-46403145D01*
X140971680Y-46310273D01*
X140814637Y-46075241D01*
X140614759Y-45875363D01*
X140379727Y-45718320D01*
X140118574Y-45610147D01*
X139841335Y-45555000D01*
X139558665Y-45555000D01*
X139281426Y-45610147D01*
X139020273Y-45718320D01*
X138785241Y-45875363D01*
X138623104Y-46037500D01*
X137046538Y-46037500D01*
X134496072Y-43487034D01*
X134496072Y-42418000D01*
X134478931Y-42243965D01*
X134428167Y-42076619D01*
X134345731Y-41922391D01*
X134234790Y-41787210D01*
X134099609Y-41676269D01*
X133945381Y-41593833D01*
X133778035Y-41543069D01*
X133709188Y-41536288D01*
X133724886Y-41525799D01*
X133917799Y-41332886D01*
X134069371Y-41106043D01*
X134173775Y-40853989D01*
X134227000Y-40586411D01*
X134227000Y-40313589D01*
X134173775Y-40046011D01*
X134069371Y-39793957D01*
X133917799Y-39567114D01*
X133724886Y-39374201D01*
X133498043Y-39222629D01*
X133245989Y-39118225D01*
X132978411Y-39065000D01*
X132705589Y-39065000D01*
X132438011Y-39118225D01*
X132185957Y-39222629D01*
X131959114Y-39374201D01*
X131766201Y-39567114D01*
X131614629Y-39793957D01*
X131510225Y-40046011D01*
X131457000Y-40313589D01*
X131457000Y-40586411D01*
X131510225Y-40853989D01*
X131614629Y-41106043D01*
X131766201Y-41332886D01*
X131959114Y-41525799D01*
X131974812Y-41536288D01*
X131905965Y-41543069D01*
X131738619Y-41593833D01*
X131584391Y-41676269D01*
X131449210Y-41787210D01*
X131338269Y-41922391D01*
X131255833Y-42076619D01*
X131205069Y-42243965D01*
X131187928Y-42418000D01*
X131187928Y-43045419D01*
X131153888Y-42795802D01*
X131047924Y-42488330D01*
X130952860Y-42310478D01*
X130686823Y-42212782D01*
X129719605Y-43180000D01*
X130686823Y-44147218D01*
X130952860Y-44049522D01*
X131095348Y-43757179D01*
X131178064Y-43442656D01*
X131187928Y-43280667D01*
X131187928Y-43942000D01*
X131205069Y-44116035D01*
X131255833Y-44283381D01*
X131338269Y-44437609D01*
X131449210Y-44572790D01*
X131584391Y-44683731D01*
X131738619Y-44766167D01*
X131905965Y-44816931D01*
X132080000Y-44834072D01*
X133149034Y-44834072D01*
X135945393Y-47630431D01*
X135975222Y-47666778D01*
X136120259Y-47785806D01*
X136202995Y-47830029D01*
X136285730Y-47874252D01*
X136375504Y-47901485D01*
X136465277Y-47928717D01*
X136605215Y-47942500D01*
X136652000Y-47947108D01*
X136698785Y-47942500D01*
X137412824Y-47942500D01*
X137380194Y-47982260D01*
X137291749Y-48147731D01*
X137237283Y-48327278D01*
X137218892Y-48514000D01*
X137223501Y-48560794D01*
X137223500Y-49723104D01*
X137061363Y-49885241D01*
X136904320Y-50120273D01*
X136796147Y-50381426D01*
X136757708Y-50574670D01*
X135580607Y-49397569D01*
X135550778Y-49361222D01*
X135405741Y-49242194D01*
X135240269Y-49153748D01*
X135060723Y-49099283D01*
X134920785Y-49085500D01*
X134874000Y-49080892D01*
X134827215Y-49085500D01*
X133156896Y-49085500D01*
X132994759Y-48923363D01*
X132759727Y-48766320D01*
X132498574Y-48658147D01*
X132221335Y-48603000D01*
X131938665Y-48603000D01*
X131661426Y-48658147D01*
X131400273Y-48766320D01*
X131165241Y-48923363D01*
X131003104Y-49085500D01*
X130291136Y-49085500D01*
X130146637Y-48869241D01*
X129946759Y-48669363D01*
X129711727Y-48512320D01*
X129450574Y-48404147D01*
X129230420Y-48360355D01*
X129413000Y-48260624D01*
X129413000Y-47117000D01*
X129667000Y-47117000D01*
X129667000Y-48260624D01*
X129889040Y-48381909D01*
X130153881Y-48287070D01*
X130395131Y-48142385D01*
X130603519Y-47953414D01*
X130771037Y-47727420D01*
X130891246Y-47473087D01*
X130931904Y-47339039D01*
X130809915Y-47117000D01*
X129667000Y-47117000D01*
X129413000Y-47117000D01*
X128270085Y-47117000D01*
X128148096Y-47339039D01*
X128188754Y-47473087D01*
X128308963Y-47727420D01*
X128476481Y-47953414D01*
X128684869Y-48142385D01*
X128926119Y-48287070D01*
X129099061Y-48349000D01*
X128890665Y-48349000D01*
X128613426Y-48404147D01*
X128352273Y-48512320D01*
X128117241Y-48669363D01*
X127917363Y-48869241D01*
X127760320Y-49104273D01*
X127660000Y-49346467D01*
X127660000Y-46767081D01*
X127656726Y-46733839D01*
X127656726Y-46717363D01*
X127655763Y-46708198D01*
X127648222Y-46640961D01*
X128148096Y-46640961D01*
X128270085Y-46863000D01*
X129413000Y-46863000D01*
X129413000Y-45719376D01*
X129667000Y-45719376D01*
X129667000Y-46863000D01*
X130809915Y-46863000D01*
X130931904Y-46640961D01*
X130891246Y-46506913D01*
X130771037Y-46252580D01*
X130603519Y-46026586D01*
X130395131Y-45837615D01*
X130153881Y-45692930D01*
X129889040Y-45598091D01*
X129667000Y-45719376D01*
X129413000Y-45719376D01*
X129190960Y-45598091D01*
X128926119Y-45692930D01*
X128684869Y-45837615D01*
X128476481Y-46026586D01*
X128308963Y-46252580D01*
X128188754Y-46506913D01*
X128148096Y-46640961D01*
X127648222Y-46640961D01*
X127628134Y-46461882D01*
X127615695Y-46403365D01*
X127604078Y-46344692D01*
X127601353Y-46335889D01*
X127526408Y-46099631D01*
X127502868Y-46044709D01*
X127480048Y-45989342D01*
X127475664Y-45981236D01*
X127431208Y-45900371D01*
X127517424Y-45814155D01*
X127614277Y-45669205D01*
X127680990Y-45508145D01*
X127715000Y-45337165D01*
X127715000Y-45162835D01*
X127680990Y-44991855D01*
X127622232Y-44850000D01*
X127680990Y-44708145D01*
X127715000Y-44537165D01*
X127715000Y-44362835D01*
X127707837Y-44326823D01*
X128572782Y-44326823D01*
X128670478Y-44592860D01*
X128962821Y-44735348D01*
X129277344Y-44818064D01*
X129601962Y-44837831D01*
X129924198Y-44793888D01*
X130231670Y-44687924D01*
X130409522Y-44592860D01*
X130507218Y-44326823D01*
X129540000Y-43359605D01*
X128572782Y-44326823D01*
X127707837Y-44326823D01*
X127680990Y-44191855D01*
X127622232Y-44050000D01*
X127680990Y-43908145D01*
X127715000Y-43737165D01*
X127715000Y-43562835D01*
X127680990Y-43391855D01*
X127618903Y-43241962D01*
X127882169Y-43241962D01*
X127926112Y-43564198D01*
X128032076Y-43871670D01*
X128127140Y-44049522D01*
X128393177Y-44147218D01*
X129360395Y-43180000D01*
X128393177Y-42212782D01*
X128127140Y-42310478D01*
X127984652Y-42602821D01*
X127901936Y-42917344D01*
X127882169Y-43241962D01*
X127618903Y-43241962D01*
X127614277Y-43230795D01*
X127517424Y-43085845D01*
X127431020Y-42999441D01*
X127486919Y-42894309D01*
X127509707Y-42839021D01*
X127533279Y-42784025D01*
X127536003Y-42775222D01*
X127607643Y-42537941D01*
X127619264Y-42479254D01*
X127631700Y-42420748D01*
X127632663Y-42411583D01*
X127656850Y-42164905D01*
X127656850Y-42164902D01*
X127660000Y-42132919D01*
X127660000Y-40313589D01*
X128155000Y-40313589D01*
X128155000Y-40586411D01*
X128208225Y-40853989D01*
X128312629Y-41106043D01*
X128464201Y-41332886D01*
X128657114Y-41525799D01*
X128866606Y-41665777D01*
X128848330Y-41672076D01*
X128670478Y-41767140D01*
X128572782Y-42033177D01*
X129540000Y-43000395D01*
X130507218Y-42033177D01*
X130409522Y-41767140D01*
X130208401Y-41669114D01*
X130422886Y-41525799D01*
X130615799Y-41332886D01*
X130767371Y-41106043D01*
X130871775Y-40853989D01*
X130925000Y-40586411D01*
X130925000Y-40313589D01*
X130871775Y-40046011D01*
X130767371Y-39793957D01*
X130615799Y-39567114D01*
X130422886Y-39374201D01*
X130196043Y-39222629D01*
X129943989Y-39118225D01*
X129676411Y-39065000D01*
X129403589Y-39065000D01*
X129136011Y-39118225D01*
X128883957Y-39222629D01*
X128657114Y-39374201D01*
X128464201Y-39567114D01*
X128312629Y-39793957D01*
X128208225Y-40046011D01*
X128155000Y-40313589D01*
X127660000Y-40313589D01*
X127660000Y-39402279D01*
X127674722Y-39252131D01*
X127708953Y-39138754D01*
X127764555Y-39034181D01*
X127839407Y-38942404D01*
X127930664Y-38866909D01*
X128034844Y-38810581D01*
X128147976Y-38775560D01*
X128296022Y-38760000D01*
X149827721Y-38760000D01*
X149977869Y-38774722D01*
G37*
%TD.AperFunction*%
D26*
X127760320Y-50463727D02*
X127917363Y-50698759D01*
X128117241Y-50898637D01*
X128352273Y-51055680D01*
X128613426Y-51163853D01*
X128890665Y-51219000D01*
X129173335Y-51219000D01*
X129450574Y-51163853D01*
X129711727Y-51055680D01*
X129809276Y-50990500D01*
X131003104Y-50990500D01*
X131165241Y-51152637D01*
X131400273Y-51309680D01*
X131661426Y-51417853D01*
X131938665Y-51473000D01*
X132221335Y-51473000D01*
X132498574Y-51417853D01*
X132759727Y-51309680D01*
X132994759Y-51152637D01*
X133156896Y-50990500D01*
X134479462Y-50990500D01*
X135530446Y-52041484D01*
X135339816Y-51993700D01*
X135057488Y-51979783D01*
X134777870Y-52021213D01*
X134511708Y-52116397D01*
X134386486Y-52183329D01*
X134314903Y-52427298D01*
X135128000Y-53240395D01*
X135142143Y-53226253D01*
X135321748Y-53405858D01*
X135307605Y-53420000D01*
X136120702Y-54233097D01*
X136364671Y-54161514D01*
X136485571Y-53906004D01*
X136554300Y-53631816D01*
X136568217Y-53349488D01*
X136526787Y-53069870D01*
X136508948Y-53019987D01*
X136741000Y-53252039D01*
X136741000Y-53481335D01*
X136796147Y-53758574D01*
X136904320Y-54019727D01*
X137061363Y-54254759D01*
X137261241Y-54454637D01*
X137493759Y-54610000D01*
X137261241Y-54765363D01*
X137099104Y-54927500D01*
X133515000Y-54927500D01*
X133515000Y-54896665D01*
X133459853Y-54619426D01*
X133374226Y-54412702D01*
X134314903Y-54412702D01*
X134386486Y-54656671D01*
X134641996Y-54777571D01*
X134916184Y-54846300D01*
X135198512Y-54860217D01*
X135478130Y-54818787D01*
X135744292Y-54723603D01*
X135869514Y-54656671D01*
X135941097Y-54412702D01*
X135128000Y-53599605D01*
X134314903Y-54412702D01*
X133374226Y-54412702D01*
X133351680Y-54358273D01*
X133194637Y-54123241D01*
X132994759Y-53923363D01*
X132759727Y-53766320D01*
X132498574Y-53658147D01*
X132221335Y-53603000D01*
X131938665Y-53603000D01*
X131661426Y-53658147D01*
X131400273Y-53766320D01*
X131165241Y-53923363D01*
X130965363Y-54123241D01*
X130808320Y-54358273D01*
X130700147Y-54619426D01*
X130645000Y-54896665D01*
X130645000Y-55179335D01*
X130700147Y-55456574D01*
X130808320Y-55717727D01*
X130965363Y-55952759D01*
X131165241Y-56152637D01*
X131351722Y-56277239D01*
X129119962Y-58509000D01*
X128890665Y-58509000D01*
X128613426Y-58564147D01*
X128352273Y-58672320D01*
X128117241Y-58829363D01*
X127917363Y-59029241D01*
X127760320Y-59264273D01*
X127660000Y-59506467D01*
X127660000Y-53490512D01*
X133687783Y-53490512D01*
X133729213Y-53770130D01*
X133824397Y-54036292D01*
X133891329Y-54161514D01*
X134135298Y-54233097D01*
X134948395Y-53420000D01*
X134135298Y-52606903D01*
X133891329Y-52678486D01*
X133770429Y-52933996D01*
X133701700Y-53208184D01*
X133687783Y-53490512D01*
X127660000Y-53490512D01*
X127660000Y-50221533D01*
X127760320Y-50463727D01*
%TA.AperFunction,Conductor*%
D27*
G36*
X127760320Y-50463727D02*
G01*
X127917363Y-50698759D01*
X128117241Y-50898637D01*
X128352273Y-51055680D01*
X128613426Y-51163853D01*
X128890665Y-51219000D01*
X129173335Y-51219000D01*
X129450574Y-51163853D01*
X129711727Y-51055680D01*
X129809276Y-50990500D01*
X131003104Y-50990500D01*
X131165241Y-51152637D01*
X131400273Y-51309680D01*
X131661426Y-51417853D01*
X131938665Y-51473000D01*
X132221335Y-51473000D01*
X132498574Y-51417853D01*
X132759727Y-51309680D01*
X132994759Y-51152637D01*
X133156896Y-50990500D01*
X134479462Y-50990500D01*
X135530446Y-52041484D01*
X135339816Y-51993700D01*
X135057488Y-51979783D01*
X134777870Y-52021213D01*
X134511708Y-52116397D01*
X134386486Y-52183329D01*
X134314903Y-52427298D01*
X135128000Y-53240395D01*
X135142143Y-53226253D01*
X135321748Y-53405858D01*
X135307605Y-53420000D01*
X136120702Y-54233097D01*
X136364671Y-54161514D01*
X136485571Y-53906004D01*
X136554300Y-53631816D01*
X136568217Y-53349488D01*
X136526787Y-53069870D01*
X136508948Y-53019987D01*
X136741000Y-53252039D01*
X136741000Y-53481335D01*
X136796147Y-53758574D01*
X136904320Y-54019727D01*
X137061363Y-54254759D01*
X137261241Y-54454637D01*
X137493759Y-54610000D01*
X137261241Y-54765363D01*
X137099104Y-54927500D01*
X133515000Y-54927500D01*
X133515000Y-54896665D01*
X133459853Y-54619426D01*
X133374226Y-54412702D01*
X134314903Y-54412702D01*
X134386486Y-54656671D01*
X134641996Y-54777571D01*
X134916184Y-54846300D01*
X135198512Y-54860217D01*
X135478130Y-54818787D01*
X135744292Y-54723603D01*
X135869514Y-54656671D01*
X135941097Y-54412702D01*
X135128000Y-53599605D01*
X134314903Y-54412702D01*
X133374226Y-54412702D01*
X133351680Y-54358273D01*
X133194637Y-54123241D01*
X132994759Y-53923363D01*
X132759727Y-53766320D01*
X132498574Y-53658147D01*
X132221335Y-53603000D01*
X131938665Y-53603000D01*
X131661426Y-53658147D01*
X131400273Y-53766320D01*
X131165241Y-53923363D01*
X130965363Y-54123241D01*
X130808320Y-54358273D01*
X130700147Y-54619426D01*
X130645000Y-54896665D01*
X130645000Y-55179335D01*
X130700147Y-55456574D01*
X130808320Y-55717727D01*
X130965363Y-55952759D01*
X131165241Y-56152637D01*
X131351722Y-56277239D01*
X129119962Y-58509000D01*
X128890665Y-58509000D01*
X128613426Y-58564147D01*
X128352273Y-58672320D01*
X128117241Y-58829363D01*
X127917363Y-59029241D01*
X127760320Y-59264273D01*
X127660000Y-59506467D01*
X127660000Y-53490512D01*
X133687783Y-53490512D01*
X133729213Y-53770130D01*
X133824397Y-54036292D01*
X133891329Y-54161514D01*
X134135298Y-54233097D01*
X134948395Y-53420000D01*
X134135298Y-52606903D01*
X133891329Y-52678486D01*
X133770429Y-52933996D01*
X133701700Y-53208184D01*
X133687783Y-53490512D01*
X127660000Y-53490512D01*
X127660000Y-50221533D01*
X127760320Y-50463727D01*
G37*
%TD.AperFunction*%
%TD*%
D26*
%TO.N,GND1*%
X123307869Y-38774722D02*
X123421246Y-38808953D01*
X123525819Y-38864555D01*
X123617596Y-38939407D01*
X123693091Y-39030664D01*
X123749419Y-39134844D01*
X123784440Y-39247976D01*
X123800000Y-39396022D01*
X123800001Y-42132919D01*
X123803274Y-42166151D01*
X123803274Y-42182637D01*
X123804237Y-42191802D01*
X123831866Y-42438118D01*
X123844297Y-42496598D01*
X123855921Y-42555308D01*
X123858647Y-42564111D01*
X123933592Y-42800369D01*
X123957146Y-42855324D01*
X123979953Y-42910658D01*
X123984336Y-42918764D01*
X124028792Y-42999629D01*
X123942576Y-43085845D01*
X123845723Y-43230795D01*
X123779010Y-43391855D01*
X123745000Y-43562835D01*
X123745000Y-43737165D01*
X123779010Y-43908145D01*
X123837768Y-44050000D01*
X123779010Y-44191855D01*
X123745000Y-44362835D01*
X123745000Y-44537165D01*
X123779010Y-44708145D01*
X123837768Y-44850000D01*
X123779010Y-44991855D01*
X123745000Y-45162835D01*
X123745000Y-45337165D01*
X123779010Y-45508145D01*
X123845723Y-45669205D01*
X123942576Y-45814155D01*
X124028980Y-45900559D01*
X123973081Y-46005691D01*
X123950298Y-46060968D01*
X123926721Y-46115975D01*
X123923997Y-46124778D01*
X123852357Y-46362059D01*
X123840736Y-46420746D01*
X123828300Y-46479252D01*
X123827337Y-46488417D01*
X123803158Y-46735015D01*
X123800000Y-46767082D01*
X123800000Y-55142963D01*
X123473938Y-54816900D01*
X115100477Y-46443439D01*
X115202842Y-46290238D01*
X115495702Y-45583213D01*
X115645000Y-44832639D01*
X115645000Y-44067361D01*
X115495702Y-43316787D01*
X115267161Y-42765041D01*
X115487727Y-42673680D01*
X115722759Y-42516637D01*
X115922637Y-42316759D01*
X116079680Y-42081727D01*
X116187853Y-41820574D01*
X116243000Y-41543335D01*
X116243000Y-41260665D01*
X116187853Y-40983426D01*
X116079680Y-40722273D01*
X115922637Y-40487241D01*
X115722759Y-40287363D01*
X115487727Y-40130320D01*
X115226574Y-40022147D01*
X114949335Y-39967000D01*
X114666665Y-39967000D01*
X114389426Y-40022147D01*
X114128273Y-40130320D01*
X113893241Y-40287363D01*
X113693363Y-40487241D01*
X113536320Y-40722273D01*
X113444959Y-40942839D01*
X112893213Y-40714298D01*
X112142639Y-40565000D01*
X111377361Y-40565000D01*
X110626787Y-40714298D01*
X109919762Y-41007158D01*
X109283457Y-41432323D01*
X108742323Y-41973457D01*
X108317158Y-42609762D01*
X108024298Y-43316787D01*
X107875000Y-44067361D01*
X107875000Y-44832639D01*
X108024298Y-45583213D01*
X108317158Y-46290238D01*
X108742323Y-46926543D01*
X109283457Y-47467677D01*
X109919762Y-47892842D01*
X110626787Y-48185702D01*
X111377361Y-48335000D01*
X112142639Y-48335000D01*
X112893213Y-48185702D01*
X113600238Y-47892842D01*
X113753439Y-47790477D01*
X122389002Y-56426040D01*
X122389001Y-84871928D01*
X121070000Y-84871928D01*
X120945518Y-84884188D01*
X120825820Y-84920498D01*
X120715506Y-84979463D01*
X120618815Y-85058815D01*
X120539463Y-85155506D01*
X120480498Y-85265820D01*
X120444188Y-85385518D01*
X120431928Y-85510000D01*
X120431928Y-86501034D01*
X113988055Y-92944907D01*
X113951713Y-92974732D01*
X113921889Y-93011073D01*
X113832684Y-93119770D01*
X113744239Y-93285241D01*
X113689773Y-93464788D01*
X113671382Y-93651510D01*
X113675991Y-93698305D01*
X113675990Y-100898952D01*
X107861021Y-95083983D01*
X107861021Y-82167361D01*
X107875000Y-82167361D01*
X107875000Y-82932639D01*
X108024298Y-83683213D01*
X108317158Y-84390238D01*
X108742323Y-85026543D01*
X109283457Y-85567677D01*
X109919762Y-85992842D01*
X110626787Y-86285702D01*
X111377361Y-86435000D01*
X112142639Y-86435000D01*
X112893213Y-86285702D01*
X113600238Y-85992842D01*
X114236543Y-85567677D01*
X114777677Y-85026543D01*
X115202842Y-84390238D01*
X115495702Y-83683213D01*
X115645000Y-82932639D01*
X115645000Y-82167361D01*
X115495702Y-81416787D01*
X115267161Y-80865041D01*
X115487727Y-80773680D01*
X115722759Y-80616637D01*
X115922637Y-80416759D01*
X116079680Y-80181727D01*
X116187853Y-79920574D01*
X116243000Y-79643335D01*
X116243000Y-79360665D01*
X116187853Y-79083426D01*
X116079680Y-78822273D01*
X115922637Y-78587241D01*
X115722759Y-78387363D01*
X115487727Y-78230320D01*
X115226574Y-78122147D01*
X114949335Y-78067000D01*
X114666665Y-78067000D01*
X114389426Y-78122147D01*
X114128273Y-78230320D01*
X113893241Y-78387363D01*
X113693363Y-78587241D01*
X113536320Y-78822273D01*
X113444959Y-79042839D01*
X112893213Y-78814298D01*
X112142639Y-78665000D01*
X111377361Y-78665000D01*
X110626787Y-78814298D01*
X109919762Y-79107158D01*
X109283457Y-79532323D01*
X108742323Y-80073457D01*
X108317158Y-80709762D01*
X108024298Y-81416787D01*
X107875000Y-82167361D01*
X107861021Y-82167361D01*
X107861021Y-74443305D01*
X107865629Y-74396520D01*
X107847238Y-74209798D01*
X107845961Y-74205587D01*
X107792773Y-74030252D01*
X107704327Y-73864780D01*
X107585299Y-73719743D01*
X107548952Y-73689914D01*
X105117000Y-71257962D01*
X105117000Y-70973740D01*
X105059932Y-70686842D01*
X104947990Y-70416589D01*
X104785475Y-70173368D01*
X104578632Y-69966525D01*
X104335411Y-69804010D01*
X104065158Y-69692068D01*
X103778260Y-69635000D01*
X103485740Y-69635000D01*
X103198842Y-69692068D01*
X102928589Y-69804010D01*
X102685368Y-69966525D01*
X102478525Y-70173368D01*
X102316010Y-70416589D01*
X102204068Y-70686842D01*
X102147000Y-70973740D01*
X102147000Y-71266260D01*
X102204068Y-71553158D01*
X102316010Y-71823411D01*
X102478525Y-72066632D01*
X102685368Y-72273475D01*
X102859760Y-72390000D01*
X102685368Y-72506525D01*
X102478525Y-72713368D01*
X102316010Y-72956589D01*
X102204068Y-73226842D01*
X102147000Y-73513740D01*
X102147000Y-73806260D01*
X102204068Y-74093158D01*
X102316010Y-74363411D01*
X102478525Y-74606632D01*
X102610380Y-74738487D01*
X102537820Y-74760498D01*
X102427506Y-74819463D01*
X102330815Y-74898815D01*
X102251463Y-74995506D01*
X102192498Y-75105820D01*
X102156188Y-75225518D01*
X102143928Y-75350000D01*
X102143928Y-77050000D01*
X102156188Y-77174482D01*
X102192498Y-77294180D01*
X102251463Y-77404494D01*
X102330815Y-77501185D01*
X102427506Y-77580537D01*
X102537820Y-77639502D01*
X102657518Y-77675812D01*
X102782000Y-77688072D01*
X103773034Y-77688072D01*
X104178001Y-78093039D01*
X104178002Y-89592324D01*
X104177574Y-89592147D01*
X103900335Y-89537000D01*
X103617665Y-89537000D01*
X103340426Y-89592147D01*
X103079273Y-89700320D01*
X102844241Y-89857363D01*
X102644363Y-90057241D01*
X102487320Y-90292273D01*
X102379147Y-90553426D01*
X102324000Y-90830665D01*
X102324000Y-91113335D01*
X102379147Y-91390574D01*
X102487320Y-91651727D01*
X102644363Y-91886759D01*
X102810943Y-92053339D01*
X102714820Y-92082498D01*
X102604506Y-92141463D01*
X102507815Y-92220815D01*
X102428463Y-92317506D01*
X102369498Y-92427820D01*
X102333188Y-92547518D01*
X102320928Y-92672000D01*
X102320928Y-94272000D01*
X102333188Y-94396482D01*
X102369498Y-94516180D01*
X102428463Y-94626494D01*
X102507815Y-94723185D01*
X102604506Y-94802537D01*
X102714820Y-94861502D01*
X102806500Y-94889313D01*
X102806501Y-139443772D01*
X102801892Y-139490567D01*
X102820283Y-139677289D01*
X102853614Y-139787165D01*
X102874749Y-139856836D01*
X102963195Y-140022308D01*
X103082223Y-140167345D01*
X103118564Y-140197169D01*
X108307500Y-145386106D01*
X108307500Y-145667099D01*
X108235518Y-145674188D01*
X108115820Y-145710498D01*
X108005506Y-145769463D01*
X107908815Y-145848815D01*
X107829463Y-145945506D01*
X107770498Y-146055820D01*
X107734188Y-146175518D01*
X107721928Y-146300000D01*
X107721928Y-148100000D01*
X107734188Y-148224482D01*
X107770498Y-148344180D01*
X107829463Y-148454494D01*
X107908815Y-148551185D01*
X108005506Y-148630537D01*
X108115820Y-148689502D01*
X108235518Y-148725812D01*
X108360000Y-148738072D01*
X110160000Y-148738072D01*
X110284482Y-148725812D01*
X110404180Y-148689502D01*
X110514494Y-148630537D01*
X110611185Y-148551185D01*
X110690537Y-148454494D01*
X110743880Y-148354697D01*
X110781495Y-148392312D01*
X111032905Y-148560299D01*
X111312257Y-148676011D01*
X111608816Y-148735000D01*
X111911184Y-148735000D01*
X112207743Y-148676011D01*
X112487095Y-148560299D01*
X112738505Y-148392312D01*
X112866737Y-148264080D01*
X113375525Y-148264080D01*
X113459208Y-148518261D01*
X113731775Y-148649158D01*
X114024642Y-148724365D01*
X114326553Y-148740991D01*
X114625907Y-148698397D01*
X114911199Y-148598222D01*
X115060792Y-148518261D01*
X115144475Y-148264080D01*
X114260000Y-147379605D01*
X113375525Y-148264080D01*
X112866737Y-148264080D01*
X112952312Y-148178505D01*
X113047738Y-148035690D01*
X113195920Y-148084475D01*
X114080395Y-147200000D01*
X114439605Y-147200000D01*
X115324080Y-148084475D01*
X115578261Y-148000792D01*
X115709158Y-147728225D01*
X115784365Y-147435358D01*
X115800991Y-147133447D01*
X115758397Y-146834093D01*
X115658222Y-146548801D01*
X115578261Y-146399208D01*
X115324080Y-146315525D01*
X114439605Y-147200000D01*
X114080395Y-147200000D01*
X113195920Y-146315525D01*
X113047738Y-146364310D01*
X112952312Y-146221495D01*
X112866737Y-146135920D01*
X113375525Y-146135920D01*
X114260000Y-147020395D01*
X115144475Y-146135920D01*
X115060792Y-145881739D01*
X114788225Y-145750842D01*
X114495358Y-145675635D01*
X114193447Y-145659009D01*
X113894093Y-145701603D01*
X113608801Y-145801778D01*
X113459208Y-145881739D01*
X113375525Y-146135920D01*
X112866737Y-146135920D01*
X112738505Y-146007688D01*
X112712500Y-145990312D01*
X112712500Y-139342002D01*
X114565000Y-139342002D01*
X114565000Y-140057997D01*
X114593867Y-140351087D01*
X114707943Y-140727146D01*
X114893193Y-141073725D01*
X115142497Y-141377503D01*
X115446275Y-141626807D01*
X115792853Y-141812057D01*
X116168912Y-141926133D01*
X116560000Y-141964652D01*
X116951087Y-141926133D01*
X117327146Y-141812057D01*
X117673725Y-141626807D01*
X117977503Y-141377503D01*
X118226807Y-141073725D01*
X118412057Y-140727147D01*
X118526133Y-140351088D01*
X118555000Y-140057998D01*
X118555000Y-139342003D01*
X118526133Y-139048913D01*
X118412057Y-138672853D01*
X118226807Y-138326275D01*
X117977503Y-138022497D01*
X117673725Y-137773193D01*
X117327147Y-137587943D01*
X116951088Y-137473867D01*
X116560000Y-137435348D01*
X116168913Y-137473867D01*
X115792854Y-137587943D01*
X115446276Y-137773193D01*
X115142498Y-138022497D01*
X114893193Y-138326275D01*
X114707943Y-138672853D01*
X114593867Y-139048912D01*
X114565000Y-139342002D01*
X112712500Y-139342002D01*
X112712500Y-134392290D01*
X115498918Y-131605872D01*
X118669000Y-131605872D01*
X118669000Y-132046128D01*
X118754890Y-132477925D01*
X118923369Y-132884669D01*
X119167962Y-133250729D01*
X119479271Y-133562038D01*
X119845331Y-133806631D01*
X120252075Y-133975110D01*
X120683872Y-134061000D01*
X121124128Y-134061000D01*
X121555925Y-133975110D01*
X121962669Y-133806631D01*
X122328729Y-133562038D01*
X122640038Y-133250729D01*
X122884631Y-132884669D01*
X123053110Y-132477925D01*
X123139000Y-132046128D01*
X123139000Y-131605872D01*
X123053110Y-131174075D01*
X122884631Y-130767331D01*
X122640038Y-130401271D01*
X122328729Y-130089962D01*
X121962669Y-129845369D01*
X121555925Y-129676890D01*
X121124128Y-129591000D01*
X120683872Y-129591000D01*
X120252075Y-129676890D01*
X119845331Y-129845369D01*
X119479271Y-130089962D01*
X119167962Y-130401271D01*
X118923369Y-130767331D01*
X118754890Y-131174075D01*
X118669000Y-131605872D01*
X115498918Y-131605872D01*
X120884930Y-126219860D01*
X120921277Y-126190031D01*
X121040305Y-126044994D01*
X121128751Y-125879522D01*
X121183216Y-125699976D01*
X121196999Y-125560038D01*
X121201607Y-125513253D01*
X121196999Y-125466468D01*
X121196999Y-106811712D01*
X121309109Y-106851481D01*
X121539000Y-106730814D01*
X121539000Y-105537000D01*
X121793000Y-105537000D01*
X121793000Y-106730814D01*
X122022891Y-106851481D01*
X122297252Y-106754157D01*
X122547355Y-106605178D01*
X122763588Y-106410269D01*
X122937641Y-106176920D01*
X123062825Y-105914099D01*
X123107476Y-105766890D01*
X122986155Y-105537000D01*
X121793000Y-105537000D01*
X121539000Y-105537000D01*
X121519000Y-105537000D01*
X121519000Y-105283000D01*
X121539000Y-105283000D01*
X121539000Y-105263000D01*
X121793000Y-105263000D01*
X121793000Y-105283000D01*
X122986155Y-105283000D01*
X123107476Y-105053110D01*
X123062825Y-104905901D01*
X122937641Y-104643080D01*
X122763588Y-104409731D01*
X122547355Y-104214822D01*
X122430466Y-104145195D01*
X122612632Y-104023475D01*
X122819475Y-103816632D01*
X122981990Y-103573411D01*
X123093932Y-103303158D01*
X123151000Y-103016260D01*
X123151000Y-102723740D01*
X123093932Y-102436842D01*
X122981990Y-102166589D01*
X122819475Y-101923368D01*
X122612632Y-101716525D01*
X122438240Y-101600000D01*
X122612632Y-101483475D01*
X122819475Y-101276632D01*
X122981990Y-101033411D01*
X123093932Y-100763158D01*
X123151000Y-100476260D01*
X123151000Y-100183740D01*
X123093932Y-99896842D01*
X122981990Y-99626589D01*
X122819475Y-99383368D01*
X122687620Y-99251513D01*
X122760180Y-99229502D01*
X122870494Y-99170537D01*
X122967185Y-99091185D01*
X123046537Y-98994494D01*
X123105502Y-98884180D01*
X123141812Y-98764482D01*
X123154072Y-98640000D01*
X123154072Y-97648966D01*
X123800000Y-97003039D01*
X123800001Y-106902919D01*
X123803274Y-106936151D01*
X123803274Y-106952637D01*
X123804237Y-106961802D01*
X123831866Y-107208118D01*
X123844297Y-107266598D01*
X123855921Y-107325308D01*
X123858647Y-107334111D01*
X123933592Y-107570369D01*
X123957146Y-107625324D01*
X123979953Y-107680658D01*
X123984336Y-107688764D01*
X124028792Y-107769629D01*
X123942576Y-107855845D01*
X123845723Y-108000795D01*
X123779010Y-108161855D01*
X123745000Y-108332835D01*
X123745000Y-108507165D01*
X123779010Y-108678145D01*
X123837768Y-108820000D01*
X123779010Y-108961855D01*
X123745000Y-109132835D01*
X123745000Y-109307165D01*
X123779010Y-109478145D01*
X123837768Y-109620000D01*
X123779010Y-109761855D01*
X123745000Y-109932835D01*
X123745000Y-110107165D01*
X123779010Y-110278145D01*
X123845723Y-110439205D01*
X123942576Y-110584155D01*
X124028980Y-110670559D01*
X123973081Y-110775691D01*
X123950298Y-110830968D01*
X123926721Y-110885975D01*
X123923997Y-110894778D01*
X123852357Y-111132059D01*
X123840736Y-111190746D01*
X123828300Y-111249252D01*
X123827337Y-111258417D01*
X123803150Y-111505095D01*
X123803150Y-111505108D01*
X123800001Y-111537081D01*
X123800000Y-120872918D01*
X123803274Y-120906160D01*
X123803274Y-120922637D01*
X123804237Y-120931802D01*
X123831866Y-121178118D01*
X123844297Y-121236598D01*
X123855921Y-121295308D01*
X123858647Y-121304111D01*
X123933592Y-121540369D01*
X123957146Y-121595324D01*
X123979953Y-121650658D01*
X123984336Y-121658764D01*
X124028792Y-121739629D01*
X123942576Y-121825845D01*
X123845723Y-121970795D01*
X123779010Y-122131855D01*
X123745000Y-122302835D01*
X123745000Y-122477165D01*
X123779010Y-122648145D01*
X123837768Y-122790000D01*
X123779010Y-122931855D01*
X123745000Y-123102835D01*
X123745000Y-123277165D01*
X123779010Y-123448145D01*
X123837768Y-123590000D01*
X123779010Y-123731855D01*
X123745000Y-123902835D01*
X123745000Y-124077165D01*
X123779010Y-124248145D01*
X123845723Y-124409205D01*
X123942576Y-124554155D01*
X124028980Y-124640559D01*
X123973081Y-124745691D01*
X123950298Y-124800968D01*
X123926721Y-124855975D01*
X123923997Y-124864778D01*
X123852357Y-125102059D01*
X123840736Y-125160746D01*
X123828300Y-125219252D01*
X123827337Y-125228417D01*
X123803158Y-125475015D01*
X123800000Y-125507082D01*
X123800001Y-137382919D01*
X123803274Y-137416151D01*
X123803274Y-137432637D01*
X123804237Y-137441802D01*
X123831866Y-137688118D01*
X123844297Y-137746598D01*
X123855921Y-137805308D01*
X123858647Y-137814111D01*
X123933592Y-138050369D01*
X123957146Y-138105324D01*
X123979953Y-138160658D01*
X123984336Y-138168764D01*
X124028792Y-138249629D01*
X123942576Y-138335845D01*
X123845723Y-138480795D01*
X123779010Y-138641855D01*
X123745000Y-138812835D01*
X123745000Y-138987165D01*
X123779010Y-139158145D01*
X123837768Y-139300000D01*
X123779010Y-139441855D01*
X123745000Y-139612835D01*
X123745000Y-139787165D01*
X123779010Y-139958145D01*
X123837768Y-140100000D01*
X123779010Y-140241855D01*
X123745000Y-140412835D01*
X123745000Y-140587165D01*
X123779010Y-140758145D01*
X123845723Y-140919205D01*
X123942576Y-141064155D01*
X124028980Y-141150559D01*
X123973081Y-141255691D01*
X123950298Y-141310968D01*
X123926721Y-141365975D01*
X123923997Y-141374778D01*
X123852357Y-141612059D01*
X123840736Y-141670746D01*
X123828300Y-141729252D01*
X123827337Y-141738417D01*
X123803158Y-141985015D01*
X123800000Y-142017082D01*
X123800001Y-148557711D01*
X123785278Y-148707869D01*
X123751047Y-148821246D01*
X123695446Y-148925817D01*
X123620594Y-149017595D01*
X123529335Y-149093091D01*
X123425160Y-149149419D01*
X123312024Y-149184440D01*
X123163979Y-149200000D01*
X101632279Y-149200000D01*
X101482131Y-149185278D01*
X101368754Y-149151047D01*
X101264183Y-149095446D01*
X101172405Y-149020594D01*
X101096909Y-148929335D01*
X101040581Y-148825160D01*
X101005560Y-148712024D01*
X100990000Y-148563979D01*
X100990000Y-63117361D01*
X107875000Y-63117361D01*
X107875000Y-63882639D01*
X108024298Y-64633213D01*
X108317158Y-65340238D01*
X108742323Y-65976543D01*
X109283457Y-66517677D01*
X109919762Y-66942842D01*
X110626787Y-67235702D01*
X111377361Y-67385000D01*
X112142639Y-67385000D01*
X112893213Y-67235702D01*
X113600238Y-66942842D01*
X113753438Y-66840477D01*
X117902283Y-70989321D01*
X117884363Y-71007241D01*
X117727320Y-71242273D01*
X117619147Y-71503426D01*
X117564000Y-71780665D01*
X117564000Y-72063335D01*
X117619147Y-72340574D01*
X117727320Y-72601727D01*
X117884363Y-72836759D01*
X118050943Y-73003339D01*
X117954820Y-73032498D01*
X117844506Y-73091463D01*
X117747815Y-73170815D01*
X117668463Y-73267506D01*
X117609498Y-73377820D01*
X117573188Y-73497518D01*
X117560928Y-73622000D01*
X117560928Y-75222000D01*
X117573188Y-75346482D01*
X117609498Y-75466180D01*
X117668463Y-75576494D01*
X117747815Y-75673185D01*
X117844506Y-75752537D01*
X117954820Y-75811502D01*
X118074518Y-75847812D01*
X118199000Y-75860072D01*
X119799000Y-75860072D01*
X119923482Y-75847812D01*
X120043180Y-75811502D01*
X120153494Y-75752537D01*
X120250185Y-75673185D01*
X120329537Y-75576494D01*
X120388502Y-75466180D01*
X120424812Y-75346482D01*
X120437072Y-75222000D01*
X120437072Y-73622000D01*
X120424812Y-73497518D01*
X120388502Y-73377820D01*
X120329537Y-73267506D01*
X120250185Y-73170815D01*
X120153494Y-73091463D01*
X120043180Y-73032498D01*
X119947057Y-73003339D01*
X120113637Y-72836759D01*
X120270680Y-72601727D01*
X120378853Y-72340574D01*
X120434000Y-72063335D01*
X120434000Y-71780665D01*
X120378853Y-71503426D01*
X120270680Y-71242273D01*
X120113637Y-71007241D01*
X119951500Y-70845104D01*
X119951500Y-70785785D01*
X119956108Y-70739000D01*
X119948630Y-70663071D01*
X119937717Y-70552277D01*
X119883252Y-70372731D01*
X119794806Y-70207259D01*
X119675778Y-70062222D01*
X119639436Y-70032397D01*
X115100477Y-65493438D01*
X115202842Y-65340238D01*
X115495702Y-64633213D01*
X115645000Y-63882639D01*
X115645000Y-63117361D01*
X115495702Y-62366787D01*
X115267161Y-61815041D01*
X115487727Y-61723680D01*
X115722759Y-61566637D01*
X115922637Y-61366759D01*
X116079680Y-61131727D01*
X116187853Y-60870574D01*
X116243000Y-60593335D01*
X116243000Y-60310665D01*
X116187853Y-60033426D01*
X116079680Y-59772273D01*
X115922637Y-59537241D01*
X115722759Y-59337363D01*
X115487727Y-59180320D01*
X115226574Y-59072147D01*
X114949335Y-59017000D01*
X114666665Y-59017000D01*
X114389426Y-59072147D01*
X114128273Y-59180320D01*
X113893241Y-59337363D01*
X113693363Y-59537241D01*
X113536320Y-59772273D01*
X113444959Y-59992839D01*
X112893213Y-59764298D01*
X112142639Y-59615000D01*
X111377361Y-59615000D01*
X110626787Y-59764298D01*
X109919762Y-60057158D01*
X109283457Y-60482323D01*
X108742323Y-61023457D01*
X108317158Y-61659762D01*
X108024298Y-62366787D01*
X107875000Y-63117361D01*
X100990000Y-63117361D01*
X100990000Y-41435872D01*
X101651000Y-41435872D01*
X101651000Y-41876128D01*
X101736890Y-42307925D01*
X101905369Y-42714669D01*
X102149962Y-43080729D01*
X102461271Y-43392038D01*
X102827331Y-43636631D01*
X103234075Y-43805110D01*
X103665872Y-43891000D01*
X104106128Y-43891000D01*
X104537925Y-43805110D01*
X104944669Y-43636631D01*
X105310729Y-43392038D01*
X105622038Y-43080729D01*
X105866631Y-42714669D01*
X106035110Y-42307925D01*
X106121000Y-41876128D01*
X106121000Y-41435872D01*
X106035110Y-41004075D01*
X105866631Y-40597331D01*
X105622038Y-40231271D01*
X105310729Y-39919962D01*
X104944669Y-39675369D01*
X104537925Y-39506890D01*
X104106128Y-39421000D01*
X103665872Y-39421000D01*
X103234075Y-39506890D01*
X102827331Y-39675369D01*
X102461271Y-39919962D01*
X102149962Y-40231271D01*
X101905369Y-40597331D01*
X101736890Y-41004075D01*
X101651000Y-41435872D01*
X100990000Y-41435872D01*
X100990000Y-39402279D01*
X101004722Y-39252131D01*
X101038953Y-39138754D01*
X101094555Y-39034181D01*
X101169407Y-38942404D01*
X101260664Y-38866909D01*
X101364844Y-38810581D01*
X101477976Y-38775560D01*
X101626022Y-38760000D01*
X123157721Y-38760000D01*
X123307869Y-38774722D01*
%TA.AperFunction,Conductor*%
D27*
G36*
X123307869Y-38774722D02*
G01*
X123421246Y-38808953D01*
X123525819Y-38864555D01*
X123617596Y-38939407D01*
X123693091Y-39030664D01*
X123749419Y-39134844D01*
X123784440Y-39247976D01*
X123800000Y-39396022D01*
X123800001Y-42132919D01*
X123803274Y-42166151D01*
X123803274Y-42182637D01*
X123804237Y-42191802D01*
X123831866Y-42438118D01*
X123844297Y-42496598D01*
X123855921Y-42555308D01*
X123858647Y-42564111D01*
X123933592Y-42800369D01*
X123957146Y-42855324D01*
X123979953Y-42910658D01*
X123984336Y-42918764D01*
X124028792Y-42999629D01*
X123942576Y-43085845D01*
X123845723Y-43230795D01*
X123779010Y-43391855D01*
X123745000Y-43562835D01*
X123745000Y-43737165D01*
X123779010Y-43908145D01*
X123837768Y-44050000D01*
X123779010Y-44191855D01*
X123745000Y-44362835D01*
X123745000Y-44537165D01*
X123779010Y-44708145D01*
X123837768Y-44850000D01*
X123779010Y-44991855D01*
X123745000Y-45162835D01*
X123745000Y-45337165D01*
X123779010Y-45508145D01*
X123845723Y-45669205D01*
X123942576Y-45814155D01*
X124028980Y-45900559D01*
X123973081Y-46005691D01*
X123950298Y-46060968D01*
X123926721Y-46115975D01*
X123923997Y-46124778D01*
X123852357Y-46362059D01*
X123840736Y-46420746D01*
X123828300Y-46479252D01*
X123827337Y-46488417D01*
X123803158Y-46735015D01*
X123800000Y-46767082D01*
X123800000Y-55142963D01*
X123473938Y-54816900D01*
X115100477Y-46443439D01*
X115202842Y-46290238D01*
X115495702Y-45583213D01*
X115645000Y-44832639D01*
X115645000Y-44067361D01*
X115495702Y-43316787D01*
X115267161Y-42765041D01*
X115487727Y-42673680D01*
X115722759Y-42516637D01*
X115922637Y-42316759D01*
X116079680Y-42081727D01*
X116187853Y-41820574D01*
X116243000Y-41543335D01*
X116243000Y-41260665D01*
X116187853Y-40983426D01*
X116079680Y-40722273D01*
X115922637Y-40487241D01*
X115722759Y-40287363D01*
X115487727Y-40130320D01*
X115226574Y-40022147D01*
X114949335Y-39967000D01*
X114666665Y-39967000D01*
X114389426Y-40022147D01*
X114128273Y-40130320D01*
X113893241Y-40287363D01*
X113693363Y-40487241D01*
X113536320Y-40722273D01*
X113444959Y-40942839D01*
X112893213Y-40714298D01*
X112142639Y-40565000D01*
X111377361Y-40565000D01*
X110626787Y-40714298D01*
X109919762Y-41007158D01*
X109283457Y-41432323D01*
X108742323Y-41973457D01*
X108317158Y-42609762D01*
X108024298Y-43316787D01*
X107875000Y-44067361D01*
X107875000Y-44832639D01*
X108024298Y-45583213D01*
X108317158Y-46290238D01*
X108742323Y-46926543D01*
X109283457Y-47467677D01*
X109919762Y-47892842D01*
X110626787Y-48185702D01*
X111377361Y-48335000D01*
X112142639Y-48335000D01*
X112893213Y-48185702D01*
X113600238Y-47892842D01*
X113753439Y-47790477D01*
X122389002Y-56426040D01*
X122389001Y-84871928D01*
X121070000Y-84871928D01*
X120945518Y-84884188D01*
X120825820Y-84920498D01*
X120715506Y-84979463D01*
X120618815Y-85058815D01*
X120539463Y-85155506D01*
X120480498Y-85265820D01*
X120444188Y-85385518D01*
X120431928Y-85510000D01*
X120431928Y-86501034D01*
X113988055Y-92944907D01*
X113951713Y-92974732D01*
X113921889Y-93011073D01*
X113832684Y-93119770D01*
X113744239Y-93285241D01*
X113689773Y-93464788D01*
X113671382Y-93651510D01*
X113675991Y-93698305D01*
X113675990Y-100898952D01*
X107861021Y-95083983D01*
X107861021Y-82167361D01*
X107875000Y-82167361D01*
X107875000Y-82932639D01*
X108024298Y-83683213D01*
X108317158Y-84390238D01*
X108742323Y-85026543D01*
X109283457Y-85567677D01*
X109919762Y-85992842D01*
X110626787Y-86285702D01*
X111377361Y-86435000D01*
X112142639Y-86435000D01*
X112893213Y-86285702D01*
X113600238Y-85992842D01*
X114236543Y-85567677D01*
X114777677Y-85026543D01*
X115202842Y-84390238D01*
X115495702Y-83683213D01*
X115645000Y-82932639D01*
X115645000Y-82167361D01*
X115495702Y-81416787D01*
X115267161Y-80865041D01*
X115487727Y-80773680D01*
X115722759Y-80616637D01*
X115922637Y-80416759D01*
X116079680Y-80181727D01*
X116187853Y-79920574D01*
X116243000Y-79643335D01*
X116243000Y-79360665D01*
X116187853Y-79083426D01*
X116079680Y-78822273D01*
X115922637Y-78587241D01*
X115722759Y-78387363D01*
X115487727Y-78230320D01*
X115226574Y-78122147D01*
X114949335Y-78067000D01*
X114666665Y-78067000D01*
X114389426Y-78122147D01*
X114128273Y-78230320D01*
X113893241Y-78387363D01*
X113693363Y-78587241D01*
X113536320Y-78822273D01*
X113444959Y-79042839D01*
X112893213Y-78814298D01*
X112142639Y-78665000D01*
X111377361Y-78665000D01*
X110626787Y-78814298D01*
X109919762Y-79107158D01*
X109283457Y-79532323D01*
X108742323Y-80073457D01*
X108317158Y-80709762D01*
X108024298Y-81416787D01*
X107875000Y-82167361D01*
X107861021Y-82167361D01*
X107861021Y-74443305D01*
X107865629Y-74396520D01*
X107847238Y-74209798D01*
X107845961Y-74205587D01*
X107792773Y-74030252D01*
X107704327Y-73864780D01*
X107585299Y-73719743D01*
X107548952Y-73689914D01*
X105117000Y-71257962D01*
X105117000Y-70973740D01*
X105059932Y-70686842D01*
X104947990Y-70416589D01*
X104785475Y-70173368D01*
X104578632Y-69966525D01*
X104335411Y-69804010D01*
X104065158Y-69692068D01*
X103778260Y-69635000D01*
X103485740Y-69635000D01*
X103198842Y-69692068D01*
X102928589Y-69804010D01*
X102685368Y-69966525D01*
X102478525Y-70173368D01*
X102316010Y-70416589D01*
X102204068Y-70686842D01*
X102147000Y-70973740D01*
X102147000Y-71266260D01*
X102204068Y-71553158D01*
X102316010Y-71823411D01*
X102478525Y-72066632D01*
X102685368Y-72273475D01*
X102859760Y-72390000D01*
X102685368Y-72506525D01*
X102478525Y-72713368D01*
X102316010Y-72956589D01*
X102204068Y-73226842D01*
X102147000Y-73513740D01*
X102147000Y-73806260D01*
X102204068Y-74093158D01*
X102316010Y-74363411D01*
X102478525Y-74606632D01*
X102610380Y-74738487D01*
X102537820Y-74760498D01*
X102427506Y-74819463D01*
X102330815Y-74898815D01*
X102251463Y-74995506D01*
X102192498Y-75105820D01*
X102156188Y-75225518D01*
X102143928Y-75350000D01*
X102143928Y-77050000D01*
X102156188Y-77174482D01*
X102192498Y-77294180D01*
X102251463Y-77404494D01*
X102330815Y-77501185D01*
X102427506Y-77580537D01*
X102537820Y-77639502D01*
X102657518Y-77675812D01*
X102782000Y-77688072D01*
X103773034Y-77688072D01*
X104178001Y-78093039D01*
X104178002Y-89592324D01*
X104177574Y-89592147D01*
X103900335Y-89537000D01*
X103617665Y-89537000D01*
X103340426Y-89592147D01*
X103079273Y-89700320D01*
X102844241Y-89857363D01*
X102644363Y-90057241D01*
X102487320Y-90292273D01*
X102379147Y-90553426D01*
X102324000Y-90830665D01*
X102324000Y-91113335D01*
X102379147Y-91390574D01*
X102487320Y-91651727D01*
X102644363Y-91886759D01*
X102810943Y-92053339D01*
X102714820Y-92082498D01*
X102604506Y-92141463D01*
X102507815Y-92220815D01*
X102428463Y-92317506D01*
X102369498Y-92427820D01*
X102333188Y-92547518D01*
X102320928Y-92672000D01*
X102320928Y-94272000D01*
X102333188Y-94396482D01*
X102369498Y-94516180D01*
X102428463Y-94626494D01*
X102507815Y-94723185D01*
X102604506Y-94802537D01*
X102714820Y-94861502D01*
X102806500Y-94889313D01*
X102806501Y-139443772D01*
X102801892Y-139490567D01*
X102820283Y-139677289D01*
X102853614Y-139787165D01*
X102874749Y-139856836D01*
X102963195Y-140022308D01*
X103082223Y-140167345D01*
X103118564Y-140197169D01*
X108307500Y-145386106D01*
X108307500Y-145667099D01*
X108235518Y-145674188D01*
X108115820Y-145710498D01*
X108005506Y-145769463D01*
X107908815Y-145848815D01*
X107829463Y-145945506D01*
X107770498Y-146055820D01*
X107734188Y-146175518D01*
X107721928Y-146300000D01*
X107721928Y-148100000D01*
X107734188Y-148224482D01*
X107770498Y-148344180D01*
X107829463Y-148454494D01*
X107908815Y-148551185D01*
X108005506Y-148630537D01*
X108115820Y-148689502D01*
X108235518Y-148725812D01*
X108360000Y-148738072D01*
X110160000Y-148738072D01*
X110284482Y-148725812D01*
X110404180Y-148689502D01*
X110514494Y-148630537D01*
X110611185Y-148551185D01*
X110690537Y-148454494D01*
X110743880Y-148354697D01*
X110781495Y-148392312D01*
X111032905Y-148560299D01*
X111312257Y-148676011D01*
X111608816Y-148735000D01*
X111911184Y-148735000D01*
X112207743Y-148676011D01*
X112487095Y-148560299D01*
X112738505Y-148392312D01*
X112866737Y-148264080D01*
X113375525Y-148264080D01*
X113459208Y-148518261D01*
X113731775Y-148649158D01*
X114024642Y-148724365D01*
X114326553Y-148740991D01*
X114625907Y-148698397D01*
X114911199Y-148598222D01*
X115060792Y-148518261D01*
X115144475Y-148264080D01*
X114260000Y-147379605D01*
X113375525Y-148264080D01*
X112866737Y-148264080D01*
X112952312Y-148178505D01*
X113047738Y-148035690D01*
X113195920Y-148084475D01*
X114080395Y-147200000D01*
X114439605Y-147200000D01*
X115324080Y-148084475D01*
X115578261Y-148000792D01*
X115709158Y-147728225D01*
X115784365Y-147435358D01*
X115800991Y-147133447D01*
X115758397Y-146834093D01*
X115658222Y-146548801D01*
X115578261Y-146399208D01*
X115324080Y-146315525D01*
X114439605Y-147200000D01*
X114080395Y-147200000D01*
X113195920Y-146315525D01*
X113047738Y-146364310D01*
X112952312Y-146221495D01*
X112866737Y-146135920D01*
X113375525Y-146135920D01*
X114260000Y-147020395D01*
X115144475Y-146135920D01*
X115060792Y-145881739D01*
X114788225Y-145750842D01*
X114495358Y-145675635D01*
X114193447Y-145659009D01*
X113894093Y-145701603D01*
X113608801Y-145801778D01*
X113459208Y-145881739D01*
X113375525Y-146135920D01*
X112866737Y-146135920D01*
X112738505Y-146007688D01*
X112712500Y-145990312D01*
X112712500Y-139342002D01*
X114565000Y-139342002D01*
X114565000Y-140057997D01*
X114593867Y-140351087D01*
X114707943Y-140727146D01*
X114893193Y-141073725D01*
X115142497Y-141377503D01*
X115446275Y-141626807D01*
X115792853Y-141812057D01*
X116168912Y-141926133D01*
X116560000Y-141964652D01*
X116951087Y-141926133D01*
X117327146Y-141812057D01*
X117673725Y-141626807D01*
X117977503Y-141377503D01*
X118226807Y-141073725D01*
X118412057Y-140727147D01*
X118526133Y-140351088D01*
X118555000Y-140057998D01*
X118555000Y-139342003D01*
X118526133Y-139048913D01*
X118412057Y-138672853D01*
X118226807Y-138326275D01*
X117977503Y-138022497D01*
X117673725Y-137773193D01*
X117327147Y-137587943D01*
X116951088Y-137473867D01*
X116560000Y-137435348D01*
X116168913Y-137473867D01*
X115792854Y-137587943D01*
X115446276Y-137773193D01*
X115142498Y-138022497D01*
X114893193Y-138326275D01*
X114707943Y-138672853D01*
X114593867Y-139048912D01*
X114565000Y-139342002D01*
X112712500Y-139342002D01*
X112712500Y-134392290D01*
X115498918Y-131605872D01*
X118669000Y-131605872D01*
X118669000Y-132046128D01*
X118754890Y-132477925D01*
X118923369Y-132884669D01*
X119167962Y-133250729D01*
X119479271Y-133562038D01*
X119845331Y-133806631D01*
X120252075Y-133975110D01*
X120683872Y-134061000D01*
X121124128Y-134061000D01*
X121555925Y-133975110D01*
X121962669Y-133806631D01*
X122328729Y-133562038D01*
X122640038Y-133250729D01*
X122884631Y-132884669D01*
X123053110Y-132477925D01*
X123139000Y-132046128D01*
X123139000Y-131605872D01*
X123053110Y-131174075D01*
X122884631Y-130767331D01*
X122640038Y-130401271D01*
X122328729Y-130089962D01*
X121962669Y-129845369D01*
X121555925Y-129676890D01*
X121124128Y-129591000D01*
X120683872Y-129591000D01*
X120252075Y-129676890D01*
X119845331Y-129845369D01*
X119479271Y-130089962D01*
X119167962Y-130401271D01*
X118923369Y-130767331D01*
X118754890Y-131174075D01*
X118669000Y-131605872D01*
X115498918Y-131605872D01*
X120884930Y-126219860D01*
X120921277Y-126190031D01*
X121040305Y-126044994D01*
X121128751Y-125879522D01*
X121183216Y-125699976D01*
X121196999Y-125560038D01*
X121201607Y-125513253D01*
X121196999Y-125466468D01*
X121196999Y-106811712D01*
X121309109Y-106851481D01*
X121539000Y-106730814D01*
X121539000Y-105537000D01*
X121793000Y-105537000D01*
X121793000Y-106730814D01*
X122022891Y-106851481D01*
X122297252Y-106754157D01*
X122547355Y-106605178D01*
X122763588Y-106410269D01*
X122937641Y-106176920D01*
X123062825Y-105914099D01*
X123107476Y-105766890D01*
X122986155Y-105537000D01*
X121793000Y-105537000D01*
X121539000Y-105537000D01*
X121519000Y-105537000D01*
X121519000Y-105283000D01*
X121539000Y-105283000D01*
X121539000Y-105263000D01*
X121793000Y-105263000D01*
X121793000Y-105283000D01*
X122986155Y-105283000D01*
X123107476Y-105053110D01*
X123062825Y-104905901D01*
X122937641Y-104643080D01*
X122763588Y-104409731D01*
X122547355Y-104214822D01*
X122430466Y-104145195D01*
X122612632Y-104023475D01*
X122819475Y-103816632D01*
X122981990Y-103573411D01*
X123093932Y-103303158D01*
X123151000Y-103016260D01*
X123151000Y-102723740D01*
X123093932Y-102436842D01*
X122981990Y-102166589D01*
X122819475Y-101923368D01*
X122612632Y-101716525D01*
X122438240Y-101600000D01*
X122612632Y-101483475D01*
X122819475Y-101276632D01*
X122981990Y-101033411D01*
X123093932Y-100763158D01*
X123151000Y-100476260D01*
X123151000Y-100183740D01*
X123093932Y-99896842D01*
X122981990Y-99626589D01*
X122819475Y-99383368D01*
X122687620Y-99251513D01*
X122760180Y-99229502D01*
X122870494Y-99170537D01*
X122967185Y-99091185D01*
X123046537Y-98994494D01*
X123105502Y-98884180D01*
X123141812Y-98764482D01*
X123154072Y-98640000D01*
X123154072Y-97648966D01*
X123800000Y-97003039D01*
X123800001Y-106902919D01*
X123803274Y-106936151D01*
X123803274Y-106952637D01*
X123804237Y-106961802D01*
X123831866Y-107208118D01*
X123844297Y-107266598D01*
X123855921Y-107325308D01*
X123858647Y-107334111D01*
X123933592Y-107570369D01*
X123957146Y-107625324D01*
X123979953Y-107680658D01*
X123984336Y-107688764D01*
X124028792Y-107769629D01*
X123942576Y-107855845D01*
X123845723Y-108000795D01*
X123779010Y-108161855D01*
X123745000Y-108332835D01*
X123745000Y-108507165D01*
X123779010Y-108678145D01*
X123837768Y-108820000D01*
X123779010Y-108961855D01*
X123745000Y-109132835D01*
X123745000Y-109307165D01*
X123779010Y-109478145D01*
X123837768Y-109620000D01*
X123779010Y-109761855D01*
X123745000Y-109932835D01*
X123745000Y-110107165D01*
X123779010Y-110278145D01*
X123845723Y-110439205D01*
X123942576Y-110584155D01*
X124028980Y-110670559D01*
X123973081Y-110775691D01*
X123950298Y-110830968D01*
X123926721Y-110885975D01*
X123923997Y-110894778D01*
X123852357Y-111132059D01*
X123840736Y-111190746D01*
X123828300Y-111249252D01*
X123827337Y-111258417D01*
X123803150Y-111505095D01*
X123803150Y-111505108D01*
X123800001Y-111537081D01*
X123800000Y-120872918D01*
X123803274Y-120906160D01*
X123803274Y-120922637D01*
X123804237Y-120931802D01*
X123831866Y-121178118D01*
X123844297Y-121236598D01*
X123855921Y-121295308D01*
X123858647Y-121304111D01*
X123933592Y-121540369D01*
X123957146Y-121595324D01*
X123979953Y-121650658D01*
X123984336Y-121658764D01*
X124028792Y-121739629D01*
X123942576Y-121825845D01*
X123845723Y-121970795D01*
X123779010Y-122131855D01*
X123745000Y-122302835D01*
X123745000Y-122477165D01*
X123779010Y-122648145D01*
X123837768Y-122790000D01*
X123779010Y-122931855D01*
X123745000Y-123102835D01*
X123745000Y-123277165D01*
X123779010Y-123448145D01*
X123837768Y-123590000D01*
X123779010Y-123731855D01*
X123745000Y-123902835D01*
X123745000Y-124077165D01*
X123779010Y-124248145D01*
X123845723Y-124409205D01*
X123942576Y-124554155D01*
X124028980Y-124640559D01*
X123973081Y-124745691D01*
X123950298Y-124800968D01*
X123926721Y-124855975D01*
X123923997Y-124864778D01*
X123852357Y-125102059D01*
X123840736Y-125160746D01*
X123828300Y-125219252D01*
X123827337Y-125228417D01*
X123803158Y-125475015D01*
X123800000Y-125507082D01*
X123800001Y-137382919D01*
X123803274Y-137416151D01*
X123803274Y-137432637D01*
X123804237Y-137441802D01*
X123831866Y-137688118D01*
X123844297Y-137746598D01*
X123855921Y-137805308D01*
X123858647Y-137814111D01*
X123933592Y-138050369D01*
X123957146Y-138105324D01*
X123979953Y-138160658D01*
X123984336Y-138168764D01*
X124028792Y-138249629D01*
X123942576Y-138335845D01*
X123845723Y-138480795D01*
X123779010Y-138641855D01*
X123745000Y-138812835D01*
X123745000Y-138987165D01*
X123779010Y-139158145D01*
X123837768Y-139300000D01*
X123779010Y-139441855D01*
X123745000Y-139612835D01*
X123745000Y-139787165D01*
X123779010Y-139958145D01*
X123837768Y-140100000D01*
X123779010Y-140241855D01*
X123745000Y-140412835D01*
X123745000Y-140587165D01*
X123779010Y-140758145D01*
X123845723Y-140919205D01*
X123942576Y-141064155D01*
X124028980Y-141150559D01*
X123973081Y-141255691D01*
X123950298Y-141310968D01*
X123926721Y-141365975D01*
X123923997Y-141374778D01*
X123852357Y-141612059D01*
X123840736Y-141670746D01*
X123828300Y-141729252D01*
X123827337Y-141738417D01*
X123803158Y-141985015D01*
X123800000Y-142017082D01*
X123800001Y-148557711D01*
X123785278Y-148707869D01*
X123751047Y-148821246D01*
X123695446Y-148925817D01*
X123620594Y-149017595D01*
X123529335Y-149093091D01*
X123425160Y-149149419D01*
X123312024Y-149184440D01*
X123163979Y-149200000D01*
X101632279Y-149200000D01*
X101482131Y-149185278D01*
X101368754Y-149151047D01*
X101264183Y-149095446D01*
X101172405Y-149020594D01*
X101096909Y-148929335D01*
X101040581Y-148825160D01*
X101005560Y-148712024D01*
X100990000Y-148563979D01*
X100990000Y-63117361D01*
X107875000Y-63117361D01*
X107875000Y-63882639D01*
X108024298Y-64633213D01*
X108317158Y-65340238D01*
X108742323Y-65976543D01*
X109283457Y-66517677D01*
X109919762Y-66942842D01*
X110626787Y-67235702D01*
X111377361Y-67385000D01*
X112142639Y-67385000D01*
X112893213Y-67235702D01*
X113600238Y-66942842D01*
X113753438Y-66840477D01*
X117902283Y-70989321D01*
X117884363Y-71007241D01*
X117727320Y-71242273D01*
X117619147Y-71503426D01*
X117564000Y-71780665D01*
X117564000Y-72063335D01*
X117619147Y-72340574D01*
X117727320Y-72601727D01*
X117884363Y-72836759D01*
X118050943Y-73003339D01*
X117954820Y-73032498D01*
X117844506Y-73091463D01*
X117747815Y-73170815D01*
X117668463Y-73267506D01*
X117609498Y-73377820D01*
X117573188Y-73497518D01*
X117560928Y-73622000D01*
X117560928Y-75222000D01*
X117573188Y-75346482D01*
X117609498Y-75466180D01*
X117668463Y-75576494D01*
X117747815Y-75673185D01*
X117844506Y-75752537D01*
X117954820Y-75811502D01*
X118074518Y-75847812D01*
X118199000Y-75860072D01*
X119799000Y-75860072D01*
X119923482Y-75847812D01*
X120043180Y-75811502D01*
X120153494Y-75752537D01*
X120250185Y-75673185D01*
X120329537Y-75576494D01*
X120388502Y-75466180D01*
X120424812Y-75346482D01*
X120437072Y-75222000D01*
X120437072Y-73622000D01*
X120424812Y-73497518D01*
X120388502Y-73377820D01*
X120329537Y-73267506D01*
X120250185Y-73170815D01*
X120153494Y-73091463D01*
X120043180Y-73032498D01*
X119947057Y-73003339D01*
X120113637Y-72836759D01*
X120270680Y-72601727D01*
X120378853Y-72340574D01*
X120434000Y-72063335D01*
X120434000Y-71780665D01*
X120378853Y-71503426D01*
X120270680Y-71242273D01*
X120113637Y-71007241D01*
X119951500Y-70845104D01*
X119951500Y-70785785D01*
X119956108Y-70739000D01*
X119948630Y-70663071D01*
X119937717Y-70552277D01*
X119883252Y-70372731D01*
X119794806Y-70207259D01*
X119675778Y-70062222D01*
X119639436Y-70032397D01*
X115100477Y-65493438D01*
X115202842Y-65340238D01*
X115495702Y-64633213D01*
X115645000Y-63882639D01*
X115645000Y-63117361D01*
X115495702Y-62366787D01*
X115267161Y-61815041D01*
X115487727Y-61723680D01*
X115722759Y-61566637D01*
X115922637Y-61366759D01*
X116079680Y-61131727D01*
X116187853Y-60870574D01*
X116243000Y-60593335D01*
X116243000Y-60310665D01*
X116187853Y-60033426D01*
X116079680Y-59772273D01*
X115922637Y-59537241D01*
X115722759Y-59337363D01*
X115487727Y-59180320D01*
X115226574Y-59072147D01*
X114949335Y-59017000D01*
X114666665Y-59017000D01*
X114389426Y-59072147D01*
X114128273Y-59180320D01*
X113893241Y-59337363D01*
X113693363Y-59537241D01*
X113536320Y-59772273D01*
X113444959Y-59992839D01*
X112893213Y-59764298D01*
X112142639Y-59615000D01*
X111377361Y-59615000D01*
X110626787Y-59764298D01*
X109919762Y-60057158D01*
X109283457Y-60482323D01*
X108742323Y-61023457D01*
X108317158Y-61659762D01*
X108024298Y-62366787D01*
X107875000Y-63117361D01*
X100990000Y-63117361D01*
X100990000Y-41435872D01*
X101651000Y-41435872D01*
X101651000Y-41876128D01*
X101736890Y-42307925D01*
X101905369Y-42714669D01*
X102149962Y-43080729D01*
X102461271Y-43392038D01*
X102827331Y-43636631D01*
X103234075Y-43805110D01*
X103665872Y-43891000D01*
X104106128Y-43891000D01*
X104537925Y-43805110D01*
X104944669Y-43636631D01*
X105310729Y-43392038D01*
X105622038Y-43080729D01*
X105866631Y-42714669D01*
X106035110Y-42307925D01*
X106121000Y-41876128D01*
X106121000Y-41435872D01*
X106035110Y-41004075D01*
X105866631Y-40597331D01*
X105622038Y-40231271D01*
X105310729Y-39919962D01*
X104944669Y-39675369D01*
X104537925Y-39506890D01*
X104106128Y-39421000D01*
X103665872Y-39421000D01*
X103234075Y-39506890D01*
X102827331Y-39675369D01*
X102461271Y-39919962D01*
X102149962Y-40231271D01*
X101905369Y-40597331D01*
X101736890Y-41004075D01*
X101651000Y-41435872D01*
X100990000Y-41435872D01*
X100990000Y-39402279D01*
X101004722Y-39252131D01*
X101038953Y-39138754D01*
X101094555Y-39034181D01*
X101169407Y-38942404D01*
X101260664Y-38866909D01*
X101364844Y-38810581D01*
X101477976Y-38775560D01*
X101626022Y-38760000D01*
X123157721Y-38760000D01*
X123307869Y-38774722D01*
G37*
%TD.AperFunction*%
%TD*%
M02*
