%TF.GenerationSoftware,KiCad,Pcbnew,(5.1.8-0-10_14)*%
%TF.CreationDate,2021-07-08T18:43:47+01:00*%
%TF.ProjectId,4u-music-thing-spring-reverb,34752d6d-7573-4696-932d-7468696e672d,rev?*%
%TF.SameCoordinates,Original*%
%TF.FileFunction,Soldermask,Top*%
%TF.FilePolarity,Negative*%
%FSLAX46Y46*%
G04 Gerber Fmt 4.6, Leading zero omitted, Abs format (unit mm)*
G04 Created by KiCad (PCBNEW (5.1.8-0-10_14)) date 2021-07-08 18:43:47*
%MOMM*%
%LPD*%
G01*
G04 APERTURE LIST*
%ADD10C,0.500000*%
%ADD11C,3.200000*%
%ADD12C,1.600000*%
%ADD13O,2.720000X3.240000*%
%ADD14C,1.800000*%
%ADD15R,1.800000X1.800000*%
%ADD16O,1.700000X1.700000*%
%ADD17R,1.700000X1.700000*%
%ADD18O,1.600000X1.600000*%
%ADD19R,1.600000X1.600000*%
%ADD20C,2.000000*%
%ADD21C,1.500000*%
%ADD22C,2.032000*%
%ADD23O,1.740000X2.190000*%
%ADD24C,6.500000*%
G04 APERTURE END LIST*
D10*
%TO.C,mouse-bite-2.54mm-slot*%
X126957000Y-123279000D03*
X126957000Y-124879000D03*
X124757000Y-124879000D03*
X124757000Y-123279000D03*
X126957000Y-124079000D03*
X124757000Y-124079000D03*
%TD*%
%TO.C,mouse-bite-2.54mm-slot*%
X126957000Y-90259000D03*
X126957000Y-91859000D03*
X124757000Y-91859000D03*
X124757000Y-90259000D03*
X126957000Y-91059000D03*
X124757000Y-91059000D03*
%TD*%
%TO.C,mouse-bite-2.54mm-slot*%
X126957000Y-43650000D03*
X126957000Y-45250000D03*
X124757000Y-45250000D03*
X124757000Y-43650000D03*
X126957000Y-44450000D03*
X124757000Y-44450000D03*
%TD*%
%TO.C,mouse-bite-2.54mm-slot*%
X126957000Y-72860000D03*
X126957000Y-74460000D03*
X124757000Y-74460000D03*
X124757000Y-72860000D03*
X126957000Y-73660000D03*
X124757000Y-73660000D03*
%TD*%
%TO.C,mouse-bite-2.54mm-slot*%
X126957000Y-108420000D03*
X126957000Y-110020000D03*
X124757000Y-110020000D03*
X124757000Y-108420000D03*
X126957000Y-109220000D03*
X124757000Y-109220000D03*
%TD*%
%TO.C,mouse-bite-2.54mm-slot*%
X126957000Y-139789000D03*
X126957000Y-141389000D03*
X124757000Y-141389000D03*
X124757000Y-139789000D03*
X126957000Y-140589000D03*
X124757000Y-140589000D03*
%TD*%
D11*
%TO.C,REF\u002A\u002A*%
X120904000Y-53340000D03*
%TD*%
%TO.C,REF\u002A\u002A*%
X130810000Y-53340000D03*
%TD*%
%TO.C,REF\u002A\u002A*%
X148590000Y-113030000D03*
%TD*%
%TO.C,REF\u002A\u002A*%
X103124000Y-113030000D03*
%TD*%
D12*
%TO.C,C16*%
X129540000Y-78740000D03*
X129540000Y-73740000D03*
%TD*%
%TO.C,C15*%
X133350000Y-74930000D03*
X138350000Y-74930000D03*
%TD*%
%TO.C,C14*%
X143430000Y-58420000D03*
X138430000Y-58420000D03*
%TD*%
%TO.C,C13*%
X142875000Y-120650000D03*
X137875000Y-120650000D03*
%TD*%
%TO.C,C12*%
X130175000Y-137715000D03*
X130175000Y-132715000D03*
%TD*%
%TO.C,C8*%
X130175000Y-124540000D03*
X130175000Y-129540000D03*
%TD*%
%TO.C,C7*%
X149225000Y-123825000D03*
X149225000Y-118825000D03*
%TD*%
%TO.C,C6*%
X146050000Y-123825000D03*
X146050000Y-118825000D03*
%TD*%
%TO.C,C5*%
X137875000Y-135890000D03*
X142875000Y-135890000D03*
%TD*%
%TO.C,C4*%
X149780000Y-75565000D03*
X144780000Y-75565000D03*
%TD*%
D13*
%TO.C,RV3*%
X107214000Y-101720000D03*
X116814000Y-101720000D03*
D14*
X114514000Y-109220000D03*
X112014000Y-109220000D03*
D15*
X109514000Y-109220000D03*
%TD*%
D16*
%TO.C,J8*%
X134620000Y-92710000D03*
X134620000Y-90170000D03*
X137160000Y-92710000D03*
X137160000Y-90170000D03*
X139700000Y-92710000D03*
X139700000Y-90170000D03*
X142240000Y-92710000D03*
X142240000Y-90170000D03*
X144780000Y-92710000D03*
X144780000Y-90170000D03*
X147320000Y-92710000D03*
D17*
X147320000Y-90170000D03*
%TD*%
D16*
%TO.C,J7*%
X117094000Y-92710000D03*
X117094000Y-90170000D03*
X114554000Y-92710000D03*
X114554000Y-90170000D03*
X112014000Y-92710000D03*
X112014000Y-90170000D03*
X109474000Y-92710000D03*
X109474000Y-90170000D03*
X106934000Y-92710000D03*
X106934000Y-90170000D03*
X104394000Y-92710000D03*
D17*
X104394000Y-90170000D03*
%TD*%
D18*
%TO.C,U2*%
X133985000Y-132080000D03*
X141605000Y-124460000D03*
X133985000Y-129540000D03*
X141605000Y-127000000D03*
X133985000Y-127000000D03*
X141605000Y-129540000D03*
X133985000Y-124460000D03*
D19*
X141605000Y-132080000D03*
%TD*%
D18*
%TO.C,U1*%
X137795000Y-62230000D03*
X130175000Y-69850000D03*
X137795000Y-64770000D03*
X130175000Y-67310000D03*
X137795000Y-67310000D03*
X130175000Y-64770000D03*
X137795000Y-69850000D03*
D19*
X130175000Y-62230000D03*
%TD*%
D13*
%TO.C,RV2*%
X107214000Y-139820000D03*
X116814000Y-139820000D03*
D14*
X114514000Y-147320000D03*
X112014000Y-147320000D03*
D15*
X109514000Y-147320000D03*
%TD*%
D13*
%TO.C,RV1*%
X107214000Y-120770000D03*
X116814000Y-120770000D03*
D14*
X114514000Y-128270000D03*
X112014000Y-128270000D03*
D15*
X109514000Y-128270000D03*
%TD*%
D18*
%TO.C,R13*%
X141605000Y-65405000D03*
D12*
X141605000Y-75565000D03*
%TD*%
D18*
%TO.C,R12*%
X139700000Y-81915000D03*
D12*
X129540000Y-81915000D03*
%TD*%
D18*
%TO.C,R11*%
X134620000Y-107950000D03*
D12*
X134620000Y-118110000D03*
%TD*%
D18*
%TO.C,R10*%
X131445000Y-107950000D03*
D12*
X131445000Y-118110000D03*
%TD*%
D18*
%TO.C,R9*%
X149225000Y-136525000D03*
D12*
X149225000Y-126365000D03*
%TD*%
D18*
%TO.C,R8*%
X146050000Y-136525000D03*
D12*
X146050000Y-126365000D03*
%TD*%
D18*
%TO.C,R7*%
X139065000Y-139700000D03*
D12*
X149225000Y-139700000D03*
%TD*%
D18*
%TO.C,R6*%
X149860000Y-78740000D03*
D12*
X139700000Y-78740000D03*
%TD*%
D18*
%TO.C,R5*%
X138430000Y-104140000D03*
D12*
X138430000Y-114300000D03*
%TD*%
D18*
%TO.C,R4*%
X146685000Y-48260000D03*
D12*
X146685000Y-58420000D03*
%TD*%
D18*
%TO.C,R3*%
X141605000Y-104140000D03*
D12*
X141605000Y-114300000D03*
%TD*%
D20*
%TO.C,R2*%
X140970000Y-49570000D03*
X138470000Y-52070000D03*
X143470000Y-52070000D03*
%TD*%
D18*
%TO.C,R1*%
X149860000Y-58420000D03*
D12*
X149860000Y-48260000D03*
%TD*%
D21*
%TO.C,TANK_SEND*%
X134112000Y-40640000D03*
G36*
G01*
X135128000Y-42608000D02*
X135128000Y-44132000D01*
G75*
G02*
X134874000Y-44386000I-254000J0D01*
G01*
X133350000Y-44386000D01*
G75*
G02*
X133096000Y-44132000I0J254000D01*
G01*
X133096000Y-42608000D01*
G75*
G02*
X133350000Y-42354000I254000J0D01*
G01*
X134874000Y-42354000D01*
G75*
G02*
X135128000Y-42608000I0J-254000D01*
G01*
G37*
X130810000Y-40640000D03*
D22*
X130810000Y-43370000D03*
%TD*%
D23*
%TO.C,J5*%
X143510000Y-146050000D03*
X140970000Y-146050000D03*
X138430000Y-146050000D03*
G36*
G01*
X135020000Y-146895001D02*
X135020000Y-145204999D01*
G75*
G02*
X135269999Y-144955000I249999J0D01*
G01*
X136510001Y-144955000D01*
G75*
G02*
X136760000Y-145204999I0J-249999D01*
G01*
X136760000Y-146895001D01*
G75*
G02*
X136510001Y-147145000I-249999J0D01*
G01*
X135269999Y-147145000D01*
G75*
G02*
X135020000Y-146895001I0J249999D01*
G01*
G37*
%TD*%
D12*
%TO.C,J4*%
X115062000Y-41402000D03*
D24*
X112014000Y-44450000D03*
%TD*%
D21*
%TO.C,TANK_RETURN*%
X148590000Y-40640000D03*
G36*
G01*
X149606000Y-42608000D02*
X149606000Y-44132000D01*
G75*
G02*
X149352000Y-44386000I-254000J0D01*
G01*
X147828000Y-44386000D01*
G75*
G02*
X147574000Y-44132000I0J254000D01*
G01*
X147574000Y-42608000D01*
G75*
G02*
X147828000Y-42354000I254000J0D01*
G01*
X149352000Y-42354000D01*
G75*
G02*
X149606000Y-42608000I0J-254000D01*
G01*
G37*
X145288000Y-40640000D03*
D22*
X145288000Y-43370000D03*
%TD*%
D12*
%TO.C,J2*%
X115062000Y-79502000D03*
D24*
X112014000Y-82550000D03*
%TD*%
D12*
%TO.C,J1*%
X115062000Y-60452000D03*
D24*
X112014000Y-63500000D03*
%TD*%
D12*
%TO.C,C11*%
X139700000Y-43140000D03*
D19*
X139700000Y-40640000D03*
%TD*%
D12*
%TO.C,C10*%
X147360000Y-146050000D03*
D19*
X149860000Y-146050000D03*
%TD*%
D12*
%TO.C,C9*%
X129540000Y-146050000D03*
D19*
X132040000Y-146050000D03*
%TD*%
D12*
%TO.C,C3*%
X147955000Y-67985000D03*
D19*
X147955000Y-70485000D03*
%TD*%
D12*
%TO.C,C2*%
X147320000Y-97790000D03*
D19*
X144820000Y-97790000D03*
%TD*%
D12*
%TO.C,C1*%
X149860000Y-85090000D03*
D19*
X147360000Y-85090000D03*
%TD*%
M02*
