%TF.GenerationSoftware,KiCad,Pcbnew,(5.1.8-0-10_14)*%
%TF.CreationDate,2021-07-08T18:43:47+01:00*%
%TF.ProjectId,4u-music-thing-spring-reverb,34752d6d-7573-4696-932d-7468696e672d,rev?*%
%TF.SameCoordinates,Original*%
%TF.FileFunction,Legend,Bot*%
%TF.FilePolarity,Positive*%
%FSLAX46Y46*%
G04 Gerber Fmt 4.6, Leading zero omitted, Abs format (unit mm)*
G04 Created by KiCad (PCBNEW (5.1.8-0-10_14)) date 2021-07-08 18:43:47*
%MOMM*%
%LPD*%
G01*
G04 APERTURE LIST*
%ADD10C,0.120000*%
%ADD11C,0.150000*%
G04 APERTURE END LIST*
D10*
%TO.C,J8*%
X148650000Y-90170000D02*
X148650000Y-88840000D01*
X148650000Y-88840000D02*
X147320000Y-88840000D01*
X148650000Y-91440000D02*
X146050000Y-91440000D01*
X146050000Y-91440000D02*
X146050000Y-88840000D01*
X146050000Y-88840000D02*
X133290000Y-88840000D01*
X133290000Y-94040000D02*
X133290000Y-88840000D01*
X148650000Y-94040000D02*
X133290000Y-94040000D01*
X148650000Y-94040000D02*
X148650000Y-91440000D01*
%TO.C,J7*%
X103064000Y-88840000D02*
X103064000Y-90170000D01*
X104394000Y-88840000D02*
X103064000Y-88840000D01*
X103064000Y-91440000D02*
X103064000Y-94040000D01*
X105664000Y-91440000D02*
X103064000Y-91440000D01*
X105664000Y-88840000D02*
X105664000Y-91440000D01*
X103064000Y-94040000D02*
X118424000Y-94040000D01*
X105664000Y-88840000D02*
X118424000Y-88840000D01*
X118424000Y-88840000D02*
X118424000Y-94040000D01*
%TO.C,J8*%
D11*
X149542380Y-91106666D02*
X150256666Y-91106666D01*
X150399523Y-91059047D01*
X150494761Y-90963809D01*
X150542380Y-90820952D01*
X150542380Y-90725714D01*
X149970952Y-91725714D02*
X149923333Y-91630476D01*
X149875714Y-91582857D01*
X149780476Y-91535238D01*
X149732857Y-91535238D01*
X149637619Y-91582857D01*
X149590000Y-91630476D01*
X149542380Y-91725714D01*
X149542380Y-91916190D01*
X149590000Y-92011428D01*
X149637619Y-92059047D01*
X149732857Y-92106666D01*
X149780476Y-92106666D01*
X149875714Y-92059047D01*
X149923333Y-92011428D01*
X149970952Y-91916190D01*
X149970952Y-91725714D01*
X150018571Y-91630476D01*
X150066190Y-91582857D01*
X150161428Y-91535238D01*
X150351904Y-91535238D01*
X150447142Y-91582857D01*
X150494761Y-91630476D01*
X150542380Y-91725714D01*
X150542380Y-91916190D01*
X150494761Y-92011428D01*
X150447142Y-92059047D01*
X150351904Y-92106666D01*
X150161428Y-92106666D01*
X150066190Y-92059047D01*
X150018571Y-92011428D01*
X149970952Y-91916190D01*
%TO.C,J7*%
X101516380Y-91106666D02*
X102230666Y-91106666D01*
X102373523Y-91059047D01*
X102468761Y-90963809D01*
X102516380Y-90820952D01*
X102516380Y-90725714D01*
X101516380Y-91487619D02*
X101516380Y-92154285D01*
X102516380Y-91725714D01*
%TD*%
M02*
