%TF.GenerationSoftware,KiCad,Pcbnew,(5.1.8-0-10_14)*%
%TF.CreationDate,2021-07-20T13:11:58+01:00*%
%TF.ProjectId,4u-music-thing-spring-reverb,34752d6d-7573-4696-932d-7468696e672d,rev?*%
%TF.SameCoordinates,Original*%
%TF.FileFunction,Legend,Top*%
%TF.FilePolarity,Positive*%
%FSLAX46Y46*%
G04 Gerber Fmt 4.6, Leading zero omitted, Abs format (unit mm)*
G04 Created by KiCad (PCBNEW (5.1.8-0-10_14)) date 2021-07-20 13:11:58*
%MOMM*%
%LPD*%
G01*
G04 APERTURE LIST*
%ADD10C,0.150000*%
%ADD11C,0.120000*%
%ADD12C,0.152400*%
G04 APERTURE END LIST*
D10*
X102116571Y-51141761D02*
X102259428Y-51189380D01*
X102497523Y-51189380D01*
X102592761Y-51141761D01*
X102640380Y-51094142D01*
X102688000Y-50998904D01*
X102688000Y-50903666D01*
X102640380Y-50808428D01*
X102592761Y-50760809D01*
X102497523Y-50713190D01*
X102307047Y-50665571D01*
X102211809Y-50617952D01*
X102164190Y-50570333D01*
X102116571Y-50475095D01*
X102116571Y-50379857D01*
X102164190Y-50284619D01*
X102211809Y-50237000D01*
X102307047Y-50189380D01*
X102545142Y-50189380D01*
X102688000Y-50237000D01*
X103116571Y-50522714D02*
X103116571Y-51522714D01*
X103116571Y-50570333D02*
X103211809Y-50522714D01*
X103402285Y-50522714D01*
X103497523Y-50570333D01*
X103545142Y-50617952D01*
X103592761Y-50713190D01*
X103592761Y-50998904D01*
X103545142Y-51094142D01*
X103497523Y-51141761D01*
X103402285Y-51189380D01*
X103211809Y-51189380D01*
X103116571Y-51141761D01*
X104021333Y-51189380D02*
X104021333Y-50522714D01*
X104021333Y-50713190D02*
X104068952Y-50617952D01*
X104116571Y-50570333D01*
X104211809Y-50522714D01*
X104307047Y-50522714D01*
X104640380Y-51189380D02*
X104640380Y-50522714D01*
X104640380Y-50189380D02*
X104592761Y-50237000D01*
X104640380Y-50284619D01*
X104688000Y-50237000D01*
X104640380Y-50189380D01*
X104640380Y-50284619D01*
X105116571Y-50522714D02*
X105116571Y-51189380D01*
X105116571Y-50617952D02*
X105164190Y-50570333D01*
X105259428Y-50522714D01*
X105402285Y-50522714D01*
X105497523Y-50570333D01*
X105545142Y-50665571D01*
X105545142Y-51189380D01*
X106449904Y-50522714D02*
X106449904Y-51332238D01*
X106402285Y-51427476D01*
X106354666Y-51475095D01*
X106259428Y-51522714D01*
X106116571Y-51522714D01*
X106021333Y-51475095D01*
X106449904Y-51141761D02*
X106354666Y-51189380D01*
X106164190Y-51189380D01*
X106068952Y-51141761D01*
X106021333Y-51094142D01*
X105973714Y-50998904D01*
X105973714Y-50713190D01*
X106021333Y-50617952D01*
X106068952Y-50570333D01*
X106164190Y-50522714D01*
X106354666Y-50522714D01*
X106449904Y-50570333D01*
X108259428Y-51189380D02*
X107926095Y-50713190D01*
X107688000Y-51189380D02*
X107688000Y-50189380D01*
X108068952Y-50189380D01*
X108164190Y-50237000D01*
X108211809Y-50284619D01*
X108259428Y-50379857D01*
X108259428Y-50522714D01*
X108211809Y-50617952D01*
X108164190Y-50665571D01*
X108068952Y-50713190D01*
X107688000Y-50713190D01*
X109068952Y-51141761D02*
X108973714Y-51189380D01*
X108783238Y-51189380D01*
X108688000Y-51141761D01*
X108640380Y-51046523D01*
X108640380Y-50665571D01*
X108688000Y-50570333D01*
X108783238Y-50522714D01*
X108973714Y-50522714D01*
X109068952Y-50570333D01*
X109116571Y-50665571D01*
X109116571Y-50760809D01*
X108640380Y-50856047D01*
X109449904Y-50522714D02*
X109688000Y-51189380D01*
X109926095Y-50522714D01*
X110688000Y-51141761D02*
X110592761Y-51189380D01*
X110402285Y-51189380D01*
X110307047Y-51141761D01*
X110259428Y-51046523D01*
X110259428Y-50665571D01*
X110307047Y-50570333D01*
X110402285Y-50522714D01*
X110592761Y-50522714D01*
X110688000Y-50570333D01*
X110735619Y-50665571D01*
X110735619Y-50760809D01*
X110259428Y-50856047D01*
X111164190Y-51189380D02*
X111164190Y-50522714D01*
X111164190Y-50713190D02*
X111211809Y-50617952D01*
X111259428Y-50570333D01*
X111354666Y-50522714D01*
X111449904Y-50522714D01*
X111783238Y-51189380D02*
X111783238Y-50189380D01*
X111783238Y-50570333D02*
X111878476Y-50522714D01*
X112068952Y-50522714D01*
X112164190Y-50570333D01*
X112211809Y-50617952D01*
X112259428Y-50713190D01*
X112259428Y-50998904D01*
X112211809Y-51094142D01*
X112164190Y-51141761D01*
X112068952Y-51189380D01*
X111878476Y-51189380D01*
X111783238Y-51141761D01*
X106164190Y-52839380D02*
X106164190Y-52172714D01*
X106164190Y-52363190D02*
X106211809Y-52267952D01*
X106259428Y-52220333D01*
X106354666Y-52172714D01*
X106449904Y-52172714D01*
X106973714Y-51839380D02*
X107068952Y-51839380D01*
X107164190Y-51887000D01*
X107211809Y-51934619D01*
X107259428Y-52029857D01*
X107307047Y-52220333D01*
X107307047Y-52458428D01*
X107259428Y-52648904D01*
X107211809Y-52744142D01*
X107164190Y-52791761D01*
X107068952Y-52839380D01*
X106973714Y-52839380D01*
X106878476Y-52791761D01*
X106830857Y-52744142D01*
X106783238Y-52648904D01*
X106735619Y-52458428D01*
X106735619Y-52220333D01*
X106783238Y-52029857D01*
X106830857Y-51934619D01*
X106878476Y-51887000D01*
X106973714Y-51839380D01*
X107688000Y-51934619D02*
X107735619Y-51887000D01*
X107830857Y-51839380D01*
X108068952Y-51839380D01*
X108164190Y-51887000D01*
X108211809Y-51934619D01*
X108259428Y-52029857D01*
X108259428Y-52125095D01*
X108211809Y-52267952D01*
X107640380Y-52839380D01*
X108259428Y-52839380D01*
X141557476Y-149169428D02*
X142319380Y-149169428D01*
X142652714Y-148550380D02*
X142986047Y-149550380D01*
X143319380Y-148550380D01*
X133810476Y-149042428D02*
X134572380Y-149042428D01*
X134191428Y-149423380D02*
X134191428Y-148661476D01*
X134905714Y-148423380D02*
X135239047Y-149423380D01*
X135572380Y-148423380D01*
D11*
%TO.C,R14*%
X140486000Y-70612000D02*
G75*
G03*
X140486000Y-70612000I-1000000J0D01*
G01*
X139486000Y-71612000D02*
X139486000Y-69612000D01*
X140486000Y-70612000D02*
X138486000Y-70612000D01*
X143986000Y-68862000D02*
X143986000Y-72362000D01*
X135986000Y-74362000D02*
X141986000Y-74362000D01*
X134986000Y-67862000D02*
X134986000Y-73362000D01*
X141986000Y-66862000D02*
X135986000Y-66862000D01*
%TO.C,R13*%
X129794000Y-125960000D02*
X129794000Y-125190000D01*
X129794000Y-117880000D02*
X129794000Y-118650000D01*
X131164000Y-125190000D02*
X131164000Y-118650000D01*
X128424000Y-125190000D02*
X131164000Y-125190000D01*
X128424000Y-118650000D02*
X128424000Y-125190000D01*
X131164000Y-118650000D02*
X128424000Y-118650000D01*
%TO.C,R2*%
X129413000Y-79986000D02*
X129413000Y-79216000D01*
X129413000Y-71906000D02*
X129413000Y-72676000D01*
X130783000Y-79216000D02*
X130783000Y-72676000D01*
X128043000Y-79216000D02*
X130783000Y-79216000D01*
X128043000Y-72676000D02*
X128043000Y-79216000D01*
X130783000Y-72676000D02*
X128043000Y-72676000D01*
%TO.C,J8*%
X143040000Y-142350000D02*
X143040000Y-141750000D01*
X141440000Y-142350000D02*
X143040000Y-142350000D01*
X141440000Y-141750000D02*
X141440000Y-142350000D01*
X140500000Y-142350000D02*
X140500000Y-141750000D01*
X138900000Y-142350000D02*
X140500000Y-142350000D01*
X138900000Y-141750000D02*
X138900000Y-142350000D01*
X137960000Y-142350000D02*
X137960000Y-141750000D01*
X136360000Y-142350000D02*
X137960000Y-142350000D01*
X136360000Y-141750000D02*
X136360000Y-142350000D01*
X135420000Y-142350000D02*
X135420000Y-141750000D01*
X133820000Y-142350000D02*
X135420000Y-142350000D01*
X133820000Y-141750000D02*
X133820000Y-142350000D01*
X141990000Y-147770000D02*
X141990000Y-146770000D01*
X134870000Y-147770000D02*
X134870000Y-146770000D01*
X141990000Y-146240000D02*
X142240000Y-146770000D01*
X134870000Y-146240000D02*
X141990000Y-146240000D01*
X134620000Y-146770000D02*
X134870000Y-146240000D01*
X142240000Y-146770000D02*
X142240000Y-147770000D01*
X134620000Y-146770000D02*
X142240000Y-146770000D01*
X134620000Y-147770000D02*
X134620000Y-146770000D01*
X132950000Y-142780000D02*
X132950000Y-146780000D01*
X143620000Y-141750000D02*
X133240000Y-141750000D01*
X143620000Y-147770000D02*
X143620000Y-141750000D01*
X133240000Y-147770000D02*
X143620000Y-147770000D01*
X133240000Y-141750000D02*
X133240000Y-147770000D01*
D12*
%TO.C,J5*%
X140716000Y-40640000D02*
G75*
G02*
X143764000Y-40640000I1524000J0D01*
G01*
X137414000Y-40640000D02*
G75*
G02*
X140462000Y-40640000I1524000J0D01*
G01*
X143256000Y-44958000D02*
X143764000Y-44450000D01*
X143764000Y-44450000D02*
X143764000Y-40640000D01*
X140716000Y-40640000D02*
X140716000Y-44450000D01*
X141224000Y-44958000D02*
X143256000Y-44958000D01*
X140716000Y-44450000D02*
X141224000Y-44958000D01*
X140462000Y-44450000D02*
X140462000Y-40640000D01*
X139954000Y-44958000D02*
X140462000Y-44450000D01*
X137922000Y-44958000D02*
X139954000Y-44958000D01*
X137414000Y-44450000D02*
X137922000Y-44958000D01*
X137414000Y-40640000D02*
X137414000Y-44450000D01*
D11*
%TO.C,J3*%
X114808000Y-59436000D02*
G75*
G02*
X115824000Y-60452000I0J-1016000D01*
G01*
X115824000Y-63500000D02*
G75*
G02*
X111760000Y-59436000I-4064000J0D01*
G01*
X115824000Y-60452000D02*
X115824000Y-63500000D01*
X111760000Y-59436000D02*
X114808000Y-59436000D01*
D12*
%TO.C,J2*%
X131318000Y-40386000D02*
G75*
G02*
X134366000Y-40386000I1524000J0D01*
G01*
X128016000Y-40386000D02*
G75*
G02*
X131064000Y-40386000I1524000J0D01*
G01*
X133858000Y-44704000D02*
X134366000Y-44196000D01*
X134366000Y-44196000D02*
X134366000Y-40386000D01*
X131318000Y-40386000D02*
X131318000Y-44196000D01*
X131826000Y-44704000D02*
X133858000Y-44704000D01*
X131318000Y-44196000D02*
X131826000Y-44704000D01*
X131064000Y-44196000D02*
X131064000Y-40386000D01*
X130556000Y-44704000D02*
X131064000Y-44196000D01*
X128524000Y-44704000D02*
X130556000Y-44704000D01*
X128016000Y-44196000D02*
X128524000Y-44704000D01*
X128016000Y-40386000D02*
X128016000Y-44196000D01*
D11*
%TO.C,C13*%
X146618000Y-136398000D02*
G75*
G03*
X146618000Y-136398000I-2620000J0D01*
G01*
X143998000Y-133818000D02*
X143998000Y-138978000D01*
X144038000Y-133818000D02*
X144038000Y-138978000D01*
X144078000Y-133819000D02*
X144078000Y-138977000D01*
X144118000Y-133820000D02*
X144118000Y-138976000D01*
X144158000Y-133822000D02*
X144158000Y-138974000D01*
X144198000Y-133825000D02*
X144198000Y-138971000D01*
X144238000Y-133829000D02*
X144238000Y-135358000D01*
X144238000Y-137438000D02*
X144238000Y-138967000D01*
X144278000Y-133833000D02*
X144278000Y-135358000D01*
X144278000Y-137438000D02*
X144278000Y-138963000D01*
X144318000Y-133837000D02*
X144318000Y-135358000D01*
X144318000Y-137438000D02*
X144318000Y-138959000D01*
X144358000Y-133842000D02*
X144358000Y-135358000D01*
X144358000Y-137438000D02*
X144358000Y-138954000D01*
X144398000Y-133848000D02*
X144398000Y-135358000D01*
X144398000Y-137438000D02*
X144398000Y-138948000D01*
X144438000Y-133855000D02*
X144438000Y-135358000D01*
X144438000Y-137438000D02*
X144438000Y-138941000D01*
X144478000Y-133862000D02*
X144478000Y-135358000D01*
X144478000Y-137438000D02*
X144478000Y-138934000D01*
X144518000Y-133870000D02*
X144518000Y-135358000D01*
X144518000Y-137438000D02*
X144518000Y-138926000D01*
X144558000Y-133878000D02*
X144558000Y-135358000D01*
X144558000Y-137438000D02*
X144558000Y-138918000D01*
X144598000Y-133887000D02*
X144598000Y-135358000D01*
X144598000Y-137438000D02*
X144598000Y-138909000D01*
X144638000Y-133897000D02*
X144638000Y-135358000D01*
X144638000Y-137438000D02*
X144638000Y-138899000D01*
X144678000Y-133907000D02*
X144678000Y-135358000D01*
X144678000Y-137438000D02*
X144678000Y-138889000D01*
X144719000Y-133918000D02*
X144719000Y-135358000D01*
X144719000Y-137438000D02*
X144719000Y-138878000D01*
X144759000Y-133930000D02*
X144759000Y-135358000D01*
X144759000Y-137438000D02*
X144759000Y-138866000D01*
X144799000Y-133943000D02*
X144799000Y-135358000D01*
X144799000Y-137438000D02*
X144799000Y-138853000D01*
X144839000Y-133956000D02*
X144839000Y-135358000D01*
X144839000Y-137438000D02*
X144839000Y-138840000D01*
X144879000Y-133970000D02*
X144879000Y-135358000D01*
X144879000Y-137438000D02*
X144879000Y-138826000D01*
X144919000Y-133984000D02*
X144919000Y-135358000D01*
X144919000Y-137438000D02*
X144919000Y-138812000D01*
X144959000Y-134000000D02*
X144959000Y-135358000D01*
X144959000Y-137438000D02*
X144959000Y-138796000D01*
X144999000Y-134016000D02*
X144999000Y-135358000D01*
X144999000Y-137438000D02*
X144999000Y-138780000D01*
X145039000Y-134033000D02*
X145039000Y-135358000D01*
X145039000Y-137438000D02*
X145039000Y-138763000D01*
X145079000Y-134050000D02*
X145079000Y-135358000D01*
X145079000Y-137438000D02*
X145079000Y-138746000D01*
X145119000Y-134069000D02*
X145119000Y-135358000D01*
X145119000Y-137438000D02*
X145119000Y-138727000D01*
X145159000Y-134088000D02*
X145159000Y-135358000D01*
X145159000Y-137438000D02*
X145159000Y-138708000D01*
X145199000Y-134108000D02*
X145199000Y-135358000D01*
X145199000Y-137438000D02*
X145199000Y-138688000D01*
X145239000Y-134130000D02*
X145239000Y-135358000D01*
X145239000Y-137438000D02*
X145239000Y-138666000D01*
X145279000Y-134151000D02*
X145279000Y-135358000D01*
X145279000Y-137438000D02*
X145279000Y-138645000D01*
X145319000Y-134174000D02*
X145319000Y-135358000D01*
X145319000Y-137438000D02*
X145319000Y-138622000D01*
X145359000Y-134198000D02*
X145359000Y-135358000D01*
X145359000Y-137438000D02*
X145359000Y-138598000D01*
X145399000Y-134223000D02*
X145399000Y-135358000D01*
X145399000Y-137438000D02*
X145399000Y-138573000D01*
X145439000Y-134249000D02*
X145439000Y-135358000D01*
X145439000Y-137438000D02*
X145439000Y-138547000D01*
X145479000Y-134276000D02*
X145479000Y-135358000D01*
X145479000Y-137438000D02*
X145479000Y-138520000D01*
X145519000Y-134303000D02*
X145519000Y-135358000D01*
X145519000Y-137438000D02*
X145519000Y-138493000D01*
X145559000Y-134333000D02*
X145559000Y-135358000D01*
X145559000Y-137438000D02*
X145559000Y-138463000D01*
X145599000Y-134363000D02*
X145599000Y-135358000D01*
X145599000Y-137438000D02*
X145599000Y-138433000D01*
X145639000Y-134394000D02*
X145639000Y-135358000D01*
X145639000Y-137438000D02*
X145639000Y-138402000D01*
X145679000Y-134427000D02*
X145679000Y-135358000D01*
X145679000Y-137438000D02*
X145679000Y-138369000D01*
X145719000Y-134461000D02*
X145719000Y-135358000D01*
X145719000Y-137438000D02*
X145719000Y-138335000D01*
X145759000Y-134497000D02*
X145759000Y-135358000D01*
X145759000Y-137438000D02*
X145759000Y-138299000D01*
X145799000Y-134534000D02*
X145799000Y-135358000D01*
X145799000Y-137438000D02*
X145799000Y-138262000D01*
X145839000Y-134572000D02*
X145839000Y-135358000D01*
X145839000Y-137438000D02*
X145839000Y-138224000D01*
X145879000Y-134613000D02*
X145879000Y-135358000D01*
X145879000Y-137438000D02*
X145879000Y-138183000D01*
X145919000Y-134655000D02*
X145919000Y-135358000D01*
X145919000Y-137438000D02*
X145919000Y-138141000D01*
X145959000Y-134699000D02*
X145959000Y-135358000D01*
X145959000Y-137438000D02*
X145959000Y-138097000D01*
X145999000Y-134745000D02*
X145999000Y-135358000D01*
X145999000Y-137438000D02*
X145999000Y-138051000D01*
X146039000Y-134793000D02*
X146039000Y-135358000D01*
X146039000Y-137438000D02*
X146039000Y-138003000D01*
X146079000Y-134844000D02*
X146079000Y-135358000D01*
X146079000Y-137438000D02*
X146079000Y-137952000D01*
X146119000Y-134898000D02*
X146119000Y-135358000D01*
X146119000Y-137438000D02*
X146119000Y-137898000D01*
X146159000Y-134955000D02*
X146159000Y-135358000D01*
X146159000Y-137438000D02*
X146159000Y-137841000D01*
X146199000Y-135015000D02*
X146199000Y-135358000D01*
X146199000Y-137438000D02*
X146199000Y-137781000D01*
X146239000Y-135079000D02*
X146239000Y-135358000D01*
X146239000Y-137438000D02*
X146239000Y-137717000D01*
X146279000Y-135147000D02*
X146279000Y-135358000D01*
X146279000Y-137438000D02*
X146279000Y-137649000D01*
X146319000Y-135220000D02*
X146319000Y-137576000D01*
X146359000Y-135300000D02*
X146359000Y-137496000D01*
X146399000Y-135387000D02*
X146399000Y-137409000D01*
X146439000Y-135483000D02*
X146439000Y-137313000D01*
X146479000Y-135593000D02*
X146479000Y-137203000D01*
X146519000Y-135721000D02*
X146519000Y-137075000D01*
X146559000Y-135880000D02*
X146559000Y-136916000D01*
X146599000Y-136114000D02*
X146599000Y-136682000D01*
X141193225Y-134923000D02*
X141693225Y-134923000D01*
X141443225Y-134673000D02*
X141443225Y-135173000D01*
%TO.C,C12*%
X139760000Y-138176000D02*
G75*
G03*
X139760000Y-138176000I-2620000J0D01*
G01*
X137140000Y-135596000D02*
X137140000Y-140756000D01*
X137180000Y-135596000D02*
X137180000Y-140756000D01*
X137220000Y-135597000D02*
X137220000Y-140755000D01*
X137260000Y-135598000D02*
X137260000Y-140754000D01*
X137300000Y-135600000D02*
X137300000Y-140752000D01*
X137340000Y-135603000D02*
X137340000Y-140749000D01*
X137380000Y-135607000D02*
X137380000Y-137136000D01*
X137380000Y-139216000D02*
X137380000Y-140745000D01*
X137420000Y-135611000D02*
X137420000Y-137136000D01*
X137420000Y-139216000D02*
X137420000Y-140741000D01*
X137460000Y-135615000D02*
X137460000Y-137136000D01*
X137460000Y-139216000D02*
X137460000Y-140737000D01*
X137500000Y-135620000D02*
X137500000Y-137136000D01*
X137500000Y-139216000D02*
X137500000Y-140732000D01*
X137540000Y-135626000D02*
X137540000Y-137136000D01*
X137540000Y-139216000D02*
X137540000Y-140726000D01*
X137580000Y-135633000D02*
X137580000Y-137136000D01*
X137580000Y-139216000D02*
X137580000Y-140719000D01*
X137620000Y-135640000D02*
X137620000Y-137136000D01*
X137620000Y-139216000D02*
X137620000Y-140712000D01*
X137660000Y-135648000D02*
X137660000Y-137136000D01*
X137660000Y-139216000D02*
X137660000Y-140704000D01*
X137700000Y-135656000D02*
X137700000Y-137136000D01*
X137700000Y-139216000D02*
X137700000Y-140696000D01*
X137740000Y-135665000D02*
X137740000Y-137136000D01*
X137740000Y-139216000D02*
X137740000Y-140687000D01*
X137780000Y-135675000D02*
X137780000Y-137136000D01*
X137780000Y-139216000D02*
X137780000Y-140677000D01*
X137820000Y-135685000D02*
X137820000Y-137136000D01*
X137820000Y-139216000D02*
X137820000Y-140667000D01*
X137861000Y-135696000D02*
X137861000Y-137136000D01*
X137861000Y-139216000D02*
X137861000Y-140656000D01*
X137901000Y-135708000D02*
X137901000Y-137136000D01*
X137901000Y-139216000D02*
X137901000Y-140644000D01*
X137941000Y-135721000D02*
X137941000Y-137136000D01*
X137941000Y-139216000D02*
X137941000Y-140631000D01*
X137981000Y-135734000D02*
X137981000Y-137136000D01*
X137981000Y-139216000D02*
X137981000Y-140618000D01*
X138021000Y-135748000D02*
X138021000Y-137136000D01*
X138021000Y-139216000D02*
X138021000Y-140604000D01*
X138061000Y-135762000D02*
X138061000Y-137136000D01*
X138061000Y-139216000D02*
X138061000Y-140590000D01*
X138101000Y-135778000D02*
X138101000Y-137136000D01*
X138101000Y-139216000D02*
X138101000Y-140574000D01*
X138141000Y-135794000D02*
X138141000Y-137136000D01*
X138141000Y-139216000D02*
X138141000Y-140558000D01*
X138181000Y-135811000D02*
X138181000Y-137136000D01*
X138181000Y-139216000D02*
X138181000Y-140541000D01*
X138221000Y-135828000D02*
X138221000Y-137136000D01*
X138221000Y-139216000D02*
X138221000Y-140524000D01*
X138261000Y-135847000D02*
X138261000Y-137136000D01*
X138261000Y-139216000D02*
X138261000Y-140505000D01*
X138301000Y-135866000D02*
X138301000Y-137136000D01*
X138301000Y-139216000D02*
X138301000Y-140486000D01*
X138341000Y-135886000D02*
X138341000Y-137136000D01*
X138341000Y-139216000D02*
X138341000Y-140466000D01*
X138381000Y-135908000D02*
X138381000Y-137136000D01*
X138381000Y-139216000D02*
X138381000Y-140444000D01*
X138421000Y-135929000D02*
X138421000Y-137136000D01*
X138421000Y-139216000D02*
X138421000Y-140423000D01*
X138461000Y-135952000D02*
X138461000Y-137136000D01*
X138461000Y-139216000D02*
X138461000Y-140400000D01*
X138501000Y-135976000D02*
X138501000Y-137136000D01*
X138501000Y-139216000D02*
X138501000Y-140376000D01*
X138541000Y-136001000D02*
X138541000Y-137136000D01*
X138541000Y-139216000D02*
X138541000Y-140351000D01*
X138581000Y-136027000D02*
X138581000Y-137136000D01*
X138581000Y-139216000D02*
X138581000Y-140325000D01*
X138621000Y-136054000D02*
X138621000Y-137136000D01*
X138621000Y-139216000D02*
X138621000Y-140298000D01*
X138661000Y-136081000D02*
X138661000Y-137136000D01*
X138661000Y-139216000D02*
X138661000Y-140271000D01*
X138701000Y-136111000D02*
X138701000Y-137136000D01*
X138701000Y-139216000D02*
X138701000Y-140241000D01*
X138741000Y-136141000D02*
X138741000Y-137136000D01*
X138741000Y-139216000D02*
X138741000Y-140211000D01*
X138781000Y-136172000D02*
X138781000Y-137136000D01*
X138781000Y-139216000D02*
X138781000Y-140180000D01*
X138821000Y-136205000D02*
X138821000Y-137136000D01*
X138821000Y-139216000D02*
X138821000Y-140147000D01*
X138861000Y-136239000D02*
X138861000Y-137136000D01*
X138861000Y-139216000D02*
X138861000Y-140113000D01*
X138901000Y-136275000D02*
X138901000Y-137136000D01*
X138901000Y-139216000D02*
X138901000Y-140077000D01*
X138941000Y-136312000D02*
X138941000Y-137136000D01*
X138941000Y-139216000D02*
X138941000Y-140040000D01*
X138981000Y-136350000D02*
X138981000Y-137136000D01*
X138981000Y-139216000D02*
X138981000Y-140002000D01*
X139021000Y-136391000D02*
X139021000Y-137136000D01*
X139021000Y-139216000D02*
X139021000Y-139961000D01*
X139061000Y-136433000D02*
X139061000Y-137136000D01*
X139061000Y-139216000D02*
X139061000Y-139919000D01*
X139101000Y-136477000D02*
X139101000Y-137136000D01*
X139101000Y-139216000D02*
X139101000Y-139875000D01*
X139141000Y-136523000D02*
X139141000Y-137136000D01*
X139141000Y-139216000D02*
X139141000Y-139829000D01*
X139181000Y-136571000D02*
X139181000Y-137136000D01*
X139181000Y-139216000D02*
X139181000Y-139781000D01*
X139221000Y-136622000D02*
X139221000Y-137136000D01*
X139221000Y-139216000D02*
X139221000Y-139730000D01*
X139261000Y-136676000D02*
X139261000Y-137136000D01*
X139261000Y-139216000D02*
X139261000Y-139676000D01*
X139301000Y-136733000D02*
X139301000Y-137136000D01*
X139301000Y-139216000D02*
X139301000Y-139619000D01*
X139341000Y-136793000D02*
X139341000Y-137136000D01*
X139341000Y-139216000D02*
X139341000Y-139559000D01*
X139381000Y-136857000D02*
X139381000Y-137136000D01*
X139381000Y-139216000D02*
X139381000Y-139495000D01*
X139421000Y-136925000D02*
X139421000Y-137136000D01*
X139421000Y-139216000D02*
X139421000Y-139427000D01*
X139461000Y-136998000D02*
X139461000Y-139354000D01*
X139501000Y-137078000D02*
X139501000Y-139274000D01*
X139541000Y-137165000D02*
X139541000Y-139187000D01*
X139581000Y-137261000D02*
X139581000Y-139091000D01*
X139621000Y-137371000D02*
X139621000Y-138981000D01*
X139661000Y-137499000D02*
X139661000Y-138853000D01*
X139701000Y-137658000D02*
X139701000Y-138694000D01*
X139741000Y-137892000D02*
X139741000Y-138460000D01*
X134335225Y-136701000D02*
X134835225Y-136701000D01*
X134585225Y-136451000D02*
X134585225Y-136951000D01*
%TO.C,C11*%
X147166000Y-60682000D02*
X147166000Y-67922000D01*
X144426000Y-60682000D02*
X144426000Y-67922000D01*
X147166000Y-60682000D02*
X144426000Y-60682000D01*
X147166000Y-67922000D02*
X144426000Y-67922000D01*
%TO.C,C9*%
X131802000Y-121566000D02*
X139042000Y-121566000D01*
X131802000Y-124306000D02*
X139042000Y-124306000D01*
X131802000Y-121566000D02*
X131802000Y-124306000D01*
X139042000Y-121566000D02*
X139042000Y-124306000D01*
%TO.C,RV3*%
X113420000Y-127270000D02*
X112590000Y-127270000D01*
X110970000Y-127270000D02*
X110440000Y-127270000D01*
X108070000Y-127270000D02*
X106890000Y-127270000D01*
X116630000Y-127270000D02*
X116630000Y-122550000D01*
X106890000Y-118740000D02*
X106890000Y-115680000D01*
X106880000Y-127270000D02*
X106880000Y-122550000D01*
X116630000Y-118740000D02*
X116630000Y-115680000D01*
X116630000Y-127270000D02*
X115140000Y-127270000D01*
X116630000Y-115680000D02*
X106890000Y-115680000D01*
%TO.C,RV2*%
X113420000Y-108220000D02*
X112590000Y-108220000D01*
X110970000Y-108220000D02*
X110440000Y-108220000D01*
X108070000Y-108220000D02*
X106890000Y-108220000D01*
X116630000Y-108220000D02*
X116630000Y-103500000D01*
X106890000Y-99690000D02*
X106890000Y-96630000D01*
X106880000Y-108220000D02*
X106880000Y-103500000D01*
X116630000Y-99690000D02*
X116630000Y-96630000D01*
X116630000Y-108220000D02*
X115140000Y-108220000D01*
X116630000Y-96630000D02*
X106890000Y-96630000D01*
%TO.C,RV1*%
X113420000Y-146320000D02*
X112590000Y-146320000D01*
X110970000Y-146320000D02*
X110440000Y-146320000D01*
X108070000Y-146320000D02*
X106890000Y-146320000D01*
X116630000Y-146320000D02*
X116630000Y-141600000D01*
X106890000Y-137790000D02*
X106890000Y-134730000D01*
X106880000Y-146320000D02*
X106880000Y-141600000D01*
X116630000Y-137790000D02*
X116630000Y-134730000D01*
X116630000Y-146320000D02*
X115140000Y-146320000D01*
X116630000Y-134730000D02*
X106890000Y-134730000D01*
%TO.C,U3*%
X143780000Y-132394000D02*
G75*
G02*
X145780000Y-132394000I1000000J0D01*
G01*
X145780000Y-132394000D02*
X147430000Y-132394000D01*
X147430000Y-132394000D02*
X147430000Y-122114000D01*
X147430000Y-122114000D02*
X142130000Y-122114000D01*
X142130000Y-122114000D02*
X142130000Y-132394000D01*
X142130000Y-132394000D02*
X143780000Y-132394000D01*
X149920000Y-132454000D02*
X149920000Y-122054000D01*
X149920000Y-122054000D02*
X139640000Y-122054000D01*
X139640000Y-122054000D02*
X139640000Y-132454000D01*
X139640000Y-132454000D02*
X149920000Y-132454000D01*
%TO.C,U2*%
X137176000Y-117408000D02*
G75*
G02*
X139176000Y-117408000I1000000J0D01*
G01*
X139176000Y-117408000D02*
X140826000Y-117408000D01*
X140826000Y-117408000D02*
X140826000Y-107128000D01*
X140826000Y-107128000D02*
X135526000Y-107128000D01*
X135526000Y-107128000D02*
X135526000Y-117408000D01*
X135526000Y-117408000D02*
X137176000Y-117408000D01*
X143316000Y-117468000D02*
X143316000Y-107068000D01*
X143316000Y-107068000D02*
X133036000Y-107068000D01*
X133036000Y-107068000D02*
X133036000Y-117468000D01*
X133036000Y-117468000D02*
X143316000Y-117468000D01*
%TO.C,U1*%
X140986000Y-59750000D02*
G75*
G02*
X142986000Y-59750000I1000000J0D01*
G01*
X142986000Y-59750000D02*
X144636000Y-59750000D01*
X144636000Y-59750000D02*
X144636000Y-49470000D01*
X144636000Y-49470000D02*
X139336000Y-49470000D01*
X139336000Y-49470000D02*
X139336000Y-59750000D01*
X139336000Y-59750000D02*
X140986000Y-59750000D01*
X147126000Y-59810000D02*
X147126000Y-49410000D01*
X147126000Y-49410000D02*
X136846000Y-49410000D01*
X136846000Y-49410000D02*
X136846000Y-59810000D01*
X136846000Y-59810000D02*
X147126000Y-59810000D01*
%TO.C,R15*%
X149098000Y-56920000D02*
X149098000Y-57690000D01*
X149098000Y-65000000D02*
X149098000Y-64230000D01*
X147728000Y-57690000D02*
X147728000Y-64230000D01*
X150468000Y-57690000D02*
X147728000Y-57690000D01*
X150468000Y-64230000D02*
X150468000Y-57690000D01*
X147728000Y-64230000D02*
X150468000Y-64230000D01*
%TO.C,R12*%
X135025000Y-80264000D02*
X135795000Y-80264000D01*
X143105000Y-80264000D02*
X142335000Y-80264000D01*
X135795000Y-81634000D02*
X142335000Y-81634000D01*
X135795000Y-78894000D02*
X135795000Y-81634000D01*
X142335000Y-78894000D02*
X135795000Y-78894000D01*
X142335000Y-81634000D02*
X142335000Y-78894000D01*
%TO.C,R11*%
X135152000Y-83693000D02*
X135922000Y-83693000D01*
X143232000Y-83693000D02*
X142462000Y-83693000D01*
X135922000Y-85063000D02*
X142462000Y-85063000D01*
X135922000Y-82323000D02*
X135922000Y-85063000D01*
X142462000Y-82323000D02*
X135922000Y-82323000D01*
X142462000Y-85063000D02*
X142462000Y-82323000D01*
%TO.C,R10*%
X142851000Y-94869000D02*
X142081000Y-94869000D01*
X134771000Y-94869000D02*
X135541000Y-94869000D01*
X142081000Y-93499000D02*
X135541000Y-93499000D01*
X142081000Y-96239000D02*
X142081000Y-93499000D01*
X135541000Y-96239000D02*
X142081000Y-96239000D01*
X135541000Y-93499000D02*
X135541000Y-96239000D01*
%TO.C,R9*%
X142851000Y-91694000D02*
X142081000Y-91694000D01*
X134771000Y-91694000D02*
X135541000Y-91694000D01*
X142081000Y-90324000D02*
X135541000Y-90324000D01*
X142081000Y-93064000D02*
X142081000Y-90324000D01*
X135541000Y-93064000D02*
X142081000Y-93064000D01*
X135541000Y-90324000D02*
X135541000Y-93064000D01*
%TO.C,R8*%
X147447000Y-90781000D02*
X147447000Y-90011000D01*
X147447000Y-82701000D02*
X147447000Y-83471000D01*
X148817000Y-90011000D02*
X148817000Y-83471000D01*
X146077000Y-90011000D02*
X148817000Y-90011000D01*
X146077000Y-83471000D02*
X146077000Y-90011000D01*
X148817000Y-83471000D02*
X146077000Y-83471000D01*
%TO.C,R7*%
X148590000Y-103735000D02*
X148590000Y-102965000D01*
X148590000Y-95655000D02*
X148590000Y-96425000D01*
X149960000Y-102965000D02*
X149960000Y-96425000D01*
X147220000Y-102965000D02*
X149960000Y-102965000D01*
X147220000Y-96425000D02*
X147220000Y-102965000D01*
X149960000Y-96425000D02*
X147220000Y-96425000D01*
%TO.C,R6*%
X145288000Y-107339000D02*
X145288000Y-108109000D01*
X145288000Y-115419000D02*
X145288000Y-114649000D01*
X143918000Y-108109000D02*
X143918000Y-114649000D01*
X146658000Y-108109000D02*
X143918000Y-108109000D01*
X146658000Y-114649000D02*
X146658000Y-108109000D01*
X143918000Y-114649000D02*
X146658000Y-114649000D01*
%TO.C,R5*%
X135660000Y-98171000D02*
X136430000Y-98171000D01*
X143740000Y-98171000D02*
X142970000Y-98171000D01*
X136430000Y-99541000D02*
X142970000Y-99541000D01*
X136430000Y-96801000D02*
X136430000Y-99541000D01*
X142970000Y-96801000D02*
X136430000Y-96801000D01*
X142970000Y-99541000D02*
X142970000Y-96801000D01*
%TO.C,R4*%
X135660000Y-101727000D02*
X136430000Y-101727000D01*
X143740000Y-101727000D02*
X142970000Y-101727000D01*
X136430000Y-103097000D02*
X142970000Y-103097000D01*
X136430000Y-100357000D02*
X136430000Y-103097000D01*
X142970000Y-100357000D02*
X136430000Y-100357000D01*
X142970000Y-103097000D02*
X142970000Y-100357000D01*
%TO.C,R3*%
X129032000Y-50824000D02*
X129032000Y-51594000D01*
X129032000Y-58904000D02*
X129032000Y-58134000D01*
X127662000Y-51594000D02*
X127662000Y-58134000D01*
X130402000Y-51594000D02*
X127662000Y-51594000D01*
X130402000Y-58134000D02*
X130402000Y-51594000D01*
X127662000Y-58134000D02*
X130402000Y-58134000D01*
%TO.C,R1*%
X130580000Y-46990000D02*
X131350000Y-46990000D01*
X138660000Y-46990000D02*
X137890000Y-46990000D01*
X131350000Y-48360000D02*
X137890000Y-48360000D01*
X131350000Y-45620000D02*
X131350000Y-48360000D01*
X137890000Y-45620000D02*
X131350000Y-45620000D01*
X137890000Y-48360000D02*
X137890000Y-45620000D01*
%TO.C,J4*%
X114808000Y-40386000D02*
G75*
G02*
X115824000Y-41402000I0J-1016000D01*
G01*
X115824000Y-44450000D02*
G75*
G02*
X111760000Y-40386000I-4064000J0D01*
G01*
X115824000Y-41402000D02*
X115824000Y-44450000D01*
X111760000Y-40386000D02*
X114808000Y-40386000D01*
%TO.C,J1*%
X114808000Y-78486000D02*
G75*
G02*
X115824000Y-79502000I0J-1016000D01*
G01*
X115824000Y-82550000D02*
G75*
G02*
X111760000Y-78486000I-4064000J0D01*
G01*
X115824000Y-79502000D02*
X115824000Y-82550000D01*
X111760000Y-78486000D02*
X114808000Y-78486000D01*
%TO.C,D2*%
X147120000Y-145450000D02*
X150060000Y-145450000D01*
X147120000Y-145210000D02*
X150060000Y-145210000D01*
X147120000Y-145330000D02*
X150060000Y-145330000D01*
X150060000Y-140790000D02*
X149730000Y-140790000D01*
X150060000Y-146230000D02*
X150060000Y-140790000D01*
X149730000Y-146230000D02*
X150060000Y-146230000D01*
X147120000Y-140790000D02*
X147450000Y-140790000D01*
X147120000Y-146230000D02*
X147120000Y-140790000D01*
X147450000Y-146230000D02*
X147120000Y-146230000D01*
%TO.C,D1*%
X131010000Y-141570000D02*
X128070000Y-141570000D01*
X131010000Y-141810000D02*
X128070000Y-141810000D01*
X131010000Y-141690000D02*
X128070000Y-141690000D01*
X128070000Y-146230000D02*
X128400000Y-146230000D01*
X128070000Y-140790000D02*
X128070000Y-146230000D01*
X128400000Y-140790000D02*
X128070000Y-140790000D01*
X131010000Y-146230000D02*
X130680000Y-146230000D01*
X131010000Y-140790000D02*
X131010000Y-146230000D01*
X130680000Y-140790000D02*
X131010000Y-140790000D01*
%TO.C,C19*%
X141200000Y-45620000D02*
X148440000Y-45620000D01*
X141200000Y-48360000D02*
X148440000Y-48360000D01*
X141200000Y-45620000D02*
X141200000Y-48360000D01*
X148440000Y-45620000D02*
X148440000Y-48360000D01*
%TO.C,C18*%
X135790000Y-131930000D02*
X135790000Y-124690000D01*
X138530000Y-131930000D02*
X138530000Y-124690000D01*
X135790000Y-131930000D02*
X138530000Y-131930000D01*
X135790000Y-124690000D02*
X138530000Y-124690000D01*
%TO.C,C17*%
X142390000Y-118010000D02*
X149630000Y-118010000D01*
X142390000Y-120750000D02*
X149630000Y-120750000D01*
X142390000Y-118010000D02*
X142390000Y-120750000D01*
X149630000Y-118010000D02*
X149630000Y-120750000D01*
%TO.C,C16*%
X133758000Y-59540000D02*
X133758000Y-52300000D01*
X136498000Y-59540000D02*
X136498000Y-52300000D01*
X133758000Y-59540000D02*
X136498000Y-59540000D01*
X133758000Y-52300000D02*
X136498000Y-52300000D01*
%TO.C,C15*%
X135866000Y-103786000D02*
X143106000Y-103786000D01*
X135866000Y-106526000D02*
X143106000Y-106526000D01*
X135866000Y-103786000D02*
X135866000Y-106526000D01*
X143106000Y-103786000D02*
X143106000Y-106526000D01*
%TO.C,C14*%
X140232000Y-120750000D02*
X132992000Y-120750000D01*
X140232000Y-118010000D02*
X132992000Y-118010000D01*
X140232000Y-120750000D02*
X140232000Y-118010000D01*
X132992000Y-120750000D02*
X132992000Y-118010000D01*
%TO.C,C10*%
X142594000Y-63246000D02*
G75*
G03*
X142594000Y-63246000I-2620000J0D01*
G01*
X139974000Y-65826000D02*
X139974000Y-60666000D01*
X139934000Y-65826000D02*
X139934000Y-60666000D01*
X139894000Y-65825000D02*
X139894000Y-60667000D01*
X139854000Y-65824000D02*
X139854000Y-60668000D01*
X139814000Y-65822000D02*
X139814000Y-60670000D01*
X139774000Y-65819000D02*
X139774000Y-60673000D01*
X139734000Y-65815000D02*
X139734000Y-64286000D01*
X139734000Y-62206000D02*
X139734000Y-60677000D01*
X139694000Y-65811000D02*
X139694000Y-64286000D01*
X139694000Y-62206000D02*
X139694000Y-60681000D01*
X139654000Y-65807000D02*
X139654000Y-64286000D01*
X139654000Y-62206000D02*
X139654000Y-60685000D01*
X139614000Y-65802000D02*
X139614000Y-64286000D01*
X139614000Y-62206000D02*
X139614000Y-60690000D01*
X139574000Y-65796000D02*
X139574000Y-64286000D01*
X139574000Y-62206000D02*
X139574000Y-60696000D01*
X139534000Y-65789000D02*
X139534000Y-64286000D01*
X139534000Y-62206000D02*
X139534000Y-60703000D01*
X139494000Y-65782000D02*
X139494000Y-64286000D01*
X139494000Y-62206000D02*
X139494000Y-60710000D01*
X139454000Y-65774000D02*
X139454000Y-64286000D01*
X139454000Y-62206000D02*
X139454000Y-60718000D01*
X139414000Y-65766000D02*
X139414000Y-64286000D01*
X139414000Y-62206000D02*
X139414000Y-60726000D01*
X139374000Y-65757000D02*
X139374000Y-64286000D01*
X139374000Y-62206000D02*
X139374000Y-60735000D01*
X139334000Y-65747000D02*
X139334000Y-64286000D01*
X139334000Y-62206000D02*
X139334000Y-60745000D01*
X139294000Y-65737000D02*
X139294000Y-64286000D01*
X139294000Y-62206000D02*
X139294000Y-60755000D01*
X139253000Y-65726000D02*
X139253000Y-64286000D01*
X139253000Y-62206000D02*
X139253000Y-60766000D01*
X139213000Y-65714000D02*
X139213000Y-64286000D01*
X139213000Y-62206000D02*
X139213000Y-60778000D01*
X139173000Y-65701000D02*
X139173000Y-64286000D01*
X139173000Y-62206000D02*
X139173000Y-60791000D01*
X139133000Y-65688000D02*
X139133000Y-64286000D01*
X139133000Y-62206000D02*
X139133000Y-60804000D01*
X139093000Y-65674000D02*
X139093000Y-64286000D01*
X139093000Y-62206000D02*
X139093000Y-60818000D01*
X139053000Y-65660000D02*
X139053000Y-64286000D01*
X139053000Y-62206000D02*
X139053000Y-60832000D01*
X139013000Y-65644000D02*
X139013000Y-64286000D01*
X139013000Y-62206000D02*
X139013000Y-60848000D01*
X138973000Y-65628000D02*
X138973000Y-64286000D01*
X138973000Y-62206000D02*
X138973000Y-60864000D01*
X138933000Y-65611000D02*
X138933000Y-64286000D01*
X138933000Y-62206000D02*
X138933000Y-60881000D01*
X138893000Y-65594000D02*
X138893000Y-64286000D01*
X138893000Y-62206000D02*
X138893000Y-60898000D01*
X138853000Y-65575000D02*
X138853000Y-64286000D01*
X138853000Y-62206000D02*
X138853000Y-60917000D01*
X138813000Y-65556000D02*
X138813000Y-64286000D01*
X138813000Y-62206000D02*
X138813000Y-60936000D01*
X138773000Y-65536000D02*
X138773000Y-64286000D01*
X138773000Y-62206000D02*
X138773000Y-60956000D01*
X138733000Y-65514000D02*
X138733000Y-64286000D01*
X138733000Y-62206000D02*
X138733000Y-60978000D01*
X138693000Y-65493000D02*
X138693000Y-64286000D01*
X138693000Y-62206000D02*
X138693000Y-60999000D01*
X138653000Y-65470000D02*
X138653000Y-64286000D01*
X138653000Y-62206000D02*
X138653000Y-61022000D01*
X138613000Y-65446000D02*
X138613000Y-64286000D01*
X138613000Y-62206000D02*
X138613000Y-61046000D01*
X138573000Y-65421000D02*
X138573000Y-64286000D01*
X138573000Y-62206000D02*
X138573000Y-61071000D01*
X138533000Y-65395000D02*
X138533000Y-64286000D01*
X138533000Y-62206000D02*
X138533000Y-61097000D01*
X138493000Y-65368000D02*
X138493000Y-64286000D01*
X138493000Y-62206000D02*
X138493000Y-61124000D01*
X138453000Y-65341000D02*
X138453000Y-64286000D01*
X138453000Y-62206000D02*
X138453000Y-61151000D01*
X138413000Y-65311000D02*
X138413000Y-64286000D01*
X138413000Y-62206000D02*
X138413000Y-61181000D01*
X138373000Y-65281000D02*
X138373000Y-64286000D01*
X138373000Y-62206000D02*
X138373000Y-61211000D01*
X138333000Y-65250000D02*
X138333000Y-64286000D01*
X138333000Y-62206000D02*
X138333000Y-61242000D01*
X138293000Y-65217000D02*
X138293000Y-64286000D01*
X138293000Y-62206000D02*
X138293000Y-61275000D01*
X138253000Y-65183000D02*
X138253000Y-64286000D01*
X138253000Y-62206000D02*
X138253000Y-61309000D01*
X138213000Y-65147000D02*
X138213000Y-64286000D01*
X138213000Y-62206000D02*
X138213000Y-61345000D01*
X138173000Y-65110000D02*
X138173000Y-64286000D01*
X138173000Y-62206000D02*
X138173000Y-61382000D01*
X138133000Y-65072000D02*
X138133000Y-64286000D01*
X138133000Y-62206000D02*
X138133000Y-61420000D01*
X138093000Y-65031000D02*
X138093000Y-64286000D01*
X138093000Y-62206000D02*
X138093000Y-61461000D01*
X138053000Y-64989000D02*
X138053000Y-64286000D01*
X138053000Y-62206000D02*
X138053000Y-61503000D01*
X138013000Y-64945000D02*
X138013000Y-64286000D01*
X138013000Y-62206000D02*
X138013000Y-61547000D01*
X137973000Y-64899000D02*
X137973000Y-64286000D01*
X137973000Y-62206000D02*
X137973000Y-61593000D01*
X137933000Y-64851000D02*
X137933000Y-64286000D01*
X137933000Y-62206000D02*
X137933000Y-61641000D01*
X137893000Y-64800000D02*
X137893000Y-64286000D01*
X137893000Y-62206000D02*
X137893000Y-61692000D01*
X137853000Y-64746000D02*
X137853000Y-64286000D01*
X137853000Y-62206000D02*
X137853000Y-61746000D01*
X137813000Y-64689000D02*
X137813000Y-64286000D01*
X137813000Y-62206000D02*
X137813000Y-61803000D01*
X137773000Y-64629000D02*
X137773000Y-64286000D01*
X137773000Y-62206000D02*
X137773000Y-61863000D01*
X137733000Y-64565000D02*
X137733000Y-64286000D01*
X137733000Y-62206000D02*
X137733000Y-61927000D01*
X137693000Y-64497000D02*
X137693000Y-64286000D01*
X137693000Y-62206000D02*
X137693000Y-61995000D01*
X137653000Y-64424000D02*
X137653000Y-62068000D01*
X137613000Y-64344000D02*
X137613000Y-62148000D01*
X137573000Y-64257000D02*
X137573000Y-62235000D01*
X137533000Y-64161000D02*
X137533000Y-62331000D01*
X137493000Y-64051000D02*
X137493000Y-62441000D01*
X137453000Y-63923000D02*
X137453000Y-62569000D01*
X137413000Y-63764000D02*
X137413000Y-62728000D01*
X137373000Y-63530000D02*
X137373000Y-62962000D01*
X142778775Y-64721000D02*
X142278775Y-64721000D01*
X142528775Y-64971000D02*
X142528775Y-64471000D01*
%TO.C,C8*%
X128932000Y-115420000D02*
X128932000Y-108180000D01*
X131672000Y-115420000D02*
X131672000Y-108180000D01*
X128932000Y-115420000D02*
X131672000Y-115420000D01*
X128932000Y-108180000D02*
X131672000Y-108180000D01*
%TO.C,C7*%
X140486000Y-78078000D02*
X133246000Y-78078000D01*
X140486000Y-75338000D02*
X133246000Y-75338000D01*
X140486000Y-78078000D02*
X140486000Y-75338000D01*
X133246000Y-78078000D02*
X133246000Y-75338000D01*
%TO.C,C6*%
X132992000Y-86133000D02*
X140232000Y-86133000D01*
X132992000Y-88873000D02*
X140232000Y-88873000D01*
X132992000Y-86133000D02*
X132992000Y-88873000D01*
X140232000Y-86133000D02*
X140232000Y-88873000D01*
%TO.C,C5*%
X147220000Y-116182000D02*
X147220000Y-108942000D01*
X149960000Y-116182000D02*
X149960000Y-108942000D01*
X147220000Y-116182000D02*
X149960000Y-116182000D01*
X147220000Y-108942000D02*
X149960000Y-108942000D01*
%TO.C,C4*%
X130710000Y-56158000D02*
X130710000Y-48918000D01*
X133450000Y-56158000D02*
X133450000Y-48918000D01*
X130710000Y-56158000D02*
X133450000Y-56158000D01*
X130710000Y-48918000D02*
X133450000Y-48918000D01*
%TO.C,C3*%
X134334000Y-65512000D02*
G75*
G03*
X134334000Y-65512000I-3270000J0D01*
G01*
X134294000Y-65512000D02*
X127834000Y-65512000D01*
X134294000Y-65552000D02*
X127834000Y-65552000D01*
X134294000Y-65592000D02*
X127834000Y-65592000D01*
X134292000Y-65632000D02*
X127836000Y-65632000D01*
X134291000Y-65672000D02*
X127837000Y-65672000D01*
X134288000Y-65712000D02*
X127840000Y-65712000D01*
X134286000Y-65752000D02*
X132104000Y-65752000D01*
X130024000Y-65752000D02*
X127842000Y-65752000D01*
X134282000Y-65792000D02*
X132104000Y-65792000D01*
X130024000Y-65792000D02*
X127846000Y-65792000D01*
X134279000Y-65832000D02*
X132104000Y-65832000D01*
X130024000Y-65832000D02*
X127849000Y-65832000D01*
X134275000Y-65872000D02*
X132104000Y-65872000D01*
X130024000Y-65872000D02*
X127853000Y-65872000D01*
X134270000Y-65912000D02*
X132104000Y-65912000D01*
X130024000Y-65912000D02*
X127858000Y-65912000D01*
X134265000Y-65952000D02*
X132104000Y-65952000D01*
X130024000Y-65952000D02*
X127863000Y-65952000D01*
X134259000Y-65992000D02*
X132104000Y-65992000D01*
X130024000Y-65992000D02*
X127869000Y-65992000D01*
X134253000Y-66032000D02*
X132104000Y-66032000D01*
X130024000Y-66032000D02*
X127875000Y-66032000D01*
X134246000Y-66072000D02*
X132104000Y-66072000D01*
X130024000Y-66072000D02*
X127882000Y-66072000D01*
X134239000Y-66112000D02*
X132104000Y-66112000D01*
X130024000Y-66112000D02*
X127889000Y-66112000D01*
X134231000Y-66152000D02*
X132104000Y-66152000D01*
X130024000Y-66152000D02*
X127897000Y-66152000D01*
X134223000Y-66192000D02*
X132104000Y-66192000D01*
X130024000Y-66192000D02*
X127905000Y-66192000D01*
X134214000Y-66233000D02*
X132104000Y-66233000D01*
X130024000Y-66233000D02*
X127914000Y-66233000D01*
X134205000Y-66273000D02*
X132104000Y-66273000D01*
X130024000Y-66273000D02*
X127923000Y-66273000D01*
X134195000Y-66313000D02*
X132104000Y-66313000D01*
X130024000Y-66313000D02*
X127933000Y-66313000D01*
X134185000Y-66353000D02*
X132104000Y-66353000D01*
X130024000Y-66353000D02*
X127943000Y-66353000D01*
X134174000Y-66393000D02*
X132104000Y-66393000D01*
X130024000Y-66393000D02*
X127954000Y-66393000D01*
X134162000Y-66433000D02*
X132104000Y-66433000D01*
X130024000Y-66433000D02*
X127966000Y-66433000D01*
X134150000Y-66473000D02*
X132104000Y-66473000D01*
X130024000Y-66473000D02*
X127978000Y-66473000D01*
X134138000Y-66513000D02*
X132104000Y-66513000D01*
X130024000Y-66513000D02*
X127990000Y-66513000D01*
X134125000Y-66553000D02*
X132104000Y-66553000D01*
X130024000Y-66553000D02*
X128003000Y-66553000D01*
X134111000Y-66593000D02*
X132104000Y-66593000D01*
X130024000Y-66593000D02*
X128017000Y-66593000D01*
X134097000Y-66633000D02*
X132104000Y-66633000D01*
X130024000Y-66633000D02*
X128031000Y-66633000D01*
X134082000Y-66673000D02*
X132104000Y-66673000D01*
X130024000Y-66673000D02*
X128046000Y-66673000D01*
X134066000Y-66713000D02*
X132104000Y-66713000D01*
X130024000Y-66713000D02*
X128062000Y-66713000D01*
X134050000Y-66753000D02*
X132104000Y-66753000D01*
X130024000Y-66753000D02*
X128078000Y-66753000D01*
X134034000Y-66793000D02*
X132104000Y-66793000D01*
X130024000Y-66793000D02*
X128094000Y-66793000D01*
X134016000Y-66833000D02*
X132104000Y-66833000D01*
X130024000Y-66833000D02*
X128112000Y-66833000D01*
X133998000Y-66873000D02*
X132104000Y-66873000D01*
X130024000Y-66873000D02*
X128130000Y-66873000D01*
X133980000Y-66913000D02*
X132104000Y-66913000D01*
X130024000Y-66913000D02*
X128148000Y-66913000D01*
X133960000Y-66953000D02*
X132104000Y-66953000D01*
X130024000Y-66953000D02*
X128168000Y-66953000D01*
X133940000Y-66993000D02*
X132104000Y-66993000D01*
X130024000Y-66993000D02*
X128188000Y-66993000D01*
X133920000Y-67033000D02*
X132104000Y-67033000D01*
X130024000Y-67033000D02*
X128208000Y-67033000D01*
X133898000Y-67073000D02*
X132104000Y-67073000D01*
X130024000Y-67073000D02*
X128230000Y-67073000D01*
X133876000Y-67113000D02*
X132104000Y-67113000D01*
X130024000Y-67113000D02*
X128252000Y-67113000D01*
X133854000Y-67153000D02*
X132104000Y-67153000D01*
X130024000Y-67153000D02*
X128274000Y-67153000D01*
X133830000Y-67193000D02*
X132104000Y-67193000D01*
X130024000Y-67193000D02*
X128298000Y-67193000D01*
X133806000Y-67233000D02*
X132104000Y-67233000D01*
X130024000Y-67233000D02*
X128322000Y-67233000D01*
X133780000Y-67273000D02*
X132104000Y-67273000D01*
X130024000Y-67273000D02*
X128348000Y-67273000D01*
X133754000Y-67313000D02*
X132104000Y-67313000D01*
X130024000Y-67313000D02*
X128374000Y-67313000D01*
X133728000Y-67353000D02*
X132104000Y-67353000D01*
X130024000Y-67353000D02*
X128400000Y-67353000D01*
X133700000Y-67393000D02*
X132104000Y-67393000D01*
X130024000Y-67393000D02*
X128428000Y-67393000D01*
X133671000Y-67433000D02*
X132104000Y-67433000D01*
X130024000Y-67433000D02*
X128457000Y-67433000D01*
X133642000Y-67473000D02*
X132104000Y-67473000D01*
X130024000Y-67473000D02*
X128486000Y-67473000D01*
X133612000Y-67513000D02*
X132104000Y-67513000D01*
X130024000Y-67513000D02*
X128516000Y-67513000D01*
X133580000Y-67553000D02*
X132104000Y-67553000D01*
X130024000Y-67553000D02*
X128548000Y-67553000D01*
X133548000Y-67593000D02*
X132104000Y-67593000D01*
X130024000Y-67593000D02*
X128580000Y-67593000D01*
X133514000Y-67633000D02*
X132104000Y-67633000D01*
X130024000Y-67633000D02*
X128614000Y-67633000D01*
X133480000Y-67673000D02*
X132104000Y-67673000D01*
X130024000Y-67673000D02*
X128648000Y-67673000D01*
X133444000Y-67713000D02*
X132104000Y-67713000D01*
X130024000Y-67713000D02*
X128684000Y-67713000D01*
X133407000Y-67753000D02*
X132104000Y-67753000D01*
X130024000Y-67753000D02*
X128721000Y-67753000D01*
X133369000Y-67793000D02*
X132104000Y-67793000D01*
X130024000Y-67793000D02*
X128759000Y-67793000D01*
X133329000Y-67833000D02*
X128799000Y-67833000D01*
X133288000Y-67873000D02*
X128840000Y-67873000D01*
X133246000Y-67913000D02*
X128882000Y-67913000D01*
X133201000Y-67953000D02*
X128927000Y-67953000D01*
X133156000Y-67993000D02*
X128972000Y-67993000D01*
X133108000Y-68033000D02*
X129020000Y-68033000D01*
X133059000Y-68073000D02*
X129069000Y-68073000D01*
X133008000Y-68113000D02*
X129120000Y-68113000D01*
X132954000Y-68153000D02*
X129174000Y-68153000D01*
X132898000Y-68193000D02*
X129230000Y-68193000D01*
X132840000Y-68233000D02*
X129288000Y-68233000D01*
X132778000Y-68273000D02*
X129350000Y-68273000D01*
X132714000Y-68313000D02*
X129414000Y-68313000D01*
X132645000Y-68353000D02*
X129483000Y-68353000D01*
X132573000Y-68393000D02*
X129555000Y-68393000D01*
X132496000Y-68433000D02*
X129632000Y-68433000D01*
X132414000Y-68473000D02*
X129714000Y-68473000D01*
X132326000Y-68513000D02*
X129802000Y-68513000D01*
X132229000Y-68553000D02*
X129899000Y-68553000D01*
X132123000Y-68593000D02*
X130005000Y-68593000D01*
X132004000Y-68633000D02*
X130124000Y-68633000D01*
X131866000Y-68673000D02*
X130262000Y-68673000D01*
X131697000Y-68713000D02*
X130431000Y-68713000D01*
X131466000Y-68753000D02*
X130662000Y-68753000D01*
X132903000Y-62011759D02*
X132903000Y-62641759D01*
X133218000Y-62326759D02*
X132588000Y-62326759D01*
%TO.C,C2*%
X121619000Y-73172000D02*
G75*
G03*
X121619000Y-73172000I-2620000J0D01*
G01*
X116419000Y-73172000D02*
X121579000Y-73172000D01*
X116419000Y-73132000D02*
X121579000Y-73132000D01*
X116420000Y-73092000D02*
X121578000Y-73092000D01*
X116421000Y-73052000D02*
X121577000Y-73052000D01*
X116423000Y-73012000D02*
X121575000Y-73012000D01*
X116426000Y-72972000D02*
X121572000Y-72972000D01*
X116430000Y-72932000D02*
X117959000Y-72932000D01*
X120039000Y-72932000D02*
X121568000Y-72932000D01*
X116434000Y-72892000D02*
X117959000Y-72892000D01*
X120039000Y-72892000D02*
X121564000Y-72892000D01*
X116438000Y-72852000D02*
X117959000Y-72852000D01*
X120039000Y-72852000D02*
X121560000Y-72852000D01*
X116443000Y-72812000D02*
X117959000Y-72812000D01*
X120039000Y-72812000D02*
X121555000Y-72812000D01*
X116449000Y-72772000D02*
X117959000Y-72772000D01*
X120039000Y-72772000D02*
X121549000Y-72772000D01*
X116456000Y-72732000D02*
X117959000Y-72732000D01*
X120039000Y-72732000D02*
X121542000Y-72732000D01*
X116463000Y-72692000D02*
X117959000Y-72692000D01*
X120039000Y-72692000D02*
X121535000Y-72692000D01*
X116471000Y-72652000D02*
X117959000Y-72652000D01*
X120039000Y-72652000D02*
X121527000Y-72652000D01*
X116479000Y-72612000D02*
X117959000Y-72612000D01*
X120039000Y-72612000D02*
X121519000Y-72612000D01*
X116488000Y-72572000D02*
X117959000Y-72572000D01*
X120039000Y-72572000D02*
X121510000Y-72572000D01*
X116498000Y-72532000D02*
X117959000Y-72532000D01*
X120039000Y-72532000D02*
X121500000Y-72532000D01*
X116508000Y-72492000D02*
X117959000Y-72492000D01*
X120039000Y-72492000D02*
X121490000Y-72492000D01*
X116519000Y-72451000D02*
X117959000Y-72451000D01*
X120039000Y-72451000D02*
X121479000Y-72451000D01*
X116531000Y-72411000D02*
X117959000Y-72411000D01*
X120039000Y-72411000D02*
X121467000Y-72411000D01*
X116544000Y-72371000D02*
X117959000Y-72371000D01*
X120039000Y-72371000D02*
X121454000Y-72371000D01*
X116557000Y-72331000D02*
X117959000Y-72331000D01*
X120039000Y-72331000D02*
X121441000Y-72331000D01*
X116571000Y-72291000D02*
X117959000Y-72291000D01*
X120039000Y-72291000D02*
X121427000Y-72291000D01*
X116585000Y-72251000D02*
X117959000Y-72251000D01*
X120039000Y-72251000D02*
X121413000Y-72251000D01*
X116601000Y-72211000D02*
X117959000Y-72211000D01*
X120039000Y-72211000D02*
X121397000Y-72211000D01*
X116617000Y-72171000D02*
X117959000Y-72171000D01*
X120039000Y-72171000D02*
X121381000Y-72171000D01*
X116634000Y-72131000D02*
X117959000Y-72131000D01*
X120039000Y-72131000D02*
X121364000Y-72131000D01*
X116651000Y-72091000D02*
X117959000Y-72091000D01*
X120039000Y-72091000D02*
X121347000Y-72091000D01*
X116670000Y-72051000D02*
X117959000Y-72051000D01*
X120039000Y-72051000D02*
X121328000Y-72051000D01*
X116689000Y-72011000D02*
X117959000Y-72011000D01*
X120039000Y-72011000D02*
X121309000Y-72011000D01*
X116709000Y-71971000D02*
X117959000Y-71971000D01*
X120039000Y-71971000D02*
X121289000Y-71971000D01*
X116731000Y-71931000D02*
X117959000Y-71931000D01*
X120039000Y-71931000D02*
X121267000Y-71931000D01*
X116752000Y-71891000D02*
X117959000Y-71891000D01*
X120039000Y-71891000D02*
X121246000Y-71891000D01*
X116775000Y-71851000D02*
X117959000Y-71851000D01*
X120039000Y-71851000D02*
X121223000Y-71851000D01*
X116799000Y-71811000D02*
X117959000Y-71811000D01*
X120039000Y-71811000D02*
X121199000Y-71811000D01*
X116824000Y-71771000D02*
X117959000Y-71771000D01*
X120039000Y-71771000D02*
X121174000Y-71771000D01*
X116850000Y-71731000D02*
X117959000Y-71731000D01*
X120039000Y-71731000D02*
X121148000Y-71731000D01*
X116877000Y-71691000D02*
X117959000Y-71691000D01*
X120039000Y-71691000D02*
X121121000Y-71691000D01*
X116904000Y-71651000D02*
X117959000Y-71651000D01*
X120039000Y-71651000D02*
X121094000Y-71651000D01*
X116934000Y-71611000D02*
X117959000Y-71611000D01*
X120039000Y-71611000D02*
X121064000Y-71611000D01*
X116964000Y-71571000D02*
X117959000Y-71571000D01*
X120039000Y-71571000D02*
X121034000Y-71571000D01*
X116995000Y-71531000D02*
X117959000Y-71531000D01*
X120039000Y-71531000D02*
X121003000Y-71531000D01*
X117028000Y-71491000D02*
X117959000Y-71491000D01*
X120039000Y-71491000D02*
X120970000Y-71491000D01*
X117062000Y-71451000D02*
X117959000Y-71451000D01*
X120039000Y-71451000D02*
X120936000Y-71451000D01*
X117098000Y-71411000D02*
X117959000Y-71411000D01*
X120039000Y-71411000D02*
X120900000Y-71411000D01*
X117135000Y-71371000D02*
X117959000Y-71371000D01*
X120039000Y-71371000D02*
X120863000Y-71371000D01*
X117173000Y-71331000D02*
X117959000Y-71331000D01*
X120039000Y-71331000D02*
X120825000Y-71331000D01*
X117214000Y-71291000D02*
X117959000Y-71291000D01*
X120039000Y-71291000D02*
X120784000Y-71291000D01*
X117256000Y-71251000D02*
X117959000Y-71251000D01*
X120039000Y-71251000D02*
X120742000Y-71251000D01*
X117300000Y-71211000D02*
X117959000Y-71211000D01*
X120039000Y-71211000D02*
X120698000Y-71211000D01*
X117346000Y-71171000D02*
X117959000Y-71171000D01*
X120039000Y-71171000D02*
X120652000Y-71171000D01*
X117394000Y-71131000D02*
X117959000Y-71131000D01*
X120039000Y-71131000D02*
X120604000Y-71131000D01*
X117445000Y-71091000D02*
X117959000Y-71091000D01*
X120039000Y-71091000D02*
X120553000Y-71091000D01*
X117499000Y-71051000D02*
X117959000Y-71051000D01*
X120039000Y-71051000D02*
X120499000Y-71051000D01*
X117556000Y-71011000D02*
X117959000Y-71011000D01*
X120039000Y-71011000D02*
X120442000Y-71011000D01*
X117616000Y-70971000D02*
X117959000Y-70971000D01*
X120039000Y-70971000D02*
X120382000Y-70971000D01*
X117680000Y-70931000D02*
X117959000Y-70931000D01*
X120039000Y-70931000D02*
X120318000Y-70931000D01*
X117748000Y-70891000D02*
X117959000Y-70891000D01*
X120039000Y-70891000D02*
X120250000Y-70891000D01*
X117821000Y-70851000D02*
X120177000Y-70851000D01*
X117901000Y-70811000D02*
X120097000Y-70811000D01*
X117988000Y-70771000D02*
X120010000Y-70771000D01*
X118084000Y-70731000D02*
X119914000Y-70731000D01*
X118194000Y-70691000D02*
X119804000Y-70691000D01*
X118322000Y-70651000D02*
X119676000Y-70651000D01*
X118481000Y-70611000D02*
X119517000Y-70611000D01*
X118715000Y-70571000D02*
X119283000Y-70571000D01*
X117524000Y-75976775D02*
X117524000Y-75476775D01*
X117274000Y-75726775D02*
X117774000Y-75726775D01*
%TO.C,C1*%
X106379000Y-92222000D02*
G75*
G03*
X106379000Y-92222000I-2620000J0D01*
G01*
X101179000Y-92222000D02*
X106339000Y-92222000D01*
X101179000Y-92182000D02*
X106339000Y-92182000D01*
X101180000Y-92142000D02*
X106338000Y-92142000D01*
X101181000Y-92102000D02*
X106337000Y-92102000D01*
X101183000Y-92062000D02*
X106335000Y-92062000D01*
X101186000Y-92022000D02*
X106332000Y-92022000D01*
X101190000Y-91982000D02*
X102719000Y-91982000D01*
X104799000Y-91982000D02*
X106328000Y-91982000D01*
X101194000Y-91942000D02*
X102719000Y-91942000D01*
X104799000Y-91942000D02*
X106324000Y-91942000D01*
X101198000Y-91902000D02*
X102719000Y-91902000D01*
X104799000Y-91902000D02*
X106320000Y-91902000D01*
X101203000Y-91862000D02*
X102719000Y-91862000D01*
X104799000Y-91862000D02*
X106315000Y-91862000D01*
X101209000Y-91822000D02*
X102719000Y-91822000D01*
X104799000Y-91822000D02*
X106309000Y-91822000D01*
X101216000Y-91782000D02*
X102719000Y-91782000D01*
X104799000Y-91782000D02*
X106302000Y-91782000D01*
X101223000Y-91742000D02*
X102719000Y-91742000D01*
X104799000Y-91742000D02*
X106295000Y-91742000D01*
X101231000Y-91702000D02*
X102719000Y-91702000D01*
X104799000Y-91702000D02*
X106287000Y-91702000D01*
X101239000Y-91662000D02*
X102719000Y-91662000D01*
X104799000Y-91662000D02*
X106279000Y-91662000D01*
X101248000Y-91622000D02*
X102719000Y-91622000D01*
X104799000Y-91622000D02*
X106270000Y-91622000D01*
X101258000Y-91582000D02*
X102719000Y-91582000D01*
X104799000Y-91582000D02*
X106260000Y-91582000D01*
X101268000Y-91542000D02*
X102719000Y-91542000D01*
X104799000Y-91542000D02*
X106250000Y-91542000D01*
X101279000Y-91501000D02*
X102719000Y-91501000D01*
X104799000Y-91501000D02*
X106239000Y-91501000D01*
X101291000Y-91461000D02*
X102719000Y-91461000D01*
X104799000Y-91461000D02*
X106227000Y-91461000D01*
X101304000Y-91421000D02*
X102719000Y-91421000D01*
X104799000Y-91421000D02*
X106214000Y-91421000D01*
X101317000Y-91381000D02*
X102719000Y-91381000D01*
X104799000Y-91381000D02*
X106201000Y-91381000D01*
X101331000Y-91341000D02*
X102719000Y-91341000D01*
X104799000Y-91341000D02*
X106187000Y-91341000D01*
X101345000Y-91301000D02*
X102719000Y-91301000D01*
X104799000Y-91301000D02*
X106173000Y-91301000D01*
X101361000Y-91261000D02*
X102719000Y-91261000D01*
X104799000Y-91261000D02*
X106157000Y-91261000D01*
X101377000Y-91221000D02*
X102719000Y-91221000D01*
X104799000Y-91221000D02*
X106141000Y-91221000D01*
X101394000Y-91181000D02*
X102719000Y-91181000D01*
X104799000Y-91181000D02*
X106124000Y-91181000D01*
X101411000Y-91141000D02*
X102719000Y-91141000D01*
X104799000Y-91141000D02*
X106107000Y-91141000D01*
X101430000Y-91101000D02*
X102719000Y-91101000D01*
X104799000Y-91101000D02*
X106088000Y-91101000D01*
X101449000Y-91061000D02*
X102719000Y-91061000D01*
X104799000Y-91061000D02*
X106069000Y-91061000D01*
X101469000Y-91021000D02*
X102719000Y-91021000D01*
X104799000Y-91021000D02*
X106049000Y-91021000D01*
X101491000Y-90981000D02*
X102719000Y-90981000D01*
X104799000Y-90981000D02*
X106027000Y-90981000D01*
X101512000Y-90941000D02*
X102719000Y-90941000D01*
X104799000Y-90941000D02*
X106006000Y-90941000D01*
X101535000Y-90901000D02*
X102719000Y-90901000D01*
X104799000Y-90901000D02*
X105983000Y-90901000D01*
X101559000Y-90861000D02*
X102719000Y-90861000D01*
X104799000Y-90861000D02*
X105959000Y-90861000D01*
X101584000Y-90821000D02*
X102719000Y-90821000D01*
X104799000Y-90821000D02*
X105934000Y-90821000D01*
X101610000Y-90781000D02*
X102719000Y-90781000D01*
X104799000Y-90781000D02*
X105908000Y-90781000D01*
X101637000Y-90741000D02*
X102719000Y-90741000D01*
X104799000Y-90741000D02*
X105881000Y-90741000D01*
X101664000Y-90701000D02*
X102719000Y-90701000D01*
X104799000Y-90701000D02*
X105854000Y-90701000D01*
X101694000Y-90661000D02*
X102719000Y-90661000D01*
X104799000Y-90661000D02*
X105824000Y-90661000D01*
X101724000Y-90621000D02*
X102719000Y-90621000D01*
X104799000Y-90621000D02*
X105794000Y-90621000D01*
X101755000Y-90581000D02*
X102719000Y-90581000D01*
X104799000Y-90581000D02*
X105763000Y-90581000D01*
X101788000Y-90541000D02*
X102719000Y-90541000D01*
X104799000Y-90541000D02*
X105730000Y-90541000D01*
X101822000Y-90501000D02*
X102719000Y-90501000D01*
X104799000Y-90501000D02*
X105696000Y-90501000D01*
X101858000Y-90461000D02*
X102719000Y-90461000D01*
X104799000Y-90461000D02*
X105660000Y-90461000D01*
X101895000Y-90421000D02*
X102719000Y-90421000D01*
X104799000Y-90421000D02*
X105623000Y-90421000D01*
X101933000Y-90381000D02*
X102719000Y-90381000D01*
X104799000Y-90381000D02*
X105585000Y-90381000D01*
X101974000Y-90341000D02*
X102719000Y-90341000D01*
X104799000Y-90341000D02*
X105544000Y-90341000D01*
X102016000Y-90301000D02*
X102719000Y-90301000D01*
X104799000Y-90301000D02*
X105502000Y-90301000D01*
X102060000Y-90261000D02*
X102719000Y-90261000D01*
X104799000Y-90261000D02*
X105458000Y-90261000D01*
X102106000Y-90221000D02*
X102719000Y-90221000D01*
X104799000Y-90221000D02*
X105412000Y-90221000D01*
X102154000Y-90181000D02*
X102719000Y-90181000D01*
X104799000Y-90181000D02*
X105364000Y-90181000D01*
X102205000Y-90141000D02*
X102719000Y-90141000D01*
X104799000Y-90141000D02*
X105313000Y-90141000D01*
X102259000Y-90101000D02*
X102719000Y-90101000D01*
X104799000Y-90101000D02*
X105259000Y-90101000D01*
X102316000Y-90061000D02*
X102719000Y-90061000D01*
X104799000Y-90061000D02*
X105202000Y-90061000D01*
X102376000Y-90021000D02*
X102719000Y-90021000D01*
X104799000Y-90021000D02*
X105142000Y-90021000D01*
X102440000Y-89981000D02*
X102719000Y-89981000D01*
X104799000Y-89981000D02*
X105078000Y-89981000D01*
X102508000Y-89941000D02*
X102719000Y-89941000D01*
X104799000Y-89941000D02*
X105010000Y-89941000D01*
X102581000Y-89901000D02*
X104937000Y-89901000D01*
X102661000Y-89861000D02*
X104857000Y-89861000D01*
X102748000Y-89821000D02*
X104770000Y-89821000D01*
X102844000Y-89781000D02*
X104674000Y-89781000D01*
X102954000Y-89741000D02*
X104564000Y-89741000D01*
X103082000Y-89701000D02*
X104436000Y-89701000D01*
X103241000Y-89661000D02*
X104277000Y-89661000D01*
X103475000Y-89621000D02*
X104043000Y-89621000D01*
X102284000Y-95026775D02*
X102284000Y-94526775D01*
X102034000Y-94776775D02*
X102534000Y-94776775D01*
%TO.C,R14*%
D10*
X135962142Y-68397380D02*
X135628809Y-67921190D01*
X135390714Y-68397380D02*
X135390714Y-67397380D01*
X135771666Y-67397380D01*
X135866904Y-67445000D01*
X135914523Y-67492619D01*
X135962142Y-67587857D01*
X135962142Y-67730714D01*
X135914523Y-67825952D01*
X135866904Y-67873571D01*
X135771666Y-67921190D01*
X135390714Y-67921190D01*
X136914523Y-68397380D02*
X136343095Y-68397380D01*
X136628809Y-68397380D02*
X136628809Y-67397380D01*
X136533571Y-67540238D01*
X136438333Y-67635476D01*
X136343095Y-67683095D01*
X137771666Y-67730714D02*
X137771666Y-68397380D01*
X137533571Y-67349761D02*
X137295476Y-68064047D01*
X137914523Y-68064047D01*
%TO.C,R13*%
X130246380Y-122562857D02*
X129770190Y-122896190D01*
X130246380Y-123134285D02*
X129246380Y-123134285D01*
X129246380Y-122753333D01*
X129294000Y-122658095D01*
X129341619Y-122610476D01*
X129436857Y-122562857D01*
X129579714Y-122562857D01*
X129674952Y-122610476D01*
X129722571Y-122658095D01*
X129770190Y-122753333D01*
X129770190Y-123134285D01*
X130246380Y-121610476D02*
X130246380Y-122181904D01*
X130246380Y-121896190D02*
X129246380Y-121896190D01*
X129389238Y-121991428D01*
X129484476Y-122086666D01*
X129532095Y-122181904D01*
X129246380Y-121277142D02*
X129246380Y-120658095D01*
X129627333Y-120991428D01*
X129627333Y-120848571D01*
X129674952Y-120753333D01*
X129722571Y-120705714D01*
X129817809Y-120658095D01*
X130055904Y-120658095D01*
X130151142Y-120705714D01*
X130198761Y-120753333D01*
X130246380Y-120848571D01*
X130246380Y-121134285D01*
X130198761Y-121229523D01*
X130151142Y-121277142D01*
%TO.C,R2*%
X129865380Y-76112666D02*
X129389190Y-76446000D01*
X129865380Y-76684095D02*
X128865380Y-76684095D01*
X128865380Y-76303142D01*
X128913000Y-76207904D01*
X128960619Y-76160285D01*
X129055857Y-76112666D01*
X129198714Y-76112666D01*
X129293952Y-76160285D01*
X129341571Y-76207904D01*
X129389190Y-76303142D01*
X129389190Y-76684095D01*
X128960619Y-75731714D02*
X128913000Y-75684095D01*
X128865380Y-75588857D01*
X128865380Y-75350761D01*
X128913000Y-75255523D01*
X128960619Y-75207904D01*
X129055857Y-75160285D01*
X129151095Y-75160285D01*
X129293952Y-75207904D01*
X129865380Y-75779333D01*
X129865380Y-75160285D01*
%TO.C,J8*%
X144446666Y-143216380D02*
X144446666Y-143930666D01*
X144399047Y-144073523D01*
X144303809Y-144168761D01*
X144160952Y-144216380D01*
X144065714Y-144216380D01*
X145065714Y-143644952D02*
X144970476Y-143597333D01*
X144922857Y-143549714D01*
X144875238Y-143454476D01*
X144875238Y-143406857D01*
X144922857Y-143311619D01*
X144970476Y-143264000D01*
X145065714Y-143216380D01*
X145256190Y-143216380D01*
X145351428Y-143264000D01*
X145399047Y-143311619D01*
X145446666Y-143406857D01*
X145446666Y-143454476D01*
X145399047Y-143549714D01*
X145351428Y-143597333D01*
X145256190Y-143644952D01*
X145065714Y-143644952D01*
X144970476Y-143692571D01*
X144922857Y-143740190D01*
X144875238Y-143835428D01*
X144875238Y-144025904D01*
X144922857Y-144121142D01*
X144970476Y-144168761D01*
X145065714Y-144216380D01*
X145256190Y-144216380D01*
X145351428Y-144168761D01*
X145399047Y-144121142D01*
X145446666Y-144025904D01*
X145446666Y-143835428D01*
X145399047Y-143740190D01*
X145351428Y-143692571D01*
X145256190Y-143644952D01*
%TO.C,J5*%
X136064666Y-39838380D02*
X136064666Y-40552666D01*
X136017047Y-40695523D01*
X135921809Y-40790761D01*
X135778952Y-40838380D01*
X135683714Y-40838380D01*
X137017047Y-39838380D02*
X136540857Y-39838380D01*
X136493238Y-40314571D01*
X136540857Y-40266952D01*
X136636095Y-40219333D01*
X136874190Y-40219333D01*
X136969428Y-40266952D01*
X137017047Y-40314571D01*
X137064666Y-40409809D01*
X137064666Y-40647904D01*
X137017047Y-40743142D01*
X136969428Y-40790761D01*
X136874190Y-40838380D01*
X136636095Y-40838380D01*
X136540857Y-40790761D01*
X136493238Y-40743142D01*
%TO.C,J3*%
X111426666Y-57952380D02*
X111426666Y-58666666D01*
X111379047Y-58809523D01*
X111283809Y-58904761D01*
X111140952Y-58952380D01*
X111045714Y-58952380D01*
X111807619Y-57952380D02*
X112426666Y-57952380D01*
X112093333Y-58333333D01*
X112236190Y-58333333D01*
X112331428Y-58380952D01*
X112379047Y-58428571D01*
X112426666Y-58523809D01*
X112426666Y-58761904D01*
X112379047Y-58857142D01*
X112331428Y-58904761D01*
X112236190Y-58952380D01*
X111950476Y-58952380D01*
X111855238Y-58904761D01*
X111807619Y-58857142D01*
%TO.C,J2*%
X135048666Y-43394380D02*
X135048666Y-44108666D01*
X135001047Y-44251523D01*
X134905809Y-44346761D01*
X134762952Y-44394380D01*
X134667714Y-44394380D01*
X135477238Y-43489619D02*
X135524857Y-43442000D01*
X135620095Y-43394380D01*
X135858190Y-43394380D01*
X135953428Y-43442000D01*
X136001047Y-43489619D01*
X136048666Y-43584857D01*
X136048666Y-43680095D01*
X136001047Y-43822952D01*
X135429619Y-44394380D01*
X136048666Y-44394380D01*
%TO.C,C13*%
X147439142Y-136120142D02*
X147391523Y-136167761D01*
X147248666Y-136215380D01*
X147153428Y-136215380D01*
X147010571Y-136167761D01*
X146915333Y-136072523D01*
X146867714Y-135977285D01*
X146820095Y-135786809D01*
X146820095Y-135643952D01*
X146867714Y-135453476D01*
X146915333Y-135358238D01*
X147010571Y-135263000D01*
X147153428Y-135215380D01*
X147248666Y-135215380D01*
X147391523Y-135263000D01*
X147439142Y-135310619D01*
X148391523Y-136215380D02*
X147820095Y-136215380D01*
X148105809Y-136215380D02*
X148105809Y-135215380D01*
X148010571Y-135358238D01*
X147915333Y-135453476D01*
X147820095Y-135501095D01*
X148724857Y-135215380D02*
X149343904Y-135215380D01*
X149010571Y-135596333D01*
X149153428Y-135596333D01*
X149248666Y-135643952D01*
X149296285Y-135691571D01*
X149343904Y-135786809D01*
X149343904Y-136024904D01*
X149296285Y-136120142D01*
X149248666Y-136167761D01*
X149153428Y-136215380D01*
X148867714Y-136215380D01*
X148772476Y-136167761D01*
X148724857Y-136120142D01*
%TO.C,C12*%
X132580142Y-138025142D02*
X132532523Y-138072761D01*
X132389666Y-138120380D01*
X132294428Y-138120380D01*
X132151571Y-138072761D01*
X132056333Y-137977523D01*
X132008714Y-137882285D01*
X131961095Y-137691809D01*
X131961095Y-137548952D01*
X132008714Y-137358476D01*
X132056333Y-137263238D01*
X132151571Y-137168000D01*
X132294428Y-137120380D01*
X132389666Y-137120380D01*
X132532523Y-137168000D01*
X132580142Y-137215619D01*
X133532523Y-138120380D02*
X132961095Y-138120380D01*
X133246809Y-138120380D02*
X133246809Y-137120380D01*
X133151571Y-137263238D01*
X133056333Y-137358476D01*
X132961095Y-137406095D01*
X133913476Y-137215619D02*
X133961095Y-137168000D01*
X134056333Y-137120380D01*
X134294428Y-137120380D01*
X134389666Y-137168000D01*
X134437285Y-137215619D01*
X134484904Y-137310857D01*
X134484904Y-137406095D01*
X134437285Y-137548952D01*
X133865857Y-138120380D01*
X134484904Y-138120380D01*
%TO.C,C11*%
X146153142Y-64944857D02*
X146200761Y-64992476D01*
X146248380Y-65135333D01*
X146248380Y-65230571D01*
X146200761Y-65373428D01*
X146105523Y-65468666D01*
X146010285Y-65516285D01*
X145819809Y-65563904D01*
X145676952Y-65563904D01*
X145486476Y-65516285D01*
X145391238Y-65468666D01*
X145296000Y-65373428D01*
X145248380Y-65230571D01*
X145248380Y-65135333D01*
X145296000Y-64992476D01*
X145343619Y-64944857D01*
X146248380Y-63992476D02*
X146248380Y-64563904D01*
X146248380Y-64278190D02*
X145248380Y-64278190D01*
X145391238Y-64373428D01*
X145486476Y-64468666D01*
X145534095Y-64563904D01*
X146248380Y-63040095D02*
X146248380Y-63611523D01*
X146248380Y-63325809D02*
X145248380Y-63325809D01*
X145391238Y-63421047D01*
X145486476Y-63516285D01*
X145534095Y-63611523D01*
%TO.C,C9*%
X135255333Y-123293142D02*
X135207714Y-123340761D01*
X135064857Y-123388380D01*
X134969619Y-123388380D01*
X134826761Y-123340761D01*
X134731523Y-123245523D01*
X134683904Y-123150285D01*
X134636285Y-122959809D01*
X134636285Y-122816952D01*
X134683904Y-122626476D01*
X134731523Y-122531238D01*
X134826761Y-122436000D01*
X134969619Y-122388380D01*
X135064857Y-122388380D01*
X135207714Y-122436000D01*
X135255333Y-122483619D01*
X135731523Y-123388380D02*
X135922000Y-123388380D01*
X136017238Y-123340761D01*
X136064857Y-123293142D01*
X136160095Y-123150285D01*
X136207714Y-122959809D01*
X136207714Y-122578857D01*
X136160095Y-122483619D01*
X136112476Y-122436000D01*
X136017238Y-122388380D01*
X135826761Y-122388380D01*
X135731523Y-122436000D01*
X135683904Y-122483619D01*
X135636285Y-122578857D01*
X135636285Y-122816952D01*
X135683904Y-122912190D01*
X135731523Y-122959809D01*
X135826761Y-123007428D01*
X136017238Y-123007428D01*
X136112476Y-122959809D01*
X136160095Y-122912190D01*
X136207714Y-122816952D01*
%TO.C,RV3*%
X106084761Y-128722380D02*
X105751428Y-128246190D01*
X105513333Y-128722380D02*
X105513333Y-127722380D01*
X105894285Y-127722380D01*
X105989523Y-127770000D01*
X106037142Y-127817619D01*
X106084761Y-127912857D01*
X106084761Y-128055714D01*
X106037142Y-128150952D01*
X105989523Y-128198571D01*
X105894285Y-128246190D01*
X105513333Y-128246190D01*
X106370476Y-127722380D02*
X106703809Y-128722380D01*
X107037142Y-127722380D01*
X107275238Y-127722380D02*
X107894285Y-127722380D01*
X107560952Y-128103333D01*
X107703809Y-128103333D01*
X107799047Y-128150952D01*
X107846666Y-128198571D01*
X107894285Y-128293809D01*
X107894285Y-128531904D01*
X107846666Y-128627142D01*
X107799047Y-128674761D01*
X107703809Y-128722380D01*
X107418095Y-128722380D01*
X107322857Y-128674761D01*
X107275238Y-128627142D01*
%TO.C,RV2*%
X106084761Y-109672380D02*
X105751428Y-109196190D01*
X105513333Y-109672380D02*
X105513333Y-108672380D01*
X105894285Y-108672380D01*
X105989523Y-108720000D01*
X106037142Y-108767619D01*
X106084761Y-108862857D01*
X106084761Y-109005714D01*
X106037142Y-109100952D01*
X105989523Y-109148571D01*
X105894285Y-109196190D01*
X105513333Y-109196190D01*
X106370476Y-108672380D02*
X106703809Y-109672380D01*
X107037142Y-108672380D01*
X107322857Y-108767619D02*
X107370476Y-108720000D01*
X107465714Y-108672380D01*
X107703809Y-108672380D01*
X107799047Y-108720000D01*
X107846666Y-108767619D01*
X107894285Y-108862857D01*
X107894285Y-108958095D01*
X107846666Y-109100952D01*
X107275238Y-109672380D01*
X107894285Y-109672380D01*
%TO.C,RV1*%
X106084761Y-147772380D02*
X105751428Y-147296190D01*
X105513333Y-147772380D02*
X105513333Y-146772380D01*
X105894285Y-146772380D01*
X105989523Y-146820000D01*
X106037142Y-146867619D01*
X106084761Y-146962857D01*
X106084761Y-147105714D01*
X106037142Y-147200952D01*
X105989523Y-147248571D01*
X105894285Y-147296190D01*
X105513333Y-147296190D01*
X106370476Y-146772380D02*
X106703809Y-147772380D01*
X107037142Y-146772380D01*
X107894285Y-147772380D02*
X107322857Y-147772380D01*
X107608571Y-147772380D02*
X107608571Y-146772380D01*
X107513333Y-146915238D01*
X107418095Y-147010476D01*
X107322857Y-147058095D01*
%TO.C,U3*%
X144018095Y-126706380D02*
X144018095Y-127515904D01*
X144065714Y-127611142D01*
X144113333Y-127658761D01*
X144208571Y-127706380D01*
X144399047Y-127706380D01*
X144494285Y-127658761D01*
X144541904Y-127611142D01*
X144589523Y-127515904D01*
X144589523Y-126706380D01*
X144970476Y-126706380D02*
X145589523Y-126706380D01*
X145256190Y-127087333D01*
X145399047Y-127087333D01*
X145494285Y-127134952D01*
X145541904Y-127182571D01*
X145589523Y-127277809D01*
X145589523Y-127515904D01*
X145541904Y-127611142D01*
X145494285Y-127658761D01*
X145399047Y-127706380D01*
X145113333Y-127706380D01*
X145018095Y-127658761D01*
X144970476Y-127611142D01*
%TO.C,U2*%
X137414095Y-111720380D02*
X137414095Y-112529904D01*
X137461714Y-112625142D01*
X137509333Y-112672761D01*
X137604571Y-112720380D01*
X137795047Y-112720380D01*
X137890285Y-112672761D01*
X137937904Y-112625142D01*
X137985523Y-112529904D01*
X137985523Y-111720380D01*
X138414095Y-111815619D02*
X138461714Y-111768000D01*
X138556952Y-111720380D01*
X138795047Y-111720380D01*
X138890285Y-111768000D01*
X138937904Y-111815619D01*
X138985523Y-111910857D01*
X138985523Y-112006095D01*
X138937904Y-112148952D01*
X138366476Y-112720380D01*
X138985523Y-112720380D01*
%TO.C,U1*%
X141224095Y-54062380D02*
X141224095Y-54871904D01*
X141271714Y-54967142D01*
X141319333Y-55014761D01*
X141414571Y-55062380D01*
X141605047Y-55062380D01*
X141700285Y-55014761D01*
X141747904Y-54967142D01*
X141795523Y-54871904D01*
X141795523Y-54062380D01*
X142795523Y-55062380D02*
X142224095Y-55062380D01*
X142509809Y-55062380D02*
X142509809Y-54062380D01*
X142414571Y-54205238D01*
X142319333Y-54300476D01*
X142224095Y-54348095D01*
%TO.C,R15*%
X149550380Y-61602857D02*
X149074190Y-61936190D01*
X149550380Y-62174285D02*
X148550380Y-62174285D01*
X148550380Y-61793333D01*
X148598000Y-61698095D01*
X148645619Y-61650476D01*
X148740857Y-61602857D01*
X148883714Y-61602857D01*
X148978952Y-61650476D01*
X149026571Y-61698095D01*
X149074190Y-61793333D01*
X149074190Y-62174285D01*
X149550380Y-60650476D02*
X149550380Y-61221904D01*
X149550380Y-60936190D02*
X148550380Y-60936190D01*
X148693238Y-61031428D01*
X148788476Y-61126666D01*
X148836095Y-61221904D01*
X148550380Y-59745714D02*
X148550380Y-60221904D01*
X149026571Y-60269523D01*
X148978952Y-60221904D01*
X148931333Y-60126666D01*
X148931333Y-59888571D01*
X148978952Y-59793333D01*
X149026571Y-59745714D01*
X149121809Y-59698095D01*
X149359904Y-59698095D01*
X149455142Y-59745714D01*
X149502761Y-59793333D01*
X149550380Y-59888571D01*
X149550380Y-60126666D01*
X149502761Y-60221904D01*
X149455142Y-60269523D01*
%TO.C,R12*%
X138422142Y-80716380D02*
X138088809Y-80240190D01*
X137850714Y-80716380D02*
X137850714Y-79716380D01*
X138231666Y-79716380D01*
X138326904Y-79764000D01*
X138374523Y-79811619D01*
X138422142Y-79906857D01*
X138422142Y-80049714D01*
X138374523Y-80144952D01*
X138326904Y-80192571D01*
X138231666Y-80240190D01*
X137850714Y-80240190D01*
X139374523Y-80716380D02*
X138803095Y-80716380D01*
X139088809Y-80716380D02*
X139088809Y-79716380D01*
X138993571Y-79859238D01*
X138898333Y-79954476D01*
X138803095Y-80002095D01*
X139755476Y-79811619D02*
X139803095Y-79764000D01*
X139898333Y-79716380D01*
X140136428Y-79716380D01*
X140231666Y-79764000D01*
X140279285Y-79811619D01*
X140326904Y-79906857D01*
X140326904Y-80002095D01*
X140279285Y-80144952D01*
X139707857Y-80716380D01*
X140326904Y-80716380D01*
%TO.C,R11*%
X138549142Y-84145380D02*
X138215809Y-83669190D01*
X137977714Y-84145380D02*
X137977714Y-83145380D01*
X138358666Y-83145380D01*
X138453904Y-83193000D01*
X138501523Y-83240619D01*
X138549142Y-83335857D01*
X138549142Y-83478714D01*
X138501523Y-83573952D01*
X138453904Y-83621571D01*
X138358666Y-83669190D01*
X137977714Y-83669190D01*
X139501523Y-84145380D02*
X138930095Y-84145380D01*
X139215809Y-84145380D02*
X139215809Y-83145380D01*
X139120571Y-83288238D01*
X139025333Y-83383476D01*
X138930095Y-83431095D01*
X140453904Y-84145380D02*
X139882476Y-84145380D01*
X140168190Y-84145380D02*
X140168190Y-83145380D01*
X140072952Y-83288238D01*
X139977714Y-83383476D01*
X139882476Y-83431095D01*
%TO.C,R10*%
X138168142Y-95321380D02*
X137834809Y-94845190D01*
X137596714Y-95321380D02*
X137596714Y-94321380D01*
X137977666Y-94321380D01*
X138072904Y-94369000D01*
X138120523Y-94416619D01*
X138168142Y-94511857D01*
X138168142Y-94654714D01*
X138120523Y-94749952D01*
X138072904Y-94797571D01*
X137977666Y-94845190D01*
X137596714Y-94845190D01*
X139120523Y-95321380D02*
X138549095Y-95321380D01*
X138834809Y-95321380D02*
X138834809Y-94321380D01*
X138739571Y-94464238D01*
X138644333Y-94559476D01*
X138549095Y-94607095D01*
X139739571Y-94321380D02*
X139834809Y-94321380D01*
X139930047Y-94369000D01*
X139977666Y-94416619D01*
X140025285Y-94511857D01*
X140072904Y-94702333D01*
X140072904Y-94940428D01*
X140025285Y-95130904D01*
X139977666Y-95226142D01*
X139930047Y-95273761D01*
X139834809Y-95321380D01*
X139739571Y-95321380D01*
X139644333Y-95273761D01*
X139596714Y-95226142D01*
X139549095Y-95130904D01*
X139501476Y-94940428D01*
X139501476Y-94702333D01*
X139549095Y-94511857D01*
X139596714Y-94416619D01*
X139644333Y-94369000D01*
X139739571Y-94321380D01*
%TO.C,R9*%
X138644333Y-92146380D02*
X138311000Y-91670190D01*
X138072904Y-92146380D02*
X138072904Y-91146380D01*
X138453857Y-91146380D01*
X138549095Y-91194000D01*
X138596714Y-91241619D01*
X138644333Y-91336857D01*
X138644333Y-91479714D01*
X138596714Y-91574952D01*
X138549095Y-91622571D01*
X138453857Y-91670190D01*
X138072904Y-91670190D01*
X139120523Y-92146380D02*
X139311000Y-92146380D01*
X139406238Y-92098761D01*
X139453857Y-92051142D01*
X139549095Y-91908285D01*
X139596714Y-91717809D01*
X139596714Y-91336857D01*
X139549095Y-91241619D01*
X139501476Y-91194000D01*
X139406238Y-91146380D01*
X139215761Y-91146380D01*
X139120523Y-91194000D01*
X139072904Y-91241619D01*
X139025285Y-91336857D01*
X139025285Y-91574952D01*
X139072904Y-91670190D01*
X139120523Y-91717809D01*
X139215761Y-91765428D01*
X139406238Y-91765428D01*
X139501476Y-91717809D01*
X139549095Y-91670190D01*
X139596714Y-91574952D01*
%TO.C,R8*%
X147899380Y-86907666D02*
X147423190Y-87241000D01*
X147899380Y-87479095D02*
X146899380Y-87479095D01*
X146899380Y-87098142D01*
X146947000Y-87002904D01*
X146994619Y-86955285D01*
X147089857Y-86907666D01*
X147232714Y-86907666D01*
X147327952Y-86955285D01*
X147375571Y-87002904D01*
X147423190Y-87098142D01*
X147423190Y-87479095D01*
X147327952Y-86336238D02*
X147280333Y-86431476D01*
X147232714Y-86479095D01*
X147137476Y-86526714D01*
X147089857Y-86526714D01*
X146994619Y-86479095D01*
X146947000Y-86431476D01*
X146899380Y-86336238D01*
X146899380Y-86145761D01*
X146947000Y-86050523D01*
X146994619Y-86002904D01*
X147089857Y-85955285D01*
X147137476Y-85955285D01*
X147232714Y-86002904D01*
X147280333Y-86050523D01*
X147327952Y-86145761D01*
X147327952Y-86336238D01*
X147375571Y-86431476D01*
X147423190Y-86479095D01*
X147518428Y-86526714D01*
X147708904Y-86526714D01*
X147804142Y-86479095D01*
X147851761Y-86431476D01*
X147899380Y-86336238D01*
X147899380Y-86145761D01*
X147851761Y-86050523D01*
X147804142Y-86002904D01*
X147708904Y-85955285D01*
X147518428Y-85955285D01*
X147423190Y-86002904D01*
X147375571Y-86050523D01*
X147327952Y-86145761D01*
%TO.C,R7*%
X149042380Y-99861666D02*
X148566190Y-100195000D01*
X149042380Y-100433095D02*
X148042380Y-100433095D01*
X148042380Y-100052142D01*
X148090000Y-99956904D01*
X148137619Y-99909285D01*
X148232857Y-99861666D01*
X148375714Y-99861666D01*
X148470952Y-99909285D01*
X148518571Y-99956904D01*
X148566190Y-100052142D01*
X148566190Y-100433095D01*
X148042380Y-99528333D02*
X148042380Y-98861666D01*
X149042380Y-99290238D01*
%TO.C,R6*%
X145740380Y-111545666D02*
X145264190Y-111879000D01*
X145740380Y-112117095D02*
X144740380Y-112117095D01*
X144740380Y-111736142D01*
X144788000Y-111640904D01*
X144835619Y-111593285D01*
X144930857Y-111545666D01*
X145073714Y-111545666D01*
X145168952Y-111593285D01*
X145216571Y-111640904D01*
X145264190Y-111736142D01*
X145264190Y-112117095D01*
X144740380Y-110688523D02*
X144740380Y-110879000D01*
X144788000Y-110974238D01*
X144835619Y-111021857D01*
X144978476Y-111117095D01*
X145168952Y-111164714D01*
X145549904Y-111164714D01*
X145645142Y-111117095D01*
X145692761Y-111069476D01*
X145740380Y-110974238D01*
X145740380Y-110783761D01*
X145692761Y-110688523D01*
X145645142Y-110640904D01*
X145549904Y-110593285D01*
X145311809Y-110593285D01*
X145216571Y-110640904D01*
X145168952Y-110688523D01*
X145121333Y-110783761D01*
X145121333Y-110974238D01*
X145168952Y-111069476D01*
X145216571Y-111117095D01*
X145311809Y-111164714D01*
%TO.C,R5*%
X139533333Y-98623380D02*
X139200000Y-98147190D01*
X138961904Y-98623380D02*
X138961904Y-97623380D01*
X139342857Y-97623380D01*
X139438095Y-97671000D01*
X139485714Y-97718619D01*
X139533333Y-97813857D01*
X139533333Y-97956714D01*
X139485714Y-98051952D01*
X139438095Y-98099571D01*
X139342857Y-98147190D01*
X138961904Y-98147190D01*
X140438095Y-97623380D02*
X139961904Y-97623380D01*
X139914285Y-98099571D01*
X139961904Y-98051952D01*
X140057142Y-98004333D01*
X140295238Y-98004333D01*
X140390476Y-98051952D01*
X140438095Y-98099571D01*
X140485714Y-98194809D01*
X140485714Y-98432904D01*
X140438095Y-98528142D01*
X140390476Y-98575761D01*
X140295238Y-98623380D01*
X140057142Y-98623380D01*
X139961904Y-98575761D01*
X139914285Y-98528142D01*
%TO.C,R4*%
X139533333Y-102179380D02*
X139200000Y-101703190D01*
X138961904Y-102179380D02*
X138961904Y-101179380D01*
X139342857Y-101179380D01*
X139438095Y-101227000D01*
X139485714Y-101274619D01*
X139533333Y-101369857D01*
X139533333Y-101512714D01*
X139485714Y-101607952D01*
X139438095Y-101655571D01*
X139342857Y-101703190D01*
X138961904Y-101703190D01*
X140390476Y-101512714D02*
X140390476Y-102179380D01*
X140152380Y-101131761D02*
X139914285Y-101846047D01*
X140533333Y-101846047D01*
%TO.C,R3*%
X129484380Y-55030666D02*
X129008190Y-55364000D01*
X129484380Y-55602095D02*
X128484380Y-55602095D01*
X128484380Y-55221142D01*
X128532000Y-55125904D01*
X128579619Y-55078285D01*
X128674857Y-55030666D01*
X128817714Y-55030666D01*
X128912952Y-55078285D01*
X128960571Y-55125904D01*
X129008190Y-55221142D01*
X129008190Y-55602095D01*
X128484380Y-54697333D02*
X128484380Y-54078285D01*
X128865333Y-54411619D01*
X128865333Y-54268761D01*
X128912952Y-54173523D01*
X128960571Y-54125904D01*
X129055809Y-54078285D01*
X129293904Y-54078285D01*
X129389142Y-54125904D01*
X129436761Y-54173523D01*
X129484380Y-54268761D01*
X129484380Y-54554476D01*
X129436761Y-54649714D01*
X129389142Y-54697333D01*
%TO.C,R1*%
X134453333Y-47442380D02*
X134120000Y-46966190D01*
X133881904Y-47442380D02*
X133881904Y-46442380D01*
X134262857Y-46442380D01*
X134358095Y-46490000D01*
X134405714Y-46537619D01*
X134453333Y-46632857D01*
X134453333Y-46775714D01*
X134405714Y-46870952D01*
X134358095Y-46918571D01*
X134262857Y-46966190D01*
X133881904Y-46966190D01*
X135405714Y-47442380D02*
X134834285Y-47442380D01*
X135120000Y-47442380D02*
X135120000Y-46442380D01*
X135024761Y-46585238D01*
X134929523Y-46680476D01*
X134834285Y-46728095D01*
%TO.C,J4*%
X111426666Y-38902380D02*
X111426666Y-39616666D01*
X111379047Y-39759523D01*
X111283809Y-39854761D01*
X111140952Y-39902380D01*
X111045714Y-39902380D01*
X112331428Y-39235714D02*
X112331428Y-39902380D01*
X112093333Y-38854761D02*
X111855238Y-39569047D01*
X112474285Y-39569047D01*
%TO.C,J1*%
X111426666Y-77002380D02*
X111426666Y-77716666D01*
X111379047Y-77859523D01*
X111283809Y-77954761D01*
X111140952Y-78002380D01*
X111045714Y-78002380D01*
X112426666Y-78002380D02*
X111855238Y-78002380D01*
X112140952Y-78002380D02*
X112140952Y-77002380D01*
X112045714Y-77145238D01*
X111950476Y-77240476D01*
X111855238Y-77288095D01*
%TO.C,D2*%
X149042380Y-143867095D02*
X148042380Y-143867095D01*
X148042380Y-143629000D01*
X148090000Y-143486142D01*
X148185238Y-143390904D01*
X148280476Y-143343285D01*
X148470952Y-143295666D01*
X148613809Y-143295666D01*
X148804285Y-143343285D01*
X148899523Y-143390904D01*
X148994761Y-143486142D01*
X149042380Y-143629000D01*
X149042380Y-143867095D01*
X148137619Y-142914714D02*
X148090000Y-142867095D01*
X148042380Y-142771857D01*
X148042380Y-142533761D01*
X148090000Y-142438523D01*
X148137619Y-142390904D01*
X148232857Y-142343285D01*
X148328095Y-142343285D01*
X148470952Y-142390904D01*
X149042380Y-142962333D01*
X149042380Y-142343285D01*
%TO.C,D1*%
X129992380Y-144629095D02*
X128992380Y-144629095D01*
X128992380Y-144391000D01*
X129040000Y-144248142D01*
X129135238Y-144152904D01*
X129230476Y-144105285D01*
X129420952Y-144057666D01*
X129563809Y-144057666D01*
X129754285Y-144105285D01*
X129849523Y-144152904D01*
X129944761Y-144248142D01*
X129992380Y-144391000D01*
X129992380Y-144629095D01*
X129992380Y-143105285D02*
X129992380Y-143676714D01*
X129992380Y-143391000D02*
X128992380Y-143391000D01*
X129135238Y-143486238D01*
X129230476Y-143581476D01*
X129278095Y-143676714D01*
%TO.C,C19*%
X144177142Y-47347142D02*
X144129523Y-47394761D01*
X143986666Y-47442380D01*
X143891428Y-47442380D01*
X143748571Y-47394761D01*
X143653333Y-47299523D01*
X143605714Y-47204285D01*
X143558095Y-47013809D01*
X143558095Y-46870952D01*
X143605714Y-46680476D01*
X143653333Y-46585238D01*
X143748571Y-46490000D01*
X143891428Y-46442380D01*
X143986666Y-46442380D01*
X144129523Y-46490000D01*
X144177142Y-46537619D01*
X145129523Y-47442380D02*
X144558095Y-47442380D01*
X144843809Y-47442380D02*
X144843809Y-46442380D01*
X144748571Y-46585238D01*
X144653333Y-46680476D01*
X144558095Y-46728095D01*
X145605714Y-47442380D02*
X145796190Y-47442380D01*
X145891428Y-47394761D01*
X145939047Y-47347142D01*
X146034285Y-47204285D01*
X146081904Y-47013809D01*
X146081904Y-46632857D01*
X146034285Y-46537619D01*
X145986666Y-46490000D01*
X145891428Y-46442380D01*
X145700952Y-46442380D01*
X145605714Y-46490000D01*
X145558095Y-46537619D01*
X145510476Y-46632857D01*
X145510476Y-46870952D01*
X145558095Y-46966190D01*
X145605714Y-47013809D01*
X145700952Y-47061428D01*
X145891428Y-47061428D01*
X145986666Y-47013809D01*
X146034285Y-46966190D01*
X146081904Y-46870952D01*
%TO.C,C18*%
X137517142Y-128952857D02*
X137564761Y-129000476D01*
X137612380Y-129143333D01*
X137612380Y-129238571D01*
X137564761Y-129381428D01*
X137469523Y-129476666D01*
X137374285Y-129524285D01*
X137183809Y-129571904D01*
X137040952Y-129571904D01*
X136850476Y-129524285D01*
X136755238Y-129476666D01*
X136660000Y-129381428D01*
X136612380Y-129238571D01*
X136612380Y-129143333D01*
X136660000Y-129000476D01*
X136707619Y-128952857D01*
X137612380Y-128000476D02*
X137612380Y-128571904D01*
X137612380Y-128286190D02*
X136612380Y-128286190D01*
X136755238Y-128381428D01*
X136850476Y-128476666D01*
X136898095Y-128571904D01*
X137040952Y-127429047D02*
X136993333Y-127524285D01*
X136945714Y-127571904D01*
X136850476Y-127619523D01*
X136802857Y-127619523D01*
X136707619Y-127571904D01*
X136660000Y-127524285D01*
X136612380Y-127429047D01*
X136612380Y-127238571D01*
X136660000Y-127143333D01*
X136707619Y-127095714D01*
X136802857Y-127048095D01*
X136850476Y-127048095D01*
X136945714Y-127095714D01*
X136993333Y-127143333D01*
X137040952Y-127238571D01*
X137040952Y-127429047D01*
X137088571Y-127524285D01*
X137136190Y-127571904D01*
X137231428Y-127619523D01*
X137421904Y-127619523D01*
X137517142Y-127571904D01*
X137564761Y-127524285D01*
X137612380Y-127429047D01*
X137612380Y-127238571D01*
X137564761Y-127143333D01*
X137517142Y-127095714D01*
X137421904Y-127048095D01*
X137231428Y-127048095D01*
X137136190Y-127095714D01*
X137088571Y-127143333D01*
X137040952Y-127238571D01*
%TO.C,C17*%
X145367142Y-119737142D02*
X145319523Y-119784761D01*
X145176666Y-119832380D01*
X145081428Y-119832380D01*
X144938571Y-119784761D01*
X144843333Y-119689523D01*
X144795714Y-119594285D01*
X144748095Y-119403809D01*
X144748095Y-119260952D01*
X144795714Y-119070476D01*
X144843333Y-118975238D01*
X144938571Y-118880000D01*
X145081428Y-118832380D01*
X145176666Y-118832380D01*
X145319523Y-118880000D01*
X145367142Y-118927619D01*
X146319523Y-119832380D02*
X145748095Y-119832380D01*
X146033809Y-119832380D02*
X146033809Y-118832380D01*
X145938571Y-118975238D01*
X145843333Y-119070476D01*
X145748095Y-119118095D01*
X146652857Y-118832380D02*
X147319523Y-118832380D01*
X146890952Y-119832380D01*
%TO.C,C16*%
X135485142Y-56562857D02*
X135532761Y-56610476D01*
X135580380Y-56753333D01*
X135580380Y-56848571D01*
X135532761Y-56991428D01*
X135437523Y-57086666D01*
X135342285Y-57134285D01*
X135151809Y-57181904D01*
X135008952Y-57181904D01*
X134818476Y-57134285D01*
X134723238Y-57086666D01*
X134628000Y-56991428D01*
X134580380Y-56848571D01*
X134580380Y-56753333D01*
X134628000Y-56610476D01*
X134675619Y-56562857D01*
X135580380Y-55610476D02*
X135580380Y-56181904D01*
X135580380Y-55896190D02*
X134580380Y-55896190D01*
X134723238Y-55991428D01*
X134818476Y-56086666D01*
X134866095Y-56181904D01*
X134580380Y-54753333D02*
X134580380Y-54943809D01*
X134628000Y-55039047D01*
X134675619Y-55086666D01*
X134818476Y-55181904D01*
X135008952Y-55229523D01*
X135389904Y-55229523D01*
X135485142Y-55181904D01*
X135532761Y-55134285D01*
X135580380Y-55039047D01*
X135580380Y-54848571D01*
X135532761Y-54753333D01*
X135485142Y-54705714D01*
X135389904Y-54658095D01*
X135151809Y-54658095D01*
X135056571Y-54705714D01*
X135008952Y-54753333D01*
X134961333Y-54848571D01*
X134961333Y-55039047D01*
X135008952Y-55134285D01*
X135056571Y-55181904D01*
X135151809Y-55229523D01*
%TO.C,C15*%
X138883142Y-105513142D02*
X138835523Y-105560761D01*
X138692666Y-105608380D01*
X138597428Y-105608380D01*
X138454571Y-105560761D01*
X138359333Y-105465523D01*
X138311714Y-105370285D01*
X138264095Y-105179809D01*
X138264095Y-105036952D01*
X138311714Y-104846476D01*
X138359333Y-104751238D01*
X138454571Y-104656000D01*
X138597428Y-104608380D01*
X138692666Y-104608380D01*
X138835523Y-104656000D01*
X138883142Y-104703619D01*
X139835523Y-105608380D02*
X139264095Y-105608380D01*
X139549809Y-105608380D02*
X139549809Y-104608380D01*
X139454571Y-104751238D01*
X139359333Y-104846476D01*
X139264095Y-104894095D01*
X140740285Y-104608380D02*
X140264095Y-104608380D01*
X140216476Y-105084571D01*
X140264095Y-105036952D01*
X140359333Y-104989333D01*
X140597428Y-104989333D01*
X140692666Y-105036952D01*
X140740285Y-105084571D01*
X140787904Y-105179809D01*
X140787904Y-105417904D01*
X140740285Y-105513142D01*
X140692666Y-105560761D01*
X140597428Y-105608380D01*
X140359333Y-105608380D01*
X140264095Y-105560761D01*
X140216476Y-105513142D01*
%TO.C,C14*%
X135969142Y-119737142D02*
X135921523Y-119784761D01*
X135778666Y-119832380D01*
X135683428Y-119832380D01*
X135540571Y-119784761D01*
X135445333Y-119689523D01*
X135397714Y-119594285D01*
X135350095Y-119403809D01*
X135350095Y-119260952D01*
X135397714Y-119070476D01*
X135445333Y-118975238D01*
X135540571Y-118880000D01*
X135683428Y-118832380D01*
X135778666Y-118832380D01*
X135921523Y-118880000D01*
X135969142Y-118927619D01*
X136921523Y-119832380D02*
X136350095Y-119832380D01*
X136635809Y-119832380D02*
X136635809Y-118832380D01*
X136540571Y-118975238D01*
X136445333Y-119070476D01*
X136350095Y-119118095D01*
X137778666Y-119165714D02*
X137778666Y-119832380D01*
X137540571Y-118784761D02*
X137302476Y-119499047D01*
X137921523Y-119499047D01*
%TO.C,C10*%
X135755142Y-61317142D02*
X135707523Y-61364761D01*
X135564666Y-61412380D01*
X135469428Y-61412380D01*
X135326571Y-61364761D01*
X135231333Y-61269523D01*
X135183714Y-61174285D01*
X135136095Y-60983809D01*
X135136095Y-60840952D01*
X135183714Y-60650476D01*
X135231333Y-60555238D01*
X135326571Y-60460000D01*
X135469428Y-60412380D01*
X135564666Y-60412380D01*
X135707523Y-60460000D01*
X135755142Y-60507619D01*
X136707523Y-61412380D02*
X136136095Y-61412380D01*
X136421809Y-61412380D02*
X136421809Y-60412380D01*
X136326571Y-60555238D01*
X136231333Y-60650476D01*
X136136095Y-60698095D01*
X137326571Y-60412380D02*
X137421809Y-60412380D01*
X137517047Y-60460000D01*
X137564666Y-60507619D01*
X137612285Y-60602857D01*
X137659904Y-60793333D01*
X137659904Y-61031428D01*
X137612285Y-61221904D01*
X137564666Y-61317142D01*
X137517047Y-61364761D01*
X137421809Y-61412380D01*
X137326571Y-61412380D01*
X137231333Y-61364761D01*
X137183714Y-61317142D01*
X137136095Y-61221904D01*
X137088476Y-61031428D01*
X137088476Y-60793333D01*
X137136095Y-60602857D01*
X137183714Y-60507619D01*
X137231333Y-60460000D01*
X137326571Y-60412380D01*
%TO.C,C8*%
X130659142Y-111926666D02*
X130706761Y-111974285D01*
X130754380Y-112117142D01*
X130754380Y-112212380D01*
X130706761Y-112355238D01*
X130611523Y-112450476D01*
X130516285Y-112498095D01*
X130325809Y-112545714D01*
X130182952Y-112545714D01*
X129992476Y-112498095D01*
X129897238Y-112450476D01*
X129802000Y-112355238D01*
X129754380Y-112212380D01*
X129754380Y-112117142D01*
X129802000Y-111974285D01*
X129849619Y-111926666D01*
X130182952Y-111355238D02*
X130135333Y-111450476D01*
X130087714Y-111498095D01*
X129992476Y-111545714D01*
X129944857Y-111545714D01*
X129849619Y-111498095D01*
X129802000Y-111450476D01*
X129754380Y-111355238D01*
X129754380Y-111164761D01*
X129802000Y-111069523D01*
X129849619Y-111021904D01*
X129944857Y-110974285D01*
X129992476Y-110974285D01*
X130087714Y-111021904D01*
X130135333Y-111069523D01*
X130182952Y-111164761D01*
X130182952Y-111355238D01*
X130230571Y-111450476D01*
X130278190Y-111498095D01*
X130373428Y-111545714D01*
X130563904Y-111545714D01*
X130659142Y-111498095D01*
X130706761Y-111450476D01*
X130754380Y-111355238D01*
X130754380Y-111164761D01*
X130706761Y-111069523D01*
X130659142Y-111021904D01*
X130563904Y-110974285D01*
X130373428Y-110974285D01*
X130278190Y-111021904D01*
X130230571Y-111069523D01*
X130182952Y-111164761D01*
%TO.C,C7*%
X136699333Y-77065142D02*
X136651714Y-77112761D01*
X136508857Y-77160380D01*
X136413619Y-77160380D01*
X136270761Y-77112761D01*
X136175523Y-77017523D01*
X136127904Y-76922285D01*
X136080285Y-76731809D01*
X136080285Y-76588952D01*
X136127904Y-76398476D01*
X136175523Y-76303238D01*
X136270761Y-76208000D01*
X136413619Y-76160380D01*
X136508857Y-76160380D01*
X136651714Y-76208000D01*
X136699333Y-76255619D01*
X137032666Y-76160380D02*
X137699333Y-76160380D01*
X137270761Y-77160380D01*
%TO.C,C6*%
X136445333Y-87860142D02*
X136397714Y-87907761D01*
X136254857Y-87955380D01*
X136159619Y-87955380D01*
X136016761Y-87907761D01*
X135921523Y-87812523D01*
X135873904Y-87717285D01*
X135826285Y-87526809D01*
X135826285Y-87383952D01*
X135873904Y-87193476D01*
X135921523Y-87098238D01*
X136016761Y-87003000D01*
X136159619Y-86955380D01*
X136254857Y-86955380D01*
X136397714Y-87003000D01*
X136445333Y-87050619D01*
X137302476Y-86955380D02*
X137112000Y-86955380D01*
X137016761Y-87003000D01*
X136969142Y-87050619D01*
X136873904Y-87193476D01*
X136826285Y-87383952D01*
X136826285Y-87764904D01*
X136873904Y-87860142D01*
X136921523Y-87907761D01*
X137016761Y-87955380D01*
X137207238Y-87955380D01*
X137302476Y-87907761D01*
X137350095Y-87860142D01*
X137397714Y-87764904D01*
X137397714Y-87526809D01*
X137350095Y-87431571D01*
X137302476Y-87383952D01*
X137207238Y-87336333D01*
X137016761Y-87336333D01*
X136921523Y-87383952D01*
X136873904Y-87431571D01*
X136826285Y-87526809D01*
%TO.C,C5*%
X148947142Y-112728666D02*
X148994761Y-112776285D01*
X149042380Y-112919142D01*
X149042380Y-113014380D01*
X148994761Y-113157238D01*
X148899523Y-113252476D01*
X148804285Y-113300095D01*
X148613809Y-113347714D01*
X148470952Y-113347714D01*
X148280476Y-113300095D01*
X148185238Y-113252476D01*
X148090000Y-113157238D01*
X148042380Y-113014380D01*
X148042380Y-112919142D01*
X148090000Y-112776285D01*
X148137619Y-112728666D01*
X148042380Y-111823904D02*
X148042380Y-112300095D01*
X148518571Y-112347714D01*
X148470952Y-112300095D01*
X148423333Y-112204857D01*
X148423333Y-111966761D01*
X148470952Y-111871523D01*
X148518571Y-111823904D01*
X148613809Y-111776285D01*
X148851904Y-111776285D01*
X148947142Y-111823904D01*
X148994761Y-111871523D01*
X149042380Y-111966761D01*
X149042380Y-112204857D01*
X148994761Y-112300095D01*
X148947142Y-112347714D01*
%TO.C,C4*%
X132437142Y-52704666D02*
X132484761Y-52752285D01*
X132532380Y-52895142D01*
X132532380Y-52990380D01*
X132484761Y-53133238D01*
X132389523Y-53228476D01*
X132294285Y-53276095D01*
X132103809Y-53323714D01*
X131960952Y-53323714D01*
X131770476Y-53276095D01*
X131675238Y-53228476D01*
X131580000Y-53133238D01*
X131532380Y-52990380D01*
X131532380Y-52895142D01*
X131580000Y-52752285D01*
X131627619Y-52704666D01*
X131865714Y-51847523D02*
X132532380Y-51847523D01*
X131484761Y-52085619D02*
X132199047Y-52323714D01*
X132199047Y-51704666D01*
%TO.C,C3*%
X132183142Y-61380666D02*
X132230761Y-61428285D01*
X132278380Y-61571142D01*
X132278380Y-61666380D01*
X132230761Y-61809238D01*
X132135523Y-61904476D01*
X132040285Y-61952095D01*
X131849809Y-61999714D01*
X131706952Y-61999714D01*
X131516476Y-61952095D01*
X131421238Y-61904476D01*
X131326000Y-61809238D01*
X131278380Y-61666380D01*
X131278380Y-61571142D01*
X131326000Y-61428285D01*
X131373619Y-61380666D01*
X131278380Y-61047333D02*
X131278380Y-60428285D01*
X131659333Y-60761619D01*
X131659333Y-60618761D01*
X131706952Y-60523523D01*
X131754571Y-60475904D01*
X131849809Y-60428285D01*
X132087904Y-60428285D01*
X132183142Y-60475904D01*
X132230761Y-60523523D01*
X132278380Y-60618761D01*
X132278380Y-60904476D01*
X132230761Y-60999714D01*
X132183142Y-61047333D01*
%TO.C,C2*%
X115606142Y-73338666D02*
X115653761Y-73386285D01*
X115701380Y-73529142D01*
X115701380Y-73624380D01*
X115653761Y-73767238D01*
X115558523Y-73862476D01*
X115463285Y-73910095D01*
X115272809Y-73957714D01*
X115129952Y-73957714D01*
X114939476Y-73910095D01*
X114844238Y-73862476D01*
X114749000Y-73767238D01*
X114701380Y-73624380D01*
X114701380Y-73529142D01*
X114749000Y-73386285D01*
X114796619Y-73338666D01*
X114796619Y-72957714D02*
X114749000Y-72910095D01*
X114701380Y-72814857D01*
X114701380Y-72576761D01*
X114749000Y-72481523D01*
X114796619Y-72433904D01*
X114891857Y-72386285D01*
X114987095Y-72386285D01*
X115129952Y-72433904D01*
X115701380Y-73005333D01*
X115701380Y-72386285D01*
%TO.C,C1*%
X107799142Y-89701666D02*
X107846761Y-89749285D01*
X107894380Y-89892142D01*
X107894380Y-89987380D01*
X107846761Y-90130238D01*
X107751523Y-90225476D01*
X107656285Y-90273095D01*
X107465809Y-90320714D01*
X107322952Y-90320714D01*
X107132476Y-90273095D01*
X107037238Y-90225476D01*
X106942000Y-90130238D01*
X106894380Y-89987380D01*
X106894380Y-89892142D01*
X106942000Y-89749285D01*
X106989619Y-89701666D01*
X107894380Y-88749285D02*
X107894380Y-89320714D01*
X107894380Y-89035000D02*
X106894380Y-89035000D01*
X107037238Y-89130238D01*
X107132476Y-89225476D01*
X107180095Y-89320714D01*
%TD*%
M02*
