%TF.GenerationSoftware,KiCad,Pcbnew,(5.1.8-0-10_14)*%
%TF.CreationDate,2021-07-08T18:43:47+01:00*%
%TF.ProjectId,4u-music-thing-spring-reverb,34752d6d-7573-4696-932d-7468696e672d,rev?*%
%TF.SameCoordinates,Original*%
%TF.FileFunction,Profile,NP*%
%FSLAX46Y46*%
G04 Gerber Fmt 4.6, Leading zero omitted, Abs format (unit mm)*
G04 Created by KiCad (PCBNEW (5.1.8-0-10_14)) date 2021-07-08 18:43:47*
%MOMM*%
%LPD*%
G01*
G04 APERTURE LIST*
%TA.AperFunction,Profile*%
%ADD10C,0.050000*%
%TD*%
G04 APERTURE END LIST*
D10*
X124587000Y-93408500D02*
X124587000Y-106870500D01*
X127127000Y-106870500D02*
X127127000Y-93408500D01*
X124587000Y-121729500D02*
X124587000Y-111569500D01*
X127127000Y-111569500D02*
X127127000Y-121729500D01*
X124587000Y-93408500D02*
G75*
G02*
X127127000Y-93408500I1270000J0D01*
G01*
X127127000Y-88709500D02*
G75*
G02*
X124587000Y-88709500I-1270000J0D01*
G01*
X124587000Y-126428500D02*
G75*
G02*
X127127000Y-126428500I1270000J0D01*
G01*
X127127000Y-121729500D02*
G75*
G02*
X124587000Y-121729500I-1270000J0D01*
G01*
X127127000Y-42100500D02*
G75*
G02*
X124587000Y-42100500I-1270000J0D01*
G01*
X124587000Y-46799500D02*
G75*
G02*
X127127000Y-46799500I1270000J0D01*
G01*
X127127000Y-71310500D02*
G75*
G02*
X124587000Y-71310500I-1270000J0D01*
G01*
X124587000Y-76009500D02*
G75*
G02*
X127127000Y-76009500I1270000J0D01*
G01*
X127127000Y-106870500D02*
G75*
G02*
X124587000Y-106870500I-1270000J0D01*
G01*
X124587000Y-111569500D02*
G75*
G02*
X127127000Y-111569500I1270000J0D01*
G01*
X127127000Y-138239500D02*
G75*
G02*
X124587000Y-138239500I-1270000J0D01*
G01*
X124587000Y-142938500D02*
G75*
G02*
X127127000Y-142938500I1270000J0D01*
G01*
X124587000Y-142938500D02*
X124587000Y-148463000D01*
X124587000Y-126428500D02*
X124587000Y-138239500D01*
X124587000Y-76009500D02*
X124587000Y-88709500D01*
X124587000Y-46799500D02*
X124587000Y-71310500D01*
X124587000Y-39497000D02*
X124587000Y-42100500D01*
X127127000Y-42100500D02*
X127127000Y-39497000D01*
X127127000Y-71310500D02*
X127127000Y-46799500D01*
X127127000Y-88709500D02*
X127127000Y-76009500D01*
X127127000Y-138239500D02*
X127127000Y-126428500D01*
X127127000Y-142938500D02*
X127127000Y-148463000D01*
X100711000Y-149733000D02*
G75*
G02*
X99441000Y-148463000I0J1270000D01*
G01*
X124587000Y-148463000D02*
G75*
G02*
X123317000Y-149733000I-1270000J0D01*
G01*
X123317000Y-38227000D02*
G75*
G02*
X124587000Y-39497000I0J-1270000D01*
G01*
X99441000Y-39497000D02*
G75*
G02*
X100711000Y-38227000I1270000J0D01*
G01*
X151003000Y-38227000D02*
G75*
G02*
X152273000Y-39497000I0J-1270000D01*
G01*
X127127000Y-39497000D02*
G75*
G02*
X128397000Y-38227000I1270000J0D01*
G01*
X128397000Y-149733000D02*
G75*
G02*
X127127000Y-148463000I0J1270000D01*
G01*
X152273000Y-148463000D02*
G75*
G02*
X151003000Y-149733000I-1270000J0D01*
G01*
X151003000Y-149733000D02*
X128397000Y-149733000D01*
X152273000Y-39497000D02*
X152273000Y-148463000D01*
X128397000Y-38227000D02*
X151003000Y-38227000D01*
X99441000Y-39497000D02*
X99441000Y-148463000D01*
X123317000Y-38227000D02*
X100711000Y-38227000D01*
X100711000Y-149733000D02*
X123317000Y-149733000D01*
M02*
