M48
; DRILL file {KiCad (5.1.8-0-10_14)} date Thursday, July 08, 2021 at 06:43:52 PM
; FORMAT={-:-/ absolute / metric / decimal}
; #@! TF.CreationDate,2021-07-08T18:43:52+01:00
; #@! TF.GenerationSoftware,Kicad,Pcbnew,(5.1.8-0-10_14)
FMAT,2
METRIC
T1C0.381
T2C0.800
T3C1.000
T4C1.016
T5C1.100
T6C1.190
T7C5.100
T8C0.500
T9C1.500
T10C3.200
%
G90
G05
T1
X139.7Y-117.475
T2
X147.955Y-67.985
X147.955Y-70.485
X115.062Y-60.452
X146.05Y-126.365
X146.05Y-136.525
X129.54Y-146.05
X132.04Y-146.05
X147.36Y-146.05
X149.86Y-146.05
X115.062Y-79.502
X149.225Y-126.365
X149.225Y-136.525
X141.605Y-104.14
X141.605Y-114.3
X130.175Y-132.715
X130.175Y-137.715
X131.445Y-107.95
X131.445Y-118.11
X147.36Y-85.09
X149.86Y-85.09
X146.685Y-48.26
X146.685Y-58.42
X130.175Y-62.23
X130.175Y-64.77
X130.175Y-67.31
X130.175Y-69.85
X137.795Y-62.23
X137.795Y-64.77
X137.795Y-67.31
X137.795Y-69.85
X149.225Y-118.825
X149.225Y-123.825
X129.54Y-73.74
X129.54Y-78.74
X134.62Y-107.95
X134.62Y-118.11
X149.86Y-48.26
X149.86Y-58.42
X137.875Y-135.89
X142.875Y-135.89
X138.43Y-58.42
X143.43Y-58.42
X138.43Y-104.14
X138.43Y-114.3
X144.82Y-97.79
X147.32Y-97.79
X129.54Y-81.915
X139.7Y-81.915
X133.985Y-124.46
X133.985Y-127.0
X133.985Y-129.54
X133.985Y-132.08
X141.605Y-124.46
X141.605Y-127.0
X141.605Y-129.54
X141.605Y-132.08
X130.175Y-124.54
X130.175Y-129.54
X139.7Y-78.74
X149.86Y-78.74
X146.05Y-118.825
X146.05Y-123.825
X133.35Y-74.93
X138.35Y-74.93
X144.78Y-75.565
X149.78Y-75.565
X141.605Y-65.405
X141.605Y-75.565
X137.875Y-120.65
X142.875Y-120.65
X139.7Y-40.64
X139.7Y-43.14
X115.062Y-41.402
X139.065Y-139.7
X149.225Y-139.7
T3
X109.514Y-128.27
X112.014Y-128.27
X114.514Y-128.27
X109.514Y-147.32
X112.014Y-147.32
X114.514Y-147.32
X104.394Y-90.17
X104.394Y-92.71
X106.934Y-90.17
X106.934Y-92.71
X109.474Y-90.17
X109.474Y-92.71
X112.014Y-90.17
X112.014Y-92.71
X114.554Y-90.17
X114.554Y-92.71
X117.094Y-90.17
X117.094Y-92.71
X134.62Y-90.17
X134.62Y-92.71
X137.16Y-90.17
X137.16Y-92.71
X139.7Y-90.17
X139.7Y-92.71
X142.24Y-90.17
X142.24Y-92.71
X144.78Y-90.17
X144.78Y-92.71
X147.32Y-90.17
X147.32Y-92.71
X109.514Y-109.22
X112.014Y-109.22
X114.514Y-109.22
T4
X145.288Y-43.37
X148.59Y-43.37
X130.81Y-43.37
X134.112Y-43.37
T5
X138.47Y-52.07
X140.97Y-49.57
X143.47Y-52.07
T6
X135.89Y-146.05
X138.43Y-146.05
X140.97Y-146.05
X143.51Y-146.05
T7
X112.014Y-44.45
X112.014Y-63.5
X112.014Y-82.55
T8
X124.757Y-72.86
X124.757Y-73.66
X124.757Y-74.46
X126.957Y-72.86
X126.957Y-73.66
X126.957Y-74.46
X124.757Y-43.65
X124.757Y-44.45
X124.757Y-45.25
X126.957Y-43.65
X126.957Y-44.45
X126.957Y-45.25
X124.757Y-123.279
X124.757Y-124.079
X124.757Y-124.879
X126.957Y-123.279
X126.957Y-124.079
X126.957Y-124.879
X124.757Y-90.259
X124.757Y-91.059
X124.757Y-91.859
X126.957Y-90.259
X126.957Y-91.059
X126.957Y-91.859
X124.757Y-139.789
X124.757Y-140.589
X124.757Y-141.389
X126.957Y-139.789
X126.957Y-140.589
X126.957Y-141.389
X124.757Y-108.42
X124.757Y-109.22
X124.757Y-110.02
X126.957Y-108.42
X126.957Y-109.22
X126.957Y-110.02
T9
X145.288Y-40.64
X148.59Y-40.64
X130.81Y-40.64
X134.112Y-40.64
T10
X120.904Y-53.34
X130.81Y-53.34
X148.59Y-113.03
X103.124Y-113.03
T5
G00X107.214Y-102.07
M15
G01X107.214Y-101.37
M16
G05
G00X116.814Y-102.07
M15
G01X116.814Y-101.37
M16
G05
G00X107.214Y-121.12
M15
G01X107.214Y-120.42
M16
G05
G00X116.814Y-121.12
M15
G01X116.814Y-120.42
M16
G05
G00X107.214Y-140.17
M15
G01X107.214Y-139.47
M16
G05
G00X116.814Y-140.17
M15
G01X116.814Y-139.47
M16
G05
T0
M30
