M48
; DRILL file {KiCad (5.1.8-0-10_14)} date Tuesday, August 10, 2021 at 10:11:15 AM
; FORMAT={-:-/ absolute / metric / decimal}
; #@! TF.CreationDate,2021-08-10T10:11:15+01:00
; #@! TF.GenerationSoftware,Kicad,Pcbnew,(5.1.8-0-10_14)
FMAT,2
METRIC
T1C0.381
T2C0.800
T3C0.900
T4C1.000
T5C1.016
T6C1.100
T7C1.190
T8C5.100
T9C0.500
T10C1.500
T11C3.200
%
G90
G05
T1
X142.24Y-98.044
X142.748Y-55.88
T2
X140.97Y-123.444
X140.97Y-125.984
X140.97Y-128.524
X140.97Y-131.064
X148.59Y-123.444
X148.59Y-125.984
X148.59Y-128.524
X148.59Y-131.064
X120.015Y-57.404
X120.015Y-67.564
X142.32Y-46.99
X147.32Y-46.99
X135.89Y-138.176
X138.39Y-138.176
X148.59Y-110.062
X148.59Y-115.062
X149.098Y-55.88
X149.098Y-66.04
X143.51Y-119.38
X148.51Y-119.38
X131.064Y-64.302
X131.064Y-66.802
X129.032Y-49.784
X129.032Y-59.944
X145.796Y-61.802
X145.796Y-66.802
X129.794Y-116.84
X129.794Y-127.0
X114.808Y-79.502
X134.62Y-101.727
X144.78Y-101.727
X134.112Y-87.503
X139.112Y-87.503
X138.176Y-50.8
X138.176Y-53.34
X138.176Y-55.88
X138.176Y-58.42
X145.796Y-50.8
X145.796Y-53.34
X145.796Y-55.88
X145.796Y-58.42
X133.731Y-91.694
X143.891Y-91.694
X137.16Y-125.81
X137.16Y-130.81
X132.08Y-50.038
X132.08Y-55.038
X114.808Y-41.402
X114.808Y-60.452
X134.112Y-119.38
X139.112Y-119.38
X132.922Y-122.936
X137.922Y-122.936
X145.288Y-106.299
X145.288Y-116.459
X133.985Y-76.835
X138.985Y-76.835
X134.62Y-98.171
X144.78Y-98.171
X136.986Y-105.156
X141.986Y-105.156
X130.302Y-109.3
X130.302Y-114.3
X133.731Y-94.869
X143.891Y-94.869
X134.366Y-108.458
X134.366Y-110.998
X134.366Y-113.538
X134.366Y-116.078
X141.986Y-108.458
X141.986Y-110.998
X141.986Y-113.538
X141.986Y-116.078
X142.748Y-136.398
X145.248Y-136.398
X138.724Y-63.246
X141.224Y-63.246
X129.413Y-70.866
X129.413Y-81.026
X134.112Y-83.693
X144.272Y-83.693
X133.985Y-80.264
X144.145Y-80.264
X148.59Y-94.615
X148.59Y-104.775
X129.54Y-46.99
X139.7Y-46.99
X114.554Y-91.353
X114.554Y-93.853
X135.128Y-53.42
X135.128Y-58.42
X118.999Y-71.922
X118.999Y-74.422
X147.447Y-81.661
X147.447Y-91.821
T3
X148.59Y-139.7
X148.59Y-147.32
X129.54Y-139.7
X129.54Y-147.32
T4
X109.26Y-147.2
X111.76Y-147.2
X114.26Y-147.2
X129.54Y-86.36
X129.54Y-88.9
X129.54Y-91.44
X147.828Y-71.12
X147.828Y-73.66
X147.828Y-76.2
X129.794Y-97.79
X129.794Y-100.33
X129.794Y-102.87
X129.794Y-105.41
X109.26Y-109.1
X111.76Y-109.1
X114.26Y-109.1
X109.26Y-128.15
X111.76Y-128.15
X114.26Y-128.15
X121.92Y-86.36
X121.92Y-88.9
X121.92Y-91.44
X103.632Y-71.12
X103.632Y-73.66
X103.632Y-76.2
X121.666Y-97.79
X121.666Y-100.33
X121.666Y-102.87
X121.666Y-105.41
T5
X129.54Y-43.18
X132.842Y-43.18
X138.938Y-43.434
X142.24Y-43.434
T6
X139.486Y-68.112
X139.486Y-73.112
X141.986Y-70.612
T7
X134.62Y-144.78
X137.16Y-144.78
X139.7Y-144.78
X142.24Y-144.78
T8
X111.76Y-82.55
X111.76Y-44.45
X111.76Y-63.5
T9
X124.63Y-43.65
X124.63Y-44.45
X124.63Y-45.25
X126.83Y-43.65
X126.83Y-44.45
X126.83Y-45.25
X124.63Y-122.39
X124.63Y-123.19
X124.63Y-123.99
X126.83Y-122.39
X126.83Y-123.19
X126.83Y-123.99
X124.63Y-138.9
X124.63Y-139.7
X124.63Y-140.5
X126.83Y-138.9
X126.83Y-139.7
X126.83Y-140.5
X124.63Y-89.37
X124.63Y-90.17
X124.63Y-90.97
X126.83Y-89.37
X126.83Y-90.17
X126.83Y-90.97
X124.63Y-108.42
X124.63Y-109.22
X124.63Y-110.02
X126.83Y-108.42
X126.83Y-109.22
X126.83Y-110.02
X124.63Y-72.86
X124.63Y-73.66
X124.63Y-74.46
X126.83Y-72.86
X126.83Y-73.66
X126.83Y-74.46
T10
X129.54Y-40.45
X132.842Y-40.45
X138.938Y-40.704
X142.24Y-40.704
T11
X120.904Y-131.826
X147.574Y-41.656
X103.886Y-41.656
X130.556Y-131.826
T6
G00X106.96Y-140.05
M15
G01X106.96Y-139.35
M16
G05
G00X116.56Y-140.05
M15
G01X116.56Y-139.35
M16
G05
G00X106.96Y-101.95
M15
G01X106.96Y-101.25
M16
G05
G00X116.56Y-101.95
M15
G01X116.56Y-101.25
M16
G05
G00X106.96Y-121.0
M15
G01X106.96Y-120.3
M16
G05
G00X116.56Y-121.0
M15
G01X116.56Y-120.3
M16
G05
T0
M30
