%TF.GenerationSoftware,KiCad,Pcbnew,(5.1.8-0-10_14)*%
%TF.CreationDate,2021-10-26T21:15:47+01:00*%
%TF.ProjectId,dual-digi-delay-frontpanel,6475616c-2d64-4696-9769-2d64656c6179,rev?*%
%TF.SameCoordinates,Original*%
%TF.FileFunction,Copper,L1,Top*%
%TF.FilePolarity,Positive*%
%FSLAX46Y46*%
G04 Gerber Fmt 4.6, Leading zero omitted, Abs format (unit mm)*
G04 Created by KiCad (PCBNEW (5.1.8-0-10_14)) date 2021-10-26 21:15:47*
%MOMM*%
%LPD*%
G01*
G04 APERTURE LIST*
%TA.AperFunction,EtchedComponent*%
%ADD10C,0.010000*%
%TD*%
G04 APERTURE END LIST*
D10*
%TO.C,Ref\u002A\u002A*%
G36*
X98610208Y-71103999D02*
G01*
X100330000Y-71109416D01*
X100331533Y-71522166D01*
X96901000Y-71522166D01*
X96901000Y-71098582D01*
X98610208Y-71103999D01*
G37*
X98610208Y-71103999D02*
X100330000Y-71109416D01*
X100331533Y-71522166D01*
X96901000Y-71522166D01*
X96901000Y-71098582D01*
X98610208Y-71103999D01*
G36*
X98610208Y-72119999D02*
G01*
X100319417Y-72125416D01*
X100319417Y-72527583D01*
X98610208Y-72533000D01*
X96901000Y-72538417D01*
X96901000Y-72114582D01*
X98610208Y-72119999D01*
G37*
X98610208Y-72119999D02*
X100319417Y-72125416D01*
X100319417Y-72527583D01*
X98610208Y-72533000D01*
X96901000Y-72538417D01*
X96901000Y-72114582D01*
X98610208Y-72119999D01*
G36*
X101134333Y-80221666D02*
G01*
X98848333Y-80221666D01*
X98848333Y-79671333D01*
X101134333Y-79671333D01*
X101134333Y-80221666D01*
G37*
X101134333Y-80221666D02*
X98848333Y-80221666D01*
X98848333Y-79671333D01*
X101134333Y-79671333D01*
X101134333Y-80221666D01*
G36*
X98361500Y-80221666D02*
G01*
X96075500Y-80221666D01*
X96075500Y-79671333D01*
X98361500Y-79671333D01*
X98361500Y-80221666D01*
G37*
X98361500Y-80221666D02*
X96075500Y-80221666D01*
X96075500Y-79671333D01*
X98361500Y-79671333D01*
X98361500Y-80221666D01*
G36*
X109333286Y-132778778D02*
G01*
X109680805Y-132778871D01*
X109992141Y-132779054D01*
X110269345Y-132779352D01*
X110514468Y-132779793D01*
X110729558Y-132780405D01*
X110916667Y-132781213D01*
X111077844Y-132782245D01*
X111215141Y-132783528D01*
X111330607Y-132785089D01*
X111426293Y-132786954D01*
X111504249Y-132789150D01*
X111566524Y-132791705D01*
X111615170Y-132794645D01*
X111652237Y-132797997D01*
X111679775Y-132801789D01*
X111699834Y-132806046D01*
X111714464Y-132810796D01*
X111725717Y-132816066D01*
X111734069Y-132820922D01*
X111797718Y-132881110D01*
X111834518Y-132960400D01*
X111844436Y-133047830D01*
X111827437Y-133132442D01*
X111783489Y-133203275D01*
X111735347Y-133239483D01*
X111718714Y-133243105D01*
X111682349Y-133246443D01*
X111624703Y-133249514D01*
X111544225Y-133252332D01*
X111439367Y-133254913D01*
X111308577Y-133257270D01*
X111150306Y-133259421D01*
X110963005Y-133261378D01*
X110745123Y-133263158D01*
X110495111Y-133264776D01*
X110211418Y-133266247D01*
X109892495Y-133267585D01*
X109536792Y-133268805D01*
X109142759Y-133269924D01*
X108708847Y-133270955D01*
X108436833Y-133271523D01*
X108003236Y-133272394D01*
X107609882Y-133273219D01*
X107254681Y-133274028D01*
X106935543Y-133274852D01*
X106650377Y-133275723D01*
X106397094Y-133276670D01*
X106173602Y-133277725D01*
X105977814Y-133278919D01*
X105807637Y-133280282D01*
X105660981Y-133281845D01*
X105535758Y-133283640D01*
X105429876Y-133285697D01*
X105341245Y-133288046D01*
X105267775Y-133290719D01*
X105207376Y-133293747D01*
X105157959Y-133297160D01*
X105117431Y-133300989D01*
X105083704Y-133305265D01*
X105054688Y-133310019D01*
X105028291Y-133315282D01*
X105002425Y-133321085D01*
X104997250Y-133322285D01*
X104688369Y-133414319D01*
X104401562Y-133540746D01*
X104138939Y-133699709D01*
X103902613Y-133889352D01*
X103694696Y-134107819D01*
X103517299Y-134353255D01*
X103372534Y-134623804D01*
X103294766Y-134818437D01*
X103273439Y-134880173D01*
X103254619Y-134937748D01*
X103238146Y-134994106D01*
X103223866Y-135052190D01*
X103211621Y-135114942D01*
X103201254Y-135185305D01*
X103192610Y-135266221D01*
X103185531Y-135360635D01*
X103179860Y-135471489D01*
X103175442Y-135601725D01*
X103172119Y-135754286D01*
X103169735Y-135932116D01*
X103168133Y-136138157D01*
X103167157Y-136375353D01*
X103166650Y-136646645D01*
X103166455Y-136954977D01*
X103166418Y-137229842D01*
X103166433Y-137559121D01*
X103166400Y-137848700D01*
X103166150Y-138101216D01*
X103165518Y-138319303D01*
X103164336Y-138505595D01*
X103162436Y-138662727D01*
X103159653Y-138793333D01*
X103155819Y-138900049D01*
X103150767Y-138985509D01*
X103144330Y-139052348D01*
X103136340Y-139103200D01*
X103126632Y-139140699D01*
X103115037Y-139167482D01*
X103101389Y-139186181D01*
X103085521Y-139199432D01*
X103067266Y-139209870D01*
X103046456Y-139220129D01*
X103040026Y-139223391D01*
X102952353Y-139252490D01*
X102869744Y-139242246D01*
X102815396Y-139215590D01*
X102762688Y-139170304D01*
X102725350Y-139115777D01*
X102724599Y-139114010D01*
X102720018Y-139092998D01*
X102716055Y-139052233D01*
X102712692Y-138989663D01*
X102709909Y-138903237D01*
X102707689Y-138790901D01*
X102706011Y-138650603D01*
X102704858Y-138480292D01*
X102704211Y-138277915D01*
X102704052Y-138041419D01*
X102704361Y-137768754D01*
X102705120Y-137457865D01*
X102706309Y-137106701D01*
X102706312Y-137105965D01*
X102707559Y-136767757D01*
X102708706Y-136468966D01*
X102709916Y-136206678D01*
X102711351Y-135977976D01*
X102713172Y-135779947D01*
X102715544Y-135609673D01*
X102718626Y-135464242D01*
X102722583Y-135340736D01*
X102727575Y-135236241D01*
X102733766Y-135147843D01*
X102741317Y-135072625D01*
X102750390Y-135007672D01*
X102761149Y-134950070D01*
X102773754Y-134896902D01*
X102788369Y-134845255D01*
X102805155Y-134792212D01*
X102824274Y-134734859D01*
X102841030Y-134684902D01*
X102964928Y-134377493D01*
X103125638Y-134084126D01*
X103318710Y-133812019D01*
X103514880Y-133592842D01*
X103771125Y-133365775D01*
X104048588Y-133175250D01*
X104346511Y-133021625D01*
X104664135Y-132905261D01*
X105000699Y-132826517D01*
X105187750Y-132800020D01*
X105236624Y-132797013D01*
X105326525Y-132794203D01*
X105456144Y-132791600D01*
X105624174Y-132789212D01*
X105829309Y-132787047D01*
X106070242Y-132785113D01*
X106345664Y-132783419D01*
X106654270Y-132781974D01*
X106994751Y-132780785D01*
X107365802Y-132779860D01*
X107766114Y-132779209D01*
X108194381Y-132778840D01*
X108521500Y-132778752D01*
X108947535Y-132778748D01*
X109333286Y-132778778D01*
G37*
X109333286Y-132778778D02*
X109680805Y-132778871D01*
X109992141Y-132779054D01*
X110269345Y-132779352D01*
X110514468Y-132779793D01*
X110729558Y-132780405D01*
X110916667Y-132781213D01*
X111077844Y-132782245D01*
X111215141Y-132783528D01*
X111330607Y-132785089D01*
X111426293Y-132786954D01*
X111504249Y-132789150D01*
X111566524Y-132791705D01*
X111615170Y-132794645D01*
X111652237Y-132797997D01*
X111679775Y-132801789D01*
X111699834Y-132806046D01*
X111714464Y-132810796D01*
X111725717Y-132816066D01*
X111734069Y-132820922D01*
X111797718Y-132881110D01*
X111834518Y-132960400D01*
X111844436Y-133047830D01*
X111827437Y-133132442D01*
X111783489Y-133203275D01*
X111735347Y-133239483D01*
X111718714Y-133243105D01*
X111682349Y-133246443D01*
X111624703Y-133249514D01*
X111544225Y-133252332D01*
X111439367Y-133254913D01*
X111308577Y-133257270D01*
X111150306Y-133259421D01*
X110963005Y-133261378D01*
X110745123Y-133263158D01*
X110495111Y-133264776D01*
X110211418Y-133266247D01*
X109892495Y-133267585D01*
X109536792Y-133268805D01*
X109142759Y-133269924D01*
X108708847Y-133270955D01*
X108436833Y-133271523D01*
X108003236Y-133272394D01*
X107609882Y-133273219D01*
X107254681Y-133274028D01*
X106935543Y-133274852D01*
X106650377Y-133275723D01*
X106397094Y-133276670D01*
X106173602Y-133277725D01*
X105977814Y-133278919D01*
X105807637Y-133280282D01*
X105660981Y-133281845D01*
X105535758Y-133283640D01*
X105429876Y-133285697D01*
X105341245Y-133288046D01*
X105267775Y-133290719D01*
X105207376Y-133293747D01*
X105157959Y-133297160D01*
X105117431Y-133300989D01*
X105083704Y-133305265D01*
X105054688Y-133310019D01*
X105028291Y-133315282D01*
X105002425Y-133321085D01*
X104997250Y-133322285D01*
X104688369Y-133414319D01*
X104401562Y-133540746D01*
X104138939Y-133699709D01*
X103902613Y-133889352D01*
X103694696Y-134107819D01*
X103517299Y-134353255D01*
X103372534Y-134623804D01*
X103294766Y-134818437D01*
X103273439Y-134880173D01*
X103254619Y-134937748D01*
X103238146Y-134994106D01*
X103223866Y-135052190D01*
X103211621Y-135114942D01*
X103201254Y-135185305D01*
X103192610Y-135266221D01*
X103185531Y-135360635D01*
X103179860Y-135471489D01*
X103175442Y-135601725D01*
X103172119Y-135754286D01*
X103169735Y-135932116D01*
X103168133Y-136138157D01*
X103167157Y-136375353D01*
X103166650Y-136646645D01*
X103166455Y-136954977D01*
X103166418Y-137229842D01*
X103166433Y-137559121D01*
X103166400Y-137848700D01*
X103166150Y-138101216D01*
X103165518Y-138319303D01*
X103164336Y-138505595D01*
X103162436Y-138662727D01*
X103159653Y-138793333D01*
X103155819Y-138900049D01*
X103150767Y-138985509D01*
X103144330Y-139052348D01*
X103136340Y-139103200D01*
X103126632Y-139140699D01*
X103115037Y-139167482D01*
X103101389Y-139186181D01*
X103085521Y-139199432D01*
X103067266Y-139209870D01*
X103046456Y-139220129D01*
X103040026Y-139223391D01*
X102952353Y-139252490D01*
X102869744Y-139242246D01*
X102815396Y-139215590D01*
X102762688Y-139170304D01*
X102725350Y-139115777D01*
X102724599Y-139114010D01*
X102720018Y-139092998D01*
X102716055Y-139052233D01*
X102712692Y-138989663D01*
X102709909Y-138903237D01*
X102707689Y-138790901D01*
X102706011Y-138650603D01*
X102704858Y-138480292D01*
X102704211Y-138277915D01*
X102704052Y-138041419D01*
X102704361Y-137768754D01*
X102705120Y-137457865D01*
X102706309Y-137106701D01*
X102706312Y-137105965D01*
X102707559Y-136767757D01*
X102708706Y-136468966D01*
X102709916Y-136206678D01*
X102711351Y-135977976D01*
X102713172Y-135779947D01*
X102715544Y-135609673D01*
X102718626Y-135464242D01*
X102722583Y-135340736D01*
X102727575Y-135236241D01*
X102733766Y-135147843D01*
X102741317Y-135072625D01*
X102750390Y-135007672D01*
X102761149Y-134950070D01*
X102773754Y-134896902D01*
X102788369Y-134845255D01*
X102805155Y-134792212D01*
X102824274Y-134734859D01*
X102841030Y-134684902D01*
X102964928Y-134377493D01*
X103125638Y-134084126D01*
X103318710Y-133812019D01*
X103514880Y-133592842D01*
X103771125Y-133365775D01*
X104048588Y-133175250D01*
X104346511Y-133021625D01*
X104664135Y-132905261D01*
X105000699Y-132826517D01*
X105187750Y-132800020D01*
X105236624Y-132797013D01*
X105326525Y-132794203D01*
X105456144Y-132791600D01*
X105624174Y-132789212D01*
X105829309Y-132787047D01*
X106070242Y-132785113D01*
X106345664Y-132783419D01*
X106654270Y-132781974D01*
X106994751Y-132780785D01*
X107365802Y-132779860D01*
X107766114Y-132779209D01*
X108194381Y-132778840D01*
X108521500Y-132778752D01*
X108947535Y-132778748D01*
X109333286Y-132778778D01*
G36*
X115708311Y-137404107D02*
G01*
X115774126Y-137443819D01*
X115786624Y-137454595D01*
X115855750Y-137516357D01*
X115861246Y-140680551D01*
X115866742Y-143844746D01*
X116072913Y-143858812D01*
X116663556Y-143916652D01*
X117230992Y-144008521D01*
X117778505Y-144135425D01*
X118309376Y-144298371D01*
X118826888Y-144498366D01*
X119334322Y-144736417D01*
X119831694Y-145011583D01*
X120300323Y-145314640D01*
X120750794Y-145654112D01*
X121179934Y-146026821D01*
X121584567Y-146429589D01*
X121961520Y-146859238D01*
X122307618Y-147312590D01*
X122619686Y-147786467D01*
X122644787Y-147828000D01*
X122927505Y-148339189D01*
X123171149Y-148865671D01*
X123376010Y-149408281D01*
X123542376Y-149967853D01*
X123670536Y-150545223D01*
X123742026Y-150992416D01*
X123762520Y-151178682D01*
X123778957Y-151396009D01*
X123791050Y-151633290D01*
X123798512Y-151879422D01*
X123801057Y-152123299D01*
X123798399Y-152353817D01*
X123790252Y-152559870D01*
X123784580Y-152643416D01*
X123722527Y-153207892D01*
X123626701Y-153751441D01*
X123495451Y-154280017D01*
X123327124Y-154799578D01*
X123120070Y-155316077D01*
X122931723Y-155718431D01*
X122852058Y-155876810D01*
X122786670Y-156000774D01*
X122732281Y-156094432D01*
X122685611Y-156161890D01*
X122643380Y-156207256D01*
X122602308Y-156234636D01*
X122559117Y-156248136D01*
X122510525Y-156251866D01*
X122505751Y-156251862D01*
X122409542Y-156233153D01*
X122336488Y-156181147D01*
X122290644Y-156100328D01*
X122276018Y-155997838D01*
X122287446Y-155935741D01*
X122321414Y-155849227D01*
X122379567Y-155734247D01*
X122393631Y-155708585D01*
X122634782Y-155230181D01*
X122842310Y-154727561D01*
X123015456Y-154203194D01*
X123153464Y-153659545D01*
X123255577Y-153099082D01*
X123298862Y-152759833D01*
X123311182Y-152607053D01*
X123319451Y-152422445D01*
X123323747Y-152216313D01*
X123324147Y-151998962D01*
X123320728Y-151780695D01*
X123313568Y-151571817D01*
X123302742Y-151382631D01*
X123288329Y-151223442D01*
X123287304Y-151214666D01*
X123198171Y-150632661D01*
X123071200Y-150069475D01*
X122906489Y-149525313D01*
X122704133Y-149000377D01*
X122464229Y-148494872D01*
X122186873Y-148009001D01*
X121872162Y-147542970D01*
X121520191Y-147096982D01*
X121153560Y-146694266D01*
X120736481Y-146295455D01*
X120296102Y-145931631D01*
X119833548Y-145603438D01*
X119349943Y-145311520D01*
X118846411Y-145056524D01*
X118324077Y-144839092D01*
X117784064Y-144659871D01*
X117450414Y-144570550D01*
X117171874Y-144506959D01*
X116908420Y-144456853D01*
X116649717Y-144419076D01*
X116385428Y-144392471D01*
X116105219Y-144375882D01*
X115798752Y-144368153D01*
X115633500Y-144367250D01*
X115312522Y-144370925D01*
X115022839Y-144382732D01*
X114753989Y-144403841D01*
X114495509Y-144435424D01*
X114236938Y-144478651D01*
X113967814Y-144534694D01*
X113813167Y-144571002D01*
X113272285Y-144723875D01*
X112746446Y-144915477D01*
X112237563Y-145144295D01*
X111747550Y-145408812D01*
X111278320Y-145707512D01*
X110831785Y-146038880D01*
X110409860Y-146401401D01*
X110014457Y-146793559D01*
X109647490Y-147213838D01*
X109310872Y-147660724D01*
X109006516Y-148132699D01*
X108766255Y-148568833D01*
X108532327Y-149072231D01*
X108336754Y-149588730D01*
X108178797Y-150120836D01*
X108057720Y-150671054D01*
X107972785Y-151241888D01*
X107968675Y-151278166D01*
X107958346Y-151402136D01*
X107950592Y-151558954D01*
X107945416Y-151739215D01*
X107942823Y-151933511D01*
X107942815Y-152132436D01*
X107945396Y-152326585D01*
X107950570Y-152506549D01*
X107958340Y-152662924D01*
X107968122Y-152781000D01*
X108051716Y-153361529D01*
X108174369Y-153926063D01*
X108336418Y-154475717D01*
X108538200Y-155011607D01*
X108780052Y-155534850D01*
X108830009Y-155631874D01*
X108898491Y-155766538D01*
X108946360Y-155871731D01*
X108975240Y-155954002D01*
X108986758Y-156019901D01*
X108982541Y-156075978D01*
X108964213Y-156128782D01*
X108957004Y-156143430D01*
X108902188Y-156207650D01*
X108825775Y-156244244D01*
X108739654Y-156251488D01*
X108655710Y-156227660D01*
X108607328Y-156194125D01*
X108576060Y-156155462D01*
X108530976Y-156086839D01*
X108476949Y-155996280D01*
X108418847Y-155891809D01*
X108385652Y-155828877D01*
X108140704Y-155314410D01*
X107934037Y-154791847D01*
X107764241Y-154256627D01*
X107629906Y-153704191D01*
X107529624Y-153129978D01*
X107512377Y-153003250D01*
X107499869Y-152878723D01*
X107489627Y-152720797D01*
X107481701Y-152537419D01*
X107476138Y-152336537D01*
X107472986Y-152126098D01*
X107472294Y-151914050D01*
X107474109Y-151708339D01*
X107478481Y-151516913D01*
X107485457Y-151347720D01*
X107495086Y-151208707D01*
X107501135Y-151151166D01*
X107589599Y-150573607D01*
X107710226Y-150019587D01*
X107864389Y-149483591D01*
X108036589Y-149002750D01*
X108101960Y-148846734D01*
X108184859Y-148665049D01*
X108280144Y-148467778D01*
X108382669Y-148265002D01*
X108487291Y-148066801D01*
X108588865Y-147883259D01*
X108682248Y-147724456D01*
X108718133Y-147667023D01*
X109056656Y-147175539D01*
X109424707Y-146713296D01*
X109821097Y-146281378D01*
X110244637Y-145880864D01*
X110694136Y-145512837D01*
X111168404Y-145178379D01*
X111666252Y-144878571D01*
X111949905Y-144728730D01*
X112438953Y-144500657D01*
X112929210Y-144308775D01*
X113426430Y-144151543D01*
X113936364Y-144027417D01*
X114464763Y-143934855D01*
X115017380Y-143872315D01*
X115194087Y-143858812D01*
X115400258Y-143844746D01*
X115405754Y-140680551D01*
X115411250Y-137516357D01*
X115480375Y-137454595D01*
X115546890Y-137408866D01*
X115618485Y-137393155D01*
X115633500Y-137392833D01*
X115708311Y-137404107D01*
G37*
X115708311Y-137404107D02*
X115774126Y-137443819D01*
X115786624Y-137454595D01*
X115855750Y-137516357D01*
X115861246Y-140680551D01*
X115866742Y-143844746D01*
X116072913Y-143858812D01*
X116663556Y-143916652D01*
X117230992Y-144008521D01*
X117778505Y-144135425D01*
X118309376Y-144298371D01*
X118826888Y-144498366D01*
X119334322Y-144736417D01*
X119831694Y-145011583D01*
X120300323Y-145314640D01*
X120750794Y-145654112D01*
X121179934Y-146026821D01*
X121584567Y-146429589D01*
X121961520Y-146859238D01*
X122307618Y-147312590D01*
X122619686Y-147786467D01*
X122644787Y-147828000D01*
X122927505Y-148339189D01*
X123171149Y-148865671D01*
X123376010Y-149408281D01*
X123542376Y-149967853D01*
X123670536Y-150545223D01*
X123742026Y-150992416D01*
X123762520Y-151178682D01*
X123778957Y-151396009D01*
X123791050Y-151633290D01*
X123798512Y-151879422D01*
X123801057Y-152123299D01*
X123798399Y-152353817D01*
X123790252Y-152559870D01*
X123784580Y-152643416D01*
X123722527Y-153207892D01*
X123626701Y-153751441D01*
X123495451Y-154280017D01*
X123327124Y-154799578D01*
X123120070Y-155316077D01*
X122931723Y-155718431D01*
X122852058Y-155876810D01*
X122786670Y-156000774D01*
X122732281Y-156094432D01*
X122685611Y-156161890D01*
X122643380Y-156207256D01*
X122602308Y-156234636D01*
X122559117Y-156248136D01*
X122510525Y-156251866D01*
X122505751Y-156251862D01*
X122409542Y-156233153D01*
X122336488Y-156181147D01*
X122290644Y-156100328D01*
X122276018Y-155997838D01*
X122287446Y-155935741D01*
X122321414Y-155849227D01*
X122379567Y-155734247D01*
X122393631Y-155708585D01*
X122634782Y-155230181D01*
X122842310Y-154727561D01*
X123015456Y-154203194D01*
X123153464Y-153659545D01*
X123255577Y-153099082D01*
X123298862Y-152759833D01*
X123311182Y-152607053D01*
X123319451Y-152422445D01*
X123323747Y-152216313D01*
X123324147Y-151998962D01*
X123320728Y-151780695D01*
X123313568Y-151571817D01*
X123302742Y-151382631D01*
X123288329Y-151223442D01*
X123287304Y-151214666D01*
X123198171Y-150632661D01*
X123071200Y-150069475D01*
X122906489Y-149525313D01*
X122704133Y-149000377D01*
X122464229Y-148494872D01*
X122186873Y-148009001D01*
X121872162Y-147542970D01*
X121520191Y-147096982D01*
X121153560Y-146694266D01*
X120736481Y-146295455D01*
X120296102Y-145931631D01*
X119833548Y-145603438D01*
X119349943Y-145311520D01*
X118846411Y-145056524D01*
X118324077Y-144839092D01*
X117784064Y-144659871D01*
X117450414Y-144570550D01*
X117171874Y-144506959D01*
X116908420Y-144456853D01*
X116649717Y-144419076D01*
X116385428Y-144392471D01*
X116105219Y-144375882D01*
X115798752Y-144368153D01*
X115633500Y-144367250D01*
X115312522Y-144370925D01*
X115022839Y-144382732D01*
X114753989Y-144403841D01*
X114495509Y-144435424D01*
X114236938Y-144478651D01*
X113967814Y-144534694D01*
X113813167Y-144571002D01*
X113272285Y-144723875D01*
X112746446Y-144915477D01*
X112237563Y-145144295D01*
X111747550Y-145408812D01*
X111278320Y-145707512D01*
X110831785Y-146038880D01*
X110409860Y-146401401D01*
X110014457Y-146793559D01*
X109647490Y-147213838D01*
X109310872Y-147660724D01*
X109006516Y-148132699D01*
X108766255Y-148568833D01*
X108532327Y-149072231D01*
X108336754Y-149588730D01*
X108178797Y-150120836D01*
X108057720Y-150671054D01*
X107972785Y-151241888D01*
X107968675Y-151278166D01*
X107958346Y-151402136D01*
X107950592Y-151558954D01*
X107945416Y-151739215D01*
X107942823Y-151933511D01*
X107942815Y-152132436D01*
X107945396Y-152326585D01*
X107950570Y-152506549D01*
X107958340Y-152662924D01*
X107968122Y-152781000D01*
X108051716Y-153361529D01*
X108174369Y-153926063D01*
X108336418Y-154475717D01*
X108538200Y-155011607D01*
X108780052Y-155534850D01*
X108830009Y-155631874D01*
X108898491Y-155766538D01*
X108946360Y-155871731D01*
X108975240Y-155954002D01*
X108986758Y-156019901D01*
X108982541Y-156075978D01*
X108964213Y-156128782D01*
X108957004Y-156143430D01*
X108902188Y-156207650D01*
X108825775Y-156244244D01*
X108739654Y-156251488D01*
X108655710Y-156227660D01*
X108607328Y-156194125D01*
X108576060Y-156155462D01*
X108530976Y-156086839D01*
X108476949Y-155996280D01*
X108418847Y-155891809D01*
X108385652Y-155828877D01*
X108140704Y-155314410D01*
X107934037Y-154791847D01*
X107764241Y-154256627D01*
X107629906Y-153704191D01*
X107529624Y-153129978D01*
X107512377Y-153003250D01*
X107499869Y-152878723D01*
X107489627Y-152720797D01*
X107481701Y-152537419D01*
X107476138Y-152336537D01*
X107472986Y-152126098D01*
X107472294Y-151914050D01*
X107474109Y-151708339D01*
X107478481Y-151516913D01*
X107485457Y-151347720D01*
X107495086Y-151208707D01*
X107501135Y-151151166D01*
X107589599Y-150573607D01*
X107710226Y-150019587D01*
X107864389Y-149483591D01*
X108036589Y-149002750D01*
X108101960Y-148846734D01*
X108184859Y-148665049D01*
X108280144Y-148467778D01*
X108382669Y-148265002D01*
X108487291Y-148066801D01*
X108588865Y-147883259D01*
X108682248Y-147724456D01*
X108718133Y-147667023D01*
X109056656Y-147175539D01*
X109424707Y-146713296D01*
X109821097Y-146281378D01*
X110244637Y-145880864D01*
X110694136Y-145512837D01*
X111168404Y-145178379D01*
X111666252Y-144878571D01*
X111949905Y-144728730D01*
X112438953Y-144500657D01*
X112929210Y-144308775D01*
X113426430Y-144151543D01*
X113936364Y-144027417D01*
X114464763Y-143934855D01*
X115017380Y-143872315D01*
X115194087Y-143858812D01*
X115400258Y-143844746D01*
X115405754Y-140680551D01*
X115411250Y-137516357D01*
X115480375Y-137454595D01*
X115546890Y-137408866D01*
X115618485Y-137393155D01*
X115633500Y-137392833D01*
X115708311Y-137404107D01*
G36*
X90281537Y-137405681D02*
G01*
X90331807Y-137427144D01*
X90389937Y-137464917D01*
X90432973Y-137509139D01*
X90439396Y-137519833D01*
X90443129Y-137535761D01*
X90446521Y-137568952D01*
X90449585Y-137621097D01*
X90452336Y-137693887D01*
X90454787Y-137789015D01*
X90456952Y-137908173D01*
X90458847Y-138053052D01*
X90460485Y-138225344D01*
X90461879Y-138426742D01*
X90463045Y-138658936D01*
X90463997Y-138923619D01*
X90464747Y-139222483D01*
X90465312Y-139557219D01*
X90465704Y-139929520D01*
X90465937Y-140341077D01*
X90466021Y-140708425D01*
X90466333Y-143844100D01*
X90683292Y-143858110D01*
X91285581Y-143917168D01*
X91872160Y-144015528D01*
X92442979Y-144153171D01*
X92997983Y-144330076D01*
X93537122Y-144546223D01*
X94060343Y-144801593D01*
X94567595Y-145096164D01*
X95058824Y-145429918D01*
X95355833Y-145656926D01*
X95483202Y-145763562D01*
X95630052Y-145894798D01*
X95789215Y-146043547D01*
X95953525Y-146202716D01*
X96115815Y-146365216D01*
X96268920Y-146523957D01*
X96405672Y-146671850D01*
X96518906Y-146801802D01*
X96544737Y-146833166D01*
X96810463Y-147175898D01*
X97047129Y-147514845D01*
X97263331Y-147863404D01*
X97467665Y-148234972D01*
X97556462Y-148410083D01*
X97799626Y-148946397D01*
X98001324Y-149490510D01*
X98161736Y-150043246D01*
X98281043Y-150605429D01*
X98359425Y-151177883D01*
X98397064Y-151761434D01*
X98397586Y-152251209D01*
X98364681Y-152820565D01*
X98296237Y-153371608D01*
X98191113Y-153908879D01*
X98048166Y-154436920D01*
X97866255Y-154960273D01*
X97644239Y-155483478D01*
X97519754Y-155742596D01*
X97439617Y-155900158D01*
X97372988Y-156022788D01*
X97316763Y-156114491D01*
X97267841Y-156179273D01*
X97223120Y-156221141D01*
X97179496Y-156244100D01*
X97133867Y-156252156D01*
X97124991Y-156252333D01*
X97020771Y-156234917D01*
X96940649Y-156185637D01*
X96889293Y-156108947D01*
X96871366Y-156010297D01*
X96882316Y-155959862D01*
X96915212Y-155873938D01*
X96970129Y-155752355D01*
X97047141Y-155594942D01*
X97074636Y-155540565D01*
X97146044Y-155396686D01*
X97219813Y-155241873D01*
X97290257Y-155088487D01*
X97351688Y-154948891D01*
X97394898Y-154844428D01*
X97581638Y-154313851D01*
X97728405Y-153772044D01*
X97835024Y-153221744D01*
X97901325Y-152665690D01*
X97927134Y-152106621D01*
X97912278Y-151547274D01*
X97856585Y-150990389D01*
X97759883Y-150438704D01*
X97691021Y-150145750D01*
X97530623Y-149603638D01*
X97333008Y-149079830D01*
X97099779Y-148575752D01*
X96832545Y-148092831D01*
X96532909Y-147632494D01*
X96202479Y-147196169D01*
X95842860Y-146785282D01*
X95455657Y-146401259D01*
X95042477Y-146045529D01*
X94604925Y-145719518D01*
X94144608Y-145424652D01*
X93663131Y-145162360D01*
X93162099Y-144934067D01*
X92643119Y-144741202D01*
X92107797Y-144585190D01*
X91557738Y-144467460D01*
X91246692Y-144419163D01*
X90890231Y-144382223D01*
X90508148Y-144362603D01*
X90113385Y-144360170D01*
X89718887Y-144374788D01*
X89337598Y-144406323D01*
X89062041Y-144441913D01*
X88515614Y-144546377D01*
X87976268Y-144691573D01*
X87447255Y-144876070D01*
X86931828Y-145098441D01*
X86433239Y-145357256D01*
X85954741Y-145651086D01*
X85499588Y-145978502D01*
X85418083Y-146042738D01*
X85272719Y-146164611D01*
X85109258Y-146311268D01*
X84936091Y-146474470D01*
X84761608Y-146645978D01*
X84594198Y-146817552D01*
X84442252Y-146980953D01*
X84319330Y-147121751D01*
X83970059Y-147571513D01*
X83657064Y-148042740D01*
X83380848Y-148534260D01*
X83141917Y-149044899D01*
X82940773Y-149573485D01*
X82777921Y-150118845D01*
X82653864Y-150679806D01*
X82578769Y-151172333D01*
X82561740Y-151351683D01*
X82549610Y-151562506D01*
X82542380Y-151794225D01*
X82540051Y-152036265D01*
X82542623Y-152278048D01*
X82550098Y-152509000D01*
X82562477Y-152718542D01*
X82578621Y-152886833D01*
X82664358Y-153444064D01*
X82784605Y-153979975D01*
X82941036Y-154499961D01*
X83135326Y-155009422D01*
X83369147Y-155513753D01*
X83429888Y-155631874D01*
X83500781Y-155771116D01*
X83550389Y-155880288D01*
X83579639Y-155965355D01*
X83589459Y-156032285D01*
X83580778Y-156087045D01*
X83554524Y-156135599D01*
X83515200Y-156180366D01*
X83432967Y-156237886D01*
X83345276Y-156255069D01*
X83257924Y-156231561D01*
X83209572Y-156199033D01*
X83177214Y-156160031D01*
X83131017Y-156088084D01*
X83073976Y-155989087D01*
X83009089Y-155868935D01*
X82939351Y-155733526D01*
X82867760Y-155588754D01*
X82797311Y-155440515D01*
X82731003Y-155294704D01*
X82671830Y-155157219D01*
X82639584Y-155077583D01*
X82461508Y-154581398D01*
X82316032Y-154080122D01*
X82200884Y-153564687D01*
X82113792Y-153026024D01*
X82101325Y-152929166D01*
X82092051Y-152827010D01*
X82084551Y-152686166D01*
X82078934Y-152510247D01*
X82075312Y-152302865D01*
X82073792Y-152067632D01*
X82073750Y-152019000D01*
X82074590Y-151782061D01*
X82077612Y-151578921D01*
X82083568Y-151401070D01*
X82093208Y-151239999D01*
X82107284Y-151087198D01*
X82126548Y-150934155D01*
X82151752Y-150772363D01*
X82183646Y-150593310D01*
X82213426Y-150437350D01*
X82343982Y-149875983D01*
X82513521Y-149328833D01*
X82720587Y-148797592D01*
X82963725Y-148283953D01*
X83241479Y-147789610D01*
X83552394Y-147316255D01*
X83895013Y-146865582D01*
X84267882Y-146439283D01*
X84669544Y-146039050D01*
X85098545Y-145666578D01*
X85553428Y-145323559D01*
X86032738Y-145011686D01*
X86535020Y-144732651D01*
X87058818Y-144488148D01*
X87466358Y-144327926D01*
X87955080Y-144170270D01*
X88469437Y-144041669D01*
X89003118Y-143943403D01*
X89549813Y-143876749D01*
X89783708Y-143858362D01*
X90000667Y-143844100D01*
X90000667Y-140695404D01*
X90000672Y-140269076D01*
X90000705Y-139883041D01*
X90000795Y-139535262D01*
X90000969Y-139223699D01*
X90001254Y-138946312D01*
X90001678Y-138701063D01*
X90002269Y-138485912D01*
X90003055Y-138298820D01*
X90004063Y-138137748D01*
X90005321Y-138000656D01*
X90006856Y-137885507D01*
X90008696Y-137790260D01*
X90010870Y-137712876D01*
X90013404Y-137651316D01*
X90016326Y-137603541D01*
X90019664Y-137567511D01*
X90023445Y-137541189D01*
X90027698Y-137522533D01*
X90032449Y-137509506D01*
X90037727Y-137500068D01*
X90043559Y-137492180D01*
X90044135Y-137491447D01*
X90093919Y-137448398D01*
X90159233Y-137415014D01*
X90169068Y-137411778D01*
X90230282Y-137398706D01*
X90281537Y-137405681D01*
G37*
X90281537Y-137405681D02*
X90331807Y-137427144D01*
X90389937Y-137464917D01*
X90432973Y-137509139D01*
X90439396Y-137519833D01*
X90443129Y-137535761D01*
X90446521Y-137568952D01*
X90449585Y-137621097D01*
X90452336Y-137693887D01*
X90454787Y-137789015D01*
X90456952Y-137908173D01*
X90458847Y-138053052D01*
X90460485Y-138225344D01*
X90461879Y-138426742D01*
X90463045Y-138658936D01*
X90463997Y-138923619D01*
X90464747Y-139222483D01*
X90465312Y-139557219D01*
X90465704Y-139929520D01*
X90465937Y-140341077D01*
X90466021Y-140708425D01*
X90466333Y-143844100D01*
X90683292Y-143858110D01*
X91285581Y-143917168D01*
X91872160Y-144015528D01*
X92442979Y-144153171D01*
X92997983Y-144330076D01*
X93537122Y-144546223D01*
X94060343Y-144801593D01*
X94567595Y-145096164D01*
X95058824Y-145429918D01*
X95355833Y-145656926D01*
X95483202Y-145763562D01*
X95630052Y-145894798D01*
X95789215Y-146043547D01*
X95953525Y-146202716D01*
X96115815Y-146365216D01*
X96268920Y-146523957D01*
X96405672Y-146671850D01*
X96518906Y-146801802D01*
X96544737Y-146833166D01*
X96810463Y-147175898D01*
X97047129Y-147514845D01*
X97263331Y-147863404D01*
X97467665Y-148234972D01*
X97556462Y-148410083D01*
X97799626Y-148946397D01*
X98001324Y-149490510D01*
X98161736Y-150043246D01*
X98281043Y-150605429D01*
X98359425Y-151177883D01*
X98397064Y-151761434D01*
X98397586Y-152251209D01*
X98364681Y-152820565D01*
X98296237Y-153371608D01*
X98191113Y-153908879D01*
X98048166Y-154436920D01*
X97866255Y-154960273D01*
X97644239Y-155483478D01*
X97519754Y-155742596D01*
X97439617Y-155900158D01*
X97372988Y-156022788D01*
X97316763Y-156114491D01*
X97267841Y-156179273D01*
X97223120Y-156221141D01*
X97179496Y-156244100D01*
X97133867Y-156252156D01*
X97124991Y-156252333D01*
X97020771Y-156234917D01*
X96940649Y-156185637D01*
X96889293Y-156108947D01*
X96871366Y-156010297D01*
X96882316Y-155959862D01*
X96915212Y-155873938D01*
X96970129Y-155752355D01*
X97047141Y-155594942D01*
X97074636Y-155540565D01*
X97146044Y-155396686D01*
X97219813Y-155241873D01*
X97290257Y-155088487D01*
X97351688Y-154948891D01*
X97394898Y-154844428D01*
X97581638Y-154313851D01*
X97728405Y-153772044D01*
X97835024Y-153221744D01*
X97901325Y-152665690D01*
X97927134Y-152106621D01*
X97912278Y-151547274D01*
X97856585Y-150990389D01*
X97759883Y-150438704D01*
X97691021Y-150145750D01*
X97530623Y-149603638D01*
X97333008Y-149079830D01*
X97099779Y-148575752D01*
X96832545Y-148092831D01*
X96532909Y-147632494D01*
X96202479Y-147196169D01*
X95842860Y-146785282D01*
X95455657Y-146401259D01*
X95042477Y-146045529D01*
X94604925Y-145719518D01*
X94144608Y-145424652D01*
X93663131Y-145162360D01*
X93162099Y-144934067D01*
X92643119Y-144741202D01*
X92107797Y-144585190D01*
X91557738Y-144467460D01*
X91246692Y-144419163D01*
X90890231Y-144382223D01*
X90508148Y-144362603D01*
X90113385Y-144360170D01*
X89718887Y-144374788D01*
X89337598Y-144406323D01*
X89062041Y-144441913D01*
X88515614Y-144546377D01*
X87976268Y-144691573D01*
X87447255Y-144876070D01*
X86931828Y-145098441D01*
X86433239Y-145357256D01*
X85954741Y-145651086D01*
X85499588Y-145978502D01*
X85418083Y-146042738D01*
X85272719Y-146164611D01*
X85109258Y-146311268D01*
X84936091Y-146474470D01*
X84761608Y-146645978D01*
X84594198Y-146817552D01*
X84442252Y-146980953D01*
X84319330Y-147121751D01*
X83970059Y-147571513D01*
X83657064Y-148042740D01*
X83380848Y-148534260D01*
X83141917Y-149044899D01*
X82940773Y-149573485D01*
X82777921Y-150118845D01*
X82653864Y-150679806D01*
X82578769Y-151172333D01*
X82561740Y-151351683D01*
X82549610Y-151562506D01*
X82542380Y-151794225D01*
X82540051Y-152036265D01*
X82542623Y-152278048D01*
X82550098Y-152509000D01*
X82562477Y-152718542D01*
X82578621Y-152886833D01*
X82664358Y-153444064D01*
X82784605Y-153979975D01*
X82941036Y-154499961D01*
X83135326Y-155009422D01*
X83369147Y-155513753D01*
X83429888Y-155631874D01*
X83500781Y-155771116D01*
X83550389Y-155880288D01*
X83579639Y-155965355D01*
X83589459Y-156032285D01*
X83580778Y-156087045D01*
X83554524Y-156135599D01*
X83515200Y-156180366D01*
X83432967Y-156237886D01*
X83345276Y-156255069D01*
X83257924Y-156231561D01*
X83209572Y-156199033D01*
X83177214Y-156160031D01*
X83131017Y-156088084D01*
X83073976Y-155989087D01*
X83009089Y-155868935D01*
X82939351Y-155733526D01*
X82867760Y-155588754D01*
X82797311Y-155440515D01*
X82731003Y-155294704D01*
X82671830Y-155157219D01*
X82639584Y-155077583D01*
X82461508Y-154581398D01*
X82316032Y-154080122D01*
X82200884Y-153564687D01*
X82113792Y-153026024D01*
X82101325Y-152929166D01*
X82092051Y-152827010D01*
X82084551Y-152686166D01*
X82078934Y-152510247D01*
X82075312Y-152302865D01*
X82073792Y-152067632D01*
X82073750Y-152019000D01*
X82074590Y-151782061D01*
X82077612Y-151578921D01*
X82083568Y-151401070D01*
X82093208Y-151239999D01*
X82107284Y-151087198D01*
X82126548Y-150934155D01*
X82151752Y-150772363D01*
X82183646Y-150593310D01*
X82213426Y-150437350D01*
X82343982Y-149875983D01*
X82513521Y-149328833D01*
X82720587Y-148797592D01*
X82963725Y-148283953D01*
X83241479Y-147789610D01*
X83552394Y-147316255D01*
X83895013Y-146865582D01*
X84267882Y-146439283D01*
X84669544Y-146039050D01*
X85098545Y-145666578D01*
X85553428Y-145323559D01*
X86032738Y-145011686D01*
X86535020Y-144732651D01*
X87058818Y-144488148D01*
X87466358Y-144327926D01*
X87955080Y-144170270D01*
X88469437Y-144041669D01*
X89003118Y-143943403D01*
X89549813Y-143876749D01*
X89783708Y-143858362D01*
X90000667Y-143844100D01*
X90000667Y-140695404D01*
X90000672Y-140269076D01*
X90000705Y-139883041D01*
X90000795Y-139535262D01*
X90000969Y-139223699D01*
X90001254Y-138946312D01*
X90001678Y-138701063D01*
X90002269Y-138485912D01*
X90003055Y-138298820D01*
X90004063Y-138137748D01*
X90005321Y-138000656D01*
X90006856Y-137885507D01*
X90008696Y-137790260D01*
X90010870Y-137712876D01*
X90013404Y-137651316D01*
X90016326Y-137603541D01*
X90019664Y-137567511D01*
X90023445Y-137541189D01*
X90027698Y-137522533D01*
X90032449Y-137509506D01*
X90037727Y-137500068D01*
X90043559Y-137492180D01*
X90044135Y-137491447D01*
X90093919Y-137448398D01*
X90159233Y-137415014D01*
X90169068Y-137411778D01*
X90230282Y-137398706D01*
X90281537Y-137405681D01*
G36*
X115680101Y-156119478D02*
G01*
X115742532Y-156166445D01*
X115775357Y-156214373D01*
X115779407Y-156223130D01*
X115783165Y-156235059D01*
X115786643Y-156251732D01*
X115789855Y-156274721D01*
X115792815Y-156305596D01*
X115795534Y-156345930D01*
X115798027Y-156397294D01*
X115800307Y-156461260D01*
X115802386Y-156539398D01*
X115804279Y-156633281D01*
X115805998Y-156744480D01*
X115807556Y-156874567D01*
X115808967Y-157025113D01*
X115810244Y-157197690D01*
X115811399Y-157393868D01*
X115812447Y-157615221D01*
X115813401Y-157863318D01*
X115814273Y-158139733D01*
X115815076Y-158446035D01*
X115815825Y-158783797D01*
X115816532Y-159154590D01*
X115817211Y-159559987D01*
X115817874Y-160001557D01*
X115818535Y-160480873D01*
X115819207Y-160999507D01*
X115819845Y-161512250D01*
X115820368Y-161981777D01*
X115820771Y-162441209D01*
X115821058Y-162888669D01*
X115821231Y-163322285D01*
X115821292Y-163740182D01*
X115821244Y-164140485D01*
X115821089Y-164521322D01*
X115820830Y-164880818D01*
X115820469Y-165217098D01*
X115820008Y-165528289D01*
X115819451Y-165812517D01*
X115818799Y-166067907D01*
X115818055Y-166292585D01*
X115817221Y-166484677D01*
X115816301Y-166642310D01*
X115815296Y-166763609D01*
X115814208Y-166846700D01*
X115813041Y-166889708D01*
X115812797Y-166893351D01*
X115790858Y-167024708D01*
X115751687Y-167118652D01*
X115695627Y-167174577D01*
X115642741Y-167191204D01*
X115576008Y-167181188D01*
X115533094Y-167148360D01*
X115501092Y-167098077D01*
X115473322Y-167027492D01*
X115464560Y-166993906D01*
X115461911Y-166963931D01*
X115459479Y-166899637D01*
X115457263Y-166800517D01*
X115455261Y-166666064D01*
X115453471Y-166495774D01*
X115451892Y-166289138D01*
X115450523Y-166045652D01*
X115449362Y-165764808D01*
X115448407Y-165446100D01*
X115447657Y-165089023D01*
X115447110Y-164693069D01*
X115446764Y-164257732D01*
X115446619Y-163782507D01*
X115446673Y-163266886D01*
X115446923Y-162710364D01*
X115447368Y-162112433D01*
X115447884Y-161586333D01*
X115448495Y-161026114D01*
X115449090Y-160506668D01*
X115449679Y-160026435D01*
X115450277Y-159583855D01*
X115450896Y-159177366D01*
X115451548Y-158805410D01*
X115452246Y-158466426D01*
X115453003Y-158158853D01*
X115453831Y-157881132D01*
X115454744Y-157631701D01*
X115455754Y-157409001D01*
X115456873Y-157211472D01*
X115458116Y-157037553D01*
X115459493Y-156885684D01*
X115461018Y-156754305D01*
X115462703Y-156641856D01*
X115464562Y-156546775D01*
X115466607Y-156467504D01*
X115468850Y-156402481D01*
X115471305Y-156350147D01*
X115473984Y-156308941D01*
X115476900Y-156277303D01*
X115480065Y-156253673D01*
X115483493Y-156236490D01*
X115487195Y-156224194D01*
X115491185Y-156215225D01*
X115491643Y-156214373D01*
X115547829Y-156143442D01*
X115612924Y-156111810D01*
X115680101Y-156119478D01*
G37*
X115680101Y-156119478D02*
X115742532Y-156166445D01*
X115775357Y-156214373D01*
X115779407Y-156223130D01*
X115783165Y-156235059D01*
X115786643Y-156251732D01*
X115789855Y-156274721D01*
X115792815Y-156305596D01*
X115795534Y-156345930D01*
X115798027Y-156397294D01*
X115800307Y-156461260D01*
X115802386Y-156539398D01*
X115804279Y-156633281D01*
X115805998Y-156744480D01*
X115807556Y-156874567D01*
X115808967Y-157025113D01*
X115810244Y-157197690D01*
X115811399Y-157393868D01*
X115812447Y-157615221D01*
X115813401Y-157863318D01*
X115814273Y-158139733D01*
X115815076Y-158446035D01*
X115815825Y-158783797D01*
X115816532Y-159154590D01*
X115817211Y-159559987D01*
X115817874Y-160001557D01*
X115818535Y-160480873D01*
X115819207Y-160999507D01*
X115819845Y-161512250D01*
X115820368Y-161981777D01*
X115820771Y-162441209D01*
X115821058Y-162888669D01*
X115821231Y-163322285D01*
X115821292Y-163740182D01*
X115821244Y-164140485D01*
X115821089Y-164521322D01*
X115820830Y-164880818D01*
X115820469Y-165217098D01*
X115820008Y-165528289D01*
X115819451Y-165812517D01*
X115818799Y-166067907D01*
X115818055Y-166292585D01*
X115817221Y-166484677D01*
X115816301Y-166642310D01*
X115815296Y-166763609D01*
X115814208Y-166846700D01*
X115813041Y-166889708D01*
X115812797Y-166893351D01*
X115790858Y-167024708D01*
X115751687Y-167118652D01*
X115695627Y-167174577D01*
X115642741Y-167191204D01*
X115576008Y-167181188D01*
X115533094Y-167148360D01*
X115501092Y-167098077D01*
X115473322Y-167027492D01*
X115464560Y-166993906D01*
X115461911Y-166963931D01*
X115459479Y-166899637D01*
X115457263Y-166800517D01*
X115455261Y-166666064D01*
X115453471Y-166495774D01*
X115451892Y-166289138D01*
X115450523Y-166045652D01*
X115449362Y-165764808D01*
X115448407Y-165446100D01*
X115447657Y-165089023D01*
X115447110Y-164693069D01*
X115446764Y-164257732D01*
X115446619Y-163782507D01*
X115446673Y-163266886D01*
X115446923Y-162710364D01*
X115447368Y-162112433D01*
X115447884Y-161586333D01*
X115448495Y-161026114D01*
X115449090Y-160506668D01*
X115449679Y-160026435D01*
X115450277Y-159583855D01*
X115450896Y-159177366D01*
X115451548Y-158805410D01*
X115452246Y-158466426D01*
X115453003Y-158158853D01*
X115453831Y-157881132D01*
X115454744Y-157631701D01*
X115455754Y-157409001D01*
X115456873Y-157211472D01*
X115458116Y-157037553D01*
X115459493Y-156885684D01*
X115461018Y-156754305D01*
X115462703Y-156641856D01*
X115464562Y-156546775D01*
X115466607Y-156467504D01*
X115468850Y-156402481D01*
X115471305Y-156350147D01*
X115473984Y-156308941D01*
X115476900Y-156277303D01*
X115480065Y-156253673D01*
X115483493Y-156236490D01*
X115487195Y-156224194D01*
X115491185Y-156215225D01*
X115491643Y-156214373D01*
X115547829Y-156143442D01*
X115612924Y-156111810D01*
X115680101Y-156119478D01*
G36*
X90288851Y-156139754D02*
G01*
X90340935Y-156179955D01*
X90392250Y-156234577D01*
X90392250Y-167086256D01*
X90342808Y-167138884D01*
X90279756Y-167190057D01*
X90218105Y-167203289D01*
X90175610Y-167193433D01*
X90135098Y-167163998D01*
X90096058Y-167114177D01*
X90091733Y-167106633D01*
X90087712Y-167097963D01*
X90083979Y-167086189D01*
X90080522Y-167069757D01*
X90077328Y-167047110D01*
X90074386Y-167016692D01*
X90071681Y-166976947D01*
X90069202Y-166926318D01*
X90066935Y-166863249D01*
X90064870Y-166786184D01*
X90062992Y-166693567D01*
X90061290Y-166583842D01*
X90059750Y-166455453D01*
X90058361Y-166306842D01*
X90057109Y-166136455D01*
X90055982Y-165942735D01*
X90054968Y-165724126D01*
X90054054Y-165479071D01*
X90053227Y-165206014D01*
X90052475Y-164903400D01*
X90051786Y-164569672D01*
X90051146Y-164203273D01*
X90050543Y-163802649D01*
X90049965Y-163366241D01*
X90049398Y-162892495D01*
X90048832Y-162379854D01*
X90048252Y-161826762D01*
X90048127Y-161705621D01*
X90047553Y-161075411D01*
X90047166Y-160486973D01*
X90046967Y-159939747D01*
X90046957Y-159433173D01*
X90047139Y-158966689D01*
X90047515Y-158539737D01*
X90048086Y-158151754D01*
X90048854Y-157802181D01*
X90049820Y-157490457D01*
X90050987Y-157216021D01*
X90052356Y-156978314D01*
X90053929Y-156776774D01*
X90055708Y-156610842D01*
X90057695Y-156479956D01*
X90059890Y-156383556D01*
X90062297Y-156321082D01*
X90064916Y-156291974D01*
X90065119Y-156291129D01*
X90103113Y-156203109D01*
X90157341Y-156146817D01*
X90221391Y-156124838D01*
X90288851Y-156139754D01*
G37*
X90288851Y-156139754D02*
X90340935Y-156179955D01*
X90392250Y-156234577D01*
X90392250Y-167086256D01*
X90342808Y-167138884D01*
X90279756Y-167190057D01*
X90218105Y-167203289D01*
X90175610Y-167193433D01*
X90135098Y-167163998D01*
X90096058Y-167114177D01*
X90091733Y-167106633D01*
X90087712Y-167097963D01*
X90083979Y-167086189D01*
X90080522Y-167069757D01*
X90077328Y-167047110D01*
X90074386Y-167016692D01*
X90071681Y-166976947D01*
X90069202Y-166926318D01*
X90066935Y-166863249D01*
X90064870Y-166786184D01*
X90062992Y-166693567D01*
X90061290Y-166583842D01*
X90059750Y-166455453D01*
X90058361Y-166306842D01*
X90057109Y-166136455D01*
X90055982Y-165942735D01*
X90054968Y-165724126D01*
X90054054Y-165479071D01*
X90053227Y-165206014D01*
X90052475Y-164903400D01*
X90051786Y-164569672D01*
X90051146Y-164203273D01*
X90050543Y-163802649D01*
X90049965Y-163366241D01*
X90049398Y-162892495D01*
X90048832Y-162379854D01*
X90048252Y-161826762D01*
X90048127Y-161705621D01*
X90047553Y-161075411D01*
X90047166Y-160486973D01*
X90046967Y-159939747D01*
X90046957Y-159433173D01*
X90047139Y-158966689D01*
X90047515Y-158539737D01*
X90048086Y-158151754D01*
X90048854Y-157802181D01*
X90049820Y-157490457D01*
X90050987Y-157216021D01*
X90052356Y-156978314D01*
X90053929Y-156776774D01*
X90055708Y-156610842D01*
X90057695Y-156479956D01*
X90059890Y-156383556D01*
X90062297Y-156321082D01*
X90064916Y-156291974D01*
X90065119Y-156291129D01*
X90103113Y-156203109D01*
X90157341Y-156146817D01*
X90221391Y-156124838D01*
X90288851Y-156139754D01*
G36*
X103008823Y-145890528D02*
G01*
X103065354Y-145925657D01*
X103094520Y-145952786D01*
X103166640Y-146024906D01*
X103160702Y-157515078D01*
X103154765Y-169005250D01*
X103109410Y-169185166D01*
X103001766Y-169532457D01*
X102860904Y-169854414D01*
X102688019Y-170149819D01*
X102484304Y-170417449D01*
X102250953Y-170656084D01*
X101989159Y-170864503D01*
X101700118Y-171041485D01*
X101385021Y-171185808D01*
X101045361Y-171296174D01*
X100827417Y-171353841D01*
X97775074Y-171360136D01*
X94722731Y-171366432D01*
X94656201Y-171306987D01*
X94608064Y-171251567D01*
X94583950Y-171184873D01*
X94578480Y-171148260D01*
X94574424Y-171085460D01*
X94584775Y-171042589D01*
X94616546Y-171000430D01*
X94641945Y-170974321D01*
X94716600Y-170899666D01*
X97518008Y-170899485D01*
X97947587Y-170899384D01*
X98337030Y-170899107D01*
X98688534Y-170898605D01*
X99004297Y-170897829D01*
X99286516Y-170896731D01*
X99537388Y-170895262D01*
X99759111Y-170893374D01*
X99953881Y-170891017D01*
X100123895Y-170888144D01*
X100271352Y-170884705D01*
X100398449Y-170880653D01*
X100507381Y-170875938D01*
X100600348Y-170870511D01*
X100679546Y-170864324D01*
X100747172Y-170857329D01*
X100805424Y-170849477D01*
X100856499Y-170840719D01*
X100902594Y-170831006D01*
X100931883Y-170823916D01*
X101228465Y-170727887D01*
X101504803Y-170596751D01*
X101758441Y-170433297D01*
X101986924Y-170240314D01*
X102187798Y-170020593D01*
X102358609Y-169776924D01*
X102496901Y-169512095D01*
X102600220Y-169228897D01*
X102666111Y-168930120D01*
X102678040Y-168839422D01*
X102679893Y-168806258D01*
X102681662Y-168740514D01*
X102683346Y-168641781D01*
X102684946Y-168509653D01*
X102686464Y-168343722D01*
X102687900Y-168143582D01*
X102689254Y-167908825D01*
X102690529Y-167639044D01*
X102691723Y-167333832D01*
X102692839Y-166992783D01*
X102693877Y-166615488D01*
X102694837Y-166201542D01*
X102695722Y-165750536D01*
X102696530Y-165262063D01*
X102697264Y-164735718D01*
X102697924Y-164171091D01*
X102698511Y-163567777D01*
X102699025Y-162925369D01*
X102699468Y-162243458D01*
X102699840Y-161521639D01*
X102700142Y-160759503D01*
X102700375Y-159956644D01*
X102700539Y-159112655D01*
X102700636Y-158227129D01*
X102700667Y-157342199D01*
X102700678Y-156504807D01*
X102700713Y-155708735D01*
X102700776Y-154952970D01*
X102700868Y-154236499D01*
X102700993Y-153558310D01*
X102701152Y-152917389D01*
X102701350Y-152312723D01*
X102701588Y-151743300D01*
X102701869Y-151208105D01*
X102702195Y-150706127D01*
X102702571Y-150236352D01*
X102702997Y-149797767D01*
X102703478Y-149389359D01*
X102704015Y-149010115D01*
X102704611Y-148659023D01*
X102705270Y-148335068D01*
X102705993Y-148037238D01*
X102706783Y-147764521D01*
X102707643Y-147515902D01*
X102708576Y-147290370D01*
X102709585Y-147086910D01*
X102710672Y-146904511D01*
X102711839Y-146742158D01*
X102713090Y-146598839D01*
X102714428Y-146473541D01*
X102715854Y-146365251D01*
X102717371Y-146272956D01*
X102718983Y-146195643D01*
X102720692Y-146132299D01*
X102722501Y-146081910D01*
X102724412Y-146043465D01*
X102726428Y-146015949D01*
X102728552Y-145998349D01*
X102730786Y-145989654D01*
X102730829Y-145989569D01*
X102787010Y-145925227D01*
X102872194Y-145888531D01*
X102947196Y-145880666D01*
X103008823Y-145890528D01*
G37*
X103008823Y-145890528D02*
X103065354Y-145925657D01*
X103094520Y-145952786D01*
X103166640Y-146024906D01*
X103160702Y-157515078D01*
X103154765Y-169005250D01*
X103109410Y-169185166D01*
X103001766Y-169532457D01*
X102860904Y-169854414D01*
X102688019Y-170149819D01*
X102484304Y-170417449D01*
X102250953Y-170656084D01*
X101989159Y-170864503D01*
X101700118Y-171041485D01*
X101385021Y-171185808D01*
X101045361Y-171296174D01*
X100827417Y-171353841D01*
X97775074Y-171360136D01*
X94722731Y-171366432D01*
X94656201Y-171306987D01*
X94608064Y-171251567D01*
X94583950Y-171184873D01*
X94578480Y-171148260D01*
X94574424Y-171085460D01*
X94584775Y-171042589D01*
X94616546Y-171000430D01*
X94641945Y-170974321D01*
X94716600Y-170899666D01*
X97518008Y-170899485D01*
X97947587Y-170899384D01*
X98337030Y-170899107D01*
X98688534Y-170898605D01*
X99004297Y-170897829D01*
X99286516Y-170896731D01*
X99537388Y-170895262D01*
X99759111Y-170893374D01*
X99953881Y-170891017D01*
X100123895Y-170888144D01*
X100271352Y-170884705D01*
X100398449Y-170880653D01*
X100507381Y-170875938D01*
X100600348Y-170870511D01*
X100679546Y-170864324D01*
X100747172Y-170857329D01*
X100805424Y-170849477D01*
X100856499Y-170840719D01*
X100902594Y-170831006D01*
X100931883Y-170823916D01*
X101228465Y-170727887D01*
X101504803Y-170596751D01*
X101758441Y-170433297D01*
X101986924Y-170240314D01*
X102187798Y-170020593D01*
X102358609Y-169776924D01*
X102496901Y-169512095D01*
X102600220Y-169228897D01*
X102666111Y-168930120D01*
X102678040Y-168839422D01*
X102679893Y-168806258D01*
X102681662Y-168740514D01*
X102683346Y-168641781D01*
X102684946Y-168509653D01*
X102686464Y-168343722D01*
X102687900Y-168143582D01*
X102689254Y-167908825D01*
X102690529Y-167639044D01*
X102691723Y-167333832D01*
X102692839Y-166992783D01*
X102693877Y-166615488D01*
X102694837Y-166201542D01*
X102695722Y-165750536D01*
X102696530Y-165262063D01*
X102697264Y-164735718D01*
X102697924Y-164171091D01*
X102698511Y-163567777D01*
X102699025Y-162925369D01*
X102699468Y-162243458D01*
X102699840Y-161521639D01*
X102700142Y-160759503D01*
X102700375Y-159956644D01*
X102700539Y-159112655D01*
X102700636Y-158227129D01*
X102700667Y-157342199D01*
X102700678Y-156504807D01*
X102700713Y-155708735D01*
X102700776Y-154952970D01*
X102700868Y-154236499D01*
X102700993Y-153558310D01*
X102701152Y-152917389D01*
X102701350Y-152312723D01*
X102701588Y-151743300D01*
X102701869Y-151208105D01*
X102702195Y-150706127D01*
X102702571Y-150236352D01*
X102702997Y-149797767D01*
X102703478Y-149389359D01*
X102704015Y-149010115D01*
X102704611Y-148659023D01*
X102705270Y-148335068D01*
X102705993Y-148037238D01*
X102706783Y-147764521D01*
X102707643Y-147515902D01*
X102708576Y-147290370D01*
X102709585Y-147086910D01*
X102710672Y-146904511D01*
X102711839Y-146742158D01*
X102713090Y-146598839D01*
X102714428Y-146473541D01*
X102715854Y-146365251D01*
X102717371Y-146272956D01*
X102718983Y-146195643D01*
X102720692Y-146132299D01*
X102722501Y-146081910D01*
X102724412Y-146043465D01*
X102726428Y-146015949D01*
X102728552Y-145998349D01*
X102730786Y-145989654D01*
X102730829Y-145989569D01*
X102787010Y-145925227D01*
X102872194Y-145888531D01*
X102947196Y-145880666D01*
X103008823Y-145890528D01*
%TD*%
M02*
