%TF.GenerationSoftware,KiCad,Pcbnew,(5.1.8-0-10_14)*%
%TF.CreationDate,2021-10-26T20:58:47+01:00*%
%TF.ProjectId,dual-digi-delay,6475616c-2d64-4696-9769-2d64656c6179,r01*%
%TF.SameCoordinates,Original*%
%TF.FileFunction,Legend,Bot*%
%TF.FilePolarity,Positive*%
%FSLAX46Y46*%
G04 Gerber Fmt 4.6, Leading zero omitted, Abs format (unit mm)*
G04 Created by KiCad (PCBNEW (5.1.8-0-10_14)) date 2021-10-26 20:58:47*
%MOMM*%
%LPD*%
G01*
G04 APERTURE LIST*
%ADD10C,0.150000*%
%ADD11C,0.120000*%
G04 APERTURE END LIST*
D10*
X51609523Y-167457428D02*
X50847619Y-167457428D01*
X50514285Y-166838380D02*
X50180952Y-167838380D01*
X49847619Y-166838380D01*
X162353523Y-172537428D02*
X161591619Y-172537428D01*
X161258285Y-171918380D02*
X160924952Y-172918380D01*
X160591619Y-171918380D01*
X154225523Y-172537428D02*
X153463619Y-172537428D01*
X153844571Y-172918380D02*
X153844571Y-172156476D01*
X153130285Y-171918380D02*
X152796952Y-172918380D01*
X152463619Y-171918380D01*
D11*
%TO.C,J2*%
X70164000Y-74616000D02*
X68834000Y-74616000D01*
X70164000Y-75946000D02*
X70164000Y-74616000D01*
X70164000Y-77216000D02*
X67504000Y-77216000D01*
X67504000Y-77216000D02*
X67504000Y-89976000D01*
X70164000Y-77216000D02*
X70164000Y-89976000D01*
X70164000Y-89976000D02*
X67504000Y-89976000D01*
%TO.C,J38*%
X70164000Y-162620000D02*
X67504000Y-162620000D01*
X70164000Y-149860000D02*
X70164000Y-162620000D01*
X67504000Y-149860000D02*
X67504000Y-162620000D01*
X70164000Y-149860000D02*
X67504000Y-149860000D01*
X70164000Y-148590000D02*
X70164000Y-147260000D01*
X70164000Y-147260000D02*
X68834000Y-147260000D01*
%TO.C,J11*%
X26476000Y-162620000D02*
X23816000Y-162620000D01*
X26476000Y-149860000D02*
X26476000Y-162620000D01*
X23816000Y-149860000D02*
X23816000Y-162620000D01*
X26476000Y-149860000D02*
X23816000Y-149860000D01*
X26476000Y-148590000D02*
X26476000Y-147260000D01*
X26476000Y-147260000D02*
X25146000Y-147260000D01*
%TO.C,J13*%
X117796000Y-99374000D02*
X119126000Y-99374000D01*
X117796000Y-98044000D02*
X117796000Y-99374000D01*
X117796000Y-96774000D02*
X120456000Y-96774000D01*
X120456000Y-96774000D02*
X120456000Y-94174000D01*
X117796000Y-96774000D02*
X117796000Y-94174000D01*
X117796000Y-94174000D02*
X120456000Y-94174000D01*
%TO.C,J8*%
X117796000Y-71180000D02*
X119126000Y-71180000D01*
X117796000Y-69850000D02*
X117796000Y-71180000D01*
X117796000Y-68580000D02*
X120456000Y-68580000D01*
X120456000Y-68580000D02*
X120456000Y-65980000D01*
X117796000Y-68580000D02*
X117796000Y-65980000D01*
X117796000Y-65980000D02*
X120456000Y-65980000D01*
%TO.C,J16*%
X26476000Y-56194000D02*
X23816000Y-56194000D01*
X26476000Y-53594000D02*
X26476000Y-56194000D01*
X23816000Y-53594000D02*
X23816000Y-56194000D01*
X26476000Y-53594000D02*
X23816000Y-53594000D01*
X26476000Y-52324000D02*
X26476000Y-50994000D01*
X26476000Y-50994000D02*
X25146000Y-50994000D01*
%TO.C,J4*%
X49590000Y-31556000D02*
X49590000Y-30226000D01*
X48260000Y-31556000D02*
X49590000Y-31556000D01*
X46990000Y-31556000D02*
X46990000Y-28896000D01*
X46990000Y-28896000D02*
X44390000Y-28896000D01*
X46990000Y-31556000D02*
X44390000Y-31556000D01*
X44390000Y-31556000D02*
X44390000Y-28896000D01*
%TO.C,J5*%
X70164000Y-39056000D02*
X68834000Y-39056000D01*
X70164000Y-40386000D02*
X70164000Y-39056000D01*
X70164000Y-41656000D02*
X67504000Y-41656000D01*
X67504000Y-41656000D02*
X67504000Y-44256000D01*
X70164000Y-41656000D02*
X70164000Y-44256000D01*
X70164000Y-44256000D02*
X67504000Y-44256000D01*
%TO.C,J15*%
X152290000Y-179560000D02*
X152290000Y-173540000D01*
X152290000Y-173540000D02*
X162670000Y-173540000D01*
X162670000Y-173540000D02*
X162670000Y-179560000D01*
X162670000Y-179560000D02*
X152290000Y-179560000D01*
X152000000Y-178530000D02*
X152000000Y-174530000D01*
X153670000Y-173540000D02*
X153670000Y-174540000D01*
X153670000Y-174540000D02*
X161290000Y-174540000D01*
X161290000Y-174540000D02*
X161290000Y-173540000D01*
X153670000Y-174540000D02*
X153920000Y-175070000D01*
X153920000Y-175070000D02*
X161040000Y-175070000D01*
X161040000Y-175070000D02*
X161290000Y-174540000D01*
X153920000Y-173540000D02*
X153920000Y-174540000D01*
X161040000Y-173540000D02*
X161040000Y-174540000D01*
X152870000Y-179560000D02*
X152870000Y-178960000D01*
X152870000Y-178960000D02*
X154470000Y-178960000D01*
X154470000Y-178960000D02*
X154470000Y-179560000D01*
X155410000Y-179560000D02*
X155410000Y-178960000D01*
X155410000Y-178960000D02*
X157010000Y-178960000D01*
X157010000Y-178960000D02*
X157010000Y-179560000D01*
X157950000Y-179560000D02*
X157950000Y-178960000D01*
X157950000Y-178960000D02*
X159550000Y-178960000D01*
X159550000Y-178960000D02*
X159550000Y-179560000D01*
X160490000Y-179560000D02*
X160490000Y-178960000D01*
X160490000Y-178960000D02*
X162090000Y-178960000D01*
X162090000Y-178960000D02*
X162090000Y-179560000D01*
%TO.C,J9*%
X102422000Y-165040000D02*
X102422000Y-167700000D01*
X94742000Y-165040000D02*
X102422000Y-165040000D01*
X94742000Y-167700000D02*
X102422000Y-167700000D01*
X94742000Y-165040000D02*
X94742000Y-167700000D01*
X93472000Y-165040000D02*
X92142000Y-165040000D01*
X92142000Y-165040000D02*
X92142000Y-166370000D01*
%TO.C,J3*%
X26730000Y-78934000D02*
X25400000Y-78934000D01*
X26730000Y-80264000D02*
X26730000Y-78934000D01*
X26730000Y-81534000D02*
X24070000Y-81534000D01*
X24070000Y-81534000D02*
X24070000Y-89214000D01*
X26730000Y-81534000D02*
X26730000Y-89214000D01*
X26730000Y-89214000D02*
X24070000Y-89214000D01*
%TO.C,J1*%
X41850000Y-168850000D02*
X41850000Y-170180000D01*
X43180000Y-168850000D02*
X41850000Y-168850000D01*
X44450000Y-168850000D02*
X44450000Y-171510000D01*
X44450000Y-171510000D02*
X52130000Y-171510000D01*
X44450000Y-168850000D02*
X52130000Y-168850000D01*
X52130000Y-168850000D02*
X52130000Y-171510000D01*
%TO.C,J21*%
X74108000Y-99374000D02*
X75438000Y-99374000D01*
X74108000Y-98044000D02*
X74108000Y-99374000D01*
X74108000Y-96774000D02*
X76768000Y-96774000D01*
X76768000Y-96774000D02*
X76768000Y-94174000D01*
X74108000Y-96774000D02*
X74108000Y-94174000D01*
X74108000Y-94174000D02*
X76768000Y-94174000D01*
%TO.C,J2*%
D10*
X69167333Y-73068380D02*
X69167333Y-73782666D01*
X69214952Y-73925523D01*
X69310190Y-74020761D01*
X69453047Y-74068380D01*
X69548285Y-74068380D01*
X68738761Y-73163619D02*
X68691142Y-73116000D01*
X68595904Y-73068380D01*
X68357809Y-73068380D01*
X68262571Y-73116000D01*
X68214952Y-73163619D01*
X68167333Y-73258857D01*
X68167333Y-73354095D01*
X68214952Y-73496952D01*
X68786380Y-74068380D01*
X68167333Y-74068380D01*
%TO.C,J38*%
X69643523Y-145712380D02*
X69643523Y-146426666D01*
X69691142Y-146569523D01*
X69786380Y-146664761D01*
X69929238Y-146712380D01*
X70024476Y-146712380D01*
X69262571Y-145712380D02*
X68643523Y-145712380D01*
X68976857Y-146093333D01*
X68834000Y-146093333D01*
X68738761Y-146140952D01*
X68691142Y-146188571D01*
X68643523Y-146283809D01*
X68643523Y-146521904D01*
X68691142Y-146617142D01*
X68738761Y-146664761D01*
X68834000Y-146712380D01*
X69119714Y-146712380D01*
X69214952Y-146664761D01*
X69262571Y-146617142D01*
X68072095Y-146140952D02*
X68167333Y-146093333D01*
X68214952Y-146045714D01*
X68262571Y-145950476D01*
X68262571Y-145902857D01*
X68214952Y-145807619D01*
X68167333Y-145760000D01*
X68072095Y-145712380D01*
X67881619Y-145712380D01*
X67786380Y-145760000D01*
X67738761Y-145807619D01*
X67691142Y-145902857D01*
X67691142Y-145950476D01*
X67738761Y-146045714D01*
X67786380Y-146093333D01*
X67881619Y-146140952D01*
X68072095Y-146140952D01*
X68167333Y-146188571D01*
X68214952Y-146236190D01*
X68262571Y-146331428D01*
X68262571Y-146521904D01*
X68214952Y-146617142D01*
X68167333Y-146664761D01*
X68072095Y-146712380D01*
X67881619Y-146712380D01*
X67786380Y-146664761D01*
X67738761Y-146617142D01*
X67691142Y-146521904D01*
X67691142Y-146331428D01*
X67738761Y-146236190D01*
X67786380Y-146188571D01*
X67881619Y-146140952D01*
%TO.C,J11*%
X25955523Y-145712380D02*
X25955523Y-146426666D01*
X26003142Y-146569523D01*
X26098380Y-146664761D01*
X26241238Y-146712380D01*
X26336476Y-146712380D01*
X24955523Y-146712380D02*
X25526952Y-146712380D01*
X25241238Y-146712380D02*
X25241238Y-145712380D01*
X25336476Y-145855238D01*
X25431714Y-145950476D01*
X25526952Y-145998095D01*
X24003142Y-146712380D02*
X24574571Y-146712380D01*
X24288857Y-146712380D02*
X24288857Y-145712380D01*
X24384095Y-145855238D01*
X24479333Y-145950476D01*
X24574571Y-145998095D01*
%TO.C,J13*%
X119935523Y-99826380D02*
X119935523Y-100540666D01*
X119983142Y-100683523D01*
X120078380Y-100778761D01*
X120221238Y-100826380D01*
X120316476Y-100826380D01*
X118935523Y-100826380D02*
X119506952Y-100826380D01*
X119221238Y-100826380D02*
X119221238Y-99826380D01*
X119316476Y-99969238D01*
X119411714Y-100064476D01*
X119506952Y-100112095D01*
X118602190Y-99826380D02*
X117983142Y-99826380D01*
X118316476Y-100207333D01*
X118173619Y-100207333D01*
X118078380Y-100254952D01*
X118030761Y-100302571D01*
X117983142Y-100397809D01*
X117983142Y-100635904D01*
X118030761Y-100731142D01*
X118078380Y-100778761D01*
X118173619Y-100826380D01*
X118459333Y-100826380D01*
X118554571Y-100778761D01*
X118602190Y-100731142D01*
%TO.C,J8*%
X119459333Y-71842380D02*
X119459333Y-72556666D01*
X119506952Y-72699523D01*
X119602190Y-72794761D01*
X119745047Y-72842380D01*
X119840285Y-72842380D01*
X118840285Y-72270952D02*
X118935523Y-72223333D01*
X118983142Y-72175714D01*
X119030761Y-72080476D01*
X119030761Y-72032857D01*
X118983142Y-71937619D01*
X118935523Y-71890000D01*
X118840285Y-71842380D01*
X118649809Y-71842380D01*
X118554571Y-71890000D01*
X118506952Y-71937619D01*
X118459333Y-72032857D01*
X118459333Y-72080476D01*
X118506952Y-72175714D01*
X118554571Y-72223333D01*
X118649809Y-72270952D01*
X118840285Y-72270952D01*
X118935523Y-72318571D01*
X118983142Y-72366190D01*
X119030761Y-72461428D01*
X119030761Y-72651904D01*
X118983142Y-72747142D01*
X118935523Y-72794761D01*
X118840285Y-72842380D01*
X118649809Y-72842380D01*
X118554571Y-72794761D01*
X118506952Y-72747142D01*
X118459333Y-72651904D01*
X118459333Y-72461428D01*
X118506952Y-72366190D01*
X118554571Y-72318571D01*
X118649809Y-72270952D01*
%TO.C,J16*%
X25955523Y-49446380D02*
X25955523Y-50160666D01*
X26003142Y-50303523D01*
X26098380Y-50398761D01*
X26241238Y-50446380D01*
X26336476Y-50446380D01*
X24955523Y-50446380D02*
X25526952Y-50446380D01*
X25241238Y-50446380D02*
X25241238Y-49446380D01*
X25336476Y-49589238D01*
X25431714Y-49684476D01*
X25526952Y-49732095D01*
X24098380Y-49446380D02*
X24288857Y-49446380D01*
X24384095Y-49494000D01*
X24431714Y-49541619D01*
X24526952Y-49684476D01*
X24574571Y-49874952D01*
X24574571Y-50255904D01*
X24526952Y-50351142D01*
X24479333Y-50398761D01*
X24384095Y-50446380D01*
X24193619Y-50446380D01*
X24098380Y-50398761D01*
X24050761Y-50351142D01*
X24003142Y-50255904D01*
X24003142Y-50017809D01*
X24050761Y-49922571D01*
X24098380Y-49874952D01*
X24193619Y-49827333D01*
X24384095Y-49827333D01*
X24479333Y-49874952D01*
X24526952Y-49922571D01*
X24574571Y-50017809D01*
%TO.C,J4*%
X50042380Y-29892666D02*
X50756666Y-29892666D01*
X50899523Y-29845047D01*
X50994761Y-29749809D01*
X51042380Y-29606952D01*
X51042380Y-29511714D01*
X50375714Y-30797428D02*
X51042380Y-30797428D01*
X49994761Y-30559333D02*
X50709047Y-30321238D01*
X50709047Y-30940285D01*
%TO.C,J5*%
X69167333Y-37508380D02*
X69167333Y-38222666D01*
X69214952Y-38365523D01*
X69310190Y-38460761D01*
X69453047Y-38508380D01*
X69548285Y-38508380D01*
X68214952Y-37508380D02*
X68691142Y-37508380D01*
X68738761Y-37984571D01*
X68691142Y-37936952D01*
X68595904Y-37889333D01*
X68357809Y-37889333D01*
X68262571Y-37936952D01*
X68214952Y-37984571D01*
X68167333Y-38079809D01*
X68167333Y-38317904D01*
X68214952Y-38413142D01*
X68262571Y-38460761D01*
X68357809Y-38508380D01*
X68595904Y-38508380D01*
X68691142Y-38460761D01*
X68738761Y-38413142D01*
%TO.C,J15*%
X163282380Y-175974476D02*
X163996666Y-175974476D01*
X164139523Y-175926857D01*
X164234761Y-175831619D01*
X164282380Y-175688761D01*
X164282380Y-175593523D01*
X164282380Y-176974476D02*
X164282380Y-176403047D01*
X164282380Y-176688761D02*
X163282380Y-176688761D01*
X163425238Y-176593523D01*
X163520476Y-176498285D01*
X163568095Y-176403047D01*
X163282380Y-177879238D02*
X163282380Y-177403047D01*
X163758571Y-177355428D01*
X163710952Y-177403047D01*
X163663333Y-177498285D01*
X163663333Y-177736380D01*
X163710952Y-177831619D01*
X163758571Y-177879238D01*
X163853809Y-177926857D01*
X164091904Y-177926857D01*
X164187142Y-177879238D01*
X164234761Y-177831619D01*
X164282380Y-177736380D01*
X164282380Y-177498285D01*
X164234761Y-177403047D01*
X164187142Y-177355428D01*
%TO.C,J9*%
X97869333Y-163282380D02*
X97869333Y-163996666D01*
X97916952Y-164139523D01*
X98012190Y-164234761D01*
X98155047Y-164282380D01*
X98250285Y-164282380D01*
X97345523Y-164282380D02*
X97155047Y-164282380D01*
X97059809Y-164234761D01*
X97012190Y-164187142D01*
X96916952Y-164044285D01*
X96869333Y-163853809D01*
X96869333Y-163472857D01*
X96916952Y-163377619D01*
X96964571Y-163330000D01*
X97059809Y-163282380D01*
X97250285Y-163282380D01*
X97345523Y-163330000D01*
X97393142Y-163377619D01*
X97440761Y-163472857D01*
X97440761Y-163710952D01*
X97393142Y-163806190D01*
X97345523Y-163853809D01*
X97250285Y-163901428D01*
X97059809Y-163901428D01*
X96964571Y-163853809D01*
X96916952Y-163806190D01*
X96869333Y-163710952D01*
%TO.C,J3*%
X25733333Y-77386380D02*
X25733333Y-78100666D01*
X25780952Y-78243523D01*
X25876190Y-78338761D01*
X26019047Y-78386380D01*
X26114285Y-78386380D01*
X25352380Y-77386380D02*
X24733333Y-77386380D01*
X25066666Y-77767333D01*
X24923809Y-77767333D01*
X24828571Y-77814952D01*
X24780952Y-77862571D01*
X24733333Y-77957809D01*
X24733333Y-78195904D01*
X24780952Y-78291142D01*
X24828571Y-78338761D01*
X24923809Y-78386380D01*
X25209523Y-78386380D01*
X25304761Y-78338761D01*
X25352380Y-78291142D01*
%TO.C,J1*%
X47069333Y-166838380D02*
X47069333Y-167552666D01*
X47116952Y-167695523D01*
X47212190Y-167790761D01*
X47355047Y-167838380D01*
X47450285Y-167838380D01*
X46069333Y-167838380D02*
X46640761Y-167838380D01*
X46355047Y-167838380D02*
X46355047Y-166838380D01*
X46450285Y-166981238D01*
X46545523Y-167076476D01*
X46640761Y-167124095D01*
%TO.C,J21*%
X76247523Y-99826380D02*
X76247523Y-100540666D01*
X76295142Y-100683523D01*
X76390380Y-100778761D01*
X76533238Y-100826380D01*
X76628476Y-100826380D01*
X75818952Y-99921619D02*
X75771333Y-99874000D01*
X75676095Y-99826380D01*
X75438000Y-99826380D01*
X75342761Y-99874000D01*
X75295142Y-99921619D01*
X75247523Y-100016857D01*
X75247523Y-100112095D01*
X75295142Y-100254952D01*
X75866571Y-100826380D01*
X75247523Y-100826380D01*
X74295142Y-100826380D02*
X74866571Y-100826380D01*
X74580857Y-100826380D02*
X74580857Y-99826380D01*
X74676095Y-99969238D01*
X74771333Y-100064476D01*
X74866571Y-100112095D01*
%TD*%
M02*
