M48
; DRILL file {KiCad (5.1.8-0-10_14)} date Tuesday, October 26, 2021 at 08:58:53 PM
; FORMAT={-:-/ absolute / metric / decimal}
; #@! TF.CreationDate,2021-10-26T20:58:53+01:00
; #@! TF.GenerationSoftware,Kicad,Pcbnew,(5.1.8-0-10_14)
FMAT,2
METRIC
T1C0.381
T2C0.750
T3C0.800
T4C0.900
T5C1.000
T6C1.100
T7C1.190
T8C1.800
T9C1.850
T10C3.200
T11C5.100
T12C0.500
%
G90
G05
T1
X26.416Y-178.308
X26.67Y-134.112
X26.924Y-110.236
X29.464Y-75.692
X32.512Y-47.498
X34.544Y-141.478
X34.544Y-147.828
X36.322Y-68.072
X44.958Y-35.306
X44.958Y-87.376
X50.038Y-78.486
X50.038Y-91.694
X54.864Y-87.376
X58.928Y-45.974
X59.69Y-174.244
X65.532Y-81.28
X67.31Y-31.75
X67.31Y-60.198
X67.564Y-91.186
X67.564Y-134.366
X75.946Y-119.38
X80.01Y-118.618
X81.788Y-47.752
X83.82Y-141.732
X85.598Y-113.792
X89.662Y-36.83
X89.916Y-30.226
X90.678Y-55.626
X93.98Y-97.282
X97.282Y-152.146
X97.536Y-122.936
X99.568Y-66.802
X100.076Y-86.36
X110.236Y-48.514
X110.236Y-56.896
X110.744Y-145.034
X110.998Y-72.136
X113.284Y-55.118
X118.618Y-35.052
X118.872Y-141.224
X130.81Y-176.276
X134.112Y-96.52
X134.366Y-128.778
X135.89Y-38.1
X143.51Y-66.04
X145.542Y-113.538
X148.895Y-127.965
X150.114Y-97.028
X160.02Y-94.996
X161.036Y-37.338
X163.322Y-148.844
X166.878Y-64.77
X169.164Y-53.594
X169.164Y-85.598
T2
X139.192Y-130.048
X139.192Y-131.318
X139.192Y-132.588
X76.962Y-104.902
X78.232Y-104.902
X79.502Y-104.902
X131.826Y-71.12
X133.096Y-71.12
X134.366Y-71.12
X115.062Y-104.394
X116.332Y-104.394
X117.602Y-104.394
X76.962Y-109.982
X78.232Y-109.982
X79.502Y-109.982
X115.062Y-109.22
X116.332Y-109.22
X117.602Y-109.22
T3
X75.184Y-138.43
X85.344Y-138.43
X153.67Y-62.484
X163.83Y-62.484
X79.248Y-177.8
X89.408Y-177.8
X84.662Y-117.856
X89.662Y-117.856
X107.696Y-77.216
X112.696Y-77.216
X62.738Y-54.102
X82.55Y-33.02
X92.71Y-33.02
X105.918Y-133.43
X105.918Y-138.43
X161.838Y-89.662
X164.338Y-89.662
X79.756Y-114.3
X89.916Y-114.3
X115.062Y-34.29
X115.062Y-44.45
X85.598Y-107.95
X95.758Y-107.95
X157.988Y-159.258
X157.988Y-161.758
X88.646Y-125.556
X88.646Y-130.556
X98.806Y-39.37
X98.806Y-44.37
X102.616Y-44.45
X102.616Y-52.07
X105.156Y-44.45
X105.156Y-52.07
X107.696Y-44.45
X107.696Y-52.07
X110.236Y-44.45
X110.236Y-52.07
X79.248Y-157.734
X89.408Y-157.734
X159.512Y-130.556
X169.672Y-130.556
X78.74Y-125.476
X78.74Y-135.636
X102.616Y-55.88
X107.616Y-55.88
X109.728Y-125.476
X109.728Y-135.636
X153.67Y-59.436
X163.83Y-59.436
X95.758Y-47.244
X95.758Y-52.244
X118.364Y-167.64
X118.364Y-177.8
X136.224Y-136.652
X141.224Y-136.652
X82.55Y-36.068
X92.71Y-36.068
X37.338Y-111.252
X157.56Y-76.454
X162.56Y-76.454
X155.448Y-134.112
X160.448Y-134.112
X92.202Y-100.33
X102.362Y-100.33
X143.002Y-158.79
X143.002Y-161.29
X79.248Y-144.526
X89.408Y-144.526
X149.606Y-72.136
X154.606Y-72.136
X159.512Y-127.508
X169.672Y-127.508
X134.366Y-145.328
X134.366Y-147.828
X112.776Y-125.476
X112.776Y-135.636
X125.222Y-55.88
X135.382Y-55.88
X102.108Y-34.036
X112.268Y-34.036
X102.108Y-62.484
X112.268Y-62.484
X104.902Y-117.856
X109.902Y-117.856
X105.156Y-141.478
X115.316Y-141.478
X84.408Y-161.29
X89.408Y-161.29
X105.156Y-177.8
X115.316Y-177.8
X131.572Y-115.316
X131.572Y-125.476
X81.36Y-40.132
X86.36Y-40.132
X79.248Y-154.686
X89.408Y-154.686
X102.696Y-40.64
X107.696Y-40.64
X82.55Y-29.972
X92.71Y-29.972
X105.156Y-161.29
X110.156Y-161.29
X132.588Y-133.096
X132.588Y-138.096
X94.742Y-69.088
X104.902Y-69.088
X118.872Y-47.752
X118.872Y-57.912
X84.662Y-121.92
X89.662Y-121.92
X164.672Y-134.112
X169.672Y-134.112
X155.448Y-138.176
X160.448Y-138.176
X159.512Y-124.46
X169.672Y-124.46
X62.738Y-130.302
X105.156Y-144.526
X115.316Y-144.526
X84.408Y-151.13
X89.408Y-151.13
X81.788Y-125.476
X81.788Y-135.636
X153.67Y-53.34
X163.83Y-53.34
X102.108Y-37.084
X112.268Y-37.084
X155.956Y-125.556
X155.956Y-130.556
X137.668Y-120.396
X137.668Y-123.896
X102.108Y-59.436
X112.268Y-59.436
X92.202Y-135.128
X102.362Y-135.128
X130.382Y-76.2
X135.382Y-76.2
X37.338Y-35.052
X105.156Y-147.574
X115.316Y-147.574
X88.98Y-84.836
X93.98Y-84.836
X79.248Y-167.64
X89.408Y-167.64
X150.114Y-63.072
X150.114Y-68.072
X83.312Y-79.756
X93.472Y-79.756
X126.746Y-68.58
X126.746Y-73.58
X94.742Y-66.04
X104.902Y-66.04
X127.0Y-142.828
X127.0Y-147.828
X93.472Y-115.316
X93.472Y-117.856
X93.472Y-120.396
X93.472Y-122.936
X93.472Y-125.476
X93.472Y-128.016
X93.472Y-130.556
X101.092Y-115.316
X101.092Y-117.856
X101.092Y-120.396
X101.092Y-122.936
X101.092Y-125.476
X101.092Y-128.016
X101.092Y-130.556
X78.994Y-100.33
X89.154Y-100.33
X134.7Y-115.316
X139.7Y-115.316
X153.67Y-56.388
X163.83Y-56.388
X95.758Y-111.252
X105.918Y-111.252
X104.902Y-121.92
X109.902Y-121.92
X157.052Y-111.76
X162.052Y-111.76
X155.956Y-117.936
X155.956Y-122.936
X88.646Y-133.43
X88.646Y-138.43
X84.836Y-125.476
X84.836Y-135.636
X155.274Y-49.784
X160.274Y-49.784
X105.156Y-164.846
X115.316Y-164.846
X93.472Y-144.526
X93.472Y-147.066
X93.472Y-149.606
X93.472Y-152.146
X93.472Y-154.686
X93.472Y-157.226
X93.472Y-159.766
X101.092Y-144.526
X101.092Y-147.066
X101.092Y-149.606
X101.092Y-152.146
X101.092Y-154.686
X101.092Y-157.226
X101.092Y-159.766
X105.156Y-151.13
X110.156Y-151.13
X75.692Y-69.088
X85.852Y-69.088
X159.512Y-115.316
X169.672Y-115.316
X138.43Y-54.356
X143.43Y-54.356
X164.672Y-111.76
X169.672Y-111.76
X136.224Y-140.716
X141.224Y-140.716
X37.338Y-130.302
X167.132Y-60.706
X169.632Y-60.706
X149.606Y-76.2
X154.606Y-76.2
X130.382Y-80.264
X135.382Y-80.264
X84.328Y-44.45
X84.328Y-52.07
X86.868Y-44.45
X86.868Y-52.07
X89.408Y-44.45
X89.408Y-52.07
X91.948Y-44.45
X91.948Y-52.07
X84.074Y-55.626
X94.234Y-55.626
X155.194Y-89.194
X155.194Y-91.694
X144.272Y-120.396
X144.272Y-122.936
X144.272Y-125.476
X144.272Y-128.016
X144.272Y-130.556
X144.272Y-133.096
X144.272Y-135.636
X144.272Y-138.176
X151.892Y-120.396
X151.892Y-122.936
X151.892Y-125.476
X151.892Y-128.016
X151.892Y-130.556
X151.892Y-133.096
X151.892Y-135.636
X151.892Y-138.176
X138.43Y-58.42
X138.43Y-60.96
X138.43Y-63.5
X138.43Y-66.04
X138.43Y-68.58
X138.43Y-71.12
X138.43Y-73.66
X138.43Y-76.2
X146.05Y-58.42
X146.05Y-60.96
X146.05Y-63.5
X146.05Y-66.04
X146.05Y-68.58
X146.05Y-71.12
X146.05Y-73.66
X146.05Y-76.2
X159.512Y-121.412
X169.672Y-121.412
X150.114Y-54.944
X150.114Y-59.944
X157.734Y-80.01
X167.894Y-80.01
X62.738Y-35.052
X79.248Y-141.478
X89.408Y-141.478
X104.648Y-114.3
X114.808Y-114.3
X105.156Y-167.894
X115.316Y-167.894
X137.414Y-156.29
X137.414Y-161.29
X94.996Y-88.392
X105.156Y-88.392
X76.2Y-167.64
X76.2Y-177.8
X159.512Y-118.364
X169.672Y-118.364
X79.248Y-147.574
X89.408Y-147.574
X97.028Y-77.216
X97.028Y-79.756
X97.028Y-82.296
X97.028Y-84.836
X104.648Y-77.216
X104.648Y-79.756
X104.648Y-82.296
X104.648Y-84.836
X138.43Y-48.26
X140.93Y-48.26
X105.918Y-125.556
X105.918Y-130.556
X153.67Y-65.532
X163.83Y-65.532
X108.204Y-81.28
X108.204Y-91.44
X109.22Y-138.43
X119.38Y-138.43
X76.2Y-38.354
X76.2Y-48.514
X153.67Y-68.58
X163.83Y-68.58
X105.156Y-154.686
X115.316Y-154.686
X85.598Y-104.902
X95.758Y-104.902
X157.56Y-72.136
X162.56Y-72.136
X105.156Y-157.734
X115.316Y-157.734
X134.62Y-108.244
X134.62Y-110.744
X115.824Y-125.476
X115.824Y-135.636
X159.512Y-106.68
X169.672Y-106.68
X96.52Y-73.66
X106.68Y-73.66
X114.046Y-47.07
X114.046Y-52.07
X131.826Y-60.452
X131.826Y-63.952
X161.584Y-100.076
X164.084Y-100.076
X89.234Y-40.132
X94.234Y-40.132
T4
X79.248Y-174.498
X86.868Y-174.498
X85.852Y-76.2
X93.472Y-76.2
X132.334Y-166.37
X139.954Y-166.37
X86.614Y-62.23
X94.234Y-62.23
X107.696Y-174.498
X115.316Y-174.498
X75.692Y-72.644
X83.312Y-72.644
X107.696Y-171.196
X115.316Y-171.196
X86.614Y-58.928
X94.234Y-58.928
X127.762Y-52.324
X135.382Y-52.324
X155.194Y-166.37
X162.814Y-166.37
X79.248Y-171.196
X86.868Y-171.196
X85.852Y-72.644
X93.472Y-72.644
X128.016Y-115.824
X128.016Y-123.444
X76.454Y-62.23
X84.074Y-62.23
X75.692Y-76.2
X83.312Y-76.2
X76.454Y-58.928
X84.074Y-58.928
T5
X57.19Y-178.95
X59.69Y-178.95
X62.19Y-178.95
X57.19Y-83.7
X59.69Y-83.7
X62.19Y-83.7
X57.19Y-159.9
X59.69Y-159.9
X62.19Y-159.9
X169.418Y-95.504
X169.418Y-98.044
X75.438Y-95.504
X75.438Y-98.044
X25.4Y-80.264
X25.4Y-82.804
X25.4Y-85.344
X25.4Y-87.884
X57.19Y-102.75
X59.69Y-102.75
X62.19Y-102.75
X25.146Y-52.324
X25.146Y-54.864
X75.438Y-52.324
X75.438Y-54.864
X119.126Y-95.504
X119.126Y-98.044
X68.834Y-148.59
X68.834Y-151.13
X68.834Y-153.67
X68.834Y-156.21
X68.834Y-158.75
X68.834Y-161.29
X45.72Y-30.226
X48.26Y-30.226
X93.472Y-170.18
X96.012Y-170.18
X98.552Y-170.18
X101.092Y-170.18
X25.146Y-148.59
X25.146Y-151.13
X25.146Y-153.67
X25.146Y-156.21
X25.146Y-158.75
X25.146Y-161.29
X119.126Y-75.946
X119.126Y-78.486
X119.126Y-81.026
X119.126Y-83.566
X119.126Y-86.106
X119.126Y-88.646
X68.834Y-75.946
X68.834Y-78.486
X68.834Y-81.026
X68.834Y-83.566
X68.834Y-86.106
X68.834Y-88.646
X43.18Y-170.18
X45.72Y-170.18
X48.26Y-170.18
X50.8Y-170.18
X96.012Y-30.226
X98.552Y-30.226
X143.764Y-166.37
X146.304Y-166.37
X148.844Y-166.37
X151.384Y-166.37
X57.19Y-121.8
X59.69Y-121.8
X62.19Y-121.8
X75.692Y-80.264
X75.692Y-82.804
X75.692Y-85.344
X75.692Y-87.884
X169.418Y-67.31
X169.418Y-69.85
X119.126Y-148.59
X119.126Y-151.13
X119.126Y-153.67
X119.126Y-156.21
X119.126Y-158.75
X119.126Y-161.29
X119.126Y-40.386
X119.126Y-42.926
X119.126Y-67.31
X119.126Y-69.85
X125.73Y-95.504
X125.73Y-98.044
X31.79Y-64.65
X34.29Y-64.65
X36.79Y-64.65
X31.79Y-159.9
X34.29Y-159.9
X36.79Y-159.9
X75.438Y-148.59
X75.438Y-151.13
X75.438Y-153.67
X75.438Y-156.21
X75.438Y-158.75
X75.438Y-161.29
X93.472Y-166.37
X96.012Y-166.37
X98.552Y-166.37
X101.092Y-166.37
X68.834Y-40.386
X68.834Y-42.926
X31.79Y-102.75
X34.29Y-102.75
X36.79Y-102.75
X31.79Y-178.95
X34.29Y-178.95
X36.79Y-178.95
T6
X127.0Y-159.766
X129.54Y-159.766
X132.08Y-159.766
T7
X153.67Y-176.53
X156.21Y-176.53
X158.75Y-176.53
X161.29Y-176.53
T8
X29.49Y-57.15
X39.09Y-57.15
X29.49Y-152.4
X39.09Y-152.4
X29.49Y-95.25
X39.09Y-95.25
X29.49Y-171.45
X39.09Y-171.45
X54.89Y-171.45
X64.49Y-171.45
X54.89Y-76.2
X64.49Y-76.2
X54.89Y-152.4
X64.49Y-152.4
X54.89Y-95.25
X64.49Y-95.25
X54.89Y-114.3
X64.49Y-114.3
T9
X46.99Y-138.175
X46.99Y-142.875
X46.99Y-147.575
X34.29Y-71.5
X34.29Y-76.2
X34.29Y-80.9
T10
X46.99Y-177.038
X97.282Y-177.038
X26.67Y-31.75
X147.574Y-177.038
X76.962Y-31.75
X127.254Y-31.75
T11
X34.29Y-114.3
X34.29Y-38.1
X59.69Y-38.1
X59.69Y-57.15
X59.69Y-133.35
X34.29Y-133.35
T12
X71.386Y-90.69
X71.386Y-91.44
X71.386Y-92.19
X72.886Y-90.69
X72.886Y-91.44
X72.886Y-92.19
X121.678Y-166.89
X121.678Y-167.64
X121.678Y-168.39
X123.178Y-166.89
X123.178Y-167.64
X123.178Y-168.39
X71.386Y-39.89
X71.386Y-40.64
X71.386Y-41.39
X72.886Y-39.89
X72.886Y-40.64
X72.886Y-41.39
X71.386Y-166.89
X71.386Y-167.64
X71.386Y-168.39
X72.886Y-166.89
X72.886Y-167.64
X72.886Y-168.39
X121.678Y-65.29
X121.678Y-66.04
X121.678Y-66.79
X123.178Y-65.29
X123.178Y-66.04
X123.178Y-66.79
X71.386Y-116.09
X71.386Y-116.84
X71.386Y-117.59
X72.886Y-116.09
X72.886Y-116.84
X72.886Y-117.59
X121.678Y-39.89
X121.678Y-40.64
X121.678Y-41.39
X123.178Y-39.89
X123.178Y-40.64
X123.178Y-41.39
X121.678Y-141.49
X121.678Y-142.24
X121.678Y-142.99
X123.178Y-141.49
X123.178Y-142.24
X123.178Y-142.99
X121.678Y-90.69
X121.678Y-91.44
X121.678Y-92.19
X123.178Y-90.69
X123.178Y-91.44
X123.178Y-92.19
X71.386Y-65.29
X71.386Y-66.04
X71.386Y-66.79
X72.886Y-65.29
X72.886Y-66.04
X72.886Y-66.79
X121.678Y-116.09
X121.678Y-116.84
X121.678Y-117.59
X123.178Y-116.09
X123.178Y-116.84
X123.178Y-117.59
X71.386Y-141.744
X71.386Y-142.494
X71.386Y-143.244
X72.886Y-141.744
X72.886Y-142.494
X72.886Y-143.244
T0
M30
