%TF.GenerationSoftware,KiCad,Pcbnew,(5.1.8-0-10_14)*%
%TF.CreationDate,2021-10-26T20:58:47+01:00*%
%TF.ProjectId,dual-digi-delay,6475616c-2d64-4696-9769-2d64656c6179,r01*%
%TF.SameCoordinates,Original*%
%TF.FileFunction,Soldermask,Bot*%
%TF.FilePolarity,Negative*%
%FSLAX46Y46*%
G04 Gerber Fmt 4.6, Leading zero omitted, Abs format (unit mm)*
G04 Created by KiCad (PCBNEW (5.1.8-0-10_14)) date 2021-10-26 20:58:47*
%MOMM*%
%LPD*%
G01*
G04 APERTURE LIST*
%ADD10C,0.500000*%
%ADD11C,6.400000*%
%ADD12O,1.700000X1.700000*%
%ADD13R,1.700000X1.700000*%
%ADD14O,1.600000X1.600000*%
%ADD15R,1.600000X1.600000*%
%ADD16C,1.600000*%
%ADD17O,1.800000X1.800000*%
%ADD18R,1.800000X1.800000*%
%ADD19O,1.740000X2.190000*%
%ADD20C,1.800000*%
%ADD21C,3.240000*%
%ADD22C,2.850000*%
%ADD23R,2.850000X2.850000*%
%ADD24C,6.500000*%
%ADD25O,1.905000X2.000000*%
%ADD26R,1.905000X2.000000*%
%ADD27R,1.050000X1.500000*%
%ADD28O,1.050000X1.500000*%
%ADD29R,1.500000X1.050000*%
%ADD30O,1.500000X1.050000*%
G04 APERTURE END LIST*
D10*
%TO.C,mouse-bite-2mm-slot*%
X72886000Y-39890000D03*
X72886000Y-41390000D03*
X71386000Y-41390000D03*
X71386000Y-39890000D03*
X72886000Y-40640000D03*
X71386000Y-40640000D03*
%TD*%
%TO.C,mouse-bite-2mm-slot*%
X72886000Y-166890000D03*
X72886000Y-168390000D03*
X71386000Y-168390000D03*
X71386000Y-166890000D03*
X72886000Y-167640000D03*
X71386000Y-167640000D03*
%TD*%
%TO.C,mouse-bite-2mm-slot*%
X123178000Y-166890000D03*
X123178000Y-168390000D03*
X121678000Y-168390000D03*
X121678000Y-166890000D03*
X123178000Y-167640000D03*
X121678000Y-167640000D03*
%TD*%
%TO.C,mouse-bite-2mm-slot*%
X72886000Y-141744000D03*
X72886000Y-143244000D03*
X71386000Y-143244000D03*
X71386000Y-141744000D03*
X72886000Y-142494000D03*
X71386000Y-142494000D03*
%TD*%
%TO.C,mouse-bite-2mm-slot*%
X123178000Y-141490000D03*
X123178000Y-142990000D03*
X121678000Y-142990000D03*
X121678000Y-141490000D03*
X123178000Y-142240000D03*
X121678000Y-142240000D03*
%TD*%
%TO.C,mouse-bite-2mm-slot*%
X72886000Y-116090000D03*
X72886000Y-117590000D03*
X71386000Y-117590000D03*
X71386000Y-116090000D03*
X72886000Y-116840000D03*
X71386000Y-116840000D03*
%TD*%
%TO.C,mouse-bite-2mm-slot*%
X123178000Y-116090000D03*
X123178000Y-117590000D03*
X121678000Y-117590000D03*
X121678000Y-116090000D03*
X123178000Y-116840000D03*
X121678000Y-116840000D03*
%TD*%
%TO.C,mouse-bite-2mm-slot*%
X123178000Y-90690000D03*
X123178000Y-92190000D03*
X121678000Y-92190000D03*
X121678000Y-90690000D03*
X123178000Y-91440000D03*
X121678000Y-91440000D03*
%TD*%
%TO.C,mouse-bite-2mm-slot*%
X72886000Y-90690000D03*
X72886000Y-92190000D03*
X71386000Y-92190000D03*
X71386000Y-90690000D03*
X72886000Y-91440000D03*
X71386000Y-91440000D03*
%TD*%
%TO.C,mouse-bite-2mm-slot*%
X72886000Y-65290000D03*
X72886000Y-66790000D03*
X71386000Y-66790000D03*
X71386000Y-65290000D03*
X72886000Y-66040000D03*
X71386000Y-66040000D03*
%TD*%
%TO.C,mouse-bite-2mm-slot*%
X123178000Y-39890000D03*
X123178000Y-41390000D03*
X121678000Y-41390000D03*
X121678000Y-39890000D03*
X123178000Y-40640000D03*
X121678000Y-40640000D03*
%TD*%
%TO.C,mouse-bite-2mm-slot*%
X123178000Y-65290000D03*
X123178000Y-66790000D03*
X121678000Y-66790000D03*
X121678000Y-65290000D03*
X123178000Y-66040000D03*
X121678000Y-66040000D03*
%TD*%
D11*
%TO.C,H6*%
X147574000Y-177038000D03*
%TD*%
%TO.C,H5*%
X127254000Y-31750000D03*
%TD*%
%TO.C,H4*%
X97282000Y-177038000D03*
%TD*%
%TO.C,H3*%
X76962000Y-31750000D03*
%TD*%
%TO.C,H2*%
X46990000Y-177038000D03*
%TD*%
%TO.C,H1*%
X26670000Y-31750000D03*
%TD*%
D12*
%TO.C,J6*%
X119126000Y-88646000D03*
X119126000Y-86106000D03*
X119126000Y-83566000D03*
X119126000Y-81026000D03*
X119126000Y-78486000D03*
D13*
X119126000Y-75946000D03*
%TD*%
D12*
%TO.C,J2*%
X68834000Y-88646000D03*
X68834000Y-86106000D03*
X68834000Y-83566000D03*
X68834000Y-81026000D03*
X68834000Y-78486000D03*
D13*
X68834000Y-75946000D03*
%TD*%
D12*
%TO.C,J39*%
X119126000Y-161290000D03*
X119126000Y-158750000D03*
X119126000Y-156210000D03*
X119126000Y-153670000D03*
X119126000Y-151130000D03*
D13*
X119126000Y-148590000D03*
%TD*%
D12*
%TO.C,J38*%
X68834000Y-161290000D03*
X68834000Y-158750000D03*
X68834000Y-156210000D03*
X68834000Y-153670000D03*
X68834000Y-151130000D03*
D13*
X68834000Y-148590000D03*
%TD*%
D12*
%TO.C,J12*%
X75438000Y-161290000D03*
X75438000Y-158750000D03*
X75438000Y-156210000D03*
X75438000Y-153670000D03*
X75438000Y-151130000D03*
D13*
X75438000Y-148590000D03*
%TD*%
D12*
%TO.C,J11*%
X25146000Y-161290000D03*
X25146000Y-158750000D03*
X25146000Y-156210000D03*
X25146000Y-153670000D03*
X25146000Y-151130000D03*
D13*
X25146000Y-148590000D03*
%TD*%
D14*
%TO.C,U6*%
X101092000Y-144526000D03*
X93472000Y-159766000D03*
X101092000Y-147066000D03*
X93472000Y-157226000D03*
X101092000Y-149606000D03*
X93472000Y-154686000D03*
X101092000Y-152146000D03*
X93472000Y-152146000D03*
X101092000Y-154686000D03*
X93472000Y-149606000D03*
X101092000Y-157226000D03*
X93472000Y-147066000D03*
X101092000Y-159766000D03*
D15*
X93472000Y-144526000D03*
%TD*%
D14*
%TO.C,R69*%
X79248000Y-147574000D03*
D16*
X89408000Y-147574000D03*
%TD*%
D14*
%TO.C,R68*%
X115316000Y-147574000D03*
D16*
X105156000Y-147574000D03*
%TD*%
D14*
%TO.C,R67*%
X115316000Y-177800000D03*
D16*
X105156000Y-177800000D03*
%TD*%
D14*
%TO.C,R66*%
X118364000Y-177800000D03*
D16*
X118364000Y-167640000D03*
%TD*%
D14*
%TO.C,R65*%
X79248000Y-177800000D03*
D16*
X89408000Y-177800000D03*
%TD*%
D14*
%TO.C,R64*%
X76200000Y-177800000D03*
D16*
X76200000Y-167640000D03*
%TD*%
D17*
%TO.C,D16*%
X107696000Y-174498000D03*
D18*
X115316000Y-174498000D03*
%TD*%
D17*
%TO.C,D15*%
X115316000Y-171196000D03*
D18*
X107696000Y-171196000D03*
%TD*%
D17*
%TO.C,D14*%
X86868000Y-174498000D03*
D18*
X79248000Y-174498000D03*
%TD*%
D17*
%TO.C,D13*%
X79248000Y-171196000D03*
D18*
X86868000Y-171196000D03*
%TD*%
D16*
%TO.C,C56*%
X105156000Y-161290000D03*
X110156000Y-161290000D03*
%TD*%
D13*
%TO.C,J33*%
X169418000Y-69850000D03*
D12*
X169418000Y-67310000D03*
%TD*%
%TO.C,J32*%
X169418000Y-95504000D03*
D13*
X169418000Y-98044000D03*
%TD*%
D12*
%TO.C,J13*%
X119126000Y-95504000D03*
D13*
X119126000Y-98044000D03*
%TD*%
D12*
%TO.C,J8*%
X119126000Y-67310000D03*
D13*
X119126000Y-69850000D03*
%TD*%
D14*
%TO.C,U8*%
X102616000Y-44450000D03*
X110236000Y-52070000D03*
X105156000Y-44450000D03*
X107696000Y-52070000D03*
X107696000Y-44450000D03*
X105156000Y-52070000D03*
X110236000Y-44450000D03*
D15*
X102616000Y-52070000D03*
%TD*%
D16*
%TO.C,C20*%
X169632000Y-60706000D03*
D15*
X167132000Y-60706000D03*
%TD*%
D14*
%TO.C,R63*%
X118872000Y-57912000D03*
D16*
X118872000Y-47752000D03*
%TD*%
D14*
%TO.C,R62*%
X115062000Y-44450000D03*
D16*
X115062000Y-34290000D03*
%TD*%
D13*
%TO.C,J31*%
X75438000Y-52324000D03*
D12*
X75438000Y-54864000D03*
%TD*%
%TO.C,J24*%
X96012000Y-30226000D03*
D13*
X98552000Y-30226000D03*
%TD*%
%TO.C,J16*%
X25146000Y-52324000D03*
D12*
X25146000Y-54864000D03*
%TD*%
%TO.C,J4*%
X45720000Y-30226000D03*
D13*
X48260000Y-30226000D03*
%TD*%
D12*
%TO.C,J23*%
X119126000Y-42926000D03*
D13*
X119126000Y-40386000D03*
%TD*%
D12*
%TO.C,J5*%
X68834000Y-42926000D03*
D13*
X68834000Y-40386000D03*
%TD*%
D19*
%TO.C,J15*%
X161290000Y-176530000D03*
X158750000Y-176530000D03*
X156210000Y-176530000D03*
G36*
G01*
X152800000Y-177375001D02*
X152800000Y-175684999D01*
G75*
G02*
X153049999Y-175435000I249999J0D01*
G01*
X154290001Y-175435000D01*
G75*
G02*
X154540000Y-175684999I0J-249999D01*
G01*
X154540000Y-177375001D01*
G75*
G02*
X154290001Y-177625000I-249999J0D01*
G01*
X153049999Y-177625000D01*
G75*
G02*
X152800000Y-177375001I0J249999D01*
G01*
G37*
%TD*%
D12*
%TO.C,J14*%
X151384000Y-166370000D03*
X148844000Y-166370000D03*
X146304000Y-166370000D03*
D13*
X143764000Y-166370000D03*
%TD*%
D12*
%TO.C,J9*%
X101092000Y-166370000D03*
X98552000Y-166370000D03*
X96012000Y-166370000D03*
D13*
X93472000Y-166370000D03*
%TD*%
%TO.C,J7*%
X75692000Y-80264000D03*
D12*
X75692000Y-82804000D03*
X75692000Y-85344000D03*
X75692000Y-87884000D03*
%TD*%
D13*
%TO.C,J3*%
X25400000Y-80264000D03*
D12*
X25400000Y-82804000D03*
X25400000Y-85344000D03*
X25400000Y-87884000D03*
%TD*%
D13*
%TO.C,J1*%
X43180000Y-170180000D03*
D12*
X45720000Y-170180000D03*
X48260000Y-170180000D03*
X50800000Y-170180000D03*
%TD*%
D14*
%TO.C,U2*%
X97028000Y-84836000D03*
X104648000Y-77216000D03*
X97028000Y-82296000D03*
X104648000Y-79756000D03*
X97028000Y-79756000D03*
X104648000Y-82296000D03*
X97028000Y-77216000D03*
D15*
X104648000Y-84836000D03*
%TD*%
D14*
%TO.C,U1*%
X91948000Y-52070000D03*
X84328000Y-44450000D03*
X89408000Y-52070000D03*
X86868000Y-44450000D03*
X86868000Y-52070000D03*
X89408000Y-44450000D03*
X84328000Y-52070000D03*
D15*
X91948000Y-44450000D03*
%TD*%
D14*
%TO.C,R12*%
X108204000Y-81280000D03*
D16*
X108204000Y-91440000D03*
%TD*%
D14*
%TO.C,R11*%
X96520000Y-73660000D03*
D16*
X106680000Y-73660000D03*
%TD*%
D14*
%TO.C,R10*%
X94996000Y-88392000D03*
D16*
X105156000Y-88392000D03*
%TD*%
D14*
%TO.C,R9*%
X75692000Y-69088000D03*
D16*
X85852000Y-69088000D03*
%TD*%
D14*
%TO.C,R8*%
X83312000Y-79756000D03*
D16*
X93472000Y-79756000D03*
%TD*%
D14*
%TO.C,R7*%
X82550000Y-29972000D03*
D16*
X92710000Y-29972000D03*
%TD*%
D14*
%TO.C,R6*%
X82550000Y-36068000D03*
D16*
X92710000Y-36068000D03*
%TD*%
D14*
%TO.C,R5*%
X82550000Y-33020000D03*
D16*
X92710000Y-33020000D03*
%TD*%
D14*
%TO.C,R4*%
X76200000Y-48514000D03*
D16*
X76200000Y-38354000D03*
%TD*%
D14*
%TO.C,R3*%
X84074000Y-55626000D03*
D16*
X94234000Y-55626000D03*
%TD*%
D14*
%TO.C,R2*%
X104902000Y-66040000D03*
D16*
X94742000Y-66040000D03*
%TD*%
D14*
%TO.C,R1*%
X104902000Y-69088000D03*
D16*
X94742000Y-69088000D03*
%TD*%
D17*
%TO.C,D8*%
X93472000Y-76200000D03*
D18*
X85852000Y-76200000D03*
%TD*%
D17*
%TO.C,D7*%
X85852000Y-72644000D03*
D18*
X93472000Y-72644000D03*
%TD*%
D17*
%TO.C,D6*%
X83312000Y-76200000D03*
D18*
X75692000Y-76200000D03*
%TD*%
D17*
%TO.C,D5*%
X75692000Y-72644000D03*
D18*
X83312000Y-72644000D03*
%TD*%
D17*
%TO.C,D4*%
X94234000Y-58928000D03*
D18*
X86614000Y-58928000D03*
%TD*%
D17*
%TO.C,D3*%
X84074000Y-58928000D03*
D18*
X76454000Y-58928000D03*
%TD*%
D17*
%TO.C,D2*%
X86614000Y-62230000D03*
D18*
X94234000Y-62230000D03*
%TD*%
D17*
%TO.C,D1*%
X76454000Y-62230000D03*
D18*
X84074000Y-62230000D03*
%TD*%
D16*
%TO.C,C5*%
X112696000Y-77216000D03*
X107696000Y-77216000D03*
%TD*%
%TO.C,C4*%
X93980000Y-84836000D03*
X88980000Y-84836000D03*
%TD*%
%TO.C,C3*%
X86360000Y-40132000D03*
X81360000Y-40132000D03*
%TD*%
%TO.C,C2*%
X95758000Y-52244000D03*
X95758000Y-47244000D03*
%TD*%
%TO.C,C1*%
X89234000Y-40132000D03*
X94234000Y-40132000D03*
%TD*%
D12*
%TO.C,J10*%
X125730000Y-95504000D03*
D13*
X125730000Y-98044000D03*
%TD*%
D18*
%TO.C,WET2_LEVEL1*%
X57190001Y-102750000D03*
D20*
X59690001Y-102750000D03*
X62190001Y-102750000D03*
D21*
X64490001Y-95250000D03*
X54890001Y-95250000D03*
%TD*%
D18*
%TO.C,WET1_LEVEL1*%
X57190001Y-83700000D03*
D20*
X59690001Y-83700000D03*
X62190001Y-83700000D03*
D21*
X64490001Y-76200000D03*
X54890001Y-76200000D03*
%TD*%
D22*
%TO.C,SW2*%
X34290000Y-80900000D03*
X34290000Y-76200000D03*
D23*
X34290000Y-71500000D03*
%TD*%
D24*
%TO.C,J30*%
X59690000Y-57150000D03*
D16*
X62738000Y-54102000D03*
%TD*%
D24*
%TO.C,J29*%
X59690001Y-38100000D03*
D16*
X62738001Y-35052000D03*
%TD*%
D24*
%TO.C,J28*%
X34290000Y-38100000D03*
D16*
X37338000Y-35052000D03*
%TD*%
D24*
%TO.C,J27*%
X34290000Y-114300000D03*
D16*
X37338000Y-111252000D03*
%TD*%
D18*
%TO.C,INPUT_GAIN1*%
X31790000Y-102750000D03*
D20*
X34290000Y-102750000D03*
X36790000Y-102750000D03*
D21*
X39090000Y-95250000D03*
X29490000Y-95250000D03*
%TD*%
D18*
%TO.C,FEEDBACK1*%
X31790000Y-64650000D03*
D20*
X34290000Y-64650000D03*
X36790000Y-64650000D03*
D21*
X39090000Y-57150000D03*
X29490000Y-57150000D03*
%TD*%
D18*
%TO.C,DRY_LEVEL1*%
X57190001Y-121800001D03*
D20*
X59690001Y-121800001D03*
X62190001Y-121800001D03*
D21*
X64490001Y-114300001D03*
X54890001Y-114300001D03*
%TD*%
D14*
%TO.C,R59*%
X102108000Y-59436000D03*
D16*
X112268000Y-59436000D03*
%TD*%
D14*
%TO.C,R58*%
X102108000Y-62484000D03*
D16*
X112268000Y-62484000D03*
%TD*%
D14*
%TO.C,R57*%
X112268000Y-37084000D03*
D16*
X102108000Y-37084000D03*
%TD*%
D14*
%TO.C,R56*%
X112268000Y-34036000D03*
D16*
X102108000Y-34036000D03*
%TD*%
%TO.C,C55*%
X107616000Y-55880000D03*
X102616000Y-55880000D03*
%TD*%
%TO.C,C54*%
X114046000Y-52070000D03*
X114046000Y-47070000D03*
%TD*%
%TO.C,C53*%
X98806000Y-44370000D03*
X98806000Y-39370000D03*
%TD*%
%TO.C,C52*%
X107696000Y-40640000D03*
X102696000Y-40640000D03*
%TD*%
D25*
%TO.C,U7*%
X127000000Y-159766000D03*
X129540000Y-159766000D03*
D26*
X132080000Y-159766000D03*
%TD*%
D14*
%TO.C,U5*%
X101092000Y-115316000D03*
X93472000Y-130556000D03*
X101092000Y-117856000D03*
X93472000Y-128016000D03*
X101092000Y-120396000D03*
X93472000Y-125476000D03*
X101092000Y-122936000D03*
X93472000Y-122936000D03*
X101092000Y-125476000D03*
X93472000Y-120396000D03*
X101092000Y-128016000D03*
X93472000Y-117856000D03*
X101092000Y-130556000D03*
D15*
X93472000Y-115316000D03*
%TD*%
D23*
%TO.C,SW1*%
X46990001Y-147575000D03*
D22*
X46990001Y-142875000D03*
X46990001Y-138175000D03*
%TD*%
D14*
%TO.C,R55*%
X89154000Y-100330000D03*
D16*
X78994000Y-100330000D03*
%TD*%
D14*
%TO.C,R54*%
X102362000Y-100330000D03*
D16*
X92202000Y-100330000D03*
%TD*%
D14*
%TO.C,R53*%
X89916000Y-114300000D03*
D16*
X79756000Y-114300000D03*
%TD*%
D14*
%TO.C,R52*%
X85598000Y-104902000D03*
D16*
X95758000Y-104902000D03*
%TD*%
D14*
%TO.C,R51*%
X104648000Y-114300000D03*
D16*
X114808000Y-114300000D03*
%TD*%
D14*
%TO.C,R50*%
X105918000Y-111252000D03*
D16*
X95758000Y-111252000D03*
%TD*%
D14*
%TO.C,R49*%
X81788000Y-125476000D03*
D16*
X81788000Y-135636000D03*
%TD*%
D14*
%TO.C,R48*%
X112776000Y-125476000D03*
D16*
X112776000Y-135636000D03*
%TD*%
D14*
%TO.C,R47*%
X78740000Y-135636000D03*
D16*
X78740000Y-125476000D03*
%TD*%
D14*
%TO.C,R46*%
X115824000Y-135636000D03*
D16*
X115824000Y-125476000D03*
%TD*%
D14*
%TO.C,R45*%
X84836000Y-135636000D03*
D16*
X84836000Y-125476000D03*
%TD*%
D14*
%TO.C,R44*%
X92202000Y-135128000D03*
D16*
X102362000Y-135128000D03*
%TD*%
D14*
%TO.C,R43*%
X105156000Y-141478000D03*
D16*
X115316000Y-141478000D03*
%TD*%
D14*
%TO.C,R42*%
X109728000Y-135636000D03*
D16*
X109728000Y-125476000D03*
%TD*%
D14*
%TO.C,R41*%
X85344000Y-138430000D03*
D16*
X75184000Y-138430000D03*
%TD*%
D14*
%TO.C,R40*%
X109220000Y-138430000D03*
D16*
X119380000Y-138430000D03*
%TD*%
D14*
%TO.C,R39*%
X95758000Y-107950000D03*
D16*
X85598000Y-107950000D03*
%TD*%
%TO.C,R38*%
X105156000Y-154686000D03*
D14*
X115316000Y-154686000D03*
%TD*%
%TO.C,R37*%
X89408000Y-141478000D03*
D16*
X79248000Y-141478000D03*
%TD*%
D14*
%TO.C,R36*%
X115316000Y-144526000D03*
D16*
X105156000Y-144526000D03*
%TD*%
D14*
%TO.C,R35*%
X79248000Y-144526000D03*
D16*
X89408000Y-144526000D03*
%TD*%
D14*
%TO.C,R34*%
X89408000Y-157734000D03*
D16*
X79248000Y-157734000D03*
%TD*%
D14*
%TO.C,R33*%
X115316000Y-157734000D03*
D16*
X105156000Y-157734000D03*
%TD*%
D14*
%TO.C,R32*%
X105156000Y-167894000D03*
D16*
X115316000Y-167894000D03*
%TD*%
D14*
%TO.C,R31*%
X105156000Y-164846000D03*
D16*
X115316000Y-164846000D03*
%TD*%
D14*
%TO.C,R30*%
X79248000Y-167640000D03*
D16*
X89408000Y-167640000D03*
%TD*%
D14*
%TO.C,R29*%
X79248000Y-154686000D03*
D16*
X89408000Y-154686000D03*
%TD*%
D27*
%TO.C,Q6*%
X76962000Y-104902000D03*
D28*
X79502000Y-104902000D03*
X78232000Y-104902000D03*
%TD*%
D27*
%TO.C,Q5*%
X117602000Y-104394000D03*
D28*
X115062000Y-104394000D03*
X116332000Y-104394000D03*
%TD*%
D27*
%TO.C,Q4*%
X76962000Y-109982000D03*
D28*
X79502000Y-109982000D03*
X78232000Y-109982000D03*
%TD*%
D27*
%TO.C,Q3*%
X117602000Y-109220000D03*
D28*
X115062000Y-109220000D03*
X116332000Y-109220000D03*
%TD*%
D12*
%TO.C,J21*%
X75438000Y-95504000D03*
D13*
X75438000Y-98044000D03*
%TD*%
D12*
%TO.C,J20*%
X101092000Y-170180000D03*
X98552000Y-170180000D03*
X96012000Y-170180000D03*
D13*
X93472000Y-170180000D03*
%TD*%
D24*
%TO.C,J26*%
X34290000Y-133350000D03*
D16*
X37338000Y-130302000D03*
%TD*%
D24*
%TO.C,J25*%
X59690001Y-133350000D03*
D16*
X62738001Y-130302000D03*
%TD*%
D18*
%TO.C,DELAY2_TIME1*%
X57190000Y-178950000D03*
D20*
X59690000Y-178950000D03*
X62190000Y-178950000D03*
D21*
X64490000Y-171450000D03*
X54890000Y-171450000D03*
%TD*%
D18*
%TO.C,DELAY2_CV_ATTV1*%
X57190001Y-159900001D03*
D20*
X59690001Y-159900001D03*
X62190001Y-159900001D03*
D21*
X64490001Y-152400001D03*
X54890001Y-152400001D03*
%TD*%
D18*
%TO.C,DELAY1_TIME1*%
X31790000Y-178950000D03*
D20*
X34290000Y-178950000D03*
X36790000Y-178950000D03*
D21*
X39090000Y-171450000D03*
X29490000Y-171450000D03*
%TD*%
D18*
%TO.C,DELAY1_CV_ATTV1*%
X31790000Y-159900001D03*
D20*
X34290000Y-159900001D03*
X36790000Y-159900001D03*
D21*
X39090000Y-152400001D03*
X29490000Y-152400001D03*
%TD*%
D17*
%TO.C,D12*%
X155194000Y-166370000D03*
D18*
X162814000Y-166370000D03*
%TD*%
D17*
%TO.C,D11*%
X132334000Y-166370000D03*
D18*
X139954000Y-166370000D03*
%TD*%
D16*
%TO.C,C51*%
X127000000Y-147828000D03*
X127000000Y-142828000D03*
%TD*%
%TO.C,C50*%
X134366000Y-145328000D03*
D15*
X134366000Y-147828000D03*
%TD*%
D16*
%TO.C,C49*%
X137414000Y-161290000D03*
X137414000Y-156290000D03*
%TD*%
%TO.C,C48*%
X157988000Y-161758000D03*
D15*
X157988000Y-159258000D03*
%TD*%
D16*
%TO.C,C47*%
X143002000Y-158790000D03*
D15*
X143002000Y-161290000D03*
%TD*%
D16*
%TO.C,C46*%
X84662000Y-117856000D03*
X89662000Y-117856000D03*
%TD*%
%TO.C,C45*%
X109902000Y-117856000D03*
X104902000Y-117856000D03*
%TD*%
%TO.C,C44*%
X88646000Y-125556000D03*
X88646000Y-130556000D03*
%TD*%
%TO.C,C43*%
X105918000Y-125556000D03*
X105918000Y-130556000D03*
%TD*%
%TO.C,C42*%
X88646000Y-138430000D03*
X88646000Y-133430000D03*
%TD*%
%TO.C,C41*%
X105918000Y-138430000D03*
X105918000Y-133430000D03*
%TD*%
%TO.C,C40*%
X89408000Y-161290000D03*
X84408000Y-161290000D03*
%TD*%
%TO.C,C39*%
X109902000Y-121920000D03*
X104902000Y-121920000D03*
%TD*%
%TO.C,C38*%
X89662000Y-121920000D03*
X84662000Y-121920000D03*
%TD*%
%TO.C,C37*%
X110156000Y-151130000D03*
X105156000Y-151130000D03*
%TD*%
%TO.C,C36*%
X89408000Y-151130000D03*
X84408000Y-151130000D03*
%TD*%
D15*
%TO.C,U4*%
X144272000Y-120396000D03*
D14*
X151892000Y-138176000D03*
X144272000Y-122936000D03*
X151892000Y-135636000D03*
X144272000Y-125476000D03*
X151892000Y-133096000D03*
X144272000Y-128016000D03*
X151892000Y-130556000D03*
X144272000Y-130556000D03*
X151892000Y-128016000D03*
X144272000Y-133096000D03*
X151892000Y-125476000D03*
X144272000Y-135636000D03*
X151892000Y-122936000D03*
X144272000Y-138176000D03*
X151892000Y-120396000D03*
%TD*%
D15*
%TO.C,U3*%
X138430000Y-58420000D03*
D14*
X146050000Y-76200000D03*
X138430000Y-60960000D03*
X146050000Y-73660000D03*
X138430000Y-63500000D03*
X146050000Y-71120000D03*
X138430000Y-66040000D03*
X146050000Y-68580000D03*
X138430000Y-68580000D03*
X146050000Y-66040000D03*
X138430000Y-71120000D03*
X146050000Y-63500000D03*
X138430000Y-73660000D03*
X146050000Y-60960000D03*
X138430000Y-76200000D03*
X146050000Y-58420000D03*
%TD*%
%TO.C,R28*%
X159512000Y-121412000D03*
D16*
X169672000Y-121412000D03*
%TD*%
D14*
%TO.C,R27*%
X159512000Y-124460000D03*
D16*
X169672000Y-124460000D03*
%TD*%
D14*
%TO.C,R26*%
X159512000Y-127508000D03*
D16*
X169672000Y-127508000D03*
%TD*%
D14*
%TO.C,R25*%
X159512000Y-130556000D03*
D16*
X169672000Y-130556000D03*
%TD*%
D14*
%TO.C,R24*%
X159512000Y-106680000D03*
D16*
X169672000Y-106680000D03*
%TD*%
D14*
%TO.C,R23*%
X159512000Y-118364000D03*
D16*
X169672000Y-118364000D03*
%TD*%
D14*
%TO.C,R22*%
X159512000Y-115316000D03*
D16*
X169672000Y-115316000D03*
%TD*%
D14*
%TO.C,R21*%
X131572000Y-125476000D03*
D16*
X131572000Y-115316000D03*
%TD*%
D14*
%TO.C,R20*%
X153670000Y-59436000D03*
D16*
X163830000Y-59436000D03*
%TD*%
D14*
%TO.C,R19*%
X153670000Y-62484000D03*
D16*
X163830000Y-62484000D03*
%TD*%
D14*
%TO.C,R18*%
X153670000Y-65532000D03*
D16*
X163830000Y-65532000D03*
%TD*%
D14*
%TO.C,R17*%
X153670000Y-68580000D03*
D16*
X163830000Y-68580000D03*
%TD*%
D14*
%TO.C,R16*%
X167894000Y-80010000D03*
D16*
X157734000Y-80010000D03*
%TD*%
D14*
%TO.C,R15*%
X153670000Y-56388000D03*
D16*
X163830000Y-56388000D03*
%TD*%
D14*
%TO.C,R14*%
X153670000Y-53340000D03*
D16*
X163830000Y-53340000D03*
%TD*%
D14*
%TO.C,R13*%
X125222000Y-55880000D03*
D16*
X135382000Y-55880000D03*
%TD*%
D29*
%TO.C,Q2*%
X139192000Y-130048000D03*
D30*
X139192000Y-132588000D03*
X139192000Y-131318000D03*
%TD*%
D27*
%TO.C,Q1*%
X131826000Y-71120000D03*
D28*
X134366000Y-71120000D03*
X133096000Y-71120000D03*
%TD*%
D17*
%TO.C,D10*%
X128016000Y-123444000D03*
D18*
X128016000Y-115824000D03*
%TD*%
D17*
%TO.C,D9*%
X127762000Y-52324000D03*
D18*
X135382000Y-52324000D03*
%TD*%
D16*
%TO.C,C35*%
X155194000Y-89194000D03*
D15*
X155194000Y-91694000D03*
%TD*%
D16*
%TO.C,C34*%
X162052000Y-111760000D03*
X157052000Y-111760000D03*
%TD*%
%TO.C,C33*%
X169672000Y-134112000D03*
X164672000Y-134112000D03*
%TD*%
%TO.C,C32*%
X169672000Y-111760000D03*
X164672000Y-111760000D03*
%TD*%
%TO.C,C31*%
X155956000Y-130556000D03*
X155956000Y-125556000D03*
%TD*%
%TO.C,C30*%
X160448000Y-134112000D03*
X155448000Y-134112000D03*
%TD*%
%TO.C,C29*%
X161584000Y-100076000D03*
D15*
X164084000Y-100076000D03*
%TD*%
D16*
%TO.C,C28*%
X155956000Y-117936000D03*
X155956000Y-122936000D03*
%TD*%
%TO.C,C27*%
X160448000Y-138176000D03*
X155448000Y-138176000D03*
%TD*%
%TO.C,C26*%
X141224000Y-140716000D03*
X136224000Y-140716000D03*
%TD*%
%TO.C,C25*%
X137668000Y-123896000D03*
D15*
X137668000Y-120396000D03*
%TD*%
D16*
%TO.C,C24*%
X141224000Y-136652000D03*
X136224000Y-136652000D03*
%TD*%
%TO.C,C23*%
X134620000Y-108244000D03*
D15*
X134620000Y-110744000D03*
%TD*%
D16*
%TO.C,C22*%
X134700000Y-115316000D03*
X139700000Y-115316000D03*
%TD*%
%TO.C,C21*%
X132588000Y-138096000D03*
X132588000Y-133096000D03*
%TD*%
%TO.C,C19*%
X155274000Y-49784000D03*
X160274000Y-49784000D03*
%TD*%
%TO.C,C18*%
X162560000Y-72136000D03*
X157560000Y-72136000D03*
%TD*%
%TO.C,C17*%
X162560000Y-76454000D03*
X157560000Y-76454000D03*
%TD*%
%TO.C,C16*%
X150114000Y-68072000D03*
X150114000Y-63072000D03*
%TD*%
%TO.C,C15*%
X154606000Y-72136000D03*
X149606000Y-72136000D03*
%TD*%
%TO.C,C14*%
X161838000Y-89662000D03*
D15*
X164338000Y-89662000D03*
%TD*%
D16*
%TO.C,C13*%
X150114000Y-54944000D03*
X150114000Y-59944000D03*
%TD*%
%TO.C,C12*%
X154606000Y-76200000D03*
X149606000Y-76200000D03*
%TD*%
%TO.C,C11*%
X135382000Y-80264000D03*
X130382000Y-80264000D03*
%TD*%
%TO.C,C10*%
X131826000Y-63952000D03*
D15*
X131826000Y-60452000D03*
%TD*%
D16*
%TO.C,C9*%
X135382000Y-76200000D03*
X130382000Y-76200000D03*
%TD*%
%TO.C,C8*%
X140930000Y-48260000D03*
D15*
X138430000Y-48260000D03*
%TD*%
D16*
%TO.C,C7*%
X138430000Y-54356000D03*
X143430000Y-54356000D03*
%TD*%
%TO.C,C6*%
X126746000Y-73580000D03*
X126746000Y-68580000D03*
%TD*%
M02*
