%TF.GenerationSoftware,KiCad,Pcbnew,(5.1.8-0-10_14)*%
%TF.CreationDate,2021-12-18T09:25:16+00:00*%
%TF.ProjectId,dual-digi-delay,6475616c-2d64-4696-9769-2d64656c6179,r02*%
%TF.SameCoordinates,Original*%
%TF.FileFunction,Soldermask,Bot*%
%TF.FilePolarity,Negative*%
%FSLAX46Y46*%
G04 Gerber Fmt 4.6, Leading zero omitted, Abs format (unit mm)*
G04 Created by KiCad (PCBNEW (5.1.8-0-10_14)) date 2021-12-18 09:25:16*
%MOMM*%
%LPD*%
G01*
G04 APERTURE LIST*
%ADD10O,1.700000X1.700000*%
%ADD11R,1.700000X1.700000*%
%ADD12C,1.600000*%
%ADD13R,1.600000X1.600000*%
%ADD14O,1.905000X2.000000*%
%ADD15R,1.905000X2.000000*%
%ADD16O,3.500000X3.500000*%
%ADD17R,1.500000X1.500000*%
%ADD18C,1.500000*%
%ADD19C,0.500000*%
%ADD20O,1.600000X1.600000*%
%ADD21C,6.400000*%
%ADD22O,1.800000X1.800000*%
%ADD23R,1.800000X1.800000*%
%ADD24O,1.740000X2.190000*%
%ADD25C,1.800000*%
%ADD26C,3.240000*%
%ADD27C,2.850000*%
%ADD28R,2.850000X2.850000*%
%ADD29C,6.500000*%
G04 APERTURE END LIST*
D10*
%TO.C,J18*%
X97917000Y-81407000D03*
X97917000Y-78867000D03*
D11*
X97917000Y-76327000D03*
%TD*%
D10*
%TO.C,J17*%
X119126000Y-82931000D03*
X119126000Y-80391000D03*
X119126000Y-77851000D03*
D11*
X119126000Y-75311000D03*
%TD*%
D10*
%TO.C,J6*%
X47625000Y-81407000D03*
X47625000Y-78867000D03*
D11*
X47625000Y-76327000D03*
%TD*%
D10*
%TO.C,J2*%
X68834000Y-82931000D03*
X68834000Y-80391000D03*
X68834000Y-77851000D03*
D11*
X68834000Y-75311000D03*
%TD*%
D12*
%TO.C,C29*%
X141478000Y-114046000D03*
D13*
X141478000Y-111546000D03*
%TD*%
D12*
%TO.C,C23*%
X136779000Y-117896000D03*
D13*
X136779000Y-120396000D03*
%TD*%
D12*
%TO.C,C14*%
X156337000Y-70779000D03*
D13*
X156337000Y-73279000D03*
%TD*%
D12*
%TO.C,C8*%
X140081000Y-35600000D03*
D13*
X140081000Y-38100000D03*
%TD*%
D14*
%TO.C,U7*%
X127889000Y-158369000D03*
X130429000Y-158369000D03*
D15*
X132969000Y-158369000D03*
D16*
X130429000Y-175029000D03*
%TD*%
D17*
%TO.C,Q6*%
X77089000Y-117094000D03*
D18*
X77089000Y-112014000D03*
X77089000Y-114554000D03*
%TD*%
D17*
%TO.C,Q5*%
X115062000Y-113411000D03*
D18*
X109982000Y-113411000D03*
X112522000Y-113411000D03*
%TD*%
D17*
%TO.C,Q4*%
X76073000Y-123571000D03*
D18*
X81153000Y-123571000D03*
X78613000Y-123571000D03*
%TD*%
D17*
%TO.C,Q3*%
X118364000Y-123698000D03*
D18*
X113284000Y-123698000D03*
X115824000Y-123698000D03*
%TD*%
D17*
%TO.C,Q2*%
X128524000Y-138430000D03*
D18*
X133604000Y-138430000D03*
X131064000Y-138430000D03*
%TD*%
D17*
%TO.C,Q1*%
X131191000Y-58547000D03*
D18*
X136271000Y-58547000D03*
X133731000Y-58547000D03*
%TD*%
D19*
%TO.C,H18*%
X123178000Y-141490000D03*
X123178000Y-142990000D03*
X121678000Y-142990000D03*
X121678000Y-141490000D03*
X123178000Y-142240000D03*
X121678000Y-142240000D03*
%TD*%
%TO.C,H17*%
X72886000Y-65290000D03*
X72886000Y-66790000D03*
X71386000Y-66790000D03*
X71386000Y-65290000D03*
X72886000Y-66040000D03*
X71386000Y-66040000D03*
%TD*%
%TO.C,H16*%
X123178000Y-65290000D03*
X123178000Y-66790000D03*
X121678000Y-66790000D03*
X121678000Y-65290000D03*
X123178000Y-66040000D03*
X121678000Y-66040000D03*
%TD*%
%TO.C,H15*%
X123178000Y-166890000D03*
X123178000Y-168390000D03*
X121678000Y-168390000D03*
X121678000Y-166890000D03*
X123178000Y-167640000D03*
X121678000Y-167640000D03*
%TD*%
%TO.C,H14*%
X72886000Y-116090000D03*
X72886000Y-117590000D03*
X71386000Y-117590000D03*
X71386000Y-116090000D03*
X72886000Y-116840000D03*
X71386000Y-116840000D03*
%TD*%
%TO.C,H13*%
X72886000Y-39890000D03*
X72886000Y-41390000D03*
X71386000Y-41390000D03*
X71386000Y-39890000D03*
X72886000Y-40640000D03*
X71386000Y-40640000D03*
%TD*%
%TO.C,H12*%
X123178000Y-39890000D03*
X123178000Y-41390000D03*
X121678000Y-41390000D03*
X121678000Y-39890000D03*
X123178000Y-40640000D03*
X121678000Y-40640000D03*
%TD*%
%TO.C,H11*%
X72886000Y-90690000D03*
X72886000Y-92190000D03*
X71386000Y-92190000D03*
X71386000Y-90690000D03*
X72886000Y-91440000D03*
X71386000Y-91440000D03*
%TD*%
%TO.C,H10*%
X72886000Y-141744000D03*
X72886000Y-143244000D03*
X71386000Y-143244000D03*
X71386000Y-141744000D03*
X72886000Y-142494000D03*
X71386000Y-142494000D03*
%TD*%
%TO.C,H9*%
X123178000Y-116090000D03*
X123178000Y-117590000D03*
X121678000Y-117590000D03*
X121678000Y-116090000D03*
X123178000Y-116840000D03*
X121678000Y-116840000D03*
%TD*%
%TO.C,H8*%
X123178000Y-90690000D03*
X123178000Y-92190000D03*
X121678000Y-92190000D03*
X121678000Y-90690000D03*
X123178000Y-91440000D03*
X121678000Y-91440000D03*
%TD*%
%TO.C,H7*%
X72886000Y-166890000D03*
X72886000Y-168390000D03*
X71386000Y-168390000D03*
X71386000Y-166890000D03*
X72886000Y-167640000D03*
X71386000Y-167640000D03*
%TD*%
D20*
%TO.C,U9*%
X154559000Y-86741000D03*
X162179000Y-94361000D03*
X157099000Y-86741000D03*
X159639000Y-94361000D03*
X159639000Y-86741000D03*
X157099000Y-94361000D03*
X162179000Y-86741000D03*
D13*
X154559000Y-94361000D03*
%TD*%
D20*
%TO.C,R61*%
X152273000Y-101727000D03*
D12*
X162433000Y-101727000D03*
%TD*%
D20*
%TO.C,R60*%
X152019000Y-83566000D03*
D12*
X162179000Y-83566000D03*
%TD*%
%TO.C,C61*%
X157179000Y-98044000D03*
X162179000Y-98044000D03*
%TD*%
%TO.C,C60*%
X150622000Y-89535000D03*
X150622000Y-94535000D03*
%TD*%
%TO.C,C59*%
X81454000Y-59309000D03*
X76454000Y-59309000D03*
%TD*%
%TO.C,C58*%
X105410000Y-100838000D03*
X110410000Y-100838000D03*
%TD*%
%TO.C,C57*%
X90805000Y-94361000D03*
X90805000Y-89361000D03*
%TD*%
D21*
%TO.C,H6*%
X147574000Y-177038000D03*
%TD*%
%TO.C,H5*%
X127254000Y-31750000D03*
%TD*%
%TO.C,H4*%
X97282000Y-177038000D03*
%TD*%
%TO.C,H3*%
X76962000Y-31750000D03*
%TD*%
%TO.C,H2*%
X46990000Y-177038000D03*
%TD*%
%TO.C,H1*%
X26670000Y-31750000D03*
%TD*%
D10*
%TO.C,J39*%
X119126000Y-161290000D03*
X119126000Y-158750000D03*
X119126000Y-156210000D03*
X119126000Y-153670000D03*
X119126000Y-151130000D03*
D11*
X119126000Y-148590000D03*
%TD*%
D10*
%TO.C,J38*%
X68834000Y-161290000D03*
X68834000Y-158750000D03*
X68834000Y-156210000D03*
X68834000Y-153670000D03*
X68834000Y-151130000D03*
D11*
X68834000Y-148590000D03*
%TD*%
D10*
%TO.C,J12*%
X75438000Y-161290000D03*
X75438000Y-158750000D03*
X75438000Y-156210000D03*
X75438000Y-153670000D03*
X75438000Y-151130000D03*
D11*
X75438000Y-148590000D03*
%TD*%
D10*
%TO.C,J11*%
X25146000Y-161290000D03*
X25146000Y-158750000D03*
X25146000Y-156210000D03*
X25146000Y-153670000D03*
X25146000Y-151130000D03*
D11*
X25146000Y-148590000D03*
%TD*%
D20*
%TO.C,U6*%
X101092000Y-146558000D03*
X93472000Y-161798000D03*
X101092000Y-149098000D03*
X93472000Y-159258000D03*
X101092000Y-151638000D03*
X93472000Y-156718000D03*
X101092000Y-154178000D03*
X93472000Y-154178000D03*
X101092000Y-156718000D03*
X93472000Y-151638000D03*
X101092000Y-159258000D03*
X93472000Y-149098000D03*
X101092000Y-161798000D03*
D13*
X93472000Y-146558000D03*
%TD*%
D20*
%TO.C,R69*%
X79248000Y-150114000D03*
D12*
X89408000Y-150114000D03*
%TD*%
D20*
%TO.C,R68*%
X115316000Y-150495000D03*
D12*
X105156000Y-150495000D03*
%TD*%
D20*
%TO.C,R67*%
X115316000Y-177800000D03*
D12*
X105156000Y-177800000D03*
%TD*%
D20*
%TO.C,R66*%
X118364000Y-177800000D03*
D12*
X118364000Y-167640000D03*
%TD*%
D20*
%TO.C,R65*%
X79248000Y-177800000D03*
D12*
X89408000Y-177800000D03*
%TD*%
D20*
%TO.C,R64*%
X76200000Y-177800000D03*
D12*
X76200000Y-167640000D03*
%TD*%
D22*
%TO.C,D16*%
X107696000Y-174498000D03*
D23*
X115316000Y-174498000D03*
%TD*%
D22*
%TO.C,D15*%
X115316000Y-171196000D03*
D23*
X107696000Y-171196000D03*
%TD*%
D22*
%TO.C,D14*%
X86868000Y-174498000D03*
D23*
X79248000Y-174498000D03*
%TD*%
D22*
%TO.C,D13*%
X79248000Y-171196000D03*
D23*
X86868000Y-171196000D03*
%TD*%
D12*
%TO.C,C56*%
X105156000Y-164338000D03*
X110156000Y-164338000D03*
%TD*%
D11*
%TO.C,J33*%
X162052000Y-79756000D03*
D10*
X159512000Y-79756000D03*
%TD*%
%TO.C,J32*%
X153162000Y-79756000D03*
D11*
X155702000Y-79756000D03*
%TD*%
D10*
%TO.C,J13*%
X102870000Y-79756000D03*
D11*
X105410000Y-79756000D03*
%TD*%
D10*
%TO.C,J8*%
X109220000Y-79756000D03*
D11*
X111760000Y-79756000D03*
%TD*%
D20*
%TO.C,U8*%
X102616000Y-44450000D03*
X110236000Y-52070000D03*
X105156000Y-44450000D03*
X107696000Y-52070000D03*
X107696000Y-44450000D03*
X105156000Y-52070000D03*
X110236000Y-44450000D03*
D13*
X102616000Y-52070000D03*
%TD*%
D12*
%TO.C,C20*%
X166029000Y-77089000D03*
D13*
X168529000Y-77089000D03*
%TD*%
D20*
%TO.C,R63*%
X118872000Y-57912000D03*
D12*
X118872000Y-47752000D03*
%TD*%
D20*
%TO.C,R62*%
X115062000Y-44450000D03*
D12*
X115062000Y-34290000D03*
%TD*%
D11*
%TO.C,J31*%
X75438000Y-52324000D03*
D10*
X75438000Y-54864000D03*
%TD*%
%TO.C,J24*%
X96012000Y-30226000D03*
D11*
X98552000Y-30226000D03*
%TD*%
%TO.C,J16*%
X25146000Y-52324000D03*
D10*
X25146000Y-54864000D03*
%TD*%
%TO.C,J4*%
X45720000Y-30226000D03*
D11*
X48260000Y-30226000D03*
%TD*%
D10*
%TO.C,J23*%
X119126000Y-42926000D03*
D11*
X119126000Y-40386000D03*
%TD*%
D10*
%TO.C,J5*%
X68834000Y-42926000D03*
D11*
X68834000Y-40386000D03*
%TD*%
D24*
%TO.C,J15*%
X162560000Y-174625000D03*
X160020000Y-174625000D03*
X157480000Y-174625000D03*
G36*
G01*
X154070000Y-175470001D02*
X154070000Y-173779999D01*
G75*
G02*
X154319999Y-173530000I249999J0D01*
G01*
X155560001Y-173530000D01*
G75*
G02*
X155810000Y-173779999I0J-249999D01*
G01*
X155810000Y-175470001D01*
G75*
G02*
X155560001Y-175720000I-249999J0D01*
G01*
X154319999Y-175720000D01*
G75*
G02*
X154070000Y-175470001I0J249999D01*
G01*
G37*
%TD*%
D10*
%TO.C,J14*%
X151384000Y-166370000D03*
X148844000Y-166370000D03*
X146304000Y-166370000D03*
D11*
X143764000Y-166370000D03*
%TD*%
D10*
%TO.C,J9*%
X101092000Y-166370000D03*
X98552000Y-166370000D03*
X96012000Y-166370000D03*
D11*
X93472000Y-166370000D03*
%TD*%
%TO.C,J7*%
X75438000Y-80264000D03*
D10*
X75438000Y-82804000D03*
X75438000Y-85344000D03*
X75438000Y-87884000D03*
%TD*%
D11*
%TO.C,J3*%
X25146000Y-80264000D03*
D10*
X25146000Y-82804000D03*
X25146000Y-85344000D03*
X25146000Y-87884000D03*
%TD*%
D11*
%TO.C,J1*%
X43180000Y-170180000D03*
D10*
X45720000Y-170180000D03*
X48260000Y-170180000D03*
X50800000Y-170180000D03*
%TD*%
D20*
%TO.C,U2*%
X94615000Y-104394000D03*
X102235000Y-96774000D03*
X94615000Y-101854000D03*
X102235000Y-99314000D03*
X94615000Y-99314000D03*
X102235000Y-101854000D03*
X94615000Y-96774000D03*
D13*
X102235000Y-104394000D03*
%TD*%
D20*
%TO.C,U1*%
X91948000Y-52070000D03*
X84328000Y-44450000D03*
X89408000Y-52070000D03*
X86868000Y-44450000D03*
X86868000Y-52070000D03*
X89408000Y-44450000D03*
X84328000Y-52070000D03*
D13*
X91948000Y-44450000D03*
%TD*%
D20*
%TO.C,R12*%
X115316000Y-104394000D03*
D12*
X105156000Y-104394000D03*
%TD*%
D20*
%TO.C,R11*%
X94107000Y-91948000D03*
D12*
X104267000Y-91948000D03*
%TD*%
D20*
%TO.C,R10*%
X94107000Y-88900000D03*
D12*
X104267000Y-88900000D03*
%TD*%
D20*
%TO.C,R9*%
X81661000Y-100330000D03*
D12*
X91821000Y-100330000D03*
%TD*%
D20*
%TO.C,R8*%
X81661000Y-97282000D03*
D12*
X91821000Y-97282000D03*
%TD*%
D20*
%TO.C,R7*%
X82550000Y-29972000D03*
D12*
X92710000Y-29972000D03*
%TD*%
D20*
%TO.C,R6*%
X82550000Y-36068000D03*
D12*
X92710000Y-36068000D03*
%TD*%
D20*
%TO.C,R5*%
X82550000Y-33020000D03*
D12*
X92710000Y-33020000D03*
%TD*%
D20*
%TO.C,R4*%
X76200000Y-48514000D03*
D12*
X76200000Y-38354000D03*
%TD*%
D20*
%TO.C,R3*%
X84074000Y-55626000D03*
D12*
X94234000Y-55626000D03*
%TD*%
D20*
%TO.C,R2*%
X103759000Y-66167000D03*
D12*
X93599000Y-66167000D03*
%TD*%
D20*
%TO.C,R1*%
X103759000Y-69215000D03*
D12*
X93599000Y-69215000D03*
%TD*%
D22*
%TO.C,D8*%
X87503000Y-84074000D03*
D23*
X79883000Y-84074000D03*
%TD*%
D22*
%TO.C,D7*%
X79883000Y-90678000D03*
D23*
X87503000Y-90678000D03*
%TD*%
D22*
%TO.C,D6*%
X79883000Y-87376000D03*
D23*
X87503000Y-87376000D03*
%TD*%
D22*
%TO.C,D5*%
X87503000Y-93980000D03*
D23*
X79883000Y-93980000D03*
%TD*%
D22*
%TO.C,D4*%
X94234000Y-58928000D03*
D23*
X86614000Y-58928000D03*
%TD*%
D22*
%TO.C,D3*%
X84074000Y-62992000D03*
D23*
X76454000Y-62992000D03*
%TD*%
D22*
%TO.C,D2*%
X86614000Y-62230000D03*
D23*
X94234000Y-62230000D03*
%TD*%
D22*
%TO.C,D1*%
X76454000Y-66294000D03*
D23*
X84074000Y-66294000D03*
%TD*%
D12*
%TO.C,C5*%
X110410000Y-96774000D03*
X105410000Y-96774000D03*
%TD*%
%TO.C,C4*%
X91567000Y-104013000D03*
X86567000Y-104013000D03*
%TD*%
%TO.C,C3*%
X80391000Y-50593000D03*
X80391000Y-45593000D03*
%TD*%
%TO.C,C2*%
X95758000Y-52244000D03*
X95758000Y-47244000D03*
%TD*%
%TO.C,C1*%
X90250000Y-40513000D03*
X95250000Y-40513000D03*
%TD*%
D10*
%TO.C,J10*%
X125730000Y-101981000D03*
D11*
X125730000Y-99441000D03*
%TD*%
D23*
%TO.C,WET2_LEVEL1*%
X57190001Y-102750000D03*
D25*
X59690001Y-102750000D03*
X62190001Y-102750000D03*
D26*
X64490001Y-95250000D03*
X54890001Y-95250000D03*
%TD*%
D23*
%TO.C,WET1_LEVEL1*%
X57190001Y-83700000D03*
D25*
X59690001Y-83700000D03*
X62190001Y-83700000D03*
D26*
X64490001Y-76200000D03*
X54890001Y-76200000D03*
%TD*%
D27*
%TO.C,SW2*%
X34290000Y-80900000D03*
X34290000Y-76200000D03*
D28*
X34290000Y-71500000D03*
%TD*%
D29*
%TO.C,J30*%
X59690000Y-57150000D03*
D12*
X62738000Y-54102000D03*
%TD*%
D29*
%TO.C,J29*%
X59690001Y-38100000D03*
D12*
X62738001Y-35052000D03*
%TD*%
D29*
%TO.C,J28*%
X34290000Y-38100000D03*
D12*
X37338000Y-35052000D03*
%TD*%
D29*
%TO.C,J27*%
X34290000Y-114300000D03*
D12*
X37338000Y-111252000D03*
%TD*%
D23*
%TO.C,INPUT_GAIN1*%
X31790000Y-102750000D03*
D25*
X34290000Y-102750000D03*
X36790000Y-102750000D03*
D26*
X39090000Y-95250000D03*
X29490000Y-95250000D03*
%TD*%
D23*
%TO.C,FEEDBACK1*%
X31790000Y-64650000D03*
D25*
X34290000Y-64650000D03*
X36790000Y-64650000D03*
D26*
X39090000Y-57150000D03*
X29490000Y-57150000D03*
%TD*%
D23*
%TO.C,DRY_LEVEL1*%
X57190001Y-121800001D03*
D25*
X59690001Y-121800001D03*
X62190001Y-121800001D03*
D26*
X64490001Y-114300001D03*
X54890001Y-114300001D03*
%TD*%
D20*
%TO.C,R59*%
X102108000Y-59436000D03*
D12*
X112268000Y-59436000D03*
%TD*%
D20*
%TO.C,R58*%
X102108000Y-62484000D03*
D12*
X112268000Y-62484000D03*
%TD*%
D20*
%TO.C,R57*%
X112268000Y-37084000D03*
D12*
X102108000Y-37084000D03*
%TD*%
D20*
%TO.C,R56*%
X112268000Y-34036000D03*
D12*
X102108000Y-34036000D03*
%TD*%
%TO.C,C55*%
X107616000Y-55880000D03*
X102616000Y-55880000D03*
%TD*%
%TO.C,C54*%
X114046000Y-52070000D03*
X114046000Y-47070000D03*
%TD*%
%TO.C,C53*%
X98806000Y-44370000D03*
X98806000Y-39370000D03*
%TD*%
%TO.C,C52*%
X107696000Y-40640000D03*
X102696000Y-40640000D03*
%TD*%
D20*
%TO.C,U5*%
X101092000Y-118872000D03*
X93472000Y-134112000D03*
X101092000Y-121412000D03*
X93472000Y-131572000D03*
X101092000Y-123952000D03*
X93472000Y-129032000D03*
X101092000Y-126492000D03*
X93472000Y-126492000D03*
X101092000Y-129032000D03*
X93472000Y-123952000D03*
X101092000Y-131572000D03*
X93472000Y-121412000D03*
X101092000Y-134112000D03*
D13*
X93472000Y-118872000D03*
%TD*%
D28*
%TO.C,SW1*%
X46990001Y-147575000D03*
D27*
X46990001Y-142875000D03*
X46990001Y-138175000D03*
%TD*%
D20*
%TO.C,R55*%
X77089000Y-109347000D03*
D12*
X87249000Y-109347000D03*
%TD*%
D20*
%TO.C,R54*%
X102616000Y-107823000D03*
D12*
X92456000Y-107823000D03*
%TD*%
D20*
%TO.C,R53*%
X90678000Y-117094000D03*
D12*
X80518000Y-117094000D03*
%TD*%
D20*
%TO.C,R52*%
X82296000Y-113919000D03*
D12*
X92456000Y-113919000D03*
%TD*%
D20*
%TO.C,R51*%
X104902000Y-117729000D03*
D12*
X115062000Y-117729000D03*
%TD*%
D20*
%TO.C,R50*%
X104775000Y-113919000D03*
D12*
X94615000Y-113919000D03*
%TD*%
D20*
%TO.C,R49*%
X75692000Y-128143000D03*
D12*
X75692000Y-138303000D03*
%TD*%
D20*
%TO.C,R48*%
X112776000Y-128524000D03*
D12*
X112776000Y-138684000D03*
%TD*%
D20*
%TO.C,R47*%
X78740000Y-138303000D03*
D12*
X78740000Y-128143000D03*
%TD*%
D20*
%TO.C,R46*%
X115824000Y-138684000D03*
D12*
X115824000Y-128524000D03*
%TD*%
%TO.C,R45*%
X84836000Y-128143000D03*
D20*
X84836000Y-138303000D03*
%TD*%
%TO.C,R44*%
X94615000Y-110871000D03*
D12*
X104775000Y-110871000D03*
%TD*%
D20*
%TO.C,R43*%
X105156000Y-144399000D03*
D12*
X115316000Y-144399000D03*
%TD*%
D20*
%TO.C,R42*%
X109728000Y-138684000D03*
D12*
X109728000Y-128524000D03*
%TD*%
D20*
%TO.C,R41*%
X85344000Y-140970000D03*
D12*
X75184000Y-140970000D03*
%TD*%
D20*
%TO.C,R40*%
X105156000Y-141351000D03*
D12*
X115316000Y-141351000D03*
%TD*%
D20*
%TO.C,R39*%
X81788000Y-128143000D03*
D12*
X81788000Y-138303000D03*
%TD*%
%TO.C,R38*%
X105156000Y-157607000D03*
D20*
X115316000Y-157607000D03*
%TD*%
%TO.C,R37*%
X89408000Y-144018000D03*
D12*
X79248000Y-144018000D03*
%TD*%
D20*
%TO.C,R36*%
X115316000Y-147447000D03*
D12*
X105156000Y-147447000D03*
%TD*%
D20*
%TO.C,R35*%
X79248000Y-147066000D03*
D12*
X89408000Y-147066000D03*
%TD*%
D20*
%TO.C,R34*%
X89408000Y-160274000D03*
D12*
X79248000Y-160274000D03*
%TD*%
D20*
%TO.C,R33*%
X115316000Y-160655000D03*
D12*
X105156000Y-160655000D03*
%TD*%
D20*
%TO.C,R32*%
X119126000Y-135001000D03*
D12*
X119126000Y-145161000D03*
%TD*%
D20*
%TO.C,R31*%
X105156000Y-168021000D03*
D12*
X115316000Y-168021000D03*
%TD*%
D20*
%TO.C,R30*%
X79248000Y-167640000D03*
D12*
X89408000Y-167640000D03*
%TD*%
D20*
%TO.C,R29*%
X79248000Y-157226000D03*
D12*
X89408000Y-157226000D03*
%TD*%
D10*
%TO.C,J21*%
X75438000Y-101981000D03*
D11*
X75438000Y-99441000D03*
%TD*%
D10*
%TO.C,J20*%
X101092000Y-170180000D03*
X98552000Y-170180000D03*
X96012000Y-170180000D03*
D11*
X93472000Y-170180000D03*
%TD*%
D29*
%TO.C,J26*%
X34290000Y-133350000D03*
D12*
X37338000Y-130302000D03*
%TD*%
D29*
%TO.C,J25*%
X59690001Y-133350000D03*
D12*
X62738001Y-130302000D03*
%TD*%
D23*
%TO.C,DELAY2_TIME1*%
X57190000Y-178950000D03*
D25*
X59690000Y-178950000D03*
X62190000Y-178950000D03*
D26*
X64490000Y-171450000D03*
X54890000Y-171450000D03*
%TD*%
D23*
%TO.C,DELAY2_CV_ATTV1*%
X57190001Y-159900001D03*
D25*
X59690001Y-159900001D03*
X62190001Y-159900001D03*
D26*
X64490001Y-152400001D03*
X54890001Y-152400001D03*
%TD*%
D23*
%TO.C,DELAY1_TIME1*%
X31790000Y-178950000D03*
D25*
X34290000Y-178950000D03*
X36790000Y-178950000D03*
D26*
X39090000Y-171450000D03*
X29490000Y-171450000D03*
%TD*%
D23*
%TO.C,DELAY1_CV_ATTV1*%
X31790000Y-159900001D03*
D25*
X34290000Y-159900001D03*
X36790000Y-159900001D03*
D26*
X39090000Y-152400001D03*
X29490000Y-152400001D03*
%TD*%
D22*
%TO.C,D12*%
X155194000Y-166370000D03*
D23*
X162814000Y-166370000D03*
%TD*%
D22*
%TO.C,D11*%
X139954000Y-173990000D03*
D23*
X139954000Y-166370000D03*
%TD*%
D12*
%TO.C,C51*%
X127127000Y-155194000D03*
X127127000Y-150194000D03*
%TD*%
%TO.C,C49*%
X138938000Y-162433000D03*
X138938000Y-157433000D03*
%TD*%
%TO.C,C48*%
X161925000Y-155154000D03*
D13*
X161925000Y-152654000D03*
%TD*%
D12*
%TO.C,C47*%
X144653000Y-159171000D03*
D13*
X144653000Y-161671000D03*
%TD*%
D12*
%TO.C,C46*%
X84662000Y-120650000D03*
X89662000Y-120650000D03*
%TD*%
%TO.C,C45*%
X109902000Y-121285000D03*
X104902000Y-121285000D03*
%TD*%
%TO.C,C44*%
X88646000Y-131906000D03*
X88646000Y-136906000D03*
%TD*%
%TO.C,C43*%
X105918000Y-128731000D03*
X105918000Y-133731000D03*
%TD*%
%TO.C,C42*%
X88472000Y-140335000D03*
X93472000Y-140335000D03*
%TD*%
%TO.C,C41*%
X101553000Y-137795000D03*
X106553000Y-137795000D03*
%TD*%
%TO.C,C40*%
X89408000Y-163957000D03*
X84408000Y-163957000D03*
%TD*%
%TO.C,C39*%
X109902000Y-125349000D03*
X104902000Y-125349000D03*
%TD*%
%TO.C,C38*%
X88646000Y-124286000D03*
X88646000Y-129286000D03*
%TD*%
%TO.C,C37*%
X110156000Y-154051000D03*
X105156000Y-154051000D03*
%TD*%
%TO.C,C36*%
X89408000Y-153670000D03*
X84408000Y-153670000D03*
%TD*%
D13*
%TO.C,U4*%
X136779000Y-127889000D03*
D20*
X144399000Y-145669000D03*
X136779000Y-130429000D03*
X144399000Y-143129000D03*
X136779000Y-132969000D03*
X144399000Y-140589000D03*
X136779000Y-135509000D03*
X144399000Y-138049000D03*
X136779000Y-138049000D03*
X144399000Y-135509000D03*
X136779000Y-140589000D03*
X144399000Y-132969000D03*
X136779000Y-143129000D03*
X144399000Y-130429000D03*
X136779000Y-145669000D03*
X144399000Y-127889000D03*
%TD*%
D13*
%TO.C,U3*%
X140081000Y-45847000D03*
D20*
X147701000Y-63627000D03*
X140081000Y-48387000D03*
X147701000Y-61087000D03*
X140081000Y-50927000D03*
X147701000Y-58547000D03*
X140081000Y-53467000D03*
X147701000Y-56007000D03*
X140081000Y-56007000D03*
X147701000Y-53467000D03*
X140081000Y-58547000D03*
X147701000Y-50927000D03*
X140081000Y-61087000D03*
X147701000Y-48387000D03*
X140081000Y-63627000D03*
X147701000Y-45847000D03*
%TD*%
%TO.C,R28*%
X152146000Y-131318000D03*
D12*
X162306000Y-131318000D03*
%TD*%
D20*
%TO.C,R27*%
X152146000Y-134366000D03*
D12*
X162306000Y-134366000D03*
%TD*%
D20*
%TO.C,R26*%
X152146000Y-137414000D03*
D12*
X162306000Y-137414000D03*
%TD*%
D20*
%TO.C,R25*%
X152146000Y-140462000D03*
D12*
X162306000Y-140462000D03*
%TD*%
D20*
%TO.C,R24*%
X152146000Y-122174000D03*
D12*
X162306000Y-122174000D03*
%TD*%
D20*
%TO.C,R23*%
X152146000Y-128270000D03*
D12*
X162306000Y-128270000D03*
%TD*%
D20*
%TO.C,R22*%
X152146000Y-125222000D03*
D12*
X162306000Y-125222000D03*
%TD*%
D20*
%TO.C,R21*%
X129032000Y-102235000D03*
D12*
X139192000Y-102235000D03*
%TD*%
D20*
%TO.C,R20*%
X157607000Y-46355000D03*
D12*
X167767000Y-46355000D03*
%TD*%
D20*
%TO.C,R19*%
X157607000Y-49403000D03*
D12*
X167767000Y-49403000D03*
%TD*%
D20*
%TO.C,R18*%
X157607000Y-52451000D03*
D12*
X167767000Y-52451000D03*
%TD*%
D20*
%TO.C,R17*%
X157607000Y-55499000D03*
D12*
X167767000Y-55499000D03*
%TD*%
D20*
%TO.C,R16*%
X156337000Y-67056000D03*
D12*
X166497000Y-67056000D03*
%TD*%
D20*
%TO.C,R15*%
X157607000Y-43307000D03*
D12*
X167767000Y-43307000D03*
%TD*%
D20*
%TO.C,R14*%
X157607000Y-40259000D03*
D12*
X167767000Y-40259000D03*
%TD*%
D20*
%TO.C,R13*%
X129032000Y-99187000D03*
D12*
X139192000Y-99187000D03*
%TD*%
D22*
%TO.C,D10*%
X129032000Y-105410000D03*
D23*
X136652000Y-105410000D03*
%TD*%
D22*
%TO.C,D9*%
X129032000Y-96012000D03*
D23*
X136652000Y-96012000D03*
%TD*%
D12*
%TO.C,C35*%
X162433000Y-104942000D03*
D13*
X162433000Y-107442000D03*
%TD*%
D12*
%TO.C,C34*%
X158877000Y-118491000D03*
X153877000Y-118491000D03*
%TD*%
%TO.C,C33*%
X162306000Y-144018000D03*
X157306000Y-144018000D03*
%TD*%
%TO.C,C32*%
X162306000Y-119253000D03*
X162306000Y-114253000D03*
%TD*%
%TO.C,C31*%
X148590000Y-138049000D03*
X148590000Y-133049000D03*
%TD*%
%TO.C,C30*%
X153082000Y-144018000D03*
X148082000Y-144018000D03*
%TD*%
%TO.C,C28*%
X148590000Y-125429000D03*
X148590000Y-130429000D03*
%TD*%
%TO.C,C27*%
X153082000Y-148082000D03*
X148082000Y-148082000D03*
%TD*%
%TO.C,C26*%
X135509000Y-150876000D03*
X130509000Y-150876000D03*
%TD*%
%TO.C,C25*%
X127437000Y-130429000D03*
D13*
X130937000Y-130429000D03*
%TD*%
D12*
%TO.C,C24*%
X133350000Y-146812000D03*
X128350000Y-146812000D03*
%TD*%
%TO.C,C22*%
X136779000Y-124206000D03*
X141779000Y-124206000D03*
%TD*%
%TO.C,C21*%
X128350000Y-142748000D03*
X133350000Y-142748000D03*
%TD*%
%TO.C,C19*%
X161370000Y-70739000D03*
X166370000Y-70739000D03*
%TD*%
%TO.C,C18*%
X166497000Y-59055000D03*
X161497000Y-59055000D03*
%TD*%
%TO.C,C17*%
X166497000Y-63119000D03*
X161497000Y-63119000D03*
%TD*%
%TO.C,C16*%
X154051000Y-54991000D03*
X154051000Y-49991000D03*
%TD*%
%TO.C,C15*%
X158543000Y-59055000D03*
X153543000Y-59055000D03*
%TD*%
%TO.C,C13*%
X154051000Y-41863000D03*
X154051000Y-46863000D03*
%TD*%
%TO.C,C12*%
X158543000Y-63119000D03*
X153543000Y-63119000D03*
%TD*%
%TO.C,C11*%
X140081000Y-66802000D03*
X140081000Y-71802000D03*
%TD*%
%TO.C,C10*%
X131628000Y-51181000D03*
D13*
X135128000Y-51181000D03*
%TD*%
D12*
%TO.C,C9*%
X135509000Y-62611000D03*
X135509000Y-67611000D03*
%TD*%
%TO.C,C7*%
X140081000Y-42037000D03*
X145081000Y-42037000D03*
%TD*%
%TO.C,C6*%
X131445000Y-67611000D03*
X131445000Y-62611000D03*
%TD*%
M02*
