  0
SECTION
  2
HEADER
  9
$MEASUREMENT
  70
  1
  9
$INSUNITS
  70
  4
  0
ENDSEC
  0
SECTION
  2
TABLES
  0
TABLE
  2
LTYPE
 70
     1
  0
LTYPE
  2
CONTINUOUS
 70
    64
  3
Ausgezogene Linie
 72
    65
 73
     0
 40
0.0
  0
ENDTAB
  0
TABLE
  2
LAYER
 70
     3
  0
LAYER
  2
Contour
 70
    64
 62
     7
  6
CONTINUOUS
  0
LAYER
  2
Engraving
 70
    64
 62
     7
  6
CONTINUOUS
  0
LAYER
  2
Reference_points
 70
    64
 62
     1
  6
CONTINUOUS
  0
ENDTAB
  0
TABLE
  2
STYLE
 70
     1
  0
STYLE
  2
TXT
 70
    64
 40
0.0
 41
1.0
 50
0.0
 71
     0
 42
3.500000
  3
TXT
  0
ENDTAB
  0
ENDSEC
  0
SECTION
  2
BLOCKS
  0
ENDSEC
  0
SECTION
  2
ENTITIES
  0
ARC
  8
Contour
 62
   7
 39
0.100
  6
CONTINUOUS
 10
50.00000
 20
174.50000
 30
 0
 40
0.50000
 50
0.00000
 51
90.00000
  0
LINE
  8
Contour
 62
   7
 39
0.100
  6
CONTINUOUS
 10
50.50000
 20
174.50000
 30
 0
 11
50.50000
 21
0.50000
  0
ARC
  8
Contour
 62
   7
 39
0.100
  6
CONTINUOUS
 10
50.00000
 20
0.50000
 30
 0
 40
0.50000
 50
-90.00000
 51
0.00000
  0
LINE
  8
Contour
 62
   7
 39
0.100
  6
CONTINUOUS
 10
50.00000
 20
0.00000
 30
 0
 11
0.50000
 21
0.00000
  0
ARC
  8
Contour
 62
   7
 39
0.100
  6
CONTINUOUS
 10
0.50000
 20
0.50000
 30
 0
 40
0.50000
 50
180.00000
 51
270.00000
  0
LINE
  8
Contour
 62
   7
 39
0.100
  6
CONTINUOUS
 10
0.00000
 20
0.50000
 30
 0
 11
0.00000
 21
174.50000
  0
ARC
  8
Contour
 62
   7
 39
0.100
  6
CONTINUOUS
 10
0.50000
 20
174.50000
 30
 0
 40
0.50000
 50
90.00000
 51
180.00000
  0
LINE
  8
Contour
 62
   7
 39
0.100
  6
CONTINUOUS
 10
0.50000
 20
175.00000
 30
 0
 11
50.00000
 21
175.00000
  0
ARC
  8
Contour
 62
   7
 39
0.100
  6
CONTINUOUS
 10
10.87500
 20
171.91250
 30
 0
 40
1.50000
 50
180.00000
 51
270.00000
  0
LINE
  8
Contour
 62
   7
 39
0.100
  6
CONTINUOUS
 10
10.87500
 20
170.41250
 30
 0
 11
14.22500
 21
170.41250
  0
ARC
  8
Contour
 62
   7
 39
0.100
  6
CONTINUOUS
 10
14.22500
 20
171.91250
 30
 0
 40
1.50000
 50
270.00000
 51
360.00000
  0
LINE
  8
Contour
 62
   7
 39
0.100
  6
CONTINUOUS
 10
15.72500
 20
171.91250
 30
 0
 11
15.72500
 21
172.08750
  0
ARC
  8
Contour
 62
   7
 39
0.100
  6
CONTINUOUS
 10
14.22500
 20
172.08750
 30
 0
 40
1.50000
 50
0.00000
 51
90.00000
  0
LINE
  8
Contour
 62
   7
 39
0.100
  6
CONTINUOUS
 10
14.22500
 20
173.58750
 30
 0
 11
10.87500
 21
173.58750
  0
ARC
  8
Contour
 62
   7
 39
0.100
  6
CONTINUOUS
 10
10.87500
 20
172.08750
 30
 0
 40
1.50000
 50
90.00000
 51
180.00000
  0
LINE
  8
Contour
 62
   7
 39
0.100
  6
CONTINUOUS
 10
9.37500
 20
172.08750
 30
 0
 11
9.37500
 21
171.91250
  0
ARC
  8
Contour
 62
   7
 39
0.100
  6
CONTINUOUS
 10
36.27500
 20
171.91250
 30
 0
 40
1.50000
 50
180.00000
 51
270.00000
  0
LINE
  8
Contour
 62
   7
 39
0.100
  6
CONTINUOUS
 10
36.27500
 20
170.41250
 30
 0
 11
39.62500
 21
170.41250
  0
ARC
  8
Contour
 62
   7
 39
0.100
  6
CONTINUOUS
 10
39.62500
 20
171.91250
 30
 0
 40
1.50000
 50
270.00000
 51
360.00000
  0
LINE
  8
Contour
 62
   7
 39
0.100
  6
CONTINUOUS
 10
41.12500
 20
171.91250
 30
 0
 11
41.12500
 21
172.08750
  0
ARC
  8
Contour
 62
   7
 39
0.100
  6
CONTINUOUS
 10
39.62500
 20
172.08750
 30
 0
 40
1.50000
 50
0.00000
 51
90.00000
  0
LINE
  8
Contour
 62
   7
 39
0.100
  6
CONTINUOUS
 10
39.62500
 20
173.58750
 30
 0
 11
36.27500
 21
173.58750
  0
ARC
  8
Contour
 62
   7
 39
0.100
  6
CONTINUOUS
 10
36.27500
 20
172.08750
 30
 0
 40
1.50000
 50
90.00000
 51
180.00000
  0
LINE
  8
Contour
 62
   7
 39
0.100
  6
CONTINUOUS
 10
34.77500
 20
172.08750
 30
 0
 11
34.77500
 21
171.91250
  0
ARC
  8
Contour
 62
   7
 39
0.100
  6
CONTINUOUS
 10
36.27500
 20
2.91250
 30
 0
 40
1.50000
 50
180.00000
 51
270.00000
  0
LINE
  8
Contour
 62
   7
 39
0.100
  6
CONTINUOUS
 10
36.27500
 20
1.41250
 30
 0
 11
39.62500
 21
1.41250
  0
ARC
  8
Contour
 62
   7
 39
0.100
  6
CONTINUOUS
 10
39.62500
 20
2.91250
 30
 0
 40
1.50000
 50
270.00000
 51
360.00000
  0
LINE
  8
Contour
 62
   7
 39
0.100
  6
CONTINUOUS
 10
41.12500
 20
2.91250
 30
 0
 11
41.12500
 21
3.08750
  0
ARC
  8
Contour
 62
   7
 39
0.100
  6
CONTINUOUS
 10
39.62500
 20
3.08750
 30
 0
 40
1.50000
 50
360.00000
 51
450.00000
  0
LINE
  8
Contour
 62
   7
 39
0.100
  6
CONTINUOUS
 10
39.62500
 20
4.58750
 30
 0
 11
36.27500
 21
4.58750
  0
ARC
  8
Contour
 62
   7
 39
0.100
  6
CONTINUOUS
 10
36.27500
 20
3.08750
 30
 0
 40
1.50000
 50
90.00000
 51
180.00000
  0
LINE
  8
Contour
 62
   7
 39
0.100
  6
CONTINUOUS
 10
34.77500
 20
3.08750
 30
 0
 11
34.77500
 21
2.91250
  0
ARC
  8
Contour
 62
   7
 39
0.100
  6
CONTINUOUS
 10
10.87500
 20
2.91250
 30
 0
 40
1.50000
 50
180.00000
 51
270.00000
  0
LINE
  8
Contour
 62
   7
 39
0.100
  6
CONTINUOUS
 10
10.87500
 20
1.41250
 30
 0
 11
14.22500
 21
1.41250
  0
ARC
  8
Contour
 62
   7
 39
0.100
  6
CONTINUOUS
 10
14.22500
 20
2.91250
 30
 0
 40
1.50000
 50
270.00000
 51
360.00000
  0
LINE
  8
Contour
 62
   7
 39
0.100
  6
CONTINUOUS
 10
15.72500
 20
2.91250
 30
 0
 11
15.72500
 21
3.08750
  0
ARC
  8
Contour
 62
   7
 39
0.100
  6
CONTINUOUS
 10
14.22500
 20
3.08750
 30
 0
 40
1.50000
 50
360.00000
 51
450.00000
  0
LINE
  8
Contour
 62
   7
 39
0.100
  6
CONTINUOUS
 10
14.22500
 20
4.58750
 30
 0
 11
10.87500
 21
4.58750
  0
ARC
  8
Contour
 62
   7
 39
0.100
  6
CONTINUOUS
 10
10.87500
 20
3.08750
 30
 0
 40
1.50000
 50
90.00000
 51
180.00000
  0
LINE
  8
Contour
 62
   7
 39
0.100
  6
CONTINUOUS
 10
9.37500
 20
3.08750
 30
 0
 11
9.37500
 21
2.91250
  0
CIRCLE
  8
Contour
 62
   7
 39
0.100
  6
CONTINUOUS
 10
12.55000
 20
152.40000
 30
 0
 40
4.16500
  0
CIRCLE
  8
Contour
 62
   7
 39
0.100
  6
CONTINUOUS
 10
12.55000
 20
133.35000
 30
 0
 40
4.16500
  0
CIRCLE
  8
Contour
 62
   7
 39
0.100
  6
CONTINUOUS
 10
12.55000
 20
114.30000
 30
 0
 40
4.16500
  0
CIRCLE
  8
Contour
 62
   7
 39
0.100
  6
CONTINUOUS
 10
12.55000
 20
95.25000
 30
 0
 40
4.16500
  0
CIRCLE
  8
Contour
 62
   7
 39
0.100
  6
CONTINUOUS
 10
12.55000
 20
76.20000
 30
 0
 40
3.75000
  0
CIRCLE
  8
Contour
 62
   7
 39
0.100
  6
CONTINUOUS
 10
12.55000
 20
57.15000
 30
 0
 40
3.75000
  0
CIRCLE
  8
Contour
 62
   7
 39
0.100
  6
CONTINUOUS
 10
12.55000
 20
38.10000
 30
 0
 40
4.16500
  0
CIRCLE
  8
Contour
 62
   7
 39
0.100
  6
CONTINUOUS
 10
12.55000
 20
19.05000
 30
 0
 40
4.16500
  0
CIRCLE
  8
Contour
 62
   7
 39
0.100
  6
CONTINUOUS
 10
37.95000
 20
152.40000
 30
 0
 40
4.16500
  0
CIRCLE
  8
Contour
 62
   7
 39
0.100
  6
CONTINUOUS
 10
37.95000
 20
133.35000
 30
 0
 40
4.16500
  0
CIRCLE
  8
Contour
 62
   7
 39
0.100
  6
CONTINUOUS
 10
37.95000
 20
114.30000
 30
 0
 40
4.16500
  0
CIRCLE
  8
Contour
 62
   7
 39
0.100
  6
CONTINUOUS
 10
37.95000
 20
95.25000
 30
 0
 40
4.16500
  0
CIRCLE
  8
Contour
 62
   7
 39
0.100
  6
CONTINUOUS
 10
37.95000
 20
76.20000
 30
 0
 40
3.75000
  0
CIRCLE
  8
Contour
 62
   7
 39
0.100
  6
CONTINUOUS
 10
37.95000
 20
57.15000
 30
 0
 40
3.75000
  0
CIRCLE
  8
Contour
 62
   7
 39
0.100
  6
CONTINUOUS
 10
37.95000
 20
38.10000
 30
 0
 40
4.16500
  0
CIRCLE
  8
Contour
 62
   7
 39
0.100
  6
CONTINUOUS
 10
37.95000
 20
19.05000
 30
 0
 40
4.16500
  0
CIRCLE
  8
Contour
 62
   7
 39
0.100
  6
CONTINUOUS
 10
25.25000
 20
0.00000
 30
 0
 40
1.50000
  0
ENDSEC
  0
EOF
