%TF.GenerationSoftware,KiCad,Pcbnew,(5.1.8-0-10_14)*%
%TF.CreationDate,2021-10-31T14:58:14+00:00*%
%TF.ProjectId,4u-boat-power-distrib,34752d62-6f61-4742-9d70-6f7765722d64,r01*%
%TF.SameCoordinates,Original*%
%TF.FileFunction,Soldermask,Top*%
%TF.FilePolarity,Negative*%
%FSLAX46Y46*%
G04 Gerber Fmt 4.6, Leading zero omitted, Abs format (unit mm)*
G04 Created by KiCad (PCBNEW (5.1.8-0-10_14)) date 2021-10-31 14:58:14*
%MOMM*%
%LPD*%
G01*
G04 APERTURE LIST*
%ADD10O,2.794000X3.810000*%
%ADD11C,5.600000*%
%ADD12C,2.000000*%
G04 APERTURE END LIST*
D10*
%TO.C,J17*%
X169000000Y-166500000D03*
X165037600Y-166500000D03*
X161075200Y-166500000D03*
G36*
G01*
X155715800Y-167706500D02*
X155715800Y-165293500D01*
G75*
G02*
X156414300Y-164595000I698500J0D01*
G01*
X157811300Y-164595000D01*
G75*
G02*
X158509800Y-165293500I0J-698500D01*
G01*
X158509800Y-167706500D01*
G75*
G02*
X157811300Y-168405000I-698500J0D01*
G01*
X156414300Y-168405000D01*
G75*
G02*
X155715800Y-167706500I0J698500D01*
G01*
G37*
%TD*%
%TO.C,J16*%
X403000000Y-166500000D03*
X399037600Y-166500000D03*
X395075200Y-166500000D03*
G36*
G01*
X389715800Y-167706500D02*
X389715800Y-165293500D01*
G75*
G02*
X390414300Y-164595000I698500J0D01*
G01*
X391811300Y-164595000D01*
G75*
G02*
X392509800Y-165293500I0J-698500D01*
G01*
X392509800Y-167706500D01*
G75*
G02*
X391811300Y-168405000I-698500J0D01*
G01*
X390414300Y-168405000D01*
G75*
G02*
X389715800Y-167706500I0J698500D01*
G01*
G37*
%TD*%
%TO.C,J15*%
X230000000Y-166500000D03*
X226037600Y-166500000D03*
X222075200Y-166500000D03*
G36*
G01*
X216715800Y-167706500D02*
X216715800Y-165293500D01*
G75*
G02*
X217414300Y-164595000I698500J0D01*
G01*
X218811300Y-164595000D01*
G75*
G02*
X219509800Y-165293500I0J-698500D01*
G01*
X219509800Y-167706500D01*
G75*
G02*
X218811300Y-168405000I-698500J0D01*
G01*
X217414300Y-168405000D01*
G75*
G02*
X216715800Y-167706500I0J698500D01*
G01*
G37*
%TD*%
%TO.C,J14*%
X296500000Y-166500000D03*
X292537600Y-166500000D03*
X288575200Y-166500000D03*
G36*
G01*
X283215800Y-167706500D02*
X283215800Y-165293500D01*
G75*
G02*
X283914300Y-164595000I698500J0D01*
G01*
X285311300Y-164595000D01*
G75*
G02*
X286009800Y-165293500I0J-698500D01*
G01*
X286009800Y-167706500D01*
G75*
G02*
X285311300Y-168405000I-698500J0D01*
G01*
X283914300Y-168405000D01*
G75*
G02*
X283215800Y-167706500I0J698500D01*
G01*
G37*
%TD*%
%TO.C,J13*%
X369000000Y-166500000D03*
X365037600Y-166500000D03*
X361075200Y-166500000D03*
G36*
G01*
X355715800Y-167706500D02*
X355715800Y-165293500D01*
G75*
G02*
X356414300Y-164595000I698500J0D01*
G01*
X357811300Y-164595000D01*
G75*
G02*
X358509800Y-165293500I0J-698500D01*
G01*
X358509800Y-167706500D01*
G75*
G02*
X357811300Y-168405000I-698500J0D01*
G01*
X356414300Y-168405000D01*
G75*
G02*
X355715800Y-167706500I0J698500D01*
G01*
G37*
%TD*%
%TO.C,J12*%
X79500000Y-166370000D03*
X75537600Y-166370000D03*
X71575200Y-166370000D03*
G36*
G01*
X66215800Y-167576500D02*
X66215800Y-165163500D01*
G75*
G02*
X66914300Y-164465000I698500J0D01*
G01*
X68311300Y-164465000D01*
G75*
G02*
X69009800Y-165163500I0J-698500D01*
G01*
X69009800Y-167576500D01*
G75*
G02*
X68311300Y-168275000I-698500J0D01*
G01*
X66914300Y-168275000D01*
G75*
G02*
X66215800Y-167576500I0J698500D01*
G01*
G37*
%TD*%
%TO.C,J11*%
X213000000Y-166500000D03*
X209037600Y-166500000D03*
X205075200Y-166500000D03*
G36*
G01*
X199715800Y-167706500D02*
X199715800Y-165293500D01*
G75*
G02*
X200414300Y-164595000I698500J0D01*
G01*
X201811300Y-164595000D01*
G75*
G02*
X202509800Y-165293500I0J-698500D01*
G01*
X202509800Y-167706500D01*
G75*
G02*
X201811300Y-168405000I-698500J0D01*
G01*
X200414300Y-168405000D01*
G75*
G02*
X199715800Y-167706500I0J698500D01*
G01*
G37*
%TD*%
%TO.C,J10*%
X313500000Y-166500000D03*
X309537600Y-166500000D03*
X305575200Y-166500000D03*
G36*
G01*
X300215800Y-167706500D02*
X300215800Y-165293500D01*
G75*
G02*
X300914300Y-164595000I698500J0D01*
G01*
X302311300Y-164595000D01*
G75*
G02*
X303009800Y-165293500I0J-698500D01*
G01*
X303009800Y-167706500D01*
G75*
G02*
X302311300Y-168405000I-698500J0D01*
G01*
X300914300Y-168405000D01*
G75*
G02*
X300215800Y-167706500I0J698500D01*
G01*
G37*
%TD*%
%TO.C,J9*%
X386000000Y-166500000D03*
X382037600Y-166500000D03*
X378075200Y-166500000D03*
G36*
G01*
X372715800Y-167706500D02*
X372715800Y-165293500D01*
G75*
G02*
X373414300Y-164595000I698500J0D01*
G01*
X374811300Y-164595000D01*
G75*
G02*
X375509800Y-165293500I0J-698500D01*
G01*
X375509800Y-167706500D01*
G75*
G02*
X374811300Y-168405000I-698500J0D01*
G01*
X373414300Y-168405000D01*
G75*
G02*
X372715800Y-167706500I0J698500D01*
G01*
G37*
%TD*%
%TO.C,J8*%
X135000000Y-166370000D03*
X131037600Y-166370000D03*
X127075200Y-166370000D03*
G36*
G01*
X121715800Y-167576500D02*
X121715800Y-165163500D01*
G75*
G02*
X122414300Y-164465000I698500J0D01*
G01*
X123811300Y-164465000D01*
G75*
G02*
X124509800Y-165163500I0J-698500D01*
G01*
X124509800Y-167576500D01*
G75*
G02*
X123811300Y-168275000I-698500J0D01*
G01*
X122414300Y-168275000D01*
G75*
G02*
X121715800Y-167576500I0J698500D01*
G01*
G37*
%TD*%
%TO.C,J7*%
X186000000Y-166500000D03*
X182037600Y-166500000D03*
X178075200Y-166500000D03*
G36*
G01*
X172715800Y-167706500D02*
X172715800Y-165293500D01*
G75*
G02*
X173414300Y-164595000I698500J0D01*
G01*
X174811300Y-164595000D01*
G75*
G02*
X175509800Y-165293500I0J-698500D01*
G01*
X175509800Y-167706500D01*
G75*
G02*
X174811300Y-168405000I-698500J0D01*
G01*
X173414300Y-168405000D01*
G75*
G02*
X172715800Y-167706500I0J698500D01*
G01*
G37*
%TD*%
%TO.C,J6*%
X352000000Y-166500000D03*
X348037600Y-166500000D03*
X344075200Y-166500000D03*
G36*
G01*
X338715800Y-167706500D02*
X338715800Y-165293500D01*
G75*
G02*
X339414300Y-164595000I698500J0D01*
G01*
X340811300Y-164595000D01*
G75*
G02*
X341509800Y-165293500I0J-698500D01*
G01*
X341509800Y-167706500D01*
G75*
G02*
X340811300Y-168405000I-698500J0D01*
G01*
X339414300Y-168405000D01*
G75*
G02*
X338715800Y-167706500I0J698500D01*
G01*
G37*
%TD*%
%TO.C,J5*%
X96500000Y-166370000D03*
X92537600Y-166370000D03*
X88575200Y-166370000D03*
G36*
G01*
X83215800Y-167576500D02*
X83215800Y-165163500D01*
G75*
G02*
X83914300Y-164465000I698500J0D01*
G01*
X85311300Y-164465000D01*
G75*
G02*
X86009800Y-165163500I0J-698500D01*
G01*
X86009800Y-167576500D01*
G75*
G02*
X85311300Y-168275000I-698500J0D01*
G01*
X83914300Y-168275000D01*
G75*
G02*
X83215800Y-167576500I0J698500D01*
G01*
G37*
%TD*%
%TO.C,J4*%
X45500000Y-166370000D03*
X41537600Y-166370000D03*
X37575200Y-166370000D03*
G36*
G01*
X32215800Y-167576500D02*
X32215800Y-165163500D01*
G75*
G02*
X32914300Y-164465000I698500J0D01*
G01*
X34311300Y-164465000D01*
G75*
G02*
X35009800Y-165163500I0J-698500D01*
G01*
X35009800Y-167576500D01*
G75*
G02*
X34311300Y-168275000I-698500J0D01*
G01*
X32914300Y-168275000D01*
G75*
G02*
X32215800Y-167576500I0J698500D01*
G01*
G37*
%TD*%
%TO.C,J3*%
X152000000Y-166370000D03*
X148037600Y-166370000D03*
X144075200Y-166370000D03*
G36*
G01*
X138715800Y-167576500D02*
X138715800Y-165163500D01*
G75*
G02*
X139414300Y-164465000I698500J0D01*
G01*
X140811300Y-164465000D01*
G75*
G02*
X141509800Y-165163500I0J-698500D01*
G01*
X141509800Y-167576500D01*
G75*
G02*
X140811300Y-168275000I-698500J0D01*
G01*
X139414300Y-168275000D01*
G75*
G02*
X138715800Y-167576500I0J698500D01*
G01*
G37*
%TD*%
%TO.C,J2*%
X62500000Y-166370000D03*
X58537600Y-166370000D03*
X54575200Y-166370000D03*
G36*
G01*
X49215800Y-167576500D02*
X49215800Y-165163500D01*
G75*
G02*
X49914300Y-164465000I698500J0D01*
G01*
X51311300Y-164465000D01*
G75*
G02*
X52009800Y-165163500I0J-698500D01*
G01*
X52009800Y-167576500D01*
G75*
G02*
X51311300Y-168275000I-698500J0D01*
G01*
X49914300Y-168275000D01*
G75*
G02*
X49215800Y-167576500I0J698500D01*
G01*
G37*
%TD*%
D11*
%TO.C,H8*%
X411480000Y-168275000D03*
%TD*%
%TO.C,H7*%
X411480000Y-152400000D03*
%TD*%
%TO.C,H6*%
X243840000Y-168275000D03*
%TD*%
%TO.C,H5*%
X320040000Y-168275000D03*
%TD*%
%TO.C,H4*%
X193040000Y-168275000D03*
%TD*%
%TO.C,H3*%
X116840000Y-168275000D03*
%TD*%
%TO.C,H2*%
X25400000Y-168275000D03*
%TD*%
%TO.C,H1*%
X25400000Y-152400000D03*
%TD*%
D12*
%TO.C,J1*%
X254635000Y-166000000D03*
X254635000Y-162000000D03*
X254635000Y-158000000D03*
G36*
G01*
X253831000Y-153000000D02*
X255439000Y-153000000D01*
G75*
G02*
X255635000Y-153196000I0J-196000D01*
G01*
X255635000Y-154804000D01*
G75*
G02*
X255439000Y-155000000I-196000J0D01*
G01*
X253831000Y-155000000D01*
G75*
G02*
X253635000Y-154804000I0J196000D01*
G01*
X253635000Y-153196000D01*
G75*
G02*
X253831000Y-153000000I196000J0D01*
G01*
G37*
%TD*%
%TO.C,TP3*%
X103505000Y-158115000D03*
%TD*%
%TO.C,TP2*%
X117475000Y-158115000D03*
%TD*%
%TO.C,TP1*%
X110490000Y-158115000D03*
%TD*%
M02*
