%TF.GenerationSoftware,KiCad,Pcbnew,(5.1.8-0-10_14)*%
%TF.CreationDate,2021-10-31T14:58:14+00:00*%
%TF.ProjectId,4u-boat-power-distrib,34752d62-6f61-4742-9d70-6f7765722d64,r01*%
%TF.SameCoordinates,Original*%
%TF.FileFunction,Legend,Top*%
%TF.FilePolarity,Positive*%
%FSLAX46Y46*%
G04 Gerber Fmt 4.6, Leading zero omitted, Abs format (unit mm)*
G04 Created by KiCad (PCBNEW (5.1.8-0-10_14)) date 2021-10-31 14:58:14*
%MOMM*%
%LPD*%
G01*
G04 APERTURE LIST*
%ADD10C,0.150000*%
%ADD11C,0.120000*%
G04 APERTURE END LIST*
D10*
X116665476Y-155582928D02*
X117427380Y-155582928D01*
X117046428Y-155963880D02*
X117046428Y-155201976D01*
X117760714Y-154963880D02*
X118094047Y-155963880D01*
X118427380Y-154963880D01*
X102695476Y-155265428D02*
X103457380Y-155265428D01*
X103790714Y-154646380D02*
X104124047Y-155646380D01*
X104457380Y-154646380D01*
D11*
%TO.C,J17*%
X155112800Y-154500000D02*
X171112800Y-154500000D01*
X171112800Y-153500000D02*
X171112800Y-163500000D01*
X155112800Y-153500000D02*
X171112800Y-153500000D01*
X155112800Y-163500000D02*
X155112800Y-153500000D01*
X171112800Y-163500000D02*
X155112800Y-163500000D01*
X171112800Y-169500000D02*
X171112800Y-163500000D01*
X155112800Y-169500000D02*
X171112800Y-169500000D01*
X155112800Y-163500000D02*
X155112800Y-169500000D01*
%TO.C,J16*%
X389112800Y-154500000D02*
X405112800Y-154500000D01*
X405112800Y-153500000D02*
X405112800Y-163500000D01*
X389112800Y-153500000D02*
X405112800Y-153500000D01*
X389112800Y-163500000D02*
X389112800Y-153500000D01*
X405112800Y-163500000D02*
X389112800Y-163500000D01*
X405112800Y-169500000D02*
X405112800Y-163500000D01*
X389112800Y-169500000D02*
X405112800Y-169500000D01*
X389112800Y-163500000D02*
X389112800Y-169500000D01*
%TO.C,J15*%
X216112800Y-154500000D02*
X232112800Y-154500000D01*
X232112800Y-153500000D02*
X232112800Y-163500000D01*
X216112800Y-153500000D02*
X232112800Y-153500000D01*
X216112800Y-163500000D02*
X216112800Y-153500000D01*
X232112800Y-163500000D02*
X216112800Y-163500000D01*
X232112800Y-169500000D02*
X232112800Y-163500000D01*
X216112800Y-169500000D02*
X232112800Y-169500000D01*
X216112800Y-163500000D02*
X216112800Y-169500000D01*
%TO.C,J14*%
X282612800Y-154500000D02*
X298612800Y-154500000D01*
X298612800Y-153500000D02*
X298612800Y-163500000D01*
X282612800Y-153500000D02*
X298612800Y-153500000D01*
X282612800Y-163500000D02*
X282612800Y-153500000D01*
X298612800Y-163500000D02*
X282612800Y-163500000D01*
X298612800Y-169500000D02*
X298612800Y-163500000D01*
X282612800Y-169500000D02*
X298612800Y-169500000D01*
X282612800Y-163500000D02*
X282612800Y-169500000D01*
%TO.C,J13*%
X355112800Y-154500000D02*
X371112800Y-154500000D01*
X371112800Y-153500000D02*
X371112800Y-163500000D01*
X355112800Y-153500000D02*
X371112800Y-153500000D01*
X355112800Y-163500000D02*
X355112800Y-153500000D01*
X371112800Y-163500000D02*
X355112800Y-163500000D01*
X371112800Y-169500000D02*
X371112800Y-163500000D01*
X355112800Y-169500000D02*
X371112800Y-169500000D01*
X355112800Y-163500000D02*
X355112800Y-169500000D01*
%TO.C,J12*%
X65612800Y-154370000D02*
X81612800Y-154370000D01*
X81612800Y-153370000D02*
X81612800Y-163370000D01*
X65612800Y-153370000D02*
X81612800Y-153370000D01*
X65612800Y-163370000D02*
X65612800Y-153370000D01*
X81612800Y-163370000D02*
X65612800Y-163370000D01*
X81612800Y-169370000D02*
X81612800Y-163370000D01*
X65612800Y-169370000D02*
X81612800Y-169370000D01*
X65612800Y-163370000D02*
X65612800Y-169370000D01*
%TO.C,J11*%
X199112800Y-154500000D02*
X215112800Y-154500000D01*
X215112800Y-153500000D02*
X215112800Y-163500000D01*
X199112800Y-153500000D02*
X215112800Y-153500000D01*
X199112800Y-163500000D02*
X199112800Y-153500000D01*
X215112800Y-163500000D02*
X199112800Y-163500000D01*
X215112800Y-169500000D02*
X215112800Y-163500000D01*
X199112800Y-169500000D02*
X215112800Y-169500000D01*
X199112800Y-163500000D02*
X199112800Y-169500000D01*
%TO.C,J10*%
X299612800Y-154500000D02*
X315612800Y-154500000D01*
X315612800Y-153500000D02*
X315612800Y-163500000D01*
X299612800Y-153500000D02*
X315612800Y-153500000D01*
X299612800Y-163500000D02*
X299612800Y-153500000D01*
X315612800Y-163500000D02*
X299612800Y-163500000D01*
X315612800Y-169500000D02*
X315612800Y-163500000D01*
X299612800Y-169500000D02*
X315612800Y-169500000D01*
X299612800Y-163500000D02*
X299612800Y-169500000D01*
%TO.C,J9*%
X372112800Y-154500000D02*
X388112800Y-154500000D01*
X388112800Y-153500000D02*
X388112800Y-163500000D01*
X372112800Y-153500000D02*
X388112800Y-153500000D01*
X372112800Y-163500000D02*
X372112800Y-153500000D01*
X388112800Y-163500000D02*
X372112800Y-163500000D01*
X388112800Y-169500000D02*
X388112800Y-163500000D01*
X372112800Y-169500000D02*
X388112800Y-169500000D01*
X372112800Y-163500000D02*
X372112800Y-169500000D01*
%TO.C,J8*%
X121112800Y-154370000D02*
X137112800Y-154370000D01*
X137112800Y-153370000D02*
X137112800Y-163370000D01*
X121112800Y-153370000D02*
X137112800Y-153370000D01*
X121112800Y-163370000D02*
X121112800Y-153370000D01*
X137112800Y-163370000D02*
X121112800Y-163370000D01*
X137112800Y-169370000D02*
X137112800Y-163370000D01*
X121112800Y-169370000D02*
X137112800Y-169370000D01*
X121112800Y-163370000D02*
X121112800Y-169370000D01*
%TO.C,J7*%
X172112800Y-154500000D02*
X188112800Y-154500000D01*
X188112800Y-153500000D02*
X188112800Y-163500000D01*
X172112800Y-153500000D02*
X188112800Y-153500000D01*
X172112800Y-163500000D02*
X172112800Y-153500000D01*
X188112800Y-163500000D02*
X172112800Y-163500000D01*
X188112800Y-169500000D02*
X188112800Y-163500000D01*
X172112800Y-169500000D02*
X188112800Y-169500000D01*
X172112800Y-163500000D02*
X172112800Y-169500000D01*
%TO.C,J6*%
X338112800Y-154500000D02*
X354112800Y-154500000D01*
X354112800Y-153500000D02*
X354112800Y-163500000D01*
X338112800Y-153500000D02*
X354112800Y-153500000D01*
X338112800Y-163500000D02*
X338112800Y-153500000D01*
X354112800Y-163500000D02*
X338112800Y-163500000D01*
X354112800Y-169500000D02*
X354112800Y-163500000D01*
X338112800Y-169500000D02*
X354112800Y-169500000D01*
X338112800Y-163500000D02*
X338112800Y-169500000D01*
%TO.C,J5*%
X82612800Y-154370000D02*
X98612800Y-154370000D01*
X98612800Y-153370000D02*
X98612800Y-163370000D01*
X82612800Y-153370000D02*
X98612800Y-153370000D01*
X82612800Y-163370000D02*
X82612800Y-153370000D01*
X98612800Y-163370000D02*
X82612800Y-163370000D01*
X98612800Y-169370000D02*
X98612800Y-163370000D01*
X82612800Y-169370000D02*
X98612800Y-169370000D01*
X82612800Y-163370000D02*
X82612800Y-169370000D01*
%TO.C,J4*%
X31612800Y-154370000D02*
X47612800Y-154370000D01*
X47612800Y-153370000D02*
X47612800Y-163370000D01*
X31612800Y-153370000D02*
X47612800Y-153370000D01*
X31612800Y-163370000D02*
X31612800Y-153370000D01*
X47612800Y-163370000D02*
X31612800Y-163370000D01*
X47612800Y-169370000D02*
X47612800Y-163370000D01*
X31612800Y-169370000D02*
X47612800Y-169370000D01*
X31612800Y-163370000D02*
X31612800Y-169370000D01*
%TO.C,J3*%
X138112800Y-154370000D02*
X154112800Y-154370000D01*
X154112800Y-153370000D02*
X154112800Y-163370000D01*
X138112800Y-153370000D02*
X154112800Y-153370000D01*
X138112800Y-163370000D02*
X138112800Y-153370000D01*
X154112800Y-163370000D02*
X138112800Y-163370000D01*
X154112800Y-169370000D02*
X154112800Y-163370000D01*
X138112800Y-169370000D02*
X154112800Y-169370000D01*
X138112800Y-163370000D02*
X138112800Y-169370000D01*
%TO.C,J2*%
X48612800Y-154370000D02*
X64612800Y-154370000D01*
X64612800Y-153370000D02*
X64612800Y-163370000D01*
X48612800Y-153370000D02*
X64612800Y-153370000D01*
X48612800Y-163370000D02*
X48612800Y-153370000D01*
X64612800Y-163370000D02*
X48612800Y-163370000D01*
X64612800Y-169370000D02*
X64612800Y-163370000D01*
X48612800Y-169370000D02*
X64612800Y-169370000D01*
X48612800Y-163370000D02*
X48612800Y-169370000D01*
%TO.C,J1*%
X256335000Y-163300000D02*
X252935000Y-163300000D01*
X256335000Y-156700000D02*
X252935000Y-156700000D01*
X252935000Y-167700000D02*
X252935000Y-152800000D01*
X256335000Y-167700000D02*
X252935000Y-167700000D01*
X256335000Y-152800000D02*
X256335000Y-167700000D01*
X252935000Y-152800000D02*
X253435000Y-152300000D01*
X253435000Y-152300000D02*
X255835000Y-152300000D01*
X255835000Y-152300000D02*
X256335000Y-152800000D01*
%TO.C,TP3*%
X105005000Y-158115000D02*
G75*
G03*
X105005000Y-158115000I-1500000J0D01*
G01*
%TO.C,TP2*%
X118975000Y-158115000D02*
G75*
G03*
X118975000Y-158115000I-1500000J0D01*
G01*
%TO.C,TP1*%
X111990000Y-158115000D02*
G75*
G03*
X111990000Y-158115000I-1500000J0D01*
G01*
%TO.C,J17*%
D10*
X168303276Y-170571428D02*
X169065180Y-170571428D01*
X169398514Y-169952380D02*
X169731847Y-170952380D01*
X170065180Y-169952380D01*
X156303276Y-170571428D02*
X157065180Y-170571428D01*
X156684228Y-170952380D02*
X156684228Y-170190476D01*
X157398514Y-169952380D02*
X157731847Y-170952380D01*
X158065180Y-169952380D01*
%TO.C,J16*%
X402303276Y-170571428D02*
X403065180Y-170571428D01*
X403398514Y-169952380D02*
X403731847Y-170952380D01*
X404065180Y-169952380D01*
X390303276Y-170571428D02*
X391065180Y-170571428D01*
X390684228Y-170952380D02*
X390684228Y-170190476D01*
X391398514Y-169952380D02*
X391731847Y-170952380D01*
X392065180Y-169952380D01*
%TO.C,J15*%
X229303276Y-170571428D02*
X230065180Y-170571428D01*
X230398514Y-169952380D02*
X230731847Y-170952380D01*
X231065180Y-169952380D01*
X217303276Y-170571428D02*
X218065180Y-170571428D01*
X217684228Y-170952380D02*
X217684228Y-170190476D01*
X218398514Y-169952380D02*
X218731847Y-170952380D01*
X219065180Y-169952380D01*
%TO.C,J14*%
X295803276Y-170571428D02*
X296565180Y-170571428D01*
X296898514Y-169952380D02*
X297231847Y-170952380D01*
X297565180Y-169952380D01*
X283803276Y-170571428D02*
X284565180Y-170571428D01*
X284184228Y-170952380D02*
X284184228Y-170190476D01*
X284898514Y-169952380D02*
X285231847Y-170952380D01*
X285565180Y-169952380D01*
%TO.C,J13*%
X368303276Y-170571428D02*
X369065180Y-170571428D01*
X369398514Y-169952380D02*
X369731847Y-170952380D01*
X370065180Y-169952380D01*
X356303276Y-170571428D02*
X357065180Y-170571428D01*
X356684228Y-170952380D02*
X356684228Y-170190476D01*
X357398514Y-169952380D02*
X357731847Y-170952380D01*
X358065180Y-169952380D01*
%TO.C,J12*%
X78803276Y-170441428D02*
X79565180Y-170441428D01*
X79898514Y-169822380D02*
X80231847Y-170822380D01*
X80565180Y-169822380D01*
X66803276Y-170441428D02*
X67565180Y-170441428D01*
X67184228Y-170822380D02*
X67184228Y-170060476D01*
X67898514Y-169822380D02*
X68231847Y-170822380D01*
X68565180Y-169822380D01*
%TO.C,J11*%
X212303276Y-170571428D02*
X213065180Y-170571428D01*
X213398514Y-169952380D02*
X213731847Y-170952380D01*
X214065180Y-169952380D01*
X200303276Y-170571428D02*
X201065180Y-170571428D01*
X200684228Y-170952380D02*
X200684228Y-170190476D01*
X201398514Y-169952380D02*
X201731847Y-170952380D01*
X202065180Y-169952380D01*
%TO.C,J10*%
X312803276Y-170571428D02*
X313565180Y-170571428D01*
X313898514Y-169952380D02*
X314231847Y-170952380D01*
X314565180Y-169952380D01*
X300803276Y-170571428D02*
X301565180Y-170571428D01*
X301184228Y-170952380D02*
X301184228Y-170190476D01*
X301898514Y-169952380D02*
X302231847Y-170952380D01*
X302565180Y-169952380D01*
%TO.C,J9*%
X385303276Y-170571428D02*
X386065180Y-170571428D01*
X386398514Y-169952380D02*
X386731847Y-170952380D01*
X387065180Y-169952380D01*
X373303276Y-170571428D02*
X374065180Y-170571428D01*
X373684228Y-170952380D02*
X373684228Y-170190476D01*
X374398514Y-169952380D02*
X374731847Y-170952380D01*
X375065180Y-169952380D01*
%TO.C,J8*%
X134303276Y-170441428D02*
X135065180Y-170441428D01*
X135398514Y-169822380D02*
X135731847Y-170822380D01*
X136065180Y-169822380D01*
X122303276Y-170441428D02*
X123065180Y-170441428D01*
X122684228Y-170822380D02*
X122684228Y-170060476D01*
X123398514Y-169822380D02*
X123731847Y-170822380D01*
X124065180Y-169822380D01*
%TO.C,J7*%
X185303276Y-170571428D02*
X186065180Y-170571428D01*
X186398514Y-169952380D02*
X186731847Y-170952380D01*
X187065180Y-169952380D01*
X173303276Y-170571428D02*
X174065180Y-170571428D01*
X173684228Y-170952380D02*
X173684228Y-170190476D01*
X174398514Y-169952380D02*
X174731847Y-170952380D01*
X175065180Y-169952380D01*
%TO.C,J6*%
X351303276Y-170571428D02*
X352065180Y-170571428D01*
X352398514Y-169952380D02*
X352731847Y-170952380D01*
X353065180Y-169952380D01*
X339303276Y-170571428D02*
X340065180Y-170571428D01*
X339684228Y-170952380D02*
X339684228Y-170190476D01*
X340398514Y-169952380D02*
X340731847Y-170952380D01*
X341065180Y-169952380D01*
%TO.C,J5*%
X95803276Y-170441428D02*
X96565180Y-170441428D01*
X96898514Y-169822380D02*
X97231847Y-170822380D01*
X97565180Y-169822380D01*
X83803276Y-170441428D02*
X84565180Y-170441428D01*
X84184228Y-170822380D02*
X84184228Y-170060476D01*
X84898514Y-169822380D02*
X85231847Y-170822380D01*
X85565180Y-169822380D01*
%TO.C,J4*%
X44803276Y-170441428D02*
X45565180Y-170441428D01*
X45898514Y-169822380D02*
X46231847Y-170822380D01*
X46565180Y-169822380D01*
X32803276Y-170441428D02*
X33565180Y-170441428D01*
X33184228Y-170822380D02*
X33184228Y-170060476D01*
X33898514Y-169822380D02*
X34231847Y-170822380D01*
X34565180Y-169822380D01*
%TO.C,J3*%
X151303276Y-170441428D02*
X152065180Y-170441428D01*
X152398514Y-169822380D02*
X152731847Y-170822380D01*
X153065180Y-169822380D01*
X139303276Y-170441428D02*
X140065180Y-170441428D01*
X139684228Y-170822380D02*
X139684228Y-170060476D01*
X140398514Y-169822380D02*
X140731847Y-170822380D01*
X141065180Y-169822380D01*
%TO.C,J2*%
X61803276Y-170441428D02*
X62565180Y-170441428D01*
X62898514Y-169822380D02*
X63231847Y-170822380D01*
X63565180Y-169822380D01*
X49803276Y-170441428D02*
X50565180Y-170441428D01*
X50184228Y-170822380D02*
X50184228Y-170060476D01*
X50898514Y-169822380D02*
X51231847Y-170822380D01*
X51565180Y-169822380D01*
%TO.C,J1*%
X253825476Y-164371428D02*
X254587380Y-164371428D01*
X254920714Y-163752380D02*
X255254047Y-164752380D01*
X255587380Y-163752380D01*
X253825476Y-155971428D02*
X254587380Y-155971428D01*
X254206428Y-156352380D02*
X254206428Y-155590476D01*
X254920714Y-155352380D02*
X255254047Y-156352380D01*
X255587380Y-155352380D01*
%TD*%
M02*
