%TF.GenerationSoftware,KiCad,Pcbnew,(5.1.8-0-10_14)*%
%TF.CreationDate,2021-10-31T14:58:14+00:00*%
%TF.ProjectId,4u-boat-power-distrib,34752d62-6f61-4742-9d70-6f7765722d64,r01*%
%TF.SameCoordinates,Original*%
%TF.FileFunction,Copper,L2,Bot*%
%TF.FilePolarity,Positive*%
%FSLAX46Y46*%
G04 Gerber Fmt 4.6, Leading zero omitted, Abs format (unit mm)*
G04 Created by KiCad (PCBNEW (5.1.8-0-10_14)) date 2021-10-31 14:58:14*
%MOMM*%
%LPD*%
G01*
G04 APERTURE LIST*
%TA.AperFunction,ComponentPad*%
%ADD10O,2.794000X3.810000*%
%TD*%
%TA.AperFunction,ComponentPad*%
%ADD11C,5.600000*%
%TD*%
%TA.AperFunction,ComponentPad*%
%ADD12C,2.000000*%
%TD*%
%TA.AperFunction,Conductor*%
%ADD13C,3.175000*%
%TD*%
%TA.AperFunction,Conductor*%
%ADD14C,0.254000*%
%TD*%
%TA.AperFunction,Conductor*%
%ADD15C,0.100000*%
%TD*%
G04 APERTURE END LIST*
D10*
%TO.P,J17,4*%
%TO.N,-12V*%
X169000000Y-166500000D03*
%TO.P,J17,3*%
%TO.N,GND*%
X165037600Y-166500000D03*
%TO.P,J17,2*%
X161075200Y-166500000D03*
%TO.P,J17,1*%
%TO.N,+12V*%
%TA.AperFunction,ComponentPad*%
G36*
G01*
X155715800Y-167706500D02*
X155715800Y-165293500D01*
G75*
G02*
X156414300Y-164595000I698500J0D01*
G01*
X157811300Y-164595000D01*
G75*
G02*
X158509800Y-165293500I0J-698500D01*
G01*
X158509800Y-167706500D01*
G75*
G02*
X157811300Y-168405000I-698500J0D01*
G01*
X156414300Y-168405000D01*
G75*
G02*
X155715800Y-167706500I0J698500D01*
G01*
G37*
%TD.AperFunction*%
%TD*%
%TO.P,J16,4*%
%TO.N,-12V*%
X403000000Y-166500000D03*
%TO.P,J16,3*%
%TO.N,GND*%
X399037600Y-166500000D03*
%TO.P,J16,2*%
X395075200Y-166500000D03*
%TO.P,J16,1*%
%TO.N,+12V*%
%TA.AperFunction,ComponentPad*%
G36*
G01*
X389715800Y-167706500D02*
X389715800Y-165293500D01*
G75*
G02*
X390414300Y-164595000I698500J0D01*
G01*
X391811300Y-164595000D01*
G75*
G02*
X392509800Y-165293500I0J-698500D01*
G01*
X392509800Y-167706500D01*
G75*
G02*
X391811300Y-168405000I-698500J0D01*
G01*
X390414300Y-168405000D01*
G75*
G02*
X389715800Y-167706500I0J698500D01*
G01*
G37*
%TD.AperFunction*%
%TD*%
%TO.P,J15,4*%
%TO.N,-12V*%
X230000000Y-166500000D03*
%TO.P,J15,3*%
%TO.N,GND*%
X226037600Y-166500000D03*
%TO.P,J15,2*%
X222075200Y-166500000D03*
%TO.P,J15,1*%
%TO.N,+12V*%
%TA.AperFunction,ComponentPad*%
G36*
G01*
X216715800Y-167706500D02*
X216715800Y-165293500D01*
G75*
G02*
X217414300Y-164595000I698500J0D01*
G01*
X218811300Y-164595000D01*
G75*
G02*
X219509800Y-165293500I0J-698500D01*
G01*
X219509800Y-167706500D01*
G75*
G02*
X218811300Y-168405000I-698500J0D01*
G01*
X217414300Y-168405000D01*
G75*
G02*
X216715800Y-167706500I0J698500D01*
G01*
G37*
%TD.AperFunction*%
%TD*%
%TO.P,J14,4*%
%TO.N,-12V*%
X296500000Y-166500000D03*
%TO.P,J14,3*%
%TO.N,GND*%
X292537600Y-166500000D03*
%TO.P,J14,2*%
X288575200Y-166500000D03*
%TO.P,J14,1*%
%TO.N,+12V*%
%TA.AperFunction,ComponentPad*%
G36*
G01*
X283215800Y-167706500D02*
X283215800Y-165293500D01*
G75*
G02*
X283914300Y-164595000I698500J0D01*
G01*
X285311300Y-164595000D01*
G75*
G02*
X286009800Y-165293500I0J-698500D01*
G01*
X286009800Y-167706500D01*
G75*
G02*
X285311300Y-168405000I-698500J0D01*
G01*
X283914300Y-168405000D01*
G75*
G02*
X283215800Y-167706500I0J698500D01*
G01*
G37*
%TD.AperFunction*%
%TD*%
%TO.P,J13,4*%
%TO.N,-12V*%
X369000000Y-166500000D03*
%TO.P,J13,3*%
%TO.N,GND*%
X365037600Y-166500000D03*
%TO.P,J13,2*%
X361075200Y-166500000D03*
%TO.P,J13,1*%
%TO.N,+12V*%
%TA.AperFunction,ComponentPad*%
G36*
G01*
X355715800Y-167706500D02*
X355715800Y-165293500D01*
G75*
G02*
X356414300Y-164595000I698500J0D01*
G01*
X357811300Y-164595000D01*
G75*
G02*
X358509800Y-165293500I0J-698500D01*
G01*
X358509800Y-167706500D01*
G75*
G02*
X357811300Y-168405000I-698500J0D01*
G01*
X356414300Y-168405000D01*
G75*
G02*
X355715800Y-167706500I0J698500D01*
G01*
G37*
%TD.AperFunction*%
%TD*%
%TO.P,J12,4*%
%TO.N,-12V*%
X79500000Y-166370000D03*
%TO.P,J12,3*%
%TO.N,GND*%
X75537600Y-166370000D03*
%TO.P,J12,2*%
X71575200Y-166370000D03*
%TO.P,J12,1*%
%TO.N,+12V*%
%TA.AperFunction,ComponentPad*%
G36*
G01*
X66215800Y-167576500D02*
X66215800Y-165163500D01*
G75*
G02*
X66914300Y-164465000I698500J0D01*
G01*
X68311300Y-164465000D01*
G75*
G02*
X69009800Y-165163500I0J-698500D01*
G01*
X69009800Y-167576500D01*
G75*
G02*
X68311300Y-168275000I-698500J0D01*
G01*
X66914300Y-168275000D01*
G75*
G02*
X66215800Y-167576500I0J698500D01*
G01*
G37*
%TD.AperFunction*%
%TD*%
%TO.P,J11,4*%
%TO.N,-12V*%
X213000000Y-166500000D03*
%TO.P,J11,3*%
%TO.N,GND*%
X209037600Y-166500000D03*
%TO.P,J11,2*%
X205075200Y-166500000D03*
%TO.P,J11,1*%
%TO.N,+12V*%
%TA.AperFunction,ComponentPad*%
G36*
G01*
X199715800Y-167706500D02*
X199715800Y-165293500D01*
G75*
G02*
X200414300Y-164595000I698500J0D01*
G01*
X201811300Y-164595000D01*
G75*
G02*
X202509800Y-165293500I0J-698500D01*
G01*
X202509800Y-167706500D01*
G75*
G02*
X201811300Y-168405000I-698500J0D01*
G01*
X200414300Y-168405000D01*
G75*
G02*
X199715800Y-167706500I0J698500D01*
G01*
G37*
%TD.AperFunction*%
%TD*%
%TO.P,J10,4*%
%TO.N,-12V*%
X313500000Y-166500000D03*
%TO.P,J10,3*%
%TO.N,GND*%
X309537600Y-166500000D03*
%TO.P,J10,2*%
X305575200Y-166500000D03*
%TO.P,J10,1*%
%TO.N,+12V*%
%TA.AperFunction,ComponentPad*%
G36*
G01*
X300215800Y-167706500D02*
X300215800Y-165293500D01*
G75*
G02*
X300914300Y-164595000I698500J0D01*
G01*
X302311300Y-164595000D01*
G75*
G02*
X303009800Y-165293500I0J-698500D01*
G01*
X303009800Y-167706500D01*
G75*
G02*
X302311300Y-168405000I-698500J0D01*
G01*
X300914300Y-168405000D01*
G75*
G02*
X300215800Y-167706500I0J698500D01*
G01*
G37*
%TD.AperFunction*%
%TD*%
%TO.P,J9,4*%
%TO.N,-12V*%
X386000000Y-166500000D03*
%TO.P,J9,3*%
%TO.N,GND*%
X382037600Y-166500000D03*
%TO.P,J9,2*%
X378075200Y-166500000D03*
%TO.P,J9,1*%
%TO.N,+12V*%
%TA.AperFunction,ComponentPad*%
G36*
G01*
X372715800Y-167706500D02*
X372715800Y-165293500D01*
G75*
G02*
X373414300Y-164595000I698500J0D01*
G01*
X374811300Y-164595000D01*
G75*
G02*
X375509800Y-165293500I0J-698500D01*
G01*
X375509800Y-167706500D01*
G75*
G02*
X374811300Y-168405000I-698500J0D01*
G01*
X373414300Y-168405000D01*
G75*
G02*
X372715800Y-167706500I0J698500D01*
G01*
G37*
%TD.AperFunction*%
%TD*%
%TO.P,J8,4*%
%TO.N,-12V*%
X135000000Y-166370000D03*
%TO.P,J8,3*%
%TO.N,GND*%
X131037600Y-166370000D03*
%TO.P,J8,2*%
X127075200Y-166370000D03*
%TO.P,J8,1*%
%TO.N,+12V*%
%TA.AperFunction,ComponentPad*%
G36*
G01*
X121715800Y-167576500D02*
X121715800Y-165163500D01*
G75*
G02*
X122414300Y-164465000I698500J0D01*
G01*
X123811300Y-164465000D01*
G75*
G02*
X124509800Y-165163500I0J-698500D01*
G01*
X124509800Y-167576500D01*
G75*
G02*
X123811300Y-168275000I-698500J0D01*
G01*
X122414300Y-168275000D01*
G75*
G02*
X121715800Y-167576500I0J698500D01*
G01*
G37*
%TD.AperFunction*%
%TD*%
%TO.P,J7,4*%
%TO.N,-12V*%
X186000000Y-166500000D03*
%TO.P,J7,3*%
%TO.N,GND*%
X182037600Y-166500000D03*
%TO.P,J7,2*%
X178075200Y-166500000D03*
%TO.P,J7,1*%
%TO.N,+12V*%
%TA.AperFunction,ComponentPad*%
G36*
G01*
X172715800Y-167706500D02*
X172715800Y-165293500D01*
G75*
G02*
X173414300Y-164595000I698500J0D01*
G01*
X174811300Y-164595000D01*
G75*
G02*
X175509800Y-165293500I0J-698500D01*
G01*
X175509800Y-167706500D01*
G75*
G02*
X174811300Y-168405000I-698500J0D01*
G01*
X173414300Y-168405000D01*
G75*
G02*
X172715800Y-167706500I0J698500D01*
G01*
G37*
%TD.AperFunction*%
%TD*%
%TO.P,J6,4*%
%TO.N,-12V*%
X352000000Y-166500000D03*
%TO.P,J6,3*%
%TO.N,GND*%
X348037600Y-166500000D03*
%TO.P,J6,2*%
X344075200Y-166500000D03*
%TO.P,J6,1*%
%TO.N,+12V*%
%TA.AperFunction,ComponentPad*%
G36*
G01*
X338715800Y-167706500D02*
X338715800Y-165293500D01*
G75*
G02*
X339414300Y-164595000I698500J0D01*
G01*
X340811300Y-164595000D01*
G75*
G02*
X341509800Y-165293500I0J-698500D01*
G01*
X341509800Y-167706500D01*
G75*
G02*
X340811300Y-168405000I-698500J0D01*
G01*
X339414300Y-168405000D01*
G75*
G02*
X338715800Y-167706500I0J698500D01*
G01*
G37*
%TD.AperFunction*%
%TD*%
%TO.P,J5,4*%
%TO.N,-12V*%
X96500000Y-166370000D03*
%TO.P,J5,3*%
%TO.N,GND*%
X92537600Y-166370000D03*
%TO.P,J5,2*%
X88575200Y-166370000D03*
%TO.P,J5,1*%
%TO.N,+12V*%
%TA.AperFunction,ComponentPad*%
G36*
G01*
X83215800Y-167576500D02*
X83215800Y-165163500D01*
G75*
G02*
X83914300Y-164465000I698500J0D01*
G01*
X85311300Y-164465000D01*
G75*
G02*
X86009800Y-165163500I0J-698500D01*
G01*
X86009800Y-167576500D01*
G75*
G02*
X85311300Y-168275000I-698500J0D01*
G01*
X83914300Y-168275000D01*
G75*
G02*
X83215800Y-167576500I0J698500D01*
G01*
G37*
%TD.AperFunction*%
%TD*%
%TO.P,J4,4*%
%TO.N,-12V*%
X45500000Y-166370000D03*
%TO.P,J4,3*%
%TO.N,GND*%
X41537600Y-166370000D03*
%TO.P,J4,2*%
X37575200Y-166370000D03*
%TO.P,J4,1*%
%TO.N,+12V*%
%TA.AperFunction,ComponentPad*%
G36*
G01*
X32215800Y-167576500D02*
X32215800Y-165163500D01*
G75*
G02*
X32914300Y-164465000I698500J0D01*
G01*
X34311300Y-164465000D01*
G75*
G02*
X35009800Y-165163500I0J-698500D01*
G01*
X35009800Y-167576500D01*
G75*
G02*
X34311300Y-168275000I-698500J0D01*
G01*
X32914300Y-168275000D01*
G75*
G02*
X32215800Y-167576500I0J698500D01*
G01*
G37*
%TD.AperFunction*%
%TD*%
%TO.P,J3,4*%
%TO.N,-12V*%
X152000000Y-166370000D03*
%TO.P,J3,3*%
%TO.N,GND*%
X148037600Y-166370000D03*
%TO.P,J3,2*%
X144075200Y-166370000D03*
%TO.P,J3,1*%
%TO.N,+12V*%
%TA.AperFunction,ComponentPad*%
G36*
G01*
X138715800Y-167576500D02*
X138715800Y-165163500D01*
G75*
G02*
X139414300Y-164465000I698500J0D01*
G01*
X140811300Y-164465000D01*
G75*
G02*
X141509800Y-165163500I0J-698500D01*
G01*
X141509800Y-167576500D01*
G75*
G02*
X140811300Y-168275000I-698500J0D01*
G01*
X139414300Y-168275000D01*
G75*
G02*
X138715800Y-167576500I0J698500D01*
G01*
G37*
%TD.AperFunction*%
%TD*%
%TO.P,J2,4*%
%TO.N,-12V*%
X62500000Y-166370000D03*
%TO.P,J2,3*%
%TO.N,GND*%
X58537600Y-166370000D03*
%TO.P,J2,2*%
X54575200Y-166370000D03*
%TO.P,J2,1*%
%TO.N,+12V*%
%TA.AperFunction,ComponentPad*%
G36*
G01*
X49215800Y-167576500D02*
X49215800Y-165163500D01*
G75*
G02*
X49914300Y-164465000I698500J0D01*
G01*
X51311300Y-164465000D01*
G75*
G02*
X52009800Y-165163500I0J-698500D01*
G01*
X52009800Y-167576500D01*
G75*
G02*
X51311300Y-168275000I-698500J0D01*
G01*
X49914300Y-168275000D01*
G75*
G02*
X49215800Y-167576500I0J698500D01*
G01*
G37*
%TD.AperFunction*%
%TD*%
D11*
%TO.P,H8,1*%
%TO.N,GND*%
X411480000Y-168275000D03*
%TD*%
%TO.P,H7,1*%
%TO.N,GND*%
X411480000Y-152400000D03*
%TD*%
%TO.P,H6,1*%
%TO.N,GND*%
X243840000Y-168275000D03*
%TD*%
%TO.P,H5,1*%
%TO.N,GND*%
X320040000Y-168275000D03*
%TD*%
%TO.P,H4,1*%
%TO.N,GND*%
X193040000Y-168275000D03*
%TD*%
%TO.P,H3,1*%
%TO.N,GND*%
X116840000Y-168275000D03*
%TD*%
%TO.P,H2,1*%
%TO.N,GND*%
X25400000Y-168275000D03*
%TD*%
%TO.P,H1,1*%
%TO.N,GND*%
X25400000Y-152400000D03*
%TD*%
D12*
%TO.P,J1,4*%
%TO.N,-12V*%
X254635000Y-166000000D03*
%TO.P,J1,3*%
%TO.N,GND*%
X254635000Y-162000000D03*
%TO.P,J1,2*%
X254635000Y-158000000D03*
%TO.P,J1,1*%
%TO.N,+12V*%
%TA.AperFunction,ComponentPad*%
G36*
G01*
X253831000Y-153000000D02*
X255439000Y-153000000D01*
G75*
G02*
X255635000Y-153196000I0J-196000D01*
G01*
X255635000Y-154804000D01*
G75*
G02*
X255439000Y-155000000I-196000J0D01*
G01*
X253831000Y-155000000D01*
G75*
G02*
X253635000Y-154804000I0J196000D01*
G01*
X253635000Y-153196000D01*
G75*
G02*
X253831000Y-153000000I196000J0D01*
G01*
G37*
%TD.AperFunction*%
%TD*%
%TO.P,TP3,1*%
%TO.N,-12V*%
X103505000Y-158115000D03*
%TD*%
%TO.P,TP2,1*%
%TO.N,+12V*%
X117475000Y-158115000D03*
%TD*%
%TO.P,TP1,1*%
%TO.N,GND*%
X110490000Y-158115000D03*
%TD*%
D13*
%TO.N,+12V*%
X391112800Y-156480300D02*
X391112800Y-166500000D01*
X388632500Y-154000000D02*
X391112800Y-156480300D01*
X374112800Y-166500000D02*
X374112800Y-154270700D01*
X374383500Y-154000000D02*
X388632500Y-154000000D01*
X374112800Y-154270700D02*
X374383500Y-154000000D01*
X357112800Y-154674800D02*
X356438000Y-154000000D01*
X357112800Y-166500000D02*
X357112800Y-154674800D01*
X356438000Y-154000000D02*
X374383500Y-154000000D01*
X340112800Y-154069200D02*
X340182000Y-154000000D01*
X340112800Y-166500000D02*
X340112800Y-154069200D01*
X340182000Y-154000000D02*
X356438000Y-154000000D01*
X301612800Y-154634700D02*
X302247500Y-154000000D01*
X302247500Y-154000000D02*
X340182000Y-154000000D01*
X301612800Y-166500000D02*
X301612800Y-154634700D01*
X284612800Y-154247300D02*
X284365500Y-154000000D01*
X284612800Y-166500000D02*
X284612800Y-154247300D01*
X284365500Y-154000000D02*
X302247500Y-154000000D01*
X254635000Y-154000000D02*
X284365500Y-154000000D01*
X36766500Y-153987500D02*
X33612800Y-157141200D01*
X33612800Y-157141200D02*
X33612800Y-166370000D01*
X253635000Y-154000000D02*
X253622500Y-153987500D01*
X254635000Y-154000000D02*
X253635000Y-154000000D01*
X50612800Y-154174700D02*
X50800000Y-153987500D01*
X50800000Y-153987500D02*
X36766500Y-153987500D01*
X50612800Y-166370000D02*
X50612800Y-154174700D01*
X67612800Y-154099800D02*
X67500500Y-153987500D01*
X67612800Y-166370000D02*
X67612800Y-154099800D01*
X67500500Y-153987500D02*
X50800000Y-153987500D01*
X84612800Y-154335800D02*
X84264500Y-153987500D01*
X84612800Y-166370000D02*
X84612800Y-154335800D01*
X84264500Y-153987500D02*
X67500500Y-153987500D01*
X123112800Y-154545300D02*
X122555000Y-153987500D01*
X123112800Y-166370000D02*
X123112800Y-154545300D01*
X140112800Y-154463800D02*
X139636500Y-153987500D01*
X140112800Y-166370000D02*
X140112800Y-154463800D01*
X139636500Y-153987500D02*
X122555000Y-153987500D01*
X157112800Y-166500000D02*
X157112800Y-154862700D01*
X157988000Y-153987500D02*
X139636500Y-153987500D01*
X157112800Y-154862700D02*
X157988000Y-153987500D01*
X174112800Y-154690200D02*
X174815500Y-153987500D01*
X174112800Y-166500000D02*
X174112800Y-154690200D01*
X174815500Y-153987500D02*
X157988000Y-153987500D01*
X201112800Y-153995800D02*
X201104500Y-153987500D01*
X201112800Y-166500000D02*
X201112800Y-153995800D01*
X201104500Y-153987500D02*
X174815500Y-153987500D01*
X218112800Y-154314700D02*
X218440000Y-153987500D01*
X218112800Y-166500000D02*
X218112800Y-154314700D01*
X218440000Y-153987500D02*
X201104500Y-153987500D01*
X253622500Y-153987500D02*
X218440000Y-153987500D01*
X117475000Y-154114500D02*
X117348000Y-153987500D01*
X117475000Y-158115000D02*
X117475000Y-154114500D01*
X117348000Y-153987500D02*
X84264500Y-153987500D01*
X122555000Y-153987500D02*
X117348000Y-153987500D01*
%TD*%
D14*
%TO.N,GND*%
X23163124Y-149983519D02*
X25400000Y-152220395D01*
X27636876Y-149983519D01*
X27568331Y-149885000D01*
X266121738Y-149885000D01*
X266245481Y-150275086D01*
X266269048Y-150330071D01*
X266291841Y-150385372D01*
X266296223Y-150393474D01*
X266296225Y-150393479D01*
X266296228Y-150393483D01*
X266499218Y-150762722D01*
X266533011Y-150812076D01*
X266566116Y-150861903D01*
X266571991Y-150869004D01*
X266842837Y-151191787D01*
X266885587Y-151233650D01*
X266927727Y-151276086D01*
X266934869Y-151281910D01*
X267263253Y-151545937D01*
X267313280Y-151578674D01*
X267362898Y-151612142D01*
X267371035Y-151616468D01*
X267679060Y-151777500D01*
X253858594Y-151777500D01*
X253731678Y-151765000D01*
X253731667Y-151765000D01*
X253622500Y-151754248D01*
X253513333Y-151765000D01*
X218549168Y-151765000D01*
X218440000Y-151754248D01*
X218330833Y-151765000D01*
X201213667Y-151765000D01*
X201104500Y-151754248D01*
X200995333Y-151765000D01*
X174924668Y-151765000D01*
X174815500Y-151754248D01*
X174706332Y-151765000D01*
X158097168Y-151765000D01*
X157988000Y-151754248D01*
X157878832Y-151765000D01*
X139745667Y-151765000D01*
X139636500Y-151754248D01*
X139527333Y-151765000D01*
X122664167Y-151765000D01*
X122555000Y-151754248D01*
X122445833Y-151765000D01*
X117457167Y-151765000D01*
X117348000Y-151754248D01*
X117238833Y-151765000D01*
X84373667Y-151765000D01*
X84264500Y-151754248D01*
X84155333Y-151765000D01*
X67609667Y-151765000D01*
X67500500Y-151754248D01*
X67391333Y-151765000D01*
X50909168Y-151765000D01*
X50800000Y-151754248D01*
X50690833Y-151765000D01*
X36875667Y-151765000D01*
X36766499Y-151754248D01*
X36657331Y-151765000D01*
X36657322Y-151765000D01*
X36330814Y-151797158D01*
X35911871Y-151924243D01*
X35525771Y-152130618D01*
X35479332Y-152168729D01*
X35272155Y-152338755D01*
X35272151Y-152338759D01*
X35187352Y-152408352D01*
X35117759Y-152493151D01*
X32118456Y-155492455D01*
X32033652Y-155562052D01*
X31755918Y-155900471D01*
X31549543Y-156286572D01*
X31422458Y-156705515D01*
X31390300Y-157032023D01*
X31390300Y-157032033D01*
X31379548Y-157141200D01*
X31390300Y-157250368D01*
X31390301Y-166479178D01*
X31422459Y-166805686D01*
X31549544Y-167224629D01*
X31577728Y-167277357D01*
X31577728Y-167576500D01*
X31603410Y-167837252D01*
X31679468Y-168087984D01*
X31802981Y-168319060D01*
X31969201Y-168521599D01*
X32171740Y-168687819D01*
X32402816Y-168811332D01*
X32653548Y-168887390D01*
X32914300Y-168913072D01*
X34311300Y-168913072D01*
X34572052Y-168887390D01*
X34822784Y-168811332D01*
X35053860Y-168687819D01*
X35256399Y-168521599D01*
X35422619Y-168319060D01*
X35546132Y-168087984D01*
X35622190Y-167837252D01*
X35647872Y-167576500D01*
X35647872Y-167508527D01*
X35746478Y-167772945D01*
X35956211Y-168112515D01*
X36228161Y-168404643D01*
X36551877Y-168638103D01*
X36914919Y-168803924D01*
X37132510Y-168861191D01*
X37448200Y-168746940D01*
X37448200Y-166497000D01*
X37702200Y-166497000D01*
X37702200Y-168746940D01*
X38017890Y-168861191D01*
X38235481Y-168803924D01*
X38598523Y-168638103D01*
X38922239Y-168404643D01*
X39194189Y-168112515D01*
X39403922Y-167772945D01*
X39543379Y-167398983D01*
X39556400Y-167318601D01*
X39569421Y-167398983D01*
X39708878Y-167772945D01*
X39918611Y-168112515D01*
X40190561Y-168404643D01*
X40514277Y-168638103D01*
X40877319Y-168803924D01*
X41094910Y-168861191D01*
X41410600Y-168746940D01*
X41410600Y-166497000D01*
X37702200Y-166497000D01*
X37448200Y-166497000D01*
X37428200Y-166497000D01*
X37428200Y-166243000D01*
X37448200Y-166243000D01*
X37448200Y-163993060D01*
X37702200Y-163993060D01*
X37702200Y-166243000D01*
X41410600Y-166243000D01*
X41410600Y-163993060D01*
X41664600Y-163993060D01*
X41664600Y-166243000D01*
X41684600Y-166243000D01*
X41684600Y-166497000D01*
X41664600Y-166497000D01*
X41664600Y-168746940D01*
X41980290Y-168861191D01*
X42197881Y-168803924D01*
X42560923Y-168638103D01*
X42884639Y-168404643D01*
X43156589Y-168112515D01*
X43366322Y-167772945D01*
X43505779Y-167398983D01*
X43515814Y-167337036D01*
X43613594Y-167659375D01*
X43802281Y-168012381D01*
X44056208Y-168321793D01*
X44365620Y-168575720D01*
X44718626Y-168764406D01*
X45101660Y-168880598D01*
X45500000Y-168919831D01*
X45898341Y-168880598D01*
X46281375Y-168764406D01*
X46634381Y-168575720D01*
X46943793Y-168321793D01*
X47197720Y-168012381D01*
X47386406Y-167659375D01*
X47502598Y-167276340D01*
X47532000Y-166977815D01*
X47532000Y-165762184D01*
X47502598Y-165463659D01*
X47386406Y-165080625D01*
X47197720Y-164727619D01*
X46943793Y-164418207D01*
X46634381Y-164164280D01*
X46281374Y-163975594D01*
X45898340Y-163859402D01*
X45500000Y-163820169D01*
X45101659Y-163859402D01*
X44718625Y-163975594D01*
X44365619Y-164164280D01*
X44056207Y-164418207D01*
X43802280Y-164727619D01*
X43613594Y-165080626D01*
X43515814Y-165402964D01*
X43505779Y-165341017D01*
X43366322Y-164967055D01*
X43156589Y-164627485D01*
X42884639Y-164335357D01*
X42560923Y-164101897D01*
X42197881Y-163936076D01*
X41980290Y-163878809D01*
X41664600Y-163993060D01*
X41410600Y-163993060D01*
X41094910Y-163878809D01*
X40877319Y-163936076D01*
X40514277Y-164101897D01*
X40190561Y-164335357D01*
X39918611Y-164627485D01*
X39708878Y-164967055D01*
X39569421Y-165341017D01*
X39556400Y-165421399D01*
X39543379Y-165341017D01*
X39403922Y-164967055D01*
X39194189Y-164627485D01*
X38922239Y-164335357D01*
X38598523Y-164101897D01*
X38235481Y-163936076D01*
X38017890Y-163878809D01*
X37702200Y-163993060D01*
X37448200Y-163993060D01*
X37132510Y-163878809D01*
X36914919Y-163936076D01*
X36551877Y-164101897D01*
X36228161Y-164335357D01*
X35956211Y-164627485D01*
X35835300Y-164823247D01*
X35835300Y-158061789D01*
X37687090Y-156210000D01*
X48390301Y-156210000D01*
X48390300Y-166479177D01*
X48422458Y-166805685D01*
X48549543Y-167224628D01*
X48577728Y-167277358D01*
X48577728Y-167576500D01*
X48603410Y-167837252D01*
X48679468Y-168087984D01*
X48802981Y-168319060D01*
X48969201Y-168521599D01*
X49171740Y-168687819D01*
X49402816Y-168811332D01*
X49653548Y-168887390D01*
X49914300Y-168913072D01*
X51311300Y-168913072D01*
X51572052Y-168887390D01*
X51822784Y-168811332D01*
X52053860Y-168687819D01*
X52256399Y-168521599D01*
X52422619Y-168319060D01*
X52546132Y-168087984D01*
X52622190Y-167837252D01*
X52647872Y-167576500D01*
X52647872Y-167508527D01*
X52746478Y-167772945D01*
X52956211Y-168112515D01*
X53228161Y-168404643D01*
X53551877Y-168638103D01*
X53914919Y-168803924D01*
X54132510Y-168861191D01*
X54448200Y-168746940D01*
X54448200Y-166497000D01*
X54702200Y-166497000D01*
X54702200Y-168746940D01*
X55017890Y-168861191D01*
X55235481Y-168803924D01*
X55598523Y-168638103D01*
X55922239Y-168404643D01*
X56194189Y-168112515D01*
X56403922Y-167772945D01*
X56543379Y-167398983D01*
X56556400Y-167318601D01*
X56569421Y-167398983D01*
X56708878Y-167772945D01*
X56918611Y-168112515D01*
X57190561Y-168404643D01*
X57514277Y-168638103D01*
X57877319Y-168803924D01*
X58094910Y-168861191D01*
X58410600Y-168746940D01*
X58410600Y-166497000D01*
X54702200Y-166497000D01*
X54448200Y-166497000D01*
X54428200Y-166497000D01*
X54428200Y-166243000D01*
X54448200Y-166243000D01*
X54448200Y-163993060D01*
X54702200Y-163993060D01*
X54702200Y-166243000D01*
X58410600Y-166243000D01*
X58410600Y-163993060D01*
X58664600Y-163993060D01*
X58664600Y-166243000D01*
X58684600Y-166243000D01*
X58684600Y-166497000D01*
X58664600Y-166497000D01*
X58664600Y-168746940D01*
X58980290Y-168861191D01*
X59197881Y-168803924D01*
X59560923Y-168638103D01*
X59884639Y-168404643D01*
X60156589Y-168112515D01*
X60366322Y-167772945D01*
X60505779Y-167398983D01*
X60515814Y-167337036D01*
X60613594Y-167659375D01*
X60802281Y-168012381D01*
X61056208Y-168321793D01*
X61365620Y-168575720D01*
X61718626Y-168764406D01*
X62101660Y-168880598D01*
X62500000Y-168919831D01*
X62898341Y-168880598D01*
X63281375Y-168764406D01*
X63634381Y-168575720D01*
X63943793Y-168321793D01*
X64197720Y-168012381D01*
X64386406Y-167659375D01*
X64502598Y-167276340D01*
X64532000Y-166977815D01*
X64532000Y-165762184D01*
X64502598Y-165463659D01*
X64386406Y-165080625D01*
X64197720Y-164727619D01*
X63943793Y-164418207D01*
X63634381Y-164164280D01*
X63281374Y-163975594D01*
X62898340Y-163859402D01*
X62500000Y-163820169D01*
X62101659Y-163859402D01*
X61718625Y-163975594D01*
X61365619Y-164164280D01*
X61056207Y-164418207D01*
X60802280Y-164727619D01*
X60613594Y-165080626D01*
X60515814Y-165402964D01*
X60505779Y-165341017D01*
X60366322Y-164967055D01*
X60156589Y-164627485D01*
X59884639Y-164335357D01*
X59560923Y-164101897D01*
X59197881Y-163936076D01*
X58980290Y-163878809D01*
X58664600Y-163993060D01*
X58410600Y-163993060D01*
X58094910Y-163878809D01*
X57877319Y-163936076D01*
X57514277Y-164101897D01*
X57190561Y-164335357D01*
X56918611Y-164627485D01*
X56708878Y-164967055D01*
X56569421Y-165341017D01*
X56556400Y-165421399D01*
X56543379Y-165341017D01*
X56403922Y-164967055D01*
X56194189Y-164627485D01*
X55922239Y-164335357D01*
X55598523Y-164101897D01*
X55235481Y-163936076D01*
X55017890Y-163878809D01*
X54702200Y-163993060D01*
X54448200Y-163993060D01*
X54132510Y-163878809D01*
X53914919Y-163936076D01*
X53551877Y-164101897D01*
X53228161Y-164335357D01*
X52956211Y-164627485D01*
X52835300Y-164823247D01*
X52835300Y-156210000D01*
X65390301Y-156210000D01*
X65390300Y-166479177D01*
X65422458Y-166805685D01*
X65549543Y-167224628D01*
X65577728Y-167277358D01*
X65577728Y-167576500D01*
X65603410Y-167837252D01*
X65679468Y-168087984D01*
X65802981Y-168319060D01*
X65969201Y-168521599D01*
X66171740Y-168687819D01*
X66402816Y-168811332D01*
X66653548Y-168887390D01*
X66914300Y-168913072D01*
X68311300Y-168913072D01*
X68572052Y-168887390D01*
X68822784Y-168811332D01*
X69053860Y-168687819D01*
X69256399Y-168521599D01*
X69422619Y-168319060D01*
X69546132Y-168087984D01*
X69622190Y-167837252D01*
X69647872Y-167576500D01*
X69647872Y-167508527D01*
X69746478Y-167772945D01*
X69956211Y-168112515D01*
X70228161Y-168404643D01*
X70551877Y-168638103D01*
X70914919Y-168803924D01*
X71132510Y-168861191D01*
X71448200Y-168746940D01*
X71448200Y-166497000D01*
X71702200Y-166497000D01*
X71702200Y-168746940D01*
X72017890Y-168861191D01*
X72235481Y-168803924D01*
X72598523Y-168638103D01*
X72922239Y-168404643D01*
X73194189Y-168112515D01*
X73403922Y-167772945D01*
X73543379Y-167398983D01*
X73556400Y-167318601D01*
X73569421Y-167398983D01*
X73708878Y-167772945D01*
X73918611Y-168112515D01*
X74190561Y-168404643D01*
X74514277Y-168638103D01*
X74877319Y-168803924D01*
X75094910Y-168861191D01*
X75410600Y-168746940D01*
X75410600Y-166497000D01*
X71702200Y-166497000D01*
X71448200Y-166497000D01*
X71428200Y-166497000D01*
X71428200Y-166243000D01*
X71448200Y-166243000D01*
X71448200Y-163993060D01*
X71702200Y-163993060D01*
X71702200Y-166243000D01*
X75410600Y-166243000D01*
X75410600Y-163993060D01*
X75664600Y-163993060D01*
X75664600Y-166243000D01*
X75684600Y-166243000D01*
X75684600Y-166497000D01*
X75664600Y-166497000D01*
X75664600Y-168746940D01*
X75980290Y-168861191D01*
X76197881Y-168803924D01*
X76560923Y-168638103D01*
X76884639Y-168404643D01*
X77156589Y-168112515D01*
X77366322Y-167772945D01*
X77505779Y-167398983D01*
X77515814Y-167337036D01*
X77613594Y-167659375D01*
X77802281Y-168012381D01*
X78056208Y-168321793D01*
X78365620Y-168575720D01*
X78718626Y-168764406D01*
X79101660Y-168880598D01*
X79500000Y-168919831D01*
X79898341Y-168880598D01*
X80281375Y-168764406D01*
X80634381Y-168575720D01*
X80943793Y-168321793D01*
X81197720Y-168012381D01*
X81386406Y-167659375D01*
X81502598Y-167276340D01*
X81532000Y-166977815D01*
X81532000Y-165762184D01*
X81502598Y-165463659D01*
X81386406Y-165080625D01*
X81197720Y-164727619D01*
X80943793Y-164418207D01*
X80634381Y-164164280D01*
X80281374Y-163975594D01*
X79898340Y-163859402D01*
X79500000Y-163820169D01*
X79101659Y-163859402D01*
X78718625Y-163975594D01*
X78365619Y-164164280D01*
X78056207Y-164418207D01*
X77802280Y-164727619D01*
X77613594Y-165080626D01*
X77515814Y-165402964D01*
X77505779Y-165341017D01*
X77366322Y-164967055D01*
X77156589Y-164627485D01*
X76884639Y-164335357D01*
X76560923Y-164101897D01*
X76197881Y-163936076D01*
X75980290Y-163878809D01*
X75664600Y-163993060D01*
X75410600Y-163993060D01*
X75094910Y-163878809D01*
X74877319Y-163936076D01*
X74514277Y-164101897D01*
X74190561Y-164335357D01*
X73918611Y-164627485D01*
X73708878Y-164967055D01*
X73569421Y-165341017D01*
X73556400Y-165421399D01*
X73543379Y-165341017D01*
X73403922Y-164967055D01*
X73194189Y-164627485D01*
X72922239Y-164335357D01*
X72598523Y-164101897D01*
X72235481Y-163936076D01*
X72017890Y-163878809D01*
X71702200Y-163993060D01*
X71448200Y-163993060D01*
X71132510Y-163878809D01*
X70914919Y-163936076D01*
X70551877Y-164101897D01*
X70228161Y-164335357D01*
X69956211Y-164627485D01*
X69835300Y-164823247D01*
X69835300Y-156210000D01*
X82390301Y-156210000D01*
X82390300Y-166479177D01*
X82422458Y-166805685D01*
X82549543Y-167224628D01*
X82577728Y-167277358D01*
X82577728Y-167576500D01*
X82603410Y-167837252D01*
X82679468Y-168087984D01*
X82802981Y-168319060D01*
X82969201Y-168521599D01*
X83171740Y-168687819D01*
X83402816Y-168811332D01*
X83653548Y-168887390D01*
X83914300Y-168913072D01*
X85311300Y-168913072D01*
X85572052Y-168887390D01*
X85822784Y-168811332D01*
X86053860Y-168687819D01*
X86256399Y-168521599D01*
X86422619Y-168319060D01*
X86546132Y-168087984D01*
X86622190Y-167837252D01*
X86647872Y-167576500D01*
X86647872Y-167508527D01*
X86746478Y-167772945D01*
X86956211Y-168112515D01*
X87228161Y-168404643D01*
X87551877Y-168638103D01*
X87914919Y-168803924D01*
X88132510Y-168861191D01*
X88448200Y-168746940D01*
X88448200Y-166497000D01*
X88702200Y-166497000D01*
X88702200Y-168746940D01*
X89017890Y-168861191D01*
X89235481Y-168803924D01*
X89598523Y-168638103D01*
X89922239Y-168404643D01*
X90194189Y-168112515D01*
X90403922Y-167772945D01*
X90543379Y-167398983D01*
X90556400Y-167318601D01*
X90569421Y-167398983D01*
X90708878Y-167772945D01*
X90918611Y-168112515D01*
X91190561Y-168404643D01*
X91514277Y-168638103D01*
X91877319Y-168803924D01*
X92094910Y-168861191D01*
X92410600Y-168746940D01*
X92410600Y-166497000D01*
X88702200Y-166497000D01*
X88448200Y-166497000D01*
X88428200Y-166497000D01*
X88428200Y-166243000D01*
X88448200Y-166243000D01*
X88448200Y-163993060D01*
X88702200Y-163993060D01*
X88702200Y-166243000D01*
X92410600Y-166243000D01*
X92410600Y-163993060D01*
X92664600Y-163993060D01*
X92664600Y-166243000D01*
X92684600Y-166243000D01*
X92684600Y-166497000D01*
X92664600Y-166497000D01*
X92664600Y-168746940D01*
X92980290Y-168861191D01*
X93197881Y-168803924D01*
X93560923Y-168638103D01*
X93884639Y-168404643D01*
X94156589Y-168112515D01*
X94366322Y-167772945D01*
X94505779Y-167398983D01*
X94515814Y-167337036D01*
X94613594Y-167659375D01*
X94802281Y-168012381D01*
X95056208Y-168321793D01*
X95365620Y-168575720D01*
X95718626Y-168764406D01*
X96101660Y-168880598D01*
X96500000Y-168919831D01*
X96898341Y-168880598D01*
X97281375Y-168764406D01*
X97634381Y-168575720D01*
X97943793Y-168321793D01*
X97989183Y-168266484D01*
X113388390Y-168266484D01*
X113453051Y-168940023D01*
X113647870Y-169588006D01*
X113965361Y-170185530D01*
X113974823Y-170199692D01*
X114423519Y-170511876D01*
X116660395Y-168275000D01*
X117019605Y-168275000D01*
X119256481Y-170511876D01*
X119705177Y-170199692D01*
X120025612Y-169603741D01*
X120223626Y-168956727D01*
X120291610Y-168283516D01*
X120226949Y-167609977D01*
X120032130Y-166961994D01*
X119714639Y-166364470D01*
X119705177Y-166350308D01*
X119256481Y-166038124D01*
X117019605Y-168275000D01*
X116660395Y-168275000D01*
X114423519Y-166038124D01*
X113974823Y-166350308D01*
X113654388Y-166946259D01*
X113456374Y-167593273D01*
X113388390Y-168266484D01*
X97989183Y-168266484D01*
X98197720Y-168012381D01*
X98386406Y-167659375D01*
X98502598Y-167276340D01*
X98532000Y-166977815D01*
X98532000Y-165858519D01*
X114603124Y-165858519D01*
X116840000Y-168095395D01*
X119076876Y-165858519D01*
X118764692Y-165409823D01*
X118168741Y-165089388D01*
X117521727Y-164891374D01*
X116848516Y-164823390D01*
X116174977Y-164888051D01*
X115526994Y-165082870D01*
X114929470Y-165400361D01*
X114915308Y-165409823D01*
X114603124Y-165858519D01*
X98532000Y-165858519D01*
X98532000Y-165762184D01*
X98502598Y-165463659D01*
X98386406Y-165080625D01*
X98197720Y-164727619D01*
X97943793Y-164418207D01*
X97634381Y-164164280D01*
X97281374Y-163975594D01*
X96898340Y-163859402D01*
X96500000Y-163820169D01*
X96101659Y-163859402D01*
X95718625Y-163975594D01*
X95365619Y-164164280D01*
X95056207Y-164418207D01*
X94802280Y-164727619D01*
X94613594Y-165080626D01*
X94515814Y-165402964D01*
X94505779Y-165341017D01*
X94366322Y-164967055D01*
X94156589Y-164627485D01*
X93884639Y-164335357D01*
X93560923Y-164101897D01*
X93197881Y-163936076D01*
X92980290Y-163878809D01*
X92664600Y-163993060D01*
X92410600Y-163993060D01*
X92094910Y-163878809D01*
X91877319Y-163936076D01*
X91514277Y-164101897D01*
X91190561Y-164335357D01*
X90918611Y-164627485D01*
X90708878Y-164967055D01*
X90569421Y-165341017D01*
X90556400Y-165421399D01*
X90543379Y-165341017D01*
X90403922Y-164967055D01*
X90194189Y-164627485D01*
X89922239Y-164335357D01*
X89598523Y-164101897D01*
X89235481Y-163936076D01*
X89017890Y-163878809D01*
X88702200Y-163993060D01*
X88448200Y-163993060D01*
X88132510Y-163878809D01*
X87914919Y-163936076D01*
X87551877Y-164101897D01*
X87228161Y-164335357D01*
X86956211Y-164627485D01*
X86835300Y-164823247D01*
X86835300Y-157953967D01*
X101870000Y-157953967D01*
X101870000Y-158276033D01*
X101932832Y-158591912D01*
X102056082Y-158889463D01*
X102235013Y-159157252D01*
X102462748Y-159384987D01*
X102730537Y-159563918D01*
X103028088Y-159687168D01*
X103343967Y-159750000D01*
X103666033Y-159750000D01*
X103981912Y-159687168D01*
X104279463Y-159563918D01*
X104547252Y-159384987D01*
X104681826Y-159250413D01*
X109534192Y-159250413D01*
X109629956Y-159514814D01*
X109919571Y-159655704D01*
X110231108Y-159737384D01*
X110552595Y-159756718D01*
X110871675Y-159712961D01*
X111176088Y-159607795D01*
X111350044Y-159514814D01*
X111445808Y-159250413D01*
X110490000Y-158294605D01*
X109534192Y-159250413D01*
X104681826Y-159250413D01*
X104774987Y-159157252D01*
X104953918Y-158889463D01*
X105077168Y-158591912D01*
X105140000Y-158276033D01*
X105140000Y-158177595D01*
X108848282Y-158177595D01*
X108892039Y-158496675D01*
X108997205Y-158801088D01*
X109090186Y-158975044D01*
X109354587Y-159070808D01*
X110310395Y-158115000D01*
X110669605Y-158115000D01*
X111625413Y-159070808D01*
X111889814Y-158975044D01*
X112030704Y-158685429D01*
X112112384Y-158373892D01*
X112131718Y-158052405D01*
X112087961Y-157733325D01*
X111982795Y-157428912D01*
X111889814Y-157254956D01*
X111625413Y-157159192D01*
X110669605Y-158115000D01*
X110310395Y-158115000D01*
X109354587Y-157159192D01*
X109090186Y-157254956D01*
X108949296Y-157544571D01*
X108867616Y-157856108D01*
X108848282Y-158177595D01*
X105140000Y-158177595D01*
X105140000Y-157953967D01*
X105077168Y-157638088D01*
X104953918Y-157340537D01*
X104774987Y-157072748D01*
X104681826Y-156979587D01*
X109534192Y-156979587D01*
X110490000Y-157935395D01*
X111445808Y-156979587D01*
X111350044Y-156715186D01*
X111060429Y-156574296D01*
X110748892Y-156492616D01*
X110427405Y-156473282D01*
X110108325Y-156517039D01*
X109803912Y-156622205D01*
X109629956Y-156715186D01*
X109534192Y-156979587D01*
X104681826Y-156979587D01*
X104547252Y-156845013D01*
X104279463Y-156666082D01*
X103981912Y-156542832D01*
X103666033Y-156480000D01*
X103343967Y-156480000D01*
X103028088Y-156542832D01*
X102730537Y-156666082D01*
X102462748Y-156845013D01*
X102235013Y-157072748D01*
X102056082Y-157340537D01*
X101932832Y-157638088D01*
X101870000Y-157953967D01*
X86835300Y-157953967D01*
X86835300Y-156210000D01*
X115252500Y-156210000D01*
X115252500Y-158224177D01*
X115284658Y-158550685D01*
X115411743Y-158969628D01*
X115618118Y-159355729D01*
X115895852Y-159694148D01*
X116234271Y-159971882D01*
X116620371Y-160178257D01*
X117039314Y-160305342D01*
X117475000Y-160348253D01*
X117910685Y-160305342D01*
X118329628Y-160178257D01*
X118715729Y-159971882D01*
X119054148Y-159694148D01*
X119331882Y-159355729D01*
X119538257Y-158969629D01*
X119665342Y-158550686D01*
X119697500Y-158224178D01*
X119697500Y-156210000D01*
X120890301Y-156210000D01*
X120890300Y-166479177D01*
X120922458Y-166805685D01*
X121049543Y-167224628D01*
X121077728Y-167277358D01*
X121077728Y-167576500D01*
X121103410Y-167837252D01*
X121179468Y-168087984D01*
X121302981Y-168319060D01*
X121469201Y-168521599D01*
X121671740Y-168687819D01*
X121902816Y-168811332D01*
X122153548Y-168887390D01*
X122414300Y-168913072D01*
X123811300Y-168913072D01*
X124072052Y-168887390D01*
X124322784Y-168811332D01*
X124553860Y-168687819D01*
X124756399Y-168521599D01*
X124922619Y-168319060D01*
X125046132Y-168087984D01*
X125122190Y-167837252D01*
X125147872Y-167576500D01*
X125147872Y-167508527D01*
X125246478Y-167772945D01*
X125456211Y-168112515D01*
X125728161Y-168404643D01*
X126051877Y-168638103D01*
X126414919Y-168803924D01*
X126632510Y-168861191D01*
X126948200Y-168746940D01*
X126948200Y-166497000D01*
X127202200Y-166497000D01*
X127202200Y-168746940D01*
X127517890Y-168861191D01*
X127735481Y-168803924D01*
X128098523Y-168638103D01*
X128422239Y-168404643D01*
X128694189Y-168112515D01*
X128903922Y-167772945D01*
X129043379Y-167398983D01*
X129056400Y-167318601D01*
X129069421Y-167398983D01*
X129208878Y-167772945D01*
X129418611Y-168112515D01*
X129690561Y-168404643D01*
X130014277Y-168638103D01*
X130377319Y-168803924D01*
X130594910Y-168861191D01*
X130910600Y-168746940D01*
X130910600Y-166497000D01*
X127202200Y-166497000D01*
X126948200Y-166497000D01*
X126928200Y-166497000D01*
X126928200Y-166243000D01*
X126948200Y-166243000D01*
X126948200Y-163993060D01*
X127202200Y-163993060D01*
X127202200Y-166243000D01*
X130910600Y-166243000D01*
X130910600Y-163993060D01*
X131164600Y-163993060D01*
X131164600Y-166243000D01*
X131184600Y-166243000D01*
X131184600Y-166497000D01*
X131164600Y-166497000D01*
X131164600Y-168746940D01*
X131480290Y-168861191D01*
X131697881Y-168803924D01*
X132060923Y-168638103D01*
X132384639Y-168404643D01*
X132656589Y-168112515D01*
X132866322Y-167772945D01*
X133005779Y-167398983D01*
X133015814Y-167337036D01*
X133113594Y-167659375D01*
X133302281Y-168012381D01*
X133556208Y-168321793D01*
X133865620Y-168575720D01*
X134218626Y-168764406D01*
X134601660Y-168880598D01*
X135000000Y-168919831D01*
X135398341Y-168880598D01*
X135781375Y-168764406D01*
X136134381Y-168575720D01*
X136443793Y-168321793D01*
X136697720Y-168012381D01*
X136886406Y-167659375D01*
X137002598Y-167276340D01*
X137032000Y-166977815D01*
X137032000Y-165762184D01*
X137002598Y-165463659D01*
X136886406Y-165080625D01*
X136697720Y-164727619D01*
X136443793Y-164418207D01*
X136134381Y-164164280D01*
X135781374Y-163975594D01*
X135398340Y-163859402D01*
X135000000Y-163820169D01*
X134601659Y-163859402D01*
X134218625Y-163975594D01*
X133865619Y-164164280D01*
X133556207Y-164418207D01*
X133302280Y-164727619D01*
X133113594Y-165080626D01*
X133015814Y-165402964D01*
X133005779Y-165341017D01*
X132866322Y-164967055D01*
X132656589Y-164627485D01*
X132384639Y-164335357D01*
X132060923Y-164101897D01*
X131697881Y-163936076D01*
X131480290Y-163878809D01*
X131164600Y-163993060D01*
X130910600Y-163993060D01*
X130594910Y-163878809D01*
X130377319Y-163936076D01*
X130014277Y-164101897D01*
X129690561Y-164335357D01*
X129418611Y-164627485D01*
X129208878Y-164967055D01*
X129069421Y-165341017D01*
X129056400Y-165421399D01*
X129043379Y-165341017D01*
X128903922Y-164967055D01*
X128694189Y-164627485D01*
X128422239Y-164335357D01*
X128098523Y-164101897D01*
X127735481Y-163936076D01*
X127517890Y-163878809D01*
X127202200Y-163993060D01*
X126948200Y-163993060D01*
X126632510Y-163878809D01*
X126414919Y-163936076D01*
X126051877Y-164101897D01*
X125728161Y-164335357D01*
X125456211Y-164627485D01*
X125335300Y-164823247D01*
X125335300Y-156210000D01*
X137890301Y-156210000D01*
X137890300Y-166479177D01*
X137922458Y-166805685D01*
X138049543Y-167224628D01*
X138077728Y-167277358D01*
X138077728Y-167576500D01*
X138103410Y-167837252D01*
X138179468Y-168087984D01*
X138302981Y-168319060D01*
X138469201Y-168521599D01*
X138671740Y-168687819D01*
X138902816Y-168811332D01*
X139153548Y-168887390D01*
X139414300Y-168913072D01*
X140811300Y-168913072D01*
X141072052Y-168887390D01*
X141322784Y-168811332D01*
X141553860Y-168687819D01*
X141756399Y-168521599D01*
X141922619Y-168319060D01*
X142046132Y-168087984D01*
X142122190Y-167837252D01*
X142147872Y-167576500D01*
X142147872Y-167508527D01*
X142246478Y-167772945D01*
X142456211Y-168112515D01*
X142728161Y-168404643D01*
X143051877Y-168638103D01*
X143414919Y-168803924D01*
X143632510Y-168861191D01*
X143948200Y-168746940D01*
X143948200Y-166497000D01*
X144202200Y-166497000D01*
X144202200Y-168746940D01*
X144517890Y-168861191D01*
X144735481Y-168803924D01*
X145098523Y-168638103D01*
X145422239Y-168404643D01*
X145694189Y-168112515D01*
X145903922Y-167772945D01*
X146043379Y-167398983D01*
X146056400Y-167318601D01*
X146069421Y-167398983D01*
X146208878Y-167772945D01*
X146418611Y-168112515D01*
X146690561Y-168404643D01*
X147014277Y-168638103D01*
X147377319Y-168803924D01*
X147594910Y-168861191D01*
X147910600Y-168746940D01*
X147910600Y-166497000D01*
X144202200Y-166497000D01*
X143948200Y-166497000D01*
X143928200Y-166497000D01*
X143928200Y-166243000D01*
X143948200Y-166243000D01*
X143948200Y-163993060D01*
X144202200Y-163993060D01*
X144202200Y-166243000D01*
X147910600Y-166243000D01*
X147910600Y-163993060D01*
X148164600Y-163993060D01*
X148164600Y-166243000D01*
X148184600Y-166243000D01*
X148184600Y-166497000D01*
X148164600Y-166497000D01*
X148164600Y-168746940D01*
X148480290Y-168861191D01*
X148697881Y-168803924D01*
X149060923Y-168638103D01*
X149384639Y-168404643D01*
X149656589Y-168112515D01*
X149866322Y-167772945D01*
X150005779Y-167398983D01*
X150015814Y-167337036D01*
X150113594Y-167659375D01*
X150302281Y-168012381D01*
X150556208Y-168321793D01*
X150865620Y-168575720D01*
X151218626Y-168764406D01*
X151601660Y-168880598D01*
X152000000Y-168919831D01*
X152398341Y-168880598D01*
X152781375Y-168764406D01*
X153134381Y-168575720D01*
X153443793Y-168321793D01*
X153697720Y-168012381D01*
X153886406Y-167659375D01*
X154002598Y-167276340D01*
X154032000Y-166977815D01*
X154032000Y-165762184D01*
X154002598Y-165463659D01*
X153886406Y-165080625D01*
X153697720Y-164727619D01*
X153443793Y-164418207D01*
X153134381Y-164164280D01*
X152781374Y-163975594D01*
X152398340Y-163859402D01*
X152000000Y-163820169D01*
X151601659Y-163859402D01*
X151218625Y-163975594D01*
X150865619Y-164164280D01*
X150556207Y-164418207D01*
X150302280Y-164727619D01*
X150113594Y-165080626D01*
X150015814Y-165402964D01*
X150005779Y-165341017D01*
X149866322Y-164967055D01*
X149656589Y-164627485D01*
X149384639Y-164335357D01*
X149060923Y-164101897D01*
X148697881Y-163936076D01*
X148480290Y-163878809D01*
X148164600Y-163993060D01*
X147910600Y-163993060D01*
X147594910Y-163878809D01*
X147377319Y-163936076D01*
X147014277Y-164101897D01*
X146690561Y-164335357D01*
X146418611Y-164627485D01*
X146208878Y-164967055D01*
X146069421Y-165341017D01*
X146056400Y-165421399D01*
X146043379Y-165341017D01*
X145903922Y-164967055D01*
X145694189Y-164627485D01*
X145422239Y-164335357D01*
X145098523Y-164101897D01*
X144735481Y-163936076D01*
X144517890Y-163878809D01*
X144202200Y-163993060D01*
X143948200Y-163993060D01*
X143632510Y-163878809D01*
X143414919Y-163936076D01*
X143051877Y-164101897D01*
X142728161Y-164335357D01*
X142456211Y-164627485D01*
X142335300Y-164823247D01*
X142335300Y-156210000D01*
X154890301Y-156210000D01*
X154890300Y-166609177D01*
X154922458Y-166935685D01*
X155049543Y-167354628D01*
X155077728Y-167407358D01*
X155077728Y-167706500D01*
X155103410Y-167967252D01*
X155179468Y-168217984D01*
X155302981Y-168449060D01*
X155469201Y-168651599D01*
X155671740Y-168817819D01*
X155902816Y-168941332D01*
X156153548Y-169017390D01*
X156414300Y-169043072D01*
X157811300Y-169043072D01*
X158072052Y-169017390D01*
X158322784Y-168941332D01*
X158553860Y-168817819D01*
X158756399Y-168651599D01*
X158922619Y-168449060D01*
X159046132Y-168217984D01*
X159122190Y-167967252D01*
X159147872Y-167706500D01*
X159147872Y-167638527D01*
X159246478Y-167902945D01*
X159456211Y-168242515D01*
X159728161Y-168534643D01*
X160051877Y-168768103D01*
X160414919Y-168933924D01*
X160632510Y-168991191D01*
X160948200Y-168876940D01*
X160948200Y-166627000D01*
X161202200Y-166627000D01*
X161202200Y-168876940D01*
X161517890Y-168991191D01*
X161735481Y-168933924D01*
X162098523Y-168768103D01*
X162422239Y-168534643D01*
X162694189Y-168242515D01*
X162903922Y-167902945D01*
X163043379Y-167528983D01*
X163056400Y-167448601D01*
X163069421Y-167528983D01*
X163208878Y-167902945D01*
X163418611Y-168242515D01*
X163690561Y-168534643D01*
X164014277Y-168768103D01*
X164377319Y-168933924D01*
X164594910Y-168991191D01*
X164910600Y-168876940D01*
X164910600Y-166627000D01*
X161202200Y-166627000D01*
X160948200Y-166627000D01*
X160928200Y-166627000D01*
X160928200Y-166373000D01*
X160948200Y-166373000D01*
X160948200Y-164123060D01*
X161202200Y-164123060D01*
X161202200Y-166373000D01*
X164910600Y-166373000D01*
X164910600Y-164123060D01*
X165164600Y-164123060D01*
X165164600Y-166373000D01*
X165184600Y-166373000D01*
X165184600Y-166627000D01*
X165164600Y-166627000D01*
X165164600Y-168876940D01*
X165480290Y-168991191D01*
X165697881Y-168933924D01*
X166060923Y-168768103D01*
X166384639Y-168534643D01*
X166656589Y-168242515D01*
X166866322Y-167902945D01*
X167005779Y-167528983D01*
X167015814Y-167467036D01*
X167113594Y-167789375D01*
X167302281Y-168142381D01*
X167556208Y-168451793D01*
X167865620Y-168705720D01*
X168218626Y-168894406D01*
X168601660Y-169010598D01*
X169000000Y-169049831D01*
X169398341Y-169010598D01*
X169781375Y-168894406D01*
X170134381Y-168705720D01*
X170443793Y-168451793D01*
X170697720Y-168142381D01*
X170886406Y-167789375D01*
X171002598Y-167406340D01*
X171032000Y-167107815D01*
X171032000Y-165892184D01*
X171002598Y-165593659D01*
X170886406Y-165210625D01*
X170697720Y-164857619D01*
X170443793Y-164548207D01*
X170134381Y-164294280D01*
X169781374Y-164105594D01*
X169398340Y-163989402D01*
X169000000Y-163950169D01*
X168601659Y-163989402D01*
X168218625Y-164105594D01*
X167865619Y-164294280D01*
X167556207Y-164548207D01*
X167302280Y-164857619D01*
X167113594Y-165210626D01*
X167015814Y-165532964D01*
X167005779Y-165471017D01*
X166866322Y-165097055D01*
X166656589Y-164757485D01*
X166384639Y-164465357D01*
X166060923Y-164231897D01*
X165697881Y-164066076D01*
X165480290Y-164008809D01*
X165164600Y-164123060D01*
X164910600Y-164123060D01*
X164594910Y-164008809D01*
X164377319Y-164066076D01*
X164014277Y-164231897D01*
X163690561Y-164465357D01*
X163418611Y-164757485D01*
X163208878Y-165097055D01*
X163069421Y-165471017D01*
X163056400Y-165551399D01*
X163043379Y-165471017D01*
X162903922Y-165097055D01*
X162694189Y-164757485D01*
X162422239Y-164465357D01*
X162098523Y-164231897D01*
X161735481Y-164066076D01*
X161517890Y-164008809D01*
X161202200Y-164123060D01*
X160948200Y-164123060D01*
X160632510Y-164008809D01*
X160414919Y-164066076D01*
X160051877Y-164231897D01*
X159728161Y-164465357D01*
X159456211Y-164757485D01*
X159335300Y-164953247D01*
X159335300Y-156210000D01*
X171890301Y-156210000D01*
X171890300Y-166609177D01*
X171922458Y-166935685D01*
X172049543Y-167354628D01*
X172077728Y-167407358D01*
X172077728Y-167706500D01*
X172103410Y-167967252D01*
X172179468Y-168217984D01*
X172302981Y-168449060D01*
X172469201Y-168651599D01*
X172671740Y-168817819D01*
X172902816Y-168941332D01*
X173153548Y-169017390D01*
X173414300Y-169043072D01*
X174811300Y-169043072D01*
X175072052Y-169017390D01*
X175322784Y-168941332D01*
X175553860Y-168817819D01*
X175756399Y-168651599D01*
X175922619Y-168449060D01*
X176046132Y-168217984D01*
X176122190Y-167967252D01*
X176147872Y-167706500D01*
X176147872Y-167638527D01*
X176246478Y-167902945D01*
X176456211Y-168242515D01*
X176728161Y-168534643D01*
X177051877Y-168768103D01*
X177414919Y-168933924D01*
X177632510Y-168991191D01*
X177948200Y-168876940D01*
X177948200Y-166627000D01*
X178202200Y-166627000D01*
X178202200Y-168876940D01*
X178517890Y-168991191D01*
X178735481Y-168933924D01*
X179098523Y-168768103D01*
X179422239Y-168534643D01*
X179694189Y-168242515D01*
X179903922Y-167902945D01*
X180043379Y-167528983D01*
X180056400Y-167448601D01*
X180069421Y-167528983D01*
X180208878Y-167902945D01*
X180418611Y-168242515D01*
X180690561Y-168534643D01*
X181014277Y-168768103D01*
X181377319Y-168933924D01*
X181594910Y-168991191D01*
X181910600Y-168876940D01*
X181910600Y-166627000D01*
X178202200Y-166627000D01*
X177948200Y-166627000D01*
X177928200Y-166627000D01*
X177928200Y-166373000D01*
X177948200Y-166373000D01*
X177948200Y-164123060D01*
X178202200Y-164123060D01*
X178202200Y-166373000D01*
X181910600Y-166373000D01*
X181910600Y-164123060D01*
X182164600Y-164123060D01*
X182164600Y-166373000D01*
X182184600Y-166373000D01*
X182184600Y-166627000D01*
X182164600Y-166627000D01*
X182164600Y-168876940D01*
X182480290Y-168991191D01*
X182697881Y-168933924D01*
X183060923Y-168768103D01*
X183384639Y-168534643D01*
X183656589Y-168242515D01*
X183866322Y-167902945D01*
X184005779Y-167528983D01*
X184015814Y-167467036D01*
X184113594Y-167789375D01*
X184302281Y-168142381D01*
X184556208Y-168451793D01*
X184865620Y-168705720D01*
X185218626Y-168894406D01*
X185601660Y-169010598D01*
X186000000Y-169049831D01*
X186398341Y-169010598D01*
X186781375Y-168894406D01*
X187134381Y-168705720D01*
X187443793Y-168451793D01*
X187595871Y-168266484D01*
X189588390Y-168266484D01*
X189653051Y-168940023D01*
X189847870Y-169588006D01*
X190165361Y-170185530D01*
X190174823Y-170199692D01*
X190623519Y-170511876D01*
X192860395Y-168275000D01*
X193219605Y-168275000D01*
X195456481Y-170511876D01*
X195905177Y-170199692D01*
X196225612Y-169603741D01*
X196423626Y-168956727D01*
X196491610Y-168283516D01*
X196426949Y-167609977D01*
X196232130Y-166961994D01*
X195914639Y-166364470D01*
X195905177Y-166350308D01*
X195456481Y-166038124D01*
X193219605Y-168275000D01*
X192860395Y-168275000D01*
X190623519Y-166038124D01*
X190174823Y-166350308D01*
X189854388Y-166946259D01*
X189656374Y-167593273D01*
X189588390Y-168266484D01*
X187595871Y-168266484D01*
X187697720Y-168142381D01*
X187886406Y-167789375D01*
X188002598Y-167406340D01*
X188032000Y-167107815D01*
X188032000Y-165892184D01*
X188028685Y-165858519D01*
X190803124Y-165858519D01*
X193040000Y-168095395D01*
X195276876Y-165858519D01*
X194964692Y-165409823D01*
X194368741Y-165089388D01*
X193721727Y-164891374D01*
X193048516Y-164823390D01*
X192374977Y-164888051D01*
X191726994Y-165082870D01*
X191129470Y-165400361D01*
X191115308Y-165409823D01*
X190803124Y-165858519D01*
X188028685Y-165858519D01*
X188002598Y-165593659D01*
X187886406Y-165210625D01*
X187697720Y-164857619D01*
X187443793Y-164548207D01*
X187134381Y-164294280D01*
X186781374Y-164105594D01*
X186398340Y-163989402D01*
X186000000Y-163950169D01*
X185601659Y-163989402D01*
X185218625Y-164105594D01*
X184865619Y-164294280D01*
X184556207Y-164548207D01*
X184302280Y-164857619D01*
X184113594Y-165210626D01*
X184015814Y-165532964D01*
X184005779Y-165471017D01*
X183866322Y-165097055D01*
X183656589Y-164757485D01*
X183384639Y-164465357D01*
X183060923Y-164231897D01*
X182697881Y-164066076D01*
X182480290Y-164008809D01*
X182164600Y-164123060D01*
X181910600Y-164123060D01*
X181594910Y-164008809D01*
X181377319Y-164066076D01*
X181014277Y-164231897D01*
X180690561Y-164465357D01*
X180418611Y-164757485D01*
X180208878Y-165097055D01*
X180069421Y-165471017D01*
X180056400Y-165551399D01*
X180043379Y-165471017D01*
X179903922Y-165097055D01*
X179694189Y-164757485D01*
X179422239Y-164465357D01*
X179098523Y-164231897D01*
X178735481Y-164066076D01*
X178517890Y-164008809D01*
X178202200Y-164123060D01*
X177948200Y-164123060D01*
X177632510Y-164008809D01*
X177414919Y-164066076D01*
X177051877Y-164231897D01*
X176728161Y-164465357D01*
X176456211Y-164757485D01*
X176335300Y-164953247D01*
X176335300Y-156210000D01*
X198890301Y-156210000D01*
X198890300Y-166609177D01*
X198922458Y-166935685D01*
X199049543Y-167354628D01*
X199077728Y-167407358D01*
X199077728Y-167706500D01*
X199103410Y-167967252D01*
X199179468Y-168217984D01*
X199302981Y-168449060D01*
X199469201Y-168651599D01*
X199671740Y-168817819D01*
X199902816Y-168941332D01*
X200153548Y-169017390D01*
X200414300Y-169043072D01*
X201811300Y-169043072D01*
X202072052Y-169017390D01*
X202322784Y-168941332D01*
X202553860Y-168817819D01*
X202756399Y-168651599D01*
X202922619Y-168449060D01*
X203046132Y-168217984D01*
X203122190Y-167967252D01*
X203147872Y-167706500D01*
X203147872Y-167638527D01*
X203246478Y-167902945D01*
X203456211Y-168242515D01*
X203728161Y-168534643D01*
X204051877Y-168768103D01*
X204414919Y-168933924D01*
X204632510Y-168991191D01*
X204948200Y-168876940D01*
X204948200Y-166627000D01*
X205202200Y-166627000D01*
X205202200Y-168876940D01*
X205517890Y-168991191D01*
X205735481Y-168933924D01*
X206098523Y-168768103D01*
X206422239Y-168534643D01*
X206694189Y-168242515D01*
X206903922Y-167902945D01*
X207043379Y-167528983D01*
X207056400Y-167448601D01*
X207069421Y-167528983D01*
X207208878Y-167902945D01*
X207418611Y-168242515D01*
X207690561Y-168534643D01*
X208014277Y-168768103D01*
X208377319Y-168933924D01*
X208594910Y-168991191D01*
X208910600Y-168876940D01*
X208910600Y-166627000D01*
X205202200Y-166627000D01*
X204948200Y-166627000D01*
X204928200Y-166627000D01*
X204928200Y-166373000D01*
X204948200Y-166373000D01*
X204948200Y-164123060D01*
X205202200Y-164123060D01*
X205202200Y-166373000D01*
X208910600Y-166373000D01*
X208910600Y-164123060D01*
X209164600Y-164123060D01*
X209164600Y-166373000D01*
X209184600Y-166373000D01*
X209184600Y-166627000D01*
X209164600Y-166627000D01*
X209164600Y-168876940D01*
X209480290Y-168991191D01*
X209697881Y-168933924D01*
X210060923Y-168768103D01*
X210384639Y-168534643D01*
X210656589Y-168242515D01*
X210866322Y-167902945D01*
X211005779Y-167528983D01*
X211015814Y-167467036D01*
X211113594Y-167789375D01*
X211302281Y-168142381D01*
X211556208Y-168451793D01*
X211865620Y-168705720D01*
X212218626Y-168894406D01*
X212601660Y-169010598D01*
X213000000Y-169049831D01*
X213398341Y-169010598D01*
X213781375Y-168894406D01*
X214134381Y-168705720D01*
X214443793Y-168451793D01*
X214697720Y-168142381D01*
X214886406Y-167789375D01*
X215002598Y-167406340D01*
X215032000Y-167107815D01*
X215032000Y-165892184D01*
X215002598Y-165593659D01*
X214886406Y-165210625D01*
X214697720Y-164857619D01*
X214443793Y-164548207D01*
X214134381Y-164294280D01*
X213781374Y-164105594D01*
X213398340Y-163989402D01*
X213000000Y-163950169D01*
X212601659Y-163989402D01*
X212218625Y-164105594D01*
X211865619Y-164294280D01*
X211556207Y-164548207D01*
X211302280Y-164857619D01*
X211113594Y-165210626D01*
X211015814Y-165532964D01*
X211005779Y-165471017D01*
X210866322Y-165097055D01*
X210656589Y-164757485D01*
X210384639Y-164465357D01*
X210060923Y-164231897D01*
X209697881Y-164066076D01*
X209480290Y-164008809D01*
X209164600Y-164123060D01*
X208910600Y-164123060D01*
X208594910Y-164008809D01*
X208377319Y-164066076D01*
X208014277Y-164231897D01*
X207690561Y-164465357D01*
X207418611Y-164757485D01*
X207208878Y-165097055D01*
X207069421Y-165471017D01*
X207056400Y-165551399D01*
X207043379Y-165471017D01*
X206903922Y-165097055D01*
X206694189Y-164757485D01*
X206422239Y-164465357D01*
X206098523Y-164231897D01*
X205735481Y-164066076D01*
X205517890Y-164008809D01*
X205202200Y-164123060D01*
X204948200Y-164123060D01*
X204632510Y-164008809D01*
X204414919Y-164066076D01*
X204051877Y-164231897D01*
X203728161Y-164465357D01*
X203456211Y-164757485D01*
X203335300Y-164953247D01*
X203335300Y-156210000D01*
X215890301Y-156210000D01*
X215890300Y-166609177D01*
X215922458Y-166935685D01*
X216049543Y-167354628D01*
X216077728Y-167407358D01*
X216077728Y-167706500D01*
X216103410Y-167967252D01*
X216179468Y-168217984D01*
X216302981Y-168449060D01*
X216469201Y-168651599D01*
X216671740Y-168817819D01*
X216902816Y-168941332D01*
X217153548Y-169017390D01*
X217414300Y-169043072D01*
X218811300Y-169043072D01*
X219072052Y-169017390D01*
X219322784Y-168941332D01*
X219553860Y-168817819D01*
X219756399Y-168651599D01*
X219922619Y-168449060D01*
X220046132Y-168217984D01*
X220122190Y-167967252D01*
X220147872Y-167706500D01*
X220147872Y-167638527D01*
X220246478Y-167902945D01*
X220456211Y-168242515D01*
X220728161Y-168534643D01*
X221051877Y-168768103D01*
X221414919Y-168933924D01*
X221632510Y-168991191D01*
X221948200Y-168876940D01*
X221948200Y-166627000D01*
X222202200Y-166627000D01*
X222202200Y-168876940D01*
X222517890Y-168991191D01*
X222735481Y-168933924D01*
X223098523Y-168768103D01*
X223422239Y-168534643D01*
X223694189Y-168242515D01*
X223903922Y-167902945D01*
X224043379Y-167528983D01*
X224056400Y-167448601D01*
X224069421Y-167528983D01*
X224208878Y-167902945D01*
X224418611Y-168242515D01*
X224690561Y-168534643D01*
X225014277Y-168768103D01*
X225377319Y-168933924D01*
X225594910Y-168991191D01*
X225910600Y-168876940D01*
X225910600Y-166627000D01*
X222202200Y-166627000D01*
X221948200Y-166627000D01*
X221928200Y-166627000D01*
X221928200Y-166373000D01*
X221948200Y-166373000D01*
X221948200Y-164123060D01*
X222202200Y-164123060D01*
X222202200Y-166373000D01*
X225910600Y-166373000D01*
X225910600Y-164123060D01*
X226164600Y-164123060D01*
X226164600Y-166373000D01*
X226184600Y-166373000D01*
X226184600Y-166627000D01*
X226164600Y-166627000D01*
X226164600Y-168876940D01*
X226480290Y-168991191D01*
X226697881Y-168933924D01*
X227060923Y-168768103D01*
X227384639Y-168534643D01*
X227656589Y-168242515D01*
X227866322Y-167902945D01*
X228005779Y-167528983D01*
X228015814Y-167467036D01*
X228113594Y-167789375D01*
X228302281Y-168142381D01*
X228556208Y-168451793D01*
X228865620Y-168705720D01*
X229218626Y-168894406D01*
X229601660Y-169010598D01*
X230000000Y-169049831D01*
X230398341Y-169010598D01*
X230781375Y-168894406D01*
X231134381Y-168705720D01*
X231443793Y-168451793D01*
X231595871Y-168266484D01*
X240388390Y-168266484D01*
X240453051Y-168940023D01*
X240647870Y-169588006D01*
X240965361Y-170185530D01*
X240974823Y-170199692D01*
X241423519Y-170511876D01*
X243660395Y-168275000D01*
X244019605Y-168275000D01*
X246256481Y-170511876D01*
X246705177Y-170199692D01*
X247025612Y-169603741D01*
X247223626Y-168956727D01*
X247291610Y-168283516D01*
X247226949Y-167609977D01*
X247032130Y-166961994D01*
X246714639Y-166364470D01*
X246705177Y-166350308D01*
X246256481Y-166038124D01*
X244019605Y-168275000D01*
X243660395Y-168275000D01*
X241423519Y-166038124D01*
X240974823Y-166350308D01*
X240654388Y-166946259D01*
X240456374Y-167593273D01*
X240388390Y-168266484D01*
X231595871Y-168266484D01*
X231697720Y-168142381D01*
X231886406Y-167789375D01*
X232002598Y-167406340D01*
X232032000Y-167107815D01*
X232032000Y-165892184D01*
X232028685Y-165858519D01*
X241603124Y-165858519D01*
X243840000Y-168095395D01*
X246076876Y-165858519D01*
X246063273Y-165838967D01*
X253000000Y-165838967D01*
X253000000Y-166161033D01*
X253062832Y-166476912D01*
X253186082Y-166774463D01*
X253365013Y-167042252D01*
X253592748Y-167269987D01*
X253860537Y-167448918D01*
X254158088Y-167572168D01*
X254473967Y-167635000D01*
X254796033Y-167635000D01*
X255111912Y-167572168D01*
X255409463Y-167448918D01*
X255677252Y-167269987D01*
X255904987Y-167042252D01*
X256083918Y-166774463D01*
X256207168Y-166476912D01*
X256270000Y-166161033D01*
X256270000Y-165838967D01*
X256207168Y-165523088D01*
X256083918Y-165225537D01*
X255904987Y-164957748D01*
X255677252Y-164730013D01*
X255409463Y-164551082D01*
X255111912Y-164427832D01*
X254796033Y-164365000D01*
X254473967Y-164365000D01*
X254158088Y-164427832D01*
X253860537Y-164551082D01*
X253592748Y-164730013D01*
X253365013Y-164957748D01*
X253186082Y-165225537D01*
X253062832Y-165523088D01*
X253000000Y-165838967D01*
X246063273Y-165838967D01*
X245764692Y-165409823D01*
X245168741Y-165089388D01*
X244521727Y-164891374D01*
X243848516Y-164823390D01*
X243174977Y-164888051D01*
X242526994Y-165082870D01*
X241929470Y-165400361D01*
X241915308Y-165409823D01*
X241603124Y-165858519D01*
X232028685Y-165858519D01*
X232002598Y-165593659D01*
X231886406Y-165210625D01*
X231697720Y-164857619D01*
X231443793Y-164548207D01*
X231134381Y-164294280D01*
X230781374Y-164105594D01*
X230398340Y-163989402D01*
X230000000Y-163950169D01*
X229601659Y-163989402D01*
X229218625Y-164105594D01*
X228865619Y-164294280D01*
X228556207Y-164548207D01*
X228302280Y-164857619D01*
X228113594Y-165210626D01*
X228015814Y-165532964D01*
X228005779Y-165471017D01*
X227866322Y-165097055D01*
X227656589Y-164757485D01*
X227384639Y-164465357D01*
X227060923Y-164231897D01*
X226697881Y-164066076D01*
X226480290Y-164008809D01*
X226164600Y-164123060D01*
X225910600Y-164123060D01*
X225594910Y-164008809D01*
X225377319Y-164066076D01*
X225014277Y-164231897D01*
X224690561Y-164465357D01*
X224418611Y-164757485D01*
X224208878Y-165097055D01*
X224069421Y-165471017D01*
X224056400Y-165551399D01*
X224043379Y-165471017D01*
X223903922Y-165097055D01*
X223694189Y-164757485D01*
X223422239Y-164465357D01*
X223098523Y-164231897D01*
X222735481Y-164066076D01*
X222517890Y-164008809D01*
X222202200Y-164123060D01*
X221948200Y-164123060D01*
X221632510Y-164008809D01*
X221414919Y-164066076D01*
X221051877Y-164231897D01*
X220728161Y-164465357D01*
X220456211Y-164757485D01*
X220335300Y-164953247D01*
X220335300Y-163135413D01*
X253679192Y-163135413D01*
X253774956Y-163399814D01*
X254064571Y-163540704D01*
X254376108Y-163622384D01*
X254697595Y-163641718D01*
X255016675Y-163597961D01*
X255321088Y-163492795D01*
X255495044Y-163399814D01*
X255590808Y-163135413D01*
X254635000Y-162179605D01*
X253679192Y-163135413D01*
X220335300Y-163135413D01*
X220335300Y-162062595D01*
X252993282Y-162062595D01*
X253037039Y-162381675D01*
X253142205Y-162686088D01*
X253235186Y-162860044D01*
X253499587Y-162955808D01*
X254455395Y-162000000D01*
X254814605Y-162000000D01*
X255770413Y-162955808D01*
X256034814Y-162860044D01*
X256175704Y-162570429D01*
X256257384Y-162258892D01*
X256276718Y-161937405D01*
X256232961Y-161618325D01*
X256127795Y-161313912D01*
X256034814Y-161139956D01*
X255770413Y-161044192D01*
X254814605Y-162000000D01*
X254455395Y-162000000D01*
X253499587Y-161044192D01*
X253235186Y-161139956D01*
X253094296Y-161429571D01*
X253012616Y-161741108D01*
X252993282Y-162062595D01*
X220335300Y-162062595D01*
X220335300Y-160864587D01*
X253679192Y-160864587D01*
X254635000Y-161820395D01*
X255590808Y-160864587D01*
X255495044Y-160600186D01*
X255205429Y-160459296D01*
X254893892Y-160377616D01*
X254572405Y-160358282D01*
X254253325Y-160402039D01*
X253948912Y-160507205D01*
X253774956Y-160600186D01*
X253679192Y-160864587D01*
X220335300Y-160864587D01*
X220335300Y-159135413D01*
X253679192Y-159135413D01*
X253774956Y-159399814D01*
X254064571Y-159540704D01*
X254376108Y-159622384D01*
X254697595Y-159641718D01*
X255016675Y-159597961D01*
X255321088Y-159492795D01*
X255495044Y-159399814D01*
X255590808Y-159135413D01*
X254635000Y-158179605D01*
X253679192Y-159135413D01*
X220335300Y-159135413D01*
X220335300Y-158062595D01*
X252993282Y-158062595D01*
X253037039Y-158381675D01*
X253142205Y-158686088D01*
X253235186Y-158860044D01*
X253499587Y-158955808D01*
X254455395Y-158000000D01*
X254814605Y-158000000D01*
X255770413Y-158955808D01*
X256034814Y-158860044D01*
X256175704Y-158570429D01*
X256257384Y-158258892D01*
X256276718Y-157937405D01*
X256232961Y-157618325D01*
X256127795Y-157313912D01*
X256034814Y-157139956D01*
X255770413Y-157044192D01*
X254814605Y-158000000D01*
X254455395Y-158000000D01*
X253499587Y-157044192D01*
X253235186Y-157139956D01*
X253094296Y-157429571D01*
X253012616Y-157741108D01*
X252993282Y-158062595D01*
X220335300Y-158062595D01*
X220335300Y-156864587D01*
X253679192Y-156864587D01*
X254635000Y-157820395D01*
X255590808Y-156864587D01*
X255495044Y-156600186D01*
X255205429Y-156459296D01*
X254893892Y-156377616D01*
X254572405Y-156358282D01*
X254253325Y-156402039D01*
X253948912Y-156507205D01*
X253774956Y-156600186D01*
X253679192Y-156864587D01*
X220335300Y-156864587D01*
X220335300Y-156210000D01*
X253398906Y-156210000D01*
X253525822Y-156222500D01*
X253525833Y-156222500D01*
X253635000Y-156233252D01*
X253744168Y-156222500D01*
X282390301Y-156222500D01*
X282390300Y-166609177D01*
X282422458Y-166935685D01*
X282549543Y-167354628D01*
X282577728Y-167407358D01*
X282577728Y-167706500D01*
X282603410Y-167967252D01*
X282679468Y-168217984D01*
X282802981Y-168449060D01*
X282969201Y-168651599D01*
X283171740Y-168817819D01*
X283402816Y-168941332D01*
X283653548Y-169017390D01*
X283914300Y-169043072D01*
X285311300Y-169043072D01*
X285572052Y-169017390D01*
X285822784Y-168941332D01*
X286053860Y-168817819D01*
X286256399Y-168651599D01*
X286422619Y-168449060D01*
X286546132Y-168217984D01*
X286622190Y-167967252D01*
X286647872Y-167706500D01*
X286647872Y-167638527D01*
X286746478Y-167902945D01*
X286956211Y-168242515D01*
X287228161Y-168534643D01*
X287551877Y-168768103D01*
X287914919Y-168933924D01*
X288132510Y-168991191D01*
X288448200Y-168876940D01*
X288448200Y-166627000D01*
X288702200Y-166627000D01*
X288702200Y-168876940D01*
X289017890Y-168991191D01*
X289235481Y-168933924D01*
X289598523Y-168768103D01*
X289922239Y-168534643D01*
X290194189Y-168242515D01*
X290403922Y-167902945D01*
X290543379Y-167528983D01*
X290556400Y-167448601D01*
X290569421Y-167528983D01*
X290708878Y-167902945D01*
X290918611Y-168242515D01*
X291190561Y-168534643D01*
X291514277Y-168768103D01*
X291877319Y-168933924D01*
X292094910Y-168991191D01*
X292410600Y-168876940D01*
X292410600Y-166627000D01*
X288702200Y-166627000D01*
X288448200Y-166627000D01*
X288428200Y-166627000D01*
X288428200Y-166373000D01*
X288448200Y-166373000D01*
X288448200Y-164123060D01*
X288702200Y-164123060D01*
X288702200Y-166373000D01*
X292410600Y-166373000D01*
X292410600Y-164123060D01*
X292664600Y-164123060D01*
X292664600Y-166373000D01*
X292684600Y-166373000D01*
X292684600Y-166627000D01*
X292664600Y-166627000D01*
X292664600Y-168876940D01*
X292980290Y-168991191D01*
X293197881Y-168933924D01*
X293560923Y-168768103D01*
X293884639Y-168534643D01*
X294156589Y-168242515D01*
X294366322Y-167902945D01*
X294505779Y-167528983D01*
X294515814Y-167467036D01*
X294613594Y-167789375D01*
X294802281Y-168142381D01*
X295056208Y-168451793D01*
X295365620Y-168705720D01*
X295718626Y-168894406D01*
X296101660Y-169010598D01*
X296500000Y-169049831D01*
X296898341Y-169010598D01*
X297281375Y-168894406D01*
X297634381Y-168705720D01*
X297943793Y-168451793D01*
X298197720Y-168142381D01*
X298386406Y-167789375D01*
X298502598Y-167406340D01*
X298532000Y-167107815D01*
X298532000Y-165892184D01*
X298502598Y-165593659D01*
X298386406Y-165210625D01*
X298197720Y-164857619D01*
X297943793Y-164548207D01*
X297634381Y-164294280D01*
X297281374Y-164105594D01*
X296898340Y-163989402D01*
X296500000Y-163950169D01*
X296101659Y-163989402D01*
X295718625Y-164105594D01*
X295365619Y-164294280D01*
X295056207Y-164548207D01*
X294802280Y-164857619D01*
X294613594Y-165210626D01*
X294515814Y-165532964D01*
X294505779Y-165471017D01*
X294366322Y-165097055D01*
X294156589Y-164757485D01*
X293884639Y-164465357D01*
X293560923Y-164231897D01*
X293197881Y-164066076D01*
X292980290Y-164008809D01*
X292664600Y-164123060D01*
X292410600Y-164123060D01*
X292094910Y-164008809D01*
X291877319Y-164066076D01*
X291514277Y-164231897D01*
X291190561Y-164465357D01*
X290918611Y-164757485D01*
X290708878Y-165097055D01*
X290569421Y-165471017D01*
X290556400Y-165551399D01*
X290543379Y-165471017D01*
X290403922Y-165097055D01*
X290194189Y-164757485D01*
X289922239Y-164465357D01*
X289598523Y-164231897D01*
X289235481Y-164066076D01*
X289017890Y-164008809D01*
X288702200Y-164123060D01*
X288448200Y-164123060D01*
X288132510Y-164008809D01*
X287914919Y-164066076D01*
X287551877Y-164231897D01*
X287228161Y-164465357D01*
X286956211Y-164757485D01*
X286835300Y-164953247D01*
X286835300Y-156222500D01*
X299390301Y-156222500D01*
X299390300Y-166609177D01*
X299422458Y-166935685D01*
X299549543Y-167354628D01*
X299577728Y-167407358D01*
X299577728Y-167706500D01*
X299603410Y-167967252D01*
X299679468Y-168217984D01*
X299802981Y-168449060D01*
X299969201Y-168651599D01*
X300171740Y-168817819D01*
X300402816Y-168941332D01*
X300653548Y-169017390D01*
X300914300Y-169043072D01*
X302311300Y-169043072D01*
X302572052Y-169017390D01*
X302822784Y-168941332D01*
X303053860Y-168817819D01*
X303256399Y-168651599D01*
X303422619Y-168449060D01*
X303546132Y-168217984D01*
X303622190Y-167967252D01*
X303647872Y-167706500D01*
X303647872Y-167638527D01*
X303746478Y-167902945D01*
X303956211Y-168242515D01*
X304228161Y-168534643D01*
X304551877Y-168768103D01*
X304914919Y-168933924D01*
X305132510Y-168991191D01*
X305448200Y-168876940D01*
X305448200Y-166627000D01*
X305702200Y-166627000D01*
X305702200Y-168876940D01*
X306017890Y-168991191D01*
X306235481Y-168933924D01*
X306598523Y-168768103D01*
X306922239Y-168534643D01*
X307194189Y-168242515D01*
X307403922Y-167902945D01*
X307543379Y-167528983D01*
X307556400Y-167448601D01*
X307569421Y-167528983D01*
X307708878Y-167902945D01*
X307918611Y-168242515D01*
X308190561Y-168534643D01*
X308514277Y-168768103D01*
X308877319Y-168933924D01*
X309094910Y-168991191D01*
X309410600Y-168876940D01*
X309410600Y-166627000D01*
X305702200Y-166627000D01*
X305448200Y-166627000D01*
X305428200Y-166627000D01*
X305428200Y-166373000D01*
X305448200Y-166373000D01*
X305448200Y-164123060D01*
X305702200Y-164123060D01*
X305702200Y-166373000D01*
X309410600Y-166373000D01*
X309410600Y-164123060D01*
X309664600Y-164123060D01*
X309664600Y-166373000D01*
X309684600Y-166373000D01*
X309684600Y-166627000D01*
X309664600Y-166627000D01*
X309664600Y-168876940D01*
X309980290Y-168991191D01*
X310197881Y-168933924D01*
X310560923Y-168768103D01*
X310884639Y-168534643D01*
X311156589Y-168242515D01*
X311366322Y-167902945D01*
X311505779Y-167528983D01*
X311515814Y-167467036D01*
X311613594Y-167789375D01*
X311802281Y-168142381D01*
X312056208Y-168451793D01*
X312365620Y-168705720D01*
X312718626Y-168894406D01*
X313101660Y-169010598D01*
X313500000Y-169049831D01*
X313898341Y-169010598D01*
X314281375Y-168894406D01*
X314634381Y-168705720D01*
X314943793Y-168451793D01*
X315095871Y-168266484D01*
X316588390Y-168266484D01*
X316653051Y-168940023D01*
X316847870Y-169588006D01*
X317165361Y-170185530D01*
X317174823Y-170199692D01*
X317623519Y-170511876D01*
X319860395Y-168275000D01*
X320219605Y-168275000D01*
X322456481Y-170511876D01*
X322905177Y-170199692D01*
X323225612Y-169603741D01*
X323423626Y-168956727D01*
X323491610Y-168283516D01*
X323426949Y-167609977D01*
X323232130Y-166961994D01*
X322914639Y-166364470D01*
X322905177Y-166350308D01*
X322456481Y-166038124D01*
X320219605Y-168275000D01*
X319860395Y-168275000D01*
X317623519Y-166038124D01*
X317174823Y-166350308D01*
X316854388Y-166946259D01*
X316656374Y-167593273D01*
X316588390Y-168266484D01*
X315095871Y-168266484D01*
X315197720Y-168142381D01*
X315386406Y-167789375D01*
X315502598Y-167406340D01*
X315532000Y-167107815D01*
X315532000Y-165892184D01*
X315528685Y-165858519D01*
X317803124Y-165858519D01*
X320040000Y-168095395D01*
X322276876Y-165858519D01*
X321964692Y-165409823D01*
X321368741Y-165089388D01*
X320721727Y-164891374D01*
X320048516Y-164823390D01*
X319374977Y-164888051D01*
X318726994Y-165082870D01*
X318129470Y-165400361D01*
X318115308Y-165409823D01*
X317803124Y-165858519D01*
X315528685Y-165858519D01*
X315502598Y-165593659D01*
X315386406Y-165210625D01*
X315197720Y-164857619D01*
X314943793Y-164548207D01*
X314634381Y-164294280D01*
X314281374Y-164105594D01*
X313898340Y-163989402D01*
X313500000Y-163950169D01*
X313101659Y-163989402D01*
X312718625Y-164105594D01*
X312365619Y-164294280D01*
X312056207Y-164548207D01*
X311802280Y-164857619D01*
X311613594Y-165210626D01*
X311515814Y-165532964D01*
X311505779Y-165471017D01*
X311366322Y-165097055D01*
X311156589Y-164757485D01*
X310884639Y-164465357D01*
X310560923Y-164231897D01*
X310197881Y-164066076D01*
X309980290Y-164008809D01*
X309664600Y-164123060D01*
X309410600Y-164123060D01*
X309094910Y-164008809D01*
X308877319Y-164066076D01*
X308514277Y-164231897D01*
X308190561Y-164465357D01*
X307918611Y-164757485D01*
X307708878Y-165097055D01*
X307569421Y-165471017D01*
X307556400Y-165551399D01*
X307543379Y-165471017D01*
X307403922Y-165097055D01*
X307194189Y-164757485D01*
X306922239Y-164465357D01*
X306598523Y-164231897D01*
X306235481Y-164066076D01*
X306017890Y-164008809D01*
X305702200Y-164123060D01*
X305448200Y-164123060D01*
X305132510Y-164008809D01*
X304914919Y-164066076D01*
X304551877Y-164231897D01*
X304228161Y-164465357D01*
X303956211Y-164757485D01*
X303835300Y-164953247D01*
X303835300Y-156222500D01*
X337890301Y-156222500D01*
X337890300Y-166609177D01*
X337922458Y-166935685D01*
X338049543Y-167354628D01*
X338077728Y-167407358D01*
X338077728Y-167706500D01*
X338103410Y-167967252D01*
X338179468Y-168217984D01*
X338302981Y-168449060D01*
X338469201Y-168651599D01*
X338671740Y-168817819D01*
X338902816Y-168941332D01*
X339153548Y-169017390D01*
X339414300Y-169043072D01*
X340811300Y-169043072D01*
X341072052Y-169017390D01*
X341322784Y-168941332D01*
X341553860Y-168817819D01*
X341756399Y-168651599D01*
X341922619Y-168449060D01*
X342046132Y-168217984D01*
X342122190Y-167967252D01*
X342147872Y-167706500D01*
X342147872Y-167638527D01*
X342246478Y-167902945D01*
X342456211Y-168242515D01*
X342728161Y-168534643D01*
X343051877Y-168768103D01*
X343414919Y-168933924D01*
X343632510Y-168991191D01*
X343948200Y-168876940D01*
X343948200Y-166627000D01*
X344202200Y-166627000D01*
X344202200Y-168876940D01*
X344517890Y-168991191D01*
X344735481Y-168933924D01*
X345098523Y-168768103D01*
X345422239Y-168534643D01*
X345694189Y-168242515D01*
X345903922Y-167902945D01*
X346043379Y-167528983D01*
X346056400Y-167448601D01*
X346069421Y-167528983D01*
X346208878Y-167902945D01*
X346418611Y-168242515D01*
X346690561Y-168534643D01*
X347014277Y-168768103D01*
X347377319Y-168933924D01*
X347594910Y-168991191D01*
X347910600Y-168876940D01*
X347910600Y-166627000D01*
X344202200Y-166627000D01*
X343948200Y-166627000D01*
X343928200Y-166627000D01*
X343928200Y-166373000D01*
X343948200Y-166373000D01*
X343948200Y-164123060D01*
X344202200Y-164123060D01*
X344202200Y-166373000D01*
X347910600Y-166373000D01*
X347910600Y-164123060D01*
X348164600Y-164123060D01*
X348164600Y-166373000D01*
X348184600Y-166373000D01*
X348184600Y-166627000D01*
X348164600Y-166627000D01*
X348164600Y-168876940D01*
X348480290Y-168991191D01*
X348697881Y-168933924D01*
X349060923Y-168768103D01*
X349384639Y-168534643D01*
X349656589Y-168242515D01*
X349866322Y-167902945D01*
X350005779Y-167528983D01*
X350015814Y-167467036D01*
X350113594Y-167789375D01*
X350302281Y-168142381D01*
X350556208Y-168451793D01*
X350865620Y-168705720D01*
X351218626Y-168894406D01*
X351601660Y-169010598D01*
X352000000Y-169049831D01*
X352398341Y-169010598D01*
X352781375Y-168894406D01*
X353134381Y-168705720D01*
X353443793Y-168451793D01*
X353697720Y-168142381D01*
X353886406Y-167789375D01*
X354002598Y-167406340D01*
X354032000Y-167107815D01*
X354032000Y-165892184D01*
X354002598Y-165593659D01*
X353886406Y-165210625D01*
X353697720Y-164857619D01*
X353443793Y-164548207D01*
X353134381Y-164294280D01*
X352781374Y-164105594D01*
X352398340Y-163989402D01*
X352000000Y-163950169D01*
X351601659Y-163989402D01*
X351218625Y-164105594D01*
X350865619Y-164294280D01*
X350556207Y-164548207D01*
X350302280Y-164857619D01*
X350113594Y-165210626D01*
X350015814Y-165532964D01*
X350005779Y-165471017D01*
X349866322Y-165097055D01*
X349656589Y-164757485D01*
X349384639Y-164465357D01*
X349060923Y-164231897D01*
X348697881Y-164066076D01*
X348480290Y-164008809D01*
X348164600Y-164123060D01*
X347910600Y-164123060D01*
X347594910Y-164008809D01*
X347377319Y-164066076D01*
X347014277Y-164231897D01*
X346690561Y-164465357D01*
X346418611Y-164757485D01*
X346208878Y-165097055D01*
X346069421Y-165471017D01*
X346056400Y-165551399D01*
X346043379Y-165471017D01*
X345903922Y-165097055D01*
X345694189Y-164757485D01*
X345422239Y-164465357D01*
X345098523Y-164231897D01*
X344735481Y-164066076D01*
X344517890Y-164008809D01*
X344202200Y-164123060D01*
X343948200Y-164123060D01*
X343632510Y-164008809D01*
X343414919Y-164066076D01*
X343051877Y-164231897D01*
X342728161Y-164465357D01*
X342456211Y-164757485D01*
X342335300Y-164953247D01*
X342335300Y-156222500D01*
X354890301Y-156222500D01*
X354890300Y-166609177D01*
X354922458Y-166935685D01*
X355049543Y-167354628D01*
X355077728Y-167407358D01*
X355077728Y-167706500D01*
X355103410Y-167967252D01*
X355179468Y-168217984D01*
X355302981Y-168449060D01*
X355469201Y-168651599D01*
X355671740Y-168817819D01*
X355902816Y-168941332D01*
X356153548Y-169017390D01*
X356414300Y-169043072D01*
X357811300Y-169043072D01*
X358072052Y-169017390D01*
X358322784Y-168941332D01*
X358553860Y-168817819D01*
X358756399Y-168651599D01*
X358922619Y-168449060D01*
X359046132Y-168217984D01*
X359122190Y-167967252D01*
X359147872Y-167706500D01*
X359147872Y-167638527D01*
X359246478Y-167902945D01*
X359456211Y-168242515D01*
X359728161Y-168534643D01*
X360051877Y-168768103D01*
X360414919Y-168933924D01*
X360632510Y-168991191D01*
X360948200Y-168876940D01*
X360948200Y-166627000D01*
X361202200Y-166627000D01*
X361202200Y-168876940D01*
X361517890Y-168991191D01*
X361735481Y-168933924D01*
X362098523Y-168768103D01*
X362422239Y-168534643D01*
X362694189Y-168242515D01*
X362903922Y-167902945D01*
X363043379Y-167528983D01*
X363056400Y-167448601D01*
X363069421Y-167528983D01*
X363208878Y-167902945D01*
X363418611Y-168242515D01*
X363690561Y-168534643D01*
X364014277Y-168768103D01*
X364377319Y-168933924D01*
X364594910Y-168991191D01*
X364910600Y-168876940D01*
X364910600Y-166627000D01*
X361202200Y-166627000D01*
X360948200Y-166627000D01*
X360928200Y-166627000D01*
X360928200Y-166373000D01*
X360948200Y-166373000D01*
X360948200Y-164123060D01*
X361202200Y-164123060D01*
X361202200Y-166373000D01*
X364910600Y-166373000D01*
X364910600Y-164123060D01*
X365164600Y-164123060D01*
X365164600Y-166373000D01*
X365184600Y-166373000D01*
X365184600Y-166627000D01*
X365164600Y-166627000D01*
X365164600Y-168876940D01*
X365480290Y-168991191D01*
X365697881Y-168933924D01*
X366060923Y-168768103D01*
X366384639Y-168534643D01*
X366656589Y-168242515D01*
X366866322Y-167902945D01*
X367005779Y-167528983D01*
X367015814Y-167467036D01*
X367113594Y-167789375D01*
X367302281Y-168142381D01*
X367556208Y-168451793D01*
X367865620Y-168705720D01*
X368218626Y-168894406D01*
X368601660Y-169010598D01*
X369000000Y-169049831D01*
X369398341Y-169010598D01*
X369781375Y-168894406D01*
X370134381Y-168705720D01*
X370443793Y-168451793D01*
X370697720Y-168142381D01*
X370886406Y-167789375D01*
X371002598Y-167406340D01*
X371032000Y-167107815D01*
X371032000Y-165892184D01*
X371002598Y-165593659D01*
X370886406Y-165210625D01*
X370697720Y-164857619D01*
X370443793Y-164548207D01*
X370134381Y-164294280D01*
X369781374Y-164105594D01*
X369398340Y-163989402D01*
X369000000Y-163950169D01*
X368601659Y-163989402D01*
X368218625Y-164105594D01*
X367865619Y-164294280D01*
X367556207Y-164548207D01*
X367302280Y-164857619D01*
X367113594Y-165210626D01*
X367015814Y-165532964D01*
X367005779Y-165471017D01*
X366866322Y-165097055D01*
X366656589Y-164757485D01*
X366384639Y-164465357D01*
X366060923Y-164231897D01*
X365697881Y-164066076D01*
X365480290Y-164008809D01*
X365164600Y-164123060D01*
X364910600Y-164123060D01*
X364594910Y-164008809D01*
X364377319Y-164066076D01*
X364014277Y-164231897D01*
X363690561Y-164465357D01*
X363418611Y-164757485D01*
X363208878Y-165097055D01*
X363069421Y-165471017D01*
X363056400Y-165551399D01*
X363043379Y-165471017D01*
X362903922Y-165097055D01*
X362694189Y-164757485D01*
X362422239Y-164465357D01*
X362098523Y-164231897D01*
X361735481Y-164066076D01*
X361517890Y-164008809D01*
X361202200Y-164123060D01*
X360948200Y-164123060D01*
X360632510Y-164008809D01*
X360414919Y-164066076D01*
X360051877Y-164231897D01*
X359728161Y-164465357D01*
X359456211Y-164757485D01*
X359335300Y-164953247D01*
X359335300Y-156222500D01*
X371890301Y-156222500D01*
X371890300Y-166609177D01*
X371922458Y-166935685D01*
X372049543Y-167354628D01*
X372077728Y-167407358D01*
X372077728Y-167706500D01*
X372103410Y-167967252D01*
X372179468Y-168217984D01*
X372302981Y-168449060D01*
X372469201Y-168651599D01*
X372671740Y-168817819D01*
X372902816Y-168941332D01*
X373153548Y-169017390D01*
X373414300Y-169043072D01*
X374811300Y-169043072D01*
X375072052Y-169017390D01*
X375322784Y-168941332D01*
X375553860Y-168817819D01*
X375756399Y-168651599D01*
X375922619Y-168449060D01*
X376046132Y-168217984D01*
X376122190Y-167967252D01*
X376147872Y-167706500D01*
X376147872Y-167638527D01*
X376246478Y-167902945D01*
X376456211Y-168242515D01*
X376728161Y-168534643D01*
X377051877Y-168768103D01*
X377414919Y-168933924D01*
X377632510Y-168991191D01*
X377948200Y-168876940D01*
X377948200Y-166627000D01*
X378202200Y-166627000D01*
X378202200Y-168876940D01*
X378517890Y-168991191D01*
X378735481Y-168933924D01*
X379098523Y-168768103D01*
X379422239Y-168534643D01*
X379694189Y-168242515D01*
X379903922Y-167902945D01*
X380043379Y-167528983D01*
X380056400Y-167448601D01*
X380069421Y-167528983D01*
X380208878Y-167902945D01*
X380418611Y-168242515D01*
X380690561Y-168534643D01*
X381014277Y-168768103D01*
X381377319Y-168933924D01*
X381594910Y-168991191D01*
X381910600Y-168876940D01*
X381910600Y-166627000D01*
X378202200Y-166627000D01*
X377948200Y-166627000D01*
X377928200Y-166627000D01*
X377928200Y-166373000D01*
X377948200Y-166373000D01*
X377948200Y-164123060D01*
X378202200Y-164123060D01*
X378202200Y-166373000D01*
X381910600Y-166373000D01*
X381910600Y-164123060D01*
X382164600Y-164123060D01*
X382164600Y-166373000D01*
X382184600Y-166373000D01*
X382184600Y-166627000D01*
X382164600Y-166627000D01*
X382164600Y-168876940D01*
X382480290Y-168991191D01*
X382697881Y-168933924D01*
X383060923Y-168768103D01*
X383384639Y-168534643D01*
X383656589Y-168242515D01*
X383866322Y-167902945D01*
X384005779Y-167528983D01*
X384015814Y-167467036D01*
X384113594Y-167789375D01*
X384302281Y-168142381D01*
X384556208Y-168451793D01*
X384865620Y-168705720D01*
X385218626Y-168894406D01*
X385601660Y-169010598D01*
X386000000Y-169049831D01*
X386398341Y-169010598D01*
X386781375Y-168894406D01*
X387134381Y-168705720D01*
X387443793Y-168451793D01*
X387697720Y-168142381D01*
X387886406Y-167789375D01*
X388002598Y-167406340D01*
X388032000Y-167107815D01*
X388032000Y-165892184D01*
X388002598Y-165593659D01*
X387886406Y-165210625D01*
X387697720Y-164857619D01*
X387443793Y-164548207D01*
X387134381Y-164294280D01*
X386781374Y-164105594D01*
X386398340Y-163989402D01*
X386000000Y-163950169D01*
X385601659Y-163989402D01*
X385218625Y-164105594D01*
X384865619Y-164294280D01*
X384556207Y-164548207D01*
X384302280Y-164857619D01*
X384113594Y-165210626D01*
X384015814Y-165532964D01*
X384005779Y-165471017D01*
X383866322Y-165097055D01*
X383656589Y-164757485D01*
X383384639Y-164465357D01*
X383060923Y-164231897D01*
X382697881Y-164066076D01*
X382480290Y-164008809D01*
X382164600Y-164123060D01*
X381910600Y-164123060D01*
X381594910Y-164008809D01*
X381377319Y-164066076D01*
X381014277Y-164231897D01*
X380690561Y-164465357D01*
X380418611Y-164757485D01*
X380208878Y-165097055D01*
X380069421Y-165471017D01*
X380056400Y-165551399D01*
X380043379Y-165471017D01*
X379903922Y-165097055D01*
X379694189Y-164757485D01*
X379422239Y-164465357D01*
X379098523Y-164231897D01*
X378735481Y-164066076D01*
X378517890Y-164008809D01*
X378202200Y-164123060D01*
X377948200Y-164123060D01*
X377632510Y-164008809D01*
X377414919Y-164066076D01*
X377051877Y-164231897D01*
X376728161Y-164465357D01*
X376456211Y-164757485D01*
X376335300Y-164953247D01*
X376335300Y-156222500D01*
X387711911Y-156222500D01*
X388890300Y-157400890D01*
X388890301Y-166609178D01*
X388922459Y-166935686D01*
X389049544Y-167354629D01*
X389077728Y-167407357D01*
X389077728Y-167706500D01*
X389103410Y-167967252D01*
X389179468Y-168217984D01*
X389302981Y-168449060D01*
X389469201Y-168651599D01*
X389671740Y-168817819D01*
X389902816Y-168941332D01*
X390153548Y-169017390D01*
X390414300Y-169043072D01*
X391811300Y-169043072D01*
X392072052Y-169017390D01*
X392322784Y-168941332D01*
X392553860Y-168817819D01*
X392756399Y-168651599D01*
X392922619Y-168449060D01*
X393046132Y-168217984D01*
X393122190Y-167967252D01*
X393147872Y-167706500D01*
X393147872Y-167638527D01*
X393246478Y-167902945D01*
X393456211Y-168242515D01*
X393728161Y-168534643D01*
X394051877Y-168768103D01*
X394414919Y-168933924D01*
X394632510Y-168991191D01*
X394948200Y-168876940D01*
X394948200Y-166627000D01*
X395202200Y-166627000D01*
X395202200Y-168876940D01*
X395517890Y-168991191D01*
X395735481Y-168933924D01*
X396098523Y-168768103D01*
X396422239Y-168534643D01*
X396694189Y-168242515D01*
X396903922Y-167902945D01*
X397043379Y-167528983D01*
X397056400Y-167448601D01*
X397069421Y-167528983D01*
X397208878Y-167902945D01*
X397418611Y-168242515D01*
X397690561Y-168534643D01*
X398014277Y-168768103D01*
X398377319Y-168933924D01*
X398594910Y-168991191D01*
X398910600Y-168876940D01*
X398910600Y-166627000D01*
X395202200Y-166627000D01*
X394948200Y-166627000D01*
X394928200Y-166627000D01*
X394928200Y-166373000D01*
X394948200Y-166373000D01*
X394948200Y-164123060D01*
X395202200Y-164123060D01*
X395202200Y-166373000D01*
X398910600Y-166373000D01*
X398910600Y-164123060D01*
X399164600Y-164123060D01*
X399164600Y-166373000D01*
X399184600Y-166373000D01*
X399184600Y-166627000D01*
X399164600Y-166627000D01*
X399164600Y-168876940D01*
X399480290Y-168991191D01*
X399697881Y-168933924D01*
X400060923Y-168768103D01*
X400384639Y-168534643D01*
X400656589Y-168242515D01*
X400866322Y-167902945D01*
X401005779Y-167528983D01*
X401015814Y-167467036D01*
X401113594Y-167789375D01*
X401302281Y-168142381D01*
X401556208Y-168451793D01*
X401865620Y-168705720D01*
X402218626Y-168894406D01*
X402601660Y-169010598D01*
X403000000Y-169049831D01*
X403398341Y-169010598D01*
X403781375Y-168894406D01*
X404134381Y-168705720D01*
X404443793Y-168451793D01*
X404595871Y-168266484D01*
X408028390Y-168266484D01*
X408093051Y-168940023D01*
X408287870Y-169588006D01*
X408605361Y-170185530D01*
X408614823Y-170199692D01*
X409063519Y-170511876D01*
X411300395Y-168275000D01*
X409063519Y-166038124D01*
X408614823Y-166350308D01*
X408294388Y-166946259D01*
X408096374Y-167593273D01*
X408028390Y-168266484D01*
X404595871Y-168266484D01*
X404697720Y-168142381D01*
X404886406Y-167789375D01*
X405002598Y-167406340D01*
X405032000Y-167107815D01*
X405032000Y-165892184D01*
X405028685Y-165858519D01*
X409243124Y-165858519D01*
X411480000Y-168095395D01*
X413716876Y-165858519D01*
X413404692Y-165409823D01*
X412808741Y-165089388D01*
X412161727Y-164891374D01*
X411488516Y-164823390D01*
X410814977Y-164888051D01*
X410166994Y-165082870D01*
X409569470Y-165400361D01*
X409555308Y-165409823D01*
X409243124Y-165858519D01*
X405028685Y-165858519D01*
X405002598Y-165593659D01*
X404886406Y-165210625D01*
X404697720Y-164857619D01*
X404443793Y-164548207D01*
X404134381Y-164294280D01*
X403781374Y-164105594D01*
X403398340Y-163989402D01*
X403000000Y-163950169D01*
X402601659Y-163989402D01*
X402218625Y-164105594D01*
X401865619Y-164294280D01*
X401556207Y-164548207D01*
X401302280Y-164857619D01*
X401113594Y-165210626D01*
X401015814Y-165532964D01*
X401005779Y-165471017D01*
X400866322Y-165097055D01*
X400656589Y-164757485D01*
X400384639Y-164465357D01*
X400060923Y-164231897D01*
X399697881Y-164066076D01*
X399480290Y-164008809D01*
X399164600Y-164123060D01*
X398910600Y-164123060D01*
X398594910Y-164008809D01*
X398377319Y-164066076D01*
X398014277Y-164231897D01*
X397690561Y-164465357D01*
X397418611Y-164757485D01*
X397208878Y-165097055D01*
X397069421Y-165471017D01*
X397056400Y-165551399D01*
X397043379Y-165471017D01*
X396903922Y-165097055D01*
X396694189Y-164757485D01*
X396422239Y-164465357D01*
X396098523Y-164231897D01*
X395735481Y-164066076D01*
X395517890Y-164008809D01*
X395202200Y-164123060D01*
X394948200Y-164123060D01*
X394632510Y-164008809D01*
X394414919Y-164066076D01*
X394051877Y-164231897D01*
X393728161Y-164465357D01*
X393456211Y-164757485D01*
X393335300Y-164953247D01*
X393335300Y-156589468D01*
X393346052Y-156480300D01*
X393335300Y-156371132D01*
X393335300Y-156371122D01*
X393303142Y-156044614D01*
X393176057Y-155625671D01*
X393102486Y-155488029D01*
X392969682Y-155239570D01*
X392761545Y-154985955D01*
X392761541Y-154985951D01*
X392691948Y-154901152D01*
X392607149Y-154831559D01*
X392592071Y-154816481D01*
X409243124Y-154816481D01*
X409555308Y-155265177D01*
X410151259Y-155585612D01*
X410798273Y-155783626D01*
X411471484Y-155851610D01*
X412145023Y-155786949D01*
X412793006Y-155592130D01*
X413390530Y-155274639D01*
X413404692Y-155265177D01*
X413716876Y-154816481D01*
X411480000Y-152579605D01*
X409243124Y-154816481D01*
X392592071Y-154816481D01*
X390281245Y-152505656D01*
X390211648Y-152420852D01*
X390175864Y-152391484D01*
X408028390Y-152391484D01*
X408093051Y-153065023D01*
X408287870Y-153713006D01*
X408605361Y-154310530D01*
X408614823Y-154324692D01*
X409063519Y-154636876D01*
X411300395Y-152400000D01*
X409063519Y-150163124D01*
X408614823Y-150475308D01*
X408294388Y-151071259D01*
X408096374Y-151718273D01*
X408028390Y-152391484D01*
X390175864Y-152391484D01*
X389873229Y-152143118D01*
X389487129Y-151936743D01*
X389068186Y-151809658D01*
X388741678Y-151777500D01*
X388741667Y-151777500D01*
X388632500Y-151766748D01*
X388523333Y-151777500D01*
X374492670Y-151777500D01*
X374383500Y-151766748D01*
X374274330Y-151777500D01*
X356547167Y-151777500D01*
X356438000Y-151766748D01*
X356328833Y-151777500D01*
X340291170Y-151777500D01*
X340182000Y-151766748D01*
X340072830Y-151777500D01*
X302356667Y-151777500D01*
X302247499Y-151766748D01*
X302138331Y-151777500D01*
X284474667Y-151777500D01*
X284365500Y-151766748D01*
X284256333Y-151777500D01*
X270043535Y-151777500D01*
X270380210Y-151595460D01*
X270429826Y-151561993D01*
X270479856Y-151529255D01*
X270486997Y-151523431D01*
X270811663Y-151254844D01*
X270853822Y-151212389D01*
X270896552Y-151170545D01*
X270902426Y-151163445D01*
X271168740Y-150836912D01*
X271201822Y-150787119D01*
X271235640Y-150737730D01*
X271240022Y-150729624D01*
X271437840Y-150357582D01*
X271460636Y-150302276D01*
X271484201Y-150247295D01*
X271486926Y-150238492D01*
X271593651Y-149885000D01*
X409311669Y-149885000D01*
X409243124Y-149983519D01*
X411480000Y-152220395D01*
X413716876Y-149983519D01*
X413648331Y-149885000D01*
X413987725Y-149885000D01*
X413994513Y-149885666D01*
X413995001Y-149890310D01*
X413995001Y-150231670D01*
X413896481Y-150163124D01*
X411659605Y-152400000D01*
X413896481Y-154636876D01*
X413995001Y-154568330D01*
X413995000Y-166106670D01*
X413896481Y-166038124D01*
X411659605Y-168275000D01*
X413896481Y-170511876D01*
X413995000Y-170443331D01*
X413995000Y-170782725D01*
X413994335Y-170789513D01*
X413989699Y-170790000D01*
X413648331Y-170790000D01*
X413716876Y-170691481D01*
X411480000Y-168454605D01*
X409243124Y-170691481D01*
X409311669Y-170790000D01*
X322208331Y-170790000D01*
X322276876Y-170691481D01*
X320040000Y-168454605D01*
X317803124Y-170691481D01*
X317871669Y-170790000D01*
X271596262Y-170790000D01*
X271472519Y-170399914D01*
X271448952Y-170344929D01*
X271426159Y-170289628D01*
X271421776Y-170281522D01*
X271218782Y-169912279D01*
X271185013Y-169862960D01*
X271151884Y-169813096D01*
X271146009Y-169805996D01*
X270875162Y-169483213D01*
X270832449Y-169441385D01*
X270790272Y-169398913D01*
X270783131Y-169393089D01*
X270454747Y-169129063D01*
X270404728Y-169096331D01*
X270355102Y-169062858D01*
X270346965Y-169058532D01*
X269973552Y-168863316D01*
X269918080Y-168840904D01*
X269862942Y-168817726D01*
X269854120Y-168815062D01*
X269449901Y-168696095D01*
X269391174Y-168684892D01*
X269332544Y-168672857D01*
X269323373Y-168671958D01*
X268903744Y-168633769D01*
X268843927Y-168634187D01*
X268784110Y-168633769D01*
X268774939Y-168634669D01*
X268774935Y-168634669D01*
X268355885Y-168678712D01*
X268297292Y-168690740D01*
X268238528Y-168701949D01*
X268229706Y-168704613D01*
X267827187Y-168829213D01*
X267772036Y-168852397D01*
X267716578Y-168874803D01*
X267708441Y-168879129D01*
X267337790Y-169079540D01*
X267288174Y-169113007D01*
X267238144Y-169145745D01*
X267231003Y-169151569D01*
X266906337Y-169420156D01*
X266864197Y-169462592D01*
X266821447Y-169504455D01*
X266815574Y-169511556D01*
X266549260Y-169838088D01*
X266516156Y-169887915D01*
X266482361Y-169937270D01*
X266477978Y-169945376D01*
X266280160Y-170317417D01*
X266257359Y-170372737D01*
X266233799Y-170427705D01*
X266231074Y-170436508D01*
X266124349Y-170790000D01*
X246008331Y-170790000D01*
X246076876Y-170691481D01*
X243840000Y-168454605D01*
X241603124Y-170691481D01*
X241671669Y-170790000D01*
X195208331Y-170790000D01*
X195276876Y-170691481D01*
X193040000Y-168454605D01*
X190803124Y-170691481D01*
X190871669Y-170790000D01*
X119008331Y-170790000D01*
X119076876Y-170691481D01*
X116840000Y-168454605D01*
X114603124Y-170691481D01*
X114671669Y-170790000D01*
X27568331Y-170790000D01*
X27636876Y-170691481D01*
X25400000Y-168454605D01*
X23163124Y-170691481D01*
X23231669Y-170790000D01*
X22257275Y-170790000D01*
X22250487Y-170789335D01*
X22250000Y-170784699D01*
X22250000Y-169667295D01*
X22525361Y-170185530D01*
X22534823Y-170199692D01*
X22983519Y-170511876D01*
X25220395Y-168275000D01*
X25579605Y-168275000D01*
X27816481Y-170511876D01*
X28265177Y-170199692D01*
X28585612Y-169603741D01*
X28783626Y-168956727D01*
X28851610Y-168283516D01*
X28786949Y-167609977D01*
X28592130Y-166961994D01*
X28274639Y-166364470D01*
X28265177Y-166350308D01*
X27816481Y-166038124D01*
X25579605Y-168275000D01*
X25220395Y-168275000D01*
X22983519Y-166038124D01*
X22534823Y-166350308D01*
X22250000Y-166880027D01*
X22250000Y-165858519D01*
X23163124Y-165858519D01*
X25400000Y-168095395D01*
X27636876Y-165858519D01*
X27324692Y-165409823D01*
X26728741Y-165089388D01*
X26081727Y-164891374D01*
X25408516Y-164823390D01*
X24734977Y-164888051D01*
X24086994Y-165082870D01*
X23489470Y-165400361D01*
X23475308Y-165409823D01*
X23163124Y-165858519D01*
X22250000Y-165858519D01*
X22250000Y-154816481D01*
X23163124Y-154816481D01*
X23475308Y-155265177D01*
X24071259Y-155585612D01*
X24718273Y-155783626D01*
X25391484Y-155851610D01*
X26065023Y-155786949D01*
X26713006Y-155592130D01*
X27310530Y-155274639D01*
X27324692Y-155265177D01*
X27636876Y-154816481D01*
X25400000Y-152579605D01*
X23163124Y-154816481D01*
X22250000Y-154816481D01*
X22250000Y-153792295D01*
X22525361Y-154310530D01*
X22534823Y-154324692D01*
X22983519Y-154636876D01*
X25220395Y-152400000D01*
X25579605Y-152400000D01*
X27816481Y-154636876D01*
X28265177Y-154324692D01*
X28585612Y-153728741D01*
X28783626Y-153081727D01*
X28851610Y-152408516D01*
X28786949Y-151734977D01*
X28592130Y-151086994D01*
X28274639Y-150489470D01*
X28265177Y-150475308D01*
X27816481Y-150163124D01*
X25579605Y-152400000D01*
X25220395Y-152400000D01*
X22983519Y-150163124D01*
X22534823Y-150475308D01*
X22250000Y-151005027D01*
X22250000Y-149892275D01*
X22250666Y-149885487D01*
X22255301Y-149885000D01*
X23231669Y-149885000D01*
X23163124Y-149983519D01*
%TA.AperFunction,Conductor*%
D15*
G36*
X23163124Y-149983519D02*
G01*
X25400000Y-152220395D01*
X27636876Y-149983519D01*
X27568331Y-149885000D01*
X266121738Y-149885000D01*
X266245481Y-150275086D01*
X266269048Y-150330071D01*
X266291841Y-150385372D01*
X266296223Y-150393474D01*
X266296225Y-150393479D01*
X266296228Y-150393483D01*
X266499218Y-150762722D01*
X266533011Y-150812076D01*
X266566116Y-150861903D01*
X266571991Y-150869004D01*
X266842837Y-151191787D01*
X266885587Y-151233650D01*
X266927727Y-151276086D01*
X266934869Y-151281910D01*
X267263253Y-151545937D01*
X267313280Y-151578674D01*
X267362898Y-151612142D01*
X267371035Y-151616468D01*
X267679060Y-151777500D01*
X253858594Y-151777500D01*
X253731678Y-151765000D01*
X253731667Y-151765000D01*
X253622500Y-151754248D01*
X253513333Y-151765000D01*
X218549168Y-151765000D01*
X218440000Y-151754248D01*
X218330833Y-151765000D01*
X201213667Y-151765000D01*
X201104500Y-151754248D01*
X200995333Y-151765000D01*
X174924668Y-151765000D01*
X174815500Y-151754248D01*
X174706332Y-151765000D01*
X158097168Y-151765000D01*
X157988000Y-151754248D01*
X157878832Y-151765000D01*
X139745667Y-151765000D01*
X139636500Y-151754248D01*
X139527333Y-151765000D01*
X122664167Y-151765000D01*
X122555000Y-151754248D01*
X122445833Y-151765000D01*
X117457167Y-151765000D01*
X117348000Y-151754248D01*
X117238833Y-151765000D01*
X84373667Y-151765000D01*
X84264500Y-151754248D01*
X84155333Y-151765000D01*
X67609667Y-151765000D01*
X67500500Y-151754248D01*
X67391333Y-151765000D01*
X50909168Y-151765000D01*
X50800000Y-151754248D01*
X50690833Y-151765000D01*
X36875667Y-151765000D01*
X36766499Y-151754248D01*
X36657331Y-151765000D01*
X36657322Y-151765000D01*
X36330814Y-151797158D01*
X35911871Y-151924243D01*
X35525771Y-152130618D01*
X35479332Y-152168729D01*
X35272155Y-152338755D01*
X35272151Y-152338759D01*
X35187352Y-152408352D01*
X35117759Y-152493151D01*
X32118456Y-155492455D01*
X32033652Y-155562052D01*
X31755918Y-155900471D01*
X31549543Y-156286572D01*
X31422458Y-156705515D01*
X31390300Y-157032023D01*
X31390300Y-157032033D01*
X31379548Y-157141200D01*
X31390300Y-157250368D01*
X31390301Y-166479178D01*
X31422459Y-166805686D01*
X31549544Y-167224629D01*
X31577728Y-167277357D01*
X31577728Y-167576500D01*
X31603410Y-167837252D01*
X31679468Y-168087984D01*
X31802981Y-168319060D01*
X31969201Y-168521599D01*
X32171740Y-168687819D01*
X32402816Y-168811332D01*
X32653548Y-168887390D01*
X32914300Y-168913072D01*
X34311300Y-168913072D01*
X34572052Y-168887390D01*
X34822784Y-168811332D01*
X35053860Y-168687819D01*
X35256399Y-168521599D01*
X35422619Y-168319060D01*
X35546132Y-168087984D01*
X35622190Y-167837252D01*
X35647872Y-167576500D01*
X35647872Y-167508527D01*
X35746478Y-167772945D01*
X35956211Y-168112515D01*
X36228161Y-168404643D01*
X36551877Y-168638103D01*
X36914919Y-168803924D01*
X37132510Y-168861191D01*
X37448200Y-168746940D01*
X37448200Y-166497000D01*
X37702200Y-166497000D01*
X37702200Y-168746940D01*
X38017890Y-168861191D01*
X38235481Y-168803924D01*
X38598523Y-168638103D01*
X38922239Y-168404643D01*
X39194189Y-168112515D01*
X39403922Y-167772945D01*
X39543379Y-167398983D01*
X39556400Y-167318601D01*
X39569421Y-167398983D01*
X39708878Y-167772945D01*
X39918611Y-168112515D01*
X40190561Y-168404643D01*
X40514277Y-168638103D01*
X40877319Y-168803924D01*
X41094910Y-168861191D01*
X41410600Y-168746940D01*
X41410600Y-166497000D01*
X37702200Y-166497000D01*
X37448200Y-166497000D01*
X37428200Y-166497000D01*
X37428200Y-166243000D01*
X37448200Y-166243000D01*
X37448200Y-163993060D01*
X37702200Y-163993060D01*
X37702200Y-166243000D01*
X41410600Y-166243000D01*
X41410600Y-163993060D01*
X41664600Y-163993060D01*
X41664600Y-166243000D01*
X41684600Y-166243000D01*
X41684600Y-166497000D01*
X41664600Y-166497000D01*
X41664600Y-168746940D01*
X41980290Y-168861191D01*
X42197881Y-168803924D01*
X42560923Y-168638103D01*
X42884639Y-168404643D01*
X43156589Y-168112515D01*
X43366322Y-167772945D01*
X43505779Y-167398983D01*
X43515814Y-167337036D01*
X43613594Y-167659375D01*
X43802281Y-168012381D01*
X44056208Y-168321793D01*
X44365620Y-168575720D01*
X44718626Y-168764406D01*
X45101660Y-168880598D01*
X45500000Y-168919831D01*
X45898341Y-168880598D01*
X46281375Y-168764406D01*
X46634381Y-168575720D01*
X46943793Y-168321793D01*
X47197720Y-168012381D01*
X47386406Y-167659375D01*
X47502598Y-167276340D01*
X47532000Y-166977815D01*
X47532000Y-165762184D01*
X47502598Y-165463659D01*
X47386406Y-165080625D01*
X47197720Y-164727619D01*
X46943793Y-164418207D01*
X46634381Y-164164280D01*
X46281374Y-163975594D01*
X45898340Y-163859402D01*
X45500000Y-163820169D01*
X45101659Y-163859402D01*
X44718625Y-163975594D01*
X44365619Y-164164280D01*
X44056207Y-164418207D01*
X43802280Y-164727619D01*
X43613594Y-165080626D01*
X43515814Y-165402964D01*
X43505779Y-165341017D01*
X43366322Y-164967055D01*
X43156589Y-164627485D01*
X42884639Y-164335357D01*
X42560923Y-164101897D01*
X42197881Y-163936076D01*
X41980290Y-163878809D01*
X41664600Y-163993060D01*
X41410600Y-163993060D01*
X41094910Y-163878809D01*
X40877319Y-163936076D01*
X40514277Y-164101897D01*
X40190561Y-164335357D01*
X39918611Y-164627485D01*
X39708878Y-164967055D01*
X39569421Y-165341017D01*
X39556400Y-165421399D01*
X39543379Y-165341017D01*
X39403922Y-164967055D01*
X39194189Y-164627485D01*
X38922239Y-164335357D01*
X38598523Y-164101897D01*
X38235481Y-163936076D01*
X38017890Y-163878809D01*
X37702200Y-163993060D01*
X37448200Y-163993060D01*
X37132510Y-163878809D01*
X36914919Y-163936076D01*
X36551877Y-164101897D01*
X36228161Y-164335357D01*
X35956211Y-164627485D01*
X35835300Y-164823247D01*
X35835300Y-158061789D01*
X37687090Y-156210000D01*
X48390301Y-156210000D01*
X48390300Y-166479177D01*
X48422458Y-166805685D01*
X48549543Y-167224628D01*
X48577728Y-167277358D01*
X48577728Y-167576500D01*
X48603410Y-167837252D01*
X48679468Y-168087984D01*
X48802981Y-168319060D01*
X48969201Y-168521599D01*
X49171740Y-168687819D01*
X49402816Y-168811332D01*
X49653548Y-168887390D01*
X49914300Y-168913072D01*
X51311300Y-168913072D01*
X51572052Y-168887390D01*
X51822784Y-168811332D01*
X52053860Y-168687819D01*
X52256399Y-168521599D01*
X52422619Y-168319060D01*
X52546132Y-168087984D01*
X52622190Y-167837252D01*
X52647872Y-167576500D01*
X52647872Y-167508527D01*
X52746478Y-167772945D01*
X52956211Y-168112515D01*
X53228161Y-168404643D01*
X53551877Y-168638103D01*
X53914919Y-168803924D01*
X54132510Y-168861191D01*
X54448200Y-168746940D01*
X54448200Y-166497000D01*
X54702200Y-166497000D01*
X54702200Y-168746940D01*
X55017890Y-168861191D01*
X55235481Y-168803924D01*
X55598523Y-168638103D01*
X55922239Y-168404643D01*
X56194189Y-168112515D01*
X56403922Y-167772945D01*
X56543379Y-167398983D01*
X56556400Y-167318601D01*
X56569421Y-167398983D01*
X56708878Y-167772945D01*
X56918611Y-168112515D01*
X57190561Y-168404643D01*
X57514277Y-168638103D01*
X57877319Y-168803924D01*
X58094910Y-168861191D01*
X58410600Y-168746940D01*
X58410600Y-166497000D01*
X54702200Y-166497000D01*
X54448200Y-166497000D01*
X54428200Y-166497000D01*
X54428200Y-166243000D01*
X54448200Y-166243000D01*
X54448200Y-163993060D01*
X54702200Y-163993060D01*
X54702200Y-166243000D01*
X58410600Y-166243000D01*
X58410600Y-163993060D01*
X58664600Y-163993060D01*
X58664600Y-166243000D01*
X58684600Y-166243000D01*
X58684600Y-166497000D01*
X58664600Y-166497000D01*
X58664600Y-168746940D01*
X58980290Y-168861191D01*
X59197881Y-168803924D01*
X59560923Y-168638103D01*
X59884639Y-168404643D01*
X60156589Y-168112515D01*
X60366322Y-167772945D01*
X60505779Y-167398983D01*
X60515814Y-167337036D01*
X60613594Y-167659375D01*
X60802281Y-168012381D01*
X61056208Y-168321793D01*
X61365620Y-168575720D01*
X61718626Y-168764406D01*
X62101660Y-168880598D01*
X62500000Y-168919831D01*
X62898341Y-168880598D01*
X63281375Y-168764406D01*
X63634381Y-168575720D01*
X63943793Y-168321793D01*
X64197720Y-168012381D01*
X64386406Y-167659375D01*
X64502598Y-167276340D01*
X64532000Y-166977815D01*
X64532000Y-165762184D01*
X64502598Y-165463659D01*
X64386406Y-165080625D01*
X64197720Y-164727619D01*
X63943793Y-164418207D01*
X63634381Y-164164280D01*
X63281374Y-163975594D01*
X62898340Y-163859402D01*
X62500000Y-163820169D01*
X62101659Y-163859402D01*
X61718625Y-163975594D01*
X61365619Y-164164280D01*
X61056207Y-164418207D01*
X60802280Y-164727619D01*
X60613594Y-165080626D01*
X60515814Y-165402964D01*
X60505779Y-165341017D01*
X60366322Y-164967055D01*
X60156589Y-164627485D01*
X59884639Y-164335357D01*
X59560923Y-164101897D01*
X59197881Y-163936076D01*
X58980290Y-163878809D01*
X58664600Y-163993060D01*
X58410600Y-163993060D01*
X58094910Y-163878809D01*
X57877319Y-163936076D01*
X57514277Y-164101897D01*
X57190561Y-164335357D01*
X56918611Y-164627485D01*
X56708878Y-164967055D01*
X56569421Y-165341017D01*
X56556400Y-165421399D01*
X56543379Y-165341017D01*
X56403922Y-164967055D01*
X56194189Y-164627485D01*
X55922239Y-164335357D01*
X55598523Y-164101897D01*
X55235481Y-163936076D01*
X55017890Y-163878809D01*
X54702200Y-163993060D01*
X54448200Y-163993060D01*
X54132510Y-163878809D01*
X53914919Y-163936076D01*
X53551877Y-164101897D01*
X53228161Y-164335357D01*
X52956211Y-164627485D01*
X52835300Y-164823247D01*
X52835300Y-156210000D01*
X65390301Y-156210000D01*
X65390300Y-166479177D01*
X65422458Y-166805685D01*
X65549543Y-167224628D01*
X65577728Y-167277358D01*
X65577728Y-167576500D01*
X65603410Y-167837252D01*
X65679468Y-168087984D01*
X65802981Y-168319060D01*
X65969201Y-168521599D01*
X66171740Y-168687819D01*
X66402816Y-168811332D01*
X66653548Y-168887390D01*
X66914300Y-168913072D01*
X68311300Y-168913072D01*
X68572052Y-168887390D01*
X68822784Y-168811332D01*
X69053860Y-168687819D01*
X69256399Y-168521599D01*
X69422619Y-168319060D01*
X69546132Y-168087984D01*
X69622190Y-167837252D01*
X69647872Y-167576500D01*
X69647872Y-167508527D01*
X69746478Y-167772945D01*
X69956211Y-168112515D01*
X70228161Y-168404643D01*
X70551877Y-168638103D01*
X70914919Y-168803924D01*
X71132510Y-168861191D01*
X71448200Y-168746940D01*
X71448200Y-166497000D01*
X71702200Y-166497000D01*
X71702200Y-168746940D01*
X72017890Y-168861191D01*
X72235481Y-168803924D01*
X72598523Y-168638103D01*
X72922239Y-168404643D01*
X73194189Y-168112515D01*
X73403922Y-167772945D01*
X73543379Y-167398983D01*
X73556400Y-167318601D01*
X73569421Y-167398983D01*
X73708878Y-167772945D01*
X73918611Y-168112515D01*
X74190561Y-168404643D01*
X74514277Y-168638103D01*
X74877319Y-168803924D01*
X75094910Y-168861191D01*
X75410600Y-168746940D01*
X75410600Y-166497000D01*
X71702200Y-166497000D01*
X71448200Y-166497000D01*
X71428200Y-166497000D01*
X71428200Y-166243000D01*
X71448200Y-166243000D01*
X71448200Y-163993060D01*
X71702200Y-163993060D01*
X71702200Y-166243000D01*
X75410600Y-166243000D01*
X75410600Y-163993060D01*
X75664600Y-163993060D01*
X75664600Y-166243000D01*
X75684600Y-166243000D01*
X75684600Y-166497000D01*
X75664600Y-166497000D01*
X75664600Y-168746940D01*
X75980290Y-168861191D01*
X76197881Y-168803924D01*
X76560923Y-168638103D01*
X76884639Y-168404643D01*
X77156589Y-168112515D01*
X77366322Y-167772945D01*
X77505779Y-167398983D01*
X77515814Y-167337036D01*
X77613594Y-167659375D01*
X77802281Y-168012381D01*
X78056208Y-168321793D01*
X78365620Y-168575720D01*
X78718626Y-168764406D01*
X79101660Y-168880598D01*
X79500000Y-168919831D01*
X79898341Y-168880598D01*
X80281375Y-168764406D01*
X80634381Y-168575720D01*
X80943793Y-168321793D01*
X81197720Y-168012381D01*
X81386406Y-167659375D01*
X81502598Y-167276340D01*
X81532000Y-166977815D01*
X81532000Y-165762184D01*
X81502598Y-165463659D01*
X81386406Y-165080625D01*
X81197720Y-164727619D01*
X80943793Y-164418207D01*
X80634381Y-164164280D01*
X80281374Y-163975594D01*
X79898340Y-163859402D01*
X79500000Y-163820169D01*
X79101659Y-163859402D01*
X78718625Y-163975594D01*
X78365619Y-164164280D01*
X78056207Y-164418207D01*
X77802280Y-164727619D01*
X77613594Y-165080626D01*
X77515814Y-165402964D01*
X77505779Y-165341017D01*
X77366322Y-164967055D01*
X77156589Y-164627485D01*
X76884639Y-164335357D01*
X76560923Y-164101897D01*
X76197881Y-163936076D01*
X75980290Y-163878809D01*
X75664600Y-163993060D01*
X75410600Y-163993060D01*
X75094910Y-163878809D01*
X74877319Y-163936076D01*
X74514277Y-164101897D01*
X74190561Y-164335357D01*
X73918611Y-164627485D01*
X73708878Y-164967055D01*
X73569421Y-165341017D01*
X73556400Y-165421399D01*
X73543379Y-165341017D01*
X73403922Y-164967055D01*
X73194189Y-164627485D01*
X72922239Y-164335357D01*
X72598523Y-164101897D01*
X72235481Y-163936076D01*
X72017890Y-163878809D01*
X71702200Y-163993060D01*
X71448200Y-163993060D01*
X71132510Y-163878809D01*
X70914919Y-163936076D01*
X70551877Y-164101897D01*
X70228161Y-164335357D01*
X69956211Y-164627485D01*
X69835300Y-164823247D01*
X69835300Y-156210000D01*
X82390301Y-156210000D01*
X82390300Y-166479177D01*
X82422458Y-166805685D01*
X82549543Y-167224628D01*
X82577728Y-167277358D01*
X82577728Y-167576500D01*
X82603410Y-167837252D01*
X82679468Y-168087984D01*
X82802981Y-168319060D01*
X82969201Y-168521599D01*
X83171740Y-168687819D01*
X83402816Y-168811332D01*
X83653548Y-168887390D01*
X83914300Y-168913072D01*
X85311300Y-168913072D01*
X85572052Y-168887390D01*
X85822784Y-168811332D01*
X86053860Y-168687819D01*
X86256399Y-168521599D01*
X86422619Y-168319060D01*
X86546132Y-168087984D01*
X86622190Y-167837252D01*
X86647872Y-167576500D01*
X86647872Y-167508527D01*
X86746478Y-167772945D01*
X86956211Y-168112515D01*
X87228161Y-168404643D01*
X87551877Y-168638103D01*
X87914919Y-168803924D01*
X88132510Y-168861191D01*
X88448200Y-168746940D01*
X88448200Y-166497000D01*
X88702200Y-166497000D01*
X88702200Y-168746940D01*
X89017890Y-168861191D01*
X89235481Y-168803924D01*
X89598523Y-168638103D01*
X89922239Y-168404643D01*
X90194189Y-168112515D01*
X90403922Y-167772945D01*
X90543379Y-167398983D01*
X90556400Y-167318601D01*
X90569421Y-167398983D01*
X90708878Y-167772945D01*
X90918611Y-168112515D01*
X91190561Y-168404643D01*
X91514277Y-168638103D01*
X91877319Y-168803924D01*
X92094910Y-168861191D01*
X92410600Y-168746940D01*
X92410600Y-166497000D01*
X88702200Y-166497000D01*
X88448200Y-166497000D01*
X88428200Y-166497000D01*
X88428200Y-166243000D01*
X88448200Y-166243000D01*
X88448200Y-163993060D01*
X88702200Y-163993060D01*
X88702200Y-166243000D01*
X92410600Y-166243000D01*
X92410600Y-163993060D01*
X92664600Y-163993060D01*
X92664600Y-166243000D01*
X92684600Y-166243000D01*
X92684600Y-166497000D01*
X92664600Y-166497000D01*
X92664600Y-168746940D01*
X92980290Y-168861191D01*
X93197881Y-168803924D01*
X93560923Y-168638103D01*
X93884639Y-168404643D01*
X94156589Y-168112515D01*
X94366322Y-167772945D01*
X94505779Y-167398983D01*
X94515814Y-167337036D01*
X94613594Y-167659375D01*
X94802281Y-168012381D01*
X95056208Y-168321793D01*
X95365620Y-168575720D01*
X95718626Y-168764406D01*
X96101660Y-168880598D01*
X96500000Y-168919831D01*
X96898341Y-168880598D01*
X97281375Y-168764406D01*
X97634381Y-168575720D01*
X97943793Y-168321793D01*
X97989183Y-168266484D01*
X113388390Y-168266484D01*
X113453051Y-168940023D01*
X113647870Y-169588006D01*
X113965361Y-170185530D01*
X113974823Y-170199692D01*
X114423519Y-170511876D01*
X116660395Y-168275000D01*
X117019605Y-168275000D01*
X119256481Y-170511876D01*
X119705177Y-170199692D01*
X120025612Y-169603741D01*
X120223626Y-168956727D01*
X120291610Y-168283516D01*
X120226949Y-167609977D01*
X120032130Y-166961994D01*
X119714639Y-166364470D01*
X119705177Y-166350308D01*
X119256481Y-166038124D01*
X117019605Y-168275000D01*
X116660395Y-168275000D01*
X114423519Y-166038124D01*
X113974823Y-166350308D01*
X113654388Y-166946259D01*
X113456374Y-167593273D01*
X113388390Y-168266484D01*
X97989183Y-168266484D01*
X98197720Y-168012381D01*
X98386406Y-167659375D01*
X98502598Y-167276340D01*
X98532000Y-166977815D01*
X98532000Y-165858519D01*
X114603124Y-165858519D01*
X116840000Y-168095395D01*
X119076876Y-165858519D01*
X118764692Y-165409823D01*
X118168741Y-165089388D01*
X117521727Y-164891374D01*
X116848516Y-164823390D01*
X116174977Y-164888051D01*
X115526994Y-165082870D01*
X114929470Y-165400361D01*
X114915308Y-165409823D01*
X114603124Y-165858519D01*
X98532000Y-165858519D01*
X98532000Y-165762184D01*
X98502598Y-165463659D01*
X98386406Y-165080625D01*
X98197720Y-164727619D01*
X97943793Y-164418207D01*
X97634381Y-164164280D01*
X97281374Y-163975594D01*
X96898340Y-163859402D01*
X96500000Y-163820169D01*
X96101659Y-163859402D01*
X95718625Y-163975594D01*
X95365619Y-164164280D01*
X95056207Y-164418207D01*
X94802280Y-164727619D01*
X94613594Y-165080626D01*
X94515814Y-165402964D01*
X94505779Y-165341017D01*
X94366322Y-164967055D01*
X94156589Y-164627485D01*
X93884639Y-164335357D01*
X93560923Y-164101897D01*
X93197881Y-163936076D01*
X92980290Y-163878809D01*
X92664600Y-163993060D01*
X92410600Y-163993060D01*
X92094910Y-163878809D01*
X91877319Y-163936076D01*
X91514277Y-164101897D01*
X91190561Y-164335357D01*
X90918611Y-164627485D01*
X90708878Y-164967055D01*
X90569421Y-165341017D01*
X90556400Y-165421399D01*
X90543379Y-165341017D01*
X90403922Y-164967055D01*
X90194189Y-164627485D01*
X89922239Y-164335357D01*
X89598523Y-164101897D01*
X89235481Y-163936076D01*
X89017890Y-163878809D01*
X88702200Y-163993060D01*
X88448200Y-163993060D01*
X88132510Y-163878809D01*
X87914919Y-163936076D01*
X87551877Y-164101897D01*
X87228161Y-164335357D01*
X86956211Y-164627485D01*
X86835300Y-164823247D01*
X86835300Y-157953967D01*
X101870000Y-157953967D01*
X101870000Y-158276033D01*
X101932832Y-158591912D01*
X102056082Y-158889463D01*
X102235013Y-159157252D01*
X102462748Y-159384987D01*
X102730537Y-159563918D01*
X103028088Y-159687168D01*
X103343967Y-159750000D01*
X103666033Y-159750000D01*
X103981912Y-159687168D01*
X104279463Y-159563918D01*
X104547252Y-159384987D01*
X104681826Y-159250413D01*
X109534192Y-159250413D01*
X109629956Y-159514814D01*
X109919571Y-159655704D01*
X110231108Y-159737384D01*
X110552595Y-159756718D01*
X110871675Y-159712961D01*
X111176088Y-159607795D01*
X111350044Y-159514814D01*
X111445808Y-159250413D01*
X110490000Y-158294605D01*
X109534192Y-159250413D01*
X104681826Y-159250413D01*
X104774987Y-159157252D01*
X104953918Y-158889463D01*
X105077168Y-158591912D01*
X105140000Y-158276033D01*
X105140000Y-158177595D01*
X108848282Y-158177595D01*
X108892039Y-158496675D01*
X108997205Y-158801088D01*
X109090186Y-158975044D01*
X109354587Y-159070808D01*
X110310395Y-158115000D01*
X110669605Y-158115000D01*
X111625413Y-159070808D01*
X111889814Y-158975044D01*
X112030704Y-158685429D01*
X112112384Y-158373892D01*
X112131718Y-158052405D01*
X112087961Y-157733325D01*
X111982795Y-157428912D01*
X111889814Y-157254956D01*
X111625413Y-157159192D01*
X110669605Y-158115000D01*
X110310395Y-158115000D01*
X109354587Y-157159192D01*
X109090186Y-157254956D01*
X108949296Y-157544571D01*
X108867616Y-157856108D01*
X108848282Y-158177595D01*
X105140000Y-158177595D01*
X105140000Y-157953967D01*
X105077168Y-157638088D01*
X104953918Y-157340537D01*
X104774987Y-157072748D01*
X104681826Y-156979587D01*
X109534192Y-156979587D01*
X110490000Y-157935395D01*
X111445808Y-156979587D01*
X111350044Y-156715186D01*
X111060429Y-156574296D01*
X110748892Y-156492616D01*
X110427405Y-156473282D01*
X110108325Y-156517039D01*
X109803912Y-156622205D01*
X109629956Y-156715186D01*
X109534192Y-156979587D01*
X104681826Y-156979587D01*
X104547252Y-156845013D01*
X104279463Y-156666082D01*
X103981912Y-156542832D01*
X103666033Y-156480000D01*
X103343967Y-156480000D01*
X103028088Y-156542832D01*
X102730537Y-156666082D01*
X102462748Y-156845013D01*
X102235013Y-157072748D01*
X102056082Y-157340537D01*
X101932832Y-157638088D01*
X101870000Y-157953967D01*
X86835300Y-157953967D01*
X86835300Y-156210000D01*
X115252500Y-156210000D01*
X115252500Y-158224177D01*
X115284658Y-158550685D01*
X115411743Y-158969628D01*
X115618118Y-159355729D01*
X115895852Y-159694148D01*
X116234271Y-159971882D01*
X116620371Y-160178257D01*
X117039314Y-160305342D01*
X117475000Y-160348253D01*
X117910685Y-160305342D01*
X118329628Y-160178257D01*
X118715729Y-159971882D01*
X119054148Y-159694148D01*
X119331882Y-159355729D01*
X119538257Y-158969629D01*
X119665342Y-158550686D01*
X119697500Y-158224178D01*
X119697500Y-156210000D01*
X120890301Y-156210000D01*
X120890300Y-166479177D01*
X120922458Y-166805685D01*
X121049543Y-167224628D01*
X121077728Y-167277358D01*
X121077728Y-167576500D01*
X121103410Y-167837252D01*
X121179468Y-168087984D01*
X121302981Y-168319060D01*
X121469201Y-168521599D01*
X121671740Y-168687819D01*
X121902816Y-168811332D01*
X122153548Y-168887390D01*
X122414300Y-168913072D01*
X123811300Y-168913072D01*
X124072052Y-168887390D01*
X124322784Y-168811332D01*
X124553860Y-168687819D01*
X124756399Y-168521599D01*
X124922619Y-168319060D01*
X125046132Y-168087984D01*
X125122190Y-167837252D01*
X125147872Y-167576500D01*
X125147872Y-167508527D01*
X125246478Y-167772945D01*
X125456211Y-168112515D01*
X125728161Y-168404643D01*
X126051877Y-168638103D01*
X126414919Y-168803924D01*
X126632510Y-168861191D01*
X126948200Y-168746940D01*
X126948200Y-166497000D01*
X127202200Y-166497000D01*
X127202200Y-168746940D01*
X127517890Y-168861191D01*
X127735481Y-168803924D01*
X128098523Y-168638103D01*
X128422239Y-168404643D01*
X128694189Y-168112515D01*
X128903922Y-167772945D01*
X129043379Y-167398983D01*
X129056400Y-167318601D01*
X129069421Y-167398983D01*
X129208878Y-167772945D01*
X129418611Y-168112515D01*
X129690561Y-168404643D01*
X130014277Y-168638103D01*
X130377319Y-168803924D01*
X130594910Y-168861191D01*
X130910600Y-168746940D01*
X130910600Y-166497000D01*
X127202200Y-166497000D01*
X126948200Y-166497000D01*
X126928200Y-166497000D01*
X126928200Y-166243000D01*
X126948200Y-166243000D01*
X126948200Y-163993060D01*
X127202200Y-163993060D01*
X127202200Y-166243000D01*
X130910600Y-166243000D01*
X130910600Y-163993060D01*
X131164600Y-163993060D01*
X131164600Y-166243000D01*
X131184600Y-166243000D01*
X131184600Y-166497000D01*
X131164600Y-166497000D01*
X131164600Y-168746940D01*
X131480290Y-168861191D01*
X131697881Y-168803924D01*
X132060923Y-168638103D01*
X132384639Y-168404643D01*
X132656589Y-168112515D01*
X132866322Y-167772945D01*
X133005779Y-167398983D01*
X133015814Y-167337036D01*
X133113594Y-167659375D01*
X133302281Y-168012381D01*
X133556208Y-168321793D01*
X133865620Y-168575720D01*
X134218626Y-168764406D01*
X134601660Y-168880598D01*
X135000000Y-168919831D01*
X135398341Y-168880598D01*
X135781375Y-168764406D01*
X136134381Y-168575720D01*
X136443793Y-168321793D01*
X136697720Y-168012381D01*
X136886406Y-167659375D01*
X137002598Y-167276340D01*
X137032000Y-166977815D01*
X137032000Y-165762184D01*
X137002598Y-165463659D01*
X136886406Y-165080625D01*
X136697720Y-164727619D01*
X136443793Y-164418207D01*
X136134381Y-164164280D01*
X135781374Y-163975594D01*
X135398340Y-163859402D01*
X135000000Y-163820169D01*
X134601659Y-163859402D01*
X134218625Y-163975594D01*
X133865619Y-164164280D01*
X133556207Y-164418207D01*
X133302280Y-164727619D01*
X133113594Y-165080626D01*
X133015814Y-165402964D01*
X133005779Y-165341017D01*
X132866322Y-164967055D01*
X132656589Y-164627485D01*
X132384639Y-164335357D01*
X132060923Y-164101897D01*
X131697881Y-163936076D01*
X131480290Y-163878809D01*
X131164600Y-163993060D01*
X130910600Y-163993060D01*
X130594910Y-163878809D01*
X130377319Y-163936076D01*
X130014277Y-164101897D01*
X129690561Y-164335357D01*
X129418611Y-164627485D01*
X129208878Y-164967055D01*
X129069421Y-165341017D01*
X129056400Y-165421399D01*
X129043379Y-165341017D01*
X128903922Y-164967055D01*
X128694189Y-164627485D01*
X128422239Y-164335357D01*
X128098523Y-164101897D01*
X127735481Y-163936076D01*
X127517890Y-163878809D01*
X127202200Y-163993060D01*
X126948200Y-163993060D01*
X126632510Y-163878809D01*
X126414919Y-163936076D01*
X126051877Y-164101897D01*
X125728161Y-164335357D01*
X125456211Y-164627485D01*
X125335300Y-164823247D01*
X125335300Y-156210000D01*
X137890301Y-156210000D01*
X137890300Y-166479177D01*
X137922458Y-166805685D01*
X138049543Y-167224628D01*
X138077728Y-167277358D01*
X138077728Y-167576500D01*
X138103410Y-167837252D01*
X138179468Y-168087984D01*
X138302981Y-168319060D01*
X138469201Y-168521599D01*
X138671740Y-168687819D01*
X138902816Y-168811332D01*
X139153548Y-168887390D01*
X139414300Y-168913072D01*
X140811300Y-168913072D01*
X141072052Y-168887390D01*
X141322784Y-168811332D01*
X141553860Y-168687819D01*
X141756399Y-168521599D01*
X141922619Y-168319060D01*
X142046132Y-168087984D01*
X142122190Y-167837252D01*
X142147872Y-167576500D01*
X142147872Y-167508527D01*
X142246478Y-167772945D01*
X142456211Y-168112515D01*
X142728161Y-168404643D01*
X143051877Y-168638103D01*
X143414919Y-168803924D01*
X143632510Y-168861191D01*
X143948200Y-168746940D01*
X143948200Y-166497000D01*
X144202200Y-166497000D01*
X144202200Y-168746940D01*
X144517890Y-168861191D01*
X144735481Y-168803924D01*
X145098523Y-168638103D01*
X145422239Y-168404643D01*
X145694189Y-168112515D01*
X145903922Y-167772945D01*
X146043379Y-167398983D01*
X146056400Y-167318601D01*
X146069421Y-167398983D01*
X146208878Y-167772945D01*
X146418611Y-168112515D01*
X146690561Y-168404643D01*
X147014277Y-168638103D01*
X147377319Y-168803924D01*
X147594910Y-168861191D01*
X147910600Y-168746940D01*
X147910600Y-166497000D01*
X144202200Y-166497000D01*
X143948200Y-166497000D01*
X143928200Y-166497000D01*
X143928200Y-166243000D01*
X143948200Y-166243000D01*
X143948200Y-163993060D01*
X144202200Y-163993060D01*
X144202200Y-166243000D01*
X147910600Y-166243000D01*
X147910600Y-163993060D01*
X148164600Y-163993060D01*
X148164600Y-166243000D01*
X148184600Y-166243000D01*
X148184600Y-166497000D01*
X148164600Y-166497000D01*
X148164600Y-168746940D01*
X148480290Y-168861191D01*
X148697881Y-168803924D01*
X149060923Y-168638103D01*
X149384639Y-168404643D01*
X149656589Y-168112515D01*
X149866322Y-167772945D01*
X150005779Y-167398983D01*
X150015814Y-167337036D01*
X150113594Y-167659375D01*
X150302281Y-168012381D01*
X150556208Y-168321793D01*
X150865620Y-168575720D01*
X151218626Y-168764406D01*
X151601660Y-168880598D01*
X152000000Y-168919831D01*
X152398341Y-168880598D01*
X152781375Y-168764406D01*
X153134381Y-168575720D01*
X153443793Y-168321793D01*
X153697720Y-168012381D01*
X153886406Y-167659375D01*
X154002598Y-167276340D01*
X154032000Y-166977815D01*
X154032000Y-165762184D01*
X154002598Y-165463659D01*
X153886406Y-165080625D01*
X153697720Y-164727619D01*
X153443793Y-164418207D01*
X153134381Y-164164280D01*
X152781374Y-163975594D01*
X152398340Y-163859402D01*
X152000000Y-163820169D01*
X151601659Y-163859402D01*
X151218625Y-163975594D01*
X150865619Y-164164280D01*
X150556207Y-164418207D01*
X150302280Y-164727619D01*
X150113594Y-165080626D01*
X150015814Y-165402964D01*
X150005779Y-165341017D01*
X149866322Y-164967055D01*
X149656589Y-164627485D01*
X149384639Y-164335357D01*
X149060923Y-164101897D01*
X148697881Y-163936076D01*
X148480290Y-163878809D01*
X148164600Y-163993060D01*
X147910600Y-163993060D01*
X147594910Y-163878809D01*
X147377319Y-163936076D01*
X147014277Y-164101897D01*
X146690561Y-164335357D01*
X146418611Y-164627485D01*
X146208878Y-164967055D01*
X146069421Y-165341017D01*
X146056400Y-165421399D01*
X146043379Y-165341017D01*
X145903922Y-164967055D01*
X145694189Y-164627485D01*
X145422239Y-164335357D01*
X145098523Y-164101897D01*
X144735481Y-163936076D01*
X144517890Y-163878809D01*
X144202200Y-163993060D01*
X143948200Y-163993060D01*
X143632510Y-163878809D01*
X143414919Y-163936076D01*
X143051877Y-164101897D01*
X142728161Y-164335357D01*
X142456211Y-164627485D01*
X142335300Y-164823247D01*
X142335300Y-156210000D01*
X154890301Y-156210000D01*
X154890300Y-166609177D01*
X154922458Y-166935685D01*
X155049543Y-167354628D01*
X155077728Y-167407358D01*
X155077728Y-167706500D01*
X155103410Y-167967252D01*
X155179468Y-168217984D01*
X155302981Y-168449060D01*
X155469201Y-168651599D01*
X155671740Y-168817819D01*
X155902816Y-168941332D01*
X156153548Y-169017390D01*
X156414300Y-169043072D01*
X157811300Y-169043072D01*
X158072052Y-169017390D01*
X158322784Y-168941332D01*
X158553860Y-168817819D01*
X158756399Y-168651599D01*
X158922619Y-168449060D01*
X159046132Y-168217984D01*
X159122190Y-167967252D01*
X159147872Y-167706500D01*
X159147872Y-167638527D01*
X159246478Y-167902945D01*
X159456211Y-168242515D01*
X159728161Y-168534643D01*
X160051877Y-168768103D01*
X160414919Y-168933924D01*
X160632510Y-168991191D01*
X160948200Y-168876940D01*
X160948200Y-166627000D01*
X161202200Y-166627000D01*
X161202200Y-168876940D01*
X161517890Y-168991191D01*
X161735481Y-168933924D01*
X162098523Y-168768103D01*
X162422239Y-168534643D01*
X162694189Y-168242515D01*
X162903922Y-167902945D01*
X163043379Y-167528983D01*
X163056400Y-167448601D01*
X163069421Y-167528983D01*
X163208878Y-167902945D01*
X163418611Y-168242515D01*
X163690561Y-168534643D01*
X164014277Y-168768103D01*
X164377319Y-168933924D01*
X164594910Y-168991191D01*
X164910600Y-168876940D01*
X164910600Y-166627000D01*
X161202200Y-166627000D01*
X160948200Y-166627000D01*
X160928200Y-166627000D01*
X160928200Y-166373000D01*
X160948200Y-166373000D01*
X160948200Y-164123060D01*
X161202200Y-164123060D01*
X161202200Y-166373000D01*
X164910600Y-166373000D01*
X164910600Y-164123060D01*
X165164600Y-164123060D01*
X165164600Y-166373000D01*
X165184600Y-166373000D01*
X165184600Y-166627000D01*
X165164600Y-166627000D01*
X165164600Y-168876940D01*
X165480290Y-168991191D01*
X165697881Y-168933924D01*
X166060923Y-168768103D01*
X166384639Y-168534643D01*
X166656589Y-168242515D01*
X166866322Y-167902945D01*
X167005779Y-167528983D01*
X167015814Y-167467036D01*
X167113594Y-167789375D01*
X167302281Y-168142381D01*
X167556208Y-168451793D01*
X167865620Y-168705720D01*
X168218626Y-168894406D01*
X168601660Y-169010598D01*
X169000000Y-169049831D01*
X169398341Y-169010598D01*
X169781375Y-168894406D01*
X170134381Y-168705720D01*
X170443793Y-168451793D01*
X170697720Y-168142381D01*
X170886406Y-167789375D01*
X171002598Y-167406340D01*
X171032000Y-167107815D01*
X171032000Y-165892184D01*
X171002598Y-165593659D01*
X170886406Y-165210625D01*
X170697720Y-164857619D01*
X170443793Y-164548207D01*
X170134381Y-164294280D01*
X169781374Y-164105594D01*
X169398340Y-163989402D01*
X169000000Y-163950169D01*
X168601659Y-163989402D01*
X168218625Y-164105594D01*
X167865619Y-164294280D01*
X167556207Y-164548207D01*
X167302280Y-164857619D01*
X167113594Y-165210626D01*
X167015814Y-165532964D01*
X167005779Y-165471017D01*
X166866322Y-165097055D01*
X166656589Y-164757485D01*
X166384639Y-164465357D01*
X166060923Y-164231897D01*
X165697881Y-164066076D01*
X165480290Y-164008809D01*
X165164600Y-164123060D01*
X164910600Y-164123060D01*
X164594910Y-164008809D01*
X164377319Y-164066076D01*
X164014277Y-164231897D01*
X163690561Y-164465357D01*
X163418611Y-164757485D01*
X163208878Y-165097055D01*
X163069421Y-165471017D01*
X163056400Y-165551399D01*
X163043379Y-165471017D01*
X162903922Y-165097055D01*
X162694189Y-164757485D01*
X162422239Y-164465357D01*
X162098523Y-164231897D01*
X161735481Y-164066076D01*
X161517890Y-164008809D01*
X161202200Y-164123060D01*
X160948200Y-164123060D01*
X160632510Y-164008809D01*
X160414919Y-164066076D01*
X160051877Y-164231897D01*
X159728161Y-164465357D01*
X159456211Y-164757485D01*
X159335300Y-164953247D01*
X159335300Y-156210000D01*
X171890301Y-156210000D01*
X171890300Y-166609177D01*
X171922458Y-166935685D01*
X172049543Y-167354628D01*
X172077728Y-167407358D01*
X172077728Y-167706500D01*
X172103410Y-167967252D01*
X172179468Y-168217984D01*
X172302981Y-168449060D01*
X172469201Y-168651599D01*
X172671740Y-168817819D01*
X172902816Y-168941332D01*
X173153548Y-169017390D01*
X173414300Y-169043072D01*
X174811300Y-169043072D01*
X175072052Y-169017390D01*
X175322784Y-168941332D01*
X175553860Y-168817819D01*
X175756399Y-168651599D01*
X175922619Y-168449060D01*
X176046132Y-168217984D01*
X176122190Y-167967252D01*
X176147872Y-167706500D01*
X176147872Y-167638527D01*
X176246478Y-167902945D01*
X176456211Y-168242515D01*
X176728161Y-168534643D01*
X177051877Y-168768103D01*
X177414919Y-168933924D01*
X177632510Y-168991191D01*
X177948200Y-168876940D01*
X177948200Y-166627000D01*
X178202200Y-166627000D01*
X178202200Y-168876940D01*
X178517890Y-168991191D01*
X178735481Y-168933924D01*
X179098523Y-168768103D01*
X179422239Y-168534643D01*
X179694189Y-168242515D01*
X179903922Y-167902945D01*
X180043379Y-167528983D01*
X180056400Y-167448601D01*
X180069421Y-167528983D01*
X180208878Y-167902945D01*
X180418611Y-168242515D01*
X180690561Y-168534643D01*
X181014277Y-168768103D01*
X181377319Y-168933924D01*
X181594910Y-168991191D01*
X181910600Y-168876940D01*
X181910600Y-166627000D01*
X178202200Y-166627000D01*
X177948200Y-166627000D01*
X177928200Y-166627000D01*
X177928200Y-166373000D01*
X177948200Y-166373000D01*
X177948200Y-164123060D01*
X178202200Y-164123060D01*
X178202200Y-166373000D01*
X181910600Y-166373000D01*
X181910600Y-164123060D01*
X182164600Y-164123060D01*
X182164600Y-166373000D01*
X182184600Y-166373000D01*
X182184600Y-166627000D01*
X182164600Y-166627000D01*
X182164600Y-168876940D01*
X182480290Y-168991191D01*
X182697881Y-168933924D01*
X183060923Y-168768103D01*
X183384639Y-168534643D01*
X183656589Y-168242515D01*
X183866322Y-167902945D01*
X184005779Y-167528983D01*
X184015814Y-167467036D01*
X184113594Y-167789375D01*
X184302281Y-168142381D01*
X184556208Y-168451793D01*
X184865620Y-168705720D01*
X185218626Y-168894406D01*
X185601660Y-169010598D01*
X186000000Y-169049831D01*
X186398341Y-169010598D01*
X186781375Y-168894406D01*
X187134381Y-168705720D01*
X187443793Y-168451793D01*
X187595871Y-168266484D01*
X189588390Y-168266484D01*
X189653051Y-168940023D01*
X189847870Y-169588006D01*
X190165361Y-170185530D01*
X190174823Y-170199692D01*
X190623519Y-170511876D01*
X192860395Y-168275000D01*
X193219605Y-168275000D01*
X195456481Y-170511876D01*
X195905177Y-170199692D01*
X196225612Y-169603741D01*
X196423626Y-168956727D01*
X196491610Y-168283516D01*
X196426949Y-167609977D01*
X196232130Y-166961994D01*
X195914639Y-166364470D01*
X195905177Y-166350308D01*
X195456481Y-166038124D01*
X193219605Y-168275000D01*
X192860395Y-168275000D01*
X190623519Y-166038124D01*
X190174823Y-166350308D01*
X189854388Y-166946259D01*
X189656374Y-167593273D01*
X189588390Y-168266484D01*
X187595871Y-168266484D01*
X187697720Y-168142381D01*
X187886406Y-167789375D01*
X188002598Y-167406340D01*
X188032000Y-167107815D01*
X188032000Y-165892184D01*
X188028685Y-165858519D01*
X190803124Y-165858519D01*
X193040000Y-168095395D01*
X195276876Y-165858519D01*
X194964692Y-165409823D01*
X194368741Y-165089388D01*
X193721727Y-164891374D01*
X193048516Y-164823390D01*
X192374977Y-164888051D01*
X191726994Y-165082870D01*
X191129470Y-165400361D01*
X191115308Y-165409823D01*
X190803124Y-165858519D01*
X188028685Y-165858519D01*
X188002598Y-165593659D01*
X187886406Y-165210625D01*
X187697720Y-164857619D01*
X187443793Y-164548207D01*
X187134381Y-164294280D01*
X186781374Y-164105594D01*
X186398340Y-163989402D01*
X186000000Y-163950169D01*
X185601659Y-163989402D01*
X185218625Y-164105594D01*
X184865619Y-164294280D01*
X184556207Y-164548207D01*
X184302280Y-164857619D01*
X184113594Y-165210626D01*
X184015814Y-165532964D01*
X184005779Y-165471017D01*
X183866322Y-165097055D01*
X183656589Y-164757485D01*
X183384639Y-164465357D01*
X183060923Y-164231897D01*
X182697881Y-164066076D01*
X182480290Y-164008809D01*
X182164600Y-164123060D01*
X181910600Y-164123060D01*
X181594910Y-164008809D01*
X181377319Y-164066076D01*
X181014277Y-164231897D01*
X180690561Y-164465357D01*
X180418611Y-164757485D01*
X180208878Y-165097055D01*
X180069421Y-165471017D01*
X180056400Y-165551399D01*
X180043379Y-165471017D01*
X179903922Y-165097055D01*
X179694189Y-164757485D01*
X179422239Y-164465357D01*
X179098523Y-164231897D01*
X178735481Y-164066076D01*
X178517890Y-164008809D01*
X178202200Y-164123060D01*
X177948200Y-164123060D01*
X177632510Y-164008809D01*
X177414919Y-164066076D01*
X177051877Y-164231897D01*
X176728161Y-164465357D01*
X176456211Y-164757485D01*
X176335300Y-164953247D01*
X176335300Y-156210000D01*
X198890301Y-156210000D01*
X198890300Y-166609177D01*
X198922458Y-166935685D01*
X199049543Y-167354628D01*
X199077728Y-167407358D01*
X199077728Y-167706500D01*
X199103410Y-167967252D01*
X199179468Y-168217984D01*
X199302981Y-168449060D01*
X199469201Y-168651599D01*
X199671740Y-168817819D01*
X199902816Y-168941332D01*
X200153548Y-169017390D01*
X200414300Y-169043072D01*
X201811300Y-169043072D01*
X202072052Y-169017390D01*
X202322784Y-168941332D01*
X202553860Y-168817819D01*
X202756399Y-168651599D01*
X202922619Y-168449060D01*
X203046132Y-168217984D01*
X203122190Y-167967252D01*
X203147872Y-167706500D01*
X203147872Y-167638527D01*
X203246478Y-167902945D01*
X203456211Y-168242515D01*
X203728161Y-168534643D01*
X204051877Y-168768103D01*
X204414919Y-168933924D01*
X204632510Y-168991191D01*
X204948200Y-168876940D01*
X204948200Y-166627000D01*
X205202200Y-166627000D01*
X205202200Y-168876940D01*
X205517890Y-168991191D01*
X205735481Y-168933924D01*
X206098523Y-168768103D01*
X206422239Y-168534643D01*
X206694189Y-168242515D01*
X206903922Y-167902945D01*
X207043379Y-167528983D01*
X207056400Y-167448601D01*
X207069421Y-167528983D01*
X207208878Y-167902945D01*
X207418611Y-168242515D01*
X207690561Y-168534643D01*
X208014277Y-168768103D01*
X208377319Y-168933924D01*
X208594910Y-168991191D01*
X208910600Y-168876940D01*
X208910600Y-166627000D01*
X205202200Y-166627000D01*
X204948200Y-166627000D01*
X204928200Y-166627000D01*
X204928200Y-166373000D01*
X204948200Y-166373000D01*
X204948200Y-164123060D01*
X205202200Y-164123060D01*
X205202200Y-166373000D01*
X208910600Y-166373000D01*
X208910600Y-164123060D01*
X209164600Y-164123060D01*
X209164600Y-166373000D01*
X209184600Y-166373000D01*
X209184600Y-166627000D01*
X209164600Y-166627000D01*
X209164600Y-168876940D01*
X209480290Y-168991191D01*
X209697881Y-168933924D01*
X210060923Y-168768103D01*
X210384639Y-168534643D01*
X210656589Y-168242515D01*
X210866322Y-167902945D01*
X211005779Y-167528983D01*
X211015814Y-167467036D01*
X211113594Y-167789375D01*
X211302281Y-168142381D01*
X211556208Y-168451793D01*
X211865620Y-168705720D01*
X212218626Y-168894406D01*
X212601660Y-169010598D01*
X213000000Y-169049831D01*
X213398341Y-169010598D01*
X213781375Y-168894406D01*
X214134381Y-168705720D01*
X214443793Y-168451793D01*
X214697720Y-168142381D01*
X214886406Y-167789375D01*
X215002598Y-167406340D01*
X215032000Y-167107815D01*
X215032000Y-165892184D01*
X215002598Y-165593659D01*
X214886406Y-165210625D01*
X214697720Y-164857619D01*
X214443793Y-164548207D01*
X214134381Y-164294280D01*
X213781374Y-164105594D01*
X213398340Y-163989402D01*
X213000000Y-163950169D01*
X212601659Y-163989402D01*
X212218625Y-164105594D01*
X211865619Y-164294280D01*
X211556207Y-164548207D01*
X211302280Y-164857619D01*
X211113594Y-165210626D01*
X211015814Y-165532964D01*
X211005779Y-165471017D01*
X210866322Y-165097055D01*
X210656589Y-164757485D01*
X210384639Y-164465357D01*
X210060923Y-164231897D01*
X209697881Y-164066076D01*
X209480290Y-164008809D01*
X209164600Y-164123060D01*
X208910600Y-164123060D01*
X208594910Y-164008809D01*
X208377319Y-164066076D01*
X208014277Y-164231897D01*
X207690561Y-164465357D01*
X207418611Y-164757485D01*
X207208878Y-165097055D01*
X207069421Y-165471017D01*
X207056400Y-165551399D01*
X207043379Y-165471017D01*
X206903922Y-165097055D01*
X206694189Y-164757485D01*
X206422239Y-164465357D01*
X206098523Y-164231897D01*
X205735481Y-164066076D01*
X205517890Y-164008809D01*
X205202200Y-164123060D01*
X204948200Y-164123060D01*
X204632510Y-164008809D01*
X204414919Y-164066076D01*
X204051877Y-164231897D01*
X203728161Y-164465357D01*
X203456211Y-164757485D01*
X203335300Y-164953247D01*
X203335300Y-156210000D01*
X215890301Y-156210000D01*
X215890300Y-166609177D01*
X215922458Y-166935685D01*
X216049543Y-167354628D01*
X216077728Y-167407358D01*
X216077728Y-167706500D01*
X216103410Y-167967252D01*
X216179468Y-168217984D01*
X216302981Y-168449060D01*
X216469201Y-168651599D01*
X216671740Y-168817819D01*
X216902816Y-168941332D01*
X217153548Y-169017390D01*
X217414300Y-169043072D01*
X218811300Y-169043072D01*
X219072052Y-169017390D01*
X219322784Y-168941332D01*
X219553860Y-168817819D01*
X219756399Y-168651599D01*
X219922619Y-168449060D01*
X220046132Y-168217984D01*
X220122190Y-167967252D01*
X220147872Y-167706500D01*
X220147872Y-167638527D01*
X220246478Y-167902945D01*
X220456211Y-168242515D01*
X220728161Y-168534643D01*
X221051877Y-168768103D01*
X221414919Y-168933924D01*
X221632510Y-168991191D01*
X221948200Y-168876940D01*
X221948200Y-166627000D01*
X222202200Y-166627000D01*
X222202200Y-168876940D01*
X222517890Y-168991191D01*
X222735481Y-168933924D01*
X223098523Y-168768103D01*
X223422239Y-168534643D01*
X223694189Y-168242515D01*
X223903922Y-167902945D01*
X224043379Y-167528983D01*
X224056400Y-167448601D01*
X224069421Y-167528983D01*
X224208878Y-167902945D01*
X224418611Y-168242515D01*
X224690561Y-168534643D01*
X225014277Y-168768103D01*
X225377319Y-168933924D01*
X225594910Y-168991191D01*
X225910600Y-168876940D01*
X225910600Y-166627000D01*
X222202200Y-166627000D01*
X221948200Y-166627000D01*
X221928200Y-166627000D01*
X221928200Y-166373000D01*
X221948200Y-166373000D01*
X221948200Y-164123060D01*
X222202200Y-164123060D01*
X222202200Y-166373000D01*
X225910600Y-166373000D01*
X225910600Y-164123060D01*
X226164600Y-164123060D01*
X226164600Y-166373000D01*
X226184600Y-166373000D01*
X226184600Y-166627000D01*
X226164600Y-166627000D01*
X226164600Y-168876940D01*
X226480290Y-168991191D01*
X226697881Y-168933924D01*
X227060923Y-168768103D01*
X227384639Y-168534643D01*
X227656589Y-168242515D01*
X227866322Y-167902945D01*
X228005779Y-167528983D01*
X228015814Y-167467036D01*
X228113594Y-167789375D01*
X228302281Y-168142381D01*
X228556208Y-168451793D01*
X228865620Y-168705720D01*
X229218626Y-168894406D01*
X229601660Y-169010598D01*
X230000000Y-169049831D01*
X230398341Y-169010598D01*
X230781375Y-168894406D01*
X231134381Y-168705720D01*
X231443793Y-168451793D01*
X231595871Y-168266484D01*
X240388390Y-168266484D01*
X240453051Y-168940023D01*
X240647870Y-169588006D01*
X240965361Y-170185530D01*
X240974823Y-170199692D01*
X241423519Y-170511876D01*
X243660395Y-168275000D01*
X244019605Y-168275000D01*
X246256481Y-170511876D01*
X246705177Y-170199692D01*
X247025612Y-169603741D01*
X247223626Y-168956727D01*
X247291610Y-168283516D01*
X247226949Y-167609977D01*
X247032130Y-166961994D01*
X246714639Y-166364470D01*
X246705177Y-166350308D01*
X246256481Y-166038124D01*
X244019605Y-168275000D01*
X243660395Y-168275000D01*
X241423519Y-166038124D01*
X240974823Y-166350308D01*
X240654388Y-166946259D01*
X240456374Y-167593273D01*
X240388390Y-168266484D01*
X231595871Y-168266484D01*
X231697720Y-168142381D01*
X231886406Y-167789375D01*
X232002598Y-167406340D01*
X232032000Y-167107815D01*
X232032000Y-165892184D01*
X232028685Y-165858519D01*
X241603124Y-165858519D01*
X243840000Y-168095395D01*
X246076876Y-165858519D01*
X246063273Y-165838967D01*
X253000000Y-165838967D01*
X253000000Y-166161033D01*
X253062832Y-166476912D01*
X253186082Y-166774463D01*
X253365013Y-167042252D01*
X253592748Y-167269987D01*
X253860537Y-167448918D01*
X254158088Y-167572168D01*
X254473967Y-167635000D01*
X254796033Y-167635000D01*
X255111912Y-167572168D01*
X255409463Y-167448918D01*
X255677252Y-167269987D01*
X255904987Y-167042252D01*
X256083918Y-166774463D01*
X256207168Y-166476912D01*
X256270000Y-166161033D01*
X256270000Y-165838967D01*
X256207168Y-165523088D01*
X256083918Y-165225537D01*
X255904987Y-164957748D01*
X255677252Y-164730013D01*
X255409463Y-164551082D01*
X255111912Y-164427832D01*
X254796033Y-164365000D01*
X254473967Y-164365000D01*
X254158088Y-164427832D01*
X253860537Y-164551082D01*
X253592748Y-164730013D01*
X253365013Y-164957748D01*
X253186082Y-165225537D01*
X253062832Y-165523088D01*
X253000000Y-165838967D01*
X246063273Y-165838967D01*
X245764692Y-165409823D01*
X245168741Y-165089388D01*
X244521727Y-164891374D01*
X243848516Y-164823390D01*
X243174977Y-164888051D01*
X242526994Y-165082870D01*
X241929470Y-165400361D01*
X241915308Y-165409823D01*
X241603124Y-165858519D01*
X232028685Y-165858519D01*
X232002598Y-165593659D01*
X231886406Y-165210625D01*
X231697720Y-164857619D01*
X231443793Y-164548207D01*
X231134381Y-164294280D01*
X230781374Y-164105594D01*
X230398340Y-163989402D01*
X230000000Y-163950169D01*
X229601659Y-163989402D01*
X229218625Y-164105594D01*
X228865619Y-164294280D01*
X228556207Y-164548207D01*
X228302280Y-164857619D01*
X228113594Y-165210626D01*
X228015814Y-165532964D01*
X228005779Y-165471017D01*
X227866322Y-165097055D01*
X227656589Y-164757485D01*
X227384639Y-164465357D01*
X227060923Y-164231897D01*
X226697881Y-164066076D01*
X226480290Y-164008809D01*
X226164600Y-164123060D01*
X225910600Y-164123060D01*
X225594910Y-164008809D01*
X225377319Y-164066076D01*
X225014277Y-164231897D01*
X224690561Y-164465357D01*
X224418611Y-164757485D01*
X224208878Y-165097055D01*
X224069421Y-165471017D01*
X224056400Y-165551399D01*
X224043379Y-165471017D01*
X223903922Y-165097055D01*
X223694189Y-164757485D01*
X223422239Y-164465357D01*
X223098523Y-164231897D01*
X222735481Y-164066076D01*
X222517890Y-164008809D01*
X222202200Y-164123060D01*
X221948200Y-164123060D01*
X221632510Y-164008809D01*
X221414919Y-164066076D01*
X221051877Y-164231897D01*
X220728161Y-164465357D01*
X220456211Y-164757485D01*
X220335300Y-164953247D01*
X220335300Y-163135413D01*
X253679192Y-163135413D01*
X253774956Y-163399814D01*
X254064571Y-163540704D01*
X254376108Y-163622384D01*
X254697595Y-163641718D01*
X255016675Y-163597961D01*
X255321088Y-163492795D01*
X255495044Y-163399814D01*
X255590808Y-163135413D01*
X254635000Y-162179605D01*
X253679192Y-163135413D01*
X220335300Y-163135413D01*
X220335300Y-162062595D01*
X252993282Y-162062595D01*
X253037039Y-162381675D01*
X253142205Y-162686088D01*
X253235186Y-162860044D01*
X253499587Y-162955808D01*
X254455395Y-162000000D01*
X254814605Y-162000000D01*
X255770413Y-162955808D01*
X256034814Y-162860044D01*
X256175704Y-162570429D01*
X256257384Y-162258892D01*
X256276718Y-161937405D01*
X256232961Y-161618325D01*
X256127795Y-161313912D01*
X256034814Y-161139956D01*
X255770413Y-161044192D01*
X254814605Y-162000000D01*
X254455395Y-162000000D01*
X253499587Y-161044192D01*
X253235186Y-161139956D01*
X253094296Y-161429571D01*
X253012616Y-161741108D01*
X252993282Y-162062595D01*
X220335300Y-162062595D01*
X220335300Y-160864587D01*
X253679192Y-160864587D01*
X254635000Y-161820395D01*
X255590808Y-160864587D01*
X255495044Y-160600186D01*
X255205429Y-160459296D01*
X254893892Y-160377616D01*
X254572405Y-160358282D01*
X254253325Y-160402039D01*
X253948912Y-160507205D01*
X253774956Y-160600186D01*
X253679192Y-160864587D01*
X220335300Y-160864587D01*
X220335300Y-159135413D01*
X253679192Y-159135413D01*
X253774956Y-159399814D01*
X254064571Y-159540704D01*
X254376108Y-159622384D01*
X254697595Y-159641718D01*
X255016675Y-159597961D01*
X255321088Y-159492795D01*
X255495044Y-159399814D01*
X255590808Y-159135413D01*
X254635000Y-158179605D01*
X253679192Y-159135413D01*
X220335300Y-159135413D01*
X220335300Y-158062595D01*
X252993282Y-158062595D01*
X253037039Y-158381675D01*
X253142205Y-158686088D01*
X253235186Y-158860044D01*
X253499587Y-158955808D01*
X254455395Y-158000000D01*
X254814605Y-158000000D01*
X255770413Y-158955808D01*
X256034814Y-158860044D01*
X256175704Y-158570429D01*
X256257384Y-158258892D01*
X256276718Y-157937405D01*
X256232961Y-157618325D01*
X256127795Y-157313912D01*
X256034814Y-157139956D01*
X255770413Y-157044192D01*
X254814605Y-158000000D01*
X254455395Y-158000000D01*
X253499587Y-157044192D01*
X253235186Y-157139956D01*
X253094296Y-157429571D01*
X253012616Y-157741108D01*
X252993282Y-158062595D01*
X220335300Y-158062595D01*
X220335300Y-156864587D01*
X253679192Y-156864587D01*
X254635000Y-157820395D01*
X255590808Y-156864587D01*
X255495044Y-156600186D01*
X255205429Y-156459296D01*
X254893892Y-156377616D01*
X254572405Y-156358282D01*
X254253325Y-156402039D01*
X253948912Y-156507205D01*
X253774956Y-156600186D01*
X253679192Y-156864587D01*
X220335300Y-156864587D01*
X220335300Y-156210000D01*
X253398906Y-156210000D01*
X253525822Y-156222500D01*
X253525833Y-156222500D01*
X253635000Y-156233252D01*
X253744168Y-156222500D01*
X282390301Y-156222500D01*
X282390300Y-166609177D01*
X282422458Y-166935685D01*
X282549543Y-167354628D01*
X282577728Y-167407358D01*
X282577728Y-167706500D01*
X282603410Y-167967252D01*
X282679468Y-168217984D01*
X282802981Y-168449060D01*
X282969201Y-168651599D01*
X283171740Y-168817819D01*
X283402816Y-168941332D01*
X283653548Y-169017390D01*
X283914300Y-169043072D01*
X285311300Y-169043072D01*
X285572052Y-169017390D01*
X285822784Y-168941332D01*
X286053860Y-168817819D01*
X286256399Y-168651599D01*
X286422619Y-168449060D01*
X286546132Y-168217984D01*
X286622190Y-167967252D01*
X286647872Y-167706500D01*
X286647872Y-167638527D01*
X286746478Y-167902945D01*
X286956211Y-168242515D01*
X287228161Y-168534643D01*
X287551877Y-168768103D01*
X287914919Y-168933924D01*
X288132510Y-168991191D01*
X288448200Y-168876940D01*
X288448200Y-166627000D01*
X288702200Y-166627000D01*
X288702200Y-168876940D01*
X289017890Y-168991191D01*
X289235481Y-168933924D01*
X289598523Y-168768103D01*
X289922239Y-168534643D01*
X290194189Y-168242515D01*
X290403922Y-167902945D01*
X290543379Y-167528983D01*
X290556400Y-167448601D01*
X290569421Y-167528983D01*
X290708878Y-167902945D01*
X290918611Y-168242515D01*
X291190561Y-168534643D01*
X291514277Y-168768103D01*
X291877319Y-168933924D01*
X292094910Y-168991191D01*
X292410600Y-168876940D01*
X292410600Y-166627000D01*
X288702200Y-166627000D01*
X288448200Y-166627000D01*
X288428200Y-166627000D01*
X288428200Y-166373000D01*
X288448200Y-166373000D01*
X288448200Y-164123060D01*
X288702200Y-164123060D01*
X288702200Y-166373000D01*
X292410600Y-166373000D01*
X292410600Y-164123060D01*
X292664600Y-164123060D01*
X292664600Y-166373000D01*
X292684600Y-166373000D01*
X292684600Y-166627000D01*
X292664600Y-166627000D01*
X292664600Y-168876940D01*
X292980290Y-168991191D01*
X293197881Y-168933924D01*
X293560923Y-168768103D01*
X293884639Y-168534643D01*
X294156589Y-168242515D01*
X294366322Y-167902945D01*
X294505779Y-167528983D01*
X294515814Y-167467036D01*
X294613594Y-167789375D01*
X294802281Y-168142381D01*
X295056208Y-168451793D01*
X295365620Y-168705720D01*
X295718626Y-168894406D01*
X296101660Y-169010598D01*
X296500000Y-169049831D01*
X296898341Y-169010598D01*
X297281375Y-168894406D01*
X297634381Y-168705720D01*
X297943793Y-168451793D01*
X298197720Y-168142381D01*
X298386406Y-167789375D01*
X298502598Y-167406340D01*
X298532000Y-167107815D01*
X298532000Y-165892184D01*
X298502598Y-165593659D01*
X298386406Y-165210625D01*
X298197720Y-164857619D01*
X297943793Y-164548207D01*
X297634381Y-164294280D01*
X297281374Y-164105594D01*
X296898340Y-163989402D01*
X296500000Y-163950169D01*
X296101659Y-163989402D01*
X295718625Y-164105594D01*
X295365619Y-164294280D01*
X295056207Y-164548207D01*
X294802280Y-164857619D01*
X294613594Y-165210626D01*
X294515814Y-165532964D01*
X294505779Y-165471017D01*
X294366322Y-165097055D01*
X294156589Y-164757485D01*
X293884639Y-164465357D01*
X293560923Y-164231897D01*
X293197881Y-164066076D01*
X292980290Y-164008809D01*
X292664600Y-164123060D01*
X292410600Y-164123060D01*
X292094910Y-164008809D01*
X291877319Y-164066076D01*
X291514277Y-164231897D01*
X291190561Y-164465357D01*
X290918611Y-164757485D01*
X290708878Y-165097055D01*
X290569421Y-165471017D01*
X290556400Y-165551399D01*
X290543379Y-165471017D01*
X290403922Y-165097055D01*
X290194189Y-164757485D01*
X289922239Y-164465357D01*
X289598523Y-164231897D01*
X289235481Y-164066076D01*
X289017890Y-164008809D01*
X288702200Y-164123060D01*
X288448200Y-164123060D01*
X288132510Y-164008809D01*
X287914919Y-164066076D01*
X287551877Y-164231897D01*
X287228161Y-164465357D01*
X286956211Y-164757485D01*
X286835300Y-164953247D01*
X286835300Y-156222500D01*
X299390301Y-156222500D01*
X299390300Y-166609177D01*
X299422458Y-166935685D01*
X299549543Y-167354628D01*
X299577728Y-167407358D01*
X299577728Y-167706500D01*
X299603410Y-167967252D01*
X299679468Y-168217984D01*
X299802981Y-168449060D01*
X299969201Y-168651599D01*
X300171740Y-168817819D01*
X300402816Y-168941332D01*
X300653548Y-169017390D01*
X300914300Y-169043072D01*
X302311300Y-169043072D01*
X302572052Y-169017390D01*
X302822784Y-168941332D01*
X303053860Y-168817819D01*
X303256399Y-168651599D01*
X303422619Y-168449060D01*
X303546132Y-168217984D01*
X303622190Y-167967252D01*
X303647872Y-167706500D01*
X303647872Y-167638527D01*
X303746478Y-167902945D01*
X303956211Y-168242515D01*
X304228161Y-168534643D01*
X304551877Y-168768103D01*
X304914919Y-168933924D01*
X305132510Y-168991191D01*
X305448200Y-168876940D01*
X305448200Y-166627000D01*
X305702200Y-166627000D01*
X305702200Y-168876940D01*
X306017890Y-168991191D01*
X306235481Y-168933924D01*
X306598523Y-168768103D01*
X306922239Y-168534643D01*
X307194189Y-168242515D01*
X307403922Y-167902945D01*
X307543379Y-167528983D01*
X307556400Y-167448601D01*
X307569421Y-167528983D01*
X307708878Y-167902945D01*
X307918611Y-168242515D01*
X308190561Y-168534643D01*
X308514277Y-168768103D01*
X308877319Y-168933924D01*
X309094910Y-168991191D01*
X309410600Y-168876940D01*
X309410600Y-166627000D01*
X305702200Y-166627000D01*
X305448200Y-166627000D01*
X305428200Y-166627000D01*
X305428200Y-166373000D01*
X305448200Y-166373000D01*
X305448200Y-164123060D01*
X305702200Y-164123060D01*
X305702200Y-166373000D01*
X309410600Y-166373000D01*
X309410600Y-164123060D01*
X309664600Y-164123060D01*
X309664600Y-166373000D01*
X309684600Y-166373000D01*
X309684600Y-166627000D01*
X309664600Y-166627000D01*
X309664600Y-168876940D01*
X309980290Y-168991191D01*
X310197881Y-168933924D01*
X310560923Y-168768103D01*
X310884639Y-168534643D01*
X311156589Y-168242515D01*
X311366322Y-167902945D01*
X311505779Y-167528983D01*
X311515814Y-167467036D01*
X311613594Y-167789375D01*
X311802281Y-168142381D01*
X312056208Y-168451793D01*
X312365620Y-168705720D01*
X312718626Y-168894406D01*
X313101660Y-169010598D01*
X313500000Y-169049831D01*
X313898341Y-169010598D01*
X314281375Y-168894406D01*
X314634381Y-168705720D01*
X314943793Y-168451793D01*
X315095871Y-168266484D01*
X316588390Y-168266484D01*
X316653051Y-168940023D01*
X316847870Y-169588006D01*
X317165361Y-170185530D01*
X317174823Y-170199692D01*
X317623519Y-170511876D01*
X319860395Y-168275000D01*
X320219605Y-168275000D01*
X322456481Y-170511876D01*
X322905177Y-170199692D01*
X323225612Y-169603741D01*
X323423626Y-168956727D01*
X323491610Y-168283516D01*
X323426949Y-167609977D01*
X323232130Y-166961994D01*
X322914639Y-166364470D01*
X322905177Y-166350308D01*
X322456481Y-166038124D01*
X320219605Y-168275000D01*
X319860395Y-168275000D01*
X317623519Y-166038124D01*
X317174823Y-166350308D01*
X316854388Y-166946259D01*
X316656374Y-167593273D01*
X316588390Y-168266484D01*
X315095871Y-168266484D01*
X315197720Y-168142381D01*
X315386406Y-167789375D01*
X315502598Y-167406340D01*
X315532000Y-167107815D01*
X315532000Y-165892184D01*
X315528685Y-165858519D01*
X317803124Y-165858519D01*
X320040000Y-168095395D01*
X322276876Y-165858519D01*
X321964692Y-165409823D01*
X321368741Y-165089388D01*
X320721727Y-164891374D01*
X320048516Y-164823390D01*
X319374977Y-164888051D01*
X318726994Y-165082870D01*
X318129470Y-165400361D01*
X318115308Y-165409823D01*
X317803124Y-165858519D01*
X315528685Y-165858519D01*
X315502598Y-165593659D01*
X315386406Y-165210625D01*
X315197720Y-164857619D01*
X314943793Y-164548207D01*
X314634381Y-164294280D01*
X314281374Y-164105594D01*
X313898340Y-163989402D01*
X313500000Y-163950169D01*
X313101659Y-163989402D01*
X312718625Y-164105594D01*
X312365619Y-164294280D01*
X312056207Y-164548207D01*
X311802280Y-164857619D01*
X311613594Y-165210626D01*
X311515814Y-165532964D01*
X311505779Y-165471017D01*
X311366322Y-165097055D01*
X311156589Y-164757485D01*
X310884639Y-164465357D01*
X310560923Y-164231897D01*
X310197881Y-164066076D01*
X309980290Y-164008809D01*
X309664600Y-164123060D01*
X309410600Y-164123060D01*
X309094910Y-164008809D01*
X308877319Y-164066076D01*
X308514277Y-164231897D01*
X308190561Y-164465357D01*
X307918611Y-164757485D01*
X307708878Y-165097055D01*
X307569421Y-165471017D01*
X307556400Y-165551399D01*
X307543379Y-165471017D01*
X307403922Y-165097055D01*
X307194189Y-164757485D01*
X306922239Y-164465357D01*
X306598523Y-164231897D01*
X306235481Y-164066076D01*
X306017890Y-164008809D01*
X305702200Y-164123060D01*
X305448200Y-164123060D01*
X305132510Y-164008809D01*
X304914919Y-164066076D01*
X304551877Y-164231897D01*
X304228161Y-164465357D01*
X303956211Y-164757485D01*
X303835300Y-164953247D01*
X303835300Y-156222500D01*
X337890301Y-156222500D01*
X337890300Y-166609177D01*
X337922458Y-166935685D01*
X338049543Y-167354628D01*
X338077728Y-167407358D01*
X338077728Y-167706500D01*
X338103410Y-167967252D01*
X338179468Y-168217984D01*
X338302981Y-168449060D01*
X338469201Y-168651599D01*
X338671740Y-168817819D01*
X338902816Y-168941332D01*
X339153548Y-169017390D01*
X339414300Y-169043072D01*
X340811300Y-169043072D01*
X341072052Y-169017390D01*
X341322784Y-168941332D01*
X341553860Y-168817819D01*
X341756399Y-168651599D01*
X341922619Y-168449060D01*
X342046132Y-168217984D01*
X342122190Y-167967252D01*
X342147872Y-167706500D01*
X342147872Y-167638527D01*
X342246478Y-167902945D01*
X342456211Y-168242515D01*
X342728161Y-168534643D01*
X343051877Y-168768103D01*
X343414919Y-168933924D01*
X343632510Y-168991191D01*
X343948200Y-168876940D01*
X343948200Y-166627000D01*
X344202200Y-166627000D01*
X344202200Y-168876940D01*
X344517890Y-168991191D01*
X344735481Y-168933924D01*
X345098523Y-168768103D01*
X345422239Y-168534643D01*
X345694189Y-168242515D01*
X345903922Y-167902945D01*
X346043379Y-167528983D01*
X346056400Y-167448601D01*
X346069421Y-167528983D01*
X346208878Y-167902945D01*
X346418611Y-168242515D01*
X346690561Y-168534643D01*
X347014277Y-168768103D01*
X347377319Y-168933924D01*
X347594910Y-168991191D01*
X347910600Y-168876940D01*
X347910600Y-166627000D01*
X344202200Y-166627000D01*
X343948200Y-166627000D01*
X343928200Y-166627000D01*
X343928200Y-166373000D01*
X343948200Y-166373000D01*
X343948200Y-164123060D01*
X344202200Y-164123060D01*
X344202200Y-166373000D01*
X347910600Y-166373000D01*
X347910600Y-164123060D01*
X348164600Y-164123060D01*
X348164600Y-166373000D01*
X348184600Y-166373000D01*
X348184600Y-166627000D01*
X348164600Y-166627000D01*
X348164600Y-168876940D01*
X348480290Y-168991191D01*
X348697881Y-168933924D01*
X349060923Y-168768103D01*
X349384639Y-168534643D01*
X349656589Y-168242515D01*
X349866322Y-167902945D01*
X350005779Y-167528983D01*
X350015814Y-167467036D01*
X350113594Y-167789375D01*
X350302281Y-168142381D01*
X350556208Y-168451793D01*
X350865620Y-168705720D01*
X351218626Y-168894406D01*
X351601660Y-169010598D01*
X352000000Y-169049831D01*
X352398341Y-169010598D01*
X352781375Y-168894406D01*
X353134381Y-168705720D01*
X353443793Y-168451793D01*
X353697720Y-168142381D01*
X353886406Y-167789375D01*
X354002598Y-167406340D01*
X354032000Y-167107815D01*
X354032000Y-165892184D01*
X354002598Y-165593659D01*
X353886406Y-165210625D01*
X353697720Y-164857619D01*
X353443793Y-164548207D01*
X353134381Y-164294280D01*
X352781374Y-164105594D01*
X352398340Y-163989402D01*
X352000000Y-163950169D01*
X351601659Y-163989402D01*
X351218625Y-164105594D01*
X350865619Y-164294280D01*
X350556207Y-164548207D01*
X350302280Y-164857619D01*
X350113594Y-165210626D01*
X350015814Y-165532964D01*
X350005779Y-165471017D01*
X349866322Y-165097055D01*
X349656589Y-164757485D01*
X349384639Y-164465357D01*
X349060923Y-164231897D01*
X348697881Y-164066076D01*
X348480290Y-164008809D01*
X348164600Y-164123060D01*
X347910600Y-164123060D01*
X347594910Y-164008809D01*
X347377319Y-164066076D01*
X347014277Y-164231897D01*
X346690561Y-164465357D01*
X346418611Y-164757485D01*
X346208878Y-165097055D01*
X346069421Y-165471017D01*
X346056400Y-165551399D01*
X346043379Y-165471017D01*
X345903922Y-165097055D01*
X345694189Y-164757485D01*
X345422239Y-164465357D01*
X345098523Y-164231897D01*
X344735481Y-164066076D01*
X344517890Y-164008809D01*
X344202200Y-164123060D01*
X343948200Y-164123060D01*
X343632510Y-164008809D01*
X343414919Y-164066076D01*
X343051877Y-164231897D01*
X342728161Y-164465357D01*
X342456211Y-164757485D01*
X342335300Y-164953247D01*
X342335300Y-156222500D01*
X354890301Y-156222500D01*
X354890300Y-166609177D01*
X354922458Y-166935685D01*
X355049543Y-167354628D01*
X355077728Y-167407358D01*
X355077728Y-167706500D01*
X355103410Y-167967252D01*
X355179468Y-168217984D01*
X355302981Y-168449060D01*
X355469201Y-168651599D01*
X355671740Y-168817819D01*
X355902816Y-168941332D01*
X356153548Y-169017390D01*
X356414300Y-169043072D01*
X357811300Y-169043072D01*
X358072052Y-169017390D01*
X358322784Y-168941332D01*
X358553860Y-168817819D01*
X358756399Y-168651599D01*
X358922619Y-168449060D01*
X359046132Y-168217984D01*
X359122190Y-167967252D01*
X359147872Y-167706500D01*
X359147872Y-167638527D01*
X359246478Y-167902945D01*
X359456211Y-168242515D01*
X359728161Y-168534643D01*
X360051877Y-168768103D01*
X360414919Y-168933924D01*
X360632510Y-168991191D01*
X360948200Y-168876940D01*
X360948200Y-166627000D01*
X361202200Y-166627000D01*
X361202200Y-168876940D01*
X361517890Y-168991191D01*
X361735481Y-168933924D01*
X362098523Y-168768103D01*
X362422239Y-168534643D01*
X362694189Y-168242515D01*
X362903922Y-167902945D01*
X363043379Y-167528983D01*
X363056400Y-167448601D01*
X363069421Y-167528983D01*
X363208878Y-167902945D01*
X363418611Y-168242515D01*
X363690561Y-168534643D01*
X364014277Y-168768103D01*
X364377319Y-168933924D01*
X364594910Y-168991191D01*
X364910600Y-168876940D01*
X364910600Y-166627000D01*
X361202200Y-166627000D01*
X360948200Y-166627000D01*
X360928200Y-166627000D01*
X360928200Y-166373000D01*
X360948200Y-166373000D01*
X360948200Y-164123060D01*
X361202200Y-164123060D01*
X361202200Y-166373000D01*
X364910600Y-166373000D01*
X364910600Y-164123060D01*
X365164600Y-164123060D01*
X365164600Y-166373000D01*
X365184600Y-166373000D01*
X365184600Y-166627000D01*
X365164600Y-166627000D01*
X365164600Y-168876940D01*
X365480290Y-168991191D01*
X365697881Y-168933924D01*
X366060923Y-168768103D01*
X366384639Y-168534643D01*
X366656589Y-168242515D01*
X366866322Y-167902945D01*
X367005779Y-167528983D01*
X367015814Y-167467036D01*
X367113594Y-167789375D01*
X367302281Y-168142381D01*
X367556208Y-168451793D01*
X367865620Y-168705720D01*
X368218626Y-168894406D01*
X368601660Y-169010598D01*
X369000000Y-169049831D01*
X369398341Y-169010598D01*
X369781375Y-168894406D01*
X370134381Y-168705720D01*
X370443793Y-168451793D01*
X370697720Y-168142381D01*
X370886406Y-167789375D01*
X371002598Y-167406340D01*
X371032000Y-167107815D01*
X371032000Y-165892184D01*
X371002598Y-165593659D01*
X370886406Y-165210625D01*
X370697720Y-164857619D01*
X370443793Y-164548207D01*
X370134381Y-164294280D01*
X369781374Y-164105594D01*
X369398340Y-163989402D01*
X369000000Y-163950169D01*
X368601659Y-163989402D01*
X368218625Y-164105594D01*
X367865619Y-164294280D01*
X367556207Y-164548207D01*
X367302280Y-164857619D01*
X367113594Y-165210626D01*
X367015814Y-165532964D01*
X367005779Y-165471017D01*
X366866322Y-165097055D01*
X366656589Y-164757485D01*
X366384639Y-164465357D01*
X366060923Y-164231897D01*
X365697881Y-164066076D01*
X365480290Y-164008809D01*
X365164600Y-164123060D01*
X364910600Y-164123060D01*
X364594910Y-164008809D01*
X364377319Y-164066076D01*
X364014277Y-164231897D01*
X363690561Y-164465357D01*
X363418611Y-164757485D01*
X363208878Y-165097055D01*
X363069421Y-165471017D01*
X363056400Y-165551399D01*
X363043379Y-165471017D01*
X362903922Y-165097055D01*
X362694189Y-164757485D01*
X362422239Y-164465357D01*
X362098523Y-164231897D01*
X361735481Y-164066076D01*
X361517890Y-164008809D01*
X361202200Y-164123060D01*
X360948200Y-164123060D01*
X360632510Y-164008809D01*
X360414919Y-164066076D01*
X360051877Y-164231897D01*
X359728161Y-164465357D01*
X359456211Y-164757485D01*
X359335300Y-164953247D01*
X359335300Y-156222500D01*
X371890301Y-156222500D01*
X371890300Y-166609177D01*
X371922458Y-166935685D01*
X372049543Y-167354628D01*
X372077728Y-167407358D01*
X372077728Y-167706500D01*
X372103410Y-167967252D01*
X372179468Y-168217984D01*
X372302981Y-168449060D01*
X372469201Y-168651599D01*
X372671740Y-168817819D01*
X372902816Y-168941332D01*
X373153548Y-169017390D01*
X373414300Y-169043072D01*
X374811300Y-169043072D01*
X375072052Y-169017390D01*
X375322784Y-168941332D01*
X375553860Y-168817819D01*
X375756399Y-168651599D01*
X375922619Y-168449060D01*
X376046132Y-168217984D01*
X376122190Y-167967252D01*
X376147872Y-167706500D01*
X376147872Y-167638527D01*
X376246478Y-167902945D01*
X376456211Y-168242515D01*
X376728161Y-168534643D01*
X377051877Y-168768103D01*
X377414919Y-168933924D01*
X377632510Y-168991191D01*
X377948200Y-168876940D01*
X377948200Y-166627000D01*
X378202200Y-166627000D01*
X378202200Y-168876940D01*
X378517890Y-168991191D01*
X378735481Y-168933924D01*
X379098523Y-168768103D01*
X379422239Y-168534643D01*
X379694189Y-168242515D01*
X379903922Y-167902945D01*
X380043379Y-167528983D01*
X380056400Y-167448601D01*
X380069421Y-167528983D01*
X380208878Y-167902945D01*
X380418611Y-168242515D01*
X380690561Y-168534643D01*
X381014277Y-168768103D01*
X381377319Y-168933924D01*
X381594910Y-168991191D01*
X381910600Y-168876940D01*
X381910600Y-166627000D01*
X378202200Y-166627000D01*
X377948200Y-166627000D01*
X377928200Y-166627000D01*
X377928200Y-166373000D01*
X377948200Y-166373000D01*
X377948200Y-164123060D01*
X378202200Y-164123060D01*
X378202200Y-166373000D01*
X381910600Y-166373000D01*
X381910600Y-164123060D01*
X382164600Y-164123060D01*
X382164600Y-166373000D01*
X382184600Y-166373000D01*
X382184600Y-166627000D01*
X382164600Y-166627000D01*
X382164600Y-168876940D01*
X382480290Y-168991191D01*
X382697881Y-168933924D01*
X383060923Y-168768103D01*
X383384639Y-168534643D01*
X383656589Y-168242515D01*
X383866322Y-167902945D01*
X384005779Y-167528983D01*
X384015814Y-167467036D01*
X384113594Y-167789375D01*
X384302281Y-168142381D01*
X384556208Y-168451793D01*
X384865620Y-168705720D01*
X385218626Y-168894406D01*
X385601660Y-169010598D01*
X386000000Y-169049831D01*
X386398341Y-169010598D01*
X386781375Y-168894406D01*
X387134381Y-168705720D01*
X387443793Y-168451793D01*
X387697720Y-168142381D01*
X387886406Y-167789375D01*
X388002598Y-167406340D01*
X388032000Y-167107815D01*
X388032000Y-165892184D01*
X388002598Y-165593659D01*
X387886406Y-165210625D01*
X387697720Y-164857619D01*
X387443793Y-164548207D01*
X387134381Y-164294280D01*
X386781374Y-164105594D01*
X386398340Y-163989402D01*
X386000000Y-163950169D01*
X385601659Y-163989402D01*
X385218625Y-164105594D01*
X384865619Y-164294280D01*
X384556207Y-164548207D01*
X384302280Y-164857619D01*
X384113594Y-165210626D01*
X384015814Y-165532964D01*
X384005779Y-165471017D01*
X383866322Y-165097055D01*
X383656589Y-164757485D01*
X383384639Y-164465357D01*
X383060923Y-164231897D01*
X382697881Y-164066076D01*
X382480290Y-164008809D01*
X382164600Y-164123060D01*
X381910600Y-164123060D01*
X381594910Y-164008809D01*
X381377319Y-164066076D01*
X381014277Y-164231897D01*
X380690561Y-164465357D01*
X380418611Y-164757485D01*
X380208878Y-165097055D01*
X380069421Y-165471017D01*
X380056400Y-165551399D01*
X380043379Y-165471017D01*
X379903922Y-165097055D01*
X379694189Y-164757485D01*
X379422239Y-164465357D01*
X379098523Y-164231897D01*
X378735481Y-164066076D01*
X378517890Y-164008809D01*
X378202200Y-164123060D01*
X377948200Y-164123060D01*
X377632510Y-164008809D01*
X377414919Y-164066076D01*
X377051877Y-164231897D01*
X376728161Y-164465357D01*
X376456211Y-164757485D01*
X376335300Y-164953247D01*
X376335300Y-156222500D01*
X387711911Y-156222500D01*
X388890300Y-157400890D01*
X388890301Y-166609178D01*
X388922459Y-166935686D01*
X389049544Y-167354629D01*
X389077728Y-167407357D01*
X389077728Y-167706500D01*
X389103410Y-167967252D01*
X389179468Y-168217984D01*
X389302981Y-168449060D01*
X389469201Y-168651599D01*
X389671740Y-168817819D01*
X389902816Y-168941332D01*
X390153548Y-169017390D01*
X390414300Y-169043072D01*
X391811300Y-169043072D01*
X392072052Y-169017390D01*
X392322784Y-168941332D01*
X392553860Y-168817819D01*
X392756399Y-168651599D01*
X392922619Y-168449060D01*
X393046132Y-168217984D01*
X393122190Y-167967252D01*
X393147872Y-167706500D01*
X393147872Y-167638527D01*
X393246478Y-167902945D01*
X393456211Y-168242515D01*
X393728161Y-168534643D01*
X394051877Y-168768103D01*
X394414919Y-168933924D01*
X394632510Y-168991191D01*
X394948200Y-168876940D01*
X394948200Y-166627000D01*
X395202200Y-166627000D01*
X395202200Y-168876940D01*
X395517890Y-168991191D01*
X395735481Y-168933924D01*
X396098523Y-168768103D01*
X396422239Y-168534643D01*
X396694189Y-168242515D01*
X396903922Y-167902945D01*
X397043379Y-167528983D01*
X397056400Y-167448601D01*
X397069421Y-167528983D01*
X397208878Y-167902945D01*
X397418611Y-168242515D01*
X397690561Y-168534643D01*
X398014277Y-168768103D01*
X398377319Y-168933924D01*
X398594910Y-168991191D01*
X398910600Y-168876940D01*
X398910600Y-166627000D01*
X395202200Y-166627000D01*
X394948200Y-166627000D01*
X394928200Y-166627000D01*
X394928200Y-166373000D01*
X394948200Y-166373000D01*
X394948200Y-164123060D01*
X395202200Y-164123060D01*
X395202200Y-166373000D01*
X398910600Y-166373000D01*
X398910600Y-164123060D01*
X399164600Y-164123060D01*
X399164600Y-166373000D01*
X399184600Y-166373000D01*
X399184600Y-166627000D01*
X399164600Y-166627000D01*
X399164600Y-168876940D01*
X399480290Y-168991191D01*
X399697881Y-168933924D01*
X400060923Y-168768103D01*
X400384639Y-168534643D01*
X400656589Y-168242515D01*
X400866322Y-167902945D01*
X401005779Y-167528983D01*
X401015814Y-167467036D01*
X401113594Y-167789375D01*
X401302281Y-168142381D01*
X401556208Y-168451793D01*
X401865620Y-168705720D01*
X402218626Y-168894406D01*
X402601660Y-169010598D01*
X403000000Y-169049831D01*
X403398341Y-169010598D01*
X403781375Y-168894406D01*
X404134381Y-168705720D01*
X404443793Y-168451793D01*
X404595871Y-168266484D01*
X408028390Y-168266484D01*
X408093051Y-168940023D01*
X408287870Y-169588006D01*
X408605361Y-170185530D01*
X408614823Y-170199692D01*
X409063519Y-170511876D01*
X411300395Y-168275000D01*
X409063519Y-166038124D01*
X408614823Y-166350308D01*
X408294388Y-166946259D01*
X408096374Y-167593273D01*
X408028390Y-168266484D01*
X404595871Y-168266484D01*
X404697720Y-168142381D01*
X404886406Y-167789375D01*
X405002598Y-167406340D01*
X405032000Y-167107815D01*
X405032000Y-165892184D01*
X405028685Y-165858519D01*
X409243124Y-165858519D01*
X411480000Y-168095395D01*
X413716876Y-165858519D01*
X413404692Y-165409823D01*
X412808741Y-165089388D01*
X412161727Y-164891374D01*
X411488516Y-164823390D01*
X410814977Y-164888051D01*
X410166994Y-165082870D01*
X409569470Y-165400361D01*
X409555308Y-165409823D01*
X409243124Y-165858519D01*
X405028685Y-165858519D01*
X405002598Y-165593659D01*
X404886406Y-165210625D01*
X404697720Y-164857619D01*
X404443793Y-164548207D01*
X404134381Y-164294280D01*
X403781374Y-164105594D01*
X403398340Y-163989402D01*
X403000000Y-163950169D01*
X402601659Y-163989402D01*
X402218625Y-164105594D01*
X401865619Y-164294280D01*
X401556207Y-164548207D01*
X401302280Y-164857619D01*
X401113594Y-165210626D01*
X401015814Y-165532964D01*
X401005779Y-165471017D01*
X400866322Y-165097055D01*
X400656589Y-164757485D01*
X400384639Y-164465357D01*
X400060923Y-164231897D01*
X399697881Y-164066076D01*
X399480290Y-164008809D01*
X399164600Y-164123060D01*
X398910600Y-164123060D01*
X398594910Y-164008809D01*
X398377319Y-164066076D01*
X398014277Y-164231897D01*
X397690561Y-164465357D01*
X397418611Y-164757485D01*
X397208878Y-165097055D01*
X397069421Y-165471017D01*
X397056400Y-165551399D01*
X397043379Y-165471017D01*
X396903922Y-165097055D01*
X396694189Y-164757485D01*
X396422239Y-164465357D01*
X396098523Y-164231897D01*
X395735481Y-164066076D01*
X395517890Y-164008809D01*
X395202200Y-164123060D01*
X394948200Y-164123060D01*
X394632510Y-164008809D01*
X394414919Y-164066076D01*
X394051877Y-164231897D01*
X393728161Y-164465357D01*
X393456211Y-164757485D01*
X393335300Y-164953247D01*
X393335300Y-156589468D01*
X393346052Y-156480300D01*
X393335300Y-156371132D01*
X393335300Y-156371122D01*
X393303142Y-156044614D01*
X393176057Y-155625671D01*
X393102486Y-155488029D01*
X392969682Y-155239570D01*
X392761545Y-154985955D01*
X392761541Y-154985951D01*
X392691948Y-154901152D01*
X392607149Y-154831559D01*
X392592071Y-154816481D01*
X409243124Y-154816481D01*
X409555308Y-155265177D01*
X410151259Y-155585612D01*
X410798273Y-155783626D01*
X411471484Y-155851610D01*
X412145023Y-155786949D01*
X412793006Y-155592130D01*
X413390530Y-155274639D01*
X413404692Y-155265177D01*
X413716876Y-154816481D01*
X411480000Y-152579605D01*
X409243124Y-154816481D01*
X392592071Y-154816481D01*
X390281245Y-152505656D01*
X390211648Y-152420852D01*
X390175864Y-152391484D01*
X408028390Y-152391484D01*
X408093051Y-153065023D01*
X408287870Y-153713006D01*
X408605361Y-154310530D01*
X408614823Y-154324692D01*
X409063519Y-154636876D01*
X411300395Y-152400000D01*
X409063519Y-150163124D01*
X408614823Y-150475308D01*
X408294388Y-151071259D01*
X408096374Y-151718273D01*
X408028390Y-152391484D01*
X390175864Y-152391484D01*
X389873229Y-152143118D01*
X389487129Y-151936743D01*
X389068186Y-151809658D01*
X388741678Y-151777500D01*
X388741667Y-151777500D01*
X388632500Y-151766748D01*
X388523333Y-151777500D01*
X374492670Y-151777500D01*
X374383500Y-151766748D01*
X374274330Y-151777500D01*
X356547167Y-151777500D01*
X356438000Y-151766748D01*
X356328833Y-151777500D01*
X340291170Y-151777500D01*
X340182000Y-151766748D01*
X340072830Y-151777500D01*
X302356667Y-151777500D01*
X302247499Y-151766748D01*
X302138331Y-151777500D01*
X284474667Y-151777500D01*
X284365500Y-151766748D01*
X284256333Y-151777500D01*
X270043535Y-151777500D01*
X270380210Y-151595460D01*
X270429826Y-151561993D01*
X270479856Y-151529255D01*
X270486997Y-151523431D01*
X270811663Y-151254844D01*
X270853822Y-151212389D01*
X270896552Y-151170545D01*
X270902426Y-151163445D01*
X271168740Y-150836912D01*
X271201822Y-150787119D01*
X271235640Y-150737730D01*
X271240022Y-150729624D01*
X271437840Y-150357582D01*
X271460636Y-150302276D01*
X271484201Y-150247295D01*
X271486926Y-150238492D01*
X271593651Y-149885000D01*
X409311669Y-149885000D01*
X409243124Y-149983519D01*
X411480000Y-152220395D01*
X413716876Y-149983519D01*
X413648331Y-149885000D01*
X413987725Y-149885000D01*
X413994513Y-149885666D01*
X413995001Y-149890310D01*
X413995001Y-150231670D01*
X413896481Y-150163124D01*
X411659605Y-152400000D01*
X413896481Y-154636876D01*
X413995001Y-154568330D01*
X413995000Y-166106670D01*
X413896481Y-166038124D01*
X411659605Y-168275000D01*
X413896481Y-170511876D01*
X413995000Y-170443331D01*
X413995000Y-170782725D01*
X413994335Y-170789513D01*
X413989699Y-170790000D01*
X413648331Y-170790000D01*
X413716876Y-170691481D01*
X411480000Y-168454605D01*
X409243124Y-170691481D01*
X409311669Y-170790000D01*
X322208331Y-170790000D01*
X322276876Y-170691481D01*
X320040000Y-168454605D01*
X317803124Y-170691481D01*
X317871669Y-170790000D01*
X271596262Y-170790000D01*
X271472519Y-170399914D01*
X271448952Y-170344929D01*
X271426159Y-170289628D01*
X271421776Y-170281522D01*
X271218782Y-169912279D01*
X271185013Y-169862960D01*
X271151884Y-169813096D01*
X271146009Y-169805996D01*
X270875162Y-169483213D01*
X270832449Y-169441385D01*
X270790272Y-169398913D01*
X270783131Y-169393089D01*
X270454747Y-169129063D01*
X270404728Y-169096331D01*
X270355102Y-169062858D01*
X270346965Y-169058532D01*
X269973552Y-168863316D01*
X269918080Y-168840904D01*
X269862942Y-168817726D01*
X269854120Y-168815062D01*
X269449901Y-168696095D01*
X269391174Y-168684892D01*
X269332544Y-168672857D01*
X269323373Y-168671958D01*
X268903744Y-168633769D01*
X268843927Y-168634187D01*
X268784110Y-168633769D01*
X268774939Y-168634669D01*
X268774935Y-168634669D01*
X268355885Y-168678712D01*
X268297292Y-168690740D01*
X268238528Y-168701949D01*
X268229706Y-168704613D01*
X267827187Y-168829213D01*
X267772036Y-168852397D01*
X267716578Y-168874803D01*
X267708441Y-168879129D01*
X267337790Y-169079540D01*
X267288174Y-169113007D01*
X267238144Y-169145745D01*
X267231003Y-169151569D01*
X266906337Y-169420156D01*
X266864197Y-169462592D01*
X266821447Y-169504455D01*
X266815574Y-169511556D01*
X266549260Y-169838088D01*
X266516156Y-169887915D01*
X266482361Y-169937270D01*
X266477978Y-169945376D01*
X266280160Y-170317417D01*
X266257359Y-170372737D01*
X266233799Y-170427705D01*
X266231074Y-170436508D01*
X266124349Y-170790000D01*
X246008331Y-170790000D01*
X246076876Y-170691481D01*
X243840000Y-168454605D01*
X241603124Y-170691481D01*
X241671669Y-170790000D01*
X195208331Y-170790000D01*
X195276876Y-170691481D01*
X193040000Y-168454605D01*
X190803124Y-170691481D01*
X190871669Y-170790000D01*
X119008331Y-170790000D01*
X119076876Y-170691481D01*
X116840000Y-168454605D01*
X114603124Y-170691481D01*
X114671669Y-170790000D01*
X27568331Y-170790000D01*
X27636876Y-170691481D01*
X25400000Y-168454605D01*
X23163124Y-170691481D01*
X23231669Y-170790000D01*
X22257275Y-170790000D01*
X22250487Y-170789335D01*
X22250000Y-170784699D01*
X22250000Y-169667295D01*
X22525361Y-170185530D01*
X22534823Y-170199692D01*
X22983519Y-170511876D01*
X25220395Y-168275000D01*
X25579605Y-168275000D01*
X27816481Y-170511876D01*
X28265177Y-170199692D01*
X28585612Y-169603741D01*
X28783626Y-168956727D01*
X28851610Y-168283516D01*
X28786949Y-167609977D01*
X28592130Y-166961994D01*
X28274639Y-166364470D01*
X28265177Y-166350308D01*
X27816481Y-166038124D01*
X25579605Y-168275000D01*
X25220395Y-168275000D01*
X22983519Y-166038124D01*
X22534823Y-166350308D01*
X22250000Y-166880027D01*
X22250000Y-165858519D01*
X23163124Y-165858519D01*
X25400000Y-168095395D01*
X27636876Y-165858519D01*
X27324692Y-165409823D01*
X26728741Y-165089388D01*
X26081727Y-164891374D01*
X25408516Y-164823390D01*
X24734977Y-164888051D01*
X24086994Y-165082870D01*
X23489470Y-165400361D01*
X23475308Y-165409823D01*
X23163124Y-165858519D01*
X22250000Y-165858519D01*
X22250000Y-154816481D01*
X23163124Y-154816481D01*
X23475308Y-155265177D01*
X24071259Y-155585612D01*
X24718273Y-155783626D01*
X25391484Y-155851610D01*
X26065023Y-155786949D01*
X26713006Y-155592130D01*
X27310530Y-155274639D01*
X27324692Y-155265177D01*
X27636876Y-154816481D01*
X25400000Y-152579605D01*
X23163124Y-154816481D01*
X22250000Y-154816481D01*
X22250000Y-153792295D01*
X22525361Y-154310530D01*
X22534823Y-154324692D01*
X22983519Y-154636876D01*
X25220395Y-152400000D01*
X25579605Y-152400000D01*
X27816481Y-154636876D01*
X28265177Y-154324692D01*
X28585612Y-153728741D01*
X28783626Y-153081727D01*
X28851610Y-152408516D01*
X28786949Y-151734977D01*
X28592130Y-151086994D01*
X28274639Y-150489470D01*
X28265177Y-150475308D01*
X27816481Y-150163124D01*
X25579605Y-152400000D01*
X25220395Y-152400000D01*
X22983519Y-150163124D01*
X22534823Y-150475308D01*
X22250000Y-151005027D01*
X22250000Y-149892275D01*
X22250666Y-149885487D01*
X22255301Y-149885000D01*
X23231669Y-149885000D01*
X23163124Y-149983519D01*
G37*
%TD.AperFunction*%
%TD*%
M02*
