M48
; DRILL file {KiCad (5.1.8-0-10_14)} date Sunday, October 31, 2021 at 02:58:16 PM
; FORMAT={-:-/ absolute / metric / decimal}
; #@! TF.CreationDate,2021-10-31T14:58:16+00:00
; #@! TF.GenerationSoftware,Kicad,Pcbnew,(5.1.8-0-10_14)
FMAT,2
METRIC
T1C1.000
T2C1.100
T3C1.778
T4C3.200
%
G90
G05
T1
X103.505Y-158.115
X117.475Y-158.115
X110.49Y-158.115
T2
X254.635Y-154.0
X254.635Y-158.0
X254.635Y-162.0
X254.635Y-166.0
T3
X201.113Y-166.5
X205.075Y-166.5
X209.038Y-166.5
X213.0Y-166.5
X50.613Y-166.37
X54.575Y-166.37
X58.538Y-166.37
X62.5Y-166.37
X84.613Y-166.37
X88.575Y-166.37
X92.538Y-166.37
X96.5Y-166.37
X218.113Y-166.5
X222.075Y-166.5
X226.038Y-166.5
X230.0Y-166.5
X33.613Y-166.37
X37.575Y-166.37
X41.538Y-166.37
X45.5Y-166.37
X391.113Y-166.5
X395.075Y-166.5
X399.038Y-166.5
X403.0Y-166.5
X157.113Y-166.5
X161.075Y-166.5
X165.038Y-166.5
X169.0Y-166.5
X340.113Y-166.5
X344.075Y-166.5
X348.038Y-166.5
X352.0Y-166.5
X67.613Y-166.37
X71.575Y-166.37
X75.538Y-166.37
X79.5Y-166.37
X374.113Y-166.5
X378.075Y-166.5
X382.038Y-166.5
X386.0Y-166.5
X123.113Y-166.37
X127.075Y-166.37
X131.038Y-166.37
X135.0Y-166.37
X174.113Y-166.5
X178.075Y-166.5
X182.038Y-166.5
X186.0Y-166.5
X301.613Y-166.5
X305.575Y-166.5
X309.538Y-166.5
X313.5Y-166.5
X357.113Y-166.5
X361.075Y-166.5
X365.038Y-166.5
X369.0Y-166.5
X284.613Y-166.5
X288.575Y-166.5
X292.538Y-166.5
X296.5Y-166.5
X140.113Y-166.37
X144.075Y-166.37
X148.038Y-166.37
X152.0Y-166.37
T4
X411.48Y-168.275
X243.84Y-168.275
X411.48Y-152.4
X320.04Y-168.275
X193.04Y-168.275
X116.84Y-168.275
X25.4Y-168.275
X25.4Y-152.4
T0
M30
