M48
; DRILL file {KiCad (5.1.8-0-10_14)} date Saturday, June 26, 2021 at 06:54:19 PM
; FORMAT={-:-/ absolute / metric / decimal}
; #@! TF.CreationDate,2021-06-26T18:54:19+01:00
; #@! TF.GenerationSoftware,Kicad,Pcbnew,(5.1.8-0-10_14)
FMAT,2
METRIC
T1C0.800
T2C1.016
T3C1.100
T4C1.500
T5C3.200
%
G90
G05
T1
X121.92Y-127.635
X132.08Y-127.635
X119.38Y-108.585
X124.38Y-108.585
X95.25Y-128.905
X105.41Y-128.905
X117.475Y-113.03
X127.635Y-113.03
X95.25Y-125.73
X105.41Y-125.73
X123.825Y-142.875
X133.985Y-142.875
X90.805Y-114.3
X100.965Y-114.3
X104.775Y-107.395
X104.775Y-112.395
X108.585Y-137.16
X118.745Y-137.16
X121.92Y-130.81
X132.08Y-130.81
X109.855Y-116.84
X109.855Y-119.38
X109.855Y-121.92
X109.855Y-124.46
X109.855Y-127.0
X109.855Y-129.54
X109.855Y-132.08
X117.475Y-116.84
X117.475Y-119.38
X117.475Y-121.92
X117.475Y-124.46
X117.475Y-127.0
X117.475Y-129.54
X117.475Y-132.08
T2
X96.52Y-118.745
X109.093Y-108.458
X112.395Y-108.458
X115.697Y-108.458
X133.096Y-123.825
X95.25Y-133.985
X133.096Y-120.015
X133.35Y-135.255
X95.25Y-137.16
X96.52Y-121.92
X133.35Y-138.43
T3
X125.095Y-118.11
X125.095Y-123.11
X127.595Y-120.61
X99.735Y-134.66
X102.235Y-132.16
X102.235Y-137.16
X103.505Y-117.475
X103.505Y-122.475
X106.005Y-119.975
X123.23Y-136.565
X125.73Y-134.065
X125.73Y-139.065
T4
X93.726Y-118.745
X109.093Y-105.728
X112.395Y-105.728
X115.697Y-105.728
X135.89Y-123.825
X92.456Y-133.985
X135.89Y-120.015
X136.144Y-135.255
X92.456Y-137.16
X93.726Y-121.92
X136.144Y-138.43
T5
X92.71Y-148.59
X135.89Y-148.59
T0
M30
