M48
; DRILL file {KiCad (6.0.0-0)} date Saturday, 01 January 2022 at 23:17:01
; FORMAT={-:-/ absolute / metric / decimal}
; #@! TF.CreationDate,2022-01-01T23:17:01+00:00
; #@! TF.GenerationSoftware,Kicad,Pcbnew,(6.0.0-0)
; #@! TF.FileFunction,MixedPlating,1,2
FMAT,2
METRIC
; #@! TA.AperFunction,Plated,PTH,ViaDrill
T1C0.381
; #@! TA.AperFunction,Plated,PTH,ComponentDrill
T2C0.800
; #@! TA.AperFunction,Plated,PTH,ComponentDrill
T3C1.016
; #@! TA.AperFunction,Plated,PTH,ComponentDrill
T4C1.100
; #@! TA.AperFunction,NonPlated,NPTH,ComponentDrill
T5C1.500
; #@! TA.AperFunction,NonPlated,NPTH,ComponentDrill
T6C3.200
%
G90
G05
T1
X91.186Y-125.984
X93.472Y-134.366
X93.599Y-106.045
X98.933Y-147.955
X100.584Y-120.523
X104.013Y-123.571
X105.283Y-102.616
X105.664Y-108.585
X106.045Y-113.538
X114.173Y-119.507
X114.173Y-122.301
X114.173Y-129.286
X114.3Y-132.715
X120.269Y-104.013
X120.777Y-113.665
X124.587Y-120.65
X130.937Y-105.537
X132.334Y-144.018
X135.763Y-139.065
X137.541Y-126.111
T2
X93.98Y-121.285
X93.98Y-126.285
X97.155Y-117.475
X97.155Y-120.65
X97.155Y-123.825
X97.155Y-130.175
X97.155Y-133.35
X100.33Y-136.525
X102.315Y-127.0
X105.33Y-136.525
X107.315Y-117.475
X107.315Y-120.65
X107.315Y-123.825
X107.315Y-127.0
X107.315Y-130.175
X107.315Y-133.35
X110.49Y-118.11
X110.49Y-120.65
X110.49Y-123.19
X110.49Y-125.73
X110.49Y-128.27
X110.49Y-130.81
X110.49Y-133.35
X118.11Y-118.11
X118.11Y-120.65
X118.11Y-123.19
X118.11Y-125.73
X118.11Y-128.27
X118.11Y-130.81
X118.11Y-133.35
X121.285Y-117.475
X121.285Y-120.65
X121.285Y-123.825
X121.285Y-127.0
X121.285Y-130.175
X121.285Y-133.35
X121.365Y-137.16
X126.285Y-127.0
X126.365Y-137.16
X131.445Y-117.475
X131.445Y-120.65
X131.445Y-123.825
X131.445Y-130.175
X131.445Y-133.35
X134.62Y-121.92
X134.62Y-126.92
T3
X93.98Y-117.475
X93.98Y-130.175
X109.601Y-107.95
X112.903Y-107.95
X116.205Y-107.95
X134.62Y-118.745
X134.62Y-130.175
T4
X95.29Y-138.47
X95.29Y-143.47
X95.925Y-109.22
X97.79Y-140.97
X98.425Y-111.72
X100.925Y-109.22
X123.23Y-109.18
X123.825Y-144.145
X125.73Y-111.68
X126.325Y-146.645
X128.23Y-109.18
X128.825Y-144.145
T5
X91.186Y-117.475
X91.186Y-130.175
X109.601Y-105.22
X112.903Y-105.22
X116.205Y-105.22
X137.414Y-118.745
X137.414Y-130.175
T6
X92.71Y-148.59
X135.89Y-148.59
T0
M30
