%TF.GenerationSoftware,KiCad,Pcbnew,(6.0.0-0)*%
%TF.CreationDate,2022-01-01T23:16:52+00:00*%
%TF.ProjectId,cgs348-vco-output-buffer,63677333-3438-42d7-9663-6f2d6f757470,rev?*%
%TF.SameCoordinates,Original*%
%TF.FileFunction,Soldermask,Top*%
%TF.FilePolarity,Negative*%
%FSLAX46Y46*%
G04 Gerber Fmt 4.6, Leading zero omitted, Abs format (unit mm)*
G04 Created by KiCad (PCBNEW (6.0.0-0)) date 2022-01-01 23:16:52*
%MOMM*%
%LPD*%
G01*
G04 APERTURE LIST*
G04 Aperture macros list*
%AMRoundRect*
0 Rectangle with rounded corners*
0 $1 Rounding radius*
0 $2 $3 $4 $5 $6 $7 $8 $9 X,Y pos of 4 corners*
0 Add a 4 corners polygon primitive as box body*
4,1,4,$2,$3,$4,$5,$6,$7,$8,$9,$2,$3,0*
0 Add four circle primitives for the rounded corners*
1,1,$1+$1,$2,$3*
1,1,$1+$1,$4,$5*
1,1,$1+$1,$6,$7*
1,1,$1+$1,$8,$9*
0 Add four rect primitives between the rounded corners*
20,1,$1+$1,$2,$3,$4,$5,0*
20,1,$1+$1,$4,$5,$6,$7,0*
20,1,$1+$1,$6,$7,$8,$9,0*
20,1,$1+$1,$8,$9,$2,$3,0*%
G04 Aperture macros list end*
%ADD10C,1.600000*%
%ADD11C,1.500000*%
%ADD12RoundRect,0.254000X0.762000X-0.762000X0.762000X0.762000X-0.762000X0.762000X-0.762000X-0.762000X0*%
%ADD13RoundRect,0.254000X-0.762000X0.762000X-0.762000X-0.762000X0.762000X-0.762000X0.762000X0.762000X0*%
%ADD14RoundRect,0.254000X0.762000X0.762000X-0.762000X0.762000X-0.762000X-0.762000X0.762000X-0.762000X0*%
%ADD15C,2.032000*%
%ADD16O,1.600000X1.600000*%
%ADD17C,2.000000*%
%ADD18R,1.600000X1.600000*%
%ADD19C,3.200000*%
G04 APERTURE END LIST*
D10*
%TO.C,C1*%
X126365000Y-137160000D03*
X121365000Y-137160000D03*
%TD*%
%TO.C,C2*%
X100330000Y-136525000D03*
X105330000Y-136525000D03*
%TD*%
D11*
%TO.C,J1*%
X137414000Y-130175000D03*
D12*
X134620000Y-130175000D03*
%TD*%
D11*
%TO.C,J2*%
X91186000Y-130175000D03*
D13*
X93980000Y-130175000D03*
%TD*%
D11*
%TO.C,J3*%
X137414000Y-118745000D03*
D12*
X134620000Y-118745000D03*
%TD*%
D11*
%TO.C,J4*%
X91186000Y-117475000D03*
D13*
X93980000Y-117475000D03*
%TD*%
D11*
%TO.C,J5*%
X109601000Y-105220000D03*
X116205000Y-105220000D03*
X112903000Y-105220000D03*
D14*
X116205000Y-107950000D03*
D15*
X112903000Y-107950000D03*
X109601000Y-107950000D03*
%TD*%
D10*
%TO.C,R1*%
X131445000Y-130175000D03*
D16*
X121285000Y-130175000D03*
%TD*%
D10*
%TO.C,R2*%
X97155000Y-130175000D03*
D16*
X107315000Y-130175000D03*
%TD*%
D10*
%TO.C,R3*%
X131445000Y-133350000D03*
D16*
X121285000Y-133350000D03*
%TD*%
D10*
%TO.C,R4*%
X97155000Y-133350000D03*
D16*
X107315000Y-133350000D03*
%TD*%
D10*
%TO.C,R5*%
X131445000Y-120650000D03*
D16*
X121285000Y-120650000D03*
%TD*%
D10*
%TO.C,R6*%
X97155000Y-120650000D03*
D16*
X107315000Y-120650000D03*
%TD*%
D10*
%TO.C,R7*%
X131445000Y-123825000D03*
D16*
X121285000Y-123825000D03*
%TD*%
D10*
%TO.C,R8*%
X97155000Y-123825000D03*
D16*
X107315000Y-123825000D03*
%TD*%
D17*
%TO.C,RV1*%
X128825000Y-144145000D03*
X126325000Y-146645000D03*
X123825000Y-144145000D03*
%TD*%
%TO.C,RV2*%
X95290000Y-138470000D03*
X97790000Y-140970000D03*
X95290000Y-143470000D03*
%TD*%
%TO.C,RV3*%
X128230000Y-109180000D03*
X125730000Y-111680000D03*
X123230000Y-109180000D03*
%TD*%
%TO.C,RV4*%
X100925000Y-109220000D03*
X98425000Y-111720000D03*
X95925000Y-109220000D03*
%TD*%
D18*
%TO.C,U1*%
X118110000Y-133350000D03*
D16*
X118110000Y-130810000D03*
X118110000Y-128270000D03*
X118110000Y-125730000D03*
X118110000Y-123190000D03*
X118110000Y-120650000D03*
X118110000Y-118110000D03*
X110490000Y-118110000D03*
X110490000Y-120650000D03*
X110490000Y-123190000D03*
X110490000Y-125730000D03*
X110490000Y-128270000D03*
X110490000Y-130810000D03*
X110490000Y-133350000D03*
%TD*%
D19*
%TO.C,H1*%
X92710000Y-148590000D03*
%TD*%
D10*
%TO.C,R9*%
X131445000Y-117475000D03*
D16*
X121285000Y-117475000D03*
%TD*%
D10*
%TO.C,R10*%
X97155000Y-117475000D03*
D16*
X107315000Y-117475000D03*
%TD*%
D10*
%TO.C,C5*%
X121285000Y-127000000D03*
X126285000Y-127000000D03*
%TD*%
%TO.C,C4*%
X93980000Y-126285000D03*
X93980000Y-121285000D03*
%TD*%
%TO.C,C6*%
X102315000Y-127000000D03*
X107315000Y-127000000D03*
%TD*%
D19*
%TO.C,H2*%
X135890000Y-148590000D03*
%TD*%
D10*
%TO.C,C3*%
X134620000Y-126920000D03*
X134620000Y-121920000D03*
%TD*%
M02*
