%TF.GenerationSoftware,KiCad,Pcbnew,(6.0.0-0)*%
%TF.CreationDate,2022-01-01T23:16:52+00:00*%
%TF.ProjectId,cgs348-vco-output-buffer,63677333-3438-42d7-9663-6f2d6f757470,rev?*%
%TF.SameCoordinates,Original*%
%TF.FileFunction,Profile,NP*%
%FSLAX46Y46*%
G04 Gerber Fmt 4.6, Leading zero omitted, Abs format (unit mm)*
G04 Created by KiCad (PCBNEW (6.0.0-0)) date 2022-01-01 23:16:52*
%MOMM*%
%LPD*%
G01*
G04 APERTURE LIST*
%TA.AperFunction,Profile*%
%ADD10C,0.050000*%
%TD*%
G04 APERTURE END LIST*
D10*
X138811000Y-152400000D02*
X121285000Y-152400000D01*
X89789000Y-152400000D02*
X100965000Y-152400000D01*
X133350000Y-102235000D02*
X133350000Y-115570000D01*
X133350000Y-115570000D02*
G75*
G03*
X133985000Y-116205000I634999J-1D01*
G01*
X89789000Y-101600000D02*
G75*
G03*
X89154000Y-102235000I-1J-634999D01*
G01*
X133350000Y-102235000D02*
G75*
G03*
X132715000Y-101600000I-634999J1D01*
G01*
X139446000Y-116840000D02*
G75*
G03*
X138811000Y-116205000I-634999J1D01*
G01*
X120650000Y-140335000D02*
X120650000Y-151765000D01*
X89154000Y-151765000D02*
X89154000Y-102235000D01*
X89154000Y-151765000D02*
G75*
G03*
X89789000Y-152400000I634999J-1D01*
G01*
X120650000Y-151765000D02*
G75*
G03*
X121285000Y-152400000I634999J-1D01*
G01*
X102235000Y-139700000D02*
X120015000Y-139700000D01*
X102235000Y-139700000D02*
G75*
G03*
X101600000Y-140335000I-1J-634999D01*
G01*
X139446000Y-151765000D02*
X139446000Y-116840000D01*
X138811000Y-152400000D02*
G75*
G03*
X139446000Y-151765000I1J634999D01*
G01*
X100965000Y-152400000D02*
G75*
G03*
X101600000Y-151765000I1J634999D01*
G01*
X101600000Y-151765000D02*
X101600000Y-140335000D01*
X120650000Y-140335000D02*
G75*
G03*
X120015000Y-139700000I-634999J1D01*
G01*
X138811000Y-116205000D02*
X133985000Y-116205000D01*
X89789000Y-101600000D02*
X132715000Y-101600000D01*
M02*
