%TF.GenerationSoftware,KiCad,Pcbnew,(6.0.0-0)*%
%TF.CreationDate,2022-01-01T23:16:52+00:00*%
%TF.ProjectId,cgs348-vco-output-buffer,63677333-3438-42d7-9663-6f2d6f757470,rev?*%
%TF.SameCoordinates,Original*%
%TF.FileFunction,Copper,L1,Top*%
%TF.FilePolarity,Positive*%
%FSLAX46Y46*%
G04 Gerber Fmt 4.6, Leading zero omitted, Abs format (unit mm)*
G04 Created by KiCad (PCBNEW (6.0.0-0)) date 2022-01-01 23:16:52*
%MOMM*%
%LPD*%
G01*
G04 APERTURE LIST*
G04 Aperture macros list*
%AMRoundRect*
0 Rectangle with rounded corners*
0 $1 Rounding radius*
0 $2 $3 $4 $5 $6 $7 $8 $9 X,Y pos of 4 corners*
0 Add a 4 corners polygon primitive as box body*
4,1,4,$2,$3,$4,$5,$6,$7,$8,$9,$2,$3,0*
0 Add four circle primitives for the rounded corners*
1,1,$1+$1,$2,$3*
1,1,$1+$1,$4,$5*
1,1,$1+$1,$6,$7*
1,1,$1+$1,$8,$9*
0 Add four rect primitives between the rounded corners*
20,1,$1+$1,$2,$3,$4,$5,0*
20,1,$1+$1,$4,$5,$6,$7,0*
20,1,$1+$1,$6,$7,$8,$9,0*
20,1,$1+$1,$8,$9,$2,$3,0*%
G04 Aperture macros list end*
%TA.AperFunction,ComponentPad*%
%ADD10C,1.600000*%
%TD*%
%TA.AperFunction,ComponentPad*%
%ADD11RoundRect,0.254000X0.762000X-0.762000X0.762000X0.762000X-0.762000X0.762000X-0.762000X-0.762000X0*%
%TD*%
%TA.AperFunction,ComponentPad*%
%ADD12RoundRect,0.254000X-0.762000X0.762000X-0.762000X-0.762000X0.762000X-0.762000X0.762000X0.762000X0*%
%TD*%
%TA.AperFunction,ComponentPad*%
%ADD13RoundRect,0.254000X0.762000X0.762000X-0.762000X0.762000X-0.762000X-0.762000X0.762000X-0.762000X0*%
%TD*%
%TA.AperFunction,ComponentPad*%
%ADD14C,2.032000*%
%TD*%
%TA.AperFunction,ComponentPad*%
%ADD15O,1.600000X1.600000*%
%TD*%
%TA.AperFunction,ComponentPad*%
%ADD16C,2.000000*%
%TD*%
%TA.AperFunction,ComponentPad*%
%ADD17R,1.600000X1.600000*%
%TD*%
%TA.AperFunction,ViaPad*%
%ADD18C,0.762000*%
%TD*%
%TA.AperFunction,Conductor*%
%ADD19C,1.270000*%
%TD*%
%TA.AperFunction,Conductor*%
%ADD20C,0.635000*%
%TD*%
G04 APERTURE END LIST*
D10*
%TO.P,C1,1*%
%TO.N,Net-(C1-Pad1)*%
X126365000Y-137160000D03*
%TO.P,C1,2*%
%TO.N,Net-(C1-Pad2)*%
X121365000Y-137160000D03*
%TD*%
%TO.P,C2,1*%
%TO.N,Net-(C2-Pad1)*%
X100330000Y-136525000D03*
%TO.P,C2,2*%
%TO.N,Net-(C2-Pad2)*%
X105330000Y-136525000D03*
%TD*%
D11*
%TO.P,J1,1*%
%TO.N,Net-(J1-Pad1)*%
X134620000Y-130175000D03*
%TD*%
D12*
%TO.P,J2,1*%
%TO.N,Net-(J2-Pad1)*%
X93980000Y-130175000D03*
%TD*%
D11*
%TO.P,J3,1*%
%TO.N,Net-(J3-Pad1)*%
X134620000Y-118745000D03*
%TD*%
D12*
%TO.P,J4,1*%
%TO.N,Net-(J4-Pad1)*%
X93980000Y-117475000D03*
%TD*%
D13*
%TO.P,J5,1,Pin_1*%
%TO.N,+12V*%
X116205000Y-107950000D03*
D14*
%TO.P,J5,2,Pin_2*%
%TO.N,GND*%
X112903000Y-107950000D03*
%TO.P,J5,3,Pin_3*%
%TO.N,-12V*%
X109601000Y-107950000D03*
%TD*%
D10*
%TO.P,R1,1*%
%TO.N,Net-(J1-Pad1)*%
X131445000Y-130175000D03*
D15*
%TO.P,R1,2*%
%TO.N,Net-(C1-Pad1)*%
X121285000Y-130175000D03*
%TD*%
D10*
%TO.P,R2,1*%
%TO.N,Net-(J2-Pad1)*%
X97155000Y-130175000D03*
D15*
%TO.P,R2,2*%
%TO.N,Net-(C2-Pad1)*%
X107315000Y-130175000D03*
%TD*%
D10*
%TO.P,R3,1*%
%TO.N,Net-(C3-Pad1)*%
X131445000Y-133350000D03*
D15*
%TO.P,R3,2*%
%TO.N,Net-(C1-Pad2)*%
X121285000Y-133350000D03*
%TD*%
D10*
%TO.P,R4,1*%
%TO.N,Net-(C4-Pad1)*%
X97155000Y-133350000D03*
D15*
%TO.P,R4,2*%
%TO.N,Net-(C2-Pad2)*%
X107315000Y-133350000D03*
%TD*%
D10*
%TO.P,R5,1*%
%TO.N,Net-(R5-Pad1)*%
X131445000Y-120650000D03*
D15*
%TO.P,R5,2*%
%TO.N,Net-(C3-Pad1)*%
X121285000Y-120650000D03*
%TD*%
D10*
%TO.P,R6,1*%
%TO.N,Net-(R6-Pad1)*%
X97155000Y-120650000D03*
D15*
%TO.P,R6,2*%
%TO.N,Net-(C4-Pad1)*%
X107315000Y-120650000D03*
%TD*%
D10*
%TO.P,R7,1*%
%TO.N,Net-(C3-Pad2)*%
X131445000Y-123825000D03*
D15*
%TO.P,R7,2*%
%TO.N,Net-(C3-Pad1)*%
X121285000Y-123825000D03*
%TD*%
D10*
%TO.P,R8,1*%
%TO.N,Net-(C4-Pad2)*%
X97155000Y-123825000D03*
D15*
%TO.P,R8,2*%
%TO.N,Net-(C4-Pad1)*%
X107315000Y-123825000D03*
%TD*%
D16*
%TO.P,RV1,1,1*%
%TO.N,Net-(C1-Pad1)*%
X128825000Y-144145000D03*
%TO.P,RV1,2,2*%
%TO.N,Net-(C1-Pad2)*%
X126325000Y-146645000D03*
%TO.P,RV1,3,3*%
X123825000Y-144145000D03*
%TD*%
%TO.P,RV2,1,1*%
%TO.N,Net-(C2-Pad1)*%
X95290000Y-138470000D03*
%TO.P,RV2,2,2*%
%TO.N,Net-(C2-Pad2)*%
X97790000Y-140970000D03*
%TO.P,RV2,3,3*%
X95290000Y-143470000D03*
%TD*%
%TO.P,RV3,1,1*%
%TO.N,+12V*%
X128230000Y-109180000D03*
%TO.P,RV3,2,2*%
%TO.N,Net-(R5-Pad1)*%
X125730000Y-111680000D03*
%TO.P,RV3,3,3*%
%TO.N,-12V*%
X123230000Y-109180000D03*
%TD*%
%TO.P,RV4,1,1*%
%TO.N,+12V*%
X100925000Y-109220000D03*
%TO.P,RV4,2,2*%
%TO.N,Net-(R6-Pad1)*%
X98425000Y-111720000D03*
%TO.P,RV4,3,3*%
%TO.N,-12V*%
X95925000Y-109220000D03*
%TD*%
D17*
%TO.P,U1,1*%
%TO.N,Net-(C1-Pad2)*%
X118110000Y-133350000D03*
D15*
%TO.P,U1,2,-*%
%TO.N,Net-(C1-Pad1)*%
X118110000Y-130810000D03*
%TO.P,U1,3,+*%
%TO.N,GND*%
X118110000Y-128270000D03*
%TO.P,U1,4,V+*%
%TO.N,+12V*%
X118110000Y-125730000D03*
%TO.P,U1,5,+*%
%TO.N,GND*%
X118110000Y-123190000D03*
%TO.P,U1,6,-*%
%TO.N,Net-(C3-Pad1)*%
X118110000Y-120650000D03*
%TO.P,U1,7*%
%TO.N,Net-(C3-Pad2)*%
X118110000Y-118110000D03*
%TO.P,U1,8*%
%TO.N,Net-(C4-Pad2)*%
X110490000Y-118110000D03*
%TO.P,U1,9,-*%
%TO.N,Net-(C4-Pad1)*%
X110490000Y-120650000D03*
%TO.P,U1,10,+*%
%TO.N,GND*%
X110490000Y-123190000D03*
%TO.P,U1,11,V-*%
%TO.N,-12V*%
X110490000Y-125730000D03*
%TO.P,U1,12,+*%
%TO.N,GND*%
X110490000Y-128270000D03*
%TO.P,U1,13,-*%
%TO.N,Net-(C2-Pad1)*%
X110490000Y-130810000D03*
%TO.P,U1,14*%
%TO.N,Net-(C2-Pad2)*%
X110490000Y-133350000D03*
%TD*%
D10*
%TO.P,R9,1*%
%TO.N,Net-(J3-Pad1)*%
X131445000Y-117475000D03*
D15*
%TO.P,R9,2*%
%TO.N,Net-(C3-Pad2)*%
X121285000Y-117475000D03*
%TD*%
D10*
%TO.P,R10,1*%
%TO.N,Net-(J4-Pad1)*%
X97155000Y-117475000D03*
D15*
%TO.P,R10,2*%
%TO.N,Net-(C4-Pad2)*%
X107315000Y-117475000D03*
%TD*%
D10*
%TO.P,C5,1*%
%TO.N,+12V*%
X121285000Y-127000000D03*
%TO.P,C5,2*%
%TO.N,GND*%
X126285000Y-127000000D03*
%TD*%
%TO.P,C4,1*%
%TO.N,Net-(C4-Pad1)*%
X93980000Y-126285000D03*
%TO.P,C4,2*%
%TO.N,Net-(C4-Pad2)*%
X93980000Y-121285000D03*
%TD*%
%TO.P,C6,1*%
%TO.N,GND*%
X102315000Y-127000000D03*
%TO.P,C6,2*%
%TO.N,-12V*%
X107315000Y-127000000D03*
%TD*%
%TO.P,C3,1*%
%TO.N,Net-(C3-Pad1)*%
X134620000Y-126920000D03*
%TO.P,C3,2*%
%TO.N,Net-(C3-Pad2)*%
X134620000Y-121920000D03*
%TD*%
D18*
%TO.N,GND*%
X106045000Y-113538000D03*
X93599000Y-106045000D03*
X114173000Y-119507000D03*
X137541000Y-126111000D03*
X91186000Y-125984000D03*
X114300000Y-132715000D03*
X135763000Y-139065000D03*
X98933000Y-147955000D03*
X100584000Y-120523000D03*
X120269000Y-104013000D03*
X93472000Y-134366000D03*
X105283000Y-102616000D03*
X120777000Y-113665000D03*
X130937000Y-105537000D03*
X104013000Y-123571000D03*
X114173000Y-129286000D03*
X124587000Y-120650000D03*
X114173000Y-122301000D03*
X132334000Y-144018000D03*
X105664000Y-108585000D03*
%TD*%
D19*
%TO.N,+12V*%
X113935000Y-110220000D02*
X116205000Y-107950000D01*
X126341489Y-107291489D02*
X128230000Y-109180000D01*
X116205000Y-107950000D02*
X116863511Y-107291489D01*
X116863511Y-107291489D02*
X126341489Y-107291489D01*
X100925000Y-109220000D02*
X101925000Y-110220000D01*
X120015000Y-125730000D02*
X121285000Y-127000000D01*
X116205000Y-123825000D02*
X118110000Y-125730000D01*
X101925000Y-110220000D02*
X113935000Y-110220000D01*
X116205000Y-107950000D02*
X116205000Y-123825000D01*
X118110000Y-125730000D02*
X120015000Y-125730000D01*
%TO.N,-12V*%
X108585001Y-106934001D02*
X109601000Y-107950000D01*
X98210999Y-106934001D02*
X108585001Y-106934001D01*
X108585000Y-125730000D02*
X107315000Y-127000000D01*
X95925000Y-109220000D02*
X98210999Y-106934001D01*
X110490000Y-125730000D02*
X108585000Y-125730000D01*
D20*
%TO.N,Net-(J1-Pad1)*%
X131445000Y-130175000D02*
X134620000Y-130175000D01*
%TO.N,Net-(J2-Pad1)*%
X97155000Y-130175000D02*
X93980000Y-130175000D01*
%TO.N,Net-(J3-Pad1)*%
X133350000Y-117475000D02*
X134620000Y-118745000D01*
X131445000Y-117475000D02*
X133350000Y-117475000D01*
%TO.N,Net-(J4-Pad1)*%
X97155000Y-117475000D02*
X93980000Y-117475000D01*
%TO.N,Net-(C1-Pad1)*%
X126365000Y-135255000D02*
X126365000Y-137160000D01*
X120650000Y-130810000D02*
X121285000Y-130175000D01*
X121285000Y-130175000D02*
X126365000Y-135255000D01*
X126365000Y-137160000D02*
X126365000Y-141685000D01*
X126365000Y-141685000D02*
X128825000Y-144145000D01*
X118110000Y-130810000D02*
X120650000Y-130810000D01*
%TO.N,Net-(C1-Pad2)*%
X123825000Y-139620000D02*
X121365000Y-137160000D01*
X118110000Y-133350000D02*
X121285000Y-133350000D01*
X121285000Y-137080000D02*
X121365000Y-137160000D01*
X121285000Y-133350000D02*
X121285000Y-137080000D01*
X123825000Y-144145000D02*
X123825000Y-139620000D01*
X126325000Y-146645000D02*
X123825000Y-144145000D01*
%TO.N,Net-(C2-Pad1)*%
X107950000Y-130810000D02*
X107315000Y-130175000D01*
X95290000Y-138470000D02*
X98385000Y-138470000D01*
X107315000Y-130175000D02*
X100965000Y-136525000D01*
X110490000Y-130810000D02*
X107950000Y-130810000D01*
X100965000Y-136525000D02*
X100330000Y-136525000D01*
X98385000Y-138470000D02*
X100330000Y-136525000D01*
%TO.N,Net-(C2-Pad2)*%
X95290000Y-143470000D02*
X97790000Y-140970000D01*
X105330000Y-136525000D02*
X105330000Y-135335000D01*
X105330000Y-135335000D02*
X107315000Y-133350000D01*
X98425000Y-140970000D02*
X97790000Y-140970000D01*
X105330000Y-136525000D02*
X102870000Y-136525000D01*
X110490000Y-133350000D02*
X107315000Y-133350000D01*
X102870000Y-136525000D02*
X98425000Y-140970000D01*
%TO.N,Net-(C3-Pad1)*%
X134620000Y-126920000D02*
X128825000Y-126920000D01*
X118110000Y-120650000D02*
X121285000Y-120650000D01*
X128825000Y-126920000D02*
X125730000Y-123825000D01*
X128825000Y-126920000D02*
X128825000Y-130730000D01*
X128825000Y-130730000D02*
X131445000Y-133350000D01*
X125730000Y-123825000D02*
X121285000Y-123825000D01*
X121285000Y-120650000D02*
X121285000Y-123825000D01*
%TO.N,Net-(C3-Pad2)*%
X133350000Y-121920000D02*
X131445000Y-123825000D01*
X125095000Y-117475000D02*
X131445000Y-123825000D01*
X121285000Y-117475000D02*
X125095000Y-117475000D01*
X118110000Y-118110000D02*
X120650000Y-118110000D01*
X134620000Y-121920000D02*
X133350000Y-121920000D01*
X120650000Y-118110000D02*
X121285000Y-117475000D01*
%TO.N,Net-(C4-Pad1)*%
X93980000Y-126285000D02*
X94779999Y-125485001D01*
X94779999Y-125485001D02*
X100720001Y-125485001D01*
X110490000Y-120650000D02*
X107315000Y-120650000D01*
X100720001Y-125485001D02*
X105654999Y-125485001D01*
X105654999Y-125485001D02*
X107315000Y-123825000D01*
X100720001Y-125485001D02*
X100720001Y-129784999D01*
X107315000Y-120650000D02*
X107315000Y-123825000D01*
X100720001Y-129784999D02*
X97155000Y-133350000D01*
%TO.N,Net-(R5-Pad1)*%
X131445000Y-120650000D02*
X125730000Y-114935000D01*
X125730000Y-114935000D02*
X125730000Y-111680000D01*
%TO.N,Net-(R6-Pad1)*%
X99425000Y-112720000D02*
X99425000Y-118380000D01*
X98425000Y-111720000D02*
X99425000Y-112720000D01*
X99425000Y-118380000D02*
X97155000Y-120650000D01*
%TO.N,Net-(C4-Pad2)*%
X97155000Y-123825000D02*
X100965000Y-123825000D01*
X100965000Y-123825000D02*
X107315000Y-117475000D01*
X97155000Y-123825000D02*
X96520000Y-123825000D01*
X107950000Y-118110000D02*
X107315000Y-117475000D01*
X110490000Y-118110000D02*
X107950000Y-118110000D01*
X96520000Y-123825000D02*
X93980000Y-121285000D01*
%TD*%
%TA.AperFunction,Conductor*%
%TO.N,GND*%
G36*
X132685058Y-102109500D02*
G01*
X132699859Y-102111805D01*
X132699862Y-102111805D01*
X132708731Y-102113186D01*
X132714852Y-102112385D01*
X132781374Y-102132803D01*
X132827209Y-102187022D01*
X132835777Y-102228865D01*
X132836814Y-102228729D01*
X132840936Y-102260250D01*
X132842000Y-102276588D01*
X132842000Y-115516792D01*
X132840254Y-115537696D01*
X132836929Y-115557460D01*
X132836776Y-115569999D01*
X132838488Y-115581952D01*
X132839281Y-115588829D01*
X132855065Y-115769237D01*
X132856489Y-115774551D01*
X132856489Y-115774552D01*
X132903634Y-115950500D01*
X132906828Y-115962422D01*
X132909151Y-115967403D01*
X132909151Y-115967404D01*
X132989025Y-116138696D01*
X132989028Y-116138701D01*
X132991351Y-116143683D01*
X132994507Y-116148190D01*
X132994508Y-116148192D01*
X133095958Y-116293077D01*
X133106066Y-116307513D01*
X133232458Y-116433905D01*
X133266484Y-116496217D01*
X133261419Y-116567032D01*
X133218872Y-116623868D01*
X133152352Y-116648679D01*
X133143363Y-116649000D01*
X132521688Y-116649000D01*
X132453567Y-116628998D01*
X132432593Y-116612095D01*
X132289300Y-116468802D01*
X132284792Y-116465645D01*
X132284789Y-116465643D01*
X132122654Y-116352115D01*
X132101749Y-116337477D01*
X132096767Y-116335154D01*
X132096762Y-116335151D01*
X131899225Y-116243039D01*
X131899224Y-116243039D01*
X131894243Y-116240716D01*
X131888935Y-116239294D01*
X131888933Y-116239293D01*
X131678402Y-116182881D01*
X131678400Y-116182881D01*
X131673087Y-116181457D01*
X131445000Y-116161502D01*
X131216913Y-116181457D01*
X131211600Y-116182881D01*
X131211598Y-116182881D01*
X131001067Y-116239293D01*
X131001065Y-116239294D01*
X130995757Y-116240716D01*
X130990776Y-116243039D01*
X130990775Y-116243039D01*
X130793238Y-116335151D01*
X130793233Y-116335154D01*
X130788251Y-116337477D01*
X130767346Y-116352115D01*
X130605211Y-116465643D01*
X130605208Y-116465645D01*
X130600700Y-116468802D01*
X130438802Y-116630700D01*
X130435645Y-116635208D01*
X130435643Y-116635211D01*
X130414398Y-116665552D01*
X130307477Y-116818251D01*
X130305154Y-116823233D01*
X130305151Y-116823238D01*
X130223862Y-116997565D01*
X130210716Y-117025757D01*
X130209294Y-117031064D01*
X130209293Y-117031067D01*
X130155071Y-117233425D01*
X130151457Y-117246913D01*
X130131502Y-117475000D01*
X130151457Y-117703087D01*
X130207358Y-117911709D01*
X130205668Y-117982686D01*
X130165874Y-118041482D01*
X130100610Y-118069430D01*
X130030596Y-118057657D01*
X129996556Y-118033416D01*
X126592905Y-114629765D01*
X126558879Y-114567453D01*
X126556000Y-114540670D01*
X126556000Y-113013601D01*
X126576002Y-112945480D01*
X126611770Y-112910469D01*
X126611191Y-112909672D01*
X126615197Y-112906761D01*
X126619416Y-112904176D01*
X126799969Y-112749969D01*
X126954176Y-112569416D01*
X126956755Y-112565208D01*
X126956759Y-112565202D01*
X127075654Y-112371183D01*
X127078240Y-112366963D01*
X127080407Y-112361733D01*
X127167211Y-112152167D01*
X127167212Y-112152165D01*
X127169105Y-112147594D01*
X127198393Y-112025599D01*
X127223380Y-111921524D01*
X127223381Y-111921518D01*
X127224535Y-111916711D01*
X127243165Y-111680000D01*
X127224535Y-111443289D01*
X127206371Y-111367628D01*
X127184582Y-111276873D01*
X127169105Y-111212406D01*
X127163623Y-111199171D01*
X127080135Y-110997611D01*
X127080133Y-110997607D01*
X127078240Y-110993037D01*
X126981271Y-110834798D01*
X126956759Y-110794798D01*
X126956755Y-110794792D01*
X126954176Y-110790584D01*
X126799969Y-110610031D01*
X126619416Y-110455824D01*
X126615208Y-110453245D01*
X126615202Y-110453241D01*
X126421183Y-110334346D01*
X126416963Y-110331760D01*
X126412393Y-110329867D01*
X126412389Y-110329865D01*
X126202167Y-110242789D01*
X126202165Y-110242788D01*
X126197594Y-110240895D01*
X126117391Y-110221640D01*
X125971524Y-110186620D01*
X125971518Y-110186619D01*
X125966711Y-110185465D01*
X125730000Y-110166835D01*
X125493289Y-110185465D01*
X125488482Y-110186619D01*
X125488476Y-110186620D01*
X125342609Y-110221640D01*
X125262406Y-110240895D01*
X125257835Y-110242788D01*
X125257833Y-110242789D01*
X125047611Y-110329865D01*
X125047607Y-110329867D01*
X125043037Y-110331760D01*
X125038817Y-110334346D01*
X124844798Y-110453241D01*
X124844792Y-110453245D01*
X124840584Y-110455824D01*
X124660031Y-110610031D01*
X124505824Y-110790584D01*
X124503245Y-110794792D01*
X124503241Y-110794798D01*
X124478729Y-110834798D01*
X124381760Y-110993037D01*
X124379867Y-110997607D01*
X124379865Y-110997611D01*
X124296377Y-111199171D01*
X124290895Y-111212406D01*
X124275418Y-111276873D01*
X124253630Y-111367628D01*
X124235465Y-111443289D01*
X124216835Y-111680000D01*
X124235465Y-111916711D01*
X124236619Y-111921518D01*
X124236620Y-111921524D01*
X124261607Y-112025599D01*
X124290895Y-112147594D01*
X124292788Y-112152165D01*
X124292789Y-112152167D01*
X124379594Y-112361733D01*
X124381760Y-112366963D01*
X124384346Y-112371183D01*
X124503241Y-112565202D01*
X124503245Y-112565208D01*
X124505824Y-112569416D01*
X124660031Y-112749969D01*
X124840584Y-112904176D01*
X124844803Y-112906761D01*
X124848809Y-112909672D01*
X124848006Y-112910777D01*
X124891468Y-112958820D01*
X124904000Y-113013601D01*
X124904000Y-114894967D01*
X124903558Y-114905511D01*
X124899377Y-114955300D01*
X124900279Y-114962060D01*
X124909706Y-115032704D01*
X124910073Y-115035743D01*
X124918511Y-115113417D01*
X124920687Y-115119883D01*
X124921204Y-115122233D01*
X124921301Y-115122783D01*
X124921480Y-115123550D01*
X124921635Y-115124085D01*
X124922211Y-115126432D01*
X124923113Y-115133190D01*
X124925445Y-115139596D01*
X124949810Y-115206540D01*
X124950826Y-115209443D01*
X124973575Y-115277039D01*
X124973578Y-115277046D01*
X124975754Y-115283511D01*
X124979269Y-115289360D01*
X124980282Y-115291553D01*
X124980494Y-115292068D01*
X124980827Y-115292766D01*
X124981100Y-115293267D01*
X124982160Y-115295421D01*
X124984494Y-115301834D01*
X125026342Y-115367775D01*
X125027956Y-115370390D01*
X125068186Y-115437344D01*
X125072867Y-115442295D01*
X125074337Y-115444231D01*
X125074985Y-115445162D01*
X125077885Y-115448996D01*
X125080657Y-115453364D01*
X125084323Y-115457464D01*
X125136246Y-115509387D01*
X125138699Y-115511909D01*
X125181775Y-115557460D01*
X125191496Y-115567740D01*
X125197137Y-115571574D01*
X125201989Y-115575703D01*
X125209419Y-115582560D01*
X130101649Y-120474790D01*
X130135675Y-120537102D01*
X130138075Y-120574866D01*
X130133562Y-120626457D01*
X130131502Y-120650000D01*
X130151457Y-120878087D01*
X130152881Y-120883400D01*
X130152881Y-120883402D01*
X130207357Y-121086709D01*
X130205667Y-121157685D01*
X130165873Y-121216481D01*
X130100609Y-121244429D01*
X130030595Y-121232656D01*
X129996558Y-121208417D01*
X125707385Y-116919245D01*
X125700242Y-116911478D01*
X125672390Y-116878520D01*
X125667985Y-116873307D01*
X125658771Y-116866262D01*
X125624422Y-116840001D01*
X125605934Y-116825866D01*
X125603514Y-116823968D01*
X125542650Y-116775031D01*
X125536540Y-116771998D01*
X125534504Y-116770696D01*
X125534048Y-116770377D01*
X125533390Y-116769967D01*
X125532900Y-116769698D01*
X125530834Y-116768447D01*
X125525414Y-116764303D01*
X125454646Y-116731304D01*
X125451875Y-116729970D01*
X125428136Y-116718186D01*
X125381898Y-116695233D01*
X125375273Y-116693581D01*
X125373006Y-116692747D01*
X125372481Y-116692528D01*
X125371777Y-116692279D01*
X125371227Y-116692117D01*
X125368943Y-116691339D01*
X125362761Y-116688457D01*
X125356103Y-116686969D01*
X125356095Y-116686966D01*
X125286542Y-116671419D01*
X125283546Y-116670711D01*
X125214385Y-116653467D01*
X125214382Y-116653467D01*
X125207762Y-116651816D01*
X125200941Y-116651625D01*
X125198544Y-116651297D01*
X125197430Y-116651096D01*
X125192656Y-116650434D01*
X125187616Y-116649307D01*
X125182125Y-116649000D01*
X125108711Y-116649000D01*
X125105193Y-116648951D01*
X125104283Y-116648926D01*
X125028365Y-116646805D01*
X125021658Y-116648084D01*
X125015323Y-116648594D01*
X125005216Y-116649000D01*
X122361688Y-116649000D01*
X122293567Y-116628998D01*
X122272593Y-116612095D01*
X122129300Y-116468802D01*
X122124792Y-116465645D01*
X122124789Y-116465643D01*
X121962654Y-116352115D01*
X121941749Y-116337477D01*
X121936767Y-116335154D01*
X121936762Y-116335151D01*
X121739225Y-116243039D01*
X121739224Y-116243039D01*
X121734243Y-116240716D01*
X121728935Y-116239294D01*
X121728933Y-116239293D01*
X121518402Y-116182881D01*
X121518400Y-116182881D01*
X121513087Y-116181457D01*
X121285000Y-116161502D01*
X121056913Y-116181457D01*
X121051600Y-116182881D01*
X121051598Y-116182881D01*
X120841067Y-116239293D01*
X120841065Y-116239294D01*
X120835757Y-116240716D01*
X120830776Y-116243039D01*
X120830775Y-116243039D01*
X120633238Y-116335151D01*
X120633233Y-116335154D01*
X120628251Y-116337477D01*
X120607346Y-116352115D01*
X120445211Y-116465643D01*
X120445208Y-116465645D01*
X120440700Y-116468802D01*
X120278802Y-116630700D01*
X120275645Y-116635208D01*
X120275643Y-116635211D01*
X120254398Y-116665552D01*
X120147477Y-116818251D01*
X120145154Y-116823233D01*
X120145151Y-116823238D01*
X120063862Y-116997565D01*
X120050716Y-117025757D01*
X120049294Y-117031064D01*
X120006543Y-117190612D01*
X119969591Y-117251234D01*
X119905730Y-117282256D01*
X119884836Y-117284000D01*
X119186688Y-117284000D01*
X119118567Y-117263998D01*
X119097593Y-117247095D01*
X118954300Y-117103802D01*
X118949792Y-117100645D01*
X118949789Y-117100643D01*
X118871611Y-117045902D01*
X118766749Y-116972477D01*
X118761767Y-116970154D01*
X118761762Y-116970151D01*
X118564225Y-116878039D01*
X118564224Y-116878039D01*
X118559243Y-116875716D01*
X118553935Y-116874294D01*
X118553933Y-116874293D01*
X118343402Y-116817881D01*
X118343400Y-116817881D01*
X118338087Y-116816457D01*
X118110000Y-116796502D01*
X117881913Y-116816457D01*
X117876600Y-116817881D01*
X117876598Y-116817881D01*
X117666067Y-116874293D01*
X117666065Y-116874294D01*
X117660757Y-116875716D01*
X117655776Y-116878039D01*
X117655775Y-116878039D01*
X117527750Y-116937738D01*
X117457558Y-116948399D01*
X117392745Y-116919419D01*
X117353889Y-116859999D01*
X117348500Y-116823543D01*
X117348500Y-109442842D01*
X117368502Y-109374721D01*
X117408196Y-109335698D01*
X117437627Y-109317485D01*
X117437628Y-109317484D01*
X117443850Y-109313634D01*
X117569466Y-109187799D01*
X117574274Y-109180000D01*
X117658921Y-109042674D01*
X117662764Y-109036440D01*
X117692025Y-108948223D01*
X117716575Y-108874209D01*
X117716576Y-108874207D01*
X117718741Y-108867678D01*
X117729500Y-108762666D01*
X117729500Y-108560989D01*
X117749502Y-108492868D01*
X117803158Y-108446375D01*
X117855500Y-108434989D01*
X121717232Y-108434989D01*
X121785353Y-108454991D01*
X121831846Y-108508647D01*
X121841950Y-108578921D01*
X121833641Y-108609207D01*
X121792789Y-108707832D01*
X121792789Y-108707833D01*
X121790895Y-108712406D01*
X121789740Y-108717218D01*
X121737825Y-108933459D01*
X121735465Y-108943289D01*
X121716835Y-109180000D01*
X121735465Y-109416711D01*
X121736619Y-109421518D01*
X121736620Y-109421524D01*
X121771640Y-109567391D01*
X121790895Y-109647594D01*
X121792788Y-109652165D01*
X121792789Y-109652167D01*
X121809358Y-109692167D01*
X121881760Y-109866963D01*
X121884346Y-109871183D01*
X122003241Y-110065202D01*
X122003245Y-110065208D01*
X122005824Y-110069416D01*
X122160031Y-110249969D01*
X122340584Y-110404176D01*
X122344792Y-110406755D01*
X122344798Y-110406759D01*
X122420650Y-110453241D01*
X122543037Y-110528240D01*
X122547607Y-110530133D01*
X122547611Y-110530135D01*
X122732754Y-110606823D01*
X122762406Y-110619105D01*
X122842609Y-110638360D01*
X122988476Y-110673380D01*
X122988482Y-110673381D01*
X122993289Y-110674535D01*
X123230000Y-110693165D01*
X123466711Y-110674535D01*
X123471518Y-110673381D01*
X123471524Y-110673380D01*
X123617391Y-110638360D01*
X123697594Y-110619105D01*
X123727246Y-110606823D01*
X123912389Y-110530135D01*
X123912393Y-110530133D01*
X123916963Y-110528240D01*
X124039350Y-110453241D01*
X124115202Y-110406759D01*
X124115208Y-110406755D01*
X124119416Y-110404176D01*
X124299969Y-110249969D01*
X124454176Y-110069416D01*
X124456755Y-110065208D01*
X124456759Y-110065202D01*
X124575654Y-109871183D01*
X124578240Y-109866963D01*
X124650643Y-109692167D01*
X124667211Y-109652167D01*
X124667212Y-109652165D01*
X124669105Y-109647594D01*
X124688360Y-109567391D01*
X124723380Y-109421524D01*
X124723381Y-109421518D01*
X124724535Y-109416711D01*
X124743165Y-109180000D01*
X124724535Y-108943289D01*
X124722176Y-108933459D01*
X124670260Y-108717218D01*
X124669105Y-108712406D01*
X124667211Y-108707833D01*
X124667211Y-108707832D01*
X124626359Y-108609207D01*
X124618770Y-108538617D01*
X124650550Y-108475130D01*
X124711608Y-108438903D01*
X124742768Y-108434989D01*
X125815646Y-108434989D01*
X125883767Y-108454991D01*
X125904741Y-108471894D01*
X126692848Y-109260001D01*
X126726874Y-109322313D01*
X126729365Y-109339209D01*
X126735465Y-109416711D01*
X126736619Y-109421518D01*
X126736620Y-109421524D01*
X126771640Y-109567391D01*
X126790895Y-109647594D01*
X126792788Y-109652165D01*
X126792789Y-109652167D01*
X126809358Y-109692167D01*
X126881760Y-109866963D01*
X126884346Y-109871183D01*
X127003241Y-110065202D01*
X127003245Y-110065208D01*
X127005824Y-110069416D01*
X127160031Y-110249969D01*
X127340584Y-110404176D01*
X127344792Y-110406755D01*
X127344798Y-110406759D01*
X127420650Y-110453241D01*
X127543037Y-110528240D01*
X127547607Y-110530133D01*
X127547611Y-110530135D01*
X127732754Y-110606823D01*
X127762406Y-110619105D01*
X127842609Y-110638360D01*
X127988476Y-110673380D01*
X127988482Y-110673381D01*
X127993289Y-110674535D01*
X128230000Y-110693165D01*
X128466711Y-110674535D01*
X128471518Y-110673381D01*
X128471524Y-110673380D01*
X128617391Y-110638360D01*
X128697594Y-110619105D01*
X128727246Y-110606823D01*
X128912389Y-110530135D01*
X128912393Y-110530133D01*
X128916963Y-110528240D01*
X129039350Y-110453241D01*
X129115202Y-110406759D01*
X129115208Y-110406755D01*
X129119416Y-110404176D01*
X129299969Y-110249969D01*
X129454176Y-110069416D01*
X129456755Y-110065208D01*
X129456759Y-110065202D01*
X129575654Y-109871183D01*
X129578240Y-109866963D01*
X129650643Y-109692167D01*
X129667211Y-109652167D01*
X129667212Y-109652165D01*
X129669105Y-109647594D01*
X129688360Y-109567391D01*
X129723380Y-109421524D01*
X129723381Y-109421518D01*
X129724535Y-109416711D01*
X129743165Y-109180000D01*
X129724535Y-108943289D01*
X129722176Y-108933459D01*
X129670260Y-108717218D01*
X129669105Y-108712406D01*
X129667211Y-108707833D01*
X129580135Y-108497611D01*
X129580133Y-108497607D01*
X129578240Y-108493037D01*
X129567267Y-108475130D01*
X129456759Y-108294798D01*
X129456755Y-108294792D01*
X129454176Y-108290584D01*
X129299969Y-108110031D01*
X129119416Y-107955824D01*
X129115208Y-107953245D01*
X129115202Y-107953241D01*
X128921183Y-107834346D01*
X128916963Y-107831760D01*
X128912393Y-107829867D01*
X128912389Y-107829865D01*
X128702167Y-107742789D01*
X128702165Y-107742788D01*
X128697594Y-107740895D01*
X128597539Y-107716874D01*
X128471524Y-107686620D01*
X128471518Y-107686619D01*
X128466711Y-107685465D01*
X128408994Y-107680922D01*
X128389209Y-107679365D01*
X128322868Y-107654079D01*
X128310001Y-107642848D01*
X127180338Y-106513185D01*
X127174701Y-106507167D01*
X127160071Y-106490485D01*
X127131995Y-106458470D01*
X127119800Y-106448856D01*
X127062507Y-106403691D01*
X127059942Y-106401613D01*
X126996389Y-106348755D01*
X126996384Y-106348751D01*
X126991949Y-106345063D01*
X126986915Y-106342244D01*
X126983905Y-106340175D01*
X126974635Y-106333981D01*
X126971490Y-106331938D01*
X126966952Y-106328361D01*
X126961844Y-106325673D01*
X126961840Y-106325671D01*
X126888673Y-106287177D01*
X126885773Y-106285602D01*
X126813628Y-106245198D01*
X126813626Y-106245197D01*
X126808585Y-106242374D01*
X126803113Y-106240517D01*
X126799713Y-106239003D01*
X126789502Y-106234616D01*
X126786068Y-106233194D01*
X126780962Y-106230507D01*
X126775448Y-106228795D01*
X126775446Y-106228794D01*
X126696490Y-106204277D01*
X126693354Y-106203258D01*
X126624262Y-106179805D01*
X126609577Y-106174820D01*
X126603864Y-106173991D01*
X126600351Y-106173148D01*
X126589338Y-106170656D01*
X126585771Y-106169898D01*
X126580255Y-106168185D01*
X126574527Y-106167507D01*
X126574522Y-106167506D01*
X126522122Y-106161305D01*
X126492371Y-106157783D01*
X126489149Y-106157359D01*
X126401592Y-106144664D01*
X126319435Y-106147892D01*
X126314488Y-106147989D01*
X117334236Y-106147989D01*
X117266115Y-106127987D01*
X117219622Y-106074331D01*
X117209518Y-106004057D01*
X117229655Y-105951713D01*
X117309159Y-105833399D01*
X117309164Y-105833390D01*
X117312290Y-105828738D01*
X117402588Y-105623033D01*
X117455032Y-105404589D01*
X117467963Y-105180310D01*
X117440975Y-104957285D01*
X117374918Y-104742565D01*
X117309798Y-104616396D01*
X117274454Y-104547919D01*
X117274454Y-104547918D01*
X117271882Y-104542936D01*
X117135123Y-104364708D01*
X116968964Y-104213515D01*
X116964217Y-104210537D01*
X116964214Y-104210535D01*
X116783405Y-104097115D01*
X116778656Y-104094136D01*
X116570217Y-104010344D01*
X116350233Y-103964787D01*
X116345622Y-103964521D01*
X116345621Y-103964521D01*
X116295048Y-103961605D01*
X116295044Y-103961605D01*
X116293225Y-103961500D01*
X116148001Y-103961500D01*
X116145214Y-103961749D01*
X116145208Y-103961749D01*
X116075071Y-103968009D01*
X115981238Y-103976383D01*
X115975824Y-103977864D01*
X115975819Y-103977865D01*
X115861262Y-104009205D01*
X115764549Y-104035663D01*
X115759491Y-104038075D01*
X115759487Y-104038077D01*
X115663165Y-104084021D01*
X115561782Y-104132378D01*
X115379346Y-104263471D01*
X115223008Y-104424799D01*
X115097710Y-104611262D01*
X115007412Y-104816967D01*
X114954968Y-105035411D01*
X114942037Y-105259690D01*
X114969025Y-105482715D01*
X115035082Y-105697435D01*
X115037652Y-105702415D01*
X115037654Y-105702419D01*
X115102852Y-105828738D01*
X115138118Y-105897064D01*
X115274877Y-106075292D01*
X115279016Y-106079058D01*
X115279025Y-106079068D01*
X115424157Y-106211128D01*
X115461079Y-106271768D01*
X115459356Y-106342744D01*
X115419533Y-106401520D01*
X115352361Y-106429648D01*
X115324897Y-106432497D01*
X115292868Y-106435820D01*
X115292864Y-106435821D01*
X115286010Y-106436532D01*
X115279474Y-106438713D01*
X115279472Y-106438713D01*
X115170069Y-106475213D01*
X115117346Y-106492803D01*
X114966150Y-106586366D01*
X114840534Y-106712201D01*
X114747236Y-106863560D01*
X114691259Y-107032322D01*
X114680500Y-107137334D01*
X114680500Y-107805157D01*
X114660498Y-107873278D01*
X114643595Y-107894252D01*
X114636367Y-107901480D01*
X114574055Y-107935506D01*
X114503240Y-107930441D01*
X114446404Y-107887894D01*
X114421660Y-107822270D01*
X114413280Y-107715792D01*
X114411737Y-107706044D01*
X114358047Y-107482414D01*
X114354998Y-107473029D01*
X114266988Y-107260553D01*
X114262507Y-107251759D01*
X114157203Y-107079917D01*
X114146747Y-107070457D01*
X114137969Y-107074241D01*
X112992095Y-108220115D01*
X112929783Y-108254141D01*
X112858968Y-108249076D01*
X112813905Y-108220115D01*
X111671074Y-107077284D01*
X111658694Y-107070524D01*
X111651044Y-107076251D01*
X111543493Y-107251759D01*
X111539012Y-107260553D01*
X111451002Y-107473029D01*
X111447953Y-107482414D01*
X111394263Y-107706044D01*
X111392720Y-107715791D01*
X111377863Y-107904569D01*
X111360225Y-107950847D01*
X111375560Y-107979414D01*
X111377863Y-107995431D01*
X111392720Y-108184209D01*
X111394263Y-108193956D01*
X111447953Y-108417586D01*
X111451002Y-108426971D01*
X111539012Y-108639447D01*
X111543493Y-108648241D01*
X111663663Y-108844341D01*
X111669456Y-108852314D01*
X111683424Y-108868669D01*
X111712455Y-108933459D01*
X111701850Y-109003659D01*
X111654975Y-109056982D01*
X111587613Y-109076500D01*
X110917042Y-109076500D01*
X110848921Y-109056498D01*
X110802428Y-109002842D01*
X110792324Y-108932568D01*
X110821230Y-108868672D01*
X110838160Y-108848849D01*
X110963540Y-108644249D01*
X111034932Y-108471894D01*
X111053475Y-108427126D01*
X111053476Y-108427124D01*
X111055369Y-108422553D01*
X111078351Y-108326825D01*
X111110232Y-108194035D01*
X111110233Y-108194029D01*
X111111387Y-108189222D01*
X111126639Y-107995431D01*
X111144278Y-107949154D01*
X111128942Y-107920587D01*
X111126639Y-107904569D01*
X111112063Y-107719365D01*
X111111387Y-107710778D01*
X111110233Y-107705971D01*
X111110232Y-107705965D01*
X111056524Y-107482259D01*
X111055369Y-107477447D01*
X110963540Y-107255751D01*
X110838160Y-107051151D01*
X110682318Y-106868682D01*
X110652920Y-106843574D01*
X110503617Y-106716058D01*
X110503616Y-106716057D01*
X110499849Y-106712840D01*
X110295249Y-106587460D01*
X110290679Y-106585567D01*
X110290673Y-106585564D01*
X110215391Y-106554382D01*
X110160110Y-106509834D01*
X110137688Y-106442471D01*
X110155246Y-106373680D01*
X110209362Y-106324248D01*
X110239155Y-106310037D01*
X110239157Y-106310036D01*
X110244218Y-106307622D01*
X110426654Y-106176529D01*
X110519641Y-106080574D01*
X110579089Y-106019229D01*
X110579091Y-106019226D01*
X110582992Y-106015201D01*
X110708290Y-105828738D01*
X110798588Y-105623033D01*
X110851032Y-105404589D01*
X110859386Y-105259690D01*
X111640037Y-105259690D01*
X111667025Y-105482715D01*
X111733082Y-105697435D01*
X111735652Y-105702415D01*
X111735654Y-105702419D01*
X111800852Y-105828738D01*
X111836118Y-105897064D01*
X111972877Y-106075292D01*
X112139036Y-106226485D01*
X112143783Y-106229463D01*
X112143786Y-106229465D01*
X112307069Y-106331891D01*
X112354147Y-106385035D01*
X112365019Y-106455194D01*
X112336235Y-106520094D01*
X112288332Y-106555038D01*
X112213549Y-106586014D01*
X112204759Y-106590493D01*
X112032917Y-106695797D01*
X112023457Y-106706253D01*
X112027241Y-106715031D01*
X112890188Y-107577978D01*
X112904132Y-107585592D01*
X112905965Y-107585461D01*
X112912580Y-107581210D01*
X113775716Y-106718074D01*
X113782476Y-106705694D01*
X113776749Y-106698044D01*
X113601241Y-106590493D01*
X113592451Y-106586014D01*
X113516782Y-106554671D01*
X113461502Y-106510122D01*
X113439081Y-106442759D01*
X113456639Y-106373968D01*
X113510757Y-106324536D01*
X113511361Y-106324248D01*
X113546218Y-106307622D01*
X113728654Y-106176529D01*
X113821641Y-106080574D01*
X113881089Y-106019229D01*
X113881091Y-106019226D01*
X113884992Y-106015201D01*
X114010290Y-105828738D01*
X114100588Y-105623033D01*
X114153032Y-105404589D01*
X114165963Y-105180310D01*
X114138975Y-104957285D01*
X114072918Y-104742565D01*
X114007798Y-104616396D01*
X113972454Y-104547919D01*
X113972454Y-104547918D01*
X113969882Y-104542936D01*
X113833123Y-104364708D01*
X113666964Y-104213515D01*
X113662217Y-104210537D01*
X113662214Y-104210535D01*
X113481405Y-104097115D01*
X113476656Y-104094136D01*
X113268217Y-104010344D01*
X113048233Y-103964787D01*
X113043622Y-103964521D01*
X113043621Y-103964521D01*
X112993048Y-103961605D01*
X112993044Y-103961605D01*
X112991225Y-103961500D01*
X112846001Y-103961500D01*
X112843214Y-103961749D01*
X112843208Y-103961749D01*
X112773071Y-103968009D01*
X112679238Y-103976383D01*
X112673824Y-103977864D01*
X112673819Y-103977865D01*
X112559262Y-104009205D01*
X112462549Y-104035663D01*
X112457491Y-104038075D01*
X112457487Y-104038077D01*
X112361165Y-104084021D01*
X112259782Y-104132378D01*
X112077346Y-104263471D01*
X111921008Y-104424799D01*
X111795710Y-104611262D01*
X111705412Y-104816967D01*
X111652968Y-105035411D01*
X111640037Y-105259690D01*
X110859386Y-105259690D01*
X110863963Y-105180310D01*
X110836975Y-104957285D01*
X110770918Y-104742565D01*
X110705798Y-104616396D01*
X110670454Y-104547919D01*
X110670454Y-104547918D01*
X110667882Y-104542936D01*
X110531123Y-104364708D01*
X110364964Y-104213515D01*
X110360217Y-104210537D01*
X110360214Y-104210535D01*
X110179405Y-104097115D01*
X110174656Y-104094136D01*
X109966217Y-104010344D01*
X109746233Y-103964787D01*
X109741622Y-103964521D01*
X109741621Y-103964521D01*
X109691048Y-103961605D01*
X109691044Y-103961605D01*
X109689225Y-103961500D01*
X109544001Y-103961500D01*
X109541214Y-103961749D01*
X109541208Y-103961749D01*
X109471071Y-103968009D01*
X109377238Y-103976383D01*
X109371824Y-103977864D01*
X109371819Y-103977865D01*
X109257262Y-104009205D01*
X109160549Y-104035663D01*
X109155491Y-104038075D01*
X109155487Y-104038077D01*
X109059165Y-104084021D01*
X108957782Y-104132378D01*
X108775346Y-104263471D01*
X108619008Y-104424799D01*
X108493710Y-104611262D01*
X108403412Y-104816967D01*
X108350968Y-105035411D01*
X108338037Y-105259690D01*
X108365025Y-105482715D01*
X108366675Y-105488077D01*
X108409552Y-105627452D01*
X108410464Y-105698443D01*
X108372851Y-105758657D01*
X108308655Y-105788978D01*
X108289122Y-105790501D01*
X98253804Y-105790501D01*
X98245563Y-105790231D01*
X98226447Y-105788978D01*
X98180938Y-105785995D01*
X98093040Y-105796399D01*
X98089772Y-105796741D01*
X98001720Y-105804832D01*
X97996154Y-105806402D01*
X97992458Y-105807087D01*
X97981609Y-105809245D01*
X97977973Y-105810018D01*
X97972234Y-105810697D01*
X97887743Y-105836932D01*
X97884607Y-105837861D01*
X97823458Y-105855107D01*
X97799450Y-105861878D01*
X97794262Y-105864436D01*
X97790811Y-105865761D01*
X97780433Y-105869902D01*
X97777046Y-105871305D01*
X97771526Y-105873019D01*
X97766412Y-105875710D01*
X97766411Y-105875710D01*
X97693254Y-105914199D01*
X97690318Y-105915696D01*
X97610962Y-105954830D01*
X97606331Y-105958288D01*
X97603128Y-105960251D01*
X97593741Y-105966174D01*
X97590648Y-105968183D01*
X97585536Y-105970872D01*
X97516043Y-106025657D01*
X97513473Y-106027628D01*
X97447198Y-106077117D01*
X97447191Y-106077124D01*
X97442570Y-106080574D01*
X97438656Y-106084808D01*
X97438654Y-106084810D01*
X97386737Y-106140974D01*
X97383307Y-106144540D01*
X95844999Y-107682848D01*
X95782687Y-107716874D01*
X95765791Y-107719365D01*
X95746006Y-107720922D01*
X95688289Y-107725465D01*
X95683482Y-107726619D01*
X95683476Y-107726620D01*
X95537609Y-107761640D01*
X95457406Y-107780895D01*
X95452835Y-107782788D01*
X95452833Y-107782789D01*
X95242611Y-107869865D01*
X95242607Y-107869867D01*
X95238037Y-107871760D01*
X95233817Y-107874346D01*
X95039798Y-107993241D01*
X95039792Y-107993245D01*
X95035584Y-107995824D01*
X94855031Y-108150031D01*
X94700824Y-108330584D01*
X94698245Y-108334792D01*
X94698241Y-108334798D01*
X94603858Y-108488817D01*
X94576760Y-108533037D01*
X94574867Y-108537607D01*
X94574865Y-108537611D01*
X94502463Y-108712406D01*
X94485895Y-108752406D01*
X94484740Y-108757218D01*
X94438884Y-108948223D01*
X94430465Y-108983289D01*
X94411835Y-109220000D01*
X94430465Y-109456711D01*
X94485895Y-109687594D01*
X94487788Y-109692165D01*
X94487789Y-109692167D01*
X94561940Y-109871183D01*
X94576760Y-109906963D01*
X94579346Y-109911183D01*
X94698241Y-110105202D01*
X94698245Y-110105208D01*
X94700824Y-110109416D01*
X94855031Y-110289969D01*
X95035584Y-110444176D01*
X95039792Y-110446755D01*
X95039798Y-110446759D01*
X95233817Y-110565654D01*
X95238037Y-110568240D01*
X95242607Y-110570133D01*
X95242611Y-110570135D01*
X95363625Y-110620260D01*
X95457406Y-110659105D01*
X95516866Y-110673380D01*
X95683476Y-110713380D01*
X95683482Y-110713381D01*
X95688289Y-110714535D01*
X95925000Y-110733165D01*
X96161711Y-110714535D01*
X96166518Y-110713381D01*
X96166524Y-110713380D01*
X96333134Y-110673380D01*
X96392594Y-110659105D01*
X96486375Y-110620260D01*
X96607389Y-110570135D01*
X96607393Y-110570133D01*
X96611963Y-110568240D01*
X96616183Y-110565654D01*
X96810202Y-110446759D01*
X96810208Y-110446755D01*
X96814416Y-110444176D01*
X96994969Y-110289969D01*
X97149176Y-110109416D01*
X97151755Y-110105208D01*
X97151759Y-110105202D01*
X97270654Y-109911183D01*
X97273240Y-109906963D01*
X97288061Y-109871183D01*
X97362211Y-109692167D01*
X97362212Y-109692165D01*
X97364105Y-109687594D01*
X97419535Y-109456711D01*
X97425635Y-109379209D01*
X97450921Y-109312868D01*
X97462152Y-109300001D01*
X98647747Y-108114406D01*
X98710059Y-108080380D01*
X98736842Y-108077501D01*
X99643662Y-108077501D01*
X99711783Y-108097503D01*
X99758276Y-108151159D01*
X99768380Y-108221433D01*
X99739473Y-108285332D01*
X99700824Y-108330584D01*
X99698245Y-108334792D01*
X99698241Y-108334798D01*
X99603858Y-108488817D01*
X99576760Y-108533037D01*
X99574867Y-108537607D01*
X99574865Y-108537611D01*
X99502463Y-108712406D01*
X99485895Y-108752406D01*
X99484740Y-108757218D01*
X99438884Y-108948223D01*
X99430465Y-108983289D01*
X99411835Y-109220000D01*
X99430465Y-109456711D01*
X99485895Y-109687594D01*
X99487788Y-109692165D01*
X99487789Y-109692167D01*
X99561940Y-109871183D01*
X99576760Y-109906963D01*
X99579346Y-109911183D01*
X99698241Y-110105202D01*
X99698245Y-110105208D01*
X99700824Y-110109416D01*
X99855031Y-110289969D01*
X100035584Y-110444176D01*
X100039792Y-110446755D01*
X100039798Y-110446759D01*
X100233817Y-110565654D01*
X100238037Y-110568240D01*
X100242607Y-110570133D01*
X100242611Y-110570135D01*
X100363625Y-110620260D01*
X100457406Y-110659105D01*
X100516866Y-110673380D01*
X100683476Y-110713380D01*
X100683482Y-110713381D01*
X100688289Y-110714535D01*
X100746006Y-110719078D01*
X100765791Y-110720635D01*
X100832132Y-110745921D01*
X100844999Y-110757152D01*
X101086151Y-110998304D01*
X101091788Y-111004322D01*
X101134494Y-111053019D01*
X101139029Y-111056594D01*
X101139030Y-111056595D01*
X101203982Y-111107798D01*
X101206547Y-111109876D01*
X101270100Y-111162734D01*
X101270105Y-111162738D01*
X101274540Y-111166426D01*
X101279574Y-111169245D01*
X101282584Y-111171314D01*
X101291854Y-111177508D01*
X101294999Y-111179551D01*
X101299537Y-111183128D01*
X101304645Y-111185816D01*
X101304649Y-111185818D01*
X101377816Y-111224312D01*
X101380716Y-111225887D01*
X101436661Y-111257218D01*
X101457904Y-111269115D01*
X101463376Y-111270972D01*
X101466776Y-111272486D01*
X101476987Y-111276873D01*
X101480421Y-111278295D01*
X101485527Y-111280982D01*
X101491041Y-111282694D01*
X101491043Y-111282695D01*
X101569999Y-111307212D01*
X101573135Y-111308231D01*
X101626280Y-111326271D01*
X101656912Y-111336669D01*
X101662625Y-111337498D01*
X101666138Y-111338341D01*
X101677151Y-111340833D01*
X101680718Y-111341591D01*
X101686234Y-111343304D01*
X101691962Y-111343982D01*
X101691967Y-111343983D01*
X101744182Y-111350163D01*
X101774099Y-111353704D01*
X101777322Y-111354128D01*
X101813419Y-111359362D01*
X101859184Y-111365998D01*
X101859189Y-111365998D01*
X101864898Y-111366826D01*
X101947069Y-111363597D01*
X101952017Y-111363500D01*
X113892195Y-111363500D01*
X113900436Y-111363770D01*
X113965061Y-111368006D01*
X114052973Y-111357601D01*
X114056186Y-111357264D01*
X114144279Y-111349169D01*
X114149839Y-111347601D01*
X114153412Y-111346939D01*
X114164415Y-111344750D01*
X114168028Y-111343982D01*
X114173765Y-111343303D01*
X114258276Y-111317062D01*
X114261373Y-111316146D01*
X114346549Y-111292123D01*
X114351737Y-111289565D01*
X114355188Y-111288240D01*
X114365566Y-111284099D01*
X114368953Y-111282696D01*
X114374473Y-111280982D01*
X114452746Y-111239801D01*
X114455682Y-111238305D01*
X114480863Y-111225887D01*
X114535037Y-111199171D01*
X114539668Y-111195713D01*
X114542871Y-111193750D01*
X114552258Y-111187827D01*
X114555351Y-111185818D01*
X114560463Y-111183129D01*
X114629956Y-111128344D01*
X114632526Y-111126373D01*
X114698801Y-111076884D01*
X114698808Y-111076877D01*
X114703429Y-111073427D01*
X114718989Y-111056595D01*
X114759262Y-111013027D01*
X114762692Y-111009461D01*
X114846405Y-110925748D01*
X114908717Y-110891722D01*
X114979532Y-110896787D01*
X115036368Y-110939334D01*
X115061179Y-111005854D01*
X115061500Y-111014843D01*
X115061500Y-123782195D01*
X115061230Y-123790436D01*
X115056994Y-123855061D01*
X115067399Y-123942973D01*
X115067736Y-123946186D01*
X115075831Y-124034279D01*
X115077399Y-124039839D01*
X115078061Y-124043412D01*
X115080250Y-124054415D01*
X115081018Y-124058028D01*
X115081697Y-124063765D01*
X115107938Y-124148276D01*
X115108854Y-124151373D01*
X115132877Y-124236549D01*
X115135435Y-124241737D01*
X115136760Y-124245188D01*
X115140901Y-124255566D01*
X115142304Y-124258953D01*
X115144018Y-124264473D01*
X115146709Y-124269587D01*
X115146709Y-124269588D01*
X115185198Y-124342745D01*
X115186695Y-124345681D01*
X115225829Y-124425037D01*
X115229287Y-124429668D01*
X115231250Y-124432871D01*
X115237173Y-124442258D01*
X115239182Y-124445351D01*
X115241871Y-124450463D01*
X115296656Y-124519956D01*
X115298627Y-124522526D01*
X115348116Y-124588801D01*
X115348123Y-124588808D01*
X115351573Y-124593429D01*
X115355807Y-124597343D01*
X115355809Y-124597345D01*
X115411973Y-124649262D01*
X115415539Y-124652692D01*
X116827547Y-126064700D01*
X116860159Y-126121184D01*
X116875716Y-126179243D01*
X116915794Y-126265191D01*
X116970151Y-126381762D01*
X116970154Y-126381767D01*
X116972477Y-126386749D01*
X116995802Y-126420060D01*
X117091156Y-126556239D01*
X117103802Y-126574300D01*
X117265700Y-126736198D01*
X117270208Y-126739355D01*
X117270211Y-126739357D01*
X117309244Y-126766688D01*
X117453251Y-126867523D01*
X117458233Y-126869846D01*
X117458238Y-126869849D01*
X117493049Y-126886081D01*
X117546334Y-126932998D01*
X117565795Y-127001275D01*
X117545253Y-127069235D01*
X117493049Y-127114471D01*
X117458489Y-127130586D01*
X117448993Y-127136069D01*
X117270533Y-127261028D01*
X117262125Y-127268084D01*
X117108084Y-127422125D01*
X117101028Y-127430533D01*
X116976069Y-127608993D01*
X116970586Y-127618489D01*
X116878510Y-127815947D01*
X116874764Y-127826239D01*
X116828606Y-127998503D01*
X116828942Y-128012599D01*
X116836884Y-128016000D01*
X119377967Y-128016000D01*
X119391498Y-128012027D01*
X119392727Y-128003478D01*
X119345236Y-127826239D01*
X119341490Y-127815947D01*
X119249414Y-127618489D01*
X119243931Y-127608993D01*
X119118972Y-127430533D01*
X119111916Y-127422125D01*
X118957875Y-127268084D01*
X118949467Y-127261028D01*
X118771007Y-127136069D01*
X118761511Y-127130586D01*
X118726951Y-127114471D01*
X118673666Y-127067554D01*
X118654205Y-126999277D01*
X118674747Y-126931317D01*
X118726947Y-126886083D01*
X118728611Y-126885307D01*
X118781865Y-126873500D01*
X119489156Y-126873500D01*
X119557277Y-126893502D01*
X119578252Y-126910405D01*
X120002549Y-127334703D01*
X120035159Y-127391185D01*
X120050716Y-127449243D01*
X120053037Y-127454221D01*
X120053038Y-127454223D01*
X120145151Y-127651762D01*
X120145154Y-127651767D01*
X120147477Y-127656749D01*
X120150634Y-127661257D01*
X120266156Y-127826239D01*
X120278802Y-127844300D01*
X120440700Y-128006198D01*
X120445208Y-128009355D01*
X120445211Y-128009357D01*
X120509489Y-128054365D01*
X120628251Y-128137523D01*
X120633233Y-128139846D01*
X120633238Y-128139849D01*
X120792875Y-128214288D01*
X120835757Y-128234284D01*
X120841065Y-128235706D01*
X120841067Y-128235707D01*
X121051598Y-128292119D01*
X121051600Y-128292119D01*
X121056913Y-128293543D01*
X121285000Y-128313498D01*
X121513087Y-128293543D01*
X121518400Y-128292119D01*
X121518402Y-128292119D01*
X121728933Y-128235707D01*
X121728935Y-128235706D01*
X121734243Y-128234284D01*
X121777125Y-128214288D01*
X121936762Y-128139849D01*
X121936767Y-128139846D01*
X121941749Y-128137523D01*
X122015243Y-128086062D01*
X125563493Y-128086062D01*
X125572789Y-128098077D01*
X125623994Y-128133931D01*
X125633489Y-128139414D01*
X125830947Y-128231490D01*
X125841239Y-128235236D01*
X126051688Y-128291625D01*
X126062481Y-128293528D01*
X126279525Y-128312517D01*
X126290475Y-128312517D01*
X126507519Y-128293528D01*
X126518312Y-128291625D01*
X126728761Y-128235236D01*
X126739053Y-128231490D01*
X126936511Y-128139414D01*
X126946006Y-128133931D01*
X126998048Y-128097491D01*
X127006424Y-128087012D01*
X126999356Y-128073566D01*
X126297812Y-127372022D01*
X126283868Y-127364408D01*
X126282035Y-127364539D01*
X126275420Y-127368790D01*
X125569923Y-128074287D01*
X125563493Y-128086062D01*
X122015243Y-128086062D01*
X122060511Y-128054365D01*
X122124789Y-128009357D01*
X122124792Y-128009355D01*
X122129300Y-128006198D01*
X122291198Y-127844300D01*
X122303845Y-127826239D01*
X122419366Y-127661257D01*
X122422523Y-127656749D01*
X122424846Y-127651767D01*
X122424849Y-127651762D01*
X122516961Y-127454225D01*
X122516962Y-127454223D01*
X122519284Y-127449243D01*
X122524298Y-127430533D01*
X122577119Y-127233402D01*
X122577119Y-127233400D01*
X122578543Y-127228087D01*
X122598019Y-127005475D01*
X124972483Y-127005475D01*
X124991472Y-127222519D01*
X124993375Y-127233312D01*
X125049764Y-127443761D01*
X125053510Y-127454053D01*
X125145586Y-127651511D01*
X125151069Y-127661006D01*
X125187509Y-127713048D01*
X125197988Y-127721424D01*
X125211434Y-127714356D01*
X125912978Y-127012812D01*
X125920592Y-126998868D01*
X125920461Y-126997035D01*
X125916210Y-126990420D01*
X125210713Y-126284923D01*
X125198938Y-126278493D01*
X125186923Y-126287789D01*
X125151069Y-126338994D01*
X125145586Y-126348489D01*
X125053510Y-126545947D01*
X125049764Y-126556239D01*
X124993375Y-126766688D01*
X124991472Y-126777481D01*
X124972483Y-126994525D01*
X124972483Y-127005475D01*
X122598019Y-127005475D01*
X122598498Y-127000000D01*
X122578543Y-126771913D01*
X122567282Y-126729885D01*
X122520707Y-126556067D01*
X122520706Y-126556065D01*
X122519284Y-126550757D01*
X122504196Y-126518400D01*
X122424849Y-126348238D01*
X122424846Y-126348233D01*
X122422523Y-126343251D01*
X122311174Y-126184228D01*
X122294357Y-126160211D01*
X122294355Y-126160208D01*
X122291198Y-126155700D01*
X122129300Y-125993802D01*
X122124792Y-125990645D01*
X122124789Y-125990643D01*
X121998920Y-125902509D01*
X121941749Y-125862477D01*
X121936767Y-125860154D01*
X121936762Y-125860151D01*
X121831409Y-125811025D01*
X121734243Y-125765716D01*
X121676184Y-125750159D01*
X121619700Y-125717547D01*
X121251375Y-125349222D01*
X121217349Y-125286910D01*
X121222414Y-125216095D01*
X121264961Y-125159259D01*
X121329488Y-125134606D01*
X121383530Y-125129878D01*
X121513087Y-125118543D01*
X121518400Y-125117119D01*
X121518402Y-125117119D01*
X121728933Y-125060707D01*
X121728935Y-125060706D01*
X121734243Y-125059284D01*
X121747636Y-125053039D01*
X121936762Y-124964849D01*
X121936767Y-124964846D01*
X121941749Y-124962523D01*
X122118328Y-124838881D01*
X122124789Y-124834357D01*
X122124792Y-124834355D01*
X122129300Y-124831198D01*
X122272593Y-124687905D01*
X122334905Y-124653879D01*
X122361688Y-124651000D01*
X125335669Y-124651000D01*
X125403790Y-124671002D01*
X125424764Y-124687905D01*
X126221625Y-125484766D01*
X126255651Y-125547078D01*
X126250586Y-125617893D01*
X126208039Y-125674729D01*
X126143512Y-125699381D01*
X126062491Y-125706470D01*
X126051688Y-125708375D01*
X125841239Y-125764764D01*
X125830947Y-125768510D01*
X125633489Y-125860586D01*
X125623994Y-125866069D01*
X125571952Y-125902509D01*
X125563576Y-125912988D01*
X125570644Y-125926434D01*
X127359287Y-127715077D01*
X127371062Y-127721507D01*
X127383077Y-127712211D01*
X127418931Y-127661006D01*
X127424414Y-127651511D01*
X127516490Y-127454053D01*
X127520236Y-127443761D01*
X127576625Y-127233312D01*
X127578530Y-127222509D01*
X127585619Y-127141488D01*
X127611482Y-127075370D01*
X127668986Y-127033730D01*
X127739873Y-127029790D01*
X127800234Y-127063375D01*
X127962095Y-127225236D01*
X127996121Y-127287548D01*
X127999000Y-127314331D01*
X127999000Y-130689967D01*
X127998558Y-130700511D01*
X127994377Y-130750300D01*
X128002344Y-130810000D01*
X128004706Y-130827704D01*
X128005073Y-130830743D01*
X128013511Y-130908417D01*
X128015687Y-130914883D01*
X128016204Y-130917233D01*
X128016301Y-130917783D01*
X128016480Y-130918550D01*
X128016635Y-130919085D01*
X128017211Y-130921432D01*
X128018113Y-130928190D01*
X128039760Y-130987666D01*
X128044810Y-131001540D01*
X128045826Y-131004443D01*
X128068575Y-131072039D01*
X128068578Y-131072046D01*
X128070754Y-131078511D01*
X128074269Y-131084360D01*
X128075282Y-131086553D01*
X128075494Y-131087068D01*
X128075827Y-131087766D01*
X128076100Y-131088267D01*
X128077160Y-131090421D01*
X128079494Y-131096834D01*
X128121342Y-131162775D01*
X128122956Y-131165390D01*
X128163186Y-131232344D01*
X128167867Y-131237295D01*
X128169337Y-131239231D01*
X128169985Y-131240162D01*
X128172886Y-131243998D01*
X128175657Y-131248364D01*
X128179323Y-131252464D01*
X128180561Y-131253702D01*
X128231262Y-131304402D01*
X128233716Y-131306926D01*
X128281807Y-131357782D01*
X128281810Y-131357784D01*
X128286496Y-131362740D01*
X128292137Y-131366574D01*
X128296989Y-131370703D01*
X128304419Y-131377560D01*
X130101649Y-133174789D01*
X130135674Y-133237101D01*
X130138075Y-133274865D01*
X130131502Y-133350000D01*
X130151457Y-133578087D01*
X130210716Y-133799243D01*
X130213039Y-133804224D01*
X130213039Y-133804225D01*
X130305151Y-134001762D01*
X130305154Y-134001767D01*
X130307477Y-134006749D01*
X130310634Y-134011257D01*
X130427662Y-134178390D01*
X130438802Y-134194300D01*
X130600700Y-134356198D01*
X130605208Y-134359355D01*
X130605211Y-134359357D01*
X130619000Y-134369012D01*
X130788251Y-134487523D01*
X130793233Y-134489846D01*
X130793238Y-134489849D01*
X130990775Y-134581961D01*
X130995757Y-134584284D01*
X131001065Y-134585706D01*
X131001067Y-134585707D01*
X131211598Y-134642119D01*
X131211600Y-134642119D01*
X131216913Y-134643543D01*
X131445000Y-134663498D01*
X131673087Y-134643543D01*
X131678400Y-134642119D01*
X131678402Y-134642119D01*
X131888933Y-134585707D01*
X131888935Y-134585706D01*
X131894243Y-134584284D01*
X131899225Y-134581961D01*
X132096762Y-134489849D01*
X132096767Y-134489846D01*
X132101749Y-134487523D01*
X132271000Y-134369012D01*
X132284789Y-134359357D01*
X132284792Y-134359355D01*
X132289300Y-134356198D01*
X132451198Y-134194300D01*
X132462339Y-134178390D01*
X132579366Y-134011257D01*
X132582523Y-134006749D01*
X132584846Y-134001767D01*
X132584849Y-134001762D01*
X132676961Y-133804225D01*
X132676961Y-133804224D01*
X132679284Y-133799243D01*
X132738543Y-133578087D01*
X132758498Y-133350000D01*
X132738543Y-133121913D01*
X132682643Y-132913292D01*
X132680707Y-132906067D01*
X132680706Y-132906065D01*
X132679284Y-132900757D01*
X132676961Y-132895775D01*
X132584849Y-132698238D01*
X132584846Y-132698233D01*
X132582523Y-132693251D01*
X132451198Y-132505700D01*
X132289300Y-132343802D01*
X132284792Y-132340645D01*
X132284789Y-132340643D01*
X132206611Y-132285902D01*
X132101749Y-132212477D01*
X132096767Y-132210154D01*
X132096762Y-132210151D01*
X131899225Y-132118039D01*
X131899224Y-132118039D01*
X131894243Y-132115716D01*
X131888935Y-132114294D01*
X131888933Y-132114293D01*
X131678402Y-132057881D01*
X131678400Y-132057881D01*
X131673087Y-132056457D01*
X131445000Y-132036502D01*
X131439525Y-132036981D01*
X131439524Y-132036981D01*
X131369865Y-132043075D01*
X131300260Y-132029085D01*
X131269789Y-132006649D01*
X130886584Y-131623444D01*
X130852558Y-131561132D01*
X130857623Y-131490317D01*
X130900170Y-131433481D01*
X130966690Y-131408670D01*
X131008288Y-131412642D01*
X131216913Y-131468543D01*
X131445000Y-131488498D01*
X131673087Y-131468543D01*
X131678400Y-131467119D01*
X131678402Y-131467119D01*
X131888933Y-131410707D01*
X131888935Y-131410706D01*
X131894243Y-131409284D01*
X131944616Y-131385795D01*
X132096762Y-131314849D01*
X132096767Y-131314846D01*
X132101749Y-131312523D01*
X132224599Y-131226502D01*
X132284789Y-131184357D01*
X132284792Y-131184355D01*
X132289300Y-131181198D01*
X132432593Y-131037905D01*
X132494905Y-131003879D01*
X132521688Y-131001000D01*
X132985525Y-131001000D01*
X133053646Y-131021002D01*
X133100139Y-131074658D01*
X133106520Y-131093878D01*
X133106532Y-131093990D01*
X133162803Y-131262654D01*
X133256366Y-131413850D01*
X133382201Y-131539466D01*
X133388431Y-131543306D01*
X133388432Y-131543307D01*
X133405280Y-131553692D01*
X133533560Y-131632764D01*
X133540508Y-131635069D01*
X133540509Y-131635069D01*
X133695791Y-131686575D01*
X133695793Y-131686576D01*
X133702322Y-131688741D01*
X133807334Y-131699500D01*
X135432666Y-131699500D01*
X135435912Y-131699163D01*
X135435916Y-131699163D01*
X135532132Y-131689180D01*
X135532136Y-131689179D01*
X135538990Y-131688468D01*
X135545526Y-131686287D01*
X135545528Y-131686287D01*
X135697175Y-131635693D01*
X135707654Y-131632197D01*
X135858850Y-131538634D01*
X135984466Y-131412799D01*
X136001814Y-131384656D01*
X136019341Y-131356221D01*
X136077764Y-131261440D01*
X136103332Y-131184357D01*
X136131575Y-131099209D01*
X136131576Y-131099207D01*
X136133741Y-131092678D01*
X136144500Y-130987666D01*
X136144500Y-130959192D01*
X136164502Y-130891071D01*
X136218158Y-130844578D01*
X136288432Y-130834474D01*
X136353012Y-130863968D01*
X136370463Y-130882488D01*
X136377049Y-130891071D01*
X136483877Y-131030292D01*
X136650036Y-131181485D01*
X136654783Y-131184463D01*
X136654786Y-131184465D01*
X136781936Y-131264225D01*
X136840344Y-131300864D01*
X137048783Y-131384656D01*
X137268767Y-131430213D01*
X137273378Y-131430479D01*
X137273379Y-131430479D01*
X137323952Y-131433395D01*
X137323956Y-131433395D01*
X137325775Y-131433500D01*
X137470999Y-131433500D01*
X137473786Y-131433251D01*
X137473792Y-131433251D01*
X137543929Y-131426991D01*
X137637762Y-131418617D01*
X137643176Y-131417136D01*
X137643181Y-131417135D01*
X137770912Y-131382191D01*
X137854451Y-131359337D01*
X137859509Y-131356925D01*
X137859513Y-131356923D01*
X137967033Y-131305638D01*
X138057218Y-131262622D01*
X138239654Y-131131529D01*
X138325055Y-131043402D01*
X138392089Y-130974229D01*
X138392091Y-130974226D01*
X138395992Y-130970201D01*
X138521290Y-130783738D01*
X138611588Y-130578033D01*
X138664032Y-130359589D01*
X138674675Y-130175000D01*
X138676640Y-130140917D01*
X138676640Y-130140914D01*
X138676963Y-130135310D01*
X138649975Y-129912285D01*
X138583918Y-129697565D01*
X138570970Y-129672477D01*
X138483454Y-129502919D01*
X138483454Y-129502918D01*
X138480882Y-129497936D01*
X138344123Y-129319708D01*
X138177964Y-129168515D01*
X138173217Y-129165537D01*
X138173214Y-129165535D01*
X137992405Y-129052115D01*
X137987656Y-129049136D01*
X137779217Y-128965344D01*
X137559233Y-128919787D01*
X137554622Y-128919521D01*
X137554621Y-128919521D01*
X137504048Y-128916605D01*
X137504044Y-128916605D01*
X137502225Y-128916500D01*
X137357001Y-128916500D01*
X137354214Y-128916749D01*
X137354208Y-128916749D01*
X137284071Y-128923009D01*
X137190238Y-128931383D01*
X137184824Y-128932864D01*
X137184819Y-128932865D01*
X137070262Y-128964205D01*
X136973549Y-128990663D01*
X136968491Y-128993075D01*
X136968487Y-128993077D01*
X136872165Y-129039021D01*
X136770782Y-129087378D01*
X136588346Y-129218471D01*
X136536554Y-129271916D01*
X136445768Y-129365600D01*
X136432008Y-129379799D01*
X136378928Y-129458790D01*
X136375082Y-129464514D01*
X136320486Y-129509899D01*
X136250020Y-129518562D01*
X136186056Y-129487754D01*
X136148903Y-129427255D01*
X136144500Y-129394238D01*
X136144500Y-129362334D01*
X136144163Y-129359084D01*
X136134180Y-129262868D01*
X136134179Y-129262864D01*
X136133468Y-129256010D01*
X136077197Y-129087346D01*
X135983634Y-128936150D01*
X135857799Y-128810534D01*
X135706440Y-128717236D01*
X135699491Y-128714931D01*
X135544209Y-128663425D01*
X135544207Y-128663424D01*
X135537678Y-128661259D01*
X135432666Y-128650500D01*
X133807334Y-128650500D01*
X133804088Y-128650837D01*
X133804084Y-128650837D01*
X133707868Y-128660820D01*
X133707864Y-128660821D01*
X133701010Y-128661532D01*
X133694474Y-128663713D01*
X133694472Y-128663713D01*
X133562723Y-128707668D01*
X133532346Y-128717803D01*
X133381150Y-128811366D01*
X133255534Y-128937201D01*
X133251694Y-128943431D01*
X133251693Y-128943432D01*
X133236895Y-128967440D01*
X133162236Y-129088560D01*
X133106259Y-129257322D01*
X133104710Y-129256808D01*
X133074885Y-129311825D01*
X133012676Y-129346039D01*
X132985520Y-129349000D01*
X132521688Y-129349000D01*
X132453567Y-129328998D01*
X132432593Y-129312095D01*
X132289300Y-129168802D01*
X132284792Y-129165645D01*
X132284789Y-129165643D01*
X132122654Y-129052115D01*
X132101749Y-129037477D01*
X132096767Y-129035154D01*
X132096762Y-129035151D01*
X131899225Y-128943039D01*
X131899224Y-128943039D01*
X131894243Y-128940716D01*
X131888935Y-128939294D01*
X131888933Y-128939293D01*
X131678402Y-128882881D01*
X131678400Y-128882881D01*
X131673087Y-128881457D01*
X131445000Y-128861502D01*
X131216913Y-128881457D01*
X131211600Y-128882881D01*
X131211598Y-128882881D01*
X131001067Y-128939293D01*
X131001065Y-128939294D01*
X130995757Y-128940716D01*
X130990776Y-128943039D01*
X130990775Y-128943039D01*
X130793238Y-129035151D01*
X130793233Y-129035154D01*
X130788251Y-129037477D01*
X130767346Y-129052115D01*
X130605211Y-129165643D01*
X130605208Y-129165645D01*
X130600700Y-129168802D01*
X130438802Y-129330700D01*
X130435645Y-129335208D01*
X130435643Y-129335211D01*
X130407243Y-129375771D01*
X130307477Y-129518251D01*
X130305154Y-129523233D01*
X130305151Y-129523238D01*
X130226186Y-129692581D01*
X130210716Y-129725757D01*
X130209294Y-129731064D01*
X130209293Y-129731067D01*
X130152881Y-129941598D01*
X130151457Y-129946913D01*
X130131502Y-130175000D01*
X130151457Y-130403087D01*
X130207358Y-130611709D01*
X130205668Y-130682686D01*
X130165874Y-130741482D01*
X130100610Y-130769430D01*
X130030596Y-130757657D01*
X129996556Y-130733416D01*
X129687905Y-130424765D01*
X129653879Y-130362453D01*
X129651000Y-130335670D01*
X129651000Y-127872000D01*
X129671002Y-127803879D01*
X129724658Y-127757386D01*
X129777000Y-127746000D01*
X133543312Y-127746000D01*
X133611433Y-127766002D01*
X133632407Y-127782905D01*
X133775700Y-127926198D01*
X133780208Y-127929355D01*
X133780211Y-127929357D01*
X133894463Y-128009357D01*
X133963251Y-128057523D01*
X133968233Y-128059846D01*
X133968238Y-128059849D01*
X134165775Y-128151961D01*
X134170757Y-128154284D01*
X134176065Y-128155706D01*
X134176067Y-128155707D01*
X134386598Y-128212119D01*
X134386600Y-128212119D01*
X134391913Y-128213543D01*
X134620000Y-128233498D01*
X134848087Y-128213543D01*
X134853400Y-128212119D01*
X134853402Y-128212119D01*
X135063933Y-128155707D01*
X135063935Y-128155706D01*
X135069243Y-128154284D01*
X135074225Y-128151961D01*
X135271762Y-128059849D01*
X135271767Y-128059846D01*
X135276749Y-128057523D01*
X135345537Y-128009357D01*
X135459789Y-127929357D01*
X135459792Y-127929355D01*
X135464300Y-127926198D01*
X135626198Y-127764300D01*
X135631040Y-127757386D01*
X135742294Y-127598498D01*
X135757523Y-127576749D01*
X135759846Y-127571767D01*
X135759849Y-127571762D01*
X135851961Y-127374225D01*
X135851961Y-127374224D01*
X135854284Y-127369243D01*
X135876241Y-127287301D01*
X135912119Y-127153402D01*
X135912119Y-127153400D01*
X135913543Y-127148087D01*
X135933498Y-126920000D01*
X135913543Y-126691913D01*
X135883073Y-126578197D01*
X135855707Y-126476067D01*
X135855706Y-126476065D01*
X135854284Y-126470757D01*
X135851961Y-126465775D01*
X135759849Y-126268238D01*
X135759846Y-126268233D01*
X135757523Y-126263251D01*
X135636996Y-126091121D01*
X135629357Y-126080211D01*
X135629355Y-126080208D01*
X135626198Y-126075700D01*
X135464300Y-125913802D01*
X135459792Y-125910645D01*
X135459789Y-125910643D01*
X135360424Y-125841067D01*
X135276749Y-125782477D01*
X135271767Y-125780154D01*
X135271762Y-125780151D01*
X135074225Y-125688039D01*
X135074224Y-125688039D01*
X135069243Y-125685716D01*
X135063935Y-125684294D01*
X135063933Y-125684293D01*
X134853402Y-125627881D01*
X134853400Y-125627881D01*
X134848087Y-125626457D01*
X134620000Y-125606502D01*
X134391913Y-125626457D01*
X134386600Y-125627881D01*
X134386598Y-125627881D01*
X134176067Y-125684293D01*
X134176065Y-125684294D01*
X134170757Y-125685716D01*
X134165776Y-125688039D01*
X134165775Y-125688039D01*
X133968238Y-125780151D01*
X133968233Y-125780154D01*
X133963251Y-125782477D01*
X133879576Y-125841067D01*
X133780211Y-125910643D01*
X133780208Y-125910645D01*
X133775700Y-125913802D01*
X133632407Y-126057095D01*
X133570095Y-126091121D01*
X133543312Y-126094000D01*
X129219331Y-126094000D01*
X129151210Y-126073998D01*
X129130236Y-126057095D01*
X126342385Y-123269245D01*
X126335242Y-123261478D01*
X126307390Y-123228520D01*
X126302985Y-123223307D01*
X126240934Y-123175866D01*
X126238514Y-123173968D01*
X126182968Y-123129307D01*
X126177650Y-123125031D01*
X126171540Y-123121998D01*
X126169504Y-123120696D01*
X126169048Y-123120377D01*
X126168390Y-123119967D01*
X126167900Y-123119698D01*
X126165834Y-123118447D01*
X126160414Y-123114303D01*
X126089646Y-123081304D01*
X126086875Y-123079970D01*
X126016898Y-123045233D01*
X126010273Y-123043581D01*
X126008006Y-123042747D01*
X126007481Y-123042528D01*
X126006777Y-123042279D01*
X126006227Y-123042117D01*
X126003943Y-123041339D01*
X125997761Y-123038457D01*
X125991103Y-123036969D01*
X125991095Y-123036966D01*
X125921542Y-123021419D01*
X125918546Y-123020711D01*
X125849385Y-123003467D01*
X125849382Y-123003467D01*
X125842762Y-123001816D01*
X125835941Y-123001625D01*
X125833544Y-123001297D01*
X125832430Y-123001096D01*
X125827656Y-123000434D01*
X125822616Y-122999307D01*
X125817125Y-122999000D01*
X125743711Y-122999000D01*
X125740193Y-122998951D01*
X125739283Y-122998926D01*
X125663365Y-122996805D01*
X125656658Y-122998084D01*
X125650323Y-122998594D01*
X125640216Y-122999000D01*
X122361688Y-122999000D01*
X122293567Y-122978998D01*
X122272593Y-122962095D01*
X122147905Y-122837407D01*
X122113879Y-122775095D01*
X122111000Y-122748312D01*
X122111000Y-121726688D01*
X122131002Y-121658567D01*
X122147905Y-121637593D01*
X122291198Y-121494300D01*
X122311172Y-121465775D01*
X122370184Y-121381496D01*
X122422523Y-121306749D01*
X122424846Y-121301767D01*
X122424849Y-121301762D01*
X122516961Y-121104225D01*
X122516961Y-121104224D01*
X122519284Y-121099243D01*
X122522643Y-121086709D01*
X122577119Y-120883402D01*
X122577119Y-120883400D01*
X122578543Y-120878087D01*
X122598498Y-120650000D01*
X122578543Y-120421913D01*
X122577119Y-120416598D01*
X122520707Y-120206067D01*
X122520706Y-120206065D01*
X122519284Y-120200757D01*
X122516961Y-120195775D01*
X122424849Y-119998238D01*
X122424846Y-119998233D01*
X122422523Y-119993251D01*
X122338292Y-119872957D01*
X122294357Y-119810211D01*
X122294355Y-119810208D01*
X122291198Y-119805700D01*
X122129300Y-119643802D01*
X122124792Y-119640645D01*
X122124789Y-119640643D01*
X122046611Y-119585902D01*
X121941749Y-119512477D01*
X121936767Y-119510154D01*
X121936762Y-119510151D01*
X121739225Y-119418039D01*
X121739224Y-119418039D01*
X121734243Y-119415716D01*
X121728935Y-119414294D01*
X121728933Y-119414293D01*
X121518402Y-119357881D01*
X121518400Y-119357881D01*
X121513087Y-119356457D01*
X121285000Y-119336502D01*
X121056913Y-119356457D01*
X121051600Y-119357881D01*
X121051598Y-119357881D01*
X120841067Y-119414293D01*
X120841065Y-119414294D01*
X120835757Y-119415716D01*
X120830776Y-119418039D01*
X120830775Y-119418039D01*
X120633238Y-119510151D01*
X120633233Y-119510154D01*
X120628251Y-119512477D01*
X120523389Y-119585902D01*
X120445211Y-119640643D01*
X120445208Y-119640645D01*
X120440700Y-119643802D01*
X120297407Y-119787095D01*
X120235095Y-119821121D01*
X120208312Y-119824000D01*
X119186688Y-119824000D01*
X119118567Y-119803998D01*
X119097593Y-119787095D01*
X118954300Y-119643802D01*
X118949792Y-119640645D01*
X118949789Y-119640643D01*
X118871611Y-119585902D01*
X118766749Y-119512477D01*
X118761767Y-119510154D01*
X118761762Y-119510151D01*
X118727543Y-119494195D01*
X118674258Y-119447278D01*
X118654797Y-119379001D01*
X118675339Y-119311041D01*
X118727543Y-119265805D01*
X118761762Y-119249849D01*
X118761767Y-119249846D01*
X118766749Y-119247523D01*
X118916626Y-119142578D01*
X118949789Y-119119357D01*
X118949792Y-119119355D01*
X118954300Y-119116198D01*
X119097593Y-118972905D01*
X119159905Y-118938879D01*
X119186688Y-118936000D01*
X120609967Y-118936000D01*
X120620512Y-118936442D01*
X120670300Y-118940623D01*
X120747743Y-118930289D01*
X120750743Y-118929927D01*
X120805449Y-118923984D01*
X120821634Y-118922226D01*
X120821636Y-118922226D01*
X120828417Y-118921489D01*
X120834883Y-118919313D01*
X120837233Y-118918796D01*
X120837783Y-118918699D01*
X120838550Y-118918520D01*
X120839085Y-118918365D01*
X120841432Y-118917789D01*
X120848190Y-118916887D01*
X120921542Y-118890189D01*
X120924443Y-118889174D01*
X120992039Y-118866425D01*
X120992046Y-118866422D01*
X120998511Y-118864246D01*
X121004360Y-118860731D01*
X121006553Y-118859718D01*
X121007068Y-118859506D01*
X121007766Y-118859173D01*
X121008267Y-118858900D01*
X121010421Y-118857840D01*
X121016834Y-118855506D01*
X121082768Y-118813663D01*
X121085384Y-118812047D01*
X121109875Y-118797332D01*
X121185749Y-118779815D01*
X121279525Y-118788019D01*
X121285000Y-118788498D01*
X121513087Y-118768543D01*
X121518400Y-118767119D01*
X121518402Y-118767119D01*
X121728933Y-118710707D01*
X121728935Y-118710706D01*
X121734243Y-118709284D01*
X121740068Y-118706568D01*
X121936762Y-118614849D01*
X121936767Y-118614846D01*
X121941749Y-118612523D01*
X122046611Y-118539098D01*
X122124789Y-118484357D01*
X122124792Y-118484355D01*
X122129300Y-118481198D01*
X122272593Y-118337905D01*
X122334905Y-118303879D01*
X122361688Y-118301000D01*
X124700669Y-118301000D01*
X124768790Y-118321002D01*
X124789764Y-118337905D01*
X130101649Y-123649789D01*
X130135675Y-123712101D01*
X130138075Y-123749865D01*
X130131502Y-123825000D01*
X130151457Y-124053087D01*
X130152881Y-124058400D01*
X130152881Y-124058402D01*
X130177371Y-124149797D01*
X130210716Y-124274243D01*
X130213039Y-124279224D01*
X130213039Y-124279225D01*
X130305151Y-124476762D01*
X130305154Y-124476767D01*
X130307477Y-124481749D01*
X130372014Y-124573917D01*
X130431591Y-124659001D01*
X130438802Y-124669300D01*
X130600700Y-124831198D01*
X130605208Y-124834355D01*
X130605211Y-124834357D01*
X130611672Y-124838881D01*
X130788251Y-124962523D01*
X130793233Y-124964846D01*
X130793238Y-124964849D01*
X130982364Y-125053039D01*
X130995757Y-125059284D01*
X131001065Y-125060706D01*
X131001067Y-125060707D01*
X131211598Y-125117119D01*
X131211600Y-125117119D01*
X131216913Y-125118543D01*
X131445000Y-125138498D01*
X131673087Y-125118543D01*
X131678400Y-125117119D01*
X131678402Y-125117119D01*
X131888933Y-125060707D01*
X131888935Y-125060706D01*
X131894243Y-125059284D01*
X131907636Y-125053039D01*
X132096762Y-124964849D01*
X132096767Y-124964846D01*
X132101749Y-124962523D01*
X132278328Y-124838881D01*
X132284789Y-124834357D01*
X132284792Y-124834355D01*
X132289300Y-124831198D01*
X132451198Y-124669300D01*
X132458410Y-124659001D01*
X132517986Y-124573917D01*
X132582523Y-124481749D01*
X132584846Y-124476767D01*
X132584849Y-124476762D01*
X132676961Y-124279225D01*
X132676961Y-124279224D01*
X132679284Y-124274243D01*
X132712630Y-124149797D01*
X132737119Y-124058402D01*
X132737119Y-124058400D01*
X132738543Y-124053087D01*
X132758498Y-123825000D01*
X132751925Y-123749865D01*
X132765914Y-123680263D01*
X132788351Y-123649791D01*
X133554727Y-122883415D01*
X133617039Y-122849389D01*
X133687854Y-122854454D01*
X133732917Y-122883415D01*
X133775700Y-122926198D01*
X133780208Y-122929355D01*
X133780211Y-122929357D01*
X133826966Y-122962095D01*
X133963251Y-123057523D01*
X133968233Y-123059846D01*
X133968238Y-123059849D01*
X134108023Y-123125031D01*
X134170757Y-123154284D01*
X134176065Y-123155706D01*
X134176067Y-123155707D01*
X134386598Y-123212119D01*
X134386600Y-123212119D01*
X134391913Y-123213543D01*
X134620000Y-123233498D01*
X134848087Y-123213543D01*
X134853400Y-123212119D01*
X134853402Y-123212119D01*
X135063933Y-123155707D01*
X135063935Y-123155706D01*
X135069243Y-123154284D01*
X135131977Y-123125031D01*
X135271762Y-123059849D01*
X135271767Y-123059846D01*
X135276749Y-123057523D01*
X135413034Y-122962095D01*
X135459789Y-122929357D01*
X135459792Y-122929355D01*
X135464300Y-122926198D01*
X135626198Y-122764300D01*
X135638845Y-122746239D01*
X135721391Y-122628351D01*
X135757523Y-122576749D01*
X135759846Y-122571767D01*
X135759849Y-122571762D01*
X135851961Y-122374225D01*
X135851961Y-122374224D01*
X135854284Y-122369243D01*
X135859298Y-122350533D01*
X135912119Y-122153402D01*
X135912119Y-122153400D01*
X135913543Y-122148087D01*
X135933498Y-121920000D01*
X135913543Y-121691913D01*
X135867051Y-121518402D01*
X135855707Y-121476067D01*
X135855706Y-121476065D01*
X135854284Y-121470757D01*
X135812661Y-121381496D01*
X135759849Y-121268238D01*
X135759846Y-121268233D01*
X135757523Y-121263251D01*
X135671463Y-121140345D01*
X135629357Y-121080211D01*
X135629355Y-121080208D01*
X135626198Y-121075700D01*
X135464300Y-120913802D01*
X135459792Y-120910645D01*
X135459789Y-120910643D01*
X135360424Y-120841067D01*
X135276749Y-120782477D01*
X135271767Y-120780154D01*
X135271762Y-120780151D01*
X135074225Y-120688039D01*
X135074224Y-120688039D01*
X135069243Y-120685716D01*
X135063935Y-120684294D01*
X135063933Y-120684293D01*
X134853402Y-120627881D01*
X134853400Y-120627881D01*
X134848087Y-120626457D01*
X134620000Y-120606502D01*
X134391913Y-120626457D01*
X134386600Y-120627881D01*
X134386598Y-120627881D01*
X134176067Y-120684293D01*
X134176065Y-120684294D01*
X134170757Y-120685716D01*
X134165776Y-120688039D01*
X134165775Y-120688039D01*
X133968238Y-120780151D01*
X133968233Y-120780154D01*
X133963251Y-120782477D01*
X133879576Y-120841067D01*
X133780211Y-120910643D01*
X133780208Y-120910645D01*
X133775700Y-120913802D01*
X133632407Y-121057095D01*
X133570095Y-121091121D01*
X133543312Y-121094000D01*
X133390033Y-121094000D01*
X133379489Y-121093558D01*
X133370000Y-121092761D01*
X133329700Y-121089377D01*
X133252257Y-121099711D01*
X133249257Y-121100073D01*
X133211039Y-121104225D01*
X133178366Y-121107774D01*
X133178364Y-121107774D01*
X133171583Y-121108511D01*
X133165117Y-121110687D01*
X133162767Y-121111204D01*
X133162217Y-121111301D01*
X133161450Y-121111480D01*
X133160915Y-121111635D01*
X133158568Y-121112211D01*
X133151810Y-121113113D01*
X133078460Y-121139810D01*
X133075557Y-121140826D01*
X133007961Y-121163575D01*
X133007954Y-121163578D01*
X133001489Y-121165754D01*
X132995640Y-121169269D01*
X132993447Y-121170282D01*
X132992932Y-121170494D01*
X132992234Y-121170827D01*
X132991733Y-121171100D01*
X132989579Y-121172160D01*
X132983166Y-121174494D01*
X132917197Y-121216359D01*
X132914647Y-121217934D01*
X132862446Y-121249299D01*
X132793758Y-121267238D01*
X132726271Y-121245192D01*
X132681416Y-121190160D01*
X132673435Y-121119613D01*
X132678327Y-121101295D01*
X132679284Y-121099243D01*
X132738543Y-120878087D01*
X132758498Y-120650000D01*
X132738543Y-120421913D01*
X132737119Y-120416598D01*
X132680707Y-120206067D01*
X132680706Y-120206065D01*
X132679284Y-120200757D01*
X132676961Y-120195775D01*
X132584849Y-119998238D01*
X132584846Y-119998233D01*
X132582523Y-119993251D01*
X132498292Y-119872957D01*
X132454357Y-119810211D01*
X132454355Y-119810208D01*
X132451198Y-119805700D01*
X132289300Y-119643802D01*
X132284792Y-119640645D01*
X132284789Y-119640643D01*
X132206611Y-119585902D01*
X132101749Y-119512477D01*
X132096767Y-119510154D01*
X132096762Y-119510151D01*
X131899225Y-119418039D01*
X131899224Y-119418039D01*
X131894243Y-119415716D01*
X131888935Y-119414294D01*
X131888933Y-119414293D01*
X131678402Y-119357881D01*
X131678400Y-119357881D01*
X131673087Y-119356457D01*
X131445000Y-119336502D01*
X131439525Y-119336981D01*
X131439524Y-119336981D01*
X131369865Y-119343075D01*
X131300260Y-119329085D01*
X131269789Y-119306649D01*
X130886584Y-118923444D01*
X130852558Y-118861132D01*
X130857623Y-118790317D01*
X130900170Y-118733481D01*
X130966690Y-118708670D01*
X131008288Y-118712642D01*
X131216913Y-118768543D01*
X131445000Y-118788498D01*
X131673087Y-118768543D01*
X131678400Y-118767119D01*
X131678402Y-118767119D01*
X131888933Y-118710707D01*
X131888935Y-118710706D01*
X131894243Y-118709284D01*
X131900068Y-118706568D01*
X132096762Y-118614849D01*
X132096767Y-118614846D01*
X132101749Y-118612523D01*
X132206611Y-118539098D01*
X132284789Y-118484357D01*
X132284792Y-118484355D01*
X132289300Y-118481198D01*
X132432593Y-118337905D01*
X132494905Y-118303879D01*
X132521688Y-118301000D01*
X132955669Y-118301000D01*
X133023790Y-118321002D01*
X133044764Y-118337905D01*
X133058595Y-118351736D01*
X133092621Y-118414048D01*
X133095500Y-118440831D01*
X133095500Y-119557666D01*
X133095837Y-119560912D01*
X133095837Y-119560916D01*
X133105686Y-119655833D01*
X133106532Y-119663990D01*
X133162803Y-119832654D01*
X133256366Y-119983850D01*
X133382201Y-120109466D01*
X133533560Y-120202764D01*
X133540508Y-120205069D01*
X133540509Y-120205069D01*
X133695791Y-120256575D01*
X133695793Y-120256576D01*
X133702322Y-120258741D01*
X133807334Y-120269500D01*
X135432666Y-120269500D01*
X135435912Y-120269163D01*
X135435916Y-120269163D01*
X135532132Y-120259180D01*
X135532136Y-120259179D01*
X135538990Y-120258468D01*
X135545526Y-120256287D01*
X135545528Y-120256287D01*
X135696054Y-120206067D01*
X135707654Y-120202197D01*
X135858850Y-120108634D01*
X135984466Y-119982799D01*
X135991430Y-119971502D01*
X136073921Y-119837674D01*
X136077764Y-119831440D01*
X136081187Y-119821121D01*
X136131575Y-119669209D01*
X136131576Y-119669207D01*
X136133741Y-119662678D01*
X136144500Y-119557666D01*
X136144500Y-119529192D01*
X136164502Y-119461071D01*
X136218158Y-119414578D01*
X136288432Y-119404474D01*
X136353012Y-119433968D01*
X136370463Y-119452488D01*
X136483877Y-119600292D01*
X136650036Y-119751485D01*
X136654783Y-119754463D01*
X136654786Y-119754465D01*
X136783229Y-119835036D01*
X136840344Y-119870864D01*
X137048783Y-119954656D01*
X137268767Y-120000213D01*
X137273378Y-120000479D01*
X137273379Y-120000479D01*
X137323952Y-120003395D01*
X137323956Y-120003395D01*
X137325775Y-120003500D01*
X137470999Y-120003500D01*
X137473786Y-120003251D01*
X137473792Y-120003251D01*
X137543929Y-119996991D01*
X137637762Y-119988617D01*
X137643176Y-119987136D01*
X137643181Y-119987135D01*
X137770912Y-119952191D01*
X137854451Y-119929337D01*
X137859509Y-119926925D01*
X137859513Y-119926923D01*
X137977042Y-119870864D01*
X138057218Y-119832622D01*
X138239654Y-119701529D01*
X138375967Y-119560865D01*
X138392089Y-119544229D01*
X138392091Y-119544226D01*
X138395992Y-119540201D01*
X138521290Y-119353738D01*
X138611588Y-119148033D01*
X138649726Y-118989180D01*
X138662722Y-118935046D01*
X138662722Y-118935045D01*
X138664032Y-118929589D01*
X138670386Y-118819390D01*
X138676640Y-118710917D01*
X138676640Y-118710914D01*
X138676963Y-118705310D01*
X138649975Y-118482285D01*
X138583918Y-118267565D01*
X138526600Y-118156512D01*
X138483454Y-118072919D01*
X138483454Y-118072918D01*
X138480882Y-118067936D01*
X138344123Y-117889708D01*
X138177964Y-117738515D01*
X138173217Y-117735537D01*
X138173214Y-117735535D01*
X137992405Y-117622115D01*
X137987656Y-117619136D01*
X137779217Y-117535344D01*
X137559233Y-117489787D01*
X137554622Y-117489521D01*
X137554621Y-117489521D01*
X137504048Y-117486605D01*
X137504044Y-117486605D01*
X137502225Y-117486500D01*
X137357001Y-117486500D01*
X137354214Y-117486749D01*
X137354208Y-117486749D01*
X137284071Y-117493009D01*
X137190238Y-117501383D01*
X137184824Y-117502864D01*
X137184819Y-117502865D01*
X137070262Y-117534205D01*
X136973549Y-117560663D01*
X136968491Y-117563075D01*
X136968487Y-117563077D01*
X136872915Y-117608663D01*
X136770782Y-117657378D01*
X136588346Y-117788471D01*
X136584439Y-117792503D01*
X136445768Y-117935600D01*
X136432008Y-117949799D01*
X136409909Y-117982686D01*
X136375082Y-118034514D01*
X136320486Y-118079899D01*
X136250020Y-118088562D01*
X136186056Y-118057754D01*
X136148903Y-117997255D01*
X136144500Y-117964238D01*
X136144500Y-117932334D01*
X136144163Y-117929084D01*
X136134180Y-117832868D01*
X136134179Y-117832864D01*
X136133468Y-117826010D01*
X136077197Y-117657346D01*
X135983634Y-117506150D01*
X135857799Y-117380534D01*
X135706440Y-117287236D01*
X135688004Y-117281121D01*
X135544209Y-117233425D01*
X135544207Y-117233424D01*
X135537678Y-117231259D01*
X135432666Y-117220500D01*
X134315830Y-117220500D01*
X134247709Y-117200498D01*
X134226735Y-117183595D01*
X133971235Y-116928095D01*
X133937209Y-116865783D01*
X133942274Y-116794968D01*
X133984821Y-116738132D01*
X134051341Y-116713321D01*
X134060330Y-116713000D01*
X138761673Y-116713000D01*
X138781058Y-116714500D01*
X138795859Y-116716805D01*
X138795862Y-116716805D01*
X138804731Y-116718186D01*
X138810852Y-116717385D01*
X138877374Y-116737803D01*
X138923209Y-116792022D01*
X138931777Y-116833865D01*
X138932814Y-116833729D01*
X138936936Y-116865250D01*
X138938000Y-116881588D01*
X138938000Y-151715673D01*
X138936500Y-151735057D01*
X138932814Y-151758731D01*
X138933615Y-151764852D01*
X138913197Y-151831374D01*
X138858978Y-151877209D01*
X138817135Y-151885777D01*
X138817271Y-151886814D01*
X138785750Y-151890936D01*
X138769412Y-151892000D01*
X121334327Y-151892000D01*
X121314942Y-151890500D01*
X121300141Y-151888195D01*
X121300138Y-151888195D01*
X121291269Y-151886814D01*
X121285148Y-151887615D01*
X121218626Y-151867197D01*
X121172791Y-151812978D01*
X121164223Y-151771135D01*
X121163186Y-151771271D01*
X121159064Y-151739750D01*
X121158000Y-151723412D01*
X121158000Y-148722703D01*
X133780743Y-148722703D01*
X133818268Y-149007734D01*
X133894129Y-149285036D01*
X134006923Y-149549476D01*
X134154561Y-149796161D01*
X134334313Y-150020528D01*
X134542851Y-150218423D01*
X134776317Y-150386186D01*
X134780112Y-150388195D01*
X134780113Y-150388196D01*
X134801869Y-150399715D01*
X135030392Y-150520712D01*
X135300373Y-150619511D01*
X135581264Y-150680755D01*
X135609841Y-150683004D01*
X135804282Y-150698307D01*
X135804291Y-150698307D01*
X135806739Y-150698500D01*
X135962271Y-150698500D01*
X135964407Y-150698354D01*
X135964418Y-150698354D01*
X136172548Y-150684165D01*
X136172554Y-150684164D01*
X136176825Y-150683873D01*
X136181020Y-150683004D01*
X136181022Y-150683004D01*
X136317584Y-150654723D01*
X136458342Y-150625574D01*
X136729343Y-150529607D01*
X136984812Y-150397750D01*
X136988313Y-150395289D01*
X136988317Y-150395287D01*
X137102418Y-150315095D01*
X137220023Y-150232441D01*
X137430622Y-150036740D01*
X137612713Y-149814268D01*
X137762927Y-149569142D01*
X137878483Y-149305898D01*
X137957244Y-149029406D01*
X137997751Y-148744784D01*
X137997845Y-148726951D01*
X137999235Y-148461583D01*
X137999235Y-148461576D01*
X137999257Y-148457297D01*
X137961732Y-148172266D01*
X137957875Y-148158165D01*
X137937096Y-148082211D01*
X137885871Y-147894964D01*
X137873502Y-147865965D01*
X137774763Y-147634476D01*
X137774761Y-147634472D01*
X137773077Y-147630524D01*
X137625439Y-147383839D01*
X137445687Y-147159472D01*
X137237149Y-146961577D01*
X137003683Y-146793814D01*
X136981843Y-146782250D01*
X136958654Y-146769972D01*
X136749608Y-146659288D01*
X136479627Y-146560489D01*
X136198736Y-146499245D01*
X136167685Y-146496801D01*
X135975718Y-146481693D01*
X135975709Y-146481693D01*
X135973261Y-146481500D01*
X135817729Y-146481500D01*
X135815593Y-146481646D01*
X135815582Y-146481646D01*
X135607452Y-146495835D01*
X135607446Y-146495836D01*
X135603175Y-146496127D01*
X135598980Y-146496996D01*
X135598978Y-146496996D01*
X135462417Y-146525276D01*
X135321658Y-146554426D01*
X135050657Y-146650393D01*
X134795188Y-146782250D01*
X134791687Y-146784711D01*
X134791683Y-146784713D01*
X134781594Y-146791804D01*
X134559977Y-146947559D01*
X134349378Y-147143260D01*
X134167287Y-147365732D01*
X134017073Y-147610858D01*
X133901517Y-147874102D01*
X133822756Y-148150594D01*
X133782249Y-148435216D01*
X133782227Y-148439505D01*
X133782226Y-148439512D01*
X133780765Y-148718417D01*
X133780743Y-148722703D01*
X121158000Y-148722703D01*
X121158000Y-140388208D01*
X121159746Y-140367304D01*
X121162264Y-140352336D01*
X121163071Y-140347540D01*
X121163224Y-140335001D01*
X121161511Y-140323040D01*
X121160719Y-140316171D01*
X121145414Y-140141243D01*
X121144935Y-140135763D01*
X121093172Y-139942578D01*
X121078102Y-139910260D01*
X121010975Y-139766304D01*
X121010972Y-139766299D01*
X121008649Y-139761317D01*
X120963445Y-139696759D01*
X120897093Y-139601998D01*
X120897091Y-139601995D01*
X120893934Y-139597487D01*
X120752513Y-139456066D01*
X120748005Y-139452909D01*
X120748002Y-139452907D01*
X120593192Y-139344508D01*
X120593190Y-139344507D01*
X120588683Y-139341351D01*
X120583701Y-139339028D01*
X120583696Y-139339025D01*
X120412404Y-139259151D01*
X120412403Y-139259151D01*
X120407422Y-139256828D01*
X120402114Y-139255406D01*
X120402112Y-139255405D01*
X120219552Y-139206489D01*
X120219551Y-139206489D01*
X120214237Y-139205065D01*
X120208751Y-139204585D01*
X120208745Y-139204584D01*
X120054830Y-139191117D01*
X120044920Y-139189853D01*
X120027538Y-139186929D01*
X120021157Y-139186851D01*
X120019858Y-139186835D01*
X120019854Y-139186835D01*
X120014999Y-139186776D01*
X119990714Y-139190254D01*
X119987411Y-139190727D01*
X119969548Y-139192000D01*
X102288208Y-139192000D01*
X102267304Y-139190254D01*
X102259737Y-139188981D01*
X102247540Y-139186929D01*
X102241242Y-139186852D01*
X102239861Y-139186835D01*
X102239857Y-139186835D01*
X102235001Y-139186776D01*
X102223040Y-139188489D01*
X102216171Y-139189281D01*
X102138636Y-139196065D01*
X102035763Y-139205065D01*
X102030449Y-139206489D01*
X102030448Y-139206489D01*
X101847888Y-139255405D01*
X101847886Y-139255406D01*
X101842578Y-139256828D01*
X101837597Y-139259151D01*
X101837596Y-139259151D01*
X101666304Y-139339025D01*
X101666299Y-139339028D01*
X101661317Y-139341351D01*
X101656810Y-139344507D01*
X101656808Y-139344508D01*
X101501998Y-139452907D01*
X101501995Y-139452909D01*
X101497487Y-139456066D01*
X101356066Y-139597487D01*
X101352909Y-139601995D01*
X101352907Y-139601998D01*
X101286555Y-139696759D01*
X101241351Y-139761317D01*
X101239028Y-139766299D01*
X101239025Y-139766304D01*
X101171898Y-139910260D01*
X101156828Y-139942578D01*
X101105065Y-140135763D01*
X101104586Y-140141243D01*
X101104584Y-140141255D01*
X101091117Y-140295170D01*
X101089853Y-140305080D01*
X101086929Y-140322462D01*
X101086776Y-140335001D01*
X101087466Y-140339816D01*
X101090727Y-140362589D01*
X101092000Y-140380452D01*
X101092000Y-151715673D01*
X101090500Y-151735057D01*
X101086814Y-151758731D01*
X101087615Y-151764852D01*
X101067197Y-151831374D01*
X101012978Y-151877209D01*
X100971135Y-151885777D01*
X100971271Y-151886814D01*
X100939750Y-151890936D01*
X100923412Y-151892000D01*
X89838327Y-151892000D01*
X89818942Y-151890500D01*
X89804141Y-151888195D01*
X89804138Y-151888195D01*
X89795269Y-151886814D01*
X89789148Y-151887615D01*
X89722626Y-151867197D01*
X89676791Y-151812978D01*
X89668223Y-151771135D01*
X89667186Y-151771271D01*
X89663064Y-151739750D01*
X89662000Y-151723412D01*
X89662000Y-148722703D01*
X90600743Y-148722703D01*
X90638268Y-149007734D01*
X90714129Y-149285036D01*
X90826923Y-149549476D01*
X90974561Y-149796161D01*
X91154313Y-150020528D01*
X91362851Y-150218423D01*
X91596317Y-150386186D01*
X91600112Y-150388195D01*
X91600113Y-150388196D01*
X91621869Y-150399715D01*
X91850392Y-150520712D01*
X92120373Y-150619511D01*
X92401264Y-150680755D01*
X92429841Y-150683004D01*
X92624282Y-150698307D01*
X92624291Y-150698307D01*
X92626739Y-150698500D01*
X92782271Y-150698500D01*
X92784407Y-150698354D01*
X92784418Y-150698354D01*
X92992548Y-150684165D01*
X92992554Y-150684164D01*
X92996825Y-150683873D01*
X93001020Y-150683004D01*
X93001022Y-150683004D01*
X93137584Y-150654723D01*
X93278342Y-150625574D01*
X93549343Y-150529607D01*
X93804812Y-150397750D01*
X93808313Y-150395289D01*
X93808317Y-150395287D01*
X93922418Y-150315095D01*
X94040023Y-150232441D01*
X94250622Y-150036740D01*
X94432713Y-149814268D01*
X94582927Y-149569142D01*
X94698483Y-149305898D01*
X94777244Y-149029406D01*
X94817751Y-148744784D01*
X94817845Y-148726951D01*
X94819235Y-148461583D01*
X94819235Y-148461576D01*
X94819257Y-148457297D01*
X94781732Y-148172266D01*
X94777875Y-148158165D01*
X94757096Y-148082211D01*
X94705871Y-147894964D01*
X94693502Y-147865965D01*
X94594763Y-147634476D01*
X94594761Y-147634472D01*
X94593077Y-147630524D01*
X94445439Y-147383839D01*
X94265687Y-147159472D01*
X94057149Y-146961577D01*
X93823683Y-146793814D01*
X93801843Y-146782250D01*
X93778654Y-146769972D01*
X93569608Y-146659288D01*
X93299627Y-146560489D01*
X93018736Y-146499245D01*
X92987685Y-146496801D01*
X92795718Y-146481693D01*
X92795709Y-146481693D01*
X92793261Y-146481500D01*
X92637729Y-146481500D01*
X92635593Y-146481646D01*
X92635582Y-146481646D01*
X92427452Y-146495835D01*
X92427446Y-146495836D01*
X92423175Y-146496127D01*
X92418980Y-146496996D01*
X92418978Y-146496996D01*
X92282417Y-146525276D01*
X92141658Y-146554426D01*
X91870657Y-146650393D01*
X91615188Y-146782250D01*
X91611687Y-146784711D01*
X91611683Y-146784713D01*
X91601594Y-146791804D01*
X91379977Y-146947559D01*
X91169378Y-147143260D01*
X90987287Y-147365732D01*
X90837073Y-147610858D01*
X90721517Y-147874102D01*
X90642756Y-148150594D01*
X90602249Y-148435216D01*
X90602227Y-148439505D01*
X90602226Y-148439512D01*
X90600765Y-148718417D01*
X90600743Y-148722703D01*
X89662000Y-148722703D01*
X89662000Y-143470000D01*
X93776835Y-143470000D01*
X93795465Y-143706711D01*
X93796619Y-143711518D01*
X93796620Y-143711524D01*
X93826497Y-143835968D01*
X93850895Y-143937594D01*
X93852788Y-143942165D01*
X93852789Y-143942167D01*
X93938847Y-144149930D01*
X93941760Y-144156963D01*
X93944346Y-144161183D01*
X94063241Y-144355202D01*
X94063245Y-144355208D01*
X94065824Y-144359416D01*
X94220031Y-144539969D01*
X94400584Y-144694176D01*
X94404792Y-144696755D01*
X94404798Y-144696759D01*
X94598817Y-144815654D01*
X94603037Y-144818240D01*
X94607607Y-144820133D01*
X94607611Y-144820135D01*
X94817833Y-144907211D01*
X94822406Y-144909105D01*
X94902609Y-144928360D01*
X95048476Y-144963380D01*
X95048482Y-144963381D01*
X95053289Y-144964535D01*
X95290000Y-144983165D01*
X95526711Y-144964535D01*
X95531518Y-144963381D01*
X95531524Y-144963380D01*
X95677391Y-144928360D01*
X95757594Y-144909105D01*
X95762167Y-144907211D01*
X95972389Y-144820135D01*
X95972393Y-144820133D01*
X95976963Y-144818240D01*
X95981183Y-144815654D01*
X96175202Y-144696759D01*
X96175208Y-144696755D01*
X96179416Y-144694176D01*
X96359969Y-144539969D01*
X96514176Y-144359416D01*
X96516755Y-144355208D01*
X96516759Y-144355202D01*
X96635654Y-144161183D01*
X96638240Y-144156963D01*
X96641154Y-144149930D01*
X96727211Y-143942167D01*
X96727212Y-143942165D01*
X96729105Y-143937594D01*
X96753503Y-143835968D01*
X96783380Y-143711524D01*
X96783381Y-143711518D01*
X96784535Y-143706711D01*
X96803165Y-143470000D01*
X96784535Y-143233289D01*
X96783380Y-143228479D01*
X96782605Y-143223584D01*
X96783955Y-143223370D01*
X96787195Y-143158666D01*
X96817069Y-143111071D01*
X97431071Y-142497069D01*
X97493383Y-142463043D01*
X97543430Y-142463578D01*
X97543584Y-142462605D01*
X97548479Y-142463380D01*
X97553289Y-142464535D01*
X97790000Y-142483165D01*
X98026711Y-142464535D01*
X98031518Y-142463381D01*
X98031524Y-142463380D01*
X98177391Y-142428360D01*
X98257594Y-142409105D01*
X98287246Y-142396823D01*
X98472389Y-142320135D01*
X98472393Y-142320133D01*
X98476963Y-142318240D01*
X98568888Y-142261908D01*
X98675202Y-142196759D01*
X98675208Y-142196755D01*
X98679416Y-142194176D01*
X98859969Y-142039969D01*
X99014176Y-141859416D01*
X99016755Y-141855208D01*
X99016759Y-141855202D01*
X99135654Y-141661183D01*
X99138240Y-141656963D01*
X99141022Y-141650248D01*
X99227211Y-141442167D01*
X99227212Y-141442165D01*
X99229105Y-141437594D01*
X99230261Y-141432780D01*
X99230263Y-141432773D01*
X99253528Y-141335870D01*
X99286951Y-141276190D01*
X103175235Y-137387905D01*
X103237547Y-137353879D01*
X103264330Y-137351000D01*
X104253312Y-137351000D01*
X104321433Y-137371002D01*
X104342407Y-137387905D01*
X104485700Y-137531198D01*
X104490208Y-137534355D01*
X104490211Y-137534357D01*
X104567150Y-137588230D01*
X104673251Y-137662523D01*
X104678233Y-137664846D01*
X104678238Y-137664849D01*
X104875775Y-137756961D01*
X104880757Y-137759284D01*
X104886065Y-137760706D01*
X104886067Y-137760707D01*
X105096598Y-137817119D01*
X105096600Y-137817119D01*
X105101913Y-137818543D01*
X105330000Y-137838498D01*
X105558087Y-137818543D01*
X105563400Y-137817119D01*
X105563402Y-137817119D01*
X105773933Y-137760707D01*
X105773935Y-137760706D01*
X105779243Y-137759284D01*
X105784225Y-137756961D01*
X105981762Y-137664849D01*
X105981767Y-137664846D01*
X105986749Y-137662523D01*
X106092850Y-137588230D01*
X106169789Y-137534357D01*
X106169792Y-137534355D01*
X106174300Y-137531198D01*
X106336198Y-137369300D01*
X106360068Y-137335211D01*
X106424466Y-137243241D01*
X106467523Y-137181749D01*
X106469846Y-137176767D01*
X106469849Y-137176762D01*
X106561961Y-136979225D01*
X106561961Y-136979224D01*
X106564284Y-136974243D01*
X106568949Y-136956835D01*
X106622119Y-136758402D01*
X106622119Y-136758400D01*
X106623543Y-136753087D01*
X106643498Y-136525000D01*
X106623543Y-136296913D01*
X106601729Y-136215502D01*
X106565707Y-136081067D01*
X106565706Y-136081065D01*
X106564284Y-136075757D01*
X106537995Y-136019380D01*
X106469849Y-135873238D01*
X106469846Y-135873233D01*
X106467523Y-135868251D01*
X106336198Y-135680700D01*
X106332301Y-135676803D01*
X106328774Y-135672600D01*
X106329965Y-135671600D01*
X106299388Y-135615604D01*
X106304453Y-135544789D01*
X106333414Y-135499726D01*
X107139789Y-134693351D01*
X107202101Y-134659325D01*
X107239865Y-134656925D01*
X107309524Y-134663019D01*
X107309525Y-134663019D01*
X107315000Y-134663498D01*
X107543087Y-134643543D01*
X107548400Y-134642119D01*
X107548402Y-134642119D01*
X107758933Y-134585707D01*
X107758935Y-134585706D01*
X107764243Y-134584284D01*
X107769225Y-134581961D01*
X107966762Y-134489849D01*
X107966767Y-134489846D01*
X107971749Y-134487523D01*
X108141000Y-134369012D01*
X108154789Y-134359357D01*
X108154792Y-134359355D01*
X108159300Y-134356198D01*
X108302593Y-134212905D01*
X108364905Y-134178879D01*
X108391688Y-134176000D01*
X109413312Y-134176000D01*
X109481433Y-134196002D01*
X109502407Y-134212905D01*
X109645700Y-134356198D01*
X109650208Y-134359355D01*
X109650211Y-134359357D01*
X109664000Y-134369012D01*
X109833251Y-134487523D01*
X109838233Y-134489846D01*
X109838238Y-134489849D01*
X110035775Y-134581961D01*
X110040757Y-134584284D01*
X110046065Y-134585706D01*
X110046067Y-134585707D01*
X110256598Y-134642119D01*
X110256600Y-134642119D01*
X110261913Y-134643543D01*
X110490000Y-134663498D01*
X110718087Y-134643543D01*
X110723400Y-134642119D01*
X110723402Y-134642119D01*
X110933933Y-134585707D01*
X110933935Y-134585706D01*
X110939243Y-134584284D01*
X110944225Y-134581961D01*
X111141762Y-134489849D01*
X111141767Y-134489846D01*
X111146749Y-134487523D01*
X111316000Y-134369012D01*
X111329789Y-134359357D01*
X111329792Y-134359355D01*
X111334300Y-134356198D01*
X111496198Y-134194300D01*
X111507339Y-134178390D01*
X111624366Y-134011257D01*
X111627523Y-134006749D01*
X111629846Y-134001767D01*
X111629849Y-134001762D01*
X111721961Y-133804225D01*
X111721961Y-133804224D01*
X111724284Y-133799243D01*
X111783543Y-133578087D01*
X111803498Y-133350000D01*
X111783543Y-133121913D01*
X111727643Y-132913292D01*
X111725707Y-132906067D01*
X111725706Y-132906065D01*
X111724284Y-132900757D01*
X111721961Y-132895775D01*
X111629849Y-132698238D01*
X111629846Y-132698233D01*
X111627523Y-132693251D01*
X111496198Y-132505700D01*
X111334300Y-132343802D01*
X111329792Y-132340645D01*
X111329789Y-132340643D01*
X111251611Y-132285902D01*
X111146749Y-132212477D01*
X111141767Y-132210154D01*
X111141762Y-132210151D01*
X111107543Y-132194195D01*
X111054258Y-132147278D01*
X111034797Y-132079001D01*
X111055339Y-132011041D01*
X111107543Y-131965805D01*
X111141762Y-131949849D01*
X111141767Y-131949846D01*
X111146749Y-131947523D01*
X111315289Y-131829510D01*
X111329789Y-131819357D01*
X111329792Y-131819355D01*
X111334300Y-131816198D01*
X111496198Y-131654300D01*
X111506407Y-131639721D01*
X111562998Y-131558900D01*
X111627523Y-131466749D01*
X111629846Y-131461767D01*
X111629849Y-131461762D01*
X111721961Y-131264225D01*
X111721961Y-131264224D01*
X111724284Y-131259243D01*
X111726101Y-131252464D01*
X111782119Y-131043402D01*
X111782119Y-131043400D01*
X111783543Y-131038087D01*
X111803498Y-130810000D01*
X116796502Y-130810000D01*
X116816457Y-131038087D01*
X116817881Y-131043400D01*
X116817881Y-131043402D01*
X116873900Y-131252464D01*
X116875716Y-131259243D01*
X116878039Y-131264224D01*
X116878039Y-131264225D01*
X116970151Y-131461762D01*
X116970154Y-131461767D01*
X116972477Y-131466749D01*
X117037002Y-131558900D01*
X117093594Y-131639721D01*
X117103802Y-131654300D01*
X117265700Y-131816198D01*
X117270211Y-131819357D01*
X117274424Y-131822892D01*
X117273473Y-131824026D01*
X117313471Y-131874071D01*
X117320776Y-131944690D01*
X117288742Y-132008049D01*
X117227538Y-132044030D01*
X117210483Y-132047082D01*
X117199684Y-132048255D01*
X117063295Y-132099385D01*
X116946739Y-132186739D01*
X116859385Y-132303295D01*
X116808255Y-132439684D01*
X116801500Y-132501866D01*
X116801500Y-134198134D01*
X116808255Y-134260316D01*
X116859385Y-134396705D01*
X116946739Y-134513261D01*
X117063295Y-134600615D01*
X117199684Y-134651745D01*
X117261866Y-134658500D01*
X118958134Y-134658500D01*
X119020316Y-134651745D01*
X119156705Y-134600615D01*
X119273261Y-134513261D01*
X119360615Y-134396705D01*
X119411745Y-134260316D01*
X119414356Y-134261295D01*
X119442955Y-134211219D01*
X119505905Y-134178390D01*
X119530332Y-134176000D01*
X120208312Y-134176000D01*
X120276433Y-134196002D01*
X120297407Y-134212905D01*
X120422095Y-134337593D01*
X120456121Y-134399905D01*
X120459000Y-134426688D01*
X120459000Y-136163312D01*
X120438998Y-136231433D01*
X120422095Y-136252407D01*
X120358802Y-136315700D01*
X120227477Y-136503251D01*
X120225154Y-136508233D01*
X120225151Y-136508238D01*
X120149843Y-136669739D01*
X120130716Y-136710757D01*
X120129294Y-136716065D01*
X120129293Y-136716067D01*
X120117949Y-136758402D01*
X120071457Y-136931913D01*
X120051502Y-137160000D01*
X120071457Y-137388087D01*
X120072881Y-137393400D01*
X120072881Y-137393402D01*
X120125086Y-137588230D01*
X120130716Y-137609243D01*
X120133039Y-137614224D01*
X120133039Y-137614225D01*
X120225151Y-137811762D01*
X120225154Y-137811767D01*
X120227477Y-137816749D01*
X120242706Y-137838498D01*
X120354274Y-137997833D01*
X120358802Y-138004300D01*
X120520700Y-138166198D01*
X120525208Y-138169355D01*
X120525211Y-138169357D01*
X120539000Y-138179012D01*
X120708251Y-138297523D01*
X120713233Y-138299846D01*
X120713238Y-138299849D01*
X120910775Y-138391961D01*
X120915757Y-138394284D01*
X120921065Y-138395706D01*
X120921067Y-138395707D01*
X121131598Y-138452119D01*
X121131600Y-138452119D01*
X121136913Y-138453543D01*
X121365000Y-138473498D01*
X121370475Y-138473019D01*
X121370476Y-138473019D01*
X121440134Y-138466925D01*
X121509739Y-138480915D01*
X121540210Y-138503351D01*
X122962095Y-139925235D01*
X122996120Y-139987547D01*
X122999000Y-140014330D01*
X122999000Y-142811399D01*
X122978998Y-142879520D01*
X122943230Y-142914531D01*
X122943809Y-142915328D01*
X122939803Y-142918239D01*
X122935584Y-142920824D01*
X122755031Y-143075031D01*
X122600824Y-143255584D01*
X122598245Y-143259792D01*
X122598241Y-143259798D01*
X122479346Y-143453817D01*
X122476760Y-143458037D01*
X122474867Y-143462607D01*
X122474865Y-143462611D01*
X122387789Y-143672833D01*
X122385895Y-143677406D01*
X122384740Y-143682218D01*
X122332795Y-143898584D01*
X122330465Y-143908289D01*
X122311835Y-144145000D01*
X122330465Y-144381711D01*
X122331619Y-144386518D01*
X122331620Y-144386524D01*
X122359807Y-144503929D01*
X122385895Y-144612594D01*
X122387788Y-144617165D01*
X122387789Y-144617167D01*
X122471861Y-144820135D01*
X122476760Y-144831963D01*
X122479346Y-144836183D01*
X122598241Y-145030202D01*
X122598245Y-145030208D01*
X122600824Y-145034416D01*
X122755031Y-145214969D01*
X122935584Y-145369176D01*
X122939792Y-145371755D01*
X122939798Y-145371759D01*
X123015650Y-145418241D01*
X123138037Y-145493240D01*
X123142607Y-145495133D01*
X123142611Y-145495135D01*
X123327754Y-145571823D01*
X123357406Y-145584105D01*
X123437609Y-145603360D01*
X123583476Y-145638380D01*
X123583482Y-145638381D01*
X123588289Y-145639535D01*
X123825000Y-145658165D01*
X124061711Y-145639535D01*
X124066521Y-145638380D01*
X124071416Y-145637605D01*
X124071630Y-145638955D01*
X124136334Y-145642195D01*
X124183929Y-145672069D01*
X124797931Y-146286071D01*
X124831957Y-146348383D01*
X124831422Y-146398430D01*
X124832395Y-146398584D01*
X124831620Y-146403479D01*
X124830465Y-146408289D01*
X124811835Y-146645000D01*
X124830465Y-146881711D01*
X124831619Y-146886518D01*
X124831620Y-146886524D01*
X124846974Y-146950478D01*
X124885895Y-147112594D01*
X124887788Y-147117165D01*
X124887789Y-147117167D01*
X124906697Y-147162814D01*
X124976760Y-147331963D01*
X124979346Y-147336183D01*
X125098241Y-147530202D01*
X125098245Y-147530208D01*
X125100824Y-147534416D01*
X125255031Y-147714969D01*
X125435584Y-147869176D01*
X125439792Y-147871755D01*
X125439798Y-147871759D01*
X125633817Y-147990654D01*
X125638037Y-147993240D01*
X125642607Y-147995133D01*
X125642611Y-147995135D01*
X125852833Y-148082211D01*
X125857406Y-148084105D01*
X125937609Y-148103360D01*
X126083476Y-148138380D01*
X126083482Y-148138381D01*
X126088289Y-148139535D01*
X126325000Y-148158165D01*
X126561711Y-148139535D01*
X126566518Y-148138381D01*
X126566524Y-148138380D01*
X126712391Y-148103360D01*
X126792594Y-148084105D01*
X126797167Y-148082211D01*
X127007389Y-147995135D01*
X127007393Y-147995133D01*
X127011963Y-147993240D01*
X127016183Y-147990654D01*
X127210202Y-147871759D01*
X127210208Y-147871755D01*
X127214416Y-147869176D01*
X127394969Y-147714969D01*
X127549176Y-147534416D01*
X127551755Y-147530208D01*
X127551759Y-147530202D01*
X127670654Y-147336183D01*
X127673240Y-147331963D01*
X127743304Y-147162814D01*
X127762211Y-147117167D01*
X127762212Y-147117165D01*
X127764105Y-147112594D01*
X127803026Y-146950478D01*
X127818380Y-146886524D01*
X127818381Y-146886518D01*
X127819535Y-146881711D01*
X127838165Y-146645000D01*
X127819535Y-146408289D01*
X127817206Y-146398584D01*
X127765260Y-146182218D01*
X127764105Y-146177406D01*
X127673240Y-145958037D01*
X127670654Y-145953817D01*
X127551759Y-145759798D01*
X127551755Y-145759792D01*
X127549176Y-145755584D01*
X127394969Y-145575031D01*
X127214416Y-145420824D01*
X127210208Y-145418245D01*
X127210202Y-145418241D01*
X127016183Y-145299346D01*
X127011963Y-145296760D01*
X127007393Y-145294867D01*
X127007389Y-145294865D01*
X126797167Y-145207789D01*
X126797165Y-145207788D01*
X126792594Y-145205895D01*
X126712391Y-145186640D01*
X126566524Y-145151620D01*
X126566518Y-145151619D01*
X126561711Y-145150465D01*
X126325000Y-145131835D01*
X126088289Y-145150465D01*
X126083479Y-145151620D01*
X126078584Y-145152395D01*
X126078370Y-145151045D01*
X126013666Y-145147805D01*
X125966071Y-145117931D01*
X125352069Y-144503929D01*
X125318043Y-144441617D01*
X125318578Y-144391570D01*
X125317605Y-144391416D01*
X125318380Y-144386521D01*
X125319535Y-144381711D01*
X125338165Y-144145000D01*
X125319535Y-143908289D01*
X125317206Y-143898584D01*
X125265260Y-143682218D01*
X125264105Y-143677406D01*
X125262211Y-143672833D01*
X125175135Y-143462611D01*
X125175133Y-143462607D01*
X125173240Y-143458037D01*
X125170654Y-143453817D01*
X125051759Y-143259798D01*
X125051755Y-143259792D01*
X125049176Y-143255584D01*
X124894969Y-143075031D01*
X124714416Y-142920824D01*
X124710197Y-142918239D01*
X124706191Y-142915328D01*
X124706994Y-142914223D01*
X124663532Y-142866180D01*
X124651000Y-142811399D01*
X124651000Y-139660033D01*
X124651442Y-139649489D01*
X124653604Y-139623742D01*
X124655623Y-139599700D01*
X124645289Y-139522257D01*
X124644924Y-139519236D01*
X124637226Y-139448366D01*
X124637226Y-139448364D01*
X124636489Y-139441583D01*
X124634313Y-139435117D01*
X124633796Y-139432767D01*
X124633699Y-139432218D01*
X124633522Y-139431459D01*
X124633364Y-139430914D01*
X124632789Y-139428574D01*
X124631887Y-139421810D01*
X124629554Y-139415401D01*
X124629553Y-139415396D01*
X124605189Y-139348459D01*
X124604171Y-139345552D01*
X124581424Y-139277959D01*
X124581422Y-139277954D01*
X124579246Y-139271489D01*
X124575729Y-139265636D01*
X124574720Y-139263453D01*
X124574511Y-139262946D01*
X124574167Y-139262226D01*
X124573896Y-139261728D01*
X124572841Y-139259583D01*
X124570505Y-139253165D01*
X124528649Y-139187211D01*
X124527064Y-139184643D01*
X124490328Y-139123504D01*
X124490327Y-139123503D01*
X124486814Y-139117656D01*
X124482126Y-139112699D01*
X124480657Y-139110763D01*
X124480016Y-139109840D01*
X124477108Y-139105995D01*
X124474342Y-139101636D01*
X124470677Y-139097536D01*
X124418755Y-139045614D01*
X124416302Y-139043092D01*
X124368193Y-138992218D01*
X124368191Y-138992216D01*
X124363504Y-138987260D01*
X124357863Y-138983426D01*
X124353011Y-138979297D01*
X124345581Y-138972440D01*
X123535442Y-138162301D01*
X122708351Y-137335211D01*
X122674326Y-137272899D01*
X122671925Y-137235135D01*
X122678019Y-137165476D01*
X122678019Y-137165475D01*
X122678498Y-137160000D01*
X122658543Y-136931913D01*
X122612051Y-136758402D01*
X122600707Y-136716067D01*
X122600706Y-136716065D01*
X122599284Y-136710757D01*
X122580157Y-136669739D01*
X122504849Y-136508238D01*
X122504846Y-136508233D01*
X122502523Y-136503251D01*
X122371198Y-136315700D01*
X122209300Y-136153802D01*
X122164729Y-136122592D01*
X122120401Y-136067136D01*
X122111000Y-136019380D01*
X122111000Y-134426688D01*
X122131002Y-134358567D01*
X122147905Y-134337593D01*
X122291198Y-134194300D01*
X122302339Y-134178390D01*
X122419366Y-134011257D01*
X122422523Y-134006749D01*
X122424846Y-134001767D01*
X122424849Y-134001762D01*
X122516961Y-133804225D01*
X122516961Y-133804224D01*
X122519284Y-133799243D01*
X122578543Y-133578087D01*
X122598498Y-133350000D01*
X122578543Y-133121913D01*
X122522643Y-132913292D01*
X122522643Y-132913291D01*
X122524333Y-132842315D01*
X122564127Y-132783519D01*
X122629391Y-132755571D01*
X122699405Y-132767344D01*
X122733443Y-132791583D01*
X125502095Y-135560235D01*
X125536121Y-135622547D01*
X125539000Y-135649330D01*
X125539000Y-136083312D01*
X125518998Y-136151433D01*
X125502095Y-136172407D01*
X125358802Y-136315700D01*
X125227477Y-136503251D01*
X125225154Y-136508233D01*
X125225151Y-136508238D01*
X125149843Y-136669739D01*
X125130716Y-136710757D01*
X125129294Y-136716065D01*
X125129293Y-136716067D01*
X125117949Y-136758402D01*
X125071457Y-136931913D01*
X125051502Y-137160000D01*
X125071457Y-137388087D01*
X125072881Y-137393400D01*
X125072881Y-137393402D01*
X125125086Y-137588230D01*
X125130716Y-137609243D01*
X125133039Y-137614224D01*
X125133039Y-137614225D01*
X125225151Y-137811762D01*
X125225154Y-137811767D01*
X125227477Y-137816749D01*
X125242706Y-137838498D01*
X125354274Y-137997833D01*
X125358802Y-138004300D01*
X125502095Y-138147593D01*
X125536121Y-138209905D01*
X125539000Y-138236688D01*
X125539000Y-141644967D01*
X125538558Y-141655511D01*
X125534377Y-141705300D01*
X125535279Y-141712060D01*
X125544706Y-141782704D01*
X125545076Y-141785764D01*
X125552619Y-141855202D01*
X125553511Y-141863417D01*
X125555687Y-141869883D01*
X125556204Y-141872233D01*
X125556301Y-141872783D01*
X125556480Y-141873550D01*
X125556635Y-141874085D01*
X125557211Y-141876432D01*
X125558113Y-141883190D01*
X125560445Y-141889596D01*
X125584810Y-141956540D01*
X125585826Y-141959443D01*
X125608575Y-142027039D01*
X125608578Y-142027046D01*
X125610754Y-142033511D01*
X125614269Y-142039360D01*
X125615282Y-142041553D01*
X125615494Y-142042068D01*
X125615827Y-142042766D01*
X125616100Y-142043267D01*
X125617160Y-142045421D01*
X125619494Y-142051834D01*
X125661342Y-142117775D01*
X125662956Y-142120390D01*
X125703186Y-142187344D01*
X125707867Y-142192295D01*
X125709337Y-142194231D01*
X125709985Y-142195162D01*
X125712885Y-142198996D01*
X125715657Y-142203364D01*
X125719323Y-142207464D01*
X125771245Y-142259386D01*
X125773698Y-142261907D01*
X125826496Y-142317740D01*
X125832137Y-142321574D01*
X125836989Y-142325703D01*
X125844419Y-142332560D01*
X126590647Y-143078787D01*
X127297931Y-143786071D01*
X127331956Y-143848383D01*
X127331422Y-143898430D01*
X127332395Y-143898584D01*
X127331620Y-143903479D01*
X127330465Y-143908289D01*
X127311835Y-144145000D01*
X127330465Y-144381711D01*
X127331619Y-144386518D01*
X127331620Y-144386524D01*
X127359807Y-144503929D01*
X127385895Y-144612594D01*
X127387788Y-144617165D01*
X127387789Y-144617167D01*
X127471861Y-144820135D01*
X127476760Y-144831963D01*
X127479346Y-144836183D01*
X127598241Y-145030202D01*
X127598245Y-145030208D01*
X127600824Y-145034416D01*
X127755031Y-145214969D01*
X127935584Y-145369176D01*
X127939792Y-145371755D01*
X127939798Y-145371759D01*
X128015650Y-145418241D01*
X128138037Y-145493240D01*
X128142607Y-145495133D01*
X128142611Y-145495135D01*
X128327754Y-145571823D01*
X128357406Y-145584105D01*
X128437609Y-145603360D01*
X128583476Y-145638380D01*
X128583482Y-145638381D01*
X128588289Y-145639535D01*
X128825000Y-145658165D01*
X129061711Y-145639535D01*
X129066518Y-145638381D01*
X129066524Y-145638380D01*
X129212391Y-145603360D01*
X129292594Y-145584105D01*
X129322246Y-145571823D01*
X129507389Y-145495135D01*
X129507393Y-145495133D01*
X129511963Y-145493240D01*
X129634350Y-145418241D01*
X129710202Y-145371759D01*
X129710208Y-145371755D01*
X129714416Y-145369176D01*
X129894969Y-145214969D01*
X130049176Y-145034416D01*
X130051755Y-145030208D01*
X130051759Y-145030202D01*
X130170654Y-144836183D01*
X130173240Y-144831963D01*
X130178140Y-144820135D01*
X130262211Y-144617167D01*
X130262212Y-144617165D01*
X130264105Y-144612594D01*
X130290193Y-144503929D01*
X130318380Y-144386524D01*
X130318381Y-144386518D01*
X130319535Y-144381711D01*
X130338165Y-144145000D01*
X130319535Y-143908289D01*
X130317206Y-143898584D01*
X130265260Y-143682218D01*
X130264105Y-143677406D01*
X130262211Y-143672833D01*
X130175135Y-143462611D01*
X130175133Y-143462607D01*
X130173240Y-143458037D01*
X130170654Y-143453817D01*
X130051759Y-143259798D01*
X130051755Y-143259792D01*
X130049176Y-143255584D01*
X129894969Y-143075031D01*
X129714416Y-142920824D01*
X129710208Y-142918245D01*
X129710202Y-142918241D01*
X129516183Y-142799346D01*
X129511963Y-142796760D01*
X129507393Y-142794867D01*
X129507389Y-142794865D01*
X129297167Y-142707789D01*
X129297165Y-142707788D01*
X129292594Y-142705895D01*
X129212391Y-142686640D01*
X129066524Y-142651620D01*
X129066518Y-142651619D01*
X129061711Y-142650465D01*
X128825000Y-142631835D01*
X128588289Y-142650465D01*
X128583479Y-142651620D01*
X128578584Y-142652395D01*
X128578370Y-142651045D01*
X128513666Y-142647805D01*
X128466071Y-142617931D01*
X127227905Y-141379765D01*
X127193879Y-141317453D01*
X127191000Y-141290670D01*
X127191000Y-138236688D01*
X127211002Y-138168567D01*
X127227905Y-138147593D01*
X127371198Y-138004300D01*
X127375727Y-137997833D01*
X127487294Y-137838498D01*
X127502523Y-137816749D01*
X127504846Y-137811767D01*
X127504849Y-137811762D01*
X127596961Y-137614225D01*
X127596961Y-137614224D01*
X127599284Y-137609243D01*
X127604915Y-137588230D01*
X127657119Y-137393402D01*
X127657119Y-137393400D01*
X127658543Y-137388087D01*
X127678498Y-137160000D01*
X127658543Y-136931913D01*
X127612051Y-136758402D01*
X127600707Y-136716067D01*
X127600706Y-136716065D01*
X127599284Y-136710757D01*
X127580157Y-136669739D01*
X127504849Y-136508238D01*
X127504846Y-136508233D01*
X127502523Y-136503251D01*
X127371198Y-136315700D01*
X127227905Y-136172407D01*
X127193879Y-136110095D01*
X127191000Y-136083312D01*
X127191000Y-135295033D01*
X127191442Y-135284489D01*
X127192239Y-135275000D01*
X127195623Y-135234700D01*
X127185289Y-135157257D01*
X127184924Y-135154236D01*
X127177226Y-135083366D01*
X127177226Y-135083364D01*
X127176489Y-135076583D01*
X127174313Y-135070117D01*
X127173796Y-135067767D01*
X127173699Y-135067217D01*
X127173520Y-135066450D01*
X127173365Y-135065915D01*
X127172789Y-135063568D01*
X127171887Y-135056810D01*
X127145189Y-134983458D01*
X127144174Y-134980557D01*
X127121425Y-134912961D01*
X127121422Y-134912954D01*
X127119246Y-134906489D01*
X127115731Y-134900640D01*
X127114718Y-134898447D01*
X127114506Y-134897932D01*
X127114173Y-134897234D01*
X127113900Y-134896733D01*
X127112840Y-134894579D01*
X127110506Y-134888166D01*
X127068641Y-134822198D01*
X127067041Y-134819606D01*
X127030324Y-134758498D01*
X127026814Y-134752656D01*
X127022133Y-134747705D01*
X127020663Y-134745769D01*
X127020016Y-134744838D01*
X127017113Y-134741000D01*
X127014343Y-134736636D01*
X127010677Y-134732537D01*
X126958772Y-134680632D01*
X126956319Y-134678110D01*
X126908198Y-134627223D01*
X126908194Y-134627220D01*
X126903504Y-134622260D01*
X126897857Y-134618422D01*
X126893005Y-134614293D01*
X126885575Y-134607435D01*
X122628351Y-130350211D01*
X122594325Y-130287899D01*
X122591925Y-130250135D01*
X122598019Y-130180476D01*
X122598019Y-130180475D01*
X122598498Y-130175000D01*
X122578543Y-129946913D01*
X122577119Y-129941598D01*
X122520707Y-129731067D01*
X122520706Y-129731064D01*
X122519284Y-129725757D01*
X122503814Y-129692581D01*
X122424849Y-129523238D01*
X122424846Y-129523233D01*
X122422523Y-129518251D01*
X122322757Y-129375771D01*
X122294357Y-129335211D01*
X122294355Y-129335208D01*
X122291198Y-129330700D01*
X122129300Y-129168802D01*
X122124792Y-129165645D01*
X122124789Y-129165643D01*
X121962654Y-129052115D01*
X121941749Y-129037477D01*
X121936767Y-129035154D01*
X121936762Y-129035151D01*
X121739225Y-128943039D01*
X121739224Y-128943039D01*
X121734243Y-128940716D01*
X121728935Y-128939294D01*
X121728933Y-128939293D01*
X121518402Y-128882881D01*
X121518400Y-128882881D01*
X121513087Y-128881457D01*
X121285000Y-128861502D01*
X121056913Y-128881457D01*
X121051600Y-128882881D01*
X121051598Y-128882881D01*
X120841067Y-128939293D01*
X120841065Y-128939294D01*
X120835757Y-128940716D01*
X120830776Y-128943039D01*
X120830775Y-128943039D01*
X120633238Y-129035151D01*
X120633233Y-129035154D01*
X120628251Y-129037477D01*
X120607346Y-129052115D01*
X120445211Y-129165643D01*
X120445208Y-129165645D01*
X120440700Y-129168802D01*
X120278802Y-129330700D01*
X120275645Y-129335208D01*
X120275643Y-129335211D01*
X120247243Y-129375771D01*
X120147477Y-129518251D01*
X120145154Y-129523233D01*
X120145151Y-129523238D01*
X120066186Y-129692581D01*
X120050716Y-129725757D01*
X120010026Y-129877615D01*
X120006543Y-129890612D01*
X119969591Y-129951234D01*
X119905730Y-129982256D01*
X119884836Y-129984000D01*
X119186688Y-129984000D01*
X119118567Y-129963998D01*
X119097593Y-129947095D01*
X118954300Y-129803802D01*
X118949792Y-129800645D01*
X118949789Y-129800643D01*
X118850420Y-129731064D01*
X118766749Y-129672477D01*
X118761767Y-129670154D01*
X118761762Y-129670151D01*
X118726951Y-129653919D01*
X118673666Y-129607002D01*
X118654205Y-129538725D01*
X118674747Y-129470765D01*
X118726951Y-129425529D01*
X118761511Y-129409414D01*
X118771007Y-129403931D01*
X118949467Y-129278972D01*
X118957875Y-129271916D01*
X119111916Y-129117875D01*
X119118972Y-129109467D01*
X119243931Y-128931007D01*
X119249414Y-128921511D01*
X119341490Y-128724053D01*
X119345236Y-128713761D01*
X119391394Y-128541497D01*
X119391058Y-128527401D01*
X119383116Y-128524000D01*
X116842033Y-128524000D01*
X116828502Y-128527973D01*
X116827273Y-128536522D01*
X116874764Y-128713761D01*
X116878510Y-128724053D01*
X116970586Y-128921511D01*
X116976069Y-128931007D01*
X117101028Y-129109467D01*
X117108084Y-129117875D01*
X117262125Y-129271916D01*
X117270533Y-129278972D01*
X117448993Y-129403931D01*
X117458489Y-129409414D01*
X117493049Y-129425529D01*
X117546334Y-129472446D01*
X117565795Y-129540723D01*
X117545253Y-129608683D01*
X117493049Y-129653919D01*
X117458238Y-129670151D01*
X117458233Y-129670154D01*
X117453251Y-129672477D01*
X117369580Y-129731064D01*
X117270211Y-129800643D01*
X117270208Y-129800645D01*
X117265700Y-129803802D01*
X117103802Y-129965700D01*
X117100645Y-129970208D01*
X117100643Y-129970211D01*
X117096211Y-129976541D01*
X116972477Y-130153251D01*
X116970154Y-130158233D01*
X116970151Y-130158238D01*
X116900007Y-130308664D01*
X116875716Y-130360757D01*
X116874294Y-130366065D01*
X116874293Y-130366067D01*
X116862950Y-130408399D01*
X116816457Y-130581913D01*
X116796502Y-130810000D01*
X111803498Y-130810000D01*
X111783543Y-130581913D01*
X111737050Y-130408399D01*
X111725707Y-130366067D01*
X111725706Y-130366065D01*
X111724284Y-130360757D01*
X111699993Y-130308664D01*
X111629849Y-130158238D01*
X111629846Y-130158233D01*
X111627523Y-130153251D01*
X111503789Y-129976541D01*
X111499357Y-129970211D01*
X111499355Y-129970208D01*
X111496198Y-129965700D01*
X111334300Y-129803802D01*
X111329792Y-129800645D01*
X111329789Y-129800643D01*
X111230420Y-129731064D01*
X111146749Y-129672477D01*
X111141767Y-129670154D01*
X111141762Y-129670151D01*
X111106951Y-129653919D01*
X111053666Y-129607002D01*
X111034205Y-129538725D01*
X111054747Y-129470765D01*
X111106951Y-129425529D01*
X111141511Y-129409414D01*
X111151007Y-129403931D01*
X111329467Y-129278972D01*
X111337875Y-129271916D01*
X111491916Y-129117875D01*
X111498972Y-129109467D01*
X111623931Y-128931007D01*
X111629414Y-128921511D01*
X111721490Y-128724053D01*
X111725236Y-128713761D01*
X111771394Y-128541497D01*
X111771058Y-128527401D01*
X111763116Y-128524000D01*
X109222033Y-128524000D01*
X109208502Y-128527973D01*
X109207273Y-128536522D01*
X109254764Y-128713761D01*
X109258510Y-128724053D01*
X109350586Y-128921511D01*
X109356069Y-128931007D01*
X109481028Y-129109467D01*
X109488084Y-129117875D01*
X109642125Y-129271916D01*
X109650533Y-129278972D01*
X109828993Y-129403931D01*
X109838489Y-129409414D01*
X109873049Y-129425529D01*
X109926334Y-129472446D01*
X109945795Y-129540723D01*
X109925253Y-129608683D01*
X109873049Y-129653919D01*
X109838238Y-129670151D01*
X109838233Y-129670154D01*
X109833251Y-129672477D01*
X109749580Y-129731064D01*
X109650211Y-129800643D01*
X109650208Y-129800645D01*
X109645700Y-129803802D01*
X109502407Y-129947095D01*
X109440095Y-129981121D01*
X109413312Y-129984000D01*
X108715164Y-129984000D01*
X108647043Y-129963998D01*
X108600550Y-129910342D01*
X108593457Y-129890612D01*
X108589975Y-129877615D01*
X108549284Y-129725757D01*
X108533814Y-129692581D01*
X108454849Y-129523238D01*
X108454846Y-129523233D01*
X108452523Y-129518251D01*
X108352757Y-129375771D01*
X108324357Y-129335211D01*
X108324355Y-129335208D01*
X108321198Y-129330700D01*
X108159300Y-129168802D01*
X108154792Y-129165645D01*
X108154789Y-129165643D01*
X107992654Y-129052115D01*
X107971749Y-129037477D01*
X107966767Y-129035154D01*
X107966762Y-129035151D01*
X107769225Y-128943039D01*
X107769224Y-128943039D01*
X107764243Y-128940716D01*
X107758935Y-128939294D01*
X107758933Y-128939293D01*
X107548402Y-128882881D01*
X107548400Y-128882881D01*
X107543087Y-128881457D01*
X107315000Y-128861502D01*
X107086913Y-128881457D01*
X107081600Y-128882881D01*
X107081598Y-128882881D01*
X106871067Y-128939293D01*
X106871065Y-128939294D01*
X106865757Y-128940716D01*
X106860776Y-128943039D01*
X106860775Y-128943039D01*
X106663238Y-129035151D01*
X106663233Y-129035154D01*
X106658251Y-129037477D01*
X106637346Y-129052115D01*
X106475211Y-129165643D01*
X106475208Y-129165645D01*
X106470700Y-129168802D01*
X106308802Y-129330700D01*
X106305645Y-129335208D01*
X106305643Y-129335211D01*
X106277243Y-129375771D01*
X106177477Y-129518251D01*
X106175154Y-129523233D01*
X106175151Y-129523238D01*
X106096186Y-129692581D01*
X106080716Y-129725757D01*
X106079294Y-129731064D01*
X106079293Y-129731067D01*
X106022881Y-129941598D01*
X106021457Y-129946913D01*
X106001502Y-130175000D01*
X106001981Y-130180475D01*
X106001981Y-130180476D01*
X106008075Y-130250134D01*
X105994085Y-130319739D01*
X105971649Y-130350210D01*
X101013422Y-135308438D01*
X100951110Y-135342464D01*
X100880295Y-135337399D01*
X100871078Y-135333538D01*
X100784230Y-135293041D01*
X100784225Y-135293039D01*
X100779243Y-135290716D01*
X100773935Y-135289294D01*
X100773933Y-135289293D01*
X100563402Y-135232881D01*
X100563400Y-135232881D01*
X100558087Y-135231457D01*
X100330000Y-135211502D01*
X100101913Y-135231457D01*
X100096600Y-135232881D01*
X100096598Y-135232881D01*
X99886067Y-135289293D01*
X99886065Y-135289294D01*
X99880757Y-135290716D01*
X99875776Y-135293039D01*
X99875775Y-135293039D01*
X99678238Y-135385151D01*
X99678233Y-135385154D01*
X99673251Y-135387477D01*
X99586370Y-135448312D01*
X99490211Y-135515643D01*
X99490208Y-135515645D01*
X99485700Y-135518802D01*
X99323802Y-135680700D01*
X99192477Y-135868251D01*
X99190154Y-135873233D01*
X99190151Y-135873238D01*
X99122005Y-136019380D01*
X99095716Y-136075757D01*
X99094294Y-136081065D01*
X99094293Y-136081067D01*
X99058271Y-136215502D01*
X99036457Y-136296913D01*
X99016502Y-136525000D01*
X99016981Y-136530475D01*
X99016981Y-136530476D01*
X99023075Y-136600134D01*
X99009085Y-136669739D01*
X98986653Y-136700206D01*
X98079764Y-137607096D01*
X98017453Y-137641120D01*
X97990670Y-137644000D01*
X96623601Y-137644000D01*
X96555480Y-137623998D01*
X96520469Y-137588230D01*
X96519672Y-137588809D01*
X96516758Y-137584798D01*
X96514176Y-137580584D01*
X96359969Y-137400031D01*
X96352208Y-137393402D01*
X96302561Y-137351000D01*
X96179416Y-137245824D01*
X96175208Y-137243245D01*
X96175202Y-137243241D01*
X95981183Y-137124346D01*
X95976963Y-137121760D01*
X95972393Y-137119867D01*
X95972389Y-137119865D01*
X95762167Y-137032789D01*
X95762165Y-137032788D01*
X95757594Y-137030895D01*
X95677391Y-137011640D01*
X95531524Y-136976620D01*
X95531518Y-136976619D01*
X95526711Y-136975465D01*
X95290000Y-136956835D01*
X95053289Y-136975465D01*
X95048482Y-136976619D01*
X95048476Y-136976620D01*
X94902609Y-137011640D01*
X94822406Y-137030895D01*
X94817835Y-137032788D01*
X94817833Y-137032789D01*
X94607611Y-137119865D01*
X94607607Y-137119867D01*
X94603037Y-137121760D01*
X94598817Y-137124346D01*
X94404798Y-137243241D01*
X94404792Y-137243245D01*
X94400584Y-137245824D01*
X94277439Y-137351000D01*
X94227793Y-137393402D01*
X94220031Y-137400031D01*
X94065824Y-137580584D01*
X94063245Y-137584792D01*
X94063241Y-137584798D01*
X94028727Y-137641120D01*
X93941760Y-137783037D01*
X93939867Y-137787607D01*
X93939865Y-137787611D01*
X93923631Y-137826804D01*
X93850895Y-138002406D01*
X93849740Y-138007218D01*
X93808496Y-138179012D01*
X93795465Y-138233289D01*
X93776835Y-138470000D01*
X93795465Y-138706711D01*
X93850895Y-138937594D01*
X93852788Y-138942165D01*
X93852789Y-138942167D01*
X93925479Y-139117656D01*
X93941760Y-139156963D01*
X93944346Y-139161183D01*
X94063241Y-139355202D01*
X94063245Y-139355208D01*
X94065824Y-139359416D01*
X94220031Y-139539969D01*
X94400584Y-139694176D01*
X94404792Y-139696755D01*
X94404798Y-139696759D01*
X94598817Y-139815654D01*
X94603037Y-139818240D01*
X94607607Y-139820133D01*
X94607611Y-139820135D01*
X94792754Y-139896823D01*
X94822406Y-139909105D01*
X94902609Y-139928360D01*
X95048476Y-139963380D01*
X95048482Y-139963381D01*
X95053289Y-139964535D01*
X95290000Y-139983165D01*
X95526711Y-139964535D01*
X95531518Y-139963381D01*
X95531524Y-139963380D01*
X95677391Y-139928360D01*
X95757594Y-139909105D01*
X95787246Y-139896823D01*
X95972389Y-139820135D01*
X95972393Y-139820133D01*
X95976963Y-139818240D01*
X95981183Y-139815654D01*
X96175202Y-139696759D01*
X96175208Y-139696755D01*
X96179416Y-139694176D01*
X96359969Y-139539969D01*
X96438206Y-139448366D01*
X96510963Y-139363178D01*
X96514176Y-139359416D01*
X96516761Y-139355197D01*
X96519672Y-139351191D01*
X96520777Y-139351994D01*
X96568820Y-139308532D01*
X96623601Y-139296000D01*
X97256047Y-139296000D01*
X97324168Y-139316002D01*
X97370661Y-139369658D01*
X97380765Y-139439932D01*
X97351271Y-139504512D01*
X97304265Y-139538409D01*
X97107611Y-139619865D01*
X97107607Y-139619867D01*
X97103037Y-139621760D01*
X97098817Y-139624346D01*
X96904798Y-139743241D01*
X96904792Y-139743245D01*
X96900584Y-139745824D01*
X96720031Y-139900031D01*
X96565824Y-140080584D01*
X96563245Y-140084792D01*
X96563241Y-140084798D01*
X96444346Y-140278817D01*
X96441760Y-140283037D01*
X96439867Y-140287607D01*
X96439865Y-140287611D01*
X96398197Y-140388208D01*
X96350895Y-140502406D01*
X96295465Y-140733289D01*
X96276835Y-140970000D01*
X96295465Y-141206711D01*
X96296620Y-141211521D01*
X96297395Y-141216416D01*
X96296045Y-141216630D01*
X96292805Y-141281334D01*
X96262931Y-141328929D01*
X95648929Y-141942931D01*
X95586617Y-141976957D01*
X95536570Y-141976422D01*
X95536416Y-141977395D01*
X95531521Y-141976620D01*
X95526711Y-141975465D01*
X95290000Y-141956835D01*
X95053289Y-141975465D01*
X95048482Y-141976619D01*
X95048476Y-141976620D01*
X94902609Y-142011640D01*
X94822406Y-142030895D01*
X94817835Y-142032788D01*
X94817833Y-142032789D01*
X94607611Y-142119865D01*
X94607607Y-142119867D01*
X94603037Y-142121760D01*
X94598817Y-142124346D01*
X94404798Y-142243241D01*
X94404792Y-142243245D01*
X94400584Y-142245824D01*
X94220031Y-142400031D01*
X94065824Y-142580584D01*
X94063245Y-142584792D01*
X94063241Y-142584798D01*
X93989033Y-142705895D01*
X93941760Y-142783037D01*
X93939867Y-142787607D01*
X93939865Y-142787611D01*
X93885757Y-142918241D01*
X93850895Y-143002406D01*
X93833459Y-143075031D01*
X93797795Y-143223584D01*
X93795465Y-143233289D01*
X93776835Y-143470000D01*
X89662000Y-143470000D01*
X89662000Y-130214690D01*
X89923037Y-130214690D01*
X89950025Y-130437715D01*
X90016082Y-130652435D01*
X90018652Y-130657415D01*
X90018654Y-130657419D01*
X90083852Y-130783738D01*
X90119118Y-130852064D01*
X90255877Y-131030292D01*
X90422036Y-131181485D01*
X90426783Y-131184463D01*
X90426786Y-131184465D01*
X90553936Y-131264225D01*
X90612344Y-131300864D01*
X90820783Y-131384656D01*
X91040767Y-131430213D01*
X91045378Y-131430479D01*
X91045379Y-131430479D01*
X91095952Y-131433395D01*
X91095956Y-131433395D01*
X91097775Y-131433500D01*
X91242999Y-131433500D01*
X91245786Y-131433251D01*
X91245792Y-131433251D01*
X91315929Y-131426991D01*
X91409762Y-131418617D01*
X91415176Y-131417136D01*
X91415181Y-131417135D01*
X91542912Y-131382191D01*
X91626451Y-131359337D01*
X91631509Y-131356925D01*
X91631513Y-131356923D01*
X91739033Y-131305638D01*
X91829218Y-131262622D01*
X92011654Y-131131529D01*
X92097055Y-131043402D01*
X92164089Y-130974229D01*
X92164091Y-130974226D01*
X92167992Y-130970201D01*
X92224918Y-130885486D01*
X92279514Y-130840101D01*
X92349980Y-130831438D01*
X92413944Y-130862246D01*
X92451097Y-130922745D01*
X92455500Y-130955762D01*
X92455500Y-130987666D01*
X92455837Y-130990912D01*
X92455837Y-130990916D01*
X92465814Y-131087068D01*
X92466532Y-131093990D01*
X92468713Y-131100526D01*
X92468713Y-131100528D01*
X92489913Y-131164071D01*
X92522803Y-131262654D01*
X92616366Y-131413850D01*
X92742201Y-131539466D01*
X92748431Y-131543306D01*
X92748432Y-131543307D01*
X92765280Y-131553692D01*
X92893560Y-131632764D01*
X92900508Y-131635069D01*
X92900509Y-131635069D01*
X93055791Y-131686575D01*
X93055793Y-131686576D01*
X93062322Y-131688741D01*
X93167334Y-131699500D01*
X94792666Y-131699500D01*
X94795912Y-131699163D01*
X94795916Y-131699163D01*
X94892132Y-131689180D01*
X94892136Y-131689179D01*
X94898990Y-131688468D01*
X94905526Y-131686287D01*
X94905528Y-131686287D01*
X95057175Y-131635693D01*
X95067654Y-131632197D01*
X95218850Y-131538634D01*
X95344466Y-131412799D01*
X95361814Y-131384656D01*
X95379341Y-131356221D01*
X95437764Y-131261440D01*
X95493741Y-131092678D01*
X95495290Y-131093192D01*
X95525115Y-131038175D01*
X95587324Y-131003961D01*
X95614480Y-131001000D01*
X96078312Y-131001000D01*
X96146433Y-131021002D01*
X96167407Y-131037905D01*
X96310700Y-131181198D01*
X96315208Y-131184355D01*
X96315211Y-131184357D01*
X96375401Y-131226502D01*
X96498251Y-131312523D01*
X96503233Y-131314846D01*
X96503238Y-131314849D01*
X96655384Y-131385795D01*
X96705757Y-131409284D01*
X96711065Y-131410706D01*
X96711067Y-131410707D01*
X96921598Y-131467119D01*
X96921600Y-131467119D01*
X96926913Y-131468543D01*
X97155000Y-131488498D01*
X97383087Y-131468543D01*
X97591711Y-131412642D01*
X97662686Y-131414332D01*
X97721482Y-131454126D01*
X97749430Y-131519390D01*
X97737657Y-131589404D01*
X97713416Y-131623444D01*
X97330211Y-132006649D01*
X97267899Y-132040675D01*
X97230135Y-132043075D01*
X97160476Y-132036981D01*
X97160475Y-132036981D01*
X97155000Y-132036502D01*
X96926913Y-132056457D01*
X96921600Y-132057881D01*
X96921598Y-132057881D01*
X96711067Y-132114293D01*
X96711065Y-132114294D01*
X96705757Y-132115716D01*
X96700776Y-132118039D01*
X96700775Y-132118039D01*
X96503238Y-132210151D01*
X96503233Y-132210154D01*
X96498251Y-132212477D01*
X96393389Y-132285902D01*
X96315211Y-132340643D01*
X96315208Y-132340645D01*
X96310700Y-132343802D01*
X96148802Y-132505700D01*
X96017477Y-132693251D01*
X96015154Y-132698233D01*
X96015151Y-132698238D01*
X95923039Y-132895775D01*
X95920716Y-132900757D01*
X95919294Y-132906065D01*
X95919293Y-132906067D01*
X95917357Y-132913292D01*
X95861457Y-133121913D01*
X95841502Y-133350000D01*
X95861457Y-133578087D01*
X95920716Y-133799243D01*
X95923039Y-133804224D01*
X95923039Y-133804225D01*
X96015151Y-134001762D01*
X96015154Y-134001767D01*
X96017477Y-134006749D01*
X96020634Y-134011257D01*
X96137662Y-134178390D01*
X96148802Y-134194300D01*
X96310700Y-134356198D01*
X96315208Y-134359355D01*
X96315211Y-134359357D01*
X96329000Y-134369012D01*
X96498251Y-134487523D01*
X96503233Y-134489846D01*
X96503238Y-134489849D01*
X96700775Y-134581961D01*
X96705757Y-134584284D01*
X96711065Y-134585706D01*
X96711067Y-134585707D01*
X96921598Y-134642119D01*
X96921600Y-134642119D01*
X96926913Y-134643543D01*
X97155000Y-134663498D01*
X97383087Y-134643543D01*
X97388400Y-134642119D01*
X97388402Y-134642119D01*
X97598933Y-134585707D01*
X97598935Y-134585706D01*
X97604243Y-134584284D01*
X97609225Y-134581961D01*
X97806762Y-134489849D01*
X97806767Y-134489846D01*
X97811749Y-134487523D01*
X97981000Y-134369012D01*
X97994789Y-134359357D01*
X97994792Y-134359355D01*
X97999300Y-134356198D01*
X98161198Y-134194300D01*
X98172339Y-134178390D01*
X98289366Y-134011257D01*
X98292523Y-134006749D01*
X98294846Y-134001767D01*
X98294849Y-134001762D01*
X98386961Y-133804225D01*
X98386961Y-133804224D01*
X98389284Y-133799243D01*
X98448543Y-133578087D01*
X98468498Y-133350000D01*
X98461925Y-133274865D01*
X98475915Y-133205261D01*
X98498351Y-133174790D01*
X101275756Y-130397384D01*
X101283523Y-130390241D01*
X101313337Y-130365046D01*
X101321694Y-130357984D01*
X101327638Y-130350210D01*
X101369131Y-130295940D01*
X101371030Y-130293517D01*
X101415693Y-130237968D01*
X101415694Y-130237966D01*
X101419970Y-130232648D01*
X101423007Y-130226530D01*
X101424296Y-130224514D01*
X101424624Y-130224045D01*
X101425031Y-130223392D01*
X101425303Y-130222897D01*
X101426550Y-130220838D01*
X101430698Y-130215413D01*
X101463701Y-130144638D01*
X101465035Y-130141866D01*
X101496733Y-130078010D01*
X101499768Y-130071897D01*
X101501420Y-130065272D01*
X101502254Y-130063005D01*
X101502473Y-130062480D01*
X101502722Y-130061776D01*
X101502884Y-130061226D01*
X101503662Y-130058942D01*
X101506544Y-130052760D01*
X101508032Y-130046102D01*
X101508035Y-130046094D01*
X101523582Y-129976541D01*
X101524290Y-129973545D01*
X101541534Y-129904384D01*
X101541534Y-129904381D01*
X101543185Y-129897761D01*
X101543376Y-129890940D01*
X101543704Y-129888543D01*
X101543905Y-129887429D01*
X101544567Y-129882655D01*
X101545694Y-129877615D01*
X101546001Y-129872124D01*
X101546001Y-129798710D01*
X101546050Y-129795192D01*
X101548005Y-129725185D01*
X101548196Y-129718364D01*
X101546917Y-129711657D01*
X101546407Y-129705322D01*
X101546001Y-129695215D01*
X101546001Y-128282409D01*
X101566003Y-128214288D01*
X101619659Y-128167795D01*
X101689933Y-128157691D01*
X101725251Y-128168214D01*
X101860947Y-128231490D01*
X101871239Y-128235236D01*
X102081688Y-128291625D01*
X102092481Y-128293528D01*
X102309525Y-128312517D01*
X102320475Y-128312517D01*
X102537519Y-128293528D01*
X102548312Y-128291625D01*
X102758761Y-128235236D01*
X102769053Y-128231490D01*
X102966511Y-128139414D01*
X102976006Y-128133931D01*
X103028048Y-128097491D01*
X103036424Y-128087012D01*
X103029356Y-128073566D01*
X102044885Y-127089095D01*
X102010859Y-127026783D01*
X102015924Y-126955968D01*
X102044885Y-126910905D01*
X102225905Y-126729885D01*
X102288217Y-126695859D01*
X102359032Y-126700924D01*
X102404095Y-126729885D01*
X103389287Y-127715077D01*
X103401062Y-127721507D01*
X103413077Y-127712211D01*
X103448931Y-127661006D01*
X103454414Y-127651511D01*
X103546490Y-127454053D01*
X103550236Y-127443761D01*
X103606625Y-127233312D01*
X103608528Y-127222519D01*
X103627517Y-127005475D01*
X103627517Y-126994525D01*
X103608528Y-126777481D01*
X103606625Y-126766688D01*
X103550236Y-126556239D01*
X103546490Y-126545947D01*
X103520518Y-126490251D01*
X103509857Y-126420060D01*
X103538837Y-126355247D01*
X103598256Y-126316390D01*
X103634713Y-126311001D01*
X105614966Y-126311001D01*
X105625511Y-126311443D01*
X105675299Y-126315624D01*
X105752742Y-126305290D01*
X105755742Y-126304928D01*
X105797497Y-126300392D01*
X105826633Y-126297227D01*
X105826635Y-126297227D01*
X105833416Y-126296490D01*
X105839882Y-126294314D01*
X105842232Y-126293797D01*
X105842782Y-126293700D01*
X105843549Y-126293521D01*
X105844084Y-126293366D01*
X105846431Y-126292790D01*
X105853189Y-126291888D01*
X105926541Y-126265190D01*
X105929441Y-126264175D01*
X105988757Y-126244212D01*
X106059700Y-126241440D01*
X106120879Y-126277463D01*
X106152870Y-126340843D01*
X106143143Y-126416879D01*
X106095804Y-126518400D01*
X106080716Y-126550757D01*
X106079294Y-126556065D01*
X106079293Y-126556067D01*
X106032718Y-126729885D01*
X106021457Y-126771913D01*
X106001502Y-127000000D01*
X106021457Y-127228087D01*
X106022881Y-127233400D01*
X106022881Y-127233402D01*
X106075703Y-127430533D01*
X106080716Y-127449243D01*
X106083038Y-127454223D01*
X106083039Y-127454225D01*
X106175151Y-127651762D01*
X106175154Y-127651767D01*
X106177477Y-127656749D01*
X106180634Y-127661257D01*
X106296156Y-127826239D01*
X106308802Y-127844300D01*
X106470700Y-128006198D01*
X106475208Y-128009355D01*
X106475211Y-128009357D01*
X106539489Y-128054365D01*
X106658251Y-128137523D01*
X106663233Y-128139846D01*
X106663238Y-128139849D01*
X106822875Y-128214288D01*
X106865757Y-128234284D01*
X106871065Y-128235706D01*
X106871067Y-128235707D01*
X107081598Y-128292119D01*
X107081600Y-128292119D01*
X107086913Y-128293543D01*
X107315000Y-128313498D01*
X107543087Y-128293543D01*
X107548400Y-128292119D01*
X107548402Y-128292119D01*
X107758933Y-128235707D01*
X107758935Y-128235706D01*
X107764243Y-128234284D01*
X107807125Y-128214288D01*
X107966762Y-128139849D01*
X107966767Y-128139846D01*
X107971749Y-128137523D01*
X108090511Y-128054365D01*
X108154789Y-128009357D01*
X108154792Y-128009355D01*
X108159300Y-128006198D01*
X108321198Y-127844300D01*
X108333845Y-127826239D01*
X108449366Y-127661257D01*
X108452523Y-127656749D01*
X108454846Y-127651767D01*
X108454849Y-127651762D01*
X108546962Y-127454223D01*
X108546963Y-127454221D01*
X108549284Y-127449243D01*
X108564841Y-127391185D01*
X108597452Y-127334702D01*
X109021749Y-126910405D01*
X109084061Y-126876379D01*
X109110844Y-126873500D01*
X109818135Y-126873500D01*
X109871389Y-126885307D01*
X109873053Y-126886083D01*
X109926336Y-126933002D01*
X109945795Y-127001280D01*
X109925251Y-127069239D01*
X109873049Y-127114471D01*
X109838489Y-127130586D01*
X109828993Y-127136069D01*
X109650533Y-127261028D01*
X109642125Y-127268084D01*
X109488084Y-127422125D01*
X109481028Y-127430533D01*
X109356069Y-127608993D01*
X109350586Y-127618489D01*
X109258510Y-127815947D01*
X109254764Y-127826239D01*
X109208606Y-127998503D01*
X109208942Y-128012599D01*
X109216884Y-128016000D01*
X111757967Y-128016000D01*
X111771498Y-128012027D01*
X111772727Y-128003478D01*
X111725236Y-127826239D01*
X111721490Y-127815947D01*
X111629414Y-127618489D01*
X111623931Y-127608993D01*
X111498972Y-127430533D01*
X111491916Y-127422125D01*
X111337875Y-127268084D01*
X111329467Y-127261028D01*
X111151007Y-127136069D01*
X111141511Y-127130586D01*
X111106951Y-127114471D01*
X111053666Y-127067554D01*
X111034205Y-126999277D01*
X111054747Y-126931317D01*
X111106951Y-126886081D01*
X111141762Y-126869849D01*
X111141767Y-126869846D01*
X111146749Y-126867523D01*
X111290756Y-126766688D01*
X111329789Y-126739357D01*
X111329792Y-126739355D01*
X111334300Y-126736198D01*
X111496198Y-126574300D01*
X111508845Y-126556239D01*
X111604198Y-126420060D01*
X111627523Y-126386749D01*
X111629846Y-126381767D01*
X111629849Y-126381762D01*
X111721961Y-126184225D01*
X111721961Y-126184224D01*
X111724284Y-126179243D01*
X111730593Y-126155700D01*
X111782119Y-125963402D01*
X111782119Y-125963400D01*
X111783543Y-125958087D01*
X111803498Y-125730000D01*
X111783543Y-125501913D01*
X111782119Y-125496598D01*
X111725707Y-125286067D01*
X111725706Y-125286065D01*
X111724284Y-125280757D01*
X111671869Y-125168351D01*
X111629849Y-125078238D01*
X111629846Y-125078233D01*
X111627523Y-125073251D01*
X111500958Y-124892498D01*
X111499357Y-124890211D01*
X111499355Y-124890208D01*
X111496198Y-124885700D01*
X111334300Y-124723802D01*
X111329792Y-124720645D01*
X111329789Y-124720643D01*
X111237643Y-124656122D01*
X111146749Y-124592477D01*
X111141767Y-124590154D01*
X111141762Y-124590151D01*
X111106951Y-124573919D01*
X111053666Y-124527002D01*
X111034205Y-124458725D01*
X111054747Y-124390765D01*
X111106951Y-124345529D01*
X111141511Y-124329414D01*
X111151007Y-124323931D01*
X111329467Y-124198972D01*
X111337875Y-124191916D01*
X111491916Y-124037875D01*
X111498972Y-124029467D01*
X111623931Y-123851007D01*
X111629414Y-123841511D01*
X111721490Y-123644053D01*
X111725236Y-123633761D01*
X111771394Y-123461497D01*
X111771058Y-123447401D01*
X111763116Y-123444000D01*
X109222033Y-123444000D01*
X109208502Y-123447973D01*
X109207273Y-123456522D01*
X109254764Y-123633761D01*
X109258510Y-123644053D01*
X109350586Y-123841511D01*
X109356069Y-123851007D01*
X109481028Y-124029467D01*
X109488084Y-124037875D01*
X109642125Y-124191916D01*
X109650533Y-124198972D01*
X109828993Y-124323931D01*
X109838489Y-124329414D01*
X109873049Y-124345529D01*
X109926334Y-124392446D01*
X109945795Y-124460723D01*
X109925253Y-124528683D01*
X109873053Y-124573917D01*
X109871389Y-124574693D01*
X109818135Y-124586500D01*
X108627795Y-124586500D01*
X108619555Y-124586230D01*
X108593998Y-124584555D01*
X108527331Y-124560141D01*
X108484447Y-124503560D01*
X108478960Y-124432775D01*
X108488043Y-124405575D01*
X108499614Y-124380762D01*
X108549284Y-124274243D01*
X108582630Y-124149797D01*
X108607119Y-124058402D01*
X108607119Y-124058400D01*
X108608543Y-124053087D01*
X108628498Y-123825000D01*
X108608543Y-123596913D01*
X108570925Y-123456522D01*
X108550707Y-123381067D01*
X108550706Y-123381065D01*
X108549284Y-123375757D01*
X108497873Y-123265505D01*
X108454849Y-123173238D01*
X108454846Y-123173233D01*
X108452523Y-123168251D01*
X108335620Y-123001297D01*
X108324357Y-122985211D01*
X108324355Y-122985208D01*
X108321198Y-122980700D01*
X108177905Y-122837407D01*
X108143879Y-122775095D01*
X108141000Y-122748312D01*
X108141000Y-121726688D01*
X108161002Y-121658567D01*
X108177905Y-121637593D01*
X108302593Y-121512905D01*
X108364905Y-121478879D01*
X108391688Y-121476000D01*
X109413312Y-121476000D01*
X109481433Y-121496002D01*
X109502407Y-121512905D01*
X109645700Y-121656198D01*
X109650208Y-121659355D01*
X109650211Y-121659357D01*
X109696706Y-121691913D01*
X109833251Y-121787523D01*
X109838233Y-121789846D01*
X109838238Y-121789849D01*
X109873049Y-121806081D01*
X109926334Y-121852998D01*
X109945795Y-121921275D01*
X109925253Y-121989235D01*
X109873049Y-122034471D01*
X109838489Y-122050586D01*
X109828993Y-122056069D01*
X109650533Y-122181028D01*
X109642125Y-122188084D01*
X109488084Y-122342125D01*
X109481028Y-122350533D01*
X109356069Y-122528993D01*
X109350586Y-122538489D01*
X109258510Y-122735947D01*
X109254764Y-122746239D01*
X109208606Y-122918503D01*
X109208942Y-122932599D01*
X109216884Y-122936000D01*
X111757967Y-122936000D01*
X111771498Y-122932027D01*
X111772727Y-122923478D01*
X111725236Y-122746239D01*
X111721490Y-122735947D01*
X111629414Y-122538489D01*
X111623931Y-122528993D01*
X111498972Y-122350533D01*
X111491916Y-122342125D01*
X111337875Y-122188084D01*
X111329467Y-122181028D01*
X111151007Y-122056069D01*
X111141511Y-122050586D01*
X111106951Y-122034471D01*
X111053666Y-121987554D01*
X111034205Y-121919277D01*
X111054747Y-121851317D01*
X111106951Y-121806081D01*
X111141762Y-121789849D01*
X111141767Y-121789846D01*
X111146749Y-121787523D01*
X111283294Y-121691913D01*
X111329789Y-121659357D01*
X111329792Y-121659355D01*
X111334300Y-121656198D01*
X111496198Y-121494300D01*
X111516172Y-121465775D01*
X111575184Y-121381496D01*
X111627523Y-121306749D01*
X111629846Y-121301767D01*
X111629849Y-121301762D01*
X111721961Y-121104225D01*
X111721961Y-121104224D01*
X111724284Y-121099243D01*
X111727643Y-121086709D01*
X111782119Y-120883402D01*
X111782119Y-120883400D01*
X111783543Y-120878087D01*
X111803498Y-120650000D01*
X111783543Y-120421913D01*
X111782119Y-120416598D01*
X111725707Y-120206067D01*
X111725706Y-120206065D01*
X111724284Y-120200757D01*
X111721961Y-120195775D01*
X111629849Y-119998238D01*
X111629846Y-119998233D01*
X111627523Y-119993251D01*
X111543292Y-119872957D01*
X111499357Y-119810211D01*
X111499355Y-119810208D01*
X111496198Y-119805700D01*
X111334300Y-119643802D01*
X111329792Y-119640645D01*
X111329789Y-119640643D01*
X111251611Y-119585902D01*
X111146749Y-119512477D01*
X111141767Y-119510154D01*
X111141762Y-119510151D01*
X111107543Y-119494195D01*
X111054258Y-119447278D01*
X111034797Y-119379001D01*
X111055339Y-119311041D01*
X111107543Y-119265805D01*
X111141762Y-119249849D01*
X111141767Y-119249846D01*
X111146749Y-119247523D01*
X111296626Y-119142578D01*
X111329789Y-119119357D01*
X111329792Y-119119355D01*
X111334300Y-119116198D01*
X111496198Y-118954300D01*
X111500918Y-118947560D01*
X111562998Y-118858900D01*
X111627523Y-118766749D01*
X111629846Y-118761767D01*
X111629849Y-118761762D01*
X111721961Y-118564225D01*
X111721961Y-118564224D01*
X111724284Y-118559243D01*
X111745120Y-118481485D01*
X111782119Y-118343402D01*
X111782119Y-118343400D01*
X111783543Y-118338087D01*
X111803498Y-118110000D01*
X111783543Y-117881913D01*
X111782119Y-117876598D01*
X111725707Y-117666067D01*
X111725706Y-117666065D01*
X111724284Y-117660757D01*
X111703900Y-117617043D01*
X111629849Y-117458238D01*
X111629846Y-117458233D01*
X111627523Y-117453251D01*
X111496198Y-117265700D01*
X111334300Y-117103802D01*
X111329792Y-117100645D01*
X111329789Y-117100643D01*
X111251611Y-117045902D01*
X111146749Y-116972477D01*
X111141767Y-116970154D01*
X111141762Y-116970151D01*
X110944225Y-116878039D01*
X110944224Y-116878039D01*
X110939243Y-116875716D01*
X110933935Y-116874294D01*
X110933933Y-116874293D01*
X110723402Y-116817881D01*
X110723400Y-116817881D01*
X110718087Y-116816457D01*
X110490000Y-116796502D01*
X110261913Y-116816457D01*
X110256600Y-116817881D01*
X110256598Y-116817881D01*
X110046067Y-116874293D01*
X110046065Y-116874294D01*
X110040757Y-116875716D01*
X110035776Y-116878039D01*
X110035775Y-116878039D01*
X109838238Y-116970151D01*
X109838233Y-116970154D01*
X109833251Y-116972477D01*
X109728389Y-117045902D01*
X109650211Y-117100643D01*
X109650208Y-117100645D01*
X109645700Y-117103802D01*
X109502407Y-117247095D01*
X109440095Y-117281121D01*
X109413312Y-117284000D01*
X108715164Y-117284000D01*
X108647043Y-117263998D01*
X108600550Y-117210342D01*
X108593457Y-117190612D01*
X108550706Y-117031064D01*
X108549284Y-117025757D01*
X108536138Y-116997565D01*
X108454849Y-116823238D01*
X108454846Y-116823233D01*
X108452523Y-116818251D01*
X108345602Y-116665552D01*
X108324357Y-116635211D01*
X108324355Y-116635208D01*
X108321198Y-116630700D01*
X108159300Y-116468802D01*
X108154792Y-116465645D01*
X108154789Y-116465643D01*
X107992654Y-116352115D01*
X107971749Y-116337477D01*
X107966767Y-116335154D01*
X107966762Y-116335151D01*
X107769225Y-116243039D01*
X107769224Y-116243039D01*
X107764243Y-116240716D01*
X107758935Y-116239294D01*
X107758933Y-116239293D01*
X107548402Y-116182881D01*
X107548400Y-116182881D01*
X107543087Y-116181457D01*
X107315000Y-116161502D01*
X107086913Y-116181457D01*
X107081600Y-116182881D01*
X107081598Y-116182881D01*
X106871067Y-116239293D01*
X106871065Y-116239294D01*
X106865757Y-116240716D01*
X106860776Y-116243039D01*
X106860775Y-116243039D01*
X106663238Y-116335151D01*
X106663233Y-116335154D01*
X106658251Y-116337477D01*
X106637346Y-116352115D01*
X106475211Y-116465643D01*
X106475208Y-116465645D01*
X106470700Y-116468802D01*
X106308802Y-116630700D01*
X106305645Y-116635208D01*
X106305643Y-116635211D01*
X106284398Y-116665552D01*
X106177477Y-116818251D01*
X106175154Y-116823233D01*
X106175151Y-116823238D01*
X106093862Y-116997565D01*
X106080716Y-117025757D01*
X106079294Y-117031064D01*
X106079293Y-117031067D01*
X106025071Y-117233425D01*
X106021457Y-117246913D01*
X106001502Y-117475000D01*
X106001981Y-117480475D01*
X106001981Y-117480476D01*
X106008075Y-117550134D01*
X105994085Y-117619739D01*
X105971649Y-117650210D01*
X100659765Y-122962095D01*
X100597453Y-122996121D01*
X100570670Y-122999000D01*
X98231688Y-122999000D01*
X98163567Y-122978998D01*
X98142593Y-122962095D01*
X97999300Y-122818802D01*
X97994792Y-122815645D01*
X97994789Y-122815643D01*
X97898630Y-122748312D01*
X97811749Y-122687477D01*
X97806767Y-122685154D01*
X97806762Y-122685151D01*
X97609225Y-122593039D01*
X97609224Y-122593039D01*
X97604243Y-122590716D01*
X97598935Y-122589294D01*
X97598933Y-122589293D01*
X97388402Y-122532881D01*
X97388400Y-122532881D01*
X97383087Y-122531457D01*
X97155000Y-122511502D01*
X96926913Y-122531457D01*
X96921600Y-122532881D01*
X96921598Y-122532881D01*
X96711067Y-122589293D01*
X96711065Y-122589294D01*
X96705757Y-122590716D01*
X96700775Y-122593039D01*
X96700770Y-122593041D01*
X96613922Y-122633538D01*
X96543730Y-122644199D01*
X96478918Y-122615218D01*
X96471578Y-122608438D01*
X95323351Y-121460211D01*
X95289325Y-121397899D01*
X95286925Y-121360135D01*
X95293019Y-121290476D01*
X95293019Y-121290475D01*
X95293498Y-121285000D01*
X95273543Y-121056913D01*
X95272119Y-121051598D01*
X95215707Y-120841067D01*
X95215706Y-120841065D01*
X95214284Y-120835757D01*
X95211961Y-120830775D01*
X95119849Y-120633238D01*
X95119846Y-120633233D01*
X95117523Y-120628251D01*
X94986198Y-120440700D01*
X94824300Y-120278802D01*
X94819792Y-120275645D01*
X94819789Y-120275643D01*
X94714897Y-120202197D01*
X94636749Y-120147477D01*
X94631767Y-120145154D01*
X94631762Y-120145151D01*
X94434225Y-120053039D01*
X94434224Y-120053039D01*
X94429243Y-120050716D01*
X94423935Y-120049294D01*
X94423933Y-120049293D01*
X94213402Y-119992881D01*
X94213400Y-119992881D01*
X94208087Y-119991457D01*
X93980000Y-119971502D01*
X93751913Y-119991457D01*
X93746600Y-119992881D01*
X93746598Y-119992881D01*
X93536067Y-120049293D01*
X93536065Y-120049294D01*
X93530757Y-120050716D01*
X93525776Y-120053039D01*
X93525775Y-120053039D01*
X93328238Y-120145151D01*
X93328233Y-120145154D01*
X93323251Y-120147477D01*
X93245103Y-120202197D01*
X93140211Y-120275643D01*
X93140208Y-120275645D01*
X93135700Y-120278802D01*
X92973802Y-120440700D01*
X92842477Y-120628251D01*
X92840154Y-120633233D01*
X92840151Y-120633238D01*
X92748039Y-120830775D01*
X92745716Y-120835757D01*
X92744294Y-120841065D01*
X92744293Y-120841067D01*
X92687881Y-121051598D01*
X92686457Y-121056913D01*
X92666502Y-121285000D01*
X92686457Y-121513087D01*
X92687881Y-121518400D01*
X92687881Y-121518402D01*
X92743692Y-121726688D01*
X92745716Y-121734243D01*
X92748039Y-121739224D01*
X92748039Y-121739225D01*
X92840151Y-121936762D01*
X92840154Y-121936767D01*
X92842477Y-121941749D01*
X92973802Y-122129300D01*
X93135700Y-122291198D01*
X93140208Y-122294355D01*
X93140211Y-122294357D01*
X93208431Y-122342125D01*
X93323251Y-122422523D01*
X93328233Y-122424846D01*
X93328238Y-122424849D01*
X93523017Y-122515675D01*
X93530757Y-122519284D01*
X93536065Y-122520706D01*
X93536067Y-122520707D01*
X93746598Y-122577119D01*
X93746600Y-122577119D01*
X93751913Y-122578543D01*
X93980000Y-122598498D01*
X93985475Y-122598019D01*
X93985476Y-122598019D01*
X94055134Y-122591925D01*
X94124739Y-122605915D01*
X94155210Y-122628351D01*
X95907621Y-124380762D01*
X95914763Y-124388528D01*
X95947015Y-124426693D01*
X95952438Y-124430839D01*
X95952440Y-124430841D01*
X95955140Y-124432905D01*
X95956369Y-124434583D01*
X95957377Y-124435542D01*
X95957205Y-124435723D01*
X95997108Y-124490169D01*
X96001453Y-124561033D01*
X95966797Y-124622996D01*
X95904143Y-124656387D01*
X95878611Y-124659001D01*
X94820021Y-124659001D01*
X94809478Y-124658559D01*
X94759699Y-124654379D01*
X94752939Y-124655281D01*
X94752935Y-124655281D01*
X94682324Y-124664702D01*
X94679270Y-124665072D01*
X94608365Y-124672775D01*
X94608364Y-124672775D01*
X94601582Y-124673512D01*
X94595115Y-124675689D01*
X94592767Y-124676205D01*
X94592213Y-124676303D01*
X94591457Y-124676479D01*
X94590913Y-124676637D01*
X94588573Y-124677212D01*
X94581809Y-124678114D01*
X94575400Y-124680447D01*
X94575395Y-124680448D01*
X94508458Y-124704812D01*
X94505551Y-124705830D01*
X94437958Y-124728577D01*
X94437953Y-124728579D01*
X94431488Y-124730755D01*
X94425635Y-124734272D01*
X94423452Y-124735281D01*
X94422945Y-124735490D01*
X94422225Y-124735834D01*
X94421727Y-124736105D01*
X94419582Y-124737160D01*
X94413164Y-124739496D01*
X94347210Y-124781352D01*
X94344642Y-124782937D01*
X94277655Y-124823187D01*
X94272698Y-124827875D01*
X94270762Y-124829344D01*
X94269839Y-124829985D01*
X94265994Y-124832893D01*
X94261635Y-124835659D01*
X94257535Y-124839324D01*
X94205613Y-124891246D01*
X94203091Y-124893699D01*
X94150037Y-124943870D01*
X94086799Y-124976142D01*
X94052483Y-124977843D01*
X93985476Y-124971981D01*
X93985475Y-124971981D01*
X93980000Y-124971502D01*
X93751913Y-124991457D01*
X93746600Y-124992881D01*
X93746598Y-124992881D01*
X93536067Y-125049293D01*
X93536065Y-125049294D01*
X93530757Y-125050716D01*
X93525776Y-125053039D01*
X93525775Y-125053039D01*
X93328238Y-125145151D01*
X93328233Y-125145154D01*
X93323251Y-125147477D01*
X93306425Y-125159259D01*
X93140211Y-125275643D01*
X93140208Y-125275645D01*
X93135700Y-125278802D01*
X92973802Y-125440700D01*
X92970645Y-125445208D01*
X92970643Y-125445211D01*
X92934662Y-125496598D01*
X92842477Y-125628251D01*
X92840154Y-125633233D01*
X92840151Y-125633238D01*
X92748039Y-125830775D01*
X92745716Y-125835757D01*
X92744294Y-125841065D01*
X92744293Y-125841067D01*
X92702323Y-125997699D01*
X92686457Y-126056913D01*
X92666502Y-126285000D01*
X92686457Y-126513087D01*
X92687881Y-126518400D01*
X92687881Y-126518402D01*
X92734374Y-126691913D01*
X92745716Y-126734243D01*
X92748039Y-126739224D01*
X92748039Y-126739225D01*
X92840151Y-126936762D01*
X92840154Y-126936767D01*
X92842477Y-126941749D01*
X92876557Y-126990420D01*
X92963419Y-127114471D01*
X92973802Y-127129300D01*
X93135700Y-127291198D01*
X93140208Y-127294355D01*
X93140211Y-127294357D01*
X93168737Y-127314331D01*
X93323251Y-127422523D01*
X93328233Y-127424846D01*
X93328238Y-127424849D01*
X93525775Y-127516961D01*
X93530757Y-127519284D01*
X93536065Y-127520706D01*
X93536067Y-127520707D01*
X93746598Y-127577119D01*
X93746600Y-127577119D01*
X93751913Y-127578543D01*
X93980000Y-127598498D01*
X94208087Y-127578543D01*
X94213400Y-127577119D01*
X94213402Y-127577119D01*
X94423933Y-127520707D01*
X94423935Y-127520706D01*
X94429243Y-127519284D01*
X94434225Y-127516961D01*
X94631762Y-127424849D01*
X94631767Y-127424846D01*
X94636749Y-127422523D01*
X94791263Y-127314331D01*
X94819789Y-127294357D01*
X94819792Y-127294355D01*
X94824300Y-127291198D01*
X94986198Y-127129300D01*
X94996582Y-127114471D01*
X95083443Y-126990420D01*
X95117523Y-126941749D01*
X95119846Y-126936767D01*
X95119849Y-126936762D01*
X95211961Y-126739225D01*
X95211961Y-126739224D01*
X95214284Y-126734243D01*
X95273543Y-126513087D01*
X95281160Y-126426019D01*
X95307023Y-126359902D01*
X95364527Y-126318262D01*
X95406681Y-126311001D01*
X99768001Y-126311001D01*
X99836122Y-126331003D01*
X99882615Y-126384659D01*
X99894001Y-126437001D01*
X99894001Y-129390669D01*
X99873999Y-129458790D01*
X99857096Y-129479764D01*
X98603444Y-130733416D01*
X98541132Y-130767442D01*
X98470317Y-130762377D01*
X98413481Y-130719830D01*
X98388670Y-130653310D01*
X98392642Y-130611709D01*
X98448543Y-130403087D01*
X98468498Y-130175000D01*
X98448543Y-129946913D01*
X98447119Y-129941598D01*
X98390707Y-129731067D01*
X98390706Y-129731064D01*
X98389284Y-129725757D01*
X98373814Y-129692581D01*
X98294849Y-129523238D01*
X98294846Y-129523233D01*
X98292523Y-129518251D01*
X98192757Y-129375771D01*
X98164357Y-129335211D01*
X98164355Y-129335208D01*
X98161198Y-129330700D01*
X97999300Y-129168802D01*
X97994792Y-129165645D01*
X97994789Y-129165643D01*
X97832654Y-129052115D01*
X97811749Y-129037477D01*
X97806767Y-129035154D01*
X97806762Y-129035151D01*
X97609225Y-128943039D01*
X97609224Y-128943039D01*
X97604243Y-128940716D01*
X97598935Y-128939294D01*
X97598933Y-128939293D01*
X97388402Y-128882881D01*
X97388400Y-128882881D01*
X97383087Y-128881457D01*
X97155000Y-128861502D01*
X96926913Y-128881457D01*
X96921600Y-128882881D01*
X96921598Y-128882881D01*
X96711067Y-128939293D01*
X96711065Y-128939294D01*
X96705757Y-128940716D01*
X96700776Y-128943039D01*
X96700775Y-128943039D01*
X96503238Y-129035151D01*
X96503233Y-129035154D01*
X96498251Y-129037477D01*
X96477346Y-129052115D01*
X96315211Y-129165643D01*
X96315208Y-129165645D01*
X96310700Y-129168802D01*
X96167407Y-129312095D01*
X96105095Y-129346121D01*
X96078312Y-129349000D01*
X95614475Y-129349000D01*
X95546354Y-129328998D01*
X95499861Y-129275342D01*
X95493480Y-129256122D01*
X95493468Y-129256010D01*
X95437197Y-129087346D01*
X95343634Y-128936150D01*
X95217799Y-128810534D01*
X95066440Y-128717236D01*
X95059491Y-128714931D01*
X94904209Y-128663425D01*
X94904207Y-128663424D01*
X94897678Y-128661259D01*
X94792666Y-128650500D01*
X93167334Y-128650500D01*
X93164088Y-128650837D01*
X93164084Y-128650837D01*
X93067868Y-128660820D01*
X93067864Y-128660821D01*
X93061010Y-128661532D01*
X93054474Y-128663713D01*
X93054472Y-128663713D01*
X92922723Y-128707668D01*
X92892346Y-128717803D01*
X92741150Y-128811366D01*
X92615534Y-128937201D01*
X92611694Y-128943431D01*
X92611693Y-128943432D01*
X92596895Y-128967440D01*
X92522236Y-129088560D01*
X92519931Y-129095508D01*
X92519931Y-129095509D01*
X92468820Y-129249602D01*
X92466259Y-129257322D01*
X92455500Y-129362334D01*
X92455500Y-129390808D01*
X92435498Y-129458929D01*
X92381842Y-129505422D01*
X92311568Y-129515526D01*
X92246988Y-129486032D01*
X92229537Y-129467512D01*
X92184957Y-129409414D01*
X92116123Y-129319708D01*
X91949964Y-129168515D01*
X91945217Y-129165537D01*
X91945214Y-129165535D01*
X91764405Y-129052115D01*
X91759656Y-129049136D01*
X91551217Y-128965344D01*
X91331233Y-128919787D01*
X91326622Y-128919521D01*
X91326621Y-128919521D01*
X91276048Y-128916605D01*
X91276044Y-128916605D01*
X91274225Y-128916500D01*
X91129001Y-128916500D01*
X91126214Y-128916749D01*
X91126208Y-128916749D01*
X91056071Y-128923009D01*
X90962238Y-128931383D01*
X90956824Y-128932864D01*
X90956819Y-128932865D01*
X90842262Y-128964205D01*
X90745549Y-128990663D01*
X90740491Y-128993075D01*
X90740487Y-128993077D01*
X90644165Y-129039021D01*
X90542782Y-129087378D01*
X90360346Y-129218471D01*
X90308554Y-129271916D01*
X90217768Y-129365600D01*
X90204008Y-129379799D01*
X90078710Y-129566262D01*
X89988412Y-129771967D01*
X89987103Y-129777418D01*
X89987102Y-129777422D01*
X89940017Y-129973545D01*
X89935968Y-129990411D01*
X89935645Y-129996016D01*
X89925010Y-130180476D01*
X89923037Y-130214690D01*
X89662000Y-130214690D01*
X89662000Y-117514690D01*
X89923037Y-117514690D01*
X89923712Y-117520268D01*
X89946478Y-117708399D01*
X89950025Y-117737715D01*
X90016082Y-117952435D01*
X90018652Y-117957415D01*
X90018654Y-117957419D01*
X90075696Y-118067936D01*
X90119118Y-118152064D01*
X90255877Y-118330292D01*
X90422036Y-118481485D01*
X90426783Y-118484463D01*
X90426786Y-118484465D01*
X90553936Y-118564225D01*
X90612344Y-118600864D01*
X90820783Y-118684656D01*
X91040767Y-118730213D01*
X91045378Y-118730479D01*
X91045379Y-118730479D01*
X91095952Y-118733395D01*
X91095956Y-118733395D01*
X91097775Y-118733500D01*
X91242999Y-118733500D01*
X91245786Y-118733251D01*
X91245792Y-118733251D01*
X91315929Y-118726991D01*
X91409762Y-118718617D01*
X91415176Y-118717136D01*
X91415181Y-118717135D01*
X91542912Y-118682191D01*
X91626451Y-118659337D01*
X91631509Y-118656925D01*
X91631513Y-118656923D01*
X91749042Y-118600864D01*
X91829218Y-118562622D01*
X92011654Y-118431529D01*
X92098446Y-118341967D01*
X92164089Y-118274229D01*
X92164091Y-118274226D01*
X92167992Y-118270201D01*
X92224918Y-118185486D01*
X92279514Y-118140101D01*
X92349980Y-118131438D01*
X92413944Y-118162246D01*
X92451097Y-118222745D01*
X92455500Y-118255762D01*
X92455500Y-118287666D01*
X92455837Y-118290912D01*
X92455837Y-118290916D01*
X92462148Y-118351736D01*
X92466532Y-118393990D01*
X92522803Y-118562654D01*
X92616366Y-118713850D01*
X92742201Y-118839466D01*
X92748431Y-118843306D01*
X92748432Y-118843307D01*
X92765280Y-118853692D01*
X92893560Y-118932764D01*
X92900508Y-118935069D01*
X92900509Y-118935069D01*
X93055791Y-118986575D01*
X93055793Y-118986576D01*
X93062322Y-118988741D01*
X93167334Y-118999500D01*
X94792666Y-118999500D01*
X94795912Y-118999163D01*
X94795916Y-118999163D01*
X94892132Y-118989180D01*
X94892136Y-118989179D01*
X94898990Y-118988468D01*
X94905526Y-118986287D01*
X94905528Y-118986287D01*
X95057175Y-118935693D01*
X95067654Y-118932197D01*
X95218850Y-118838634D01*
X95344466Y-118712799D01*
X95361814Y-118684656D01*
X95388664Y-118641095D01*
X95437764Y-118561440D01*
X95463602Y-118483544D01*
X95493741Y-118392678D01*
X95495290Y-118393192D01*
X95525115Y-118338175D01*
X95587324Y-118303961D01*
X95614480Y-118301000D01*
X96078312Y-118301000D01*
X96146433Y-118321002D01*
X96167407Y-118337905D01*
X96310700Y-118481198D01*
X96315208Y-118484355D01*
X96315211Y-118484357D01*
X96393389Y-118539098D01*
X96498251Y-118612523D01*
X96503233Y-118614846D01*
X96503238Y-118614849D01*
X96699932Y-118706568D01*
X96705757Y-118709284D01*
X96711065Y-118710706D01*
X96711067Y-118710707D01*
X96921598Y-118767119D01*
X96921600Y-118767119D01*
X96926913Y-118768543D01*
X97155000Y-118788498D01*
X97383087Y-118768543D01*
X97591711Y-118712642D01*
X97662686Y-118714332D01*
X97721482Y-118754126D01*
X97749430Y-118819390D01*
X97737657Y-118889404D01*
X97713416Y-118923444D01*
X97330211Y-119306649D01*
X97267899Y-119340675D01*
X97230135Y-119343075D01*
X97160476Y-119336981D01*
X97160475Y-119336981D01*
X97155000Y-119336502D01*
X96926913Y-119356457D01*
X96921600Y-119357881D01*
X96921598Y-119357881D01*
X96711067Y-119414293D01*
X96711065Y-119414294D01*
X96705757Y-119415716D01*
X96700776Y-119418039D01*
X96700775Y-119418039D01*
X96503238Y-119510151D01*
X96503233Y-119510154D01*
X96498251Y-119512477D01*
X96393389Y-119585902D01*
X96315211Y-119640643D01*
X96315208Y-119640645D01*
X96310700Y-119643802D01*
X96148802Y-119805700D01*
X96145645Y-119810208D01*
X96145643Y-119810211D01*
X96101708Y-119872957D01*
X96017477Y-119993251D01*
X96015154Y-119998233D01*
X96015151Y-119998238D01*
X95923039Y-120195775D01*
X95920716Y-120200757D01*
X95919294Y-120206065D01*
X95919293Y-120206067D01*
X95862881Y-120416598D01*
X95861457Y-120421913D01*
X95841502Y-120650000D01*
X95861457Y-120878087D01*
X95862881Y-120883400D01*
X95862881Y-120883402D01*
X95917358Y-121086709D01*
X95920716Y-121099243D01*
X95923039Y-121104224D01*
X95923039Y-121104225D01*
X96015151Y-121301762D01*
X96015154Y-121301767D01*
X96017477Y-121306749D01*
X96069816Y-121381496D01*
X96128829Y-121465775D01*
X96148802Y-121494300D01*
X96310700Y-121656198D01*
X96315208Y-121659355D01*
X96315211Y-121659357D01*
X96361706Y-121691913D01*
X96498251Y-121787523D01*
X96503233Y-121789846D01*
X96503238Y-121789849D01*
X96700775Y-121881961D01*
X96705757Y-121884284D01*
X96711065Y-121885706D01*
X96711067Y-121885707D01*
X96921598Y-121942119D01*
X96921600Y-121942119D01*
X96926913Y-121943543D01*
X97155000Y-121963498D01*
X97383087Y-121943543D01*
X97388400Y-121942119D01*
X97388402Y-121942119D01*
X97598933Y-121885707D01*
X97598935Y-121885706D01*
X97604243Y-121884284D01*
X97609225Y-121881961D01*
X97806762Y-121789849D01*
X97806767Y-121789846D01*
X97811749Y-121787523D01*
X97948294Y-121691913D01*
X97994789Y-121659357D01*
X97994792Y-121659355D01*
X97999300Y-121656198D01*
X98161198Y-121494300D01*
X98181172Y-121465775D01*
X98240184Y-121381496D01*
X98292523Y-121306749D01*
X98294846Y-121301767D01*
X98294849Y-121301762D01*
X98386961Y-121104225D01*
X98386961Y-121104224D01*
X98389284Y-121099243D01*
X98392643Y-121086709D01*
X98447119Y-120883402D01*
X98447119Y-120883400D01*
X98448543Y-120878087D01*
X98468498Y-120650000D01*
X98466438Y-120626457D01*
X98461925Y-120574866D01*
X98475915Y-120505261D01*
X98498351Y-120474790D01*
X99980755Y-118992385D01*
X99988522Y-118985242D01*
X100021480Y-118957390D01*
X100026693Y-118952985D01*
X100041282Y-118933904D01*
X100074130Y-118890941D01*
X100076029Y-118888518D01*
X100093793Y-118866425D01*
X100119625Y-118834296D01*
X100120692Y-118832969D01*
X100120693Y-118832967D01*
X100124969Y-118827649D01*
X100128006Y-118821531D01*
X100129295Y-118819515D01*
X100129623Y-118819046D01*
X100130030Y-118818393D01*
X100130302Y-118817898D01*
X100131549Y-118815839D01*
X100135697Y-118810414D01*
X100168700Y-118739639D01*
X100170034Y-118736867D01*
X100171715Y-118733481D01*
X100204767Y-118666898D01*
X100206419Y-118660273D01*
X100207253Y-118658006D01*
X100207472Y-118657481D01*
X100207721Y-118656777D01*
X100207883Y-118656227D01*
X100208661Y-118653943D01*
X100211543Y-118647761D01*
X100213031Y-118641103D01*
X100213034Y-118641095D01*
X100228581Y-118571542D01*
X100229289Y-118568546D01*
X100246533Y-118499385D01*
X100246533Y-118499382D01*
X100248184Y-118492762D01*
X100248375Y-118485941D01*
X100248703Y-118483544D01*
X100248904Y-118482430D01*
X100249566Y-118477656D01*
X100250693Y-118472616D01*
X100251000Y-118467125D01*
X100251000Y-118393711D01*
X100251049Y-118390193D01*
X100252504Y-118338087D01*
X100253195Y-118313365D01*
X100251916Y-118306658D01*
X100251406Y-118300323D01*
X100251000Y-118290216D01*
X100251000Y-112760035D01*
X100251442Y-112749492D01*
X100255052Y-112706499D01*
X100255623Y-112699701D01*
X100254721Y-112692937D01*
X100245295Y-112622288D01*
X100244925Y-112619234D01*
X100237226Y-112548364D01*
X100237225Y-112548361D01*
X100236489Y-112541583D01*
X100234315Y-112535122D01*
X100233794Y-112532753D01*
X100233697Y-112532204D01*
X100233525Y-112531463D01*
X100233368Y-112530923D01*
X100232790Y-112528571D01*
X100231888Y-112521810D01*
X100205178Y-112448425D01*
X100204161Y-112445522D01*
X100179246Y-112371489D01*
X100175731Y-112365639D01*
X100174718Y-112363447D01*
X100174506Y-112362932D01*
X100174173Y-112362234D01*
X100173900Y-112361733D01*
X100172840Y-112359579D01*
X100170506Y-112353166D01*
X100128623Y-112287169D01*
X100127098Y-112284700D01*
X100086814Y-112217656D01*
X100082122Y-112212694D01*
X100080663Y-112210772D01*
X100080024Y-112209851D01*
X100077115Y-112206005D01*
X100074343Y-112201637D01*
X100070677Y-112197537D01*
X100018772Y-112145632D01*
X100016319Y-112143110D01*
X99968196Y-112092222D01*
X99963504Y-112087260D01*
X99959320Y-112084416D01*
X99920780Y-112025599D01*
X99919041Y-111966643D01*
X99917605Y-111966416D01*
X99918380Y-111961521D01*
X99919535Y-111956711D01*
X99938165Y-111720000D01*
X99919535Y-111483289D01*
X99911117Y-111448223D01*
X99865260Y-111257218D01*
X99864105Y-111252406D01*
X99847537Y-111212406D01*
X99775135Y-111037611D01*
X99775133Y-111037607D01*
X99773240Y-111033037D01*
X99755643Y-111004322D01*
X99651759Y-110834798D01*
X99651755Y-110834792D01*
X99649176Y-110830584D01*
X99494969Y-110650031D01*
X99314416Y-110495824D01*
X99310208Y-110493245D01*
X99310202Y-110493241D01*
X99116183Y-110374346D01*
X99111963Y-110371760D01*
X99107393Y-110369867D01*
X99107389Y-110369865D01*
X98897167Y-110282789D01*
X98897165Y-110282788D01*
X98892594Y-110280895D01*
X98812391Y-110261640D01*
X98666524Y-110226620D01*
X98666518Y-110226619D01*
X98661711Y-110225465D01*
X98425000Y-110206835D01*
X98188289Y-110225465D01*
X98183482Y-110226619D01*
X98183476Y-110226620D01*
X98037609Y-110261640D01*
X97957406Y-110280895D01*
X97952835Y-110282788D01*
X97952833Y-110282789D01*
X97742611Y-110369865D01*
X97742607Y-110369867D01*
X97738037Y-110371760D01*
X97733817Y-110374346D01*
X97539798Y-110493241D01*
X97539792Y-110493245D01*
X97535584Y-110495824D01*
X97355031Y-110650031D01*
X97200824Y-110830584D01*
X97198245Y-110834792D01*
X97198241Y-110834798D01*
X97094357Y-111004322D01*
X97076760Y-111033037D01*
X97074867Y-111037607D01*
X97074865Y-111037611D01*
X97002463Y-111212406D01*
X96985895Y-111252406D01*
X96984740Y-111257218D01*
X96938884Y-111448223D01*
X96930465Y-111483289D01*
X96911835Y-111720000D01*
X96930465Y-111956711D01*
X96931619Y-111961518D01*
X96931620Y-111961524D01*
X96960226Y-112080676D01*
X96985895Y-112187594D01*
X96987788Y-112192165D01*
X96987789Y-112192167D01*
X97061940Y-112371183D01*
X97076760Y-112406963D01*
X97079346Y-112411183D01*
X97198241Y-112605202D01*
X97198245Y-112605208D01*
X97200824Y-112609416D01*
X97355031Y-112789969D01*
X97535584Y-112944176D01*
X97539792Y-112946755D01*
X97539798Y-112946759D01*
X97733817Y-113065654D01*
X97738037Y-113068240D01*
X97742607Y-113070133D01*
X97742611Y-113070135D01*
X97952833Y-113157211D01*
X97957406Y-113159105D01*
X98037609Y-113178360D01*
X98183476Y-113213380D01*
X98183482Y-113213381D01*
X98188289Y-113214535D01*
X98425000Y-113233165D01*
X98429930Y-113232777D01*
X98429941Y-113232777D01*
X98463113Y-113230166D01*
X98532593Y-113244761D01*
X98583153Y-113294603D01*
X98599000Y-113355777D01*
X98599000Y-116907144D01*
X98578998Y-116975265D01*
X98525342Y-117021758D01*
X98455068Y-117031862D01*
X98390488Y-117002368D01*
X98358805Y-116960394D01*
X98294849Y-116823238D01*
X98294846Y-116823233D01*
X98292523Y-116818251D01*
X98185602Y-116665552D01*
X98164357Y-116635211D01*
X98164355Y-116635208D01*
X98161198Y-116630700D01*
X97999300Y-116468802D01*
X97994792Y-116465645D01*
X97994789Y-116465643D01*
X97832654Y-116352115D01*
X97811749Y-116337477D01*
X97806767Y-116335154D01*
X97806762Y-116335151D01*
X97609225Y-116243039D01*
X97609224Y-116243039D01*
X97604243Y-116240716D01*
X97598935Y-116239294D01*
X97598933Y-116239293D01*
X97388402Y-116182881D01*
X97388400Y-116182881D01*
X97383087Y-116181457D01*
X97155000Y-116161502D01*
X96926913Y-116181457D01*
X96921600Y-116182881D01*
X96921598Y-116182881D01*
X96711067Y-116239293D01*
X96711065Y-116239294D01*
X96705757Y-116240716D01*
X96700776Y-116243039D01*
X96700775Y-116243039D01*
X96503238Y-116335151D01*
X96503233Y-116335154D01*
X96498251Y-116337477D01*
X96477346Y-116352115D01*
X96315211Y-116465643D01*
X96315208Y-116465645D01*
X96310700Y-116468802D01*
X96167407Y-116612095D01*
X96105095Y-116646121D01*
X96078312Y-116649000D01*
X95614475Y-116649000D01*
X95546354Y-116628998D01*
X95499861Y-116575342D01*
X95493480Y-116556122D01*
X95493468Y-116556010D01*
X95437197Y-116387346D01*
X95343634Y-116236150D01*
X95217799Y-116110534D01*
X95066440Y-116017236D01*
X95059491Y-116014931D01*
X94904209Y-115963425D01*
X94904207Y-115963424D01*
X94897678Y-115961259D01*
X94792666Y-115950500D01*
X93167334Y-115950500D01*
X93164088Y-115950837D01*
X93164084Y-115950837D01*
X93067868Y-115960820D01*
X93067864Y-115960821D01*
X93061010Y-115961532D01*
X93054474Y-115963713D01*
X93054472Y-115963713D01*
X92922723Y-116007668D01*
X92892346Y-116017803D01*
X92741150Y-116111366D01*
X92615534Y-116237201D01*
X92611694Y-116243431D01*
X92611693Y-116243432D01*
X92597587Y-116266317D01*
X92522236Y-116388560D01*
X92519931Y-116395508D01*
X92519931Y-116395509D01*
X92468820Y-116549602D01*
X92466259Y-116557322D01*
X92455500Y-116662334D01*
X92455500Y-116690808D01*
X92435498Y-116758929D01*
X92381842Y-116805422D01*
X92311568Y-116815526D01*
X92246988Y-116786032D01*
X92229537Y-116767512D01*
X92190628Y-116716805D01*
X92116123Y-116619708D01*
X91949964Y-116468515D01*
X91945217Y-116465537D01*
X91945214Y-116465535D01*
X91764405Y-116352115D01*
X91759656Y-116349136D01*
X91551217Y-116265344D01*
X91331233Y-116219787D01*
X91326622Y-116219521D01*
X91326621Y-116219521D01*
X91276048Y-116216605D01*
X91276044Y-116216605D01*
X91274225Y-116216500D01*
X91129001Y-116216500D01*
X91126214Y-116216749D01*
X91126208Y-116216749D01*
X91056071Y-116223009D01*
X90962238Y-116231383D01*
X90956824Y-116232864D01*
X90956819Y-116232865D01*
X90842262Y-116264205D01*
X90745549Y-116290663D01*
X90740491Y-116293075D01*
X90740487Y-116293077D01*
X90644166Y-116339020D01*
X90542782Y-116387378D01*
X90360346Y-116518471D01*
X90313287Y-116567032D01*
X90212129Y-116671419D01*
X90204008Y-116679799D01*
X90078710Y-116866262D01*
X89988412Y-117071967D01*
X89987103Y-117077418D01*
X89987102Y-117077422D01*
X89938198Y-117281121D01*
X89935968Y-117290411D01*
X89935645Y-117296016D01*
X89923828Y-117500977D01*
X89923037Y-117514690D01*
X89662000Y-117514690D01*
X89662000Y-102284327D01*
X89663500Y-102264942D01*
X89665805Y-102250141D01*
X89665805Y-102250138D01*
X89667186Y-102241269D01*
X89666385Y-102235148D01*
X89686803Y-102168626D01*
X89741022Y-102122791D01*
X89782865Y-102114223D01*
X89782729Y-102113186D01*
X89814251Y-102109064D01*
X89830588Y-102108000D01*
X132665673Y-102108000D01*
X132685058Y-102109500D01*
G37*
%TD.AperFunction*%
%TA.AperFunction,Conductor*%
G36*
X105999683Y-120062624D02*
G01*
X106056519Y-120105171D01*
X106081330Y-120171691D01*
X106077358Y-120213288D01*
X106021457Y-120421913D01*
X106001502Y-120650000D01*
X106021457Y-120878087D01*
X106022881Y-120883400D01*
X106022881Y-120883402D01*
X106077358Y-121086709D01*
X106080716Y-121099243D01*
X106083039Y-121104224D01*
X106083039Y-121104225D01*
X106175151Y-121301762D01*
X106175154Y-121301767D01*
X106177477Y-121306749D01*
X106229816Y-121381496D01*
X106288829Y-121465775D01*
X106308802Y-121494300D01*
X106452095Y-121637593D01*
X106486121Y-121699905D01*
X106489000Y-121726688D01*
X106489000Y-122748312D01*
X106468998Y-122816433D01*
X106452095Y-122837407D01*
X106308802Y-122980700D01*
X106305645Y-122985208D01*
X106305643Y-122985211D01*
X106294380Y-123001297D01*
X106177477Y-123168251D01*
X106175154Y-123173233D01*
X106175151Y-123173238D01*
X106132127Y-123265505D01*
X106080716Y-123375757D01*
X106079294Y-123381065D01*
X106079293Y-123381067D01*
X106059075Y-123456522D01*
X106021457Y-123596913D01*
X106001502Y-123825000D01*
X106001981Y-123830475D01*
X106001981Y-123830476D01*
X106008075Y-123900135D01*
X105994085Y-123969740D01*
X105971649Y-124000211D01*
X105349764Y-124622096D01*
X105287452Y-124656122D01*
X105260669Y-124659001D01*
X101603330Y-124659001D01*
X101535209Y-124638999D01*
X101488716Y-124585343D01*
X101478612Y-124515069D01*
X101508106Y-124450489D01*
X101514235Y-124443906D01*
X101539387Y-124418754D01*
X101541909Y-124416301D01*
X101592782Y-124368193D01*
X101592784Y-124368191D01*
X101597740Y-124363504D01*
X101601574Y-124357863D01*
X101605703Y-124353011D01*
X101612560Y-124345581D01*
X105866556Y-120091585D01*
X105928868Y-120057559D01*
X105999683Y-120062624D01*
G37*
%TD.AperFunction*%
%TA.AperFunction,Conductor*%
G36*
X120276433Y-121496002D02*
G01*
X120297407Y-121512905D01*
X120422095Y-121637593D01*
X120456121Y-121699905D01*
X120459000Y-121726688D01*
X120459000Y-122748312D01*
X120438998Y-122816433D01*
X120422095Y-122837407D01*
X120278802Y-122980700D01*
X120275645Y-122985208D01*
X120275643Y-122985211D01*
X120264380Y-123001297D01*
X120147477Y-123168251D01*
X120145154Y-123173233D01*
X120145151Y-123173238D01*
X120102127Y-123265505D01*
X120050716Y-123375757D01*
X120049294Y-123381065D01*
X120049293Y-123381067D01*
X120029075Y-123456522D01*
X119991457Y-123596913D01*
X119971502Y-123825000D01*
X119991457Y-124053087D01*
X119992881Y-124058400D01*
X119992881Y-124058402D01*
X120017371Y-124149797D01*
X120050716Y-124274243D01*
X120053039Y-124279224D01*
X120053039Y-124279225D01*
X120112548Y-124406843D01*
X120123209Y-124477035D01*
X120094229Y-124541848D01*
X120034809Y-124580704D01*
X120003302Y-124585996D01*
X119997787Y-124586213D01*
X119992944Y-124586403D01*
X119987999Y-124586500D01*
X118781865Y-124586500D01*
X118728611Y-124574693D01*
X118726947Y-124573917D01*
X118673664Y-124526998D01*
X118654205Y-124458720D01*
X118674749Y-124390761D01*
X118726951Y-124345529D01*
X118761511Y-124329414D01*
X118771007Y-124323931D01*
X118949467Y-124198972D01*
X118957875Y-124191916D01*
X119111916Y-124037875D01*
X119118972Y-124029467D01*
X119243931Y-123851007D01*
X119249414Y-123841511D01*
X119341490Y-123644053D01*
X119345236Y-123633761D01*
X119391394Y-123461497D01*
X119391058Y-123447401D01*
X119383116Y-123444000D01*
X117982000Y-123444000D01*
X117913879Y-123423998D01*
X117867386Y-123370342D01*
X117856000Y-123318000D01*
X117856000Y-123062000D01*
X117876002Y-122993879D01*
X117929658Y-122947386D01*
X117982000Y-122936000D01*
X119377967Y-122936000D01*
X119391498Y-122932027D01*
X119392727Y-122923478D01*
X119345236Y-122746239D01*
X119341490Y-122735947D01*
X119249414Y-122538489D01*
X119243931Y-122528993D01*
X119118972Y-122350533D01*
X119111916Y-122342125D01*
X118957875Y-122188084D01*
X118949467Y-122181028D01*
X118771007Y-122056069D01*
X118761511Y-122050586D01*
X118726951Y-122034471D01*
X118673666Y-121987554D01*
X118654205Y-121919277D01*
X118674747Y-121851317D01*
X118726951Y-121806081D01*
X118761762Y-121789849D01*
X118761767Y-121789846D01*
X118766749Y-121787523D01*
X118903294Y-121691913D01*
X118949789Y-121659357D01*
X118949792Y-121659355D01*
X118954300Y-121656198D01*
X119097593Y-121512905D01*
X119159905Y-121478879D01*
X119186688Y-121476000D01*
X120208312Y-121476000D01*
X120276433Y-121496002D01*
G37*
%TD.AperFunction*%
%TA.AperFunction,Conductor*%
G36*
X108033818Y-108097503D02*
G01*
X108080311Y-108151159D01*
X108090146Y-108183791D01*
X108090225Y-108184288D01*
X108090613Y-108189222D01*
X108091767Y-108194031D01*
X108091768Y-108194034D01*
X108098030Y-108220115D01*
X108146631Y-108422553D01*
X108148524Y-108427124D01*
X108148525Y-108427126D01*
X108167069Y-108471894D01*
X108238460Y-108644249D01*
X108363840Y-108848849D01*
X108380770Y-108868672D01*
X108409800Y-108933458D01*
X108399195Y-109003658D01*
X108352321Y-109056981D01*
X108284958Y-109076500D01*
X102541244Y-109076500D01*
X102473123Y-109056498D01*
X102426630Y-109002842D01*
X102418725Y-108979914D01*
X102387259Y-108848849D01*
X102364105Y-108752406D01*
X102347537Y-108712406D01*
X102275135Y-108537611D01*
X102275133Y-108537607D01*
X102273240Y-108533037D01*
X102246142Y-108488817D01*
X102151759Y-108334798D01*
X102151755Y-108334792D01*
X102149176Y-108330584D01*
X102110527Y-108285332D01*
X102081496Y-108220542D01*
X102092101Y-108150342D01*
X102138976Y-108097020D01*
X102206338Y-108077501D01*
X107965697Y-108077501D01*
X108033818Y-108097503D01*
G37*
%TD.AperFunction*%
%TD*%
M02*
