%TF.GenerationSoftware,KiCad,Pcbnew,(6.0.0-0)*%
%TF.CreationDate,2022-01-01T23:16:52+00:00*%
%TF.ProjectId,cgs348-vco-output-buffer,63677333-3438-42d7-9663-6f2d6f757470,rev?*%
%TF.SameCoordinates,Original*%
%TF.FileFunction,Copper,L2,Bot*%
%TF.FilePolarity,Positive*%
%FSLAX46Y46*%
G04 Gerber Fmt 4.6, Leading zero omitted, Abs format (unit mm)*
G04 Created by KiCad (PCBNEW (6.0.0-0)) date 2022-01-01 23:16:52*
%MOMM*%
%LPD*%
G01*
G04 APERTURE LIST*
G04 Aperture macros list*
%AMRoundRect*
0 Rectangle with rounded corners*
0 $1 Rounding radius*
0 $2 $3 $4 $5 $6 $7 $8 $9 X,Y pos of 4 corners*
0 Add a 4 corners polygon primitive as box body*
4,1,4,$2,$3,$4,$5,$6,$7,$8,$9,$2,$3,0*
0 Add four circle primitives for the rounded corners*
1,1,$1+$1,$2,$3*
1,1,$1+$1,$4,$5*
1,1,$1+$1,$6,$7*
1,1,$1+$1,$8,$9*
0 Add four rect primitives between the rounded corners*
20,1,$1+$1,$2,$3,$4,$5,0*
20,1,$1+$1,$4,$5,$6,$7,0*
20,1,$1+$1,$6,$7,$8,$9,0*
20,1,$1+$1,$8,$9,$2,$3,0*%
G04 Aperture macros list end*
%TA.AperFunction,ComponentPad*%
%ADD10C,1.600000*%
%TD*%
%TA.AperFunction,ComponentPad*%
%ADD11RoundRect,0.254000X0.762000X-0.762000X0.762000X0.762000X-0.762000X0.762000X-0.762000X-0.762000X0*%
%TD*%
%TA.AperFunction,ComponentPad*%
%ADD12RoundRect,0.254000X-0.762000X0.762000X-0.762000X-0.762000X0.762000X-0.762000X0.762000X0.762000X0*%
%TD*%
%TA.AperFunction,ComponentPad*%
%ADD13RoundRect,0.254000X0.762000X0.762000X-0.762000X0.762000X-0.762000X-0.762000X0.762000X-0.762000X0*%
%TD*%
%TA.AperFunction,ComponentPad*%
%ADD14C,2.032000*%
%TD*%
%TA.AperFunction,ComponentPad*%
%ADD15O,1.600000X1.600000*%
%TD*%
%TA.AperFunction,ComponentPad*%
%ADD16C,2.000000*%
%TD*%
%TA.AperFunction,ComponentPad*%
%ADD17R,1.600000X1.600000*%
%TD*%
%TA.AperFunction,ViaPad*%
%ADD18C,0.762000*%
%TD*%
%TA.AperFunction,Conductor*%
%ADD19C,1.270000*%
%TD*%
G04 APERTURE END LIST*
D10*
%TO.P,C1,1*%
%TO.N,Net-(C1-Pad1)*%
X126365000Y-137160000D03*
%TO.P,C1,2*%
%TO.N,Net-(C1-Pad2)*%
X121365000Y-137160000D03*
%TD*%
%TO.P,C2,1*%
%TO.N,Net-(C2-Pad1)*%
X100330000Y-136525000D03*
%TO.P,C2,2*%
%TO.N,Net-(C2-Pad2)*%
X105330000Y-136525000D03*
%TD*%
D11*
%TO.P,J1,1*%
%TO.N,Net-(J1-Pad1)*%
X134620000Y-130175000D03*
%TD*%
D12*
%TO.P,J2,1*%
%TO.N,Net-(J2-Pad1)*%
X93980000Y-130175000D03*
%TD*%
D11*
%TO.P,J3,1*%
%TO.N,Net-(J3-Pad1)*%
X134620000Y-118745000D03*
%TD*%
D12*
%TO.P,J4,1*%
%TO.N,Net-(J4-Pad1)*%
X93980000Y-117475000D03*
%TD*%
D13*
%TO.P,J5,1,Pin_1*%
%TO.N,+12V*%
X116205000Y-107950000D03*
D14*
%TO.P,J5,2,Pin_2*%
%TO.N,GND*%
X112903000Y-107950000D03*
%TO.P,J5,3,Pin_3*%
%TO.N,-12V*%
X109601000Y-107950000D03*
%TD*%
D10*
%TO.P,R1,1*%
%TO.N,Net-(J1-Pad1)*%
X131445000Y-130175000D03*
D15*
%TO.P,R1,2*%
%TO.N,Net-(C1-Pad1)*%
X121285000Y-130175000D03*
%TD*%
D10*
%TO.P,R2,1*%
%TO.N,Net-(J2-Pad1)*%
X97155000Y-130175000D03*
D15*
%TO.P,R2,2*%
%TO.N,Net-(C2-Pad1)*%
X107315000Y-130175000D03*
%TD*%
D10*
%TO.P,R3,1*%
%TO.N,Net-(C3-Pad1)*%
X131445000Y-133350000D03*
D15*
%TO.P,R3,2*%
%TO.N,Net-(C1-Pad2)*%
X121285000Y-133350000D03*
%TD*%
D10*
%TO.P,R4,1*%
%TO.N,Net-(C4-Pad1)*%
X97155000Y-133350000D03*
D15*
%TO.P,R4,2*%
%TO.N,Net-(C2-Pad2)*%
X107315000Y-133350000D03*
%TD*%
D10*
%TO.P,R5,1*%
%TO.N,Net-(R5-Pad1)*%
X131445000Y-120650000D03*
D15*
%TO.P,R5,2*%
%TO.N,Net-(C3-Pad1)*%
X121285000Y-120650000D03*
%TD*%
D10*
%TO.P,R6,1*%
%TO.N,Net-(R6-Pad1)*%
X97155000Y-120650000D03*
D15*
%TO.P,R6,2*%
%TO.N,Net-(C4-Pad1)*%
X107315000Y-120650000D03*
%TD*%
D10*
%TO.P,R7,1*%
%TO.N,Net-(C3-Pad2)*%
X131445000Y-123825000D03*
D15*
%TO.P,R7,2*%
%TO.N,Net-(C3-Pad1)*%
X121285000Y-123825000D03*
%TD*%
D10*
%TO.P,R8,1*%
%TO.N,Net-(C4-Pad2)*%
X97155000Y-123825000D03*
D15*
%TO.P,R8,2*%
%TO.N,Net-(C4-Pad1)*%
X107315000Y-123825000D03*
%TD*%
D16*
%TO.P,RV1,1,1*%
%TO.N,Net-(C1-Pad1)*%
X128825000Y-144145000D03*
%TO.P,RV1,2,2*%
%TO.N,Net-(C1-Pad2)*%
X126325000Y-146645000D03*
%TO.P,RV1,3,3*%
X123825000Y-144145000D03*
%TD*%
%TO.P,RV2,1,1*%
%TO.N,Net-(C2-Pad1)*%
X95290000Y-138470000D03*
%TO.P,RV2,2,2*%
%TO.N,Net-(C2-Pad2)*%
X97790000Y-140970000D03*
%TO.P,RV2,3,3*%
X95290000Y-143470000D03*
%TD*%
%TO.P,RV3,1,1*%
%TO.N,+12V*%
X128230000Y-109180000D03*
%TO.P,RV3,2,2*%
%TO.N,Net-(R5-Pad1)*%
X125730000Y-111680000D03*
%TO.P,RV3,3,3*%
%TO.N,-12V*%
X123230000Y-109180000D03*
%TD*%
%TO.P,RV4,1,1*%
%TO.N,+12V*%
X100925000Y-109220000D03*
%TO.P,RV4,2,2*%
%TO.N,Net-(R6-Pad1)*%
X98425000Y-111720000D03*
%TO.P,RV4,3,3*%
%TO.N,-12V*%
X95925000Y-109220000D03*
%TD*%
D17*
%TO.P,U1,1*%
%TO.N,Net-(C1-Pad2)*%
X118110000Y-133350000D03*
D15*
%TO.P,U1,2,-*%
%TO.N,Net-(C1-Pad1)*%
X118110000Y-130810000D03*
%TO.P,U1,3,+*%
%TO.N,GND*%
X118110000Y-128270000D03*
%TO.P,U1,4,V+*%
%TO.N,+12V*%
X118110000Y-125730000D03*
%TO.P,U1,5,+*%
%TO.N,GND*%
X118110000Y-123190000D03*
%TO.P,U1,6,-*%
%TO.N,Net-(C3-Pad1)*%
X118110000Y-120650000D03*
%TO.P,U1,7*%
%TO.N,Net-(C3-Pad2)*%
X118110000Y-118110000D03*
%TO.P,U1,8*%
%TO.N,Net-(C4-Pad2)*%
X110490000Y-118110000D03*
%TO.P,U1,9,-*%
%TO.N,Net-(C4-Pad1)*%
X110490000Y-120650000D03*
%TO.P,U1,10,+*%
%TO.N,GND*%
X110490000Y-123190000D03*
%TO.P,U1,11,V-*%
%TO.N,-12V*%
X110490000Y-125730000D03*
%TO.P,U1,12,+*%
%TO.N,GND*%
X110490000Y-128270000D03*
%TO.P,U1,13,-*%
%TO.N,Net-(C2-Pad1)*%
X110490000Y-130810000D03*
%TO.P,U1,14*%
%TO.N,Net-(C2-Pad2)*%
X110490000Y-133350000D03*
%TD*%
D10*
%TO.P,R9,1*%
%TO.N,Net-(J3-Pad1)*%
X131445000Y-117475000D03*
D15*
%TO.P,R9,2*%
%TO.N,Net-(C3-Pad2)*%
X121285000Y-117475000D03*
%TD*%
D10*
%TO.P,R10,1*%
%TO.N,Net-(J4-Pad1)*%
X97155000Y-117475000D03*
D15*
%TO.P,R10,2*%
%TO.N,Net-(C4-Pad2)*%
X107315000Y-117475000D03*
%TD*%
D10*
%TO.P,C5,1*%
%TO.N,+12V*%
X121285000Y-127000000D03*
%TO.P,C5,2*%
%TO.N,GND*%
X126285000Y-127000000D03*
%TD*%
%TO.P,C4,1*%
%TO.N,Net-(C4-Pad1)*%
X93980000Y-126285000D03*
%TO.P,C4,2*%
%TO.N,Net-(C4-Pad2)*%
X93980000Y-121285000D03*
%TD*%
%TO.P,C6,1*%
%TO.N,GND*%
X102315000Y-127000000D03*
%TO.P,C6,2*%
%TO.N,-12V*%
X107315000Y-127000000D03*
%TD*%
%TO.P,C3,1*%
%TO.N,Net-(C3-Pad1)*%
X134620000Y-126920000D03*
%TO.P,C3,2*%
%TO.N,Net-(C3-Pad2)*%
X134620000Y-121920000D03*
%TD*%
D18*
%TO.N,GND*%
X106045000Y-113538000D03*
X93599000Y-106045000D03*
X114173000Y-119507000D03*
X137541000Y-126111000D03*
X91186000Y-125984000D03*
X114300000Y-132715000D03*
X135763000Y-139065000D03*
X98933000Y-147955000D03*
X100584000Y-120523000D03*
X120269000Y-104013000D03*
X93472000Y-134366000D03*
X105283000Y-102616000D03*
X120777000Y-113665000D03*
X130937000Y-105537000D03*
X104013000Y-123571000D03*
X114173000Y-129286000D03*
X124587000Y-120650000D03*
X114173000Y-122301000D03*
X132334000Y-144018000D03*
X105664000Y-108585000D03*
%TD*%
D19*
%TO.N,-12V*%
X122555480Y-109854520D02*
X123230000Y-109180000D01*
X112178511Y-124041489D02*
X110490000Y-125730000D01*
X111505520Y-109854520D02*
X122555480Y-109854520D01*
X109601000Y-107950000D02*
X111505520Y-109854520D01*
X109601000Y-107950000D02*
X112178511Y-110527511D01*
X112178511Y-110527511D02*
X112178511Y-124041489D01*
%TD*%
%TA.AperFunction,Conductor*%
%TO.N,GND*%
G36*
X132685058Y-102109500D02*
G01*
X132699859Y-102111805D01*
X132699862Y-102111805D01*
X132708731Y-102113186D01*
X132714852Y-102112385D01*
X132781374Y-102132803D01*
X132827209Y-102187022D01*
X132835777Y-102228865D01*
X132836814Y-102228729D01*
X132840936Y-102260250D01*
X132842000Y-102276588D01*
X132842000Y-115516792D01*
X132840254Y-115537696D01*
X132836929Y-115557460D01*
X132836776Y-115569999D01*
X132838488Y-115581952D01*
X132839281Y-115588829D01*
X132855065Y-115769237D01*
X132856489Y-115774551D01*
X132856489Y-115774552D01*
X132903634Y-115950500D01*
X132906828Y-115962422D01*
X132909151Y-115967403D01*
X132909151Y-115967404D01*
X132989025Y-116138696D01*
X132989028Y-116138701D01*
X132991351Y-116143683D01*
X132994507Y-116148190D01*
X132994508Y-116148192D01*
X133095958Y-116293077D01*
X133106066Y-116307513D01*
X133247487Y-116448934D01*
X133251995Y-116452091D01*
X133251998Y-116452093D01*
X133346796Y-116518471D01*
X133411317Y-116563649D01*
X133416299Y-116565972D01*
X133416304Y-116565975D01*
X133555109Y-116630700D01*
X133592578Y-116648172D01*
X133597886Y-116649594D01*
X133597888Y-116649595D01*
X133751700Y-116690808D01*
X133785763Y-116699935D01*
X133791249Y-116700415D01*
X133791255Y-116700416D01*
X133945170Y-116713883D01*
X133955080Y-116715147D01*
X133972462Y-116718071D01*
X133978843Y-116718149D01*
X133980142Y-116718165D01*
X133980146Y-116718165D01*
X133985001Y-116718224D01*
X134012589Y-116714273D01*
X134030452Y-116713000D01*
X138761673Y-116713000D01*
X138781058Y-116714500D01*
X138795859Y-116716805D01*
X138795862Y-116716805D01*
X138804731Y-116718186D01*
X138810852Y-116717385D01*
X138877374Y-116737803D01*
X138923209Y-116792022D01*
X138931777Y-116833865D01*
X138932814Y-116833729D01*
X138936936Y-116865250D01*
X138938000Y-116881588D01*
X138938000Y-151715673D01*
X138936500Y-151735057D01*
X138932814Y-151758731D01*
X138933615Y-151764852D01*
X138913197Y-151831374D01*
X138858978Y-151877209D01*
X138817135Y-151885777D01*
X138817271Y-151886814D01*
X138785750Y-151890936D01*
X138769412Y-151892000D01*
X121334327Y-151892000D01*
X121314942Y-151890500D01*
X121300141Y-151888195D01*
X121300138Y-151888195D01*
X121291269Y-151886814D01*
X121285148Y-151887615D01*
X121218626Y-151867197D01*
X121172791Y-151812978D01*
X121164223Y-151771135D01*
X121163186Y-151771271D01*
X121159064Y-151739750D01*
X121158000Y-151723412D01*
X121158000Y-148722703D01*
X133780743Y-148722703D01*
X133818268Y-149007734D01*
X133894129Y-149285036D01*
X134006923Y-149549476D01*
X134154561Y-149796161D01*
X134334313Y-150020528D01*
X134542851Y-150218423D01*
X134776317Y-150386186D01*
X134780112Y-150388195D01*
X134780113Y-150388196D01*
X134801869Y-150399715D01*
X135030392Y-150520712D01*
X135300373Y-150619511D01*
X135581264Y-150680755D01*
X135609841Y-150683004D01*
X135804282Y-150698307D01*
X135804291Y-150698307D01*
X135806739Y-150698500D01*
X135962271Y-150698500D01*
X135964407Y-150698354D01*
X135964418Y-150698354D01*
X136172548Y-150684165D01*
X136172554Y-150684164D01*
X136176825Y-150683873D01*
X136181020Y-150683004D01*
X136181022Y-150683004D01*
X136317584Y-150654723D01*
X136458342Y-150625574D01*
X136729343Y-150529607D01*
X136984812Y-150397750D01*
X136988313Y-150395289D01*
X136988317Y-150395287D01*
X137102418Y-150315095D01*
X137220023Y-150232441D01*
X137430622Y-150036740D01*
X137612713Y-149814268D01*
X137762927Y-149569142D01*
X137878483Y-149305898D01*
X137957244Y-149029406D01*
X137997751Y-148744784D01*
X137997845Y-148726951D01*
X137999235Y-148461583D01*
X137999235Y-148461576D01*
X137999257Y-148457297D01*
X137961732Y-148172266D01*
X137957875Y-148158165D01*
X137937096Y-148082211D01*
X137885871Y-147894964D01*
X137873502Y-147865965D01*
X137774763Y-147634476D01*
X137774761Y-147634472D01*
X137773077Y-147630524D01*
X137625439Y-147383839D01*
X137445687Y-147159472D01*
X137237149Y-146961577D01*
X137003683Y-146793814D01*
X136981843Y-146782250D01*
X136958654Y-146769972D01*
X136749608Y-146659288D01*
X136479627Y-146560489D01*
X136198736Y-146499245D01*
X136167685Y-146496801D01*
X135975718Y-146481693D01*
X135975709Y-146481693D01*
X135973261Y-146481500D01*
X135817729Y-146481500D01*
X135815593Y-146481646D01*
X135815582Y-146481646D01*
X135607452Y-146495835D01*
X135607446Y-146495836D01*
X135603175Y-146496127D01*
X135598980Y-146496996D01*
X135598978Y-146496996D01*
X135462417Y-146525276D01*
X135321658Y-146554426D01*
X135050657Y-146650393D01*
X134795188Y-146782250D01*
X134791687Y-146784711D01*
X134791683Y-146784713D01*
X134781594Y-146791804D01*
X134559977Y-146947559D01*
X134349378Y-147143260D01*
X134167287Y-147365732D01*
X134017073Y-147610858D01*
X133901517Y-147874102D01*
X133822756Y-148150594D01*
X133782249Y-148435216D01*
X133782227Y-148439505D01*
X133782226Y-148439512D01*
X133780765Y-148718417D01*
X133780743Y-148722703D01*
X121158000Y-148722703D01*
X121158000Y-146645000D01*
X124811835Y-146645000D01*
X124830465Y-146881711D01*
X124831619Y-146886518D01*
X124831620Y-146886524D01*
X124846974Y-146950478D01*
X124885895Y-147112594D01*
X124887788Y-147117165D01*
X124887789Y-147117167D01*
X124906697Y-147162814D01*
X124976760Y-147331963D01*
X124979346Y-147336183D01*
X125098241Y-147530202D01*
X125098245Y-147530208D01*
X125100824Y-147534416D01*
X125255031Y-147714969D01*
X125435584Y-147869176D01*
X125439792Y-147871755D01*
X125439798Y-147871759D01*
X125633817Y-147990654D01*
X125638037Y-147993240D01*
X125642607Y-147995133D01*
X125642611Y-147995135D01*
X125852833Y-148082211D01*
X125857406Y-148084105D01*
X125937609Y-148103360D01*
X126083476Y-148138380D01*
X126083482Y-148138381D01*
X126088289Y-148139535D01*
X126325000Y-148158165D01*
X126561711Y-148139535D01*
X126566518Y-148138381D01*
X126566524Y-148138380D01*
X126712391Y-148103360D01*
X126792594Y-148084105D01*
X126797167Y-148082211D01*
X127007389Y-147995135D01*
X127007393Y-147995133D01*
X127011963Y-147993240D01*
X127016183Y-147990654D01*
X127210202Y-147871759D01*
X127210208Y-147871755D01*
X127214416Y-147869176D01*
X127394969Y-147714969D01*
X127549176Y-147534416D01*
X127551755Y-147530208D01*
X127551759Y-147530202D01*
X127670654Y-147336183D01*
X127673240Y-147331963D01*
X127743304Y-147162814D01*
X127762211Y-147117167D01*
X127762212Y-147117165D01*
X127764105Y-147112594D01*
X127803026Y-146950478D01*
X127818380Y-146886524D01*
X127818381Y-146886518D01*
X127819535Y-146881711D01*
X127838165Y-146645000D01*
X127819535Y-146408289D01*
X127764105Y-146177406D01*
X127673240Y-145958037D01*
X127670654Y-145953817D01*
X127551759Y-145759798D01*
X127551755Y-145759792D01*
X127549176Y-145755584D01*
X127394969Y-145575031D01*
X127214416Y-145420824D01*
X127210208Y-145418245D01*
X127210202Y-145418241D01*
X127016183Y-145299346D01*
X127011963Y-145296760D01*
X127007393Y-145294867D01*
X127007389Y-145294865D01*
X126797167Y-145207789D01*
X126797165Y-145207788D01*
X126792594Y-145205895D01*
X126712391Y-145186640D01*
X126566524Y-145151620D01*
X126566518Y-145151619D01*
X126561711Y-145150465D01*
X126325000Y-145131835D01*
X126088289Y-145150465D01*
X126083482Y-145151619D01*
X126083476Y-145151620D01*
X125937609Y-145186640D01*
X125857406Y-145205895D01*
X125852835Y-145207788D01*
X125852833Y-145207789D01*
X125642611Y-145294865D01*
X125642607Y-145294867D01*
X125638037Y-145296760D01*
X125633817Y-145299346D01*
X125439798Y-145418241D01*
X125439792Y-145418245D01*
X125435584Y-145420824D01*
X125255031Y-145575031D01*
X125100824Y-145755584D01*
X125098245Y-145759792D01*
X125098241Y-145759798D01*
X124979346Y-145953817D01*
X124976760Y-145958037D01*
X124885895Y-146177406D01*
X124830465Y-146408289D01*
X124811835Y-146645000D01*
X121158000Y-146645000D01*
X121158000Y-144145000D01*
X122311835Y-144145000D01*
X122330465Y-144381711D01*
X122385895Y-144612594D01*
X122387788Y-144617165D01*
X122387789Y-144617167D01*
X122471861Y-144820135D01*
X122476760Y-144831963D01*
X122479346Y-144836183D01*
X122598241Y-145030202D01*
X122598245Y-145030208D01*
X122600824Y-145034416D01*
X122755031Y-145214969D01*
X122935584Y-145369176D01*
X122939792Y-145371755D01*
X122939798Y-145371759D01*
X123015650Y-145418241D01*
X123138037Y-145493240D01*
X123142607Y-145495133D01*
X123142611Y-145495135D01*
X123327754Y-145571823D01*
X123357406Y-145584105D01*
X123437609Y-145603360D01*
X123583476Y-145638380D01*
X123583482Y-145638381D01*
X123588289Y-145639535D01*
X123825000Y-145658165D01*
X124061711Y-145639535D01*
X124066518Y-145638381D01*
X124066524Y-145638380D01*
X124212391Y-145603360D01*
X124292594Y-145584105D01*
X124322246Y-145571823D01*
X124507389Y-145495135D01*
X124507393Y-145495133D01*
X124511963Y-145493240D01*
X124634350Y-145418241D01*
X124710202Y-145371759D01*
X124710208Y-145371755D01*
X124714416Y-145369176D01*
X124894969Y-145214969D01*
X125049176Y-145034416D01*
X125051755Y-145030208D01*
X125051759Y-145030202D01*
X125170654Y-144836183D01*
X125173240Y-144831963D01*
X125178140Y-144820135D01*
X125262211Y-144617167D01*
X125262212Y-144617165D01*
X125264105Y-144612594D01*
X125319535Y-144381711D01*
X125338165Y-144145000D01*
X127311835Y-144145000D01*
X127330465Y-144381711D01*
X127385895Y-144612594D01*
X127387788Y-144617165D01*
X127387789Y-144617167D01*
X127471861Y-144820135D01*
X127476760Y-144831963D01*
X127479346Y-144836183D01*
X127598241Y-145030202D01*
X127598245Y-145030208D01*
X127600824Y-145034416D01*
X127755031Y-145214969D01*
X127935584Y-145369176D01*
X127939792Y-145371755D01*
X127939798Y-145371759D01*
X128015650Y-145418241D01*
X128138037Y-145493240D01*
X128142607Y-145495133D01*
X128142611Y-145495135D01*
X128327754Y-145571823D01*
X128357406Y-145584105D01*
X128437609Y-145603360D01*
X128583476Y-145638380D01*
X128583482Y-145638381D01*
X128588289Y-145639535D01*
X128825000Y-145658165D01*
X129061711Y-145639535D01*
X129066518Y-145638381D01*
X129066524Y-145638380D01*
X129212391Y-145603360D01*
X129292594Y-145584105D01*
X129322246Y-145571823D01*
X129507389Y-145495135D01*
X129507393Y-145495133D01*
X129511963Y-145493240D01*
X129634350Y-145418241D01*
X129710202Y-145371759D01*
X129710208Y-145371755D01*
X129714416Y-145369176D01*
X129894969Y-145214969D01*
X130049176Y-145034416D01*
X130051755Y-145030208D01*
X130051759Y-145030202D01*
X130170654Y-144836183D01*
X130173240Y-144831963D01*
X130178140Y-144820135D01*
X130262211Y-144617167D01*
X130262212Y-144617165D01*
X130264105Y-144612594D01*
X130319535Y-144381711D01*
X130338165Y-144145000D01*
X130319535Y-143908289D01*
X130264105Y-143677406D01*
X130262211Y-143672833D01*
X130175135Y-143462611D01*
X130175133Y-143462607D01*
X130173240Y-143458037D01*
X130170654Y-143453817D01*
X130051759Y-143259798D01*
X130051755Y-143259792D01*
X130049176Y-143255584D01*
X129894969Y-143075031D01*
X129714416Y-142920824D01*
X129710208Y-142918245D01*
X129710202Y-142918241D01*
X129516183Y-142799346D01*
X129511963Y-142796760D01*
X129507393Y-142794867D01*
X129507389Y-142794865D01*
X129297167Y-142707789D01*
X129297165Y-142707788D01*
X129292594Y-142705895D01*
X129212391Y-142686640D01*
X129066524Y-142651620D01*
X129066518Y-142651619D01*
X129061711Y-142650465D01*
X128825000Y-142631835D01*
X128588289Y-142650465D01*
X128583482Y-142651619D01*
X128583476Y-142651620D01*
X128437609Y-142686640D01*
X128357406Y-142705895D01*
X128352835Y-142707788D01*
X128352833Y-142707789D01*
X128142611Y-142794865D01*
X128142607Y-142794867D01*
X128138037Y-142796760D01*
X128133817Y-142799346D01*
X127939798Y-142918241D01*
X127939792Y-142918245D01*
X127935584Y-142920824D01*
X127755031Y-143075031D01*
X127600824Y-143255584D01*
X127598245Y-143259792D01*
X127598241Y-143259798D01*
X127479346Y-143453817D01*
X127476760Y-143458037D01*
X127474867Y-143462607D01*
X127474865Y-143462611D01*
X127387789Y-143672833D01*
X127385895Y-143677406D01*
X127330465Y-143908289D01*
X127311835Y-144145000D01*
X125338165Y-144145000D01*
X125319535Y-143908289D01*
X125264105Y-143677406D01*
X125262211Y-143672833D01*
X125175135Y-143462611D01*
X125175133Y-143462607D01*
X125173240Y-143458037D01*
X125170654Y-143453817D01*
X125051759Y-143259798D01*
X125051755Y-143259792D01*
X125049176Y-143255584D01*
X124894969Y-143075031D01*
X124714416Y-142920824D01*
X124710208Y-142918245D01*
X124710202Y-142918241D01*
X124516183Y-142799346D01*
X124511963Y-142796760D01*
X124507393Y-142794867D01*
X124507389Y-142794865D01*
X124297167Y-142707789D01*
X124297165Y-142707788D01*
X124292594Y-142705895D01*
X124212391Y-142686640D01*
X124066524Y-142651620D01*
X124066518Y-142651619D01*
X124061711Y-142650465D01*
X123825000Y-142631835D01*
X123588289Y-142650465D01*
X123583482Y-142651619D01*
X123583476Y-142651620D01*
X123437609Y-142686640D01*
X123357406Y-142705895D01*
X123352835Y-142707788D01*
X123352833Y-142707789D01*
X123142611Y-142794865D01*
X123142607Y-142794867D01*
X123138037Y-142796760D01*
X123133817Y-142799346D01*
X122939798Y-142918241D01*
X122939792Y-142918245D01*
X122935584Y-142920824D01*
X122755031Y-143075031D01*
X122600824Y-143255584D01*
X122598245Y-143259792D01*
X122598241Y-143259798D01*
X122479346Y-143453817D01*
X122476760Y-143458037D01*
X122474867Y-143462607D01*
X122474865Y-143462611D01*
X122387789Y-143672833D01*
X122385895Y-143677406D01*
X122330465Y-143908289D01*
X122311835Y-144145000D01*
X121158000Y-144145000D01*
X121158000Y-140388208D01*
X121159746Y-140367304D01*
X121162264Y-140352336D01*
X121163071Y-140347540D01*
X121163224Y-140335001D01*
X121161511Y-140323040D01*
X121160719Y-140316171D01*
X121145414Y-140141243D01*
X121144935Y-140135763D01*
X121093172Y-139942578D01*
X121078102Y-139910260D01*
X121010975Y-139766304D01*
X121010972Y-139766299D01*
X121008649Y-139761317D01*
X120963445Y-139696759D01*
X120897093Y-139601998D01*
X120897091Y-139601995D01*
X120893934Y-139597487D01*
X120752513Y-139456066D01*
X120748005Y-139452909D01*
X120748002Y-139452907D01*
X120593192Y-139344508D01*
X120593190Y-139344507D01*
X120588683Y-139341351D01*
X120583701Y-139339028D01*
X120583696Y-139339025D01*
X120412404Y-139259151D01*
X120412403Y-139259151D01*
X120407422Y-139256828D01*
X120402114Y-139255406D01*
X120402112Y-139255405D01*
X120219552Y-139206489D01*
X120219551Y-139206489D01*
X120214237Y-139205065D01*
X120208751Y-139204585D01*
X120208745Y-139204584D01*
X120054830Y-139191117D01*
X120044920Y-139189853D01*
X120027538Y-139186929D01*
X120021157Y-139186851D01*
X120019858Y-139186835D01*
X120019854Y-139186835D01*
X120014999Y-139186776D01*
X119990714Y-139190254D01*
X119987411Y-139190727D01*
X119969548Y-139192000D01*
X102288208Y-139192000D01*
X102267304Y-139190254D01*
X102259737Y-139188981D01*
X102247540Y-139186929D01*
X102241242Y-139186852D01*
X102239861Y-139186835D01*
X102239857Y-139186835D01*
X102235001Y-139186776D01*
X102223040Y-139188489D01*
X102216171Y-139189281D01*
X102138636Y-139196065D01*
X102035763Y-139205065D01*
X102030449Y-139206489D01*
X102030448Y-139206489D01*
X101847888Y-139255405D01*
X101847886Y-139255406D01*
X101842578Y-139256828D01*
X101837597Y-139259151D01*
X101837596Y-139259151D01*
X101666304Y-139339025D01*
X101666299Y-139339028D01*
X101661317Y-139341351D01*
X101656810Y-139344507D01*
X101656808Y-139344508D01*
X101501998Y-139452907D01*
X101501995Y-139452909D01*
X101497487Y-139456066D01*
X101356066Y-139597487D01*
X101352909Y-139601995D01*
X101352907Y-139601998D01*
X101286555Y-139696759D01*
X101241351Y-139761317D01*
X101239028Y-139766299D01*
X101239025Y-139766304D01*
X101171898Y-139910260D01*
X101156828Y-139942578D01*
X101105065Y-140135763D01*
X101104586Y-140141243D01*
X101104584Y-140141255D01*
X101091117Y-140295170D01*
X101089853Y-140305080D01*
X101086929Y-140322462D01*
X101086776Y-140335001D01*
X101087466Y-140339816D01*
X101090727Y-140362589D01*
X101092000Y-140380452D01*
X101092000Y-151715673D01*
X101090500Y-151735057D01*
X101086814Y-151758731D01*
X101087615Y-151764852D01*
X101067197Y-151831374D01*
X101012978Y-151877209D01*
X100971135Y-151885777D01*
X100971271Y-151886814D01*
X100939750Y-151890936D01*
X100923412Y-151892000D01*
X89838327Y-151892000D01*
X89818942Y-151890500D01*
X89804141Y-151888195D01*
X89804138Y-151888195D01*
X89795269Y-151886814D01*
X89789148Y-151887615D01*
X89722626Y-151867197D01*
X89676791Y-151812978D01*
X89668223Y-151771135D01*
X89667186Y-151771271D01*
X89663064Y-151739750D01*
X89662000Y-151723412D01*
X89662000Y-148722703D01*
X90600743Y-148722703D01*
X90638268Y-149007734D01*
X90714129Y-149285036D01*
X90826923Y-149549476D01*
X90974561Y-149796161D01*
X91154313Y-150020528D01*
X91362851Y-150218423D01*
X91596317Y-150386186D01*
X91600112Y-150388195D01*
X91600113Y-150388196D01*
X91621869Y-150399715D01*
X91850392Y-150520712D01*
X92120373Y-150619511D01*
X92401264Y-150680755D01*
X92429841Y-150683004D01*
X92624282Y-150698307D01*
X92624291Y-150698307D01*
X92626739Y-150698500D01*
X92782271Y-150698500D01*
X92784407Y-150698354D01*
X92784418Y-150698354D01*
X92992548Y-150684165D01*
X92992554Y-150684164D01*
X92996825Y-150683873D01*
X93001020Y-150683004D01*
X93001022Y-150683004D01*
X93137584Y-150654723D01*
X93278342Y-150625574D01*
X93549343Y-150529607D01*
X93804812Y-150397750D01*
X93808313Y-150395289D01*
X93808317Y-150395287D01*
X93922418Y-150315095D01*
X94040023Y-150232441D01*
X94250622Y-150036740D01*
X94432713Y-149814268D01*
X94582927Y-149569142D01*
X94698483Y-149305898D01*
X94777244Y-149029406D01*
X94817751Y-148744784D01*
X94817845Y-148726951D01*
X94819235Y-148461583D01*
X94819235Y-148461576D01*
X94819257Y-148457297D01*
X94781732Y-148172266D01*
X94777875Y-148158165D01*
X94757096Y-148082211D01*
X94705871Y-147894964D01*
X94693502Y-147865965D01*
X94594763Y-147634476D01*
X94594761Y-147634472D01*
X94593077Y-147630524D01*
X94445439Y-147383839D01*
X94265687Y-147159472D01*
X94057149Y-146961577D01*
X93823683Y-146793814D01*
X93801843Y-146782250D01*
X93778654Y-146769972D01*
X93569608Y-146659288D01*
X93299627Y-146560489D01*
X93018736Y-146499245D01*
X92987685Y-146496801D01*
X92795718Y-146481693D01*
X92795709Y-146481693D01*
X92793261Y-146481500D01*
X92637729Y-146481500D01*
X92635593Y-146481646D01*
X92635582Y-146481646D01*
X92427452Y-146495835D01*
X92427446Y-146495836D01*
X92423175Y-146496127D01*
X92418980Y-146496996D01*
X92418978Y-146496996D01*
X92282417Y-146525276D01*
X92141658Y-146554426D01*
X91870657Y-146650393D01*
X91615188Y-146782250D01*
X91611687Y-146784711D01*
X91611683Y-146784713D01*
X91601594Y-146791804D01*
X91379977Y-146947559D01*
X91169378Y-147143260D01*
X90987287Y-147365732D01*
X90837073Y-147610858D01*
X90721517Y-147874102D01*
X90642756Y-148150594D01*
X90602249Y-148435216D01*
X90602227Y-148439505D01*
X90602226Y-148439512D01*
X90600765Y-148718417D01*
X90600743Y-148722703D01*
X89662000Y-148722703D01*
X89662000Y-143470000D01*
X93776835Y-143470000D01*
X93795465Y-143706711D01*
X93850895Y-143937594D01*
X93852788Y-143942165D01*
X93852789Y-143942167D01*
X93938847Y-144149930D01*
X93941760Y-144156963D01*
X93944346Y-144161183D01*
X94063241Y-144355202D01*
X94063245Y-144355208D01*
X94065824Y-144359416D01*
X94220031Y-144539969D01*
X94400584Y-144694176D01*
X94404792Y-144696755D01*
X94404798Y-144696759D01*
X94598817Y-144815654D01*
X94603037Y-144818240D01*
X94607607Y-144820133D01*
X94607611Y-144820135D01*
X94817833Y-144907211D01*
X94822406Y-144909105D01*
X94902609Y-144928360D01*
X95048476Y-144963380D01*
X95048482Y-144963381D01*
X95053289Y-144964535D01*
X95290000Y-144983165D01*
X95526711Y-144964535D01*
X95531518Y-144963381D01*
X95531524Y-144963380D01*
X95677391Y-144928360D01*
X95757594Y-144909105D01*
X95762167Y-144907211D01*
X95972389Y-144820135D01*
X95972393Y-144820133D01*
X95976963Y-144818240D01*
X95981183Y-144815654D01*
X96175202Y-144696759D01*
X96175208Y-144696755D01*
X96179416Y-144694176D01*
X96359969Y-144539969D01*
X96514176Y-144359416D01*
X96516755Y-144355208D01*
X96516759Y-144355202D01*
X96635654Y-144161183D01*
X96638240Y-144156963D01*
X96641154Y-144149930D01*
X96727211Y-143942167D01*
X96727212Y-143942165D01*
X96729105Y-143937594D01*
X96784535Y-143706711D01*
X96803165Y-143470000D01*
X96784535Y-143233289D01*
X96729105Y-143002406D01*
X96694243Y-142918241D01*
X96640135Y-142787611D01*
X96640133Y-142787607D01*
X96638240Y-142783037D01*
X96590967Y-142705895D01*
X96516759Y-142584798D01*
X96516755Y-142584792D01*
X96514176Y-142580584D01*
X96359969Y-142400031D01*
X96179416Y-142245824D01*
X96175208Y-142243245D01*
X96175202Y-142243241D01*
X95981183Y-142124346D01*
X95976963Y-142121760D01*
X95972393Y-142119867D01*
X95972389Y-142119865D01*
X95762167Y-142032789D01*
X95762165Y-142032788D01*
X95757594Y-142030895D01*
X95677391Y-142011640D01*
X95531524Y-141976620D01*
X95531518Y-141976619D01*
X95526711Y-141975465D01*
X95290000Y-141956835D01*
X95053289Y-141975465D01*
X95048482Y-141976619D01*
X95048476Y-141976620D01*
X94902609Y-142011640D01*
X94822406Y-142030895D01*
X94817835Y-142032788D01*
X94817833Y-142032789D01*
X94607611Y-142119865D01*
X94607607Y-142119867D01*
X94603037Y-142121760D01*
X94598817Y-142124346D01*
X94404798Y-142243241D01*
X94404792Y-142243245D01*
X94400584Y-142245824D01*
X94220031Y-142400031D01*
X94065824Y-142580584D01*
X94063245Y-142584792D01*
X94063241Y-142584798D01*
X93989033Y-142705895D01*
X93941760Y-142783037D01*
X93939867Y-142787607D01*
X93939865Y-142787611D01*
X93885757Y-142918241D01*
X93850895Y-143002406D01*
X93795465Y-143233289D01*
X93776835Y-143470000D01*
X89662000Y-143470000D01*
X89662000Y-140970000D01*
X96276835Y-140970000D01*
X96295465Y-141206711D01*
X96350895Y-141437594D01*
X96441760Y-141656963D01*
X96444346Y-141661183D01*
X96563241Y-141855202D01*
X96563245Y-141855208D01*
X96565824Y-141859416D01*
X96720031Y-142039969D01*
X96900584Y-142194176D01*
X96904792Y-142196755D01*
X96904798Y-142196759D01*
X96980650Y-142243241D01*
X97103037Y-142318240D01*
X97107607Y-142320133D01*
X97107611Y-142320135D01*
X97292754Y-142396823D01*
X97322406Y-142409105D01*
X97402609Y-142428360D01*
X97548476Y-142463380D01*
X97548482Y-142463381D01*
X97553289Y-142464535D01*
X97790000Y-142483165D01*
X98026711Y-142464535D01*
X98031518Y-142463381D01*
X98031524Y-142463380D01*
X98177391Y-142428360D01*
X98257594Y-142409105D01*
X98287246Y-142396823D01*
X98472389Y-142320135D01*
X98472393Y-142320133D01*
X98476963Y-142318240D01*
X98599350Y-142243241D01*
X98675202Y-142196759D01*
X98675208Y-142196755D01*
X98679416Y-142194176D01*
X98859969Y-142039969D01*
X99014176Y-141859416D01*
X99016755Y-141855208D01*
X99016759Y-141855202D01*
X99135654Y-141661183D01*
X99138240Y-141656963D01*
X99229105Y-141437594D01*
X99284535Y-141206711D01*
X99303165Y-140970000D01*
X99284535Y-140733289D01*
X99229105Y-140502406D01*
X99181803Y-140388208D01*
X99140135Y-140287611D01*
X99140133Y-140287607D01*
X99138240Y-140283037D01*
X99135654Y-140278817D01*
X99016759Y-140084798D01*
X99016755Y-140084792D01*
X99014176Y-140080584D01*
X98859969Y-139900031D01*
X98679416Y-139745824D01*
X98675208Y-139743245D01*
X98675202Y-139743241D01*
X98481183Y-139624346D01*
X98476963Y-139621760D01*
X98472393Y-139619867D01*
X98472389Y-139619865D01*
X98262167Y-139532789D01*
X98262165Y-139532788D01*
X98257594Y-139530895D01*
X98177391Y-139511640D01*
X98031524Y-139476620D01*
X98031518Y-139476619D01*
X98026711Y-139475465D01*
X97790000Y-139456835D01*
X97553289Y-139475465D01*
X97548482Y-139476619D01*
X97548476Y-139476620D01*
X97402609Y-139511640D01*
X97322406Y-139530895D01*
X97317835Y-139532788D01*
X97317833Y-139532789D01*
X97107611Y-139619865D01*
X97107607Y-139619867D01*
X97103037Y-139621760D01*
X97098817Y-139624346D01*
X96904798Y-139743241D01*
X96904792Y-139743245D01*
X96900584Y-139745824D01*
X96720031Y-139900031D01*
X96565824Y-140080584D01*
X96563245Y-140084792D01*
X96563241Y-140084798D01*
X96444346Y-140278817D01*
X96441760Y-140283037D01*
X96439867Y-140287607D01*
X96439865Y-140287611D01*
X96398197Y-140388208D01*
X96350895Y-140502406D01*
X96295465Y-140733289D01*
X96276835Y-140970000D01*
X89662000Y-140970000D01*
X89662000Y-138470000D01*
X93776835Y-138470000D01*
X93795465Y-138706711D01*
X93850895Y-138937594D01*
X93941760Y-139156963D01*
X93944346Y-139161183D01*
X94063241Y-139355202D01*
X94063245Y-139355208D01*
X94065824Y-139359416D01*
X94220031Y-139539969D01*
X94400584Y-139694176D01*
X94404792Y-139696755D01*
X94404798Y-139696759D01*
X94598817Y-139815654D01*
X94603037Y-139818240D01*
X94607607Y-139820133D01*
X94607611Y-139820135D01*
X94792754Y-139896823D01*
X94822406Y-139909105D01*
X94902609Y-139928360D01*
X95048476Y-139963380D01*
X95048482Y-139963381D01*
X95053289Y-139964535D01*
X95290000Y-139983165D01*
X95526711Y-139964535D01*
X95531518Y-139963381D01*
X95531524Y-139963380D01*
X95677391Y-139928360D01*
X95757594Y-139909105D01*
X95787246Y-139896823D01*
X95972389Y-139820135D01*
X95972393Y-139820133D01*
X95976963Y-139818240D01*
X95981183Y-139815654D01*
X96175202Y-139696759D01*
X96175208Y-139696755D01*
X96179416Y-139694176D01*
X96359969Y-139539969D01*
X96514176Y-139359416D01*
X96516755Y-139355208D01*
X96516759Y-139355202D01*
X96635654Y-139161183D01*
X96638240Y-139156963D01*
X96729105Y-138937594D01*
X96784535Y-138706711D01*
X96803165Y-138470000D01*
X96784535Y-138233289D01*
X96769187Y-138169357D01*
X96730260Y-138007218D01*
X96729105Y-138002406D01*
X96661014Y-137838019D01*
X96640135Y-137787611D01*
X96640133Y-137787607D01*
X96638240Y-137783037D01*
X96562454Y-137659366D01*
X96516759Y-137584798D01*
X96516755Y-137584792D01*
X96514176Y-137580584D01*
X96359969Y-137400031D01*
X96352208Y-137393402D01*
X96318706Y-137364789D01*
X96179416Y-137245824D01*
X96175208Y-137243245D01*
X96175202Y-137243241D01*
X95981183Y-137124346D01*
X95976963Y-137121760D01*
X95972393Y-137119867D01*
X95972389Y-137119865D01*
X95762167Y-137032789D01*
X95762165Y-137032788D01*
X95757594Y-137030895D01*
X95677391Y-137011640D01*
X95531524Y-136976620D01*
X95531518Y-136976619D01*
X95526711Y-136975465D01*
X95290000Y-136956835D01*
X95053289Y-136975465D01*
X95048482Y-136976619D01*
X95048476Y-136976620D01*
X94902609Y-137011640D01*
X94822406Y-137030895D01*
X94817835Y-137032788D01*
X94817833Y-137032789D01*
X94607611Y-137119865D01*
X94607607Y-137119867D01*
X94603037Y-137121760D01*
X94598817Y-137124346D01*
X94404798Y-137243241D01*
X94404792Y-137243245D01*
X94400584Y-137245824D01*
X94261294Y-137364789D01*
X94227793Y-137393402D01*
X94220031Y-137400031D01*
X94065824Y-137580584D01*
X94063245Y-137584792D01*
X94063241Y-137584798D01*
X94017546Y-137659366D01*
X93941760Y-137783037D01*
X93939867Y-137787607D01*
X93939865Y-137787611D01*
X93918986Y-137838019D01*
X93850895Y-138002406D01*
X93849740Y-138007218D01*
X93810814Y-138169357D01*
X93795465Y-138233289D01*
X93776835Y-138470000D01*
X89662000Y-138470000D01*
X89662000Y-136525000D01*
X99016502Y-136525000D01*
X99036457Y-136753087D01*
X99037881Y-136758400D01*
X99037881Y-136758402D01*
X99091052Y-136956835D01*
X99095716Y-136974243D01*
X99098039Y-136979224D01*
X99098039Y-136979225D01*
X99190151Y-137176762D01*
X99190154Y-137176767D01*
X99192477Y-137181749D01*
X99323802Y-137369300D01*
X99485700Y-137531198D01*
X99490208Y-137534355D01*
X99490211Y-137534357D01*
X99568389Y-137589098D01*
X99673251Y-137662523D01*
X99678233Y-137664846D01*
X99678238Y-137664849D01*
X99875775Y-137756961D01*
X99880757Y-137759284D01*
X99886065Y-137760706D01*
X99886067Y-137760707D01*
X100096598Y-137817119D01*
X100096600Y-137817119D01*
X100101913Y-137818543D01*
X100330000Y-137838498D01*
X100558087Y-137818543D01*
X100563400Y-137817119D01*
X100563402Y-137817119D01*
X100773933Y-137760707D01*
X100773935Y-137760706D01*
X100779243Y-137759284D01*
X100784225Y-137756961D01*
X100981762Y-137664849D01*
X100981767Y-137664846D01*
X100986749Y-137662523D01*
X101091611Y-137589098D01*
X101169789Y-137534357D01*
X101169792Y-137534355D01*
X101174300Y-137531198D01*
X101336198Y-137369300D01*
X101467523Y-137181749D01*
X101469846Y-137176767D01*
X101469849Y-137176762D01*
X101561961Y-136979225D01*
X101561961Y-136979224D01*
X101564284Y-136974243D01*
X101568949Y-136956835D01*
X101622119Y-136758402D01*
X101622119Y-136758400D01*
X101623543Y-136753087D01*
X101643498Y-136525000D01*
X104016502Y-136525000D01*
X104036457Y-136753087D01*
X104037881Y-136758400D01*
X104037881Y-136758402D01*
X104091052Y-136956835D01*
X104095716Y-136974243D01*
X104098039Y-136979224D01*
X104098039Y-136979225D01*
X104190151Y-137176762D01*
X104190154Y-137176767D01*
X104192477Y-137181749D01*
X104323802Y-137369300D01*
X104485700Y-137531198D01*
X104490208Y-137534355D01*
X104490211Y-137534357D01*
X104568389Y-137589098D01*
X104673251Y-137662523D01*
X104678233Y-137664846D01*
X104678238Y-137664849D01*
X104875775Y-137756961D01*
X104880757Y-137759284D01*
X104886065Y-137760706D01*
X104886067Y-137760707D01*
X105096598Y-137817119D01*
X105096600Y-137817119D01*
X105101913Y-137818543D01*
X105330000Y-137838498D01*
X105558087Y-137818543D01*
X105563400Y-137817119D01*
X105563402Y-137817119D01*
X105773933Y-137760707D01*
X105773935Y-137760706D01*
X105779243Y-137759284D01*
X105784225Y-137756961D01*
X105981762Y-137664849D01*
X105981767Y-137664846D01*
X105986749Y-137662523D01*
X106091611Y-137589098D01*
X106169789Y-137534357D01*
X106169792Y-137534355D01*
X106174300Y-137531198D01*
X106336198Y-137369300D01*
X106467523Y-137181749D01*
X106469846Y-137176767D01*
X106469849Y-137176762D01*
X106477665Y-137160000D01*
X120051502Y-137160000D01*
X120071457Y-137388087D01*
X120072881Y-137393400D01*
X120072881Y-137393402D01*
X120122030Y-137576825D01*
X120130716Y-137609243D01*
X120133039Y-137614224D01*
X120133039Y-137614225D01*
X120225151Y-137811762D01*
X120225154Y-137811767D01*
X120227477Y-137816749D01*
X120242706Y-137838498D01*
X120354274Y-137997833D01*
X120358802Y-138004300D01*
X120520700Y-138166198D01*
X120525208Y-138169355D01*
X120525211Y-138169357D01*
X120603389Y-138224098D01*
X120708251Y-138297523D01*
X120713233Y-138299846D01*
X120713238Y-138299849D01*
X120910775Y-138391961D01*
X120915757Y-138394284D01*
X120921065Y-138395706D01*
X120921067Y-138395707D01*
X121131598Y-138452119D01*
X121131600Y-138452119D01*
X121136913Y-138453543D01*
X121365000Y-138473498D01*
X121593087Y-138453543D01*
X121598400Y-138452119D01*
X121598402Y-138452119D01*
X121808933Y-138395707D01*
X121808935Y-138395706D01*
X121814243Y-138394284D01*
X121819225Y-138391961D01*
X122016762Y-138299849D01*
X122016767Y-138299846D01*
X122021749Y-138297523D01*
X122126611Y-138224098D01*
X122204789Y-138169357D01*
X122204792Y-138169355D01*
X122209300Y-138166198D01*
X122371198Y-138004300D01*
X122375727Y-137997833D01*
X122487294Y-137838498D01*
X122502523Y-137816749D01*
X122504846Y-137811767D01*
X122504849Y-137811762D01*
X122596961Y-137614225D01*
X122596961Y-137614224D01*
X122599284Y-137609243D01*
X122607971Y-137576825D01*
X122657119Y-137393402D01*
X122657119Y-137393400D01*
X122658543Y-137388087D01*
X122678498Y-137160000D01*
X125051502Y-137160000D01*
X125071457Y-137388087D01*
X125072881Y-137393400D01*
X125072881Y-137393402D01*
X125122030Y-137576825D01*
X125130716Y-137609243D01*
X125133039Y-137614224D01*
X125133039Y-137614225D01*
X125225151Y-137811762D01*
X125225154Y-137811767D01*
X125227477Y-137816749D01*
X125242706Y-137838498D01*
X125354274Y-137997833D01*
X125358802Y-138004300D01*
X125520700Y-138166198D01*
X125525208Y-138169355D01*
X125525211Y-138169357D01*
X125603389Y-138224098D01*
X125708251Y-138297523D01*
X125713233Y-138299846D01*
X125713238Y-138299849D01*
X125910775Y-138391961D01*
X125915757Y-138394284D01*
X125921065Y-138395706D01*
X125921067Y-138395707D01*
X126131598Y-138452119D01*
X126131600Y-138452119D01*
X126136913Y-138453543D01*
X126365000Y-138473498D01*
X126593087Y-138453543D01*
X126598400Y-138452119D01*
X126598402Y-138452119D01*
X126808933Y-138395707D01*
X126808935Y-138395706D01*
X126814243Y-138394284D01*
X126819225Y-138391961D01*
X127016762Y-138299849D01*
X127016767Y-138299846D01*
X127021749Y-138297523D01*
X127126611Y-138224098D01*
X127204789Y-138169357D01*
X127204792Y-138169355D01*
X127209300Y-138166198D01*
X127371198Y-138004300D01*
X127375727Y-137997833D01*
X127487294Y-137838498D01*
X127502523Y-137816749D01*
X127504846Y-137811767D01*
X127504849Y-137811762D01*
X127596961Y-137614225D01*
X127596961Y-137614224D01*
X127599284Y-137609243D01*
X127607971Y-137576825D01*
X127657119Y-137393402D01*
X127657119Y-137393400D01*
X127658543Y-137388087D01*
X127678498Y-137160000D01*
X127658543Y-136931913D01*
X127612051Y-136758402D01*
X127600707Y-136716067D01*
X127600706Y-136716065D01*
X127599284Y-136710757D01*
X127510112Y-136519525D01*
X127504849Y-136508238D01*
X127504846Y-136508233D01*
X127502523Y-136503251D01*
X127371198Y-136315700D01*
X127209300Y-136153802D01*
X127204792Y-136150645D01*
X127204789Y-136150643D01*
X127105424Y-136081067D01*
X127021749Y-136022477D01*
X127016767Y-136020154D01*
X127016762Y-136020151D01*
X126819225Y-135928039D01*
X126819224Y-135928039D01*
X126814243Y-135925716D01*
X126808935Y-135924294D01*
X126808933Y-135924293D01*
X126598402Y-135867881D01*
X126598400Y-135867881D01*
X126593087Y-135866457D01*
X126365000Y-135846502D01*
X126136913Y-135866457D01*
X126131600Y-135867881D01*
X126131598Y-135867881D01*
X125921067Y-135924293D01*
X125921065Y-135924294D01*
X125915757Y-135925716D01*
X125910776Y-135928039D01*
X125910775Y-135928039D01*
X125713238Y-136020151D01*
X125713233Y-136020154D01*
X125708251Y-136022477D01*
X125624576Y-136081067D01*
X125525211Y-136150643D01*
X125525208Y-136150645D01*
X125520700Y-136153802D01*
X125358802Y-136315700D01*
X125227477Y-136503251D01*
X125225154Y-136508233D01*
X125225151Y-136508238D01*
X125219888Y-136519525D01*
X125130716Y-136710757D01*
X125129294Y-136716065D01*
X125129293Y-136716067D01*
X125117949Y-136758402D01*
X125071457Y-136931913D01*
X125051502Y-137160000D01*
X122678498Y-137160000D01*
X122658543Y-136931913D01*
X122612051Y-136758402D01*
X122600707Y-136716067D01*
X122600706Y-136716065D01*
X122599284Y-136710757D01*
X122510112Y-136519525D01*
X122504849Y-136508238D01*
X122504846Y-136508233D01*
X122502523Y-136503251D01*
X122371198Y-136315700D01*
X122209300Y-136153802D01*
X122204792Y-136150645D01*
X122204789Y-136150643D01*
X122105424Y-136081067D01*
X122021749Y-136022477D01*
X122016767Y-136020154D01*
X122016762Y-136020151D01*
X121819225Y-135928039D01*
X121819224Y-135928039D01*
X121814243Y-135925716D01*
X121808935Y-135924294D01*
X121808933Y-135924293D01*
X121598402Y-135867881D01*
X121598400Y-135867881D01*
X121593087Y-135866457D01*
X121365000Y-135846502D01*
X121136913Y-135866457D01*
X121131600Y-135867881D01*
X121131598Y-135867881D01*
X120921067Y-135924293D01*
X120921065Y-135924294D01*
X120915757Y-135925716D01*
X120910776Y-135928039D01*
X120910775Y-135928039D01*
X120713238Y-136020151D01*
X120713233Y-136020154D01*
X120708251Y-136022477D01*
X120624576Y-136081067D01*
X120525211Y-136150643D01*
X120525208Y-136150645D01*
X120520700Y-136153802D01*
X120358802Y-136315700D01*
X120227477Y-136503251D01*
X120225154Y-136508233D01*
X120225151Y-136508238D01*
X120219888Y-136519525D01*
X120130716Y-136710757D01*
X120129294Y-136716065D01*
X120129293Y-136716067D01*
X120117949Y-136758402D01*
X120071457Y-136931913D01*
X120051502Y-137160000D01*
X106477665Y-137160000D01*
X106561961Y-136979225D01*
X106561961Y-136979224D01*
X106564284Y-136974243D01*
X106568949Y-136956835D01*
X106622119Y-136758402D01*
X106622119Y-136758400D01*
X106623543Y-136753087D01*
X106643498Y-136525000D01*
X106623543Y-136296913D01*
X106622119Y-136291598D01*
X106565707Y-136081067D01*
X106565706Y-136081065D01*
X106564284Y-136075757D01*
X106561961Y-136070775D01*
X106469849Y-135873238D01*
X106469846Y-135873233D01*
X106467523Y-135868251D01*
X106336198Y-135680700D01*
X106174300Y-135518802D01*
X106169792Y-135515645D01*
X106169789Y-135515643D01*
X106091611Y-135460902D01*
X105986749Y-135387477D01*
X105981767Y-135385154D01*
X105981762Y-135385151D01*
X105784225Y-135293039D01*
X105784224Y-135293039D01*
X105779243Y-135290716D01*
X105773935Y-135289294D01*
X105773933Y-135289293D01*
X105563402Y-135232881D01*
X105563400Y-135232881D01*
X105558087Y-135231457D01*
X105330000Y-135211502D01*
X105101913Y-135231457D01*
X105096600Y-135232881D01*
X105096598Y-135232881D01*
X104886067Y-135289293D01*
X104886065Y-135289294D01*
X104880757Y-135290716D01*
X104875776Y-135293039D01*
X104875775Y-135293039D01*
X104678238Y-135385151D01*
X104678233Y-135385154D01*
X104673251Y-135387477D01*
X104568389Y-135460902D01*
X104490211Y-135515643D01*
X104490208Y-135515645D01*
X104485700Y-135518802D01*
X104323802Y-135680700D01*
X104192477Y-135868251D01*
X104190154Y-135873233D01*
X104190151Y-135873238D01*
X104098039Y-136070775D01*
X104095716Y-136075757D01*
X104094294Y-136081065D01*
X104094293Y-136081067D01*
X104037881Y-136291598D01*
X104036457Y-136296913D01*
X104016502Y-136525000D01*
X101643498Y-136525000D01*
X101623543Y-136296913D01*
X101622119Y-136291598D01*
X101565707Y-136081067D01*
X101565706Y-136081065D01*
X101564284Y-136075757D01*
X101561961Y-136070775D01*
X101469849Y-135873238D01*
X101469846Y-135873233D01*
X101467523Y-135868251D01*
X101336198Y-135680700D01*
X101174300Y-135518802D01*
X101169792Y-135515645D01*
X101169789Y-135515643D01*
X101091611Y-135460902D01*
X100986749Y-135387477D01*
X100981767Y-135385154D01*
X100981762Y-135385151D01*
X100784225Y-135293039D01*
X100784224Y-135293039D01*
X100779243Y-135290716D01*
X100773935Y-135289294D01*
X100773933Y-135289293D01*
X100563402Y-135232881D01*
X100563400Y-135232881D01*
X100558087Y-135231457D01*
X100330000Y-135211502D01*
X100101913Y-135231457D01*
X100096600Y-135232881D01*
X100096598Y-135232881D01*
X99886067Y-135289293D01*
X99886065Y-135289294D01*
X99880757Y-135290716D01*
X99875776Y-135293039D01*
X99875775Y-135293039D01*
X99678238Y-135385151D01*
X99678233Y-135385154D01*
X99673251Y-135387477D01*
X99568389Y-135460902D01*
X99490211Y-135515643D01*
X99490208Y-135515645D01*
X99485700Y-135518802D01*
X99323802Y-135680700D01*
X99192477Y-135868251D01*
X99190154Y-135873233D01*
X99190151Y-135873238D01*
X99098039Y-136070775D01*
X99095716Y-136075757D01*
X99094294Y-136081065D01*
X99094293Y-136081067D01*
X99037881Y-136291598D01*
X99036457Y-136296913D01*
X99016502Y-136525000D01*
X89662000Y-136525000D01*
X89662000Y-133350000D01*
X95841502Y-133350000D01*
X95861457Y-133578087D01*
X95920716Y-133799243D01*
X95923039Y-133804224D01*
X95923039Y-133804225D01*
X96015151Y-134001762D01*
X96015154Y-134001767D01*
X96017477Y-134006749D01*
X96148802Y-134194300D01*
X96310700Y-134356198D01*
X96315208Y-134359355D01*
X96315211Y-134359357D01*
X96356542Y-134388297D01*
X96498251Y-134487523D01*
X96503233Y-134489846D01*
X96503238Y-134489849D01*
X96700775Y-134581961D01*
X96705757Y-134584284D01*
X96711065Y-134585706D01*
X96711067Y-134585707D01*
X96921598Y-134642119D01*
X96921600Y-134642119D01*
X96926913Y-134643543D01*
X97155000Y-134663498D01*
X97383087Y-134643543D01*
X97388400Y-134642119D01*
X97388402Y-134642119D01*
X97598933Y-134585707D01*
X97598935Y-134585706D01*
X97604243Y-134584284D01*
X97609225Y-134581961D01*
X97806762Y-134489849D01*
X97806767Y-134489846D01*
X97811749Y-134487523D01*
X97953458Y-134388297D01*
X97994789Y-134359357D01*
X97994792Y-134359355D01*
X97999300Y-134356198D01*
X98161198Y-134194300D01*
X98292523Y-134006749D01*
X98294846Y-134001767D01*
X98294849Y-134001762D01*
X98386961Y-133804225D01*
X98386961Y-133804224D01*
X98389284Y-133799243D01*
X98448543Y-133578087D01*
X98468498Y-133350000D01*
X106001502Y-133350000D01*
X106021457Y-133578087D01*
X106080716Y-133799243D01*
X106083039Y-133804224D01*
X106083039Y-133804225D01*
X106175151Y-134001762D01*
X106175154Y-134001767D01*
X106177477Y-134006749D01*
X106308802Y-134194300D01*
X106470700Y-134356198D01*
X106475208Y-134359355D01*
X106475211Y-134359357D01*
X106516542Y-134388297D01*
X106658251Y-134487523D01*
X106663233Y-134489846D01*
X106663238Y-134489849D01*
X106860775Y-134581961D01*
X106865757Y-134584284D01*
X106871065Y-134585706D01*
X106871067Y-134585707D01*
X107081598Y-134642119D01*
X107081600Y-134642119D01*
X107086913Y-134643543D01*
X107315000Y-134663498D01*
X107543087Y-134643543D01*
X107548400Y-134642119D01*
X107548402Y-134642119D01*
X107758933Y-134585707D01*
X107758935Y-134585706D01*
X107764243Y-134584284D01*
X107769225Y-134581961D01*
X107966762Y-134489849D01*
X107966767Y-134489846D01*
X107971749Y-134487523D01*
X108113458Y-134388297D01*
X108154789Y-134359357D01*
X108154792Y-134359355D01*
X108159300Y-134356198D01*
X108321198Y-134194300D01*
X108452523Y-134006749D01*
X108454846Y-134001767D01*
X108454849Y-134001762D01*
X108546961Y-133804225D01*
X108546961Y-133804224D01*
X108549284Y-133799243D01*
X108608543Y-133578087D01*
X108628498Y-133350000D01*
X109176502Y-133350000D01*
X109196457Y-133578087D01*
X109255716Y-133799243D01*
X109258039Y-133804224D01*
X109258039Y-133804225D01*
X109350151Y-134001762D01*
X109350154Y-134001767D01*
X109352477Y-134006749D01*
X109483802Y-134194300D01*
X109645700Y-134356198D01*
X109650208Y-134359355D01*
X109650211Y-134359357D01*
X109691542Y-134388297D01*
X109833251Y-134487523D01*
X109838233Y-134489846D01*
X109838238Y-134489849D01*
X110035775Y-134581961D01*
X110040757Y-134584284D01*
X110046065Y-134585706D01*
X110046067Y-134585707D01*
X110256598Y-134642119D01*
X110256600Y-134642119D01*
X110261913Y-134643543D01*
X110490000Y-134663498D01*
X110718087Y-134643543D01*
X110723400Y-134642119D01*
X110723402Y-134642119D01*
X110933933Y-134585707D01*
X110933935Y-134585706D01*
X110939243Y-134584284D01*
X110944225Y-134581961D01*
X111141762Y-134489849D01*
X111141767Y-134489846D01*
X111146749Y-134487523D01*
X111288458Y-134388297D01*
X111329789Y-134359357D01*
X111329792Y-134359355D01*
X111334300Y-134356198D01*
X111496198Y-134194300D01*
X111627523Y-134006749D01*
X111629846Y-134001767D01*
X111629849Y-134001762D01*
X111721961Y-133804225D01*
X111721961Y-133804224D01*
X111724284Y-133799243D01*
X111783543Y-133578087D01*
X111803498Y-133350000D01*
X111783543Y-133121913D01*
X111724284Y-132900757D01*
X111721961Y-132895775D01*
X111629849Y-132698238D01*
X111629846Y-132698233D01*
X111627523Y-132693251D01*
X111496198Y-132505700D01*
X111334300Y-132343802D01*
X111329792Y-132340645D01*
X111329789Y-132340643D01*
X111251611Y-132285902D01*
X111146749Y-132212477D01*
X111141767Y-132210154D01*
X111141762Y-132210151D01*
X111107543Y-132194195D01*
X111054258Y-132147278D01*
X111034797Y-132079001D01*
X111055339Y-132011041D01*
X111107543Y-131965805D01*
X111141762Y-131949849D01*
X111141767Y-131949846D01*
X111146749Y-131947523D01*
X111315289Y-131829510D01*
X111329789Y-131819357D01*
X111329792Y-131819355D01*
X111334300Y-131816198D01*
X111496198Y-131654300D01*
X111627523Y-131466749D01*
X111629846Y-131461767D01*
X111629849Y-131461762D01*
X111721961Y-131264225D01*
X111721961Y-131264224D01*
X111724284Y-131259243D01*
X111745120Y-131181485D01*
X111782119Y-131043402D01*
X111782119Y-131043400D01*
X111783543Y-131038087D01*
X111803498Y-130810000D01*
X116796502Y-130810000D01*
X116816457Y-131038087D01*
X116817881Y-131043400D01*
X116817881Y-131043402D01*
X116854881Y-131181485D01*
X116875716Y-131259243D01*
X116878039Y-131264224D01*
X116878039Y-131264225D01*
X116970151Y-131461762D01*
X116970154Y-131461767D01*
X116972477Y-131466749D01*
X117103802Y-131654300D01*
X117265700Y-131816198D01*
X117270211Y-131819357D01*
X117274424Y-131822892D01*
X117273473Y-131824026D01*
X117313471Y-131874071D01*
X117320776Y-131944690D01*
X117288742Y-132008049D01*
X117227538Y-132044030D01*
X117210483Y-132047082D01*
X117199684Y-132048255D01*
X117063295Y-132099385D01*
X116946739Y-132186739D01*
X116859385Y-132303295D01*
X116808255Y-132439684D01*
X116801500Y-132501866D01*
X116801500Y-134198134D01*
X116808255Y-134260316D01*
X116859385Y-134396705D01*
X116946739Y-134513261D01*
X117063295Y-134600615D01*
X117199684Y-134651745D01*
X117261866Y-134658500D01*
X118958134Y-134658500D01*
X119020316Y-134651745D01*
X119156705Y-134600615D01*
X119273261Y-134513261D01*
X119360615Y-134396705D01*
X119411745Y-134260316D01*
X119418500Y-134198134D01*
X119418500Y-133350000D01*
X119971502Y-133350000D01*
X119991457Y-133578087D01*
X120050716Y-133799243D01*
X120053039Y-133804224D01*
X120053039Y-133804225D01*
X120145151Y-134001762D01*
X120145154Y-134001767D01*
X120147477Y-134006749D01*
X120278802Y-134194300D01*
X120440700Y-134356198D01*
X120445208Y-134359355D01*
X120445211Y-134359357D01*
X120486542Y-134388297D01*
X120628251Y-134487523D01*
X120633233Y-134489846D01*
X120633238Y-134489849D01*
X120830775Y-134581961D01*
X120835757Y-134584284D01*
X120841065Y-134585706D01*
X120841067Y-134585707D01*
X121051598Y-134642119D01*
X121051600Y-134642119D01*
X121056913Y-134643543D01*
X121285000Y-134663498D01*
X121513087Y-134643543D01*
X121518400Y-134642119D01*
X121518402Y-134642119D01*
X121728933Y-134585707D01*
X121728935Y-134585706D01*
X121734243Y-134584284D01*
X121739225Y-134581961D01*
X121936762Y-134489849D01*
X121936767Y-134489846D01*
X121941749Y-134487523D01*
X122083458Y-134388297D01*
X122124789Y-134359357D01*
X122124792Y-134359355D01*
X122129300Y-134356198D01*
X122291198Y-134194300D01*
X122422523Y-134006749D01*
X122424846Y-134001767D01*
X122424849Y-134001762D01*
X122516961Y-133804225D01*
X122516961Y-133804224D01*
X122519284Y-133799243D01*
X122578543Y-133578087D01*
X122598498Y-133350000D01*
X130131502Y-133350000D01*
X130151457Y-133578087D01*
X130210716Y-133799243D01*
X130213039Y-133804224D01*
X130213039Y-133804225D01*
X130305151Y-134001762D01*
X130305154Y-134001767D01*
X130307477Y-134006749D01*
X130438802Y-134194300D01*
X130600700Y-134356198D01*
X130605208Y-134359355D01*
X130605211Y-134359357D01*
X130646542Y-134388297D01*
X130788251Y-134487523D01*
X130793233Y-134489846D01*
X130793238Y-134489849D01*
X130990775Y-134581961D01*
X130995757Y-134584284D01*
X131001065Y-134585706D01*
X131001067Y-134585707D01*
X131211598Y-134642119D01*
X131211600Y-134642119D01*
X131216913Y-134643543D01*
X131445000Y-134663498D01*
X131673087Y-134643543D01*
X131678400Y-134642119D01*
X131678402Y-134642119D01*
X131888933Y-134585707D01*
X131888935Y-134585706D01*
X131894243Y-134584284D01*
X131899225Y-134581961D01*
X132096762Y-134489849D01*
X132096767Y-134489846D01*
X132101749Y-134487523D01*
X132243458Y-134388297D01*
X132284789Y-134359357D01*
X132284792Y-134359355D01*
X132289300Y-134356198D01*
X132451198Y-134194300D01*
X132582523Y-134006749D01*
X132584846Y-134001767D01*
X132584849Y-134001762D01*
X132676961Y-133804225D01*
X132676961Y-133804224D01*
X132679284Y-133799243D01*
X132738543Y-133578087D01*
X132758498Y-133350000D01*
X132738543Y-133121913D01*
X132679284Y-132900757D01*
X132676961Y-132895775D01*
X132584849Y-132698238D01*
X132584846Y-132698233D01*
X132582523Y-132693251D01*
X132451198Y-132505700D01*
X132289300Y-132343802D01*
X132284792Y-132340645D01*
X132284789Y-132340643D01*
X132206611Y-132285902D01*
X132101749Y-132212477D01*
X132096767Y-132210154D01*
X132096762Y-132210151D01*
X131899225Y-132118039D01*
X131899224Y-132118039D01*
X131894243Y-132115716D01*
X131888935Y-132114294D01*
X131888933Y-132114293D01*
X131678402Y-132057881D01*
X131678400Y-132057881D01*
X131673087Y-132056457D01*
X131445000Y-132036502D01*
X131216913Y-132056457D01*
X131211600Y-132057881D01*
X131211598Y-132057881D01*
X131001067Y-132114293D01*
X131001065Y-132114294D01*
X130995757Y-132115716D01*
X130990776Y-132118039D01*
X130990775Y-132118039D01*
X130793238Y-132210151D01*
X130793233Y-132210154D01*
X130788251Y-132212477D01*
X130683389Y-132285902D01*
X130605211Y-132340643D01*
X130605208Y-132340645D01*
X130600700Y-132343802D01*
X130438802Y-132505700D01*
X130307477Y-132693251D01*
X130305154Y-132698233D01*
X130305151Y-132698238D01*
X130213039Y-132895775D01*
X130210716Y-132900757D01*
X130151457Y-133121913D01*
X130131502Y-133350000D01*
X122598498Y-133350000D01*
X122578543Y-133121913D01*
X122519284Y-132900757D01*
X122516961Y-132895775D01*
X122424849Y-132698238D01*
X122424846Y-132698233D01*
X122422523Y-132693251D01*
X122291198Y-132505700D01*
X122129300Y-132343802D01*
X122124792Y-132340645D01*
X122124789Y-132340643D01*
X122046611Y-132285902D01*
X121941749Y-132212477D01*
X121936767Y-132210154D01*
X121936762Y-132210151D01*
X121739225Y-132118039D01*
X121739224Y-132118039D01*
X121734243Y-132115716D01*
X121728935Y-132114294D01*
X121728933Y-132114293D01*
X121518402Y-132057881D01*
X121518400Y-132057881D01*
X121513087Y-132056457D01*
X121285000Y-132036502D01*
X121056913Y-132056457D01*
X121051600Y-132057881D01*
X121051598Y-132057881D01*
X120841067Y-132114293D01*
X120841065Y-132114294D01*
X120835757Y-132115716D01*
X120830776Y-132118039D01*
X120830775Y-132118039D01*
X120633238Y-132210151D01*
X120633233Y-132210154D01*
X120628251Y-132212477D01*
X120523389Y-132285902D01*
X120445211Y-132340643D01*
X120445208Y-132340645D01*
X120440700Y-132343802D01*
X120278802Y-132505700D01*
X120147477Y-132693251D01*
X120145154Y-132698233D01*
X120145151Y-132698238D01*
X120053039Y-132895775D01*
X120050716Y-132900757D01*
X119991457Y-133121913D01*
X119971502Y-133350000D01*
X119418500Y-133350000D01*
X119418500Y-132501866D01*
X119411745Y-132439684D01*
X119360615Y-132303295D01*
X119273261Y-132186739D01*
X119156705Y-132099385D01*
X119020316Y-132048255D01*
X119009526Y-132047083D01*
X119007394Y-132046197D01*
X119004778Y-132045575D01*
X119004879Y-132045152D01*
X118943965Y-132019845D01*
X118903537Y-131961483D01*
X118901078Y-131890529D01*
X118937371Y-131829510D01*
X118946031Y-131822511D01*
X118949793Y-131819354D01*
X118954300Y-131816198D01*
X119116198Y-131654300D01*
X119247523Y-131466749D01*
X119249846Y-131461767D01*
X119249849Y-131461762D01*
X119341961Y-131264225D01*
X119341961Y-131264224D01*
X119344284Y-131259243D01*
X119365120Y-131181485D01*
X119402119Y-131043402D01*
X119402119Y-131043400D01*
X119403543Y-131038087D01*
X119423498Y-130810000D01*
X119403543Y-130581913D01*
X119357051Y-130408402D01*
X119345707Y-130366067D01*
X119345706Y-130366065D01*
X119344284Y-130360757D01*
X119341126Y-130353984D01*
X119257665Y-130175000D01*
X119971502Y-130175000D01*
X119991457Y-130403087D01*
X119992881Y-130408400D01*
X119992881Y-130408402D01*
X120039374Y-130581913D01*
X120050716Y-130624243D01*
X120053039Y-130629224D01*
X120053039Y-130629225D01*
X120145151Y-130826762D01*
X120145154Y-130826767D01*
X120147477Y-130831749D01*
X120170037Y-130863968D01*
X120258892Y-130990865D01*
X120278802Y-131019300D01*
X120440700Y-131181198D01*
X120445208Y-131184355D01*
X120445211Y-131184357D01*
X120523389Y-131239098D01*
X120628251Y-131312523D01*
X120633233Y-131314846D01*
X120633238Y-131314849D01*
X120785384Y-131385795D01*
X120835757Y-131409284D01*
X120841065Y-131410706D01*
X120841067Y-131410707D01*
X121051598Y-131467119D01*
X121051600Y-131467119D01*
X121056913Y-131468543D01*
X121285000Y-131488498D01*
X121513087Y-131468543D01*
X121518400Y-131467119D01*
X121518402Y-131467119D01*
X121728933Y-131410707D01*
X121728935Y-131410706D01*
X121734243Y-131409284D01*
X121784616Y-131385795D01*
X121936762Y-131314849D01*
X121936767Y-131314846D01*
X121941749Y-131312523D01*
X122046611Y-131239098D01*
X122124789Y-131184357D01*
X122124792Y-131184355D01*
X122129300Y-131181198D01*
X122291198Y-131019300D01*
X122311109Y-130990865D01*
X122399963Y-130863968D01*
X122422523Y-130831749D01*
X122424846Y-130826767D01*
X122424849Y-130826762D01*
X122516961Y-130629225D01*
X122516961Y-130629224D01*
X122519284Y-130624243D01*
X122530627Y-130581913D01*
X122577119Y-130408402D01*
X122577119Y-130408400D01*
X122578543Y-130403087D01*
X122598498Y-130175000D01*
X130131502Y-130175000D01*
X130151457Y-130403087D01*
X130152881Y-130408400D01*
X130152881Y-130408402D01*
X130199374Y-130581913D01*
X130210716Y-130624243D01*
X130213039Y-130629224D01*
X130213039Y-130629225D01*
X130305151Y-130826762D01*
X130305154Y-130826767D01*
X130307477Y-130831749D01*
X130330037Y-130863968D01*
X130418892Y-130990865D01*
X130438802Y-131019300D01*
X130600700Y-131181198D01*
X130605208Y-131184355D01*
X130605211Y-131184357D01*
X130683389Y-131239098D01*
X130788251Y-131312523D01*
X130793233Y-131314846D01*
X130793238Y-131314849D01*
X130945384Y-131385795D01*
X130995757Y-131409284D01*
X131001065Y-131410706D01*
X131001067Y-131410707D01*
X131211598Y-131467119D01*
X131211600Y-131467119D01*
X131216913Y-131468543D01*
X131445000Y-131488498D01*
X131673087Y-131468543D01*
X131678400Y-131467119D01*
X131678402Y-131467119D01*
X131888933Y-131410707D01*
X131888935Y-131410706D01*
X131894243Y-131409284D01*
X131944616Y-131385795D01*
X132096762Y-131314849D01*
X132096767Y-131314846D01*
X132101749Y-131312523D01*
X132206611Y-131239098D01*
X132284789Y-131184357D01*
X132284792Y-131184355D01*
X132289300Y-131181198D01*
X132451198Y-131019300D01*
X132471109Y-130990865D01*
X132473349Y-130987666D01*
X133095500Y-130987666D01*
X133095837Y-130990912D01*
X133095837Y-130990916D01*
X133105686Y-131085833D01*
X133106532Y-131093990D01*
X133162803Y-131262654D01*
X133256366Y-131413850D01*
X133382201Y-131539466D01*
X133533560Y-131632764D01*
X133540508Y-131635069D01*
X133540509Y-131635069D01*
X133695791Y-131686575D01*
X133695793Y-131686576D01*
X133702322Y-131688741D01*
X133807334Y-131699500D01*
X135432666Y-131699500D01*
X135435912Y-131699163D01*
X135435916Y-131699163D01*
X135532132Y-131689180D01*
X135532136Y-131689179D01*
X135538990Y-131688468D01*
X135545526Y-131686287D01*
X135545528Y-131686287D01*
X135677277Y-131642332D01*
X135707654Y-131632197D01*
X135858850Y-131538634D01*
X135984466Y-131412799D01*
X136001814Y-131384656D01*
X136019341Y-131356221D01*
X136077764Y-131261440D01*
X136103332Y-131184357D01*
X136131575Y-131099209D01*
X136131576Y-131099207D01*
X136133741Y-131092678D01*
X136144500Y-130987666D01*
X136144500Y-130959192D01*
X136164502Y-130891071D01*
X136218158Y-130844578D01*
X136288432Y-130834474D01*
X136353012Y-130863968D01*
X136370463Y-130882488D01*
X136377049Y-130891071D01*
X136483877Y-131030292D01*
X136650036Y-131181485D01*
X136654783Y-131184463D01*
X136654786Y-131184465D01*
X136781936Y-131264225D01*
X136840344Y-131300864D01*
X137048783Y-131384656D01*
X137268767Y-131430213D01*
X137273378Y-131430479D01*
X137273379Y-131430479D01*
X137323952Y-131433395D01*
X137323956Y-131433395D01*
X137325775Y-131433500D01*
X137470999Y-131433500D01*
X137473786Y-131433251D01*
X137473792Y-131433251D01*
X137543929Y-131426991D01*
X137637762Y-131418617D01*
X137643176Y-131417136D01*
X137643181Y-131417135D01*
X137770912Y-131382191D01*
X137854451Y-131359337D01*
X137859509Y-131356925D01*
X137859513Y-131356923D01*
X137977042Y-131300864D01*
X138057218Y-131262622D01*
X138239654Y-131131529D01*
X138375967Y-130990865D01*
X138392089Y-130974229D01*
X138392091Y-130974226D01*
X138395992Y-130970201D01*
X138521290Y-130783738D01*
X138611588Y-130578033D01*
X138664032Y-130359589D01*
X138674675Y-130175000D01*
X138676640Y-130140917D01*
X138676640Y-130140914D01*
X138676963Y-130135310D01*
X138649975Y-129912285D01*
X138583918Y-129697565D01*
X138570970Y-129672477D01*
X138483454Y-129502919D01*
X138483454Y-129502918D01*
X138480882Y-129497936D01*
X138344123Y-129319708D01*
X138177964Y-129168515D01*
X138173217Y-129165537D01*
X138173214Y-129165535D01*
X137992405Y-129052115D01*
X137987656Y-129049136D01*
X137779217Y-128965344D01*
X137559233Y-128919787D01*
X137554622Y-128919521D01*
X137554621Y-128919521D01*
X137504048Y-128916605D01*
X137504044Y-128916605D01*
X137502225Y-128916500D01*
X137357001Y-128916500D01*
X137354214Y-128916749D01*
X137354208Y-128916749D01*
X137284071Y-128923009D01*
X137190238Y-128931383D01*
X137184824Y-128932864D01*
X137184819Y-128932865D01*
X137070262Y-128964205D01*
X136973549Y-128990663D01*
X136968491Y-128993075D01*
X136968487Y-128993077D01*
X136872165Y-129039021D01*
X136770782Y-129087378D01*
X136588346Y-129218471D01*
X136536554Y-129271916D01*
X136445768Y-129365600D01*
X136432008Y-129379799D01*
X136415792Y-129403931D01*
X136375082Y-129464514D01*
X136320486Y-129509899D01*
X136250020Y-129518562D01*
X136186056Y-129487754D01*
X136148903Y-129427255D01*
X136144500Y-129394238D01*
X136144500Y-129362334D01*
X136141218Y-129330700D01*
X136134180Y-129262868D01*
X136134179Y-129262864D01*
X136133468Y-129256010D01*
X136077197Y-129087346D01*
X135983634Y-128936150D01*
X135857799Y-128810534D01*
X135706440Y-128717236D01*
X135699491Y-128714931D01*
X135544209Y-128663425D01*
X135544207Y-128663424D01*
X135537678Y-128661259D01*
X135432666Y-128650500D01*
X133807334Y-128650500D01*
X133804088Y-128650837D01*
X133804084Y-128650837D01*
X133707868Y-128660820D01*
X133707864Y-128660821D01*
X133701010Y-128661532D01*
X133694474Y-128663713D01*
X133694472Y-128663713D01*
X133562723Y-128707668D01*
X133532346Y-128717803D01*
X133381150Y-128811366D01*
X133255534Y-128937201D01*
X133251694Y-128943431D01*
X133251693Y-128943432D01*
X133236895Y-128967440D01*
X133162236Y-129088560D01*
X133159931Y-129095508D01*
X133159931Y-129095509D01*
X133119146Y-129218471D01*
X133106259Y-129257322D01*
X133095500Y-129362334D01*
X133095500Y-130987666D01*
X132473349Y-130987666D01*
X132559963Y-130863968D01*
X132582523Y-130831749D01*
X132584846Y-130826767D01*
X132584849Y-130826762D01*
X132676961Y-130629225D01*
X132676961Y-130629224D01*
X132679284Y-130624243D01*
X132690627Y-130581913D01*
X132737119Y-130408402D01*
X132737119Y-130408400D01*
X132738543Y-130403087D01*
X132758498Y-130175000D01*
X132738543Y-129946913D01*
X132737119Y-129941598D01*
X132680707Y-129731067D01*
X132680706Y-129731065D01*
X132679284Y-129725757D01*
X132663814Y-129692581D01*
X132584849Y-129523238D01*
X132584846Y-129523233D01*
X132582523Y-129518251D01*
X132482757Y-129375771D01*
X132454357Y-129335211D01*
X132454355Y-129335208D01*
X132451198Y-129330700D01*
X132289300Y-129168802D01*
X132284792Y-129165645D01*
X132284789Y-129165643D01*
X132122654Y-129052115D01*
X132101749Y-129037477D01*
X132096767Y-129035154D01*
X132096762Y-129035151D01*
X131899225Y-128943039D01*
X131899224Y-128943039D01*
X131894243Y-128940716D01*
X131888935Y-128939294D01*
X131888933Y-128939293D01*
X131678402Y-128882881D01*
X131678400Y-128882881D01*
X131673087Y-128881457D01*
X131445000Y-128861502D01*
X131216913Y-128881457D01*
X131211600Y-128882881D01*
X131211598Y-128882881D01*
X131001067Y-128939293D01*
X131001065Y-128939294D01*
X130995757Y-128940716D01*
X130990776Y-128943039D01*
X130990775Y-128943039D01*
X130793238Y-129035151D01*
X130793233Y-129035154D01*
X130788251Y-129037477D01*
X130767346Y-129052115D01*
X130605211Y-129165643D01*
X130605208Y-129165645D01*
X130600700Y-129168802D01*
X130438802Y-129330700D01*
X130435645Y-129335208D01*
X130435643Y-129335211D01*
X130407243Y-129375771D01*
X130307477Y-129518251D01*
X130305154Y-129523233D01*
X130305151Y-129523238D01*
X130226186Y-129692581D01*
X130210716Y-129725757D01*
X130209294Y-129731065D01*
X130209293Y-129731067D01*
X130152881Y-129941598D01*
X130151457Y-129946913D01*
X130131502Y-130175000D01*
X122598498Y-130175000D01*
X122578543Y-129946913D01*
X122577119Y-129941598D01*
X122520707Y-129731067D01*
X122520706Y-129731065D01*
X122519284Y-129725757D01*
X122503814Y-129692581D01*
X122424849Y-129523238D01*
X122424846Y-129523233D01*
X122422523Y-129518251D01*
X122322757Y-129375771D01*
X122294357Y-129335211D01*
X122294355Y-129335208D01*
X122291198Y-129330700D01*
X122129300Y-129168802D01*
X122124792Y-129165645D01*
X122124789Y-129165643D01*
X121962654Y-129052115D01*
X121941749Y-129037477D01*
X121936767Y-129035154D01*
X121936762Y-129035151D01*
X121739225Y-128943039D01*
X121739224Y-128943039D01*
X121734243Y-128940716D01*
X121728935Y-128939294D01*
X121728933Y-128939293D01*
X121518402Y-128882881D01*
X121518400Y-128882881D01*
X121513087Y-128881457D01*
X121285000Y-128861502D01*
X121056913Y-128881457D01*
X121051600Y-128882881D01*
X121051598Y-128882881D01*
X120841067Y-128939293D01*
X120841065Y-128939294D01*
X120835757Y-128940716D01*
X120830776Y-128943039D01*
X120830775Y-128943039D01*
X120633238Y-129035151D01*
X120633233Y-129035154D01*
X120628251Y-129037477D01*
X120607346Y-129052115D01*
X120445211Y-129165643D01*
X120445208Y-129165645D01*
X120440700Y-129168802D01*
X120278802Y-129330700D01*
X120275645Y-129335208D01*
X120275643Y-129335211D01*
X120247243Y-129375771D01*
X120147477Y-129518251D01*
X120145154Y-129523233D01*
X120145151Y-129523238D01*
X120066186Y-129692581D01*
X120050716Y-129725757D01*
X120049294Y-129731065D01*
X120049293Y-129731067D01*
X119992881Y-129941598D01*
X119991457Y-129946913D01*
X119971502Y-130175000D01*
X119257665Y-130175000D01*
X119249849Y-130158238D01*
X119249846Y-130158233D01*
X119247523Y-130153251D01*
X119116198Y-129965700D01*
X118954300Y-129803802D01*
X118949792Y-129800645D01*
X118949789Y-129800643D01*
X118850424Y-129731067D01*
X118766749Y-129672477D01*
X118761767Y-129670154D01*
X118761762Y-129670151D01*
X118726951Y-129653919D01*
X118673666Y-129607002D01*
X118654205Y-129538725D01*
X118674747Y-129470765D01*
X118726951Y-129425529D01*
X118761511Y-129409414D01*
X118771007Y-129403931D01*
X118949467Y-129278972D01*
X118957875Y-129271916D01*
X119111916Y-129117875D01*
X119118972Y-129109467D01*
X119243931Y-128931007D01*
X119249414Y-128921511D01*
X119341490Y-128724053D01*
X119345236Y-128713761D01*
X119391394Y-128541497D01*
X119391058Y-128527401D01*
X119383116Y-128524000D01*
X116842033Y-128524000D01*
X116828502Y-128527973D01*
X116827273Y-128536522D01*
X116874764Y-128713761D01*
X116878510Y-128724053D01*
X116970586Y-128921511D01*
X116976069Y-128931007D01*
X117101028Y-129109467D01*
X117108084Y-129117875D01*
X117262125Y-129271916D01*
X117270533Y-129278972D01*
X117448993Y-129403931D01*
X117458489Y-129409414D01*
X117493049Y-129425529D01*
X117546334Y-129472446D01*
X117565795Y-129540723D01*
X117545253Y-129608683D01*
X117493049Y-129653919D01*
X117458238Y-129670151D01*
X117458233Y-129670154D01*
X117453251Y-129672477D01*
X117369576Y-129731067D01*
X117270211Y-129800643D01*
X117270208Y-129800645D01*
X117265700Y-129803802D01*
X117103802Y-129965700D01*
X116972477Y-130153251D01*
X116970154Y-130158233D01*
X116970151Y-130158238D01*
X116878874Y-130353984D01*
X116875716Y-130360757D01*
X116874294Y-130366065D01*
X116874293Y-130366067D01*
X116862949Y-130408402D01*
X116816457Y-130581913D01*
X116796502Y-130810000D01*
X111803498Y-130810000D01*
X111783543Y-130581913D01*
X111737051Y-130408402D01*
X111725707Y-130366067D01*
X111725706Y-130366065D01*
X111724284Y-130360757D01*
X111721126Y-130353984D01*
X111629849Y-130158238D01*
X111629846Y-130158233D01*
X111627523Y-130153251D01*
X111496198Y-129965700D01*
X111334300Y-129803802D01*
X111329792Y-129800645D01*
X111329789Y-129800643D01*
X111230424Y-129731067D01*
X111146749Y-129672477D01*
X111141767Y-129670154D01*
X111141762Y-129670151D01*
X111106951Y-129653919D01*
X111053666Y-129607002D01*
X111034205Y-129538725D01*
X111054747Y-129470765D01*
X111106951Y-129425529D01*
X111141511Y-129409414D01*
X111151007Y-129403931D01*
X111329467Y-129278972D01*
X111337875Y-129271916D01*
X111491916Y-129117875D01*
X111498972Y-129109467D01*
X111623931Y-128931007D01*
X111629414Y-128921511D01*
X111721490Y-128724053D01*
X111725236Y-128713761D01*
X111771394Y-128541497D01*
X111771058Y-128527401D01*
X111763116Y-128524000D01*
X109222033Y-128524000D01*
X109208502Y-128527973D01*
X109207273Y-128536522D01*
X109254764Y-128713761D01*
X109258510Y-128724053D01*
X109350586Y-128921511D01*
X109356069Y-128931007D01*
X109481028Y-129109467D01*
X109488084Y-129117875D01*
X109642125Y-129271916D01*
X109650533Y-129278972D01*
X109828993Y-129403931D01*
X109838489Y-129409414D01*
X109873049Y-129425529D01*
X109926334Y-129472446D01*
X109945795Y-129540723D01*
X109925253Y-129608683D01*
X109873049Y-129653919D01*
X109838238Y-129670151D01*
X109838233Y-129670154D01*
X109833251Y-129672477D01*
X109749576Y-129731067D01*
X109650211Y-129800643D01*
X109650208Y-129800645D01*
X109645700Y-129803802D01*
X109483802Y-129965700D01*
X109352477Y-130153251D01*
X109350154Y-130158233D01*
X109350151Y-130158238D01*
X109258874Y-130353984D01*
X109255716Y-130360757D01*
X109254294Y-130366065D01*
X109254293Y-130366067D01*
X109242949Y-130408402D01*
X109196457Y-130581913D01*
X109176502Y-130810000D01*
X109196457Y-131038087D01*
X109197881Y-131043400D01*
X109197881Y-131043402D01*
X109234881Y-131181485D01*
X109255716Y-131259243D01*
X109258039Y-131264224D01*
X109258039Y-131264225D01*
X109350151Y-131461762D01*
X109350154Y-131461767D01*
X109352477Y-131466749D01*
X109483802Y-131654300D01*
X109645700Y-131816198D01*
X109650208Y-131819355D01*
X109650211Y-131819357D01*
X109664711Y-131829510D01*
X109833251Y-131947523D01*
X109838233Y-131949846D01*
X109838238Y-131949849D01*
X109872457Y-131965805D01*
X109925742Y-132012722D01*
X109945203Y-132080999D01*
X109924661Y-132148959D01*
X109872457Y-132194195D01*
X109838238Y-132210151D01*
X109838233Y-132210154D01*
X109833251Y-132212477D01*
X109728389Y-132285902D01*
X109650211Y-132340643D01*
X109650208Y-132340645D01*
X109645700Y-132343802D01*
X109483802Y-132505700D01*
X109352477Y-132693251D01*
X109350154Y-132698233D01*
X109350151Y-132698238D01*
X109258039Y-132895775D01*
X109255716Y-132900757D01*
X109196457Y-133121913D01*
X109176502Y-133350000D01*
X108628498Y-133350000D01*
X108608543Y-133121913D01*
X108549284Y-132900757D01*
X108546961Y-132895775D01*
X108454849Y-132698238D01*
X108454846Y-132698233D01*
X108452523Y-132693251D01*
X108321198Y-132505700D01*
X108159300Y-132343802D01*
X108154792Y-132340645D01*
X108154789Y-132340643D01*
X108076611Y-132285902D01*
X107971749Y-132212477D01*
X107966767Y-132210154D01*
X107966762Y-132210151D01*
X107769225Y-132118039D01*
X107769224Y-132118039D01*
X107764243Y-132115716D01*
X107758935Y-132114294D01*
X107758933Y-132114293D01*
X107548402Y-132057881D01*
X107548400Y-132057881D01*
X107543087Y-132056457D01*
X107315000Y-132036502D01*
X107086913Y-132056457D01*
X107081600Y-132057881D01*
X107081598Y-132057881D01*
X106871067Y-132114293D01*
X106871065Y-132114294D01*
X106865757Y-132115716D01*
X106860776Y-132118039D01*
X106860775Y-132118039D01*
X106663238Y-132210151D01*
X106663233Y-132210154D01*
X106658251Y-132212477D01*
X106553389Y-132285902D01*
X106475211Y-132340643D01*
X106475208Y-132340645D01*
X106470700Y-132343802D01*
X106308802Y-132505700D01*
X106177477Y-132693251D01*
X106175154Y-132698233D01*
X106175151Y-132698238D01*
X106083039Y-132895775D01*
X106080716Y-132900757D01*
X106021457Y-133121913D01*
X106001502Y-133350000D01*
X98468498Y-133350000D01*
X98448543Y-133121913D01*
X98389284Y-132900757D01*
X98386961Y-132895775D01*
X98294849Y-132698238D01*
X98294846Y-132698233D01*
X98292523Y-132693251D01*
X98161198Y-132505700D01*
X97999300Y-132343802D01*
X97994792Y-132340645D01*
X97994789Y-132340643D01*
X97916611Y-132285902D01*
X97811749Y-132212477D01*
X97806767Y-132210154D01*
X97806762Y-132210151D01*
X97609225Y-132118039D01*
X97609224Y-132118039D01*
X97604243Y-132115716D01*
X97598935Y-132114294D01*
X97598933Y-132114293D01*
X97388402Y-132057881D01*
X97388400Y-132057881D01*
X97383087Y-132056457D01*
X97155000Y-132036502D01*
X96926913Y-132056457D01*
X96921600Y-132057881D01*
X96921598Y-132057881D01*
X96711067Y-132114293D01*
X96711065Y-132114294D01*
X96705757Y-132115716D01*
X96700776Y-132118039D01*
X96700775Y-132118039D01*
X96503238Y-132210151D01*
X96503233Y-132210154D01*
X96498251Y-132212477D01*
X96393389Y-132285902D01*
X96315211Y-132340643D01*
X96315208Y-132340645D01*
X96310700Y-132343802D01*
X96148802Y-132505700D01*
X96017477Y-132693251D01*
X96015154Y-132698233D01*
X96015151Y-132698238D01*
X95923039Y-132895775D01*
X95920716Y-132900757D01*
X95861457Y-133121913D01*
X95841502Y-133350000D01*
X89662000Y-133350000D01*
X89662000Y-130214690D01*
X89923037Y-130214690D01*
X89950025Y-130437715D01*
X90016082Y-130652435D01*
X90018652Y-130657415D01*
X90018654Y-130657419D01*
X90083852Y-130783738D01*
X90119118Y-130852064D01*
X90255877Y-131030292D01*
X90422036Y-131181485D01*
X90426783Y-131184463D01*
X90426786Y-131184465D01*
X90553936Y-131264225D01*
X90612344Y-131300864D01*
X90820783Y-131384656D01*
X91040767Y-131430213D01*
X91045378Y-131430479D01*
X91045379Y-131430479D01*
X91095952Y-131433395D01*
X91095956Y-131433395D01*
X91097775Y-131433500D01*
X91242999Y-131433500D01*
X91245786Y-131433251D01*
X91245792Y-131433251D01*
X91315929Y-131426991D01*
X91409762Y-131418617D01*
X91415176Y-131417136D01*
X91415181Y-131417135D01*
X91542912Y-131382191D01*
X91626451Y-131359337D01*
X91631509Y-131356925D01*
X91631513Y-131356923D01*
X91749042Y-131300864D01*
X91829218Y-131262622D01*
X92011654Y-131131529D01*
X92147967Y-130990865D01*
X92164089Y-130974229D01*
X92164091Y-130974226D01*
X92167992Y-130970201D01*
X92224918Y-130885486D01*
X92279514Y-130840101D01*
X92349980Y-130831438D01*
X92413944Y-130862246D01*
X92451097Y-130922745D01*
X92455500Y-130955762D01*
X92455500Y-130987666D01*
X92455837Y-130990912D01*
X92455837Y-130990916D01*
X92465686Y-131085833D01*
X92466532Y-131093990D01*
X92522803Y-131262654D01*
X92616366Y-131413850D01*
X92742201Y-131539466D01*
X92893560Y-131632764D01*
X92900508Y-131635069D01*
X92900509Y-131635069D01*
X93055791Y-131686575D01*
X93055793Y-131686576D01*
X93062322Y-131688741D01*
X93167334Y-131699500D01*
X94792666Y-131699500D01*
X94795912Y-131699163D01*
X94795916Y-131699163D01*
X94892132Y-131689180D01*
X94892136Y-131689179D01*
X94898990Y-131688468D01*
X94905526Y-131686287D01*
X94905528Y-131686287D01*
X95037277Y-131642332D01*
X95067654Y-131632197D01*
X95218850Y-131538634D01*
X95344466Y-131412799D01*
X95361814Y-131384656D01*
X95379341Y-131356221D01*
X95437764Y-131261440D01*
X95463332Y-131184357D01*
X95491575Y-131099209D01*
X95491576Y-131099207D01*
X95493741Y-131092678D01*
X95504500Y-130987666D01*
X95504500Y-130175000D01*
X95841502Y-130175000D01*
X95861457Y-130403087D01*
X95862881Y-130408400D01*
X95862881Y-130408402D01*
X95909374Y-130581913D01*
X95920716Y-130624243D01*
X95923039Y-130629224D01*
X95923039Y-130629225D01*
X96015151Y-130826762D01*
X96015154Y-130826767D01*
X96017477Y-130831749D01*
X96040037Y-130863968D01*
X96128892Y-130990865D01*
X96148802Y-131019300D01*
X96310700Y-131181198D01*
X96315208Y-131184355D01*
X96315211Y-131184357D01*
X96393389Y-131239098D01*
X96498251Y-131312523D01*
X96503233Y-131314846D01*
X96503238Y-131314849D01*
X96655384Y-131385795D01*
X96705757Y-131409284D01*
X96711065Y-131410706D01*
X96711067Y-131410707D01*
X96921598Y-131467119D01*
X96921600Y-131467119D01*
X96926913Y-131468543D01*
X97155000Y-131488498D01*
X97383087Y-131468543D01*
X97388400Y-131467119D01*
X97388402Y-131467119D01*
X97598933Y-131410707D01*
X97598935Y-131410706D01*
X97604243Y-131409284D01*
X97654616Y-131385795D01*
X97806762Y-131314849D01*
X97806767Y-131314846D01*
X97811749Y-131312523D01*
X97916611Y-131239098D01*
X97994789Y-131184357D01*
X97994792Y-131184355D01*
X97999300Y-131181198D01*
X98161198Y-131019300D01*
X98181109Y-130990865D01*
X98269963Y-130863968D01*
X98292523Y-130831749D01*
X98294846Y-130826767D01*
X98294849Y-130826762D01*
X98386961Y-130629225D01*
X98386961Y-130629224D01*
X98389284Y-130624243D01*
X98400627Y-130581913D01*
X98447119Y-130408402D01*
X98447119Y-130408400D01*
X98448543Y-130403087D01*
X98468498Y-130175000D01*
X106001502Y-130175000D01*
X106021457Y-130403087D01*
X106022881Y-130408400D01*
X106022881Y-130408402D01*
X106069374Y-130581913D01*
X106080716Y-130624243D01*
X106083039Y-130629224D01*
X106083039Y-130629225D01*
X106175151Y-130826762D01*
X106175154Y-130826767D01*
X106177477Y-130831749D01*
X106200037Y-130863968D01*
X106288892Y-130990865D01*
X106308802Y-131019300D01*
X106470700Y-131181198D01*
X106475208Y-131184355D01*
X106475211Y-131184357D01*
X106553389Y-131239098D01*
X106658251Y-131312523D01*
X106663233Y-131314846D01*
X106663238Y-131314849D01*
X106815384Y-131385795D01*
X106865757Y-131409284D01*
X106871065Y-131410706D01*
X106871067Y-131410707D01*
X107081598Y-131467119D01*
X107081600Y-131467119D01*
X107086913Y-131468543D01*
X107315000Y-131488498D01*
X107543087Y-131468543D01*
X107548400Y-131467119D01*
X107548402Y-131467119D01*
X107758933Y-131410707D01*
X107758935Y-131410706D01*
X107764243Y-131409284D01*
X107814616Y-131385795D01*
X107966762Y-131314849D01*
X107966767Y-131314846D01*
X107971749Y-131312523D01*
X108076611Y-131239098D01*
X108154789Y-131184357D01*
X108154792Y-131184355D01*
X108159300Y-131181198D01*
X108321198Y-131019300D01*
X108341109Y-130990865D01*
X108429963Y-130863968D01*
X108452523Y-130831749D01*
X108454846Y-130826767D01*
X108454849Y-130826762D01*
X108546961Y-130629225D01*
X108546961Y-130629224D01*
X108549284Y-130624243D01*
X108560627Y-130581913D01*
X108607119Y-130408402D01*
X108607119Y-130408400D01*
X108608543Y-130403087D01*
X108628498Y-130175000D01*
X108608543Y-129946913D01*
X108607119Y-129941598D01*
X108550707Y-129731067D01*
X108550706Y-129731065D01*
X108549284Y-129725757D01*
X108533814Y-129692581D01*
X108454849Y-129523238D01*
X108454846Y-129523233D01*
X108452523Y-129518251D01*
X108352757Y-129375771D01*
X108324357Y-129335211D01*
X108324355Y-129335208D01*
X108321198Y-129330700D01*
X108159300Y-129168802D01*
X108154792Y-129165645D01*
X108154789Y-129165643D01*
X107992654Y-129052115D01*
X107971749Y-129037477D01*
X107966767Y-129035154D01*
X107966762Y-129035151D01*
X107769225Y-128943039D01*
X107769224Y-128943039D01*
X107764243Y-128940716D01*
X107758935Y-128939294D01*
X107758933Y-128939293D01*
X107548402Y-128882881D01*
X107548400Y-128882881D01*
X107543087Y-128881457D01*
X107315000Y-128861502D01*
X107086913Y-128881457D01*
X107081600Y-128882881D01*
X107081598Y-128882881D01*
X106871067Y-128939293D01*
X106871065Y-128939294D01*
X106865757Y-128940716D01*
X106860776Y-128943039D01*
X106860775Y-128943039D01*
X106663238Y-129035151D01*
X106663233Y-129035154D01*
X106658251Y-129037477D01*
X106637346Y-129052115D01*
X106475211Y-129165643D01*
X106475208Y-129165645D01*
X106470700Y-129168802D01*
X106308802Y-129330700D01*
X106305645Y-129335208D01*
X106305643Y-129335211D01*
X106277243Y-129375771D01*
X106177477Y-129518251D01*
X106175154Y-129523233D01*
X106175151Y-129523238D01*
X106096186Y-129692581D01*
X106080716Y-129725757D01*
X106079294Y-129731065D01*
X106079293Y-129731067D01*
X106022881Y-129941598D01*
X106021457Y-129946913D01*
X106001502Y-130175000D01*
X98468498Y-130175000D01*
X98448543Y-129946913D01*
X98447119Y-129941598D01*
X98390707Y-129731067D01*
X98390706Y-129731065D01*
X98389284Y-129725757D01*
X98373814Y-129692581D01*
X98294849Y-129523238D01*
X98294846Y-129523233D01*
X98292523Y-129518251D01*
X98192757Y-129375771D01*
X98164357Y-129335211D01*
X98164355Y-129335208D01*
X98161198Y-129330700D01*
X97999300Y-129168802D01*
X97994792Y-129165645D01*
X97994789Y-129165643D01*
X97832654Y-129052115D01*
X97811749Y-129037477D01*
X97806767Y-129035154D01*
X97806762Y-129035151D01*
X97609225Y-128943039D01*
X97609224Y-128943039D01*
X97604243Y-128940716D01*
X97598935Y-128939294D01*
X97598933Y-128939293D01*
X97388402Y-128882881D01*
X97388400Y-128882881D01*
X97383087Y-128881457D01*
X97155000Y-128861502D01*
X96926913Y-128881457D01*
X96921600Y-128882881D01*
X96921598Y-128882881D01*
X96711067Y-128939293D01*
X96711065Y-128939294D01*
X96705757Y-128940716D01*
X96700776Y-128943039D01*
X96700775Y-128943039D01*
X96503238Y-129035151D01*
X96503233Y-129035154D01*
X96498251Y-129037477D01*
X96477346Y-129052115D01*
X96315211Y-129165643D01*
X96315208Y-129165645D01*
X96310700Y-129168802D01*
X96148802Y-129330700D01*
X96145645Y-129335208D01*
X96145643Y-129335211D01*
X96117243Y-129375771D01*
X96017477Y-129518251D01*
X96015154Y-129523233D01*
X96015151Y-129523238D01*
X95936186Y-129692581D01*
X95920716Y-129725757D01*
X95919294Y-129731065D01*
X95919293Y-129731067D01*
X95862881Y-129941598D01*
X95861457Y-129946913D01*
X95841502Y-130175000D01*
X95504500Y-130175000D01*
X95504500Y-129362334D01*
X95501218Y-129330700D01*
X95494180Y-129262868D01*
X95494179Y-129262864D01*
X95493468Y-129256010D01*
X95437197Y-129087346D01*
X95343634Y-128936150D01*
X95217799Y-128810534D01*
X95066440Y-128717236D01*
X95059491Y-128714931D01*
X94904209Y-128663425D01*
X94904207Y-128663424D01*
X94897678Y-128661259D01*
X94792666Y-128650500D01*
X93167334Y-128650500D01*
X93164088Y-128650837D01*
X93164084Y-128650837D01*
X93067868Y-128660820D01*
X93067864Y-128660821D01*
X93061010Y-128661532D01*
X93054474Y-128663713D01*
X93054472Y-128663713D01*
X92922723Y-128707668D01*
X92892346Y-128717803D01*
X92741150Y-128811366D01*
X92615534Y-128937201D01*
X92611694Y-128943431D01*
X92611693Y-128943432D01*
X92596895Y-128967440D01*
X92522236Y-129088560D01*
X92519931Y-129095508D01*
X92519931Y-129095509D01*
X92479146Y-129218471D01*
X92466259Y-129257322D01*
X92455500Y-129362334D01*
X92455500Y-129390808D01*
X92435498Y-129458929D01*
X92381842Y-129505422D01*
X92311568Y-129515526D01*
X92246988Y-129486032D01*
X92229537Y-129467512D01*
X92184957Y-129409414D01*
X92116123Y-129319708D01*
X91949964Y-129168515D01*
X91945217Y-129165537D01*
X91945214Y-129165535D01*
X91764405Y-129052115D01*
X91759656Y-129049136D01*
X91551217Y-128965344D01*
X91331233Y-128919787D01*
X91326622Y-128919521D01*
X91326621Y-128919521D01*
X91276048Y-128916605D01*
X91276044Y-128916605D01*
X91274225Y-128916500D01*
X91129001Y-128916500D01*
X91126214Y-128916749D01*
X91126208Y-128916749D01*
X91056071Y-128923009D01*
X90962238Y-128931383D01*
X90956824Y-128932864D01*
X90956819Y-128932865D01*
X90842262Y-128964205D01*
X90745549Y-128990663D01*
X90740491Y-128993075D01*
X90740487Y-128993077D01*
X90644165Y-129039021D01*
X90542782Y-129087378D01*
X90360346Y-129218471D01*
X90308554Y-129271916D01*
X90217768Y-129365600D01*
X90204008Y-129379799D01*
X90078710Y-129566262D01*
X89988412Y-129771967D01*
X89987103Y-129777418D01*
X89987102Y-129777422D01*
X89937278Y-129984954D01*
X89935968Y-129990411D01*
X89935645Y-129996016D01*
X89925010Y-130180475D01*
X89923037Y-130214690D01*
X89662000Y-130214690D01*
X89662000Y-128086062D01*
X101593493Y-128086062D01*
X101602789Y-128098077D01*
X101653994Y-128133931D01*
X101663489Y-128139414D01*
X101860947Y-128231490D01*
X101871239Y-128235236D01*
X102081688Y-128291625D01*
X102092481Y-128293528D01*
X102309525Y-128312517D01*
X102320475Y-128312517D01*
X102537519Y-128293528D01*
X102548312Y-128291625D01*
X102758761Y-128235236D01*
X102769053Y-128231490D01*
X102966511Y-128139414D01*
X102976006Y-128133931D01*
X103028048Y-128097491D01*
X103036424Y-128087012D01*
X103029356Y-128073566D01*
X102327812Y-127372022D01*
X102313868Y-127364408D01*
X102312035Y-127364539D01*
X102305420Y-127368790D01*
X101599923Y-128074287D01*
X101593493Y-128086062D01*
X89662000Y-128086062D01*
X89662000Y-126285000D01*
X92666502Y-126285000D01*
X92686457Y-126513087D01*
X92687881Y-126518400D01*
X92687881Y-126518402D01*
X92734374Y-126691913D01*
X92745716Y-126734243D01*
X92748039Y-126739224D01*
X92748039Y-126739225D01*
X92840151Y-126936762D01*
X92840154Y-126936767D01*
X92842477Y-126941749D01*
X92874294Y-126987188D01*
X92963419Y-127114471D01*
X92973802Y-127129300D01*
X93135700Y-127291198D01*
X93140208Y-127294355D01*
X93140211Y-127294357D01*
X93218389Y-127349098D01*
X93323251Y-127422523D01*
X93328233Y-127424846D01*
X93328238Y-127424849D01*
X93525775Y-127516961D01*
X93530757Y-127519284D01*
X93536065Y-127520706D01*
X93536067Y-127520707D01*
X93746598Y-127577119D01*
X93746600Y-127577119D01*
X93751913Y-127578543D01*
X93980000Y-127598498D01*
X94208087Y-127578543D01*
X94213400Y-127577119D01*
X94213402Y-127577119D01*
X94423933Y-127520707D01*
X94423935Y-127520706D01*
X94429243Y-127519284D01*
X94434225Y-127516961D01*
X94631762Y-127424849D01*
X94631767Y-127424846D01*
X94636749Y-127422523D01*
X94741611Y-127349098D01*
X94819789Y-127294357D01*
X94819792Y-127294355D01*
X94824300Y-127291198D01*
X94986198Y-127129300D01*
X94996582Y-127114471D01*
X95072901Y-127005475D01*
X101002483Y-127005475D01*
X101021472Y-127222519D01*
X101023375Y-127233312D01*
X101079764Y-127443761D01*
X101083510Y-127454053D01*
X101175586Y-127651511D01*
X101181069Y-127661006D01*
X101217509Y-127713048D01*
X101227988Y-127721424D01*
X101241434Y-127714356D01*
X101942978Y-127012812D01*
X101949356Y-127001132D01*
X102679408Y-127001132D01*
X102679539Y-127002965D01*
X102683790Y-127009580D01*
X103389287Y-127715077D01*
X103401062Y-127721507D01*
X103413077Y-127712211D01*
X103448931Y-127661006D01*
X103454414Y-127651511D01*
X103546490Y-127454053D01*
X103550236Y-127443761D01*
X103606625Y-127233312D01*
X103608528Y-127222519D01*
X103627517Y-127005475D01*
X103627517Y-127000000D01*
X106001502Y-127000000D01*
X106021457Y-127228087D01*
X106022881Y-127233400D01*
X106022881Y-127233402D01*
X106075703Y-127430533D01*
X106080716Y-127449243D01*
X106083039Y-127454224D01*
X106083039Y-127454225D01*
X106175151Y-127651762D01*
X106175154Y-127651767D01*
X106177477Y-127656749D01*
X106180634Y-127661257D01*
X106296156Y-127826239D01*
X106308802Y-127844300D01*
X106470700Y-128006198D01*
X106475208Y-128009355D01*
X106475211Y-128009357D01*
X106539489Y-128054365D01*
X106658251Y-128137523D01*
X106663233Y-128139846D01*
X106663238Y-128139849D01*
X106859765Y-128231490D01*
X106865757Y-128234284D01*
X106871065Y-128235706D01*
X106871067Y-128235707D01*
X107081598Y-128292119D01*
X107081600Y-128292119D01*
X107086913Y-128293543D01*
X107315000Y-128313498D01*
X107543087Y-128293543D01*
X107548400Y-128292119D01*
X107548402Y-128292119D01*
X107758933Y-128235707D01*
X107758935Y-128235706D01*
X107764243Y-128234284D01*
X107770235Y-128231490D01*
X107966762Y-128139849D01*
X107966767Y-128139846D01*
X107971749Y-128137523D01*
X108090511Y-128054365D01*
X108154789Y-128009357D01*
X108154792Y-128009355D01*
X108159300Y-128006198D01*
X108321198Y-127844300D01*
X108333845Y-127826239D01*
X108449366Y-127661257D01*
X108452523Y-127656749D01*
X108454846Y-127651767D01*
X108454849Y-127651762D01*
X108546961Y-127454225D01*
X108546961Y-127454224D01*
X108549284Y-127449243D01*
X108554298Y-127430533D01*
X108607119Y-127233402D01*
X108607119Y-127233400D01*
X108608543Y-127228087D01*
X108628498Y-127000000D01*
X108608543Y-126771913D01*
X108597929Y-126732301D01*
X108550707Y-126556067D01*
X108550706Y-126556065D01*
X108549284Y-126550757D01*
X108534197Y-126518402D01*
X108454849Y-126348238D01*
X108454846Y-126348233D01*
X108452523Y-126343251D01*
X108379098Y-126238389D01*
X108324357Y-126160211D01*
X108324355Y-126160208D01*
X108321198Y-126155700D01*
X108159300Y-125993802D01*
X108154792Y-125990645D01*
X108154789Y-125990643D01*
X108028920Y-125902509D01*
X107971749Y-125862477D01*
X107966767Y-125860154D01*
X107966762Y-125860151D01*
X107769225Y-125768039D01*
X107769224Y-125768039D01*
X107764243Y-125765716D01*
X107758935Y-125764294D01*
X107758933Y-125764293D01*
X107548402Y-125707881D01*
X107548400Y-125707881D01*
X107543087Y-125706457D01*
X107315000Y-125686502D01*
X107086913Y-125706457D01*
X107081600Y-125707881D01*
X107081598Y-125707881D01*
X106871067Y-125764293D01*
X106871065Y-125764294D01*
X106865757Y-125765716D01*
X106860776Y-125768039D01*
X106860775Y-125768039D01*
X106663238Y-125860151D01*
X106663233Y-125860154D01*
X106658251Y-125862477D01*
X106601080Y-125902509D01*
X106475211Y-125990643D01*
X106475208Y-125990645D01*
X106470700Y-125993802D01*
X106308802Y-126155700D01*
X106305645Y-126160208D01*
X106305643Y-126160211D01*
X106250902Y-126238389D01*
X106177477Y-126343251D01*
X106175154Y-126348233D01*
X106175151Y-126348238D01*
X106095803Y-126518402D01*
X106080716Y-126550757D01*
X106079294Y-126556065D01*
X106079293Y-126556067D01*
X106032071Y-126732301D01*
X106021457Y-126771913D01*
X106001502Y-127000000D01*
X103627517Y-127000000D01*
X103627517Y-126994525D01*
X103608528Y-126777481D01*
X103606625Y-126766688D01*
X103550236Y-126556239D01*
X103546490Y-126545947D01*
X103454414Y-126348489D01*
X103448931Y-126338994D01*
X103412491Y-126286952D01*
X103402012Y-126278576D01*
X103388566Y-126285644D01*
X102687022Y-126987188D01*
X102679408Y-127001132D01*
X101949356Y-127001132D01*
X101950592Y-126998868D01*
X101950461Y-126997035D01*
X101946210Y-126990420D01*
X101240713Y-126284923D01*
X101228938Y-126278493D01*
X101216923Y-126287789D01*
X101181069Y-126338994D01*
X101175586Y-126348489D01*
X101083510Y-126545947D01*
X101079764Y-126556239D01*
X101023375Y-126766688D01*
X101021472Y-126777481D01*
X101002483Y-126994525D01*
X101002483Y-127005475D01*
X95072901Y-127005475D01*
X95085706Y-126987188D01*
X95117523Y-126941749D01*
X95119846Y-126936767D01*
X95119849Y-126936762D01*
X95211961Y-126739225D01*
X95211961Y-126739224D01*
X95214284Y-126734243D01*
X95225627Y-126691913D01*
X95272119Y-126518402D01*
X95272119Y-126518400D01*
X95273543Y-126513087D01*
X95293498Y-126285000D01*
X95273543Y-126056913D01*
X95257677Y-125997699D01*
X95234978Y-125912988D01*
X101593576Y-125912988D01*
X101600644Y-125926434D01*
X102302188Y-126627978D01*
X102316132Y-126635592D01*
X102317965Y-126635461D01*
X102324580Y-126631210D01*
X103030077Y-125925713D01*
X103036507Y-125913938D01*
X103027211Y-125901923D01*
X102976006Y-125866069D01*
X102966511Y-125860586D01*
X102769053Y-125768510D01*
X102758761Y-125764764D01*
X102548312Y-125708375D01*
X102537519Y-125706472D01*
X102320475Y-125687483D01*
X102309525Y-125687483D01*
X102092481Y-125706472D01*
X102081688Y-125708375D01*
X101871239Y-125764764D01*
X101860947Y-125768510D01*
X101663489Y-125860586D01*
X101653994Y-125866069D01*
X101601952Y-125902509D01*
X101593576Y-125912988D01*
X95234978Y-125912988D01*
X95215707Y-125841067D01*
X95215706Y-125841065D01*
X95214284Y-125835757D01*
X95211961Y-125830775D01*
X95119849Y-125633238D01*
X95119846Y-125633233D01*
X95117523Y-125628251D01*
X94986198Y-125440700D01*
X94824300Y-125278802D01*
X94819792Y-125275645D01*
X94819789Y-125275643D01*
X94741611Y-125220902D01*
X94636749Y-125147477D01*
X94631767Y-125145154D01*
X94631762Y-125145151D01*
X94434225Y-125053039D01*
X94434224Y-125053039D01*
X94429243Y-125050716D01*
X94423935Y-125049294D01*
X94423933Y-125049293D01*
X94213402Y-124992881D01*
X94213400Y-124992881D01*
X94208087Y-124991457D01*
X93980000Y-124971502D01*
X93751913Y-124991457D01*
X93746600Y-124992881D01*
X93746598Y-124992881D01*
X93536067Y-125049293D01*
X93536065Y-125049294D01*
X93530757Y-125050716D01*
X93525776Y-125053039D01*
X93525775Y-125053039D01*
X93328238Y-125145151D01*
X93328233Y-125145154D01*
X93323251Y-125147477D01*
X93218389Y-125220902D01*
X93140211Y-125275643D01*
X93140208Y-125275645D01*
X93135700Y-125278802D01*
X92973802Y-125440700D01*
X92842477Y-125628251D01*
X92840154Y-125633233D01*
X92840151Y-125633238D01*
X92748039Y-125830775D01*
X92745716Y-125835757D01*
X92744294Y-125841065D01*
X92744293Y-125841067D01*
X92702323Y-125997699D01*
X92686457Y-126056913D01*
X92666502Y-126285000D01*
X89662000Y-126285000D01*
X89662000Y-123825000D01*
X95841502Y-123825000D01*
X95861457Y-124053087D01*
X95862881Y-124058400D01*
X95862881Y-124058402D01*
X95898784Y-124192391D01*
X95920716Y-124274243D01*
X95923039Y-124279224D01*
X95923039Y-124279225D01*
X96015151Y-124476762D01*
X96015154Y-124476767D01*
X96017477Y-124481749D01*
X96148802Y-124669300D01*
X96310700Y-124831198D01*
X96315208Y-124834355D01*
X96315211Y-124834357D01*
X96376697Y-124877410D01*
X96498251Y-124962523D01*
X96503233Y-124964846D01*
X96503238Y-124964849D01*
X96692364Y-125053039D01*
X96705757Y-125059284D01*
X96711065Y-125060706D01*
X96711067Y-125060707D01*
X96921598Y-125117119D01*
X96921600Y-125117119D01*
X96926913Y-125118543D01*
X97155000Y-125138498D01*
X97383087Y-125118543D01*
X97388400Y-125117119D01*
X97388402Y-125117119D01*
X97598933Y-125060707D01*
X97598935Y-125060706D01*
X97604243Y-125059284D01*
X97617636Y-125053039D01*
X97806762Y-124964849D01*
X97806767Y-124964846D01*
X97811749Y-124962523D01*
X97933303Y-124877410D01*
X97994789Y-124834357D01*
X97994792Y-124834355D01*
X97999300Y-124831198D01*
X98161198Y-124669300D01*
X98292523Y-124481749D01*
X98294846Y-124476767D01*
X98294849Y-124476762D01*
X98386961Y-124279225D01*
X98386961Y-124279224D01*
X98389284Y-124274243D01*
X98411217Y-124192391D01*
X98447119Y-124058402D01*
X98447119Y-124058400D01*
X98448543Y-124053087D01*
X98468498Y-123825000D01*
X106001502Y-123825000D01*
X106021457Y-124053087D01*
X106022881Y-124058400D01*
X106022881Y-124058402D01*
X106058784Y-124192391D01*
X106080716Y-124274243D01*
X106083039Y-124279224D01*
X106083039Y-124279225D01*
X106175151Y-124476762D01*
X106175154Y-124476767D01*
X106177477Y-124481749D01*
X106308802Y-124669300D01*
X106470700Y-124831198D01*
X106475208Y-124834355D01*
X106475211Y-124834357D01*
X106536697Y-124877410D01*
X106658251Y-124962523D01*
X106663233Y-124964846D01*
X106663238Y-124964849D01*
X106852364Y-125053039D01*
X106865757Y-125059284D01*
X106871065Y-125060706D01*
X106871067Y-125060707D01*
X107081598Y-125117119D01*
X107081600Y-125117119D01*
X107086913Y-125118543D01*
X107315000Y-125138498D01*
X107543087Y-125118543D01*
X107548400Y-125117119D01*
X107548402Y-125117119D01*
X107758933Y-125060707D01*
X107758935Y-125060706D01*
X107764243Y-125059284D01*
X107777636Y-125053039D01*
X107966762Y-124964849D01*
X107966767Y-124964846D01*
X107971749Y-124962523D01*
X108093303Y-124877410D01*
X108154789Y-124834357D01*
X108154792Y-124834355D01*
X108159300Y-124831198D01*
X108321198Y-124669300D01*
X108452523Y-124481749D01*
X108454846Y-124476767D01*
X108454849Y-124476762D01*
X108546961Y-124279225D01*
X108546961Y-124279224D01*
X108549284Y-124274243D01*
X108571217Y-124192391D01*
X108607119Y-124058402D01*
X108607119Y-124058400D01*
X108608543Y-124053087D01*
X108628498Y-123825000D01*
X108608543Y-123596913D01*
X108570925Y-123456522D01*
X108550707Y-123381067D01*
X108550706Y-123381065D01*
X108549284Y-123375757D01*
X108482725Y-123233019D01*
X108454849Y-123173238D01*
X108454846Y-123173233D01*
X108452523Y-123168251D01*
X108321198Y-122980700D01*
X108159300Y-122818802D01*
X108154792Y-122815645D01*
X108154789Y-122815643D01*
X108075021Y-122759789D01*
X107971749Y-122687477D01*
X107966767Y-122685154D01*
X107966762Y-122685151D01*
X107769225Y-122593039D01*
X107769224Y-122593039D01*
X107764243Y-122590716D01*
X107758935Y-122589294D01*
X107758933Y-122589293D01*
X107548402Y-122532881D01*
X107548400Y-122532881D01*
X107543087Y-122531457D01*
X107315000Y-122511502D01*
X107086913Y-122531457D01*
X107081600Y-122532881D01*
X107081598Y-122532881D01*
X106871067Y-122589293D01*
X106871065Y-122589294D01*
X106865757Y-122590716D01*
X106860776Y-122593039D01*
X106860775Y-122593039D01*
X106663238Y-122685151D01*
X106663233Y-122685154D01*
X106658251Y-122687477D01*
X106554979Y-122759789D01*
X106475211Y-122815643D01*
X106475208Y-122815645D01*
X106470700Y-122818802D01*
X106308802Y-122980700D01*
X106177477Y-123168251D01*
X106175154Y-123173233D01*
X106175151Y-123173238D01*
X106147275Y-123233019D01*
X106080716Y-123375757D01*
X106079294Y-123381065D01*
X106079293Y-123381067D01*
X106059075Y-123456522D01*
X106021457Y-123596913D01*
X106001502Y-123825000D01*
X98468498Y-123825000D01*
X98448543Y-123596913D01*
X98410925Y-123456522D01*
X98390707Y-123381067D01*
X98390706Y-123381065D01*
X98389284Y-123375757D01*
X98322725Y-123233019D01*
X98294849Y-123173238D01*
X98294846Y-123173233D01*
X98292523Y-123168251D01*
X98161198Y-122980700D01*
X97999300Y-122818802D01*
X97994792Y-122815645D01*
X97994789Y-122815643D01*
X97915021Y-122759789D01*
X97811749Y-122687477D01*
X97806767Y-122685154D01*
X97806762Y-122685151D01*
X97609225Y-122593039D01*
X97609224Y-122593039D01*
X97604243Y-122590716D01*
X97598935Y-122589294D01*
X97598933Y-122589293D01*
X97388402Y-122532881D01*
X97388400Y-122532881D01*
X97383087Y-122531457D01*
X97155000Y-122511502D01*
X96926913Y-122531457D01*
X96921600Y-122532881D01*
X96921598Y-122532881D01*
X96711067Y-122589293D01*
X96711065Y-122589294D01*
X96705757Y-122590716D01*
X96700776Y-122593039D01*
X96700775Y-122593039D01*
X96503238Y-122685151D01*
X96503233Y-122685154D01*
X96498251Y-122687477D01*
X96394979Y-122759789D01*
X96315211Y-122815643D01*
X96315208Y-122815645D01*
X96310700Y-122818802D01*
X96148802Y-122980700D01*
X96017477Y-123168251D01*
X96015154Y-123173233D01*
X96015151Y-123173238D01*
X95987275Y-123233019D01*
X95920716Y-123375757D01*
X95919294Y-123381065D01*
X95919293Y-123381067D01*
X95899075Y-123456522D01*
X95861457Y-123596913D01*
X95841502Y-123825000D01*
X89662000Y-123825000D01*
X89662000Y-121285000D01*
X92666502Y-121285000D01*
X92686457Y-121513087D01*
X92687881Y-121518400D01*
X92687881Y-121518402D01*
X92734374Y-121691913D01*
X92745716Y-121734243D01*
X92748039Y-121739224D01*
X92748039Y-121739225D01*
X92840151Y-121936762D01*
X92840154Y-121936767D01*
X92842477Y-121941749D01*
X92973802Y-122129300D01*
X93135700Y-122291198D01*
X93140208Y-122294355D01*
X93140211Y-122294357D01*
X93208431Y-122342125D01*
X93323251Y-122422523D01*
X93328233Y-122424846D01*
X93328238Y-122424849D01*
X93525775Y-122516961D01*
X93530757Y-122519284D01*
X93536065Y-122520706D01*
X93536067Y-122520707D01*
X93746598Y-122577119D01*
X93746600Y-122577119D01*
X93751913Y-122578543D01*
X93980000Y-122598498D01*
X94208087Y-122578543D01*
X94213400Y-122577119D01*
X94213402Y-122577119D01*
X94423933Y-122520707D01*
X94423935Y-122520706D01*
X94429243Y-122519284D01*
X94434225Y-122516961D01*
X94631762Y-122424849D01*
X94631767Y-122424846D01*
X94636749Y-122422523D01*
X94751569Y-122342125D01*
X94819789Y-122294357D01*
X94819792Y-122294355D01*
X94824300Y-122291198D01*
X94986198Y-122129300D01*
X95117523Y-121941749D01*
X95119846Y-121936767D01*
X95119849Y-121936762D01*
X95211961Y-121739225D01*
X95211961Y-121739224D01*
X95214284Y-121734243D01*
X95225627Y-121691913D01*
X95272119Y-121518402D01*
X95272119Y-121518400D01*
X95273543Y-121513087D01*
X95293498Y-121285000D01*
X95273543Y-121056913D01*
X95272119Y-121051598D01*
X95215707Y-120841067D01*
X95215706Y-120841065D01*
X95214284Y-120835757D01*
X95211961Y-120830775D01*
X95127665Y-120650000D01*
X95841502Y-120650000D01*
X95861457Y-120878087D01*
X95862881Y-120883400D01*
X95862881Y-120883402D01*
X95914408Y-121075700D01*
X95920716Y-121099243D01*
X95923039Y-121104224D01*
X95923039Y-121104225D01*
X96015151Y-121301762D01*
X96015154Y-121301767D01*
X96017477Y-121306749D01*
X96020634Y-121311257D01*
X96128829Y-121465775D01*
X96148802Y-121494300D01*
X96310700Y-121656198D01*
X96315208Y-121659355D01*
X96315211Y-121659357D01*
X96361706Y-121691913D01*
X96498251Y-121787523D01*
X96503233Y-121789846D01*
X96503238Y-121789849D01*
X96700775Y-121881961D01*
X96705757Y-121884284D01*
X96711065Y-121885706D01*
X96711067Y-121885707D01*
X96921598Y-121942119D01*
X96921600Y-121942119D01*
X96926913Y-121943543D01*
X97155000Y-121963498D01*
X97383087Y-121943543D01*
X97388400Y-121942119D01*
X97388402Y-121942119D01*
X97598933Y-121885707D01*
X97598935Y-121885706D01*
X97604243Y-121884284D01*
X97609225Y-121881961D01*
X97806762Y-121789849D01*
X97806767Y-121789846D01*
X97811749Y-121787523D01*
X97948294Y-121691913D01*
X97994789Y-121659357D01*
X97994792Y-121659355D01*
X97999300Y-121656198D01*
X98161198Y-121494300D01*
X98181172Y-121465775D01*
X98289366Y-121311257D01*
X98292523Y-121306749D01*
X98294846Y-121301767D01*
X98294849Y-121301762D01*
X98386961Y-121104225D01*
X98386961Y-121104224D01*
X98389284Y-121099243D01*
X98395593Y-121075700D01*
X98447119Y-120883402D01*
X98447119Y-120883400D01*
X98448543Y-120878087D01*
X98468498Y-120650000D01*
X106001502Y-120650000D01*
X106021457Y-120878087D01*
X106022881Y-120883400D01*
X106022881Y-120883402D01*
X106074408Y-121075700D01*
X106080716Y-121099243D01*
X106083039Y-121104224D01*
X106083039Y-121104225D01*
X106175151Y-121301762D01*
X106175154Y-121301767D01*
X106177477Y-121306749D01*
X106180634Y-121311257D01*
X106288829Y-121465775D01*
X106308802Y-121494300D01*
X106470700Y-121656198D01*
X106475208Y-121659355D01*
X106475211Y-121659357D01*
X106521706Y-121691913D01*
X106658251Y-121787523D01*
X106663233Y-121789846D01*
X106663238Y-121789849D01*
X106860775Y-121881961D01*
X106865757Y-121884284D01*
X106871065Y-121885706D01*
X106871067Y-121885707D01*
X107081598Y-121942119D01*
X107081600Y-121942119D01*
X107086913Y-121943543D01*
X107315000Y-121963498D01*
X107543087Y-121943543D01*
X107548400Y-121942119D01*
X107548402Y-121942119D01*
X107758933Y-121885707D01*
X107758935Y-121885706D01*
X107764243Y-121884284D01*
X107769225Y-121881961D01*
X107966762Y-121789849D01*
X107966767Y-121789846D01*
X107971749Y-121787523D01*
X108108294Y-121691913D01*
X108154789Y-121659357D01*
X108154792Y-121659355D01*
X108159300Y-121656198D01*
X108321198Y-121494300D01*
X108341172Y-121465775D01*
X108449366Y-121311257D01*
X108452523Y-121306749D01*
X108454846Y-121301767D01*
X108454849Y-121301762D01*
X108546961Y-121104225D01*
X108546961Y-121104224D01*
X108549284Y-121099243D01*
X108555593Y-121075700D01*
X108607119Y-120883402D01*
X108607119Y-120883400D01*
X108608543Y-120878087D01*
X108628498Y-120650000D01*
X108608543Y-120421913D01*
X108607119Y-120416598D01*
X108550707Y-120206067D01*
X108550706Y-120206065D01*
X108549284Y-120200757D01*
X108546961Y-120195775D01*
X108454849Y-119998238D01*
X108454846Y-119998233D01*
X108452523Y-119993251D01*
X108368292Y-119872957D01*
X108324357Y-119810211D01*
X108324355Y-119810208D01*
X108321198Y-119805700D01*
X108159300Y-119643802D01*
X108154792Y-119640645D01*
X108154789Y-119640643D01*
X108017095Y-119544229D01*
X107971749Y-119512477D01*
X107966767Y-119510154D01*
X107966762Y-119510151D01*
X107769225Y-119418039D01*
X107769224Y-119418039D01*
X107764243Y-119415716D01*
X107758935Y-119414294D01*
X107758933Y-119414293D01*
X107548402Y-119357881D01*
X107548400Y-119357881D01*
X107543087Y-119356457D01*
X107315000Y-119336502D01*
X107086913Y-119356457D01*
X107081600Y-119357881D01*
X107081598Y-119357881D01*
X106871067Y-119414293D01*
X106871065Y-119414294D01*
X106865757Y-119415716D01*
X106860776Y-119418039D01*
X106860775Y-119418039D01*
X106663238Y-119510151D01*
X106663233Y-119510154D01*
X106658251Y-119512477D01*
X106612905Y-119544229D01*
X106475211Y-119640643D01*
X106475208Y-119640645D01*
X106470700Y-119643802D01*
X106308802Y-119805700D01*
X106305645Y-119810208D01*
X106305643Y-119810211D01*
X106261708Y-119872957D01*
X106177477Y-119993251D01*
X106175154Y-119998233D01*
X106175151Y-119998238D01*
X106083039Y-120195775D01*
X106080716Y-120200757D01*
X106079294Y-120206065D01*
X106079293Y-120206067D01*
X106022881Y-120416598D01*
X106021457Y-120421913D01*
X106001502Y-120650000D01*
X98468498Y-120650000D01*
X98448543Y-120421913D01*
X98447119Y-120416598D01*
X98390707Y-120206067D01*
X98390706Y-120206065D01*
X98389284Y-120200757D01*
X98386961Y-120195775D01*
X98294849Y-119998238D01*
X98294846Y-119998233D01*
X98292523Y-119993251D01*
X98208292Y-119872957D01*
X98164357Y-119810211D01*
X98164355Y-119810208D01*
X98161198Y-119805700D01*
X97999300Y-119643802D01*
X97994792Y-119640645D01*
X97994789Y-119640643D01*
X97857095Y-119544229D01*
X97811749Y-119512477D01*
X97806767Y-119510154D01*
X97806762Y-119510151D01*
X97609225Y-119418039D01*
X97609224Y-119418039D01*
X97604243Y-119415716D01*
X97598935Y-119414294D01*
X97598933Y-119414293D01*
X97388402Y-119357881D01*
X97388400Y-119357881D01*
X97383087Y-119356457D01*
X97155000Y-119336502D01*
X96926913Y-119356457D01*
X96921600Y-119357881D01*
X96921598Y-119357881D01*
X96711067Y-119414293D01*
X96711065Y-119414294D01*
X96705757Y-119415716D01*
X96700776Y-119418039D01*
X96700775Y-119418039D01*
X96503238Y-119510151D01*
X96503233Y-119510154D01*
X96498251Y-119512477D01*
X96452905Y-119544229D01*
X96315211Y-119640643D01*
X96315208Y-119640645D01*
X96310700Y-119643802D01*
X96148802Y-119805700D01*
X96145645Y-119810208D01*
X96145643Y-119810211D01*
X96101708Y-119872957D01*
X96017477Y-119993251D01*
X96015154Y-119998233D01*
X96015151Y-119998238D01*
X95923039Y-120195775D01*
X95920716Y-120200757D01*
X95919294Y-120206065D01*
X95919293Y-120206067D01*
X95862881Y-120416598D01*
X95861457Y-120421913D01*
X95841502Y-120650000D01*
X95127665Y-120650000D01*
X95119849Y-120633238D01*
X95119846Y-120633233D01*
X95117523Y-120628251D01*
X94986198Y-120440700D01*
X94824300Y-120278802D01*
X94819792Y-120275645D01*
X94819789Y-120275643D01*
X94714897Y-120202197D01*
X94636749Y-120147477D01*
X94631767Y-120145154D01*
X94631762Y-120145151D01*
X94434225Y-120053039D01*
X94434224Y-120053039D01*
X94429243Y-120050716D01*
X94423935Y-120049294D01*
X94423933Y-120049293D01*
X94213402Y-119992881D01*
X94213400Y-119992881D01*
X94208087Y-119991457D01*
X93980000Y-119971502D01*
X93751913Y-119991457D01*
X93746600Y-119992881D01*
X93746598Y-119992881D01*
X93536067Y-120049293D01*
X93536065Y-120049294D01*
X93530757Y-120050716D01*
X93525776Y-120053039D01*
X93525775Y-120053039D01*
X93328238Y-120145151D01*
X93328233Y-120145154D01*
X93323251Y-120147477D01*
X93245103Y-120202197D01*
X93140211Y-120275643D01*
X93140208Y-120275645D01*
X93135700Y-120278802D01*
X92973802Y-120440700D01*
X92842477Y-120628251D01*
X92840154Y-120633233D01*
X92840151Y-120633238D01*
X92748039Y-120830775D01*
X92745716Y-120835757D01*
X92744294Y-120841065D01*
X92744293Y-120841067D01*
X92687881Y-121051598D01*
X92686457Y-121056913D01*
X92666502Y-121285000D01*
X89662000Y-121285000D01*
X89662000Y-117514690D01*
X89923037Y-117514690D01*
X89923712Y-117520268D01*
X89946478Y-117708402D01*
X89950025Y-117737715D01*
X90016082Y-117952435D01*
X90018652Y-117957415D01*
X90018654Y-117957419D01*
X90075696Y-118067936D01*
X90119118Y-118152064D01*
X90255877Y-118330292D01*
X90422036Y-118481485D01*
X90426783Y-118484463D01*
X90426786Y-118484465D01*
X90553936Y-118564225D01*
X90612344Y-118600864D01*
X90820783Y-118684656D01*
X91040767Y-118730213D01*
X91045378Y-118730479D01*
X91045379Y-118730479D01*
X91095952Y-118733395D01*
X91095956Y-118733395D01*
X91097775Y-118733500D01*
X91242999Y-118733500D01*
X91245786Y-118733251D01*
X91245792Y-118733251D01*
X91315929Y-118726991D01*
X91409762Y-118718617D01*
X91415176Y-118717136D01*
X91415181Y-118717135D01*
X91542912Y-118682191D01*
X91626451Y-118659337D01*
X91631509Y-118656925D01*
X91631513Y-118656923D01*
X91749042Y-118600864D01*
X91829218Y-118562622D01*
X92011654Y-118431529D01*
X92147967Y-118290865D01*
X92164089Y-118274229D01*
X92164091Y-118274226D01*
X92167992Y-118270201D01*
X92224918Y-118185486D01*
X92279514Y-118140101D01*
X92349980Y-118131438D01*
X92413944Y-118162246D01*
X92451097Y-118222745D01*
X92455500Y-118255762D01*
X92455500Y-118287666D01*
X92455837Y-118290912D01*
X92455837Y-118290916D01*
X92465686Y-118385833D01*
X92466532Y-118393990D01*
X92522803Y-118562654D01*
X92616366Y-118713850D01*
X92742201Y-118839466D01*
X92893560Y-118932764D01*
X92900508Y-118935069D01*
X92900509Y-118935069D01*
X93055791Y-118986575D01*
X93055793Y-118986576D01*
X93062322Y-118988741D01*
X93167334Y-118999500D01*
X94792666Y-118999500D01*
X94795912Y-118999163D01*
X94795916Y-118999163D01*
X94892132Y-118989180D01*
X94892136Y-118989179D01*
X94898990Y-118988468D01*
X94905526Y-118986287D01*
X94905528Y-118986287D01*
X95037277Y-118942332D01*
X95067654Y-118932197D01*
X95218850Y-118838634D01*
X95344466Y-118712799D01*
X95361814Y-118684656D01*
X95379341Y-118656221D01*
X95437764Y-118561440D01*
X95464019Y-118482285D01*
X95491575Y-118399209D01*
X95491576Y-118399207D01*
X95493741Y-118392678D01*
X95504500Y-118287666D01*
X95504500Y-117475000D01*
X95841502Y-117475000D01*
X95861457Y-117703087D01*
X95862881Y-117708400D01*
X95862881Y-117708402D01*
X95909374Y-117881913D01*
X95920716Y-117924243D01*
X95923039Y-117929224D01*
X95923039Y-117929225D01*
X96015151Y-118126762D01*
X96015154Y-118126767D01*
X96017477Y-118131749D01*
X96055104Y-118185486D01*
X96128892Y-118290865D01*
X96148802Y-118319300D01*
X96310700Y-118481198D01*
X96315208Y-118484355D01*
X96315211Y-118484357D01*
X96320210Y-118487857D01*
X96498251Y-118612523D01*
X96503233Y-118614846D01*
X96503238Y-118614849D01*
X96699932Y-118706568D01*
X96705757Y-118709284D01*
X96711065Y-118710706D01*
X96711067Y-118710707D01*
X96921598Y-118767119D01*
X96921600Y-118767119D01*
X96926913Y-118768543D01*
X97155000Y-118788498D01*
X97383087Y-118768543D01*
X97388400Y-118767119D01*
X97388402Y-118767119D01*
X97598933Y-118710707D01*
X97598935Y-118710706D01*
X97604243Y-118709284D01*
X97610068Y-118706568D01*
X97806762Y-118614849D01*
X97806767Y-118614846D01*
X97811749Y-118612523D01*
X97989790Y-118487857D01*
X97994789Y-118484357D01*
X97994792Y-118484355D01*
X97999300Y-118481198D01*
X98161198Y-118319300D01*
X98181109Y-118290865D01*
X98254896Y-118185486D01*
X98292523Y-118131749D01*
X98294846Y-118126767D01*
X98294849Y-118126762D01*
X98386961Y-117929225D01*
X98386961Y-117929224D01*
X98389284Y-117924243D01*
X98400627Y-117881913D01*
X98447119Y-117708402D01*
X98447119Y-117708400D01*
X98448543Y-117703087D01*
X98468498Y-117475000D01*
X106001502Y-117475000D01*
X106021457Y-117703087D01*
X106022881Y-117708400D01*
X106022881Y-117708402D01*
X106069374Y-117881913D01*
X106080716Y-117924243D01*
X106083039Y-117929224D01*
X106083039Y-117929225D01*
X106175151Y-118126762D01*
X106175154Y-118126767D01*
X106177477Y-118131749D01*
X106215104Y-118185486D01*
X106288892Y-118290865D01*
X106308802Y-118319300D01*
X106470700Y-118481198D01*
X106475208Y-118484355D01*
X106475211Y-118484357D01*
X106480210Y-118487857D01*
X106658251Y-118612523D01*
X106663233Y-118614846D01*
X106663238Y-118614849D01*
X106859932Y-118706568D01*
X106865757Y-118709284D01*
X106871065Y-118710706D01*
X106871067Y-118710707D01*
X107081598Y-118767119D01*
X107081600Y-118767119D01*
X107086913Y-118768543D01*
X107315000Y-118788498D01*
X107543087Y-118768543D01*
X107548400Y-118767119D01*
X107548402Y-118767119D01*
X107758933Y-118710707D01*
X107758935Y-118710706D01*
X107764243Y-118709284D01*
X107770068Y-118706568D01*
X107966762Y-118614849D01*
X107966767Y-118614846D01*
X107971749Y-118612523D01*
X108149790Y-118487857D01*
X108154789Y-118484357D01*
X108154792Y-118484355D01*
X108159300Y-118481198D01*
X108321198Y-118319300D01*
X108341109Y-118290865D01*
X108414896Y-118185486D01*
X108452523Y-118131749D01*
X108454846Y-118126767D01*
X108454849Y-118126762D01*
X108546961Y-117929225D01*
X108546961Y-117929224D01*
X108549284Y-117924243D01*
X108560627Y-117881913D01*
X108607119Y-117708402D01*
X108607119Y-117708400D01*
X108608543Y-117703087D01*
X108628498Y-117475000D01*
X108608543Y-117246913D01*
X108604422Y-117231532D01*
X108550707Y-117031067D01*
X108550706Y-117031065D01*
X108549284Y-117025757D01*
X108536138Y-116997565D01*
X108454849Y-116823238D01*
X108454846Y-116823233D01*
X108452523Y-116818251D01*
X108352757Y-116675771D01*
X108324357Y-116635211D01*
X108324355Y-116635208D01*
X108321198Y-116630700D01*
X108159300Y-116468802D01*
X108154792Y-116465645D01*
X108154789Y-116465643D01*
X107992654Y-116352115D01*
X107971749Y-116337477D01*
X107966767Y-116335154D01*
X107966762Y-116335151D01*
X107769225Y-116243039D01*
X107769224Y-116243039D01*
X107764243Y-116240716D01*
X107758935Y-116239294D01*
X107758933Y-116239293D01*
X107548402Y-116182881D01*
X107548400Y-116182881D01*
X107543087Y-116181457D01*
X107315000Y-116161502D01*
X107086913Y-116181457D01*
X107081600Y-116182881D01*
X107081598Y-116182881D01*
X106871067Y-116239293D01*
X106871065Y-116239294D01*
X106865757Y-116240716D01*
X106860776Y-116243039D01*
X106860775Y-116243039D01*
X106663238Y-116335151D01*
X106663233Y-116335154D01*
X106658251Y-116337477D01*
X106637346Y-116352115D01*
X106475211Y-116465643D01*
X106475208Y-116465645D01*
X106470700Y-116468802D01*
X106308802Y-116630700D01*
X106305645Y-116635208D01*
X106305643Y-116635211D01*
X106277243Y-116675771D01*
X106177477Y-116818251D01*
X106175154Y-116823233D01*
X106175151Y-116823238D01*
X106093862Y-116997565D01*
X106080716Y-117025757D01*
X106079294Y-117031065D01*
X106079293Y-117031067D01*
X106025578Y-117231532D01*
X106021457Y-117246913D01*
X106001502Y-117475000D01*
X98468498Y-117475000D01*
X98448543Y-117246913D01*
X98444422Y-117231532D01*
X98390707Y-117031067D01*
X98390706Y-117031065D01*
X98389284Y-117025757D01*
X98376138Y-116997565D01*
X98294849Y-116823238D01*
X98294846Y-116823233D01*
X98292523Y-116818251D01*
X98192757Y-116675771D01*
X98164357Y-116635211D01*
X98164355Y-116635208D01*
X98161198Y-116630700D01*
X97999300Y-116468802D01*
X97994792Y-116465645D01*
X97994789Y-116465643D01*
X97832654Y-116352115D01*
X97811749Y-116337477D01*
X97806767Y-116335154D01*
X97806762Y-116335151D01*
X97609225Y-116243039D01*
X97609224Y-116243039D01*
X97604243Y-116240716D01*
X97598935Y-116239294D01*
X97598933Y-116239293D01*
X97388402Y-116182881D01*
X97388400Y-116182881D01*
X97383087Y-116181457D01*
X97155000Y-116161502D01*
X96926913Y-116181457D01*
X96921600Y-116182881D01*
X96921598Y-116182881D01*
X96711067Y-116239293D01*
X96711065Y-116239294D01*
X96705757Y-116240716D01*
X96700776Y-116243039D01*
X96700775Y-116243039D01*
X96503238Y-116335151D01*
X96503233Y-116335154D01*
X96498251Y-116337477D01*
X96477346Y-116352115D01*
X96315211Y-116465643D01*
X96315208Y-116465645D01*
X96310700Y-116468802D01*
X96148802Y-116630700D01*
X96145645Y-116635208D01*
X96145643Y-116635211D01*
X96117243Y-116675771D01*
X96017477Y-116818251D01*
X96015154Y-116823233D01*
X96015151Y-116823238D01*
X95933862Y-116997565D01*
X95920716Y-117025757D01*
X95919294Y-117031065D01*
X95919293Y-117031067D01*
X95865578Y-117231532D01*
X95861457Y-117246913D01*
X95841502Y-117475000D01*
X95504500Y-117475000D01*
X95504500Y-116662334D01*
X95501218Y-116630700D01*
X95494180Y-116562868D01*
X95494179Y-116562864D01*
X95493468Y-116556010D01*
X95457745Y-116448934D01*
X95439515Y-116394294D01*
X95437197Y-116387346D01*
X95343634Y-116236150D01*
X95217799Y-116110534D01*
X95066440Y-116017236D01*
X95059491Y-116014931D01*
X94904209Y-115963425D01*
X94904207Y-115963424D01*
X94897678Y-115961259D01*
X94792666Y-115950500D01*
X93167334Y-115950500D01*
X93164088Y-115950837D01*
X93164084Y-115950837D01*
X93067868Y-115960820D01*
X93067864Y-115960821D01*
X93061010Y-115961532D01*
X93054474Y-115963713D01*
X93054472Y-115963713D01*
X92922723Y-116007668D01*
X92892346Y-116017803D01*
X92741150Y-116111366D01*
X92615534Y-116237201D01*
X92611694Y-116243431D01*
X92611693Y-116243432D01*
X92597587Y-116266317D01*
X92522236Y-116388560D01*
X92519931Y-116395508D01*
X92519931Y-116395509D01*
X92479146Y-116518471D01*
X92466259Y-116557322D01*
X92455500Y-116662334D01*
X92455500Y-116690808D01*
X92435498Y-116758929D01*
X92381842Y-116805422D01*
X92311568Y-116815526D01*
X92246988Y-116786032D01*
X92229537Y-116767512D01*
X92191688Y-116718186D01*
X92116123Y-116619708D01*
X91949964Y-116468515D01*
X91945217Y-116465537D01*
X91945214Y-116465535D01*
X91764405Y-116352115D01*
X91759656Y-116349136D01*
X91551217Y-116265344D01*
X91331233Y-116219787D01*
X91326622Y-116219521D01*
X91326621Y-116219521D01*
X91276048Y-116216605D01*
X91276044Y-116216605D01*
X91274225Y-116216500D01*
X91129001Y-116216500D01*
X91126214Y-116216749D01*
X91126208Y-116216749D01*
X91056071Y-116223009D01*
X90962238Y-116231383D01*
X90956824Y-116232864D01*
X90956819Y-116232865D01*
X90842262Y-116264205D01*
X90745549Y-116290663D01*
X90740491Y-116293075D01*
X90740487Y-116293077D01*
X90644166Y-116339020D01*
X90542782Y-116387378D01*
X90360346Y-116518471D01*
X90314311Y-116565975D01*
X90217768Y-116665600D01*
X90204008Y-116679799D01*
X90078710Y-116866262D01*
X89988412Y-117071967D01*
X89987103Y-117077418D01*
X89987102Y-117077422D01*
X89937284Y-117284931D01*
X89935968Y-117290411D01*
X89935645Y-117296016D01*
X89923828Y-117500977D01*
X89923037Y-117514690D01*
X89662000Y-117514690D01*
X89662000Y-111720000D01*
X96911835Y-111720000D01*
X96930465Y-111956711D01*
X96985895Y-112187594D01*
X96987788Y-112192165D01*
X96987789Y-112192167D01*
X97061940Y-112371183D01*
X97076760Y-112406963D01*
X97079346Y-112411183D01*
X97198241Y-112605202D01*
X97198245Y-112605208D01*
X97200824Y-112609416D01*
X97355031Y-112789969D01*
X97535584Y-112944176D01*
X97539792Y-112946755D01*
X97539798Y-112946759D01*
X97733817Y-113065654D01*
X97738037Y-113068240D01*
X97742607Y-113070133D01*
X97742611Y-113070135D01*
X97863625Y-113120260D01*
X97957406Y-113159105D01*
X98016866Y-113173380D01*
X98183476Y-113213380D01*
X98183482Y-113213381D01*
X98188289Y-113214535D01*
X98425000Y-113233165D01*
X98661711Y-113214535D01*
X98666518Y-113213381D01*
X98666524Y-113213380D01*
X98833134Y-113173380D01*
X98892594Y-113159105D01*
X98986375Y-113120260D01*
X99107389Y-113070135D01*
X99107393Y-113070133D01*
X99111963Y-113068240D01*
X99116183Y-113065654D01*
X99310202Y-112946759D01*
X99310208Y-112946755D01*
X99314416Y-112944176D01*
X99494969Y-112789969D01*
X99649176Y-112609416D01*
X99651755Y-112605208D01*
X99651759Y-112605202D01*
X99770654Y-112411183D01*
X99773240Y-112406963D01*
X99788061Y-112371183D01*
X99862211Y-112192167D01*
X99862212Y-112192165D01*
X99864105Y-112187594D01*
X99919535Y-111956711D01*
X99938165Y-111720000D01*
X99919535Y-111483289D01*
X99911117Y-111448223D01*
X99865260Y-111257218D01*
X99864105Y-111252406D01*
X99847537Y-111212406D01*
X99775135Y-111037611D01*
X99775133Y-111037607D01*
X99773240Y-111033037D01*
X99751947Y-110998290D01*
X99651759Y-110834798D01*
X99651755Y-110834792D01*
X99649176Y-110830584D01*
X99494969Y-110650031D01*
X99314416Y-110495824D01*
X99310208Y-110493245D01*
X99310202Y-110493241D01*
X99116183Y-110374346D01*
X99111963Y-110371760D01*
X99107393Y-110369867D01*
X99107389Y-110369865D01*
X98897167Y-110282789D01*
X98897165Y-110282788D01*
X98892594Y-110280895D01*
X98812391Y-110261640D01*
X98666524Y-110226620D01*
X98666518Y-110226619D01*
X98661711Y-110225465D01*
X98425000Y-110206835D01*
X98188289Y-110225465D01*
X98183482Y-110226619D01*
X98183476Y-110226620D01*
X98037609Y-110261640D01*
X97957406Y-110280895D01*
X97952835Y-110282788D01*
X97952833Y-110282789D01*
X97742611Y-110369865D01*
X97742607Y-110369867D01*
X97738037Y-110371760D01*
X97733817Y-110374346D01*
X97539798Y-110493241D01*
X97539792Y-110493245D01*
X97535584Y-110495824D01*
X97355031Y-110650031D01*
X97200824Y-110830584D01*
X97198245Y-110834792D01*
X97198241Y-110834798D01*
X97098053Y-110998290D01*
X97076760Y-111033037D01*
X97074867Y-111037607D01*
X97074865Y-111037611D01*
X97002463Y-111212406D01*
X96985895Y-111252406D01*
X96984740Y-111257218D01*
X96938884Y-111448223D01*
X96930465Y-111483289D01*
X96911835Y-111720000D01*
X89662000Y-111720000D01*
X89662000Y-109220000D01*
X94411835Y-109220000D01*
X94430465Y-109456711D01*
X94485895Y-109687594D01*
X94487788Y-109692165D01*
X94487789Y-109692167D01*
X94561940Y-109871183D01*
X94576760Y-109906963D01*
X94579346Y-109911183D01*
X94698241Y-110105202D01*
X94698245Y-110105208D01*
X94700824Y-110109416D01*
X94855031Y-110289969D01*
X95035584Y-110444176D01*
X95039792Y-110446755D01*
X95039798Y-110446759D01*
X95233817Y-110565654D01*
X95238037Y-110568240D01*
X95242607Y-110570133D01*
X95242611Y-110570135D01*
X95427754Y-110646823D01*
X95457406Y-110659105D01*
X95516866Y-110673380D01*
X95683476Y-110713380D01*
X95683482Y-110713381D01*
X95688289Y-110714535D01*
X95925000Y-110733165D01*
X96161711Y-110714535D01*
X96166518Y-110713381D01*
X96166524Y-110713380D01*
X96333134Y-110673380D01*
X96392594Y-110659105D01*
X96422246Y-110646823D01*
X96607389Y-110570135D01*
X96607393Y-110570133D01*
X96611963Y-110568240D01*
X96616183Y-110565654D01*
X96810202Y-110446759D01*
X96810208Y-110446755D01*
X96814416Y-110444176D01*
X96994969Y-110289969D01*
X97149176Y-110109416D01*
X97151755Y-110105208D01*
X97151759Y-110105202D01*
X97270654Y-109911183D01*
X97273240Y-109906963D01*
X97288061Y-109871183D01*
X97362211Y-109692167D01*
X97362212Y-109692165D01*
X97364105Y-109687594D01*
X97419535Y-109456711D01*
X97438165Y-109220000D01*
X99411835Y-109220000D01*
X99430465Y-109456711D01*
X99485895Y-109687594D01*
X99487788Y-109692165D01*
X99487789Y-109692167D01*
X99561940Y-109871183D01*
X99576760Y-109906963D01*
X99579346Y-109911183D01*
X99698241Y-110105202D01*
X99698245Y-110105208D01*
X99700824Y-110109416D01*
X99855031Y-110289969D01*
X100035584Y-110444176D01*
X100039792Y-110446755D01*
X100039798Y-110446759D01*
X100233817Y-110565654D01*
X100238037Y-110568240D01*
X100242607Y-110570133D01*
X100242611Y-110570135D01*
X100427754Y-110646823D01*
X100457406Y-110659105D01*
X100516866Y-110673380D01*
X100683476Y-110713380D01*
X100683482Y-110713381D01*
X100688289Y-110714535D01*
X100925000Y-110733165D01*
X101161711Y-110714535D01*
X101166518Y-110713381D01*
X101166524Y-110713380D01*
X101333134Y-110673380D01*
X101392594Y-110659105D01*
X101422246Y-110646823D01*
X101607389Y-110570135D01*
X101607393Y-110570133D01*
X101611963Y-110568240D01*
X101616183Y-110565654D01*
X101810202Y-110446759D01*
X101810208Y-110446755D01*
X101814416Y-110444176D01*
X101994969Y-110289969D01*
X102149176Y-110109416D01*
X102151755Y-110105208D01*
X102151759Y-110105202D01*
X102270654Y-109911183D01*
X102273240Y-109906963D01*
X102288061Y-109871183D01*
X102362211Y-109692167D01*
X102362212Y-109692165D01*
X102364105Y-109687594D01*
X102419535Y-109456711D01*
X102438165Y-109220000D01*
X102419535Y-108983289D01*
X102411117Y-108948223D01*
X102365260Y-108757218D01*
X102364105Y-108752406D01*
X102347537Y-108712406D01*
X102275135Y-108537611D01*
X102275133Y-108537607D01*
X102273240Y-108533037D01*
X102246142Y-108488817D01*
X102151759Y-108334798D01*
X102151755Y-108334792D01*
X102149176Y-108330584D01*
X101994969Y-108150031D01*
X101814416Y-107995824D01*
X101810208Y-107993245D01*
X101810202Y-107993241D01*
X101739639Y-107950000D01*
X108071786Y-107950000D01*
X108090613Y-108189222D01*
X108091767Y-108194029D01*
X108091768Y-108194035D01*
X108123649Y-108326825D01*
X108146631Y-108422553D01*
X108148524Y-108427124D01*
X108148525Y-108427126D01*
X108213927Y-108585020D01*
X108238460Y-108644249D01*
X108363840Y-108848849D01*
X108519682Y-109031318D01*
X108523444Y-109034531D01*
X108693768Y-109180000D01*
X108702151Y-109187160D01*
X108906751Y-109312540D01*
X108911321Y-109314433D01*
X108911323Y-109314434D01*
X109123874Y-109402475D01*
X109128447Y-109404369D01*
X109210037Y-109423957D01*
X109356965Y-109459232D01*
X109356971Y-109459233D01*
X109361778Y-109460387D01*
X109445497Y-109466976D01*
X109459208Y-109468055D01*
X109525549Y-109493341D01*
X109538417Y-109504571D01*
X110074347Y-110040500D01*
X110666676Y-110632830D01*
X110672313Y-110638848D01*
X110715014Y-110687539D01*
X110719549Y-110691114D01*
X110719550Y-110691115D01*
X110739284Y-110706672D01*
X110750373Y-110716527D01*
X110998106Y-110964260D01*
X111032132Y-111026572D01*
X111035011Y-111053355D01*
X111035011Y-116737170D01*
X111015009Y-116805291D01*
X110961353Y-116851784D01*
X110891079Y-116861888D01*
X110876400Y-116858877D01*
X110723402Y-116817881D01*
X110723400Y-116817881D01*
X110718087Y-116816457D01*
X110490000Y-116796502D01*
X110261913Y-116816457D01*
X110256600Y-116817881D01*
X110256598Y-116817881D01*
X110046067Y-116874293D01*
X110046065Y-116874294D01*
X110040757Y-116875716D01*
X110035776Y-116878039D01*
X110035775Y-116878039D01*
X109838238Y-116970151D01*
X109838233Y-116970154D01*
X109833251Y-116972477D01*
X109749576Y-117031067D01*
X109650211Y-117100643D01*
X109650208Y-117100645D01*
X109645700Y-117103802D01*
X109483802Y-117265700D01*
X109352477Y-117453251D01*
X109350154Y-117458233D01*
X109350151Y-117458238D01*
X109276100Y-117617043D01*
X109255716Y-117660757D01*
X109254294Y-117666065D01*
X109254293Y-117666067D01*
X109197881Y-117876598D01*
X109196457Y-117881913D01*
X109176502Y-118110000D01*
X109196457Y-118338087D01*
X109197881Y-118343400D01*
X109197881Y-118343402D01*
X109234881Y-118481485D01*
X109255716Y-118559243D01*
X109258039Y-118564224D01*
X109258039Y-118564225D01*
X109350151Y-118761762D01*
X109350154Y-118761767D01*
X109352477Y-118766749D01*
X109483802Y-118954300D01*
X109645700Y-119116198D01*
X109650208Y-119119355D01*
X109650211Y-119119357D01*
X109683374Y-119142578D01*
X109833251Y-119247523D01*
X109838233Y-119249846D01*
X109838238Y-119249849D01*
X109872457Y-119265805D01*
X109925742Y-119312722D01*
X109945203Y-119380999D01*
X109924661Y-119448959D01*
X109872457Y-119494195D01*
X109838238Y-119510151D01*
X109838233Y-119510154D01*
X109833251Y-119512477D01*
X109787905Y-119544229D01*
X109650211Y-119640643D01*
X109650208Y-119640645D01*
X109645700Y-119643802D01*
X109483802Y-119805700D01*
X109480645Y-119810208D01*
X109480643Y-119810211D01*
X109436708Y-119872957D01*
X109352477Y-119993251D01*
X109350154Y-119998233D01*
X109350151Y-119998238D01*
X109258039Y-120195775D01*
X109255716Y-120200757D01*
X109254294Y-120206065D01*
X109254293Y-120206067D01*
X109197881Y-120416598D01*
X109196457Y-120421913D01*
X109176502Y-120650000D01*
X109196457Y-120878087D01*
X109197881Y-120883400D01*
X109197881Y-120883402D01*
X109249408Y-121075700D01*
X109255716Y-121099243D01*
X109258039Y-121104224D01*
X109258039Y-121104225D01*
X109350151Y-121301762D01*
X109350154Y-121301767D01*
X109352477Y-121306749D01*
X109355634Y-121311257D01*
X109463829Y-121465775D01*
X109483802Y-121494300D01*
X109645700Y-121656198D01*
X109650208Y-121659355D01*
X109650211Y-121659357D01*
X109696706Y-121691913D01*
X109833251Y-121787523D01*
X109838233Y-121789846D01*
X109838238Y-121789849D01*
X109873049Y-121806081D01*
X109926334Y-121852998D01*
X109945795Y-121921275D01*
X109925253Y-121989235D01*
X109873049Y-122034471D01*
X109838489Y-122050586D01*
X109828993Y-122056069D01*
X109650533Y-122181028D01*
X109642125Y-122188084D01*
X109488084Y-122342125D01*
X109481028Y-122350533D01*
X109356069Y-122528993D01*
X109350586Y-122538489D01*
X109258510Y-122735947D01*
X109254764Y-122746239D01*
X109208606Y-122918503D01*
X109208942Y-122932599D01*
X109216884Y-122936000D01*
X110618000Y-122936000D01*
X110686121Y-122956002D01*
X110732614Y-123009658D01*
X110744000Y-123062000D01*
X110744000Y-123318000D01*
X110723998Y-123386121D01*
X110670342Y-123432614D01*
X110618000Y-123444000D01*
X109222033Y-123444000D01*
X109208502Y-123447973D01*
X109207273Y-123456522D01*
X109254764Y-123633761D01*
X109258510Y-123644053D01*
X109350586Y-123841511D01*
X109356069Y-123851007D01*
X109481028Y-124029467D01*
X109488084Y-124037875D01*
X109642125Y-124191916D01*
X109650533Y-124198972D01*
X109828993Y-124323931D01*
X109838489Y-124329414D01*
X109873049Y-124345529D01*
X109926334Y-124392446D01*
X109945795Y-124460723D01*
X109925253Y-124528683D01*
X109873049Y-124573919D01*
X109838238Y-124590151D01*
X109838233Y-124590154D01*
X109833251Y-124592477D01*
X109734199Y-124661834D01*
X109650211Y-124720643D01*
X109650208Y-124720645D01*
X109645700Y-124723802D01*
X109483802Y-124885700D01*
X109352477Y-125073251D01*
X109350154Y-125078233D01*
X109350151Y-125078238D01*
X109317865Y-125147477D01*
X109255716Y-125280757D01*
X109196457Y-125501913D01*
X109176502Y-125730000D01*
X109196457Y-125958087D01*
X109197881Y-125963400D01*
X109197881Y-125963402D01*
X109249408Y-126155700D01*
X109255716Y-126179243D01*
X109258038Y-126184223D01*
X109258039Y-126184225D01*
X109350151Y-126381762D01*
X109350154Y-126381767D01*
X109352477Y-126386749D01*
X109355634Y-126391257D01*
X109471156Y-126556239D01*
X109483802Y-126574300D01*
X109645700Y-126736198D01*
X109650208Y-126739355D01*
X109650211Y-126739357D01*
X109689244Y-126766688D01*
X109833251Y-126867523D01*
X109838233Y-126869846D01*
X109838238Y-126869849D01*
X109873049Y-126886081D01*
X109926334Y-126932998D01*
X109945795Y-127001275D01*
X109925253Y-127069235D01*
X109873049Y-127114471D01*
X109838489Y-127130586D01*
X109828993Y-127136069D01*
X109650533Y-127261028D01*
X109642125Y-127268084D01*
X109488084Y-127422125D01*
X109481028Y-127430533D01*
X109356069Y-127608993D01*
X109350586Y-127618489D01*
X109258510Y-127815947D01*
X109254764Y-127826239D01*
X109208606Y-127998503D01*
X109208942Y-128012599D01*
X109216884Y-128016000D01*
X111757967Y-128016000D01*
X111771498Y-128012027D01*
X111772727Y-128003478D01*
X111725236Y-127826239D01*
X111721490Y-127815947D01*
X111629414Y-127618489D01*
X111623931Y-127608993D01*
X111498972Y-127430533D01*
X111491916Y-127422125D01*
X111337875Y-127268084D01*
X111329467Y-127261028D01*
X111151007Y-127136069D01*
X111141511Y-127130586D01*
X111106951Y-127114471D01*
X111053666Y-127067554D01*
X111034205Y-126999277D01*
X111054747Y-126931317D01*
X111106951Y-126886081D01*
X111141762Y-126869849D01*
X111141767Y-126869846D01*
X111146749Y-126867523D01*
X111290756Y-126766688D01*
X111329789Y-126739357D01*
X111329792Y-126739355D01*
X111334300Y-126736198D01*
X111496198Y-126574300D01*
X111508845Y-126556239D01*
X111624366Y-126391257D01*
X111627523Y-126386749D01*
X111629846Y-126381767D01*
X111629849Y-126381762D01*
X111721962Y-126184223D01*
X111721963Y-126184221D01*
X111724284Y-126179243D01*
X111739841Y-126121185D01*
X111772452Y-126064702D01*
X112107154Y-125730000D01*
X116796502Y-125730000D01*
X116816457Y-125958087D01*
X116817881Y-125963400D01*
X116817881Y-125963402D01*
X116869408Y-126155700D01*
X116875716Y-126179243D01*
X116878038Y-126184223D01*
X116878039Y-126184225D01*
X116970151Y-126381762D01*
X116970154Y-126381767D01*
X116972477Y-126386749D01*
X116975634Y-126391257D01*
X117091156Y-126556239D01*
X117103802Y-126574300D01*
X117265700Y-126736198D01*
X117270208Y-126739355D01*
X117270211Y-126739357D01*
X117309244Y-126766688D01*
X117453251Y-126867523D01*
X117458233Y-126869846D01*
X117458238Y-126869849D01*
X117493049Y-126886081D01*
X117546334Y-126932998D01*
X117565795Y-127001275D01*
X117545253Y-127069235D01*
X117493049Y-127114471D01*
X117458489Y-127130586D01*
X117448993Y-127136069D01*
X117270533Y-127261028D01*
X117262125Y-127268084D01*
X117108084Y-127422125D01*
X117101028Y-127430533D01*
X116976069Y-127608993D01*
X116970586Y-127618489D01*
X116878510Y-127815947D01*
X116874764Y-127826239D01*
X116828606Y-127998503D01*
X116828942Y-128012599D01*
X116836884Y-128016000D01*
X119377967Y-128016000D01*
X119391498Y-128012027D01*
X119392727Y-128003478D01*
X119345236Y-127826239D01*
X119341490Y-127815947D01*
X119249414Y-127618489D01*
X119243931Y-127608993D01*
X119118972Y-127430533D01*
X119111916Y-127422125D01*
X118957875Y-127268084D01*
X118949467Y-127261028D01*
X118771007Y-127136069D01*
X118761511Y-127130586D01*
X118726951Y-127114471D01*
X118673666Y-127067554D01*
X118654411Y-127000000D01*
X119971502Y-127000000D01*
X119991457Y-127228087D01*
X119992881Y-127233400D01*
X119992881Y-127233402D01*
X120045703Y-127430533D01*
X120050716Y-127449243D01*
X120053039Y-127454224D01*
X120053039Y-127454225D01*
X120145151Y-127651762D01*
X120145154Y-127651767D01*
X120147477Y-127656749D01*
X120150634Y-127661257D01*
X120266156Y-127826239D01*
X120278802Y-127844300D01*
X120440700Y-128006198D01*
X120445208Y-128009355D01*
X120445211Y-128009357D01*
X120509489Y-128054365D01*
X120628251Y-128137523D01*
X120633233Y-128139846D01*
X120633238Y-128139849D01*
X120829765Y-128231490D01*
X120835757Y-128234284D01*
X120841065Y-128235706D01*
X120841067Y-128235707D01*
X121051598Y-128292119D01*
X121051600Y-128292119D01*
X121056913Y-128293543D01*
X121285000Y-128313498D01*
X121513087Y-128293543D01*
X121518400Y-128292119D01*
X121518402Y-128292119D01*
X121728933Y-128235707D01*
X121728935Y-128235706D01*
X121734243Y-128234284D01*
X121740235Y-128231490D01*
X121936762Y-128139849D01*
X121936767Y-128139846D01*
X121941749Y-128137523D01*
X122015243Y-128086062D01*
X125563493Y-128086062D01*
X125572789Y-128098077D01*
X125623994Y-128133931D01*
X125633489Y-128139414D01*
X125830947Y-128231490D01*
X125841239Y-128235236D01*
X126051688Y-128291625D01*
X126062481Y-128293528D01*
X126279525Y-128312517D01*
X126290475Y-128312517D01*
X126507519Y-128293528D01*
X126518312Y-128291625D01*
X126728761Y-128235236D01*
X126739053Y-128231490D01*
X126936511Y-128139414D01*
X126946006Y-128133931D01*
X126998048Y-128097491D01*
X127006424Y-128087012D01*
X126999356Y-128073566D01*
X126297812Y-127372022D01*
X126283868Y-127364408D01*
X126282035Y-127364539D01*
X126275420Y-127368790D01*
X125569923Y-128074287D01*
X125563493Y-128086062D01*
X122015243Y-128086062D01*
X122060511Y-128054365D01*
X122124789Y-128009357D01*
X122124792Y-128009355D01*
X122129300Y-128006198D01*
X122291198Y-127844300D01*
X122303845Y-127826239D01*
X122419366Y-127661257D01*
X122422523Y-127656749D01*
X122424846Y-127651767D01*
X122424849Y-127651762D01*
X122516961Y-127454225D01*
X122516961Y-127454224D01*
X122519284Y-127449243D01*
X122524298Y-127430533D01*
X122577119Y-127233402D01*
X122577119Y-127233400D01*
X122578543Y-127228087D01*
X122598019Y-127005475D01*
X124972483Y-127005475D01*
X124991472Y-127222519D01*
X124993375Y-127233312D01*
X125049764Y-127443761D01*
X125053510Y-127454053D01*
X125145586Y-127651511D01*
X125151069Y-127661006D01*
X125187509Y-127713048D01*
X125197988Y-127721424D01*
X125211434Y-127714356D01*
X125912978Y-127012812D01*
X125919356Y-127001132D01*
X126649408Y-127001132D01*
X126649539Y-127002965D01*
X126653790Y-127009580D01*
X127359287Y-127715077D01*
X127371062Y-127721507D01*
X127383077Y-127712211D01*
X127418931Y-127661006D01*
X127424414Y-127651511D01*
X127516490Y-127454053D01*
X127520236Y-127443761D01*
X127576625Y-127233312D01*
X127578528Y-127222519D01*
X127597517Y-127005475D01*
X127597517Y-126994525D01*
X127590997Y-126920000D01*
X133306502Y-126920000D01*
X133326457Y-127148087D01*
X133327881Y-127153400D01*
X133327881Y-127153402D01*
X133363760Y-127287301D01*
X133385716Y-127369243D01*
X133388039Y-127374224D01*
X133388039Y-127374225D01*
X133480151Y-127571762D01*
X133480154Y-127571767D01*
X133482477Y-127576749D01*
X133497706Y-127598498D01*
X133579336Y-127715077D01*
X133613802Y-127764300D01*
X133775700Y-127926198D01*
X133780208Y-127929355D01*
X133780211Y-127929357D01*
X133894463Y-128009357D01*
X133963251Y-128057523D01*
X133968233Y-128059846D01*
X133968238Y-128059849D01*
X134165775Y-128151961D01*
X134170757Y-128154284D01*
X134176065Y-128155706D01*
X134176067Y-128155707D01*
X134386598Y-128212119D01*
X134386600Y-128212119D01*
X134391913Y-128213543D01*
X134620000Y-128233498D01*
X134848087Y-128213543D01*
X134853400Y-128212119D01*
X134853402Y-128212119D01*
X135063933Y-128155707D01*
X135063935Y-128155706D01*
X135069243Y-128154284D01*
X135074225Y-128151961D01*
X135271762Y-128059849D01*
X135271767Y-128059846D01*
X135276749Y-128057523D01*
X135345537Y-128009357D01*
X135459789Y-127929357D01*
X135459792Y-127929355D01*
X135464300Y-127926198D01*
X135626198Y-127764300D01*
X135660665Y-127715077D01*
X135742294Y-127598498D01*
X135757523Y-127576749D01*
X135759846Y-127571767D01*
X135759849Y-127571762D01*
X135851961Y-127374225D01*
X135851961Y-127374224D01*
X135854284Y-127369243D01*
X135876241Y-127287301D01*
X135912119Y-127153402D01*
X135912119Y-127153400D01*
X135913543Y-127148087D01*
X135933498Y-126920000D01*
X135913543Y-126691913D01*
X135883073Y-126578197D01*
X135855707Y-126476067D01*
X135855706Y-126476065D01*
X135854284Y-126470757D01*
X135815111Y-126386749D01*
X135759849Y-126268238D01*
X135759846Y-126268233D01*
X135757523Y-126263251D01*
X135658047Y-126121185D01*
X135629357Y-126080211D01*
X135629355Y-126080208D01*
X135626198Y-126075700D01*
X135464300Y-125913802D01*
X135459792Y-125910645D01*
X135459789Y-125910643D01*
X135360424Y-125841067D01*
X135276749Y-125782477D01*
X135271767Y-125780154D01*
X135271762Y-125780151D01*
X135074225Y-125688039D01*
X135074224Y-125688039D01*
X135069243Y-125685716D01*
X135063935Y-125684294D01*
X135063933Y-125684293D01*
X134853402Y-125627881D01*
X134853400Y-125627881D01*
X134848087Y-125626457D01*
X134620000Y-125606502D01*
X134391913Y-125626457D01*
X134386600Y-125627881D01*
X134386598Y-125627881D01*
X134176067Y-125684293D01*
X134176065Y-125684294D01*
X134170757Y-125685716D01*
X134165776Y-125688039D01*
X134165775Y-125688039D01*
X133968238Y-125780151D01*
X133968233Y-125780154D01*
X133963251Y-125782477D01*
X133879576Y-125841067D01*
X133780211Y-125910643D01*
X133780208Y-125910645D01*
X133775700Y-125913802D01*
X133613802Y-126075700D01*
X133610645Y-126080208D01*
X133610643Y-126080211D01*
X133581953Y-126121185D01*
X133482477Y-126263251D01*
X133480154Y-126268233D01*
X133480151Y-126268238D01*
X133424889Y-126386749D01*
X133385716Y-126470757D01*
X133384294Y-126476065D01*
X133384293Y-126476067D01*
X133356927Y-126578197D01*
X133326457Y-126691913D01*
X133306502Y-126920000D01*
X127590997Y-126920000D01*
X127578528Y-126777481D01*
X127576625Y-126766688D01*
X127520236Y-126556239D01*
X127516490Y-126545947D01*
X127424414Y-126348489D01*
X127418931Y-126338994D01*
X127382491Y-126286952D01*
X127372012Y-126278576D01*
X127358566Y-126285644D01*
X126657022Y-126987188D01*
X126649408Y-127001132D01*
X125919356Y-127001132D01*
X125920592Y-126998868D01*
X125920461Y-126997035D01*
X125916210Y-126990420D01*
X125210713Y-126284923D01*
X125198938Y-126278493D01*
X125186923Y-126287789D01*
X125151069Y-126338994D01*
X125145586Y-126348489D01*
X125053510Y-126545947D01*
X125049764Y-126556239D01*
X124993375Y-126766688D01*
X124991472Y-126777481D01*
X124972483Y-126994525D01*
X124972483Y-127005475D01*
X122598019Y-127005475D01*
X122598498Y-127000000D01*
X122578543Y-126771913D01*
X122567929Y-126732301D01*
X122520707Y-126556067D01*
X122520706Y-126556065D01*
X122519284Y-126550757D01*
X122504197Y-126518402D01*
X122424849Y-126348238D01*
X122424846Y-126348233D01*
X122422523Y-126343251D01*
X122349098Y-126238389D01*
X122294357Y-126160211D01*
X122294355Y-126160208D01*
X122291198Y-126155700D01*
X122129300Y-125993802D01*
X122124792Y-125990645D01*
X122124789Y-125990643D01*
X122013886Y-125912988D01*
X125563576Y-125912988D01*
X125570644Y-125926434D01*
X126272188Y-126627978D01*
X126286132Y-126635592D01*
X126287965Y-126635461D01*
X126294580Y-126631210D01*
X127000077Y-125925713D01*
X127006507Y-125913938D01*
X126997211Y-125901923D01*
X126946006Y-125866069D01*
X126936511Y-125860586D01*
X126739053Y-125768510D01*
X126728761Y-125764764D01*
X126518312Y-125708375D01*
X126507519Y-125706472D01*
X126290475Y-125687483D01*
X126279525Y-125687483D01*
X126062481Y-125706472D01*
X126051688Y-125708375D01*
X125841239Y-125764764D01*
X125830947Y-125768510D01*
X125633489Y-125860586D01*
X125623994Y-125866069D01*
X125571952Y-125902509D01*
X125563576Y-125912988D01*
X122013886Y-125912988D01*
X121998920Y-125902509D01*
X121941749Y-125862477D01*
X121936767Y-125860154D01*
X121936762Y-125860151D01*
X121739225Y-125768039D01*
X121739224Y-125768039D01*
X121734243Y-125765716D01*
X121728935Y-125764294D01*
X121728933Y-125764293D01*
X121518402Y-125707881D01*
X121518400Y-125707881D01*
X121513087Y-125706457D01*
X121285000Y-125686502D01*
X121056913Y-125706457D01*
X121051600Y-125707881D01*
X121051598Y-125707881D01*
X120841067Y-125764293D01*
X120841065Y-125764294D01*
X120835757Y-125765716D01*
X120830776Y-125768039D01*
X120830775Y-125768039D01*
X120633238Y-125860151D01*
X120633233Y-125860154D01*
X120628251Y-125862477D01*
X120571080Y-125902509D01*
X120445211Y-125990643D01*
X120445208Y-125990645D01*
X120440700Y-125993802D01*
X120278802Y-126155700D01*
X120275645Y-126160208D01*
X120275643Y-126160211D01*
X120220902Y-126238389D01*
X120147477Y-126343251D01*
X120145154Y-126348233D01*
X120145151Y-126348238D01*
X120065803Y-126518402D01*
X120050716Y-126550757D01*
X120049294Y-126556065D01*
X120049293Y-126556067D01*
X120002071Y-126732301D01*
X119991457Y-126771913D01*
X119971502Y-127000000D01*
X118654411Y-127000000D01*
X118654205Y-126999277D01*
X118674747Y-126931317D01*
X118726951Y-126886081D01*
X118761762Y-126869849D01*
X118761767Y-126869846D01*
X118766749Y-126867523D01*
X118910756Y-126766688D01*
X118949789Y-126739357D01*
X118949792Y-126739355D01*
X118954300Y-126736198D01*
X119116198Y-126574300D01*
X119128845Y-126556239D01*
X119244366Y-126391257D01*
X119247523Y-126386749D01*
X119249846Y-126381767D01*
X119249849Y-126381762D01*
X119341961Y-126184225D01*
X119341962Y-126184223D01*
X119344284Y-126179243D01*
X119350593Y-126155700D01*
X119402119Y-125963402D01*
X119402119Y-125963400D01*
X119403543Y-125958087D01*
X119423498Y-125730000D01*
X119403543Y-125501913D01*
X119344284Y-125280757D01*
X119282135Y-125147477D01*
X119249849Y-125078238D01*
X119249846Y-125078233D01*
X119247523Y-125073251D01*
X119116198Y-124885700D01*
X118954300Y-124723802D01*
X118949792Y-124720645D01*
X118949789Y-124720643D01*
X118865801Y-124661834D01*
X118766749Y-124592477D01*
X118761767Y-124590154D01*
X118761762Y-124590151D01*
X118726951Y-124573919D01*
X118673666Y-124527002D01*
X118654205Y-124458725D01*
X118674747Y-124390765D01*
X118726951Y-124345529D01*
X118761511Y-124329414D01*
X118771007Y-124323931D01*
X118949467Y-124198972D01*
X118957875Y-124191916D01*
X119111916Y-124037875D01*
X119118972Y-124029467D01*
X119243931Y-123851007D01*
X119249414Y-123841511D01*
X119257113Y-123825000D01*
X119971502Y-123825000D01*
X119991457Y-124053087D01*
X119992881Y-124058400D01*
X119992881Y-124058402D01*
X120028784Y-124192391D01*
X120050716Y-124274243D01*
X120053039Y-124279224D01*
X120053039Y-124279225D01*
X120145151Y-124476762D01*
X120145154Y-124476767D01*
X120147477Y-124481749D01*
X120278802Y-124669300D01*
X120440700Y-124831198D01*
X120445208Y-124834355D01*
X120445211Y-124834357D01*
X120506697Y-124877410D01*
X120628251Y-124962523D01*
X120633233Y-124964846D01*
X120633238Y-124964849D01*
X120822364Y-125053039D01*
X120835757Y-125059284D01*
X120841065Y-125060706D01*
X120841067Y-125060707D01*
X121051598Y-125117119D01*
X121051600Y-125117119D01*
X121056913Y-125118543D01*
X121285000Y-125138498D01*
X121513087Y-125118543D01*
X121518400Y-125117119D01*
X121518402Y-125117119D01*
X121728933Y-125060707D01*
X121728935Y-125060706D01*
X121734243Y-125059284D01*
X121747636Y-125053039D01*
X121936762Y-124964849D01*
X121936767Y-124964846D01*
X121941749Y-124962523D01*
X122063303Y-124877410D01*
X122124789Y-124834357D01*
X122124792Y-124834355D01*
X122129300Y-124831198D01*
X122291198Y-124669300D01*
X122422523Y-124481749D01*
X122424846Y-124476767D01*
X122424849Y-124476762D01*
X122516961Y-124279225D01*
X122516961Y-124279224D01*
X122519284Y-124274243D01*
X122541217Y-124192391D01*
X122577119Y-124058402D01*
X122577119Y-124058400D01*
X122578543Y-124053087D01*
X122598498Y-123825000D01*
X130131502Y-123825000D01*
X130151457Y-124053087D01*
X130152881Y-124058400D01*
X130152881Y-124058402D01*
X130188784Y-124192391D01*
X130210716Y-124274243D01*
X130213039Y-124279224D01*
X130213039Y-124279225D01*
X130305151Y-124476762D01*
X130305154Y-124476767D01*
X130307477Y-124481749D01*
X130438802Y-124669300D01*
X130600700Y-124831198D01*
X130605208Y-124834355D01*
X130605211Y-124834357D01*
X130666697Y-124877410D01*
X130788251Y-124962523D01*
X130793233Y-124964846D01*
X130793238Y-124964849D01*
X130982364Y-125053039D01*
X130995757Y-125059284D01*
X131001065Y-125060706D01*
X131001067Y-125060707D01*
X131211598Y-125117119D01*
X131211600Y-125117119D01*
X131216913Y-125118543D01*
X131445000Y-125138498D01*
X131673087Y-125118543D01*
X131678400Y-125117119D01*
X131678402Y-125117119D01*
X131888933Y-125060707D01*
X131888935Y-125060706D01*
X131894243Y-125059284D01*
X131907636Y-125053039D01*
X132096762Y-124964849D01*
X132096767Y-124964846D01*
X132101749Y-124962523D01*
X132223303Y-124877410D01*
X132284789Y-124834357D01*
X132284792Y-124834355D01*
X132289300Y-124831198D01*
X132451198Y-124669300D01*
X132582523Y-124481749D01*
X132584846Y-124476767D01*
X132584849Y-124476762D01*
X132676961Y-124279225D01*
X132676961Y-124279224D01*
X132679284Y-124274243D01*
X132701217Y-124192391D01*
X132737119Y-124058402D01*
X132737119Y-124058400D01*
X132738543Y-124053087D01*
X132758498Y-123825000D01*
X132738543Y-123596913D01*
X132700925Y-123456522D01*
X132680707Y-123381067D01*
X132680706Y-123381065D01*
X132679284Y-123375757D01*
X132612725Y-123233019D01*
X132584849Y-123173238D01*
X132584846Y-123173233D01*
X132582523Y-123168251D01*
X132451198Y-122980700D01*
X132289300Y-122818802D01*
X132284792Y-122815645D01*
X132284789Y-122815643D01*
X132205021Y-122759789D01*
X132101749Y-122687477D01*
X132096767Y-122685154D01*
X132096762Y-122685151D01*
X131899225Y-122593039D01*
X131899224Y-122593039D01*
X131894243Y-122590716D01*
X131888935Y-122589294D01*
X131888933Y-122589293D01*
X131678402Y-122532881D01*
X131678400Y-122532881D01*
X131673087Y-122531457D01*
X131445000Y-122511502D01*
X131216913Y-122531457D01*
X131211600Y-122532881D01*
X131211598Y-122532881D01*
X131001067Y-122589293D01*
X131001065Y-122589294D01*
X130995757Y-122590716D01*
X130990776Y-122593039D01*
X130990775Y-122593039D01*
X130793238Y-122685151D01*
X130793233Y-122685154D01*
X130788251Y-122687477D01*
X130684979Y-122759789D01*
X130605211Y-122815643D01*
X130605208Y-122815645D01*
X130600700Y-122818802D01*
X130438802Y-122980700D01*
X130307477Y-123168251D01*
X130305154Y-123173233D01*
X130305151Y-123173238D01*
X130277275Y-123233019D01*
X130210716Y-123375757D01*
X130209294Y-123381065D01*
X130209293Y-123381067D01*
X130189075Y-123456522D01*
X130151457Y-123596913D01*
X130131502Y-123825000D01*
X122598498Y-123825000D01*
X122578543Y-123596913D01*
X122540925Y-123456522D01*
X122520707Y-123381067D01*
X122520706Y-123381065D01*
X122519284Y-123375757D01*
X122452725Y-123233019D01*
X122424849Y-123173238D01*
X122424846Y-123173233D01*
X122422523Y-123168251D01*
X122291198Y-122980700D01*
X122129300Y-122818802D01*
X122124792Y-122815645D01*
X122124789Y-122815643D01*
X122045021Y-122759789D01*
X121941749Y-122687477D01*
X121936767Y-122685154D01*
X121936762Y-122685151D01*
X121739225Y-122593039D01*
X121739224Y-122593039D01*
X121734243Y-122590716D01*
X121728935Y-122589294D01*
X121728933Y-122589293D01*
X121518402Y-122532881D01*
X121518400Y-122532881D01*
X121513087Y-122531457D01*
X121285000Y-122511502D01*
X121056913Y-122531457D01*
X121051600Y-122532881D01*
X121051598Y-122532881D01*
X120841067Y-122589293D01*
X120841065Y-122589294D01*
X120835757Y-122590716D01*
X120830776Y-122593039D01*
X120830775Y-122593039D01*
X120633238Y-122685151D01*
X120633233Y-122685154D01*
X120628251Y-122687477D01*
X120524979Y-122759789D01*
X120445211Y-122815643D01*
X120445208Y-122815645D01*
X120440700Y-122818802D01*
X120278802Y-122980700D01*
X120147477Y-123168251D01*
X120145154Y-123173233D01*
X120145151Y-123173238D01*
X120117275Y-123233019D01*
X120050716Y-123375757D01*
X120049294Y-123381065D01*
X120049293Y-123381067D01*
X120029075Y-123456522D01*
X119991457Y-123596913D01*
X119971502Y-123825000D01*
X119257113Y-123825000D01*
X119341490Y-123644053D01*
X119345236Y-123633761D01*
X119391394Y-123461497D01*
X119391058Y-123447401D01*
X119383116Y-123444000D01*
X116842033Y-123444000D01*
X116828502Y-123447973D01*
X116827273Y-123456522D01*
X116874764Y-123633761D01*
X116878510Y-123644053D01*
X116970586Y-123841511D01*
X116976069Y-123851007D01*
X117101028Y-124029467D01*
X117108084Y-124037875D01*
X117262125Y-124191916D01*
X117270533Y-124198972D01*
X117448993Y-124323931D01*
X117458489Y-124329414D01*
X117493049Y-124345529D01*
X117546334Y-124392446D01*
X117565795Y-124460723D01*
X117545253Y-124528683D01*
X117493049Y-124573919D01*
X117458238Y-124590151D01*
X117458233Y-124590154D01*
X117453251Y-124592477D01*
X117354199Y-124661834D01*
X117270211Y-124720643D01*
X117270208Y-124720645D01*
X117265700Y-124723802D01*
X117103802Y-124885700D01*
X116972477Y-125073251D01*
X116970154Y-125078233D01*
X116970151Y-125078238D01*
X116937865Y-125147477D01*
X116875716Y-125280757D01*
X116816457Y-125501913D01*
X116796502Y-125730000D01*
X112107154Y-125730000D01*
X112956823Y-124880331D01*
X112962841Y-124874694D01*
X113007191Y-124835800D01*
X113011530Y-124831995D01*
X113066288Y-124762535D01*
X113068364Y-124759972D01*
X113121243Y-124696392D01*
X113121245Y-124696389D01*
X113124937Y-124691950D01*
X113127758Y-124686912D01*
X113129811Y-124683925D01*
X113136044Y-124674597D01*
X113138064Y-124671486D01*
X113141639Y-124666952D01*
X113144326Y-124661845D01*
X113144333Y-124661834D01*
X113182823Y-124588676D01*
X113184396Y-124585777D01*
X113192294Y-124571673D01*
X113227625Y-124508585D01*
X113229478Y-124503125D01*
X113230948Y-124499825D01*
X113235411Y-124489436D01*
X113236804Y-124486073D01*
X113239493Y-124480962D01*
X113265733Y-124396459D01*
X113266726Y-124393400D01*
X113295180Y-124309577D01*
X113296009Y-124303863D01*
X113296852Y-124300351D01*
X113299344Y-124289338D01*
X113300102Y-124285771D01*
X113301815Y-124280255D01*
X113312217Y-124192371D01*
X113312645Y-124189120D01*
X113325336Y-124101592D01*
X113322108Y-124019435D01*
X113322011Y-124014488D01*
X113322011Y-120650000D01*
X116796502Y-120650000D01*
X116816457Y-120878087D01*
X116817881Y-120883400D01*
X116817881Y-120883402D01*
X116869408Y-121075700D01*
X116875716Y-121099243D01*
X116878039Y-121104224D01*
X116878039Y-121104225D01*
X116970151Y-121301762D01*
X116970154Y-121301767D01*
X116972477Y-121306749D01*
X116975634Y-121311257D01*
X117083829Y-121465775D01*
X117103802Y-121494300D01*
X117265700Y-121656198D01*
X117270208Y-121659355D01*
X117270211Y-121659357D01*
X117316706Y-121691913D01*
X117453251Y-121787523D01*
X117458233Y-121789846D01*
X117458238Y-121789849D01*
X117493049Y-121806081D01*
X117546334Y-121852998D01*
X117565795Y-121921275D01*
X117545253Y-121989235D01*
X117493049Y-122034471D01*
X117458489Y-122050586D01*
X117448993Y-122056069D01*
X117270533Y-122181028D01*
X117262125Y-122188084D01*
X117108084Y-122342125D01*
X117101028Y-122350533D01*
X116976069Y-122528993D01*
X116970586Y-122538489D01*
X116878510Y-122735947D01*
X116874764Y-122746239D01*
X116828606Y-122918503D01*
X116828942Y-122932599D01*
X116836884Y-122936000D01*
X119377967Y-122936000D01*
X119391498Y-122932027D01*
X119392727Y-122923478D01*
X119345236Y-122746239D01*
X119341490Y-122735947D01*
X119249414Y-122538489D01*
X119243931Y-122528993D01*
X119118972Y-122350533D01*
X119111916Y-122342125D01*
X118957875Y-122188084D01*
X118949467Y-122181028D01*
X118771007Y-122056069D01*
X118761511Y-122050586D01*
X118726951Y-122034471D01*
X118673666Y-121987554D01*
X118654205Y-121919277D01*
X118674747Y-121851317D01*
X118726951Y-121806081D01*
X118761762Y-121789849D01*
X118761767Y-121789846D01*
X118766749Y-121787523D01*
X118903294Y-121691913D01*
X118949789Y-121659357D01*
X118949792Y-121659355D01*
X118954300Y-121656198D01*
X119116198Y-121494300D01*
X119136172Y-121465775D01*
X119244366Y-121311257D01*
X119247523Y-121306749D01*
X119249846Y-121301767D01*
X119249849Y-121301762D01*
X119341961Y-121104225D01*
X119341961Y-121104224D01*
X119344284Y-121099243D01*
X119350593Y-121075700D01*
X119402119Y-120883402D01*
X119402119Y-120883400D01*
X119403543Y-120878087D01*
X119423498Y-120650000D01*
X119971502Y-120650000D01*
X119991457Y-120878087D01*
X119992881Y-120883400D01*
X119992881Y-120883402D01*
X120044408Y-121075700D01*
X120050716Y-121099243D01*
X120053039Y-121104224D01*
X120053039Y-121104225D01*
X120145151Y-121301762D01*
X120145154Y-121301767D01*
X120147477Y-121306749D01*
X120150634Y-121311257D01*
X120258829Y-121465775D01*
X120278802Y-121494300D01*
X120440700Y-121656198D01*
X120445208Y-121659355D01*
X120445211Y-121659357D01*
X120491706Y-121691913D01*
X120628251Y-121787523D01*
X120633233Y-121789846D01*
X120633238Y-121789849D01*
X120830775Y-121881961D01*
X120835757Y-121884284D01*
X120841065Y-121885706D01*
X120841067Y-121885707D01*
X121051598Y-121942119D01*
X121051600Y-121942119D01*
X121056913Y-121943543D01*
X121285000Y-121963498D01*
X121513087Y-121943543D01*
X121518400Y-121942119D01*
X121518402Y-121942119D01*
X121728933Y-121885707D01*
X121728935Y-121885706D01*
X121734243Y-121884284D01*
X121739225Y-121881961D01*
X121936762Y-121789849D01*
X121936767Y-121789846D01*
X121941749Y-121787523D01*
X122078294Y-121691913D01*
X122124789Y-121659357D01*
X122124792Y-121659355D01*
X122129300Y-121656198D01*
X122291198Y-121494300D01*
X122311172Y-121465775D01*
X122419366Y-121311257D01*
X122422523Y-121306749D01*
X122424846Y-121301767D01*
X122424849Y-121301762D01*
X122516961Y-121104225D01*
X122516961Y-121104224D01*
X122519284Y-121099243D01*
X122525593Y-121075700D01*
X122577119Y-120883402D01*
X122577119Y-120883400D01*
X122578543Y-120878087D01*
X122598498Y-120650000D01*
X130131502Y-120650000D01*
X130151457Y-120878087D01*
X130152881Y-120883400D01*
X130152881Y-120883402D01*
X130204408Y-121075700D01*
X130210716Y-121099243D01*
X130213039Y-121104224D01*
X130213039Y-121104225D01*
X130305151Y-121301762D01*
X130305154Y-121301767D01*
X130307477Y-121306749D01*
X130310634Y-121311257D01*
X130418829Y-121465775D01*
X130438802Y-121494300D01*
X130600700Y-121656198D01*
X130605208Y-121659355D01*
X130605211Y-121659357D01*
X130651706Y-121691913D01*
X130788251Y-121787523D01*
X130793233Y-121789846D01*
X130793238Y-121789849D01*
X130990775Y-121881961D01*
X130995757Y-121884284D01*
X131001065Y-121885706D01*
X131001067Y-121885707D01*
X131211598Y-121942119D01*
X131211600Y-121942119D01*
X131216913Y-121943543D01*
X131445000Y-121963498D01*
X131673087Y-121943543D01*
X131678400Y-121942119D01*
X131678402Y-121942119D01*
X131760951Y-121920000D01*
X133306502Y-121920000D01*
X133326457Y-122148087D01*
X133327881Y-122153400D01*
X133327881Y-122153402D01*
X133380703Y-122350533D01*
X133385716Y-122369243D01*
X133388039Y-122374224D01*
X133388039Y-122374225D01*
X133480151Y-122571762D01*
X133480154Y-122571767D01*
X133482477Y-122576749D01*
X133497706Y-122598498D01*
X133601156Y-122746239D01*
X133613802Y-122764300D01*
X133775700Y-122926198D01*
X133780208Y-122929355D01*
X133780211Y-122929357D01*
X133818264Y-122956002D01*
X133963251Y-123057523D01*
X133968233Y-123059846D01*
X133968238Y-123059849D01*
X134165775Y-123151961D01*
X134170757Y-123154284D01*
X134176065Y-123155706D01*
X134176067Y-123155707D01*
X134386598Y-123212119D01*
X134386600Y-123212119D01*
X134391913Y-123213543D01*
X134620000Y-123233498D01*
X134848087Y-123213543D01*
X134853400Y-123212119D01*
X134853402Y-123212119D01*
X135063933Y-123155707D01*
X135063935Y-123155706D01*
X135069243Y-123154284D01*
X135074225Y-123151961D01*
X135271762Y-123059849D01*
X135271767Y-123059846D01*
X135276749Y-123057523D01*
X135421736Y-122956002D01*
X135459789Y-122929357D01*
X135459792Y-122929355D01*
X135464300Y-122926198D01*
X135626198Y-122764300D01*
X135638845Y-122746239D01*
X135742294Y-122598498D01*
X135757523Y-122576749D01*
X135759846Y-122571767D01*
X135759849Y-122571762D01*
X135851961Y-122374225D01*
X135851961Y-122374224D01*
X135854284Y-122369243D01*
X135859298Y-122350533D01*
X135912119Y-122153402D01*
X135912119Y-122153400D01*
X135913543Y-122148087D01*
X135933498Y-121920000D01*
X135913543Y-121691913D01*
X135867051Y-121518402D01*
X135855707Y-121476067D01*
X135855706Y-121476065D01*
X135854284Y-121470757D01*
X135851961Y-121465775D01*
X135759849Y-121268238D01*
X135759846Y-121268233D01*
X135757523Y-121263251D01*
X135684098Y-121158389D01*
X135629357Y-121080211D01*
X135629355Y-121080208D01*
X135626198Y-121075700D01*
X135464300Y-120913802D01*
X135459792Y-120910645D01*
X135459789Y-120910643D01*
X135360424Y-120841067D01*
X135276749Y-120782477D01*
X135271767Y-120780154D01*
X135271762Y-120780151D01*
X135074225Y-120688039D01*
X135074224Y-120688039D01*
X135069243Y-120685716D01*
X135063935Y-120684294D01*
X135063933Y-120684293D01*
X134853402Y-120627881D01*
X134853400Y-120627881D01*
X134848087Y-120626457D01*
X134620000Y-120606502D01*
X134391913Y-120626457D01*
X134386600Y-120627881D01*
X134386598Y-120627881D01*
X134176067Y-120684293D01*
X134176065Y-120684294D01*
X134170757Y-120685716D01*
X134165776Y-120688039D01*
X134165775Y-120688039D01*
X133968238Y-120780151D01*
X133968233Y-120780154D01*
X133963251Y-120782477D01*
X133879576Y-120841067D01*
X133780211Y-120910643D01*
X133780208Y-120910645D01*
X133775700Y-120913802D01*
X133613802Y-121075700D01*
X133610645Y-121080208D01*
X133610643Y-121080211D01*
X133555902Y-121158389D01*
X133482477Y-121263251D01*
X133480154Y-121268233D01*
X133480151Y-121268238D01*
X133388039Y-121465775D01*
X133385716Y-121470757D01*
X133384294Y-121476065D01*
X133384293Y-121476067D01*
X133372949Y-121518402D01*
X133326457Y-121691913D01*
X133306502Y-121920000D01*
X131760951Y-121920000D01*
X131888933Y-121885707D01*
X131888935Y-121885706D01*
X131894243Y-121884284D01*
X131899225Y-121881961D01*
X132096762Y-121789849D01*
X132096767Y-121789846D01*
X132101749Y-121787523D01*
X132238294Y-121691913D01*
X132284789Y-121659357D01*
X132284792Y-121659355D01*
X132289300Y-121656198D01*
X132451198Y-121494300D01*
X132471172Y-121465775D01*
X132579366Y-121311257D01*
X132582523Y-121306749D01*
X132584846Y-121301767D01*
X132584849Y-121301762D01*
X132676961Y-121104225D01*
X132676961Y-121104224D01*
X132679284Y-121099243D01*
X132685593Y-121075700D01*
X132737119Y-120883402D01*
X132737119Y-120883400D01*
X132738543Y-120878087D01*
X132758498Y-120650000D01*
X132738543Y-120421913D01*
X132737119Y-120416598D01*
X132680707Y-120206067D01*
X132680706Y-120206065D01*
X132679284Y-120200757D01*
X132676961Y-120195775D01*
X132584849Y-119998238D01*
X132584846Y-119998233D01*
X132582523Y-119993251D01*
X132498292Y-119872957D01*
X132454357Y-119810211D01*
X132454355Y-119810208D01*
X132451198Y-119805700D01*
X132289300Y-119643802D01*
X132284792Y-119640645D01*
X132284789Y-119640643D01*
X132166285Y-119557666D01*
X133095500Y-119557666D01*
X133095837Y-119560912D01*
X133095837Y-119560916D01*
X133105686Y-119655833D01*
X133106532Y-119663990D01*
X133162803Y-119832654D01*
X133256366Y-119983850D01*
X133382201Y-120109466D01*
X133533560Y-120202764D01*
X133540508Y-120205069D01*
X133540509Y-120205069D01*
X133695791Y-120256575D01*
X133695793Y-120256576D01*
X133702322Y-120258741D01*
X133807334Y-120269500D01*
X135432666Y-120269500D01*
X135435912Y-120269163D01*
X135435916Y-120269163D01*
X135532132Y-120259180D01*
X135532136Y-120259179D01*
X135538990Y-120258468D01*
X135545526Y-120256287D01*
X135545528Y-120256287D01*
X135696054Y-120206067D01*
X135707654Y-120202197D01*
X135858850Y-120108634D01*
X135984466Y-119982799D01*
X135991430Y-119971502D01*
X136073921Y-119837674D01*
X136077764Y-119831440D01*
X136080069Y-119824491D01*
X136131575Y-119669209D01*
X136131576Y-119669207D01*
X136133741Y-119662678D01*
X136144500Y-119557666D01*
X136144500Y-119529192D01*
X136164502Y-119461071D01*
X136218158Y-119414578D01*
X136288432Y-119404474D01*
X136353012Y-119433968D01*
X136370463Y-119452488D01*
X136483877Y-119600292D01*
X136650036Y-119751485D01*
X136654783Y-119754463D01*
X136654786Y-119754465D01*
X136783229Y-119835036D01*
X136840344Y-119870864D01*
X137048783Y-119954656D01*
X137268767Y-120000213D01*
X137273378Y-120000479D01*
X137273379Y-120000479D01*
X137323952Y-120003395D01*
X137323956Y-120003395D01*
X137325775Y-120003500D01*
X137470999Y-120003500D01*
X137473786Y-120003251D01*
X137473792Y-120003251D01*
X137543929Y-119996991D01*
X137637762Y-119988617D01*
X137643176Y-119987136D01*
X137643181Y-119987135D01*
X137770912Y-119952191D01*
X137854451Y-119929337D01*
X137859509Y-119926925D01*
X137859513Y-119926923D01*
X137977042Y-119870864D01*
X138057218Y-119832622D01*
X138239654Y-119701529D01*
X138375967Y-119560865D01*
X138392089Y-119544229D01*
X138392091Y-119544226D01*
X138395992Y-119540201D01*
X138521290Y-119353738D01*
X138611588Y-119148033D01*
X138649726Y-118989180D01*
X138662722Y-118935046D01*
X138662722Y-118935045D01*
X138664032Y-118929589D01*
X138673317Y-118768543D01*
X138676640Y-118710917D01*
X138676640Y-118710914D01*
X138676963Y-118705310D01*
X138649975Y-118482285D01*
X138583918Y-118267565D01*
X138526600Y-118156512D01*
X138483454Y-118072919D01*
X138483454Y-118072918D01*
X138480882Y-118067936D01*
X138344123Y-117889708D01*
X138177964Y-117738515D01*
X138173217Y-117735537D01*
X138173214Y-117735535D01*
X137992405Y-117622115D01*
X137987656Y-117619136D01*
X137779217Y-117535344D01*
X137559233Y-117489787D01*
X137554622Y-117489521D01*
X137554621Y-117489521D01*
X137504048Y-117486605D01*
X137504044Y-117486605D01*
X137502225Y-117486500D01*
X137357001Y-117486500D01*
X137354214Y-117486749D01*
X137354208Y-117486749D01*
X137284071Y-117493009D01*
X137190238Y-117501383D01*
X137184824Y-117502864D01*
X137184819Y-117502865D01*
X137070262Y-117534205D01*
X136973549Y-117560663D01*
X136968491Y-117563075D01*
X136968487Y-117563077D01*
X136872166Y-117609020D01*
X136770782Y-117657378D01*
X136588346Y-117788471D01*
X136523339Y-117855552D01*
X136445768Y-117935600D01*
X136432008Y-117949799D01*
X136400119Y-117997255D01*
X136375082Y-118034514D01*
X136320486Y-118079899D01*
X136250020Y-118088562D01*
X136186056Y-118057754D01*
X136148903Y-117997255D01*
X136144500Y-117964238D01*
X136144500Y-117932334D01*
X136144163Y-117929084D01*
X136134180Y-117832868D01*
X136134179Y-117832864D01*
X136133468Y-117826010D01*
X136077197Y-117657346D01*
X135983634Y-117506150D01*
X135857799Y-117380534D01*
X135706440Y-117287236D01*
X135699491Y-117284931D01*
X135544209Y-117233425D01*
X135544207Y-117233424D01*
X135537678Y-117231259D01*
X135432666Y-117220500D01*
X133807334Y-117220500D01*
X133804088Y-117220837D01*
X133804084Y-117220837D01*
X133707868Y-117230820D01*
X133707864Y-117230821D01*
X133701010Y-117231532D01*
X133694474Y-117233713D01*
X133694472Y-117233713D01*
X133638482Y-117252393D01*
X133532346Y-117287803D01*
X133381150Y-117381366D01*
X133255534Y-117507201D01*
X133251694Y-117513431D01*
X133251693Y-117513432D01*
X133236895Y-117537440D01*
X133162236Y-117658560D01*
X133159931Y-117665508D01*
X133159931Y-117665509D01*
X133119146Y-117788471D01*
X133106259Y-117827322D01*
X133095500Y-117932334D01*
X133095500Y-119557666D01*
X132166285Y-119557666D01*
X132147095Y-119544229D01*
X132101749Y-119512477D01*
X132096767Y-119510154D01*
X132096762Y-119510151D01*
X131899225Y-119418039D01*
X131899224Y-119418039D01*
X131894243Y-119415716D01*
X131888935Y-119414294D01*
X131888933Y-119414293D01*
X131678402Y-119357881D01*
X131678400Y-119357881D01*
X131673087Y-119356457D01*
X131445000Y-119336502D01*
X131216913Y-119356457D01*
X131211600Y-119357881D01*
X131211598Y-119357881D01*
X131001067Y-119414293D01*
X131001065Y-119414294D01*
X130995757Y-119415716D01*
X130990776Y-119418039D01*
X130990775Y-119418039D01*
X130793238Y-119510151D01*
X130793233Y-119510154D01*
X130788251Y-119512477D01*
X130742905Y-119544229D01*
X130605211Y-119640643D01*
X130605208Y-119640645D01*
X130600700Y-119643802D01*
X130438802Y-119805700D01*
X130435645Y-119810208D01*
X130435643Y-119810211D01*
X130391708Y-119872957D01*
X130307477Y-119993251D01*
X130305154Y-119998233D01*
X130305151Y-119998238D01*
X130213039Y-120195775D01*
X130210716Y-120200757D01*
X130209294Y-120206065D01*
X130209293Y-120206067D01*
X130152881Y-120416598D01*
X130151457Y-120421913D01*
X130131502Y-120650000D01*
X122598498Y-120650000D01*
X122578543Y-120421913D01*
X122577119Y-120416598D01*
X122520707Y-120206067D01*
X122520706Y-120206065D01*
X122519284Y-120200757D01*
X122516961Y-120195775D01*
X122424849Y-119998238D01*
X122424846Y-119998233D01*
X122422523Y-119993251D01*
X122338292Y-119872957D01*
X122294357Y-119810211D01*
X122294355Y-119810208D01*
X122291198Y-119805700D01*
X122129300Y-119643802D01*
X122124792Y-119640645D01*
X122124789Y-119640643D01*
X121987095Y-119544229D01*
X121941749Y-119512477D01*
X121936767Y-119510154D01*
X121936762Y-119510151D01*
X121739225Y-119418039D01*
X121739224Y-119418039D01*
X121734243Y-119415716D01*
X121728935Y-119414294D01*
X121728933Y-119414293D01*
X121518402Y-119357881D01*
X121518400Y-119357881D01*
X121513087Y-119356457D01*
X121285000Y-119336502D01*
X121056913Y-119356457D01*
X121051600Y-119357881D01*
X121051598Y-119357881D01*
X120841067Y-119414293D01*
X120841065Y-119414294D01*
X120835757Y-119415716D01*
X120830776Y-119418039D01*
X120830775Y-119418039D01*
X120633238Y-119510151D01*
X120633233Y-119510154D01*
X120628251Y-119512477D01*
X120582905Y-119544229D01*
X120445211Y-119640643D01*
X120445208Y-119640645D01*
X120440700Y-119643802D01*
X120278802Y-119805700D01*
X120275645Y-119810208D01*
X120275643Y-119810211D01*
X120231708Y-119872957D01*
X120147477Y-119993251D01*
X120145154Y-119998233D01*
X120145151Y-119998238D01*
X120053039Y-120195775D01*
X120050716Y-120200757D01*
X120049294Y-120206065D01*
X120049293Y-120206067D01*
X119992881Y-120416598D01*
X119991457Y-120421913D01*
X119971502Y-120650000D01*
X119423498Y-120650000D01*
X119403543Y-120421913D01*
X119402119Y-120416598D01*
X119345707Y-120206067D01*
X119345706Y-120206065D01*
X119344284Y-120200757D01*
X119341961Y-120195775D01*
X119249849Y-119998238D01*
X119249846Y-119998233D01*
X119247523Y-119993251D01*
X119163292Y-119872957D01*
X119119357Y-119810211D01*
X119119355Y-119810208D01*
X119116198Y-119805700D01*
X118954300Y-119643802D01*
X118949792Y-119640645D01*
X118949789Y-119640643D01*
X118812095Y-119544229D01*
X118766749Y-119512477D01*
X118761767Y-119510154D01*
X118761762Y-119510151D01*
X118727543Y-119494195D01*
X118674258Y-119447278D01*
X118654797Y-119379001D01*
X118675339Y-119311041D01*
X118727543Y-119265805D01*
X118761762Y-119249849D01*
X118761767Y-119249846D01*
X118766749Y-119247523D01*
X118916626Y-119142578D01*
X118949789Y-119119357D01*
X118949792Y-119119355D01*
X118954300Y-119116198D01*
X119116198Y-118954300D01*
X119247523Y-118766749D01*
X119249846Y-118761767D01*
X119249849Y-118761762D01*
X119341961Y-118564225D01*
X119341961Y-118564224D01*
X119344284Y-118559243D01*
X119365120Y-118481485D01*
X119402119Y-118343402D01*
X119402119Y-118343400D01*
X119403543Y-118338087D01*
X119423498Y-118110000D01*
X119403543Y-117881913D01*
X119402119Y-117876598D01*
X119345707Y-117666067D01*
X119345706Y-117666065D01*
X119344284Y-117660757D01*
X119323900Y-117617043D01*
X119257665Y-117475000D01*
X119971502Y-117475000D01*
X119991457Y-117703087D01*
X119992881Y-117708400D01*
X119992881Y-117708402D01*
X120039374Y-117881913D01*
X120050716Y-117924243D01*
X120053039Y-117929224D01*
X120053039Y-117929225D01*
X120145151Y-118126762D01*
X120145154Y-118126767D01*
X120147477Y-118131749D01*
X120185104Y-118185486D01*
X120258892Y-118290865D01*
X120278802Y-118319300D01*
X120440700Y-118481198D01*
X120445208Y-118484355D01*
X120445211Y-118484357D01*
X120450210Y-118487857D01*
X120628251Y-118612523D01*
X120633233Y-118614846D01*
X120633238Y-118614849D01*
X120829932Y-118706568D01*
X120835757Y-118709284D01*
X120841065Y-118710706D01*
X120841067Y-118710707D01*
X121051598Y-118767119D01*
X121051600Y-118767119D01*
X121056913Y-118768543D01*
X121285000Y-118788498D01*
X121513087Y-118768543D01*
X121518400Y-118767119D01*
X121518402Y-118767119D01*
X121728933Y-118710707D01*
X121728935Y-118710706D01*
X121734243Y-118709284D01*
X121740068Y-118706568D01*
X121936762Y-118614849D01*
X121936767Y-118614846D01*
X121941749Y-118612523D01*
X122119790Y-118487857D01*
X122124789Y-118484357D01*
X122124792Y-118484355D01*
X122129300Y-118481198D01*
X122291198Y-118319300D01*
X122311109Y-118290865D01*
X122384896Y-118185486D01*
X122422523Y-118131749D01*
X122424846Y-118126767D01*
X122424849Y-118126762D01*
X122516961Y-117929225D01*
X122516961Y-117929224D01*
X122519284Y-117924243D01*
X122530627Y-117881913D01*
X122577119Y-117708402D01*
X122577119Y-117708400D01*
X122578543Y-117703087D01*
X122598498Y-117475000D01*
X130131502Y-117475000D01*
X130151457Y-117703087D01*
X130152881Y-117708400D01*
X130152881Y-117708402D01*
X130199374Y-117881913D01*
X130210716Y-117924243D01*
X130213039Y-117929224D01*
X130213039Y-117929225D01*
X130305151Y-118126762D01*
X130305154Y-118126767D01*
X130307477Y-118131749D01*
X130345104Y-118185486D01*
X130418892Y-118290865D01*
X130438802Y-118319300D01*
X130600700Y-118481198D01*
X130605208Y-118484355D01*
X130605211Y-118484357D01*
X130610210Y-118487857D01*
X130788251Y-118612523D01*
X130793233Y-118614846D01*
X130793238Y-118614849D01*
X130989932Y-118706568D01*
X130995757Y-118709284D01*
X131001065Y-118710706D01*
X131001067Y-118710707D01*
X131211598Y-118767119D01*
X131211600Y-118767119D01*
X131216913Y-118768543D01*
X131445000Y-118788498D01*
X131673087Y-118768543D01*
X131678400Y-118767119D01*
X131678402Y-118767119D01*
X131888933Y-118710707D01*
X131888935Y-118710706D01*
X131894243Y-118709284D01*
X131900068Y-118706568D01*
X132096762Y-118614849D01*
X132096767Y-118614846D01*
X132101749Y-118612523D01*
X132279790Y-118487857D01*
X132284789Y-118484357D01*
X132284792Y-118484355D01*
X132289300Y-118481198D01*
X132451198Y-118319300D01*
X132471109Y-118290865D01*
X132544896Y-118185486D01*
X132582523Y-118131749D01*
X132584846Y-118126767D01*
X132584849Y-118126762D01*
X132676961Y-117929225D01*
X132676961Y-117929224D01*
X132679284Y-117924243D01*
X132690627Y-117881913D01*
X132737119Y-117708402D01*
X132737119Y-117708400D01*
X132738543Y-117703087D01*
X132758498Y-117475000D01*
X132738543Y-117246913D01*
X132734422Y-117231532D01*
X132680707Y-117031067D01*
X132680706Y-117031065D01*
X132679284Y-117025757D01*
X132666138Y-116997565D01*
X132584849Y-116823238D01*
X132584846Y-116823233D01*
X132582523Y-116818251D01*
X132482757Y-116675771D01*
X132454357Y-116635211D01*
X132454355Y-116635208D01*
X132451198Y-116630700D01*
X132289300Y-116468802D01*
X132284792Y-116465645D01*
X132284789Y-116465643D01*
X132122654Y-116352115D01*
X132101749Y-116337477D01*
X132096767Y-116335154D01*
X132096762Y-116335151D01*
X131899225Y-116243039D01*
X131899224Y-116243039D01*
X131894243Y-116240716D01*
X131888935Y-116239294D01*
X131888933Y-116239293D01*
X131678402Y-116182881D01*
X131678400Y-116182881D01*
X131673087Y-116181457D01*
X131445000Y-116161502D01*
X131216913Y-116181457D01*
X131211600Y-116182881D01*
X131211598Y-116182881D01*
X131001067Y-116239293D01*
X131001065Y-116239294D01*
X130995757Y-116240716D01*
X130990776Y-116243039D01*
X130990775Y-116243039D01*
X130793238Y-116335151D01*
X130793233Y-116335154D01*
X130788251Y-116337477D01*
X130767346Y-116352115D01*
X130605211Y-116465643D01*
X130605208Y-116465645D01*
X130600700Y-116468802D01*
X130438802Y-116630700D01*
X130435645Y-116635208D01*
X130435643Y-116635211D01*
X130407243Y-116675771D01*
X130307477Y-116818251D01*
X130305154Y-116823233D01*
X130305151Y-116823238D01*
X130223862Y-116997565D01*
X130210716Y-117025757D01*
X130209294Y-117031065D01*
X130209293Y-117031067D01*
X130155578Y-117231532D01*
X130151457Y-117246913D01*
X130131502Y-117475000D01*
X122598498Y-117475000D01*
X122578543Y-117246913D01*
X122574422Y-117231532D01*
X122520707Y-117031067D01*
X122520706Y-117031065D01*
X122519284Y-117025757D01*
X122506138Y-116997565D01*
X122424849Y-116823238D01*
X122424846Y-116823233D01*
X122422523Y-116818251D01*
X122322757Y-116675771D01*
X122294357Y-116635211D01*
X122294355Y-116635208D01*
X122291198Y-116630700D01*
X122129300Y-116468802D01*
X122124792Y-116465645D01*
X122124789Y-116465643D01*
X121962654Y-116352115D01*
X121941749Y-116337477D01*
X121936767Y-116335154D01*
X121936762Y-116335151D01*
X121739225Y-116243039D01*
X121739224Y-116243039D01*
X121734243Y-116240716D01*
X121728935Y-116239294D01*
X121728933Y-116239293D01*
X121518402Y-116182881D01*
X121518400Y-116182881D01*
X121513087Y-116181457D01*
X121285000Y-116161502D01*
X121056913Y-116181457D01*
X121051600Y-116182881D01*
X121051598Y-116182881D01*
X120841067Y-116239293D01*
X120841065Y-116239294D01*
X120835757Y-116240716D01*
X120830776Y-116243039D01*
X120830775Y-116243039D01*
X120633238Y-116335151D01*
X120633233Y-116335154D01*
X120628251Y-116337477D01*
X120607346Y-116352115D01*
X120445211Y-116465643D01*
X120445208Y-116465645D01*
X120440700Y-116468802D01*
X120278802Y-116630700D01*
X120275645Y-116635208D01*
X120275643Y-116635211D01*
X120247243Y-116675771D01*
X120147477Y-116818251D01*
X120145154Y-116823233D01*
X120145151Y-116823238D01*
X120063862Y-116997565D01*
X120050716Y-117025757D01*
X120049294Y-117031065D01*
X120049293Y-117031067D01*
X119995578Y-117231532D01*
X119991457Y-117246913D01*
X119971502Y-117475000D01*
X119257665Y-117475000D01*
X119249849Y-117458238D01*
X119249846Y-117458233D01*
X119247523Y-117453251D01*
X119116198Y-117265700D01*
X118954300Y-117103802D01*
X118949792Y-117100645D01*
X118949789Y-117100643D01*
X118850424Y-117031067D01*
X118766749Y-116972477D01*
X118761767Y-116970154D01*
X118761762Y-116970151D01*
X118564225Y-116878039D01*
X118564224Y-116878039D01*
X118559243Y-116875716D01*
X118553935Y-116874294D01*
X118553933Y-116874293D01*
X118343402Y-116817881D01*
X118343400Y-116817881D01*
X118338087Y-116816457D01*
X118110000Y-116796502D01*
X117881913Y-116816457D01*
X117876600Y-116817881D01*
X117876598Y-116817881D01*
X117666067Y-116874293D01*
X117666065Y-116874294D01*
X117660757Y-116875716D01*
X117655776Y-116878039D01*
X117655775Y-116878039D01*
X117458238Y-116970151D01*
X117458233Y-116970154D01*
X117453251Y-116972477D01*
X117369576Y-117031067D01*
X117270211Y-117100643D01*
X117270208Y-117100645D01*
X117265700Y-117103802D01*
X117103802Y-117265700D01*
X116972477Y-117453251D01*
X116970154Y-117458233D01*
X116970151Y-117458238D01*
X116896100Y-117617043D01*
X116875716Y-117660757D01*
X116874294Y-117666065D01*
X116874293Y-117666067D01*
X116817881Y-117876598D01*
X116816457Y-117881913D01*
X116796502Y-118110000D01*
X116816457Y-118338087D01*
X116817881Y-118343400D01*
X116817881Y-118343402D01*
X116854881Y-118481485D01*
X116875716Y-118559243D01*
X116878039Y-118564224D01*
X116878039Y-118564225D01*
X116970151Y-118761762D01*
X116970154Y-118761767D01*
X116972477Y-118766749D01*
X117103802Y-118954300D01*
X117265700Y-119116198D01*
X117270208Y-119119355D01*
X117270211Y-119119357D01*
X117303374Y-119142578D01*
X117453251Y-119247523D01*
X117458233Y-119249846D01*
X117458238Y-119249849D01*
X117492457Y-119265805D01*
X117545742Y-119312722D01*
X117565203Y-119380999D01*
X117544661Y-119448959D01*
X117492457Y-119494195D01*
X117458238Y-119510151D01*
X117458233Y-119510154D01*
X117453251Y-119512477D01*
X117407905Y-119544229D01*
X117270211Y-119640643D01*
X117270208Y-119640645D01*
X117265700Y-119643802D01*
X117103802Y-119805700D01*
X117100645Y-119810208D01*
X117100643Y-119810211D01*
X117056708Y-119872957D01*
X116972477Y-119993251D01*
X116970154Y-119998233D01*
X116970151Y-119998238D01*
X116878039Y-120195775D01*
X116875716Y-120200757D01*
X116874294Y-120206065D01*
X116874293Y-120206067D01*
X116817881Y-120416598D01*
X116816457Y-120421913D01*
X116796502Y-120650000D01*
X113322011Y-120650000D01*
X113322011Y-111680000D01*
X124216835Y-111680000D01*
X124235465Y-111916711D01*
X124236619Y-111921518D01*
X124236620Y-111921524D01*
X124271640Y-112067391D01*
X124290895Y-112147594D01*
X124292788Y-112152165D01*
X124292789Y-112152167D01*
X124309358Y-112192167D01*
X124381760Y-112366963D01*
X124384346Y-112371183D01*
X124503241Y-112565202D01*
X124503245Y-112565208D01*
X124505824Y-112569416D01*
X124660031Y-112749969D01*
X124840584Y-112904176D01*
X124844792Y-112906755D01*
X124844798Y-112906759D01*
X125038817Y-113025654D01*
X125043037Y-113028240D01*
X125047607Y-113030133D01*
X125047611Y-113030135D01*
X125257833Y-113117211D01*
X125262406Y-113119105D01*
X125342609Y-113138360D01*
X125488476Y-113173380D01*
X125488482Y-113173381D01*
X125493289Y-113174535D01*
X125730000Y-113193165D01*
X125966711Y-113174535D01*
X125971518Y-113173381D01*
X125971524Y-113173380D01*
X126117391Y-113138360D01*
X126197594Y-113119105D01*
X126202167Y-113117211D01*
X126412389Y-113030135D01*
X126412393Y-113030133D01*
X126416963Y-113028240D01*
X126421183Y-113025654D01*
X126615202Y-112906759D01*
X126615208Y-112906755D01*
X126619416Y-112904176D01*
X126799969Y-112749969D01*
X126954176Y-112569416D01*
X126956755Y-112565208D01*
X126956759Y-112565202D01*
X127075654Y-112371183D01*
X127078240Y-112366963D01*
X127150643Y-112192167D01*
X127167211Y-112152167D01*
X127167212Y-112152165D01*
X127169105Y-112147594D01*
X127188360Y-112067391D01*
X127223380Y-111921524D01*
X127223381Y-111921518D01*
X127224535Y-111916711D01*
X127243165Y-111680000D01*
X127224535Y-111443289D01*
X127169105Y-111212406D01*
X127104278Y-111055899D01*
X127080135Y-110997611D01*
X127080133Y-110997607D01*
X127078240Y-110993037D01*
X127038515Y-110928212D01*
X126956759Y-110794798D01*
X126956755Y-110794792D01*
X126954176Y-110790584D01*
X126799969Y-110610031D01*
X126619416Y-110455824D01*
X126615208Y-110453245D01*
X126615202Y-110453241D01*
X126421183Y-110334346D01*
X126416963Y-110331760D01*
X126412393Y-110329867D01*
X126412389Y-110329865D01*
X126202167Y-110242789D01*
X126202165Y-110242788D01*
X126197594Y-110240895D01*
X126117391Y-110221640D01*
X125971524Y-110186620D01*
X125971518Y-110186619D01*
X125966711Y-110185465D01*
X125730000Y-110166835D01*
X125493289Y-110185465D01*
X125488482Y-110186619D01*
X125488476Y-110186620D01*
X125342609Y-110221640D01*
X125262406Y-110240895D01*
X125257835Y-110242788D01*
X125257833Y-110242789D01*
X125047611Y-110329865D01*
X125047607Y-110329867D01*
X125043037Y-110331760D01*
X125038817Y-110334346D01*
X124844798Y-110453241D01*
X124844792Y-110453245D01*
X124840584Y-110455824D01*
X124660031Y-110610031D01*
X124505824Y-110790584D01*
X124503245Y-110794792D01*
X124503241Y-110794798D01*
X124421485Y-110928212D01*
X124381760Y-110993037D01*
X124379867Y-110997607D01*
X124379865Y-110997611D01*
X124355722Y-111055899D01*
X124290895Y-111212406D01*
X124235465Y-111443289D01*
X124216835Y-111680000D01*
X113322011Y-111680000D01*
X113322011Y-111124020D01*
X113342013Y-111055899D01*
X113395669Y-111009406D01*
X113448011Y-110998020D01*
X122512675Y-110998020D01*
X122520916Y-110998290D01*
X122585541Y-111002526D01*
X122673453Y-110992121D01*
X122676666Y-110991784D01*
X122764759Y-110983689D01*
X122770319Y-110982121D01*
X122773892Y-110981459D01*
X122784895Y-110979270D01*
X122788508Y-110978502D01*
X122794245Y-110977823D01*
X122878756Y-110951582D01*
X122881853Y-110950666D01*
X122967029Y-110926643D01*
X122972217Y-110924085D01*
X122975668Y-110922760D01*
X122986046Y-110918619D01*
X122989433Y-110917216D01*
X122994953Y-110915502D01*
X123073226Y-110874321D01*
X123076162Y-110872825D01*
X123155517Y-110833691D01*
X123160148Y-110830233D01*
X123163351Y-110828270D01*
X123172738Y-110822347D01*
X123175831Y-110820338D01*
X123180943Y-110817649D01*
X123250436Y-110762864D01*
X123253006Y-110760893D01*
X123323910Y-110707947D01*
X123324829Y-110709178D01*
X123382246Y-110681621D01*
X123392661Y-110680363D01*
X123466711Y-110674535D01*
X123471518Y-110673381D01*
X123471524Y-110673380D01*
X123640425Y-110632830D01*
X123697594Y-110619105D01*
X123727246Y-110606823D01*
X123912389Y-110530135D01*
X123912393Y-110530133D01*
X123916963Y-110528240D01*
X124039350Y-110453241D01*
X124115202Y-110406759D01*
X124115208Y-110406755D01*
X124119416Y-110404176D01*
X124299969Y-110249969D01*
X124454176Y-110069416D01*
X124456755Y-110065208D01*
X124456759Y-110065202D01*
X124575654Y-109871183D01*
X124578240Y-109866963D01*
X124650643Y-109692167D01*
X124667211Y-109652167D01*
X124667212Y-109652165D01*
X124669105Y-109647594D01*
X124711333Y-109471702D01*
X124723380Y-109421524D01*
X124723381Y-109421518D01*
X124724535Y-109416711D01*
X124743165Y-109180000D01*
X126716835Y-109180000D01*
X126735465Y-109416711D01*
X126736619Y-109421518D01*
X126736620Y-109421524D01*
X126748667Y-109471702D01*
X126790895Y-109647594D01*
X126792788Y-109652165D01*
X126792789Y-109652167D01*
X126809358Y-109692167D01*
X126881760Y-109866963D01*
X126884346Y-109871183D01*
X127003241Y-110065202D01*
X127003245Y-110065208D01*
X127005824Y-110069416D01*
X127160031Y-110249969D01*
X127340584Y-110404176D01*
X127344792Y-110406755D01*
X127344798Y-110406759D01*
X127420650Y-110453241D01*
X127543037Y-110528240D01*
X127547607Y-110530133D01*
X127547611Y-110530135D01*
X127732754Y-110606823D01*
X127762406Y-110619105D01*
X127819575Y-110632830D01*
X127988476Y-110673380D01*
X127988482Y-110673381D01*
X127993289Y-110674535D01*
X128230000Y-110693165D01*
X128466711Y-110674535D01*
X128471518Y-110673381D01*
X128471524Y-110673380D01*
X128640425Y-110632830D01*
X128697594Y-110619105D01*
X128727246Y-110606823D01*
X128912389Y-110530135D01*
X128912393Y-110530133D01*
X128916963Y-110528240D01*
X129039350Y-110453241D01*
X129115202Y-110406759D01*
X129115208Y-110406755D01*
X129119416Y-110404176D01*
X129299969Y-110249969D01*
X129454176Y-110069416D01*
X129456755Y-110065208D01*
X129456759Y-110065202D01*
X129575654Y-109871183D01*
X129578240Y-109866963D01*
X129650643Y-109692167D01*
X129667211Y-109652167D01*
X129667212Y-109652165D01*
X129669105Y-109647594D01*
X129711333Y-109471702D01*
X129723380Y-109421524D01*
X129723381Y-109421518D01*
X129724535Y-109416711D01*
X129743165Y-109180000D01*
X129724535Y-108943289D01*
X129669105Y-108712406D01*
X129636313Y-108633238D01*
X129580135Y-108497611D01*
X129580133Y-108497607D01*
X129578240Y-108493037D01*
X129575654Y-108488817D01*
X129456759Y-108294798D01*
X129456755Y-108294792D01*
X129454176Y-108290584D01*
X129299969Y-108110031D01*
X129119416Y-107955824D01*
X129115208Y-107953245D01*
X129115202Y-107953241D01*
X128921183Y-107834346D01*
X128916963Y-107831760D01*
X128912393Y-107829867D01*
X128912389Y-107829865D01*
X128702167Y-107742789D01*
X128702165Y-107742788D01*
X128697594Y-107740895D01*
X128617391Y-107721640D01*
X128471524Y-107686620D01*
X128471518Y-107686619D01*
X128466711Y-107685465D01*
X128230000Y-107666835D01*
X127993289Y-107685465D01*
X127988482Y-107686619D01*
X127988476Y-107686620D01*
X127842609Y-107721640D01*
X127762406Y-107740895D01*
X127757835Y-107742788D01*
X127757833Y-107742789D01*
X127547611Y-107829865D01*
X127547607Y-107829867D01*
X127543037Y-107831760D01*
X127538817Y-107834346D01*
X127344798Y-107953241D01*
X127344792Y-107953245D01*
X127340584Y-107955824D01*
X127160031Y-108110031D01*
X127005824Y-108290584D01*
X127003245Y-108294792D01*
X127003241Y-108294798D01*
X126884346Y-108488817D01*
X126881760Y-108493037D01*
X126879867Y-108497607D01*
X126879865Y-108497611D01*
X126823687Y-108633238D01*
X126790895Y-108712406D01*
X126735465Y-108943289D01*
X126716835Y-109180000D01*
X124743165Y-109180000D01*
X124724535Y-108943289D01*
X124669105Y-108712406D01*
X124636313Y-108633238D01*
X124580135Y-108497611D01*
X124580133Y-108497607D01*
X124578240Y-108493037D01*
X124575654Y-108488817D01*
X124456759Y-108294798D01*
X124456755Y-108294792D01*
X124454176Y-108290584D01*
X124299969Y-108110031D01*
X124119416Y-107955824D01*
X124115208Y-107953245D01*
X124115202Y-107953241D01*
X123921183Y-107834346D01*
X123916963Y-107831760D01*
X123912393Y-107829867D01*
X123912389Y-107829865D01*
X123702167Y-107742789D01*
X123702165Y-107742788D01*
X123697594Y-107740895D01*
X123617391Y-107721640D01*
X123471524Y-107686620D01*
X123471518Y-107686619D01*
X123466711Y-107685465D01*
X123230000Y-107666835D01*
X122993289Y-107685465D01*
X122988482Y-107686619D01*
X122988476Y-107686620D01*
X122842609Y-107721640D01*
X122762406Y-107740895D01*
X122757835Y-107742788D01*
X122757833Y-107742789D01*
X122547611Y-107829865D01*
X122547607Y-107829867D01*
X122543037Y-107831760D01*
X122538817Y-107834346D01*
X122344798Y-107953241D01*
X122344792Y-107953245D01*
X122340584Y-107955824D01*
X122160031Y-108110031D01*
X122005824Y-108290584D01*
X122003245Y-108294792D01*
X122003241Y-108294798D01*
X121884346Y-108488817D01*
X121881760Y-108493037D01*
X121879867Y-108497607D01*
X121879865Y-108497611D01*
X121823687Y-108633238D01*
X121779139Y-108688519D01*
X121707278Y-108711020D01*
X117855500Y-108711020D01*
X117787379Y-108691018D01*
X117740886Y-108637362D01*
X117729500Y-108585020D01*
X117729500Y-107137334D01*
X117723543Y-107079917D01*
X117719180Y-107037868D01*
X117719179Y-107037864D01*
X117718468Y-107031010D01*
X117662197Y-106862346D01*
X117568634Y-106711150D01*
X117563169Y-106705694D01*
X117447978Y-106590704D01*
X117442799Y-106585534D01*
X117291440Y-106492236D01*
X117250028Y-106478500D01*
X117129209Y-106438425D01*
X117129207Y-106438424D01*
X117122678Y-106436259D01*
X117056196Y-106429448D01*
X116990469Y-106402607D01*
X116949687Y-106344493D01*
X116946797Y-106273555D01*
X116982719Y-106212316D01*
X116995512Y-106201781D01*
X117026095Y-106179805D01*
X117030654Y-106176529D01*
X117095661Y-106109447D01*
X117183089Y-106019229D01*
X117183091Y-106019226D01*
X117186992Y-106015201D01*
X117312290Y-105828738D01*
X117402588Y-105623033D01*
X117455032Y-105404589D01*
X117467963Y-105180310D01*
X117440975Y-104957285D01*
X117374918Y-104742565D01*
X117309798Y-104616396D01*
X117274454Y-104547919D01*
X117274454Y-104547918D01*
X117271882Y-104542936D01*
X117135123Y-104364708D01*
X116968964Y-104213515D01*
X116964217Y-104210537D01*
X116964214Y-104210535D01*
X116783405Y-104097115D01*
X116778656Y-104094136D01*
X116570217Y-104010344D01*
X116350233Y-103964787D01*
X116345622Y-103964521D01*
X116345621Y-103964521D01*
X116295048Y-103961605D01*
X116295044Y-103961605D01*
X116293225Y-103961500D01*
X116148001Y-103961500D01*
X116145214Y-103961749D01*
X116145208Y-103961749D01*
X116075071Y-103968009D01*
X115981238Y-103976383D01*
X115975824Y-103977864D01*
X115975819Y-103977865D01*
X115861262Y-104009205D01*
X115764549Y-104035663D01*
X115759491Y-104038075D01*
X115759487Y-104038077D01*
X115663165Y-104084021D01*
X115561782Y-104132378D01*
X115379346Y-104263471D01*
X115223008Y-104424799D01*
X115097710Y-104611262D01*
X115007412Y-104816967D01*
X114954968Y-105035411D01*
X114942037Y-105259690D01*
X114969025Y-105482715D01*
X115035082Y-105697435D01*
X115037652Y-105702415D01*
X115037654Y-105702419D01*
X115102852Y-105828738D01*
X115138118Y-105897064D01*
X115274877Y-106075292D01*
X115279016Y-106079058D01*
X115279025Y-106079068D01*
X115424157Y-106211128D01*
X115461079Y-106271768D01*
X115459356Y-106342744D01*
X115419533Y-106401520D01*
X115352361Y-106429648D01*
X115324897Y-106432497D01*
X115292868Y-106435820D01*
X115292864Y-106435821D01*
X115286010Y-106436532D01*
X115279474Y-106438713D01*
X115279472Y-106438713D01*
X115170069Y-106475213D01*
X115117346Y-106492803D01*
X114966150Y-106586366D01*
X114840534Y-106712201D01*
X114747236Y-106863560D01*
X114691259Y-107032322D01*
X114680500Y-107137334D01*
X114680500Y-107904219D01*
X114667086Y-107949903D01*
X114677809Y-107969878D01*
X114680500Y-107995781D01*
X114680500Y-108585020D01*
X114660498Y-108653141D01*
X114606842Y-108699634D01*
X114554500Y-108711020D01*
X114425913Y-108711020D01*
X114357792Y-108691018D01*
X114311299Y-108637362D01*
X114301195Y-108567088D01*
X114309504Y-108536802D01*
X114354998Y-108426971D01*
X114358047Y-108417586D01*
X114411737Y-108193956D01*
X114413280Y-108184209D01*
X114428888Y-107985895D01*
X114441692Y-107952302D01*
X114433604Y-107939717D01*
X114428888Y-107914105D01*
X114413280Y-107715791D01*
X114411737Y-107706044D01*
X114358047Y-107482414D01*
X114354998Y-107473029D01*
X114266988Y-107260553D01*
X114262507Y-107251759D01*
X114157203Y-107079917D01*
X114146747Y-107070457D01*
X114137969Y-107074241D01*
X112992095Y-108220115D01*
X112929783Y-108254141D01*
X112858968Y-108249076D01*
X112813905Y-108220115D01*
X111671074Y-107077284D01*
X111658694Y-107070524D01*
X111651044Y-107076251D01*
X111543493Y-107251759D01*
X111539012Y-107260553D01*
X111451002Y-107473029D01*
X111447953Y-107482414D01*
X111394263Y-107706044D01*
X111392720Y-107715792D01*
X111384340Y-107822270D01*
X111359055Y-107888612D01*
X111301917Y-107930752D01*
X111231067Y-107935311D01*
X111169633Y-107901480D01*
X111155572Y-107887419D01*
X111121546Y-107825107D01*
X111119055Y-107808210D01*
X111112512Y-107725077D01*
X111111387Y-107710778D01*
X111110233Y-107705971D01*
X111110232Y-107705965D01*
X111056524Y-107482259D01*
X111055369Y-107477447D01*
X110963540Y-107255751D01*
X110838160Y-107051151D01*
X110682318Y-106868682D01*
X110652920Y-106843574D01*
X110503617Y-106716058D01*
X110503616Y-106716057D01*
X110499849Y-106712840D01*
X110295249Y-106587460D01*
X110290679Y-106585567D01*
X110290673Y-106585564D01*
X110215391Y-106554382D01*
X110160110Y-106509834D01*
X110137688Y-106442471D01*
X110155246Y-106373680D01*
X110209362Y-106324248D01*
X110239155Y-106310037D01*
X110239157Y-106310036D01*
X110244218Y-106307622D01*
X110426654Y-106176529D01*
X110491661Y-106109447D01*
X110579089Y-106019229D01*
X110579091Y-106019226D01*
X110582992Y-106015201D01*
X110708290Y-105828738D01*
X110798588Y-105623033D01*
X110851032Y-105404589D01*
X110859386Y-105259690D01*
X111640037Y-105259690D01*
X111667025Y-105482715D01*
X111733082Y-105697435D01*
X111735652Y-105702415D01*
X111735654Y-105702419D01*
X111800852Y-105828738D01*
X111836118Y-105897064D01*
X111972877Y-106075292D01*
X112139036Y-106226485D01*
X112143783Y-106229463D01*
X112143786Y-106229465D01*
X112307069Y-106331891D01*
X112354147Y-106385035D01*
X112365019Y-106455194D01*
X112336235Y-106520094D01*
X112288332Y-106555038D01*
X112213549Y-106586014D01*
X112204759Y-106590493D01*
X112032917Y-106695797D01*
X112023457Y-106706253D01*
X112027241Y-106715031D01*
X112890188Y-107577978D01*
X112904132Y-107585592D01*
X112905965Y-107585461D01*
X112912580Y-107581210D01*
X113775716Y-106718074D01*
X113782476Y-106705694D01*
X113776749Y-106698044D01*
X113601241Y-106590493D01*
X113592451Y-106586014D01*
X113516782Y-106554671D01*
X113461502Y-106510122D01*
X113439081Y-106442759D01*
X113456639Y-106373968D01*
X113510757Y-106324536D01*
X113511361Y-106324248D01*
X113546218Y-106307622D01*
X113728654Y-106176529D01*
X113793661Y-106109447D01*
X113881089Y-106019229D01*
X113881091Y-106019226D01*
X113884992Y-106015201D01*
X114010290Y-105828738D01*
X114100588Y-105623033D01*
X114153032Y-105404589D01*
X114165963Y-105180310D01*
X114138975Y-104957285D01*
X114072918Y-104742565D01*
X114007798Y-104616396D01*
X113972454Y-104547919D01*
X113972454Y-104547918D01*
X113969882Y-104542936D01*
X113833123Y-104364708D01*
X113666964Y-104213515D01*
X113662217Y-104210537D01*
X113662214Y-104210535D01*
X113481405Y-104097115D01*
X113476656Y-104094136D01*
X113268217Y-104010344D01*
X113048233Y-103964787D01*
X113043622Y-103964521D01*
X113043621Y-103964521D01*
X112993048Y-103961605D01*
X112993044Y-103961605D01*
X112991225Y-103961500D01*
X112846001Y-103961500D01*
X112843214Y-103961749D01*
X112843208Y-103961749D01*
X112773071Y-103968009D01*
X112679238Y-103976383D01*
X112673824Y-103977864D01*
X112673819Y-103977865D01*
X112559262Y-104009205D01*
X112462549Y-104035663D01*
X112457491Y-104038075D01*
X112457487Y-104038077D01*
X112361165Y-104084021D01*
X112259782Y-104132378D01*
X112077346Y-104263471D01*
X111921008Y-104424799D01*
X111795710Y-104611262D01*
X111705412Y-104816967D01*
X111652968Y-105035411D01*
X111640037Y-105259690D01*
X110859386Y-105259690D01*
X110863963Y-105180310D01*
X110836975Y-104957285D01*
X110770918Y-104742565D01*
X110705798Y-104616396D01*
X110670454Y-104547919D01*
X110670454Y-104547918D01*
X110667882Y-104542936D01*
X110531123Y-104364708D01*
X110364964Y-104213515D01*
X110360217Y-104210537D01*
X110360214Y-104210535D01*
X110179405Y-104097115D01*
X110174656Y-104094136D01*
X109966217Y-104010344D01*
X109746233Y-103964787D01*
X109741622Y-103964521D01*
X109741621Y-103964521D01*
X109691048Y-103961605D01*
X109691044Y-103961605D01*
X109689225Y-103961500D01*
X109544001Y-103961500D01*
X109541214Y-103961749D01*
X109541208Y-103961749D01*
X109471071Y-103968009D01*
X109377238Y-103976383D01*
X109371824Y-103977864D01*
X109371819Y-103977865D01*
X109257262Y-104009205D01*
X109160549Y-104035663D01*
X109155491Y-104038075D01*
X109155487Y-104038077D01*
X109059165Y-104084021D01*
X108957782Y-104132378D01*
X108775346Y-104263471D01*
X108619008Y-104424799D01*
X108493710Y-104611262D01*
X108403412Y-104816967D01*
X108350968Y-105035411D01*
X108338037Y-105259690D01*
X108365025Y-105482715D01*
X108431082Y-105697435D01*
X108433652Y-105702415D01*
X108433654Y-105702419D01*
X108498852Y-105828738D01*
X108534118Y-105897064D01*
X108670877Y-106075292D01*
X108837036Y-106226485D01*
X108841783Y-106229463D01*
X108841786Y-106229465D01*
X108909224Y-106271768D01*
X109004551Y-106331566D01*
X109051627Y-106384708D01*
X109062500Y-106454868D01*
X109033717Y-106519767D01*
X108985812Y-106554712D01*
X108911323Y-106585566D01*
X108911321Y-106585567D01*
X108906751Y-106587460D01*
X108702151Y-106712840D01*
X108698384Y-106716057D01*
X108698383Y-106716058D01*
X108549080Y-106843574D01*
X108519682Y-106868682D01*
X108363840Y-107051151D01*
X108238460Y-107255751D01*
X108146631Y-107477447D01*
X108145476Y-107482259D01*
X108091768Y-107705965D01*
X108091767Y-107705971D01*
X108090613Y-107710778D01*
X108071786Y-107950000D01*
X101739639Y-107950000D01*
X101616183Y-107874346D01*
X101611963Y-107871760D01*
X101607393Y-107869867D01*
X101607389Y-107869865D01*
X101397167Y-107782789D01*
X101397165Y-107782788D01*
X101392594Y-107780895D01*
X101312391Y-107761640D01*
X101166524Y-107726620D01*
X101166518Y-107726619D01*
X101161711Y-107725465D01*
X100925000Y-107706835D01*
X100688289Y-107725465D01*
X100683482Y-107726619D01*
X100683476Y-107726620D01*
X100537609Y-107761640D01*
X100457406Y-107780895D01*
X100452835Y-107782788D01*
X100452833Y-107782789D01*
X100242611Y-107869865D01*
X100242607Y-107869867D01*
X100238037Y-107871760D01*
X100233817Y-107874346D01*
X100039798Y-107993241D01*
X100039792Y-107993245D01*
X100035584Y-107995824D01*
X99855031Y-108150031D01*
X99700824Y-108330584D01*
X99698245Y-108334792D01*
X99698241Y-108334798D01*
X99603858Y-108488817D01*
X99576760Y-108533037D01*
X99574867Y-108537607D01*
X99574865Y-108537611D01*
X99502463Y-108712406D01*
X99485895Y-108752406D01*
X99484740Y-108757218D01*
X99438884Y-108948223D01*
X99430465Y-108983289D01*
X99411835Y-109220000D01*
X97438165Y-109220000D01*
X97419535Y-108983289D01*
X97411117Y-108948223D01*
X97365260Y-108757218D01*
X97364105Y-108752406D01*
X97347537Y-108712406D01*
X97275135Y-108537611D01*
X97275133Y-108537607D01*
X97273240Y-108533037D01*
X97246142Y-108488817D01*
X97151759Y-108334798D01*
X97151755Y-108334792D01*
X97149176Y-108330584D01*
X96994969Y-108150031D01*
X96814416Y-107995824D01*
X96810208Y-107993245D01*
X96810202Y-107993241D01*
X96616183Y-107874346D01*
X96611963Y-107871760D01*
X96607393Y-107869867D01*
X96607389Y-107869865D01*
X96397167Y-107782789D01*
X96397165Y-107782788D01*
X96392594Y-107780895D01*
X96312391Y-107761640D01*
X96166524Y-107726620D01*
X96166518Y-107726619D01*
X96161711Y-107725465D01*
X95925000Y-107706835D01*
X95688289Y-107725465D01*
X95683482Y-107726619D01*
X95683476Y-107726620D01*
X95537609Y-107761640D01*
X95457406Y-107780895D01*
X95452835Y-107782788D01*
X95452833Y-107782789D01*
X95242611Y-107869865D01*
X95242607Y-107869867D01*
X95238037Y-107871760D01*
X95233817Y-107874346D01*
X95039798Y-107993241D01*
X95039792Y-107993245D01*
X95035584Y-107995824D01*
X94855031Y-108150031D01*
X94700824Y-108330584D01*
X94698245Y-108334792D01*
X94698241Y-108334798D01*
X94603858Y-108488817D01*
X94576760Y-108533037D01*
X94574867Y-108537607D01*
X94574865Y-108537611D01*
X94502463Y-108712406D01*
X94485895Y-108752406D01*
X94484740Y-108757218D01*
X94438884Y-108948223D01*
X94430465Y-108983289D01*
X94411835Y-109220000D01*
X89662000Y-109220000D01*
X89662000Y-102284327D01*
X89663500Y-102264942D01*
X89665805Y-102250141D01*
X89665805Y-102250138D01*
X89667186Y-102241269D01*
X89666385Y-102235148D01*
X89686803Y-102168626D01*
X89741022Y-102122791D01*
X89782865Y-102114223D01*
X89782729Y-102113186D01*
X89814251Y-102109064D01*
X89830588Y-102108000D01*
X132665673Y-102108000D01*
X132685058Y-102109500D01*
G37*
%TD.AperFunction*%
%TD*%
M02*
