%TF.GenerationSoftware,KiCad,Pcbnew,(6.0.0-0)*%
%TF.CreationDate,2022-01-01T23:16:52+00:00*%
%TF.ProjectId,cgs348-vco-output-buffer,63677333-3438-42d7-9663-6f2d6f757470,rev?*%
%TF.SameCoordinates,Original*%
%TF.FileFunction,Legend,Top*%
%TF.FilePolarity,Positive*%
%FSLAX46Y46*%
G04 Gerber Fmt 4.6, Leading zero omitted, Abs format (unit mm)*
G04 Created by KiCad (PCBNEW (6.0.0-0)) date 2022-01-01 23:16:52*
%MOMM*%
%LPD*%
G01*
G04 APERTURE LIST*
%ADD10C,0.150000*%
%ADD11C,0.120000*%
%ADD12C,0.152400*%
G04 APERTURE END LIST*
D10*
X115395476Y-102941428D02*
X116157380Y-102941428D01*
X115776428Y-103322380D02*
X115776428Y-102560476D01*
X116490714Y-102322380D02*
X116824047Y-103322380D01*
X117157380Y-102322380D01*
X91352619Y-119427857D02*
X91352619Y-119618333D01*
X91305000Y-119713571D01*
X91209761Y-119808809D01*
X91019285Y-119856428D01*
X90685952Y-119856428D01*
X90495476Y-119808809D01*
X90400238Y-119713571D01*
X90352619Y-119618333D01*
X90352619Y-119427857D01*
X90400238Y-119332619D01*
X90495476Y-119237380D01*
X90685952Y-119189761D01*
X91019285Y-119189761D01*
X91209761Y-119237380D01*
X91305000Y-119332619D01*
X91352619Y-119427857D01*
X91352619Y-120285000D02*
X90543095Y-120285000D01*
X90447857Y-120332619D01*
X90400238Y-120380238D01*
X90352619Y-120475476D01*
X90352619Y-120665952D01*
X90400238Y-120761190D01*
X90447857Y-120808809D01*
X90543095Y-120856428D01*
X91352619Y-120856428D01*
X91352619Y-121189761D02*
X91352619Y-121761190D01*
X90352619Y-121475476D02*
X91352619Y-121475476D01*
X90352619Y-123380238D02*
X90352619Y-122808809D01*
X90352619Y-123094523D02*
X91352619Y-123094523D01*
X91209761Y-122999285D01*
X91114523Y-122904047D01*
X91066904Y-122808809D01*
X108791476Y-102941428D02*
X109553380Y-102941428D01*
X109886714Y-102322380D02*
X110220047Y-103322380D01*
X110553380Y-102322380D01*
X122610952Y-103465380D02*
X122801428Y-103465380D01*
X122896666Y-103513000D01*
X122991904Y-103608238D01*
X123039523Y-103798714D01*
X123039523Y-104132047D01*
X122991904Y-104322523D01*
X122896666Y-104417761D01*
X122801428Y-104465380D01*
X122610952Y-104465380D01*
X122515714Y-104417761D01*
X122420476Y-104322523D01*
X122372857Y-104132047D01*
X122372857Y-103798714D01*
X122420476Y-103608238D01*
X122515714Y-103513000D01*
X122610952Y-103465380D01*
X123801428Y-103941571D02*
X123468095Y-103941571D01*
X123468095Y-104465380D02*
X123468095Y-103465380D01*
X123944285Y-103465380D01*
X124658571Y-103941571D02*
X124325238Y-103941571D01*
X124325238Y-104465380D02*
X124325238Y-103465380D01*
X124801428Y-103465380D01*
X125134761Y-104417761D02*
X125277619Y-104465380D01*
X125515714Y-104465380D01*
X125610952Y-104417761D01*
X125658571Y-104370142D01*
X125706190Y-104274904D01*
X125706190Y-104179666D01*
X125658571Y-104084428D01*
X125610952Y-104036809D01*
X125515714Y-103989190D01*
X125325238Y-103941571D01*
X125230000Y-103893952D01*
X125182380Y-103846333D01*
X125134761Y-103751095D01*
X125134761Y-103655857D01*
X125182380Y-103560619D01*
X125230000Y-103513000D01*
X125325238Y-103465380D01*
X125563333Y-103465380D01*
X125706190Y-103513000D01*
X126134761Y-103941571D02*
X126468095Y-103941571D01*
X126610952Y-104465380D02*
X126134761Y-104465380D01*
X126134761Y-103465380D01*
X126610952Y-103465380D01*
X126896666Y-103465380D02*
X127468095Y-103465380D01*
X127182380Y-104465380D02*
X127182380Y-103465380D01*
X128515714Y-103560619D02*
X128563333Y-103513000D01*
X128658571Y-103465380D01*
X128896666Y-103465380D01*
X128991904Y-103513000D01*
X129039523Y-103560619D01*
X129087142Y-103655857D01*
X129087142Y-103751095D01*
X129039523Y-103893952D01*
X128468095Y-104465380D01*
X129087142Y-104465380D01*
X124833285Y-149360000D02*
X124738047Y-149312380D01*
X124595190Y-149312380D01*
X124452333Y-149360000D01*
X124357095Y-149455238D01*
X124309476Y-149550476D01*
X124261857Y-149740952D01*
X124261857Y-149883809D01*
X124309476Y-150074285D01*
X124357095Y-150169523D01*
X124452333Y-150264761D01*
X124595190Y-150312380D01*
X124690428Y-150312380D01*
X124833285Y-150264761D01*
X124880904Y-150217142D01*
X124880904Y-149883809D01*
X124690428Y-149883809D01*
X125261857Y-150026666D02*
X125738047Y-150026666D01*
X125166619Y-150312380D02*
X125499952Y-149312380D01*
X125833285Y-150312380D01*
X126166619Y-150312380D02*
X126166619Y-149312380D01*
X126642809Y-150312380D02*
X126642809Y-149312380D01*
X127214238Y-150312380D01*
X127214238Y-149312380D01*
X128404714Y-149407619D02*
X128452333Y-149360000D01*
X128547571Y-149312380D01*
X128785666Y-149312380D01*
X128880904Y-149360000D01*
X128928523Y-149407619D01*
X128976142Y-149502857D01*
X128976142Y-149598095D01*
X128928523Y-149740952D01*
X128357095Y-150312380D01*
X128976142Y-150312380D01*
X90352619Y-131969047D02*
X91352619Y-131969047D01*
X90352619Y-132445238D02*
X91352619Y-132445238D01*
X90352619Y-133016666D01*
X91352619Y-133016666D01*
X90352619Y-134778571D02*
X90352619Y-134207142D01*
X90352619Y-134492857D02*
X91352619Y-134492857D01*
X91209761Y-134397619D01*
X91114523Y-134302380D01*
X91066904Y-134207142D01*
X137247380Y-124412142D02*
X137247380Y-124221666D01*
X137295000Y-124126428D01*
X137390238Y-124031190D01*
X137580714Y-123983571D01*
X137914047Y-123983571D01*
X138104523Y-124031190D01*
X138199761Y-124126428D01*
X138247380Y-124221666D01*
X138247380Y-124412142D01*
X138199761Y-124507380D01*
X138104523Y-124602619D01*
X137914047Y-124650238D01*
X137580714Y-124650238D01*
X137390238Y-124602619D01*
X137295000Y-124507380D01*
X137247380Y-124412142D01*
X137247380Y-123555000D02*
X138056904Y-123555000D01*
X138152142Y-123507380D01*
X138199761Y-123459761D01*
X138247380Y-123364523D01*
X138247380Y-123174047D01*
X138199761Y-123078809D01*
X138152142Y-123031190D01*
X138056904Y-122983571D01*
X137247380Y-122983571D01*
X137247380Y-122650238D02*
X137247380Y-122078809D01*
X138247380Y-122364523D02*
X137247380Y-122364523D01*
X137342619Y-121031190D02*
X137295000Y-120983571D01*
X137247380Y-120888333D01*
X137247380Y-120650238D01*
X137295000Y-120555000D01*
X137342619Y-120507380D01*
X137437857Y-120459761D01*
X137533095Y-120459761D01*
X137675952Y-120507380D01*
X138247380Y-121078809D01*
X138247380Y-120459761D01*
X132532380Y-114394571D02*
X131865714Y-114394571D01*
X132056190Y-114394571D02*
X131960952Y-114346952D01*
X131913333Y-114299333D01*
X131865714Y-114204095D01*
X131865714Y-114108857D01*
X131865714Y-113346952D02*
X132532380Y-113346952D01*
X131865714Y-113775523D02*
X132389523Y-113775523D01*
X132484761Y-113727904D01*
X132532380Y-113632666D01*
X132532380Y-113489809D01*
X132484761Y-113394571D01*
X132437142Y-113346952D01*
X132532380Y-112870761D02*
X131865714Y-112870761D01*
X131960952Y-112870761D02*
X131913333Y-112823142D01*
X131865714Y-112727904D01*
X131865714Y-112585047D01*
X131913333Y-112489809D01*
X132008571Y-112442190D01*
X132532380Y-112442190D01*
X132008571Y-112442190D02*
X131913333Y-112394571D01*
X131865714Y-112299333D01*
X131865714Y-112156476D01*
X131913333Y-112061238D01*
X132008571Y-112013619D01*
X132532380Y-112013619D01*
X132532380Y-111537428D02*
X131532380Y-111537428D01*
X131913333Y-111537428D02*
X131865714Y-111442190D01*
X131865714Y-111251714D01*
X131913333Y-111156476D01*
X131960952Y-111108857D01*
X132056190Y-111061238D01*
X132341904Y-111061238D01*
X132437142Y-111108857D01*
X132484761Y-111156476D01*
X132532380Y-111251714D01*
X132532380Y-111442190D01*
X132484761Y-111537428D01*
X132532380Y-110489809D02*
X132484761Y-110585047D01*
X132389523Y-110632666D01*
X131532380Y-110632666D01*
X132484761Y-109727904D02*
X132532380Y-109823142D01*
X132532380Y-110013619D01*
X132484761Y-110108857D01*
X132389523Y-110156476D01*
X132008571Y-110156476D01*
X131913333Y-110108857D01*
X131865714Y-110013619D01*
X131865714Y-109823142D01*
X131913333Y-109727904D01*
X132008571Y-109680285D01*
X132103809Y-109680285D01*
X132199047Y-110156476D01*
X132484761Y-109299333D02*
X132532380Y-109204095D01*
X132532380Y-109013619D01*
X132484761Y-108918380D01*
X132389523Y-108870761D01*
X132341904Y-108870761D01*
X132246666Y-108918380D01*
X132199047Y-109013619D01*
X132199047Y-109156476D01*
X132151428Y-109251714D01*
X132056190Y-109299333D01*
X132008571Y-109299333D01*
X131913333Y-109251714D01*
X131865714Y-109156476D01*
X131865714Y-109013619D01*
X131913333Y-108918380D01*
X132532380Y-108013619D02*
X132008571Y-108013619D01*
X131913333Y-108061238D01*
X131865714Y-108156476D01*
X131865714Y-108346952D01*
X131913333Y-108442190D01*
X132484761Y-108013619D02*
X132532380Y-108108857D01*
X132532380Y-108346952D01*
X132484761Y-108442190D01*
X132389523Y-108489809D01*
X132294285Y-108489809D01*
X132199047Y-108442190D01*
X132151428Y-108346952D01*
X132151428Y-108108857D01*
X132103809Y-108013619D01*
X131865714Y-107537428D02*
X132532380Y-107537428D01*
X131960952Y-107537428D02*
X131913333Y-107489809D01*
X131865714Y-107394571D01*
X131865714Y-107251714D01*
X131913333Y-107156476D01*
X132008571Y-107108857D01*
X132532380Y-107108857D01*
X132437142Y-106632666D02*
X132484761Y-106585047D01*
X132532380Y-106632666D01*
X132484761Y-106680285D01*
X132437142Y-106632666D01*
X132532380Y-106632666D01*
X132484761Y-105727904D02*
X132532380Y-105823142D01*
X132532380Y-106013619D01*
X132484761Y-106108857D01*
X132437142Y-106156476D01*
X132341904Y-106204095D01*
X132056190Y-106204095D01*
X131960952Y-106156476D01*
X131913333Y-106108857D01*
X131865714Y-106013619D01*
X131865714Y-105823142D01*
X131913333Y-105727904D01*
X132532380Y-105156476D02*
X132484761Y-105251714D01*
X132437142Y-105299333D01*
X132341904Y-105346952D01*
X132056190Y-105346952D01*
X131960952Y-105299333D01*
X131913333Y-105251714D01*
X131865714Y-105156476D01*
X131865714Y-105013619D01*
X131913333Y-104918380D01*
X131960952Y-104870761D01*
X132056190Y-104823142D01*
X132341904Y-104823142D01*
X132437142Y-104870761D01*
X132484761Y-104918380D01*
X132532380Y-105013619D01*
X132532380Y-105156476D01*
X132532380Y-104394571D02*
X131865714Y-104394571D01*
X131960952Y-104394571D02*
X131913333Y-104346952D01*
X131865714Y-104251714D01*
X131865714Y-104108857D01*
X131913333Y-104013619D01*
X132008571Y-103966000D01*
X132532380Y-103966000D01*
X132008571Y-103966000D02*
X131913333Y-103918380D01*
X131865714Y-103823142D01*
X131865714Y-103680285D01*
X131913333Y-103585047D01*
X132008571Y-103537428D01*
X132532380Y-103537428D01*
X112426809Y-102322380D02*
X112522047Y-102322380D01*
X112617285Y-102370000D01*
X112664904Y-102417619D01*
X112712523Y-102512857D01*
X112760142Y-102703333D01*
X112760142Y-102941428D01*
X112712523Y-103131904D01*
X112664904Y-103227142D01*
X112617285Y-103274761D01*
X112522047Y-103322380D01*
X112426809Y-103322380D01*
X112331571Y-103274761D01*
X112283952Y-103227142D01*
X112236333Y-103131904D01*
X112188714Y-102941428D01*
X112188714Y-102703333D01*
X112236333Y-102512857D01*
X112283952Y-102417619D01*
X112331571Y-102370000D01*
X112426809Y-102322380D01*
X113045857Y-102322380D02*
X113379190Y-103322380D01*
X113712523Y-102322380D01*
X92194285Y-136025000D02*
X92099047Y-135977380D01*
X91956190Y-135977380D01*
X91813333Y-136025000D01*
X91718095Y-136120238D01*
X91670476Y-136215476D01*
X91622857Y-136405952D01*
X91622857Y-136548809D01*
X91670476Y-136739285D01*
X91718095Y-136834523D01*
X91813333Y-136929761D01*
X91956190Y-136977380D01*
X92051428Y-136977380D01*
X92194285Y-136929761D01*
X92241904Y-136882142D01*
X92241904Y-136548809D01*
X92051428Y-136548809D01*
X92622857Y-136691666D02*
X93099047Y-136691666D01*
X92527619Y-136977380D02*
X92860952Y-135977380D01*
X93194285Y-136977380D01*
X93527619Y-136977380D02*
X93527619Y-135977380D01*
X94003809Y-136977380D02*
X94003809Y-135977380D01*
X94575238Y-136977380D01*
X94575238Y-135977380D01*
X96337142Y-136977380D02*
X95765714Y-136977380D01*
X96051428Y-136977380D02*
X96051428Y-135977380D01*
X95956190Y-136120238D01*
X95860952Y-136215476D01*
X95765714Y-136263095D01*
X138247380Y-134730952D02*
X137247380Y-134730952D01*
X138247380Y-134254761D02*
X137247380Y-134254761D01*
X138247380Y-133683333D01*
X137247380Y-133683333D01*
X137342619Y-132492857D02*
X137295000Y-132445238D01*
X137247380Y-132350000D01*
X137247380Y-132111904D01*
X137295000Y-132016666D01*
X137342619Y-131969047D01*
X137437857Y-131921428D01*
X137533095Y-131921428D01*
X137675952Y-131969047D01*
X138247380Y-132540476D01*
X138247380Y-131921428D01*
X95305952Y-103465380D02*
X95496428Y-103465380D01*
X95591666Y-103513000D01*
X95686904Y-103608238D01*
X95734523Y-103798714D01*
X95734523Y-104132047D01*
X95686904Y-104322523D01*
X95591666Y-104417761D01*
X95496428Y-104465380D01*
X95305952Y-104465380D01*
X95210714Y-104417761D01*
X95115476Y-104322523D01*
X95067857Y-104132047D01*
X95067857Y-103798714D01*
X95115476Y-103608238D01*
X95210714Y-103513000D01*
X95305952Y-103465380D01*
X96496428Y-103941571D02*
X96163095Y-103941571D01*
X96163095Y-104465380D02*
X96163095Y-103465380D01*
X96639285Y-103465380D01*
X97353571Y-103941571D02*
X97020238Y-103941571D01*
X97020238Y-104465380D02*
X97020238Y-103465380D01*
X97496428Y-103465380D01*
X97829761Y-104417761D02*
X97972619Y-104465380D01*
X98210714Y-104465380D01*
X98305952Y-104417761D01*
X98353571Y-104370142D01*
X98401190Y-104274904D01*
X98401190Y-104179666D01*
X98353571Y-104084428D01*
X98305952Y-104036809D01*
X98210714Y-103989190D01*
X98020238Y-103941571D01*
X97925000Y-103893952D01*
X97877380Y-103846333D01*
X97829761Y-103751095D01*
X97829761Y-103655857D01*
X97877380Y-103560619D01*
X97925000Y-103513000D01*
X98020238Y-103465380D01*
X98258333Y-103465380D01*
X98401190Y-103513000D01*
X98829761Y-103941571D02*
X99163095Y-103941571D01*
X99305952Y-104465380D02*
X98829761Y-104465380D01*
X98829761Y-103465380D01*
X99305952Y-103465380D01*
X99591666Y-103465380D02*
X100163095Y-103465380D01*
X99877380Y-104465380D02*
X99877380Y-103465380D01*
X101782142Y-104465380D02*
X101210714Y-104465380D01*
X101496428Y-104465380D02*
X101496428Y-103465380D01*
X101401190Y-103608238D01*
X101305952Y-103703476D01*
X101210714Y-103751095D01*
X90738142Y-113402571D02*
X90785761Y-113450190D01*
X90833380Y-113593047D01*
X90833380Y-113688285D01*
X90785761Y-113831142D01*
X90690523Y-113926380D01*
X90595285Y-113974000D01*
X90404809Y-114021619D01*
X90261952Y-114021619D01*
X90071476Y-113974000D01*
X89976238Y-113926380D01*
X89881000Y-113831142D01*
X89833380Y-113688285D01*
X89833380Y-113593047D01*
X89881000Y-113450190D01*
X89928619Y-113402571D01*
X89881000Y-112450190D02*
X89833380Y-112545428D01*
X89833380Y-112688285D01*
X89881000Y-112831142D01*
X89976238Y-112926380D01*
X90071476Y-112974000D01*
X90261952Y-113021619D01*
X90404809Y-113021619D01*
X90595285Y-112974000D01*
X90690523Y-112926380D01*
X90785761Y-112831142D01*
X90833380Y-112688285D01*
X90833380Y-112593047D01*
X90785761Y-112450190D01*
X90738142Y-112402571D01*
X90404809Y-112402571D01*
X90404809Y-112593047D01*
X90785761Y-112021619D02*
X90833380Y-111878761D01*
X90833380Y-111640666D01*
X90785761Y-111545428D01*
X90738142Y-111497809D01*
X90642904Y-111450190D01*
X90547666Y-111450190D01*
X90452428Y-111497809D01*
X90404809Y-111545428D01*
X90357190Y-111640666D01*
X90309571Y-111831142D01*
X90261952Y-111926380D01*
X90214333Y-111974000D01*
X90119095Y-112021619D01*
X90023857Y-112021619D01*
X89928619Y-111974000D01*
X89881000Y-111926380D01*
X89833380Y-111831142D01*
X89833380Y-111593047D01*
X89881000Y-111450190D01*
X89833380Y-111116857D02*
X89833380Y-110497809D01*
X90214333Y-110831142D01*
X90214333Y-110688285D01*
X90261952Y-110593047D01*
X90309571Y-110545428D01*
X90404809Y-110497809D01*
X90642904Y-110497809D01*
X90738142Y-110545428D01*
X90785761Y-110593047D01*
X90833380Y-110688285D01*
X90833380Y-110974000D01*
X90785761Y-111069238D01*
X90738142Y-111116857D01*
X90166714Y-109640666D02*
X90833380Y-109640666D01*
X89785761Y-109878761D02*
X90500047Y-110116857D01*
X90500047Y-109497809D01*
X90261952Y-108974000D02*
X90214333Y-109069238D01*
X90166714Y-109116857D01*
X90071476Y-109164476D01*
X90023857Y-109164476D01*
X89928619Y-109116857D01*
X89881000Y-109069238D01*
X89833380Y-108974000D01*
X89833380Y-108783523D01*
X89881000Y-108688285D01*
X89928619Y-108640666D01*
X90023857Y-108593047D01*
X90071476Y-108593047D01*
X90166714Y-108640666D01*
X90214333Y-108688285D01*
X90261952Y-108783523D01*
X90261952Y-108974000D01*
X90309571Y-109069238D01*
X90357190Y-109116857D01*
X90452428Y-109164476D01*
X90642904Y-109164476D01*
X90738142Y-109116857D01*
X90785761Y-109069238D01*
X90833380Y-108974000D01*
X90833380Y-108783523D01*
X90785761Y-108688285D01*
X90738142Y-108640666D01*
X90642904Y-108593047D01*
X90452428Y-108593047D01*
X90357190Y-108640666D01*
X90309571Y-108688285D01*
X90261952Y-108783523D01*
X89833380Y-107545428D02*
X90833380Y-107212095D01*
X89833380Y-106878761D01*
X90738142Y-105974000D02*
X90785761Y-106021619D01*
X90833380Y-106164476D01*
X90833380Y-106259714D01*
X90785761Y-106402571D01*
X90690523Y-106497809D01*
X90595285Y-106545428D01*
X90404809Y-106593047D01*
X90261952Y-106593047D01*
X90071476Y-106545428D01*
X89976238Y-106497809D01*
X89881000Y-106402571D01*
X89833380Y-106259714D01*
X89833380Y-106164476D01*
X89881000Y-106021619D01*
X89928619Y-105974000D01*
X89833380Y-105354952D02*
X89833380Y-105164476D01*
X89881000Y-105069238D01*
X89976238Y-104974000D01*
X90166714Y-104926380D01*
X90500047Y-104926380D01*
X90690523Y-104974000D01*
X90785761Y-105069238D01*
X90833380Y-105164476D01*
X90833380Y-105354952D01*
X90785761Y-105450190D01*
X90690523Y-105545428D01*
X90500047Y-105593047D01*
X90166714Y-105593047D01*
X89976238Y-105545428D01*
X89881000Y-105450190D01*
X89833380Y-105354952D01*
X91443380Y-115069238D02*
X91443380Y-114878761D01*
X91491000Y-114783523D01*
X91586238Y-114688285D01*
X91776714Y-114640666D01*
X92110047Y-114640666D01*
X92300523Y-114688285D01*
X92395761Y-114783523D01*
X92443380Y-114878761D01*
X92443380Y-115069238D01*
X92395761Y-115164476D01*
X92300523Y-115259714D01*
X92110047Y-115307333D01*
X91776714Y-115307333D01*
X91586238Y-115259714D01*
X91491000Y-115164476D01*
X91443380Y-115069238D01*
X91776714Y-113783523D02*
X92443380Y-113783523D01*
X91776714Y-114212095D02*
X92300523Y-114212095D01*
X92395761Y-114164476D01*
X92443380Y-114069238D01*
X92443380Y-113926380D01*
X92395761Y-113831142D01*
X92348142Y-113783523D01*
X91776714Y-113450190D02*
X91776714Y-113069238D01*
X91443380Y-113307333D02*
X92300523Y-113307333D01*
X92395761Y-113259714D01*
X92443380Y-113164476D01*
X92443380Y-113069238D01*
X91776714Y-112735904D02*
X92776714Y-112735904D01*
X91824333Y-112735904D02*
X91776714Y-112640666D01*
X91776714Y-112450190D01*
X91824333Y-112354952D01*
X91871952Y-112307333D01*
X91967190Y-112259714D01*
X92252904Y-112259714D01*
X92348142Y-112307333D01*
X92395761Y-112354952D01*
X92443380Y-112450190D01*
X92443380Y-112640666D01*
X92395761Y-112735904D01*
X91776714Y-111402571D02*
X92443380Y-111402571D01*
X91776714Y-111831142D02*
X92300523Y-111831142D01*
X92395761Y-111783523D01*
X92443380Y-111688285D01*
X92443380Y-111545428D01*
X92395761Y-111450190D01*
X92348142Y-111402571D01*
X91776714Y-111069238D02*
X91776714Y-110688285D01*
X91443380Y-110926380D02*
X92300523Y-110926380D01*
X92395761Y-110878761D01*
X92443380Y-110783523D01*
X92443380Y-110688285D01*
X92157666Y-109640666D02*
X92157666Y-109164476D01*
X92443380Y-109735904D02*
X91443380Y-109402571D01*
X92443380Y-109069238D01*
X92443380Y-108735904D02*
X91776714Y-108735904D01*
X91871952Y-108735904D02*
X91824333Y-108688285D01*
X91776714Y-108593047D01*
X91776714Y-108450190D01*
X91824333Y-108354952D01*
X91919571Y-108307333D01*
X92443380Y-108307333D01*
X91919571Y-108307333D02*
X91824333Y-108259714D01*
X91776714Y-108164476D01*
X91776714Y-108021619D01*
X91824333Y-107926380D01*
X91919571Y-107878761D01*
X92443380Y-107878761D01*
X91776714Y-107402571D02*
X92776714Y-107402571D01*
X91824333Y-107402571D02*
X91776714Y-107307333D01*
X91776714Y-107116857D01*
X91824333Y-107021619D01*
X91871952Y-106974000D01*
X91967190Y-106926380D01*
X92252904Y-106926380D01*
X92348142Y-106974000D01*
X92395761Y-107021619D01*
X92443380Y-107116857D01*
X92443380Y-107307333D01*
X92395761Y-107402571D01*
X92443380Y-105735904D02*
X91776714Y-105735904D01*
X91967190Y-105735904D02*
X91871952Y-105688285D01*
X91824333Y-105640666D01*
X91776714Y-105545428D01*
X91776714Y-105450190D01*
X91443380Y-104926380D02*
X91443380Y-104831142D01*
X91491000Y-104735904D01*
X91538619Y-104688285D01*
X91633857Y-104640666D01*
X91824333Y-104593047D01*
X92062428Y-104593047D01*
X92252904Y-104640666D01*
X92348142Y-104688285D01*
X92395761Y-104735904D01*
X92443380Y-104831142D01*
X92443380Y-104926380D01*
X92395761Y-105021619D01*
X92348142Y-105069238D01*
X92252904Y-105116857D01*
X92062428Y-105164476D01*
X91824333Y-105164476D01*
X91633857Y-105116857D01*
X91538619Y-105069238D01*
X91491000Y-105021619D01*
X91443380Y-104926380D01*
X91538619Y-104212095D02*
X91491000Y-104164476D01*
X91443380Y-104069238D01*
X91443380Y-103831142D01*
X91491000Y-103735904D01*
X91538619Y-103688285D01*
X91633857Y-103640666D01*
X91729095Y-103640666D01*
X91871952Y-103688285D01*
X92443380Y-104259714D01*
X92443380Y-103640666D01*
%TO.C,C1*%
X123698333Y-137517142D02*
X123650714Y-137564761D01*
X123507857Y-137612380D01*
X123412619Y-137612380D01*
X123269761Y-137564761D01*
X123174523Y-137469523D01*
X123126904Y-137374285D01*
X123079285Y-137183809D01*
X123079285Y-137040952D01*
X123126904Y-136850476D01*
X123174523Y-136755238D01*
X123269761Y-136660000D01*
X123412619Y-136612380D01*
X123507857Y-136612380D01*
X123650714Y-136660000D01*
X123698333Y-136707619D01*
X124650714Y-137612380D02*
X124079285Y-137612380D01*
X124365000Y-137612380D02*
X124365000Y-136612380D01*
X124269761Y-136755238D01*
X124174523Y-136850476D01*
X124079285Y-136898095D01*
%TO.C,C2*%
X102663333Y-136882142D02*
X102615714Y-136929761D01*
X102472857Y-136977380D01*
X102377619Y-136977380D01*
X102234761Y-136929761D01*
X102139523Y-136834523D01*
X102091904Y-136739285D01*
X102044285Y-136548809D01*
X102044285Y-136405952D01*
X102091904Y-136215476D01*
X102139523Y-136120238D01*
X102234761Y-136025000D01*
X102377619Y-135977380D01*
X102472857Y-135977380D01*
X102615714Y-136025000D01*
X102663333Y-136072619D01*
X103044285Y-136072619D02*
X103091904Y-136025000D01*
X103187142Y-135977380D01*
X103425238Y-135977380D01*
X103520476Y-136025000D01*
X103568095Y-136072619D01*
X103615714Y-136167857D01*
X103615714Y-136263095D01*
X103568095Y-136405952D01*
X102996666Y-136977380D01*
X103615714Y-136977380D01*
%TO.C,R1*%
X126198333Y-130627380D02*
X125865000Y-130151190D01*
X125626904Y-130627380D02*
X125626904Y-129627380D01*
X126007857Y-129627380D01*
X126103095Y-129675000D01*
X126150714Y-129722619D01*
X126198333Y-129817857D01*
X126198333Y-129960714D01*
X126150714Y-130055952D01*
X126103095Y-130103571D01*
X126007857Y-130151190D01*
X125626904Y-130151190D01*
X127150714Y-130627380D02*
X126579285Y-130627380D01*
X126865000Y-130627380D02*
X126865000Y-129627380D01*
X126769761Y-129770238D01*
X126674523Y-129865476D01*
X126579285Y-129913095D01*
%TO.C,R2*%
X102068333Y-130627380D02*
X101735000Y-130151190D01*
X101496904Y-130627380D02*
X101496904Y-129627380D01*
X101877857Y-129627380D01*
X101973095Y-129675000D01*
X102020714Y-129722619D01*
X102068333Y-129817857D01*
X102068333Y-129960714D01*
X102020714Y-130055952D01*
X101973095Y-130103571D01*
X101877857Y-130151190D01*
X101496904Y-130151190D01*
X102449285Y-129722619D02*
X102496904Y-129675000D01*
X102592142Y-129627380D01*
X102830238Y-129627380D01*
X102925476Y-129675000D01*
X102973095Y-129722619D01*
X103020714Y-129817857D01*
X103020714Y-129913095D01*
X102973095Y-130055952D01*
X102401666Y-130627380D01*
X103020714Y-130627380D01*
%TO.C,R3*%
X126198333Y-133802380D02*
X125865000Y-133326190D01*
X125626904Y-133802380D02*
X125626904Y-132802380D01*
X126007857Y-132802380D01*
X126103095Y-132850000D01*
X126150714Y-132897619D01*
X126198333Y-132992857D01*
X126198333Y-133135714D01*
X126150714Y-133230952D01*
X126103095Y-133278571D01*
X126007857Y-133326190D01*
X125626904Y-133326190D01*
X126531666Y-132802380D02*
X127150714Y-132802380D01*
X126817380Y-133183333D01*
X126960238Y-133183333D01*
X127055476Y-133230952D01*
X127103095Y-133278571D01*
X127150714Y-133373809D01*
X127150714Y-133611904D01*
X127103095Y-133707142D01*
X127055476Y-133754761D01*
X126960238Y-133802380D01*
X126674523Y-133802380D01*
X126579285Y-133754761D01*
X126531666Y-133707142D01*
%TO.C,R4*%
X102068333Y-133802380D02*
X101735000Y-133326190D01*
X101496904Y-133802380D02*
X101496904Y-132802380D01*
X101877857Y-132802380D01*
X101973095Y-132850000D01*
X102020714Y-132897619D01*
X102068333Y-132992857D01*
X102068333Y-133135714D01*
X102020714Y-133230952D01*
X101973095Y-133278571D01*
X101877857Y-133326190D01*
X101496904Y-133326190D01*
X102925476Y-133135714D02*
X102925476Y-133802380D01*
X102687380Y-132754761D02*
X102449285Y-133469047D01*
X103068333Y-133469047D01*
%TO.C,R5*%
X126198333Y-121102380D02*
X125865000Y-120626190D01*
X125626904Y-121102380D02*
X125626904Y-120102380D01*
X126007857Y-120102380D01*
X126103095Y-120150000D01*
X126150714Y-120197619D01*
X126198333Y-120292857D01*
X126198333Y-120435714D01*
X126150714Y-120530952D01*
X126103095Y-120578571D01*
X126007857Y-120626190D01*
X125626904Y-120626190D01*
X127103095Y-120102380D02*
X126626904Y-120102380D01*
X126579285Y-120578571D01*
X126626904Y-120530952D01*
X126722142Y-120483333D01*
X126960238Y-120483333D01*
X127055476Y-120530952D01*
X127103095Y-120578571D01*
X127150714Y-120673809D01*
X127150714Y-120911904D01*
X127103095Y-121007142D01*
X127055476Y-121054761D01*
X126960238Y-121102380D01*
X126722142Y-121102380D01*
X126626904Y-121054761D01*
X126579285Y-121007142D01*
%TO.C,R6*%
X102068333Y-121102380D02*
X101735000Y-120626190D01*
X101496904Y-121102380D02*
X101496904Y-120102380D01*
X101877857Y-120102380D01*
X101973095Y-120150000D01*
X102020714Y-120197619D01*
X102068333Y-120292857D01*
X102068333Y-120435714D01*
X102020714Y-120530952D01*
X101973095Y-120578571D01*
X101877857Y-120626190D01*
X101496904Y-120626190D01*
X102925476Y-120102380D02*
X102735000Y-120102380D01*
X102639761Y-120150000D01*
X102592142Y-120197619D01*
X102496904Y-120340476D01*
X102449285Y-120530952D01*
X102449285Y-120911904D01*
X102496904Y-121007142D01*
X102544523Y-121054761D01*
X102639761Y-121102380D01*
X102830238Y-121102380D01*
X102925476Y-121054761D01*
X102973095Y-121007142D01*
X103020714Y-120911904D01*
X103020714Y-120673809D01*
X102973095Y-120578571D01*
X102925476Y-120530952D01*
X102830238Y-120483333D01*
X102639761Y-120483333D01*
X102544523Y-120530952D01*
X102496904Y-120578571D01*
X102449285Y-120673809D01*
%TO.C,R7*%
X126198333Y-124277380D02*
X125865000Y-123801190D01*
X125626904Y-124277380D02*
X125626904Y-123277380D01*
X126007857Y-123277380D01*
X126103095Y-123325000D01*
X126150714Y-123372619D01*
X126198333Y-123467857D01*
X126198333Y-123610714D01*
X126150714Y-123705952D01*
X126103095Y-123753571D01*
X126007857Y-123801190D01*
X125626904Y-123801190D01*
X126531666Y-123277380D02*
X127198333Y-123277380D01*
X126769761Y-124277380D01*
%TO.C,R8*%
X102068333Y-124277380D02*
X101735000Y-123801190D01*
X101496904Y-124277380D02*
X101496904Y-123277380D01*
X101877857Y-123277380D01*
X101973095Y-123325000D01*
X102020714Y-123372619D01*
X102068333Y-123467857D01*
X102068333Y-123610714D01*
X102020714Y-123705952D01*
X101973095Y-123753571D01*
X101877857Y-123801190D01*
X101496904Y-123801190D01*
X102639761Y-123705952D02*
X102544523Y-123658333D01*
X102496904Y-123610714D01*
X102449285Y-123515476D01*
X102449285Y-123467857D01*
X102496904Y-123372619D01*
X102544523Y-123325000D01*
X102639761Y-123277380D01*
X102830238Y-123277380D01*
X102925476Y-123325000D01*
X102973095Y-123372619D01*
X103020714Y-123467857D01*
X103020714Y-123515476D01*
X102973095Y-123610714D01*
X102925476Y-123658333D01*
X102830238Y-123705952D01*
X102639761Y-123705952D01*
X102544523Y-123753571D01*
X102496904Y-123801190D01*
X102449285Y-123896428D01*
X102449285Y-124086904D01*
X102496904Y-124182142D01*
X102544523Y-124229761D01*
X102639761Y-124277380D01*
X102830238Y-124277380D01*
X102925476Y-124229761D01*
X102973095Y-124182142D01*
X103020714Y-124086904D01*
X103020714Y-123896428D01*
X102973095Y-123801190D01*
X102925476Y-123753571D01*
X102830238Y-123705952D01*
%TO.C,U1*%
X113538095Y-125182380D02*
X113538095Y-125991904D01*
X113585714Y-126087142D01*
X113633333Y-126134761D01*
X113728571Y-126182380D01*
X113919047Y-126182380D01*
X114014285Y-126134761D01*
X114061904Y-126087142D01*
X114109523Y-125991904D01*
X114109523Y-125182380D01*
X115109523Y-126182380D02*
X114538095Y-126182380D01*
X114823809Y-126182380D02*
X114823809Y-125182380D01*
X114728571Y-125325238D01*
X114633333Y-125420476D01*
X114538095Y-125468095D01*
%TO.C,R9*%
X126198333Y-117927380D02*
X125865000Y-117451190D01*
X125626904Y-117927380D02*
X125626904Y-116927380D01*
X126007857Y-116927380D01*
X126103095Y-116975000D01*
X126150714Y-117022619D01*
X126198333Y-117117857D01*
X126198333Y-117260714D01*
X126150714Y-117355952D01*
X126103095Y-117403571D01*
X126007857Y-117451190D01*
X125626904Y-117451190D01*
X126674523Y-117927380D02*
X126865000Y-117927380D01*
X126960238Y-117879761D01*
X127007857Y-117832142D01*
X127103095Y-117689285D01*
X127150714Y-117498809D01*
X127150714Y-117117857D01*
X127103095Y-117022619D01*
X127055476Y-116975000D01*
X126960238Y-116927380D01*
X126769761Y-116927380D01*
X126674523Y-116975000D01*
X126626904Y-117022619D01*
X126579285Y-117117857D01*
X126579285Y-117355952D01*
X126626904Y-117451190D01*
X126674523Y-117498809D01*
X126769761Y-117546428D01*
X126960238Y-117546428D01*
X127055476Y-117498809D01*
X127103095Y-117451190D01*
X127150714Y-117355952D01*
%TO.C,R10*%
X101592142Y-117927380D02*
X101258809Y-117451190D01*
X101020714Y-117927380D02*
X101020714Y-116927380D01*
X101401666Y-116927380D01*
X101496904Y-116975000D01*
X101544523Y-117022619D01*
X101592142Y-117117857D01*
X101592142Y-117260714D01*
X101544523Y-117355952D01*
X101496904Y-117403571D01*
X101401666Y-117451190D01*
X101020714Y-117451190D01*
X102544523Y-117927380D02*
X101973095Y-117927380D01*
X102258809Y-117927380D02*
X102258809Y-116927380D01*
X102163571Y-117070238D01*
X102068333Y-117165476D01*
X101973095Y-117213095D01*
X103163571Y-116927380D02*
X103258809Y-116927380D01*
X103354047Y-116975000D01*
X103401666Y-117022619D01*
X103449285Y-117117857D01*
X103496904Y-117308333D01*
X103496904Y-117546428D01*
X103449285Y-117736904D01*
X103401666Y-117832142D01*
X103354047Y-117879761D01*
X103258809Y-117927380D01*
X103163571Y-117927380D01*
X103068333Y-117879761D01*
X103020714Y-117832142D01*
X102973095Y-117736904D01*
X102925476Y-117546428D01*
X102925476Y-117308333D01*
X102973095Y-117117857D01*
X103020714Y-117022619D01*
X103068333Y-116975000D01*
X103163571Y-116927380D01*
%TO.C,C5*%
X123618333Y-127357142D02*
X123570714Y-127404761D01*
X123427857Y-127452380D01*
X123332619Y-127452380D01*
X123189761Y-127404761D01*
X123094523Y-127309523D01*
X123046904Y-127214285D01*
X122999285Y-127023809D01*
X122999285Y-126880952D01*
X123046904Y-126690476D01*
X123094523Y-126595238D01*
X123189761Y-126500000D01*
X123332619Y-126452380D01*
X123427857Y-126452380D01*
X123570714Y-126500000D01*
X123618333Y-126547619D01*
X124523095Y-126452380D02*
X124046904Y-126452380D01*
X123999285Y-126928571D01*
X124046904Y-126880952D01*
X124142142Y-126833333D01*
X124380238Y-126833333D01*
X124475476Y-126880952D01*
X124523095Y-126928571D01*
X124570714Y-127023809D01*
X124570714Y-127261904D01*
X124523095Y-127357142D01*
X124475476Y-127404761D01*
X124380238Y-127452380D01*
X124142142Y-127452380D01*
X124046904Y-127404761D01*
X123999285Y-127357142D01*
%TO.C,C4*%
X94337142Y-123951666D02*
X94384761Y-123999285D01*
X94432380Y-124142142D01*
X94432380Y-124237380D01*
X94384761Y-124380238D01*
X94289523Y-124475476D01*
X94194285Y-124523095D01*
X94003809Y-124570714D01*
X93860952Y-124570714D01*
X93670476Y-124523095D01*
X93575238Y-124475476D01*
X93480000Y-124380238D01*
X93432380Y-124237380D01*
X93432380Y-124142142D01*
X93480000Y-123999285D01*
X93527619Y-123951666D01*
X93765714Y-123094523D02*
X94432380Y-123094523D01*
X93384761Y-123332619D02*
X94099047Y-123570714D01*
X94099047Y-122951666D01*
%TO.C,C6*%
X104648333Y-127357142D02*
X104600714Y-127404761D01*
X104457857Y-127452380D01*
X104362619Y-127452380D01*
X104219761Y-127404761D01*
X104124523Y-127309523D01*
X104076904Y-127214285D01*
X104029285Y-127023809D01*
X104029285Y-126880952D01*
X104076904Y-126690476D01*
X104124523Y-126595238D01*
X104219761Y-126500000D01*
X104362619Y-126452380D01*
X104457857Y-126452380D01*
X104600714Y-126500000D01*
X104648333Y-126547619D01*
X105505476Y-126452380D02*
X105315000Y-126452380D01*
X105219761Y-126500000D01*
X105172142Y-126547619D01*
X105076904Y-126690476D01*
X105029285Y-126880952D01*
X105029285Y-127261904D01*
X105076904Y-127357142D01*
X105124523Y-127404761D01*
X105219761Y-127452380D01*
X105410238Y-127452380D01*
X105505476Y-127404761D01*
X105553095Y-127357142D01*
X105600714Y-127261904D01*
X105600714Y-127023809D01*
X105553095Y-126928571D01*
X105505476Y-126880952D01*
X105410238Y-126833333D01*
X105219761Y-126833333D01*
X105124523Y-126880952D01*
X105076904Y-126928571D01*
X105029285Y-127023809D01*
%TO.C,C3*%
X134977142Y-124586666D02*
X135024761Y-124634285D01*
X135072380Y-124777142D01*
X135072380Y-124872380D01*
X135024761Y-125015238D01*
X134929523Y-125110476D01*
X134834285Y-125158095D01*
X134643809Y-125205714D01*
X134500952Y-125205714D01*
X134310476Y-125158095D01*
X134215238Y-125110476D01*
X134120000Y-125015238D01*
X134072380Y-124872380D01*
X134072380Y-124777142D01*
X134120000Y-124634285D01*
X134167619Y-124586666D01*
X134072380Y-124253333D02*
X134072380Y-123634285D01*
X134453333Y-123967619D01*
X134453333Y-123824761D01*
X134500952Y-123729523D01*
X134548571Y-123681904D01*
X134643809Y-123634285D01*
X134881904Y-123634285D01*
X134977142Y-123681904D01*
X135024761Y-123729523D01*
X135072380Y-123824761D01*
X135072380Y-124110476D01*
X135024761Y-124205714D01*
X134977142Y-124253333D01*
D11*
%TO.C,C1*%
X126335000Y-136105000D02*
X126335000Y-135790000D01*
X121395000Y-136105000D02*
X121395000Y-135790000D01*
X126335000Y-138530000D02*
X126335000Y-138215000D01*
X126335000Y-138530000D02*
X121395000Y-138530000D01*
X121395000Y-138530000D02*
X121395000Y-138215000D01*
X126335000Y-135790000D02*
X121395000Y-135790000D01*
%TO.C,C2*%
X100360000Y-135155000D02*
X100360000Y-135470000D01*
X100360000Y-137895000D02*
X105300000Y-137895000D01*
X100360000Y-135155000D02*
X105300000Y-135155000D01*
X105300000Y-137580000D02*
X105300000Y-137895000D01*
X100360000Y-137580000D02*
X100360000Y-137895000D01*
X105300000Y-135155000D02*
X105300000Y-135470000D01*
D12*
%TO.C,J1*%
X133604000Y-128651000D02*
X133096000Y-129159000D01*
X133604000Y-131699000D02*
X137414000Y-131699000D01*
X133096000Y-129159000D02*
X133096000Y-131191000D01*
X133096000Y-131191000D02*
X133604000Y-131699000D01*
X137414000Y-128651000D02*
X133604000Y-128651000D01*
X137414000Y-131699000D02*
G75*
G03*
X137414000Y-128651000I0J1524000D01*
G01*
%TO.C,J2*%
X95504000Y-129159000D02*
X94996000Y-128651000D01*
X91186000Y-131699000D02*
X94996000Y-131699000D01*
X95504000Y-131191000D02*
X95504000Y-129159000D01*
X94996000Y-128651000D02*
X91186000Y-128651000D01*
X94996000Y-131699000D02*
X95504000Y-131191000D01*
X91186000Y-128651000D02*
G75*
G03*
X91186000Y-131699000I0J-1524000D01*
G01*
%TO.C,J3*%
X133096000Y-119761000D02*
X133604000Y-120269000D01*
X137414000Y-117221000D02*
X133604000Y-117221000D01*
X133604000Y-117221000D02*
X133096000Y-117729000D01*
X133604000Y-120269000D02*
X137414000Y-120269000D01*
X133096000Y-117729000D02*
X133096000Y-119761000D01*
X137414000Y-120269000D02*
G75*
G03*
X137414000Y-117221000I0J1524000D01*
G01*
%TO.C,J4*%
X95504000Y-116459000D02*
X94996000Y-115951000D01*
X95504000Y-118491000D02*
X95504000Y-116459000D01*
X91186000Y-118999000D02*
X94996000Y-118999000D01*
X94996000Y-115951000D02*
X91186000Y-115951000D01*
X94996000Y-118999000D02*
X95504000Y-118491000D01*
X91186000Y-115951000D02*
G75*
G03*
X91186000Y-118999000I0J-1524000D01*
G01*
%TO.C,J5*%
X111887000Y-109474000D02*
X113919000Y-109474000D01*
X111379000Y-105156000D02*
X111379000Y-108966000D01*
X108585000Y-109474000D02*
X110617000Y-109474000D01*
X113919000Y-109474000D02*
X114427000Y-108966000D01*
X110617000Y-109474000D02*
X111125000Y-108966000D01*
X111379000Y-108966000D02*
X111887000Y-109474000D01*
X115189000Y-109474000D02*
X117221000Y-109474000D01*
X114681000Y-108966000D02*
X115189000Y-109474000D01*
X108077000Y-108966000D02*
X108585000Y-109474000D01*
X114427000Y-108966000D02*
X114427000Y-105156000D01*
X117221000Y-109474000D02*
X117729000Y-108966000D01*
X108077000Y-105156000D02*
X108077000Y-108966000D01*
X117729000Y-108966000D02*
X117729000Y-105156000D01*
X114681000Y-105156000D02*
X114681000Y-108966000D01*
X111125000Y-108966000D02*
X111125000Y-105156000D01*
X114427000Y-105156000D02*
G75*
G03*
X111379000Y-105156000I-1524000J0D01*
G01*
X117729000Y-105156000D02*
G75*
G03*
X114681000Y-105156000I-1524000J0D01*
G01*
X111125000Y-105156000D02*
G75*
G03*
X108077000Y-105156000I-1524000J0D01*
G01*
D11*
%TO.C,R1*%
X123095000Y-128805000D02*
X123095000Y-131545000D01*
X123095000Y-131545000D02*
X129635000Y-131545000D01*
X129635000Y-128805000D02*
X123095000Y-128805000D01*
X130405000Y-130175000D02*
X129635000Y-130175000D01*
X122325000Y-130175000D02*
X123095000Y-130175000D01*
X129635000Y-131545000D02*
X129635000Y-128805000D01*
%TO.C,R2*%
X98965000Y-128805000D02*
X98965000Y-131545000D01*
X105505000Y-131545000D02*
X105505000Y-128805000D01*
X106275000Y-130175000D02*
X105505000Y-130175000D01*
X105505000Y-128805000D02*
X98965000Y-128805000D01*
X98195000Y-130175000D02*
X98965000Y-130175000D01*
X98965000Y-131545000D02*
X105505000Y-131545000D01*
%TO.C,R3*%
X123095000Y-131980000D02*
X123095000Y-134720000D01*
X129635000Y-131980000D02*
X123095000Y-131980000D01*
X130405000Y-133350000D02*
X129635000Y-133350000D01*
X123095000Y-134720000D02*
X129635000Y-134720000D01*
X129635000Y-134720000D02*
X129635000Y-131980000D01*
X122325000Y-133350000D02*
X123095000Y-133350000D01*
%TO.C,R4*%
X105505000Y-134720000D02*
X105505000Y-131980000D01*
X98965000Y-131980000D02*
X98965000Y-134720000D01*
X106275000Y-133350000D02*
X105505000Y-133350000D01*
X105505000Y-131980000D02*
X98965000Y-131980000D01*
X98195000Y-133350000D02*
X98965000Y-133350000D01*
X98965000Y-134720000D02*
X105505000Y-134720000D01*
%TO.C,R5*%
X123095000Y-122020000D02*
X129635000Y-122020000D01*
X123095000Y-119280000D02*
X123095000Y-122020000D01*
X122325000Y-120650000D02*
X123095000Y-120650000D01*
X129635000Y-122020000D02*
X129635000Y-119280000D01*
X130405000Y-120650000D02*
X129635000Y-120650000D01*
X129635000Y-119280000D02*
X123095000Y-119280000D01*
%TO.C,R6*%
X98195000Y-120650000D02*
X98965000Y-120650000D01*
X98965000Y-119280000D02*
X98965000Y-122020000D01*
X105505000Y-119280000D02*
X98965000Y-119280000D01*
X105505000Y-122020000D02*
X105505000Y-119280000D01*
X98965000Y-122020000D02*
X105505000Y-122020000D01*
X106275000Y-120650000D02*
X105505000Y-120650000D01*
%TO.C,R7*%
X130405000Y-123825000D02*
X129635000Y-123825000D01*
X122325000Y-123825000D02*
X123095000Y-123825000D01*
X129635000Y-122455000D02*
X123095000Y-122455000D01*
X123095000Y-125195000D02*
X129635000Y-125195000D01*
X123095000Y-122455000D02*
X123095000Y-125195000D01*
X129635000Y-125195000D02*
X129635000Y-122455000D01*
%TO.C,R8*%
X105505000Y-125195000D02*
X105505000Y-122455000D01*
X106275000Y-123825000D02*
X105505000Y-123825000D01*
X98965000Y-122455000D02*
X98965000Y-125195000D01*
X105505000Y-122455000D02*
X98965000Y-122455000D01*
X98965000Y-125195000D02*
X105505000Y-125195000D01*
X98195000Y-123825000D02*
X98965000Y-123825000D01*
%TO.C,RV1*%
X122575000Y-140645000D02*
X122575000Y-146645000D01*
X126325000Y-145145000D02*
X126325000Y-143145000D01*
X130075000Y-146645000D02*
X130075000Y-140645000D01*
X129075000Y-139645000D02*
X123575000Y-139645000D01*
X128075000Y-148645000D02*
X124575000Y-148645000D01*
X125325000Y-144145000D02*
X127325000Y-144145000D01*
X127325000Y-144145000D02*
G75*
G03*
X127325000Y-144145000I-1000000J0D01*
G01*
%TO.C,RV2*%
X97790000Y-137220000D02*
X91790000Y-137220000D01*
X96290000Y-140970000D02*
X94290000Y-140970000D01*
X91790000Y-144720000D02*
X97790000Y-144720000D01*
X95290000Y-141970000D02*
X95290000Y-139970000D01*
X90790000Y-138220000D02*
X90790000Y-143720000D01*
X99790000Y-139220000D02*
X99790000Y-142720000D01*
X96290000Y-140970000D02*
G75*
G03*
X96290000Y-140970000I-1000000J0D01*
G01*
%TO.C,RV3*%
X125730000Y-110180000D02*
X125730000Y-108180000D01*
X129480000Y-111680000D02*
X129480000Y-105680000D01*
X121980000Y-105680000D02*
X121980000Y-111680000D01*
X127480000Y-113680000D02*
X123980000Y-113680000D01*
X124730000Y-109180000D02*
X126730000Y-109180000D01*
X128480000Y-104680000D02*
X122980000Y-104680000D01*
X126730000Y-109180000D02*
G75*
G03*
X126730000Y-109180000I-1000000J0D01*
G01*
%TO.C,RV4*%
X97425000Y-109220000D02*
X99425000Y-109220000D01*
X101175000Y-104720000D02*
X95675000Y-104720000D01*
X100175000Y-113720000D02*
X96675000Y-113720000D01*
X94675000Y-105720000D02*
X94675000Y-111720000D01*
X102175000Y-111720000D02*
X102175000Y-105720000D01*
X98425000Y-110220000D02*
X98425000Y-108220000D01*
X99425000Y-109220000D02*
G75*
G03*
X99425000Y-109220000I-1000000J0D01*
G01*
%TO.C,U1*%
X111650000Y-134680000D02*
X113300000Y-134680000D01*
X115300000Y-134680000D02*
X116950000Y-134680000D01*
X116950000Y-116780000D02*
X111650000Y-116780000D01*
X111650000Y-116780000D02*
X111650000Y-134680000D01*
X119440000Y-116720000D02*
X109160000Y-116720000D01*
X109160000Y-116720000D02*
X109160000Y-134740000D01*
X109160000Y-134740000D02*
X119440000Y-134740000D01*
X116950000Y-134680000D02*
X116950000Y-116780000D01*
X119440000Y-134740000D02*
X119440000Y-116720000D01*
X115300000Y-134680000D02*
G75*
G03*
X113300000Y-134680000I-1000000J0D01*
G01*
%TO.C,R9*%
X129635000Y-116105000D02*
X123095000Y-116105000D01*
X129635000Y-118845000D02*
X129635000Y-116105000D01*
X123095000Y-116105000D02*
X123095000Y-118845000D01*
X130405000Y-117475000D02*
X129635000Y-117475000D01*
X122325000Y-117475000D02*
X123095000Y-117475000D01*
X123095000Y-118845000D02*
X129635000Y-118845000D01*
%TO.C,R10*%
X105505000Y-118845000D02*
X105505000Y-116105000D01*
X98195000Y-117475000D02*
X98965000Y-117475000D01*
X106275000Y-117475000D02*
X105505000Y-117475000D01*
X98965000Y-118845000D02*
X105505000Y-118845000D01*
X105505000Y-116105000D02*
X98965000Y-116105000D01*
X98965000Y-116105000D02*
X98965000Y-118845000D01*
%TO.C,C5*%
X126255000Y-125630000D02*
X126255000Y-125945000D01*
X121315000Y-125630000D02*
X121315000Y-125945000D01*
X121315000Y-125630000D02*
X126255000Y-125630000D01*
X121315000Y-128055000D02*
X121315000Y-128370000D01*
X121315000Y-128370000D02*
X126255000Y-128370000D01*
X126255000Y-128055000D02*
X126255000Y-128370000D01*
%TO.C,C4*%
X92610000Y-126255000D02*
X92610000Y-121315000D01*
X95035000Y-121315000D02*
X95350000Y-121315000D01*
X95350000Y-126255000D02*
X95350000Y-121315000D01*
X95035000Y-126255000D02*
X95350000Y-126255000D01*
X92610000Y-121315000D02*
X92925000Y-121315000D01*
X92610000Y-126255000D02*
X92925000Y-126255000D01*
%TO.C,C6*%
X102345000Y-128370000D02*
X107285000Y-128370000D01*
X102345000Y-128055000D02*
X102345000Y-128370000D01*
X102345000Y-125630000D02*
X107285000Y-125630000D01*
X107285000Y-125630000D02*
X107285000Y-125945000D01*
X107285000Y-128055000D02*
X107285000Y-128370000D01*
X102345000Y-125630000D02*
X102345000Y-125945000D01*
%TO.C,C3*%
X135675000Y-126890000D02*
X135990000Y-126890000D01*
X133250000Y-126890000D02*
X133250000Y-121950000D01*
X135675000Y-121950000D02*
X135990000Y-121950000D01*
X133250000Y-121950000D02*
X133565000Y-121950000D01*
X133250000Y-126890000D02*
X133565000Y-126890000D01*
X135990000Y-126890000D02*
X135990000Y-121950000D01*
%TD*%
M02*
