M48
; DRILL file {KiCad (5.1.8-0-10_14)} date Saturday, June 26, 2021 at 07:26:34 PM
; FORMAT={-:-/ absolute / metric / decimal}
; #@! TF.CreationDate,2021-06-26T19:26:34+01:00
; #@! TF.GenerationSoftware,Kicad,Pcbnew,(5.1.8-0-10_14)
FMAT,2
METRIC
T1C0.381
T2C0.750
T3C0.800
T4C0.900
T5C1.000
T6C1.100
%
G90
G05
T1
X131.824Y-61.5
T2
X150.5Y-67.5
X150.5Y-68.77
X150.5Y-70.04
X151.0Y-74.0
X151.0Y-75.27
X151.0Y-76.54
X157.0Y-67.5
X157.0Y-68.77
X157.0Y-70.04
X157.5Y-74.0
X157.5Y-75.27
X157.5Y-76.54
T3
X126.0Y-70.0
X126.0Y-75.0
X128.5Y-76.0
X138.66Y-76.0
X141.5Y-60.5
X141.5Y-65.5
X162.0Y-66.0
X162.0Y-76.16
X136.5Y-70.0
X146.66Y-70.0
X145.5Y-55.34
X145.5Y-65.5
X126.0Y-55.0
X126.0Y-60.0
X126.0Y-62.5
X126.0Y-67.5
X129.0Y-55.5
X139.16Y-55.5
X129.5Y-59.0
X129.5Y-61.54
X129.5Y-64.08
X129.5Y-66.62
X137.12Y-59.0
X137.12Y-61.54
X137.12Y-64.08
X137.12Y-66.62
X136.5Y-73.0
X146.66Y-73.0
X148.25Y-79.75
X158.41Y-79.75
T4
X150.0Y-56.5
X150.0Y-64.12
X153.5Y-56.5
X153.5Y-64.12
T5
X126.5Y-79.5
X129.04Y-79.5
X131.58Y-79.5
X134.12Y-79.5
X136.66Y-79.5
X139.2Y-79.5
X141.74Y-79.5
X144.28Y-79.5
T6
X158.0Y-59.0
X160.5Y-56.5
X163.0Y-59.0
T0
M30
