%TF.GenerationSoftware,KiCad,Pcbnew,(5.1.8-0-10_14)*%
%TF.CreationDate,2021-06-26T19:26:30+01:00*%
%TF.ProjectId,serge-gain-cell,73657267-652d-4676-9169-6e2d63656c6c,rev?*%
%TF.SameCoordinates,Original*%
%TF.FileFunction,Copper,L2,Bot*%
%TF.FilePolarity,Positive*%
%FSLAX46Y46*%
G04 Gerber Fmt 4.6, Leading zero omitted, Abs format (unit mm)*
G04 Created by KiCad (PCBNEW (5.1.8-0-10_14)) date 2021-06-26 19:26:30*
%MOMM*%
%LPD*%
G01*
G04 APERTURE LIST*
%TA.AperFunction,ComponentPad*%
%ADD10C,1.600000*%
%TD*%
%TA.AperFunction,ComponentPad*%
%ADD11O,1.600000X1.600000*%
%TD*%
%TA.AperFunction,ComponentPad*%
%ADD12R,1.800000X1.800000*%
%TD*%
%TA.AperFunction,ComponentPad*%
%ADD13O,1.800000X1.800000*%
%TD*%
%TA.AperFunction,ComponentPad*%
%ADD14O,1.700000X1.700000*%
%TD*%
%TA.AperFunction,ComponentPad*%
%ADD15R,1.700000X1.700000*%
%TD*%
%TA.AperFunction,ComponentPad*%
%ADD16O,1.500000X1.050000*%
%TD*%
%TA.AperFunction,ComponentPad*%
%ADD17R,1.500000X1.050000*%
%TD*%
%TA.AperFunction,ComponentPad*%
%ADD18C,2.000000*%
%TD*%
%TA.AperFunction,ComponentPad*%
%ADD19R,1.600000X1.600000*%
%TD*%
%TA.AperFunction,ViaPad*%
%ADD20C,0.762000*%
%TD*%
%TA.AperFunction,Conductor*%
%ADD21C,0.635000*%
%TD*%
%TA.AperFunction,Conductor*%
%ADD22C,0.254000*%
%TD*%
%TA.AperFunction,Conductor*%
%ADD23C,0.100000*%
%TD*%
G04 APERTURE END LIST*
D10*
%TO.P,R7,1*%
%TO.N,Net-(Q2-Pad2)*%
X158410000Y-79750000D03*
D11*
%TO.P,R7,2*%
%TO.N,GNDREF*%
X148250000Y-79750000D03*
%TD*%
D10*
%TO.P,C1,1*%
%TO.N,Net-(C1-Pad1)*%
X141500000Y-65500000D03*
%TO.P,C1,2*%
%TO.N,/In*%
X141500000Y-60500000D03*
%TD*%
%TO.P,C2,2*%
%TO.N,/FB*%
X126000000Y-62500000D03*
%TO.P,C2,1*%
%TO.N,/Out*%
X126000000Y-67500000D03*
%TD*%
%TO.P,C3,1*%
%TO.N,GNDREF*%
X126000000Y-70000000D03*
%TO.P,C3,2*%
%TO.N,+12V*%
X126000000Y-75000000D03*
%TD*%
%TO.P,C4,2*%
%TO.N,GNDREF*%
X126000000Y-60000000D03*
%TO.P,C4,1*%
%TO.N,-12V*%
X126000000Y-55000000D03*
%TD*%
D12*
%TO.P,D1,1*%
%TO.N,Net-(D1-Pad1)*%
X153500000Y-64120000D03*
D13*
%TO.P,D1,2*%
%TO.N,GNDREF*%
X153500000Y-56500000D03*
%TD*%
%TO.P,D2,2*%
%TO.N,Net-(D2-Pad2)*%
X150000000Y-56500000D03*
D12*
%TO.P,D2,1*%
%TO.N,GNDREF*%
X150000000Y-64120000D03*
%TD*%
D14*
%TO.P,J1,8*%
%TO.N,GNDREF*%
X144280000Y-79500000D03*
%TO.P,J1,7*%
%TO.N,/CV*%
X141740000Y-79500000D03*
%TO.P,J1,6*%
%TO.N,/FB*%
X139200000Y-79500000D03*
%TO.P,J1,5*%
%TO.N,/Out*%
X136660000Y-79500000D03*
%TO.P,J1,4*%
%TO.N,/In*%
X134120000Y-79500000D03*
%TO.P,J1,3*%
%TO.N,-12V*%
X131580000Y-79500000D03*
%TO.P,J1,2*%
%TO.N,GNDREF*%
X129040000Y-79500000D03*
D15*
%TO.P,J1,1*%
%TO.N,+12V*%
X126500000Y-79500000D03*
%TD*%
D16*
%TO.P,Q3,2*%
%TO.N,GNDREF*%
X150500000Y-68770000D03*
%TO.P,Q3,3*%
%TO.N,/In*%
X150500000Y-70040000D03*
D17*
%TO.P,Q3,1*%
%TO.N,Net-(D2-Pad2)*%
X150500000Y-67500000D03*
%TD*%
D16*
%TO.P,Q1,2*%
%TO.N,Net-(Q1-Pad2)*%
X151000000Y-75270000D03*
%TO.P,Q1,3*%
%TO.N,/In*%
X151000000Y-74000000D03*
D17*
%TO.P,Q1,1*%
%TO.N,Net-(D1-Pad1)*%
X151000000Y-76540000D03*
%TD*%
D16*
%TO.P,Q4,2*%
%TO.N,Net-(Q1-Pad2)*%
X157000000Y-68770000D03*
%TO.P,Q4,3*%
%TO.N,/FB*%
X157000000Y-70040000D03*
D17*
%TO.P,Q4,1*%
%TO.N,Net-(D2-Pad2)*%
X157000000Y-67500000D03*
%TD*%
D16*
%TO.P,Q2,2*%
%TO.N,Net-(Q2-Pad2)*%
X157500000Y-75270000D03*
%TO.P,Q2,3*%
%TO.N,/FB*%
X157500000Y-74000000D03*
D17*
%TO.P,Q2,1*%
%TO.N,Net-(D1-Pad1)*%
X157500000Y-76540000D03*
%TD*%
D10*
%TO.P,R1,1*%
%TO.N,Net-(D1-Pad1)*%
X146660000Y-73000000D03*
D11*
%TO.P,R1,2*%
%TO.N,Net-(C1-Pad1)*%
X136500000Y-73000000D03*
%TD*%
%TO.P,R2,2*%
%TO.N,Net-(D2-Pad2)*%
X146660000Y-70000000D03*
D10*
%TO.P,R2,1*%
%TO.N,Net-(C1-Pad1)*%
X136500000Y-70000000D03*
%TD*%
%TO.P,R3,1*%
%TO.N,+12V*%
X128500000Y-76000000D03*
D11*
%TO.P,R3,2*%
%TO.N,Net-(D1-Pad1)*%
X138660000Y-76000000D03*
%TD*%
%TO.P,R4,2*%
%TO.N,-12V*%
X129000000Y-55500000D03*
D10*
%TO.P,R4,1*%
%TO.N,Net-(D2-Pad2)*%
X139160000Y-55500000D03*
%TD*%
%TO.P,R5,1*%
%TO.N,Net-(Q1-Pad2)*%
X145500000Y-55340000D03*
D11*
%TO.P,R5,2*%
%TO.N,/CV*%
X145500000Y-65500000D03*
%TD*%
%TO.P,R6,2*%
%TO.N,Net-(Q2-Pad2)*%
X162000000Y-76160000D03*
D10*
%TO.P,R6,1*%
%TO.N,Net-(R6-Pad1)*%
X162000000Y-66000000D03*
%TD*%
D18*
%TO.P,RV1,2*%
%TO.N,Net-(R6-Pad1)*%
X160500000Y-56500000D03*
%TO.P,RV1,1*%
%TO.N,-12V*%
X158000000Y-59000000D03*
%TO.P,RV1,3*%
%TO.N,+12V*%
X163000000Y-59000000D03*
%TD*%
D19*
%TO.P,U1,1*%
%TO.N,Net-(C1-Pad1)*%
X137120000Y-66620000D03*
D11*
%TO.P,U1,5*%
%TO.N,GNDREF*%
X129500000Y-59000000D03*
%TO.P,U1,2*%
%TO.N,/In*%
X137120000Y-64080000D03*
%TO.P,U1,6*%
%TO.N,/FB*%
X129500000Y-61540000D03*
%TO.P,U1,3*%
%TO.N,GNDREF*%
X137120000Y-61540000D03*
%TO.P,U1,7*%
%TO.N,/Out*%
X129500000Y-64080000D03*
%TO.P,U1,4*%
%TO.N,-12V*%
X137120000Y-59000000D03*
%TO.P,U1,8*%
%TO.N,+12V*%
X129500000Y-66620000D03*
%TD*%
D20*
%TO.N,GNDREF*%
X131824001Y-61500000D03*
%TD*%
D21*
%TO.N,/In*%
X137031298Y-64080000D02*
X137120000Y-64080000D01*
X134120000Y-66991298D02*
X137031298Y-64080000D01*
X134120000Y-79500000D02*
X134120000Y-66991298D01*
X137920000Y-64080000D02*
X141500000Y-60500000D01*
X137120000Y-64080000D02*
X137920000Y-64080000D01*
%TO.N,/FB*%
X157000000Y-73500000D02*
X157500000Y-74000000D01*
X157000000Y-70040000D02*
X157000000Y-73500000D01*
%TO.N,GNDREF*%
X131824001Y-76715999D02*
X131824001Y-61500000D01*
X129040000Y-79500000D02*
X131824001Y-76715999D01*
X139531501Y-59128499D02*
X150871501Y-59128499D01*
X137120000Y-61540000D02*
X139531501Y-59128499D01*
X150000000Y-60000000D02*
X153000000Y-57000000D01*
X153000000Y-57000000D02*
X153500000Y-56500000D01*
X150000000Y-64120000D02*
X150000000Y-60000000D01*
X150871501Y-59128499D02*
X153000000Y-57000000D01*
X148000000Y-79500000D02*
X148250000Y-79750000D01*
X144280000Y-79500000D02*
X148000000Y-79500000D01*
X150326510Y-68943490D02*
X150500000Y-68770000D01*
X148250000Y-74974301D02*
X149178490Y-74045811D01*
X149178490Y-69585811D02*
X149820811Y-68943490D01*
X148250000Y-79750000D02*
X148250000Y-74974301D01*
X149178490Y-74045811D02*
X149178490Y-69585811D01*
X149820811Y-68943490D02*
X150326510Y-68943490D01*
%TO.N,+12V*%
X126500000Y-75500000D02*
X126000000Y-75000000D01*
X126500000Y-79500000D02*
X126500000Y-75500000D01*
X129500000Y-71500000D02*
X129500000Y-66620000D01*
X126000000Y-75000000D02*
X129500000Y-71500000D01*
X127000000Y-76000000D02*
X126000000Y-75000000D01*
X128500000Y-76000000D02*
X127000000Y-76000000D01*
X135531501Y-53968499D02*
X160294321Y-53968499D01*
X163000000Y-56674178D02*
X163000000Y-59000000D01*
X130871501Y-65248499D02*
X130871501Y-58628499D01*
X160294321Y-53968499D02*
X163000000Y-56674178D01*
X130871501Y-58628499D02*
X135531501Y-53968499D01*
X129500000Y-66620000D02*
X130871501Y-65248499D01*
%TO.N,-12V*%
X135748499Y-60371501D02*
X137120000Y-59000000D01*
X135748499Y-61628749D02*
X135748499Y-60371501D01*
X133230990Y-64146258D02*
X135748499Y-61628749D01*
X133230990Y-77849010D02*
X133230990Y-64146258D01*
X131580000Y-79500000D02*
X133230990Y-77849010D01*
%TO.N,Net-(D1-Pad1)*%
X157500000Y-76540000D02*
X151000000Y-76540000D01*
X145288499Y-69341679D02*
X145288499Y-71628499D01*
X149038677Y-65591501D02*
X145288499Y-69341679D01*
X152028499Y-65591501D02*
X149038677Y-65591501D01*
X145288499Y-71628499D02*
X146660000Y-73000000D01*
X153500000Y-64120000D02*
X152028499Y-65591501D01*
%TO.N,Net-(D2-Pad2)*%
X149160000Y-67500000D02*
X150500000Y-67500000D01*
X146660000Y-70000000D02*
X149160000Y-67500000D01*
X156428499Y-57250677D02*
X156428499Y-66928499D01*
X154206321Y-55028499D02*
X156428499Y-57250677D01*
X156428499Y-66928499D02*
X157000000Y-67500000D01*
X151471501Y-55028499D02*
X154206321Y-55028499D01*
X150000000Y-56500000D02*
X151471501Y-55028499D01*
X149100001Y-57399999D02*
X150000000Y-56500000D01*
X141059999Y-57399999D02*
X149100001Y-57399999D01*
X139160000Y-55500000D02*
X141059999Y-57399999D01*
X150500000Y-67500000D02*
X157000000Y-67500000D01*
%TO.N,/CV*%
X141740000Y-69260000D02*
X141740000Y-79500000D01*
X145500000Y-65500000D02*
X141740000Y-69260000D01*
%TO.N,Net-(Q2-Pad2)*%
X161110000Y-75270000D02*
X162000000Y-76160000D01*
X157500000Y-75270000D02*
X161110000Y-75270000D01*
%TO.N,Net-(R6-Pad1)*%
X160500000Y-64500000D02*
X162000000Y-66000000D01*
X160500000Y-56500000D02*
X160500000Y-64500000D01*
%TO.N,Net-(Q1-Pad2)*%
X155678490Y-69585811D02*
X156320811Y-68943490D01*
X155678490Y-71097209D02*
X155678490Y-69585811D01*
X156320811Y-68943490D02*
X156826510Y-68943490D01*
X151505699Y-75270000D02*
X155678490Y-71097209D01*
X156826510Y-68943490D02*
X157000000Y-68770000D01*
X151000000Y-75270000D02*
X151505699Y-75270000D01*
%TD*%
D22*
%TO.N,GNDREF*%
X137780147Y-55081426D02*
X137725000Y-55358665D01*
X137725000Y-55641335D01*
X137780147Y-55918574D01*
X137888320Y-56179727D01*
X138045363Y-56414759D01*
X138245241Y-56614637D01*
X138480273Y-56771680D01*
X138741426Y-56879853D01*
X139018665Y-56935000D01*
X139247962Y-56935000D01*
X140353392Y-58040430D01*
X140383221Y-58076777D01*
X140528258Y-58195805D01*
X140693730Y-58284251D01*
X140822203Y-58323223D01*
X140873276Y-58338716D01*
X141059998Y-58357107D01*
X141106783Y-58352499D01*
X149053216Y-58352499D01*
X149100001Y-58357107D01*
X149146786Y-58352499D01*
X149286724Y-58338716D01*
X149466270Y-58284251D01*
X149631742Y-58195805D01*
X149776779Y-58076777D01*
X149806608Y-58040430D01*
X149818140Y-58028898D01*
X149848816Y-58035000D01*
X150151184Y-58035000D01*
X150447743Y-57976011D01*
X150727095Y-57860299D01*
X150978505Y-57692312D01*
X151192312Y-57478505D01*
X151360299Y-57227095D01*
X151476011Y-56947743D01*
X151492521Y-56864741D01*
X152008959Y-56864741D01*
X152108766Y-57148620D01*
X152262038Y-57407573D01*
X152462884Y-57631649D01*
X152703586Y-57812236D01*
X152974893Y-57942394D01*
X153135260Y-57991036D01*
X153373000Y-57870378D01*
X153373000Y-56627000D01*
X152129008Y-56627000D01*
X152008959Y-56864741D01*
X151492521Y-56864741D01*
X151535000Y-56651184D01*
X151535000Y-56348816D01*
X151528898Y-56318140D01*
X151866039Y-55980999D01*
X152063194Y-55980999D01*
X152008959Y-56135259D01*
X152129008Y-56373000D01*
X153373000Y-56373000D01*
X153373000Y-56353000D01*
X153627000Y-56353000D01*
X153627000Y-56373000D01*
X153647000Y-56373000D01*
X153647000Y-56627000D01*
X153627000Y-56627000D01*
X153627000Y-57870378D01*
X153864740Y-57991036D01*
X154025107Y-57942394D01*
X154296414Y-57812236D01*
X154537116Y-57631649D01*
X154737962Y-57407573D01*
X154891234Y-57148620D01*
X154914169Y-57083386D01*
X155475999Y-57645216D01*
X155476000Y-66547500D01*
X152039759Y-66547500D01*
X152075284Y-66544001D01*
X152215222Y-66530218D01*
X152394768Y-66475753D01*
X152560240Y-66387307D01*
X152705277Y-66268279D01*
X152735106Y-66231932D01*
X153308966Y-65658072D01*
X154400000Y-65658072D01*
X154524482Y-65645812D01*
X154644180Y-65609502D01*
X154754494Y-65550537D01*
X154851185Y-65471185D01*
X154930537Y-65374494D01*
X154989502Y-65264180D01*
X155025812Y-65144482D01*
X155038072Y-65020000D01*
X155038072Y-63220000D01*
X155025812Y-63095518D01*
X154989502Y-62975820D01*
X154930537Y-62865506D01*
X154851185Y-62768815D01*
X154754494Y-62689463D01*
X154644180Y-62630498D01*
X154524482Y-62594188D01*
X154400000Y-62581928D01*
X152600000Y-62581928D01*
X152475518Y-62594188D01*
X152355820Y-62630498D01*
X152245506Y-62689463D01*
X152148815Y-62768815D01*
X152069463Y-62865506D01*
X152010498Y-62975820D01*
X151974188Y-63095518D01*
X151961928Y-63220000D01*
X151961928Y-64311034D01*
X151633961Y-64639001D01*
X151536167Y-64639001D01*
X151535000Y-64405750D01*
X151376250Y-64247000D01*
X150127000Y-64247000D01*
X150127000Y-64267000D01*
X149873000Y-64267000D01*
X149873000Y-64247000D01*
X148623750Y-64247000D01*
X148465000Y-64405750D01*
X148462869Y-64831860D01*
X148361899Y-64914723D01*
X148332070Y-64951070D01*
X144648068Y-68635072D01*
X144611721Y-68664901D01*
X144492693Y-68809938D01*
X144404247Y-68975411D01*
X144366064Y-69101283D01*
X144349782Y-69154957D01*
X144331391Y-69341679D01*
X144335999Y-69388464D01*
X144336000Y-71581705D01*
X144331391Y-71628499D01*
X144349782Y-71815221D01*
X144404248Y-71994768D01*
X144482110Y-72140438D01*
X144492694Y-72160240D01*
X144611722Y-72305277D01*
X144648064Y-72335102D01*
X145225000Y-72912038D01*
X145225000Y-73141335D01*
X145280147Y-73418574D01*
X145388320Y-73679727D01*
X145545363Y-73914759D01*
X145745241Y-74114637D01*
X145980273Y-74271680D01*
X146241426Y-74379853D01*
X146518665Y-74435000D01*
X146801335Y-74435000D01*
X147078574Y-74379853D01*
X147339727Y-74271680D01*
X147574759Y-74114637D01*
X147774637Y-73914759D01*
X147931680Y-73679727D01*
X148039853Y-73418574D01*
X148095000Y-73141335D01*
X148095000Y-72858665D01*
X148039853Y-72581426D01*
X147931680Y-72320273D01*
X147774637Y-72085241D01*
X147574759Y-71885363D01*
X147339727Y-71728320D01*
X147078574Y-71620147D01*
X146801335Y-71565000D01*
X146572038Y-71565000D01*
X146423011Y-71415973D01*
X146518665Y-71435000D01*
X146801335Y-71435000D01*
X147078574Y-71379853D01*
X147339727Y-71271680D01*
X147574759Y-71114637D01*
X147774637Y-70914759D01*
X147931680Y-70679727D01*
X148039853Y-70418574D01*
X148095000Y-70141335D01*
X148095000Y-69912038D01*
X149115000Y-68892039D01*
X149115000Y-68897002D01*
X149281836Y-68897002D01*
X149156036Y-69075810D01*
X149164728Y-69137337D01*
X149257725Y-69346882D01*
X149298929Y-69405331D01*
X149198115Y-69593940D01*
X149131785Y-69812600D01*
X149109388Y-70040000D01*
X149131785Y-70267400D01*
X149198115Y-70486060D01*
X149305829Y-70687579D01*
X149450788Y-70864212D01*
X149627421Y-71009171D01*
X149828940Y-71116885D01*
X150047600Y-71183215D01*
X150218021Y-71200000D01*
X150781979Y-71200000D01*
X150952400Y-71183215D01*
X151171060Y-71116885D01*
X151372579Y-71009171D01*
X151549212Y-70864212D01*
X151694171Y-70687579D01*
X151801885Y-70486060D01*
X151868215Y-70267400D01*
X151890612Y-70040000D01*
X151868215Y-69812600D01*
X151801885Y-69593940D01*
X151701071Y-69405331D01*
X151742275Y-69346882D01*
X151835272Y-69137337D01*
X151843964Y-69075810D01*
X151718163Y-68897000D01*
X150953109Y-68897000D01*
X150952400Y-68896785D01*
X150781979Y-68880000D01*
X150353000Y-68880000D01*
X150353000Y-68663072D01*
X151250000Y-68663072D01*
X151374482Y-68650812D01*
X151400235Y-68643000D01*
X151718163Y-68643000D01*
X151843964Y-68464190D01*
X151842313Y-68452500D01*
X155464762Y-68452500D01*
X155038054Y-68879209D01*
X155001713Y-68909033D01*
X154971889Y-68945374D01*
X154882684Y-69054071D01*
X154794239Y-69219542D01*
X154739773Y-69399089D01*
X154721382Y-69585811D01*
X154725991Y-69632605D01*
X154725990Y-70702671D01*
X152141013Y-73287648D01*
X152049212Y-73175788D01*
X151872579Y-73030829D01*
X151671060Y-72923115D01*
X151452400Y-72856785D01*
X151281979Y-72840000D01*
X150718021Y-72840000D01*
X150547600Y-72856785D01*
X150328940Y-72923115D01*
X150127421Y-73030829D01*
X149950788Y-73175788D01*
X149805829Y-73352421D01*
X149698115Y-73553940D01*
X149631785Y-73772600D01*
X149609388Y-74000000D01*
X149631785Y-74227400D01*
X149698115Y-74446060D01*
X149799105Y-74635000D01*
X149698115Y-74823940D01*
X149631785Y-75042600D01*
X149609388Y-75270000D01*
X149631785Y-75497400D01*
X149695093Y-75706098D01*
X149660498Y-75770820D01*
X149624188Y-75890518D01*
X149611928Y-76015000D01*
X149611928Y-77065000D01*
X149624188Y-77189482D01*
X149660498Y-77309180D01*
X149719463Y-77419494D01*
X149798815Y-77516185D01*
X149895506Y-77595537D01*
X150005820Y-77654502D01*
X150125518Y-77690812D01*
X150250000Y-77703072D01*
X151750000Y-77703072D01*
X151874482Y-77690812D01*
X151994180Y-77654502D01*
X152104494Y-77595537D01*
X152201185Y-77516185D01*
X152220623Y-77492500D01*
X156279377Y-77492500D01*
X156298815Y-77516185D01*
X156395506Y-77595537D01*
X156505820Y-77654502D01*
X156625518Y-77690812D01*
X156750000Y-77703072D01*
X158250000Y-77703072D01*
X158374482Y-77690812D01*
X158494180Y-77654502D01*
X158604494Y-77595537D01*
X158701185Y-77516185D01*
X158780537Y-77419494D01*
X158839502Y-77309180D01*
X158875812Y-77189482D01*
X158888072Y-77065000D01*
X158888072Y-76222500D01*
X160565000Y-76222500D01*
X160565000Y-76301335D01*
X160620147Y-76578574D01*
X160728320Y-76839727D01*
X160885363Y-77074759D01*
X161085241Y-77274637D01*
X161320273Y-77431680D01*
X161581426Y-77539853D01*
X161858665Y-77595000D01*
X162141335Y-77595000D01*
X162418574Y-77539853D01*
X162679727Y-77431680D01*
X162914759Y-77274637D01*
X163114637Y-77074759D01*
X163271680Y-76839727D01*
X163379853Y-76578574D01*
X163435000Y-76301335D01*
X163435000Y-76018665D01*
X163379853Y-75741426D01*
X163271680Y-75480273D01*
X163114637Y-75245241D01*
X162914759Y-75045363D01*
X162679727Y-74888320D01*
X162418574Y-74780147D01*
X162141335Y-74725000D01*
X161912038Y-74725000D01*
X161816607Y-74629569D01*
X161786778Y-74593222D01*
X161641741Y-74474194D01*
X161476269Y-74385748D01*
X161296723Y-74331283D01*
X161156785Y-74317500D01*
X161110000Y-74312892D01*
X161063215Y-74317500D01*
X158840883Y-74317500D01*
X158868215Y-74227400D01*
X158890612Y-74000000D01*
X158868215Y-73772600D01*
X158801885Y-73553940D01*
X158694171Y-73352421D01*
X158549212Y-73175788D01*
X158372579Y-73030829D01*
X158171060Y-72923115D01*
X157952500Y-72856815D01*
X157952500Y-70943582D01*
X158049212Y-70864212D01*
X158194171Y-70687579D01*
X158301885Y-70486060D01*
X158368215Y-70267400D01*
X158390612Y-70040000D01*
X158368215Y-69812600D01*
X158301885Y-69593940D01*
X158200895Y-69405000D01*
X158301885Y-69216060D01*
X158368215Y-68997400D01*
X158390612Y-68770000D01*
X158368215Y-68542600D01*
X158304907Y-68333902D01*
X158339502Y-68269180D01*
X158375812Y-68149482D01*
X158388072Y-68025000D01*
X158388072Y-66975000D01*
X158375812Y-66850518D01*
X158339502Y-66730820D01*
X158280537Y-66620506D01*
X158201185Y-66523815D01*
X158104494Y-66444463D01*
X157994180Y-66385498D01*
X157874482Y-66349188D01*
X157750000Y-66336928D01*
X157380999Y-66336928D01*
X157380999Y-60513313D01*
X157523088Y-60572168D01*
X157838967Y-60635000D01*
X158161033Y-60635000D01*
X158476912Y-60572168D01*
X158774463Y-60448918D01*
X159042252Y-60269987D01*
X159269987Y-60042252D01*
X159448918Y-59774463D01*
X159547500Y-59536466D01*
X159547501Y-64453205D01*
X159542892Y-64500000D01*
X159561283Y-64686722D01*
X159615749Y-64866269D01*
X159704194Y-65031740D01*
X159744970Y-65081426D01*
X159823223Y-65176778D01*
X159859565Y-65206603D01*
X160565000Y-65912038D01*
X160565000Y-66141335D01*
X160620147Y-66418574D01*
X160728320Y-66679727D01*
X160885363Y-66914759D01*
X161085241Y-67114637D01*
X161320273Y-67271680D01*
X161581426Y-67379853D01*
X161858665Y-67435000D01*
X162141335Y-67435000D01*
X162418574Y-67379853D01*
X162679727Y-67271680D01*
X162914759Y-67114637D01*
X163114637Y-66914759D01*
X163271680Y-66679727D01*
X163379853Y-66418574D01*
X163435000Y-66141335D01*
X163435000Y-65858665D01*
X163379853Y-65581426D01*
X163271680Y-65320273D01*
X163114637Y-65085241D01*
X162914759Y-64885363D01*
X162679727Y-64728320D01*
X162418574Y-64620147D01*
X162141335Y-64565000D01*
X161912038Y-64565000D01*
X161452500Y-64105462D01*
X161452500Y-59536466D01*
X161551082Y-59774463D01*
X161730013Y-60042252D01*
X161957748Y-60269987D01*
X162225537Y-60448918D01*
X162523088Y-60572168D01*
X162838967Y-60635000D01*
X163161033Y-60635000D01*
X163476912Y-60572168D01*
X163774463Y-60448918D01*
X163840000Y-60405127D01*
X163840001Y-80467711D01*
X163830420Y-80565424D01*
X163811420Y-80628357D01*
X163780554Y-80686406D01*
X163739011Y-80737343D01*
X163688356Y-80779248D01*
X163630529Y-80810515D01*
X163567728Y-80829956D01*
X163472165Y-80840000D01*
X159349396Y-80840000D01*
X159524637Y-80664759D01*
X159681680Y-80429727D01*
X159789853Y-80168574D01*
X159845000Y-79891335D01*
X159845000Y-79608665D01*
X159789853Y-79331426D01*
X159681680Y-79070273D01*
X159524637Y-78835241D01*
X159324759Y-78635363D01*
X159089727Y-78478320D01*
X158828574Y-78370147D01*
X158551335Y-78315000D01*
X158268665Y-78315000D01*
X157991426Y-78370147D01*
X157730273Y-78478320D01*
X157495241Y-78635363D01*
X157295363Y-78835241D01*
X157138320Y-79070273D01*
X157030147Y-79331426D01*
X156975000Y-79608665D01*
X156975000Y-79891335D01*
X157030147Y-80168574D01*
X157138320Y-80429727D01*
X157295363Y-80664759D01*
X157470604Y-80840000D01*
X149173926Y-80840000D01*
X149313519Y-80713414D01*
X149481037Y-80487420D01*
X149601246Y-80233087D01*
X149641904Y-80099039D01*
X149519915Y-79877000D01*
X148377000Y-79877000D01*
X148377000Y-79897000D01*
X148123000Y-79897000D01*
X148123000Y-79877000D01*
X146980085Y-79877000D01*
X146858096Y-80099039D01*
X146898754Y-80233087D01*
X147018963Y-80487420D01*
X147186481Y-80713414D01*
X147326074Y-80840000D01*
X144903402Y-80840000D01*
X145046920Y-80771641D01*
X145280269Y-80597588D01*
X145475178Y-80381355D01*
X145624157Y-80131252D01*
X145721481Y-79856891D01*
X145600814Y-79627000D01*
X144407000Y-79627000D01*
X144407000Y-79647000D01*
X144153000Y-79647000D01*
X144153000Y-79627000D01*
X144133000Y-79627000D01*
X144133000Y-79400961D01*
X146858096Y-79400961D01*
X146980085Y-79623000D01*
X148123000Y-79623000D01*
X148123000Y-78479376D01*
X148377000Y-78479376D01*
X148377000Y-79623000D01*
X149519915Y-79623000D01*
X149641904Y-79400961D01*
X149601246Y-79266913D01*
X149481037Y-79012580D01*
X149313519Y-78786586D01*
X149105131Y-78597615D01*
X148863881Y-78452930D01*
X148599040Y-78358091D01*
X148377000Y-78479376D01*
X148123000Y-78479376D01*
X147900960Y-78358091D01*
X147636119Y-78452930D01*
X147394869Y-78597615D01*
X147186481Y-78786586D01*
X147018963Y-79012580D01*
X146898754Y-79266913D01*
X146858096Y-79400961D01*
X144133000Y-79400961D01*
X144133000Y-79373000D01*
X144153000Y-79373000D01*
X144153000Y-78179845D01*
X144407000Y-78179845D01*
X144407000Y-79373000D01*
X145600814Y-79373000D01*
X145721481Y-79143109D01*
X145624157Y-78868748D01*
X145475178Y-78618645D01*
X145280269Y-78402412D01*
X145046920Y-78228359D01*
X144784099Y-78103175D01*
X144636890Y-78058524D01*
X144407000Y-78179845D01*
X144153000Y-78179845D01*
X143923110Y-78058524D01*
X143775901Y-78103175D01*
X143513080Y-78228359D01*
X143279731Y-78402412D01*
X143084822Y-78618645D01*
X143015195Y-78735534D01*
X142893475Y-78553368D01*
X142692500Y-78352393D01*
X142692500Y-69654538D01*
X145412039Y-66935000D01*
X145641335Y-66935000D01*
X145918574Y-66879853D01*
X146179727Y-66771680D01*
X146414759Y-66614637D01*
X146614637Y-66414759D01*
X146771680Y-66179727D01*
X146879853Y-65918574D01*
X146935000Y-65641335D01*
X146935000Y-65358665D01*
X146879853Y-65081426D01*
X146771680Y-64820273D01*
X146614637Y-64585241D01*
X146414759Y-64385363D01*
X146179727Y-64228320D01*
X145918574Y-64120147D01*
X145641335Y-64065000D01*
X145358665Y-64065000D01*
X145081426Y-64120147D01*
X144820273Y-64228320D01*
X144585241Y-64385363D01*
X144385363Y-64585241D01*
X144228320Y-64820273D01*
X144120147Y-65081426D01*
X144065000Y-65358665D01*
X144065000Y-65587961D01*
X141099569Y-68553393D01*
X141063222Y-68583222D01*
X140944194Y-68728259D01*
X140855748Y-68893732D01*
X140821298Y-69007298D01*
X140801283Y-69073278D01*
X140782892Y-69260000D01*
X140787500Y-69306785D01*
X140787501Y-78352392D01*
X140586525Y-78553368D01*
X140470000Y-78727760D01*
X140353475Y-78553368D01*
X140146632Y-78346525D01*
X139903411Y-78184010D01*
X139633158Y-78072068D01*
X139346260Y-78015000D01*
X139053740Y-78015000D01*
X138766842Y-78072068D01*
X138496589Y-78184010D01*
X138253368Y-78346525D01*
X138046525Y-78553368D01*
X137930000Y-78727760D01*
X137813475Y-78553368D01*
X137606632Y-78346525D01*
X137363411Y-78184010D01*
X137093158Y-78072068D01*
X136806260Y-78015000D01*
X136513740Y-78015000D01*
X136226842Y-78072068D01*
X135956589Y-78184010D01*
X135713368Y-78346525D01*
X135506525Y-78553368D01*
X135390000Y-78727760D01*
X135273475Y-78553368D01*
X135072500Y-78352393D01*
X135072500Y-75858665D01*
X137225000Y-75858665D01*
X137225000Y-76141335D01*
X137280147Y-76418574D01*
X137388320Y-76679727D01*
X137545363Y-76914759D01*
X137745241Y-77114637D01*
X137980273Y-77271680D01*
X138241426Y-77379853D01*
X138518665Y-77435000D01*
X138801335Y-77435000D01*
X139078574Y-77379853D01*
X139339727Y-77271680D01*
X139574759Y-77114637D01*
X139774637Y-76914759D01*
X139931680Y-76679727D01*
X140039853Y-76418574D01*
X140095000Y-76141335D01*
X140095000Y-75858665D01*
X140039853Y-75581426D01*
X139931680Y-75320273D01*
X139774637Y-75085241D01*
X139574759Y-74885363D01*
X139339727Y-74728320D01*
X139078574Y-74620147D01*
X138801335Y-74565000D01*
X138518665Y-74565000D01*
X138241426Y-74620147D01*
X137980273Y-74728320D01*
X137745241Y-74885363D01*
X137545363Y-75085241D01*
X137388320Y-75320273D01*
X137280147Y-75581426D01*
X137225000Y-75858665D01*
X135072500Y-75858665D01*
X135072500Y-73179040D01*
X135120147Y-73418574D01*
X135228320Y-73679727D01*
X135385363Y-73914759D01*
X135585241Y-74114637D01*
X135820273Y-74271680D01*
X136081426Y-74379853D01*
X136358665Y-74435000D01*
X136641335Y-74435000D01*
X136918574Y-74379853D01*
X137179727Y-74271680D01*
X137414759Y-74114637D01*
X137614637Y-73914759D01*
X137771680Y-73679727D01*
X137879853Y-73418574D01*
X137935000Y-73141335D01*
X137935000Y-72858665D01*
X137879853Y-72581426D01*
X137771680Y-72320273D01*
X137614637Y-72085241D01*
X137414759Y-71885363D01*
X137179727Y-71728320D01*
X136918574Y-71620147D01*
X136641335Y-71565000D01*
X136358665Y-71565000D01*
X136081426Y-71620147D01*
X135820273Y-71728320D01*
X135585241Y-71885363D01*
X135385363Y-72085241D01*
X135228320Y-72320273D01*
X135120147Y-72581426D01*
X135072500Y-72820960D01*
X135072500Y-70179040D01*
X135120147Y-70418574D01*
X135228320Y-70679727D01*
X135385363Y-70914759D01*
X135585241Y-71114637D01*
X135820273Y-71271680D01*
X136081426Y-71379853D01*
X136358665Y-71435000D01*
X136641335Y-71435000D01*
X136918574Y-71379853D01*
X137179727Y-71271680D01*
X137414759Y-71114637D01*
X137614637Y-70914759D01*
X137771680Y-70679727D01*
X137879853Y-70418574D01*
X137935000Y-70141335D01*
X137935000Y-69858665D01*
X137879853Y-69581426D01*
X137771680Y-69320273D01*
X137614637Y-69085241D01*
X137414759Y-68885363D01*
X137179727Y-68728320D01*
X136918574Y-68620147D01*
X136641335Y-68565000D01*
X136358665Y-68565000D01*
X136081426Y-68620147D01*
X135820273Y-68728320D01*
X135585241Y-68885363D01*
X135385363Y-69085241D01*
X135228320Y-69320273D01*
X135120147Y-69581426D01*
X135072500Y-69820960D01*
X135072500Y-67385836D01*
X135681928Y-66776408D01*
X135681928Y-67420000D01*
X135694188Y-67544482D01*
X135730498Y-67664180D01*
X135789463Y-67774494D01*
X135868815Y-67871185D01*
X135965506Y-67950537D01*
X136075820Y-68009502D01*
X136195518Y-68045812D01*
X136320000Y-68058072D01*
X137920000Y-68058072D01*
X138044482Y-68045812D01*
X138164180Y-68009502D01*
X138274494Y-67950537D01*
X138371185Y-67871185D01*
X138450537Y-67774494D01*
X138509502Y-67664180D01*
X138545812Y-67544482D01*
X138558072Y-67420000D01*
X138558072Y-65820000D01*
X138545812Y-65695518D01*
X138509502Y-65575820D01*
X138450537Y-65465506D01*
X138371185Y-65368815D01*
X138358818Y-65358665D01*
X140065000Y-65358665D01*
X140065000Y-65641335D01*
X140120147Y-65918574D01*
X140228320Y-66179727D01*
X140385363Y-66414759D01*
X140585241Y-66614637D01*
X140820273Y-66771680D01*
X141081426Y-66879853D01*
X141358665Y-66935000D01*
X141641335Y-66935000D01*
X141918574Y-66879853D01*
X142179727Y-66771680D01*
X142414759Y-66614637D01*
X142614637Y-66414759D01*
X142771680Y-66179727D01*
X142879853Y-65918574D01*
X142935000Y-65641335D01*
X142935000Y-65358665D01*
X142879853Y-65081426D01*
X142771680Y-64820273D01*
X142614637Y-64585241D01*
X142414759Y-64385363D01*
X142179727Y-64228320D01*
X141918574Y-64120147D01*
X141641335Y-64065000D01*
X141358665Y-64065000D01*
X141081426Y-64120147D01*
X140820273Y-64228320D01*
X140585241Y-64385363D01*
X140385363Y-64585241D01*
X140228320Y-64820273D01*
X140120147Y-65081426D01*
X140065000Y-65358665D01*
X138358818Y-65358665D01*
X138274494Y-65289463D01*
X138164180Y-65230498D01*
X138044482Y-65194188D01*
X138036039Y-65193357D01*
X138234637Y-64994759D01*
X138247077Y-64976141D01*
X138286269Y-64964252D01*
X138451741Y-64875806D01*
X138596778Y-64756778D01*
X138626607Y-64720431D01*
X140127038Y-63220000D01*
X148461928Y-63220000D01*
X148465000Y-63834250D01*
X148623750Y-63993000D01*
X149873000Y-63993000D01*
X149873000Y-62743750D01*
X150127000Y-62743750D01*
X150127000Y-63993000D01*
X151376250Y-63993000D01*
X151535000Y-63834250D01*
X151538072Y-63220000D01*
X151525812Y-63095518D01*
X151489502Y-62975820D01*
X151430537Y-62865506D01*
X151351185Y-62768815D01*
X151254494Y-62689463D01*
X151144180Y-62630498D01*
X151024482Y-62594188D01*
X150900000Y-62581928D01*
X150285750Y-62585000D01*
X150127000Y-62743750D01*
X149873000Y-62743750D01*
X149714250Y-62585000D01*
X149100000Y-62581928D01*
X148975518Y-62594188D01*
X148855820Y-62630498D01*
X148745506Y-62689463D01*
X148648815Y-62768815D01*
X148569463Y-62865506D01*
X148510498Y-62975820D01*
X148474188Y-63095518D01*
X148461928Y-63220000D01*
X140127038Y-63220000D01*
X141412038Y-61935000D01*
X141641335Y-61935000D01*
X141918574Y-61879853D01*
X142179727Y-61771680D01*
X142414759Y-61614637D01*
X142614637Y-61414759D01*
X142771680Y-61179727D01*
X142879853Y-60918574D01*
X142935000Y-60641335D01*
X142935000Y-60358665D01*
X142879853Y-60081426D01*
X142771680Y-59820273D01*
X142614637Y-59585241D01*
X142414759Y-59385363D01*
X142179727Y-59228320D01*
X141918574Y-59120147D01*
X141641335Y-59065000D01*
X141358665Y-59065000D01*
X141081426Y-59120147D01*
X140820273Y-59228320D01*
X140585241Y-59385363D01*
X140385363Y-59585241D01*
X140228320Y-59820273D01*
X140120147Y-60081426D01*
X140065000Y-60358665D01*
X140065000Y-60587962D01*
X138280837Y-62372125D01*
X138351037Y-62277420D01*
X138471246Y-62023087D01*
X138511904Y-61889039D01*
X138389915Y-61667000D01*
X137247000Y-61667000D01*
X137247000Y-61687000D01*
X136993000Y-61687000D01*
X136993000Y-61667000D01*
X136973000Y-61667000D01*
X136973000Y-61413000D01*
X136993000Y-61413000D01*
X136993000Y-61393000D01*
X137247000Y-61393000D01*
X137247000Y-61413000D01*
X138389915Y-61413000D01*
X138511904Y-61190961D01*
X138471246Y-61056913D01*
X138351037Y-60802580D01*
X138183519Y-60576586D01*
X137975131Y-60387615D01*
X137789135Y-60276067D01*
X137799727Y-60271680D01*
X138034759Y-60114637D01*
X138234637Y-59914759D01*
X138391680Y-59679727D01*
X138499853Y-59418574D01*
X138555000Y-59141335D01*
X138555000Y-58858665D01*
X138499853Y-58581426D01*
X138391680Y-58320273D01*
X138234637Y-58085241D01*
X138034759Y-57885363D01*
X137799727Y-57728320D01*
X137538574Y-57620147D01*
X137261335Y-57565000D01*
X136978665Y-57565000D01*
X136701426Y-57620147D01*
X136440273Y-57728320D01*
X136205241Y-57885363D01*
X136005363Y-58085241D01*
X135848320Y-58320273D01*
X135740147Y-58581426D01*
X135685000Y-58858665D01*
X135685000Y-59087962D01*
X135108064Y-59664898D01*
X135071722Y-59694723D01*
X135041898Y-59731064D01*
X134952693Y-59839761D01*
X134864248Y-60005232D01*
X134809782Y-60184779D01*
X134791391Y-60371501D01*
X134796000Y-60418295D01*
X134795999Y-61234211D01*
X132590555Y-63439655D01*
X132554213Y-63469480D01*
X132524389Y-63505821D01*
X132435184Y-63614518D01*
X132346739Y-63779989D01*
X132292273Y-63959536D01*
X132273882Y-64146258D01*
X132278491Y-64193053D01*
X132278490Y-77454472D01*
X131717962Y-78015000D01*
X131433740Y-78015000D01*
X131146842Y-78072068D01*
X130876589Y-78184010D01*
X130633368Y-78346525D01*
X130426525Y-78553368D01*
X130304805Y-78735534D01*
X130235178Y-78618645D01*
X130040269Y-78402412D01*
X129806920Y-78228359D01*
X129544099Y-78103175D01*
X129396890Y-78058524D01*
X129167000Y-78179845D01*
X129167000Y-79373000D01*
X129187000Y-79373000D01*
X129187000Y-79627000D01*
X129167000Y-79627000D01*
X129167000Y-79647000D01*
X128913000Y-79647000D01*
X128913000Y-79627000D01*
X128893000Y-79627000D01*
X128893000Y-79373000D01*
X128913000Y-79373000D01*
X128913000Y-78179845D01*
X128683110Y-78058524D01*
X128535901Y-78103175D01*
X128273080Y-78228359D01*
X128039731Y-78402412D01*
X127963966Y-78486466D01*
X127939502Y-78405820D01*
X127880537Y-78295506D01*
X127801185Y-78198815D01*
X127704494Y-78119463D01*
X127594180Y-78060498D01*
X127474482Y-78024188D01*
X127452500Y-78022023D01*
X127452500Y-76981896D01*
X127585241Y-77114637D01*
X127820273Y-77271680D01*
X128081426Y-77379853D01*
X128358665Y-77435000D01*
X128641335Y-77435000D01*
X128918574Y-77379853D01*
X129179727Y-77271680D01*
X129414759Y-77114637D01*
X129614637Y-76914759D01*
X129771680Y-76679727D01*
X129879853Y-76418574D01*
X129935000Y-76141335D01*
X129935000Y-75858665D01*
X129879853Y-75581426D01*
X129771680Y-75320273D01*
X129614637Y-75085241D01*
X129414759Y-74885363D01*
X129179727Y-74728320D01*
X128918574Y-74620147D01*
X128641335Y-74565000D01*
X128358665Y-74565000D01*
X128081426Y-74620147D01*
X127820273Y-74728320D01*
X127585241Y-74885363D01*
X127435000Y-75035604D01*
X127435000Y-74912038D01*
X130140431Y-72206607D01*
X130176778Y-72176778D01*
X130295806Y-72031741D01*
X130384252Y-71866269D01*
X130438717Y-71686723D01*
X130452500Y-71546785D01*
X130452500Y-71546784D01*
X130457108Y-71500001D01*
X130452500Y-71453216D01*
X130452500Y-67696896D01*
X130614637Y-67534759D01*
X130771680Y-67299727D01*
X130879853Y-67038574D01*
X130935000Y-66761335D01*
X130935000Y-66532038D01*
X131511932Y-65955106D01*
X131548279Y-65925277D01*
X131667307Y-65780240D01*
X131755753Y-65614768D01*
X131810218Y-65435222D01*
X131824001Y-65295284D01*
X131824001Y-65295283D01*
X131828609Y-65248500D01*
X131824001Y-65201715D01*
X131824001Y-59023037D01*
X135926040Y-54920999D01*
X137846598Y-54920999D01*
X137780147Y-55081426D01*
%TA.AperFunction,Conductor*%
D23*
G36*
X137780147Y-55081426D02*
G01*
X137725000Y-55358665D01*
X137725000Y-55641335D01*
X137780147Y-55918574D01*
X137888320Y-56179727D01*
X138045363Y-56414759D01*
X138245241Y-56614637D01*
X138480273Y-56771680D01*
X138741426Y-56879853D01*
X139018665Y-56935000D01*
X139247962Y-56935000D01*
X140353392Y-58040430D01*
X140383221Y-58076777D01*
X140528258Y-58195805D01*
X140693730Y-58284251D01*
X140822203Y-58323223D01*
X140873276Y-58338716D01*
X141059998Y-58357107D01*
X141106783Y-58352499D01*
X149053216Y-58352499D01*
X149100001Y-58357107D01*
X149146786Y-58352499D01*
X149286724Y-58338716D01*
X149466270Y-58284251D01*
X149631742Y-58195805D01*
X149776779Y-58076777D01*
X149806608Y-58040430D01*
X149818140Y-58028898D01*
X149848816Y-58035000D01*
X150151184Y-58035000D01*
X150447743Y-57976011D01*
X150727095Y-57860299D01*
X150978505Y-57692312D01*
X151192312Y-57478505D01*
X151360299Y-57227095D01*
X151476011Y-56947743D01*
X151492521Y-56864741D01*
X152008959Y-56864741D01*
X152108766Y-57148620D01*
X152262038Y-57407573D01*
X152462884Y-57631649D01*
X152703586Y-57812236D01*
X152974893Y-57942394D01*
X153135260Y-57991036D01*
X153373000Y-57870378D01*
X153373000Y-56627000D01*
X152129008Y-56627000D01*
X152008959Y-56864741D01*
X151492521Y-56864741D01*
X151535000Y-56651184D01*
X151535000Y-56348816D01*
X151528898Y-56318140D01*
X151866039Y-55980999D01*
X152063194Y-55980999D01*
X152008959Y-56135259D01*
X152129008Y-56373000D01*
X153373000Y-56373000D01*
X153373000Y-56353000D01*
X153627000Y-56353000D01*
X153627000Y-56373000D01*
X153647000Y-56373000D01*
X153647000Y-56627000D01*
X153627000Y-56627000D01*
X153627000Y-57870378D01*
X153864740Y-57991036D01*
X154025107Y-57942394D01*
X154296414Y-57812236D01*
X154537116Y-57631649D01*
X154737962Y-57407573D01*
X154891234Y-57148620D01*
X154914169Y-57083386D01*
X155475999Y-57645216D01*
X155476000Y-66547500D01*
X152039759Y-66547500D01*
X152075284Y-66544001D01*
X152215222Y-66530218D01*
X152394768Y-66475753D01*
X152560240Y-66387307D01*
X152705277Y-66268279D01*
X152735106Y-66231932D01*
X153308966Y-65658072D01*
X154400000Y-65658072D01*
X154524482Y-65645812D01*
X154644180Y-65609502D01*
X154754494Y-65550537D01*
X154851185Y-65471185D01*
X154930537Y-65374494D01*
X154989502Y-65264180D01*
X155025812Y-65144482D01*
X155038072Y-65020000D01*
X155038072Y-63220000D01*
X155025812Y-63095518D01*
X154989502Y-62975820D01*
X154930537Y-62865506D01*
X154851185Y-62768815D01*
X154754494Y-62689463D01*
X154644180Y-62630498D01*
X154524482Y-62594188D01*
X154400000Y-62581928D01*
X152600000Y-62581928D01*
X152475518Y-62594188D01*
X152355820Y-62630498D01*
X152245506Y-62689463D01*
X152148815Y-62768815D01*
X152069463Y-62865506D01*
X152010498Y-62975820D01*
X151974188Y-63095518D01*
X151961928Y-63220000D01*
X151961928Y-64311034D01*
X151633961Y-64639001D01*
X151536167Y-64639001D01*
X151535000Y-64405750D01*
X151376250Y-64247000D01*
X150127000Y-64247000D01*
X150127000Y-64267000D01*
X149873000Y-64267000D01*
X149873000Y-64247000D01*
X148623750Y-64247000D01*
X148465000Y-64405750D01*
X148462869Y-64831860D01*
X148361899Y-64914723D01*
X148332070Y-64951070D01*
X144648068Y-68635072D01*
X144611721Y-68664901D01*
X144492693Y-68809938D01*
X144404247Y-68975411D01*
X144366064Y-69101283D01*
X144349782Y-69154957D01*
X144331391Y-69341679D01*
X144335999Y-69388464D01*
X144336000Y-71581705D01*
X144331391Y-71628499D01*
X144349782Y-71815221D01*
X144404248Y-71994768D01*
X144482110Y-72140438D01*
X144492694Y-72160240D01*
X144611722Y-72305277D01*
X144648064Y-72335102D01*
X145225000Y-72912038D01*
X145225000Y-73141335D01*
X145280147Y-73418574D01*
X145388320Y-73679727D01*
X145545363Y-73914759D01*
X145745241Y-74114637D01*
X145980273Y-74271680D01*
X146241426Y-74379853D01*
X146518665Y-74435000D01*
X146801335Y-74435000D01*
X147078574Y-74379853D01*
X147339727Y-74271680D01*
X147574759Y-74114637D01*
X147774637Y-73914759D01*
X147931680Y-73679727D01*
X148039853Y-73418574D01*
X148095000Y-73141335D01*
X148095000Y-72858665D01*
X148039853Y-72581426D01*
X147931680Y-72320273D01*
X147774637Y-72085241D01*
X147574759Y-71885363D01*
X147339727Y-71728320D01*
X147078574Y-71620147D01*
X146801335Y-71565000D01*
X146572038Y-71565000D01*
X146423011Y-71415973D01*
X146518665Y-71435000D01*
X146801335Y-71435000D01*
X147078574Y-71379853D01*
X147339727Y-71271680D01*
X147574759Y-71114637D01*
X147774637Y-70914759D01*
X147931680Y-70679727D01*
X148039853Y-70418574D01*
X148095000Y-70141335D01*
X148095000Y-69912038D01*
X149115000Y-68892039D01*
X149115000Y-68897002D01*
X149281836Y-68897002D01*
X149156036Y-69075810D01*
X149164728Y-69137337D01*
X149257725Y-69346882D01*
X149298929Y-69405331D01*
X149198115Y-69593940D01*
X149131785Y-69812600D01*
X149109388Y-70040000D01*
X149131785Y-70267400D01*
X149198115Y-70486060D01*
X149305829Y-70687579D01*
X149450788Y-70864212D01*
X149627421Y-71009171D01*
X149828940Y-71116885D01*
X150047600Y-71183215D01*
X150218021Y-71200000D01*
X150781979Y-71200000D01*
X150952400Y-71183215D01*
X151171060Y-71116885D01*
X151372579Y-71009171D01*
X151549212Y-70864212D01*
X151694171Y-70687579D01*
X151801885Y-70486060D01*
X151868215Y-70267400D01*
X151890612Y-70040000D01*
X151868215Y-69812600D01*
X151801885Y-69593940D01*
X151701071Y-69405331D01*
X151742275Y-69346882D01*
X151835272Y-69137337D01*
X151843964Y-69075810D01*
X151718163Y-68897000D01*
X150953109Y-68897000D01*
X150952400Y-68896785D01*
X150781979Y-68880000D01*
X150353000Y-68880000D01*
X150353000Y-68663072D01*
X151250000Y-68663072D01*
X151374482Y-68650812D01*
X151400235Y-68643000D01*
X151718163Y-68643000D01*
X151843964Y-68464190D01*
X151842313Y-68452500D01*
X155464762Y-68452500D01*
X155038054Y-68879209D01*
X155001713Y-68909033D01*
X154971889Y-68945374D01*
X154882684Y-69054071D01*
X154794239Y-69219542D01*
X154739773Y-69399089D01*
X154721382Y-69585811D01*
X154725991Y-69632605D01*
X154725990Y-70702671D01*
X152141013Y-73287648D01*
X152049212Y-73175788D01*
X151872579Y-73030829D01*
X151671060Y-72923115D01*
X151452400Y-72856785D01*
X151281979Y-72840000D01*
X150718021Y-72840000D01*
X150547600Y-72856785D01*
X150328940Y-72923115D01*
X150127421Y-73030829D01*
X149950788Y-73175788D01*
X149805829Y-73352421D01*
X149698115Y-73553940D01*
X149631785Y-73772600D01*
X149609388Y-74000000D01*
X149631785Y-74227400D01*
X149698115Y-74446060D01*
X149799105Y-74635000D01*
X149698115Y-74823940D01*
X149631785Y-75042600D01*
X149609388Y-75270000D01*
X149631785Y-75497400D01*
X149695093Y-75706098D01*
X149660498Y-75770820D01*
X149624188Y-75890518D01*
X149611928Y-76015000D01*
X149611928Y-77065000D01*
X149624188Y-77189482D01*
X149660498Y-77309180D01*
X149719463Y-77419494D01*
X149798815Y-77516185D01*
X149895506Y-77595537D01*
X150005820Y-77654502D01*
X150125518Y-77690812D01*
X150250000Y-77703072D01*
X151750000Y-77703072D01*
X151874482Y-77690812D01*
X151994180Y-77654502D01*
X152104494Y-77595537D01*
X152201185Y-77516185D01*
X152220623Y-77492500D01*
X156279377Y-77492500D01*
X156298815Y-77516185D01*
X156395506Y-77595537D01*
X156505820Y-77654502D01*
X156625518Y-77690812D01*
X156750000Y-77703072D01*
X158250000Y-77703072D01*
X158374482Y-77690812D01*
X158494180Y-77654502D01*
X158604494Y-77595537D01*
X158701185Y-77516185D01*
X158780537Y-77419494D01*
X158839502Y-77309180D01*
X158875812Y-77189482D01*
X158888072Y-77065000D01*
X158888072Y-76222500D01*
X160565000Y-76222500D01*
X160565000Y-76301335D01*
X160620147Y-76578574D01*
X160728320Y-76839727D01*
X160885363Y-77074759D01*
X161085241Y-77274637D01*
X161320273Y-77431680D01*
X161581426Y-77539853D01*
X161858665Y-77595000D01*
X162141335Y-77595000D01*
X162418574Y-77539853D01*
X162679727Y-77431680D01*
X162914759Y-77274637D01*
X163114637Y-77074759D01*
X163271680Y-76839727D01*
X163379853Y-76578574D01*
X163435000Y-76301335D01*
X163435000Y-76018665D01*
X163379853Y-75741426D01*
X163271680Y-75480273D01*
X163114637Y-75245241D01*
X162914759Y-75045363D01*
X162679727Y-74888320D01*
X162418574Y-74780147D01*
X162141335Y-74725000D01*
X161912038Y-74725000D01*
X161816607Y-74629569D01*
X161786778Y-74593222D01*
X161641741Y-74474194D01*
X161476269Y-74385748D01*
X161296723Y-74331283D01*
X161156785Y-74317500D01*
X161110000Y-74312892D01*
X161063215Y-74317500D01*
X158840883Y-74317500D01*
X158868215Y-74227400D01*
X158890612Y-74000000D01*
X158868215Y-73772600D01*
X158801885Y-73553940D01*
X158694171Y-73352421D01*
X158549212Y-73175788D01*
X158372579Y-73030829D01*
X158171060Y-72923115D01*
X157952500Y-72856815D01*
X157952500Y-70943582D01*
X158049212Y-70864212D01*
X158194171Y-70687579D01*
X158301885Y-70486060D01*
X158368215Y-70267400D01*
X158390612Y-70040000D01*
X158368215Y-69812600D01*
X158301885Y-69593940D01*
X158200895Y-69405000D01*
X158301885Y-69216060D01*
X158368215Y-68997400D01*
X158390612Y-68770000D01*
X158368215Y-68542600D01*
X158304907Y-68333902D01*
X158339502Y-68269180D01*
X158375812Y-68149482D01*
X158388072Y-68025000D01*
X158388072Y-66975000D01*
X158375812Y-66850518D01*
X158339502Y-66730820D01*
X158280537Y-66620506D01*
X158201185Y-66523815D01*
X158104494Y-66444463D01*
X157994180Y-66385498D01*
X157874482Y-66349188D01*
X157750000Y-66336928D01*
X157380999Y-66336928D01*
X157380999Y-60513313D01*
X157523088Y-60572168D01*
X157838967Y-60635000D01*
X158161033Y-60635000D01*
X158476912Y-60572168D01*
X158774463Y-60448918D01*
X159042252Y-60269987D01*
X159269987Y-60042252D01*
X159448918Y-59774463D01*
X159547500Y-59536466D01*
X159547501Y-64453205D01*
X159542892Y-64500000D01*
X159561283Y-64686722D01*
X159615749Y-64866269D01*
X159704194Y-65031740D01*
X159744970Y-65081426D01*
X159823223Y-65176778D01*
X159859565Y-65206603D01*
X160565000Y-65912038D01*
X160565000Y-66141335D01*
X160620147Y-66418574D01*
X160728320Y-66679727D01*
X160885363Y-66914759D01*
X161085241Y-67114637D01*
X161320273Y-67271680D01*
X161581426Y-67379853D01*
X161858665Y-67435000D01*
X162141335Y-67435000D01*
X162418574Y-67379853D01*
X162679727Y-67271680D01*
X162914759Y-67114637D01*
X163114637Y-66914759D01*
X163271680Y-66679727D01*
X163379853Y-66418574D01*
X163435000Y-66141335D01*
X163435000Y-65858665D01*
X163379853Y-65581426D01*
X163271680Y-65320273D01*
X163114637Y-65085241D01*
X162914759Y-64885363D01*
X162679727Y-64728320D01*
X162418574Y-64620147D01*
X162141335Y-64565000D01*
X161912038Y-64565000D01*
X161452500Y-64105462D01*
X161452500Y-59536466D01*
X161551082Y-59774463D01*
X161730013Y-60042252D01*
X161957748Y-60269987D01*
X162225537Y-60448918D01*
X162523088Y-60572168D01*
X162838967Y-60635000D01*
X163161033Y-60635000D01*
X163476912Y-60572168D01*
X163774463Y-60448918D01*
X163840000Y-60405127D01*
X163840001Y-80467711D01*
X163830420Y-80565424D01*
X163811420Y-80628357D01*
X163780554Y-80686406D01*
X163739011Y-80737343D01*
X163688356Y-80779248D01*
X163630529Y-80810515D01*
X163567728Y-80829956D01*
X163472165Y-80840000D01*
X159349396Y-80840000D01*
X159524637Y-80664759D01*
X159681680Y-80429727D01*
X159789853Y-80168574D01*
X159845000Y-79891335D01*
X159845000Y-79608665D01*
X159789853Y-79331426D01*
X159681680Y-79070273D01*
X159524637Y-78835241D01*
X159324759Y-78635363D01*
X159089727Y-78478320D01*
X158828574Y-78370147D01*
X158551335Y-78315000D01*
X158268665Y-78315000D01*
X157991426Y-78370147D01*
X157730273Y-78478320D01*
X157495241Y-78635363D01*
X157295363Y-78835241D01*
X157138320Y-79070273D01*
X157030147Y-79331426D01*
X156975000Y-79608665D01*
X156975000Y-79891335D01*
X157030147Y-80168574D01*
X157138320Y-80429727D01*
X157295363Y-80664759D01*
X157470604Y-80840000D01*
X149173926Y-80840000D01*
X149313519Y-80713414D01*
X149481037Y-80487420D01*
X149601246Y-80233087D01*
X149641904Y-80099039D01*
X149519915Y-79877000D01*
X148377000Y-79877000D01*
X148377000Y-79897000D01*
X148123000Y-79897000D01*
X148123000Y-79877000D01*
X146980085Y-79877000D01*
X146858096Y-80099039D01*
X146898754Y-80233087D01*
X147018963Y-80487420D01*
X147186481Y-80713414D01*
X147326074Y-80840000D01*
X144903402Y-80840000D01*
X145046920Y-80771641D01*
X145280269Y-80597588D01*
X145475178Y-80381355D01*
X145624157Y-80131252D01*
X145721481Y-79856891D01*
X145600814Y-79627000D01*
X144407000Y-79627000D01*
X144407000Y-79647000D01*
X144153000Y-79647000D01*
X144153000Y-79627000D01*
X144133000Y-79627000D01*
X144133000Y-79400961D01*
X146858096Y-79400961D01*
X146980085Y-79623000D01*
X148123000Y-79623000D01*
X148123000Y-78479376D01*
X148377000Y-78479376D01*
X148377000Y-79623000D01*
X149519915Y-79623000D01*
X149641904Y-79400961D01*
X149601246Y-79266913D01*
X149481037Y-79012580D01*
X149313519Y-78786586D01*
X149105131Y-78597615D01*
X148863881Y-78452930D01*
X148599040Y-78358091D01*
X148377000Y-78479376D01*
X148123000Y-78479376D01*
X147900960Y-78358091D01*
X147636119Y-78452930D01*
X147394869Y-78597615D01*
X147186481Y-78786586D01*
X147018963Y-79012580D01*
X146898754Y-79266913D01*
X146858096Y-79400961D01*
X144133000Y-79400961D01*
X144133000Y-79373000D01*
X144153000Y-79373000D01*
X144153000Y-78179845D01*
X144407000Y-78179845D01*
X144407000Y-79373000D01*
X145600814Y-79373000D01*
X145721481Y-79143109D01*
X145624157Y-78868748D01*
X145475178Y-78618645D01*
X145280269Y-78402412D01*
X145046920Y-78228359D01*
X144784099Y-78103175D01*
X144636890Y-78058524D01*
X144407000Y-78179845D01*
X144153000Y-78179845D01*
X143923110Y-78058524D01*
X143775901Y-78103175D01*
X143513080Y-78228359D01*
X143279731Y-78402412D01*
X143084822Y-78618645D01*
X143015195Y-78735534D01*
X142893475Y-78553368D01*
X142692500Y-78352393D01*
X142692500Y-69654538D01*
X145412039Y-66935000D01*
X145641335Y-66935000D01*
X145918574Y-66879853D01*
X146179727Y-66771680D01*
X146414759Y-66614637D01*
X146614637Y-66414759D01*
X146771680Y-66179727D01*
X146879853Y-65918574D01*
X146935000Y-65641335D01*
X146935000Y-65358665D01*
X146879853Y-65081426D01*
X146771680Y-64820273D01*
X146614637Y-64585241D01*
X146414759Y-64385363D01*
X146179727Y-64228320D01*
X145918574Y-64120147D01*
X145641335Y-64065000D01*
X145358665Y-64065000D01*
X145081426Y-64120147D01*
X144820273Y-64228320D01*
X144585241Y-64385363D01*
X144385363Y-64585241D01*
X144228320Y-64820273D01*
X144120147Y-65081426D01*
X144065000Y-65358665D01*
X144065000Y-65587961D01*
X141099569Y-68553393D01*
X141063222Y-68583222D01*
X140944194Y-68728259D01*
X140855748Y-68893732D01*
X140821298Y-69007298D01*
X140801283Y-69073278D01*
X140782892Y-69260000D01*
X140787500Y-69306785D01*
X140787501Y-78352392D01*
X140586525Y-78553368D01*
X140470000Y-78727760D01*
X140353475Y-78553368D01*
X140146632Y-78346525D01*
X139903411Y-78184010D01*
X139633158Y-78072068D01*
X139346260Y-78015000D01*
X139053740Y-78015000D01*
X138766842Y-78072068D01*
X138496589Y-78184010D01*
X138253368Y-78346525D01*
X138046525Y-78553368D01*
X137930000Y-78727760D01*
X137813475Y-78553368D01*
X137606632Y-78346525D01*
X137363411Y-78184010D01*
X137093158Y-78072068D01*
X136806260Y-78015000D01*
X136513740Y-78015000D01*
X136226842Y-78072068D01*
X135956589Y-78184010D01*
X135713368Y-78346525D01*
X135506525Y-78553368D01*
X135390000Y-78727760D01*
X135273475Y-78553368D01*
X135072500Y-78352393D01*
X135072500Y-75858665D01*
X137225000Y-75858665D01*
X137225000Y-76141335D01*
X137280147Y-76418574D01*
X137388320Y-76679727D01*
X137545363Y-76914759D01*
X137745241Y-77114637D01*
X137980273Y-77271680D01*
X138241426Y-77379853D01*
X138518665Y-77435000D01*
X138801335Y-77435000D01*
X139078574Y-77379853D01*
X139339727Y-77271680D01*
X139574759Y-77114637D01*
X139774637Y-76914759D01*
X139931680Y-76679727D01*
X140039853Y-76418574D01*
X140095000Y-76141335D01*
X140095000Y-75858665D01*
X140039853Y-75581426D01*
X139931680Y-75320273D01*
X139774637Y-75085241D01*
X139574759Y-74885363D01*
X139339727Y-74728320D01*
X139078574Y-74620147D01*
X138801335Y-74565000D01*
X138518665Y-74565000D01*
X138241426Y-74620147D01*
X137980273Y-74728320D01*
X137745241Y-74885363D01*
X137545363Y-75085241D01*
X137388320Y-75320273D01*
X137280147Y-75581426D01*
X137225000Y-75858665D01*
X135072500Y-75858665D01*
X135072500Y-73179040D01*
X135120147Y-73418574D01*
X135228320Y-73679727D01*
X135385363Y-73914759D01*
X135585241Y-74114637D01*
X135820273Y-74271680D01*
X136081426Y-74379853D01*
X136358665Y-74435000D01*
X136641335Y-74435000D01*
X136918574Y-74379853D01*
X137179727Y-74271680D01*
X137414759Y-74114637D01*
X137614637Y-73914759D01*
X137771680Y-73679727D01*
X137879853Y-73418574D01*
X137935000Y-73141335D01*
X137935000Y-72858665D01*
X137879853Y-72581426D01*
X137771680Y-72320273D01*
X137614637Y-72085241D01*
X137414759Y-71885363D01*
X137179727Y-71728320D01*
X136918574Y-71620147D01*
X136641335Y-71565000D01*
X136358665Y-71565000D01*
X136081426Y-71620147D01*
X135820273Y-71728320D01*
X135585241Y-71885363D01*
X135385363Y-72085241D01*
X135228320Y-72320273D01*
X135120147Y-72581426D01*
X135072500Y-72820960D01*
X135072500Y-70179040D01*
X135120147Y-70418574D01*
X135228320Y-70679727D01*
X135385363Y-70914759D01*
X135585241Y-71114637D01*
X135820273Y-71271680D01*
X136081426Y-71379853D01*
X136358665Y-71435000D01*
X136641335Y-71435000D01*
X136918574Y-71379853D01*
X137179727Y-71271680D01*
X137414759Y-71114637D01*
X137614637Y-70914759D01*
X137771680Y-70679727D01*
X137879853Y-70418574D01*
X137935000Y-70141335D01*
X137935000Y-69858665D01*
X137879853Y-69581426D01*
X137771680Y-69320273D01*
X137614637Y-69085241D01*
X137414759Y-68885363D01*
X137179727Y-68728320D01*
X136918574Y-68620147D01*
X136641335Y-68565000D01*
X136358665Y-68565000D01*
X136081426Y-68620147D01*
X135820273Y-68728320D01*
X135585241Y-68885363D01*
X135385363Y-69085241D01*
X135228320Y-69320273D01*
X135120147Y-69581426D01*
X135072500Y-69820960D01*
X135072500Y-67385836D01*
X135681928Y-66776408D01*
X135681928Y-67420000D01*
X135694188Y-67544482D01*
X135730498Y-67664180D01*
X135789463Y-67774494D01*
X135868815Y-67871185D01*
X135965506Y-67950537D01*
X136075820Y-68009502D01*
X136195518Y-68045812D01*
X136320000Y-68058072D01*
X137920000Y-68058072D01*
X138044482Y-68045812D01*
X138164180Y-68009502D01*
X138274494Y-67950537D01*
X138371185Y-67871185D01*
X138450537Y-67774494D01*
X138509502Y-67664180D01*
X138545812Y-67544482D01*
X138558072Y-67420000D01*
X138558072Y-65820000D01*
X138545812Y-65695518D01*
X138509502Y-65575820D01*
X138450537Y-65465506D01*
X138371185Y-65368815D01*
X138358818Y-65358665D01*
X140065000Y-65358665D01*
X140065000Y-65641335D01*
X140120147Y-65918574D01*
X140228320Y-66179727D01*
X140385363Y-66414759D01*
X140585241Y-66614637D01*
X140820273Y-66771680D01*
X141081426Y-66879853D01*
X141358665Y-66935000D01*
X141641335Y-66935000D01*
X141918574Y-66879853D01*
X142179727Y-66771680D01*
X142414759Y-66614637D01*
X142614637Y-66414759D01*
X142771680Y-66179727D01*
X142879853Y-65918574D01*
X142935000Y-65641335D01*
X142935000Y-65358665D01*
X142879853Y-65081426D01*
X142771680Y-64820273D01*
X142614637Y-64585241D01*
X142414759Y-64385363D01*
X142179727Y-64228320D01*
X141918574Y-64120147D01*
X141641335Y-64065000D01*
X141358665Y-64065000D01*
X141081426Y-64120147D01*
X140820273Y-64228320D01*
X140585241Y-64385363D01*
X140385363Y-64585241D01*
X140228320Y-64820273D01*
X140120147Y-65081426D01*
X140065000Y-65358665D01*
X138358818Y-65358665D01*
X138274494Y-65289463D01*
X138164180Y-65230498D01*
X138044482Y-65194188D01*
X138036039Y-65193357D01*
X138234637Y-64994759D01*
X138247077Y-64976141D01*
X138286269Y-64964252D01*
X138451741Y-64875806D01*
X138596778Y-64756778D01*
X138626607Y-64720431D01*
X140127038Y-63220000D01*
X148461928Y-63220000D01*
X148465000Y-63834250D01*
X148623750Y-63993000D01*
X149873000Y-63993000D01*
X149873000Y-62743750D01*
X150127000Y-62743750D01*
X150127000Y-63993000D01*
X151376250Y-63993000D01*
X151535000Y-63834250D01*
X151538072Y-63220000D01*
X151525812Y-63095518D01*
X151489502Y-62975820D01*
X151430537Y-62865506D01*
X151351185Y-62768815D01*
X151254494Y-62689463D01*
X151144180Y-62630498D01*
X151024482Y-62594188D01*
X150900000Y-62581928D01*
X150285750Y-62585000D01*
X150127000Y-62743750D01*
X149873000Y-62743750D01*
X149714250Y-62585000D01*
X149100000Y-62581928D01*
X148975518Y-62594188D01*
X148855820Y-62630498D01*
X148745506Y-62689463D01*
X148648815Y-62768815D01*
X148569463Y-62865506D01*
X148510498Y-62975820D01*
X148474188Y-63095518D01*
X148461928Y-63220000D01*
X140127038Y-63220000D01*
X141412038Y-61935000D01*
X141641335Y-61935000D01*
X141918574Y-61879853D01*
X142179727Y-61771680D01*
X142414759Y-61614637D01*
X142614637Y-61414759D01*
X142771680Y-61179727D01*
X142879853Y-60918574D01*
X142935000Y-60641335D01*
X142935000Y-60358665D01*
X142879853Y-60081426D01*
X142771680Y-59820273D01*
X142614637Y-59585241D01*
X142414759Y-59385363D01*
X142179727Y-59228320D01*
X141918574Y-59120147D01*
X141641335Y-59065000D01*
X141358665Y-59065000D01*
X141081426Y-59120147D01*
X140820273Y-59228320D01*
X140585241Y-59385363D01*
X140385363Y-59585241D01*
X140228320Y-59820273D01*
X140120147Y-60081426D01*
X140065000Y-60358665D01*
X140065000Y-60587962D01*
X138280837Y-62372125D01*
X138351037Y-62277420D01*
X138471246Y-62023087D01*
X138511904Y-61889039D01*
X138389915Y-61667000D01*
X137247000Y-61667000D01*
X137247000Y-61687000D01*
X136993000Y-61687000D01*
X136993000Y-61667000D01*
X136973000Y-61667000D01*
X136973000Y-61413000D01*
X136993000Y-61413000D01*
X136993000Y-61393000D01*
X137247000Y-61393000D01*
X137247000Y-61413000D01*
X138389915Y-61413000D01*
X138511904Y-61190961D01*
X138471246Y-61056913D01*
X138351037Y-60802580D01*
X138183519Y-60576586D01*
X137975131Y-60387615D01*
X137789135Y-60276067D01*
X137799727Y-60271680D01*
X138034759Y-60114637D01*
X138234637Y-59914759D01*
X138391680Y-59679727D01*
X138499853Y-59418574D01*
X138555000Y-59141335D01*
X138555000Y-58858665D01*
X138499853Y-58581426D01*
X138391680Y-58320273D01*
X138234637Y-58085241D01*
X138034759Y-57885363D01*
X137799727Y-57728320D01*
X137538574Y-57620147D01*
X137261335Y-57565000D01*
X136978665Y-57565000D01*
X136701426Y-57620147D01*
X136440273Y-57728320D01*
X136205241Y-57885363D01*
X136005363Y-58085241D01*
X135848320Y-58320273D01*
X135740147Y-58581426D01*
X135685000Y-58858665D01*
X135685000Y-59087962D01*
X135108064Y-59664898D01*
X135071722Y-59694723D01*
X135041898Y-59731064D01*
X134952693Y-59839761D01*
X134864248Y-60005232D01*
X134809782Y-60184779D01*
X134791391Y-60371501D01*
X134796000Y-60418295D01*
X134795999Y-61234211D01*
X132590555Y-63439655D01*
X132554213Y-63469480D01*
X132524389Y-63505821D01*
X132435184Y-63614518D01*
X132346739Y-63779989D01*
X132292273Y-63959536D01*
X132273882Y-64146258D01*
X132278491Y-64193053D01*
X132278490Y-77454472D01*
X131717962Y-78015000D01*
X131433740Y-78015000D01*
X131146842Y-78072068D01*
X130876589Y-78184010D01*
X130633368Y-78346525D01*
X130426525Y-78553368D01*
X130304805Y-78735534D01*
X130235178Y-78618645D01*
X130040269Y-78402412D01*
X129806920Y-78228359D01*
X129544099Y-78103175D01*
X129396890Y-78058524D01*
X129167000Y-78179845D01*
X129167000Y-79373000D01*
X129187000Y-79373000D01*
X129187000Y-79627000D01*
X129167000Y-79627000D01*
X129167000Y-79647000D01*
X128913000Y-79647000D01*
X128913000Y-79627000D01*
X128893000Y-79627000D01*
X128893000Y-79373000D01*
X128913000Y-79373000D01*
X128913000Y-78179845D01*
X128683110Y-78058524D01*
X128535901Y-78103175D01*
X128273080Y-78228359D01*
X128039731Y-78402412D01*
X127963966Y-78486466D01*
X127939502Y-78405820D01*
X127880537Y-78295506D01*
X127801185Y-78198815D01*
X127704494Y-78119463D01*
X127594180Y-78060498D01*
X127474482Y-78024188D01*
X127452500Y-78022023D01*
X127452500Y-76981896D01*
X127585241Y-77114637D01*
X127820273Y-77271680D01*
X128081426Y-77379853D01*
X128358665Y-77435000D01*
X128641335Y-77435000D01*
X128918574Y-77379853D01*
X129179727Y-77271680D01*
X129414759Y-77114637D01*
X129614637Y-76914759D01*
X129771680Y-76679727D01*
X129879853Y-76418574D01*
X129935000Y-76141335D01*
X129935000Y-75858665D01*
X129879853Y-75581426D01*
X129771680Y-75320273D01*
X129614637Y-75085241D01*
X129414759Y-74885363D01*
X129179727Y-74728320D01*
X128918574Y-74620147D01*
X128641335Y-74565000D01*
X128358665Y-74565000D01*
X128081426Y-74620147D01*
X127820273Y-74728320D01*
X127585241Y-74885363D01*
X127435000Y-75035604D01*
X127435000Y-74912038D01*
X130140431Y-72206607D01*
X130176778Y-72176778D01*
X130295806Y-72031741D01*
X130384252Y-71866269D01*
X130438717Y-71686723D01*
X130452500Y-71546785D01*
X130452500Y-71546784D01*
X130457108Y-71500001D01*
X130452500Y-71453216D01*
X130452500Y-67696896D01*
X130614637Y-67534759D01*
X130771680Y-67299727D01*
X130879853Y-67038574D01*
X130935000Y-66761335D01*
X130935000Y-66532038D01*
X131511932Y-65955106D01*
X131548279Y-65925277D01*
X131667307Y-65780240D01*
X131755753Y-65614768D01*
X131810218Y-65435222D01*
X131824001Y-65295284D01*
X131824001Y-65295283D01*
X131828609Y-65248500D01*
X131824001Y-65201715D01*
X131824001Y-59023037D01*
X135926040Y-54920999D01*
X137846598Y-54920999D01*
X137780147Y-55081426D01*
G37*
%TD.AperFunction*%
D22*
X128320273Y-54228320D02*
X128085241Y-54385363D01*
X127885363Y-54585241D01*
X127728320Y-54820273D01*
X127620147Y-55081426D01*
X127565000Y-55358665D01*
X127565000Y-55641335D01*
X127620147Y-55918574D01*
X127728320Y-56179727D01*
X127885363Y-56414759D01*
X128085241Y-56614637D01*
X128320273Y-56771680D01*
X128581426Y-56879853D01*
X128858665Y-56935000D01*
X129141335Y-56935000D01*
X129418574Y-56879853D01*
X129679727Y-56771680D01*
X129914759Y-56614637D01*
X130114637Y-56414759D01*
X130271680Y-56179727D01*
X130379853Y-55918574D01*
X130435000Y-55641335D01*
X130435000Y-55358665D01*
X130379853Y-55081426D01*
X130271680Y-54820273D01*
X130114637Y-54585241D01*
X129914759Y-54385363D01*
X129679727Y-54228320D01*
X129514788Y-54160000D01*
X133992961Y-54160000D01*
X130324011Y-57828951D01*
X130113881Y-57702930D01*
X129849040Y-57608091D01*
X129627000Y-57729376D01*
X129627000Y-58873000D01*
X129647000Y-58873000D01*
X129647000Y-59127000D01*
X129627000Y-59127000D01*
X129627000Y-59147000D01*
X129373000Y-59147000D01*
X129373000Y-59127000D01*
X128230085Y-59127000D01*
X128108096Y-59349039D01*
X128148754Y-59483087D01*
X128268963Y-59737420D01*
X128436481Y-59963414D01*
X128644869Y-60152385D01*
X128830865Y-60263933D01*
X128820273Y-60268320D01*
X128585241Y-60425363D01*
X128385363Y-60625241D01*
X128228320Y-60860273D01*
X128120147Y-61121426D01*
X128065000Y-61398665D01*
X128065000Y-61681335D01*
X128120147Y-61958574D01*
X128228320Y-62219727D01*
X128385363Y-62454759D01*
X128585241Y-62654637D01*
X128817759Y-62810000D01*
X128585241Y-62965363D01*
X128385363Y-63165241D01*
X128228320Y-63400273D01*
X128120147Y-63661426D01*
X128065000Y-63938665D01*
X128065000Y-64221335D01*
X128120147Y-64498574D01*
X128228320Y-64759727D01*
X128385363Y-64994759D01*
X128585241Y-65194637D01*
X128817759Y-65350000D01*
X128585241Y-65505363D01*
X128385363Y-65705241D01*
X128228320Y-65940273D01*
X128120147Y-66201426D01*
X128065000Y-66478665D01*
X128065000Y-66761335D01*
X128120147Y-67038574D01*
X128228320Y-67299727D01*
X128385363Y-67534759D01*
X128547501Y-67696897D01*
X128547500Y-71105462D01*
X126087962Y-73565000D01*
X125858665Y-73565000D01*
X125581426Y-73620147D01*
X125320273Y-73728320D01*
X125085241Y-73885363D01*
X124885363Y-74085241D01*
X124728320Y-74320273D01*
X124660000Y-74485212D01*
X124660000Y-70992702D01*
X125186903Y-70992702D01*
X125258486Y-71236671D01*
X125513996Y-71357571D01*
X125788184Y-71426300D01*
X126070512Y-71440217D01*
X126350130Y-71398787D01*
X126616292Y-71303603D01*
X126741514Y-71236671D01*
X126813097Y-70992702D01*
X126000000Y-70179605D01*
X125186903Y-70992702D01*
X124660000Y-70992702D01*
X124660000Y-70514515D01*
X124696397Y-70616292D01*
X124763329Y-70741514D01*
X125007298Y-70813097D01*
X125820395Y-70000000D01*
X126179605Y-70000000D01*
X126992702Y-70813097D01*
X127236671Y-70741514D01*
X127357571Y-70486004D01*
X127426300Y-70211816D01*
X127440217Y-69929488D01*
X127398787Y-69649870D01*
X127303603Y-69383708D01*
X127236671Y-69258486D01*
X126992702Y-69186903D01*
X126179605Y-70000000D01*
X125820395Y-70000000D01*
X125007298Y-69186903D01*
X124763329Y-69258486D01*
X124660000Y-69476861D01*
X124660000Y-68014788D01*
X124728320Y-68179727D01*
X124885363Y-68414759D01*
X125085241Y-68614637D01*
X125285869Y-68748692D01*
X125258486Y-68763329D01*
X125186903Y-69007298D01*
X126000000Y-69820395D01*
X126813097Y-69007298D01*
X126741514Y-68763329D01*
X126712659Y-68749676D01*
X126914759Y-68614637D01*
X127114637Y-68414759D01*
X127271680Y-68179727D01*
X127379853Y-67918574D01*
X127435000Y-67641335D01*
X127435000Y-67358665D01*
X127379853Y-67081426D01*
X127271680Y-66820273D01*
X127114637Y-66585241D01*
X126914759Y-66385363D01*
X126679727Y-66228320D01*
X126418574Y-66120147D01*
X126141335Y-66065000D01*
X125858665Y-66065000D01*
X125581426Y-66120147D01*
X125320273Y-66228320D01*
X125085241Y-66385363D01*
X124885363Y-66585241D01*
X124728320Y-66820273D01*
X124660000Y-66985212D01*
X124660000Y-63014788D01*
X124728320Y-63179727D01*
X124885363Y-63414759D01*
X125085241Y-63614637D01*
X125320273Y-63771680D01*
X125581426Y-63879853D01*
X125858665Y-63935000D01*
X126141335Y-63935000D01*
X126418574Y-63879853D01*
X126679727Y-63771680D01*
X126914759Y-63614637D01*
X127114637Y-63414759D01*
X127271680Y-63179727D01*
X127379853Y-62918574D01*
X127435000Y-62641335D01*
X127435000Y-62358665D01*
X127379853Y-62081426D01*
X127271680Y-61820273D01*
X127114637Y-61585241D01*
X126914759Y-61385363D01*
X126714131Y-61251308D01*
X126741514Y-61236671D01*
X126813097Y-60992702D01*
X126000000Y-60179605D01*
X125186903Y-60992702D01*
X125258486Y-61236671D01*
X125287341Y-61250324D01*
X125085241Y-61385363D01*
X124885363Y-61585241D01*
X124728320Y-61820273D01*
X124660000Y-61985212D01*
X124660000Y-60514515D01*
X124696397Y-60616292D01*
X124763329Y-60741514D01*
X125007298Y-60813097D01*
X125820395Y-60000000D01*
X126179605Y-60000000D01*
X126992702Y-60813097D01*
X127236671Y-60741514D01*
X127357571Y-60486004D01*
X127426300Y-60211816D01*
X127440217Y-59929488D01*
X127398787Y-59649870D01*
X127303603Y-59383708D01*
X127236671Y-59258486D01*
X126992702Y-59186903D01*
X126179605Y-60000000D01*
X125820395Y-60000000D01*
X125007298Y-59186903D01*
X124763329Y-59258486D01*
X124660000Y-59476861D01*
X124660000Y-59007298D01*
X125186903Y-59007298D01*
X126000000Y-59820395D01*
X126813097Y-59007298D01*
X126741514Y-58763329D01*
X126504036Y-58650961D01*
X128108096Y-58650961D01*
X128230085Y-58873000D01*
X129373000Y-58873000D01*
X129373000Y-57729376D01*
X129150960Y-57608091D01*
X128886119Y-57702930D01*
X128644869Y-57847615D01*
X128436481Y-58036586D01*
X128268963Y-58262580D01*
X128148754Y-58516913D01*
X128108096Y-58650961D01*
X126504036Y-58650961D01*
X126486004Y-58642429D01*
X126211816Y-58573700D01*
X125929488Y-58559783D01*
X125649870Y-58601213D01*
X125383708Y-58696397D01*
X125258486Y-58763329D01*
X125186903Y-59007298D01*
X124660000Y-59007298D01*
X124660000Y-55514788D01*
X124728320Y-55679727D01*
X124885363Y-55914759D01*
X125085241Y-56114637D01*
X125320273Y-56271680D01*
X125581426Y-56379853D01*
X125858665Y-56435000D01*
X126141335Y-56435000D01*
X126418574Y-56379853D01*
X126679727Y-56271680D01*
X126914759Y-56114637D01*
X127114637Y-55914759D01*
X127271680Y-55679727D01*
X127379853Y-55418574D01*
X127435000Y-55141335D01*
X127435000Y-54858665D01*
X127379853Y-54581426D01*
X127271680Y-54320273D01*
X127164589Y-54160000D01*
X128485212Y-54160000D01*
X128320273Y-54228320D01*
%TA.AperFunction,Conductor*%
D23*
G36*
X128320273Y-54228320D02*
G01*
X128085241Y-54385363D01*
X127885363Y-54585241D01*
X127728320Y-54820273D01*
X127620147Y-55081426D01*
X127565000Y-55358665D01*
X127565000Y-55641335D01*
X127620147Y-55918574D01*
X127728320Y-56179727D01*
X127885363Y-56414759D01*
X128085241Y-56614637D01*
X128320273Y-56771680D01*
X128581426Y-56879853D01*
X128858665Y-56935000D01*
X129141335Y-56935000D01*
X129418574Y-56879853D01*
X129679727Y-56771680D01*
X129914759Y-56614637D01*
X130114637Y-56414759D01*
X130271680Y-56179727D01*
X130379853Y-55918574D01*
X130435000Y-55641335D01*
X130435000Y-55358665D01*
X130379853Y-55081426D01*
X130271680Y-54820273D01*
X130114637Y-54585241D01*
X129914759Y-54385363D01*
X129679727Y-54228320D01*
X129514788Y-54160000D01*
X133992961Y-54160000D01*
X130324011Y-57828951D01*
X130113881Y-57702930D01*
X129849040Y-57608091D01*
X129627000Y-57729376D01*
X129627000Y-58873000D01*
X129647000Y-58873000D01*
X129647000Y-59127000D01*
X129627000Y-59127000D01*
X129627000Y-59147000D01*
X129373000Y-59147000D01*
X129373000Y-59127000D01*
X128230085Y-59127000D01*
X128108096Y-59349039D01*
X128148754Y-59483087D01*
X128268963Y-59737420D01*
X128436481Y-59963414D01*
X128644869Y-60152385D01*
X128830865Y-60263933D01*
X128820273Y-60268320D01*
X128585241Y-60425363D01*
X128385363Y-60625241D01*
X128228320Y-60860273D01*
X128120147Y-61121426D01*
X128065000Y-61398665D01*
X128065000Y-61681335D01*
X128120147Y-61958574D01*
X128228320Y-62219727D01*
X128385363Y-62454759D01*
X128585241Y-62654637D01*
X128817759Y-62810000D01*
X128585241Y-62965363D01*
X128385363Y-63165241D01*
X128228320Y-63400273D01*
X128120147Y-63661426D01*
X128065000Y-63938665D01*
X128065000Y-64221335D01*
X128120147Y-64498574D01*
X128228320Y-64759727D01*
X128385363Y-64994759D01*
X128585241Y-65194637D01*
X128817759Y-65350000D01*
X128585241Y-65505363D01*
X128385363Y-65705241D01*
X128228320Y-65940273D01*
X128120147Y-66201426D01*
X128065000Y-66478665D01*
X128065000Y-66761335D01*
X128120147Y-67038574D01*
X128228320Y-67299727D01*
X128385363Y-67534759D01*
X128547501Y-67696897D01*
X128547500Y-71105462D01*
X126087962Y-73565000D01*
X125858665Y-73565000D01*
X125581426Y-73620147D01*
X125320273Y-73728320D01*
X125085241Y-73885363D01*
X124885363Y-74085241D01*
X124728320Y-74320273D01*
X124660000Y-74485212D01*
X124660000Y-70992702D01*
X125186903Y-70992702D01*
X125258486Y-71236671D01*
X125513996Y-71357571D01*
X125788184Y-71426300D01*
X126070512Y-71440217D01*
X126350130Y-71398787D01*
X126616292Y-71303603D01*
X126741514Y-71236671D01*
X126813097Y-70992702D01*
X126000000Y-70179605D01*
X125186903Y-70992702D01*
X124660000Y-70992702D01*
X124660000Y-70514515D01*
X124696397Y-70616292D01*
X124763329Y-70741514D01*
X125007298Y-70813097D01*
X125820395Y-70000000D01*
X126179605Y-70000000D01*
X126992702Y-70813097D01*
X127236671Y-70741514D01*
X127357571Y-70486004D01*
X127426300Y-70211816D01*
X127440217Y-69929488D01*
X127398787Y-69649870D01*
X127303603Y-69383708D01*
X127236671Y-69258486D01*
X126992702Y-69186903D01*
X126179605Y-70000000D01*
X125820395Y-70000000D01*
X125007298Y-69186903D01*
X124763329Y-69258486D01*
X124660000Y-69476861D01*
X124660000Y-68014788D01*
X124728320Y-68179727D01*
X124885363Y-68414759D01*
X125085241Y-68614637D01*
X125285869Y-68748692D01*
X125258486Y-68763329D01*
X125186903Y-69007298D01*
X126000000Y-69820395D01*
X126813097Y-69007298D01*
X126741514Y-68763329D01*
X126712659Y-68749676D01*
X126914759Y-68614637D01*
X127114637Y-68414759D01*
X127271680Y-68179727D01*
X127379853Y-67918574D01*
X127435000Y-67641335D01*
X127435000Y-67358665D01*
X127379853Y-67081426D01*
X127271680Y-66820273D01*
X127114637Y-66585241D01*
X126914759Y-66385363D01*
X126679727Y-66228320D01*
X126418574Y-66120147D01*
X126141335Y-66065000D01*
X125858665Y-66065000D01*
X125581426Y-66120147D01*
X125320273Y-66228320D01*
X125085241Y-66385363D01*
X124885363Y-66585241D01*
X124728320Y-66820273D01*
X124660000Y-66985212D01*
X124660000Y-63014788D01*
X124728320Y-63179727D01*
X124885363Y-63414759D01*
X125085241Y-63614637D01*
X125320273Y-63771680D01*
X125581426Y-63879853D01*
X125858665Y-63935000D01*
X126141335Y-63935000D01*
X126418574Y-63879853D01*
X126679727Y-63771680D01*
X126914759Y-63614637D01*
X127114637Y-63414759D01*
X127271680Y-63179727D01*
X127379853Y-62918574D01*
X127435000Y-62641335D01*
X127435000Y-62358665D01*
X127379853Y-62081426D01*
X127271680Y-61820273D01*
X127114637Y-61585241D01*
X126914759Y-61385363D01*
X126714131Y-61251308D01*
X126741514Y-61236671D01*
X126813097Y-60992702D01*
X126000000Y-60179605D01*
X125186903Y-60992702D01*
X125258486Y-61236671D01*
X125287341Y-61250324D01*
X125085241Y-61385363D01*
X124885363Y-61585241D01*
X124728320Y-61820273D01*
X124660000Y-61985212D01*
X124660000Y-60514515D01*
X124696397Y-60616292D01*
X124763329Y-60741514D01*
X125007298Y-60813097D01*
X125820395Y-60000000D01*
X126179605Y-60000000D01*
X126992702Y-60813097D01*
X127236671Y-60741514D01*
X127357571Y-60486004D01*
X127426300Y-60211816D01*
X127440217Y-59929488D01*
X127398787Y-59649870D01*
X127303603Y-59383708D01*
X127236671Y-59258486D01*
X126992702Y-59186903D01*
X126179605Y-60000000D01*
X125820395Y-60000000D01*
X125007298Y-59186903D01*
X124763329Y-59258486D01*
X124660000Y-59476861D01*
X124660000Y-59007298D01*
X125186903Y-59007298D01*
X126000000Y-59820395D01*
X126813097Y-59007298D01*
X126741514Y-58763329D01*
X126504036Y-58650961D01*
X128108096Y-58650961D01*
X128230085Y-58873000D01*
X129373000Y-58873000D01*
X129373000Y-57729376D01*
X129150960Y-57608091D01*
X128886119Y-57702930D01*
X128644869Y-57847615D01*
X128436481Y-58036586D01*
X128268963Y-58262580D01*
X128148754Y-58516913D01*
X128108096Y-58650961D01*
X126504036Y-58650961D01*
X126486004Y-58642429D01*
X126211816Y-58573700D01*
X125929488Y-58559783D01*
X125649870Y-58601213D01*
X125383708Y-58696397D01*
X125258486Y-58763329D01*
X125186903Y-59007298D01*
X124660000Y-59007298D01*
X124660000Y-55514788D01*
X124728320Y-55679727D01*
X124885363Y-55914759D01*
X125085241Y-56114637D01*
X125320273Y-56271680D01*
X125581426Y-56379853D01*
X125858665Y-56435000D01*
X126141335Y-56435000D01*
X126418574Y-56379853D01*
X126679727Y-56271680D01*
X126914759Y-56114637D01*
X127114637Y-55914759D01*
X127271680Y-55679727D01*
X127379853Y-55418574D01*
X127435000Y-55141335D01*
X127435000Y-54858665D01*
X127379853Y-54581426D01*
X127271680Y-54320273D01*
X127164589Y-54160000D01*
X128485212Y-54160000D01*
X128320273Y-54228320D01*
G37*
%TD.AperFunction*%
%TD*%
M02*
