%TF.GenerationSoftware,KiCad,Pcbnew,(5.1.8-0-10_14)*%
%TF.CreationDate,2021-01-31T16:02:45+00:00*%
%TF.ProjectId,cgs-power-distrib,6367732d-706f-4776-9572-2d6469737472,v01*%
%TF.SameCoordinates,Original*%
%TF.FileFunction,Legend,Top*%
%TF.FilePolarity,Positive*%
%FSLAX46Y46*%
G04 Gerber Fmt 4.6, Leading zero omitted, Abs format (unit mm)*
G04 Created by KiCad (PCBNEW (5.1.8-0-10_14)) date 2021-01-31 16:02:45*
%MOMM*%
%LPD*%
G01*
G04 APERTURE LIST*
%ADD10C,0.150000*%
%ADD11C,0.120000*%
%ADD12C,0.203200*%
G04 APERTURE END LIST*
D10*
X110021714Y-90090476D02*
X110688380Y-89852380D01*
X110021714Y-89614285D01*
X109688380Y-89042857D02*
X109688380Y-88947619D01*
X109736000Y-88852380D01*
X109783619Y-88804761D01*
X109878857Y-88757142D01*
X110069333Y-88709523D01*
X110307428Y-88709523D01*
X110497904Y-88757142D01*
X110593142Y-88804761D01*
X110640761Y-88852380D01*
X110688380Y-88947619D01*
X110688380Y-89042857D01*
X110640761Y-89138095D01*
X110593142Y-89185714D01*
X110497904Y-89233333D01*
X110307428Y-89280952D01*
X110069333Y-89280952D01*
X109878857Y-89233333D01*
X109783619Y-89185714D01*
X109736000Y-89138095D01*
X109688380Y-89042857D01*
X110688380Y-87757142D02*
X110688380Y-88328571D01*
X110688380Y-88042857D02*
X109688380Y-88042857D01*
X109831238Y-88138095D01*
X109926476Y-88233333D01*
X109974095Y-88328571D01*
X106720142Y-92042857D02*
X106767761Y-92090476D01*
X106815380Y-92233333D01*
X106815380Y-92328571D01*
X106767761Y-92471428D01*
X106672523Y-92566666D01*
X106577285Y-92614285D01*
X106386809Y-92661904D01*
X106243952Y-92661904D01*
X106053476Y-92614285D01*
X105958238Y-92566666D01*
X105863000Y-92471428D01*
X105815380Y-92328571D01*
X105815380Y-92233333D01*
X105863000Y-92090476D01*
X105910619Y-92042857D01*
X105863000Y-91090476D02*
X105815380Y-91185714D01*
X105815380Y-91328571D01*
X105863000Y-91471428D01*
X105958238Y-91566666D01*
X106053476Y-91614285D01*
X106243952Y-91661904D01*
X106386809Y-91661904D01*
X106577285Y-91614285D01*
X106672523Y-91566666D01*
X106767761Y-91471428D01*
X106815380Y-91328571D01*
X106815380Y-91233333D01*
X106767761Y-91090476D01*
X106720142Y-91042857D01*
X106386809Y-91042857D01*
X106386809Y-91233333D01*
X106767761Y-90661904D02*
X106815380Y-90519047D01*
X106815380Y-90280952D01*
X106767761Y-90185714D01*
X106720142Y-90138095D01*
X106624904Y-90090476D01*
X106529666Y-90090476D01*
X106434428Y-90138095D01*
X106386809Y-90185714D01*
X106339190Y-90280952D01*
X106291571Y-90471428D01*
X106243952Y-90566666D01*
X106196333Y-90614285D01*
X106101095Y-90661904D01*
X106005857Y-90661904D01*
X105910619Y-90614285D01*
X105863000Y-90566666D01*
X105815380Y-90471428D01*
X105815380Y-90233333D01*
X105863000Y-90090476D01*
X106767761Y-88947619D02*
X106815380Y-88804761D01*
X106815380Y-88566666D01*
X106767761Y-88471428D01*
X106720142Y-88423809D01*
X106624904Y-88376190D01*
X106529666Y-88376190D01*
X106434428Y-88423809D01*
X106386809Y-88471428D01*
X106339190Y-88566666D01*
X106291571Y-88757142D01*
X106243952Y-88852380D01*
X106196333Y-88900000D01*
X106101095Y-88947619D01*
X106005857Y-88947619D01*
X105910619Y-88900000D01*
X105863000Y-88852380D01*
X105815380Y-88757142D01*
X105815380Y-88519047D01*
X105863000Y-88376190D01*
X106767761Y-87566666D02*
X106815380Y-87661904D01*
X106815380Y-87852380D01*
X106767761Y-87947619D01*
X106672523Y-87995238D01*
X106291571Y-87995238D01*
X106196333Y-87947619D01*
X106148714Y-87852380D01*
X106148714Y-87661904D01*
X106196333Y-87566666D01*
X106291571Y-87519047D01*
X106386809Y-87519047D01*
X106482047Y-87995238D01*
X106815380Y-87090476D02*
X106148714Y-87090476D01*
X106339190Y-87090476D02*
X106243952Y-87042857D01*
X106196333Y-86995238D01*
X106148714Y-86900000D01*
X106148714Y-86804761D01*
X106148714Y-86042857D02*
X106958238Y-86042857D01*
X107053476Y-86090476D01*
X107101095Y-86138095D01*
X107148714Y-86233333D01*
X107148714Y-86376190D01*
X107101095Y-86471428D01*
X106767761Y-86042857D02*
X106815380Y-86138095D01*
X106815380Y-86328571D01*
X106767761Y-86423809D01*
X106720142Y-86471428D01*
X106624904Y-86519047D01*
X106339190Y-86519047D01*
X106243952Y-86471428D01*
X106196333Y-86423809D01*
X106148714Y-86328571D01*
X106148714Y-86138095D01*
X106196333Y-86042857D01*
X106767761Y-85185714D02*
X106815380Y-85280952D01*
X106815380Y-85471428D01*
X106767761Y-85566666D01*
X106672523Y-85614285D01*
X106291571Y-85614285D01*
X106196333Y-85566666D01*
X106148714Y-85471428D01*
X106148714Y-85280952D01*
X106196333Y-85185714D01*
X106291571Y-85138095D01*
X106386809Y-85138095D01*
X106482047Y-85614285D01*
X108465380Y-95566666D02*
X107465380Y-95566666D01*
X107465380Y-95185714D01*
X107513000Y-95090476D01*
X107560619Y-95042857D01*
X107655857Y-94995238D01*
X107798714Y-94995238D01*
X107893952Y-95042857D01*
X107941571Y-95090476D01*
X107989190Y-95185714D01*
X107989190Y-95566666D01*
X108465380Y-94423809D02*
X108417761Y-94519047D01*
X108370142Y-94566666D01*
X108274904Y-94614285D01*
X107989190Y-94614285D01*
X107893952Y-94566666D01*
X107846333Y-94519047D01*
X107798714Y-94423809D01*
X107798714Y-94280952D01*
X107846333Y-94185714D01*
X107893952Y-94138095D01*
X107989190Y-94090476D01*
X108274904Y-94090476D01*
X108370142Y-94138095D01*
X108417761Y-94185714D01*
X108465380Y-94280952D01*
X108465380Y-94423809D01*
X107798714Y-93757142D02*
X108465380Y-93566666D01*
X107989190Y-93376190D01*
X108465380Y-93185714D01*
X107798714Y-92995238D01*
X108417761Y-92233333D02*
X108465380Y-92328571D01*
X108465380Y-92519047D01*
X108417761Y-92614285D01*
X108322523Y-92661904D01*
X107941571Y-92661904D01*
X107846333Y-92614285D01*
X107798714Y-92519047D01*
X107798714Y-92328571D01*
X107846333Y-92233333D01*
X107941571Y-92185714D01*
X108036809Y-92185714D01*
X108132047Y-92661904D01*
X108465380Y-91757142D02*
X107798714Y-91757142D01*
X107989190Y-91757142D02*
X107893952Y-91709523D01*
X107846333Y-91661904D01*
X107798714Y-91566666D01*
X107798714Y-91471428D01*
X108465380Y-90376190D02*
X107465380Y-90376190D01*
X107465380Y-90138095D01*
X107513000Y-89995238D01*
X107608238Y-89900000D01*
X107703476Y-89852380D01*
X107893952Y-89804761D01*
X108036809Y-89804761D01*
X108227285Y-89852380D01*
X108322523Y-89900000D01*
X108417761Y-89995238D01*
X108465380Y-90138095D01*
X108465380Y-90376190D01*
X108465380Y-89376190D02*
X107798714Y-89376190D01*
X107465380Y-89376190D02*
X107513000Y-89423809D01*
X107560619Y-89376190D01*
X107513000Y-89328571D01*
X107465380Y-89376190D01*
X107560619Y-89376190D01*
X108417761Y-88947619D02*
X108465380Y-88852380D01*
X108465380Y-88661904D01*
X108417761Y-88566666D01*
X108322523Y-88519047D01*
X108274904Y-88519047D01*
X108179666Y-88566666D01*
X108132047Y-88661904D01*
X108132047Y-88804761D01*
X108084428Y-88900000D01*
X107989190Y-88947619D01*
X107941571Y-88947619D01*
X107846333Y-88900000D01*
X107798714Y-88804761D01*
X107798714Y-88661904D01*
X107846333Y-88566666D01*
X107798714Y-88233333D02*
X107798714Y-87852380D01*
X107465380Y-88090476D02*
X108322523Y-88090476D01*
X108417761Y-88042857D01*
X108465380Y-87947619D01*
X108465380Y-87852380D01*
X108465380Y-87519047D02*
X107798714Y-87519047D01*
X107989190Y-87519047D02*
X107893952Y-87471428D01*
X107846333Y-87423809D01*
X107798714Y-87328571D01*
X107798714Y-87233333D01*
X108465380Y-86900000D02*
X107798714Y-86900000D01*
X107465380Y-86900000D02*
X107513000Y-86947619D01*
X107560619Y-86900000D01*
X107513000Y-86852380D01*
X107465380Y-86900000D01*
X107560619Y-86900000D01*
X108465380Y-86423809D02*
X107465380Y-86423809D01*
X107846333Y-86423809D02*
X107798714Y-86328571D01*
X107798714Y-86138095D01*
X107846333Y-86042857D01*
X107893952Y-85995238D01*
X107989190Y-85947619D01*
X108274904Y-85947619D01*
X108370142Y-85995238D01*
X108417761Y-86042857D01*
X108465380Y-86138095D01*
X108465380Y-86328571D01*
X108417761Y-86423809D01*
X107798714Y-85090476D02*
X108465380Y-85090476D01*
X107798714Y-85519047D02*
X108322523Y-85519047D01*
X108417761Y-85471428D01*
X108465380Y-85376190D01*
X108465380Y-85233333D01*
X108417761Y-85138095D01*
X108370142Y-85090476D01*
X107798714Y-84757142D02*
X107798714Y-84376190D01*
X107465380Y-84614285D02*
X108322523Y-84614285D01*
X108417761Y-84566666D01*
X108465380Y-84471428D01*
X108465380Y-84376190D01*
X108465380Y-84042857D02*
X107798714Y-84042857D01*
X107465380Y-84042857D02*
X107513000Y-84090476D01*
X107560619Y-84042857D01*
X107513000Y-83995238D01*
X107465380Y-84042857D01*
X107560619Y-84042857D01*
X108465380Y-83423809D02*
X108417761Y-83519047D01*
X108370142Y-83566666D01*
X108274904Y-83614285D01*
X107989190Y-83614285D01*
X107893952Y-83566666D01*
X107846333Y-83519047D01*
X107798714Y-83423809D01*
X107798714Y-83280952D01*
X107846333Y-83185714D01*
X107893952Y-83138095D01*
X107989190Y-83090476D01*
X108274904Y-83090476D01*
X108370142Y-83138095D01*
X108417761Y-83185714D01*
X108465380Y-83280952D01*
X108465380Y-83423809D01*
X107798714Y-82661904D02*
X108465380Y-82661904D01*
X107893952Y-82661904D02*
X107846333Y-82614285D01*
X107798714Y-82519047D01*
X107798714Y-82376190D01*
X107846333Y-82280952D01*
X107941571Y-82233333D01*
X108465380Y-82233333D01*
X202771428Y-89622380D02*
X202866666Y-89622380D01*
X202961904Y-89670000D01*
X203009523Y-89717619D01*
X203057142Y-89812857D01*
X203104761Y-90003333D01*
X203104761Y-90241428D01*
X203057142Y-90431904D01*
X203009523Y-90527142D01*
X202961904Y-90574761D01*
X202866666Y-90622380D01*
X202771428Y-90622380D01*
X202676190Y-90574761D01*
X202628571Y-90527142D01*
X202580952Y-90431904D01*
X202533333Y-90241428D01*
X202533333Y-90003333D01*
X202580952Y-89812857D01*
X202628571Y-89717619D01*
X202676190Y-89670000D01*
X202771428Y-89622380D01*
X203438095Y-89955714D02*
X203676190Y-90622380D01*
X203914285Y-89955714D01*
X202771428Y-86828380D02*
X202866666Y-86828380D01*
X202961904Y-86876000D01*
X203009523Y-86923619D01*
X203057142Y-87018857D01*
X203104761Y-87209333D01*
X203104761Y-87447428D01*
X203057142Y-87637904D01*
X203009523Y-87733142D01*
X202961904Y-87780761D01*
X202866666Y-87828380D01*
X202771428Y-87828380D01*
X202676190Y-87780761D01*
X202628571Y-87733142D01*
X202580952Y-87637904D01*
X202533333Y-87447428D01*
X202533333Y-87209333D01*
X202580952Y-87018857D01*
X202628571Y-86923619D01*
X202676190Y-86876000D01*
X202771428Y-86828380D01*
X203438095Y-87161714D02*
X203676190Y-87828380D01*
X203914285Y-87161714D01*
X171021428Y-90384380D02*
X171116666Y-90384380D01*
X171211904Y-90432000D01*
X171259523Y-90479619D01*
X171307142Y-90574857D01*
X171354761Y-90765333D01*
X171354761Y-91003428D01*
X171307142Y-91193904D01*
X171259523Y-91289142D01*
X171211904Y-91336761D01*
X171116666Y-91384380D01*
X171021428Y-91384380D01*
X170926190Y-91336761D01*
X170878571Y-91289142D01*
X170830952Y-91193904D01*
X170783333Y-91003428D01*
X170783333Y-90765333D01*
X170830952Y-90574857D01*
X170878571Y-90479619D01*
X170926190Y-90432000D01*
X171021428Y-90384380D01*
X171688095Y-90717714D02*
X171926190Y-91384380D01*
X172164285Y-90717714D01*
X171021428Y-85812380D02*
X171116666Y-85812380D01*
X171211904Y-85860000D01*
X171259523Y-85907619D01*
X171307142Y-86002857D01*
X171354761Y-86193333D01*
X171354761Y-86431428D01*
X171307142Y-86621904D01*
X171259523Y-86717142D01*
X171211904Y-86764761D01*
X171116666Y-86812380D01*
X171021428Y-86812380D01*
X170926190Y-86764761D01*
X170878571Y-86717142D01*
X170830952Y-86621904D01*
X170783333Y-86431428D01*
X170783333Y-86193333D01*
X170830952Y-86002857D01*
X170878571Y-85907619D01*
X170926190Y-85860000D01*
X171021428Y-85812380D01*
X171688095Y-86145714D02*
X171926190Y-86812380D01*
X172164285Y-86145714D01*
X139271428Y-90638380D02*
X139366666Y-90638380D01*
X139461904Y-90686000D01*
X139509523Y-90733619D01*
X139557142Y-90828857D01*
X139604761Y-91019333D01*
X139604761Y-91257428D01*
X139557142Y-91447904D01*
X139509523Y-91543142D01*
X139461904Y-91590761D01*
X139366666Y-91638380D01*
X139271428Y-91638380D01*
X139176190Y-91590761D01*
X139128571Y-91543142D01*
X139080952Y-91447904D01*
X139033333Y-91257428D01*
X139033333Y-91019333D01*
X139080952Y-90828857D01*
X139128571Y-90733619D01*
X139176190Y-90686000D01*
X139271428Y-90638380D01*
X139938095Y-90971714D02*
X140176190Y-91638380D01*
X140414285Y-90971714D01*
X139271428Y-85812380D02*
X139366666Y-85812380D01*
X139461904Y-85860000D01*
X139509523Y-85907619D01*
X139557142Y-86002857D01*
X139604761Y-86193333D01*
X139604761Y-86431428D01*
X139557142Y-86621904D01*
X139509523Y-86717142D01*
X139461904Y-86764761D01*
X139366666Y-86812380D01*
X139271428Y-86812380D01*
X139176190Y-86764761D01*
X139128571Y-86717142D01*
X139080952Y-86621904D01*
X139033333Y-86431428D01*
X139033333Y-86193333D01*
X139080952Y-86002857D01*
X139128571Y-85907619D01*
X139176190Y-85860000D01*
X139271428Y-85812380D01*
X139938095Y-86145714D02*
X140176190Y-86812380D01*
X140414285Y-86145714D01*
X204533714Y-96845428D02*
X205295619Y-96845428D01*
X204914666Y-97226380D02*
X204914666Y-96464476D01*
X206295619Y-97226380D02*
X205724190Y-97226380D01*
X206009904Y-97226380D02*
X206009904Y-96226380D01*
X205914666Y-96369238D01*
X205819428Y-96464476D01*
X205724190Y-96512095D01*
X206676571Y-96321619D02*
X206724190Y-96274000D01*
X206819428Y-96226380D01*
X207057523Y-96226380D01*
X207152761Y-96274000D01*
X207200380Y-96321619D01*
X207248000Y-96416857D01*
X207248000Y-96512095D01*
X207200380Y-96654952D01*
X206628952Y-97226380D01*
X207248000Y-97226380D01*
X207581333Y-96559714D02*
X207819428Y-97226380D01*
X208057523Y-96559714D01*
X173037714Y-98877428D02*
X173799619Y-98877428D01*
X173418666Y-99258380D02*
X173418666Y-98496476D01*
X174799619Y-99258380D02*
X174228190Y-99258380D01*
X174513904Y-99258380D02*
X174513904Y-98258380D01*
X174418666Y-98401238D01*
X174323428Y-98496476D01*
X174228190Y-98544095D01*
X175180571Y-98353619D02*
X175228190Y-98306000D01*
X175323428Y-98258380D01*
X175561523Y-98258380D01*
X175656761Y-98306000D01*
X175704380Y-98353619D01*
X175752000Y-98448857D01*
X175752000Y-98544095D01*
X175704380Y-98686952D01*
X175132952Y-99258380D01*
X175752000Y-99258380D01*
X176085333Y-98591714D02*
X176323428Y-99258380D01*
X176561523Y-98591714D01*
X141033714Y-98877428D02*
X141795619Y-98877428D01*
X141414666Y-99258380D02*
X141414666Y-98496476D01*
X142795619Y-99258380D02*
X142224190Y-99258380D01*
X142509904Y-99258380D02*
X142509904Y-98258380D01*
X142414666Y-98401238D01*
X142319428Y-98496476D01*
X142224190Y-98544095D01*
X143176571Y-98353619D02*
X143224190Y-98306000D01*
X143319428Y-98258380D01*
X143557523Y-98258380D01*
X143652761Y-98306000D01*
X143700380Y-98353619D01*
X143748000Y-98448857D01*
X143748000Y-98544095D01*
X143700380Y-98686952D01*
X143128952Y-99258380D01*
X143748000Y-99258380D01*
X144081333Y-98591714D02*
X144319428Y-99258380D01*
X144557523Y-98591714D01*
X204533714Y-81097428D02*
X205295619Y-81097428D01*
X206295619Y-81478380D02*
X205724190Y-81478380D01*
X206009904Y-81478380D02*
X206009904Y-80478380D01*
X205914666Y-80621238D01*
X205819428Y-80716476D01*
X205724190Y-80764095D01*
X206676571Y-80573619D02*
X206724190Y-80526000D01*
X206819428Y-80478380D01*
X207057523Y-80478380D01*
X207152761Y-80526000D01*
X207200380Y-80573619D01*
X207248000Y-80668857D01*
X207248000Y-80764095D01*
X207200380Y-80906952D01*
X206628952Y-81478380D01*
X207248000Y-81478380D01*
X207581333Y-80811714D02*
X207819428Y-81478380D01*
X208057523Y-80811714D01*
X172783714Y-78811428D02*
X173545619Y-78811428D01*
X174545619Y-79192380D02*
X173974190Y-79192380D01*
X174259904Y-79192380D02*
X174259904Y-78192380D01*
X174164666Y-78335238D01*
X174069428Y-78430476D01*
X173974190Y-78478095D01*
X174926571Y-78287619D02*
X174974190Y-78240000D01*
X175069428Y-78192380D01*
X175307523Y-78192380D01*
X175402761Y-78240000D01*
X175450380Y-78287619D01*
X175498000Y-78382857D01*
X175498000Y-78478095D01*
X175450380Y-78620952D01*
X174878952Y-79192380D01*
X175498000Y-79192380D01*
X175831333Y-78525714D02*
X176069428Y-79192380D01*
X176307523Y-78525714D01*
X141033714Y-78811428D02*
X141795619Y-78811428D01*
X142795619Y-79192380D02*
X142224190Y-79192380D01*
X142509904Y-79192380D02*
X142509904Y-78192380D01*
X142414666Y-78335238D01*
X142319428Y-78430476D01*
X142224190Y-78478095D01*
X143176571Y-78287619D02*
X143224190Y-78240000D01*
X143319428Y-78192380D01*
X143557523Y-78192380D01*
X143652761Y-78240000D01*
X143700380Y-78287619D01*
X143748000Y-78382857D01*
X143748000Y-78478095D01*
X143700380Y-78620952D01*
X143128952Y-79192380D01*
X143748000Y-79192380D01*
X144081333Y-78525714D02*
X144319428Y-79192380D01*
X144557523Y-78525714D01*
X111212380Y-92122571D02*
X111212380Y-92027333D01*
X111260000Y-91932095D01*
X111307619Y-91884476D01*
X111402857Y-91836857D01*
X111593333Y-91789238D01*
X111831428Y-91789238D01*
X112021904Y-91836857D01*
X112117142Y-91884476D01*
X112164761Y-91932095D01*
X112212380Y-92027333D01*
X112212380Y-92122571D01*
X112164761Y-92217809D01*
X112117142Y-92265428D01*
X112021904Y-92313047D01*
X111831428Y-92360666D01*
X111593333Y-92360666D01*
X111402857Y-92313047D01*
X111307619Y-92265428D01*
X111260000Y-92217809D01*
X111212380Y-92122571D01*
X111545714Y-91455904D02*
X112212380Y-91217809D01*
X111545714Y-90979714D01*
X111212380Y-86534571D02*
X111212380Y-86439333D01*
X111260000Y-86344095D01*
X111307619Y-86296476D01*
X111402857Y-86248857D01*
X111593333Y-86201238D01*
X111831428Y-86201238D01*
X112021904Y-86248857D01*
X112117142Y-86296476D01*
X112164761Y-86344095D01*
X112212380Y-86439333D01*
X112212380Y-86534571D01*
X112164761Y-86629809D01*
X112117142Y-86677428D01*
X112021904Y-86725047D01*
X111831428Y-86772666D01*
X111593333Y-86772666D01*
X111402857Y-86725047D01*
X111307619Y-86677428D01*
X111260000Y-86629809D01*
X111212380Y-86534571D01*
X111545714Y-85867904D02*
X112212380Y-85629809D01*
X111545714Y-85391714D01*
X111831428Y-98996285D02*
X111831428Y-98234380D01*
X112212380Y-98615333D02*
X111450476Y-98615333D01*
X112212380Y-97234380D02*
X112212380Y-97805809D01*
X112212380Y-97520095D02*
X111212380Y-97520095D01*
X111355238Y-97615333D01*
X111450476Y-97710571D01*
X111498095Y-97805809D01*
X111307619Y-96853428D02*
X111260000Y-96805809D01*
X111212380Y-96710571D01*
X111212380Y-96472476D01*
X111260000Y-96377238D01*
X111307619Y-96329619D01*
X111402857Y-96282000D01*
X111498095Y-96282000D01*
X111640952Y-96329619D01*
X112212380Y-96901047D01*
X112212380Y-96282000D01*
X111545714Y-95948666D02*
X112212380Y-95710571D01*
X111545714Y-95472476D01*
X111831428Y-82232285D02*
X111831428Y-81470380D01*
X112212380Y-80470380D02*
X112212380Y-81041809D01*
X112212380Y-80756095D02*
X111212380Y-80756095D01*
X111355238Y-80851333D01*
X111450476Y-80946571D01*
X111498095Y-81041809D01*
X111307619Y-80089428D02*
X111260000Y-80041809D01*
X111212380Y-79946571D01*
X111212380Y-79708476D01*
X111260000Y-79613238D01*
X111307619Y-79565619D01*
X111402857Y-79518000D01*
X111498095Y-79518000D01*
X111640952Y-79565619D01*
X112212380Y-80137047D01*
X112212380Y-79518000D01*
X111545714Y-79184666D02*
X112212380Y-78946571D01*
X111545714Y-78708476D01*
D11*
%TO.C,J4*%
X147320000Y-97282000D02*
X147320000Y-79756000D01*
X147320000Y-79756000D02*
X150876000Y-79756000D01*
X150876000Y-79756000D02*
X150876000Y-97282000D01*
X150876000Y-97282000D02*
X150368000Y-97790000D01*
X150368000Y-97790000D02*
X147828000Y-97790000D01*
X147828000Y-97790000D02*
X147320000Y-97282000D01*
X147320000Y-94234000D02*
X150876000Y-94234000D01*
X147320000Y-92964000D02*
X150876000Y-92964000D01*
X147320000Y-89408000D02*
X150876000Y-89408000D01*
X147320000Y-88138000D02*
X150876000Y-88138000D01*
X147320000Y-84582000D02*
X150876000Y-84582000D01*
X147320000Y-83312000D02*
X150876000Y-83312000D01*
%TO.C,J9*%
X140970000Y-97282000D02*
X140970000Y-79756000D01*
X140970000Y-79756000D02*
X144526000Y-79756000D01*
X144526000Y-79756000D02*
X144526000Y-97282000D01*
X144526000Y-97282000D02*
X144018000Y-97790000D01*
X144018000Y-97790000D02*
X141478000Y-97790000D01*
X141478000Y-97790000D02*
X140970000Y-97282000D01*
X140970000Y-94234000D02*
X144526000Y-94234000D01*
X140970000Y-92964000D02*
X144526000Y-92964000D01*
X140970000Y-89408000D02*
X144526000Y-89408000D01*
X140970000Y-88138000D02*
X144526000Y-88138000D01*
X140970000Y-84582000D02*
X144526000Y-84582000D01*
X140970000Y-83312000D02*
X144526000Y-83312000D01*
%TO.C,J2*%
X191770000Y-97204000D02*
X191770000Y-79678000D01*
X191770000Y-79678000D02*
X195326000Y-79678000D01*
X195326000Y-79678000D02*
X195326000Y-97204000D01*
X195326000Y-97204000D02*
X194818000Y-97712000D01*
X194818000Y-97712000D02*
X192278000Y-97712000D01*
X192278000Y-97712000D02*
X191770000Y-97204000D01*
X191770000Y-94156000D02*
X195326000Y-94156000D01*
X191770000Y-92886000D02*
X195326000Y-92886000D01*
X191770000Y-89330000D02*
X195326000Y-89330000D01*
X191770000Y-88060000D02*
X195326000Y-88060000D01*
X191770000Y-84504000D02*
X195326000Y-84504000D01*
X191770000Y-83234000D02*
X195326000Y-83234000D01*
%TO.C,J3*%
X153670000Y-97282000D02*
X153670000Y-79756000D01*
X153670000Y-79756000D02*
X157226000Y-79756000D01*
X157226000Y-79756000D02*
X157226000Y-97282000D01*
X157226000Y-97282000D02*
X156718000Y-97790000D01*
X156718000Y-97790000D02*
X154178000Y-97790000D01*
X154178000Y-97790000D02*
X153670000Y-97282000D01*
X153670000Y-94234000D02*
X157226000Y-94234000D01*
X153670000Y-92964000D02*
X157226000Y-92964000D01*
X153670000Y-89408000D02*
X157226000Y-89408000D01*
X153670000Y-88138000D02*
X157226000Y-88138000D01*
X153670000Y-84582000D02*
X157226000Y-84582000D01*
X153670000Y-83312000D02*
X157226000Y-83312000D01*
%TO.C,J5*%
X160020000Y-97204000D02*
X160020000Y-79678000D01*
X160020000Y-79678000D02*
X163576000Y-79678000D01*
X163576000Y-79678000D02*
X163576000Y-97204000D01*
X163576000Y-97204000D02*
X163068000Y-97712000D01*
X163068000Y-97712000D02*
X160528000Y-97712000D01*
X160528000Y-97712000D02*
X160020000Y-97204000D01*
X160020000Y-94156000D02*
X163576000Y-94156000D01*
X160020000Y-92886000D02*
X163576000Y-92886000D01*
X160020000Y-89330000D02*
X163576000Y-89330000D01*
X160020000Y-88060000D02*
X163576000Y-88060000D01*
X160020000Y-84504000D02*
X163576000Y-84504000D01*
X160020000Y-83234000D02*
X163576000Y-83234000D01*
%TO.C,J6*%
X166370000Y-97282000D02*
X166370000Y-79756000D01*
X166370000Y-79756000D02*
X169926000Y-79756000D01*
X169926000Y-79756000D02*
X169926000Y-97282000D01*
X169926000Y-97282000D02*
X169418000Y-97790000D01*
X169418000Y-97790000D02*
X166878000Y-97790000D01*
X166878000Y-97790000D02*
X166370000Y-97282000D01*
X166370000Y-94234000D02*
X169926000Y-94234000D01*
X166370000Y-92964000D02*
X169926000Y-92964000D01*
X166370000Y-89408000D02*
X169926000Y-89408000D01*
X166370000Y-88138000D02*
X169926000Y-88138000D01*
X166370000Y-84582000D02*
X169926000Y-84582000D01*
X166370000Y-83312000D02*
X169926000Y-83312000D01*
%TO.C,J7*%
X198120000Y-97204000D02*
X198120000Y-79678000D01*
X198120000Y-79678000D02*
X201676000Y-79678000D01*
X201676000Y-79678000D02*
X201676000Y-97204000D01*
X201676000Y-97204000D02*
X201168000Y-97712000D01*
X201168000Y-97712000D02*
X198628000Y-97712000D01*
X198628000Y-97712000D02*
X198120000Y-97204000D01*
X198120000Y-94156000D02*
X201676000Y-94156000D01*
X198120000Y-92886000D02*
X201676000Y-92886000D01*
X198120000Y-89330000D02*
X201676000Y-89330000D01*
X198120000Y-88060000D02*
X201676000Y-88060000D01*
X198120000Y-84504000D02*
X201676000Y-84504000D01*
X198120000Y-83234000D02*
X201676000Y-83234000D01*
%TO.C,J8*%
X172720000Y-97282000D02*
X172720000Y-79756000D01*
X172720000Y-79756000D02*
X176276000Y-79756000D01*
X176276000Y-79756000D02*
X176276000Y-97282000D01*
X176276000Y-97282000D02*
X175768000Y-97790000D01*
X175768000Y-97790000D02*
X173228000Y-97790000D01*
X173228000Y-97790000D02*
X172720000Y-97282000D01*
X172720000Y-94234000D02*
X176276000Y-94234000D01*
X172720000Y-92964000D02*
X176276000Y-92964000D01*
X172720000Y-89408000D02*
X176276000Y-89408000D01*
X172720000Y-88138000D02*
X176276000Y-88138000D01*
X172720000Y-84582000D02*
X176276000Y-84582000D01*
X172720000Y-83312000D02*
X176276000Y-83312000D01*
%TO.C,J10*%
X179070000Y-97282000D02*
X179070000Y-79756000D01*
X179070000Y-79756000D02*
X182626000Y-79756000D01*
X182626000Y-79756000D02*
X182626000Y-97282000D01*
X182626000Y-97282000D02*
X182118000Y-97790000D01*
X182118000Y-97790000D02*
X179578000Y-97790000D01*
X179578000Y-97790000D02*
X179070000Y-97282000D01*
X179070000Y-94234000D02*
X182626000Y-94234000D01*
X179070000Y-92964000D02*
X182626000Y-92964000D01*
X179070000Y-89408000D02*
X182626000Y-89408000D01*
X179070000Y-88138000D02*
X182626000Y-88138000D01*
X179070000Y-84582000D02*
X182626000Y-84582000D01*
X179070000Y-83312000D02*
X182626000Y-83312000D01*
%TO.C,J11*%
X185420000Y-97204000D02*
X185420000Y-79678000D01*
X185420000Y-79678000D02*
X188976000Y-79678000D01*
X188976000Y-79678000D02*
X188976000Y-97204000D01*
X188976000Y-97204000D02*
X188468000Y-97712000D01*
X188468000Y-97712000D02*
X185928000Y-97712000D01*
X185928000Y-97712000D02*
X185420000Y-97204000D01*
X185420000Y-94156000D02*
X188976000Y-94156000D01*
X185420000Y-92886000D02*
X188976000Y-92886000D01*
X185420000Y-89330000D02*
X188976000Y-89330000D01*
X185420000Y-88060000D02*
X188976000Y-88060000D01*
X185420000Y-84504000D02*
X188976000Y-84504000D01*
X185420000Y-83234000D02*
X188976000Y-83234000D01*
%TO.C,C1*%
X129112000Y-92218000D02*
G75*
G03*
X129112000Y-92218000I-2620000J0D01*
G01*
X127532000Y-92218000D02*
X129072000Y-92218000D01*
X123912000Y-92218000D02*
X125452000Y-92218000D01*
X127532000Y-92178000D02*
X129072000Y-92178000D01*
X123912000Y-92178000D02*
X125452000Y-92178000D01*
X123913000Y-92138000D02*
X125452000Y-92138000D01*
X127532000Y-92138000D02*
X129071000Y-92138000D01*
X123914000Y-92098000D02*
X125452000Y-92098000D01*
X127532000Y-92098000D02*
X129070000Y-92098000D01*
X123916000Y-92058000D02*
X125452000Y-92058000D01*
X127532000Y-92058000D02*
X129068000Y-92058000D01*
X123919000Y-92018000D02*
X125452000Y-92018000D01*
X127532000Y-92018000D02*
X129065000Y-92018000D01*
X123923000Y-91978000D02*
X125452000Y-91978000D01*
X127532000Y-91978000D02*
X129061000Y-91978000D01*
X123927000Y-91938000D02*
X125452000Y-91938000D01*
X127532000Y-91938000D02*
X129057000Y-91938000D01*
X123931000Y-91898000D02*
X125452000Y-91898000D01*
X127532000Y-91898000D02*
X129053000Y-91898000D01*
X123936000Y-91858000D02*
X125452000Y-91858000D01*
X127532000Y-91858000D02*
X129048000Y-91858000D01*
X123942000Y-91818000D02*
X125452000Y-91818000D01*
X127532000Y-91818000D02*
X129042000Y-91818000D01*
X123949000Y-91778000D02*
X125452000Y-91778000D01*
X127532000Y-91778000D02*
X129035000Y-91778000D01*
X123956000Y-91738000D02*
X125452000Y-91738000D01*
X127532000Y-91738000D02*
X129028000Y-91738000D01*
X123964000Y-91698000D02*
X125452000Y-91698000D01*
X127532000Y-91698000D02*
X129020000Y-91698000D01*
X123972000Y-91658000D02*
X125452000Y-91658000D01*
X127532000Y-91658000D02*
X129012000Y-91658000D01*
X123981000Y-91618000D02*
X125452000Y-91618000D01*
X127532000Y-91618000D02*
X129003000Y-91618000D01*
X123991000Y-91578000D02*
X125452000Y-91578000D01*
X127532000Y-91578000D02*
X128993000Y-91578000D01*
X124001000Y-91538000D02*
X125452000Y-91538000D01*
X127532000Y-91538000D02*
X128983000Y-91538000D01*
X124012000Y-91497000D02*
X125452000Y-91497000D01*
X127532000Y-91497000D02*
X128972000Y-91497000D01*
X124024000Y-91457000D02*
X125452000Y-91457000D01*
X127532000Y-91457000D02*
X128960000Y-91457000D01*
X124037000Y-91417000D02*
X125452000Y-91417000D01*
X127532000Y-91417000D02*
X128947000Y-91417000D01*
X124050000Y-91377000D02*
X125452000Y-91377000D01*
X127532000Y-91377000D02*
X128934000Y-91377000D01*
X124064000Y-91337000D02*
X125452000Y-91337000D01*
X127532000Y-91337000D02*
X128920000Y-91337000D01*
X124078000Y-91297000D02*
X125452000Y-91297000D01*
X127532000Y-91297000D02*
X128906000Y-91297000D01*
X124094000Y-91257000D02*
X125452000Y-91257000D01*
X127532000Y-91257000D02*
X128890000Y-91257000D01*
X124110000Y-91217000D02*
X125452000Y-91217000D01*
X127532000Y-91217000D02*
X128874000Y-91217000D01*
X124127000Y-91177000D02*
X125452000Y-91177000D01*
X127532000Y-91177000D02*
X128857000Y-91177000D01*
X124144000Y-91137000D02*
X125452000Y-91137000D01*
X127532000Y-91137000D02*
X128840000Y-91137000D01*
X124163000Y-91097000D02*
X125452000Y-91097000D01*
X127532000Y-91097000D02*
X128821000Y-91097000D01*
X124182000Y-91057000D02*
X125452000Y-91057000D01*
X127532000Y-91057000D02*
X128802000Y-91057000D01*
X124202000Y-91017000D02*
X125452000Y-91017000D01*
X127532000Y-91017000D02*
X128782000Y-91017000D01*
X124224000Y-90977000D02*
X125452000Y-90977000D01*
X127532000Y-90977000D02*
X128760000Y-90977000D01*
X124245000Y-90937000D02*
X125452000Y-90937000D01*
X127532000Y-90937000D02*
X128739000Y-90937000D01*
X124268000Y-90897000D02*
X125452000Y-90897000D01*
X127532000Y-90897000D02*
X128716000Y-90897000D01*
X124292000Y-90857000D02*
X125452000Y-90857000D01*
X127532000Y-90857000D02*
X128692000Y-90857000D01*
X124317000Y-90817000D02*
X125452000Y-90817000D01*
X127532000Y-90817000D02*
X128667000Y-90817000D01*
X124343000Y-90777000D02*
X125452000Y-90777000D01*
X127532000Y-90777000D02*
X128641000Y-90777000D01*
X124370000Y-90737000D02*
X125452000Y-90737000D01*
X127532000Y-90737000D02*
X128614000Y-90737000D01*
X124397000Y-90697000D02*
X125452000Y-90697000D01*
X127532000Y-90697000D02*
X128587000Y-90697000D01*
X124427000Y-90657000D02*
X125452000Y-90657000D01*
X127532000Y-90657000D02*
X128557000Y-90657000D01*
X124457000Y-90617000D02*
X125452000Y-90617000D01*
X127532000Y-90617000D02*
X128527000Y-90617000D01*
X124488000Y-90577000D02*
X125452000Y-90577000D01*
X127532000Y-90577000D02*
X128496000Y-90577000D01*
X124521000Y-90537000D02*
X125452000Y-90537000D01*
X127532000Y-90537000D02*
X128463000Y-90537000D01*
X124555000Y-90497000D02*
X125452000Y-90497000D01*
X127532000Y-90497000D02*
X128429000Y-90497000D01*
X124591000Y-90457000D02*
X125452000Y-90457000D01*
X127532000Y-90457000D02*
X128393000Y-90457000D01*
X124628000Y-90417000D02*
X125452000Y-90417000D01*
X127532000Y-90417000D02*
X128356000Y-90417000D01*
X124666000Y-90377000D02*
X125452000Y-90377000D01*
X127532000Y-90377000D02*
X128318000Y-90377000D01*
X124707000Y-90337000D02*
X125452000Y-90337000D01*
X127532000Y-90337000D02*
X128277000Y-90337000D01*
X124749000Y-90297000D02*
X125452000Y-90297000D01*
X127532000Y-90297000D02*
X128235000Y-90297000D01*
X124793000Y-90257000D02*
X125452000Y-90257000D01*
X127532000Y-90257000D02*
X128191000Y-90257000D01*
X124839000Y-90217000D02*
X125452000Y-90217000D01*
X127532000Y-90217000D02*
X128145000Y-90217000D01*
X124887000Y-90177000D02*
X128097000Y-90177000D01*
X124938000Y-90137000D02*
X128046000Y-90137000D01*
X124992000Y-90097000D02*
X127992000Y-90097000D01*
X125049000Y-90057000D02*
X127935000Y-90057000D01*
X125109000Y-90017000D02*
X127875000Y-90017000D01*
X125173000Y-89977000D02*
X127811000Y-89977000D01*
X125241000Y-89937000D02*
X127743000Y-89937000D01*
X125314000Y-89897000D02*
X127670000Y-89897000D01*
X125394000Y-89857000D02*
X127590000Y-89857000D01*
X125481000Y-89817000D02*
X127503000Y-89817000D01*
X125577000Y-89777000D02*
X127407000Y-89777000D01*
X125687000Y-89737000D02*
X127297000Y-89737000D01*
X125815000Y-89697000D02*
X127169000Y-89697000D01*
X125974000Y-89657000D02*
X127010000Y-89657000D01*
X126208000Y-89617000D02*
X126776000Y-89617000D01*
X125017000Y-95022775D02*
X125017000Y-94522775D01*
X124767000Y-94772775D02*
X125267000Y-94772775D01*
%TO.C,C2*%
X124767000Y-88168775D02*
X125267000Y-88168775D01*
X125017000Y-88418775D02*
X125017000Y-87918775D01*
X126208000Y-83013000D02*
X126776000Y-83013000D01*
X125974000Y-83053000D02*
X127010000Y-83053000D01*
X125815000Y-83093000D02*
X127169000Y-83093000D01*
X125687000Y-83133000D02*
X127297000Y-83133000D01*
X125577000Y-83173000D02*
X127407000Y-83173000D01*
X125481000Y-83213000D02*
X127503000Y-83213000D01*
X125394000Y-83253000D02*
X127590000Y-83253000D01*
X125314000Y-83293000D02*
X127670000Y-83293000D01*
X125241000Y-83333000D02*
X127743000Y-83333000D01*
X125173000Y-83373000D02*
X127811000Y-83373000D01*
X125109000Y-83413000D02*
X127875000Y-83413000D01*
X125049000Y-83453000D02*
X127935000Y-83453000D01*
X124992000Y-83493000D02*
X127992000Y-83493000D01*
X124938000Y-83533000D02*
X128046000Y-83533000D01*
X124887000Y-83573000D02*
X128097000Y-83573000D01*
X127532000Y-83613000D02*
X128145000Y-83613000D01*
X124839000Y-83613000D02*
X125452000Y-83613000D01*
X127532000Y-83653000D02*
X128191000Y-83653000D01*
X124793000Y-83653000D02*
X125452000Y-83653000D01*
X127532000Y-83693000D02*
X128235000Y-83693000D01*
X124749000Y-83693000D02*
X125452000Y-83693000D01*
X127532000Y-83733000D02*
X128277000Y-83733000D01*
X124707000Y-83733000D02*
X125452000Y-83733000D01*
X127532000Y-83773000D02*
X128318000Y-83773000D01*
X124666000Y-83773000D02*
X125452000Y-83773000D01*
X127532000Y-83813000D02*
X128356000Y-83813000D01*
X124628000Y-83813000D02*
X125452000Y-83813000D01*
X127532000Y-83853000D02*
X128393000Y-83853000D01*
X124591000Y-83853000D02*
X125452000Y-83853000D01*
X127532000Y-83893000D02*
X128429000Y-83893000D01*
X124555000Y-83893000D02*
X125452000Y-83893000D01*
X127532000Y-83933000D02*
X128463000Y-83933000D01*
X124521000Y-83933000D02*
X125452000Y-83933000D01*
X127532000Y-83973000D02*
X128496000Y-83973000D01*
X124488000Y-83973000D02*
X125452000Y-83973000D01*
X127532000Y-84013000D02*
X128527000Y-84013000D01*
X124457000Y-84013000D02*
X125452000Y-84013000D01*
X127532000Y-84053000D02*
X128557000Y-84053000D01*
X124427000Y-84053000D02*
X125452000Y-84053000D01*
X127532000Y-84093000D02*
X128587000Y-84093000D01*
X124397000Y-84093000D02*
X125452000Y-84093000D01*
X127532000Y-84133000D02*
X128614000Y-84133000D01*
X124370000Y-84133000D02*
X125452000Y-84133000D01*
X127532000Y-84173000D02*
X128641000Y-84173000D01*
X124343000Y-84173000D02*
X125452000Y-84173000D01*
X127532000Y-84213000D02*
X128667000Y-84213000D01*
X124317000Y-84213000D02*
X125452000Y-84213000D01*
X127532000Y-84253000D02*
X128692000Y-84253000D01*
X124292000Y-84253000D02*
X125452000Y-84253000D01*
X127532000Y-84293000D02*
X128716000Y-84293000D01*
X124268000Y-84293000D02*
X125452000Y-84293000D01*
X127532000Y-84333000D02*
X128739000Y-84333000D01*
X124245000Y-84333000D02*
X125452000Y-84333000D01*
X127532000Y-84373000D02*
X128760000Y-84373000D01*
X124224000Y-84373000D02*
X125452000Y-84373000D01*
X127532000Y-84413000D02*
X128782000Y-84413000D01*
X124202000Y-84413000D02*
X125452000Y-84413000D01*
X127532000Y-84453000D02*
X128802000Y-84453000D01*
X124182000Y-84453000D02*
X125452000Y-84453000D01*
X127532000Y-84493000D02*
X128821000Y-84493000D01*
X124163000Y-84493000D02*
X125452000Y-84493000D01*
X127532000Y-84533000D02*
X128840000Y-84533000D01*
X124144000Y-84533000D02*
X125452000Y-84533000D01*
X127532000Y-84573000D02*
X128857000Y-84573000D01*
X124127000Y-84573000D02*
X125452000Y-84573000D01*
X127532000Y-84613000D02*
X128874000Y-84613000D01*
X124110000Y-84613000D02*
X125452000Y-84613000D01*
X127532000Y-84653000D02*
X128890000Y-84653000D01*
X124094000Y-84653000D02*
X125452000Y-84653000D01*
X127532000Y-84693000D02*
X128906000Y-84693000D01*
X124078000Y-84693000D02*
X125452000Y-84693000D01*
X127532000Y-84733000D02*
X128920000Y-84733000D01*
X124064000Y-84733000D02*
X125452000Y-84733000D01*
X127532000Y-84773000D02*
X128934000Y-84773000D01*
X124050000Y-84773000D02*
X125452000Y-84773000D01*
X127532000Y-84813000D02*
X128947000Y-84813000D01*
X124037000Y-84813000D02*
X125452000Y-84813000D01*
X127532000Y-84853000D02*
X128960000Y-84853000D01*
X124024000Y-84853000D02*
X125452000Y-84853000D01*
X127532000Y-84893000D02*
X128972000Y-84893000D01*
X124012000Y-84893000D02*
X125452000Y-84893000D01*
X127532000Y-84934000D02*
X128983000Y-84934000D01*
X124001000Y-84934000D02*
X125452000Y-84934000D01*
X127532000Y-84974000D02*
X128993000Y-84974000D01*
X123991000Y-84974000D02*
X125452000Y-84974000D01*
X127532000Y-85014000D02*
X129003000Y-85014000D01*
X123981000Y-85014000D02*
X125452000Y-85014000D01*
X127532000Y-85054000D02*
X129012000Y-85054000D01*
X123972000Y-85054000D02*
X125452000Y-85054000D01*
X127532000Y-85094000D02*
X129020000Y-85094000D01*
X123964000Y-85094000D02*
X125452000Y-85094000D01*
X127532000Y-85134000D02*
X129028000Y-85134000D01*
X123956000Y-85134000D02*
X125452000Y-85134000D01*
X127532000Y-85174000D02*
X129035000Y-85174000D01*
X123949000Y-85174000D02*
X125452000Y-85174000D01*
X127532000Y-85214000D02*
X129042000Y-85214000D01*
X123942000Y-85214000D02*
X125452000Y-85214000D01*
X127532000Y-85254000D02*
X129048000Y-85254000D01*
X123936000Y-85254000D02*
X125452000Y-85254000D01*
X127532000Y-85294000D02*
X129053000Y-85294000D01*
X123931000Y-85294000D02*
X125452000Y-85294000D01*
X127532000Y-85334000D02*
X129057000Y-85334000D01*
X123927000Y-85334000D02*
X125452000Y-85334000D01*
X127532000Y-85374000D02*
X129061000Y-85374000D01*
X123923000Y-85374000D02*
X125452000Y-85374000D01*
X127532000Y-85414000D02*
X129065000Y-85414000D01*
X123919000Y-85414000D02*
X125452000Y-85414000D01*
X127532000Y-85454000D02*
X129068000Y-85454000D01*
X123916000Y-85454000D02*
X125452000Y-85454000D01*
X127532000Y-85494000D02*
X129070000Y-85494000D01*
X123914000Y-85494000D02*
X125452000Y-85494000D01*
X127532000Y-85534000D02*
X129071000Y-85534000D01*
X123913000Y-85534000D02*
X125452000Y-85534000D01*
X123912000Y-85574000D02*
X125452000Y-85574000D01*
X127532000Y-85574000D02*
X129072000Y-85574000D01*
X123912000Y-85614000D02*
X125452000Y-85614000D01*
X127532000Y-85614000D02*
X129072000Y-85614000D01*
X129112000Y-85614000D02*
G75*
G03*
X129112000Y-85614000I-2620000J0D01*
G01*
%TO.C,C3*%
X137264000Y-94580000D02*
X130024000Y-94580000D01*
X137264000Y-90840000D02*
X130024000Y-90840000D01*
X137264000Y-94580000D02*
X137264000Y-90840000D01*
X130024000Y-94580000D02*
X130024000Y-90840000D01*
%TO.C,C4*%
X133512000Y-82526000D02*
X137252000Y-82526000D01*
X133512000Y-89766000D02*
X137252000Y-89766000D01*
X137252000Y-89766000D02*
X137252000Y-82526000D01*
X133512000Y-89766000D02*
X133512000Y-82526000D01*
D12*
%TO.C,J1*%
X122936000Y-89154000D02*
X122936000Y-94234000D01*
X112776000Y-89154000D02*
X112776000Y-94234000D01*
X112776000Y-94742000D02*
X112776000Y-99822000D01*
X122936000Y-94742000D02*
X122936000Y-99822000D01*
X112776000Y-77978000D02*
X112776000Y-83058000D01*
X122936000Y-77978000D02*
X122936000Y-83058000D01*
X122936000Y-83566000D02*
X122936000Y-88646000D01*
X112776000Y-83566000D02*
X112776000Y-88646000D01*
D11*
%TO.C,L1*%
X127698000Y-96274000D02*
X127698000Y-99814000D01*
X127698000Y-99814000D02*
X134938000Y-99814000D01*
X134938000Y-99814000D02*
X134938000Y-96274000D01*
X134938000Y-96274000D02*
X127698000Y-96274000D01*
X127278000Y-98044000D02*
X127698000Y-98044000D01*
X135358000Y-98044000D02*
X134938000Y-98044000D01*
%TO.C,L2*%
X135358000Y-79756000D02*
X134938000Y-79756000D01*
X127278000Y-79756000D02*
X127698000Y-79756000D01*
X134938000Y-77986000D02*
X127698000Y-77986000D01*
X134938000Y-81526000D02*
X134938000Y-77986000D01*
X127698000Y-81526000D02*
X134938000Y-81526000D01*
X127698000Y-77986000D02*
X127698000Y-81526000D01*
%TO.C,J12*%
X207070000Y-83760000D02*
X204410000Y-83760000D01*
X207070000Y-91440000D02*
X207070000Y-83760000D01*
X204410000Y-91440000D02*
X204410000Y-83760000D01*
X207070000Y-91440000D02*
X204410000Y-91440000D01*
X207070000Y-92710000D02*
X207070000Y-94040000D01*
X207070000Y-94040000D02*
X205740000Y-94040000D01*
%TO.C,C1*%
D10*
X124309142Y-95416666D02*
X124356761Y-95464285D01*
X124404380Y-95607142D01*
X124404380Y-95702380D01*
X124356761Y-95845238D01*
X124261523Y-95940476D01*
X124166285Y-95988095D01*
X123975809Y-96035714D01*
X123832952Y-96035714D01*
X123642476Y-95988095D01*
X123547238Y-95940476D01*
X123452000Y-95845238D01*
X123404380Y-95702380D01*
X123404380Y-95607142D01*
X123452000Y-95464285D01*
X123499619Y-95416666D01*
X124404380Y-94464285D02*
X124404380Y-95035714D01*
X124404380Y-94750000D02*
X123404380Y-94750000D01*
X123547238Y-94845238D01*
X123642476Y-94940476D01*
X123690095Y-95035714D01*
%TO.C,C2*%
X124563142Y-82716666D02*
X124610761Y-82764285D01*
X124658380Y-82907142D01*
X124658380Y-83002380D01*
X124610761Y-83145238D01*
X124515523Y-83240476D01*
X124420285Y-83288095D01*
X124229809Y-83335714D01*
X124086952Y-83335714D01*
X123896476Y-83288095D01*
X123801238Y-83240476D01*
X123706000Y-83145238D01*
X123658380Y-83002380D01*
X123658380Y-82907142D01*
X123706000Y-82764285D01*
X123753619Y-82716666D01*
X123753619Y-82335714D02*
X123706000Y-82288095D01*
X123658380Y-82192857D01*
X123658380Y-81954761D01*
X123706000Y-81859523D01*
X123753619Y-81811904D01*
X123848857Y-81764285D01*
X123944095Y-81764285D01*
X124086952Y-81811904D01*
X124658380Y-82383333D01*
X124658380Y-81764285D01*
%TO.C,C3*%
X133477333Y-93067142D02*
X133429714Y-93114761D01*
X133286857Y-93162380D01*
X133191619Y-93162380D01*
X133048761Y-93114761D01*
X132953523Y-93019523D01*
X132905904Y-92924285D01*
X132858285Y-92733809D01*
X132858285Y-92590952D01*
X132905904Y-92400476D01*
X132953523Y-92305238D01*
X133048761Y-92210000D01*
X133191619Y-92162380D01*
X133286857Y-92162380D01*
X133429714Y-92210000D01*
X133477333Y-92257619D01*
X133810666Y-92162380D02*
X134429714Y-92162380D01*
X134096380Y-92543333D01*
X134239238Y-92543333D01*
X134334476Y-92590952D01*
X134382095Y-92638571D01*
X134429714Y-92733809D01*
X134429714Y-92971904D01*
X134382095Y-93067142D01*
X134334476Y-93114761D01*
X134239238Y-93162380D01*
X133953523Y-93162380D01*
X133858285Y-93114761D01*
X133810666Y-93067142D01*
%TO.C,C4*%
X135739142Y-86272666D02*
X135786761Y-86320285D01*
X135834380Y-86463142D01*
X135834380Y-86558380D01*
X135786761Y-86701238D01*
X135691523Y-86796476D01*
X135596285Y-86844095D01*
X135405809Y-86891714D01*
X135262952Y-86891714D01*
X135072476Y-86844095D01*
X134977238Y-86796476D01*
X134882000Y-86701238D01*
X134834380Y-86558380D01*
X134834380Y-86463142D01*
X134882000Y-86320285D01*
X134929619Y-86272666D01*
X135167714Y-85415523D02*
X135834380Y-85415523D01*
X134786761Y-85653619D02*
X135501047Y-85891714D01*
X135501047Y-85272666D01*
%TO.C,L1*%
X131151333Y-98496380D02*
X130675142Y-98496380D01*
X130675142Y-97496380D01*
X132008476Y-98496380D02*
X131437047Y-98496380D01*
X131722761Y-98496380D02*
X131722761Y-97496380D01*
X131627523Y-97639238D01*
X131532285Y-97734476D01*
X131437047Y-97782095D01*
%TO.C,L2*%
X131151333Y-80208380D02*
X130675142Y-80208380D01*
X130675142Y-79208380D01*
X131437047Y-79303619D02*
X131484666Y-79256000D01*
X131579904Y-79208380D01*
X131818000Y-79208380D01*
X131913238Y-79256000D01*
X131960857Y-79303619D01*
X132008476Y-79398857D01*
X132008476Y-79494095D01*
X131960857Y-79636952D01*
X131389428Y-80208380D01*
X132008476Y-80208380D01*
%TD*%
M02*
