M48
; DRILL file {KiCad (5.1.8-0-10_14)} date Sunday, January 31, 2021 at 04:03:21 PM
; FORMAT={-:-/ absolute / metric / decimal}
; #@! TF.CreationDate,2021-01-31T16:03:21+00:00
; #@! TF.GenerationSoftware,Kicad,Pcbnew,(5.1.8-0-10_14)
FMAT,2
METRIC
T1C0.800
T2C1.000
T3C1.524
T4C1.550
T5C3.200
%
G90
G05
T1
X126.492Y-84.614
X126.492Y-86.614
X126.492Y-91.218
X126.492Y-93.218
X126.238Y-98.044
X136.398Y-98.044
X135.382Y-83.646
X135.382Y-88.646
X126.238Y-79.756
X136.398Y-79.756
X131.144Y-92.71
X136.144Y-92.71
T2
X205.74Y-85.09
X205.74Y-87.63
X205.74Y-90.17
X205.74Y-92.71
T3
X115.316Y-80.518
X115.316Y-86.106
X115.316Y-91.694
X115.316Y-97.282
X120.396Y-80.518
X120.396Y-86.106
X120.396Y-91.694
X120.396Y-97.282
T4
X199.898Y-81.534
X199.898Y-86.334
X199.898Y-91.134
X199.898Y-95.934
X142.748Y-81.612
X142.748Y-86.412
X142.748Y-91.212
X142.748Y-96.012
X187.198Y-81.534
X187.198Y-86.334
X187.198Y-91.134
X187.198Y-95.934
X180.848Y-81.612
X180.848Y-86.412
X180.848Y-91.212
X180.848Y-96.012
X155.448Y-81.612
X155.448Y-86.412
X155.448Y-91.212
X155.448Y-96.012
X168.148Y-81.612
X168.148Y-86.412
X168.148Y-91.212
X168.148Y-96.012
X149.098Y-81.612
X149.098Y-86.412
X149.098Y-91.212
X149.098Y-96.012
X174.498Y-81.612
X174.498Y-86.412
X174.498Y-91.212
X174.498Y-96.012
X193.548Y-81.534
X193.548Y-86.334
X193.548Y-91.134
X193.548Y-95.934
X161.798Y-81.534
X161.798Y-86.334
X161.798Y-91.134
X161.798Y-95.934
T5
X250.19Y-97.79
X105.41Y-97.79
X250.19Y-80.01
X105.41Y-80.01
T0
M30
