%TF.GenerationSoftware,KiCad,Pcbnew,(5.1.8-0-10_14)*%
%TF.CreationDate,2021-07-08T18:47:32+01:00*%
%TF.ProjectId,serge-r6-gate-ringmod,73657267-652d-4723-962d-676174652d72,rev?*%
%TF.SameCoordinates,Original*%
%TF.FileFunction,Profile,NP*%
%FSLAX46Y46*%
G04 Gerber Fmt 4.6, Leading zero omitted, Abs format (unit mm)*
G04 Created by KiCad (PCBNEW (5.1.8-0-10_14)) date 2021-07-08 18:47:32*
%MOMM*%
%LPD*%
G01*
G04 APERTURE LIST*
%TA.AperFunction,Profile*%
%ADD10C,0.050000*%
%TD*%
G04 APERTURE END LIST*
D10*
X111887000Y-176530000D02*
X111887000Y-174942500D01*
X114427000Y-174942500D02*
X114427000Y-176530000D01*
X111887000Y-170243500D02*
X111887000Y-152971500D01*
X114427000Y-152971500D02*
X114427000Y-170243500D01*
X111887000Y-148272500D02*
X111887000Y-130238500D01*
X114427000Y-130238500D02*
X114427000Y-148272500D01*
X111887000Y-125539500D02*
X111887000Y-105854500D01*
X114427000Y-105854500D02*
X114427000Y-125539500D01*
X111887000Y-78168500D02*
X111887000Y-101155500D01*
X114427000Y-78168500D02*
X114427000Y-101155500D01*
X111887000Y-73469500D02*
X111887000Y-53149500D01*
X114427000Y-53149500D02*
X114427000Y-73469500D01*
X111887000Y-48450500D02*
X111887000Y-33020000D01*
X114427000Y-33020000D02*
X114427000Y-48450500D01*
X114427000Y-48450500D02*
G75*
G02*
X111887000Y-48450500I-1270000J0D01*
G01*
X111887000Y-53149500D02*
G75*
G02*
X114427000Y-53149500I1270000J0D01*
G01*
X114427000Y-73469500D02*
G75*
G02*
X111887000Y-73469500I-1270000J0D01*
G01*
X111887000Y-78168500D02*
G75*
G02*
X114427000Y-78168500I1270000J0D01*
G01*
X114427000Y-101155500D02*
G75*
G02*
X111887000Y-101155500I-1270000J0D01*
G01*
X111887000Y-105854500D02*
G75*
G02*
X114427000Y-105854500I1270000J0D01*
G01*
X114427000Y-125539500D02*
G75*
G02*
X111887000Y-125539500I-1270000J0D01*
G01*
X111887000Y-130238500D02*
G75*
G02*
X114427000Y-130238500I1270000J0D01*
G01*
X114427000Y-148272500D02*
G75*
G02*
X111887000Y-148272500I-1270000J0D01*
G01*
X111887000Y-152971500D02*
G75*
G02*
X114427000Y-152971500I1270000J0D01*
G01*
X114427000Y-170243500D02*
G75*
G02*
X111887000Y-170243500I-1270000J0D01*
G01*
X111887000Y-174942500D02*
G75*
G02*
X114427000Y-174942500I1270000J0D01*
G01*
X111887000Y-176530000D02*
G75*
G02*
X110617000Y-177800000I-1270000J0D01*
G01*
X88011000Y-177800000D02*
G75*
G02*
X86741000Y-176530000I0J1270000D01*
G01*
X86741000Y-33020000D02*
G75*
G02*
X88011000Y-31750000I1270000J0D01*
G01*
X115697000Y-177800000D02*
G75*
G02*
X114427000Y-176530000I0J1270000D01*
G01*
X139573000Y-176530000D02*
G75*
G02*
X138303000Y-177800000I-1270000J0D01*
G01*
X138303000Y-31750000D02*
G75*
G02*
X139573000Y-33020000I0J-1270000D01*
G01*
X110617000Y-31750000D02*
G75*
G02*
X111887000Y-33020000I0J-1270000D01*
G01*
X114427000Y-33020000D02*
G75*
G02*
X115697000Y-31750000I1270000J0D01*
G01*
X138303000Y-177800000D02*
X115697000Y-177800000D01*
X139573000Y-33020000D02*
X139573000Y-176530000D01*
X115697000Y-31750000D02*
X138303000Y-31750000D01*
X86741000Y-33020000D02*
X86741000Y-176530000D01*
X110617000Y-31750000D02*
X88011000Y-31750000D01*
X88011000Y-177800000D02*
X110617000Y-177800000D01*
M02*
