%TF.GenerationSoftware,KiCad,Pcbnew,(5.1.8-0-10_14)*%
%TF.CreationDate,2021-07-08T18:47:32+01:00*%
%TF.ProjectId,serge-r6-gate-ringmod,73657267-652d-4723-962d-676174652d72,rev?*%
%TF.SameCoordinates,Original*%
%TF.FileFunction,Legend,Bot*%
%TF.FilePolarity,Positive*%
%FSLAX46Y46*%
G04 Gerber Fmt 4.6, Leading zero omitted, Abs format (unit mm)*
G04 Created by KiCad (PCBNEW (5.1.8-0-10_14)) date 2021-07-08 18:47:32*
%MOMM*%
%LPD*%
G01*
G04 APERTURE LIST*
%ADD10C,0.120000*%
%ADD11C,0.150000*%
G04 APERTURE END LIST*
D10*
%TO.C,J8*%
X117475000Y-79950000D02*
X116145000Y-79950000D01*
X116145000Y-79950000D02*
X116145000Y-81280000D01*
X116145000Y-82550000D02*
X116145000Y-100390000D01*
X118805000Y-100390000D02*
X116145000Y-100390000D01*
X118805000Y-82550000D02*
X118805000Y-100390000D01*
X118805000Y-82550000D02*
X116145000Y-82550000D01*
%TO.C,J7*%
X110169000Y-79950000D02*
X108839000Y-79950000D01*
X110169000Y-81280000D02*
X110169000Y-79950000D01*
X110169000Y-82550000D02*
X107509000Y-82550000D01*
X107509000Y-82550000D02*
X107509000Y-100390000D01*
X110169000Y-82550000D02*
X110169000Y-100390000D01*
X110169000Y-100390000D02*
X107509000Y-100390000D01*
%TO.C,J8*%
D11*
X117808333Y-77962380D02*
X117808333Y-78676666D01*
X117855952Y-78819523D01*
X117951190Y-78914761D01*
X118094047Y-78962380D01*
X118189285Y-78962380D01*
X117189285Y-78390952D02*
X117284523Y-78343333D01*
X117332142Y-78295714D01*
X117379761Y-78200476D01*
X117379761Y-78152857D01*
X117332142Y-78057619D01*
X117284523Y-78010000D01*
X117189285Y-77962380D01*
X116998809Y-77962380D01*
X116903571Y-78010000D01*
X116855952Y-78057619D01*
X116808333Y-78152857D01*
X116808333Y-78200476D01*
X116855952Y-78295714D01*
X116903571Y-78343333D01*
X116998809Y-78390952D01*
X117189285Y-78390952D01*
X117284523Y-78438571D01*
X117332142Y-78486190D01*
X117379761Y-78581428D01*
X117379761Y-78771904D01*
X117332142Y-78867142D01*
X117284523Y-78914761D01*
X117189285Y-78962380D01*
X116998809Y-78962380D01*
X116903571Y-78914761D01*
X116855952Y-78867142D01*
X116808333Y-78771904D01*
X116808333Y-78581428D01*
X116855952Y-78486190D01*
X116903571Y-78438571D01*
X116998809Y-78390952D01*
%TO.C,J7*%
X109172333Y-78402380D02*
X109172333Y-79116666D01*
X109219952Y-79259523D01*
X109315190Y-79354761D01*
X109458047Y-79402380D01*
X109553285Y-79402380D01*
X108791380Y-78402380D02*
X108124714Y-78402380D01*
X108553285Y-79402380D01*
%TD*%
M02*
