M48
; DRILL file {KiCad (5.1.8-0-10_14)} date Thursday, July 08, 2021 at 06:47:35 PM
; FORMAT={-:-/ absolute / metric / decimal}
; #@! TF.CreationDate,2021-07-08T18:47:35+01:00
; #@! TF.GenerationSoftware,Kicad,Pcbnew,(5.1.8-0-10_14)
FMAT,2
METRIC
T1C0.750
T2C0.800
T3C0.900
T4C1.000
T5C1.100
T6C1.190
T7C5.100
T8C0.500
T9C3.200
%
G90
G05
T1
X130.81Y-53.34
X130.81Y-54.61
X130.81Y-55.88
X131.445Y-48.26
X132.715Y-48.26
X133.985Y-48.26
X135.89Y-53.34
X135.89Y-54.61
X135.89Y-55.88
T2
X118.11Y-45.085
X128.27Y-45.085
X118.11Y-35.56
X128.27Y-35.56
X121.92Y-97.155
X132.08Y-97.155
X102.362Y-37.592
X121.92Y-84.455
X132.08Y-84.455
X102.362Y-113.792
X118.11Y-48.26
X128.27Y-48.26
X121.92Y-90.805
X126.92Y-90.805
X116.88Y-172.085
X119.38Y-172.085
X135.255Y-87.63
X135.255Y-97.79
X127.0Y-64.77
X137.16Y-64.77
X134.62Y-172.085
X137.12Y-172.085
X127.635Y-142.875
X137.795Y-142.875
X132.16Y-67.945
X137.16Y-67.945
X135.255Y-74.295
X135.255Y-84.455
X127.635Y-146.05
X137.795Y-146.05
X121.92Y-93.98
X132.08Y-93.98
X102.362Y-62.992
X118.11Y-38.735
X128.27Y-38.735
X135.89Y-111.125
X135.89Y-116.125
X127.0Y-61.595
X137.16Y-61.595
X121.92Y-81.28
X132.08Y-81.28
X121.92Y-100.33
X126.92Y-100.33
X127.635Y-149.225
X137.795Y-149.225
X137.16Y-39.37
X137.16Y-49.53
X123.19Y-132.08
X123.19Y-134.62
X123.19Y-137.16
X123.19Y-139.7
X130.81Y-132.08
X130.81Y-134.62
X130.81Y-137.16
X130.81Y-139.7
X132.715Y-113.665
X132.715Y-123.825
X102.362Y-88.392
X121.92Y-74.93
X132.08Y-74.93
X120.015Y-137.16
X120.015Y-142.16
X121.285Y-154.94
X121.285Y-165.1
X127.635Y-152.4
X137.795Y-152.4
X137.16Y-127.0
X137.16Y-137.16
X118.745Y-111.205
X118.745Y-116.205
X121.92Y-78.105
X132.08Y-78.105
X121.92Y-87.63
X132.08Y-87.63
X102.362Y-139.192
X128.35Y-128.905
X133.35Y-128.905
X121.92Y-111.125
X121.92Y-113.665
X121.92Y-116.205
X121.92Y-118.745
X129.54Y-111.125
X129.54Y-113.665
X129.54Y-116.205
X129.54Y-118.745
T3
X117.475Y-154.94
X117.475Y-162.56
X120.65Y-41.91
X128.27Y-41.91
T4
X124.46Y-146.05
X124.46Y-148.59
X117.475Y-81.28
X117.475Y-83.82
X117.475Y-86.36
X117.475Y-88.9
X117.475Y-91.44
X117.475Y-93.98
X117.475Y-96.52
X117.475Y-99.06
X97.094Y-175.14
X99.594Y-175.14
X102.094Y-175.14
X96.774Y-101.6
X99.314Y-101.6
X101.854Y-101.6
X121.92Y-68.58
X124.46Y-68.58
X127.0Y-68.58
X108.839Y-81.28
X108.839Y-83.82
X108.839Y-86.36
X108.839Y-88.9
X108.839Y-91.44
X108.839Y-93.98
X108.839Y-96.52
X108.839Y-99.06
X96.774Y-107.95
X99.314Y-107.95
X101.854Y-107.95
T5
X127.715Y-161.29
X130.215Y-158.79
X132.715Y-161.29
X120.69Y-55.205
X123.19Y-52.705
X123.19Y-57.705
X130.89Y-104.775
X133.39Y-102.275
X135.89Y-104.775
T6
X123.19Y-172.085
X125.73Y-172.085
X128.27Y-172.085
X130.81Y-172.085
T7
X99.314Y-40.64
X99.314Y-116.84
X99.314Y-66.04
X99.314Y-91.44
X99.314Y-142.24
T8
X112.057Y-149.822
X112.057Y-150.622
X112.057Y-151.422
X114.257Y-149.822
X114.257Y-150.622
X114.257Y-151.422
X112.057Y-127.089
X112.057Y-127.889
X112.057Y-128.689
X114.257Y-127.089
X114.257Y-127.889
X114.257Y-128.689
X112.057Y-102.705
X112.057Y-103.505
X112.057Y-104.305
X114.257Y-102.705
X114.257Y-103.505
X114.257Y-104.305
X112.057Y-171.793
X112.057Y-172.593
X112.057Y-173.393
X114.257Y-171.793
X114.257Y-172.593
X114.257Y-173.393
X112.057Y-50.0
X112.057Y-50.8
X112.057Y-51.6
X114.257Y-50.0
X114.257Y-50.8
X114.257Y-51.6
X112.057Y-75.019
X112.057Y-75.819
X112.057Y-76.619
X114.257Y-75.019
X114.257Y-75.819
X114.257Y-76.619
T9
X118.11Y-62.23
X123.19Y-125.73
X103.124Y-125.73
X108.204Y-62.23
T5
G00X94.794Y-167.99
M15
G01X94.794Y-167.29
M16
G05
G00X104.394Y-167.99
M15
G01X104.394Y-167.29
M16
G05
T0
M30
