%TF.GenerationSoftware,KiCad,Pcbnew,(5.1.8-0-10_14)*%
%TF.CreationDate,2021-07-08T18:47:32+01:00*%
%TF.ProjectId,serge-r6-gate-ringmod,73657267-652d-4723-962d-676174652d72,rev?*%
%TF.SameCoordinates,Original*%
%TF.FileFunction,Soldermask,Top*%
%TF.FilePolarity,Negative*%
%FSLAX46Y46*%
G04 Gerber Fmt 4.6, Leading zero omitted, Abs format (unit mm)*
G04 Created by KiCad (PCBNEW (5.1.8-0-10_14)) date 2021-07-08 18:47:32*
%MOMM*%
%LPD*%
G01*
G04 APERTURE LIST*
%ADD10C,0.500000*%
%ADD11O,1.700000X1.700000*%
%ADD12R,1.700000X1.700000*%
%ADD13C,3.200000*%
%ADD14O,1.740000X2.190000*%
%ADD15C,1.600000*%
%ADD16O,1.600000X1.600000*%
%ADD17R,1.600000X1.600000*%
%ADD18O,2.720000X3.240000*%
%ADD19C,1.800000*%
%ADD20R,1.800000X1.800000*%
%ADD21C,2.000000*%
%ADD22R,1.500000X1.050000*%
%ADD23O,1.500000X1.050000*%
%ADD24R,1.050000X1.500000*%
%ADD25O,1.050000X1.500000*%
%ADD26C,6.500000*%
%ADD27O,1.800000X1.800000*%
G04 APERTURE END LIST*
D10*
%TO.C,mouse-bite-2.54mm-slot*%
X114257000Y-171793000D03*
X114257000Y-173393000D03*
X112057000Y-173393000D03*
X112057000Y-171793000D03*
X114257000Y-172593000D03*
X112057000Y-172593000D03*
%TD*%
%TO.C,mouse-bite-2.54mm-slot*%
X114257000Y-149822000D03*
X114257000Y-151422000D03*
X112057000Y-151422000D03*
X112057000Y-149822000D03*
X114257000Y-150622000D03*
X112057000Y-150622000D03*
%TD*%
%TO.C,mouse-bite-2.54mm-slot*%
X114257000Y-127089000D03*
X114257000Y-128689000D03*
X112057000Y-128689000D03*
X112057000Y-127089000D03*
X114257000Y-127889000D03*
X112057000Y-127889000D03*
%TD*%
%TO.C,mouse-bite-2.54mm-slot*%
X114257000Y-102705000D03*
X114257000Y-104305000D03*
X112057000Y-104305000D03*
X112057000Y-102705000D03*
X114257000Y-103505000D03*
X112057000Y-103505000D03*
%TD*%
%TO.C,mouse-bite-2.54mm-slot*%
X114257000Y-75019000D03*
X114257000Y-76619000D03*
X112057000Y-76619000D03*
X112057000Y-75019000D03*
X114257000Y-75819000D03*
X112057000Y-75819000D03*
%TD*%
%TO.C,mouse-bite-2.54mm-slot*%
X114257000Y-50000000D03*
X114257000Y-51600000D03*
X112057000Y-51600000D03*
X112057000Y-50000000D03*
X114257000Y-50800000D03*
X112057000Y-50800000D03*
%TD*%
D11*
%TO.C,J11*%
X96774000Y-107950000D03*
X99314000Y-107950000D03*
D12*
X101854000Y-107950000D03*
%TD*%
D11*
%TO.C,J10*%
X101854000Y-101600000D03*
X99314000Y-101600000D03*
D12*
X96774000Y-101600000D03*
%TD*%
D13*
%TO.C,H4*%
X108204000Y-62230000D03*
%TD*%
%TO.C,H3*%
X118110000Y-62230000D03*
%TD*%
D14*
%TO.C,J9*%
X130810000Y-172085000D03*
X128270000Y-172085000D03*
X125730000Y-172085000D03*
G36*
G01*
X122320000Y-172930001D02*
X122320000Y-171239999D01*
G75*
G02*
X122569999Y-170990000I249999J0D01*
G01*
X123810001Y-170990000D01*
G75*
G02*
X124060000Y-171239999I0J-249999D01*
G01*
X124060000Y-172930001D01*
G75*
G02*
X123810001Y-173180000I-249999J0D01*
G01*
X122569999Y-173180000D01*
G75*
G02*
X122320000Y-172930001I0J249999D01*
G01*
G37*
%TD*%
D15*
%TO.C,C9*%
X133350000Y-128905000D03*
X128350000Y-128905000D03*
%TD*%
%TO.C,C8*%
X120015000Y-142160000D03*
X120015000Y-137160000D03*
%TD*%
%TO.C,C7*%
X135890000Y-111125000D03*
X135890000Y-116125000D03*
%TD*%
%TO.C,C6*%
X118745000Y-111205000D03*
X118745000Y-116205000D03*
%TD*%
%TO.C,C3*%
X126920000Y-100330000D03*
X121920000Y-100330000D03*
%TD*%
%TO.C,C2*%
X137160000Y-67945000D03*
X132160000Y-67945000D03*
%TD*%
%TO.C,C1*%
X121920000Y-90805000D03*
X126920000Y-90805000D03*
%TD*%
D16*
%TO.C,U2*%
X121920000Y-118745000D03*
X129540000Y-111125000D03*
X121920000Y-116205000D03*
X129540000Y-113665000D03*
X121920000Y-113665000D03*
X129540000Y-116205000D03*
X121920000Y-111125000D03*
D17*
X129540000Y-118745000D03*
%TD*%
D16*
%TO.C,U1*%
X123190000Y-139700000D03*
X130810000Y-132080000D03*
X123190000Y-137160000D03*
X130810000Y-134620000D03*
X123190000Y-134620000D03*
X130810000Y-137160000D03*
X123190000Y-132080000D03*
D17*
X130810000Y-139700000D03*
%TD*%
D18*
%TO.C,RV4*%
X94794000Y-167640000D03*
X104394000Y-167640000D03*
D19*
X102094000Y-175140000D03*
X99594000Y-175140000D03*
D20*
X97094000Y-175140000D03*
%TD*%
D21*
%TO.C,RV3*%
X120690000Y-55205000D03*
X123190000Y-57705000D03*
X123190000Y-52705000D03*
%TD*%
%TO.C,RV2*%
X135890000Y-104775000D03*
X130890000Y-104775000D03*
X133390000Y-102275000D03*
%TD*%
%TO.C,RV1*%
X132715000Y-161290000D03*
X127715000Y-161290000D03*
X130215000Y-158790000D03*
%TD*%
D16*
%TO.C,R23*%
X121285000Y-165100000D03*
D15*
X121285000Y-154940000D03*
%TD*%
D16*
%TO.C,R22*%
X132080000Y-93980000D03*
D15*
X121920000Y-93980000D03*
%TD*%
D16*
%TO.C,R21*%
X132080000Y-97155000D03*
D15*
X121920000Y-97155000D03*
%TD*%
D16*
%TO.C,R20*%
X137160000Y-64770000D03*
D15*
X127000000Y-64770000D03*
%TD*%
%TO.C,R19*%
X121920000Y-78105000D03*
D16*
X132080000Y-78105000D03*
%TD*%
%TO.C,R18*%
X132715000Y-123825000D03*
D15*
X132715000Y-113665000D03*
%TD*%
D16*
%TO.C,R17*%
X137160000Y-61595000D03*
D15*
X127000000Y-61595000D03*
%TD*%
D16*
%TO.C,R16*%
X135255000Y-84455000D03*
D15*
X135255000Y-74295000D03*
%TD*%
D16*
%TO.C,R15*%
X135255000Y-97790000D03*
D15*
X135255000Y-87630000D03*
%TD*%
D16*
%TO.C,R14*%
X128270000Y-48260000D03*
D15*
X118110000Y-48260000D03*
%TD*%
D16*
%TO.C,R13*%
X128270000Y-45085000D03*
D15*
X118110000Y-45085000D03*
%TD*%
D16*
%TO.C,R12*%
X127635000Y-152400000D03*
D15*
X137795000Y-152400000D03*
%TD*%
D16*
%TO.C,R11*%
X127635000Y-149225000D03*
D15*
X137795000Y-149225000D03*
%TD*%
D16*
%TO.C,R10*%
X128270000Y-38735000D03*
D15*
X118110000Y-38735000D03*
%TD*%
D16*
%TO.C,R9*%
X127635000Y-142875000D03*
D15*
X137795000Y-142875000D03*
%TD*%
D16*
%TO.C,R8*%
X128270000Y-35560000D03*
D15*
X118110000Y-35560000D03*
%TD*%
D16*
%TO.C,R7*%
X137160000Y-127000000D03*
D15*
X137160000Y-137160000D03*
%TD*%
D16*
%TO.C,R6*%
X137160000Y-39370000D03*
D15*
X137160000Y-49530000D03*
%TD*%
D16*
%TO.C,R5*%
X132080000Y-84455000D03*
D15*
X121920000Y-84455000D03*
%TD*%
D16*
%TO.C,R4*%
X132080000Y-87630000D03*
D15*
X121920000Y-87630000D03*
%TD*%
D16*
%TO.C,R3*%
X121920000Y-74930000D03*
D15*
X132080000Y-74930000D03*
%TD*%
D16*
%TO.C,R2*%
X121920000Y-81280000D03*
D15*
X132080000Y-81280000D03*
%TD*%
D16*
%TO.C,R1*%
X127635000Y-146050000D03*
D15*
X137795000Y-146050000D03*
%TD*%
D22*
%TO.C,Q3*%
X130810000Y-53340000D03*
D23*
X130810000Y-55880000D03*
X130810000Y-54610000D03*
%TD*%
D24*
%TO.C,Q2*%
X131445000Y-48260000D03*
D25*
X133985000Y-48260000D03*
X132715000Y-48260000D03*
%TD*%
D22*
%TO.C,Q1*%
X135890000Y-53340000D03*
D23*
X135890000Y-55880000D03*
X135890000Y-54610000D03*
%TD*%
D11*
%TO.C,JP1*%
X124460000Y-146050000D03*
D12*
X124460000Y-148590000D03*
%TD*%
D11*
%TO.C,J8*%
X117475000Y-99060000D03*
X117475000Y-96520000D03*
X117475000Y-93980000D03*
X117475000Y-91440000D03*
X117475000Y-88900000D03*
X117475000Y-86360000D03*
X117475000Y-83820000D03*
D12*
X117475000Y-81280000D03*
%TD*%
D11*
%TO.C,J7*%
X108839000Y-99060000D03*
X108839000Y-96520000D03*
X108839000Y-93980000D03*
X108839000Y-91440000D03*
X108839000Y-88900000D03*
X108839000Y-86360000D03*
X108839000Y-83820000D03*
D12*
X108839000Y-81280000D03*
%TD*%
D15*
%TO.C,J6*%
X102362000Y-37592000D03*
D26*
X99314000Y-40640000D03*
%TD*%
D15*
%TO.C,J5*%
X102362000Y-62992000D03*
D26*
X99314000Y-66040000D03*
%TD*%
D11*
%TO.C,J4*%
X127000000Y-68580000D03*
X124460000Y-68580000D03*
D12*
X121920000Y-68580000D03*
%TD*%
D15*
%TO.C,J3*%
X102362000Y-113792000D03*
D26*
X99314000Y-116840000D03*
%TD*%
D15*
%TO.C,J2*%
X102362000Y-139192000D03*
D26*
X99314000Y-142240000D03*
%TD*%
D15*
%TO.C,J1*%
X102362000Y-88392000D03*
D26*
X99314000Y-91440000D03*
%TD*%
D13*
%TO.C,H2*%
X123190000Y-125730000D03*
%TD*%
%TO.C,H1*%
X103124000Y-125730000D03*
%TD*%
D27*
%TO.C,D2*%
X117475000Y-162560000D03*
D20*
X117475000Y-154940000D03*
%TD*%
D27*
%TO.C,D1*%
X120650000Y-41910000D03*
D20*
X128270000Y-41910000D03*
%TD*%
D15*
%TO.C,C5*%
X134620000Y-172085000D03*
D17*
X137120000Y-172085000D03*
%TD*%
D15*
%TO.C,C4*%
X116880000Y-172085000D03*
D17*
X119380000Y-172085000D03*
%TD*%
M02*
