%TF.GenerationSoftware,KiCad,Pcbnew,(5.1.8-0-10_14)*%
%TF.CreationDate,2021-10-30T13:37:44+01:00*%
%TF.ProjectId,4u-2col-spiral-tiled,34752d32-636f-46c2-9d73-706972616c2d,rev?*%
%TF.SameCoordinates,Original*%
%TF.FileFunction,Copper,L2,Bot*%
%TF.FilePolarity,Positive*%
%FSLAX46Y46*%
G04 Gerber Fmt 4.6, Leading zero omitted, Abs format (unit mm)*
G04 Created by KiCad (PCBNEW (5.1.8-0-10_14)) date 2021-10-30 13:37:44*
%MOMM*%
%LPD*%
G01*
G04 APERTURE LIST*
%TA.AperFunction,EtchedComponent*%
%ADD10C,0.010000*%
%TD*%
%TA.AperFunction,ComponentPad*%
%ADD11O,7.000000X4.000000*%
%TD*%
G04 APERTURE END LIST*
D10*
%TO.C,Ref\u002A\u002A*%
G36*
X152225141Y-177935067D02*
G01*
X152311628Y-177983851D01*
X152428730Y-178050467D01*
X152574467Y-178133768D01*
X152746855Y-178232602D01*
X152943912Y-178345822D01*
X153163658Y-178472278D01*
X153404108Y-178610821D01*
X153663282Y-178760301D01*
X153939198Y-178919568D01*
X154229873Y-179087475D01*
X154533324Y-179262870D01*
X154847571Y-179444606D01*
X155170631Y-179631533D01*
X155500522Y-179822501D01*
X155835262Y-180016361D01*
X156172868Y-180211963D01*
X156511359Y-180408160D01*
X156848753Y-180603800D01*
X157183067Y-180797735D01*
X157512320Y-180988816D01*
X157834529Y-181175893D01*
X158147712Y-181357817D01*
X158449887Y-181533439D01*
X158739073Y-181701609D01*
X159013286Y-181861177D01*
X159270546Y-182010996D01*
X159508869Y-182149915D01*
X159726275Y-182276785D01*
X159920780Y-182390457D01*
X160090402Y-182489781D01*
X160233160Y-182573608D01*
X160347072Y-182640789D01*
X160430155Y-182690175D01*
X160480427Y-182720616D01*
X160495995Y-182730930D01*
X160477428Y-182742972D01*
X160424160Y-182774998D01*
X160338172Y-182825862D01*
X160221448Y-182894419D01*
X160075968Y-182979524D01*
X159903716Y-183080030D01*
X159706673Y-183194792D01*
X159486820Y-183322665D01*
X159246141Y-183462502D01*
X158986617Y-183613159D01*
X158710230Y-183773489D01*
X158418963Y-183942347D01*
X158114797Y-184118587D01*
X157799714Y-184301065D01*
X157475696Y-184488633D01*
X157144725Y-184680148D01*
X156808784Y-184874462D01*
X156469855Y-185070431D01*
X156129919Y-185266908D01*
X155790958Y-185462749D01*
X155454955Y-185656807D01*
X155123891Y-185847938D01*
X154799749Y-186034995D01*
X154484510Y-186216833D01*
X154180157Y-186392306D01*
X153888672Y-186560268D01*
X153612036Y-186719575D01*
X153352233Y-186869080D01*
X153111242Y-187007638D01*
X152891048Y-187134103D01*
X152693631Y-187247330D01*
X152520975Y-187346173D01*
X152375060Y-187429486D01*
X152257869Y-187496124D01*
X152171384Y-187544942D01*
X152117587Y-187574793D01*
X152098667Y-187584520D01*
X152077642Y-187574802D01*
X152021617Y-187544808D01*
X151932225Y-187495472D01*
X151811101Y-187427729D01*
X151659880Y-187342512D01*
X151480197Y-187240755D01*
X151273688Y-187123393D01*
X151041986Y-186991360D01*
X150786728Y-186845590D01*
X150509547Y-186687018D01*
X150212079Y-186516577D01*
X149895959Y-186335202D01*
X149562821Y-186143826D01*
X149214302Y-185943385D01*
X148852034Y-185734812D01*
X148477655Y-185519041D01*
X148092797Y-185297007D01*
X147861486Y-185163451D01*
X147471671Y-184938207D01*
X147091747Y-184718472D01*
X146723326Y-184505187D01*
X146368023Y-184299295D01*
X146027452Y-184101736D01*
X145703225Y-183913451D01*
X145396957Y-183735383D01*
X145110260Y-183568471D01*
X144844750Y-183413658D01*
X144602038Y-183271886D01*
X144383740Y-183144094D01*
X144191468Y-183031225D01*
X144026836Y-182934220D01*
X143891457Y-182854020D01*
X143786946Y-182791566D01*
X143714916Y-182747801D01*
X143676981Y-182723665D01*
X143671258Y-182718994D01*
X143690748Y-182707110D01*
X143745275Y-182675014D01*
X143833211Y-182623649D01*
X143952926Y-182553959D01*
X144102789Y-182466888D01*
X144281171Y-182363379D01*
X144486441Y-182244375D01*
X144716971Y-182110821D01*
X144971129Y-181963660D01*
X145247287Y-181803836D01*
X145543814Y-181632291D01*
X145859081Y-181449970D01*
X146191457Y-181257816D01*
X146539313Y-181056774D01*
X146901019Y-180847785D01*
X147274944Y-180631795D01*
X147659460Y-180409746D01*
X147884942Y-180279562D01*
X152083424Y-177855719D01*
X152225141Y-177935067D01*
G37*
X152225141Y-177935067D02*
X152311628Y-177983851D01*
X152428730Y-178050467D01*
X152574467Y-178133768D01*
X152746855Y-178232602D01*
X152943912Y-178345822D01*
X153163658Y-178472278D01*
X153404108Y-178610821D01*
X153663282Y-178760301D01*
X153939198Y-178919568D01*
X154229873Y-179087475D01*
X154533324Y-179262870D01*
X154847571Y-179444606D01*
X155170631Y-179631533D01*
X155500522Y-179822501D01*
X155835262Y-180016361D01*
X156172868Y-180211963D01*
X156511359Y-180408160D01*
X156848753Y-180603800D01*
X157183067Y-180797735D01*
X157512320Y-180988816D01*
X157834529Y-181175893D01*
X158147712Y-181357817D01*
X158449887Y-181533439D01*
X158739073Y-181701609D01*
X159013286Y-181861177D01*
X159270546Y-182010996D01*
X159508869Y-182149915D01*
X159726275Y-182276785D01*
X159920780Y-182390457D01*
X160090402Y-182489781D01*
X160233160Y-182573608D01*
X160347072Y-182640789D01*
X160430155Y-182690175D01*
X160480427Y-182720616D01*
X160495995Y-182730930D01*
X160477428Y-182742972D01*
X160424160Y-182774998D01*
X160338172Y-182825862D01*
X160221448Y-182894419D01*
X160075968Y-182979524D01*
X159903716Y-183080030D01*
X159706673Y-183194792D01*
X159486820Y-183322665D01*
X159246141Y-183462502D01*
X158986617Y-183613159D01*
X158710230Y-183773489D01*
X158418963Y-183942347D01*
X158114797Y-184118587D01*
X157799714Y-184301065D01*
X157475696Y-184488633D01*
X157144725Y-184680148D01*
X156808784Y-184874462D01*
X156469855Y-185070431D01*
X156129919Y-185266908D01*
X155790958Y-185462749D01*
X155454955Y-185656807D01*
X155123891Y-185847938D01*
X154799749Y-186034995D01*
X154484510Y-186216833D01*
X154180157Y-186392306D01*
X153888672Y-186560268D01*
X153612036Y-186719575D01*
X153352233Y-186869080D01*
X153111242Y-187007638D01*
X152891048Y-187134103D01*
X152693631Y-187247330D01*
X152520975Y-187346173D01*
X152375060Y-187429486D01*
X152257869Y-187496124D01*
X152171384Y-187544942D01*
X152117587Y-187574793D01*
X152098667Y-187584520D01*
X152077642Y-187574802D01*
X152021617Y-187544808D01*
X151932225Y-187495472D01*
X151811101Y-187427729D01*
X151659880Y-187342512D01*
X151480197Y-187240755D01*
X151273688Y-187123393D01*
X151041986Y-186991360D01*
X150786728Y-186845590D01*
X150509547Y-186687018D01*
X150212079Y-186516577D01*
X149895959Y-186335202D01*
X149562821Y-186143826D01*
X149214302Y-185943385D01*
X148852034Y-185734812D01*
X148477655Y-185519041D01*
X148092797Y-185297007D01*
X147861486Y-185163451D01*
X147471671Y-184938207D01*
X147091747Y-184718472D01*
X146723326Y-184505187D01*
X146368023Y-184299295D01*
X146027452Y-184101736D01*
X145703225Y-183913451D01*
X145396957Y-183735383D01*
X145110260Y-183568471D01*
X144844750Y-183413658D01*
X144602038Y-183271886D01*
X144383740Y-183144094D01*
X144191468Y-183031225D01*
X144026836Y-182934220D01*
X143891457Y-182854020D01*
X143786946Y-182791566D01*
X143714916Y-182747801D01*
X143676981Y-182723665D01*
X143671258Y-182718994D01*
X143690748Y-182707110D01*
X143745275Y-182675014D01*
X143833211Y-182623649D01*
X143952926Y-182553959D01*
X144102789Y-182466888D01*
X144281171Y-182363379D01*
X144486441Y-182244375D01*
X144716971Y-182110821D01*
X144971129Y-181963660D01*
X145247287Y-181803836D01*
X145543814Y-181632291D01*
X145859081Y-181449970D01*
X146191457Y-181257816D01*
X146539313Y-181056774D01*
X146901019Y-180847785D01*
X147274944Y-180631795D01*
X147659460Y-180409746D01*
X147884942Y-180279562D01*
X152083424Y-177855719D01*
X152225141Y-177935067D01*
G36*
X118471839Y-168168552D02*
G01*
X118531164Y-168202121D01*
X118622811Y-168254412D01*
X118744802Y-168324281D01*
X118895158Y-168410585D01*
X119071901Y-168512181D01*
X119273053Y-168627925D01*
X119496635Y-168756675D01*
X119740669Y-168897286D01*
X120003176Y-169048616D01*
X120282179Y-169209522D01*
X120575698Y-169378859D01*
X120881756Y-169555484D01*
X121198375Y-169738255D01*
X121523575Y-169926028D01*
X121855378Y-170117660D01*
X122191807Y-170312007D01*
X122530882Y-170507925D01*
X122870626Y-170704273D01*
X123209060Y-170899905D01*
X123544206Y-171093680D01*
X123874085Y-171284453D01*
X124196720Y-171471081D01*
X124510131Y-171652422D01*
X124812340Y-171827331D01*
X125101370Y-171994666D01*
X125375241Y-172153282D01*
X125631976Y-172302038D01*
X125869595Y-172439788D01*
X126086121Y-172565391D01*
X126279576Y-172677702D01*
X126447980Y-172775579D01*
X126589357Y-172857878D01*
X126701726Y-172923456D01*
X126783110Y-172971169D01*
X126831531Y-172999874D01*
X126845304Y-173008500D01*
X126827256Y-173020056D01*
X126774486Y-173051574D01*
X126688973Y-173101914D01*
X126572693Y-173169936D01*
X126427624Y-173254498D01*
X126255743Y-173354461D01*
X126059028Y-173468684D01*
X125839455Y-173596027D01*
X125599003Y-173735348D01*
X125339648Y-173885508D01*
X125063369Y-174045367D01*
X124772142Y-174213783D01*
X124467944Y-174389616D01*
X124152754Y-174571726D01*
X123828548Y-174758972D01*
X123497303Y-174950214D01*
X123160998Y-175144311D01*
X122821609Y-175340123D01*
X122481114Y-175536509D01*
X122141490Y-175732330D01*
X121804715Y-175926444D01*
X121472765Y-176117711D01*
X121147619Y-176304991D01*
X120831253Y-176487142D01*
X120525645Y-176663025D01*
X120232772Y-176831500D01*
X119954612Y-176991425D01*
X119693142Y-177141660D01*
X119450340Y-177281065D01*
X119228182Y-177408500D01*
X119028646Y-177522823D01*
X118853709Y-177622895D01*
X118705349Y-177707574D01*
X118585543Y-177775721D01*
X118496269Y-177826195D01*
X118439503Y-177857856D01*
X118417224Y-177869562D01*
X118417056Y-177869603D01*
X118396541Y-177859467D01*
X118341026Y-177829055D01*
X118252143Y-177779303D01*
X118131527Y-177711149D01*
X117980812Y-177625531D01*
X117801630Y-177523385D01*
X117595617Y-177405649D01*
X117364405Y-177273260D01*
X117109629Y-177127155D01*
X116832922Y-176968272D01*
X116535917Y-176797547D01*
X116220249Y-176615919D01*
X115887552Y-176424323D01*
X115539459Y-176223698D01*
X115177603Y-176014981D01*
X114803619Y-175799109D01*
X114419140Y-175577019D01*
X114194139Y-175446977D01*
X113804663Y-175221744D01*
X113425002Y-175002019D01*
X113056774Y-174788747D01*
X112701599Y-174582871D01*
X112361096Y-174385335D01*
X112036886Y-174197082D01*
X111730586Y-174019057D01*
X111443818Y-173852203D01*
X111178199Y-173697464D01*
X110935350Y-173555784D01*
X110716889Y-173428107D01*
X110524437Y-173315376D01*
X110359613Y-173218535D01*
X110224036Y-173138528D01*
X110119326Y-173076298D01*
X110047101Y-173032791D01*
X110008982Y-173008948D01*
X110003139Y-173004499D01*
X110021732Y-172992536D01*
X110075373Y-172960369D01*
X110162439Y-172908943D01*
X110281304Y-172839201D01*
X110430344Y-172752086D01*
X110607933Y-172648541D01*
X110812447Y-172529509D01*
X111042261Y-172395933D01*
X111295751Y-172248757D01*
X111571290Y-172088923D01*
X111867255Y-171917374D01*
X112182020Y-171735055D01*
X112513961Y-171542907D01*
X112861453Y-171341874D01*
X113222871Y-171132900D01*
X113596590Y-170916926D01*
X113980986Y-170694897D01*
X114209618Y-170562891D01*
X114703120Y-170278085D01*
X115161013Y-170014016D01*
X115584277Y-169770127D01*
X115973890Y-169545862D01*
X116330832Y-169340662D01*
X116656084Y-169153973D01*
X116950623Y-168985238D01*
X117215430Y-168833899D01*
X117451484Y-168699400D01*
X117659764Y-168581185D01*
X117841250Y-168478697D01*
X117996922Y-168391380D01*
X118127758Y-168318676D01*
X118234738Y-168260029D01*
X118318842Y-168214883D01*
X118381049Y-168182680D01*
X118422338Y-168162865D01*
X118443689Y-168154880D01*
X118446814Y-168154849D01*
X118471839Y-168168552D01*
G37*
X118471839Y-168168552D02*
X118531164Y-168202121D01*
X118622811Y-168254412D01*
X118744802Y-168324281D01*
X118895158Y-168410585D01*
X119071901Y-168512181D01*
X119273053Y-168627925D01*
X119496635Y-168756675D01*
X119740669Y-168897286D01*
X120003176Y-169048616D01*
X120282179Y-169209522D01*
X120575698Y-169378859D01*
X120881756Y-169555484D01*
X121198375Y-169738255D01*
X121523575Y-169926028D01*
X121855378Y-170117660D01*
X122191807Y-170312007D01*
X122530882Y-170507925D01*
X122870626Y-170704273D01*
X123209060Y-170899905D01*
X123544206Y-171093680D01*
X123874085Y-171284453D01*
X124196720Y-171471081D01*
X124510131Y-171652422D01*
X124812340Y-171827331D01*
X125101370Y-171994666D01*
X125375241Y-172153282D01*
X125631976Y-172302038D01*
X125869595Y-172439788D01*
X126086121Y-172565391D01*
X126279576Y-172677702D01*
X126447980Y-172775579D01*
X126589357Y-172857878D01*
X126701726Y-172923456D01*
X126783110Y-172971169D01*
X126831531Y-172999874D01*
X126845304Y-173008500D01*
X126827256Y-173020056D01*
X126774486Y-173051574D01*
X126688973Y-173101914D01*
X126572693Y-173169936D01*
X126427624Y-173254498D01*
X126255743Y-173354461D01*
X126059028Y-173468684D01*
X125839455Y-173596027D01*
X125599003Y-173735348D01*
X125339648Y-173885508D01*
X125063369Y-174045367D01*
X124772142Y-174213783D01*
X124467944Y-174389616D01*
X124152754Y-174571726D01*
X123828548Y-174758972D01*
X123497303Y-174950214D01*
X123160998Y-175144311D01*
X122821609Y-175340123D01*
X122481114Y-175536509D01*
X122141490Y-175732330D01*
X121804715Y-175926444D01*
X121472765Y-176117711D01*
X121147619Y-176304991D01*
X120831253Y-176487142D01*
X120525645Y-176663025D01*
X120232772Y-176831500D01*
X119954612Y-176991425D01*
X119693142Y-177141660D01*
X119450340Y-177281065D01*
X119228182Y-177408500D01*
X119028646Y-177522823D01*
X118853709Y-177622895D01*
X118705349Y-177707574D01*
X118585543Y-177775721D01*
X118496269Y-177826195D01*
X118439503Y-177857856D01*
X118417224Y-177869562D01*
X118417056Y-177869603D01*
X118396541Y-177859467D01*
X118341026Y-177829055D01*
X118252143Y-177779303D01*
X118131527Y-177711149D01*
X117980812Y-177625531D01*
X117801630Y-177523385D01*
X117595617Y-177405649D01*
X117364405Y-177273260D01*
X117109629Y-177127155D01*
X116832922Y-176968272D01*
X116535917Y-176797547D01*
X116220249Y-176615919D01*
X115887552Y-176424323D01*
X115539459Y-176223698D01*
X115177603Y-176014981D01*
X114803619Y-175799109D01*
X114419140Y-175577019D01*
X114194139Y-175446977D01*
X113804663Y-175221744D01*
X113425002Y-175002019D01*
X113056774Y-174788747D01*
X112701599Y-174582871D01*
X112361096Y-174385335D01*
X112036886Y-174197082D01*
X111730586Y-174019057D01*
X111443818Y-173852203D01*
X111178199Y-173697464D01*
X110935350Y-173555784D01*
X110716889Y-173428107D01*
X110524437Y-173315376D01*
X110359613Y-173218535D01*
X110224036Y-173138528D01*
X110119326Y-173076298D01*
X110047101Y-173032791D01*
X110008982Y-173008948D01*
X110003139Y-173004499D01*
X110021732Y-172992536D01*
X110075373Y-172960369D01*
X110162439Y-172908943D01*
X110281304Y-172839201D01*
X110430344Y-172752086D01*
X110607933Y-172648541D01*
X110812447Y-172529509D01*
X111042261Y-172395933D01*
X111295751Y-172248757D01*
X111571290Y-172088923D01*
X111867255Y-171917374D01*
X112182020Y-171735055D01*
X112513961Y-171542907D01*
X112861453Y-171341874D01*
X113222871Y-171132900D01*
X113596590Y-170916926D01*
X113980986Y-170694897D01*
X114209618Y-170562891D01*
X114703120Y-170278085D01*
X115161013Y-170014016D01*
X115584277Y-169770127D01*
X115973890Y-169545862D01*
X116330832Y-169340662D01*
X116656084Y-169153973D01*
X116950623Y-168985238D01*
X117215430Y-168833899D01*
X117451484Y-168699400D01*
X117659764Y-168581185D01*
X117841250Y-168478697D01*
X117996922Y-168391380D01*
X118127758Y-168318676D01*
X118234738Y-168260029D01*
X118318842Y-168214883D01*
X118381049Y-168182680D01*
X118422338Y-168162865D01*
X118443689Y-168154880D01*
X118446814Y-168154849D01*
X118471839Y-168168552D01*
G36*
X152097266Y-148698583D02*
G01*
X152097966Y-153572208D01*
X152098009Y-154023295D01*
X152098005Y-154463104D01*
X152097958Y-154889767D01*
X152097869Y-155301416D01*
X152097739Y-155696185D01*
X152097571Y-156072205D01*
X152097366Y-156427611D01*
X152097127Y-156760533D01*
X152096854Y-157069106D01*
X152096549Y-157351462D01*
X152096215Y-157605733D01*
X152095853Y-157830053D01*
X152095464Y-158022554D01*
X152095051Y-158181368D01*
X152094616Y-158304629D01*
X152094160Y-158390468D01*
X152093684Y-158437020D01*
X152093375Y-158445334D01*
X152074821Y-158434856D01*
X152021231Y-158404138D01*
X151934228Y-158354116D01*
X151815431Y-158285725D01*
X151666463Y-158199900D01*
X151488945Y-158097577D01*
X151284499Y-157979692D01*
X151054745Y-157847179D01*
X150801305Y-157700975D01*
X150525800Y-157542013D01*
X150229852Y-157371231D01*
X149915083Y-157189563D01*
X149583113Y-156997944D01*
X149235563Y-156797311D01*
X148874057Y-156588598D01*
X148500213Y-156372740D01*
X148115655Y-156150674D01*
X147875917Y-156012225D01*
X143663750Y-153579613D01*
X143658413Y-148731390D01*
X143657877Y-148281486D01*
X143657275Y-147842862D01*
X143656614Y-147417390D01*
X143655897Y-147006943D01*
X143655132Y-146613394D01*
X143654323Y-146238613D01*
X143653477Y-145884475D01*
X143652599Y-145552851D01*
X143651695Y-145245614D01*
X143650770Y-144964637D01*
X143649831Y-144711791D01*
X143648882Y-144488949D01*
X143647930Y-144297984D01*
X143646981Y-144140767D01*
X143646039Y-144019173D01*
X143645111Y-143935072D01*
X143644203Y-143890337D01*
X143643683Y-143883166D01*
X143624745Y-143893603D01*
X143570789Y-143924286D01*
X143483447Y-143974273D01*
X143364352Y-144042626D01*
X143215135Y-144128401D01*
X143037429Y-144230659D01*
X142832865Y-144348458D01*
X142603075Y-144480858D01*
X142349693Y-144626918D01*
X142074349Y-144785697D01*
X141778676Y-144956253D01*
X141464307Y-145137647D01*
X141132872Y-145328937D01*
X140786005Y-145529182D01*
X140425337Y-145737441D01*
X140052501Y-145952774D01*
X139669128Y-146174239D01*
X139468603Y-146290095D01*
X139013797Y-146552747D01*
X138579660Y-146803189D01*
X138167232Y-147040830D01*
X137777552Y-147265077D01*
X137411658Y-147475338D01*
X137070589Y-147671019D01*
X136755384Y-147851528D01*
X136467083Y-148016273D01*
X136206723Y-148164660D01*
X135975343Y-148296098D01*
X135773984Y-148409993D01*
X135603682Y-148505753D01*
X135465478Y-148582785D01*
X135360410Y-148640497D01*
X135289517Y-148678296D01*
X135253838Y-148695589D01*
X135250000Y-148696695D01*
X135227424Y-148686274D01*
X135170375Y-148655831D01*
X135080831Y-148606506D01*
X134960773Y-148539443D01*
X134812181Y-148455783D01*
X134637034Y-148356667D01*
X134437314Y-148243237D01*
X134215001Y-148116635D01*
X133972073Y-147978002D01*
X133710512Y-147828481D01*
X133432298Y-147669214D01*
X133139410Y-147501341D01*
X132833829Y-147326004D01*
X132517534Y-147144346D01*
X132192506Y-146957508D01*
X131860726Y-146766632D01*
X131524172Y-146572859D01*
X131184825Y-146377331D01*
X130844666Y-146181190D01*
X130505674Y-145985578D01*
X130169829Y-145791637D01*
X129839111Y-145600507D01*
X129515502Y-145413332D01*
X129200980Y-145231252D01*
X128897525Y-145055409D01*
X128607119Y-144886945D01*
X128331740Y-144727003D01*
X128073369Y-144576723D01*
X127833987Y-144437247D01*
X127615572Y-144309717D01*
X127420106Y-144195274D01*
X127249568Y-144095062D01*
X127105939Y-144010220D01*
X126991198Y-143941891D01*
X126907325Y-143891217D01*
X126856302Y-143859340D01*
X126840063Y-143847473D01*
X126858487Y-143835442D01*
X126911962Y-143803209D01*
X126998864Y-143751718D01*
X127117571Y-143681910D01*
X127266458Y-143594730D01*
X127443903Y-143491121D01*
X127648281Y-143372025D01*
X127877970Y-143238385D01*
X128131345Y-143091145D01*
X128406785Y-142931248D01*
X128702664Y-142759637D01*
X129017361Y-142577254D01*
X129349250Y-142385043D01*
X129696710Y-142183948D01*
X130058117Y-141974911D01*
X130431846Y-141758874D01*
X130816276Y-141536783D01*
X131047543Y-141403236D01*
X135251210Y-138976223D01*
X152097266Y-148698583D01*
G37*
X152097266Y-148698583D02*
X152097966Y-153572208D01*
X152098009Y-154023295D01*
X152098005Y-154463104D01*
X152097958Y-154889767D01*
X152097869Y-155301416D01*
X152097739Y-155696185D01*
X152097571Y-156072205D01*
X152097366Y-156427611D01*
X152097127Y-156760533D01*
X152096854Y-157069106D01*
X152096549Y-157351462D01*
X152096215Y-157605733D01*
X152095853Y-157830053D01*
X152095464Y-158022554D01*
X152095051Y-158181368D01*
X152094616Y-158304629D01*
X152094160Y-158390468D01*
X152093684Y-158437020D01*
X152093375Y-158445334D01*
X152074821Y-158434856D01*
X152021231Y-158404138D01*
X151934228Y-158354116D01*
X151815431Y-158285725D01*
X151666463Y-158199900D01*
X151488945Y-158097577D01*
X151284499Y-157979692D01*
X151054745Y-157847179D01*
X150801305Y-157700975D01*
X150525800Y-157542013D01*
X150229852Y-157371231D01*
X149915083Y-157189563D01*
X149583113Y-156997944D01*
X149235563Y-156797311D01*
X148874057Y-156588598D01*
X148500213Y-156372740D01*
X148115655Y-156150674D01*
X147875917Y-156012225D01*
X143663750Y-153579613D01*
X143658413Y-148731390D01*
X143657877Y-148281486D01*
X143657275Y-147842862D01*
X143656614Y-147417390D01*
X143655897Y-147006943D01*
X143655132Y-146613394D01*
X143654323Y-146238613D01*
X143653477Y-145884475D01*
X143652599Y-145552851D01*
X143651695Y-145245614D01*
X143650770Y-144964637D01*
X143649831Y-144711791D01*
X143648882Y-144488949D01*
X143647930Y-144297984D01*
X143646981Y-144140767D01*
X143646039Y-144019173D01*
X143645111Y-143935072D01*
X143644203Y-143890337D01*
X143643683Y-143883166D01*
X143624745Y-143893603D01*
X143570789Y-143924286D01*
X143483447Y-143974273D01*
X143364352Y-144042626D01*
X143215135Y-144128401D01*
X143037429Y-144230659D01*
X142832865Y-144348458D01*
X142603075Y-144480858D01*
X142349693Y-144626918D01*
X142074349Y-144785697D01*
X141778676Y-144956253D01*
X141464307Y-145137647D01*
X141132872Y-145328937D01*
X140786005Y-145529182D01*
X140425337Y-145737441D01*
X140052501Y-145952774D01*
X139669128Y-146174239D01*
X139468603Y-146290095D01*
X139013797Y-146552747D01*
X138579660Y-146803189D01*
X138167232Y-147040830D01*
X137777552Y-147265077D01*
X137411658Y-147475338D01*
X137070589Y-147671019D01*
X136755384Y-147851528D01*
X136467083Y-148016273D01*
X136206723Y-148164660D01*
X135975343Y-148296098D01*
X135773984Y-148409993D01*
X135603682Y-148505753D01*
X135465478Y-148582785D01*
X135360410Y-148640497D01*
X135289517Y-148678296D01*
X135253838Y-148695589D01*
X135250000Y-148696695D01*
X135227424Y-148686274D01*
X135170375Y-148655831D01*
X135080831Y-148606506D01*
X134960773Y-148539443D01*
X134812181Y-148455783D01*
X134637034Y-148356667D01*
X134437314Y-148243237D01*
X134215001Y-148116635D01*
X133972073Y-147978002D01*
X133710512Y-147828481D01*
X133432298Y-147669214D01*
X133139410Y-147501341D01*
X132833829Y-147326004D01*
X132517534Y-147144346D01*
X132192506Y-146957508D01*
X131860726Y-146766632D01*
X131524172Y-146572859D01*
X131184825Y-146377331D01*
X130844666Y-146181190D01*
X130505674Y-145985578D01*
X130169829Y-145791637D01*
X129839111Y-145600507D01*
X129515502Y-145413332D01*
X129200980Y-145231252D01*
X128897525Y-145055409D01*
X128607119Y-144886945D01*
X128331740Y-144727003D01*
X128073369Y-144576723D01*
X127833987Y-144437247D01*
X127615572Y-144309717D01*
X127420106Y-144195274D01*
X127249568Y-144095062D01*
X127105939Y-144010220D01*
X126991198Y-143941891D01*
X126907325Y-143891217D01*
X126856302Y-143859340D01*
X126840063Y-143847473D01*
X126858487Y-143835442D01*
X126911962Y-143803209D01*
X126998864Y-143751718D01*
X127117571Y-143681910D01*
X127266458Y-143594730D01*
X127443903Y-143491121D01*
X127648281Y-143372025D01*
X127877970Y-143238385D01*
X128131345Y-143091145D01*
X128406785Y-142931248D01*
X128702664Y-142759637D01*
X129017361Y-142577254D01*
X129349250Y-142385043D01*
X129696710Y-142183948D01*
X130058117Y-141974911D01*
X130431846Y-141758874D01*
X130816276Y-141536783D01*
X131047543Y-141403236D01*
X135251210Y-138976223D01*
X152097266Y-148698583D01*
G36*
X152115508Y-119556106D02*
G01*
X152170311Y-119587434D01*
X152258509Y-119638054D01*
X152378469Y-119707025D01*
X152528560Y-119793407D01*
X152707150Y-119896258D01*
X152912608Y-120014639D01*
X153143301Y-120147608D01*
X153397598Y-120294224D01*
X153673868Y-120453547D01*
X153970478Y-120624635D01*
X154285798Y-120806549D01*
X154618195Y-120998346D01*
X154966037Y-121199087D01*
X155327694Y-121407830D01*
X155701532Y-121623635D01*
X156085922Y-121845561D01*
X156307942Y-121973757D01*
X160501833Y-124395431D01*
X160501833Y-129270965D01*
X160501811Y-129722118D01*
X160501744Y-130161981D01*
X160501636Y-130588686D01*
X160501487Y-131000367D01*
X160501301Y-131395159D01*
X160501079Y-131771196D01*
X160500823Y-132126611D01*
X160500536Y-132459539D01*
X160500219Y-132768113D01*
X160499874Y-133050467D01*
X160499503Y-133304734D01*
X160499109Y-133529050D01*
X160498693Y-133721548D01*
X160498258Y-133880362D01*
X160497804Y-134003625D01*
X160497336Y-134089472D01*
X160496854Y-134136037D01*
X160496542Y-134144362D01*
X160477990Y-134133725D01*
X160424412Y-134102839D01*
X160337429Y-134052642D01*
X160218665Y-133984072D01*
X160069742Y-133898067D01*
X159892284Y-133795565D01*
X159687913Y-133677502D01*
X159458253Y-133544818D01*
X159204926Y-133398449D01*
X158929556Y-133239334D01*
X158633765Y-133068410D01*
X158319177Y-132886615D01*
X157987414Y-132694886D01*
X157640099Y-132494162D01*
X157278856Y-132285381D01*
X156905307Y-132069479D01*
X156521076Y-131847396D01*
X156289667Y-131713639D01*
X152088083Y-129285052D01*
X152082746Y-124411497D01*
X152082315Y-123945696D01*
X152082050Y-123493646D01*
X152081949Y-123057090D01*
X152082006Y-122637770D01*
X152082216Y-122237430D01*
X152082576Y-121857812D01*
X152083079Y-121500659D01*
X152083723Y-121167714D01*
X152084501Y-120860719D01*
X152085409Y-120581418D01*
X152086444Y-120331552D01*
X152087599Y-120112865D01*
X152088870Y-119927100D01*
X152090253Y-119776000D01*
X152091744Y-119661306D01*
X152093336Y-119584763D01*
X152095027Y-119548112D01*
X152095730Y-119545012D01*
X152115508Y-119556106D01*
G37*
X152115508Y-119556106D02*
X152170311Y-119587434D01*
X152258509Y-119638054D01*
X152378469Y-119707025D01*
X152528560Y-119793407D01*
X152707150Y-119896258D01*
X152912608Y-120014639D01*
X153143301Y-120147608D01*
X153397598Y-120294224D01*
X153673868Y-120453547D01*
X153970478Y-120624635D01*
X154285798Y-120806549D01*
X154618195Y-120998346D01*
X154966037Y-121199087D01*
X155327694Y-121407830D01*
X155701532Y-121623635D01*
X156085922Y-121845561D01*
X156307942Y-121973757D01*
X160501833Y-124395431D01*
X160501833Y-129270965D01*
X160501811Y-129722118D01*
X160501744Y-130161981D01*
X160501636Y-130588686D01*
X160501487Y-131000367D01*
X160501301Y-131395159D01*
X160501079Y-131771196D01*
X160500823Y-132126611D01*
X160500536Y-132459539D01*
X160500219Y-132768113D01*
X160499874Y-133050467D01*
X160499503Y-133304734D01*
X160499109Y-133529050D01*
X160498693Y-133721548D01*
X160498258Y-133880362D01*
X160497804Y-134003625D01*
X160497336Y-134089472D01*
X160496854Y-134136037D01*
X160496542Y-134144362D01*
X160477990Y-134133725D01*
X160424412Y-134102839D01*
X160337429Y-134052642D01*
X160218665Y-133984072D01*
X160069742Y-133898067D01*
X159892284Y-133795565D01*
X159687913Y-133677502D01*
X159458253Y-133544818D01*
X159204926Y-133398449D01*
X158929556Y-133239334D01*
X158633765Y-133068410D01*
X158319177Y-132886615D01*
X157987414Y-132694886D01*
X157640099Y-132494162D01*
X157278856Y-132285381D01*
X156905307Y-132069479D01*
X156521076Y-131847396D01*
X156289667Y-131713639D01*
X152088083Y-129285052D01*
X152082746Y-124411497D01*
X152082315Y-123945696D01*
X152082050Y-123493646D01*
X152081949Y-123057090D01*
X152082006Y-122637770D01*
X152082216Y-122237430D01*
X152082576Y-121857812D01*
X152083079Y-121500659D01*
X152083723Y-121167714D01*
X152084501Y-120860719D01*
X152085409Y-120581418D01*
X152086444Y-120331552D01*
X152087599Y-120112865D01*
X152088870Y-119927100D01*
X152090253Y-119776000D01*
X152091744Y-119661306D01*
X152093336Y-119584763D01*
X152095027Y-119548112D01*
X152095730Y-119545012D01*
X152115508Y-119556106D01*
G36*
X143674071Y-127316083D02*
G01*
X143880691Y-127435555D01*
X144052765Y-127535914D01*
X144192714Y-127618673D01*
X144302959Y-127685347D01*
X144385922Y-127737449D01*
X144444023Y-127776494D01*
X144479684Y-127803996D01*
X144495327Y-127821468D01*
X144494941Y-127829350D01*
X144472418Y-127843875D01*
X144416284Y-127877673D01*
X144329635Y-127928937D01*
X144215572Y-127995861D01*
X144077192Y-128076638D01*
X143917594Y-128169459D01*
X143739877Y-128272519D01*
X143547140Y-128384009D01*
X143342482Y-128502123D01*
X143244558Y-128558546D01*
X143036743Y-128678615D01*
X142840543Y-128792729D01*
X142658917Y-128899119D01*
X142494828Y-128996015D01*
X142351234Y-129081645D01*
X142231096Y-129154239D01*
X142137375Y-129212027D01*
X142073032Y-129253238D01*
X142041026Y-129276103D01*
X142038058Y-129280085D01*
X142058849Y-129293295D01*
X142113264Y-129325855D01*
X142198248Y-129375982D01*
X142310741Y-129441894D01*
X142447689Y-129521809D01*
X142606032Y-129613943D01*
X142782716Y-129716514D01*
X142974681Y-129827740D01*
X143178873Y-129945839D01*
X143282750Y-130005841D01*
X143491318Y-130126464D01*
X143688726Y-130241017D01*
X143871972Y-130347735D01*
X144038051Y-130444848D01*
X144183960Y-130530590D01*
X144306696Y-130603192D01*
X144403255Y-130660888D01*
X144470633Y-130701910D01*
X144505827Y-130724490D01*
X144510417Y-130728320D01*
X144492810Y-130740696D01*
X144442949Y-130771601D01*
X144365269Y-130818450D01*
X144264207Y-130878656D01*
X144144197Y-130949633D01*
X144009676Y-131028794D01*
X143865080Y-131113553D01*
X143714844Y-131201323D01*
X143563406Y-131289519D01*
X143415200Y-131375554D01*
X143274664Y-131456841D01*
X143146231Y-131530794D01*
X143034340Y-131594827D01*
X142943425Y-131646354D01*
X142877923Y-131682787D01*
X142842269Y-131701542D01*
X142838250Y-131703269D01*
X142817517Y-131693839D01*
X142762493Y-131664481D01*
X142675502Y-131616515D01*
X142558866Y-131551264D01*
X142414908Y-131470049D01*
X142245950Y-131374192D01*
X142054315Y-131265015D01*
X141842326Y-131143840D01*
X141612306Y-131011988D01*
X141366576Y-130870781D01*
X141107461Y-130721541D01*
X140837282Y-130565590D01*
X140723265Y-130499679D01*
X140449497Y-130341152D01*
X140186228Y-130188318D01*
X139935752Y-130042531D01*
X139700364Y-129905142D01*
X139482357Y-129777502D01*
X139284024Y-129660963D01*
X139107659Y-129556878D01*
X138955556Y-129466598D01*
X138830010Y-129391475D01*
X138733312Y-129332860D01*
X138667758Y-129292107D01*
X138635641Y-129270565D01*
X138632672Y-129267583D01*
X138651065Y-129254441D01*
X138703849Y-129221541D01*
X138788722Y-129170235D01*
X138903381Y-129101874D01*
X139045522Y-129017808D01*
X139212841Y-128919389D01*
X139403035Y-128807966D01*
X139613801Y-128684892D01*
X139842835Y-128551517D01*
X140087834Y-128409191D01*
X140346495Y-128259266D01*
X140616514Y-128103093D01*
X140731120Y-128036905D01*
X142826343Y-126827394D01*
X143674071Y-127316083D01*
G37*
X143674071Y-127316083D02*
X143880691Y-127435555D01*
X144052765Y-127535914D01*
X144192714Y-127618673D01*
X144302959Y-127685347D01*
X144385922Y-127737449D01*
X144444023Y-127776494D01*
X144479684Y-127803996D01*
X144495327Y-127821468D01*
X144494941Y-127829350D01*
X144472418Y-127843875D01*
X144416284Y-127877673D01*
X144329635Y-127928937D01*
X144215572Y-127995861D01*
X144077192Y-128076638D01*
X143917594Y-128169459D01*
X143739877Y-128272519D01*
X143547140Y-128384009D01*
X143342482Y-128502123D01*
X143244558Y-128558546D01*
X143036743Y-128678615D01*
X142840543Y-128792729D01*
X142658917Y-128899119D01*
X142494828Y-128996015D01*
X142351234Y-129081645D01*
X142231096Y-129154239D01*
X142137375Y-129212027D01*
X142073032Y-129253238D01*
X142041026Y-129276103D01*
X142038058Y-129280085D01*
X142058849Y-129293295D01*
X142113264Y-129325855D01*
X142198248Y-129375982D01*
X142310741Y-129441894D01*
X142447689Y-129521809D01*
X142606032Y-129613943D01*
X142782716Y-129716514D01*
X142974681Y-129827740D01*
X143178873Y-129945839D01*
X143282750Y-130005841D01*
X143491318Y-130126464D01*
X143688726Y-130241017D01*
X143871972Y-130347735D01*
X144038051Y-130444848D01*
X144183960Y-130530590D01*
X144306696Y-130603192D01*
X144403255Y-130660888D01*
X144470633Y-130701910D01*
X144505827Y-130724490D01*
X144510417Y-130728320D01*
X144492810Y-130740696D01*
X144442949Y-130771601D01*
X144365269Y-130818450D01*
X144264207Y-130878656D01*
X144144197Y-130949633D01*
X144009676Y-131028794D01*
X143865080Y-131113553D01*
X143714844Y-131201323D01*
X143563406Y-131289519D01*
X143415200Y-131375554D01*
X143274664Y-131456841D01*
X143146231Y-131530794D01*
X143034340Y-131594827D01*
X142943425Y-131646354D01*
X142877923Y-131682787D01*
X142842269Y-131701542D01*
X142838250Y-131703269D01*
X142817517Y-131693839D01*
X142762493Y-131664481D01*
X142675502Y-131616515D01*
X142558866Y-131551264D01*
X142414908Y-131470049D01*
X142245950Y-131374192D01*
X142054315Y-131265015D01*
X141842326Y-131143840D01*
X141612306Y-131011988D01*
X141366576Y-130870781D01*
X141107461Y-130721541D01*
X140837282Y-130565590D01*
X140723265Y-130499679D01*
X140449497Y-130341152D01*
X140186228Y-130188318D01*
X139935752Y-130042531D01*
X139700364Y-129905142D01*
X139482357Y-129777502D01*
X139284024Y-129660963D01*
X139107659Y-129556878D01*
X138955556Y-129466598D01*
X138830010Y-129391475D01*
X138733312Y-129332860D01*
X138667758Y-129292107D01*
X138635641Y-129270565D01*
X138632672Y-129267583D01*
X138651065Y-129254441D01*
X138703849Y-129221541D01*
X138788722Y-129170235D01*
X138903381Y-129101874D01*
X139045522Y-129017808D01*
X139212841Y-128919389D01*
X139403035Y-128807966D01*
X139613801Y-128684892D01*
X139842835Y-128551517D01*
X140087834Y-128409191D01*
X140346495Y-128259266D01*
X140616514Y-128103093D01*
X140731120Y-128036905D01*
X142826343Y-126827394D01*
X143674071Y-127316083D01*
G36*
X126843978Y-114698669D02*
G01*
X126898981Y-114728474D01*
X126986575Y-114777222D01*
X127104783Y-114843771D01*
X127251628Y-114926978D01*
X127425133Y-115025701D01*
X127623322Y-115138799D01*
X127844217Y-115265130D01*
X128085842Y-115403551D01*
X128346220Y-115552922D01*
X128623375Y-115712099D01*
X128915329Y-115879941D01*
X129220106Y-116055306D01*
X129535729Y-116237052D01*
X129860221Y-116424038D01*
X130191605Y-116615120D01*
X130527906Y-116809158D01*
X130867145Y-117005009D01*
X131207346Y-117201532D01*
X131546533Y-117397584D01*
X131882728Y-117592024D01*
X132213955Y-117783709D01*
X132538237Y-117971498D01*
X132853598Y-118154249D01*
X133158060Y-118330819D01*
X133449646Y-118500068D01*
X133726381Y-118660852D01*
X133986287Y-118812030D01*
X134227387Y-118952461D01*
X134447705Y-119081001D01*
X134645263Y-119196510D01*
X134818086Y-119297845D01*
X134964196Y-119383865D01*
X135081617Y-119453427D01*
X135168371Y-119505389D01*
X135222482Y-119538610D01*
X135241974Y-119551948D01*
X135242002Y-119552083D01*
X135223297Y-119564850D01*
X135169860Y-119597549D01*
X135083674Y-119649034D01*
X134966723Y-119718161D01*
X134820989Y-119803786D01*
X134648455Y-119904765D01*
X134451105Y-120019954D01*
X134230920Y-120148209D01*
X133989885Y-120288385D01*
X133729981Y-120439338D01*
X133453193Y-120599925D01*
X133161502Y-120769000D01*
X132856893Y-120945419D01*
X132541347Y-121128040D01*
X132216848Y-121315716D01*
X131885379Y-121507305D01*
X131548923Y-121701661D01*
X131209462Y-121897641D01*
X130868980Y-122094101D01*
X130529459Y-122289896D01*
X130192883Y-122483882D01*
X129861235Y-122674915D01*
X129536497Y-122861851D01*
X129220652Y-123043546D01*
X128915684Y-123218855D01*
X128623575Y-123386634D01*
X128346308Y-123545739D01*
X128085867Y-123695026D01*
X127844233Y-123833351D01*
X127623391Y-123959569D01*
X127425323Y-124072537D01*
X127252012Y-124171109D01*
X127105441Y-124254143D01*
X126987593Y-124320493D01*
X126900451Y-124369016D01*
X126845998Y-124398567D01*
X126826314Y-124408025D01*
X126805222Y-124397408D01*
X126749131Y-124366526D01*
X126659679Y-124316317D01*
X126538505Y-124247724D01*
X126387249Y-124161687D01*
X126207549Y-124059146D01*
X126001045Y-123941042D01*
X125769375Y-123808316D01*
X125514178Y-123661908D01*
X125237094Y-123502759D01*
X124939761Y-123331809D01*
X124623819Y-123149999D01*
X124290905Y-122958270D01*
X123942661Y-122757563D01*
X123580723Y-122548817D01*
X123206732Y-122332974D01*
X122822326Y-122110974D01*
X122606517Y-121986278D01*
X122217306Y-121761332D01*
X121837789Y-121541953D01*
X121469593Y-121329084D01*
X121114347Y-121123668D01*
X120773679Y-120926647D01*
X120449219Y-120738964D01*
X120142593Y-120561562D01*
X119855432Y-120395384D01*
X119589363Y-120241372D01*
X119346015Y-120100468D01*
X119127015Y-119973616D01*
X118933994Y-119861759D01*
X118768578Y-119765838D01*
X118632397Y-119686797D01*
X118527078Y-119625578D01*
X118454251Y-119583125D01*
X118415544Y-119560378D01*
X118409380Y-119556602D01*
X118426686Y-119545516D01*
X118478687Y-119514417D01*
X118563411Y-119464448D01*
X118678884Y-119396750D01*
X118823132Y-119312465D01*
X118994181Y-119212734D01*
X119190060Y-119098700D01*
X119408793Y-118971503D01*
X119648408Y-118832286D01*
X119906932Y-118682191D01*
X120182390Y-118522358D01*
X120472809Y-118353929D01*
X120776216Y-118178047D01*
X121090637Y-117995852D01*
X121414099Y-117808487D01*
X121744629Y-117617093D01*
X122080253Y-117422811D01*
X122418997Y-117226784D01*
X122758888Y-117030153D01*
X123097953Y-116834060D01*
X123434219Y-116639646D01*
X123765711Y-116448054D01*
X124090456Y-116260423D01*
X124406481Y-116077898D01*
X124711812Y-115901618D01*
X125004477Y-115732726D01*
X125282501Y-115572363D01*
X125543911Y-115421671D01*
X125786734Y-115281791D01*
X126008995Y-115153866D01*
X126208723Y-115039037D01*
X126383943Y-114938446D01*
X126532681Y-114853233D01*
X126652965Y-114784542D01*
X126742821Y-114733513D01*
X126800275Y-114701288D01*
X126823355Y-114689009D01*
X126823541Y-114688948D01*
X126843978Y-114698669D01*
G37*
X126843978Y-114698669D02*
X126898981Y-114728474D01*
X126986575Y-114777222D01*
X127104783Y-114843771D01*
X127251628Y-114926978D01*
X127425133Y-115025701D01*
X127623322Y-115138799D01*
X127844217Y-115265130D01*
X128085842Y-115403551D01*
X128346220Y-115552922D01*
X128623375Y-115712099D01*
X128915329Y-115879941D01*
X129220106Y-116055306D01*
X129535729Y-116237052D01*
X129860221Y-116424038D01*
X130191605Y-116615120D01*
X130527906Y-116809158D01*
X130867145Y-117005009D01*
X131207346Y-117201532D01*
X131546533Y-117397584D01*
X131882728Y-117592024D01*
X132213955Y-117783709D01*
X132538237Y-117971498D01*
X132853598Y-118154249D01*
X133158060Y-118330819D01*
X133449646Y-118500068D01*
X133726381Y-118660852D01*
X133986287Y-118812030D01*
X134227387Y-118952461D01*
X134447705Y-119081001D01*
X134645263Y-119196510D01*
X134818086Y-119297845D01*
X134964196Y-119383865D01*
X135081617Y-119453427D01*
X135168371Y-119505389D01*
X135222482Y-119538610D01*
X135241974Y-119551948D01*
X135242002Y-119552083D01*
X135223297Y-119564850D01*
X135169860Y-119597549D01*
X135083674Y-119649034D01*
X134966723Y-119718161D01*
X134820989Y-119803786D01*
X134648455Y-119904765D01*
X134451105Y-120019954D01*
X134230920Y-120148209D01*
X133989885Y-120288385D01*
X133729981Y-120439338D01*
X133453193Y-120599925D01*
X133161502Y-120769000D01*
X132856893Y-120945419D01*
X132541347Y-121128040D01*
X132216848Y-121315716D01*
X131885379Y-121507305D01*
X131548923Y-121701661D01*
X131209462Y-121897641D01*
X130868980Y-122094101D01*
X130529459Y-122289896D01*
X130192883Y-122483882D01*
X129861235Y-122674915D01*
X129536497Y-122861851D01*
X129220652Y-123043546D01*
X128915684Y-123218855D01*
X128623575Y-123386634D01*
X128346308Y-123545739D01*
X128085867Y-123695026D01*
X127844233Y-123833351D01*
X127623391Y-123959569D01*
X127425323Y-124072537D01*
X127252012Y-124171109D01*
X127105441Y-124254143D01*
X126987593Y-124320493D01*
X126900451Y-124369016D01*
X126845998Y-124398567D01*
X126826314Y-124408025D01*
X126805222Y-124397408D01*
X126749131Y-124366526D01*
X126659679Y-124316317D01*
X126538505Y-124247724D01*
X126387249Y-124161687D01*
X126207549Y-124059146D01*
X126001045Y-123941042D01*
X125769375Y-123808316D01*
X125514178Y-123661908D01*
X125237094Y-123502759D01*
X124939761Y-123331809D01*
X124623819Y-123149999D01*
X124290905Y-122958270D01*
X123942661Y-122757563D01*
X123580723Y-122548817D01*
X123206732Y-122332974D01*
X122822326Y-122110974D01*
X122606517Y-121986278D01*
X122217306Y-121761332D01*
X121837789Y-121541953D01*
X121469593Y-121329084D01*
X121114347Y-121123668D01*
X120773679Y-120926647D01*
X120449219Y-120738964D01*
X120142593Y-120561562D01*
X119855432Y-120395384D01*
X119589363Y-120241372D01*
X119346015Y-120100468D01*
X119127015Y-119973616D01*
X118933994Y-119861759D01*
X118768578Y-119765838D01*
X118632397Y-119686797D01*
X118527078Y-119625578D01*
X118454251Y-119583125D01*
X118415544Y-119560378D01*
X118409380Y-119556602D01*
X118426686Y-119545516D01*
X118478687Y-119514417D01*
X118563411Y-119464448D01*
X118678884Y-119396750D01*
X118823132Y-119312465D01*
X118994181Y-119212734D01*
X119190060Y-119098700D01*
X119408793Y-118971503D01*
X119648408Y-118832286D01*
X119906932Y-118682191D01*
X120182390Y-118522358D01*
X120472809Y-118353929D01*
X120776216Y-118178047D01*
X121090637Y-117995852D01*
X121414099Y-117808487D01*
X121744629Y-117617093D01*
X122080253Y-117422811D01*
X122418997Y-117226784D01*
X122758888Y-117030153D01*
X123097953Y-116834060D01*
X123434219Y-116639646D01*
X123765711Y-116448054D01*
X124090456Y-116260423D01*
X124406481Y-116077898D01*
X124711812Y-115901618D01*
X125004477Y-115732726D01*
X125282501Y-115572363D01*
X125543911Y-115421671D01*
X125786734Y-115281791D01*
X126008995Y-115153866D01*
X126208723Y-115039037D01*
X126383943Y-114938446D01*
X126532681Y-114853233D01*
X126652965Y-114784542D01*
X126742821Y-114733513D01*
X126800275Y-114701288D01*
X126823355Y-114689009D01*
X126823541Y-114688948D01*
X126843978Y-114698669D01*
G36*
X118422500Y-90384755D02*
G01*
X118444065Y-90396861D01*
X118500178Y-90428939D01*
X118588856Y-90479844D01*
X118708118Y-90548432D01*
X118855982Y-90633559D01*
X119030467Y-90734079D01*
X119229591Y-90848850D01*
X119451374Y-90976725D01*
X119693832Y-91116562D01*
X119954985Y-91267214D01*
X120232851Y-91427539D01*
X120525449Y-91596391D01*
X120830797Y-91772627D01*
X121146913Y-91955101D01*
X121471817Y-92142669D01*
X121803525Y-92334187D01*
X122140058Y-92528511D01*
X122479433Y-92724496D01*
X122819668Y-92920997D01*
X123158783Y-93116870D01*
X123494796Y-93310971D01*
X123825725Y-93502155D01*
X124149588Y-93689278D01*
X124464404Y-93871196D01*
X124768192Y-94046763D01*
X125058970Y-94214836D01*
X125334756Y-94374270D01*
X125593569Y-94523921D01*
X125833428Y-94662645D01*
X126052350Y-94789296D01*
X126248355Y-94902730D01*
X126419460Y-95001804D01*
X126563684Y-95085372D01*
X126679046Y-95152290D01*
X126763564Y-95201415D01*
X126815257Y-95231600D01*
X126832145Y-95241682D01*
X126815675Y-95253550D01*
X126764136Y-95285604D01*
X126679144Y-95336901D01*
X126562315Y-95406499D01*
X126415264Y-95493456D01*
X126239606Y-95596829D01*
X126036958Y-95715676D01*
X125808935Y-95849053D01*
X125557151Y-95996019D01*
X125283223Y-96155632D01*
X124988766Y-96326948D01*
X124675396Y-96509026D01*
X124344728Y-96700922D01*
X123998378Y-96901695D01*
X123637960Y-97110401D01*
X123265091Y-97326099D01*
X122881387Y-97547846D01*
X122657020Y-97677410D01*
X122267629Y-97902270D01*
X121888012Y-98121610D01*
X121519792Y-98334486D01*
X121164593Y-98539955D01*
X120824038Y-98737076D01*
X120499752Y-98924903D01*
X120193358Y-99102495D01*
X119906480Y-99268908D01*
X119640742Y-99423200D01*
X119397766Y-99564427D01*
X119179178Y-99691647D01*
X118986600Y-99803916D01*
X118821656Y-99900291D01*
X118685970Y-99979830D01*
X118581166Y-100041589D01*
X118508867Y-100084625D01*
X118470697Y-100107996D01*
X118464833Y-100112154D01*
X118482900Y-100123938D01*
X118536017Y-100155923D01*
X118622562Y-100207166D01*
X118740909Y-100276723D01*
X118889436Y-100363653D01*
X119066518Y-100467010D01*
X119270531Y-100585854D01*
X119499852Y-100719239D01*
X119752856Y-100866224D01*
X120027920Y-101025864D01*
X120323420Y-101197218D01*
X120637731Y-101379341D01*
X120969231Y-101571291D01*
X121316294Y-101772124D01*
X121677298Y-101980898D01*
X122050618Y-102196669D01*
X122434631Y-102418494D01*
X122655970Y-102546294D01*
X123045124Y-102771061D01*
X123424377Y-102990320D01*
X123792113Y-103203126D01*
X124146715Y-103408538D01*
X124486567Y-103605613D01*
X124810054Y-103793408D01*
X125115558Y-103970981D01*
X125401464Y-104137388D01*
X125666156Y-104291689D01*
X125908017Y-104432939D01*
X126125431Y-104560196D01*
X126316781Y-104672519D01*
X126480453Y-104768963D01*
X126614829Y-104848586D01*
X126718293Y-104910446D01*
X126789230Y-104953601D01*
X126826022Y-104977107D01*
X126831095Y-104981354D01*
X126811950Y-104992849D01*
X126758132Y-105024355D01*
X126671633Y-105074719D01*
X126554446Y-105142790D01*
X126408563Y-105227417D01*
X126235975Y-105327449D01*
X126038676Y-105441735D01*
X125818657Y-105569124D01*
X125577911Y-105708465D01*
X125318430Y-105858606D01*
X125042206Y-106018396D01*
X124751232Y-106186685D01*
X124447499Y-106362321D01*
X124133000Y-106544153D01*
X123809727Y-106731030D01*
X123479672Y-106921801D01*
X123144828Y-107115314D01*
X122807187Y-107310419D01*
X122468741Y-107505965D01*
X122131482Y-107700799D01*
X121797403Y-107893772D01*
X121468496Y-108083732D01*
X121146752Y-108269528D01*
X120834165Y-108450009D01*
X120532726Y-108624023D01*
X120244429Y-108790420D01*
X119971264Y-108948048D01*
X119715224Y-109095757D01*
X119478302Y-109232395D01*
X119262489Y-109356811D01*
X119069779Y-109467854D01*
X118902162Y-109564372D01*
X118761632Y-109645216D01*
X118650181Y-109709233D01*
X118569800Y-109755272D01*
X118522483Y-109782183D01*
X118517750Y-109784840D01*
X118411917Y-109844020D01*
X114205797Y-107416718D01*
X113815781Y-107191548D01*
X113435582Y-106971856D01*
X113066820Y-106758586D01*
X112711114Y-106552680D01*
X112370081Y-106355081D01*
X112045341Y-106166731D01*
X111738513Y-105988575D01*
X111451215Y-105821554D01*
X111185066Y-105666611D01*
X110941685Y-105524689D01*
X110722690Y-105396731D01*
X110529701Y-105283680D01*
X110364336Y-105186479D01*
X110228213Y-105106069D01*
X110122953Y-105043396D01*
X110050173Y-104999400D01*
X110011491Y-104975025D01*
X110005322Y-104970215D01*
X110023921Y-104957998D01*
X110077569Y-104925590D01*
X110164639Y-104873935D01*
X110283502Y-104803981D01*
X110432530Y-104716672D01*
X110610094Y-104612956D01*
X110814567Y-104493778D01*
X111044318Y-104360085D01*
X111297721Y-104212821D01*
X111573147Y-104052934D01*
X111868967Y-103881370D01*
X112183554Y-103699073D01*
X112515277Y-103506991D01*
X112862510Y-103306070D01*
X113223624Y-103097255D01*
X113596990Y-102881492D01*
X113980981Y-102659728D01*
X114195237Y-102536048D01*
X114584244Y-102311484D01*
X114963472Y-102092473D01*
X115331296Y-101879957D01*
X115686091Y-101674878D01*
X116026232Y-101478177D01*
X116350093Y-101290798D01*
X116656051Y-101113682D01*
X116942481Y-100947771D01*
X117207757Y-100794007D01*
X117450254Y-100653332D01*
X117668348Y-100526689D01*
X117860414Y-100415019D01*
X118024826Y-100319264D01*
X118159961Y-100240367D01*
X118264193Y-100179269D01*
X118335896Y-100136913D01*
X118373447Y-100114240D01*
X118378954Y-100110500D01*
X118360834Y-100099092D01*
X118307663Y-100067487D01*
X118221066Y-100016627D01*
X118102669Y-99947454D01*
X117954099Y-99860910D01*
X117776981Y-99757937D01*
X117572941Y-99639477D01*
X117343606Y-99506472D01*
X117090601Y-99359864D01*
X116815553Y-99200596D01*
X116520087Y-99029608D01*
X116205830Y-98847843D01*
X115874407Y-98656244D01*
X115527444Y-98455752D01*
X115166568Y-98247309D01*
X114793404Y-98031857D01*
X114409578Y-97810338D01*
X114195659Y-97686916D01*
X113806637Y-97462403D01*
X113427386Y-97243353D01*
X113059533Y-97030714D01*
X112704705Y-96825433D01*
X112364528Y-96628455D01*
X112040630Y-96440728D01*
X111734637Y-96263197D01*
X111448176Y-96096810D01*
X111182874Y-95942512D01*
X110940357Y-95801251D01*
X110722253Y-95673972D01*
X110530188Y-95561623D01*
X110365789Y-95465150D01*
X110230682Y-95385498D01*
X110126496Y-95323616D01*
X110054856Y-95280449D01*
X110017389Y-95256944D01*
X110011938Y-95252750D01*
X110029869Y-95240675D01*
X110082503Y-95208608D01*
X110167861Y-95157695D01*
X110283967Y-95089080D01*
X110428842Y-95003907D01*
X110600510Y-94903321D01*
X110796993Y-94788466D01*
X111016313Y-94660487D01*
X111256493Y-94520529D01*
X111515556Y-94369735D01*
X111791525Y-94209251D01*
X112082421Y-94040220D01*
X112386267Y-93863788D01*
X112701086Y-93681100D01*
X113024901Y-93493298D01*
X113355734Y-93301529D01*
X113691607Y-93106937D01*
X114030544Y-92910665D01*
X114370566Y-92713859D01*
X114709697Y-92517664D01*
X115045959Y-92323223D01*
X115377374Y-92131681D01*
X115701965Y-91944183D01*
X116017755Y-91761873D01*
X116322766Y-91585897D01*
X116615021Y-91417397D01*
X116892542Y-91257520D01*
X117153353Y-91107408D01*
X117395474Y-90968208D01*
X117616930Y-90841063D01*
X117815742Y-90727118D01*
X117989933Y-90627518D01*
X118137527Y-90543407D01*
X118256544Y-90475929D01*
X118345008Y-90426229D01*
X118400942Y-90395452D01*
X118422368Y-90384743D01*
X118422500Y-90384755D01*
G37*
X118422500Y-90384755D02*
X118444065Y-90396861D01*
X118500178Y-90428939D01*
X118588856Y-90479844D01*
X118708118Y-90548432D01*
X118855982Y-90633559D01*
X119030467Y-90734079D01*
X119229591Y-90848850D01*
X119451374Y-90976725D01*
X119693832Y-91116562D01*
X119954985Y-91267214D01*
X120232851Y-91427539D01*
X120525449Y-91596391D01*
X120830797Y-91772627D01*
X121146913Y-91955101D01*
X121471817Y-92142669D01*
X121803525Y-92334187D01*
X122140058Y-92528511D01*
X122479433Y-92724496D01*
X122819668Y-92920997D01*
X123158783Y-93116870D01*
X123494796Y-93310971D01*
X123825725Y-93502155D01*
X124149588Y-93689278D01*
X124464404Y-93871196D01*
X124768192Y-94046763D01*
X125058970Y-94214836D01*
X125334756Y-94374270D01*
X125593569Y-94523921D01*
X125833428Y-94662645D01*
X126052350Y-94789296D01*
X126248355Y-94902730D01*
X126419460Y-95001804D01*
X126563684Y-95085372D01*
X126679046Y-95152290D01*
X126763564Y-95201415D01*
X126815257Y-95231600D01*
X126832145Y-95241682D01*
X126815675Y-95253550D01*
X126764136Y-95285604D01*
X126679144Y-95336901D01*
X126562315Y-95406499D01*
X126415264Y-95493456D01*
X126239606Y-95596829D01*
X126036958Y-95715676D01*
X125808935Y-95849053D01*
X125557151Y-95996019D01*
X125283223Y-96155632D01*
X124988766Y-96326948D01*
X124675396Y-96509026D01*
X124344728Y-96700922D01*
X123998378Y-96901695D01*
X123637960Y-97110401D01*
X123265091Y-97326099D01*
X122881387Y-97547846D01*
X122657020Y-97677410D01*
X122267629Y-97902270D01*
X121888012Y-98121610D01*
X121519792Y-98334486D01*
X121164593Y-98539955D01*
X120824038Y-98737076D01*
X120499752Y-98924903D01*
X120193358Y-99102495D01*
X119906480Y-99268908D01*
X119640742Y-99423200D01*
X119397766Y-99564427D01*
X119179178Y-99691647D01*
X118986600Y-99803916D01*
X118821656Y-99900291D01*
X118685970Y-99979830D01*
X118581166Y-100041589D01*
X118508867Y-100084625D01*
X118470697Y-100107996D01*
X118464833Y-100112154D01*
X118482900Y-100123938D01*
X118536017Y-100155923D01*
X118622562Y-100207166D01*
X118740909Y-100276723D01*
X118889436Y-100363653D01*
X119066518Y-100467010D01*
X119270531Y-100585854D01*
X119499852Y-100719239D01*
X119752856Y-100866224D01*
X120027920Y-101025864D01*
X120323420Y-101197218D01*
X120637731Y-101379341D01*
X120969231Y-101571291D01*
X121316294Y-101772124D01*
X121677298Y-101980898D01*
X122050618Y-102196669D01*
X122434631Y-102418494D01*
X122655970Y-102546294D01*
X123045124Y-102771061D01*
X123424377Y-102990320D01*
X123792113Y-103203126D01*
X124146715Y-103408538D01*
X124486567Y-103605613D01*
X124810054Y-103793408D01*
X125115558Y-103970981D01*
X125401464Y-104137388D01*
X125666156Y-104291689D01*
X125908017Y-104432939D01*
X126125431Y-104560196D01*
X126316781Y-104672519D01*
X126480453Y-104768963D01*
X126614829Y-104848586D01*
X126718293Y-104910446D01*
X126789230Y-104953601D01*
X126826022Y-104977107D01*
X126831095Y-104981354D01*
X126811950Y-104992849D01*
X126758132Y-105024355D01*
X126671633Y-105074719D01*
X126554446Y-105142790D01*
X126408563Y-105227417D01*
X126235975Y-105327449D01*
X126038676Y-105441735D01*
X125818657Y-105569124D01*
X125577911Y-105708465D01*
X125318430Y-105858606D01*
X125042206Y-106018396D01*
X124751232Y-106186685D01*
X124447499Y-106362321D01*
X124133000Y-106544153D01*
X123809727Y-106731030D01*
X123479672Y-106921801D01*
X123144828Y-107115314D01*
X122807187Y-107310419D01*
X122468741Y-107505965D01*
X122131482Y-107700799D01*
X121797403Y-107893772D01*
X121468496Y-108083732D01*
X121146752Y-108269528D01*
X120834165Y-108450009D01*
X120532726Y-108624023D01*
X120244429Y-108790420D01*
X119971264Y-108948048D01*
X119715224Y-109095757D01*
X119478302Y-109232395D01*
X119262489Y-109356811D01*
X119069779Y-109467854D01*
X118902162Y-109564372D01*
X118761632Y-109645216D01*
X118650181Y-109709233D01*
X118569800Y-109755272D01*
X118522483Y-109782183D01*
X118517750Y-109784840D01*
X118411917Y-109844020D01*
X114205797Y-107416718D01*
X113815781Y-107191548D01*
X113435582Y-106971856D01*
X113066820Y-106758586D01*
X112711114Y-106552680D01*
X112370081Y-106355081D01*
X112045341Y-106166731D01*
X111738513Y-105988575D01*
X111451215Y-105821554D01*
X111185066Y-105666611D01*
X110941685Y-105524689D01*
X110722690Y-105396731D01*
X110529701Y-105283680D01*
X110364336Y-105186479D01*
X110228213Y-105106069D01*
X110122953Y-105043396D01*
X110050173Y-104999400D01*
X110011491Y-104975025D01*
X110005322Y-104970215D01*
X110023921Y-104957998D01*
X110077569Y-104925590D01*
X110164639Y-104873935D01*
X110283502Y-104803981D01*
X110432530Y-104716672D01*
X110610094Y-104612956D01*
X110814567Y-104493778D01*
X111044318Y-104360085D01*
X111297721Y-104212821D01*
X111573147Y-104052934D01*
X111868967Y-103881370D01*
X112183554Y-103699073D01*
X112515277Y-103506991D01*
X112862510Y-103306070D01*
X113223624Y-103097255D01*
X113596990Y-102881492D01*
X113980981Y-102659728D01*
X114195237Y-102536048D01*
X114584244Y-102311484D01*
X114963472Y-102092473D01*
X115331296Y-101879957D01*
X115686091Y-101674878D01*
X116026232Y-101478177D01*
X116350093Y-101290798D01*
X116656051Y-101113682D01*
X116942481Y-100947771D01*
X117207757Y-100794007D01*
X117450254Y-100653332D01*
X117668348Y-100526689D01*
X117860414Y-100415019D01*
X118024826Y-100319264D01*
X118159961Y-100240367D01*
X118264193Y-100179269D01*
X118335896Y-100136913D01*
X118373447Y-100114240D01*
X118378954Y-100110500D01*
X118360834Y-100099092D01*
X118307663Y-100067487D01*
X118221066Y-100016627D01*
X118102669Y-99947454D01*
X117954099Y-99860910D01*
X117776981Y-99757937D01*
X117572941Y-99639477D01*
X117343606Y-99506472D01*
X117090601Y-99359864D01*
X116815553Y-99200596D01*
X116520087Y-99029608D01*
X116205830Y-98847843D01*
X115874407Y-98656244D01*
X115527444Y-98455752D01*
X115166568Y-98247309D01*
X114793404Y-98031857D01*
X114409578Y-97810338D01*
X114195659Y-97686916D01*
X113806637Y-97462403D01*
X113427386Y-97243353D01*
X113059533Y-97030714D01*
X112704705Y-96825433D01*
X112364528Y-96628455D01*
X112040630Y-96440728D01*
X111734637Y-96263197D01*
X111448176Y-96096810D01*
X111182874Y-95942512D01*
X110940357Y-95801251D01*
X110722253Y-95673972D01*
X110530188Y-95561623D01*
X110365789Y-95465150D01*
X110230682Y-95385498D01*
X110126496Y-95323616D01*
X110054856Y-95280449D01*
X110017389Y-95256944D01*
X110011938Y-95252750D01*
X110029869Y-95240675D01*
X110082503Y-95208608D01*
X110167861Y-95157695D01*
X110283967Y-95089080D01*
X110428842Y-95003907D01*
X110600510Y-94903321D01*
X110796993Y-94788466D01*
X111016313Y-94660487D01*
X111256493Y-94520529D01*
X111515556Y-94369735D01*
X111791525Y-94209251D01*
X112082421Y-94040220D01*
X112386267Y-93863788D01*
X112701086Y-93681100D01*
X113024901Y-93493298D01*
X113355734Y-93301529D01*
X113691607Y-93106937D01*
X114030544Y-92910665D01*
X114370566Y-92713859D01*
X114709697Y-92517664D01*
X115045959Y-92323223D01*
X115377374Y-92131681D01*
X115701965Y-91944183D01*
X116017755Y-91761873D01*
X116322766Y-91585897D01*
X116615021Y-91417397D01*
X116892542Y-91257520D01*
X117153353Y-91107408D01*
X117395474Y-90968208D01*
X117616930Y-90841063D01*
X117815742Y-90727118D01*
X117989933Y-90627518D01*
X118137527Y-90543407D01*
X118256544Y-90475929D01*
X118345008Y-90426229D01*
X118400942Y-90395452D01*
X118422368Y-90384743D01*
X118422500Y-90384755D01*
G36*
X152093905Y-100128257D02*
G01*
X152149567Y-100158033D01*
X152237884Y-100206752D01*
X152356870Y-100273269D01*
X152504540Y-100356443D01*
X152678908Y-100455128D01*
X152877990Y-100568182D01*
X153099799Y-100694461D01*
X153342351Y-100832822D01*
X153603660Y-100982120D01*
X153881740Y-101141214D01*
X154174607Y-101308958D01*
X154480275Y-101484210D01*
X154796758Y-101665825D01*
X155122072Y-101852662D01*
X155454230Y-102043575D01*
X155791248Y-102237422D01*
X156131140Y-102433058D01*
X156471921Y-102629341D01*
X156811605Y-102825127D01*
X157148208Y-103019273D01*
X157479743Y-103210634D01*
X157804225Y-103398068D01*
X158119670Y-103580430D01*
X158424091Y-103756578D01*
X158715503Y-103925368D01*
X158991921Y-104085656D01*
X159251359Y-104236300D01*
X159491833Y-104376154D01*
X159711357Y-104504076D01*
X159907945Y-104618923D01*
X160079612Y-104719550D01*
X160224373Y-104804815D01*
X160340242Y-104873573D01*
X160425234Y-104924682D01*
X160477363Y-104956997D01*
X160494642Y-104969256D01*
X160477013Y-104980843D01*
X160424707Y-105012464D01*
X160339701Y-105062970D01*
X160223972Y-105131215D01*
X160079498Y-105216052D01*
X159908256Y-105316336D01*
X159712224Y-105430918D01*
X159493378Y-105558653D01*
X159253696Y-105698393D01*
X158995155Y-105848992D01*
X158719733Y-106009304D01*
X158429407Y-106178181D01*
X158126154Y-106354477D01*
X157811951Y-106537045D01*
X157488776Y-106724738D01*
X157158606Y-106916410D01*
X156823418Y-107110914D01*
X156485191Y-107307103D01*
X156145900Y-107503831D01*
X155807523Y-107699950D01*
X155472038Y-107894315D01*
X155141421Y-108085778D01*
X154817651Y-108273193D01*
X154502705Y-108455413D01*
X154198559Y-108631291D01*
X153907191Y-108799681D01*
X153630578Y-108959436D01*
X153370698Y-109109409D01*
X153129528Y-109248454D01*
X152909046Y-109375423D01*
X152711228Y-109489170D01*
X152538051Y-109588549D01*
X152391494Y-109672412D01*
X152273534Y-109739613D01*
X152186147Y-109789006D01*
X152131486Y-109819348D01*
X152123902Y-109820709D01*
X152110868Y-109818489D01*
X152090999Y-109811905D01*
X152062908Y-109800175D01*
X152025209Y-109782515D01*
X151976517Y-109758141D01*
X151915444Y-109726271D01*
X151840606Y-109686122D01*
X151750615Y-109636910D01*
X151644085Y-109577852D01*
X151519632Y-109508166D01*
X151375867Y-109427067D01*
X151211406Y-109333774D01*
X151024862Y-109227502D01*
X150814849Y-109107469D01*
X150579980Y-108972891D01*
X150318871Y-108822986D01*
X150030134Y-108656970D01*
X149712383Y-108474059D01*
X149364233Y-108273472D01*
X148984297Y-108054425D01*
X148571189Y-107816134D01*
X148123523Y-107557817D01*
X147885094Y-107420208D01*
X147495131Y-107195108D01*
X147114819Y-106975530D01*
X146745786Y-106762418D01*
X146389662Y-106556714D01*
X146048077Y-106359361D01*
X145722661Y-106171303D01*
X145415043Y-105993481D01*
X145126854Y-105826840D01*
X144859723Y-105672321D01*
X144615280Y-105530867D01*
X144395154Y-105403422D01*
X144200976Y-105290927D01*
X144034375Y-105194327D01*
X143896981Y-105114563D01*
X143790424Y-105052579D01*
X143716333Y-105009318D01*
X143676339Y-104985721D01*
X143669409Y-104981419D01*
X143686172Y-104969873D01*
X143737646Y-104938342D01*
X143821858Y-104887970D01*
X143936835Y-104819897D01*
X144080603Y-104735267D01*
X144251188Y-104635221D01*
X144446617Y-104520901D01*
X144664915Y-104393449D01*
X144904111Y-104254008D01*
X145162230Y-104103719D01*
X145437298Y-103943725D01*
X145727342Y-103775167D01*
X146030388Y-103599187D01*
X146344464Y-103416928D01*
X146667594Y-103229532D01*
X146997806Y-103038140D01*
X147333127Y-102843895D01*
X147671582Y-102647939D01*
X148011198Y-102451413D01*
X148350001Y-102255461D01*
X148686018Y-102061223D01*
X149017275Y-101869842D01*
X149341800Y-101682460D01*
X149657617Y-101500219D01*
X149962754Y-101324261D01*
X150255237Y-101155729D01*
X150533092Y-100995763D01*
X150794346Y-100845507D01*
X151037026Y-100706102D01*
X151259157Y-100578690D01*
X151458767Y-100464414D01*
X151633881Y-100364415D01*
X151782526Y-100279835D01*
X151902729Y-100211817D01*
X151992516Y-100161503D01*
X152049913Y-100130034D01*
X152072882Y-100118567D01*
X152093905Y-100128257D01*
G37*
X152093905Y-100128257D02*
X152149567Y-100158033D01*
X152237884Y-100206752D01*
X152356870Y-100273269D01*
X152504540Y-100356443D01*
X152678908Y-100455128D01*
X152877990Y-100568182D01*
X153099799Y-100694461D01*
X153342351Y-100832822D01*
X153603660Y-100982120D01*
X153881740Y-101141214D01*
X154174607Y-101308958D01*
X154480275Y-101484210D01*
X154796758Y-101665825D01*
X155122072Y-101852662D01*
X155454230Y-102043575D01*
X155791248Y-102237422D01*
X156131140Y-102433058D01*
X156471921Y-102629341D01*
X156811605Y-102825127D01*
X157148208Y-103019273D01*
X157479743Y-103210634D01*
X157804225Y-103398068D01*
X158119670Y-103580430D01*
X158424091Y-103756578D01*
X158715503Y-103925368D01*
X158991921Y-104085656D01*
X159251359Y-104236300D01*
X159491833Y-104376154D01*
X159711357Y-104504076D01*
X159907945Y-104618923D01*
X160079612Y-104719550D01*
X160224373Y-104804815D01*
X160340242Y-104873573D01*
X160425234Y-104924682D01*
X160477363Y-104956997D01*
X160494642Y-104969256D01*
X160477013Y-104980843D01*
X160424707Y-105012464D01*
X160339701Y-105062970D01*
X160223972Y-105131215D01*
X160079498Y-105216052D01*
X159908256Y-105316336D01*
X159712224Y-105430918D01*
X159493378Y-105558653D01*
X159253696Y-105698393D01*
X158995155Y-105848992D01*
X158719733Y-106009304D01*
X158429407Y-106178181D01*
X158126154Y-106354477D01*
X157811951Y-106537045D01*
X157488776Y-106724738D01*
X157158606Y-106916410D01*
X156823418Y-107110914D01*
X156485191Y-107307103D01*
X156145900Y-107503831D01*
X155807523Y-107699950D01*
X155472038Y-107894315D01*
X155141421Y-108085778D01*
X154817651Y-108273193D01*
X154502705Y-108455413D01*
X154198559Y-108631291D01*
X153907191Y-108799681D01*
X153630578Y-108959436D01*
X153370698Y-109109409D01*
X153129528Y-109248454D01*
X152909046Y-109375423D01*
X152711228Y-109489170D01*
X152538051Y-109588549D01*
X152391494Y-109672412D01*
X152273534Y-109739613D01*
X152186147Y-109789006D01*
X152131486Y-109819348D01*
X152123902Y-109820709D01*
X152110868Y-109818489D01*
X152090999Y-109811905D01*
X152062908Y-109800175D01*
X152025209Y-109782515D01*
X151976517Y-109758141D01*
X151915444Y-109726271D01*
X151840606Y-109686122D01*
X151750615Y-109636910D01*
X151644085Y-109577852D01*
X151519632Y-109508166D01*
X151375867Y-109427067D01*
X151211406Y-109333774D01*
X151024862Y-109227502D01*
X150814849Y-109107469D01*
X150579980Y-108972891D01*
X150318871Y-108822986D01*
X150030134Y-108656970D01*
X149712383Y-108474059D01*
X149364233Y-108273472D01*
X148984297Y-108054425D01*
X148571189Y-107816134D01*
X148123523Y-107557817D01*
X147885094Y-107420208D01*
X147495131Y-107195108D01*
X147114819Y-106975530D01*
X146745786Y-106762418D01*
X146389662Y-106556714D01*
X146048077Y-106359361D01*
X145722661Y-106171303D01*
X145415043Y-105993481D01*
X145126854Y-105826840D01*
X144859723Y-105672321D01*
X144615280Y-105530867D01*
X144395154Y-105403422D01*
X144200976Y-105290927D01*
X144034375Y-105194327D01*
X143896981Y-105114563D01*
X143790424Y-105052579D01*
X143716333Y-105009318D01*
X143676339Y-104985721D01*
X143669409Y-104981419D01*
X143686172Y-104969873D01*
X143737646Y-104938342D01*
X143821858Y-104887970D01*
X143936835Y-104819897D01*
X144080603Y-104735267D01*
X144251188Y-104635221D01*
X144446617Y-104520901D01*
X144664915Y-104393449D01*
X144904111Y-104254008D01*
X145162230Y-104103719D01*
X145437298Y-103943725D01*
X145727342Y-103775167D01*
X146030388Y-103599187D01*
X146344464Y-103416928D01*
X146667594Y-103229532D01*
X146997806Y-103038140D01*
X147333127Y-102843895D01*
X147671582Y-102647939D01*
X148011198Y-102451413D01*
X148350001Y-102255461D01*
X148686018Y-102061223D01*
X149017275Y-101869842D01*
X149341800Y-101682460D01*
X149657617Y-101500219D01*
X149962754Y-101324261D01*
X150255237Y-101155729D01*
X150533092Y-100995763D01*
X150794346Y-100845507D01*
X151037026Y-100706102D01*
X151259157Y-100578690D01*
X151458767Y-100464414D01*
X151633881Y-100364415D01*
X151782526Y-100279835D01*
X151902729Y-100211817D01*
X151992516Y-100161503D01*
X152049913Y-100130034D01*
X152072882Y-100118567D01*
X152093905Y-100128257D01*
G36*
X122606306Y-73357984D02*
G01*
X122995851Y-73582793D01*
X123375821Y-73802153D01*
X123744577Y-74015115D01*
X124100481Y-74220731D01*
X124441896Y-74418052D01*
X124767184Y-74606130D01*
X125074707Y-74784017D01*
X125362827Y-74950762D01*
X125629907Y-75105419D01*
X125874309Y-75247039D01*
X126094395Y-75374673D01*
X126288528Y-75487372D01*
X126455069Y-75584188D01*
X126592381Y-75664173D01*
X126698827Y-75726377D01*
X126772768Y-75769854D01*
X126812566Y-75793653D01*
X126819301Y-75798003D01*
X126813214Y-75805993D01*
X126788147Y-75824613D01*
X126743098Y-75854451D01*
X126677064Y-75896095D01*
X126589043Y-75950134D01*
X126478032Y-76017154D01*
X126343028Y-76097744D01*
X126183029Y-76192492D01*
X125997031Y-76301986D01*
X125784034Y-76426813D01*
X125543032Y-76567562D01*
X125273026Y-76724820D01*
X124973010Y-76899175D01*
X124641984Y-77091217D01*
X124278944Y-77301531D01*
X123882888Y-77530706D01*
X123452813Y-77779331D01*
X122987717Y-78047992D01*
X122636734Y-78250625D01*
X122246439Y-78475853D01*
X121865761Y-78695426D01*
X121496329Y-78908409D01*
X121139771Y-79113866D01*
X120797717Y-79310861D01*
X120471795Y-79498459D01*
X120163635Y-79675725D01*
X119874866Y-79841723D01*
X119607117Y-79995517D01*
X119362016Y-80136173D01*
X119141192Y-80262754D01*
X118946276Y-80374326D01*
X118778895Y-80469952D01*
X118640678Y-80548698D01*
X118533256Y-80609628D01*
X118458256Y-80651806D01*
X118417308Y-80674297D01*
X118409767Y-80677954D01*
X118389929Y-80667369D01*
X118335076Y-80636530D01*
X118246841Y-80586377D01*
X118126854Y-80517849D01*
X117976749Y-80431886D01*
X117798156Y-80329426D01*
X117592709Y-80211409D01*
X117362038Y-80078774D01*
X117107776Y-79932460D01*
X116831555Y-79773407D01*
X116535007Y-79602554D01*
X116219762Y-79420840D01*
X115887455Y-79229204D01*
X115539715Y-79028586D01*
X115178176Y-78819925D01*
X114804470Y-78604160D01*
X114420227Y-78382231D01*
X114199949Y-78254967D01*
X113810588Y-78029936D01*
X113430954Y-77810413D01*
X113062675Y-77597343D01*
X112707376Y-77391670D01*
X112366684Y-77194339D01*
X112042225Y-77006296D01*
X111735625Y-76828485D01*
X111448510Y-76661851D01*
X111182508Y-76507339D01*
X110939243Y-76365894D01*
X110720342Y-76238460D01*
X110527431Y-76125983D01*
X110362138Y-76029408D01*
X110226087Y-75949679D01*
X110120906Y-75887741D01*
X110048220Y-75844539D01*
X110009656Y-75821019D01*
X110003569Y-75816789D01*
X110021208Y-75805316D01*
X110073521Y-75773817D01*
X110158528Y-75723442D01*
X110274244Y-75655340D01*
X110418687Y-75570659D01*
X110589876Y-75470550D01*
X110785828Y-75356161D01*
X111004560Y-75228641D01*
X111244090Y-75089139D01*
X111502435Y-74938805D01*
X111777613Y-74778787D01*
X112067642Y-74610235D01*
X112370538Y-74434297D01*
X112684321Y-74252123D01*
X113007007Y-74064862D01*
X113336614Y-73873662D01*
X113671159Y-73679674D01*
X114008660Y-73484046D01*
X114347135Y-73287927D01*
X114684601Y-73092466D01*
X115019076Y-72898813D01*
X115348577Y-72708116D01*
X115671123Y-72521525D01*
X115984729Y-72340188D01*
X116287415Y-72165255D01*
X116577197Y-71997875D01*
X116852094Y-71839196D01*
X117110122Y-71690369D01*
X117349300Y-71552542D01*
X117567644Y-71426864D01*
X117763173Y-71314484D01*
X117933905Y-71216552D01*
X118077856Y-71134215D01*
X118193044Y-71068625D01*
X118276208Y-71021647D01*
X118418695Y-70941710D01*
X122606306Y-73357984D01*
G37*
X122606306Y-73357984D02*
X122995851Y-73582793D01*
X123375821Y-73802153D01*
X123744577Y-74015115D01*
X124100481Y-74220731D01*
X124441896Y-74418052D01*
X124767184Y-74606130D01*
X125074707Y-74784017D01*
X125362827Y-74950762D01*
X125629907Y-75105419D01*
X125874309Y-75247039D01*
X126094395Y-75374673D01*
X126288528Y-75487372D01*
X126455069Y-75584188D01*
X126592381Y-75664173D01*
X126698827Y-75726377D01*
X126772768Y-75769854D01*
X126812566Y-75793653D01*
X126819301Y-75798003D01*
X126813214Y-75805993D01*
X126788147Y-75824613D01*
X126743098Y-75854451D01*
X126677064Y-75896095D01*
X126589043Y-75950134D01*
X126478032Y-76017154D01*
X126343028Y-76097744D01*
X126183029Y-76192492D01*
X125997031Y-76301986D01*
X125784034Y-76426813D01*
X125543032Y-76567562D01*
X125273026Y-76724820D01*
X124973010Y-76899175D01*
X124641984Y-77091217D01*
X124278944Y-77301531D01*
X123882888Y-77530706D01*
X123452813Y-77779331D01*
X122987717Y-78047992D01*
X122636734Y-78250625D01*
X122246439Y-78475853D01*
X121865761Y-78695426D01*
X121496329Y-78908409D01*
X121139771Y-79113866D01*
X120797717Y-79310861D01*
X120471795Y-79498459D01*
X120163635Y-79675725D01*
X119874866Y-79841723D01*
X119607117Y-79995517D01*
X119362016Y-80136173D01*
X119141192Y-80262754D01*
X118946276Y-80374326D01*
X118778895Y-80469952D01*
X118640678Y-80548698D01*
X118533256Y-80609628D01*
X118458256Y-80651806D01*
X118417308Y-80674297D01*
X118409767Y-80677954D01*
X118389929Y-80667369D01*
X118335076Y-80636530D01*
X118246841Y-80586377D01*
X118126854Y-80517849D01*
X117976749Y-80431886D01*
X117798156Y-80329426D01*
X117592709Y-80211409D01*
X117362038Y-80078774D01*
X117107776Y-79932460D01*
X116831555Y-79773407D01*
X116535007Y-79602554D01*
X116219762Y-79420840D01*
X115887455Y-79229204D01*
X115539715Y-79028586D01*
X115178176Y-78819925D01*
X114804470Y-78604160D01*
X114420227Y-78382231D01*
X114199949Y-78254967D01*
X113810588Y-78029936D01*
X113430954Y-77810413D01*
X113062675Y-77597343D01*
X112707376Y-77391670D01*
X112366684Y-77194339D01*
X112042225Y-77006296D01*
X111735625Y-76828485D01*
X111448510Y-76661851D01*
X111182508Y-76507339D01*
X110939243Y-76365894D01*
X110720342Y-76238460D01*
X110527431Y-76125983D01*
X110362138Y-76029408D01*
X110226087Y-75949679D01*
X110120906Y-75887741D01*
X110048220Y-75844539D01*
X110009656Y-75821019D01*
X110003569Y-75816789D01*
X110021208Y-75805316D01*
X110073521Y-75773817D01*
X110158528Y-75723442D01*
X110274244Y-75655340D01*
X110418687Y-75570659D01*
X110589876Y-75470550D01*
X110785828Y-75356161D01*
X111004560Y-75228641D01*
X111244090Y-75089139D01*
X111502435Y-74938805D01*
X111777613Y-74778787D01*
X112067642Y-74610235D01*
X112370538Y-74434297D01*
X112684321Y-74252123D01*
X113007007Y-74064862D01*
X113336614Y-73873662D01*
X113671159Y-73679674D01*
X114008660Y-73484046D01*
X114347135Y-73287927D01*
X114684601Y-73092466D01*
X115019076Y-72898813D01*
X115348577Y-72708116D01*
X115671123Y-72521525D01*
X115984729Y-72340188D01*
X116287415Y-72165255D01*
X116577197Y-71997875D01*
X116852094Y-71839196D01*
X117110122Y-71690369D01*
X117349300Y-71552542D01*
X117567644Y-71426864D01*
X117763173Y-71314484D01*
X117933905Y-71216552D01*
X118077856Y-71134215D01*
X118193044Y-71068625D01*
X118276208Y-71021647D01*
X118418695Y-70941710D01*
X122606306Y-73357984D01*
G36*
X110437375Y-56614245D02*
G01*
X111021554Y-56950930D01*
X111590935Y-57279240D01*
X112144542Y-57598608D01*
X112681398Y-57908467D01*
X113200526Y-58208250D01*
X113700950Y-58497391D01*
X114181693Y-58775322D01*
X114641777Y-59041477D01*
X115080227Y-59295288D01*
X115496065Y-59536188D01*
X115888315Y-59763611D01*
X116256000Y-59976990D01*
X116598143Y-60175756D01*
X116913767Y-60359345D01*
X117201896Y-60527188D01*
X117461553Y-60678719D01*
X117691760Y-60813370D01*
X117891543Y-60930575D01*
X118059922Y-61029767D01*
X118195923Y-61110379D01*
X118298568Y-61171844D01*
X118366880Y-61213594D01*
X118399882Y-61235063D01*
X118402975Y-61237916D01*
X118384554Y-61249736D01*
X118331452Y-61281573D01*
X118245652Y-61332281D01*
X118129135Y-61400712D01*
X117983884Y-61485717D01*
X117811880Y-61586149D01*
X117615106Y-61700861D01*
X117395543Y-61828705D01*
X117155173Y-61968533D01*
X116895978Y-62119197D01*
X116619941Y-62279550D01*
X116329042Y-62448445D01*
X116025265Y-62624732D01*
X115710591Y-62807266D01*
X115387001Y-62994897D01*
X115056479Y-63186479D01*
X114721005Y-63380864D01*
X114382563Y-63576903D01*
X114043133Y-63773450D01*
X113704698Y-63969356D01*
X113369239Y-64163475D01*
X113038739Y-64354658D01*
X112715180Y-64541757D01*
X112400544Y-64723625D01*
X112096811Y-64899115D01*
X111805966Y-65067078D01*
X111529988Y-65226366D01*
X111270861Y-65375834D01*
X111030567Y-65514331D01*
X110811086Y-65640711D01*
X110614402Y-65753827D01*
X110442496Y-65852530D01*
X110297350Y-65935673D01*
X110180946Y-66002107D01*
X110095266Y-66050687D01*
X110042293Y-66080263D01*
X110024625Y-66089539D01*
X110021617Y-66083368D01*
X110018831Y-66061423D01*
X110016261Y-66022328D01*
X110013897Y-65964706D01*
X110011734Y-65887181D01*
X110009763Y-65788378D01*
X110007977Y-65666918D01*
X110006368Y-65521428D01*
X110004929Y-65350529D01*
X110003652Y-65152847D01*
X110002531Y-64927004D01*
X110001556Y-64671625D01*
X110000722Y-64385332D01*
X110000020Y-64066751D01*
X109999443Y-63714504D01*
X109998984Y-63327216D01*
X109998634Y-62903510D01*
X109998387Y-62442010D01*
X109998235Y-61941339D01*
X109998170Y-61400122D01*
X109998167Y-61230683D01*
X109998167Y-56361171D01*
X110437375Y-56614245D01*
G37*
X110437375Y-56614245D02*
X111021554Y-56950930D01*
X111590935Y-57279240D01*
X112144542Y-57598608D01*
X112681398Y-57908467D01*
X113200526Y-58208250D01*
X113700950Y-58497391D01*
X114181693Y-58775322D01*
X114641777Y-59041477D01*
X115080227Y-59295288D01*
X115496065Y-59536188D01*
X115888315Y-59763611D01*
X116256000Y-59976990D01*
X116598143Y-60175756D01*
X116913767Y-60359345D01*
X117201896Y-60527188D01*
X117461553Y-60678719D01*
X117691760Y-60813370D01*
X117891543Y-60930575D01*
X118059922Y-61029767D01*
X118195923Y-61110379D01*
X118298568Y-61171844D01*
X118366880Y-61213594D01*
X118399882Y-61235063D01*
X118402975Y-61237916D01*
X118384554Y-61249736D01*
X118331452Y-61281573D01*
X118245652Y-61332281D01*
X118129135Y-61400712D01*
X117983884Y-61485717D01*
X117811880Y-61586149D01*
X117615106Y-61700861D01*
X117395543Y-61828705D01*
X117155173Y-61968533D01*
X116895978Y-62119197D01*
X116619941Y-62279550D01*
X116329042Y-62448445D01*
X116025265Y-62624732D01*
X115710591Y-62807266D01*
X115387001Y-62994897D01*
X115056479Y-63186479D01*
X114721005Y-63380864D01*
X114382563Y-63576903D01*
X114043133Y-63773450D01*
X113704698Y-63969356D01*
X113369239Y-64163475D01*
X113038739Y-64354658D01*
X112715180Y-64541757D01*
X112400544Y-64723625D01*
X112096811Y-64899115D01*
X111805966Y-65067078D01*
X111529988Y-65226366D01*
X111270861Y-65375834D01*
X111030567Y-65514331D01*
X110811086Y-65640711D01*
X110614402Y-65753827D01*
X110442496Y-65852530D01*
X110297350Y-65935673D01*
X110180946Y-66002107D01*
X110095266Y-66050687D01*
X110042293Y-66080263D01*
X110024625Y-66089539D01*
X110021617Y-66083368D01*
X110018831Y-66061423D01*
X110016261Y-66022328D01*
X110013897Y-65964706D01*
X110011734Y-65887181D01*
X110009763Y-65788378D01*
X110007977Y-65666918D01*
X110006368Y-65521428D01*
X110004929Y-65350529D01*
X110003652Y-65152847D01*
X110002531Y-64927004D01*
X110001556Y-64671625D01*
X110000722Y-64385332D01*
X110000020Y-64066751D01*
X109999443Y-63714504D01*
X109998984Y-63327216D01*
X109998634Y-62903510D01*
X109998387Y-62442010D01*
X109998235Y-61941339D01*
X109998170Y-61400122D01*
X109998167Y-61230683D01*
X109998167Y-56361171D01*
X110437375Y-56614245D01*
G36*
X160501833Y-61228729D02*
G01*
X160501765Y-61679487D01*
X160501565Y-62118957D01*
X160501239Y-62545271D01*
X160500794Y-62956559D01*
X160500234Y-63350956D01*
X160499567Y-63726591D01*
X160498799Y-64081598D01*
X160497935Y-64414109D01*
X160496982Y-64722254D01*
X160495945Y-65004168D01*
X160494832Y-65257980D01*
X160493647Y-65481824D01*
X160492398Y-65673831D01*
X160491089Y-65832133D01*
X160489728Y-65954862D01*
X160488321Y-66040151D01*
X160486872Y-66086131D01*
X160485958Y-66094079D01*
X160466415Y-66083491D01*
X160411854Y-66052650D01*
X160323907Y-66002497D01*
X160204203Y-65933970D01*
X160054372Y-65848008D01*
X159876046Y-65745550D01*
X159670854Y-65627536D01*
X159440427Y-65494905D01*
X159186395Y-65348595D01*
X158910388Y-65189546D01*
X158614037Y-65018697D01*
X158298972Y-64836988D01*
X157966823Y-64645356D01*
X157619221Y-64444743D01*
X157257795Y-64236085D01*
X156884177Y-64020323D01*
X156499997Y-63798396D01*
X156279083Y-63670754D01*
X155889815Y-63445743D01*
X155510337Y-63226246D01*
X155142271Y-63013205D01*
X154787241Y-62807565D01*
X154446867Y-62610270D01*
X154122774Y-62422264D01*
X153816582Y-62244491D01*
X153529914Y-62077896D01*
X153264393Y-61923423D01*
X153021640Y-61782015D01*
X152803279Y-61654617D01*
X152610930Y-61542173D01*
X152446218Y-61445627D01*
X152310763Y-61365924D01*
X152206189Y-61304006D01*
X152134117Y-61260819D01*
X152096169Y-61237307D01*
X152090430Y-61233074D01*
X152108715Y-61221114D01*
X152161993Y-61188988D01*
X152248581Y-61137671D01*
X152366798Y-61068141D01*
X152514962Y-60981376D01*
X152691392Y-60878353D01*
X152894405Y-60760049D01*
X153122319Y-60627442D01*
X153373453Y-60481509D01*
X153646125Y-60323226D01*
X153938654Y-60153573D01*
X154249356Y-59973525D01*
X154576551Y-59784060D01*
X154918556Y-59586156D01*
X155273690Y-59380790D01*
X155640271Y-59168938D01*
X156006263Y-58957557D01*
X156386736Y-58737880D01*
X156759846Y-58522452D01*
X157123745Y-58312342D01*
X157476581Y-58108620D01*
X157816505Y-57912352D01*
X158141667Y-57724607D01*
X158450216Y-57546454D01*
X158740302Y-57378960D01*
X159010075Y-57223194D01*
X159257685Y-57080225D01*
X159481282Y-56951120D01*
X159679015Y-56836949D01*
X159849035Y-56738778D01*
X159989491Y-56657677D01*
X160098532Y-56594713D01*
X160174310Y-56550955D01*
X160210792Y-56529887D01*
X160501833Y-56361791D01*
X160501833Y-61228729D01*
G37*
X160501833Y-61228729D02*
X160501765Y-61679487D01*
X160501565Y-62118957D01*
X160501239Y-62545271D01*
X160500794Y-62956559D01*
X160500234Y-63350956D01*
X160499567Y-63726591D01*
X160498799Y-64081598D01*
X160497935Y-64414109D01*
X160496982Y-64722254D01*
X160495945Y-65004168D01*
X160494832Y-65257980D01*
X160493647Y-65481824D01*
X160492398Y-65673831D01*
X160491089Y-65832133D01*
X160489728Y-65954862D01*
X160488321Y-66040151D01*
X160486872Y-66086131D01*
X160485958Y-66094079D01*
X160466415Y-66083491D01*
X160411854Y-66052650D01*
X160323907Y-66002497D01*
X160204203Y-65933970D01*
X160054372Y-65848008D01*
X159876046Y-65745550D01*
X159670854Y-65627536D01*
X159440427Y-65494905D01*
X159186395Y-65348595D01*
X158910388Y-65189546D01*
X158614037Y-65018697D01*
X158298972Y-64836988D01*
X157966823Y-64645356D01*
X157619221Y-64444743D01*
X157257795Y-64236085D01*
X156884177Y-64020323D01*
X156499997Y-63798396D01*
X156279083Y-63670754D01*
X155889815Y-63445743D01*
X155510337Y-63226246D01*
X155142271Y-63013205D01*
X154787241Y-62807565D01*
X154446867Y-62610270D01*
X154122774Y-62422264D01*
X153816582Y-62244491D01*
X153529914Y-62077896D01*
X153264393Y-61923423D01*
X153021640Y-61782015D01*
X152803279Y-61654617D01*
X152610930Y-61542173D01*
X152446218Y-61445627D01*
X152310763Y-61365924D01*
X152206189Y-61304006D01*
X152134117Y-61260819D01*
X152096169Y-61237307D01*
X152090430Y-61233074D01*
X152108715Y-61221114D01*
X152161993Y-61188988D01*
X152248581Y-61137671D01*
X152366798Y-61068141D01*
X152514962Y-60981376D01*
X152691392Y-60878353D01*
X152894405Y-60760049D01*
X153122319Y-60627442D01*
X153373453Y-60481509D01*
X153646125Y-60323226D01*
X153938654Y-60153573D01*
X154249356Y-59973525D01*
X154576551Y-59784060D01*
X154918556Y-59586156D01*
X155273690Y-59380790D01*
X155640271Y-59168938D01*
X156006263Y-58957557D01*
X156386736Y-58737880D01*
X156759846Y-58522452D01*
X157123745Y-58312342D01*
X157476581Y-58108620D01*
X157816505Y-57912352D01*
X158141667Y-57724607D01*
X158450216Y-57546454D01*
X158740302Y-57378960D01*
X159010075Y-57223194D01*
X159257685Y-57080225D01*
X159481282Y-56951120D01*
X159679015Y-56836949D01*
X159849035Y-56738778D01*
X159989491Y-56657677D01*
X160098532Y-56594713D01*
X160174310Y-56550955D01*
X160210792Y-56529887D01*
X160501833Y-56361791D01*
X160501833Y-61228729D01*
G36*
X127173808Y-58501745D02*
G01*
X127602448Y-58748129D01*
X128018961Y-58987787D01*
X128421928Y-59219893D01*
X128809929Y-59443622D01*
X129181545Y-59658149D01*
X129535355Y-59862648D01*
X129869940Y-60056294D01*
X130183880Y-60238261D01*
X130475756Y-60407725D01*
X130744148Y-60563861D01*
X130987636Y-60705842D01*
X131204801Y-60832843D01*
X131394223Y-60944040D01*
X131554483Y-61038606D01*
X131684160Y-61115717D01*
X131781835Y-61174547D01*
X131846089Y-61214272D01*
X131875501Y-61234064D01*
X131877315Y-61236097D01*
X131858462Y-61249416D01*
X131805421Y-61282262D01*
X131720760Y-61333155D01*
X131607044Y-61400616D01*
X131466842Y-61483165D01*
X131302720Y-61579324D01*
X131117243Y-61687613D01*
X130912980Y-61806552D01*
X130692497Y-61934662D01*
X130458360Y-62070463D01*
X130213137Y-62212477D01*
X129959393Y-62359223D01*
X129699696Y-62509223D01*
X129436612Y-62660996D01*
X129172709Y-62813065D01*
X128910552Y-62963948D01*
X128652709Y-63112167D01*
X128401746Y-63256243D01*
X128160230Y-63394696D01*
X127930728Y-63526046D01*
X127715807Y-63648814D01*
X127518032Y-63761521D01*
X127339971Y-63862688D01*
X127184191Y-63950834D01*
X127053258Y-64024481D01*
X126949739Y-64082149D01*
X126876201Y-64122359D01*
X126835210Y-64143632D01*
X126827458Y-64146723D01*
X126805429Y-64136114D01*
X126748906Y-64105491D01*
X126660020Y-64056068D01*
X126540900Y-63989064D01*
X126393676Y-63905694D01*
X126220479Y-63807176D01*
X126023439Y-63694726D01*
X125804686Y-63569561D01*
X125566351Y-63432897D01*
X125310562Y-63285951D01*
X125039451Y-63129940D01*
X124755147Y-62966080D01*
X124459782Y-62795589D01*
X124280795Y-62692153D01*
X123980650Y-62518457D01*
X123690950Y-62350481D01*
X123413778Y-62189446D01*
X123151212Y-62036575D01*
X122905334Y-61893090D01*
X122678225Y-61760214D01*
X122471964Y-61639168D01*
X122288633Y-61531175D01*
X122130311Y-61437457D01*
X121999080Y-61359236D01*
X121897019Y-61297735D01*
X121826210Y-61254176D01*
X121788733Y-61229781D01*
X121783129Y-61224833D01*
X121802988Y-61212722D01*
X121857408Y-61180689D01*
X121944277Y-61129958D01*
X122061481Y-61061751D01*
X122206909Y-60977293D01*
X122378447Y-60877807D01*
X122573983Y-60764517D01*
X122791404Y-60638647D01*
X123028599Y-60501421D01*
X123283453Y-60354062D01*
X123553854Y-60197794D01*
X123837691Y-60033840D01*
X124132849Y-59863424D01*
X124315468Y-59758024D01*
X126832353Y-58305574D01*
X127173808Y-58501745D01*
G37*
X127173808Y-58501745D02*
X127602448Y-58748129D01*
X128018961Y-58987787D01*
X128421928Y-59219893D01*
X128809929Y-59443622D01*
X129181545Y-59658149D01*
X129535355Y-59862648D01*
X129869940Y-60056294D01*
X130183880Y-60238261D01*
X130475756Y-60407725D01*
X130744148Y-60563861D01*
X130987636Y-60705842D01*
X131204801Y-60832843D01*
X131394223Y-60944040D01*
X131554483Y-61038606D01*
X131684160Y-61115717D01*
X131781835Y-61174547D01*
X131846089Y-61214272D01*
X131875501Y-61234064D01*
X131877315Y-61236097D01*
X131858462Y-61249416D01*
X131805421Y-61282262D01*
X131720760Y-61333155D01*
X131607044Y-61400616D01*
X131466842Y-61483165D01*
X131302720Y-61579324D01*
X131117243Y-61687613D01*
X130912980Y-61806552D01*
X130692497Y-61934662D01*
X130458360Y-62070463D01*
X130213137Y-62212477D01*
X129959393Y-62359223D01*
X129699696Y-62509223D01*
X129436612Y-62660996D01*
X129172709Y-62813065D01*
X128910552Y-62963948D01*
X128652709Y-63112167D01*
X128401746Y-63256243D01*
X128160230Y-63394696D01*
X127930728Y-63526046D01*
X127715807Y-63648814D01*
X127518032Y-63761521D01*
X127339971Y-63862688D01*
X127184191Y-63950834D01*
X127053258Y-64024481D01*
X126949739Y-64082149D01*
X126876201Y-64122359D01*
X126835210Y-64143632D01*
X126827458Y-64146723D01*
X126805429Y-64136114D01*
X126748906Y-64105491D01*
X126660020Y-64056068D01*
X126540900Y-63989064D01*
X126393676Y-63905694D01*
X126220479Y-63807176D01*
X126023439Y-63694726D01*
X125804686Y-63569561D01*
X125566351Y-63432897D01*
X125310562Y-63285951D01*
X125039451Y-63129940D01*
X124755147Y-62966080D01*
X124459782Y-62795589D01*
X124280795Y-62692153D01*
X123980650Y-62518457D01*
X123690950Y-62350481D01*
X123413778Y-62189446D01*
X123151212Y-62036575D01*
X122905334Y-61893090D01*
X122678225Y-61760214D01*
X122471964Y-61639168D01*
X122288633Y-61531175D01*
X122130311Y-61437457D01*
X121999080Y-61359236D01*
X121897019Y-61297735D01*
X121826210Y-61254176D01*
X121788733Y-61229781D01*
X121783129Y-61224833D01*
X121802988Y-61212722D01*
X121857408Y-61180689D01*
X121944277Y-61129958D01*
X122061481Y-61061751D01*
X122206909Y-60977293D01*
X122378447Y-60877807D01*
X122573983Y-60764517D01*
X122791404Y-60638647D01*
X123028599Y-60501421D01*
X123283453Y-60354062D01*
X123553854Y-60197794D01*
X123837691Y-60033840D01*
X124132849Y-59863424D01*
X124315468Y-59758024D01*
X126832353Y-58305574D01*
X127173808Y-58501745D01*
G36*
X126828625Y-36951733D02*
G01*
X126830963Y-37014009D01*
X126833090Y-37118065D01*
X126835006Y-37263622D01*
X126836710Y-37450405D01*
X126838200Y-37678136D01*
X126839476Y-37946539D01*
X126840537Y-38255336D01*
X126841382Y-38604251D01*
X126842010Y-38993006D01*
X126842420Y-39421325D01*
X126842612Y-39888931D01*
X126842584Y-40395547D01*
X126842336Y-40940896D01*
X126841866Y-41524701D01*
X126841587Y-41795896D01*
X126836250Y-46667351D01*
X122733853Y-49035897D01*
X122347075Y-49259204D01*
X121969161Y-49477386D01*
X121601816Y-49689463D01*
X121246741Y-49894450D01*
X120905639Y-50091366D01*
X120580212Y-50279228D01*
X120272163Y-50457052D01*
X119983193Y-50623857D01*
X119715005Y-50778660D01*
X119469302Y-50920478D01*
X119247786Y-51048329D01*
X119052159Y-51161229D01*
X118884123Y-51258197D01*
X118745381Y-51338250D01*
X118637636Y-51400405D01*
X118562589Y-51443679D01*
X118521943Y-51467090D01*
X118516395Y-51470275D01*
X118401333Y-51536106D01*
X118402939Y-41785750D01*
X122604085Y-39362166D01*
X122994147Y-39137166D01*
X123374603Y-38917749D01*
X123743820Y-38704854D01*
X124100167Y-38499423D01*
X124442011Y-38302393D01*
X124767719Y-38114705D01*
X125075661Y-37937299D01*
X125364204Y-37771113D01*
X125631716Y-37617088D01*
X125876564Y-37476163D01*
X126097118Y-37349278D01*
X126291744Y-37237372D01*
X126458811Y-37141384D01*
X126596686Y-37062256D01*
X126703739Y-37000925D01*
X126778336Y-36958332D01*
X126818845Y-36935416D01*
X126826077Y-36931512D01*
X126828625Y-36951733D01*
G37*
X126828625Y-36951733D02*
X126830963Y-37014009D01*
X126833090Y-37118065D01*
X126835006Y-37263622D01*
X126836710Y-37450405D01*
X126838200Y-37678136D01*
X126839476Y-37946539D01*
X126840537Y-38255336D01*
X126841382Y-38604251D01*
X126842010Y-38993006D01*
X126842420Y-39421325D01*
X126842612Y-39888931D01*
X126842584Y-40395547D01*
X126842336Y-40940896D01*
X126841866Y-41524701D01*
X126841587Y-41795896D01*
X126836250Y-46667351D01*
X122733853Y-49035897D01*
X122347075Y-49259204D01*
X121969161Y-49477386D01*
X121601816Y-49689463D01*
X121246741Y-49894450D01*
X120905639Y-50091366D01*
X120580212Y-50279228D01*
X120272163Y-50457052D01*
X119983193Y-50623857D01*
X119715005Y-50778660D01*
X119469302Y-50920478D01*
X119247786Y-51048329D01*
X119052159Y-51161229D01*
X118884123Y-51258197D01*
X118745381Y-51338250D01*
X118637636Y-51400405D01*
X118562589Y-51443679D01*
X118521943Y-51467090D01*
X118516395Y-51470275D01*
X118401333Y-51536106D01*
X118402939Y-41785750D01*
X122604085Y-39362166D01*
X122994147Y-39137166D01*
X123374603Y-38917749D01*
X123743820Y-38704854D01*
X124100167Y-38499423D01*
X124442011Y-38302393D01*
X124767719Y-38114705D01*
X125075661Y-37937299D01*
X125364204Y-37771113D01*
X125631716Y-37617088D01*
X125876564Y-37476163D01*
X126097118Y-37349278D01*
X126291744Y-37237372D01*
X126458811Y-37141384D01*
X126596686Y-37062256D01*
X126703739Y-37000925D01*
X126778336Y-36958332D01*
X126818845Y-36935416D01*
X126826077Y-36931512D01*
X126828625Y-36951733D01*
G36*
X152094685Y-32086030D02*
G01*
X152149897Y-32115794D01*
X152237691Y-32164494D01*
X152356090Y-32230991D01*
X152503118Y-32314142D01*
X152676798Y-32412806D01*
X152875153Y-32525841D01*
X153096206Y-32652106D01*
X153337980Y-32790459D01*
X153598498Y-32939760D01*
X153875784Y-33098866D01*
X154167860Y-33266636D01*
X154472749Y-33441929D01*
X154788475Y-33623603D01*
X155113061Y-33810517D01*
X155444530Y-34001529D01*
X155780905Y-34195499D01*
X156120209Y-34391284D01*
X156460466Y-34587743D01*
X156799698Y-34783734D01*
X157135928Y-34978117D01*
X157467180Y-35169749D01*
X157791477Y-35357490D01*
X158106841Y-35540198D01*
X158411297Y-35716731D01*
X158702867Y-35885948D01*
X158979574Y-36046708D01*
X159239441Y-36197868D01*
X159480492Y-36338289D01*
X159700749Y-36466827D01*
X159898236Y-36582343D01*
X160070976Y-36683693D01*
X160216992Y-36769738D01*
X160334307Y-36839335D01*
X160420944Y-36891343D01*
X160474926Y-36924620D01*
X160494277Y-36938026D01*
X160494298Y-36938162D01*
X160475536Y-36950930D01*
X160422042Y-36983628D01*
X160335799Y-37035111D01*
X160218790Y-37104236D01*
X160072998Y-37189858D01*
X159900407Y-37290833D01*
X159702999Y-37406018D01*
X159482758Y-37534267D01*
X159241667Y-37674437D01*
X158981709Y-37825384D01*
X158704867Y-37985964D01*
X158413123Y-38155032D01*
X158108463Y-38331445D01*
X157792867Y-38514058D01*
X157468320Y-38701727D01*
X157136805Y-38893309D01*
X156800305Y-39087658D01*
X156460802Y-39283631D01*
X156120281Y-39480084D01*
X155780723Y-39675873D01*
X155444113Y-39869853D01*
X155112433Y-40060881D01*
X154787667Y-40247812D01*
X154471798Y-40429502D01*
X154166808Y-40604807D01*
X153874681Y-40772583D01*
X153597400Y-40931686D01*
X153336949Y-41080972D01*
X153095309Y-41219297D01*
X152874465Y-41345516D01*
X152676400Y-41458485D01*
X152503096Y-41557061D01*
X152356537Y-41640099D01*
X152238706Y-41706455D01*
X152151586Y-41754985D01*
X152097160Y-41784545D01*
X152077500Y-41794012D01*
X152056473Y-41783356D01*
X152000445Y-41752429D01*
X151911055Y-41702173D01*
X151789938Y-41633526D01*
X151638731Y-41547430D01*
X151459071Y-41444824D01*
X151252595Y-41326647D01*
X151020940Y-41193841D01*
X150765742Y-41047344D01*
X150488638Y-40888097D01*
X150191266Y-40717039D01*
X149875261Y-40535111D01*
X149542261Y-40343252D01*
X149193902Y-40142402D01*
X148831822Y-39933502D01*
X148457656Y-39717491D01*
X148073043Y-39495309D01*
X147849558Y-39366144D01*
X147460231Y-39140988D01*
X147080798Y-38921355D01*
X146712873Y-38708186D01*
X146358072Y-38502424D01*
X146018009Y-38305012D01*
X145694299Y-38116892D01*
X145388555Y-37939006D01*
X145102393Y-37772297D01*
X144837426Y-37617707D01*
X144595271Y-37476179D01*
X144377540Y-37348654D01*
X144185848Y-37236076D01*
X144021811Y-37139387D01*
X143887041Y-37059529D01*
X143783155Y-36997445D01*
X143711766Y-36954076D01*
X143674490Y-36930366D01*
X143669142Y-36925986D01*
X143689049Y-36913864D01*
X143743635Y-36881767D01*
X143830915Y-36830841D01*
X143948902Y-36762232D01*
X144095611Y-36677086D01*
X144269056Y-36576549D01*
X144467253Y-36461765D01*
X144688215Y-36333881D01*
X144929957Y-36194043D01*
X145190494Y-36043395D01*
X145467839Y-35883084D01*
X145760008Y-35714256D01*
X146065014Y-35538055D01*
X146380873Y-35355628D01*
X146705598Y-35168120D01*
X147037205Y-34976678D01*
X147373707Y-34782446D01*
X147713119Y-34586570D01*
X148053456Y-34390196D01*
X148392731Y-34194470D01*
X148728960Y-34000537D01*
X149060157Y-33809544D01*
X149384337Y-33622634D01*
X149699513Y-33440955D01*
X150003700Y-33265652D01*
X150294913Y-33097871D01*
X150571166Y-32938757D01*
X150830474Y-32789456D01*
X151070851Y-32651113D01*
X151290312Y-32524875D01*
X151486870Y-32411886D01*
X151658541Y-32313293D01*
X151803339Y-32230242D01*
X151919279Y-32163877D01*
X152004374Y-32115345D01*
X152056639Y-32085791D01*
X152074032Y-32076345D01*
X152094685Y-32086030D01*
G37*
X152094685Y-32086030D02*
X152149897Y-32115794D01*
X152237691Y-32164494D01*
X152356090Y-32230991D01*
X152503118Y-32314142D01*
X152676798Y-32412806D01*
X152875153Y-32525841D01*
X153096206Y-32652106D01*
X153337980Y-32790459D01*
X153598498Y-32939760D01*
X153875784Y-33098866D01*
X154167860Y-33266636D01*
X154472749Y-33441929D01*
X154788475Y-33623603D01*
X155113061Y-33810517D01*
X155444530Y-34001529D01*
X155780905Y-34195499D01*
X156120209Y-34391284D01*
X156460466Y-34587743D01*
X156799698Y-34783734D01*
X157135928Y-34978117D01*
X157467180Y-35169749D01*
X157791477Y-35357490D01*
X158106841Y-35540198D01*
X158411297Y-35716731D01*
X158702867Y-35885948D01*
X158979574Y-36046708D01*
X159239441Y-36197868D01*
X159480492Y-36338289D01*
X159700749Y-36466827D01*
X159898236Y-36582343D01*
X160070976Y-36683693D01*
X160216992Y-36769738D01*
X160334307Y-36839335D01*
X160420944Y-36891343D01*
X160474926Y-36924620D01*
X160494277Y-36938026D01*
X160494298Y-36938162D01*
X160475536Y-36950930D01*
X160422042Y-36983628D01*
X160335799Y-37035111D01*
X160218790Y-37104236D01*
X160072998Y-37189858D01*
X159900407Y-37290833D01*
X159702999Y-37406018D01*
X159482758Y-37534267D01*
X159241667Y-37674437D01*
X158981709Y-37825384D01*
X158704867Y-37985964D01*
X158413123Y-38155032D01*
X158108463Y-38331445D01*
X157792867Y-38514058D01*
X157468320Y-38701727D01*
X157136805Y-38893309D01*
X156800305Y-39087658D01*
X156460802Y-39283631D01*
X156120281Y-39480084D01*
X155780723Y-39675873D01*
X155444113Y-39869853D01*
X155112433Y-40060881D01*
X154787667Y-40247812D01*
X154471798Y-40429502D01*
X154166808Y-40604807D01*
X153874681Y-40772583D01*
X153597400Y-40931686D01*
X153336949Y-41080972D01*
X153095309Y-41219297D01*
X152874465Y-41345516D01*
X152676400Y-41458485D01*
X152503096Y-41557061D01*
X152356537Y-41640099D01*
X152238706Y-41706455D01*
X152151586Y-41754985D01*
X152097160Y-41784545D01*
X152077500Y-41794012D01*
X152056473Y-41783356D01*
X152000445Y-41752429D01*
X151911055Y-41702173D01*
X151789938Y-41633526D01*
X151638731Y-41547430D01*
X151459071Y-41444824D01*
X151252595Y-41326647D01*
X151020940Y-41193841D01*
X150765742Y-41047344D01*
X150488638Y-40888097D01*
X150191266Y-40717039D01*
X149875261Y-40535111D01*
X149542261Y-40343252D01*
X149193902Y-40142402D01*
X148831822Y-39933502D01*
X148457656Y-39717491D01*
X148073043Y-39495309D01*
X147849558Y-39366144D01*
X147460231Y-39140988D01*
X147080798Y-38921355D01*
X146712873Y-38708186D01*
X146358072Y-38502424D01*
X146018009Y-38305012D01*
X145694299Y-38116892D01*
X145388555Y-37939006D01*
X145102393Y-37772297D01*
X144837426Y-37617707D01*
X144595271Y-37476179D01*
X144377540Y-37348654D01*
X144185848Y-37236076D01*
X144021811Y-37139387D01*
X143887041Y-37059529D01*
X143783155Y-36997445D01*
X143711766Y-36954076D01*
X143674490Y-36930366D01*
X143669142Y-36925986D01*
X143689049Y-36913864D01*
X143743635Y-36881767D01*
X143830915Y-36830841D01*
X143948902Y-36762232D01*
X144095611Y-36677086D01*
X144269056Y-36576549D01*
X144467253Y-36461765D01*
X144688215Y-36333881D01*
X144929957Y-36194043D01*
X145190494Y-36043395D01*
X145467839Y-35883084D01*
X145760008Y-35714256D01*
X146065014Y-35538055D01*
X146380873Y-35355628D01*
X146705598Y-35168120D01*
X147037205Y-34976678D01*
X147373707Y-34782446D01*
X147713119Y-34586570D01*
X148053456Y-34390196D01*
X148392731Y-34194470D01*
X148728960Y-34000537D01*
X149060157Y-33809544D01*
X149384337Y-33622634D01*
X149699513Y-33440955D01*
X150003700Y-33265652D01*
X150294913Y-33097871D01*
X150571166Y-32938757D01*
X150830474Y-32789456D01*
X151070851Y-32651113D01*
X151290312Y-32524875D01*
X151486870Y-32411886D01*
X151658541Y-32313293D01*
X151803339Y-32230242D01*
X151919279Y-32163877D01*
X152004374Y-32115345D01*
X152056639Y-32085791D01*
X152074032Y-32076345D01*
X152094685Y-32086030D01*
G36*
X143688998Y-17507701D02*
G01*
X143744933Y-17538103D01*
X143833346Y-17587412D01*
X143952265Y-17654487D01*
X144099719Y-17738186D01*
X144273734Y-17837370D01*
X144472340Y-17950897D01*
X144693563Y-18077625D01*
X144935433Y-18216414D01*
X145195976Y-18366123D01*
X145473221Y-18525611D01*
X145765197Y-18693737D01*
X146069930Y-18869359D01*
X146385449Y-19051338D01*
X146709782Y-19238531D01*
X147040957Y-19429798D01*
X147377001Y-19623997D01*
X147715943Y-19819989D01*
X148055811Y-20016631D01*
X148394633Y-20212783D01*
X148730436Y-20407304D01*
X149061249Y-20599052D01*
X149385100Y-20786887D01*
X149700016Y-20969668D01*
X150004026Y-21146254D01*
X150295157Y-21315503D01*
X150571438Y-21476275D01*
X150830896Y-21627429D01*
X151071560Y-21767823D01*
X151291457Y-21896317D01*
X151488615Y-22011770D01*
X151661063Y-22113040D01*
X151806828Y-22198987D01*
X151923939Y-22268469D01*
X152010422Y-22320347D01*
X152064307Y-22353477D01*
X152083622Y-22366721D01*
X152083621Y-22366881D01*
X152064388Y-22378439D01*
X152010473Y-22410007D01*
X151923862Y-22460437D01*
X151806542Y-22528581D01*
X151660498Y-22613292D01*
X151487716Y-22713424D01*
X151290182Y-22827829D01*
X151069882Y-22955360D01*
X150828802Y-23094870D01*
X150568928Y-23245211D01*
X150292246Y-23405236D01*
X150000742Y-23573798D01*
X149696402Y-23749750D01*
X149381212Y-23931945D01*
X149057157Y-24119235D01*
X148726225Y-24310473D01*
X148390400Y-24504512D01*
X148051669Y-24700205D01*
X147712018Y-24896404D01*
X147373432Y-25091963D01*
X147037898Y-25285734D01*
X146707401Y-25476569D01*
X146383928Y-25663323D01*
X146069465Y-25844847D01*
X145765997Y-26019994D01*
X145475510Y-26187617D01*
X145199991Y-26346569D01*
X144941426Y-26495703D01*
X144701800Y-26633871D01*
X144483099Y-26759926D01*
X144287309Y-26872721D01*
X144116417Y-26971109D01*
X143972408Y-27053943D01*
X143857268Y-27120075D01*
X143772983Y-27168358D01*
X143721539Y-27197645D01*
X143705812Y-27206398D01*
X143696960Y-27206461D01*
X143679299Y-27201048D01*
X143651503Y-27189407D01*
X143612240Y-27170786D01*
X143560185Y-27144430D01*
X143494006Y-27109588D01*
X143412377Y-27065507D01*
X143313968Y-27011434D01*
X143197450Y-26946615D01*
X143061496Y-26870300D01*
X142904777Y-26781734D01*
X142725963Y-26680165D01*
X142523726Y-26564840D01*
X142296738Y-26435007D01*
X142043671Y-26289913D01*
X141763194Y-26128804D01*
X141453981Y-25950929D01*
X141114702Y-25755534D01*
X140744028Y-25541867D01*
X140340631Y-25309174D01*
X139903183Y-25056704D01*
X139462167Y-24802074D01*
X139072351Y-24576876D01*
X138692329Y-24357149D01*
X138323719Y-24143837D01*
X137968145Y-23937885D01*
X137627225Y-23740237D01*
X137302581Y-23551838D01*
X136995834Y-23373632D01*
X136708605Y-23206564D01*
X136442514Y-23051579D01*
X136199182Y-22909619D01*
X135980231Y-22781631D01*
X135787280Y-22668559D01*
X135621951Y-22571347D01*
X135485864Y-22490939D01*
X135380641Y-22428280D01*
X135307902Y-22384315D01*
X135269267Y-22359988D01*
X135263126Y-22355232D01*
X135281376Y-22342971D01*
X135334338Y-22310740D01*
X135420031Y-22259686D01*
X135536475Y-22190952D01*
X135681689Y-22105684D01*
X135853693Y-22005027D01*
X136050505Y-21890124D01*
X136270146Y-21762121D01*
X136510635Y-21622163D01*
X136769992Y-21471395D01*
X137046235Y-21310961D01*
X137337385Y-21142006D01*
X137641461Y-20965675D01*
X137956481Y-20783112D01*
X138280467Y-20595463D01*
X138611436Y-20403873D01*
X138947409Y-20209485D01*
X139286405Y-20013445D01*
X139626444Y-19816898D01*
X139965545Y-19620989D01*
X140301726Y-19426861D01*
X140633009Y-19235661D01*
X140957412Y-19048532D01*
X141272955Y-18866620D01*
X141577657Y-18691069D01*
X141869538Y-18523025D01*
X142146617Y-18363631D01*
X142406914Y-18214033D01*
X142648447Y-18075376D01*
X142869237Y-17948804D01*
X143067303Y-17835462D01*
X143240664Y-17736496D01*
X143387340Y-17653048D01*
X143505351Y-17586266D01*
X143592715Y-17537292D01*
X143647453Y-17507273D01*
X143667514Y-17497347D01*
X143688998Y-17507701D01*
G37*
X143688998Y-17507701D02*
X143744933Y-17538103D01*
X143833346Y-17587412D01*
X143952265Y-17654487D01*
X144099719Y-17738186D01*
X144273734Y-17837370D01*
X144472340Y-17950897D01*
X144693563Y-18077625D01*
X144935433Y-18216414D01*
X145195976Y-18366123D01*
X145473221Y-18525611D01*
X145765197Y-18693737D01*
X146069930Y-18869359D01*
X146385449Y-19051338D01*
X146709782Y-19238531D01*
X147040957Y-19429798D01*
X147377001Y-19623997D01*
X147715943Y-19819989D01*
X148055811Y-20016631D01*
X148394633Y-20212783D01*
X148730436Y-20407304D01*
X149061249Y-20599052D01*
X149385100Y-20786887D01*
X149700016Y-20969668D01*
X150004026Y-21146254D01*
X150295157Y-21315503D01*
X150571438Y-21476275D01*
X150830896Y-21627429D01*
X151071560Y-21767823D01*
X151291457Y-21896317D01*
X151488615Y-22011770D01*
X151661063Y-22113040D01*
X151806828Y-22198987D01*
X151923939Y-22268469D01*
X152010422Y-22320347D01*
X152064307Y-22353477D01*
X152083622Y-22366721D01*
X152083621Y-22366881D01*
X152064388Y-22378439D01*
X152010473Y-22410007D01*
X151923862Y-22460437D01*
X151806542Y-22528581D01*
X151660498Y-22613292D01*
X151487716Y-22713424D01*
X151290182Y-22827829D01*
X151069882Y-22955360D01*
X150828802Y-23094870D01*
X150568928Y-23245211D01*
X150292246Y-23405236D01*
X150000742Y-23573798D01*
X149696402Y-23749750D01*
X149381212Y-23931945D01*
X149057157Y-24119235D01*
X148726225Y-24310473D01*
X148390400Y-24504512D01*
X148051669Y-24700205D01*
X147712018Y-24896404D01*
X147373432Y-25091963D01*
X147037898Y-25285734D01*
X146707401Y-25476569D01*
X146383928Y-25663323D01*
X146069465Y-25844847D01*
X145765997Y-26019994D01*
X145475510Y-26187617D01*
X145199991Y-26346569D01*
X144941426Y-26495703D01*
X144701800Y-26633871D01*
X144483099Y-26759926D01*
X144287309Y-26872721D01*
X144116417Y-26971109D01*
X143972408Y-27053943D01*
X143857268Y-27120075D01*
X143772983Y-27168358D01*
X143721539Y-27197645D01*
X143705812Y-27206398D01*
X143696960Y-27206461D01*
X143679299Y-27201048D01*
X143651503Y-27189407D01*
X143612240Y-27170786D01*
X143560185Y-27144430D01*
X143494006Y-27109588D01*
X143412377Y-27065507D01*
X143313968Y-27011434D01*
X143197450Y-26946615D01*
X143061496Y-26870300D01*
X142904777Y-26781734D01*
X142725963Y-26680165D01*
X142523726Y-26564840D01*
X142296738Y-26435007D01*
X142043671Y-26289913D01*
X141763194Y-26128804D01*
X141453981Y-25950929D01*
X141114702Y-25755534D01*
X140744028Y-25541867D01*
X140340631Y-25309174D01*
X139903183Y-25056704D01*
X139462167Y-24802074D01*
X139072351Y-24576876D01*
X138692329Y-24357149D01*
X138323719Y-24143837D01*
X137968145Y-23937885D01*
X137627225Y-23740237D01*
X137302581Y-23551838D01*
X136995834Y-23373632D01*
X136708605Y-23206564D01*
X136442514Y-23051579D01*
X136199182Y-22909619D01*
X135980231Y-22781631D01*
X135787280Y-22668559D01*
X135621951Y-22571347D01*
X135485864Y-22490939D01*
X135380641Y-22428280D01*
X135307902Y-22384315D01*
X135269267Y-22359988D01*
X135263126Y-22355232D01*
X135281376Y-22342971D01*
X135334338Y-22310740D01*
X135420031Y-22259686D01*
X135536475Y-22190952D01*
X135681689Y-22105684D01*
X135853693Y-22005027D01*
X136050505Y-21890124D01*
X136270146Y-21762121D01*
X136510635Y-21622163D01*
X136769992Y-21471395D01*
X137046235Y-21310961D01*
X137337385Y-21142006D01*
X137641461Y-20965675D01*
X137956481Y-20783112D01*
X138280467Y-20595463D01*
X138611436Y-20403873D01*
X138947409Y-20209485D01*
X139286405Y-20013445D01*
X139626444Y-19816898D01*
X139965545Y-19620989D01*
X140301726Y-19426861D01*
X140633009Y-19235661D01*
X140957412Y-19048532D01*
X141272955Y-18866620D01*
X141577657Y-18691069D01*
X141869538Y-18523025D01*
X142146617Y-18363631D01*
X142406914Y-18214033D01*
X142648447Y-18075376D01*
X142869237Y-17948804D01*
X143067303Y-17835462D01*
X143240664Y-17736496D01*
X143387340Y-17653048D01*
X143505351Y-17586266D01*
X143592715Y-17537292D01*
X143647453Y-17507273D01*
X143667514Y-17497347D01*
X143688998Y-17507701D01*
%TD*%
D11*
%TO.P,REF\u002A\u002A,*%
%TO.N,*%
X122500000Y-189500000D03*
%TD*%
%TO.P,REF\u002A\u002A,*%
%TO.N,*%
X148000000Y-189500000D03*
%TD*%
%TO.P,REF\u002A\u002A,*%
%TO.N,*%
X148000000Y-20500000D03*
%TD*%
%TO.P,REF\u002A\u002A,*%
%TO.N,*%
X122500000Y-20500000D03*
%TD*%
M02*
